<svg width="24" height="24" viewBox="0 0 24 24" fill="none" xmlns="http://www.w3.org/2000/svg">
<path d="M18.6513 6.41283L18.8938 5.44269V5.44268L18.6513 6.41283ZM5.34869 6.41283L5.59123 7.38297V7.38297L5.34869 6.41283ZM16.7242 5.17264L15.7755 5.48886L15.7755 5.48886L16.7242 5.17264ZM8.04057 2.65743C7.57523 2.95489 7.43914 3.57326 7.7366 4.03859C8.03406 4.50393 8.65242 4.64002 9.11776 4.34257L8.57916 3.5L8.04057 2.65743ZM20 16C20 16.5523 20.4477 17 21 17C21.5523 17 22 16.5523 22 16H21H20ZM7 21V22H17V21V20H7V21ZM18.6513 6.41283L18.8938 5.44268L18.0886 5.24138L17.8461 6.21152L17.6035 7.18166L18.4088 7.38297L18.6513 6.41283ZM13.7098 3V2H10.2902V3V4H13.7098V3ZM6.15392 6.21152L5.91139 5.24138L5.10615 5.44269L5.34869 6.41283L5.59123 7.38297L6.39646 7.18166L6.15392 6.21152ZM3 9.42097H2V17H3H4V9.42097H3ZM5.34869 6.41283L5.10615 5.44269C3.28064 5.89906 2 7.53928 2 9.42097H3H4C4 8.45702 4.65605 7.61676 5.59123 7.38297L5.34869 6.41283ZM16.7242 5.17264L17.6729 4.85641C17.1043 3.15059 15.5079 2 13.7098 2V3V4C14.6471 4 15.4791 4.59973 15.7755 5.48886L16.7242 5.17264ZM17.8461 6.21152L18.0886 5.24138C17.8933 5.19256 17.7365 5.04736 17.6729 4.85641L16.7242 5.17264L15.7755 5.48886C16.0554 6.32853 16.7449 6.967 17.6035 7.18166L17.8461 6.21152ZM21 9.42097H22C22 7.53928 20.7194 5.89906 18.8938 5.44269L18.6513 6.41283L18.4088 7.38297C19.3439 7.61676 20 8.45702 20 9.42097H21ZM7 21V20C5.34315 20 4 18.6569 4 17H3H2C2 19.7614 4.23858 22 7 22V21ZM10.2902 3V2C9.47301 2 8.69679 2.23796 8.04057 2.65743L8.57916 3.5L9.11776 4.34257C9.46009 4.12373 9.86388 4 10.2902 4V3ZM21 16H22V9.42097H21H20V16H21ZM17 21V22C18.1815 22 19.2697 21.589 20.1255 20.9029L19.5 20.1227L18.8745 19.3424C18.3607 19.7543 17.7104 20 17 20V21Z" fill="black"/>
<path d="M12 16C11.606 16 11.2159 15.9224 10.8519 15.7716C10.488 15.6209 10.1573 15.3999 9.87868 15.1213C9.6001 14.8427 9.37913 14.512 9.22836 14.1481C9.0776 13.7841 9 13.394 9 13" stroke="black" stroke-width="2" stroke-linecap="round"/>
<path d="M3 3L21 21" stroke="black" stroke-width="2" stroke-linecap="round" stroke-linejoin="round"/>
</svg>
