<svg width="24" height="24" viewBox="0 0 24 24" fill="none" xmlns="http://www.w3.org/2000/svg">
<path d="M3 7C3 4.79086 4.79086 3 7 3H17C19.2091 3 21 4.79086 21 7V17C21 19.2091 19.2091 21 17 21H7C4.79086 21 3 19.2091 3 17V7Z" stroke="black" stroke-width="2"/>
<path d="M8 10.8496C8.63513 10.8496 9.15039 11.3649 9.15039 12C9.15039 12.6351 8.63513 13.1504 8 13.1504C7.36487 13.1504 6.84961 12.6351 6.84961 12C6.84961 11.3649 7.36487 10.8496 8 10.8496Z" fill="black" stroke="black" stroke-width="0.3" stroke-linecap="round" stroke-linejoin="round"/>
<path d="M16 10.8496C16.6351 10.8496 17.1504 11.3649 17.1504 12C17.1504 12.6351 16.6351 13.1504 16 13.1504C15.3649 13.1504 14.8496 12.6351 14.8496 12C14.8496 11.3649 15.3649 10.8496 16 10.8496Z" fill="black" stroke="black" stroke-width="0.3" stroke-linecap="round" stroke-linejoin="round"/>
<path d="M12 10.8496C12.6351 10.8496 13.1504 11.3649 13.1504 12C13.1504 12.6351 12.6351 13.1504 12 13.1504C11.3649 13.1504 10.8496 12.6351 10.8496 12C10.8496 11.3649 11.3649 10.8496 12 10.8496Z" fill="black" stroke="black" stroke-width="0.3" stroke-linecap="round" stroke-linejoin="round"/>
</svg>
