<svg width="24" height="24" viewBox="0 0 24 24" fill="none" xmlns="http://www.w3.org/2000/svg">
<rect x="3" y="3" width="18" height="18" rx="9" stroke="black" stroke-width="2"/>
<path d="M13.1504 8C13.1504 8.63513 12.6351 9.15039 12 9.15039C11.3649 9.15039 10.8496 8.63513 10.8496 8C10.8496 7.36487 11.3649 6.84961 12 6.84961C12.6351 6.84961 13.1504 7.36487 13.1504 8Z" fill="black" stroke="black" stroke-width="0.3" stroke-linecap="round" stroke-linejoin="round"/>
<path d="M13.1504 16C13.1504 16.6351 12.6351 17.1504 12 17.1504C11.3649 17.1504 10.8496 16.6351 10.8496 16C10.8496 15.3649 11.3649 14.8496 12 14.8496C12.6351 14.8496 13.1504 15.3649 13.1504 16Z" fill="black" stroke="black" stroke-width="0.3" stroke-linecap="round" stroke-linejoin="round"/>
<path d="M13.1504 12C13.1504 12.6351 12.6351 13.1504 12 13.1504C11.3649 13.1504 10.8496 12.6351 10.8496 12C10.8496 11.3649 11.3649 10.8496 12 10.8496C12.6351 10.8496 13.1504 11.3649 13.1504 12Z" fill="black" stroke="black" stroke-width="0.3" stroke-linecap="round" stroke-linejoin="round"/>
</svg>
