<svg width="24" height="24" viewBox="0 0 24 24" fill="none" xmlns="http://www.w3.org/2000/svg">
<path d="M15 9L9 15" stroke="black" stroke-width="2" stroke-linecap="round" stroke-linejoin="round"/>
<path d="M16 14.5C16 15.3284 15.3284 16 14.5 16C13.6716 16 13 15.3284 13 14.5C13 13.6716 13.6716 13 14.5 13C15.3284 13 16 13.6716 16 14.5Z" fill="black"/>
<path d="M11 9.5C11 10.3284 10.3284 11 9.5 11C8.67157 11 8 10.3284 8 9.5C8 8.67157 8.67157 8 9.5 8C10.3284 8 11 8.67157 11 9.5Z" fill="black"/>
<path d="M10.0011 3.78611C11.1396 2.76885 12.8605 2.76885 13.9989 3.78611L14.2406 4.00206C14.7473 4.45481 15.3927 4.72214 16.0711 4.76028L16.3947 4.77847C17.919 4.86417 19.1359 6.08101 19.2216 7.60534L19.2398 7.92894C19.2779 8.60736 19.5452 9.25274 19.998 9.75943L20.2139 10.0011C21.2312 11.1396 21.2312 12.8604 20.2139 13.9989L19.998 14.2406C19.5452 14.7473 19.2779 15.3927 19.2398 16.0711L19.2216 16.3947C19.1359 17.919 17.919 19.1359 16.3947 19.2216L16.0711 19.2397C15.3927 19.2779 14.7473 19.5452 14.2406 19.998L13.9989 20.2139C12.8605 21.2312 11.1396 21.2312 10.0011 20.2139L9.75946 19.998C9.25277 19.5452 8.60739 19.2779 7.92897 19.2397L7.60537 19.2216C6.08104 19.1359 4.8642 17.919 4.7785 16.3947L4.76031 16.0711C4.72217 15.3927 4.45484 14.7473 4.00209 14.2406L3.78614 13.9989C2.76888 12.8604 2.76888 11.1396 3.78614 10.0011L4.00209 9.75943C4.45484 9.25274 4.72217 8.60736 4.76031 7.92894L4.7785 7.60534C4.8642 6.08101 6.08104 4.86417 7.60537 4.77847L7.92897 4.76028C8.60739 4.72214 9.25277 4.45481 9.75946 4.00206L10.0011 3.78611Z" stroke="black" stroke-width="2"/>
</svg>
