<svg width="24" height="24" viewBox="0 0 24 24" fill="none" xmlns="http://www.w3.org/2000/svg">
<path d="M11.2797 15.215L10.7076 16.0352L10.7076 16.0352L11.2797 15.215ZM15.9712 14.0343L16.2382 13.0706L16.2381 13.0706L15.9712 14.0343ZM11.9718 15.1101L12.7025 15.7928L12.7025 15.7928L11.9718 15.1101ZM18.4965 18.3779L17.5478 18.0617L17.5478 18.0618L18.4965 18.3779ZM10.0438 8.13029L11.0075 7.86337L11.0075 7.86336L10.0438 8.13029ZM5.7002 5.60505L6.01638 6.55375L6.0164 6.55374L5.7002 5.60505ZM9.18861 9.05601C9.21954 9.60742 9.69163 10.0294 10.243 9.99843C10.7945 9.9675 11.2164 9.49541 11.1855 8.94399L10.187 9L9.18861 9.05601ZM4.19767 13.5366C4.49401 14.0026 5.11205 14.1402 5.5781 13.8439C6.04415 13.5475 6.18173 12.9295 5.88539 12.4634L5.04153 13L4.19767 13.5366ZM11.2797 15.215L11.8518 14.3948C11.4394 14.1072 11.0471 13.7798 10.6796 13.4124L9.97249 14.1195L9.26539 14.8266C9.71651 15.2777 10.1993 15.6806 10.7076 16.0352L11.2797 15.215ZM15.9712 14.0343L16.2381 13.0706C14.3943 12.56 12.4533 13.1301 11.2411 14.4273L11.9718 15.1101L12.7025 15.7928C13.3986 15.0479 14.5676 14.6832 15.7043 14.9981L15.9712 14.0343ZM18.4965 18.3779L19.4452 18.6941C20.2627 16.2414 18.7281 13.7603 16.2382 13.0706L15.9712 14.0343L15.7043 14.9981C17.2319 15.4212 17.9585 16.8294 17.5478 18.0617L18.4965 18.3779ZM10.0438 8.13029L11.0075 7.86336C10.3179 5.37344 7.83674 3.83886 5.384 4.65636L5.7002 5.60505L6.0164 6.55374C7.24874 6.14301 8.65697 6.86963 9.08008 8.39722L10.0438 8.13029ZM7.71759 16.3744L7.01048 17.0815C8.08476 18.1558 10.4369 20.1046 12.8178 21.0936C14.0001 21.5847 15.3374 21.9022 16.5761 21.6033C17.9078 21.282 18.908 20.3058 19.4452 18.6941L18.4965 18.3779L17.5478 18.0618C17.1852 19.1498 16.6445 19.5294 16.107 19.6591C15.4764 19.8112 14.6161 19.6749 13.585 19.2466C11.5392 18.3968 9.40163 16.6442 8.42469 15.6673L7.71759 16.3744ZM11.2797 15.215L10.7076 16.0352C11.4214 16.5331 12.2612 16.2651 12.7025 15.7928L11.9718 15.1101L11.2412 14.4273C11.2948 14.3699 11.3717 14.3232 11.4716 14.3062C11.5788 14.2879 11.7226 14.3047 11.8518 14.3948L11.2797 15.215ZM10.187 9L11.1855 8.94399C11.1653 8.58459 11.1069 8.22232 11.0075 7.86337L10.0438 8.13029L9.08008 8.39721C9.1408 8.61644 9.17633 8.83721 9.18861 9.05601L10.187 9ZM5.7002 5.60505L5.38402 4.65635C4.34253 5.00346 3.54457 5.54993 3.02676 6.3C2.50883 7.05024 2.33958 7.9051 2.3755 8.74441C2.44503 10.3691 3.28889 12.1073 4.19767 13.5366L5.04153 13L5.88539 12.4634C5.02264 11.1066 4.4199 9.73917 4.37367 8.6589C4.35171 8.1457 4.45729 7.7482 4.67265 7.43624C4.88814 7.1241 5.28193 6.79853 6.01638 6.55375L5.7002 5.60505Z" fill="black"/>
<path d="M21 3L3 21" stroke="black" stroke-width="2" stroke-linecap="round" stroke-linejoin="round"/>
</svg>
