<svg width="24" height="24" viewBox="0 0 24 24" fill="none" xmlns="http://www.w3.org/2000/svg">
<path d="M9 3.51212C5.50442 4.74762 3 8.08134 3 12C3 16.9706 7.02944 21 12 21C15.9315 21 19.2743 18.4791 20.5 14.9655" stroke="black" stroke-width="2" stroke-linecap="round"/>
<path d="M12 4C12 3.44771 12.4491 2.99426 12.998 3.0555C13.8372 3.14914 14.6609 3.36064 15.4442 3.68508C16.5361 4.13738 17.5282 4.80031 18.364 5.63604C19.1997 6.47177 19.8626 7.46392 20.3149 8.55585C20.6394 9.33913 20.8509 10.1628 20.9445 11.0021C21.0057 11.5509 20.5523 12 20 12L13 12C12.4477 12 12 11.5523 12 11L12 4Z" stroke="black" stroke-width="2"/>
</svg>
