<svg width="24" height="24" viewBox="0 0 24 24" fill="none" xmlns="http://www.w3.org/2000/svg">
<path d="M11 6.00001C11 5.44772 10.5506 4.99356 10.0026 5.06242C8.77376 5.21683 7.59276 5.65514 6.55544 6.34825C5.23985 7.2273 4.21447 8.47673 3.60897 9.93854C3.00347 11.4003 2.84504 13.0089 3.15372 14.5607C3.4624 16.1126 4.22433 17.538 5.34315 18.6569C6.46197 19.7757 7.88743 20.5376 9.43928 20.8463C10.9911 21.155 12.5997 20.9965 14.0615 20.391C15.5233 19.7855 16.7727 18.7602 17.6518 17.4446C18.3449 16.4073 18.7832 15.2262 18.9376 13.9974C19.0064 13.4495 18.5523 13 18 13H12C11.4477 13 11 12.5523 11 12V6.00001Z" stroke="black" stroke-width="2"/>
<path d="M14 4C14 3.44772 14.45 2.99268 14.9966 3.07131C15.5731 3.15423 16.1383 3.30897 16.6788 3.53285C17.5281 3.88463 18.2997 4.40025 18.9497 5.05026C19.5998 5.70027 20.1154 6.47194 20.4672 7.32122C20.691 7.86171 20.8458 8.42691 20.9287 9.00339C21.0073 9.55005 20.5523 10 20 10L14.1 10C14.0448 10 14 9.95523 14 9.9V4Z" stroke="black" stroke-width="2"/>
</svg>
