<svg width="24" height="24" viewBox="0 0 24 24" fill="none" xmlns="http://www.w3.org/2000/svg">
<path d="M10 4C9.44772 4 9 4.44772 9 5C9 5.55228 9.44772 6 10 6V5V4ZM15 11.5C15 12.0523 15.4477 12.5 16 12.5C16.5523 12.5 17 12.0523 17 11.5H16H15ZM13 19V18H6V19V20H13V19ZM3 16H4V7H3H2V16H3ZM10 5V6H13V5V4H10V5ZM16 8H15V11.5H16H17V8H16ZM6 19V18C4.89543 18 4 17.1046 4 16H3H2C2 18.2091 3.79086 20 6 20V19ZM13 19V20C15.2091 20 17 18.2091 17 16H16H15C15 17.1046 14.1046 18 13 18V19ZM13 5V6C14.1046 6 15 6.89543 15 8H16H17C17 5.79086 15.2091 4 13 4V5ZM3 7H4C4 6.44772 4.44772 6 5 6V5V4C3.34315 4 2 5.34315 2 7H3Z" fill="black"/>
<path d="M19.331 7.50208L18.6621 6.75878L19.331 7.50208ZM20 16C20 16.5523 20.4477 17 21 17C21.5523 17 22 16.5523 22 16H21H20ZM19.331 7.50208L18.6621 6.75878L15.331 9.75671L16 10.5L16.669 11.2433L20 8.24537L19.331 7.50208ZM19.331 7.50208L20 8.24537L20 8.24537H21H22C22 6.51383 19.9491 5.60044 18.6621 6.75878L19.331 7.50208ZM21 16H22V8.24537H21H20V16H21Z" fill="black"/>
<path d="M3 3L21 21" stroke="black" stroke-width="2" stroke-linecap="round" stroke-linejoin="round"/>
</svg>
