<svg width="24" height="24" viewBox="0 0 24 24" fill="none" xmlns="http://www.w3.org/2000/svg">
<path d="M12 3.75C13.9197 3.75 14.7018 3.75925 15.3135 3.95801C16.6072 4.37842 17.6216 5.39277 18.042 6.68652C18.2407 7.29823 18.25 8.08034 18.25 10V17.3877C18.25 18.359 18.2498 19.0428 18.21 19.5488C18.1689 20.0701 18.0918 20.268 18.0361 20.3506C17.7751 20.7376 17.3202 20.9472 16.8564 20.8936C16.7575 20.8821 16.5574 20.8111 16.1348 20.5029C15.7246 20.2038 15.2053 19.7591 14.4678 19.127C13.8771 18.6207 13.4325 18.2235 12.916 18.041C12.3233 17.8316 11.6767 17.8316 11.084 18.041C10.5675 18.2235 10.1229 18.6207 9.53223 19.127C8.79469 19.7591 8.27544 20.2038 7.86523 20.5029C7.44263 20.8111 7.24249 20.8821 7.14355 20.8936C6.67983 20.9472 6.22494 20.7376 5.96387 20.3506C5.90817 20.268 5.83112 20.0701 5.79004 19.5488C5.75018 19.0428 5.75 18.359 5.75 17.3877V10C5.75 8.08034 5.75925 7.29823 5.95801 6.68652C6.37842 5.39277 7.39277 4.37842 8.68652 3.95801C9.29823 3.75925 10.0803 3.75 12 3.75Z" stroke="#2D264B" stroke-width="1.5" stroke-linecap="round"/>
</svg>
