<svg width="24" height="24" viewBox="0 0 24 24" fill="none" xmlns="http://www.w3.org/2000/svg">
<path fill-rule="evenodd" clip-rule="evenodd" d="M20 7C18.3431 7 17 5.65685 17 4C17 3.46011 17.1426 2.95353 17.3922 2.51588C17.0987 2.45509 16.7898 2.40908 16.4635 2.37373C15.3214 2.24999 13.8818 2.24999 12.0452 2.25H11.9547C10.1182 2.24999 8.67858 2.24999 7.53645 2.37373C6.37091 2.50001 5.42653 2.76232 4.62021 3.34815C4.13206 3.70281 3.70278 4.13209 3.34812 4.62024C2.76229 5.42656 2.49998 6.37094 2.3737 7.53648C2.24996 8.67861 2.24996 10.1182 2.24997 11.9547V12.0452C2.24996 13.8818 2.24996 15.3214 2.3737 16.4635C2.49998 17.6291 2.76229 18.5734 3.34812 19.3798C3.70278 19.8679 4.13206 20.2972 4.62021 20.6518C5.42653 21.2377 6.37091 21.5 7.53645 21.6263C8.67856 21.75 10.1182 21.75 11.9547 21.75H12.0453C13.8818 21.75 15.3214 21.75 16.4635 21.6263C17.629 21.5 18.5734 21.2377 19.3797 20.6518C19.8679 20.2972 20.2972 19.8679 20.6518 19.3798C21.2376 18.5734 21.5 17.6291 21.6262 16.4635C21.75 15.3214 21.75 13.8818 21.75 12.0453V11.9547C21.75 10.1182 21.75 8.67859 21.6262 7.53648C21.5909 7.21018 21.5449 6.90123 21.4841 6.60778C21.0464 6.85739 20.5399 7 20 7ZM17.3303 8.4695C17.7022 8.65192 17.8557 9.10127 17.6733 9.47315L16.213 12.4502C15.1904 14.5348 12.185 14.433 11.3058 12.284C10.9167 11.3327 9.58629 11.2876 9.13365 12.2104L7.67332 15.1874C7.4909 15.5593 7.04155 15.7129 6.66967 15.5305C6.29779 15.3481 6.1442 14.8987 6.32662 14.5268L7.78695 11.5498C8.80952 9.46517 11.815 9.56697 12.6941 11.716C13.0833 12.6673 14.4136 12.7124 14.8663 11.7896L16.3266 8.81255C16.509 8.44067 16.9584 8.28708 17.3303 8.4695Z" fill="#FAFAFA"/>
<path d="M18 4C18 5.10457 18.8954 6 20 6C21.1045 6 22 5.10457 22 4C22 2.89543 21.1045 2 20 2C18.8954 2 18 2.89543 18 4Z" fill="#FAFAFA"/>
</svg>
