<svg width="24" height="24" viewBox="0 0 24 24" fill="none" xmlns="http://www.w3.org/2000/svg">
<path fill-rule="evenodd" clip-rule="evenodd" d="M11.8383 1.25002C10.132 1.24975 9.09078 1.24958 8.22326 1.53146C6.47274 2.10024 5.10031 3.47267 4.53153 5.22319L4.52291 5.25003H4.23087C0.525334 5.25003 -1.06647 9.95211 1.87705 12.203L1.8877 12.2112L4.35461 13.9615C4.44402 14.025 4.53679 14.0834 4.63249 14.1365C4.64341 14.1651 4.65462 14.1938 4.66613 14.2224C4.92162 14.857 5.42031 15.6184 5.89993 16.1063C6.68156 16.9012 7.49044 17.2538 8.78209 17.8167L8.86793 17.8541C9.42429 18.0967 9.98686 18.3167 10.5092 18.4772C10.7566 18.5532 11.0063 18.6196 11.2501 18.6678V21.25H8.00011C7.58589 21.25 7.25011 21.5858 7.25011 22C7.25011 22.4142 7.58589 22.75 8.00011 22.75H16.0001C16.4143 22.75 16.7501 22.4142 16.7501 22C16.7501 21.5858 16.4143 21.25 16.0001 21.25H12.7501V18.6678C12.9939 18.6196 13.2436 18.5532 13.491 18.4772C14.0134 18.3167 14.5759 18.0967 15.1323 17.8541L15.2181 17.8167C16.5098 17.2538 17.3187 16.9012 18.1003 16.1063C18.5799 15.6184 19.0786 14.857 19.3341 14.2224C19.3453 14.1945 19.3562 14.1667 19.3668 14.1388C19.4646 14.0832 19.5595 14.0227 19.6513 13.9576L22.1126 12.2112L22.1233 12.203C25.0668 9.95211 23.475 5.25003 19.7695 5.25003H19.4773L19.4687 5.22319C18.8999 3.47267 17.5275 2.10024 15.777 1.53146C14.9094 1.24958 13.8682 1.24975 12.1619 1.25002H11.8383ZM4.23087 6.75003H4.28317C4.25004 7.33514 4.25007 8.03687 4.2501 8.91608L4.2501 10.416C4.25002 11.0411 4.24996 11.5801 4.27009 12.0623L2.77825 11.0038C0.987768 9.62126 1.96397 6.75003 4.23087 6.75003ZM21.2221 11.0038L19.7301 12.0624C19.7503 11.5804 19.7502 11.0416 19.7501 10.4169L19.7501 8.91603C19.7501 8.03693 19.7502 7.33509 19.717 6.75003H19.7695C22.0364 6.75003 23.0126 9.62126 21.2221 11.0038Z" fill="#FAFAFA"/>
</svg>
