<svg width="24" height="24" viewBox="0 0 24 24" fill="none" xmlns="http://www.w3.org/2000/svg">
<path d="M12.5945 5.20819C12.4024 4.59727 11.5976 4.59727 11.4055 5.20819C11.1268 6.09399 10.3176 6.71631 9.38004 6.71631C9.08998 6.71631 8.87351 6.89471 8.7855 7.17451C8.69695 7.45601 8.76928 7.75176 9.02062 7.9404C9.76396 8.49829 10.0637 9.47391 9.78623 10.3561C9.68379 10.6818 9.80639 10.9606 10.0214 11.122C10.2328 11.2807 10.4976 11.304 10.7402 11.122C11.4897 10.5594 12.5103 10.5594 13.2598 11.122C13.5024 11.304 13.7672 11.2807 13.9786 11.122C14.1936 10.9606 14.3162 10.6818 14.2138 10.3561C13.9363 9.47391 14.236 8.49829 14.9794 7.9404C15.2307 7.75176 15.303 7.45601 15.2145 7.17451C15.1265 6.89471 14.91 6.71631 14.62 6.71631C13.6824 6.71631 12.8732 6.09399 12.5945 5.20819Z" fill="#FAFAFA"/>
<path fill-rule="evenodd" clip-rule="evenodd" d="M3.24999 9C3.24999 4.16751 7.1675 0.25 12 0.25C16.8325 0.25 20.75 4.16751 20.75 9C20.75 9.42706 20.7193 9.84715 20.6601 10.2581C20.5335 10.5946 20.3877 10.9218 20.2243 11.2382C18.9126 13.7781 16.4595 15.6312 13.5471 16.1213C13.0445 16.2059 12.5277 16.25 12 16.25C11.383 16.25 10.7808 16.1897 10.1988 16.0749C7.34647 15.5122 4.96255 13.6362 3.70639 11.1011C3.57078 10.8274 3.44832 10.5461 3.33982 10.2578C3.28062 9.84693 3.24999 9.42694 3.24999 9ZM9.97458 4.75812C10.6071 2.74729 13.3929 2.74729 14.0254 4.75812C14.1156 5.0448 14.3641 5.21631 14.62 5.21631C16.729 5.21631 17.4921 7.93003 15.8798 9.1401C15.6576 9.30685 15.5533 9.61567 15.6447 9.90599C15.9545 10.8912 15.5571 11.8128 14.879 12.3217C14.1975 12.8332 13.1963 12.9498 12.3594 12.3217C12.1434 12.1595 11.8566 12.1595 11.6406 12.3217C10.8037 12.9498 9.80252 12.8332 9.12096 12.3217C8.44292 11.8128 8.04546 10.8912 8.35535 9.90599C8.44667 9.61567 8.3424 9.30685 8.12023 9.1401C6.5079 7.93003 7.27098 5.21631 9.38004 5.21631C9.63594 5.21631 9.8844 5.0448 9.97458 4.75812Z" fill="#FAFAFA"/>
<path d="M3.26361 13.2652C3.17496 13.4153 3.08158 13.5771 2.98101 13.7513L1.15503 16.914C0.929565 17.3044 0.721084 17.6654 0.600886 17.9642C0.483153 18.2569 0.33488 18.7645 0.662541 19.2343C0.994353 19.71 1.52698 19.7382 1.84263 19.7225C2.16223 19.7066 2.56851 19.6267 3.00494 19.5407L3.79621 19.3851C4.23487 19.2988 4.49513 19.2491 4.68823 19.2358C4.77643 19.2297 4.82378 19.2338 4.84708 19.2377C4.85779 19.2395 4.8641 19.2416 4.8641 19.2416L4.86704 19.243L4.86969 19.2449C4.86969 19.2449 4.87469 19.2493 4.8816 19.2576C4.89664 19.2759 4.92385 19.3148 4.9627 19.3942C5.04775 19.5681 5.13478 19.8184 5.27939 20.2414L5.54021 21.0044C5.68403 21.4254 5.81792 21.8172 5.96396 22.102C6.1082 22.3832 6.39894 22.8304 6.97685 22.8798C7.54752 22.9287 7.91294 22.5465 8.10756 22.2982C8.30625 22.0447 8.51464 21.6836 8.74 21.2932L10.5293 18.1941C10.6358 18.0096 10.7331 17.8409 10.8209 17.686C10.5128 17.6524 10.2084 17.6057 9.90843 17.5465C7.18111 17.0085 4.82605 15.4403 3.26361 13.2652Z" fill="#FAFAFA"/>
<path d="M20.5814 13.4757C20.6268 13.554 20.6735 13.635 20.7219 13.7188L22.5667 16.9141C22.7921 17.3044 23.0006 17.6654 23.1208 17.9642C23.2385 18.2569 23.3868 18.7645 23.0591 19.2343C22.7273 19.71 22.1947 19.7382 21.879 19.7225C21.5594 19.7066 21.1532 19.6267 20.7167 19.5407L19.9255 19.3851C19.4868 19.2988 19.2265 19.2491 19.0334 19.2358C18.9452 19.2297 18.8979 19.2338 18.8746 19.2377C18.8639 19.2395 18.8576 19.2416 18.8576 19.2416L18.8546 19.243L18.8532 19.2439L18.852 19.2449C18.852 19.2449 18.847 19.2493 18.8401 19.2576C18.825 19.2759 18.7978 19.3148 18.759 19.3942C18.6739 19.5681 18.5869 19.8184 18.4423 20.2414L18.1815 21.0044C18.0376 21.4254 17.9037 21.8173 17.7577 22.102C17.6135 22.3832 17.3227 22.8304 16.7448 22.8798C16.1741 22.9287 15.8087 22.5465 15.6141 22.2982C15.4154 22.0447 15.207 21.6837 14.9817 21.2932L13.1923 18.194C13.0917 18.0196 12.9992 17.8594 12.9152 17.7115C13.2123 17.6865 13.5061 17.6493 13.7961 17.6005C16.559 17.1356 18.9623 15.618 20.5814 13.4757Z" fill="#FAFAFA"/>
</svg>
