<svg width="24" height="24" viewBox="0 0 24 24" fill="none" xmlns="http://www.w3.org/2000/svg">
<path fill-rule="evenodd" clip-rule="evenodd" d="M12.8575 6C14.2171 5.99999 15.2525 5.99998 16.0785 6.08679C16.7309 6.15536 17.2927 6.28112 17.8205 6.52306C18.8259 6.98397 19.6771 7.72509 20.2719 8.65756C20.632 9.22195 20.8456 9.8533 21.0134 10.6235C21.1778 11.378 21.3085 12.3187 21.4747 13.5154L21.4839 13.5818C21.6978 15.1219 21.865 16.3259 21.9158 17.2957C21.9674 18.2803 21.905 19.1008 21.6088 19.8541C21.1247 21.0853 20.2308 22.112 19.0779 22.7609C18.3725 23.1579 17.5684 23.3325 16.586 23.4169C15.6185 23.5 14.403 23.5 12.8481 23.5H11.152C9.59715 23.5 8.38165 23.5 7.41413 23.4169C6.43177 23.3325 5.62764 23.1579 4.92225 22.7609C3.76933 22.112 2.87545 21.0853 2.39132 19.8541C2.09512 19.1008 2.03274 18.2803 2.08431 17.2957C2.1351 16.3259 2.30232 15.122 2.51622 13.5819L2.52543 13.5156C2.69165 12.3188 2.8223 11.378 2.98673 10.6235C3.15456 9.8533 3.36819 9.22195 3.72823 8.65756C4.32308 7.72509 5.17425 6.98397 6.17969 6.52306C6.70746 6.28112 7.26925 6.15536 7.92168 6.08679C8.74766 5.99998 9.78299 5.99999 11.1427 6H12.8575ZM7.25012 5.75C7.25012 3.12665 9.37677 1 12.0001 1C14.6235 1 16.7501 3.12665 16.7501 5.75V10.75C16.7501 11.1642 16.4143 11.5 16.0001 11.5C15.5859 11.5 15.2501 11.1642 15.2501 10.75V5.75C15.2501 3.95507 13.795 2.5 12.0001 2.5C10.2052 2.5 8.75012 3.95507 8.75012 5.75V10.75C8.75012 11.1642 8.41434 11.5 8.00012 11.5C7.58591 11.5 7.25012 11.1642 7.25012 10.75V5.75Z" fill="#FAFAFA"/>
</svg>
