<svg width="24" height="24" viewBox="0 0 24 24" fill="none" xmlns="http://www.w3.org/2000/svg">
<path fill-rule="evenodd" clip-rule="evenodd" d="M12.0001 1.25C9.56991 1.25 7.566 3.07495 7.28402 5.42915C6.89031 5.50456 6.52761 5.61356 6.17969 5.77306C5.17425 6.23397 4.32308 6.97509 3.72823 7.90756C3.36819 8.47195 3.15456 9.1033 2.98673 9.87347C2.8223 10.628 2.69165 11.5688 2.52543 12.7656L2.51622 12.8319C2.30232 14.372 2.1351 15.5759 2.08431 16.5457C2.03274 17.5303 2.09512 18.3508 2.39132 19.1041C2.87545 20.3353 3.76933 21.362 4.92225 22.0109C5.62764 22.4079 6.43177 22.5825 7.41413 22.6669C8.38165 22.75 9.59715 22.75 11.152 22.75H12.8481C14.403 22.75 15.6185 22.75 16.586 22.6669C17.5684 22.5825 18.3725 22.4079 19.0779 22.0109C20.2308 21.362 21.1247 20.3353 21.6088 19.1041C21.905 18.3508 21.9674 17.5303 21.9158 16.5457C21.865 15.5759 21.6978 14.3719 21.4839 12.8318L21.4747 12.7656C21.3085 11.5688 21.1778 10.628 21.0134 9.87347C20.8456 9.1033 20.632 8.47195 20.2719 7.90756C19.6771 6.97509 18.8259 6.23397 17.8205 5.77306C17.4725 5.61356 17.1098 5.50456 16.7161 5.42915C16.4341 3.07495 14.4302 1.25 12.0001 1.25ZM11.1427 5.25C10.2406 5.24999 9.48129 5.24999 8.83116 5.27533C9.16048 3.82924 10.4542 2.75 12.0001 2.75C13.5459 2.75 14.8397 3.82924 15.169 5.27533C14.5189 5.24999 13.7595 5.24999 12.8575 5.25H11.1427ZM8.00012 8.25C7.58591 8.25 7.25012 8.58579 7.25012 9C7.25012 9.41421 7.58591 9.75 8.00012 9.75H16.0001C16.4143 9.75 16.7501 9.41421 16.7501 9C16.7501 8.58579 16.4143 8.25 16.0001 8.25H8.00012Z" fill="#FAFAFA"/>
</svg>
