<svg width="24" height="24" viewBox="0 0 24 24" fill="none" xmlns="http://www.w3.org/2000/svg">
<path d="M1.72766 1.81826C1.62719 1.41642 1.21998 1.1721 0.818137 1.27257C0.416293 1.37305 0.171982 1.78025 0.272453 2.1821L1.3243 6.38907L2.3031 10.4731C2.7193 12.2096 3.0469 13.5765 3.43564 14.6384C3.83441 15.7277 4.32341 16.5733 5.10799 17.2218C5.17569 17.2777 5.24468 17.3321 5.31488 17.3849C6.12833 17.9968 7.06465 18.2752 8.21684 18.4091C9.34006 18.5397 10.7456 18.5397 12.5313 18.5396H13.1249C14.6699 18.5397 15.8861 18.5397 16.866 18.4406C17.8695 18.3391 18.6953 18.1285 19.4384 17.6632C19.7909 17.4425 20.1184 17.1842 20.4152 16.8929C21.0011 16.3177 21.3872 15.6192 21.7071 14.7502H17.0002C16.5859 14.7502 16.2502 14.4144 16.2502 14.0002C16.2502 13.586 16.5859 13.2502 17.0002 13.2502H22.17C22.2922 12.7957 22.416 12.297 22.5484 11.7502L14.0002 11.7502C13.5859 11.7502 13.2502 11.4144 13.2502 11.0002C13.2502 10.586 13.5859 10.2502 14.0002 10.2502L22.9075 10.2502C23.056 9.61688 23.1725 9.07364 23.2252 8.61271C23.2969 7.98492 23.2677 7.38716 22.9543 6.84137C22.8202 6.60794 22.6527 6.39544 22.4569 6.21069C21.9992 5.77874 21.4247 5.61094 20.7975 5.53441C20.1931 5.46066 19.4253 5.46068 18.4937 5.4607L2.63836 5.4607L1.72766 1.81826Z" fill="#FAFAFA"/>
<path d="M9.42121 22.0002C10.0026 22.0002 10.4738 21.5289 10.4738 20.9475C10.4738 20.3662 10.0026 19.8949 9.42121 19.8949C8.83986 19.8949 8.36858 20.3662 8.36858 20.9475C8.36858 21.5289 8.83986 22.0002 9.42121 22.0002Z" fill="#FAFAFA"/>
<path d="M15.737 22.0002C16.3183 22.0002 16.7896 21.5289 16.7896 20.9475C16.7896 20.3662 16.3183 19.8949 15.737 19.8949C15.1556 19.8949 14.6844 20.3662 14.6844 20.9475C14.6844 21.5289 15.1556 22.0002 15.737 22.0002Z" fill="#FAFAFA"/>
</svg>
