<svg width="24" height="24" viewBox="0 0 24 24" fill="none" xmlns="http://www.w3.org/2000/svg">
<path fill-rule="evenodd" clip-rule="evenodd" d="M15.3135 2.35479C14.6852 2.15038 14.0588 2.26998 13.4276 2.49932C12.8129 2.72265 12.0686 3.09917 11.158 3.5598L11.114 3.58209C10.546 3.86937 10.3916 3.93965 10.2406 3.96783C10.169 3.98118 10.0965 3.98826 10.0237 3.98898C9.86995 3.9905 9.70697 3.95194 9.10012 3.78143L8.09716 3.49962C7.04002 3.20258 5.90798 3.57079 5.22786 4.4329C4.20167 5.73366 4.56796 7.64205 6.00281 8.47046L7.89873 9.56508L5.1179 14.021C4.97323 14.2528 4.88406 14.3956 4.80297 14.5444C4.6546 14.8166 4.52848 15.1003 4.42585 15.3928C4.36976 15.5527 4.32345 15.7145 4.24831 15.9772L4.23484 16.0243C3.87919 17.2676 3.60368 18.2307 3.43825 18.951C3.35477 19.3145 3.29384 19.6389 3.26641 19.9209C3.23987 20.1937 3.23805 20.4855 3.31591 20.7564C3.72482 22.1787 5.18605 23.0224 6.6223 22.6653C6.89577 22.5973 7.14762 22.4498 7.37062 22.2904C7.60113 22.1257 7.85158 21.9107 8.12463 21.6567C8.66568 21.1533 9.36202 20.4331 10.2609 19.5035L10.295 19.4683C10.4849 19.2718 10.6019 19.1508 10.7123 19.0223C10.9143 18.7872 11.097 18.5361 11.2585 18.2715C11.3468 18.1269 11.4259 17.9783 11.5543 17.7371L14.0228 13.1008L15.9189 14.1955C17.3538 15.0239 19.1896 14.387 19.803 12.8479C20.2096 11.8278 19.9624 10.6633 19.1766 9.89633L18.3722 9.11119C17.9284 8.67804 17.8155 8.55838 17.7404 8.42607C17.7161 8.38333 17.6943 8.3392 17.6753 8.29389C17.6162 8.15366 17.5901 7.99125 17.5171 7.37543L17.4622 6.91179C17.3433 5.90887 17.2461 5.08786 17.0925 4.45699C16.9344 3.80772 16.6873 3.22383 16.1705 2.8144C15.9145 2.61151 15.6242 2.45587 15.3135 2.35479ZM12.723 12.3504L9.19854 10.3155L6.40284 14.7952C6.24199 15.053 6.17745 15.157 6.11999 15.2624C6.01032 15.4635 5.91711 15.6732 5.84125 15.8894C5.8015 16.0027 5.76756 16.1203 5.684 16.4124C5.31992 17.6851 5.05562 18.61 4.90019 19.2868C4.8227 19.6241 4.77775 19.8771 4.75936 20.0661C4.7503 20.1593 4.74865 20.2278 4.75069 20.2765C4.75255 20.3209 4.75751 20.3419 4.75751 20.3419C4.94336 20.9884 5.60744 21.3718 6.26021 21.2097C6.26021 21.2097 6.27929 21.2044 6.32046 21.1828C6.36371 21.1602 6.42218 21.1246 6.49837 21.0701C6.65286 20.9597 6.84945 20.7943 7.10288 20.5585C7.61126 20.0855 8.28007 19.3942 9.20026 18.4425C9.41145 18.2241 9.4963 18.1359 9.57453 18.0448C9.72383 17.871 9.85884 17.6855 9.97822 17.4899C10.0408 17.3874 10.0986 17.2796 10.2413 17.0114L12.723 12.3504Z" fill="#FAFAFA"/>
</svg>
