<svg width="24" height="24" viewBox="0 0 24 24" fill="none" xmlns="http://www.w3.org/2000/svg">
<path d="M2 3.81818H2.81818C3.37047 3.81818 3.81818 3.37047 3.81818 2.81818V2M22 20.1818H21.1818C20.6296 20.1818 20.1818 20.6296 20.1818 21.1818L20.1819 22" stroke="#FAFAFA" stroke-width="1.5" stroke-linecap="round"/>
<path d="M3.81812 10.1818V5.11016C4.39484 4.85818 4.85811 4.3949 5.11009 3.81818H10.1818C14.3158 3.81818 16.6372 3.81818 18.1335 4.8059L20.9697 1.96967C21.2626 1.67678 21.7375 1.67678 22.0304 1.96967C22.3233 2.26256 22.3233 2.73744 22.0304 3.03033L19.1941 5.86659C20.1818 7.36293 20.1818 9.68426 20.1818 13.8182V18.8899C19.605 19.1418 19.1418 19.6051 18.8898 20.1818H13.8181C9.68419 20.1818 7.36286 20.1818 5.86652 19.1942L19.1941 5.86659C19.0555 5.6566 18.8975 5.46287 18.7173 5.28265C18.5371 5.10247 18.3434 4.94447 18.1335 4.8059L4.80583 18.1336C3.81812 16.6372 3.81812 14.3159 3.81812 10.1818Z" fill="#FAFAFA"/>
</svg>
