<svg width="24" height="24" viewBox="0 0 24 24" fill="none" xmlns="http://www.w3.org/2000/svg">
<path fill-rule="evenodd" clip-rule="evenodd" d="M9.91158 2.25002H10.2522C12.0062 2.24975 13.0722 2.24958 13.9254 2.52146C16.0239 3.19015 17.556 4.99881 17.8706 7.1787C17.9212 7.52875 17.9244 7.90455 17.892 8.33776C19.5736 8.70805 20.8319 10.2071 20.8319 12C20.8319 14.0711 19.153 15.75 17.0819 15.75C16.96 15.75 16.8393 15.7442 16.7201 15.7328L16.6336 16.2521C16.5247 16.9057 16.4582 17.305 16.3529 17.6552C15.6992 19.8302 13.8265 21.4166 11.5736 21.7038C11.2109 21.7501 10.8061 21.7501 10.1436 21.75H10.0203C9.3578 21.7501 8.95294 21.7501 8.59022 21.7038C6.33735 21.4166 4.46465 19.8302 3.81091 17.6552C3.70565 17.305 3.63913 16.9057 3.53024 16.2521L2.62929 10.8465C2.34066 9.11639 2.16526 8.06499 2.29318 7.1787C2.60778 4.99881 4.13994 3.19015 6.23845 2.52146C7.09165 2.24958 8.15758 2.24975 9.91158 2.25002ZM16.9677 14.2472C17.0055 14.2491 17.0436 14.25 17.0819 14.25C18.3246 14.25 19.3319 13.2427 19.3319 12C19.3319 10.9719 18.6423 10.1049 17.7005 9.83613C17.6514 10.1456 17.5956 10.4805 17.5347 10.8457L16.9677 14.2472ZM6.82052 9.86979C6.74859 9.46187 6.35959 9.1895 5.95167 9.26142C5.54375 9.33335 5.27138 9.72235 5.3433 10.1303L6.38519 16.0391C6.45712 16.447 6.84611 16.7194 7.25403 16.6475C7.66196 16.5756 7.93433 16.1866 7.8624 15.7786L6.82052 9.86979Z" fill="#FAFAFA"/>
</svg>
