<svg width="24" height="24" viewBox="0 0 24 24" fill="none" xmlns="http://www.w3.org/2000/svg">
<path d="M14.0665 9.60722C14.2719 9.52261 14.4774 9.72809 14.3928 9.93358L13.2906 12.6105C13.1636 12.9187 12.9189 13.1634 12.6107 13.2904L9.93378 14.3926C9.7283 14.4772 9.52281 14.2717 9.60742 14.0662L10.7097 11.3894C10.8366 11.0811 11.0813 10.8364 11.3896 10.7095L14.0665 9.60722Z" fill="#FAFAFA"/>
<path fill-rule="evenodd" clip-rule="evenodd" d="M15.0668 1.79551C14.2622 1.72362 13.2791 1.72363 12.0353 1.72363H11.9648C10.721 1.72363 9.73787 1.72362 8.9333 1.79551C8.10684 1.86936 7.41559 2.0224 6.76227 2.35755C6.59304 2.44437 6.42822 2.53952 6.26842 2.64268C5.65151 3.04089 5.17335 3.56301 4.69617 4.24182C4.23162 4.90266 3.74005 5.7541 3.11815 6.83127L3.08293 6.89227C2.46102 7.96944 1.96944 8.82087 1.62941 9.5536C1.28013 10.3063 1.06704 10.9814 1.03063 11.7148C1.0212 11.9048 1.0212 12.0951 1.03063 12.285C1.06704 13.0184 1.28013 13.6936 1.62941 14.4462C1.96943 15.1789 2.46099 16.0303 3.08288 17.1075L3.11813 17.1685C3.74003 18.2457 4.23162 19.0972 4.69617 19.758C5.17335 20.4368 5.65151 20.9589 6.26842 21.3571C6.42822 21.4603 6.59304 21.5555 6.76227 21.6423C7.41559 21.9774 8.10684 22.1305 8.9333 22.2043C9.73786 22.2762 10.721 22.2762 11.9648 22.2762H12.0353C13.2791 22.2762 14.2623 22.2762 15.0668 22.2043C15.8933 22.1305 16.5845 21.9774 17.2378 21.6423C17.4071 21.5555 17.5719 21.4603 17.7317 21.3571C18.3486 20.9589 18.8268 20.4368 19.3039 19.758C19.7685 19.0972 20.2601 18.2458 20.8819 17.1686L20.9172 17.1076C21.5391 16.0304 22.0307 15.179 22.3707 14.4462C22.72 13.6936 22.9331 13.0184 22.9695 12.285C22.9789 12.0951 22.9789 11.9048 22.9695 11.7148C22.9331 10.9814 22.72 10.3063 22.3707 9.5536C22.0307 8.82087 21.5391 7.96943 20.9172 6.89225L20.8819 6.83121C20.26 5.75406 19.7685 4.90265 19.3039 4.24182C18.8268 3.56301 18.3486 3.04089 17.7317 2.64268C17.5719 2.53953 17.4071 2.44437 17.2378 2.35755C16.5845 2.0224 15.8933 1.86936 15.0668 1.79551ZM15.7798 10.5047C16.3721 9.06632 14.9337 7.62793 13.4953 8.22021L10.8184 9.32245C10.1404 9.60166 9.60186 10.1402 9.32265 10.8182L8.2204 13.4951C7.62813 14.9335 9.06651 16.3719 10.5049 15.7796L13.1818 14.6774C13.8599 14.3982 14.3984 13.8597 14.6776 13.1816L15.7798 10.5047Z" fill="#FAFAFA"/>
</svg>
