<svg width="24" height="24" viewBox="0 0 24 24" fill="none" xmlns="http://www.w3.org/2000/svg">
<path d="M13.9691 2.25C15.1928 2.25 16.1544 2.24999 16.9335 2.31015C17.7284 2.37154 18.3901 2.4986 19.0037 2.78291C20.0169 3.25244 20.8715 4.00685 21.4631 4.95403C21.8213 5.52758 22.0295 6.16844 22.189 6.94964C22.3453 7.71517 22.4646 8.66936 22.6164 9.88359L22.6247 9.95023C22.8152 11.474 22.9641 12.6656 23.0016 13.6252C23.0397 14.5998 22.9677 15.4113 22.667 16.1551C22.1752 17.3717 21.282 18.3834 20.1359 19.0224C19.4351 19.413 18.6388 19.5851 17.667 19.6682C16.7101 19.75 15.5093 19.75 13.9736 19.75H12.7501V21.584C13.3744 21.6276 13.9959 21.7259 14.6073 21.8787L16.182 22.2724C16.5838 22.3729 16.8281 22.7801 16.7277 23.1819C16.6272 23.5837 16.22 23.8281 15.8182 23.7276L14.2435 23.3339C13.507 23.1498 12.7536 23.0578 12.0001 23.0578C11.2466 23.0578 10.4931 23.1498 9.75661 23.3339L8.18197 23.7276C7.78012 23.8281 7.37292 23.5837 7.27246 23.1819C7.172 22.7801 7.41632 22.3729 7.81817 22.2724L9.39281 21.8787C10.0042 21.7259 10.6257 21.6276 11.2501 21.584V19.75H10.0266C8.49088 19.75 7.29001 19.75 6.33316 19.6682C5.36134 19.5851 4.56508 19.413 3.86426 19.0224C2.71811 18.3834 1.82497 17.3717 1.33314 16.1551C1.03241 15.4113 0.960463 14.5998 0.998536 13.6252C1.03602 12.6656 1.18498 11.474 1.37546 9.95014L1.38377 9.8837C1.53555 8.66942 1.65483 7.71519 1.81115 6.94964C1.97067 6.16844 2.17882 5.52758 2.53704 4.95403C3.12861 4.00685 3.9832 3.25244 4.99644 2.78291C5.60999 2.4986 6.27172 2.37154 7.06668 2.31015C7.8457 2.24999 8.80736 2.25 10.0311 2.25H13.9691Z" fill="#FAFAFA"/>
</svg>
