<svg width="24" height="24" viewBox="0 0 24 24" fill="none" xmlns="http://www.w3.org/2000/svg">
<path fill-rule="evenodd" clip-rule="evenodd" d="M9.94813 1.25C9.04966 1.24997 8.30042 1.24995 7.70565 1.32991C7.07785 1.41432 6.51105 1.59999 6.05558 2.05546C5.60011 2.51093 5.41444 3.07773 5.33004 3.70552C5.25008 4.30029 5.2501 5.04948 5.25012 5.94792L5.25013 8.5227C5.3839 8.47999 5.51985 8.44199 5.65778 8.40887C5.72498 8.39274 5.79285 8.3783 5.86183 8.36536C6.47762 8.24986 7.23114 8.24991 8.40429 8.25L15.5959 8.25C16.769 8.24991 17.5226 8.24986 18.1384 8.36536C18.2073 8.3783 18.2752 8.39274 18.3424 8.40887C18.4804 8.44199 18.6163 8.48001 18.7501 8.52273L18.7501 5.94801C18.7502 5.04954 18.7502 4.3003 18.6702 3.70552C18.5858 3.07773 18.4001 2.51093 17.9447 2.05546C17.4892 1.59999 16.9224 1.41432 16.2946 1.32991C15.6998 1.24995 14.9506 1.24997 14.0522 1.25H9.94813ZM10.7501 5C10.7501 4.58579 10.4143 4.25 10.0001 4.25C9.58591 4.25 9.25012 4.58579 9.25012 5V7C9.25012 7.41422 9.58591 7.75 10.0001 7.75C10.4143 7.75 10.7501 7.41422 10.7501 7V5ZM14.7501 5C14.7501 4.58579 14.4143 4.25 14.0001 4.25C13.5859 4.25 13.2501 4.58579 13.2501 5V7C13.2501 7.41422 13.5859 7.75 14.0001 7.75C14.4143 7.75 14.7501 7.41422 14.7501 7V5Z" fill="#FAFAFA"/>
<path d="M15.5001 9C16.7626 9 17.4536 9 18.0001 9.10251C18.0573 9.11323 18.1129 9.12507 18.1673 9.13816C19.8098 9.53247 21.1288 10.7246 21.6981 12.2884L19.9862 12.5587C15.0227 13.3424 9.96859 13.3619 4.99925 12.6165L2.61336 12.2586L2.32969 12.2145C2.91328 10.6871 4.21643 9.52623 5.8329 9.13816C5.88738 9.12507 5.94296 9.11323 6.00012 9.10251C6.54663 9 7.23764 9 8.50012 9H15.5001Z" fill="#FAFAFA"/>
<path d="M2.02589 13.6853C2.00012 14.1341 2.00012 14.7033 2.00012 15.5C2.00012 16.8945 2.00012 17.5918 2.13827 18.1672C2.5772 19.9955 4.00465 21.4229 5.83289 21.8619C6.40833 22 7.1056 22 8.50012 22H15.5001C16.8946 22 17.5919 22 18.1673 21.8619C19.9956 21.4229 21.423 19.9955 21.862 18.1672C22.0001 17.5918 22.0001 16.8945 22.0001 15.5C22.0001 14.7484 22.0001 14.1993 21.9785 13.7627L20.2201 14.0403C15.1055 14.8479 9.89743 14.868 4.77674 14.0999L2.38482 13.7411L2.02589 13.6853Z" fill="#FAFAFA"/>
</svg>
