<svg width="24" height="24" viewBox="0 0 24 24" fill="none" xmlns="http://www.w3.org/2000/svg">
<path fill-rule="evenodd" clip-rule="evenodd" d="M3.10748 15.9277C0.691309 12.0179 2.65532 7.20059 4.92698 4.92893C8.83222 1.02369 15.1639 1.02369 19.0691 4.92893C22.9744 8.83418 22.9744 15.1658 19.0691 19.0711C16.7007 21.4395 11.9712 23.3158 8.06985 20.8913C7.85381 20.7571 7.74577 20.6899 7.66332 20.6571C7.50616 20.5945 7.38549 20.5761 7.21682 20.589C7.12835 20.5958 7.0284 20.6217 6.82853 20.6735C5.57074 20.9995 4.94173 21.1626 4.48866 21.0704C3.70229 20.9103 3.08772 20.2958 2.92768 19.5094C2.83548 19.0563 2.99848 18.4274 3.32449 17.1696C3.3763 16.9697 3.4022 16.8698 3.40902 16.7816C3.42205 16.6129 3.40403 16.4936 3.34175 16.3364C3.30917 16.2541 3.24194 16.1453 3.10748 15.9277ZM16.1401 7.10788C16.5544 7.10788 16.8901 7.44367 16.8901 7.85788C16.8901 8.27209 16.5544 8.60788 16.1401 8.60788H8.14014C7.72592 8.60788 7.39014 8.27209 7.39014 7.85788C7.39014 7.44367 7.72592 7.10788 8.14014 7.10788H16.1401ZM16.1401 11.1079C16.5544 11.1079 16.8901 11.4437 16.8901 11.8579C16.8901 12.2721 16.5544 12.6079 16.1401 12.6079H8.14014C7.72592 12.6079 7.39014 12.2721 7.39014 11.8579C7.39014 11.4437 7.72592 11.1079 8.14014 11.1079H16.1401ZM16.1401 15.1079C16.5544 15.1079 16.8901 15.4437 16.8901 15.8579C16.8901 16.2721 16.5544 16.6079 16.1401 16.6079H8.14014C7.72592 16.6079 7.39014 16.2721 7.39014 15.8579C7.39014 15.4437 7.72592 15.1079 8.14014 15.1079H16.1401Z" fill="#FAFAFA"/>
</svg>
