<svg width="24" height="24" viewBox="0 0 24 24" fill="none" xmlns="http://www.w3.org/2000/svg">
<path d="M3.02344 5C3.02344 6.10457 3.91887 7 5.02344 7C6.12801 7 7.02344 6.10457 7.02344 5C7.02344 3.89543 6.12801 3 5.02344 3C3.91887 3 3.02344 3.89543 3.02344 5Z" fill="#FAFAFA"/>
<path fill-rule="evenodd" clip-rule="evenodd" d="M5.02344 8C4.31389 8 3.66188 7.75367 3.14825 7.34186C1.16027 11.1168 1.75385 15.8959 4.92902 19.0711C7.20068 21.3427 12.018 23.3067 15.9278 20.8906C16.1454 20.7561 16.2542 20.6889 16.3364 20.6563C16.4937 20.594 16.613 20.576 16.7817 20.589C16.8699 20.5958 16.9698 20.6217 17.1697 20.6735C18.4275 20.9996 19.0564 21.1626 19.5095 21.0704C20.2958 20.9103 20.9104 20.2958 21.0705 19.5094C21.1627 19.0563 20.9997 18.4274 20.6736 17.1696C20.6218 16.9697 20.5959 16.8697 20.5891 16.7812C20.5762 16.6126 20.5946 16.4919 20.6572 16.3347C20.69 16.2523 20.7571 16.1442 20.8914 15.9282C23.3159 12.0269 21.4395 7.29732 19.0712 4.92893C15.9043 1.76206 11.1418 1.16329 7.37155 3.13264C7.7796 3.64505 8.02344 4.29405 8.02344 5C8.02344 6.65685 6.68029 8 5.02344 8ZM14.9707 11.8578C14.9707 12.4101 15.4184 12.8578 15.9707 12.8578C16.523 12.8578 16.9707 12.4101 16.9707 11.8578C16.9707 11.3055 16.523 10.8578 15.9707 10.8578C15.4184 10.8578 14.9707 11.3055 14.9707 11.8578ZM10.9707 11.8578C10.9707 12.4101 11.4184 12.8578 11.9707 12.8578C12.523 12.8578 12.9707 12.4101 12.9707 11.8578C12.9707 11.3055 12.523 10.8578 11.9707 10.8578C11.4184 10.8578 10.9707 11.3055 10.9707 11.8578ZM7.9707 12.8578C7.41842 12.8578 6.9707 12.4101 6.9707 11.8578C6.9707 11.3055 7.41842 10.8578 7.9707 10.8578C8.52299 10.8578 8.9707 11.3055 8.9707 11.8578C8.9707 12.4101 8.52299 12.8578 7.9707 12.8578Z" fill="#FAFAFA"/>
</svg>
