<svg width="24" height="24" viewBox="0 0 24 24" fill="none" xmlns="http://www.w3.org/2000/svg">
<path d="M12.9191 12.0134C11.051 8.77773 11.3963 5.88815 11.6711 4.0347L11.6997 3.84335C11.7573 3.46024 11.8126 3.09144 11.8314 2.7912C11.8425 2.61306 11.8442 2.41736 11.8136 2.22926C11.7836 2.04435 11.7113 1.79715 11.5173 1.58811C11.0765 1.11318 10.4574 1.24503 10.1231 1.35182C9.72572 1.47873 9.22917 1.7308 8.62667 2.07865C3.48503 5.04718 1.72337 11.6218 4.6919 16.7634C7.66043 21.9051 14.235 23.6667 19.3767 20.6982C19.9792 20.3503 20.4457 20.0464 20.7543 19.7657C21.014 19.5295 21.4377 19.0593 21.2468 18.4401C21.1628 18.1676 20.9848 17.9814 20.8397 17.8629C20.6921 17.7424 20.5218 17.646 20.362 17.5665C20.0926 17.4327 19.7455 17.2962 19.385 17.1545L19.2049 17.0836C17.4624 16.3949 14.7873 15.2491 12.9191 12.0134Z" fill="#FAFAFA"/>
</svg>
