<svg width="24" height="24" viewBox="0 0 24 24" fill="none" xmlns="http://www.w3.org/2000/svg">
<path d="M13 11.75C15.2738 11.75 17.1303 13.5357 17.2441 15.7812C17.2414 16.0487 17.2387 16.245 17.2266 16.4062L17.1973 16.665L17.1309 17.001C17.0492 17.3385 16.9267 17.6597 16.7705 17.96C16.7243 18.0486 16.6761 18.1359 16.624 18.2207C16.6204 18.2265 16.6169 18.2325 16.6133 18.2383C16.5613 18.322 16.5048 18.4027 16.4473 18.4824C16.4392 18.4936 16.432 18.5055 16.4238 18.5166C16.3673 18.5934 16.3075 18.6675 16.2461 18.7402C16.169 18.8315 16.0893 18.9205 16.0049 19.0049C15.9366 19.0732 15.8648 19.1377 15.792 19.2012C15.7748 19.2162 15.7577 19.2314 15.7402 19.2461C15.6675 19.3075 15.5934 19.3673 15.5166 19.4238C15.5091 19.4293 15.5017 19.435 15.4941 19.4404C15.4149 19.498 15.3333 19.5524 15.25 19.6045C15.2414 19.6098 15.2332 19.6158 15.2246 19.6211C15.1385 19.6741 15.05 19.7236 14.96 19.7705C14.753 19.8781 14.536 19.969 14.3105 20.042C14.2111 20.0742 14.1103 20.103 14.0078 20.1279C14.0019 20.1294 13.9961 20.1314 13.9902 20.1328C13.8833 20.1583 13.7749 20.18 13.665 20.1973L13.4062 20.2266C13.1181 20.2483 12.7183 20.25 12 20.25C11.0423 20.25 10.6506 20.2473 10.335 20.1973C10.2187 20.1788 10.1041 20.1555 9.99121 20.1279C9.88875 20.103 9.78788 20.0742 9.68848 20.042C9.46309 19.9689 9.24599 19.8782 9.03906 19.7705C8.94902 19.7236 8.86053 19.6741 8.77441 19.6211C8.76581 19.6158 8.75759 19.6098 8.74902 19.6045C8.666 19.5525 8.58491 19.4978 8.50586 19.4404C8.49812 19.4348 8.49013 19.4295 8.48242 19.4238C8.40567 19.3673 8.33148 19.3075 8.25879 19.2461C8.16771 19.1692 8.07936 19.0891 7.99512 19.0049C7.9267 18.9365 7.8615 18.8649 7.79785 18.792C7.78284 18.7748 7.76767 18.7577 7.75293 18.7402C7.69151 18.6675 7.6317 18.5934 7.5752 18.5166C7.56702 18.5055 7.55982 18.4936 7.55176 18.4824C7.49436 18.4028 7.43861 18.3219 7.38672 18.2383C7.38311 18.2325 7.37956 18.2265 7.37598 18.2207C7.32381 18.1358 7.27474 18.0487 7.22852 17.96C7.02145 17.5617 6.87575 17.1259 6.80273 16.665C6.76926 16.4536 6.7602 16.2079 6.75586 15.7812C6.86974 13.5357 8.72618 11.75 11 11.75H13ZM12.75 3.00488C13.2133 3.00905 13.5157 3.0193 13.7822 3.06152C15.9216 3.40039 17.5996 5.07837 17.9385 7.21777C18 7.60643 18 8.07102 18 9V13.1631C17.0118 11.4237 15.1437 10.25 13 10.25H11C8.85625 10.25 6.98816 11.4237 6 13.1631V9C6 8.07102 5.99997 7.60643 6.06152 7.21777C6.40041 5.07837 8.07836 3.40039 10.2178 3.06152C10.4843 3.0193 10.7867 3.00905 11.25 3.00488V8C11.25 8.41421 11.5858 8.75 12 8.75C12.4142 8.75 12.75 8.41421 12.75 8V3.00488Z" fill="#FAFAFA"/>
</svg>
