<svg width="24" height="24" viewBox="0 0 24 24" fill="none" xmlns="http://www.w3.org/2000/svg">
<path fill-rule="evenodd" clip-rule="evenodd" d="M5.49834 7.59536C5.07718 4.22603 7.70436 1.25 11.0999 1.25H12.8028C16.202 1.25 18.832 4.22918 18.4103 7.60208L18.3457 8.11901C18.2207 9.11912 18.5843 10.1183 19.3229 10.8042L19.3667 10.845C20.98 12.3432 21.2931 14.7799 20.111 16.6373C19.3384 17.8513 18.0431 18.6235 16.6224 18.7358L16.4312 19.0636C15.4184 20.7998 13.8404 21.75 12.1833 21.75C10.5263 21.75 8.94829 20.7998 7.9355 19.0636L7.74722 18.7409C6.05592 18.6356 4.54086 17.6282 3.79471 16.09L3.69136 15.8769C2.84471 14.1315 3.2408 12.0375 4.66648 10.7219C5.35449 10.0871 5.69382 9.15916 5.5777 8.23021L5.49834 7.59536ZM9.52007 18.75C10.2794 19.7877 11.2622 20.25 12.1833 20.25C13.1045 20.25 14.0873 19.7877 14.8466 18.75H9.52007Z" fill="#FAFAFA"/>
</svg>
