<svg width="24" height="24" viewBox="0 0 24 24" fill="none" xmlns="http://www.w3.org/2000/svg">
<path d="M8.48066 3.4326C10.0685 0.682416 13.5851 -0.259863 16.3353 1.32796C19.0855 2.91577 20.0278 6.43242 18.44 9.1826L18.3318 9.3699C19.6141 11.5 19.8316 14.1862 18.7523 16.5684C18.595 16.9155 18.375 17.2964 17.9944 17.9556L17.9553 18.0235C17.9098 18.1023 17.8627 18.1841 17.8117 18.2553C17.3254 18.9339 16.4274 19.1745 15.667 18.8299C15.5873 18.7938 15.5056 18.7466 15.4268 18.701L9.23553 15.1265L5.61053 21.4051C5.40343 21.7639 4.94473 21.8868 4.58601 21.6797C4.22729 21.4726 4.10439 21.0139 4.31149 20.6551L7.93649 14.3765L1.74522 10.8019C1.66642 10.7565 1.58461 10.7094 1.51347 10.6584C0.834845 10.1721 0.594238 9.27414 0.938798 8.51368C0.974915 8.43397 1.02219 8.35223 1.06772 8.2735L1.10686 8.20574C1.48747 7.54645 1.70744 7.16544 1.9294 6.85569C3.45245 4.73028 5.88686 3.57559 8.37215 3.62054L8.48066 3.4326Z" fill="#FAFAFA"/>
</svg>
