<svg width="24" height="24" viewBox="0 0 24 24" fill="none" xmlns="http://www.w3.org/2000/svg">
<path fill-rule="evenodd" clip-rule="evenodd" d="M6.48954 4.25C3.13576 4.25 0.559514 7.22043 1.03381 10.5405L1.26471 12.1568L2.72098 17.2537C3.14314 18.7313 4.49365 19.75 6.03034 19.75C7.20146 19.75 8.29221 19.1545 8.9255 18.1694L9.29986 17.587C10.5634 15.6216 13.4365 15.6216 14.7 17.587L14.929 17.9433C15.6529 19.0693 16.8997 19.75 18.2383 19.75C20.1962 19.75 21.8561 18.3104 22.1329 16.3722L22.966 10.5405C23.4403 7.22043 20.8641 4.25 17.5103 4.25C16.7392 4.25 15.9767 4.41182 15.272 4.725L14.741 4.96099C13.7157 5.41669 13.3006 5.597 12.8825 5.68577C12.3006 5.80929 11.6993 5.80929 11.1174 5.68577C10.6992 5.597 10.2841 5.41669 9.25881 4.96099L8.72782 4.725C8.02318 4.41182 7.26065 4.25 6.48954 4.25ZM6.99991 8.25C7.41412 8.25 7.74991 8.58579 7.74991 9V10.25H8.99991C9.41412 10.25 9.74991 10.5858 9.74991 11C9.74991 11.4142 9.41412 11.75 8.99991 11.75H7.74991V13C7.74991 13.4142 7.41412 13.75 6.99991 13.75C6.58569 13.75 6.24991 13.4142 6.24991 13V11.75H4.99991C4.58569 11.75 4.24991 11.4142 4.24991 11C4.24991 10.5858 4.58569 10.25 4.99991 10.25H6.24991V9C6.24991 8.58579 6.58569 8.25 6.99991 8.25ZM17 10C17.5523 10 18 9.55228 18 9C18 8.44772 17.5523 8 17 8C16.4477 8 16 8.44772 16 9C16 9.55228 16.4477 10 17 10ZM15 12C15.5523 12 16 11.5523 16 11C16 10.4477 15.5523 10 15 10C14.4477 10 14 10.4477 14 11C14 11.5523 14.4477 12 15 12ZM20 11C20 11.5523 19.5523 12 19 12C18.4477 12 18 11.5523 18 11C18 10.4477 18.4477 10 19 10C19.5523 10 20 10.4477 20 11ZM17 14C17.5523 14 18 13.5523 18 13C18 12.4477 17.5523 12 17 12C16.4477 12 16 12.4477 16 13C16 13.5523 16.4477 14 17 14Z" fill="#FAFAFA"/>
</svg>
