<svg width="24" height="24" viewBox="0 0 24 24" fill="none" xmlns="http://www.w3.org/2000/svg">
<path fill-rule="evenodd" clip-rule="evenodd" d="M16.7041 3.25839C16.8467 2.8695 16.647 2.43864 16.2581 2.29605C15.8692 2.15345 15.4384 2.35312 15.2958 2.74201L15.0535 3.40263C14.9069 3.80253 14.5263 4.06839 14.1003 4.06839C12.91 4.06839 11.8826 4.9028 11.6385 6.06785L11.2925 7.71933C11.234 7.70944 11.1756 7.69833 11.1174 7.68598C10.6992 7.59721 10.2841 7.41689 9.25881 6.96119L8.72782 6.7252C8.02318 6.41202 7.26065 6.2502 6.48954 6.2502C3.13576 6.2502 0.559514 9.22063 1.03381 12.5407L1.26471 14.157L2.72098 19.254C3.14314 20.7315 4.49365 21.7502 6.03034 21.7502C7.20146 21.7502 8.29221 21.1547 8.9255 20.1696L9.29986 19.5872C10.5634 17.6218 13.4365 17.6218 14.7 19.5872L14.929 19.9435C15.6529 21.0695 16.8997 21.7502 18.2383 21.7502C20.1962 21.7502 21.8561 20.3106 22.1329 18.3724L22.966 12.5407C23.4403 9.22063 20.8641 6.2502 17.5103 6.2502C16.7392 6.2502 15.9767 6.41202 15.272 6.7252L14.741 6.96119C13.7157 7.41689 13.3006 7.59721 12.8825 7.68598C12.8649 7.6897 12.8474 7.69331 12.8298 7.69681L13.1066 6.37546C13.2052 5.90519 13.6199 5.56839 14.1003 5.56839C15.1556 5.56839 16.0986 4.90973 16.4619 3.91901L16.7041 3.25839ZM18 11.0002C18 11.5525 17.5523 12.0002 17 12.0002C16.4477 12.0002 16 11.5525 16 11.0002C16 10.4479 16.4477 10.0002 17 10.0002C17.5523 10.0002 18 10.4479 18 11.0002ZM16 13.0002C16 13.5525 15.5523 14.0002 15 14.0002C14.4477 14.0002 14 13.5525 14 13.0002C14 12.4479 14.4477 12.0002 15 12.0002C15.5523 12.0002 16 12.4479 16 13.0002ZM19 14.0002C19.5523 14.0002 20 13.5525 20 13.0002C20 12.4479 19.5523 12.0002 19 12.0002C18.4477 12.0002 18 12.4479 18 13.0002C18 13.5525 18.4477 14.0002 19 14.0002ZM18 15.0002C18 15.5525 17.5523 16.0002 17 16.0002C16.4477 16.0002 16 15.5525 16 15.0002C16 14.4479 16.4477 14.0002 17 14.0002C17.5523 14.0002 18 14.4479 18 15.0002ZM7.74991 11.0002C7.74991 10.586 7.41412 10.2502 6.99991 10.2502C6.58569 10.2502 6.24991 10.586 6.24991 11.0002V12.2502H4.99991C4.58569 12.2502 4.24991 12.586 4.24991 13.0002C4.24991 13.4144 4.58569 13.7502 4.99991 13.7502H6.24991V15.0002C6.24991 15.4144 6.58569 15.7502 6.99991 15.7502C7.41412 15.7502 7.74991 15.4144 7.74991 15.0002V13.7502H8.99991C9.41412 13.7502 9.74991 13.4144 9.74991 13.0002C9.74991 12.586 9.41412 12.2502 8.99991 12.2502H7.74991V11.0002Z" fill="#FAFAFA"/>
</svg>
