<svg width="24" height="24" viewBox="0 0 24 24" fill="none" xmlns="http://www.w3.org/2000/svg">
<path d="M11.2649 2.32974C10.9638 2.04533 10.4891 2.0589 10.2047 2.36003C9.9203 2.66117 9.93387 3.13585 10.235 3.42026L11.031 4.17202C11.0403 4.1808 11.0445 4.18808 11.0445 4.18808C11.0455 4.18992 11.0462 4.19287 11.0462 4.19287C11.047 4.1969 11.0475 4.20748 11.0419 4.22153C11.0363 4.23558 11.0287 4.24293 11.0254 4.24532C11.0254 4.24532 11.0228 4.24695 11.0208 4.24759C11.0208 4.24759 11.0128 4.25 11 4.25L10.8381 4.24999C9.13186 4.24972 8.09064 4.24955 7.22312 4.53143C5.47261 5.1002 4.10017 6.47264 3.5314 8.22315C3.24952 9.09067 3.24969 10.1319 3.24996 11.8382V12.1618C3.24969 13.8681 3.24952 14.9093 3.5314 15.7768C3.6594 16.1708 4.08251 16.3864 4.47645 16.2584C4.87039 16.1304 5.08598 15.7073 4.95798 15.3133C4.75923 14.7016 4.74997 13.9197 4.74997 12C4.74997 10.0803 4.75923 9.29839 4.95798 8.68668C5.37838 7.39282 6.39279 6.37841 7.68665 5.95801C8.29836 5.75925 9.08032 5.75 11 5.75C12.3979 5.75 13.0773 4.04138 12.0609 3.0815L11.2649 2.32974Z" fill="#FAFAFA"/>
<path d="M19.4685 7.76824C19.3405 7.3743 18.9174 7.15872 18.5235 7.28671C18.1295 7.41471 17.914 7.83783 18.042 8.23177C18.2407 8.84348 18.25 9.62544 18.25 11.5451C18.25 13.4647 18.2407 14.2467 18.042 14.8584C17.6216 16.1523 16.6072 17.1667 15.3133 17.5871C14.7016 17.7858 13.9196 17.7951 12 17.7951C10.602 17.7951 9.92269 19.5037 10.939 20.4636L11.735 21.2154C12.0361 21.4998 12.5108 21.4862 12.7952 21.1851C13.0796 20.8839 13.0661 20.4092 12.7649 20.1248L11.969 19.3731C11.9597 19.3643 11.9555 19.357 11.9555 19.357C11.9545 19.3552 11.9537 19.3522 11.9537 19.3522C11.9529 19.3482 11.9524 19.3376 11.958 19.3236C11.9636 19.3095 11.9712 19.3022 11.9746 19.2998L11.9768 19.2984L11.9791 19.2975C11.9791 19.2975 11.9872 19.2951 12 19.2951L12.1618 19.2951C13.8681 19.2954 14.9093 19.2955 15.7768 19.0137C17.5273 18.4449 18.8998 17.0725 19.4685 15.3219C19.7504 14.4544 19.7503 13.4132 19.75 11.707V11.3832C19.7503 9.67698 19.7504 8.63576 19.4685 7.76824Z" fill="#FAFAFA"/>
<path d="M12.75 9.41422C12.75 8.22416 11.3111 7.62817 10.4696 8.46967L9.46964 9.46967C9.17675 9.76257 9.17675 10.2374 9.46964 10.5303C9.76254 10.8232 10.2374 10.8232 10.5303 10.5303L11.25 9.81066V15C11.25 15.4142 11.5858 15.75 12 15.75C12.4142 15.75 12.75 15.4142 12.75 15V9.41422Z" fill="#FAFAFA"/>
</svg>
