<svg width="24" height="24" viewBox="0 0 24 24" fill="none" xmlns="http://www.w3.org/2000/svg">
<path d="M13.7214 2.52827C13.4611 2.26792 13.0389 2.26792 12.7786 2.52827C12.5182 2.78862 12.5183 3.21073 12.7786 3.47108L13.6405 4.33301L11.8522 4.333C10.1322 4.33278 9.1036 4.33265 8.24891 4.61035C6.52376 5.17089 5.17122 6.52343 4.61068 8.24858C4.33298 9.10327 4.33311 10.1319 4.33332 11.8519V12.1475C4.33311 13.8675 4.33298 14.8961 4.61068 15.7508C4.72446 16.1009 5.10056 16.2926 5.45073 16.1788C5.8009 16.065 5.99254 15.6889 5.87876 15.3387C5.6749 14.7113 5.66667 13.9128 5.66667 11.9997C5.66667 10.0865 5.6749 9.28803 5.87876 8.6606C6.3074 7.34137 7.3417 6.30707 8.66093 5.87843C9.28836 5.67457 10.0868 5.66634 12 5.66634H13.4086L12.5732 6.36253C12.2904 6.59824 12.2521 7.01861 12.4879 7.30146C12.7236 7.58432 13.1439 7.62253 13.4268 7.38682L14.8356 6.21284C15.2016 5.90786 15.4022 5.48019 15.4315 5.04436C15.4624 4.58465 15.3029 4.10976 14.9471 3.75397L13.7214 2.52827Z" fill="#FAFAFA"/>
<path d="M20.3918 7.80141C20.2823 7.44988 19.9086 7.25367 19.557 7.36317C19.2055 7.47267 19.0093 7.8464 19.1188 8.19793C19.3257 8.8623 19.3333 9.70611 19.3333 11.6977C19.3333 13.6893 19.3257 14.5331 19.1188 15.1975C18.685 16.59 17.6431 17.6683 16.3311 18.113C15.7082 18.3241 14.9151 18.333 13 18.333H11.6095L12.4714 17.4711C12.7318 17.2107 12.7318 16.7886 12.4714 16.5283C12.2111 16.2679 11.7889 16.2679 11.5286 16.5283L10.3029 17.754C9.94711 18.1098 9.78762 18.5847 9.81851 19.0444C9.84778 19.4802 10.0485 19.9079 10.4144 20.2128L11.8232 21.3868C12.1061 21.6225 12.5264 21.5843 12.7622 21.3015C12.9979 21.0186 12.9596 20.5982 12.6768 20.3625L11.8414 19.6663L13.1517 19.6664C14.8678 19.6666 15.9007 19.6667 16.7591 19.3758C18.4914 18.7886 19.8364 17.3771 20.3918 15.594C20.667 14.7105 20.6669 13.6459 20.6667 11.8429V11.5525C20.6669 9.74947 20.667 8.68491 20.3918 7.80141Z" fill="#FAFAFA"/>
</svg>
