<svg width="24" height="24" viewBox="0 0 24 24" fill="none" xmlns="http://www.w3.org/2000/svg">
<path d="M10.7501 10C10.7501 9.30964 11.3098 8.75 12.0001 8.75C12.6905 8.75 13.2501 9.30964 13.2501 10C13.2501 10.6904 12.6905 11.25 12.0001 11.25C11.3098 11.25 10.7501 10.6904 10.7501 10Z" fill="#FAFAFA"/>
<path fill-rule="evenodd" clip-rule="evenodd" d="M6.77141 4.04167C6.77141 2.49987 8.02129 1.25 9.56308 1.25H14.7291C16.1098 1.25 17.2291 2.36929 17.2291 3.75C17.2291 4.30228 17.6768 4.75 18.2291 4.75H18.8184C20.4033 4.75 21.7972 5.97999 21.7326 7.66561C21.6498 9.82667 21.2301 13.2931 19.5468 16.3608C19.0905 17.1923 18.4811 18.0092 17.8223 18.7703L17.7727 18.8276C16.825 19.9226 16.0349 20.8356 15.1854 21.4579C14.2717 22.1273 13.2965 22.4607 12.0003 22.4607C10.704 22.4607 9.72878 22.1273 8.81509 21.4579C7.96562 20.8356 7.17546 19.9226 6.22779 18.8276L6.1782 18.7703C5.51943 18.0092 4.91004 17.1923 4.45375 16.3608C2.82459 13.3918 2.37794 10.2575 2.27642 8.24648C2.19091 6.55273 3.59483 5.33333 5.17088 5.33333H5.47975C6.19312 5.33333 6.77141 4.75503 6.77141 4.04167ZM12.0001 7.25C10.4813 7.25 9.25012 8.48122 9.25012 10C9.25012 11.2588 10.0959 12.32 11.2501 12.6465V16C11.2501 16.4142 11.5859 16.75 12.0001 16.75C12.4143 16.75 12.7501 16.4142 12.7501 16V12.6465C13.9044 12.32 14.7501 11.2588 14.7501 10C14.7501 8.48122 13.5189 7.25 12.0001 7.25Z" fill="#FAFAFA"/>
</svg>
