<svg width="24" height="24" viewBox="0 0 24 24" fill="none" xmlns="http://www.w3.org/2000/svg">
<path d="M12.5557 7.95619C12.2796 8.43448 12.4435 9.04607 12.9218 9.32222C13.4001 9.59836 14.0117 9.43448 14.2878 8.95619C14.5639 8.4779 14.4001 7.86631 13.9218 7.59017C13.4435 7.31402 12.8319 7.4779 12.5557 7.95619Z" fill="#FAFAFA"/>
<path fill-rule="evenodd" clip-rule="evenodd" d="M10.8118 2.1074C12.5362 1.56337 13.5866 1.23199 14.5315 1.25076C16.504 1.28992 18.3188 2.33765 19.3389 4.02633C19.8276 4.83526 20.0658 5.91056 20.4569 7.67593L20.5079 7.90598C20.6611 8.59702 20.7554 9.02221 20.7853 9.44884C20.847 10.3308 20.7045 11.2151 20.3689 12.033C20.2066 12.4286 19.9835 12.8027 19.621 13.4106L17.0538 17.7165C16.2367 19.0874 15.7381 19.924 15.1053 20.4997C13.7072 21.7717 11.7732 22.2754 9.93223 21.8469C9.09903 21.653 8.2557 21.166 6.87371 20.3678L6.61201 20.2167C5.22979 19.4189 4.3863 18.9321 3.80176 18.3075C2.51019 16.9274 1.9794 15.0007 2.38199 13.1539C2.5642 12.318 3.03937 11.4679 3.81806 10.0749L6.26343 5.69863C6.60864 5.08072 6.82106 4.70051 7.08254 4.36209C7.62308 3.66249 8.31767 3.09696 9.11231 2.70945C9.4967 2.522 9.91207 2.39107 10.5871 2.17826L10.8118 2.1074ZM11.2567 7.20619C10.5663 8.40192 10.976 9.9309 12.1718 10.6213C13.3675 11.3116 14.8965 10.9019 15.5868 9.70619C16.2772 8.51046 15.8675 6.98148 14.6718 6.29113C13.476 5.60077 11.9471 6.01046 11.2567 7.20619Z" fill="#FAFAFA"/>
</svg>
