<svg width="24" height="24" viewBox="0 0 24 24" fill="none" xmlns="http://www.w3.org/2000/svg">
<path d="M12.75 8.00024C12.75 7.58603 12.4142 7.25024 12 7.25024C11.5858 7.25024 11.25 7.58603 11.25 8.00024V11.2502H8C7.58579 11.2502 7.25 11.586 7.25 12.0002C7.25 12.4145 7.58579 12.7502 8 12.7502H11.25V16.0002C11.25 16.4145 11.5858 16.7502 12 16.7502C12.4142 16.7502 12.75 16.4145 12.75 16.0002V12.7502H16C16.4142 12.7502 16.75 12.4145 16.75 12.0002C16.75 11.586 16.4142 11.2502 16 11.2502H12.75V8.00024Z" fill="#363538"/>
<path fill-rule="evenodd" clip-rule="evenodd" d="M22 12.0002C22 17.5231 17.5228 22.0002 12 22.0002C6.47715 22.0002 2 17.5231 2 12.0002C2 6.4774 6.47715 2.00024 12 2.00024C17.5228 2.00024 22 6.4774 22 12.0002ZM20.5 12.0002C20.5 16.6947 16.6944 20.5002 12 20.5002C7.30558 20.5002 3.5 16.6947 3.5 12.0002C3.5 7.30582 7.30558 3.50024 12 3.50024C16.6944 3.50024 20.5 7.30582 20.5 12.0002Z" fill="#363538"/>
</svg>
