<svg width="24" height="24" viewBox="0 0 24 24" fill="none" xmlns="http://www.w3.org/2000/svg">
<path d="M21.8262 18.7539C22.2045 18.7922 22.5 19.1116 22.5 19.5C22.5 19.8884 22.2045 20.2078 21.8262 20.2461L21.75 20.25H2.25C1.83579 20.25 1.5 19.9142 1.5 19.5C1.5 19.0858 1.83579 18.75 2.25 18.75H21.75L21.8262 18.7539Z" fill="#363538"/>
<path d="M21.8262 11.7539C22.2045 11.7922 22.5 12.1116 22.5 12.5C22.5 12.8884 22.2045 13.2078 21.8262 13.2461L21.75 13.25H2.25C1.83579 13.25 1.5 12.9142 1.5 12.5C1.5 12.0858 1.83579 11.75 2.25 11.75H21.75L21.8262 11.7539Z" fill="#363538"/>
<path d="M3.5 5.25C3.78109 5.25 4.03851 5.40722 4.16699 5.65723L4.56543 6.43359L5.34277 6.83301C5.59278 6.96149 5.75 7.21891 5.75 7.5C5.75 7.78109 5.59278 8.03851 5.34277 8.16699L4.56543 8.56543L4.16699 9.34277C4.03851 9.59278 3.78109 9.75 3.5 9.75C3.21891 9.75 2.96149 9.59278 2.83301 9.34277L2.43359 8.56543L1.65723 8.16699C1.40722 8.03851 1.25 7.78109 1.25 7.5C1.25 7.21891 1.40722 6.96149 1.65723 6.83301L2.43359 6.43359L2.83301 5.65723L2.88672 5.56836C3.02589 5.37054 3.25387 5.25 3.5 5.25Z" fill="#363538"/>
<path fill-rule="evenodd" clip-rule="evenodd" d="M8 1.25C8.28109 1.25 8.53851 1.40722 8.66699 1.65723L9.23535 2.76367L10.3428 3.33301C10.5928 3.46149 10.75 3.71891 10.75 4C10.75 4.28109 10.5928 4.53851 10.3428 4.66699L9.23535 5.23535L8.66699 6.34277C8.53851 6.59278 8.28109 6.75 8 6.75C7.71891 6.75 7.46149 6.59278 7.33301 6.34277L6.76367 5.23535L5.65723 4.66699C5.40722 4.53851 5.25 4.28109 5.25 4C5.25 3.71891 5.40722 3.46149 5.65723 3.33301L6.76367 2.76367L7.33301 1.65723L7.38672 1.56836C7.52589 1.37054 7.75387 1.25 8 1.25ZM7.98828 3.66406C7.91671 3.80332 7.80332 3.91671 7.66406 3.98828L7.64062 4L7.66406 4.01172L7.76367 4.07324C7.85753 4.14182 7.93466 4.23161 7.98828 4.33594L8 4.3584L8.01172 4.33594C8.08329 4.19668 8.19668 4.08329 8.33594 4.01172L8.3584 4L8.33594 3.98828C8.19668 3.91671 8.08329 3.80332 8.01172 3.66406L8 3.64062L7.98828 3.66406Z" fill="#363538"/>
<path d="M21.75 4.75C22.1642 4.75 22.5 5.08579 22.5 5.5C22.5 5.91421 22.1642 6.25 21.75 6.25H12.75C12.3358 6.25 12 5.91421 12 5.5C12 5.08579 12.3358 4.75 12.75 4.75H21.75Z" fill="#363538"/>
</svg>
