<svg width="24" height="24" viewBox="0 0 24 24" fill="none" xmlns="http://www.w3.org/2000/svg">
<path fill-rule="evenodd" clip-rule="evenodd" d="M19.2472 4.29407C18.7555 4.18159 18.2391 4.28678 17.8305 4.58267L7.47916 12.0794C7.41698 12.1245 7.33755 12.1384 7.26373 12.1173L4.93338 11.4503C4.16127 11.2293 3.33784 11.5622 2.93628 12.2578L2.48463 13.04C2.00138 13.8771 2.28816 14.9473 3.12517 15.4306L7.18426 17.7741C7.72797 18.088 8.39818 18.0866 8.94058 17.7704L13.8206 14.9257C13.9387 14.8569 14.0902 14.8956 14.1607 15.0127L16.166 18.3436C16.709 19.2456 17.9197 19.4674 18.7472 18.8165L19.2771 18.3997C19.7866 17.9989 20.0329 17.3494 19.9171 16.7116L18.9207 11.2219C18.9051 11.136 18.9355 11.0481 19.0008 10.9902L21.4817 8.79118C21.7916 8.51646 21.994 8.14072 22.053 7.73078L22.2127 6.62057C22.3424 5.71893 21.7588 4.86858 20.8708 4.66545L19.2472 4.29407ZM18.7104 5.79753C18.7687 5.75526 18.8425 5.74024 18.9128 5.75631L20.5363 6.12768C20.6631 6.1567 20.7465 6.27818 20.728 6.40699L20.5683 7.5172C20.5599 7.57576 20.5309 7.62944 20.4867 7.66869L18.0059 9.8677C17.5483 10.2733 17.3356 10.8882 17.4448 11.4898L18.4413 16.9795C18.4578 17.0706 18.4226 17.1634 18.3498 17.2207L17.8198 17.6375C17.7016 17.7305 17.5287 17.6988 17.4511 17.57L15.4458 14.2391C14.9523 13.4193 13.8918 13.1479 13.0652 13.6298L8.18516 16.4745C8.10768 16.5197 8.01193 16.5199 7.93426 16.4751L3.87517 14.1316C3.7556 14.0625 3.71463 13.9096 3.78366 13.79L4.23532 13.0078C4.29269 12.9084 4.41032 12.8608 4.52062 12.8924L6.85097 13.5594C7.36768 13.7073 7.9237 13.6096 8.359 13.2943L18.7104 5.79753Z" fill="#363538"/>
</svg>
