<svg width="24" height="24" viewBox="0 0 24 24" fill="none" xmlns="http://www.w3.org/2000/svg">
<path fill-rule="evenodd" clip-rule="evenodd" d="M18.0967 3.25C17.2935 3.25 16.5935 3.79665 16.3988 4.57582L15.8113 6.92746C15.7927 7.00195 15.7409 7.06376 15.6708 7.09509L4.00271 12.3113C3.54218 12.5171 3.19289 12.9117 3.04443 13.3939L2.55428 14.9856C2.2862 15.8562 2.7308 16.7868 3.57649 17.1253L4.61782 17.5421C5.00232 17.696 5.42895 17.7085 5.82183 17.5775L8.96664 16.5285C9.04949 16.5009 9.14077 16.5185 9.20739 16.575L13.4634 20.1828C13.9579 20.6019 14.6435 20.7134 15.2453 20.4726L15.8713 20.222C16.8487 19.8308 17.2619 18.6714 16.7523 17.7502L14.8703 14.3481C14.8042 14.2285 14.8463 14.0779 14.965 14.0101L19.8686 11.2062C20.4137 10.8946 20.75 10.3149 20.75 9.68703V5C20.75 4.0335 19.9665 3.25 19 3.25H18.0967ZM17.8541 4.9394C17.8819 4.82809 17.9819 4.75 18.0967 4.75H19C19.138 4.75 19.25 4.86193 19.25 5V9.68703C19.25 9.77672 19.2019 9.85954 19.1241 9.90406L14.2204 12.7079C13.3898 13.1829 13.0946 14.2369 13.5578 15.0742L15.4398 18.4763C15.5126 18.6079 15.4535 18.7735 15.3139 18.8294L14.6879 19.08C14.6019 19.1144 14.504 19.0985 14.4333 19.0386L10.1773 15.4308C9.71094 15.0354 9.07202 14.9122 8.49202 15.1056L5.34721 16.1546C5.29109 16.1733 5.23014 16.1715 5.17521 16.1495L4.13388 15.7327C4.01307 15.6843 3.94956 15.5514 3.98785 15.427L4.478 13.8353C4.49921 13.7664 4.5491 13.7101 4.6149 13.6807L16.283 8.46449C16.7736 8.24513 17.1363 7.81248 17.2666 7.29104L17.8541 4.9394Z" fill="#363538"/>
</svg>
