<svg width="24" height="24" viewBox="0 0 24 24" fill="none" xmlns="http://www.w3.org/2000/svg">
<path fill-rule="evenodd" clip-rule="evenodd" d="M8.11747 4.70349C6.29981 3.38155 3.75 4.67997 3.75 6.92751V8.9296C3.75 9.84907 4.20953 10.7077 4.97457 11.2177L5.30278 11.4365C6.20692 12.0393 6.75 13.0541 6.75 14.1407V20C6.75 20.9665 7.5335 21.75 8.5 21.75H9C9.9665 21.75 10.75 20.9665 10.75 20V9.03687C10.75 7.51717 10.0229 6.08922 8.79382 5.19537L8.11747 4.70349ZM5.25 6.92751C5.25 5.9059 6.409 5.31571 7.23521 5.91659L7.91156 6.40848C8.75248 7.02005 9.25 7.99708 9.25 9.03687V20C9.25 20.138 9.13807 20.25 9 20.25H8.5C8.36193 20.25 8.25 20.138 8.25 20V14.1407C8.25 12.5525 7.45627 11.0694 6.13483 10.1885L5.80662 9.96967C5.45888 9.73783 5.25 9.34754 5.25 8.9296V6.92751Z" fill="#363538"/>
<path fill-rule="evenodd" clip-rule="evenodd" d="M20.25 6.92751C20.25 4.67997 17.7002 3.38155 15.8825 4.70349L15.2062 5.19537C13.9771 6.08922 13.25 7.51717 13.25 9.03687V20C13.25 20.9665 14.0335 21.75 15 21.75H15.5C16.4665 21.75 17.25 20.9665 17.25 20V14.1407C17.25 13.0541 17.7931 12.0393 18.6972 11.4365L19.0254 11.2177C19.7905 10.7077 20.25 9.84907 20.25 8.9296V6.92751ZM16.7648 5.91659C17.591 5.31571 18.75 5.9059 18.75 6.92751V8.9296C18.75 9.34754 18.5411 9.73783 18.1934 9.96967L17.8652 10.1885C16.5437 11.0694 15.75 12.5525 15.75 14.1407V20C15.75 20.138 15.6381 20.25 15.5 20.25H15C14.8619 20.25 14.75 20.138 14.75 20V9.03687C14.75 7.99708 15.2475 7.02005 16.0884 6.40848L16.7648 5.91659Z" fill="#363538"/>
</svg>
