<svg width="24" height="24" viewBox="0 0 24 24" fill="none" xmlns="http://www.w3.org/2000/svg">
<path fill-rule="evenodd" clip-rule="evenodd" d="M14.3704 9.13387C13.4829 8.65596 13.0155 7.72942 13.0299 6.81733C13.0407 6.13257 12.9917 5.12775 12.7319 4.34559C12.6041 3.96077 12.4598 3.73808 12.3447 3.62615C12.266 3.54957 12.1842 3.5 12 3.5C11.8158 3.5 11.734 3.54957 11.6553 3.62615C11.5402 3.73808 11.3959 3.96077 11.2681 4.34559C11.0083 5.12775 10.9593 6.13257 10.9701 6.81733C10.9845 7.72942 10.5171 8.65596 9.62955 9.13387L4.5 11.8959V13.6556L8.16188 11.9655C9.48712 11.3539 11 12.3219 11 13.7815V15.6379C11 16.2228 10.795 16.7891 10.4206 17.2384L8.68726 19.3184L8.8761 19.8849L11.0898 18.778C11.6879 18.479 12.3959 18.4986 12.9765 18.8304L14.8675 19.9109L15.2196 19.2066L13.5794 17.2384C13.205 16.7891 13 16.2228 13 15.6379V13.7815C13 12.3219 14.5129 11.3539 15.8381 11.9655L19.5 13.6556V11.8959L14.3704 9.13387ZM7.35662 18.5721L9.26822 16.2781C9.41798 16.0984 9.5 15.8719 9.5 15.6379V13.7815C9.5 13.4166 9.12178 13.1746 8.79047 13.3275L4.41906 15.345C3.75644 15.6509 3 15.1669 3 14.4371V11.5973C3 11.2294 3.20199 10.8912 3.5259 10.7168L8.9184 7.81317C9.27113 7.62324 9.47664 7.24154 9.47033 6.84098C9.4473 5.38053 9.64803 2 12 2C14.352 2 14.5527 5.38053 14.5297 6.84098C14.5234 7.24154 14.7289 7.62324 15.0816 7.81317L20.4741 10.7168C20.798 10.8912 21 11.2294 21 11.5973V14.4371C21 15.1669 20.2436 15.6509 19.5809 15.345L15.2095 13.3275C14.8782 13.1746 14.5 13.4166 14.5 13.7815V15.6379C14.5 15.8719 14.582 16.0984 14.7318 16.2781L16.5813 18.4976C16.8357 18.8028 16.8852 19.2296 16.7075 19.585L15.9727 21.0545C15.716 21.568 15.0806 21.7604 14.5822 21.4755L12.2323 20.1328C12.0872 20.0498 11.9102 20.0449 11.7607 20.1197L9.03128 21.4844C8.48698 21.7565 7.82783 21.4835 7.63539 20.9062L7.17616 19.5285C7.06664 19.1999 7.13491 18.8381 7.35662 18.5721Z" fill="#363538"/>
</svg>
