<svg width="24" height="24" viewBox="0 0 24 24" fill="none" xmlns="http://www.w3.org/2000/svg">
<path d="M12.5 16.25C12.9142 16.25 13.25 16.5858 13.25 17C13.25 17.4142 12.9142 17.75 12.5 17.75H11.5C11.0858 17.75 10.75 17.4142 10.75 17C10.75 16.5858 11.0858 16.25 11.5 16.25H12.5Z" fill="#363538"/>
<path fill-rule="evenodd" clip-rule="evenodd" d="M7.30078 8.58008C7.76705 8.28172 8.37056 8.26395 8.8877 8.56934L8.99023 8.63477C9.56007 9.0287 10.1603 9.52456 10.627 10.0654C11.0725 10.5819 11.5 11.2585 11.5 12L11.4961 12.1338C11.4778 12.4638 11.3826 12.9152 11.0234 13.2861C10.5989 13.7244 9.96689 13.8888 9.19922 13.8369L9.03809 13.8184C8.25045 13.6931 7.72024 13.0631 7.39062 12.4668C7.02144 11.7989 6.77623 10.9556 6.63867 10.1328L6.62305 10.0137C6.56614 9.41751 6.83519 8.87803 7.30078 8.58008ZM8.11816 9.88574C8.23913 10.6093 8.44418 11.2727 8.70312 11.7412C8.9451 12.179 9.14848 12.3043 9.25879 12.333L9.2998 12.3398C9.82404 12.3753 9.94271 12.2449 9.94531 12.2422C9.95754 12.2296 9.98266 12.1938 9.99414 12.1064L10 12C10 11.812 9.87049 11.4855 9.49121 11.0459C9.13306 10.6308 8.63988 10.217 8.13672 9.86914L8.11719 9.8584L8.11816 9.88574Z" fill="#363538"/>
<path fill-rule="evenodd" clip-rule="evenodd" d="M15.1123 8.56934C15.6294 8.26395 16.2329 8.28172 16.6992 8.58008C17.1648 8.87803 17.4339 9.41751 17.377 10.0137L17.3613 10.1328C17.2238 10.9556 16.9786 11.7989 16.6094 12.4668C16.2798 13.0631 15.7495 13.6931 14.9619 13.8184L14.8008 13.8369C14.0331 13.8888 13.4011 13.7244 12.9766 13.2861C12.6174 12.9152 12.5222 12.4638 12.5039 12.1338L12.5 12C12.5 11.2585 12.9275 10.5819 13.373 10.0654C13.8397 9.52456 14.4399 9.0287 15.0098 8.63477L15.1123 8.56934ZM15.8633 9.86914C15.3601 10.217 14.8669 10.6308 14.5088 11.0459C14.1295 11.4855 14 11.812 14 12L14.0059 12.1064C14.0173 12.1938 14.0425 12.2296 14.0547 12.2422C14.0573 12.2449 14.176 12.3753 14.7002 12.3398L14.7412 12.333C14.8515 12.3043 15.0549 12.179 15.2969 11.7412C15.5558 11.2727 15.7609 10.6093 15.8818 9.88574L15.8828 9.8584L15.8633 9.86914Z" fill="#363538"/>
<path fill-rule="evenodd" clip-rule="evenodd" d="M12 2.25C16.2802 2.25 19.75 5.71979 19.75 10V10.4365C19.75 10.8468 19.7211 11.2656 19.6387 11.6914C19.4255 12.7919 18.8478 15.3572 17.7119 17.665C16.6046 19.9146 14.7971 22.25 12 22.25C9.20286 22.25 7.39537 19.9146 6.28809 17.665C5.29429 15.6459 4.72786 13.4298 4.45898 12.1699L4.36133 11.6914C4.27886 11.2656 4.25 10.8468 4.25 10.4365V10C4.25 5.71979 7.71979 2.25 12 2.25ZM12 3.75C8.54822 3.75 5.75 6.54822 5.75 10V10.4365C5.75 10.776 5.7739 11.096 5.83398 11.4062L5.92773 11.8633C6.18417 13.0629 6.71735 15.141 7.63379 17.0029C8.70988 19.1891 10.1447 20.75 12 20.75C13.8553 20.75 15.2901 19.1891 16.3662 17.0029C17.4136 14.8751 17.961 12.4649 18.166 11.4062C18.2261 11.096 18.25 10.776 18.25 10.4365V10C18.25 6.54822 15.4518 3.75 12 3.75Z" fill="#363538"/>
</svg>
