<svg width="24" height="24" viewBox="0 0 24 24" fill="none" xmlns="http://www.w3.org/2000/svg">
<path fill-rule="evenodd" clip-rule="evenodd" d="M9.24956 7.00024C9.24956 5.48146 10.4808 4.25024 11.9996 4.25024C13.5183 4.25024 14.7496 5.48146 14.7496 7.00024C14.7496 8.25893 13.904 9.32024 12.7498 9.64673V19.3136C14.9525 19.3337 17.79 17.7195 18.5534 14.6493L17.6889 15.2988C17.3577 15.5476 16.8875 15.4808 16.6387 15.1496C16.39 14.8184 16.4567 14.3483 16.7879 14.0995L19.0493 12.4006C19.2083 12.2811 19.4083 12.2297 19.6052 12.2577C19.8022 12.2857 19.9799 12.3907 20.0994 12.5498L21.7983 14.8111C22.0471 15.1423 21.9803 15.6125 21.6491 15.8613C21.3179 16.1101 20.8478 16.0433 20.599 15.7121L20.027 14.9507C19.0385 19.106 14.9678 21.179 11.9998 20.759C9.03177 21.179 4.96097 19.106 3.97251 14.9507L3.40046 15.7121C3.15167 16.0433 2.68151 16.1101 2.35034 15.8613C2.01917 15.6125 1.95239 15.1423 2.20119 14.8111L3.90006 12.5498C4.01954 12.3907 4.19729 12.2857 4.39423 12.2577C4.59116 12.2297 4.79115 12.2811 4.95018 12.4006L7.21156 14.0995C7.54273 14.3483 7.60951 14.8184 7.36071 15.1496C7.11192 15.4808 6.64177 15.5476 6.31059 15.2988L5.44605 14.6493C6.20952 17.7195 9.04705 19.3337 11.2498 19.3136V9.64673C10.0955 9.32028 9.24956 8.25911 9.24956 7.00024ZM11.9996 5.75024C11.3092 5.75024 10.7496 6.30989 10.7496 7.00024C10.7496 7.69048 11.3093 8.25024 11.9998 8.25024C12.69 8.25024 13.2496 7.69072 13.2496 7.00024C13.2496 6.30989 12.6899 5.75024 11.9996 5.75024Z" fill="#363538"/>
</svg>
