<svg width="24" height="24" viewBox="0 0 24 24" fill="none" xmlns="http://www.w3.org/2000/svg">
<path d="M12.1135 6.5C12.644 6.5 13.1503 6.39675 13.6135 6.20924C14.7769 5.73831 15.6683 4.73594 15.9867 3.50316C16.0695 3.18259 16.1135 2.84644 16.1135 2.5V2C15.5831 2 15.0767 2.10325 14.6135 2.29076C13.4501 2.76169 12.5587 3.76406 12.2403 4.99684C12.1576 5.31741 12.1135 5.65356 12.1135 6V6.5Z" fill="#363538"/>
<path fill-rule="evenodd" clip-rule="evenodd" d="M16.7956 6.27237C15.5769 5.96772 14.2788 6.2786 13.3615 6.60619C12.889 6.77491 12.4858 6.95981 12.2002 7.1026C12.1678 7.11876 12.1369 7.13442 12.1076 7.14949C11.9154 7.05312 11.659 6.93099 11.367 6.80843C10.758 6.5528 9.89042 6.24998 9.11366 6.24998C8.17176 6.24998 7.30137 6.38436 6.51138 6.7603C5.71331 7.14008 5.05204 7.74022 4.4896 8.58399C3.96066 9.3775 3.59539 10.091 3.40576 10.9661C3.22012 11.8228 3.21427 12.783 3.31555 14.0523C3.37703 15.0559 3.94162 16.8368 4.84428 18.4744C5.74213 20.1033 7.09805 21.8184 8.8765 22.4113C9.82311 22.7268 10.5727 22.4565 11.1496 22.2067C11.2312 22.1714 11.3083 22.1373 11.3821 22.1047C11.8537 21.8963 12.1848 21.75 12.6137 21.75C13.097 21.75 13.4627 21.8913 13.9583 22.0828L14.0859 22.132C14.6398 22.3447 15.3243 22.5817 16.229 22.4408C17.0743 22.3092 17.7767 21.8255 18.3321 21.2661C18.8907 20.7036 19.3506 20.0147 19.7116 19.3691C20.0749 18.7194 20.3525 18.0871 20.539 17.6196C20.6325 17.385 20.704 17.1897 20.7525 17.0517C20.7767 16.9827 20.7953 16.9278 20.808 16.8894L20.8228 16.8443L20.8269 16.8316L20.8282 16.8277L20.8288 16.8255L21.031 16.1844L20.419 15.9151L20.4101 15.9108C20.3996 15.9058 20.3809 15.8966 20.3552 15.8831C20.3037 15.856 20.2247 15.8119 20.1273 15.7496C19.9315 15.6242 19.6677 15.4291 19.4043 15.1551C18.8847 14.6147 18.3637 13.768 18.3637 12.5C18.3637 11.4694 18.7701 10.7652 19.1743 10.3105C19.3791 10.08 19.5839 9.91389 19.7347 9.80707C19.8097 9.75396 19.8701 9.71643 19.9085 9.69375C19.9277 9.68243 19.9414 9.6749 19.9485 9.67105L19.9541 9.66806L20.5563 9.36696L20.3145 8.7326L20.3142 8.73162L20.3138 8.7306L20.3068 8.71295C20.3035 8.70504 20.2997 8.69579 20.2951 8.68526C20.286 8.66421 20.274 8.63805 20.2589 8.60737C20.2286 8.54601 20.1856 8.46646 20.1267 8.37335C20.0087 8.18687 19.8278 7.94685 19.5603 7.69036C19.021 7.17331 18.1532 6.61176 16.7956 6.27237ZM11.742 8.65143L11.744 8.65253C11.8611 8.71879 11.9916 8.75114 12.1217 8.74974C12.2527 8.74834 12.3834 8.71274 12.4995 8.64311L12.5016 8.64189L12.5175 8.63263C12.5326 8.62391 12.5565 8.61027 12.5885 8.59255C12.6525 8.55708 12.7486 8.50544 12.871 8.44425C13.1166 8.32142 13.4634 8.16257 13.866 8.01881C14.6987 7.72141 15.6505 7.53228 16.4318 7.72759C17.5476 8.00652 18.1798 8.44485 18.5222 8.7731C18.5373 8.78757 18.5519 8.80187 18.5659 8.81598C18.405 8.95083 18.229 9.11609 18.0531 9.31401C17.4572 9.98439 16.8637 11.0303 16.8637 12.5C16.8637 14.2317 17.5926 15.435 18.323 16.1947C18.6332 16.5174 18.9431 16.76 19.1972 16.9328C19.181 16.9747 19.1638 17.0185 19.1457 17.064C18.9752 17.4915 18.7246 18.0607 18.4023 18.637C18.0778 19.2173 17.695 19.7789 17.2677 20.2093C16.8373 20.6428 16.4108 20.8944 15.9983 20.9587C15.4984 21.0365 15.1232 20.9235 14.6235 20.7317C14.578 20.7142 14.5309 20.6958 14.4824 20.6768C14.008 20.4913 13.3909 20.25 12.6137 20.25C11.8417 20.25 11.2018 20.5388 10.7429 20.7459C10.6759 20.7761 10.6127 20.8046 10.5536 20.8302C10.0628 21.0427 9.75281 21.1222 9.35083 20.9882C8.12922 20.581 7.01009 19.2963 6.15794 17.7503C5.31314 16.2177 4.85344 14.654 4.81247 13.956L4.81136 13.9401C4.71315 12.7132 4.7327 11.9254 4.87173 11.2838C5.00714 10.6589 5.26687 10.1223 5.73773 9.41597C6.17507 8.75986 6.64057 8.36 7.15593 8.11476C7.67937 7.86566 8.30909 7.74998 9.11366 7.74998C9.57186 7.74998 10.2043 7.94716 10.7865 8.19154C11.0638 8.30793 11.3063 8.42482 11.4792 8.51256C11.5654 8.55628 11.6335 8.59239 11.6793 8.61705C11.7021 8.62938 11.7193 8.63882 11.7303 8.6449L11.742 8.65143Z" fill="#363538"/>
</svg>
