<svg width="24" height="24" viewBox="0 0 24 24" fill="none" xmlns="http://www.w3.org/2000/svg">
<path fill-rule="evenodd" clip-rule="evenodd" d="M15.8129 1.43182C12.9602 1.11485 11.1712 2.30137 10.2335 3.55628C9.84052 4.08228 9.85373 4.72234 10.1735 5.20125C10.4785 5.65796 11.0243 5.91986 11.6116 5.87559C15.0851 5.61378 17.736 4.40061 19.1906 3.26928C19.2151 3.25018 19.2385 3.22958 19.2604 3.20758C19.3016 3.16647 19.3389 3.1341 19.3832 3.09571L19.3861 3.0932C19.4048 3.07701 19.4358 3.05025 19.464 3.02347L19.4657 3.02186C19.4868 3.0018 19.5609 2.93156 19.6217 2.83028C19.6826 2.7287 19.8561 2.36373 19.596 1.99101C19.4242 1.74499 19.1705 1.6861 19.1302 1.67675L19.1267 1.67593C19.0093 1.64745 18.8735 1.64288 18.803 1.64051L18.7935 1.64019C18.7465 1.63856 18.6916 1.63716 18.6278 1.63553C18.1947 1.62447 17.3534 1.60298 15.8129 1.43182ZM11.4989 4.37983L11.4918 4.38026C12.147 3.54841 13.4185 2.67501 15.6473 2.92265C16.0473 2.9671 16.4031 3.00188 16.7186 3.02922C15.4215 3.66107 13.649 4.21777 11.4989 4.37983Z" fill="#363538"/>
<path fill-rule="evenodd" clip-rule="evenodd" d="M13.2751 21.0845C13.5391 21.2477 13.8481 21.4387 14.2302 21.6297C14.5164 21.7728 15.238 22.092 16.7301 21.6297C20.9832 20.3118 22.505 15.0926 21.2301 10.6299C20.3438 7.52776 17.1007 4.42559 13.5896 6.19753C12.7342 6.62926 11.6964 6.66815 10.8334 6.25155C6.92398 4.36419 3.62518 7.49696 2.73014 10.6299C1.43395 15.1669 3.37221 20.4762 7.73013 21.6294C8.87238 21.9316 9.6851 21.7496 10.0771 21.6618C10.1386 21.648 10.1897 21.6366 10.2302 21.6297C10.6516 21.5577 11.0432 21.2866 11.3924 21.0448C11.7097 20.8252 11.9921 20.6297 12.2302 20.6297C12.5392 20.6297 12.8482 20.8206 13.2751 21.0845ZM4.17243 11.0419C4.53332 9.77868 5.38528 8.52961 6.47655 7.81074C7.50378 7.13406 8.74641 6.90965 10.1813 7.60237C11.4956 8.23686 13.025 8.1627 14.2655 7.53665C15.447 6.94034 16.5497 7.13343 17.5403 7.81923C18.5868 8.54369 19.4299 9.78919 19.7878 11.0419C20.3448 12.9915 20.2795 15.0832 19.6469 16.787C19.021 18.473 17.8794 19.7032 16.2862 20.1969C15.7008 20.3783 15.3497 20.3813 15.1759 20.364C15.0223 20.3488 14.9523 20.3138 14.9048 20.2899L14.9009 20.288C14.5844 20.1298 14.351 19.9856 14.0996 19.8304C14.0086 19.7741 13.915 19.7163 13.8145 19.656L13.8031 19.6492C13.5139 19.4755 12.9377 19.1297 12.2302 19.1297C11.7085 19.1297 11.2925 19.3426 11.0863 19.4582C10.8853 19.5709 10.6801 19.7133 10.5393 19.811L10.4915 19.8441C10.3221 19.9612 10.2055 20.0383 10.1007 20.0947C10.0203 20.1379 9.98136 20.1496 9.97531 20.1514C9.97491 20.1515 9.97543 20.1513 9.97531 20.1514C9.82136 20.1777 9.7297 20.1997 9.65168 20.2183C9.53708 20.2456 9.45025 20.2663 9.23205 20.2855C8.96008 20.3095 8.58603 20.3042 8.11384 20.1793C6.47067 19.7445 5.21518 18.5156 4.49013 16.8113C3.76025 15.0957 3.61666 12.9873 4.17243 11.0419Z" fill="#363538"/>
</svg>
