<svg width="24" height="24" viewBox="0 0 24 24" fill="none" xmlns="http://www.w3.org/2000/svg">
<path fill-rule="evenodd" clip-rule="evenodd" d="M13.999 9.25C14.4133 9.25 14.749 9.58579 14.749 10C14.749 10 14.7488 10.0023 14.749 10.0059C14.7493 10.0101 14.7502 10.0165 14.751 10.0244C14.7527 10.0407 14.7559 10.0627 14.7608 10.0908C14.7706 10.148 14.7861 10.2202 14.8086 10.3105C14.8549 10.4961 14.9185 10.7124 14.9951 10.9834C15.0428 11.1519 15.0921 11.3363 15.1426 11.5322C16.0859 10.8036 17.2844 10.1981 18.3858 9.95508C19.1686 9.78244 20.0473 9.76085 20.7627 10.1689C21.5421 10.6138 21.9219 11.4423 21.9219 12.5C21.9219 13.1925 21.6691 13.8048 21.1797 14.2549C20.7055 14.6907 20.0682 14.922 19.377 14.9961C18.2944 15.112 16.9582 14.8597 15.5059 14.2383C15.5107 15.8955 15.0451 17.1152 13.999 17.9072C12.7863 18.825 10.9812 18.9931 9.00002 18.9932C6.2881 18.993 4.26351 17.8349 3.29103 16.1914C2.31167 14.536 2.46674 12.4719 3.96877 10.9697C4.26154 10.677 4.7364 10.6772 5.02931 10.9697C5.32219 11.2626 5.32222 11.7374 5.02931 12.0303C4.03184 13.0279 3.93663 14.3368 4.58205 15.4277C5.23475 16.5306 6.7126 17.493 9.00002 17.4932C11.0178 17.4931 12.3298 17.2891 13.0938 16.7109C13.7618 16.2051 14.1966 15.2438 13.9278 13.0928C13.852 12.4869 13.698 11.9086 13.5518 11.3916C13.4811 11.1419 13.4073 10.8892 13.3535 10.6738C13.3027 10.47 13.249 10.2251 13.249 10C13.249 9.58601 13.5851 9.25036 13.999 9.25ZM20.0186 11.4717C19.7757 11.3335 19.341 11.2803 18.708 11.4199C17.78 11.6248 16.733 12.1757 15.957 12.7988C17.3042 13.3968 18.4308 13.588 19.2168 13.5039C19.6915 13.453 19.9924 13.3089 20.1641 13.1514C20.3203 13.0077 20.4219 12.8073 20.4219 12.5C20.4219 11.808 20.1974 11.5737 20.0186 11.4717Z" fill="#363538"/>
<path d="M18 6C18.5523 6.00001 19 6.44772 19 7C19 7.55228 18.5523 7.99999 18 8C17.4477 8 17 7.55228 17 7C17 6.44772 17.4477 6 18 6Z" fill="#363538"/>
</svg>
