<svg width="24" height="24" viewBox="0 0 24 24" fill="none" xmlns="http://www.w3.org/2000/svg">
<path d="M6 2.25C5.58579 2.25 5.25 2.58579 5.25 3C5.25 3.41421 5.58579 3.75 6 3.75L18 3.75C18.4142 3.75 18.75 3.41421 18.75 3C18.75 2.58579 18.4142 2.25 18 2.25L6 2.25Z" fill="#363538"/>
<path fill-rule="evenodd" clip-rule="evenodd" d="M7.30709 10.287C7.42318 10.5673 7.69665 10.75 8 10.75H11.25L11.25 21C11.25 21.4142 11.5858 21.75 12 21.75C12.4142 21.75 12.75 21.4142 12.75 21L12.75 10.75H16C16.3034 10.75 16.5768 10.5673 16.6929 10.287C16.809 10.0068 16.7448 9.68418 16.5303 9.46968L13.9445 6.88388C12.8706 5.80994 11.1294 5.80994 10.0555 6.88389L7.46967 9.46968C7.25517 9.68418 7.191 10.0068 7.30709 10.287ZM12 9.25L12.0034 9.25001L14.1893 9.25001L12.8839 7.94454C12.3957 7.45639 11.6043 7.45639 11.1161 7.94455L9.81066 9.25001H11.9966L12 9.25Z" fill="#363538"/>
</svg>
