<svg width="24" height="24" viewBox="0 0 24 24" fill="none" xmlns="http://www.w3.org/2000/svg">
<path d="M19.5303 5.52984C19.8232 5.23695 19.8232 4.76208 19.5303 4.46918C19.2374 4.17629 18.7625 4.17629 18.4696 4.46918L14.0074 8.9314L14.0074 6.49938C14.0074 6.08517 13.6716 5.74938 13.2574 5.74938C12.8432 5.74938 12.5074 6.08517 12.5074 6.49938L12.5074 10.7421C12.5074 10.941 12.5864 11.1317 12.7271 11.2724C12.8677 11.413 13.0585 11.4921 13.2574 11.4921L17.5 11.492C17.9143 11.492 18.25 11.1562 18.25 10.742C18.25 10.3278 17.9142 9.99202 17.5 9.99202L15.0681 9.99204L19.5303 5.52984Z" fill="#363538"/>
<path d="M10.7427 12.5074L6.50009 12.5074C6.08588 12.5074 5.75009 12.8432 5.75009 13.2574C5.75009 13.6716 6.08588 14.0074 6.50009 14.0074L8.93207 14.0074L4.46991 18.4695C4.17702 18.7624 4.17702 19.2373 4.46991 19.5302C4.76281 19.8231 5.23768 19.8231 5.53057 19.5302L9.99274 15.068L9.99274 17.5C9.99274 17.9143 10.3285 18.25 10.7427 18.25C11.157 18.25 11.4927 17.9143 11.4927 17.5L11.4927 13.2574C11.4927 13.0585 11.4137 12.8677 11.2731 12.7271C11.1324 12.5864 10.9416 12.5074 10.7427 12.5074Z" fill="#363538"/>
</svg>
