<svg width="24" height="24" viewBox="0 0 24 24" fill="none" xmlns="http://www.w3.org/2000/svg">
<path fill-rule="evenodd" clip-rule="evenodd" d="M12.8002 4.09344C12.3367 3.70714 11.6633 3.70714 11.1998 4.09343L5.7362 8.6464C5.51112 8.83396 5.64376 9.20029 5.93674 9.20029C6.93817 9.20029 7.74999 10.0121 7.74999 11.0135V18.9503C7.74999 19.6406 8.30963 20.2003 8.99999 20.2003H15C15.6903 20.2003 16.25 19.6406 16.25 18.9503V11.0135C16.25 10.0121 17.0618 9.20029 18.0632 9.20029C18.3562 9.20029 18.4888 8.83396 18.2638 8.6464L12.8002 4.09344ZM10.2395 2.9411C11.2593 2.09125 12.7407 2.09125 13.7605 2.9411L19.2241 7.49407C20.5269 8.57977 19.7592 10.7003 18.0632 10.7003C17.8902 10.7003 17.75 10.8405 17.75 11.0135V18.9503C17.75 20.4691 16.5188 21.7003 15 21.7003H8.99999C7.4812 21.7003 6.24999 20.4691 6.24999 18.9503V11.0135C6.24999 10.8405 6.10974 10.7003 5.93674 10.7003C4.2408 10.7003 3.47308 8.57977 4.77592 7.49406L10.2395 2.9411Z" fill="#363538"/>
</svg>
