<svg width="24" height="24" viewBox="0 0 24 24" fill="none" xmlns="http://www.w3.org/2000/svg">
<path d="M6 21.75C5.58579 21.75 5.25 21.4142 5.25 21C5.25 20.5858 5.58579 20.25 6 20.25H18C18.4142 20.25 18.75 20.5858 18.75 21C18.75 21.4142 18.4142 21.75 18 21.75H6Z" fill="#363538"/>
<path fill-rule="evenodd" clip-rule="evenodd" d="M7.30709 13.713C7.42318 13.4327 7.69665 13.25 8 13.25H11.25L11.25 3C11.25 2.58579 11.5858 2.25 12 2.25C12.4142 2.25 12.75 2.58579 12.75 3L12.75 13.25H16C16.3034 13.25 16.5768 13.4327 16.6929 13.713C16.809 13.9932 16.7448 14.3158 16.5303 14.5303L13.9445 17.1161C12.8706 18.1901 11.1294 18.1901 10.0555 17.1161L7.46967 14.5303C7.25517 14.3158 7.191 13.9932 7.30709 13.713ZM12 14.75L12.0034 14.75H14.1893L12.8839 16.0555C12.3957 16.5436 11.6043 16.5436 11.1161 16.0555L9.81066 14.75H11.9966L12 14.75Z" fill="#363538"/>
</svg>
