<svg width="24" height="24" viewBox="0 0 24 24" fill="none" xmlns="http://www.w3.org/2000/svg">
<path d="M21.75 6C21.75 5.58579 21.4142 5.25 21 5.25C20.5858 5.25 20.25 5.58579 20.25 6V18C20.25 18.4142 20.5858 18.75 21 18.75C21.4142 18.75 21.75 18.4142 21.75 18V6Z" fill="#363538"/>
<path fill-rule="evenodd" clip-rule="evenodd" d="M13.713 7.30709C13.4327 7.42318 13.25 7.69665 13.25 8V11.25H3C2.58579 11.25 2.25 11.5858 2.25 12C2.25 12.4142 2.58579 12.75 3 12.75H13.25V16C13.25 16.3034 13.4327 16.5768 13.713 16.6929C13.9932 16.809 14.3158 16.7448 14.5303 16.5303L17.1161 13.9445C18.1901 12.8706 18.1901 11.1294 17.1161 10.0555L14.5303 7.46967C14.3158 7.25517 13.9932 7.191 13.713 7.30709ZM14.75 12L14.75 12.0034V14.1893L16.0555 12.8839C16.5436 12.3957 16.5436 11.6043 16.0555 11.1161L14.75 9.81066V11.9966L14.75 12Z" fill="#363538"/>
</svg>
