<svg width="24" height="24" viewBox="0 0 24 24" fill="none" xmlns="http://www.w3.org/2000/svg">
<path d="M2.25 6C2.25 5.58579 2.58579 5.25 3 5.25C3.41421 5.25 3.75 5.58579 3.75 6V18C3.75 18.4142 3.41421 18.75 3 18.75C2.58579 18.75 2.25 18.4142 2.25 18V6Z" fill="#363538"/>
<path fill-rule="evenodd" clip-rule="evenodd" d="M10.287 7.30709C10.5673 7.42318 10.75 7.69665 10.75 8V11.25H21C21.4142 11.25 21.75 11.5858 21.75 12C21.75 12.4142 21.4142 12.75 21 12.75H10.75V16C10.75 16.3034 10.5673 16.5768 10.287 16.6929C10.0068 16.809 9.68418 16.7448 9.46968 16.5303L6.88388 13.9445C5.80994 12.8706 5.80994 11.1294 6.88389 10.0555L9.46968 7.46967C9.68418 7.25517 10.0068 7.191 10.287 7.30709ZM9.25 12L9.25001 12.0034V14.1893L7.94454 12.8839C7.45639 12.3957 7.45639 11.6043 7.94455 11.1161L9.25001 9.81066V11.9966L9.25 12Z" fill="#363538"/>
</svg>
