<svg width="24" height="24" viewBox="0 0 24 24" fill="none" xmlns="http://www.w3.org/2000/svg">
<path d="M9.46967 10.0303C9.76256 10.3232 10.2374 10.3232 10.5303 10.0303L11.25 9.31066V16.5C11.25 16.9142 11.5858 17.25 12 17.25C12.4142 17.25 12.75 16.9142 12.75 16.5V9.31066L13.4697 10.0303C13.7626 10.3232 14.2374 10.3232 14.5303 10.0303C14.8232 9.73744 14.8232 9.26256 14.5303 8.96967L12.5303 6.96967C12.4584 6.89776 12.3755 6.84351 12.2871 6.80691C12.1993 6.77051 12.1031 6.7503 12.0022 6.75L12 6.75L11.9978 6.75C11.8066 6.75057 11.6155 6.82385 11.4696 6.96972L9.46967 8.96967C9.17678 9.26256 9.17678 9.73744 9.46967 10.0303Z" fill="#363538"/>
<path fill-rule="evenodd" clip-rule="evenodd" d="M12 2C15.7385 2 17.6077 2 19 2.80385C19.9121 3.33046 20.6695 4.08788 21.1962 5C22 6.3923 22 8.26154 22 12C22 15.7385 22 17.6077 21.1962 19C20.6695 19.9121 19.9121 20.6695 19 21.1962C17.6077 22 15.7385 22 12 22C8.26154 22 6.3923 22 5 21.1962C4.08788 20.6695 3.33046 19.9121 2.80385 19C2 17.6077 2 15.7385 2 12C2 8.26154 2 6.3923 2.80385 5C3.33046 4.08788 4.08789 3.33046 5 2.80385C6.39231 2 8.26154 2 12 2ZM5.75 19.8971C6.1798 20.1453 6.75097 20.3146 7.75558 20.4056C8.78082 20.4986 10.1032 20.5 12 20.5C13.8968 20.5 15.2192 20.4986 16.2444 20.4056C17.249 20.3146 17.8202 20.1453 18.25 19.8971C18.9341 19.5022 19.5022 18.9341 19.8971 18.25C20.1453 17.8202 20.3146 17.249 20.4056 16.2444C20.4986 15.2192 20.5 13.8968 20.5 12C20.5 10.1032 20.4986 8.78082 20.4056 7.75559C20.3146 6.75097 20.1453 6.1798 19.8971 5.75C19.5022 5.06591 18.9341 4.49784 18.25 4.10289C17.8202 3.85474 17.249 3.68541 16.2444 3.59436C15.2192 3.50144 13.8968 3.5 12 3.5C10.1032 3.5 8.78082 3.50144 7.75559 3.59436C6.75097 3.68541 6.1798 3.85474 5.75 4.10288C5.06591 4.49784 4.49784 5.06591 4.10289 5.75C3.85474 6.1798 3.68541 6.75097 3.59436 7.75559C3.50144 8.78082 3.5 10.1032 3.5 12C3.5 13.8968 3.50144 15.2192 3.59436 16.2444C3.68541 17.249 3.85474 17.8202 4.10289 18.25C4.49784 18.9341 5.06591 19.5022 5.75 19.8971Z" fill="#363538"/>
</svg>
