<svg width="24" height="24" viewBox="0 0 24 24" fill="none" xmlns="http://www.w3.org/2000/svg">
<path d="M9.34834 5.85889C9.76255 5.85889 10.0983 5.5231 10.0983 5.10889C10.0983 4.69467 9.76255 4.35889 9.34834 4.35889L5.1057 4.35889C4.99981 4.35889 4.89904 4.38083 4.8077 4.42042C4.72533 4.45605 4.64805 4.50713 4.58028 4.57369L4.57535 4.57857L4.57377 4.58016C4.49962 4.65475 4.44437 4.74105 4.40804 4.83308C4.37968 4.90475 4.36205 4.98182 4.35712 5.06233C4.35606 5.07953 4.35558 5.09676 4.3557 5.11399L4.35569 9.35153C4.35569 9.76575 4.69148 10.1015 5.10569 10.1015C5.51991 10.1015 5.85569 9.76575 5.85569 9.35153L5.8557 6.91958L12.8409 13.9048L12.8409 17.8368C12.8409 18.0358 12.9199 18.2265 13.0606 18.3672L13.4141 18.7207C13.707 19.0136 14.1819 19.0136 14.4748 18.7207C14.7677 18.4278 14.7677 17.953 14.4748 17.6601L14.3409 17.5262L14.3409 15.4048L14.9623 16.0261L14.9623 19.9582C14.9623 20.1571 15.0413 20.3479 15.1819 20.4885L16.2426 21.5492C16.5355 21.8421 17.0103 21.8421 17.3032 21.5492C17.5961 21.2563 17.5961 20.7814 17.3032 20.4885L16.4622 19.6475L16.4623 16.4655H19.6442L20.4852 17.3065C20.7781 17.5994 21.253 17.5994 21.5459 17.3065C21.8388 17.0136 21.8388 16.5388 21.5459 16.2459L20.4852 15.1852C20.3446 15.0446 20.1538 14.9655 19.9549 14.9655H16.023L15.4016 14.3442H17.5229L17.6568 14.4781C17.9497 14.771 18.4245 14.771 18.7174 14.4781C19.0103 14.1852 19.0103 13.7103 18.7174 13.4174L18.3639 13.0639C18.2232 12.9232 18.0325 12.8442 17.8336 12.8442H13.9016L6.91632 5.85889L9.34834 5.85889Z" fill="#363538"/>
</svg>
