<svg width="24" height="24" viewBox="0 0 24 24" fill="none" xmlns="http://www.w3.org/2000/svg">
<path d="M9.46967 13.9697C9.76256 13.6768 10.2374 13.6768 10.5303 13.9697L11.25 14.6893V7.5C11.25 7.08579 11.5858 6.75 12 6.75C12.4142 6.75 12.75 7.08579 12.75 7.5V14.6893L13.4697 13.9697C13.7626 13.6768 14.2374 13.6768 14.5303 13.9697C14.8232 14.2626 14.8232 14.7374 14.5303 15.0303L12.5303 17.0303C12.4584 17.1022 12.3755 17.1565 12.2871 17.1931C12.1993 17.2295 12.1031 17.2497 12.0022 17.25L12 17.25L11.9978 17.25C11.8066 17.2494 11.6155 17.1762 11.4696 17.0303L9.46967 15.0303C9.17678 14.7374 9.17678 14.2626 9.46967 13.9697Z" fill="#363538"/>
<path fill-rule="evenodd" clip-rule="evenodd" d="M12 22C15.7385 22 17.6077 22 19 21.1962C19.9121 20.6695 20.6695 19.9121 21.1962 19C22 17.6077 22 15.7385 22 12C22 8.26154 22 6.3923 21.1962 5C20.6695 4.08788 19.9121 3.33046 19 2.80385C17.6077 2 15.7385 2 12 2C8.26154 2 6.3923 2 5 2.80385C4.08788 3.33046 3.33046 4.08788 2.80385 5C2 6.3923 2 8.26154 2 12C2 15.7385 2 17.6077 2.80385 19C3.33046 19.9121 4.08789 20.6695 5 21.1962C6.39231 22 8.26154 22 12 22ZM5.75 4.10288C6.1798 3.85474 6.75097 3.68541 7.75558 3.59436C8.78082 3.50144 10.1032 3.5 12 3.5C13.8968 3.5 15.2192 3.50144 16.2444 3.59436C17.249 3.68541 17.8202 3.85474 18.25 4.10288C18.9341 4.49784 19.5022 5.06591 19.8971 5.75C20.1453 6.1798 20.3146 6.75097 20.4056 7.75558C20.4986 8.78082 20.5 10.1032 20.5 12C20.5 13.8968 20.4986 15.2192 20.4056 16.2444C20.3146 17.249 20.1453 17.8202 19.8971 18.25C19.5022 18.9341 18.9341 19.5022 18.25 19.8971C17.8202 20.1453 17.249 20.3146 16.2444 20.4056C15.2192 20.4986 13.8968 20.5 12 20.5C10.1032 20.5 8.78082 20.4986 7.75559 20.4056C6.75097 20.3146 6.1798 20.1453 5.75 19.8971C5.06591 19.5022 4.49784 18.9341 4.10289 18.25C3.85474 17.8202 3.68541 17.249 3.59436 16.2444C3.50144 15.2192 3.5 13.8968 3.5 12C3.5 10.1032 3.50144 8.78082 3.59436 7.75559C3.68541 6.75097 3.85474 6.1798 4.10289 5.75C4.49784 5.06591 5.06591 4.49784 5.75 4.10288Z" fill="#363538"/>
</svg>
