<svg width="24" height="24" viewBox="0 0 24 24" fill="none" xmlns="http://www.w3.org/2000/svg">
<path fill-rule="evenodd" clip-rule="evenodd" d="M2.9372 13.7607C2.08734 12.7409 2.08734 11.2596 2.9372 10.2397L7.49016 4.77617C8.57587 3.47332 10.6964 4.24106 10.6964 5.93698C10.6964 6.10999 10.8366 6.25023 11.0096 6.25023L18.9464 6.25023C20.4652 6.25023 21.6964 7.48145 21.6964 9.00023V15.0002C21.6964 16.519 20.4652 17.7502 18.9464 17.7502L11.0096 17.7502C10.8366 17.7502 10.6964 17.8905 10.6964 18.0635C10.6964 19.7594 8.57586 20.5271 7.49016 19.2243L2.9372 13.7607ZM4.08953 11.2C3.70323 11.6636 3.70323 12.3369 4.08953 12.8005L8.64249 18.264C8.83006 18.4891 9.19639 18.3565 9.19639 18.0635C9.19639 17.0621 10.0082 16.2502 11.0096 16.2502L18.9464 16.2502C19.6367 16.2502 20.1964 15.6906 20.1964 15.0002V9.00023C20.1964 8.30988 19.6367 7.75023 18.9464 7.75023L11.0096 7.75023C10.0082 7.75023 9.19639 6.93841 9.19639 5.93698C9.19639 5.644 8.83005 5.51137 8.64249 5.73644L4.08953 11.2Z" fill="#363538"/>
</svg>
