<svg width="24" height="24" viewBox="0 0 24 24" fill="none" xmlns="http://www.w3.org/2000/svg">
<path fill-rule="evenodd" clip-rule="evenodd" d="M21.059 10.2397C21.9089 11.2596 21.9089 12.7409 21.059 13.7607L16.506 19.2243C15.4203 20.5271 13.2998 19.7594 13.2998 18.0635C13.2998 17.8905 13.1596 17.7502 12.9866 17.7502H5.0498C3.53102 17.7502 2.2998 16.519 2.2998 15.0002L2.2998 9.00023C2.29981 7.48145 3.53102 6.25023 5.04981 6.25023L12.9866 6.25023C13.1596 6.25023 13.2998 6.10998 13.2998 5.93698C13.2998 4.24105 15.4203 3.47332 16.506 4.77617L21.059 10.2397ZM19.9067 12.8005C20.293 12.3369 20.293 11.6636 19.9067 11.2L15.3537 5.73644C15.1661 5.51137 14.7998 5.644 14.7998 5.93698C14.7998 6.93841 13.988 7.75023 12.9866 7.75023L5.0498 7.75023C4.35945 7.75023 3.7998 8.30987 3.7998 9.00023L3.7998 15.0002C3.7998 15.6906 4.35945 16.2502 5.0498 16.2502H12.9866C13.988 16.2502 14.7998 17.062 14.7998 18.0635C14.7998 18.3565 15.1661 18.4891 15.3537 18.264L19.9067 12.8005Z" fill="#363538"/>
</svg>
