<svg width="24" height="24" viewBox="0 0 24 24" fill="none" xmlns="http://www.w3.org/2000/svg">
<path d="M8.53033 13.5303C8.23744 13.8232 7.76256 13.8232 7.46967 13.5303C7.17678 13.2374 7.17678 12.7626 7.46967 12.4697L10.0555 9.88388C11.1294 8.80994 12.8706 8.80994 13.9445 9.88389L16.5303 12.4697C16.8232 12.7626 16.8232 13.2374 16.5303 13.5303C16.2374 13.8232 15.7626 13.8232 15.4697 13.5303L12.8839 10.9445C12.3957 10.4564 11.6043 10.4564 11.1161 10.9445L8.53033 13.5303Z" fill="#363538"/>
<path fill-rule="evenodd" clip-rule="evenodd" d="M2 12C2 8.26154 2 6.3923 2.80385 5C3.33046 4.08788 4.08788 3.33046 5 2.80385C6.3923 2 8.26154 2 12 2C15.7385 2 17.6077 2 19 2.80385C19.9121 3.33046 20.6695 4.08788 21.1962 5C22 6.3923 22 8.26154 22 12C22 15.7385 22 17.6077 21.1962 19C20.6695 19.9121 19.9121 20.6695 19 21.1962C17.6077 22 15.7385 22 12 22C8.26154 22 6.3923 22 5 21.1962C4.08788 20.6695 3.33046 19.9121 2.80385 19C2 17.6077 2 15.7385 2 12ZM19.8971 18.25C20.1453 17.8202 20.3146 17.249 20.4056 16.2444C20.4986 15.2192 20.5 13.8968 20.5 12C20.5 10.1032 20.4986 8.78082 20.4056 7.75558C20.3146 6.75097 20.1453 6.1798 19.8971 5.75C19.5022 5.06591 18.9341 4.49784 18.25 4.10288C17.8202 3.85474 17.249 3.68541 16.2444 3.59436C15.2192 3.50144 13.8968 3.5 12 3.5C10.1032 3.5 8.78082 3.50144 7.75559 3.59436C6.75097 3.68541 6.1798 3.85474 5.75 4.10288C5.06591 4.49784 4.49784 5.06591 4.10289 5.75C3.85474 6.1798 3.68541 6.75097 3.59436 7.75558C3.50144 8.78082 3.5 10.1032 3.5 12C3.5 13.8968 3.50144 15.2192 3.59436 16.2444C3.68541 17.249 3.85474 17.8202 4.10289 18.25C4.49784 18.9341 5.06591 19.5022 5.75 19.8971C6.1798 20.1453 6.75097 20.3146 7.75559 20.4056C8.78082 20.4986 10.1032 20.5 12 20.5C13.8968 20.5 15.2192 20.4986 16.2444 20.4056C17.249 20.3146 17.8202 20.1453 18.25 19.8971C18.9341 19.5022 19.5022 18.9341 19.8971 18.25Z" fill="#363538"/>
</svg>
