<svg width="24" height="24" viewBox="0 0 24 24" fill="none" xmlns="http://www.w3.org/2000/svg">
<path d="M14.25 4.81066V7C14.25 7.41421 14.5858 7.75 15 7.75C15.4142 7.75 15.75 7.41421 15.75 7V3C15.75 2.79538 15.6681 2.60991 15.5352 2.47459C15.532 2.47129 15.5287 2.46803 15.5254 2.4648C15.4547 2.39531 15.3735 2.34268 15.2871 2.30691C15.1987 2.27024 15.1017 2.25 15 2.25H11C10.5858 2.25 10.25 2.58579 10.25 3C10.25 3.41421 10.5858 3.75 11 3.75H13.1893L5.46967 11.4697C5.17678 11.7626 5.17678 12.2374 5.46967 12.5303C5.76256 12.8232 6.23744 12.8232 6.53033 12.5303L14.25 4.81066Z" fill="#363538"/>
<path d="M18.5303 12.5303C18.8232 12.2374 18.8232 11.7626 18.5303 11.4697C18.2374 11.1768 17.7626 11.1768 17.4697 11.4697L9.75 19.1893V17C9.75 16.5858 9.41421 16.25 9 16.25C8.58579 16.25 8.25 16.5858 8.25 17V21C8.25 21.1017 8.27024 21.1987 8.30691 21.2871C8.34351 21.3755 8.39776 21.4584 8.46967 21.5303C8.61612 21.6768 8.80806 21.75 9 21.75H13C13.4142 21.75 13.75 21.4142 13.75 21C13.75 20.5858 13.4142 20.25 13 20.25H10.8107L18.5303 12.5303Z" fill="#363538"/>
</svg>
