<svg width="24" height="24" viewBox="0 0 24 24" fill="none" xmlns="http://www.w3.org/2000/svg">
<path d="M16.4697 6.53033C16.1768 6.23744 16.1768 5.76256 16.4697 5.46967C16.7626 5.17678 17.2375 5.17678 17.5304 5.46967L20.525 8.46434C20.6639 8.60046 20.7501 8.79017 20.7501 9C20.7501 9.20939 20.6643 9.39874 20.5259 9.5348L17.5304 12.5303C17.2375 12.8232 16.7626 12.8232 16.4697 12.5303C16.1768 12.2374 16.1768 11.7626 16.4697 11.4697L18.1894 9.75H13.0001C8.44378 9.75 4.75012 13.4437 4.75012 18C4.75012 18.4142 4.41433 18.75 4.00012 18.75C3.58591 18.75 3.25012 18.4142 3.25012 18C3.25012 12.6152 7.61535 8.25 13.0001 8.25H18.1894L16.4697 6.53033Z" fill="#363538"/>
</svg>
