<svg width="24" height="24" viewBox="0 0 24 24" fill="none" xmlns="http://www.w3.org/2000/svg">
<path d="M11.25 11.25V4.81065L9.53032 6.53033C9.23743 6.82322 8.76256 6.82322 8.46966 6.53033C8.17677 6.23744 8.17677 5.76256 8.46966 5.46967L11.4697 2.46967C11.5423 2.39699 11.6262 2.34234 11.7158 2.30573C11.8034 2.26981 11.8994 2.25 12 2.25C12.1979 2.25 12.3779 2.32665 12.5119 2.45188C12.5189 2.45838 12.5257 2.46501 12.5324 2.47176L15.5303 5.46967C15.8232 5.76256 15.8232 6.23744 15.5303 6.53033C15.2374 6.82322 14.7626 6.82322 14.4697 6.53033L12.75 4.81067V11.25H19.1893L17.4697 9.53033C17.1768 9.23744 17.1768 8.76256 17.4697 8.46967C17.7626 8.17678 18.2374 8.17678 18.5303 8.46967L21.5283 11.4676C21.535 11.4743 21.5416 11.4811 21.5481 11.4881C21.6101 11.5544 21.6579 11.6293 21.6913 11.7087C21.7244 11.787 21.7445 11.8722 21.749 11.9614C21.7497 11.9742 21.75 11.9871 21.75 12C21.75 12.1001 21.7304 12.1956 21.6948 12.2829C21.6582 12.3729 21.6034 12.4573 21.5303 12.5303L18.5303 15.5303C18.2374 15.8232 17.7626 15.8232 17.4697 15.5303C17.1768 15.2374 17.1768 14.7626 17.4697 14.4697L19.1893 12.75H12.75V19.1893L14.4697 17.4697C14.7626 17.1768 15.2374 17.1768 15.5303 17.4697C15.8232 17.7626 15.8232 18.2374 15.5303 18.5303L12.5324 21.5282C12.5257 21.535 12.5189 21.5416 12.5119 21.5481C12.4456 21.6101 12.3707 21.6579 12.2913 21.6913C12.213 21.7244 12.1278 21.7445 12.0386 21.749C12.0258 21.7497 12.0129 21.75 12 21.75C11.8999 21.75 11.8044 21.7304 11.7171 21.6948C11.6271 21.6582 11.5427 21.6034 11.4697 21.5303L8.46966 18.5303C8.17677 18.2374 8.17677 17.7626 8.46966 17.4697C8.76256 17.1768 9.23743 17.1768 9.53032 17.4697L11.25 19.1893V12.75H4.81065L6.53033 14.4697C6.82322 14.7626 6.82322 15.2374 6.53033 15.5303C6.23744 15.8232 5.76256 15.8232 5.46967 15.5303L2.46967 12.5303C2.39662 12.4573 2.34179 12.3729 2.30517 12.2829C2.2696 12.1956 2.25 12.1001 2.25 12C2.25 11.8021 2.32665 11.6221 2.45188 11.4881C2.45838 11.4811 2.46501 11.4743 2.47176 11.4676L5.46967 8.46967C5.76256 8.17678 6.23744 8.17678 6.53033 8.46967C6.82322 8.76256 6.82322 9.23744 6.53033 9.53033L4.81066 11.25H11.25Z" fill="#363538"/>
</svg>
