<svg width="24" height="24" viewBox="0 0 24 24" fill="none" xmlns="http://www.w3.org/2000/svg">
<path d="M10.0303 9.46967C10.3232 9.76256 10.3232 10.2374 10.0303 10.5303L9.31066 11.25H16.5C16.9142 11.25 17.25 11.5858 17.25 12C17.25 12.4142 16.9142 12.75 16.5 12.75H9.31066L10.0303 13.4697C10.3232 13.7626 10.3232 14.2374 10.0303 14.5303C9.73744 14.8232 9.26256 14.8232 8.96967 14.5303L6.96967 12.5303C6.89776 12.4584 6.84351 12.3755 6.80691 12.2871C6.77051 12.1993 6.7503 12.1031 6.75 12.0022L6.75 12L6.75 11.9978C6.75057 11.8066 6.82385 11.6155 6.96972 11.4696L8.96967 9.46967C9.26256 9.17678 9.73744 9.17678 10.0303 9.46967Z" fill="#363538"/>
<path fill-rule="evenodd" clip-rule="evenodd" d="M2 12C2 15.7385 2 17.6077 2.80385 19C3.33046 19.9121 4.08788 20.6695 5 21.1962C6.3923 22 8.26154 22 12 22C15.7385 22 17.6077 22 19 21.1962C19.9121 20.6695 20.6695 19.9121 21.1962 19C22 17.6077 22 15.7385 22 12C22 8.26154 22 6.3923 21.1962 5C20.6695 4.08788 19.9121 3.33046 19 2.80385C17.6077 2 15.7385 2 12 2C8.26154 2 6.3923 2 5 2.80385C4.08788 3.33046 3.33046 4.08788 2.80385 5C2 6.3923 2 8.26154 2 12ZM19.8971 5.75C20.1453 6.1798 20.3146 6.75097 20.4056 7.75559C20.4986 8.78082 20.5 10.1032 20.5 12C20.5 13.8968 20.4986 15.2192 20.4056 16.2444C20.3146 17.249 20.1453 17.8202 19.8971 18.25C19.5022 18.9341 18.9341 19.5022 18.25 19.8971C17.8202 20.1453 17.249 20.3146 16.2444 20.4056C15.2192 20.4986 13.8968 20.5 12 20.5C10.1032 20.5 8.78082 20.4986 7.75559 20.4056C6.75097 20.3146 6.1798 20.1453 5.75 19.8971C5.06591 19.5022 4.49784 18.9341 4.10289 18.25C3.85474 17.8202 3.68541 17.249 3.59436 16.2444C3.50144 15.2192 3.5 13.8968 3.5 12C3.5 10.1032 3.50144 8.78082 3.59436 7.75559C3.68541 6.75097 3.85474 6.1798 4.10289 5.75C4.49784 5.06591 5.06591 4.49784 5.75 4.10289C6.1798 3.85474 6.75097 3.68541 7.75559 3.59436C8.78082 3.50144 10.1032 3.5 12 3.5C13.8968 3.5 15.2192 3.50144 16.2444 3.59436C17.249 3.68541 17.8202 3.85474 18.25 4.10289C18.9341 4.49784 19.5022 5.06591 19.8971 5.75Z" fill="#363538"/>
</svg>
