<svg width="24" height="24" viewBox="0 0 24 24" fill="none" xmlns="http://www.w3.org/2000/svg">
<path fill-rule="evenodd" clip-rule="evenodd" d="M13.7587 21.0611C12.7388 21.911 11.2575 21.9109 10.2376 21.0611L4.77409 16.5081C3.47124 15.4224 4.23898 13.3019 5.93491 13.3019C6.10791 13.3019 6.24816 13.1617 6.24816 12.9887L6.24816 5.0519C6.24816 3.53312 7.47937 2.3019 8.99816 2.3019L14.9982 2.3019C16.5169 2.3019 17.7482 3.53312 17.7482 5.0519L17.7482 12.9887C17.7482 13.1617 17.8884 13.3019 18.0614 13.3019C19.7573 13.3019 20.5251 15.4224 19.2222 16.5081L13.7587 21.0611ZM11.1979 19.9088C11.6615 20.2951 12.3348 20.2951 12.7984 19.9088L18.2619 15.3558C18.487 15.1682 18.3544 14.8019 18.0614 14.8019C17.06 14.8019 16.2482 13.9901 16.2482 12.9887L16.2482 5.0519C16.2482 4.36155 15.6885 3.8019 14.9982 3.8019L8.99816 3.8019C8.3078 3.8019 7.74816 4.36155 7.74816 5.0519L7.74816 12.9887C7.74816 13.9901 6.93634 14.8019 5.93491 14.8019C5.64192 14.8019 5.50929 15.1682 5.73437 15.3558L11.1979 19.9088Z" fill="#363538"/>
</svg>
