<svg width="24" height="24" viewBox="0 0 24 24" fill="none" xmlns="http://www.w3.org/2000/svg">
<path d="M9.46967 13.9697C9.76256 13.6768 10.2374 13.6768 10.5303 13.9697L11.25 14.6893V7.5C11.25 7.08579 11.5858 6.75 12 6.75C12.4142 6.75 12.75 7.08579 12.75 7.5L12.75 14.6893L13.4697 13.9697C13.7626 13.6768 14.2374 13.6768 14.5303 13.9697C14.8232 14.2626 14.8232 14.7374 14.5303 15.0303L12.5303 17.0303C12.4584 17.1022 12.3755 17.1565 12.2871 17.1931C12.1993 17.2295 12.1031 17.2497 12.0022 17.25L12 17.25L11.9978 17.25C11.8066 17.2494 11.6155 17.1762 11.4697 17.0303L9.46967 15.0303C9.17678 14.7374 9.17678 14.2626 9.46967 13.9697Z" fill="#363538"/>
<path fill-rule="evenodd" clip-rule="evenodd" d="M12 2C17.5228 2 22 6.47715 22 12C22 17.5228 17.5228 22 12 22C6.47715 22 2 17.5228 2 12C2 6.47715 6.47715 2 12 2ZM12 3.5C16.6944 3.5 20.5 7.30558 20.5 12C20.5 16.6944 16.6944 20.5 12 20.5C7.30558 20.5 3.5 16.6944 3.5 12C3.5 7.30558 7.30558 3.5 12 3.5Z" fill="#363538"/>
</svg>
