<svg width="24" height="24" viewBox="0 0 24 24" fill="none" xmlns="http://www.w3.org/2000/svg">
<path d="M8.53047 5.96967C8.23758 5.67678 7.7627 5.67678 7.46981 5.96967C7.17691 6.26256 7.17691 6.73744 7.46981 7.03033L11.4698 11.0303C11.6104 11.171 11.8012 11.25 12.0001 11.25C12.199 11.25 12.3898 11.171 12.5305 11.0303L16.5305 7.03033C16.8234 6.73744 16.8234 6.26256 16.5305 5.96967C16.2376 5.67678 15.7627 5.67678 15.4698 5.96967L12.0001 9.43934L8.53047 5.96967Z" fill="#363538"/>
<path d="M12.5303 12.9698C12.3897 12.8292 12.1989 12.7502 12 12.7502C11.8011 12.7502 11.6103 12.8292 11.4697 12.9698L7.46967 16.9698C7.17678 17.2627 7.17678 17.7376 7.46967 18.0305C7.76256 18.3234 8.23744 18.3234 8.53033 18.0305L12 14.5608L15.4697 18.0305C15.7626 18.3234 16.2374 18.3234 16.5303 18.0305C16.8232 17.7376 16.8232 17.2627 16.5303 16.9698L12.5303 12.9698Z" fill="#363538"/>
</svg>
