<svg width="24" height="24" viewBox="0 0 24 24" fill="none" xmlns="http://www.w3.org/2000/svg">
<path d="M15.5859 4.92139C15.1716 4.92139 14.8359 4.5856 14.8359 4.17139C14.8359 3.75717 15.1716 3.42139 15.5859 3.42139L19.8285 3.42139C19.8482 3.42139 19.8679 3.42217 19.8874 3.42371C20.0497 3.43642 20.2087 3.50176 20.3366 3.61975C20.3441 3.62667 20.3515 3.63377 20.3588 3.64106C20.3661 3.64835 20.3732 3.65576 20.3801 3.66327C20.4907 3.78324 20.5588 3.93571 20.5748 4.09726C20.5773 4.12179 20.5785 4.14653 20.5785 4.17139L20.5785 8.41403C20.5785 8.82824 20.2427 9.16403 19.8285 9.16403C19.4143 9.16403 19.0785 8.82824 19.0785 8.41403L19.0785 5.98211L14.0304 11.0304C13.7375 11.3233 13.2626 11.3233 12.9697 11.0304C12.6768 10.7375 12.6768 10.2627 12.9697 9.96976L18.0179 4.92139L15.5859 4.92139Z" fill="#363538"/>
<path d="M3.91664 20.5344C3.99628 20.5632 4.08218 20.5789 4.17175 20.5789L8.4144 20.5789C8.82861 20.5789 9.1644 20.2431 9.1644 19.8289C9.1644 19.4146 8.82861 19.0789 8.4144 19.0789L5.98233 19.0789L11.0304 14.0304C11.3233 13.7375 11.3233 13.2626 11.0303 12.9697C10.7374 12.6768 10.2626 12.6769 9.96969 12.9698L4.92175 18.0181V15.5862C4.92175 15.172 4.58597 14.8362 4.17175 14.8362C3.75754 14.8362 3.42175 15.172 3.42175 15.5862V19.8289C3.42175 19.9264 3.44036 20.0195 3.47422 20.105C3.51081 20.1976 3.56656 20.2844 3.64145 20.3592C3.72195 20.4397 3.8162 20.4981 3.91664 20.5344Z" fill="#363538"/>
</svg>
