<svg width="24" height="24" viewBox="0 0 24 24" fill="none" xmlns="http://www.w3.org/2000/svg">
<path d="M10.4697 8.53033C10.1768 8.23744 10.1768 7.76256 10.4697 7.46967C10.7626 7.17678 11.2374 7.17678 11.5303 7.46967L14.1161 10.0555C15.1901 11.1294 15.1901 12.8706 14.1161 13.9445L11.5303 16.5303C11.2374 16.8232 10.7626 16.8232 10.4697 16.5303C10.1768 16.2374 10.1768 15.7626 10.4697 15.4697L13.0555 12.8839C13.5436 12.3957 13.5436 11.6043 13.0555 11.1161L10.4697 8.53033Z" fill="#363538"/>
<path fill-rule="evenodd" clip-rule="evenodd" d="M12 2C15.7385 2 17.6077 2 19 2.80385C19.9121 3.33046 20.6695 4.08788 21.1962 5C22 6.3923 22 8.26154 22 12C22 15.7385 22 17.6077 21.1962 19C20.6695 19.9121 19.9121 20.6695 19 21.1962C17.6077 22 15.7385 22 12 22C8.26154 22 6.39231 22 5 21.1962C4.08789 20.6695 3.33046 19.9121 2.80385 19C2 17.6077 2 15.7385 2 12C2 8.26154 2 6.39231 2.80385 5C3.33046 4.08789 4.08788 3.33046 5 2.80385C6.3923 2 8.26154 2 12 2ZM5.75 19.8971C6.1798 20.1453 6.75097 20.3146 7.75559 20.4056C8.78083 20.4986 10.1032 20.5 12 20.5C13.8968 20.5 15.2192 20.4986 16.2444 20.4056C17.249 20.3146 17.8202 20.1453 18.25 19.8971C18.9341 19.5022 19.5022 18.9341 19.8971 18.25C20.1453 17.8202 20.3146 17.249 20.4056 16.2444C20.4986 15.2192 20.5 13.8968 20.5 12C20.5 10.1032 20.4986 8.78082 20.4056 7.75558C20.3146 6.75097 20.1453 6.1798 19.8971 5.75C19.5022 5.06591 18.9341 4.49784 18.25 4.10289C17.8202 3.85474 17.249 3.68541 16.2444 3.59436C15.2192 3.50144 13.8968 3.5 12 3.5C10.1032 3.5 8.78082 3.50144 7.75559 3.59436C6.75097 3.68541 6.1798 3.85474 5.75 4.10289C5.06591 4.49784 4.49784 5.06591 4.10289 5.75C3.85474 6.1798 3.68541 6.75097 3.59436 7.75559C3.50144 8.78082 3.5 10.1032 3.5 12C3.5 13.8968 3.50144 15.2192 3.59436 16.2444C3.68541 17.249 3.85474 17.8202 4.10289 18.25C4.49784 18.9341 5.06591 19.5022 5.75 19.8971Z" fill="#363538"/>
</svg>
