<svg width="24" height="24" viewBox="0 0 24 24" fill="none" xmlns="http://www.w3.org/2000/svg">
<path d="M11.9614 2.25098C11.9742 2.25033 11.9871 2.25 12 2.25C12.1919 2.25 12.3839 2.32322 12.5303 2.46967L15.5303 5.46967C15.8232 5.76256 15.8232 6.23744 15.5303 6.53033C15.2374 6.82322 14.7626 6.82322 14.4697 6.53033L12.75 4.81066V21C12.75 21.4142 12.4142 21.75 12 21.75C11.5858 21.75 11.25 21.4142 11.25 21V4.81066L9.53033 6.53033C9.23744 6.82322 8.76256 6.82322 8.46967 6.53033C8.17678 6.23744 8.17678 5.76256 8.46967 5.46967L11.4697 2.46967C11.5416 2.39776 11.6245 2.34351 11.7129 2.30691C11.7901 2.27491 11.8738 2.25542 11.9614 2.25098Z" fill="#363538"/>
</svg>
