<svg width="24" height="24" viewBox="0 0 24 24" fill="none" xmlns="http://www.w3.org/2000/svg">
<path d="M9.46967 10.0303C9.76256 10.3232 10.2374 10.3232 10.5303 10.0303L11.25 9.31066V16.5C11.25 16.9142 11.5858 17.25 12 17.25C12.4142 17.25 12.75 16.9142 12.75 16.5L12.75 9.31066L13.4697 10.0303C13.7626 10.3232 14.2374 10.3232 14.5303 10.0303C14.8232 9.73744 14.8232 9.26256 14.5303 8.96967L12.5303 6.96967C12.4584 6.89776 12.3755 6.84351 12.2871 6.80691C12.1993 6.77051 12.1031 6.7503 12.0022 6.75L12 6.75L11.9978 6.75C11.8066 6.75057 11.6155 6.82379 11.4697 6.96967L9.46967 8.96967C9.17678 9.26256 9.17678 9.73744 9.46967 10.0303Z" fill="#363538"/>
<path fill-rule="evenodd" clip-rule="evenodd" d="M12 22C17.5228 22 22 17.5228 22 12C22 6.47715 17.5228 2 12 2C6.47715 2 2 6.47715 2 12C2 17.5228 6.47715 22 12 22ZM12 20.5C16.6944 20.5 20.5 16.6944 20.5 12C20.5 7.30558 16.6944 3.5 12 3.5C7.30558 3.5 3.5 7.30558 3.5 12C3.5 16.6944 7.30558 20.5 12 20.5Z" fill="#363538"/>
</svg>
