<svg width="24" height="24" viewBox="0 0 24 24" fill="none" xmlns="http://www.w3.org/2000/svg">
<path d="M14.2119 11.5823C14.2119 10.0724 13.0114 8.82274 11.5 8.82274C9.98861 8.82274 8.78809 10.0724 8.78809 11.5823V13.1108C8.78809 14.3852 9.58751 15.429 10.6738 15.8214C11.7235 16.2005 12.978 15.8997 14.2119 15.321V11.5823ZM15.7119 15.4087C16.82 16.0553 18.25 15.2328 18.25 13.8995V11.4202C18.2498 7.86485 15.4292 4.95678 11.9189 4.95657H11.5C7.75823 4.95657 4.75 8.05699 4.75 11.8492V12.5218C4.75001 16.758 8.16434 20.19 12.3398 20.085C13.7864 20.0485 15.3547 19.6377 16.7949 18.9223C17.1689 18.7365 17.6169 18.9019 17.7949 19.2922C17.9728 19.6824 17.8134 20.1489 17.4395 20.3346C15.8299 21.1342 14.0555 21.6069 12.376 21.6492C7.38685 21.7747 3.25001 17.6669 3.25 12.5218V11.8492C3.25 7.16392 6.9575 3.39136 11.5 3.39136H11.9189C16.23 3.39156 19.7498 6.97178 19.75 11.4202V13.8995C19.75 16.5513 16.9361 18.0129 14.8848 16.7191C13.5147 17.371 11.7956 17.883 10.1836 17.301C8.54773 16.7103 7.28809 15.111 7.28809 13.1108V11.5823C7.28809 9.17936 9.18788 7.25753 11.5 7.25753C13.8121 7.25753 15.7119 9.17936 15.7119 11.5823V15.4087Z" fill="#363538"/>
</svg>
