<svg width="24" height="24" viewBox="0 0 24 24" fill="none" xmlns="http://www.w3.org/2000/svg">
<path d="M17.6834 2.73118C17.9699 2.43207 18.4447 2.42187 18.7438 2.7084C20.5955 4.48224 21.75 6.98193 21.75 9.75C21.75 14.8824 17.7844 19.0886 12.75 19.4716V21H15C15.4142 21 15.75 21.3358 15.75 21.75C15.75 22.1642 15.4142 22.5 15 22.5H8.99996C8.58574 22.5 8.24996 22.1642 8.24996 21.75C8.24996 21.3358 8.58574 21 8.99996 21H11.25V19.4716C8.18108 19.238 5.50968 17.5834 3.89232 15.1672C3.66191 14.823 3.75417 14.3572 4.09839 14.1267C4.4426 13.8963 4.90843 13.9886 5.13884 14.3328C6.62008 16.5457 9.14037 18 12 18C16.5564 18 20.25 14.3064 20.25 9.75C20.25 7.4076 19.2748 5.29425 17.7062 3.7916C17.4071 3.50506 17.3969 3.0303 17.6834 2.73118Z" fill="#363538"/>
<path fill-rule="evenodd" clip-rule="evenodd" d="M10.5095 6C9.9384 6 9.49407 6.3133 9.20407 6.59852C8.90427 6.89339 8.67271 7.25122 8.51497 7.54615C8.31993 7.91085 8.2655 8.29357 8.25555 8.60929L8.25361 8.66449C8.24501 8.89684 8.23159 9.25998 8.38489 9.59081C8.56767 9.98525 8.91386 10.2164 9.24775 10.4016C9.62398 10.6102 9.89929 10.7484 10.137 10.8274C10.3644 10.9029 10.5419 10.9188 10.694 10.9221C10.6979 10.9279 10.6997 10.9328 10.7007 10.938C10.7016 10.9423 10.7069 10.9693 10.6892 11.0281C10.4789 11.7296 10.5904 12.6577 10.8631 13.3247C10.9988 13.6566 11.2214 14.0429 11.5808 14.2826C11.7734 14.4111 12.0139 14.5021 12.2892 14.5C12.5635 14.4979 12.8114 14.4039 13.0213 14.2639C13.9658 13.6338 14.3088 12.4495 14.4775 11.6646C14.5369 11.3883 14.5855 11.0992 14.6234 10.8746C14.6404 10.7737 14.6552 10.6858 14.6677 10.6179L14.6698 10.6066C14.7635 10.5424 14.8444 10.4696 14.9093 10.4053C15.0565 10.2594 15.196 10.0819 15.3096 9.92444C15.4668 9.70657 15.6191 9.398 15.6517 9.06289C15.6686 8.8893 15.657 8.66705 15.5532 8.44469C15.4422 8.20686 15.2507 8.02379 15.008 7.91749C14.8245 7.8371 14.625 7.79937 14.4178 7.79747C14.4172 7.7972 14.4162 7.79679 14.4146 7.79619C14.4013 7.79103 14.3509 7.77154 14.2619 7.70348C14.154 7.62108 14.0447 7.50916 13.9532 7.399C13.9316 6.62268 13.2954 6 12.5139 6H10.5095ZM9.83769 8.25356C9.95334 8.03731 10.1011 7.82021 10.2559 7.66795C10.4205 7.50604 10.5061 7.5 10.5095 7.5H12.455C12.4658 7.75824 12.5468 8.0393 12.738 8.28171C12.8863 8.46956 13.0984 8.70221 13.351 8.89524C13.5025 9.01102 13.7096 9.14436 13.9567 9.22469C13.9218 9.26697 13.8898 9.30293 13.8618 9.33148C13.661 9.39468 13.5283 9.52641 13.4609 9.61223C13.3723 9.72487 13.3253 9.84156 13.3013 9.90788C13.2509 10.0475 13.2176 10.2112 13.1929 10.3442C13.1719 10.4575 13.1532 10.5692 13.1341 10.6838C13.0999 10.8883 13.0642 11.1018 13.011 11.3494C12.8614 12.0452 12.6448 12.6043 12.3234 12.9082C12.3016 12.8691 12.277 12.8194 12.2515 12.7571C12.0752 12.3256 12.037 11.7559 12.126 11.4588C12.3008 10.876 12.158 10.3567 11.8699 9.99064C11.6217 9.67525 11.218 9.42299 10.7961 9.42299C10.6712 9.42299 10.6592 9.42026 10.6098 9.40385C10.5179 9.37333 10.3506 9.29791 9.97518 9.08974C9.85507 9.02314 9.7883 8.97781 9.75183 8.94898C9.74823 8.88905 9.75001 8.80898 9.75481 8.65653C9.76088 8.46394 9.79289 8.33732 9.83769 8.25356Z" fill="#363538"/>
<path fill-rule="evenodd" clip-rule="evenodd" d="M12 16.75C15.8659 16.75 19 13.616 19 9.75C19 5.88401 15.8659 2.75 12 2.75C8.13396 2.75 4.99996 5.88401 4.99996 9.75C4.99996 13.616 8.13396 16.75 12 16.75ZM12 15.25C15.0375 15.25 17.5 12.7876 17.5 9.75C17.5 6.71243 15.0375 4.25 12 4.25C8.96239 4.25 6.49996 6.71243 6.49996 9.75C6.49996 12.7876 8.96239 15.25 12 15.25Z" fill="#363538"/>
</svg>
