<svg width="24" height="24" viewBox="0 0 24 24" fill="none" xmlns="http://www.w3.org/2000/svg">
<path d="M14.3863 4.86293C14.6916 4.58303 14.7122 4.10861 14.4323 3.80327C14.1525 3.49793 13.678 3.4773 13.3727 3.7572L4.86735 11.5538C2.66279 13.5746 2.65675 17.0482 4.85428 19.0767C6.84035 20.91 9.91048 20.88 11.8603 19.0081L19.8468 11.3411C21.0047 10.2295 21.0934 8.40714 20.0487 7.18839C18.9014 5.84989 16.8575 5.7714 15.6109 7.01795L9.84915 12.7797C9.55626 13.0726 9.55626 13.5475 9.84915 13.8404C10.142 14.1333 10.6169 14.1333 10.9098 13.8404L16.6716 8.07861C17.3003 7.4499 18.3312 7.48949 18.9098 8.16457C19.4367 8.77926 19.392 9.69838 18.808 10.259L10.8215 17.9261C9.44394 19.2485 7.27488 19.2697 5.8717 17.9745C4.31913 16.5414 4.3234 14.0872 5.88093 12.6595L14.3863 4.86293Z" fill="#363538"/>
</svg>
