<svg width="24" height="24" viewBox="0 0 24 24" fill="none" xmlns="http://www.w3.org/2000/svg">
<path fill-rule="evenodd" clip-rule="evenodd" d="M12.663 14.6184C12.6614 14.6267 12.6597 14.6349 12.658 14.6431L14.4724 15.8661C15.7665 16.7384 17.5 15.8004 17.5 14.2278V9.77226C17.5 8.19971 15.7665 7.26174 14.4724 8.13404L12.658 9.35694C12.3861 8.04304 10.848 7.34165 9.67238 8.13404L6.3672 10.3618C5.21096 11.1412 5.21096 12.8589 6.3672 13.6383L9.67238 15.8661C10.8553 16.6634 12.4053 15.9482 12.663 14.6184ZM11.2 9.77226V14.2278C11.2 14.6293 10.7835 14.8061 10.5108 14.6222L7.20557 12.3944C6.9315 12.2097 6.9315 11.7904 7.20557 11.6057L10.5108 9.37787C10.7835 9.19403 11.2 9.37082 11.2 9.77226ZM12.7 11.1376L15.3107 9.37787C15.5835 9.19403 16 9.37082 16 9.77226V14.2278C16 14.6293 15.5835 14.8061 15.3107 14.6222L12.7 12.8625V11.1376Z" fill="#363538"/>
<path fill-rule="evenodd" clip-rule="evenodd" d="M12 22C6.47715 22 2 17.5228 2 12C2 6.47715 6.47715 2 12 2C17.5228 2 22 6.47715 22 12C22 17.5228 17.5228 22 12 22ZM12 20.5C7.30558 20.5 3.5 16.6944 3.5 12C3.5 7.30558 7.30558 3.5 12 3.5C16.6944 3.5 20.5 7.30558 20.5 12C20.5 16.6944 16.6944 20.5 12 20.5Z" fill="#363538"/>
</svg>
