<svg width="24" height="24" viewBox="0 0 24 24" fill="none" xmlns="http://www.w3.org/2000/svg">
<path fill-rule="evenodd" clip-rule="evenodd" d="M13.9383 7.636C13.5088 5.41969 10.9255 4.22776 8.95394 5.55665L3.4453 9.26962C1.51823 10.5685 1.51823 13.4315 3.4453 14.7304L8.95394 18.4434C10.9133 19.764 13.4768 18.595 13.93 16.4052L16.9539 18.4434C19.1109 19.8972 22 18.3339 22 15.713V8.28703C22 5.6661 19.1109 4.10282 16.9539 5.55665L13.93 7.59484C13.9329 7.60852 13.9356 7.62224 13.9383 7.636ZM12.5 15.713V8.28703C12.5 6.83721 10.9278 6.03511 9.79232 6.80048L4.28368 10.5135C3.23877 11.2177 3.23877 12.7823 4.28368 13.4865L9.79232 17.1995C10.9278 17.9649 12.5 17.1628 12.5 15.713ZM14 9.3566V14.6434L17.7923 17.1995C18.9278 17.9649 20.5 17.1628 20.5 15.713V8.28703C20.5 6.83721 18.9278 6.03511 17.7923 6.80048L14 9.3566Z" fill="#363538"/>
</svg>
