<svg width="24" height="24" viewBox="0 0 24 24" fill="none" xmlns="http://www.w3.org/2000/svg">
<path d="M11.8703 9.46967C11.5774 9.17678 11.1025 9.17678 10.8096 9.46967C10.5167 9.76256 10.5167 10.2374 10.8096 10.5303L12.2793 12L10.8096 13.4697C10.5167 13.7626 10.5167 14.2374 10.8096 14.5303C11.1025 14.8232 11.5774 14.8232 11.8703 14.5303L13.34 13.0607L14.8096 14.5303C15.1025 14.8232 15.5774 14.8232 15.8703 14.5303C16.1632 14.2374 16.1632 13.7626 15.8703 13.4697L14.4006 12L15.8703 10.5303C16.1632 10.2374 16.1632 9.76256 15.8703 9.46967C15.5774 9.17678 15.1025 9.17678 14.8096 9.46967L13.34 10.9393L11.8703 9.46967Z" fill="#363538"/>
<path fill-rule="evenodd" clip-rule="evenodd" d="M7.14472 5.36598C7.90428 4.49792 9.00158 4 10.155 4H17.34C19.5491 4 21.34 5.79086 21.34 8V16C21.34 18.2091 19.5491 20 17.34 20H10.155C9.00158 20 7.90428 19.5021 7.14472 18.634L3.64472 14.634C2.32513 13.1259 2.32513 10.8741 3.64472 9.36598L7.14472 5.36598ZM8.27359 6.35374C8.74831 5.8112 9.43412 5.5 10.155 5.5H17.34C18.7207 5.5 19.84 6.61929 19.84 8V16C19.84 17.3807 18.7207 18.5 17.34 18.5H10.155C9.43412 18.5 8.74831 18.1888 8.27359 17.6463L4.77359 13.6463C3.94884 12.7037 3.94884 11.2963 4.77359 10.3537L8.27359 6.35374Z" fill="#363538"/>
</svg>
