<svg width="24" height="24" viewBox="0 0 24 24" fill="none" xmlns="http://www.w3.org/2000/svg">
<path fill-rule="evenodd" clip-rule="evenodd" d="M15.3473 10.2539C15.8121 10.2843 16.2433 10.4788 16.6178 10.8223L16.775 10.9795L16.8278 11.042C17.4335 11.8588 17.2832 12.7529 17.0163 13.3223C16.9758 13.4087 16.9758 13.5913 17.0163 13.6777C17.2832 14.2471 17.4335 15.1412 16.8278 15.958C16.8116 15.9799 16.7935 16.0005 16.775 16.0205C16.3658 16.4619 15.8788 16.7113 15.3473 16.7461C14.8361 16.7794 14.3729 16.6091 13.9987 16.3887C13.4712 16.0779 13.0204 15.6076 12.6881 15.1748C12.4915 15.2179 12.2512 15.2559 11.9997 15.2559C11.7481 15.2558 11.5078 15.2179 11.3112 15.1748C10.9788 15.6076 10.5282 16.0779 10.0006 16.3887C9.62636 16.609 9.16319 16.7795 8.652 16.7461C8.1206 16.7112 7.6335 16.462 7.22426 16.0205C7.20577 16.0006 7.18774 15.9799 7.17153 15.958C6.56599 15.1413 6.71618 14.2471 6.98305 13.6777C7.02354 13.5914 7.02354 13.4086 6.98305 13.3223C6.71618 12.7529 6.56599 11.8587 7.17153 11.042L7.22426 10.9795C7.6335 10.538 8.1206 10.2888 8.652 10.2539C9.16319 10.2205 9.62636 10.391 10.0006 10.6113C10.5279 10.9219 10.9789 11.3916 11.3112 11.8242C11.5077 11.7812 11.7482 11.7442 11.9997 11.7441C12.2511 11.7441 12.4915 11.7812 12.6881 11.8242C13.0204 11.3916 13.4714 10.922 13.9987 10.6113C14.3729 10.3909 14.8361 10.2206 15.3473 10.2539ZM8.74965 11.751C8.65906 11.757 8.52698 11.7943 8.35415 11.9697C8.21065 12.1886 8.22438 12.4377 8.34048 12.6855C8.57009 13.1753 8.57009 13.8247 8.34048 14.3145C8.2245 14.5621 8.21113 14.8106 8.35415 15.0293C8.52722 15.2052 8.65897 15.243 8.74965 15.249C8.86529 15.2566 9.02721 15.2203 9.23891 15.0957C9.61974 14.8714 9.99477 14.4583 10.2555 14.0811V12.918C9.99479 12.5409 9.61952 12.1284 9.23891 11.9043C9.02721 11.7797 8.86529 11.7434 8.74965 11.751ZM15.2497 11.751C15.134 11.7435 14.972 11.7797 14.7604 11.9043C14.3799 12.1285 14.0045 12.5409 13.7438 12.918V14.0811C14.0045 14.4583 14.3796 14.8714 14.7604 15.0957C14.972 15.2203 15.134 15.2565 15.2497 15.249C15.3402 15.2431 15.4712 15.2049 15.6442 15.0293C15.7876 14.8104 15.775 14.5623 15.6588 14.3145C15.4293 13.8247 15.4293 13.1753 15.6588 12.6855C15.7751 12.4374 15.7881 12.1888 15.6442 11.9697C15.4714 11.7946 15.3401 11.7569 15.2497 11.751ZM11.9997 13.2441C11.9217 13.2442 11.8382 13.2523 11.7555 13.2656V13.7334C11.8383 13.7468 11.9217 13.7558 11.9997 13.7559C12.0776 13.7559 12.161 13.7468 12.2438 13.7334V13.2656C12.1611 13.2523 12.0776 13.2441 11.9997 13.2441Z" fill="#363538"/>
<path fill-rule="evenodd" clip-rule="evenodd" d="M11.9997 2.25C14.623 2.25 16.7497 4.37665 16.7497 7V7.03223C18.4852 7.25082 19.9094 8.5733 20.2262 10.333L21.2672 16.1152C21.7251 18.6603 19.7692 20.9999 17.1832 21H6.81606C4.23027 20.9996 2.27426 18.6602 2.73208 16.1152L3.77309 10.333C4.0898 8.5735 5.51441 7.25109 7.24965 7.03223V7C7.24965 4.37676 9.37646 2.25019 11.9997 2.25ZM7.75844 8.5C6.52462 8.50028 5.46726 9.38427 5.24868 10.5986L4.20864 16.3809C3.91631 18.0059 5.16499 19.4996 6.81606 19.5H17.1832C18.8345 19.4999 20.0831 18.006 19.7907 16.3809L18.7506 10.5986C18.532 9.38419 17.4748 8.50012 16.2409 8.5H7.75844ZM11.9997 3.75C10.2049 3.75019 8.74965 5.20519 8.74965 7H15.2497C15.2497 5.20507 13.7946 3.75 11.9997 3.75Z" fill="#363538"/>
</svg>
