<svg width="24" height="24" viewBox="0 0 24 24" fill="none" xmlns="http://www.w3.org/2000/svg">
<path fill-rule="evenodd" clip-rule="evenodd" d="M10.399 5.25C9.40029 5.25 8.48008 5.79145 7.99506 6.66448C6.97675 8.49744 8.30216 10.75 10.399 10.75H13.6009C15.6978 10.75 17.0232 8.49744 16.0049 6.66448C15.5199 5.79145 14.5996 5.25 13.6009 5.25H10.399ZM9.3063 7.39295C9.52676 6.99611 9.94504 6.75 10.399 6.75H13.6009C14.0549 6.75 14.4732 6.99612 14.6936 7.39295C15.1565 8.22611 14.554 9.25 13.6009 9.25H10.399C9.44589 9.25 8.84343 8.22611 9.3063 7.39295Z" fill="#363538"/>
<path fill-rule="evenodd" clip-rule="evenodd" d="M9.76476 2.25C8.09626 2.25 6.55011 3.12542 5.69167 4.55615L2.92691 9.16408C2.48397 9.9023 2.25 10.747 2.25 11.6079V17C2.25 19.6234 4.37665 21.75 7 21.75H17C19.6234 21.75 21.75 19.6234 21.75 17V11.6079C21.75 10.747 21.516 9.9023 21.0731 9.16408L18.3083 4.55615C17.4499 3.12542 15.9037 2.25 14.2352 2.25H9.76476ZM6.97791 5.32789C7.56526 4.34897 8.62316 3.75 9.76476 3.75H14.2352C15.3768 3.75 16.4347 4.34897 17.0221 5.32789L19.7869 9.93582C20.0899 10.4409 20.25 11.0189 20.25 11.6079V17C20.25 18.7949 18.7949 20.25 17 20.25H7C5.20507 20.25 3.75 18.7949 3.75 17V11.6079C3.75 11.0189 3.91009 10.4409 4.21315 9.93582L6.97791 5.32789Z" fill="#363538"/>
</svg>
