<svg width="24" height="24" viewBox="0 0 24 24" fill="none" xmlns="http://www.w3.org/2000/svg">
<path fill-rule="evenodd" clip-rule="evenodd" d="M12.6854 3.5272C12.9501 5.45595 13.2356 8.31507 13.2495 11.7404C13.7733 11.7323 14.2747 11.7193 14.7539 11.7021C14.8298 8.78554 16.0077 6.53736 17.0142 5.13567C15.7813 4.23341 14.2971 3.65568 12.6854 3.5272ZM18.1478 6.13014C17.2926 7.35448 16.3461 9.23464 16.2568 11.6317C18.0259 11.5285 19.4236 11.3719 20.4648 11.221C20.2862 9.25399 19.4377 7.4806 18.1478 6.13014ZM20.4686 12.7355C19.4049 12.8837 18.0245 13.0319 16.3151 13.1309C16.5507 15.1661 17.3855 16.7785 18.1478 17.8699C19.4471 16.5095 20.2986 14.72 20.4686 12.7355ZM17.0142 18.8643C16.1142 17.6109 15.0771 15.6807 14.8135 13.201C14.3117 13.219 13.7867 13.2325 13.238 13.2408C13.1804 16.2313 12.9244 18.7313 12.6854 20.4728C14.2971 20.3443 15.7813 19.7666 17.0142 18.8643ZM11.1726 20.4603C11.4113 18.7688 11.6776 16.2674 11.7376 13.2496C10.8285 13.2468 9.97843 13.2294 9.18653 13.201C8.92287 15.6807 7.88578 17.611 6.98582 18.8643C8.18245 19.7401 9.61587 20.31 11.1726 20.4603ZM5.8522 17.8699C6.61449 16.7785 7.44934 15.1661 7.68494 13.1309C5.97551 13.0319 4.59506 12.8837 3.53136 12.7355C3.70135 14.72 4.55286 16.5095 5.8522 17.8699ZM3.53519 11.221C4.57637 11.3719 5.9741 11.5285 7.74315 11.6317C7.65387 9.23463 6.70739 7.35448 5.85221 6.13014C4.56231 7.4806 3.71379 9.25399 3.53519 11.221ZM6.98583 5.13567C7.99227 6.53736 9.17022 8.78554 9.24613 11.7021C10.022 11.7299 10.8562 11.7469 11.7495 11.7496C11.7357 8.28448 11.4372 5.41455 11.1726 3.53971C9.61587 3.68995 8.18246 4.25992 6.98583 5.13567ZM11.7993 2.00198C11.8661 2.00066 11.933 2 12 2C14.5032 2 16.7933 2.92075 18.5471 4.44105C20.6252 6.24243 21.9545 8.88934 21.9989 11.8472C21.9996 11.8981 22 11.949 22 12C22 15.0192 20.6611 17.7265 18.5471 19.559C16.7933 21.0792 14.5032 22 12 22C11.933 22 11.8661 21.9993 11.7993 21.998C9.37422 21.9502 7.15957 21.0384 5.45284 19.559C3.33892 17.7265 2 15.0192 2 12C2 11.949 2.00038 11.8981 2.00114 11.8472C2.04551 8.88934 3.37475 6.24243 5.45285 4.44105C7.15958 2.96158 9.37422 2.04978 11.7993 2.00198Z" fill="#363538"/>
</svg>
