<svg width="24" height="24" viewBox="0 0 24 24" fill="none" xmlns="http://www.w3.org/2000/svg">
<path d="M10.5303 5.53033C10.8232 5.23744 10.8232 4.76256 10.5303 4.46967C10.2374 4.17678 9.76256 4.17678 9.46967 4.46967C9.26085 4.67849 8.97001 5.0294 8.72662 5.44803C8.48943 5.856 8.25 6.40865 8.25 7C8.25 7.41421 8.58579 7.75 9 7.75C9.41421 7.75 9.75 7.41421 9.75 7C9.75 6.79135 9.8439 6.51066 10.0234 6.20197C10.1967 5.90394 10.4058 5.65484 10.5303 5.53033Z" fill="#363538"/>
<path fill-rule="evenodd" clip-rule="evenodd" d="M13.1319 14.5713C15.216 13.5651 18 11.1154 18 7.22222C18 2.55556 14.25 1 12 1C9.75 1 6 2.55556 6 7.22222C6 11.1523 8.83686 13.4274 10.927 14.5123L10.4697 14.9697C10.2552 15.1842 10.191 15.5068 10.3071 15.787C10.4232 16.0673 10.6967 16.25 11 16.25H11.3945C11.4271 16.3202 11.4654 16.3865 11.5094 16.4491C11.4068 16.6688 11.2107 17.0243 10.8568 17.6141C10.3757 18.416 10.3049 19.2082 10.4928 19.9138C10.6737 20.5928 11.0791 21.1398 11.4696 21.5303C11.7625 21.8232 12.2374 21.8232 12.5303 21.5303C12.8232 21.2374 12.8232 20.7626 12.5303 20.4697C12.2542 20.1936 12.033 19.8682 11.9423 19.5276C11.8586 19.2136 11.8711 18.8392 12.1431 18.3859C12.5179 17.7611 12.7576 17.3315 12.8948 17.0265C12.9825 16.8317 13.098 16.5509 13.0727 16.2465C13.3464 16.2199 13.5862 16.0447 13.6929 15.787C13.809 15.5068 13.7448 15.1842 13.5303 14.9697L13.1319 14.5713ZM7.5 7.22222C7.5 5.34649 8.22877 4.22206 9.09166 3.53372C10.0122 2.79937 11.1709 2.5 12 2.5C12.8291 2.5 13.9878 2.79937 14.9083 3.53372C15.7712 4.22206 16.5 5.34649 16.5 7.22222C16.5 10.5811 13.8738 12.6906 12.0761 13.3978C12.0691 13.3971 12.0546 13.3944 12.0349 13.3853C10.0882 12.487 7.5 10.5548 7.5 7.22222Z" fill="#363538"/>
</svg>
