<svg width="24" height="24" viewBox="0 0 24 24" fill="none" xmlns="http://www.w3.org/2000/svg">
<path fill-rule="evenodd" clip-rule="evenodd" d="M14 5.49993C14 6.6045 13.1046 7.49993 12 7.49993C10.8954 7.49993 10 6.6045 10 5.49993C10 4.39537 10.8954 3.49993 12 3.49993C13.1046 3.49993 14 4.39537 14 5.49993ZM12.5 5.49993C12.5 5.77608 12.2761 5.99993 12 5.99993C11.7239 5.99993 11.5 5.77608 11.5 5.49993C11.5 5.22379 11.7239 4.99993 12 4.99993C12.2761 4.99993 12.5 5.22379 12.5 5.49993Z" fill="#363538"/>
<path fill-rule="evenodd" clip-rule="evenodd" d="M12.9085 1.02329C12.3203 0.817433 11.6797 0.817433 11.0915 1.02329L3.09154 3.82329C1.98855 4.20933 1.25 5.2503 1.25 6.4189V7.99993C1.25 8.96643 2.0335 9.74993 3 9.74993H3.25V17.4183C2.65876 17.6992 2.25 18.3018 2.25 18.9999V19.2749C1.67944 19.3908 1.25 19.8952 1.25 20.4999V20.9999C1.25 21.9664 2.0335 22.7499 3 22.7499H21C21.9665 22.7499 22.75 21.9664 22.75 20.9999V20.4999C22.75 19.8952 22.3206 19.3908 21.75 19.2749V18.9999C21.75 18.3018 21.3412 17.6992 20.75 17.4183V9.74993H21C21.9665 9.74993 22.75 8.96643 22.75 7.99993V6.4189C22.75 5.2503 22.0115 4.20933 20.9085 3.82329L12.9085 1.02329ZM11.5871 2.43907C11.8544 2.3455 12.1456 2.3455 12.4129 2.43907L20.4129 5.23907C20.9143 5.41455 21.25 5.88772 21.25 6.4189V7.99993C21.25 8.13801 21.1381 8.24993 21 8.24993H3C2.86193 8.24993 2.75 8.13801 2.75 7.99993V6.4189C2.75 5.88772 3.0857 5.41455 3.58706 5.23907L11.5871 2.43907ZM4.75 17.2499V9.74993H7.25V17.2499H4.75ZM8.75 17.2499V9.74993H11.25V17.2499H8.75ZM12.75 17.2499V9.74993H15.25V17.2499H12.75ZM16.75 17.2499V9.74993H19.25V17.2499H16.75ZM20 18.7499C20.1381 18.7499 20.25 18.8619 20.25 18.9999V19.4999C20.25 20.1047 20.6794 20.6091 21.25 20.7249V20.9999C21.25 21.138 21.1381 21.2499 21 21.2499H3C2.86193 21.2499 2.75 21.138 2.75 20.9999V20.7249C3.32056 20.6091 3.75 20.1047 3.75 19.4999V18.9999C3.75 18.8619 3.86193 18.7499 4 18.7499H20Z" fill="#363538"/>
</svg>
