<svg width="24" height="24" viewBox="0 0 24 24" fill="none" xmlns="http://www.w3.org/2000/svg">
<path fill-rule="evenodd" clip-rule="evenodd" d="M11.7197 2.98438C13.5747 1.12946 16.5825 1.12946 18.4375 2.98438L21.2656 5.81348C23.1205 7.66846 23.1205 10.6753 21.2656 12.5303L20.8926 12.9043C20.2749 13.5219 19.4863 13.9823 18.7773 14.3809C18.0334 14.7991 17.3773 15.1489 16.8535 15.5762C16.6865 15.7124 16.5078 15.875 16.3164 16.0664C16.1249 16.2579 15.9625 16.4375 15.8262 16.6045C15.399 17.1282 15.0489 17.7836 14.6309 18.5273C14.2323 19.2363 13.7719 20.0249 13.1543 20.6426L12.7803 21.0156C10.9253 22.8706 7.91847 22.8705 6.06348 21.0156L3.23438 18.1875C1.37945 16.3325 1.37942 13.3247 3.23438 11.4697L3.6084 11.0967C4.22617 10.479 5.01457 10.0177 5.72363 9.61914C6.46743 9.20103 7.12281 8.85108 7.64648 8.42383C7.81349 8.28755 7.99315 8.12599 8.18457 7.93457C8.376 7.74314 8.53754 7.5635 8.67383 7.39648C9.10109 6.8728 9.45101 6.21745 9.86914 5.47363C10.2677 4.76457 10.729 3.97617 11.3467 3.3584L11.7197 2.98438ZM17.377 4.04492C16.1078 2.7758 14.0495 2.7758 12.7803 4.04492L12.4072 4.41895C11.9539 4.87241 11.5816 5.48778 11.1768 6.20801C10.7914 6.89354 10.3663 7.69465 9.83594 8.34473C9.66558 8.55349 9.46979 8.77044 9.24512 8.99512C9.02045 9.21978 8.80349 9.41559 8.59473 9.58594C7.94467 10.1163 7.14353 10.5414 6.45801 10.9268C5.73778 11.3316 5.12241 11.7039 4.66895 12.1572L4.29492 12.5303C3.02575 13.7995 3.02578 15.8577 4.29492 17.127L7.12402 19.9551C8.39323 21.2241 10.4506 21.2242 11.7197 19.9551L12.0938 19.582C12.5471 19.1286 12.9184 18.5122 13.3232 17.792C13.7085 17.1066 14.1338 16.3062 14.6641 15.6562C14.8345 15.4474 15.0311 15.2306 15.2559 15.0059C15.4806 14.7811 15.6974 14.5845 15.9062 14.4141C16.5562 13.8838 17.3566 13.4585 18.042 13.0732C18.7622 12.6684 19.3786 12.2971 19.832 11.8438L20.2051 11.4697C21.4742 10.2006 21.4741 8.14322 20.2051 6.87402L17.377 4.04492Z" fill="#363538"/>
<path fill-rule="evenodd" clip-rule="evenodd" d="M3.75 4.75C4.99264 4.75 6 5.75736 6 7C6 8.24264 4.99264 9.25 3.75 9.25C2.50736 9.25 1.5 8.24264 1.5 7C1.5 5.75736 2.50736 4.75 3.75 4.75ZM3.75 6.25C3.33579 6.25 3 6.58579 3 7C3 7.41421 3.33579 7.75 3.75 7.75C4.16421 7.75 4.5 7.41421 4.5 7C4.5 6.58579 4.16421 6.25 3.75 6.25Z" fill="#363538"/>
<path fill-rule="evenodd" clip-rule="evenodd" d="M7.25 1.25C8.2165 1.25 9 2.0335 9 3C9 3.9665 8.2165 4.75 7.25 4.75C6.2835 4.75 5.5 3.9665 5.5 3C5.5 2.0335 6.2835 1.25 7.25 1.25ZM7.25 2.75C7.11193 2.75 7 2.86193 7 3C7 3.13807 7.11193 3.25 7.25 3.25C7.38807 3.25 7.5 3.13807 7.5 3C7.5 2.86193 7.38807 2.75 7.25 2.75Z" fill="#363538"/>
</svg>
