<svg width="24" height="24" viewBox="0 0 24 24" fill="none" xmlns="http://www.w3.org/2000/svg">
<path fill-rule="evenodd" clip-rule="evenodd" d="M17.5 8.24994C18.4793 8.24994 19.31 8.87651 19.6191 9.74994H20C20.4142 9.74994 20.75 10.0857 20.75 10.4999C20.75 10.9141 20.4142 11.2499 20 11.2499H19.7441C19.6576 13.9793 18.1599 16.3515 15.957 17.663L17.0801 19.6279L17.1143 19.6962C17.2686 20.0436 17.1379 20.4586 16.8008 20.6513C16.4635 20.844 16.0393 20.746 15.8184 20.4365L15.7773 20.372L14.5947 18.3027C13.7834 18.591 12.9104 18.7499 12 18.7499C11.0893 18.7499 10.2159 18.5912 9.4043 18.3027L8.22266 20.372C8.01716 20.7316 7.55882 20.8567 7.19922 20.6513C6.83963 20.4458 6.71453 19.9875 6.91992 19.6279L8.04199 17.663C5.8395 16.3514 4.34239 13.979 4.25586 11.2499H4C3.58581 11.2499 3.25003 10.9141 3.25 10.4999C3.25 10.0857 3.58579 9.74994 4 9.74994H4.38086C4.68999 8.87651 5.52067 8.24994 6.5 8.24994H17.5ZM6.5 9.74994C6.08579 9.74994 5.75 10.0857 5.75 10.4999V10.9999C5.75003 14.4517 8.54824 17.2499 12 17.2499C15.4518 17.2499 18.25 14.4517 18.25 10.9999V10.4999C18.25 10.0857 17.9142 9.74994 17.5 9.74994H6.5Z" fill="#363538"/>
<path d="M8.46973 2.96967C8.76262 2.67678 9.23738 2.67678 9.53027 2.96967C10.0737 3.51315 10.1577 4.36431 9.73145 5.00385L9.5166 5.32807C9.49446 5.36142 9.49172 5.40276 9.50781 5.43744L9.53027 5.46967L9.58203 5.52631C9.82231 5.82089 9.80487 6.25562 9.53027 6.53022C9.23739 6.82307 8.76261 6.82307 8.46973 6.53022C7.92626 5.98675 7.84232 5.13558 8.26855 4.49604L8.4834 4.17182C8.51303 4.12721 8.50759 4.0681 8.46973 4.03022C8.17684 3.73733 8.17686 3.26257 8.46973 2.96967Z" fill="#363538"/>
<path d="M11.4697 2.96967C11.7626 2.67678 12.2374 2.67678 12.5303 2.96967C13.0737 3.51315 13.1577 4.36431 12.7314 5.00385L12.5166 5.32807C12.4945 5.36142 12.4917 5.40276 12.5078 5.43744L12.5303 5.46967L12.582 5.52631C12.8223 5.82089 12.8049 6.25562 12.5303 6.53022C12.2374 6.82307 11.7626 6.82307 11.4697 6.53022C10.9263 5.98675 10.8423 5.13558 11.2686 4.49604L11.4834 4.17182C11.513 4.12721 11.5076 4.0681 11.4697 4.03022C11.1768 3.73733 11.1769 3.26257 11.4697 2.96967Z" fill="#363538"/>
<path d="M14.4697 2.96967C14.7626 2.67678 15.2374 2.67678 15.5303 2.96967C16.0737 3.51315 16.1577 4.36431 15.7314 5.00385L15.5166 5.32807C15.4945 5.36142 15.4917 5.40276 15.5078 5.43744L15.5303 5.46967L15.582 5.52631C15.8223 5.82089 15.8049 6.25562 15.5303 6.53022C15.2374 6.82307 14.7626 6.82307 14.4697 6.53022C13.9263 5.98675 13.8423 5.13558 14.2686 4.49604L14.4834 4.17182C14.513 4.12721 14.5076 4.0681 14.4697 4.03022C14.1768 3.73733 14.1769 3.26257 14.4697 2.96967Z" fill="#363538"/>
</svg>
