<svg width="24" height="24" viewBox="0 0 24 24" fill="none" xmlns="http://www.w3.org/2000/svg">
<path fill-rule="evenodd" clip-rule="evenodd" d="M18 2H16C14.3431 2 13 3.34315 13 5V19C13 20.6569 14.3431 22 16 22H18C19.6569 22 21 20.6569 21 19V5C21 3.34315 19.6569 2 18 2ZM16 3.5H18C18.8284 3.5 19.5 4.17157 19.5 5V19C19.5 19.8284 18.8284 20.5 18 20.5H16C15.1716 20.5 14.5 19.8284 14.5 19V5C14.5 4.17157 15.1716 3.5 16 3.5Z" fill="#363538"/>
<path fill-rule="evenodd" clip-rule="evenodd" d="M8 8H6C4.34315 8 3 9.34315 3 11V19C3 20.6569 4.34315 22 6 22H8C9.65685 22 11 20.6569 11 19V11C11 9.34315 9.65685 8 8 8ZM6 9.5H8C8.82843 9.5 9.5 10.1716 9.5 11V19C9.5 19.8284 8.82843 20.5 8 20.5H6C5.17157 20.5 4.5 19.8284 4.5 19V11C4.5 10.1716 5.17157 9.5 6 9.5Z" fill="#363538"/>
</svg>
