<svg width="24" height="24" viewBox="0 0 24 24" fill="none" xmlns="http://www.w3.org/2000/svg">
<path fill-rule="evenodd" clip-rule="evenodd" d="M16 8V6C16 4.34315 14.6569 3 13 3H5C3.34315 3 2 4.34315 2 6V8C2 9.65685 3.34315 11 5 11H13C14.6569 11 16 9.65685 16 8ZM14.5 6V8C14.5 8.82843 13.8284 9.5 13 9.5H5C4.17157 9.5 3.5 8.82843 3.5 8L3.5 6C3.5 5.17157 4.17157 4.5 5 4.5L13 4.5C13.8284 4.5 14.5 5.17157 14.5 6Z" fill="#363538"/>
<path fill-rule="evenodd" clip-rule="evenodd" d="M22 18V16C22 14.3431 20.6569 13 19 13H5C3.34315 13 2 14.3431 2 16V18C2 19.6569 3.34315 21 5 21H19C20.6569 21 22 19.6569 22 18ZM20.5 16V18C20.5 18.8284 19.8284 19.5 19 19.5H5C4.17157 19.5 3.5 18.8284 3.5 18L3.5 16C3.5 15.1716 4.17157 14.5 5 14.5L19 14.5C19.8284 14.5 20.5 15.1716 20.5 16Z" fill="#363538"/>
</svg>
