<svg width="24" height="24" viewBox="0 0 24 24" fill="none" xmlns="http://www.w3.org/2000/svg">
<path fill-rule="evenodd" clip-rule="evenodd" d="M2.9944 2.89426C1.31855 4.57011 1.39451 7.3097 3.16066 8.8901L5.80842 11.2594C5.82667 11.2757 5.84572 11.2912 5.86548 11.3056L16.4205 19.0335C16.5909 19.1582 16.6954 19.3536 16.7045 19.5645C16.7369 20.308 17.1436 20.9845 17.7851 21.3617L17.938 21.4517C18.9285 22.0341 20.1873 21.8734 20.9998 21.061L21.0607 21C21.8733 20.1875 22.0338 18.9284 21.451 17.938L21.3563 17.7769C20.982 17.1408 20.3111 16.7376 19.5738 16.7055C19.3633 16.6964 19.169 16.5898 19.0481 16.4173L11.5189 5.67387C11.4961 5.64123 11.4706 5.61047 11.4428 5.58187L8.87579 2.93775C7.2709 1.28468 4.62355 1.26511 2.9944 2.89426ZM4.16091 7.77229C3.03646 6.7661 2.98809 5.02189 4.05506 3.95492C5.09229 2.91769 6.77778 2.93015 7.79956 3.98261L10.3249 6.58377L13.8958 11.6791L11.7904 13.7845L6.78127 10.1171L4.16091 7.77229ZM13.0151 14.6812L14.7699 12.9264L17.8197 17.2782C18.2082 17.8325 18.8323 18.1747 19.5086 18.2041C19.7381 18.2141 19.947 18.3396 20.0635 18.5376L20.1582 18.6986C20.3944 19.0999 20.3293 19.6101 20.0001 19.9394L19.9391 20.0004C19.6099 20.3296 19.0997 20.3947 18.6984 20.1587L18.5454 20.0687C18.3422 19.9492 18.2134 19.7349 18.2031 19.4994C18.1742 18.8335 17.8444 18.2169 17.3066 17.8232L13.0151 14.6812Z" fill="#363538"/>
<path fill-rule="evenodd" clip-rule="evenodd" d="M6 14.2501C3.92893 14.2501 2.25 15.929 2.25 18.0001C2.25 20.0712 3.92893 21.7501 6 21.7501C8.07107 21.7501 9.75 20.0712 9.75 18.0001C9.75 15.929 8.07107 14.2501 6 14.2501ZM3.75 18.0001C3.75 16.7575 4.75736 15.7501 6 15.7501C7.24264 15.7501 8.25 16.7575 8.25 18.0001C8.25 19.2427 7.24264 20.2501 6 20.2501C4.75736 20.2501 3.75 19.2427 3.75 18.0001Z" fill="#363538"/>
</svg>
