<svg width="24" height="24" viewBox="0 0 24 24" fill="none" xmlns="http://www.w3.org/2000/svg">
<path d="M6.74998 9.00003C6.74998 8.58582 6.4142 8.25003 5.99998 8.25003C5.58577 8.25003 5.24998 8.58582 5.24998 9.00003L5.24998 15C5.24998 15.4142 5.58577 15.75 5.99998 15.75C6.4142 15.75 6.74998 15.4142 6.74998 15L6.74998 9.00003Z" fill="#363538"/>
<path fill-rule="evenodd" clip-rule="evenodd" d="M20 9C20 6.79086 18.2091 5 16 5H6C3.79086 5 2 6.79086 2 9V15C2 17.2091 3.79086 19 6 19H16C18.2091 19 20 17.2091 20 15V14.8C20.1756 14.9905 20.4107 15.0646 20.6567 14.9351C20.96 14.7755 21.2356 14.5415 21.4678 14.2465C21.6999 13.9514 21.8841 13.6012 22.0097 13.2158C22.1353 12.8303 22.2 12.4172 22.2 12C22.2 11.5828 22.1353 11.1697 22.0097 10.7843C21.8841 10.3988 21.6999 10.0486 21.4678 9.75361C21.2356 9.45861 20.96 9.2246 20.6567 9.06494C20.4107 8.93545 20.1756 9.00953 20 9.20008V9ZM18.5 9C18.5 7.61929 17.3807 6.5 16 6.5L6 6.5C4.61929 6.5 3.5 7.61929 3.5 9L3.5 15C3.5 16.3807 4.61929 17.5 6 17.5H16C17.3807 17.5 18.5 16.3807 18.5 15V9Z" fill="#363538"/>
</svg>
