<svg width="24" height="24" viewBox="0 0 24 24" fill="none" xmlns="http://www.w3.org/2000/svg">
<path d="M9 17.2501C8.58579 17.2501 8.25 17.5858 8.25 18.0001C8.25 18.4143 8.58579 18.7501 9 18.7501H15C15.4142 18.7501 15.75 18.4143 15.75 18.0001C15.75 17.5858 15.4142 17.2501 15 17.2501H9Z" fill="#363538"/>
<path fill-rule="evenodd" clip-rule="evenodd" d="M14.9351 3.34334C15.0646 3.58935 14.9905 3.82447 14.7999 4.00006H15C17.2091 4.00006 19 5.79092 19 8.00006V18.0001C19 20.2092 17.2091 22.0001 15 22.0001H9C6.79086 22.0001 5 20.2092 5 18.0001V8.00006C5 5.79092 6.79086 4.00006 9 4.00006H9.20005C9.0095 3.82447 8.93542 3.58935 9.06491 3.34334C9.22457 3.04003 9.45858 2.76443 9.75358 2.53228C10.0486 2.30014 10.3988 2.11599 10.7842 1.99035C11.1697 1.86471 11.5828 1.80005 12 1.80005C12.4172 1.80005 12.8303 1.86471 13.2158 1.99035C13.6012 2.11599 13.9514 2.30014 14.2464 2.53228C14.5414 2.76443 14.7754 3.04003 14.9351 3.34334ZM9 5.50006C7.61929 5.50006 6.5 6.61935 6.5 8.00006V18.0001C6.5 19.3808 7.61929 20.5001 9 20.5001H15C16.3807 20.5001 17.5 19.3808 17.5 18.0001V8.00006C17.5 6.61935 16.3807 5.50006 15 5.50006H9Z" fill="#363538"/>
</svg>
