<svg width="24" height="24" viewBox="0 0 24 24" fill="none" xmlns="http://www.w3.org/2000/svg">
<path d="M5.99998 8.25003C6.4142 8.25003 6.74998 8.58582 6.74998 9.00003L6.74998 15C6.74998 15.4142 6.4142 15.75 5.99998 15.75C5.58577 15.75 5.24998 15.4142 5.24998 15L5.24998 9.00003C5.24998 8.58582 5.58577 8.25003 5.99998 8.25003Z" fill="#363538"/>
<path d="M9.74998 9.00003C9.74998 8.58582 9.4142 8.25003 8.99998 8.25003C8.58577 8.25003 8.24998 8.58582 8.24998 9.00003L8.24998 15C8.24998 15.4142 8.58577 15.75 8.99998 15.75C9.4142 15.75 9.74998 15.4142 9.74998 15L9.74998 9.00003Z" fill="#363538"/>
<path fill-rule="evenodd" clip-rule="evenodd" d="M16 5C18.2091 5 20 6.79086 20 9V9.20008C20.1756 9.00953 20.4107 8.93545 20.6567 9.06494C20.96 9.2246 21.2356 9.45861 21.4678 9.75361C21.6999 10.0486 21.8841 10.3988 22.0097 10.7843C22.1353 11.1697 22.2 11.5828 22.2 12C22.2 12.4172 22.1353 12.8303 22.0097 13.2158C21.8841 13.6012 21.6999 13.9514 21.4678 14.2465C21.2356 14.5415 20.96 14.7755 20.6567 14.9351C20.4107 15.0646 20.1756 14.9905 20 14.8V15C20 17.2091 18.2091 19 16 19H6C3.79086 19 2 17.2091 2 15V9C2 6.79086 3.79086 5 6 5H16ZM16 6.5C17.3807 6.5 18.5 7.61929 18.5 9V15C18.5 16.3807 17.3807 17.5 16 17.5H6C4.61929 17.5 3.5 16.3807 3.5 15L3.5 9C3.5 7.61929 4.61929 6.5 6 6.5L16 6.5Z" fill="#363538"/>
</svg>
