<svg width="24" height="24" viewBox="0 0 24 24" fill="none" xmlns="http://www.w3.org/2000/svg">
<path d="M8.25 18.0001C8.25 17.5858 8.58579 17.2501 9 17.2501H15C15.4142 17.2501 15.75 17.5858 15.75 18.0001C15.75 18.4143 15.4142 18.7501 15 18.7501H9C8.58579 18.7501 8.25 18.4143 8.25 18.0001Z" fill="#363538"/>
<path d="M9 14.2501C8.58579 14.2501 8.25 14.5858 8.25 15.0001C8.25 15.4143 8.58579 15.7501 9 15.7501H15C15.4142 15.7501 15.75 15.4143 15.75 15.0001C15.75 14.5858 15.4142 14.2501 15 14.2501H9Z" fill="#363538"/>
<path d="M8.25 12.0001C8.25 11.5858 8.58579 11.2501 9 11.2501H15C15.4142 11.2501 15.75 11.5858 15.75 12.0001C15.75 12.4143 15.4142 12.7501 15 12.7501H9C8.58579 12.7501 8.25 12.4143 8.25 12.0001Z" fill="#363538"/>
<path d="M9 8.25006C8.58579 8.25006 8.25 8.58585 8.25 9.00006C8.25 9.41427 8.58579 9.75006 9 9.75006H15C15.4142 9.75006 15.75 9.41427 15.75 9.00006C15.75 8.58585 15.4142 8.25006 15 8.25006H9Z" fill="#363538"/>
<path fill-rule="evenodd" clip-rule="evenodd" d="M14.7999 4.00006C14.9905 3.82447 15.0646 3.58935 14.9351 3.34334C14.7754 3.04003 14.5414 2.76443 14.2464 2.53228C13.9514 2.30014 13.6012 2.11599 13.2158 1.99035C12.8303 1.86471 12.4172 1.80005 12 1.80005C11.5828 1.80005 11.1697 1.86471 10.7842 1.99035C10.3988 2.11599 10.0486 2.30014 9.75358 2.53228C9.45858 2.76443 9.22457 3.04003 9.06491 3.34334C8.93542 3.58935 9.0095 3.82447 9.20005 4.00006H9C6.79086 4.00006 5 5.79092 5 8.00006V18.0001C5 20.2092 6.79086 22.0001 9 22.0001H15C17.2091 22.0001 19 20.2092 19 18.0001V8.00006C19 5.79092 17.2091 4.00006 15 4.00006H14.7999ZM6.5 8.00006C6.5 6.61935 7.61929 5.50006 9 5.50006H15C16.3807 5.50006 17.5 6.61935 17.5 8.00006V18.0001C17.5 19.3808 16.3807 20.5001 15 20.5001H9C7.61929 20.5001 6.5 19.3808 6.5 18.0001V8.00006Z" fill="#363538"/>
</svg>
