<svg width="24" height="24" viewBox="0 0 24 24" fill="none" xmlns="http://www.w3.org/2000/svg">
<path d="M11.4317 9.1367L9.21708 13.5659C9.11734 13.7653 9.26239 14 9.48541 14H11.7C11.8657 14 12 14.1344 12 14.3V16.7292C12 17.0458 12.4268 17.1465 12.5683 16.8634L14.7829 12.4342C14.8827 12.2347 14.7376 12 14.5146 12H12.3C12.1343 12 12 11.8657 12 11.7V9.27086C12 8.9543 11.5732 8.85355 11.4317 9.1367Z" fill="#363538"/>
<path fill-rule="evenodd" clip-rule="evenodd" d="M14.9351 3.34334C15.0646 3.58934 14.9905 3.82446 14.8 4.00005H15C17.2091 4.00005 19 5.79091 19 8.00005V18C19 20.2092 17.2091 22 15 22H9C6.79086 22 5 20.2092 5 18V8.00005C5 5.79091 6.79086 4.00005 9 4.00005H9.20004C9.0095 3.82446 8.93542 3.58934 9.06491 3.34334C9.22457 3.04003 9.45858 2.76443 9.75358 2.53228C10.0486 2.30014 10.3988 2.11599 10.7842 1.99035C11.1697 1.86471 11.5828 1.80005 12 1.80005C12.4172 1.80005 12.8303 1.86471 13.2158 1.99035C13.6012 2.11599 13.9514 2.30014 14.2464 2.53228C14.5414 2.76443 14.7754 3.04003 14.9351 3.34334ZM9 5.50005C7.61929 5.50005 6.5 6.61933 6.5 8.00005V18C6.5 19.3808 7.61929 20.5 9 20.5H15C16.3807 20.5 17.5 19.3808 17.5 18V8.00005C17.5 6.61933 16.3807 5.50005 15 5.50005H9Z" fill="#363538"/>
</svg>
