<svg width="24" height="24" viewBox="0 0 24 24" fill="none" xmlns="http://www.w3.org/2000/svg">
<path d="M9 17.25C8.58579 17.25 8.25 17.5858 8.25 18C8.25 18.4143 8.58579 18.75 9 18.75H15C15.4142 18.75 15.75 18.4143 15.75 18C15.75 17.5858 15.4142 17.25 15 17.25H9Z" fill="#363538"/>
<path d="M8.25 15C8.25 14.5858 8.58579 14.25 9 14.25H15C15.4142 14.25 15.75 14.5858 15.75 15C15.75 15.4143 15.4142 15.75 15 15.75H9C8.58579 15.75 8.25 15.4143 8.25 15Z" fill="#363538"/>
<path d="M9 11.25C8.58579 11.25 8.25 11.5858 8.25 12C8.25 12.4143 8.58579 12.75 9 12.75H15C15.4142 12.75 15.75 12.4143 15.75 12C15.75 11.5858 15.4142 11.25 15 11.25H9Z" fill="#363538"/>
<path fill-rule="evenodd" clip-rule="evenodd" d="M14.9351 3.34334C15.0646 3.58934 14.9905 3.82446 14.8 4.00005H15C17.2091 4.00005 19 5.79091 19 8.00005V18C19 20.2092 17.2091 22 15 22H9C6.79086 22 5 20.2092 5 18V8.00005C5 5.79091 6.79086 4.00005 9 4.00005H9.20004C9.0095 3.82446 8.93542 3.58934 9.06491 3.34334C9.22457 3.04003 9.45858 2.76443 9.75358 2.53228C10.0486 2.30014 10.3988 2.11599 10.7842 1.99035C11.1697 1.86471 11.5828 1.80005 12 1.80005C12.4172 1.80005 12.8303 1.86471 13.2158 1.99035C13.6012 2.11599 13.9514 2.30014 14.2464 2.53228C14.5414 2.76443 14.7754 3.04003 14.9351 3.34334ZM9 5.50005C7.61929 5.50005 6.5 6.61933 6.5 8.00005V18C6.5 19.3808 7.61929 20.5 9 20.5H15C16.3807 20.5 17.5 19.3808 17.5 18V8.00005C17.5 6.61933 16.3807 5.50005 15 5.50005H9Z" fill="#363538"/>
</svg>
