<svg width="24" height="24" viewBox="0 0 24 24" fill="none" xmlns="http://www.w3.org/2000/svg">
<path d="M8.25 18C8.25 17.5858 8.58579 17.25 9 17.25H15C15.4142 17.25 15.75 17.5858 15.75 18C15.75 18.4143 15.4142 18.75 15 18.75H9C8.58579 18.75 8.25 18.4143 8.25 18Z" fill="#363538"/>
<path d="M9 14.25C8.58579 14.25 8.25 14.5858 8.25 15C8.25 15.4143 8.58579 15.75 9 15.75H15C15.4142 15.75 15.75 15.4143 15.75 15C15.75 14.5858 15.4142 14.25 15 14.25H9Z" fill="#363538"/>
<path fill-rule="evenodd" clip-rule="evenodd" d="M14.8 4.00005C14.9905 3.82446 15.0646 3.58934 14.9351 3.34334C14.7754 3.04003 14.5414 2.76443 14.2464 2.53228C13.9514 2.30014 13.6012 2.11599 13.2158 1.99035C12.8303 1.86471 12.4172 1.80005 12 1.80005C11.5828 1.80005 11.1697 1.86471 10.7842 1.99035C10.3988 2.11599 10.0486 2.30014 9.75358 2.53228C9.45858 2.76443 9.22457 3.04003 9.06491 3.34334C8.93542 3.58934 9.0095 3.82446 9.20004 4.00005H9C6.79086 4.00005 5 5.79091 5 8.00005V18C5 20.2092 6.79086 22 9 22H15C17.2091 22 19 20.2092 19 18V8.00005C19 5.79091 17.2091 4.00005 15 4.00005H14.8ZM6.5 8.00005C6.5 6.61933 7.61929 5.50005 9 5.50005H15C16.3807 5.50005 17.5 6.61933 17.5 8.00005V18C17.5 19.3808 16.3807 20.5 15 20.5H9C7.61929 20.5 6.5 19.3808 6.5 18V8.00005Z" fill="#363538"/>
</svg>
