<svg width="24" height="24" viewBox="0 0 24 24" fill="none" xmlns="http://www.w3.org/2000/svg">
<path d="M10.4316 8.13668L8.21706 12.5659C8.11732 12.7653 8.26237 13 8.48538 13H10.7C10.8657 13 11 13.1343 11 13.3V15.7292C11 16.0458 11.4267 16.1465 11.5683 15.8634L13.7829 11.4342C13.8826 11.2347 13.7376 11 13.5146 11H11.3C11.1343 11 11 10.8657 11 10.7V8.27085C11 7.95428 10.5732 7.85354 10.4316 8.13668Z" fill="#363538"/>
<path fill-rule="evenodd" clip-rule="evenodd" d="M20 9C20 6.79086 18.2091 5 16 5H6C3.79086 5 2 6.79086 2 9V15C2 17.2091 3.79086 19 6 19H16C18.2091 19 20 17.2091 20 15V14.8C20.1756 14.9905 20.4107 15.0646 20.6567 14.9351C20.96 14.7755 21.2356 14.5415 21.4678 14.2465C21.6999 13.9514 21.8841 13.6012 22.0097 13.2158C22.1353 12.8303 22.2 12.4172 22.2 12C22.2 11.5828 22.1353 11.1697 22.0097 10.7843C21.8841 10.3988 21.6999 10.0486 21.4678 9.75361C21.2356 9.45861 20.96 9.2246 20.6567 9.06494C20.4107 8.93545 20.1756 9.00953 20 9.20008V9ZM18.5 9C18.5 7.61929 17.3807 6.5 16 6.5L6 6.5C4.61929 6.5 3.5 7.61929 3.5 9L3.5 15C3.5 16.3807 4.61929 17.5 6 17.5H16C17.3807 17.5 18.5 16.3807 18.5 15V9Z" fill="#363538"/>
</svg>
