<svg width="24" height="24" viewBox="0 0 24 24" fill="none" xmlns="http://www.w3.org/2000/svg">
<path fill-rule="evenodd" clip-rule="evenodd" d="M3 4.25C3.41421 4.25 3.75 4.58579 3.75 5V15.25H10.25V13C10.25 10.3766 12.3766 8.25 15 8.25H20.25V5C20.25 4.58579 20.5858 4.25 21 4.25C21.4142 4.25 21.75 4.58579 21.75 5V19C21.75 19.4142 21.4142 19.75 21 19.75C20.5858 19.75 20.25 19.4142 20.25 19V16.75H3.75V19C3.75 19.4142 3.41421 19.75 3 19.75C2.58579 19.75 2.25 19.4142 2.25 19V5C2.25 4.58579 2.58579 4.25 3 4.25ZM20.25 9.75H15C13.2051 9.75 11.75 11.2051 11.75 13V15.25H20.25V9.75Z" fill="#363538"/>
<path fill-rule="evenodd" clip-rule="evenodd" d="M7 14C8.10457 14 9 13.1046 9 12C9 10.8954 8.10457 10 7 10C5.89543 10 5 10.8954 5 12C5 13.1046 5.89543 14 7 14ZM7 12.5C7.27614 12.5 7.5 12.2761 7.5 12C7.5 11.7239 7.27614 11.5 7 11.5C6.72386 11.5 6.5 11.7239 6.5 12C6.5 12.2761 6.72386 12.5 7 12.5Z" fill="#363538"/>
</svg>
