<svg width="24" height="24" viewBox="0 0 24 24" fill="none" xmlns="http://www.w3.org/2000/svg">
<path fill-rule="evenodd" clip-rule="evenodd" d="M4.28097 18.7519L4.49996 17V8.6621C4.49996 8.22145 4.46356 7.78156 4.39111 7.34691L4.19403 6.1644C4.09244 5.55487 4.56248 5 5.18042 5H16.8195C17.4374 5 17.9075 5.55487 17.8059 6.1644L17.6088 7.34691C17.5936 7.43826 17.58 7.52984 17.5679 7.62162C17.6231 7.58438 17.6795 7.54934 17.7369 7.51667C18.225 7.23898 18.8737 7.08616 19.5345 7.31666C20.2038 7.55012 20.725 8.12019 21.0678 8.96034C21.4076 9.79306 21.6 10.9486 21.6 12.5001C21.6 15.5793 20.8333 17.0888 19.6507 17.7434C19.0972 18.0498 18.5398 18.111 18.1674 18.1407C18.1013 18.146 18.0458 18.15 17.9978 18.1535C17.8947 18.161 17.8264 18.1659 17.7632 18.1753C17.7283 18.1984 17.6918 18.2182 17.6543 18.2349L17.719 18.7519C17.8682 19.9456 16.9374 21 15.7344 21H6.26553C5.06253 21 4.13176 19.9456 4.28097 18.7519ZM5.99996 17.0934V8.6621C5.99996 8.13883 5.95673 7.61646 5.87071 7.10031L5.77065 6.5H16.2293L16.1292 7.10031C16.0432 7.61646 16 8.13883 16 8.6621V17.0934L16.2305 18.938C16.2678 19.2364 16.0351 19.5 15.7344 19.5H6.26553C5.96478 19.5 5.73208 19.2364 5.76939 18.938L5.99996 17.0934ZM17.5 16.6982C17.5107 16.6965 17.5209 16.6949 17.5304 16.6934C17.6593 16.6737 17.8169 16.6623 17.9461 16.6531C17.9828 16.6504 18.0174 16.6479 18.0482 16.6455C18.3789 16.6191 18.6653 16.5744 18.9243 16.431C19.3666 16.1861 20.1 15.4211 20.1 12.5001C20.1 11.0515 19.9173 10.1111 19.679 9.52706C19.4437 8.95045 19.1836 8.78291 19.0405 8.73297C18.8888 8.68007 18.6937 8.69806 18.4787 8.82042C18.2551 8.94762 18.1016 9.13843 18.0476 9.27528C17.951 9.52012 17.7399 9.68574 17.5 9.73494V16.6982ZM17.7122 18.1855C17.7119 18.1854 17.7156 18.1841 17.7242 18.1822C17.7168 18.1847 17.7125 18.1857 17.7122 18.1855Z" fill="#363538"/>
</svg>
