<svg width="24" height="24" viewBox="0 0 24 24" fill="none" xmlns="http://www.w3.org/2000/svg">
<path fill-rule="evenodd" clip-rule="evenodd" d="M3.25 5.6001C3.25 5.18588 3.58579 4.8501 4 4.8501H8.8C10.9815 4.8501 12.75 6.61857 12.75 8.8001C12.75 10.1164 12.1061 11.2823 11.1162 12.0001C12.1061 12.7179 12.75 13.8838 12.75 15.2001C12.75 17.3816 10.9815 19.1501 8.8 19.1501H4C3.80109 19.1501 3.61032 19.0711 3.46967 18.9304C3.32902 18.7898 3.25 18.599 3.25 18.4001V5.6001ZM4.75 12.7501L4.75 17.6501H8.8C10.1531 17.6501 11.25 16.5532 11.25 15.2001C11.25 13.847 10.1531 12.7501 8.8 12.7501L4.75 12.7501ZM8.8 11.2501C10.1531 11.2501 11.25 10.1532 11.25 8.8001C11.25 7.447 10.1531 6.3501 8.8 6.3501H4.75L4.75 11.2501L8.8 11.2501Z" fill="#363538"/>
<path fill-rule="evenodd" clip-rule="evenodd" d="M13.75 14.5C13.75 12.7051 15.2051 11.25 17 11.25H17.5C19.0188 11.25 20.25 12.4812 20.25 14C20.25 14.9665 19.4665 15.75 18.5 15.75H15.25V15.8849C15.25 16.915 16.085 17.75 17.1151 17.75H17.4189C18.0403 17.75 18.592 17.3524 18.7885 16.7628C18.9195 16.3699 19.3442 16.1575 19.7372 16.2885C20.1301 16.4195 20.3425 16.8442 20.2115 17.2372C19.8108 18.4392 18.6859 19.25 17.4189 19.25H17.1151C15.2566 19.25 13.75 17.7434 13.75 15.8849V14.5ZM15.2677 14.25H18.5C18.6381 14.25 18.75 14.1381 18.75 14C18.75 13.3096 18.1904 12.75 17.5 12.75H17C16.1184 12.75 15.389 13.4019 15.2677 14.25Z" fill="#363538"/>
<path d="M15 9.25C14.5858 9.25 14.25 9.58579 14.25 10C14.25 10.4142 14.5858 10.75 15 10.75H19C19.4142 10.75 19.75 10.4142 19.75 10C19.75 9.58579 19.4142 9.25 19 9.25H15Z" fill="#363538"/>
</svg>
