<svg width="24" height="24" viewBox="0 0 24 24" fill="none" xmlns="http://www.w3.org/2000/svg">
<path fill-rule="evenodd" clip-rule="evenodd" d="M15.9999 15.2505C16.1987 15.2505 16.3895 15.3296 16.5302 15.4702C16.6708 15.6109 16.7499 15.8016 16.7499 16.0005C16.7498 16.5003 16.7498 16.5004 16.7499 17.0571C16.7499 17.3474 16.5827 17.6119 16.3202 17.7358C14.5838 18.5546 13.6809 20.3153 13.1708 21.3354C13.0437 21.5895 12.7839 21.7505 12.4999 21.7505H11.4999C11.2158 21.7505 10.956 21.5895 10.829 21.3354C10.3189 20.3153 9.41646 18.5546 7.68054 17.7358C7.41802 17.612 7.24991 17.3474 7.24988 17.0571C7.24981 16.5011 7.24964 16.5003 7.24988 16.0005C7.25007 15.5865 7.58588 15.2506 7.99988 15.2505H15.9999ZM8.99206 16.7505C10.5565 17.7436 11.4614 19.2828 11.9618 20.2505H12.038C12.5384 19.2827 13.4437 17.7436 15.0087 16.7505H8.99206Z" fill="#363538"/>
<path fill-rule="evenodd" clip-rule="evenodd" d="M16.9149 2.75049C17.3289 2.75072 17.6649 3.08642 17.6649 3.50049V5.29639C17.6768 5.30092 17.6893 5.30518 17.701 5.31006L17.8417 5.37744C19.2513 6.15879 19.6612 8.10663 19.1425 10.1821C18.8763 11.247 18.148 11.8608 17.2635 12.0845C16.4331 12.2943 15.5016 12.1573 14.6884 11.8726C13.8677 11.5851 13.073 11.1149 12.5028 10.5464C12.3199 10.364 12.1433 10.1518 11.9969 9.91748C11.8506 10.1517 11.6749 10.3641 11.4921 10.5464C10.9218 11.1149 10.1272 11.5851 9.30652 11.8726C8.49321 12.1574 7.56192 12.2944 6.73132 12.0845C5.84668 11.8609 5.11861 11.2471 4.85242 10.1821C4.33363 8.10645 4.74332 6.1587 6.1532 5.37744L6.29382 5.31006C6.30571 5.30514 6.31794 5.30097 6.32996 5.29639V3.50049C6.32996 3.08629 6.66577 2.75052 7.07996 2.75049C7.49417 2.75049 7.82996 3.08627 7.82996 3.50049V5.18115C8.61488 5.27747 9.44573 5.57083 10.1561 5.96143C10.8586 6.3477 11.575 6.90413 11.9969 7.59424C12.4188 6.90401 13.1362 6.34775 13.8387 5.96143C14.5491 5.57091 15.3801 5.27746 16.1649 5.18115V3.50049C16.1649 3.08627 16.5007 2.75049 16.9149 2.75049ZM7.13562 6.65283C7.03164 6.6606 6.94304 6.6767 6.86902 6.69678C6.36702 6.98593 5.85128 7.99362 6.30749 9.81885C6.42945 10.3064 6.7076 10.5315 7.09851 10.6304C7.54378 10.7429 8.15834 10.6859 8.81042 10.4575C9.45504 10.2318 10.0459 9.86928 10.4325 9.48389C10.8463 9.07124 10.8805 8.79426 10.8524 8.68213C10.7503 8.27408 10.2595 7.73012 9.43347 7.27588C8.63429 6.83646 7.74541 6.60732 7.13562 6.65283ZM16.8593 6.65283C16.2495 6.60732 15.3605 6.83656 14.5614 7.27588C13.7354 7.73009 13.2446 8.27409 13.1425 8.68213C13.1144 8.79426 13.1485 9.07124 13.5624 9.48389C13.9489 9.86921 14.5399 10.2318 15.1844 10.4575C15.8364 10.6858 16.4512 10.7429 16.8964 10.6304C17.2871 10.5314 17.5655 10.3062 17.6874 9.81885C18.1435 7.99402 17.6278 6.98614 17.1259 6.69678C17.0519 6.67672 16.9631 6.66061 16.8593 6.65283Z" fill="#363538"/>
</svg>
