<svg width="24" height="24" viewBox="0 0 24 24" fill="none" xmlns="http://www.w3.org/2000/svg">
<path fill-rule="evenodd" clip-rule="evenodd" d="M11.1161 1.82071C11.6043 1.33255 12.3957 1.33255 12.8839 1.82071L18.177 7.11382C18.6649 7.60176 18.6652 8.3928 18.1775 8.88104L16.8842 10.1759C16.3961 10.6646 15.6043 10.6649 15.1159 10.1765L12 7.06059L8.8841 10.1765C8.39574 10.6649 7.60387 10.6646 7.1158 10.1759L5.82247 8.88104C5.33483 8.3928 5.33507 7.60176 5.82301 7.11382L11.1161 1.82071ZM12 3.05814L7.06034 7.99781L8.00033 8.93894L11.1161 5.82315C11.6043 5.33499 12.3957 5.33499 12.8839 5.82315L15.9997 8.93894L16.9397 7.99781L12 3.05814Z" fill="#363538"/>
<path fill-rule="evenodd" clip-rule="evenodd" d="M3.3161 9.62297C3.80426 9.13481 4.59571 9.13481 5.08387 9.62297L6.57676 11.1159C7.06492 11.604 7.06492 12.3955 6.57676 12.8836L5.08387 14.3765C4.59571 14.8647 3.80426 14.8647 3.3161 14.3765L1.82321 12.8836C1.33505 12.3955 1.33505 11.604 1.82321 11.1159L3.3161 9.62297ZM4.19999 10.8604L3.06065 11.9997L4.19999 13.1391L5.33933 11.9997L4.19999 10.8604Z" fill="#363538"/>
<path fill-rule="evenodd" clip-rule="evenodd" d="M18.9162 9.62297C19.4044 9.13481 20.1958 9.13481 20.684 9.62297L22.1769 11.1159C22.665 11.604 22.665 12.3955 22.1769 12.8836L20.684 14.3765C20.1958 14.8647 19.4044 14.8647 18.9162 14.3765L17.4233 12.8836C16.9352 12.3955 16.9352 11.604 17.4233 11.1159L18.9162 9.62297ZM19.8001 10.8604L18.6607 11.9997L19.8001 13.1391L20.9394 11.9997L19.8001 10.8604Z" fill="#363538"/>
<path fill-rule="evenodd" clip-rule="evenodd" d="M12.8839 9.62297C12.3958 9.13481 11.6043 9.13481 11.1162 9.62297L9.62326 11.1159C9.1351 11.604 9.1351 12.3955 9.62326 12.8836L11.1162 14.3765C11.6043 14.8647 12.3958 14.8647 12.8839 14.3765L14.3768 12.8836C14.865 12.3955 14.865 11.604 14.3768 11.1159L12.8839 9.62297ZM10.8607 11.9997L12 10.8604L13.1394 11.9997L12 13.1391L10.8607 11.9997Z" fill="#363538"/>
<path fill-rule="evenodd" clip-rule="evenodd" d="M18.1775 15.1165L16.8843 13.8217C16.3961 13.3329 15.6041 13.3328 15.1157 13.8214L12 16.939L8.88426 13.8214C8.39594 13.3328 7.60386 13.3329 7.11569 13.8217L5.82247 15.1165C5.33483 15.6047 5.33507 16.3958 5.82301 16.8837L11.1161 22.1768C11.6043 22.665 12.3957 22.665 12.8839 22.1768L18.177 16.8837C18.6649 16.3958 18.6652 15.6047 18.1775 15.1165ZM12.8842 18.1763L15.9998 15.0587L16.9397 15.9997L12 20.9394L7.06034 15.9997L8.00016 15.0587L11.1159 18.1763C11.6041 18.6648 12.3959 18.6648 12.8842 18.1763Z" fill="#363538"/>
</svg>
