<svg width="24" height="24" viewBox="0 0 24 24" fill="none" xmlns="http://www.w3.org/2000/svg">
<path fill-rule="evenodd" clip-rule="evenodd" d="M10.1786 3C10.1786 2.58579 9.84278 2.25 9.42857 2.25C9.01436 2.25 8.67857 2.58579 8.67857 3V3.67105H6C5.58579 3.67105 5.25 4.00684 5.25 4.42105C5.25 4.83527 5.58579 5.17105 6 5.17105H6.10714V18.8289H6C5.58579 18.8289 5.25 19.1647 5.25 19.5789C5.25 19.9932 5.58579 20.3289 6 20.3289H8.67857V21C8.67857 21.4142 9.01436 21.75 9.42857 21.75C9.84278 21.75 10.1786 21.4142 10.1786 21V20.3289H12.1071V21C12.1071 21.4142 12.4429 21.75 12.8571 21.75C13.2714 21.75 13.6071 21.4142 13.6071 21V20.3289H14.2105C16.7176 20.3289 18.75 18.2966 18.75 15.7895C18.75 13.7834 17.4488 12.0813 15.6443 11.4811C16.502 10.6553 17.0357 9.49522 17.0357 8.21053V7.84962C17.0357 5.79789 15.557 4.09154 13.6071 3.73817V3C13.6071 2.58579 13.2714 2.25 12.8571 2.25C12.4429 2.25 12.1071 2.58579 12.1071 3V3.67105H10.1786V3ZM15.5357 8.21053C15.5357 9.88918 14.1749 11.25 12.4962 11.25H7.60714V5.17105H12.8571C14.3365 5.17105 15.5357 6.37029 15.5357 7.84962V8.21053ZM17.25 15.7895C17.25 17.4681 15.8892 18.8289 14.2105 18.8289H7.60714V12.75H14.2105C15.8892 12.75 17.25 14.1108 17.25 15.7895Z" fill="#363538"/>
</svg>
