<svg width="24" height="24" viewBox="0 0 24 24" fill="none" xmlns="http://www.w3.org/2000/svg">
<path fill-rule="evenodd" clip-rule="evenodd" d="M10.0251 11.8735C10.7031 12.1615 11.1786 12.8335 11.1786 13.6165V13.7368C11.1786 14.0696 11.0978 14.3836 10.9548 14.6601C11.4381 15.0278 11.75 15.6091 11.75 16.2632C11.75 17.2895 10.9819 18.1365 9.98918 18.2607C9.88327 18.5464 9.60827 18.75 9.28571 18.75C9.05681 18.75 8.85185 18.6475 8.71429 18.4858C8.57672 18.6475 8.37176 18.75 8.14286 18.75C7.82622 18.75 7.55542 18.5538 7.4454 18.2763H7C6.58579 18.2763 6.25 17.9405 6.25 17.5263C6.25 17.2874 6.3617 17.0746 6.53571 16.9373V13.0627C6.3617 12.9254 6.25 12.7126 6.25 12.4737C6.25 12.0595 6.58579 11.7237 7 11.7237H7.4454C7.55542 11.4462 7.82622 11.25 8.14286 11.25C8.37176 11.25 8.57672 11.3525 8.71429 11.5142C8.85185 11.3525 9.05681 11.25 9.28571 11.25C9.65683 11.25 9.96498 11.5195 10.0251 11.8735ZM8.03571 13.2237V14.25H9.16541C9.44882 14.25 9.67857 14.0203 9.67857 13.7368V13.6165C9.67857 13.3996 9.50268 13.2237 9.28571 13.2237H8.03571ZM8.03571 15.75H9.73684C10.0203 15.75 10.25 15.9797 10.25 16.2632C10.25 16.5466 10.0203 16.7763 9.73684 16.7763H8.03571V15.75Z" fill="#363538"/>
<path fill-rule="evenodd" clip-rule="evenodd" d="M14.9171 15.9999C14.9308 16 14.9445 16 14.9583 16C18.295 16 21 13.3137 21 10C21 6.68629 18.295 4 14.9583 4C11.9646 4 9.47948 6.16229 9.00009 9C9.00006 9 9.00013 9 9.00009 9C5.68639 9 3 11.6863 3 15C3 18.3137 5.68629 21 9 21C11.973 21 14.441 18.8376 14.9171 15.9999ZM14.9795 14.5C17.4723 14.4886 19.4896 12.4783 19.4896 10C19.4896 7.51472 17.4608 5.5 14.9583 5.5C12.7345 5.5 10.8848 7.09086 10.5004 9.18912C12.9322 9.81518 14.7672 11.9275 14.9795 14.5ZM9 19.5C11.4853 19.5 13.5 17.4853 13.5 15C13.5 12.5147 11.4853 10.5 9 10.5C6.51472 10.5 4.5 12.5147 4.5 15C4.5 17.4853 6.51472 19.5 9 19.5Z" fill="#363538"/>
</svg>
