<svg width="24" height="24" viewBox="0 0 24 24" fill="none" xmlns="http://www.w3.org/2000/svg">
<path fill-rule="evenodd" clip-rule="evenodd" d="M13.0002 1.75C13.9666 1.75014 14.7502 2.53359 14.7502 3.5V3.75H16.7893C17.8881 3.75016 18.7153 4.75105 18.508 5.83008L18.0422 8.25195C18.9892 8.27441 19.7502 9.04764 19.7502 10V12C19.7502 12.9664 18.9666 13.7499 18.0002 13.75H16.9846L16.3987 16.7969C17.1729 16.9774 17.7502 17.6708 17.7502 18.5V20.25C17.7502 21.2164 16.9666 21.9999 16.0002 22H8.00023C7.03373 22 6.25023 21.2165 6.25023 20.25V18.5C6.25023 17.671 6.8269 16.9777 7.60081 16.7969L5.49242 5.83008C5.28513 4.75095 6.11225 3.75 7.21117 3.75H9.25023V3.5C9.25023 2.5335 10.0337 1.75 11.0002 1.75H13.0002ZM8.00023 18.25C7.86216 18.25 7.75023 18.3619 7.75023 18.5V20.25C7.75023 20.3881 7.86216 20.5 8.00023 20.5H16.0002C16.1382 20.4999 16.2502 20.388 16.2502 20.25V18.5C16.2502 18.362 16.1382 18.2501 16.0002 18.25H8.00023ZM7.21117 5.25C7.05429 5.25 6.93569 5.39284 6.96507 5.54688L9.11937 16.75H14.8811L17.0354 5.54688C17.0647 5.39294 16.946 5.25016 16.7893 5.25H7.21117ZM17.2737 12.25H18.0002C18.1382 12.2499 18.2502 12.138 18.2502 12V10C18.2502 9.86201 18.1382 9.75014 18.0002 9.75H17.7541L17.2737 12.25ZM11.0002 3.25C10.8622 3.25 10.7502 3.36193 10.7502 3.5V3.75H13.2502V3.5C13.2502 3.36202 13.1382 3.25014 13.0002 3.25H11.0002Z" fill="#363538"/>
</svg>
