<svg width="24" height="24" viewBox="0 0 24 24" fill="none" xmlns="http://www.w3.org/2000/svg">
<path fill-rule="evenodd" clip-rule="evenodd" d="M19.1005 4.95873C20.8928 6.76599 22 9.25382 22 12.0002C22 17.5231 17.5228 22.0002 12 22.0002C6.47715 22.0002 2 17.5231 2 12.0002C2 6.4774 6.47715 2.00024 12 2.00024C14.7464 2.00024 17.2343 3.10742 19.0416 4.89978C19.0518 4.909 19.0619 4.91856 19.0718 4.92845C19.0817 4.93834 19.0913 4.94844 19.1005 4.95873ZM20.5 12.0002C20.5 16.6947 16.6944 20.5002 12 20.5002C9.92283 20.5002 8.01969 19.7552 6.54324 18.5177L18.5175 6.54348C19.7549 8.01993 20.5 9.92308 20.5 12.0002ZM5.48258 17.457L17.4568 5.48282C15.9803 4.24533 14.0772 3.50024 12 3.50024C7.30558 3.50024 3.5 7.30582 3.5 12.0002C3.5 14.0774 4.24509 15.9806 5.48258 17.457Z" fill="#363538"/>
</svg>
