<svg width="24" height="24" viewBox="0 0 24 24" fill="none" xmlns="http://www.w3.org/2000/svg">
<path fill-rule="evenodd" clip-rule="evenodd" d="M10.4693 2.63407C11.4494 2.2281 12.5506 2.2281 13.5307 2.63407L17.5403 4.2949C18.5204 4.70088 19.2991 5.47957 19.7051 6.45969L21.3659 10.4693C21.7719 11.4494 21.7719 12.5506 21.3659 13.5308L19.7051 17.5404C19.2991 18.5205 18.5204 19.2992 17.5403 19.7051L13.5307 21.366C12.5506 21.7719 11.4494 21.7719 10.4693 21.366L6.45966 19.7051C5.47954 19.2992 4.70085 18.5205 4.29487 17.5404L2.63404 13.5308C2.22807 12.5506 2.22807 11.4494 2.63404 10.4693L4.29487 6.45969C4.70085 5.47957 5.47954 4.70088 6.45966 4.2949L10.4693 2.63407ZM12.9567 4.01989L16.9663 5.68072C17.0343 5.7089 17.1008 5.73996 17.1656 5.77374L5.77371 17.1656C5.73993 17.1009 5.70887 17.0344 5.68069 16.9663L4.01986 12.9567C3.76613 12.3442 3.76613 11.6559 4.01986 11.0433L5.68069 7.03371C5.93443 6.42114 6.42111 5.93446 7.03368 5.68072L11.0433 4.01989C11.6559 3.76616 12.3441 3.76616 12.9567 4.01989ZM6.83437 18.2263C6.89916 18.2601 6.96564 18.2911 7.03368 18.3193L11.0433 19.9802C11.6559 20.2339 12.3441 20.2339 12.9567 19.9802L16.9663 18.3193C17.5789 18.0656 18.0656 17.5789 18.3193 16.9663L19.9801 12.9567C20.2339 12.3442 20.2339 11.6559 19.9801 11.0433L18.3193 7.03371C18.2911 6.96567 18.2601 6.89919 18.2263 6.8344L6.83437 18.2263Z" fill="#363538"/>
</svg>
