<svg width="24" height="24" viewBox="0 0 24 24" fill="none" xmlns="http://www.w3.org/2000/svg">
<path fill-rule="evenodd" clip-rule="evenodd" d="M12.9082 3.78127C11.742 3.07319 10.25 3.91278 10.25 5.27714V10.5219L6.39748 8.11412C6.04623 7.89459 5.58351 8.00137 5.36398 8.35262C5.14445 8.70387 5.25123 9.16659 5.60248 9.38612L9.78488 12.0001L5.60248 14.6141C5.25123 14.8337 5.14445 15.2964 5.36398 15.6476C5.58351 15.9989 6.04623 16.1057 6.39748 15.8861L10.25 13.4783V18.7231C10.25 20.0875 11.742 20.927 12.9082 20.219L17.0016 17.7337C18.1156 17.0574 18.126 15.4444 17.0209 14.7538L12.6151 12.0001L17.0209 9.24646C18.126 8.5558 18.1156 6.94288 17.0016 6.26658L12.9082 3.78127ZM16.2259 16.0258L11.75 13.2283V18.7231C11.75 18.918 11.9631 19.0379 12.1297 18.9368L16.2232 16.4515C16.3823 16.3549 16.3838 16.1244 16.2259 16.0258ZM12.1297 5.06345C11.9631 4.96229 11.75 5.08224 11.75 5.27714V10.7719L16.2259 7.97446C16.3838 7.87579 16.3823 7.64538 16.2232 7.54876L12.1297 5.06345Z" fill="#363538"/>
</svg>
