<svg width="24" height="24" viewBox="0 0 24 24" fill="none" xmlns="http://www.w3.org/2000/svg">
<path fill-rule="evenodd" clip-rule="evenodd" d="M8.39902 2.27976C9.78202 1.97316 10.8728 2.9112 11.3766 3.91843L12.8932 6.95359C13.2392 7.64568 13.2688 8.43117 13.0152 9.12644L21.3101 18.6977C21.911 19.3914 21.8738 20.4314 21.2252 21.0805L21.151 21.1548C20.4848 21.8207 19.4108 21.8404 18.7213 21.1987L9.64218 12.7466C8.84957 13.2209 7.85384 13.2737 7.00058 12.8471L3.96542 11.3296C2.95811 10.8259 2.01906 9.73515 2.32577 8.35203C2.55941 7.29866 3.15468 5.91778 4.55917 4.51316C5.9639 3.10843 7.34557 2.51342 8.39902 2.27976ZM10.7652 11.7417L19.7428 20.1001C19.8412 20.1917 19.9952 20.1892 20.0904 20.0942L20.1646 20.02C20.2568 19.9273 20.2618 19.7791 20.1764 19.6802L12.1207 10.3862L10.7652 11.7417ZM10.0348 4.58933C9.69938 3.91857 9.17283 3.64533 8.72421 3.74461C7.93847 3.91886 6.81482 4.37861 5.61972 5.57371C4.42489 6.76866 3.96486 7.89156 3.79062 8.67722C3.69127 9.12586 3.96551 9.65237 4.63632 9.98777L7.67148 11.5053C8.14838 11.7437 8.7226 11.6527 9.10312 11.2807L11.3199 9.06394C11.6981 8.68351 11.7922 8.10457 11.5523 7.62449L10.0348 4.58933Z" fill="#363538"/>
</svg>
