<svg width="24" height="24" viewBox="0 0 24 24" fill="none" xmlns="http://www.w3.org/2000/svg">
<path d="M15.0003 20.2495C15.8377 20.2495 16.4371 20.6016 16.8705 20.8471C17.3194 21.1014 17.6029 21.2495 18.0003 21.2495C18.5642 21.2495 18.9822 21.1904 19.3558 21.0659C19.636 20.9724 19.9141 20.8342 20.2259 20.6284L20.5501 20.3999L20.6136 20.3569C20.9391 20.1607 21.3668 20.239 21.5999 20.5493C21.8329 20.8599 21.7885 21.2926 21.5091 21.5502L21.4505 21.5991L21.0511 21.8813C20.6538 22.1434 20.2583 22.346 19.8304 22.4887C19.2598 22.6789 18.6713 22.7495 18.0003 22.7495C17.1629 22.7495 16.5636 22.3974 16.1302 22.1518C15.6814 21.8975 15.3976 21.7495 15.0003 21.7495C14.603 21.7495 14.3192 21.8976 13.8705 22.1518C13.4371 22.3973 12.8377 22.7494 12.0003 22.7495C11.1629 22.7495 10.5636 22.3974 10.1302 22.1518C9.68142 21.8975 9.39765 21.7495 9.00034 21.7495C8.60303 21.7495 8.31921 21.8976 7.87046 22.1518C7.43708 22.3973 6.83773 22.7494 6.00034 22.7495C5.32932 22.7495 4.7409 22.6789 4.17026 22.4887C3.59975 22.2985 3.08686 22.0016 2.55014 21.5991C2.21916 21.3505 2.15231 20.8805 2.40073 20.5493C2.64935 20.2185 3.11938 20.1516 3.45054 20.3999C3.90152 20.7381 4.27133 20.9414 4.64487 21.0659C5.01851 21.1904 5.43641 21.2495 6.00034 21.2495C6.39768 21.2494 6.68136 21.1014 7.13022 20.8471C7.5636 20.6016 8.16307 20.2495 9.00034 20.2495C9.83766 20.2495 10.4371 20.6016 10.8705 20.8471C11.3194 21.1014 11.603 21.2495 12.0003 21.2495C12.3977 21.2494 12.6814 21.1014 13.1302 20.8471C13.5636 20.6016 14.1631 20.2495 15.0003 20.2495Z" fill="#363538"/>
<path fill-rule="evenodd" clip-rule="evenodd" d="M10.9105 1.25435C11.1074 1.23071 11.3077 1.28631 11.4652 1.4106C11.6451 1.55276 11.7502 1.77018 11.7503 1.99947V12.2495H21.0003C21.8624 12.2496 22.7437 12.9471 22.64 13.9516L22.6058 14.1567C22.3397 15.3149 21.7093 16.678 20.7894 17.7651C19.8719 18.8492 18.5831 19.7494 17.0003 19.7495H7.00034C5.41752 19.7495 4.1288 18.8493 3.21128 17.7651C2.4064 16.814 1.82354 15.6516 1.51206 14.6001L1.39487 14.1567C1.13924 13.0432 2.08069 12.2495 3.00034 12.2495H10.2503V11.2495H6.00034C5.65545 11.2494 5.36181 11.0156 5.27573 10.6938L5.25132 10.5502V10.5454C5.25112 10.5428 5.25061 10.5389 5.25034 10.5346C5.24979 10.5256 5.2493 10.5126 5.24839 10.4965C5.24652 10.4635 5.2442 10.4151 5.24155 10.3549C5.23624 10.2342 5.22994 10.0613 5.2269 9.84908C5.22084 9.42471 5.22656 8.83662 5.27378 8.18306C5.36536 6.91625 5.62132 5.24628 6.37046 4.09126L6.50815 3.89107C7.22141 2.91334 8.28728 2.27392 9.12925 1.88228C9.58857 1.66864 10.0068 1.51777 10.3109 1.41939C10.4632 1.37011 10.5885 1.33349 10.6771 1.30904C10.7214 1.29682 10.7574 1.28717 10.7826 1.28072C10.7948 1.2776 10.8046 1.27471 10.8119 1.2729C10.8155 1.272 10.8193 1.27151 10.8216 1.27095L10.8246 1.26997H10.8265L10.9105 1.25435ZM3.00034 13.7495C2.92682 13.7495 2.88048 13.78 2.86264 13.7993C2.85827 13.8041 2.85483 13.809 2.85483 13.809C2.85483 13.809 2.85537 13.8145 2.85679 13.8208L2.95249 14.1811C3.20821 15.041 3.69389 16.0141 4.35581 16.7963C5.11486 17.6933 6.02279 18.2495 7.00034 18.2495H17.0003C17.9778 18.2494 18.8859 17.6932 19.6449 16.7963C20.4012 15.9025 20.9282 14.7595 21.1439 13.8208L21.1458 13.809C21.1465 13.8113 21.1458 13.8077 21.138 13.7993C21.1203 13.7801 21.074 13.7495 21.0003 13.7495H3.00034ZM10.2503 3.03365C10.0975 3.09378 9.93286 3.16319 9.76206 3.24263C9.00772 3.59351 8.21559 4.09958 7.72397 4.77095L7.62925 4.90767C7.10351 5.71822 6.85964 7.04903 6.76987 8.29048C6.72931 8.85176 6.72307 9.36383 6.7269 9.74947H10.2503V3.03365Z" fill="#363538"/>
</svg>
