<svg width="24" height="24" viewBox="0 0 24 24" fill="none" xmlns="http://www.w3.org/2000/svg">
<path d="M16.0303 11.4697C15.7374 11.1768 15.2626 11.1768 14.9697 11.4697C14.6768 11.7626 14.6768 12.2374 14.9697 12.5303C15.1348 12.6955 15.3404 13.0089 15.3972 13.358C15.4465 13.6606 15.3968 14.0425 14.9697 14.4697C14.6768 14.7626 14.6768 15.2374 14.9697 15.5303C15.2626 15.8232 15.7374 15.8232 16.0303 15.5303C16.8032 14.7575 17.0035 13.8894 16.8778 13.117C16.7596 12.3911 16.3652 11.8045 16.0303 11.4697Z" fill="#363538"/>
<path fill-rule="evenodd" clip-rule="evenodd" d="M18.5 3.25C18.9142 3.25 19.25 3.58579 19.25 4C19.25 4.28498 19.1209 4.51503 19.032 4.64678C18.9295 4.79887 18.7976 4.94063 18.6558 5.06726C18.3704 5.322 17.9855 5.56855 17.5385 5.7548C16.642 6.12832 15.407 6.29199 14.1646 5.6708C13.8682 5.52262 13.6723 5.5083 13.5533 5.52357C13.436 5.53861 13.328 5.59063 13.2196 5.69011C13.1154 5.78564 13.0239 5.91403 12.9481 6.05559C16.9195 6.5245 20 9.9025 20 14C20 18.4183 16.4183 22 12 22C7.58172 22 4 18.4183 4 14C4 9.8017 7.23395 6.35873 11.3466 6.0263C11.4866 5.5611 11.7533 4.99968 12.2054 4.58485C12.5012 4.31349 12.8869 4.09676 13.3624 4.03576C13.8361 3.97499 14.3318 4.07733 14.8354 4.32916C15.593 4.70796 16.358 4.62165 16.9615 4.37018C17.2645 4.24393 17.5046 4.08424 17.6567 3.94835C17.7109 3.90004 17.7467 3.86115 17.7683 3.83476C17.8435 3.50005 18.1426 3.25 18.5 3.25ZM17.7953 3.79665C17.7953 3.79665 17.7939 3.79973 17.7897 3.80617C17.7929 3.79992 17.7953 3.79665 17.7953 3.79665ZM12 20.5C15.5899 20.5 18.5 17.5899 18.5 14C18.5 10.4101 15.5899 7.5 12 7.5C8.41015 7.5 5.5 10.4101 5.5 14C5.5 17.5899 8.41015 20.5 12 20.5Z" fill="#363538"/>
</svg>
