<svg width="24" height="24" viewBox="0 0 24 24" fill="none" xmlns="http://www.w3.org/2000/svg">
<path fill-rule="evenodd" clip-rule="evenodd" d="M15 2.25C15.4142 2.25 15.75 2.58579 15.75 3V6.70312C15.75 7.08539 15.8601 7.48825 16.043 7.92285C16.1099 8.08177 16.1734 8.25051 16.2324 8.42578L16.2334 8.42676C16.2395 8.43183 16.2466 8.43812 16.2549 8.44531C16.2717 8.45989 16.2934 8.47844 16.3184 8.50195C16.3682 8.54898 16.4331 8.61459 16.5078 8.69922C16.6571 8.86848 16.8454 9.11547 17.0303 9.44824C17.4028 10.1187 17.75 11.1187 17.75 12.5C17.75 13.8533 17.4788 14.8323 17.1855 15.4922C17.0395 15.8208 16.8891 16.0666 16.7686 16.2373C16.7085 16.3224 16.6563 16.389 16.6152 16.4375C16.5947 16.4618 16.5768 16.4816 16.5625 16.4971C16.5555 16.5046 16.5492 16.5111 16.5439 16.5166L16.5312 16.5293L16.501 16.499L16.5 16.5L16.5303 16.5303C16.5175 16.5431 16.5037 16.5547 16.4902 16.5664C16.4113 17.1266 16.2382 17.6718 16.043 18.1357C15.8601 18.5703 15.75 18.9732 15.75 19.3555V21.0586C15.75 21.4728 15.4142 21.8086 15 21.8086C14.5858 21.8086 14.25 21.4728 14.25 21.0586V19.3555C14.25 18.6938 14.4381 18.0813 14.6602 17.5537C14.8896 17.0087 15.0439 16.4198 15.0361 15.9219C15.0289 15.4632 14.8905 15.1591 14.6201 14.9609C14.3813 14.8491 14.2318 14.841 14.1348 14.8535C14.0199 14.8683 13.8948 14.9194 13.7178 15.0332C13.6276 15.0912 13.5394 15.1549 13.4297 15.2334C13.3264 15.3072 13.2018 15.3952 13.0703 15.4756C12.8051 15.6376 12.447 15.8086 12 15.8086C11.5212 15.8086 11.1473 15.596 10.8887 15.4141C10.7584 15.3224 10.6344 15.2219 10.5332 15.1396C10.4252 15.0518 10.3387 14.9809 10.252 14.9189C10.0786 14.7951 9.97472 14.7577 9.89648 14.751C9.83274 14.7456 9.68692 14.752 9.41602 14.9326C9.1207 15.1296 8.97139 15.4425 8.96387 15.9219C8.95614 16.4198 9.11044 17.0087 9.33984 17.5537C9.5619 18.0813 9.75 18.6937 9.75 19.3555V21.0586C9.75 21.4728 9.41421 21.8086 9 21.8086C8.58585 21.8085 8.25 21.4728 8.25 21.0586V19.3555C8.25 18.9732 8.13994 18.5704 7.95703 18.1357C7.76129 17.6707 7.58749 17.1241 7.50879 16.5625C7.48453 16.5413 7.45924 16.5208 7.4375 16.4961L7.38965 16.4355L7.38867 16.4346L7.38672 16.4316C7.38543 16.4298 7.3836 16.4273 7.38184 16.4248C7.37833 16.4198 7.37441 16.413 7.36914 16.4053C7.35856 16.3897 7.3441 16.369 7.32715 16.3428C7.293 16.2898 7.24636 16.2146 7.19238 16.1201C7.08462 15.9315 6.94457 15.6616 6.80566 15.3213C6.52813 14.6413 6.25 13.6689 6.25 12.5C6.25 11.3008 6.6068 10.3086 6.95703 9.62207C7.13275 9.27767 7.30915 9.00469 7.44434 8.81543C7.51191 8.72083 7.56972 8.64657 7.6123 8.59375C7.63363 8.5673 7.65183 8.54581 7.66504 8.53027C7.67133 8.52287 7.67643 8.51657 7.68066 8.51172C7.68278 8.50929 7.68497 8.50665 7.68652 8.50488C7.68731 8.50399 7.68784 8.50267 7.68848 8.50195L7.68945 8.50098C7.69044 8.50173 7.6972 8.50657 7.73145 8.53711L7.69043 8.5C7.71428 8.47331 7.74002 8.44922 7.7666 8.42676C7.82578 8.25107 7.89 8.08212 7.95703 7.92285C8.13994 7.48823 8.25 7.08541 8.25 6.70312V3C8.25 2.58583 8.58585 2.25007 9 2.25C9.41421 2.25 9.75 2.58579 9.75 3V6.70312C9.75 7.36485 9.5619 7.97725 9.33984 8.50488C9.11044 9.04993 8.95614 9.63879 8.96387 10.1367C8.97139 10.6161 9.1207 10.929 9.41602 11.126C9.68692 11.3066 9.83274 11.313 9.89648 11.3076C9.97472 11.3009 10.0786 11.2635 10.252 11.1396C10.3387 11.0777 10.4252 11.0068 10.5332 10.9189C10.6344 10.8367 10.7584 10.7362 10.8887 10.6445C11.1473 10.4625 11.5212 10.25 12 10.25C12.447 10.25 12.8051 10.421 13.0703 10.583C13.2018 10.6634 13.3264 10.7514 13.4297 10.8252C13.5394 10.9037 13.6276 10.9674 13.7178 11.0254C13.8948 11.1392 14.0199 11.1903 14.1348 11.2051C14.2318 11.2175 14.3813 11.2095 14.6201 11.0977C14.8905 10.8995 15.0289 10.5953 15.0361 10.1367C15.0439 9.63879 14.8896 9.04993 14.6602 8.50488C14.4381 7.97726 14.25 7.36483 14.25 6.70312V3C14.25 2.58579 14.5858 2.25 15 2.25ZM16.1758 11.5645C16.0014 11.8687 15.7558 12.1475 15.416 12.374C15.3901 12.3913 15.3628 12.407 15.335 12.4209C14.8492 12.6637 14.3874 12.7504 13.9434 12.6934C13.5115 12.6378 13.1677 12.4545 12.9072 12.2871C12.7788 12.2045 12.6556 12.1157 12.5566 12.0449C12.4512 11.9695 12.3684 11.9108 12.2891 11.8623C12.1324 11.7666 12.0529 11.75 12 11.75C11.9788 11.75 11.9152 11.7562 11.752 11.8711C11.6713 11.9278 11.5873 11.9954 11.4795 12.083C11.3788 12.1649 11.2547 12.2663 11.123 12.3604C10.859 12.5489 10.4936 12.7615 10.0254 12.8018C9.54207 12.8432 9.06236 12.693 8.58398 12.374C8.25563 12.1551 8.01409 11.888 7.84082 11.5957C7.78457 11.8767 7.75 12.1792 7.75 12.5C7.75 13.1597 7.86275 13.7422 8.00684 14.2197C8.15969 14.0226 8.34936 13.841 8.58398 13.6846C9.06236 13.3656 9.54207 13.2154 10.0254 13.2568C10.4936 13.2971 10.859 13.5097 11.123 13.6982C11.2547 13.7923 11.3788 13.8937 11.4795 13.9756C11.5873 14.0632 11.6713 14.1308 11.752 14.1875C11.9152 14.3024 11.9788 14.3086 12 14.3086C12.0529 14.3086 12.1324 14.292 12.2891 14.1963C12.3684 14.1478 12.4512 14.0891 12.5566 14.0137C12.6556 13.9429 12.7788 13.8541 12.9072 13.7715C13.1677 13.6041 13.5115 13.4208 13.9434 13.3652C14.3874 13.3081 14.8492 13.3949 15.335 13.6377C15.3628 13.6516 15.3901 13.6673 15.416 13.6846C15.6699 13.8539 15.8715 14.0523 16.0303 14.2686C16.1534 13.8228 16.25 13.2398 16.25 12.5C16.25 12.1533 16.2201 11.8425 16.1758 11.5645Z" fill="#363538"/>
</svg>
