<svg width="24" height="24" viewBox="0 0 24 24" fill="none" xmlns="http://www.w3.org/2000/svg">
<path fill-rule="evenodd" clip-rule="evenodd" d="M12.5 3C11.6716 3 11 3.67157 11 4.5V19.5C11 20.3284 11.6716 21 12.5 21H14.5C15.3284 21 16 20.3284 16 19.5V4.5C16 3.67157 15.3284 3 14.5 3H12.5ZM14.5 4.5L12.5 4.5V19.5H14.5V4.5Z" fill="#363538"/>
<path fill-rule="evenodd" clip-rule="evenodd" d="M7.77089 3.05148C6.97069 2.83707 6.14818 3.31194 5.93377 4.11214L2.05148 18.601C1.83707 19.4012 2.31194 20.2237 3.11214 20.4381L5.044 20.9558C5.84419 21.1702 6.6667 20.6953 6.88111 19.8951L10.7634 5.40624C10.9778 4.60604 10.5029 3.78353 9.70274 3.56912L7.77089 3.05148ZM9.31451 5.01801L7.38266 4.50037L3.50037 18.9893L5.43222 19.5069L9.31451 5.01801Z" fill="#363538"/>
<path fill-rule="evenodd" clip-rule="evenodd" d="M17 4.5C17 3.67157 17.6716 3 18.5 3H20.5C21.3284 3 22 3.67157 22 4.5V19.5C22 20.3284 21.3284 21 20.5 21H18.5C17.6716 21 17 20.3284 17 19.5V4.5ZM18.5 4.5L20.5 4.5V19.5H18.5V4.5Z" fill="#363538"/>
</svg>
