<svg width="24" height="24" viewBox="0 0 24 24" fill="none" xmlns="http://www.w3.org/2000/svg">
<path d="M15.1989 8.90036C15.1158 9.30616 14.7195 9.56781 14.3137 9.48477C13.798 9.37924 12.9686 9.37331 12.0824 9.42586C11.2164 9.47722 10.3707 9.57918 9.86293 9.65651C9.45343 9.71888 9.07092 9.43748 9.00855 9.02799C8.94618 8.6185 9.22758 8.23598 9.63707 8.17361C10.1843 8.09026 11.0761 7.9829 11.9936 7.92849C12.8909 7.87529 13.8909 7.86717 14.6145 8.01523C15.0203 8.09827 15.2819 8.49456 15.1989 8.90036Z" fill="#363538"/>
<path d="M14.3137 12.4848C14.7195 12.5678 15.1158 12.3062 15.1989 11.9004C15.2819 11.4946 15.0203 11.0983 14.6145 11.0152C13.8909 10.8672 12.8909 10.8753 11.9936 10.9285C11.0761 10.9829 10.1843 11.0903 9.63707 11.1736C9.22758 11.236 8.94618 11.6185 9.00855 12.028C9.07092 12.4375 9.45343 12.7189 9.86293 12.6565C10.3707 12.5792 11.2164 12.4772 12.0824 12.4259C12.9686 12.3733 13.798 12.3792 14.3137 12.4848Z" fill="#363538"/>
<path fill-rule="evenodd" clip-rule="evenodd" d="M18.5609 16.2478L18.556 16.2536C18.5508 16.2595 18.5423 16.2694 18.531 16.2828C18.5084 16.3098 18.4746 16.3507 18.4334 16.4032C18.3504 16.5088 18.2405 16.6568 18.1318 16.8267C17.8896 17.2053 17.75 17.5461 17.75 17.75C17.75 17.9539 17.8896 18.2947 18.1318 18.6733C18.2405 18.8432 18.3504 18.9912 18.4334 19.0968C18.4746 19.1493 18.5084 19.1902 18.531 19.2172C18.5367 19.2239 18.5416 19.2297 18.5457 19.2345C18.5499 19.2395 18.5534 19.2434 18.556 19.2464L18.5609 19.2522C18.7568 19.473 18.8051 19.7883 18.6841 20.0575C18.563 20.3268 18.2952 20.5 18 20.5H8C6.48122 20.5 5.25 19.2688 5.25 17.75V6.24766C5.25 4.72774 6.48236 3.5 8 3.5H16C17.5188 3.5 18.75 4.73122 18.75 6.25V15.75C18.75 15.9334 18.6826 16.1106 18.5609 16.2478ZM8 5C7.3085 5 6.75 5.55845 6.75 6.24766V15H17.25V6.25C17.25 5.55964 16.6904 5 16 5H8ZM16.5922 19C16.4095 18.6361 16.25 18.1953 16.25 17.75C16.25 17.3047 16.4095 16.8639 16.5922 16.5H6.75V17.75C6.75 18.4404 7.30964 19 8 19H16.5922Z" fill="#363538"/>
</svg>
