<svg width="24" height="24" viewBox="0 0 24 24" fill="none" xmlns="http://www.w3.org/2000/svg">
<path fill-rule="evenodd" clip-rule="evenodd" d="M7 3.75C5.75736 3.75 4.75 4.75736 4.75 6V18.1459C4.75 19.0472 5.13562 19.5076 5.4833 19.6615C5.81697 19.8093 6.37694 19.7887 6.99762 19.1578C7.44481 18.7032 7.94763 18.1859 8.51264 17.5974C10.4129 15.6181 13.5871 15.6181 15.4874 17.5974C16.0524 18.1859 16.5552 18.7032 17.0024 19.1578C17.6231 19.7887 18.183 19.8093 18.5167 19.6615C18.8644 19.5076 19.25 19.0472 19.25 18.1459V6C19.25 4.75736 18.2426 3.75 17 3.75H7ZM3.25 6C3.25 3.92893 4.92893 2.25 7 2.25H17C19.0711 2.25 20.75 3.92893 20.75 6V18.1459C20.75 19.4748 20.1514 20.5782 19.124 21.0331C18.0825 21.4942 16.8763 21.1686 15.933 20.2097C15.4812 19.7503 14.9741 19.2286 14.4053 18.6362C13.0954 17.2718 10.9046 17.2718 9.59467 18.6362C9.02592 19.2286 8.51885 19.7503 8.06697 20.2097C7.12371 21.1686 5.91754 21.4942 4.87604 21.0331C3.84856 20.5782 3.25 19.4748 3.25 18.1459V6Z" fill="#363538"/>
</svg>
