<svg width="24" height="24" viewBox="0 0 24 24" fill="none" xmlns="http://www.w3.org/2000/svg">
<path d="M5.745 4.62012C5.13723 4.62012 4.62 5.12644 4.62 5.78158V14.3775C4.62 14.882 4.82737 15.0566 4.91583 15.0966C4.98461 15.1276 5.20863 15.1779 5.53797 14.8366C5.81661 14.5478 6.1301 14.219 6.48254 13.8448C7.13218 13.155 8.00109 12.8101 8.87 12.8101V14.3101C8.39903 14.3101 7.92806 14.4978 7.57452 14.8732C7.21836 15.2514 6.90067 15.5846 6.61739 15.8781C5.96927 16.5498 5.08944 16.8206 4.29875 16.4638C3.52773 16.1158 3.12 15.294 3.12 14.3775V5.78158C3.12 4.32538 4.2817 3.12012 5.745 3.12012H11.995C13.4583 3.12012 14.62 4.32538 14.62 5.78158V6.87012H13.12V5.78158C13.12 5.12644 12.6028 4.62012 11.995 4.62012H5.745Z" fill="#363538"/>
<path fill-rule="evenodd" clip-rule="evenodd" d="M12.745 8.12012C11.2817 8.12012 10.12 9.32538 10.12 10.7816V19.3775C10.12 20.294 10.5277 21.1158 11.2987 21.4638C12.0894 21.8206 12.9693 21.5498 13.6174 20.8781C13.9007 20.5846 14.2184 20.2514 14.5745 19.8732C15.2816 19.1224 16.4584 19.1224 17.1655 19.8732C17.5216 20.2514 17.8393 20.5846 18.1226 20.8781C18.7707 21.5498 19.6505 21.8206 20.4412 21.4638C21.2123 21.1158 21.62 20.294 21.62 19.3775V10.7816C21.62 9.32538 20.4583 8.12012 18.995 8.12012H12.745ZM11.62 10.7816C11.62 10.1264 12.1372 9.62012 12.745 9.62012H18.995C19.6028 9.62012 20.12 10.1264 20.12 10.7816V19.3775C20.12 19.882 19.9126 20.0566 19.8242 20.0966C19.7554 20.1276 19.5314 20.1779 19.202 19.8366C18.9234 19.5478 18.6099 19.219 18.2575 18.8448C16.9582 17.4652 14.7818 17.4652 13.4825 18.8448C13.1301 19.219 12.8166 19.5478 12.538 19.8366C12.2086 20.1779 11.9846 20.1276 11.9158 20.0966C11.8274 20.0566 11.62 19.882 11.62 19.3775V10.7816Z" fill="#363538"/>
</svg>
