<svg width="24" height="24" viewBox="0 0 24 24" fill="none" xmlns="http://www.w3.org/2000/svg">
<path d="M14.25 2.5C14.6642 2.5 15 2.83579 15 3.25C15 3.66421 14.6642 4 14.25 4H7C5.75736 4 4.75 5.00736 4.75 6.25V18.3959C4.75 19.2972 5.13562 19.7576 5.4833 19.9115C5.81697 20.0593 6.37694 20.0387 6.99762 19.4078C7.44481 18.9532 7.94763 18.4359 8.51264 17.8474C10.4129 15.8681 13.5871 15.8681 15.4874 17.8474C16.0524 18.4359 16.5552 18.9532 17.0024 19.4078C17.6231 20.0387 18.183 20.0593 18.5167 19.9115C18.8644 19.7576 19.25 19.2972 19.25 18.3959V11C19.25 10.5858 19.5858 10.25 20 10.25C20.4142 10.25 20.75 10.5858 20.75 11V18.3959C20.75 19.7248 20.1514 20.8282 19.124 21.2831C18.0825 21.7442 16.8763 21.4186 15.933 20.4597C15.4812 20.0003 14.9741 19.4786 14.4053 18.8862C13.0954 17.5218 10.9046 17.5218 9.59467 18.8862C9.02592 19.4786 8.51885 20.0003 8.06697 20.4597C7.12371 21.4186 5.91754 21.7442 4.87604 21.2831C3.84856 20.8282 3.25 19.7248 3.25 18.3959V6.25C3.25 4.17893 4.92893 2.5 7 2.5H14.25Z" fill="#363538"/>
<path d="M19.75 3.25C19.75 2.83579 19.4142 2.5 19 2.5C18.5858 2.5 18.25 2.83579 18.25 3.25V4.5H17C16.5858 4.5 16.25 4.83579 16.25 5.25C16.25 5.66421 16.5858 6 17 6H18.25V7.25C18.25 7.66421 18.5858 8 19 8C19.4142 8 19.75 7.66421 19.75 7.25V6H21C21.4142 6 21.75 5.66421 21.75 5.25C21.75 4.83579 21.4142 4.5 21 4.5H19.75V3.25Z" fill="#363538"/>
</svg>
