<svg width="24" height="24" viewBox="0 0 24 24" fill="none" xmlns="http://www.w3.org/2000/svg">
<path fill-rule="evenodd" clip-rule="evenodd" d="M11.5685 6.24617C11.7704 5.91794 12.2296 5.91794 12.4315 6.24617L13.4654 7.92768C13.5348 8.04062 13.6424 8.1222 13.7666 8.15629L15.6171 8.66386C15.9783 8.76293 16.1202 9.2192 15.8838 9.52113L14.6723 11.0679C14.5909 11.1718 14.5499 11.3038 14.5572 11.4378L14.667 13.433C14.6884 13.8225 14.3168 14.1045 13.9688 13.9629L12.1862 13.2373C12.0664 13.1886 11.9336 13.1886 11.8138 13.2373L10.0312 13.9629C9.68319 14.1045 9.31163 13.8225 9.33305 13.433L9.44275 11.4378C9.45012 11.3038 9.40906 11.1718 9.3277 11.0679L8.11624 9.52113C7.87977 9.2192 8.02169 8.76293 8.3829 8.66386L10.2334 8.15629C10.3576 8.1222 10.4652 8.04062 10.5346 7.92768L11.5685 6.24617ZM11.8124 8.71337L12 8.40821L12.1876 8.71337C12.45 9.14002 12.8672 9.465 13.3699 9.60286L13.8181 9.72582L13.4914 10.143C13.1817 10.5385 13.0326 11.0299 13.0595 11.5202L13.085 11.9837L12.7516 11.848C12.2694 11.6517 11.7306 11.6517 11.2484 11.848L10.915 11.9837L10.9405 11.5202C10.9674 11.0299 10.8183 10.5385 10.5086 10.143L10.1819 9.72582L10.6301 9.60286C11.1328 9.465 11.55 9.14002 11.8124 8.71337Z" fill="#363538"/>
<path fill-rule="evenodd" clip-rule="evenodd" d="M7 2.25C4.92893 2.25 3.25 3.92893 3.25 6V18.1459C3.25 19.4748 3.84856 20.5782 4.87604 21.0331C5.91754 21.4942 7.12371 21.1686 8.06697 20.2097C8.51885 19.7503 9.02592 19.2286 9.59467 18.6362C10.9046 17.2718 13.0954 17.2718 14.4053 18.6362C14.9741 19.2286 15.4812 19.7503 15.933 20.2097C16.8763 21.1686 18.0825 21.4942 19.124 21.0331C20.1514 20.5782 20.75 19.4748 20.75 18.1459V6C20.75 3.92893 19.0711 2.25 17 2.25H7ZM4.75 6C4.75 4.75736 5.75736 3.75 7 3.75H17C18.2426 3.75 19.25 4.75736 19.25 6V18.1459C19.25 19.0472 18.8644 19.5076 18.5167 19.6615C18.183 19.8093 17.6231 19.7887 17.0024 19.1578C16.5552 18.7032 16.0524 18.1859 15.4874 17.5974C13.5871 15.6181 10.4129 15.6181 8.51264 17.5974C7.94763 18.1859 7.44481 18.7032 6.99762 19.1578C6.37694 19.7887 5.81697 19.8093 5.4833 19.6615C5.13562 19.5076 4.75 19.0472 4.75 18.1459V6Z" fill="#363538"/>
</svg>
