<svg width="24" height="24" viewBox="0 0 24 24" fill="none" xmlns="http://www.w3.org/2000/svg">
<path fill-rule="evenodd" clip-rule="evenodd" d="M11.7537 2.00049C11.0633 2.00049 10.5035 2.56022 10.5035 3.2507V11.7385C10.5033 11.7491 10.5033 11.7597 10.5035 11.7703V12.6843L8.7961 12.0634C6.82947 11.3483 4.6265 12.0039 3.37093 13.678L2.95033 14.2388C2.33346 15.0613 2 16.0616 2 17.0898V19.2573C2 20.7766 3.23159 22.0082 4.75083 22.0082H18.4722C20.1358 22.0082 21.4187 20.5429 21.1989 18.8938L20.5071 13.7053V3.2507C20.5071 2.56023 19.9473 2.00049 19.2568 2.00049H11.7537ZM12.0035 12.3909V13.0409C12.0035 13.9085 11.1414 14.5123 10.3261 14.2158L8.28349 13.4731C6.93768 12.9837 5.43014 13.4324 4.57093 14.578L4.15033 15.1388C3.72819 15.7016 3.5 16.3862 3.5 17.0898V19.2573C3.5 19.9481 4.06002 20.5082 4.75083 20.5082H18.4722C19.2286 20.5082 19.812 19.8419 19.712 19.092L19.0136 13.8542C19.0093 13.8213 19.0071 13.7882 19.0071 13.7551V3.50049H12.0035V10.8908C12.332 10.8943 12.6822 10.9434 13.0228 11.047C13.804 11.2847 14.6154 11.835 15.0289 12.8776C15.1816 13.2627 14.9933 13.6986 14.6083 13.8513C14.2232 14.004 13.7873 13.8157 13.6346 13.4306C13.4222 12.8951 13.0234 12.6151 12.5863 12.4821C12.3776 12.4186 12.1761 12.3938 12.0035 12.3909Z" fill="#363538"/>
</svg>
