<svg width="24" height="24" viewBox="0 0 24 24" fill="none" xmlns="http://www.w3.org/2000/svg">
<path d="M18 20.25C18.4142 20.25 18.75 20.5858 18.75 21C18.75 21.4142 18.4142 21.75 18 21.75L5 21.75C3.48122 21.75 2.25 20.5188 2.25 19L2.25 5C2.25 3.48122 3.48122 2.25 5 2.25L18 2.25C18.4142 2.25 18.75 2.58579 18.75 3C18.75 3.41422 18.4142 3.75 18 3.75L5 3.75C4.30965 3.75 3.75 4.30964 3.75 5L3.75 19C3.75 19.6904 4.30964 20.25 5 20.25L18 20.25Z" fill="#363538"/>
<path d="M21.75 21C21.75 21.4142 21.4142 21.75 21 21.75C20.5858 21.75 20.25 21.4142 20.25 21L20.25 3C20.25 2.58579 20.5858 2.25 21 2.25C21.4142 2.25 21.75 2.58579 21.75 3L21.75 21Z" fill="#363538"/>
</svg>
