<svg width="24" height="24" viewBox="0 0 24 24" fill="none" xmlns="http://www.w3.org/2000/svg">
<path fill-rule="evenodd" clip-rule="evenodd" d="M21 18.75C21.4142 18.75 21.75 18.4142 21.75 18L21.75 6C21.75 5.58579 21.4142 5.25 21 5.25C20.5858 5.25 20.25 5.58579 20.25 6L20.25 18C20.25 18.4142 20.5858 18.75 21 18.75ZM18.75 21C18.75 20.5858 18.4142 20.25 18 20.25L6 20.25C5.58579 20.25 5.25 20.5858 5.25 21C5.25 21.4142 5.58579 21.75 6 21.75L18 21.75C18.4142 21.75 18.75 21.4142 18.75 21ZM18.75 3C18.75 2.58578 18.4142 2.25 18 2.25L6 2.25C5.58579 2.25 5.25 2.58578 5.25 3C5.25 3.41421 5.58579 3.75 6 3.75L18 3.75C18.4142 3.75 18.75 3.41421 18.75 3ZM3 18.75C3.41421 18.75 3.75 18.4142 3.75 18L3.75 6C3.75 5.58579 3.41421 5.25 3 5.25C2.58579 5.25 2.25 5.58579 2.25 6L2.25 18C2.25 18.4142 2.58579 18.75 3 18.75Z" fill="#363538"/>
</svg>
