<svg width="24" height="24" viewBox="0 0 24 24" fill="none" xmlns="http://www.w3.org/2000/svg">
<path d="M3.75 18C3.75 18.4142 3.41421 18.75 3 18.75C2.58579 18.75 2.25 18.4142 2.25 18V5C2.25 3.48122 3.48122 2.25 5 2.25H19C20.5188 2.25 21.75 3.48122 21.75 5V18C21.75 18.4142 21.4142 18.75 21 18.75C20.5858 18.75 20.25 18.4142 20.25 18V5C20.25 4.30964 19.6904 3.75 19 3.75H5C4.30964 3.75 3.75 4.30964 3.75 5V18Z" fill="#363538"/>
<path d="M3 21.75C2.58579 21.75 2.25 21.4142 2.25 21C2.25 20.5858 2.58579 20.25 3 20.25H21C21.4142 20.25 21.75 20.5858 21.75 21C21.75 21.4142 21.4142 21.75 21 21.75H3Z" fill="#363538"/>
</svg>
