<svg width="24" height="24" viewBox="0 0 24 24" fill="none" xmlns="http://www.w3.org/2000/svg">
<path d="M3 2.25C2.58579 2.25 2.25 2.58579 2.25 3C2.25 3.41421 2.58579 3.75 3 3.75H21C21.4142 3.75 21.75 3.41421 21.75 3C21.75 2.58579 21.4142 2.25 21 2.25H3Z" fill="#363538"/>
<path d="M3.75 6C3.75 5.58579 3.41421 5.25 3 5.25C2.58579 5.25 2.25 5.58579 2.25 6V19C2.25 20.5188 3.48122 21.75 5 21.75H19C20.5188 21.75 21.75 20.5188 21.75 19V6C21.75 5.58579 21.4142 5.25 21 5.25C20.5858 5.25 20.25 5.58579 20.25 6V19C20.25 19.6904 19.6904 20.25 19 20.25H5C4.30964 20.25 3.75 19.6904 3.75 19V6Z" fill="#363538"/>
</svg>
