<svg width="24" height="24" viewBox="0 0 24 24" fill="none" xmlns="http://www.w3.org/2000/svg">
<path fill-rule="evenodd" clip-rule="evenodd" d="M13.2143 8.76717C12.4505 9.33297 12 10.2273 12 11.1778V19C12 20.6569 13.3431 22 15 22H19C20.6569 22 22 20.6569 22 19V11.0139C22 10.157 21.6336 9.34094 20.9931 8.77164L20.5069 8.33947C19.8664 7.77017 19.5 6.95416 19.5 6.09725V4C19.5 2.89543 18.6046 2 17.5 2H17C15.8954 2 15 2.89543 15 4V6C15 6.90858 14.5694 7.7634 13.8393 8.30422L13.2143 8.76717ZM14.7321 9.50955L14.1072 9.97251C13.7252 10.2554 13.5 10.7026 13.5 11.1778V19C13.5 19.8284 14.1716 20.5 15 20.5H19C19.8284 20.5 20.5 19.8284 20.5 19V11.0139C20.5 10.5854 20.3168 10.1774 19.9965 9.89275L19.5104 9.46059C18.714 8.75273 18.2001 7.79059 18.0476 6.75H16.4352C16.2443 7.84492 15.6404 8.83677 14.7321 9.50955ZM18 4V5.25H16.5V4C16.5 3.72386 16.7239 3.5 17 3.5H17.5C17.7761 3.5 18 3.72386 18 4Z" fill="#363538"/>
<path fill-rule="evenodd" clip-rule="evenodd" d="M2.92515 20.2236L2.25015 14.2236C2.11677 13.0379 3.0445 12 4.23762 12H8.76238C9.9555 12 10.8832 13.0379 10.7498 14.2236L10.0748 20.2236C9.96103 21.2353 9.10543 22 8.08738 22H4.91262C3.89457 22 3.03897 21.2353 2.92515 20.2236ZM4.41575 20.0559L3.74075 14.0559C3.7074 13.7595 3.93934 13.5 4.23762 13.5H8.76238C9.06066 13.5 9.2926 13.7595 9.25925 14.0559L8.58425 20.0559C8.5558 20.3088 8.3419 20.5 8.08738 20.5H4.91262C4.6581 20.5 4.4442 20.3088 4.41575 20.0559Z" fill="#363538"/>
</svg>
