<svg width="24" height="24" viewBox="0 0 24 24" fill="none" xmlns="http://www.w3.org/2000/svg">
<path fill-rule="evenodd" clip-rule="evenodd" d="M14.0001 1.25C14.4142 1.25003 14.7501 1.58581 14.7501 2V11.25H17.6895L18.4698 10.4697L18.584 10.376C18.7063 10.2945 18.8509 10.25 19.0001 10.25H20.0001C20.4142 10.25 20.7501 10.5858 20.7501 11C20.7501 11.4142 20.4142 11.75 20.0001 11.75H19.3106L19.0606 12L19.3106 12.25H20.0001C20.4142 12.25 20.7501 12.5858 20.7501 13C20.7501 13.4142 20.4142 13.75 20.0001 13.75H19.0001C18.8012 13.75 18.6104 13.6709 18.4698 13.5303L17.6895 12.75H14.7501V22C14.7501 22.4142 14.4142 22.75 14.0001 22.75C13.5858 22.75 13.2501 22.4142 13.2501 22C13.2501 21.6151 12.9669 21.0274 12.4698 20.5303C12.1541 20.2146 11.7921 19.9827 11.3116 19.6455C10.8514 19.3226 10.3289 18.9303 9.85553 18.3477C8.96564 17.2524 8.35364 15.6162 8.26373 12.75H4.8106L5.53033 13.4697C5.82319 13.7626 5.82319 14.2374 5.53033 14.5303C5.23745 14.8232 4.76268 14.8231 4.46978 14.5303L2.46978 12.5303C2.17689 12.2374 2.17689 11.7626 2.46978 11.4697L4.46978 9.46973C4.76268 9.17686 5.23745 9.17684 5.53033 9.46973C5.82319 9.76261 5.82319 10.2374 5.53033 10.5303L4.8106 11.25H8.26275C8.35269 8.38384 8.96564 6.74763 9.85553 5.65234C10.3289 5.06972 10.8514 4.6774 11.3116 4.35449C11.7921 4.01727 12.1541 3.78541 12.4698 3.46973C12.9669 2.9726 13.2501 2.3849 13.2501 2C13.2501 1.58579 13.5858 1.25 14.0001 1.25ZM9.76373 12.75C9.85268 15.3947 10.414 16.657 11.0196 17.4023C11.3586 17.8195 11.7426 18.115 12.1729 18.417C12.4975 18.6448 12.8865 18.9002 13.2501 19.2119V12.75H9.76373ZM13.2501 4.78711C12.8864 5.09898 12.4976 5.35514 12.1729 5.58301C11.7426 5.88498 11.3586 6.18048 11.0196 6.59766C10.414 7.34298 9.85267 8.6053 9.76373 11.25H13.2501V4.78711Z" fill="#363538"/>
</svg>
