<svg width="24" height="24" viewBox="0 0 24 24" fill="none" xmlns="http://www.w3.org/2000/svg">
<path fill-rule="evenodd" clip-rule="evenodd" d="M18.6959 4.04311C19.5422 4.11161 20.3088 4.56874 20.9693 5.38296L21.1001 5.54995L21.1431 5.6144C22.3671 7.65461 21.6398 9.91693 20.9459 11.0001C21.6398 12.0834 22.3671 14.3457 21.1431 16.3859C21.1299 16.408 21.1156 16.4298 21.1001 16.4503C20.4108 17.3695 19.5986 17.8841 18.6959 17.9572C17.8186 18.0279 17.0136 17.6675 16.3462 17.1818C15.6856 16.7008 15.0848 16.04 14.5718 15.3498C14.6476 15.6964 14.7334 16.0547 14.8335 16.4083C15.1406 17.4926 15.5275 18.3985 15.9459 18.8791L16.0298 18.9699L16.0816 19.0265C16.3219 19.3211 16.3044 19.7558 16.0298 20.0304C15.7552 20.3049 15.3205 20.3224 15.0259 20.0822L14.9693 20.0304L14.8316 19.8839C14.1583 19.1199 13.7002 17.9115 13.3902 16.8166C13.1336 15.9103 12.9533 14.9854 12.8423 14.2492L12.8306 14.1662C12.5697 14.2156 12.2875 14.2501 11.9996 14.2501C11.9089 14.2501 11.819 14.2455 11.73 14.2394C11.6948 14.9686 11.6074 15.8699 11.4361 16.755C11.3181 17.3646 11.1568 17.9838 10.938 18.5412C10.7223 19.0908 10.4321 19.6282 10.0298 20.0304C9.73693 20.3232 9.26214 20.3233 8.96929 20.0304C8.67673 19.7375 8.67663 19.2627 8.96929 18.9699C9.16702 18.7721 9.36452 18.4468 9.54253 17.9933C9.71746 17.5476 9.85643 17.0227 9.96343 16.4699C10.1228 15.6462 10.2041 14.7983 10.2349 14.1251C9.60475 15.1987 8.70461 16.4169 7.65386 17.1818C6.9863 17.6676 6.18085 18.0282 5.30327 17.9572C4.40074 17.884 3.58919 17.3692 2.89995 16.4503C2.88456 16.4298 2.86921 16.4079 2.85601 16.3859C1.6326 14.3462 2.35851 12.0835 3.0523 11.0001C2.35853 9.91663 1.63249 7.65402 2.85601 5.6144L2.89995 5.54995C3.5892 4.63109 4.40073 4.11628 5.30327 4.04311C6.18079 3.97214 6.98633 4.3327 7.65386 4.8185C8.7638 5.62643 9.70847 6.93891 10.3414 8.05386C10.3564 8.04873 10.3719 8.04336 10.3873 8.03823C10.7995 7.90079 11.3863 7.75025 11.9996 7.75014C12.6128 7.75011 13.1994 7.9008 13.6119 8.03823C13.6269 8.04324 13.6421 8.04884 13.6568 8.05386C14.2896 6.93876 15.2361 5.62666 16.3462 4.8185C17.0136 4.33283 17.8186 3.97239 18.6959 4.04311ZM5.42437 5.53823C5.07179 5.56688 4.62548 5.76292 4.12554 6.41616C3.33033 7.77621 3.79572 9.38648 4.32183 10.2003C4.63209 10.6801 4.63209 11.3202 4.32183 11.7999C3.79578 12.6136 3.33103 14.2232 4.12554 15.5832C4.62566 16.2369 5.07168 16.4334 5.42437 16.4621C5.80807 16.493 6.25962 16.3411 6.77105 15.9689C7.76163 15.2478 8.67911 13.9131 9.24956 12.8146V9.18471C8.67907 8.08643 7.76133 6.75223 6.77105 6.03139C6.25968 5.65926 5.80803 5.50725 5.42437 5.53823ZM18.5757 5.53823C18.1921 5.50733 17.7403 5.6593 17.2291 6.03139C16.2387 6.75236 15.32 8.08636 14.7496 9.18471V12.8146C15.32 13.913 16.2386 15.2477 17.2291 15.9689C17.7403 16.341 18.1921 16.493 18.5757 16.4621C18.9288 16.4334 19.3738 16.2356 19.8746 15.5802C20.6673 14.2206 20.2031 12.613 19.6773 11.7999C19.3672 11.3203 19.3672 10.68 19.6773 10.2003L19.7759 10.0373C20.2571 9.18513 20.6179 7.69307 19.8746 6.41909C19.3741 5.76436 18.9286 5.56693 18.5757 5.53823ZM11.9996 9.25014C11.6131 9.25025 11.1992 9.3496 10.8619 9.46206C10.8228 9.4751 10.7853 9.48927 10.7496 9.5021V12.4972C10.7854 12.5101 10.8227 12.5252 10.8619 12.5382C11.1992 12.6507 11.6131 12.7501 11.9996 12.7501C12.3859 12.7501 12.7997 12.6507 13.1373 12.5382C13.1763 12.5252 13.2139 12.511 13.2496 12.4982V9.5021C13.2139 9.48929 13.1763 9.47506 13.1373 9.46206C12.7997 9.3496 12.3859 9.25012 11.9996 9.25014Z" fill="#363538"/>
</svg>
