<svg width="24" height="24" viewBox="0 0 24 24" fill="none" xmlns="http://www.w3.org/2000/svg">
<path d="M8 12C8 11.4477 8.44772 11 9 11C9.55229 11 10 11.4477 10 12C10 12.5523 9.55228 13 9 13C8.44772 13 8 12.5523 8 12Z" fill="#363538"/>
<path d="M9 14C8.44772 14 8 14.4477 8 15C8 15.5523 8.44772 16 9 16C9.55228 16 10 15.5523 10 15C10 14.4477 9.55229 14 9 14Z" fill="#363538"/>
<path d="M10.5 13.25C10.5 12.8358 10.8358 12.5 11.25 12.5C11.6642 12.5 12 12.8358 12 13.25C12 13.6642 11.6642 14 11.25 14C10.8358 14 10.5 13.6642 10.5 13.25Z" fill="#363538"/>
<path fill-rule="evenodd" clip-rule="evenodd" d="M15.0002 1.16211C13.7527 1.16211 12.7864 2.25376 12.9379 3.49207L13.2503 6.0457V6.93259C13.2503 7.1637 13.1857 7.3983 13.0618 7.61262C12.9087 7.87763 12.708 8.23382 12.4878 8.64779C12.4133 8.78793 12.3364 8.93485 12.2583 9.08726C11.292 8.55375 10.1808 8.25 9 8.25C5.27208 8.25 2.25 11.2721 2.25 15C2.25 18.7279 5.27208 21.75 9 21.75C10.0774 21.75 11.0974 21.497 12.0022 21.0471C12.5677 21.527 13.2744 21.8411 14.0304 21.9433C14.3331 21.9842 14.6394 21.9901 14.9433 21.9607L15.8186 21.8762C17.4595 21.7178 18.9497 20.5536 19.2399 18.8288C19.2612 18.7025 19.2819 18.5802 19.302 18.4616L19.3031 18.4549C19.4833 17.3922 19.6135 16.624 19.6316 15.8589C19.6524 14.9828 19.5281 14.1318 19.2314 12.833C18.9125 11.437 18.1183 9.78639 17.5127 8.64779C17.2925 8.23382 17.0918 7.87763 16.9387 7.61262C16.8148 7.3983 16.7503 7.1637 16.7503 6.93259V6.0457L17.0626 3.49207C17.2141 2.25376 16.2478 1.16211 15.0002 1.16211ZM14.7503 6.93259V6.75H15.2503V6.93259C15.2503 7.39894 15.3689 7.84939 15.5778 8.25H14.4227C14.6316 7.84939 14.7503 7.39894 14.7503 6.93259ZM15.5737 3.30996L15.3364 5.25H14.6641L14.4268 3.30996C14.3847 2.96565 14.6534 2.66211 15.0002 2.66211C15.3471 2.66211 15.6158 2.96565 15.5737 3.30996ZM13.6042 9.75H16.3963C16.9438 10.8167 17.5287 12.1148 17.7691 13.167C18.0555 14.4207 18.1484 15.1309 18.132 15.8234C18.1166 16.474 18.0061 17.1279 17.8197 18.2305L17.7607 18.58C17.5993 19.5394 16.7427 20.28 15.6744 20.3832L14.7992 20.4677C14.6101 20.4859 14.4196 20.4823 14.2314 20.4568C13.9132 20.4138 13.6135 20.3119 13.3479 20.1633C14.8158 18.9258 15.75 17.0722 15.75 15C15.75 12.9981 14.8779 11.1998 13.4952 9.96451C13.5317 9.89193 13.5681 9.82038 13.6042 9.75ZM3.75 15C3.75 12.1005 6.1005 9.75 9 9.75C10.167 9.75 11.2431 10.1299 12.1143 10.773C13.4112 11.7304 14.25 13.2672 14.25 15C14.25 16.8942 13.2474 18.5548 11.7403 19.4791C10.9431 19.968 10.0056 20.25 9 20.25C6.1005 20.25 3.75 17.8995 3.75 15Z" fill="#363538"/>
</svg>
