<svg width="24" height="24" viewBox="0 0 24 24" fill="none" xmlns="http://www.w3.org/2000/svg">
<path fill-rule="evenodd" clip-rule="evenodd" d="M9.6932 3.42344C11.1278 2.62643 12.8722 2.62643 14.3068 3.42344L19.3068 6.20121C20.8148 7.03897 21.75 8.62842 21.75 10.3535V14.6462C21.75 16.3713 20.8148 17.9607 19.3068 18.7985L14.3068 21.5763C12.8722 22.3733 11.1278 22.3733 9.69319 21.5763L4.6932 18.7985C3.18524 17.9607 2.25 16.3713 2.25 14.6462V10.3535C2.25 8.62842 3.18524 7.03897 4.6932 6.20121L9.6932 3.42344ZM13.5783 4.73467C12.5968 4.18935 11.4032 4.18935 10.4217 4.73467L9.58408 5.19999L16.0247 9.2305L18.7526 7.61648C18.6958 7.58015 18.6377 7.54545 18.5783 7.51245L13.5783 4.73467ZM19.8157 8.73037L14.3791 11.947L14.377 11.9483C13.8682 12.2532 13.3162 12.4551 12.75 12.5536V20.5863C13.0359 20.5186 13.3148 20.4114 13.5783 20.265L18.5783 17.4872C19.6101 16.914 20.25 15.8265 20.25 14.6462V10.3535C20.25 9.77333 20.0954 9.21562 19.8157 8.73037ZM11.25 12.5744C10.6811 12.4915 10.1235 12.3048 9.60637 12.0139L4.08819 8.90987C3.86939 9.35111 3.75 9.84363 3.75 10.3535V14.6462C3.75 15.8265 4.3899 16.914 5.42166 17.4872L10.4217 20.265C10.6852 20.4114 10.9641 20.5186 11.25 20.5863V12.5744ZM5.06799 7.73999L10.3418 10.7066C11.3595 11.2791 12.6061 11.2616 13.6073 10.6608L13.6113 10.6584L14.5713 10.0905L8.08622 6.03214L5.42166 7.51245C5.298 7.58115 5.17997 7.65724 5.06799 7.73999Z" fill="#363538"/>
</svg>
