<svg width="24" height="24" viewBox="0 0 24 24" fill="none" xmlns="http://www.w3.org/2000/svg">
<path fill-rule="evenodd" clip-rule="evenodd" d="M14.25 7.46871C14.25 7.21418 14.1995 6.96696 14.1058 6.73921L10.7148 8.74555L10.7126 8.74682C10.4092 8.92861 10.0843 9.05946 9.75 9.13921V9.96625L9.64316 10.0256C9.07926 10.3389 8.60666 10.772 8.25 11.2831V9.15863C7.9153 9.08789 7.58863 8.96629 7.28176 8.79367L3.8484 6.86235C3.78413 7.05502 3.75 7.25939 3.75 7.46871V10.3306C3.75 11.0266 4.12738 11.668 4.73585 12.006L7.50187 13.5427C7.50063 13.5844 7.5 13.6261 7.5 13.6679V15.2522C7.44637 15.226 7.39325 15.1983 7.34072 15.1691L4.00739 13.3173C2.92271 12.7147 2.25 11.5714 2.25 10.3306V7.46871C2.25 6.22789 2.92272 5.0846 4.00739 4.48201L7.34072 2.63016C8.37263 2.05687 9.62737 2.05687 10.6593 2.63016L13.9926 4.48201C15.0773 5.08461 15.75 6.22789 15.75 7.46871V7.71741C15.2542 7.62675 14.7458 7.62675 14.25 7.71741V7.46871ZM8.06918 3.94139C8.64806 3.6198 9.35194 3.6198 9.93082 3.94139L13.0036 5.64847L11.6869 6.42752L7.88109 4.04589L8.06918 3.94139ZM8.01717 7.48632L4.87245 5.71736L6.38323 4.87803L10.2334 7.28747L9.94696 7.45696L9.943 7.45932C9.35251 7.81362 8.61735 7.82393 8.01717 7.48632Z" fill="#363538"/>
<path fill-rule="evenodd" clip-rule="evenodd" d="M16.6593 8.82938C15.6274 8.25609 14.3726 8.25609 13.3407 8.82938L10.0074 10.6812C8.92272 11.2838 8.25 12.4271 8.25 13.6679V16.5298C8.25 17.7706 8.92271 18.9139 10.0074 19.5165L13.3407 21.3683C14.3726 21.9416 15.6274 21.9416 16.6593 21.3683L19.9926 19.5165C21.0773 18.9139 21.75 17.7706 21.75 16.5298V13.6679C21.75 12.4271 21.0773 11.2838 19.9926 10.6812L16.6593 8.82938ZM14.0692 10.1406C14.6481 9.81901 15.3519 9.81901 15.9308 10.1406L19.0037 11.8478L17.6869 12.6269L13.8809 10.2452L14.0692 10.1406ZM12.3831 11.0773L10.8723 11.9167L14.0172 13.6857C14.6173 14.0233 15.3525 14.013 15.943 13.6587L15.947 13.6564L16.2334 13.4869L12.3831 11.0773ZM9.84835 13.0617C9.78411 13.2544 9.75 13.4587 9.75 13.6679V16.5298C9.75 17.2259 10.1274 17.8672 10.7359 18.2052L14.0692 20.0571C14.1282 20.0899 14.1886 20.1194 14.25 20.1455V15.358C13.9153 15.2873 13.5886 15.1657 13.2818 14.9931L9.84835 13.0617ZM15.75 15.3386V20.1455C15.8114 20.1194 15.8718 20.0899 15.9308 20.0571L19.2641 18.2052C19.8726 17.8672 20.25 17.2259 20.25 16.5298V13.6679C20.25 13.4135 20.1996 13.1663 20.1058 12.9386L16.7148 14.945L16.7126 14.9462C16.4092 15.128 16.0843 15.2589 15.75 15.3386Z" fill="#363538"/>
</svg>
