<svg width="24" height="24" viewBox="0 0 24 24" fill="none" xmlns="http://www.w3.org/2000/svg">
<path d="M11.416 17.8759C11.0713 17.6462 10.6057 17.7393 10.3759 18.0839C10.1462 18.4286 10.2393 18.8942 10.5839 19.124C11.7442 19.8975 13.2557 19.8975 14.416 19.124C14.7606 18.8942 14.8538 18.4286 14.624 18.0839C14.3942 17.7393 13.9286 17.6462 13.5839 17.8759C12.9275 18.3135 12.0724 18.3135 11.416 17.8759Z" fill="#363538"/>
<path d="M11 14.5C11 15.3284 10.3284 16 9.5 16C8.67157 16 8 15.3284 8 14.5C8 13.6716 8.67157 13 9.5 13C10.3284 13 11 13.6716 11 14.5Z" fill="#363538"/>
<path fill-rule="evenodd" clip-rule="evenodd" d="M12.0567 2C12.0436 2 12.0305 2.00035 12.0173 2.00104C11.8344 2.01066 11.6419 2.01909 11.4416 2.02786C9.98278 2.09173 8.10667 2.17388 6.45245 2.87136C5.48846 3.27782 4.58018 3.89728 3.84605 4.84548C3.11338 5.79178 2.58302 7.02816 2.31685 8.62682C2.31605 8.63163 2.31269 8.64363 2.30744 8.66238C2.27514 8.77764 2.1716 9.14719 2.15392 9.66174C2.13241 10.2876 2.19283 11.3376 2.44348 13.343C2.52442 13.9906 2.63501 14.5228 2.79165 14.9263C2.93502 15.2957 3.19228 15.7528 3.69481 15.9175C4.05982 16.0372 4.39019 15.9527 4.64964 15.8186C5.04741 17.7196 5.90485 19.1668 7.05362 20.186C8.48132 21.4527 10.2934 22 12.0567 22C13.8439 22 16.0255 21.3132 17.7677 19.7449C19.0602 18.5814 20.0911 16.9504 20.5491 14.8023C20.7289 14.9675 20.9829 15.0384 21.23 14.9797C21.5537 14.9028 21.7881 14.6217 21.8056 14.2894C22.0622 9.41391 20.9144 6.28974 18.9522 4.39762C17.0031 2.51811 14.3989 2 12.0567 2ZM8.04911 19.064C7.01506 18.1466 6.20959 16.7156 5.97382 14.605C6.34917 14.3382 6.73638 14.084 7.12387 13.8314L7.22508 13.7655C7.68826 13.4637 8.15581 13.1591 8.56927 12.8523C9.10777 12.4527 9.67947 11.9638 10.0142 11.3526C11.8449 12.3243 13.18 12.8514 14.5739 13.0778C14.6822 13.0954 14.7906 13.1111 14.8994 13.1251C14.37 13.3567 14 13.8851 14 14.5C14 15.3284 14.6716 16 15.5 16C16.3284 16 17 15.3284 17 14.5C17 13.9554 16.7097 13.4785 16.2754 13.2157C17.1608 13.2262 18.1261 13.1604 19.2789 13.0669C19.0991 15.6682 18.0633 17.4605 16.7641 18.6301C15.3125 19.9368 13.4942 20.5 12.0567 20.5C10.5954 20.5 9.15747 20.0473 8.04911 19.064ZM17.911 5.47738C19.1237 6.64674 20.0655 8.52685 20.2902 11.5373C20.1958 11.5064 20.0953 11.4942 19.9943 11.5026C17.5651 11.705 16.1668 11.8168 14.8144 11.5972C13.4837 11.3811 12.1512 10.8334 9.92097 9.59438C9.68868 9.46533 9.40543 9.46883 9.1764 9.6036C8.94736 9.73836 8.80674 9.98426 8.80674 10.25C8.80674 10.5903 8.53043 11.0132 7.67537 11.6477C7.30027 11.9261 6.86963 12.2067 6.39456 12.5163L6.3047 12.5748C5.80234 12.9023 5.26008 13.2584 4.73792 13.65C4.6782 13.6948 4.6255 13.7483 4.58156 13.8086C4.41625 14.0357 4.27767 14.2014 4.16523 14.3158C4.08263 14.077 4.00035 13.7046 3.9319 13.157C3.6826 11.1624 3.63588 10.2124 3.65303 9.71326C3.66389 9.39742 3.68543 9.32575 3.71767 9.21852C3.73918 9.14696 3.76545 9.05956 3.79648 8.87318C4.02981 7.47177 4.47839 6.47895 5.0321 5.76377C5.58435 5.0505 6.2699 4.57622 7.03522 4.25353C8.42197 3.66882 10.0058 3.59618 11.4907 3.52808C11.6878 3.51904 11.8832 3.51008 12.0761 3.50001C14.2273 3.5029 16.3648 3.98637 17.911 5.47738Z" fill="#363538"/>
</svg>
