<svg width="24" height="24" viewBox="0 0 24 24" fill="none" xmlns="http://www.w3.org/2000/svg">
<path fill-rule="evenodd" clip-rule="evenodd" d="M12 1.75C13.0372 1.75 13.9076 2.45259 14.168 3.40723C14.8707 2.71033 15.9766 2.53716 16.875 3.05566C17.7732 3.57427 18.1756 4.61824 17.9238 5.5752C18.8811 5.32275 19.9255 5.7264 20.4443 6.625C20.9629 7.52334 20.7895 8.62827 20.0928 9.33105C21.048 9.59108 21.751 10.4624 21.751 11.5C21.751 12.5375 21.0479 13.4079 20.0928 13.668C20.7901 14.3707 20.9639 15.4764 20.4453 16.375C19.9004 17.3188 18.7748 17.7179 17.7803 17.3828C17.0398 18.1105 16.1635 18.7009 15.1904 19.1094C15.0406 19.4293 14.8211 19.7394 14.5303 20.0303C14.0914 20.4691 13.6742 20.7619 13.3975 20.9814C13.1183 21.203 12.9212 21.391 12.7441 21.6982C12.4145 22.2703 11.5855 22.2703 11.2559 21.6982C11.0788 21.391 10.8817 21.203 10.6025 20.9814C10.395 20.8168 10.1083 20.6115 9.79297 20.334L9.46973 20.0303C9.17871 19.7392 8.95844 19.4293 8.80859 19.1094C7.85462 18.7088 6.99187 18.1349 6.26074 17.4268L6.21875 17.3838C5.22485 17.7174 4.10109 17.318 3.55664 16.375C3.03796 15.4765 3.21108 14.3707 3.9082 13.668C2.95333 13.4077 2.25098 12.5374 2.25098 11.5C2.25098 10.4629 2.95269 9.59154 3.90723 9.33105C3.21127 8.62819 3.03824 7.52293 3.55664 6.625C4.07517 5.72688 5.11933 5.3236 6.07617 5.5752C5.82477 4.61845 6.22797 3.5751 7.12598 3.05664C8.02388 2.53832 9.12821 2.71133 9.83105 3.40723C10.0914 2.45246 10.9627 1.75 12 1.75ZM13.8037 17.7412C13.5932 17.4417 13.2285 17.3613 13.0029 17.4688C12.6875 17.6189 12.3219 17.6748 12 17.6748C11.6782 17.6748 11.3125 17.6198 10.9971 17.4697C10.7713 17.3623 10.4067 17.4419 10.1963 17.7412C10.1055 17.8705 10.0598 18.0263 10.083 18.2041C10.1066 18.3839 10.2103 18.6497 10.5303 18.9697C10.8884 19.3278 11.1803 19.5251 11.5352 19.8066C11.6907 19.9301 11.847 20.0632 12 20.2188C12.153 20.0632 12.3093 19.9301 12.4648 19.8066C12.8197 19.525 13.1116 19.3278 13.4697 18.9697C13.7897 18.6498 13.8934 18.384 13.917 18.2041C13.9402 18.0263 13.8945 17.8705 13.8037 17.7412ZM13.5811 5.59961C13.1746 6.00134 12.6166 6.25 12 6.25C11.3834 6.25 10.8254 6.00134 10.4189 5.59961C10.2679 6.15076 9.90999 6.64579 9.37598 6.9541C8.84213 7.26231 8.23435 7.32619 7.68164 7.18164C7.82604 7.7342 7.76219 8.34131 7.4541 8.875C7.14584 9.40892 6.65161 9.76781 6.10059 9.91895C6.50217 10.3253 6.75 10.8835 6.75 11.5C6.75 12.1167 6.50148 12.6746 6.09961 13.0811C6.65086 13.2321 7.14574 13.5909 7.4541 14.125C7.88544 14.8721 7.83761 15.763 7.40918 16.4463C7.80036 16.8095 8.23466 17.1258 8.70312 17.3887C8.76953 17.2051 8.86066 17.0341 8.96973 16.8789C9.52426 16.0901 10.6423 15.6397 11.6416 16.1152C11.6982 16.1421 11.8274 16.1748 12 16.1748C12.1727 16.1748 12.3019 16.1412 12.3584 16.1143C13.3578 15.6386 14.4758 16.09 15.0303 16.8789C15.1393 17.0341 15.2295 17.2052 15.2959 17.3887C15.7647 17.1258 16.1984 16.8087 16.5898 16.4453C16.1625 15.7622 16.1169 14.8714 16.5479 14.125C16.856 13.5915 17.3498 13.2323 17.9004 13.0811C17.4989 12.6747 17.251 12.1164 17.251 11.5C17.251 10.8836 17.4989 10.3253 17.9004 9.91895C17.3495 9.76775 16.8551 9.40878 16.5469 8.875C16.2387 8.34125 16.1739 7.73329 16.3184 7.18066C15.7659 7.32494 15.1586 7.26119 14.625 6.95312C14.0912 6.64485 13.7322 6.15059 13.5811 5.59961ZM6.1543 14.875C5.9471 14.5165 5.48849 14.3935 5.12988 14.6006C4.77137 14.8077 4.64858 15.2664 4.85547 15.625C5.06256 15.9837 5.52117 16.1065 5.87988 15.8994C6.2386 15.6923 6.3614 15.2337 6.1543 14.875ZM18.8711 14.6006C18.5124 14.3937 18.0538 14.5164 17.8467 14.875C17.6396 15.2336 17.7626 15.6922 18.1211 15.8994C18.4798 16.1065 18.9384 15.9837 19.1455 15.625C19.3526 15.2663 19.2298 14.8077 18.8711 14.6006ZM4.50098 10.75C4.08676 10.75 3.75098 11.0858 3.75098 11.5C3.75098 11.9142 4.08676 12.25 4.50098 12.25C4.91497 12.2497 5.25098 11.9141 5.25098 11.5C5.25098 11.0859 4.91497 10.7503 4.50098 10.75ZM19.501 10.75C19.0868 10.75 18.751 11.0858 18.751 11.5C18.751 11.9142 19.0868 12.25 19.501 12.25C19.9152 12.25 20.251 11.9142 20.251 11.5C20.251 11.0858 19.9152 10.75 19.501 10.75ZM5.88086 7.10059C5.52224 6.89354 5.06363 7.01651 4.85645 7.375C4.64934 7.73372 4.77214 8.19231 5.13086 8.39941C5.48958 8.6065 5.94817 8.48371 6.15527 8.125C6.3622 7.76635 6.23942 7.30768 5.88086 7.10059ZM19.1455 7.375C18.9384 7.01628 18.4798 6.89348 18.1211 7.10059C17.7624 7.3077 17.6396 7.76628 17.8467 8.125C18.0539 8.48345 18.5125 8.60645 18.8711 8.39941C19.2297 8.19233 19.3524 7.73365 19.1455 7.375ZM8.90039 4.62988C8.69328 4.27137 8.23461 4.14858 7.87598 4.35547C7.51728 4.56256 7.39451 5.02117 7.60156 5.37988C7.80867 5.7386 8.26726 5.8614 8.62598 5.6543C8.98445 5.4471 9.10744 4.98849 8.90039 4.62988ZM16.125 4.35547C15.7663 4.14836 15.3077 4.27116 15.1006 4.62988C14.8937 4.98854 15.0164 5.44722 15.375 5.6543C15.7336 5.86134 16.1922 5.73834 16.3994 5.37988C16.6065 5.02117 16.4837 4.56258 16.125 4.35547ZM12 3.25C11.5858 3.25 11.25 3.58579 11.25 4C11.25 4.41421 11.5858 4.75 12 4.75C12.4142 4.75 12.75 4.41421 12.75 4C12.75 3.58579 12.4142 3.25 12 3.25Z" fill="#363538"/>
</svg>
