<svg width="24" height="24" viewBox="0 0 24 24" fill="none" xmlns="http://www.w3.org/2000/svg">
<path fill-rule="evenodd" clip-rule="evenodd" d="M11.9996 11.2501C13.5754 11.2501 15.5331 11.5811 17.2867 12.3077C19.8684 13.3775 22.2836 15.4526 21.8864 18.8194C21.781 19.7116 20.9951 20.2501 20.2184 20.2501H3.88244C3.02271 20.2499 2.20182 19.5962 2.1842 18.6319C2.152 16.8655 2.70128 15.5047 3.65881 14.4552C4.5947 13.4296 5.87739 12.7497 7.23303 12.2335C7.40442 12.1683 7.57788 12.1049 7.75256 12.0441L8.32678 11.8556C9.65666 11.4465 10.9108 11.2502 11.9996 11.2501ZM12.2418 15.6066C12.183 16.0163 11.8031 16.3008 11.3932 16.2423C10.9836 16.1834 10.699 15.8034 10.7574 15.3937L11.1276 12.796C10.266 12.8833 9.28868 13.0979 8.24573 13.461C8.19665 13.4781 8.14782 13.4964 8.09924 13.5138L7.21252 16.2325C7.08404 16.6262 6.66094 16.8414 6.26721 16.713C5.87369 16.5845 5.65848 16.1613 5.78674 15.7677L6.25549 14.3292C5.66785 14.6581 5.16541 15.0296 4.76721 15.4659C4.08286 16.216 3.65858 17.1991 3.6842 18.6046C3.68478 18.6358 3.6969 18.6649 3.72815 18.6935C3.76249 18.7248 3.81705 18.75 3.88244 18.7501H20.2184C20.2791 18.7501 20.3295 18.7288 20.36 18.7042C20.3869 18.6823 20.3949 18.6622 20.3971 18.6437C20.6412 16.5746 19.4308 15.0766 17.5475 14.0831L17.235 15.6476C17.1535 16.0535 16.7582 16.3167 16.3522 16.2355C15.9464 16.1539 15.6831 15.7585 15.7643 15.3526L16.1393 13.4737C14.9723 13.0635 13.7339 12.8372 12.6461 12.7716L12.2418 15.6066Z" fill="#363538"/>
<path d="M7.82873 4.16515C8.01386 3.79489 8.46424 3.64449 8.83459 3.82921C9.20495 4.01439 9.35547 4.46466 9.17053 4.83507L8.60803 5.96007C8.45797 6.26034 8.48048 6.61921 8.66662 6.89855C9.08331 7.52389 9.18844 8.30673 8.9508 9.01964L8.71155 9.73742C8.58051 10.1303 8.15524 10.343 7.76233 10.212C7.36962 10.0809 7.15686 9.65562 7.28772 9.26281L7.52698 8.54503C7.61823 8.27126 7.5785 7.97077 7.41858 7.73058C6.93393 7.00349 6.87566 6.07179 7.26623 5.29015L7.82873 4.16515Z" fill="#363538"/>
<path d="M11.8287 4.16515C12.0139 3.79489 12.4642 3.64449 12.8346 3.82921C13.2049 4.01439 13.3555 4.46466 13.1705 4.83507L12.608 5.96007C12.458 6.26034 12.4805 6.61921 12.6666 6.89855C13.0833 7.52389 13.1884 8.30673 12.9508 9.01964L12.7115 9.73742C12.5805 10.1303 12.1552 10.343 11.7623 10.212C11.3696 10.0809 11.1569 9.65562 11.2877 9.26281L11.527 8.54503C11.6182 8.27126 11.5785 7.97077 11.4186 7.73058C10.9339 7.00349 10.8757 6.07179 11.2662 5.29015L11.8287 4.16515Z" fill="#363538"/>
<path d="M15.8287 4.16515C16.0139 3.79489 16.4642 3.64449 16.8346 3.82921C17.2049 4.01439 17.3555 4.46466 17.1705 4.83507L16.608 5.96007C16.458 6.26034 16.4805 6.61921 16.6666 6.89855C17.0833 7.52389 17.1884 8.30673 16.9508 9.01964L16.7115 9.73742C16.5805 10.1303 16.1552 10.343 15.7623 10.212C15.3696 10.0809 15.1569 9.65562 15.2877 9.26281L15.527 8.54503C15.6182 8.27126 15.5785 7.97077 15.4186 7.73058C14.9339 7.00349 14.8757 6.07179 15.2662 5.29015L15.8287 4.16515Z" fill="#363538"/>
</svg>
