<svg width="24" height="24" viewBox="0 0 24 24" fill="none" xmlns="http://www.w3.org/2000/svg">
<path d="M8 5.5C8 6.05228 7.55228 6.5 7 6.5C6.44772 6.5 6 6.05228 6 5.5C6 4.94772 6.44772 4.5 7 4.5C7.55228 4.5 8 4.94772 8 5.5Z" fill="#363538"/>
<path d="M10 6.5C10.5523 6.5 11 6.05228 11 5.5C11 4.94772 10.5523 4.5 10 4.5C9.44771 4.5 9 4.94772 9 5.5C9 6.05228 9.44771 6.5 10 6.5Z" fill="#363538"/>
<path fill-rule="evenodd" clip-rule="evenodd" d="M2.25 7C2.25 4.37665 4.37665 2.25 7 2.25H17C19.6234 2.25 21.75 4.37665 21.75 7V17C21.75 19.6234 19.6234 21.75 17 21.75H7C4.37665 21.75 2.25 19.6234 2.25 17V7ZM7 3.75C5.20507 3.75 3.75 5.20507 3.75 7V7.25H20.25V7C20.25 5.20507 18.7949 3.75 17 3.75H7ZM20.25 8.75H3.75V17C3.75 18.7949 5.20507 20.25 7 20.25H17C18.7949 20.25 20.25 18.7949 20.25 17V8.75Z" fill="#363538"/>
</svg>
