<svg width="24" height="24" viewBox="0 0 24 24" fill="none" xmlns="http://www.w3.org/2000/svg">
<path fill-rule="evenodd" clip-rule="evenodd" d="M7.25 6.5C7.25 3.87665 9.37665 1.75 12 1.75C14.6234 1.75 16.75 3.87665 16.75 6.5V6.66666C17.418 7.01135 18.0124 7.47744 18.5042 8.03613L20.5315 6.41435C20.8549 6.15559 21.3269 6.20803 21.5857 6.53148C21.8444 6.85493 21.792 7.32689 21.4685 7.58565L19.3493 9.28107C19.6678 9.90734 19.8799 10.5975 19.9623 11.3282C20 11.663 20 12.0611 20 12.8571V13.25H21.5C21.9142 13.25 22.25 13.5858 22.25 14C22.25 14.4142 21.9142 14.75 21.5 14.75H19.9653C19.8718 15.7552 19.5924 16.7064 19.1618 17.5689L21.4685 19.4143C21.792 19.6731 21.8444 20.1451 21.5857 20.4685C21.3269 20.792 20.8549 20.8444 20.5315 20.5857L18.3624 18.8504C16.9007 20.7648 14.5946 22 12 22C9.40539 22 7.09927 20.7648 5.63758 18.8504L3.46852 20.5857C3.14507 20.8444 2.67311 20.792 2.41435 20.4685C2.15559 20.1451 2.20803 19.6731 2.53148 19.4143L4.83824 17.5689C4.40758 16.7064 4.12815 15.7552 4.03469 14.75H2.5C2.08579 14.75 1.75 14.4142 1.75 14C1.75 13.5858 2.08579 13.25 2.5 13.25H4V12.8571C4 12.0611 4 11.663 4.03773 11.3282C4.12005 10.5975 4.33222 9.90734 4.65075 9.28107L2.53148 7.58565C2.20803 7.32689 2.15559 6.85493 2.41435 6.53148C2.67311 6.20803 3.14507 6.15559 3.46852 6.41435L5.49575 8.03613C5.98763 7.47744 6.58197 7.01135 7.25 6.66666V6.5ZM12 3.25C13.6688 3.25 15.0438 4.50773 15.2288 6.12697C15.0461 6.08885 14.8603 6.05897 14.6718 6.03773C14.337 6 13.9389 6 13.1429 6H10.8571C10.0611 6 9.66305 6 9.32821 6.03773C9.13971 6.05897 8.95389 6.08885 8.77118 6.12697C8.95621 4.50773 10.3312 3.25 12 3.25ZM5.5283 11.4962C5.50238 11.7262 5.5 12.0203 5.5 12.8571V14C5.5 17.3362 8.01342 20.0854 11.25 20.4572V17C11.25 16.5858 11.5858 16.25 12 16.25C12.4142 16.25 12.75 16.5858 12.75 17V20.4572C15.9866 20.0854 18.5 17.3362 18.5 14V12.8571C18.5 12.0203 18.4976 11.7262 18.4717 11.4962C18.2366 9.40987 16.5901 7.76336 14.5038 7.5283C14.2738 7.50238 13.9797 7.5 13.1429 7.5H10.8571C10.0203 7.5 9.72618 7.50238 9.49616 7.5283C7.40987 7.76336 5.76336 9.40987 5.5283 11.4962Z" fill="#363538"/>
</svg>
