<svg width="24" height="24" viewBox="0 0 24 24" fill="none" xmlns="http://www.w3.org/2000/svg">
<path d="M13.1389 6.5C13.1389 6.08579 13.4747 5.75 13.8889 5.75H15.1111C15.5253 5.75 15.8611 6.08579 15.8611 6.5C15.8611 6.91421 15.5253 7.25 15.1111 7.25H13.8889C13.4747 7.25 13.1389 6.91421 13.1389 6.5Z" fill="#363538"/>
<path d="M13.8889 8.75C13.4747 8.75 13.1389 9.08579 13.1389 9.5C13.1389 9.91421 13.4747 10.25 13.8889 10.25H15.1111C15.5253 10.25 15.8611 9.91421 15.8611 9.5C15.8611 9.08579 15.5253 8.75 15.1111 8.75H13.8889Z" fill="#363538"/>
<path d="M13.1389 12.5C13.1389 12.0858 13.4747 11.75 13.8889 11.75H15.1111C15.5253 11.75 15.8611 12.0858 15.8611 12.5C15.8611 12.9142 15.5253 13.25 15.1111 13.25H13.8889C13.4747 13.25 13.1389 12.9142 13.1389 12.5Z" fill="#363538"/>
<path d="M13.8889 14.75C13.4747 14.75 13.1389 15.0858 13.1389 15.5C13.1389 15.9142 13.4747 16.25 13.8889 16.25H15.1111C15.5253 16.25 15.8611 15.9142 15.8611 15.5C15.8611 15.0858 15.5253 14.75 15.1111 14.75H13.8889Z" fill="#363538"/>
<path fill-rule="evenodd" clip-rule="evenodd" d="M8.99999 7V18C8.99999 20.2091 10.7909 22 13 22H16C18.2091 22 20 20.2091 20 18V7C20 4.79086 18.2091 3 16 3H13C10.7909 3 8.99999 4.79086 8.99999 7ZM10.5 7V18C10.5 18.9926 11.0785 19.8501 11.9167 20.2537V19C11.9167 18.0335 12.7002 17.25 13.6667 17.25H15.3333C16.2998 17.25 17.0833 18.0335 17.0833 19V20.2537C17.9215 19.8501 18.5 18.9926 18.5 18V7C18.5 5.61929 17.3807 4.5 16 4.5H13C11.6193 4.5 10.5 5.61929 10.5 7ZM15.5833 20.5H13.4167V19C13.4167 18.8619 13.5286 18.75 13.6667 18.75H15.3333C15.4714 18.75 15.5833 18.8619 15.5833 19V20.5Z" fill="#363538"/>
<path fill-rule="evenodd" clip-rule="evenodd" d="M6.07516 15.4848V20.5C6.07516 20.9142 5.73937 21.25 5.32516 21.25C4.91095 21.25 4.57516 20.9142 4.57516 20.5V15.2944C4.04654 14.687 3.49027 13.7535 3.3099 12.6455C3.09667 11.3356 3.42198 9.84251 4.79483 8.46967C4.96355 8.30095 5.19265 8.22942 5.41258 8.25508C5.6325 8.22942 5.8616 8.30095 6.03032 8.46967C7.40317 9.84251 7.72849 11.3356 7.51525 12.6455C7.31482 13.8767 6.6502 14.8926 6.07516 15.4848ZM5.41258 10.0387C6.04616 10.8866 6.14884 11.7036 6.03474 12.4045C5.94014 12.9856 5.69036 13.5138 5.41258 13.9256C5.13479 13.5138 4.88501 12.9856 4.79041 12.4045C4.67632 11.7036 4.77899 10.8866 5.41258 10.0387Z" fill="#363538"/>
</svg>
