<svg width="24" height="24" viewBox="0 0 24 24" fill="none" xmlns="http://www.w3.org/2000/svg">
<path d="M8.25 6.5C8.25 6.08579 8.58579 5.75 9 5.75H10C10.4142 5.75 10.75 6.08579 10.75 6.5C10.75 6.91421 10.4142 7.25 10 7.25H9C8.58579 7.25 8.25 6.91421 8.25 6.5Z" fill="#363538"/>
<path d="M13 5.75C12.5858 5.75 12.25 6.08579 12.25 6.5C12.25 6.91421 12.5858 7.25 13 7.25H14C14.4142 7.25 14.75 6.91421 14.75 6.5C14.75 6.08579 14.4142 5.75 14 5.75H13Z" fill="#363538"/>
<path d="M8.25 9.5C8.25 9.08579 8.58579 8.75 9 8.75H10C10.4142 8.75 10.75 9.08579 10.75 9.5C10.75 9.91421 10.4142 10.25 10 10.25H9C8.58579 10.25 8.25 9.91421 8.25 9.5Z" fill="#363538"/>
<path d="M9 11.75C8.58579 11.75 8.25 12.0858 8.25 12.5C8.25 12.9142 8.58579 13.25 9 13.25H10C10.4142 13.25 10.75 12.9142 10.75 12.5C10.75 12.0858 10.4142 11.75 10 11.75H9Z" fill="#363538"/>
<path d="M8.25 15.5C8.25 15.0858 8.58579 14.75 9 14.75H10C10.4142 14.75 10.75 15.0858 10.75 15.5C10.75 15.9142 10.4142 16.25 10 16.25H9C8.58579 16.25 8.25 15.9142 8.25 15.5Z" fill="#363538"/>
<path d="M13 8.75C12.5858 8.75 12.25 9.08579 12.25 9.5C12.25 9.91421 12.5858 10.25 13 10.25H14C14.4142 10.25 14.75 9.91421 14.75 9.5C14.75 9.08579 14.4142 8.75 14 8.75H13Z" fill="#363538"/>
<path d="M12.25 12.5C12.25 12.0858 12.5858 11.75 13 11.75H14C14.4142 11.75 14.75 12.0858 14.75 12.5C14.75 12.9142 14.4142 13.25 14 13.25H13C12.5858 13.25 12.25 12.9142 12.25 12.5Z" fill="#363538"/>
<path d="M13 14.75C12.5858 14.75 12.25 15.0858 12.25 15.5C12.25 15.9142 12.5858 16.25 13 16.25H14C14.4142 16.25 14.75 15.9142 14.75 15.5C14.75 15.0858 14.4142 14.75 14 14.75H13Z" fill="#363538"/>
<path fill-rule="evenodd" clip-rule="evenodd" d="M5.25 6C5.25 3.92893 6.92893 2.25 9 2.25H14C16.0711 2.25 17.75 3.92893 17.75 6V18C17.75 20.0711 16.0711 21.75 14 21.75H5.5C3.42893 21.75 1.75 20.0711 1.75 18V12.5C1.75 10.5129 3.29549 8.88685 5.25 8.7582V6ZM14 20.25H13.75V19.5C13.75 18.2574 12.7426 17.25 11.5 17.25C10.2574 17.25 9.25 18.2574 9.25 19.5V20.25H9C7.75736 20.25 6.75 19.2426 6.75 18V6C6.75 4.75736 7.75736 3.75 9 3.75H14C15.2426 3.75 16.25 4.75736 16.25 6V18C16.25 19.2426 15.2426 20.25 14 20.25ZM12.25 19.5V20.25H10.75V19.5C10.75 19.0858 11.0858 18.75 11.5 18.75C11.9142 18.75 12.25 19.0858 12.25 19.5ZM5.25 10.2637C4.12501 10.3881 3.25 11.3419 3.25 12.5V18C3.25 19.2426 4.25736 20.25 5.5 20.25H5.99973C5.52896 19.6233 5.25 18.8442 5.25 18V10.2637Z" fill="#363538"/>
<path fill-rule="evenodd" clip-rule="evenodd" d="M21.3737 15.9442C21.3256 16.04 21.2837 16.1215 21.25 16.1863V21C21.25 21.4142 20.9142 21.75 20.5 21.75C20.0858 21.75 19.75 21.4142 19.75 21V16.1863C19.7163 16.1215 19.6744 16.04 19.6263 15.9442C19.4985 15.6897 19.3256 15.3325 19.1454 14.9212C18.7931 14.1172 18.381 13.0362 18.2566 12.0987C17.9902 10.0921 18.8663 8.46395 19.4333 7.64411C19.9576 6.88596 21.0425 6.88596 21.5668 7.64411C22.1337 8.46395 23.0099 10.0921 22.7435 12.0987C22.6191 13.0362 22.2069 14.1172 21.8547 14.9212C21.6744 15.3325 21.5016 15.6897 21.3737 15.9442ZM19.7435 11.9013C19.5705 10.5979 20.0563 9.47072 20.5 8.75264C20.9438 9.47072 21.4296 10.5979 21.2566 11.9013C21.1633 12.6042 20.8362 13.5023 20.5 14.275C20.1639 13.5023 19.8368 12.6042 19.7435 11.9013Z" fill="#363538"/>
</svg>
