<svg width="24" height="24" viewBox="0 0 24 24" fill="none" xmlns="http://www.w3.org/2000/svg">
<path d="M13.4693 17.9695C13.7621 17.6767 14.2369 17.677 14.5298 17.9695C14.8227 18.2624 14.8227 18.7372 14.5298 19.0301C13.8784 19.6814 13.1476 19.9033 12.4556 19.8045C11.8089 19.7118 11.2931 19.3539 10.9693 19.0301C10.6768 18.7372 10.6766 18.2623 10.9693 17.9695C11.2621 17.6767 11.7369 17.677 12.0298 17.9695C12.2057 18.1454 12.4407 18.2874 12.6685 18.3201C12.8514 18.3461 13.121 18.3177 13.4693 17.9695Z" fill="#363538"/>
<path d="M9.99955 13.9998C10.5518 13.9998 10.9994 14.4476 10.9995 14.9998C10.9995 15.5521 10.5518 15.9998 9.99955 15.9998C9.44747 15.9995 8.99954 15.5519 8.99954 14.9998C8.99967 14.4478 9.44755 14 9.99955 13.9998Z" fill="#363538"/>
<path d="M14.9995 13.9998C15.5518 13.9998 15.9994 14.4476 15.9995 14.9998C15.9995 15.5521 15.5518 15.9998 14.9995 15.9998C14.4475 15.9995 13.9995 15.5519 13.9995 14.9998C13.9997 14.4478 14.4475 14 14.9995 13.9998Z" fill="#363538"/>
<path fill-rule="evenodd" clip-rule="evenodd" d="M14.8765 2.25955C15.3358 2.18303 15.7785 2.22913 16.1783 2.41092C16.5743 2.59116 16.88 2.88283 17.1089 3.22049C17.5533 3.87622 17.7508 4.76503 17.8072 5.66189C17.9024 7.17799 17.6079 8.99947 17.0327 10.5047C17.9642 10.8798 18.8433 11.6049 19.5406 12.4529C20.4828 13.5988 21.2041 15.1026 21.3111 16.6355C21.4204 18.2042 20.8788 19.7897 19.3335 20.951C17.8283 22.082 15.452 22.7497 12.0005 22.7498C6.51519 22.7498 3.1857 20.971 2.24369 18.3123C1.33557 15.7484 2.83628 12.9424 5.7222 11.0974C5.63135 9.73043 5.4808 7.80289 5.64115 6.2117C5.72986 5.3318 5.92199 4.43719 6.35404 3.77322C6.57811 3.42894 6.88042 3.1264 7.28079 2.93533C7.68412 2.74295 8.13317 2.6901 8.60599 2.7576C9.51636 2.88765 10.1789 3.33654 10.6158 3.98318C11.0314 4.59854 11.2143 5.34869 11.2954 6.06521C11.3774 6.78903 11.3623 7.55043 11.3306 8.23123C11.2975 8.94214 11.2505 9.52189 11.2505 9.99978C11.2505 10.109 11.2787 10.1626 11.2925 10.1824C11.2971 10.189 11.3033 10.1924 11.3072 10.1961C11.3127 10.1885 11.3222 10.1796 11.3296 10.1648C11.3317 10.1587 11.3411 10.132 11.355 10.076C11.3721 10.0069 11.3906 9.91446 11.4087 9.79666C11.4452 9.55903 11.4759 9.25984 11.5113 8.90213C11.5805 8.2016 11.6625 7.30696 11.8257 6.42556C11.9877 5.55076 12.2412 4.62144 12.69 3.86111C13.1492 3.08341 13.8465 2.43133 14.8765 2.25955ZM15.1236 3.74002C14.654 3.81827 14.2883 4.10415 13.982 4.62283C13.6654 5.1591 13.4508 5.88671 13.3003 6.699C13.1511 7.50474 13.0757 8.3294 13.0044 9.05056C12.9696 9.4032 12.9347 9.74158 12.8911 10.0252C12.8514 10.2841 12.7918 10.5936 12.6714 10.8347C12.3092 11.5592 11.5585 11.8503 10.8794 11.6414C10.2102 11.4353 9.75052 10.7968 9.75052 9.99978C9.75054 9.47776 9.80312 8.79451 9.83255 8.16189C9.86338 7.49915 9.87323 6.83509 9.80521 6.23416C9.73636 5.62613 9.59419 5.15122 9.37259 4.82303C9.17195 4.52607 8.88356 4.3119 8.39408 4.24197C8.16736 4.20961 8.02342 4.24252 7.9263 4.28885C7.82616 4.33665 7.71947 4.42627 7.61185 4.59158C7.38046 4.94717 7.21654 5.54666 7.13431 6.36209C6.97126 7.98011 7.16234 9.99004 7.24857 11.4558C7.26512 11.7378 7.12144 12.0049 6.87747 12.1472C4.02344 13.8122 3.0564 16.1174 3.65677 17.8123C4.26506 19.5284 6.6862 21.2498 12.0005 21.2498C15.2984 21.2497 17.2968 20.6048 18.4322 19.7517C19.5273 18.9287 19.893 17.8576 19.815 16.739C19.7343 15.5849 19.1742 14.3692 18.3824 13.406C17.5767 12.4262 16.6401 11.8356 15.9077 11.7439C15.6662 11.7137 15.4542 11.5679 15.3394 11.3533C15.2248 11.1389 15.221 10.8823 15.3296 10.6648C16.0184 9.28699 16.4076 7.30806 16.3101 5.75564C16.2609 4.97255 16.0931 4.39617 15.8667 4.06228C15.7604 3.90549 15.6547 3.82057 15.5572 3.77615C15.463 3.73334 15.3281 3.70594 15.1236 3.74002Z" fill="#363538"/>
</svg>
