<svg width="24" height="24" viewBox="0 0 24 24" fill="none" xmlns="http://www.w3.org/2000/svg">
<path d="M7.5 19C8.32842 19 9 18.3284 9 17.5C9 16.6716 8.32842 16 7.5 16C6.67157 16 6 16.6716 6 17.5C6 18.3284 6.67157 19 7.5 19Z" fill="#363538"/>
<path d="M18 17.5C18 18.3284 17.3284 19 16.5 19C15.6716 19 15 18.3284 15 17.5C15 16.6716 15.6716 16 16.5 16C17.3284 16 18 16.6716 18 17.5Z" fill="#363538"/>
<path fill-rule="evenodd" clip-rule="evenodd" d="M3 12.8159V6C3 3.79086 4.79086 2 7 2H17C19.2091 2 21 3.79086 21 6V12.8159C21.338 12.6634 21.7448 12.7814 21.9452 13.1052C22.1633 13.4574 22.0546 13.9196 21.7024 14.1377L21 14.5725V18C21 20.2091 19.2091 22 17 22H7C4.79086 22 3 20.2091 3 18V14.5725L2.29762 14.1377C1.94544 13.9196 1.83671 13.4574 2.05475 13.1052C2.2552 12.7814 2.66203 12.6634 3 12.8159ZM4.5 6C4.5 4.61929 5.61928 3.5 7 3.5H17C18.3807 3.5 19.5 4.61929 19.5 6V6.06301C19.3402 6.02188 19.1726 6 19 6H5C4.82735 6 4.65981 6.02188 4.5 6.06301V6ZM4.5 8V13C4.5 13.2761 4.72385 13.5 5 13.5H19C19.2761 13.5 19.5 13.2761 19.5 13V8C19.5 7.72386 19.2761 7.5 19 7.5H5C4.72385 7.5 4.5 7.72386 4.5 8ZM19.5 14.937C19.3402 14.9781 19.1726 15 19 15H5C4.82735 15 4.65981 14.9781 4.5 14.937V18C4.5 19.3807 5.61928 20.5 7 20.5H17C18.3807 20.5 19.5 19.3807 19.5 18V14.937Z" fill="#363538"/>
</svg>
