<svg width="24" height="24" viewBox="0 0 24 24" fill="none" xmlns="http://www.w3.org/2000/svg">
<path fill-rule="evenodd" clip-rule="evenodd" d="M19.4483 2.28089C20.0701 2.09818 20.6262 2.31562 21.0284 2.69104C21.4049 3.04247 21.6736 3.54668 21.8624 4.07874C22.2441 5.15514 22.3894 6.60901 22.2227 8.05921C22.056 9.51044 21.567 11.0435 20.5968 12.2301C20.2544 12.6488 19.8542 13.0174 19.3976 13.3229C20.2644 13.7073 20.8945 14.2818 21.2726 15.0377C21.9938 16.4803 21.6213 18.2591 20.8331 19.8356C19.9071 21.6876 17.4941 22.5925 15.3858 21.4567C14.0205 20.721 12.8984 19.2068 12.3165 16.778C12.3046 16.8518 12.2936 16.9258 12.2813 16.9996C12.2698 17.0681 12.238 17.1337 12.1866 17.1823C12.1351 17.2308 12.0688 17.2584 12.0001 17.2584C11.9314 17.2584 11.8651 17.2308 11.8136 17.1823C11.7932 17.1631 11.7759 17.1414 11.7618 17.1178C11.1593 19.3486 10.0808 20.7559 8.78037 21.4567C6.67215 22.5923 4.25908 21.6875 3.3331 19.8356C2.54494 18.2591 2.17245 16.4802 2.89365 15.0377C3.27165 14.2819 3.90187 13.7073 4.76865 13.3229C4.31211 13.0175 3.91177 12.6487 3.56943 12.2301C2.59932 11.0436 2.1102 9.51037 1.94345 8.05921C1.77685 6.60902 1.92207 5.15513 2.3038 4.07874C2.49253 3.54671 2.76137 3.04249 3.13779 2.69104C3.53998 2.31566 4.09622 2.09834 4.71787 2.28089C6.85226 2.90838 8.28549 3.55576 9.24814 4.26331C10.2402 4.99262 10.7235 5.77974 10.964 6.61975C11.0788 7.02091 11.1336 7.41803 11.1729 7.78772C11.2147 8.18107 11.2354 8.49878 11.2843 8.86585C11.3316 9.22079 11.4027 9.57336 11.5274 9.93323C11.5349 9.91388 11.5422 9.89398 11.5499 9.87464C11.5999 9.74976 11.6564 9.62451 11.7188 9.49964C11.7483 9.44154 11.7851 9.38546 11.8341 9.34436C11.8832 9.30331 11.941 9.27991 12.0001 9.27991C12.0592 9.27993 12.117 9.30328 12.1661 9.34436C12.2151 9.38547 12.2518 9.44152 12.2813 9.49964C12.3438 9.62453 12.4003 9.74974 12.4503 9.87464C12.4886 9.97039 12.5219 10.067 12.5528 10.1627C12.7343 9.72273 12.8246 9.29586 12.8819 8.86585C12.9308 8.49876 12.9515 8.18109 12.9933 7.78772C13.0326 7.41802 13.0874 7.02092 13.2022 6.61975C13.4427 5.77971 13.9259 4.99264 14.9181 4.26331C15.8807 3.5557 17.3138 2.90843 19.4483 2.28089ZM4.29501 3.71936C4.28922 3.71662 4.26305 3.69267 4.16123 3.78772C4.03069 3.90966 3.8649 4.16335 3.71689 4.58069C3.42506 5.40378 3.28818 6.62173 3.43369 7.88831C3.57913 9.15371 3.99701 10.3837 4.73056 11.2809C5.44312 12.1522 6.48289 12.7494 8.004 12.7496C8.41803 12.7496 8.75372 13.0857 8.754 13.4996C8.75399 13.9138 8.41821 14.2496 8.004 14.2496C5.61808 14.2498 4.60971 14.9604 4.23544 15.7086C3.83236 16.5149 3.96107 17.7369 4.6749 19.1647C5.22795 20.2708 6.71717 20.8648 8.06943 20.1364C9.42185 19.4075 10.9125 17.1704 10.7726 12.0201C10.7701 11.9289 10.7663 11.8367 10.7628 11.7438C10.1241 10.7774 9.90586 9.87413 9.79794 9.06506C9.74651 8.67923 9.71554 8.2651 9.68173 7.9469C9.64542 7.60518 9.60063 7.30916 9.52158 7.03284C9.37391 6.51712 9.08828 6.00806 8.35947 5.47229C7.60097 4.91481 6.35984 4.3264 4.29501 3.71936ZM19.8712 3.71936C17.8062 4.32646 16.5652 4.91476 15.8067 5.47229C15.0779 6.00809 14.7923 6.51709 14.6446 7.03284C14.5656 7.30917 14.5208 7.60517 14.4845 7.9469C14.4507 8.26511 14.4197 8.67922 14.3683 9.06506C14.2603 9.87418 14.0421 10.7773 13.4034 11.7438C13.3999 11.8367 13.3961 11.9289 13.3936 12.0201C13.2537 17.1704 14.7444 19.4075 16.0968 20.1364C17.4491 20.865 18.9382 20.2708 19.4913 19.1647C20.2052 17.7368 20.3339 16.5149 19.9308 15.7086C19.5564 14.9604 18.5483 14.2497 16.1622 14.2496C15.748 14.2496 15.4122 13.9138 15.4122 13.4996C15.4125 13.0857 15.7482 12.7496 16.1622 12.7496C17.6835 12.7495 18.723 12.1523 19.4356 11.2809C20.1693 10.3837 20.5871 9.15378 20.7325 7.88831C20.878 6.62172 20.7411 5.40379 20.4493 4.58069C20.3013 4.16326 20.1355 3.9096 20.005 3.78772C19.9014 3.69104 19.8764 3.71737 19.8712 3.71936Z" fill="#363538"/>
</svg>
