<svg width="24" height="24" viewBox="0 0 24 24" fill="none" xmlns="http://www.w3.org/2000/svg">
<path fill-rule="evenodd" clip-rule="evenodd" d="M15.75 20.25H18C18.4142 20.25 18.75 20.5858 18.75 21C18.75 21.4142 18.4142 21.75 18 21.75H7C6.58579 21.75 6.25 21.4142 6.25 21C6.25 20.5858 6.58579 20.25 7 20.25H9.25V16.75H5C3.48122 16.75 2.25 15.5188 2.25 14V10C2.25 8.48122 3.48122 7.25 5 7.25C6.51878 7.25 7.75 8.48122 7.75 10V11.25H8.75V5.5C8.75 3.70507 10.2051 2.25 12 2.25C13.7949 2.25 15.25 3.70507 15.25 5.5V13.25H16.25V11C16.25 9.48122 17.4812 8.25 19 8.25C20.5188 8.25 21.75 9.48122 21.75 11V16C21.75 17.5188 20.5188 18.75 19 18.75H15.75V20.25ZM12 3.75C11.0335 3.75 10.25 4.5335 10.25 5.5V12C10.25 12.4142 9.91421 12.75 9.5 12.75H7C6.58579 12.75 6.25 12.4142 6.25 12V10C6.25 9.30964 5.69036 8.75 5 8.75C4.30964 8.75 3.75 9.30964 3.75 10V14C3.75 14.6904 4.30964 15.25 5 15.25H10C10.4142 15.25 10.75 15.5858 10.75 16V20.25H14.25V18C14.25 17.5858 14.5858 17.25 15 17.25H19C19.6904 17.25 20.25 16.6904 20.25 16V11C20.25 10.3096 19.6904 9.75 19 9.75C18.3096 9.75 17.75 10.3096 17.75 11V14C17.75 14.4142 17.4142 14.75 17 14.75H14.5C14.0858 14.75 13.75 14.4142 13.75 14V5.5C13.75 4.5335 12.9665 3.75 12 3.75Z" fill="#363538"/>
</svg>
