<svg width="24" height="24" viewBox="0 0 24 24" fill="none" xmlns="http://www.w3.org/2000/svg">
<path d="M13.1708 3.33533C13.3561 2.96485 13.2059 2.51434 12.8354 2.3291C12.4649 2.14386 12.0144 2.29403 11.8292 2.66451L11.3292 3.66451C11.1439 4.03499 11.2941 4.4855 11.6646 4.67074C12.0351 4.85598 12.4856 4.70581 12.6708 4.33533L13.1708 3.33533Z" fill="#363538"/>
<path fill-rule="evenodd" clip-rule="evenodd" d="M12.75 6.49992C12.75 6.08571 12.4142 5.74992 12 5.74992C11.5858 5.74992 11.25 6.08571 11.25 6.49992V11.2499H8.75V8.99992C8.75 8.58571 8.41421 8.24992 8 8.24992C7.58579 8.24992 7.25 8.58571 7.25 8.99992V11.2499H5C4.0335 11.2499 3.25 12.0334 3.25 12.9999V19.2499H2C1.58579 19.2499 1.25 19.5857 1.25 19.9999C1.25 20.4141 1.58579 20.7499 2 20.7499H22C22.4142 20.7499 22.75 20.4141 22.75 19.9999C22.75 19.5857 22.4142 19.2499 22 19.2499H20.75V12.9999C20.75 12.0334 19.9665 11.2499 19 11.2499H16.75V8.99992C16.75 8.58571 16.4142 8.24992 16 8.24992C15.5858 8.24992 15.25 8.58571 15.25 8.99992V11.2499H12.75V6.49992ZM19.25 12.9999V19.2499H4.75V12.9999C4.75 12.8618 4.86193 12.7499 5 12.7499H19C19.1381 12.7499 19.25 12.8618 19.25 12.9999Z" fill="#363538"/>
</svg>
