<svg width="24" height="24" viewBox="0 0 24 24" fill="none" xmlns="http://www.w3.org/2000/svg">
<path fill-rule="evenodd" clip-rule="evenodd" d="M10.5978 16.8331C11.0073 17.0107 11.4761 17.0994 12.004 17.0994C12.5296 17.0994 12.9948 17.0107 13.3996 16.8331C13.8068 16.6555 14.1264 16.4129 14.3584 16.1051C14.5904 15.795 14.7064 15.4434 14.7064 15.0504C14.7064 14.745 14.6378 14.4645 14.5005 14.2088C14.3655 13.9531 14.1832 13.7401 13.9536 13.5696C13.7263 13.3968 13.4706 13.2867 13.1865 13.2393V13.1896C13.5535 13.1068 13.853 12.9162 14.085 12.6179C14.3193 12.3172 14.4365 11.9704 14.4365 11.5774C14.4365 11.2034 14.33 10.8696 14.1169 10.576C13.9062 10.2824 13.6174 10.0516 13.2505 9.88352C12.8859 9.71307 12.4704 9.62784 12.004 9.62784C11.5329 9.62784 11.1138 9.71307 10.7469 9.88352C10.3799 10.0516 10.0911 10.2824 9.88042 10.576C9.66972 10.8696 9.56555 11.2034 9.56792 11.5774C9.56555 11.9704 9.67919 12.3172 9.90883 12.6179C10.1408 12.9162 10.4439 13.1068 10.8179 13.1896V13.2393C10.5338 13.2867 10.2758 13.3968 10.0438 13.5696C9.81413 13.7401 9.63184 13.9531 9.4969 14.2088C9.36196 14.4645 9.29567 14.745 9.29803 15.0504C9.29567 15.4434 9.4093 15.795 9.63894 16.1051C9.87095 16.4129 10.1906 16.6555 10.5978 16.8331ZM12.7142 15.9453C12.513 16.0376 12.2763 16.0838 12.004 16.0838C11.7294 16.0838 11.4903 16.0365 11.2867 15.9418C11.0854 15.8471 10.9292 15.7157 10.8179 15.5476C10.7067 15.3771 10.6522 15.1806 10.6546 14.9581C10.6522 14.7261 10.709 14.5213 10.825 14.3437C10.9434 14.1638 11.1044 14.023 11.308 13.9212C11.5116 13.8194 11.7436 13.7685 12.004 13.7685C12.262 13.7685 12.4917 13.8194 12.6929 13.9212C12.8965 14.023 13.0563 14.1638 13.1723 14.3437C13.2907 14.5213 13.3511 14.7261 13.3534 14.9581C13.3511 15.1806 13.2942 15.3771 13.183 15.5476C13.0717 15.718 12.9155 15.8506 12.7142 15.9453ZM12.5935 12.6357C12.423 12.7256 12.2265 12.7706 12.004 12.7706C11.7791 12.7706 11.579 12.7256 11.4039 12.6357C11.231 12.5433 11.0949 12.4178 10.9955 12.2592C10.8984 12.0982 10.8511 11.9124 10.8534 11.7017C10.8511 11.4934 10.8972 11.3111 10.9919 11.1548C11.089 10.9962 11.2239 10.8743 11.3968 10.7891C11.5719 10.7015 11.7744 10.6577 12.004 10.6577C12.2289 10.6577 12.4278 10.7015 12.6006 10.7891C12.7734 10.8743 12.9084 10.9962 13.0054 11.1548C13.1025 11.3111 13.1522 11.4934 13.1546 11.7017C13.1522 11.9124 13.1013 12.0982 13.0019 12.2592C12.9024 12.4202 12.7663 12.5457 12.5935 12.6357Z" fill="#363538"/>
<path fill-rule="evenodd" clip-rule="evenodd" d="M7.75 3C7.75 2.58579 7.41421 2.25 7 2.25C6.58579 2.25 6.25 2.58579 6.25 3H6C3.79086 3 2 4.79086 2 7V18C2 20.2091 3.79086 22 6 22H18C20.2091 22 22 20.2091 22 18V7C22 4.79086 20.2091 3 18 3H17.75C17.75 2.58579 17.4142 2.25 17 2.25C16.5858 2.25 16.25 2.58579 16.25 3H7.75ZM16.25 6V4.5H7.75V6C7.75 6.41421 7.41421 6.75 7 6.75C6.58579 6.75 6.25 6.41421 6.25 6V4.5H6C4.61929 4.5 3.5 5.61929 3.5 7V18C3.5 19.3807 4.61929 20.5 6 20.5H18C19.3807 20.5 20.5 19.3807 20.5 18V7C20.5 5.61929 19.3807 4.5 18 4.5H17.75V6C17.75 6.41421 17.4142 6.75 17 6.75C16.5858 6.75 16.25 6.41421 16.25 6Z" fill="#363538"/>
</svg>
