<svg width="24" height="24" viewBox="0 0 24 24" fill="none" xmlns="http://www.w3.org/2000/svg">
<path d="M7.75 3C7.75 2.58579 7.41421 2.25 7 2.25C6.58579 2.25 6.25 2.58579 6.25 3H6C3.79086 3 2 4.79086 2 7V18C2 20.2091 3.79086 22 6 22H13.25C13.6642 22 14 21.6642 14 21.25C14 20.8358 13.6642 20.5 13.25 20.5H6C4.61929 20.5 3.5 19.3807 3.5 18V7C3.5 5.61929 4.61929 4.5 6 4.5H6.25V6C6.25 6.41421 6.58579 6.75 7 6.75C7.41421 6.75 7.75 6.41421 7.75 6V4.5H16.25V6C16.25 6.41421 16.5858 6.75 17 6.75C17.4142 6.75 17.75 6.41421 17.75 6V4.5H18C19.3807 4.5 20.5 5.61929 20.5 7V13.25C20.5 13.6642 20.8358 14 21.25 14C21.6642 14 22 13.6642 22 13.25V7C22 4.79086 20.2091 3 18 3H17.75C17.75 2.58579 17.4142 2.25 17 2.25C16.5858 2.25 16.25 2.58579 16.25 3H7.75Z" fill="#363538"/>
<path fill-rule="evenodd" clip-rule="evenodd" d="M21.933 18.7063C21.5913 20.1652 19.5927 21.4584 18.8121 21.9145C18.6172 22.0285 18.3828 22.0285 18.1879 21.9145C17.4073 21.4584 15.4087 20.1652 15.067 18.7063C14.7585 17.389 15.5415 16.0203 16.8673 16.0006C16.8947 16.0002 16.9224 16 16.9506 16C17.0021 16 17.0531 16.0025 17.1035 16.0072C17.4568 16.0402 17.7776 16.1817 18.0224 16.3261C18.1679 16.412 18.3625 16.4676 18.5315 16.4676C18.7005 16.4676 18.8321 16.412 18.9776 16.3261C19.2573 16.1611 19.6362 16 20.0494 16C20.0776 16 20.1053 16.0002 20.1327 16.0006C21.4585 16.0203 22.2415 17.389 21.933 18.7063ZM17.2602 17.618C17.6249 17.8332 18.0811 17.9676 18.5315 17.9676C19.0829 17.9676 19.487 17.7672 19.7398 17.618C19.8111 17.576 19.88 17.5436 19.941 17.5231C20.0018 17.5027 20.0369 17.5 20.0494 17.5C20.0702 17.5 20.0906 17.5002 20.1105 17.5004C20.2094 17.5019 20.2941 17.5364 20.3789 17.67C20.4777 17.8259 20.5385 18.0825 20.4725 18.3643C20.4128 18.6191 20.1318 19.0455 19.5467 19.56C19.1961 19.8682 18.8179 20.1377 18.5 20.3447C18.1821 20.1377 17.8039 19.8682 17.4533 19.56C16.8682 19.0455 16.5872 18.6191 16.5275 18.3643C16.4615 18.0825 16.5223 17.8259 16.6211 17.67C16.7059 17.5364 16.7906 17.5019 16.8895 17.5004L16.9211 17.5001L16.9506 17.5C16.9631 17.5 16.9982 17.5027 17.059 17.5231C17.12 17.5436 17.1889 17.576 17.2602 17.618Z" fill="#363538"/>
<path d="M8 10C8 10.5523 7.55228 11 7 11C6.44772 11 6 10.5523 6 10C6 9.44771 6.44772 9 7 9C7.55228 9 8 9.44771 8 10Z" fill="#363538"/>
<path d="M12 11C12.5523 11 13 10.5523 13 10C13 9.44771 12.5523 9 12 9C11.4477 9 11 9.44771 11 10C11 10.5523 11.4477 11 12 11Z" fill="#363538"/>
<path d="M18 10C18 10.5523 17.5523 11 17 11C16.4477 11 16 10.5523 16 10C16 9.44771 16.4477 9 17 9C17.5523 9 18 9.44771 18 10Z" fill="#363538"/>
<path d="M7 14.5C7.55228 14.5 8 14.0523 8 13.5C8 12.9477 7.55228 12.5 7 12.5C6.44772 12.5 6 12.9477 6 13.5C6 14.0523 6.44772 14.5 7 14.5Z" fill="#363538"/>
<path d="M13 13.5C13 14.0523 12.5523 14.5 12 14.5C11.4477 14.5 11 14.0523 11 13.5C11 12.9477 11.4477 12.5 12 12.5C12.5523 12.5 13 12.9477 13 13.5Z" fill="#363538"/>
<path d="M17 14.5C17.5523 14.5 18 14.0523 18 13.5C18 12.9477 17.5523 12.5 17 12.5C16.4477 12.5 16 12.9477 16 13.5C16 14.0523 16.4477 14.5 17 14.5Z" fill="#363538"/>
<path d="M8 17C8 17.5523 7.55228 18 7 18C6.44772 18 6 17.5523 6 17C6 16.4477 6.44772 16 7 16C7.55228 16 8 16.4477 8 17Z" fill="#363538"/>
<path d="M12 18C12.5523 18 13 17.5523 13 17C13 16.4477 12.5523 16 12 16C11.4477 16 11 16.4477 11 17C11 17.5523 11.4477 18 12 18Z" fill="#363538"/>
</svg>
