<svg width="24" height="24" viewBox="0 0 24 24" fill="none" xmlns="http://www.w3.org/2000/svg">
<path d="M7 2.25C7.41421 2.25 7.75 2.58579 7.75 3H16.25C16.25 2.58579 16.5858 2.25 17 2.25C17.4142 2.25 17.75 2.58579 17.75 3H18C20.2091 3 22 4.79086 22 7V13.25C22 13.6642 21.6642 14 21.25 14C20.8358 14 20.5 13.6642 20.5 13.25V7C20.5 5.61929 19.3807 4.5 18 4.5H17.75V6C17.75 6.41421 17.4142 6.75 17 6.75C16.5858 6.75 16.25 6.41421 16.25 6V4.5H7.75V6C7.75 6.41421 7.41421 6.75 7 6.75C6.58579 6.75 6.25 6.41421 6.25 6V4.5H6C4.61929 4.5 3.5 5.61929 3.5 7V18C3.5 19.3807 4.61929 20.5 6 20.5H13.25C13.6642 20.5 14 20.8358 14 21.25C14 21.6642 13.6642 22 13.25 22H6C3.79086 22 2 20.2091 2 18V7C2 4.79086 3.79086 3 6 3H6.25C6.25 2.58579 6.58579 2.25 7 2.25Z" fill="#363538"/>
<path d="M8 10C8 10.5523 7.55228 11 7 11C6.44772 11 6 10.5523 6 10C6 9.44772 6.44772 9 7 9C7.55228 9 8 9.44772 8 10Z" fill="#363538"/>
<path d="M12 11C12.5523 11 13 10.5523 13 10C13 9.44772 12.5523 9 12 9C11.4477 9 11 9.44772 11 10C11 10.5523 11.4477 11 12 11Z" fill="#363538"/>
<path d="M18 10C18 10.5523 17.5523 11 17 11C16.4477 11 16 10.5523 16 10C16 9.44772 16.4477 9 17 9C17.5523 9 18 9.44772 18 10Z" fill="#363538"/>
<path d="M7 14.5C7.55228 14.5 8 14.0523 8 13.5C8 12.9477 7.55228 12.5 7 12.5C6.44772 12.5 6 12.9477 6 13.5C6 14.0523 6.44772 14.5 7 14.5Z" fill="#363538"/>
<path d="M13 13.5C13 14.0523 12.5523 14.5 12 14.5C11.4477 14.5 11 14.0523 11 13.5C11 12.9477 11.4477 12.5 12 12.5C12.5523 12.5 13 12.9477 13 13.5Z" fill="#363538"/>
<path d="M18 13.5L18 13.5077C17.9173 13.5026 17.834 13.5 17.75 13.5C17.15 13.5 16.5809 13.6321 16.0702 13.8688C16.0249 13.7547 16 13.6302 16 13.5C16 12.9477 16.4477 12.5 17 12.5C17.5523 12.5 18 12.9477 18 13.5Z" fill="#363538"/>
<path d="M8 17C8 17.5523 7.55228 18 7 18C6.44772 18 6 17.5523 6 17C6 16.4477 6.44772 16 7 16C7.55228 16 8 16.4477 8 17Z" fill="#363538"/>
<path d="M12 18C12.5523 18 13 17.5523 13 17C13 16.4477 12.5523 16 12 16C11.4477 16 11 16.4477 11 17C11 17.5523 11.4477 18 12 18Z" fill="#363538"/>
<path d="M18.75 17C18.75 16.5858 18.4142 16.25 18 16.25C17.5858 16.25 17.25 16.5858 17.25 17V18.4C17.25 18.8142 17.5858 19.15 18 19.15H19C19.4142 19.15 19.75 18.8142 19.75 18.4C19.75 17.9858 19.4142 17.65 19 17.65H18.75V17Z" fill="#363538"/>
<path fill-rule="evenodd" clip-rule="evenodd" d="M18 22C20.2091 22 22 20.2091 22 18C22 15.7909 20.2091 14 18 14C15.7909 14 14 15.7909 14 18C14 20.2091 15.7909 22 18 22ZM18 20.5C19.3807 20.5 20.5 19.3807 20.5 18C20.5 16.6193 19.3807 15.5 18 15.5C16.6193 15.5 15.5 16.6193 15.5 18C15.5 19.3807 16.6193 20.5 18 20.5Z" fill="#363538"/>
</svg>
