<svg width="24" height="24" viewBox="0 0 24 24" fill="none" xmlns="http://www.w3.org/2000/svg">
<path d="M7 2.25C7.41421 2.25 7.75 2.58579 7.75 3H16.25C16.25 2.58579 16.5858 2.25 17 2.25C17.4142 2.25 17.75 2.58579 17.75 3H18C20.2091 3 22 4.79086 22 7V12.25C22 12.6642 21.6642 13 21.25 13C20.8358 13 20.5 12.6642 20.5 12.25V7C20.5 5.61929 19.3807 4.5 18 4.5H17.75V6C17.75 6.41421 17.4142 6.75 17 6.75C16.5858 6.75 16.25 6.41421 16.25 6V4.5H7.75V6C7.75 6.41421 7.41421 6.75 7 6.75C6.58579 6.75 6.25 6.41421 6.25 6V4.5H6C4.61929 4.5 3.5 5.61929 3.5 7V18C3.5 19.3807 4.61929 20.5 6 20.5H12.25C12.6642 20.5 13 20.8358 13 21.25C13 21.6642 12.6642 22 12.25 22H6C3.79086 22 2 20.2091 2 18V7C2 4.79086 3.79086 3 6 3H6.25C6.25 2.58579 6.58579 2.25 7 2.25Z" fill="#363538"/>
<path d="M8 10C8 10.5523 7.55228 11 7 11C6.44772 11 6 10.5523 6 10C6 9.44772 6.44772 9 7 9C7.55228 9 8 9.44772 8 10Z" fill="#363538"/>
<path d="M12 11C12.5523 11 13 10.5523 13 10C13 9.44772 12.5523 9 12 9C11.4477 9 11 9.44772 11 10C11 10.5523 11.4477 11 12 11Z" fill="#363538"/>
<path d="M18 10C18 10.5523 17.5523 11 17 11C16.4477 11 16 10.5523 16 10C16 9.44772 16.4477 9 17 9C17.5523 9 18 9.44772 18 10Z" fill="#363538"/>
<path d="M7 14.5C7.55228 14.5 8 14.0523 8 13.5C8 12.9477 7.55228 12.5 7 12.5C6.44772 12.5 6 12.9477 6 13.5C6 14.0523 6.44772 14.5 7 14.5Z" fill="#363538"/>
<path d="M13 13.5C13 14.0523 12.5523 14.5 12 14.5C11.4477 14.5 11 14.0523 11 13.5C11 12.9477 11.4477 12.5 12 12.5C12.5523 12.5 13 12.9477 13 13.5Z" fill="#363538"/>
<path d="M18 13.5C18 13.5103 17.9998 13.5206 17.9995 13.5309C17.8359 13.5105 17.6692 13.5 17.5 13.5C16.9842 13.5 16.4912 13.5976 16.0384 13.7754C16.0134 13.6879 16 13.5955 16 13.5C16 12.9477 16.4477 12.5 17 12.5C17.5523 12.5 18 12.9477 18 13.5Z" fill="#363538"/>
<path d="M8 17C8 17.5523 7.55228 18 7 18C6.44772 18 6 17.5523 6 17C6 16.4477 6.44772 16 7 16C7.55228 16 8 16.4477 8 17Z" fill="#363538"/>
<path d="M12 18C12.5523 18 13 17.5523 13 17C13 16.4477 12.5523 16 12 16C11.4477 16 11 16.4477 11 17C11 17.5523 11.4477 18 12 18Z" fill="#363538"/>
<path d="M12.9399 19.2972C12.647 19.0043 12.647 18.5294 12.9399 18.2365L13.8008 17.3756C14.0937 17.0827 14.5686 17.0827 14.8615 17.3756L15.7224 18.2365C16.0153 18.5294 16.0153 19.0043 15.7224 19.2972C15.6034 19.4162 15.4544 19.4869 15.2997 19.5092C15.7125 20.4671 16.6653 21.1377 17.7746 21.1377C18.4696 21.1377 19.1015 20.8755 19.5798 20.4435C19.8871 20.1658 20.3614 20.1899 20.639 20.4972C20.9167 20.8046 20.8927 21.2788 20.5853 21.5565C19.8422 22.2279 18.8554 22.6377 17.7746 22.6377C15.8153 22.6377 14.1698 21.2941 13.7093 19.4779C13.448 19.5655 13.148 19.5053 12.9399 19.2972Z" fill="#363538"/>
<path d="M22.5794 17.5908C22.8723 17.8837 22.8723 18.3585 22.5794 18.6514L21.7185 19.5124C21.4256 19.8053 20.9507 19.8053 20.6578 19.5124L19.7969 18.6514C19.504 18.3585 19.504 17.8837 19.7969 17.5908C19.9159 17.4717 20.065 17.4011 20.2197 17.3788C19.8069 16.4207 18.8541 15.75 17.7446 15.75C17.0733 15.75 16.4609 15.9946 15.989 16.4006C15.675 16.6707 15.2015 16.6351 14.9314 16.3211C14.6612 16.0071 14.6968 15.5335 15.0108 15.2634C15.7446 14.6322 16.7009 14.25 17.7446 14.25C19.704 14.25 21.3496 15.5938 21.81 17.41C22.0713 17.3224 22.3713 17.3827 22.5794 17.5908Z" fill="#363538"/>
</svg>
