<svg width="24" height="24" viewBox="0 0 24 24" fill="none" xmlns="http://www.w3.org/2000/svg">
<path fill-rule="evenodd" clip-rule="evenodd" d="M19.7285 14.0088L19.8623 14.0303L20.7412 14.2236L20.8584 14.2559C21.3951 14.4281 21.7778 14.9368 21.749 15.5225L21.7363 15.6494L21.6494 16.2275C21.6038 16.5326 21.448 16.8065 21.2178 17.0029L19.9775 18.0596L20.4912 20.7803L20.5127 20.959C20.528 21.3144 20.3902 21.6555 20.1426 21.9033L20.0098 22.0195L19.7227 22.2363C19.1243 22.6893 18.2432 22.5466 17.8359 21.8955L16.8545 20.3271L14.377 21.7178C13.9823 21.9391 13.498 21.9395 13.1025 21.7197L10.9062 20.499C10.2896 20.1562 10.0551 19.3717 10.4297 18.7471L10.6738 18.3389L10.7344 18.248C11.0317 17.8364 11.5422 17.6453 12.0293 17.7373L12.1338 17.7617L13.3066 18.085L18.834 14.2334L18.9502 14.1621C19.188 14.0311 19.4605 13.9783 19.7285 14.0088ZM14.0908 19.3682C13.811 19.5632 13.4676 19.639 13.1367 19.5859L12.9961 19.5557L11.8779 19.2471L11.8438 19.3047L13.7363 20.3564L16.2842 18.9277L16.3975 18.8711C16.9348 18.6352 17.5814 18.7855 17.9482 19.2588L18.0225 19.3652L18.9883 20.9102L18.9893 20.9092L18.4785 18.1992C18.3936 17.7492 18.5615 17.2976 18.9023 17.0068L20.1787 15.916L20.2197 15.6455L19.6201 15.5127L14.0908 19.3682Z" fill="#363538"/>
<path d="M17 2.25C17.4142 2.25 17.75 2.58579 17.75 3H18C20.2091 3 22 4.79086 22 7V11.25C22 11.6642 21.6642 12 21.25 12C20.8358 12 20.5 11.6642 20.5 11.25V7C20.5 5.61929 19.3807 4.5 18 4.5H17.75V6C17.75 6.41421 17.4142 6.75 17 6.75C16.5858 6.75 16.25 6.41421 16.25 6V4.5H7.75V6C7.75 6.41421 7.41421 6.75 7 6.75C6.58579 6.75 6.25 6.41421 6.25 6V4.5H6C4.61929 4.5 3.5 5.61929 3.5 7V18C3.5 19.3807 4.61929 20.5 6 20.5H9.25C9.66421 20.5 10 20.8358 10 21.25C10 21.6642 9.66421 22 9.25 22H6C3.85996 22 2.11211 20.3194 2.00488 18.2061L2 18V7C2 4.85996 3.68056 3.11211 5.79395 3.00488L6 3H6.25C6.25 2.58579 6.58579 2.25 7 2.25C7.41421 2.25 7.75 2.58579 7.75 3H16.25C16.25 2.58579 16.5858 2.25 17 2.25Z" fill="#363538"/>
<path d="M7 16C7.55228 16 8 16.4477 8 17C8 17.5523 7.55228 18 7 18C6.44772 18 6 17.5523 6 17C6 16.4477 6.44772 16 7 16Z" fill="#363538"/>
<path d="M7 12.5C7.55228 12.5 8 12.9477 8 13.5C8 14.0523 7.55228 14.5 7 14.5C6.44772 14.5 6 14.0523 6 13.5C6 12.9477 6.44772 12.5 7 12.5Z" fill="#363538"/>
<path d="M12 12.5C12.5523 12.5 13 12.9477 13 13.5C13 14.0523 12.5523 14.5 12 14.5C11.4477 14.5 11 14.0523 11 13.5C11 12.9477 11.4477 12.5 12 12.5Z" fill="#363538"/>
<path d="M17 12.5C17.5523 12.5 18 12.9477 18 13.5C18 14.0523 17.5523 14.5 17 14.5C16.4477 14.5 16 14.0523 16 13.5C16 12.9477 16.4477 12.5 17 12.5Z" fill="#363538"/>
<path d="M7 9C7.55228 9 8 9.44772 8 10C8 10.5523 7.55228 11 7 11C6.44772 11 6 10.5523 6 10C6 9.44772 6.44772 9 7 9Z" fill="#363538"/>
<path d="M12 9C12.5523 9 13 9.44772 13 10C13 10.5523 12.5523 11 12 11C11.4477 11 11 10.5523 11 10C11 9.44772 11.4477 9 12 9Z" fill="#363538"/>
<path d="M17 9C17.5523 9 18 9.44772 18 10C18 10.5523 17.5523 11 17 11C16.4477 11 16 10.5523 16 10C16 9.44772 16.4477 9 17 9Z" fill="#363538"/>
</svg>
