<svg width="24" height="24" viewBox="0 0 24 24" fill="none" xmlns="http://www.w3.org/2000/svg">
<path d="M7.75 3C7.75 2.58579 7.41421 2.25 7 2.25C6.58579 2.25 6.25 2.58579 6.25 3H6C3.79086 3 2 4.79086 2 7V18C2 20.2091 3.79086 22 6 22H13.25C13.6642 22 14 21.6642 14 21.25C14 20.8358 13.6642 20.5 13.25 20.5H6C4.61929 20.5 3.5 19.3807 3.5 18V7C3.5 5.61929 4.61929 4.5 6 4.5H6.25V6C6.25 6.41421 6.58579 6.75 7 6.75C7.41421 6.75 7.75 6.41421 7.75 6V4.5H16.25V6C16.25 6.41421 16.5858 6.75 17 6.75C17.4142 6.75 17.75 6.41421 17.75 6V4.5H18C19.3807 4.5 20.5 5.61929 20.5 7V13.25C20.5 13.6642 20.8358 14 21.25 14C21.6642 14 22 13.6642 22 13.25V7C22 4.79086 20.2091 3 18 3H17.75C17.75 2.58579 17.4142 2.25 17 2.25C16.5858 2.25 16.25 2.58579 16.25 3H7.75Z" fill="#363538"/>
<path d="M19.0541 21.5065L22.0303 18.5303C22.3232 18.2374 22.3232 17.7626 22.0303 17.4697C21.7374 17.1768 21.2626 17.1768 20.9697 17.4697L18.5056 19.9337L17.5115 19.0066C17.2086 18.7241 16.734 18.7407 16.4515 19.0436C16.169 19.3465 16.1856 19.8211 16.4885 20.1036L18.0123 21.5247C18.3078 21.8003 18.7684 21.7922 19.0541 21.5065Z" fill="#363538"/>
<path d="M8 10C8 10.5523 7.55228 11 7 11C6.44772 11 6 10.5523 6 10C6 9.44771 6.44772 9 7 9C7.55228 9 8 9.44771 8 10Z" fill="#363538"/>
<path d="M12 11C12.5523 11 13 10.5523 13 10C13 9.44771 12.5523 9 12 9C11.4477 9 11 9.44771 11 10C11 10.5523 11.4477 11 12 11Z" fill="#363538"/>
<path d="M18 10C18 10.5523 17.5523 11 17 11C16.4477 11 16 10.5523 16 10C16 9.44771 16.4477 9 17 9C17.5523 9 18 9.44771 18 10Z" fill="#363538"/>
<path d="M7 14.5C7.55228 14.5 8 14.0523 8 13.5C8 12.9477 7.55228 12.5 7 12.5C6.44772 12.5 6 12.9477 6 13.5C6 14.0523 6.44772 14.5 7 14.5Z" fill="#363538"/>
<path d="M13 13.5C13 14.0523 12.5523 14.5 12 14.5C11.4477 14.5 11 14.0523 11 13.5C11 12.9477 11.4477 12.5 12 12.5C12.5523 12.5 13 12.9477 13 13.5Z" fill="#363538"/>
<path d="M17 14.5C17.5523 14.5 18 14.0523 18 13.5C18 12.9477 17.5523 12.5 17 12.5C16.4477 12.5 16 12.9477 16 13.5C16 14.0523 16.4477 14.5 17 14.5Z" fill="#363538"/>
<path d="M8 17C8 17.5523 7.55228 18 7 18C6.44772 18 6 17.5523 6 17C6 16.4477 6.44772 16 7 16C7.55228 16 8 16.4477 8 17Z" fill="#363538"/>
<path d="M12 18C12.5523 18 13 17.5523 13 17C13 16.4477 12.5523 16 12 16C11.4477 16 11 16.4477 11 17C11 17.5523 11.4477 18 12 18Z" fill="#363538"/>
</svg>
