<svg width="24" height="24" viewBox="0 0 24 24" fill="none" xmlns="http://www.w3.org/2000/svg">
<path fill-rule="evenodd" clip-rule="evenodd" d="M3.91694 4.48188L3.05751 6.20075C2.36726 7.58124 2.07403 9.14538 2.57702 10.6046C3.1812 12.3573 4.38918 14.8692 6.76 17.24C9.13081 19.6108 11.6427 20.8188 13.3954 21.423C14.8546 21.9259 16.4187 21.6327 17.7992 20.9425L19.5756 20.0543C20.7798 19.4522 21.0571 17.8562 20.1265 16.8831L18.1671 14.8343C17.4805 14.1163 16.3676 14.0196 15.5674 14.6084C14.6701 15.2686 13.4702 15.3812 12.5296 14.7841C11.9684 14.4279 11.3711 14.0026 10.9474 13.5789C10.4557 13.0873 9.96206 12.362 9.57646 11.7304C9.08392 10.9237 9.09095 9.92333 9.51365 9.07793L9.77638 8.55247C10.1614 7.78249 10.0105 6.85255 9.40174 6.24383L7.12001 3.96209C6.15472 2.99681 4.52744 3.26088 3.91694 4.48188ZM5.25858 5.1527L4.39915 6.87157C3.82344 8.02299 3.66474 9.15725 3.99513 10.1157C4.54357 11.7067 5.64662 14.0053 7.82066 16.1793C9.9947 18.3534 12.2932 19.4564 13.8843 20.0048C14.8427 20.3352 15.977 20.1765 17.1284 19.6008L18.9047 18.7127C19.2058 18.5621 19.2751 18.1631 19.0425 17.9199L17.083 15.871C16.9175 15.6979 16.6493 15.6746 16.4564 15.8166C15.1278 16.7941 13.2556 17.0216 11.7258 16.0505C11.1366 15.6765 10.4284 15.1813 9.88671 14.6396C9.26385 14.0167 8.69493 13.1651 8.29622 12.5121C7.50293 11.2128 7.54637 9.6584 8.17201 8.40711L8.43474 7.88165C8.53099 7.68915 8.49326 7.45667 8.34108 7.30449L6.05935 5.02275C5.81803 4.78143 5.41121 4.84745 5.25858 5.1527Z" fill="#363538"/>
<path d="M15.5356 8.1213C14.8821 7.46779 14.088 7.1159 13.485 7.20204C13.2116 7.24109 12.9583 7.05114 12.9193 6.77777C12.8802 6.5044 13.0702 6.25114 13.3436 6.21209C14.3904 6.06255 15.482 6.65347 16.2427 7.41419C17.0034 8.17491 17.5943 9.26648 17.4447 10.3133C17.4057 10.5867 17.1524 10.7767 16.8791 10.7376C16.6057 10.6985 16.4157 10.4453 16.4548 10.1719C16.5409 9.56885 16.1891 8.7748 15.5356 8.1213Z" fill="#363538"/>
<path d="M12.8845 9.29589C13.8485 8.93023 14.7266 9.80836 14.3609 10.7724C14.263 11.0306 14.3929 11.3193 14.6511 11.4172C14.9093 11.5152 15.198 11.3853 15.2959 11.1271C15.9674 9.35695 14.2999 7.68949 12.5298 8.36089C12.2716 8.45882 12.1417 8.74752 12.2397 9.00571C12.3376 9.2639 12.6263 9.39382 12.8845 9.29589Z" fill="#363538"/>
</svg>
