<svg width="24" height="24" viewBox="0 0 24 24" fill="none" xmlns="http://www.w3.org/2000/svg">
<path d="M15.5677 15.2435C16.3678 14.6295 17.4807 14.73 18.1673 15.4789L20.1263 17.6168C21.0566 18.6321 20.7794 20.2981 19.5755 20.9266L17.7991 21.8529C16.505 22.528 15.0493 22.839 13.6702 22.4429L13.3958 22.3542C12.0566 21.8725 10.2745 21.0223 8.45049 19.5448L9.51983 18.4289C11.1374 19.708 12.705 20.4504 13.8841 20.8746C14.8424 21.2192 15.977 21.0533 17.1282 20.4527L18.9046 19.5264C19.2053 19.3692 19.2747 18.9527 19.0423 18.699L17.0833 16.5611C16.9179 16.3806 16.6492 16.3562 16.4563 16.504C15.1279 17.5239 13.2556 17.7616 11.7259 16.7486C11.6097 16.6716 11.4897 16.5882 11.3665 16.502L12.4495 15.3719C12.4764 15.3899 12.5028 15.4092 12.5296 15.4269C13.4113 16.0108 14.5212 15.9439 15.3958 15.3658L15.5677 15.2435Z" fill="#363538"/>
<path fill-rule="evenodd" clip-rule="evenodd" d="M3.91729 4.67623C4.52803 3.40276 6.1553 3.12711 7.12041 4.13411L9.40166 6.51556C10.0102 7.15069 10.1615 8.1212 9.77666 8.92453L9.51397 9.47276L9.43975 9.63988C9.09251 10.4845 9.11477 11.4513 9.57647 12.2404C9.77016 12.5715 9.99319 12.9256 10.2278 13.2625L17.6116 5.5587C17.9044 5.25328 18.3793 5.25352 18.6722 5.5587C18.9651 5.86433 18.9651 6.36075 18.6722 6.66638L4.53057 21.4228C4.2377 21.7284 3.76292 21.7284 3.47002 21.4228C3.17713 21.1172 3.17713 20.6218 3.47002 20.3162L6.24151 17.4232C4.34786 15.2768 3.28502 13.0751 2.69756 11.4171L2.57744 11.0655C2.10594 9.63816 2.3339 8.11455 2.93291 6.7428L3.05791 6.47073L3.91729 4.67623ZM6.05986 5.24077C5.81871 4.98921 5.41195 5.05839 5.25908 5.3763L4.39971 7.16977C3.82411 8.37105 3.66522 9.55493 3.99541 10.555C4.49839 12.0775 5.4688 14.2206 7.30303 16.3155L9.15654 14.3814C8.82717 13.9278 8.5309 13.4568 8.29619 13.0556C7.50319 11.7 7.54666 10.0782 8.17217 8.7727L8.43486 8.22446C8.53092 8.02372 8.49309 7.78095 8.34111 7.62222L6.05986 5.24077Z" fill="#363538"/>
</svg>
