<svg width="24" height="24" viewBox="0 0 24 24" fill="none" xmlns="http://www.w3.org/2000/svg">
<path fill-rule="evenodd" clip-rule="evenodd" d="M3.91706 4.48188L3.05763 6.20075C2.36738 7.58124 2.07415 9.14538 2.57714 10.6046C3.18132 12.3573 4.38931 14.8692 6.76012 17.24C9.13093 19.6108 11.6428 20.8188 13.3955 21.423C14.8547 21.9259 16.4189 21.6327 17.7993 20.9425L19.5757 20.0543C20.7799 19.4522 21.0572 17.8562 20.1267 16.8831L18.1672 14.8343C17.4806 14.1163 16.3677 14.0196 15.5675 14.6084C14.6702 15.2686 13.4703 15.3812 12.5297 14.7841C11.9685 14.4279 11.3712 14.0026 10.9475 13.5789C10.4558 13.0873 9.96218 12.362 9.57658 11.7304C9.08404 10.9237 9.09107 9.92333 9.51377 9.07793L9.77651 8.55247C10.1615 7.78249 10.0106 6.85255 9.40187 6.24383L7.12013 3.96209C6.15485 2.99681 4.52756 3.26088 3.91706 4.48188ZM5.2587 5.1527L4.39927 6.87157C3.82356 8.02299 3.66486 9.15725 3.99525 10.1157C4.54369 11.7067 5.64674 14.0053 7.82078 16.1793C9.99482 18.3534 12.2934 19.4564 13.8844 20.0048C14.8428 20.3352 15.9771 20.1765 17.1285 19.6008L18.9049 18.7127C19.2059 18.5621 19.2752 18.1631 19.0426 17.9199L17.0832 15.871C16.9176 15.6979 16.6494 15.6746 16.4565 15.8166C15.128 16.7941 13.2557 17.0216 11.7259 16.0505C11.1367 15.6765 10.4285 15.1813 9.88683 14.6396C9.26397 14.0167 8.69505 13.1651 8.29634 12.5121C7.50305 11.2128 7.54649 9.6584 8.17213 8.40711L8.43486 7.88165C8.53111 7.68915 8.49338 7.45667 8.34121 7.30449L6.05947 5.02275C5.81815 4.78143 5.41133 4.84745 5.2587 5.1527Z" fill="#363538"/>
<path fill-rule="evenodd" clip-rule="evenodd" d="M16 12C18.2091 12 20 10.2091 20 7.99998C20 5.79085 18.2091 3.99998 16 3.99998C13.7909 3.99998 12 5.79085 12 7.99998C12 10.2091 13.7909 12 16 12ZM16 10.5C17.3807 10.5 18.5 9.3807 18.5 7.99998C18.5 7.58276 18.3978 7.1894 18.2171 6.84359L14.8436 10.217C15.1894 10.3978 15.5828 10.5 16 10.5ZM17.1564 5.78293C16.8106 5.60219 16.4172 5.49998 16 5.49998C14.6193 5.49998 13.5 6.61927 13.5 7.99998C13.5 8.41721 13.6022 8.81057 13.7829 9.15638L17.1564 5.78293Z" fill="#363538"/>
</svg>
