<svg width="24" height="24" viewBox="0 0 24 24" fill="none" xmlns="http://www.w3.org/2000/svg">
<path fill-rule="evenodd" clip-rule="evenodd" d="M3.91706 4.48188L3.05763 6.20075C2.36738 7.58124 2.07415 9.14538 2.57714 10.6046C3.18132 12.3573 4.38931 14.8692 6.76012 17.24C9.13093 19.6108 11.6428 20.8188 13.3955 21.423C14.8547 21.9259 16.4189 21.6327 17.7993 20.9425L19.5757 20.0543C20.7799 19.4522 21.0572 17.8562 20.1267 16.8831L18.1672 14.8343C17.4806 14.1163 16.3677 14.0196 15.5675 14.6084C14.6702 15.2686 13.4703 15.3812 12.5297 14.7841C11.9685 14.4279 11.3712 14.0026 10.9475 13.5789C10.4558 13.0873 9.96218 12.362 9.57658 11.7304C9.08404 10.9237 9.09107 9.92333 9.51377 9.07793L9.77651 8.55247C10.1615 7.78249 10.0106 6.85255 9.40187 6.24383L7.12013 3.96209C6.15485 2.99681 4.52756 3.26088 3.91706 4.48188ZM5.2587 5.1527L4.39927 6.87157C3.82356 8.02299 3.66486 9.15725 3.99525 10.1157C4.54369 11.7067 5.64674 14.0053 7.82078 16.1793C9.99482 18.3534 12.2934 19.4564 13.8844 20.0048C14.8428 20.3352 15.9771 20.1765 17.1285 19.6008L18.9049 18.7127C19.2059 18.5621 19.2752 18.1631 19.0426 17.9199L17.0832 15.871C16.9176 15.6979 16.6494 15.6746 16.4565 15.8166C15.128 16.7941 13.2557 17.0216 11.7259 16.0505C11.1367 15.6765 10.4285 15.1813 9.88683 14.6396C9.26397 14.0167 8.69505 13.1651 8.29634 12.5121C7.50305 11.2128 7.54649 9.6584 8.17213 8.40711L8.43486 7.88165C8.53111 7.68915 8.49338 7.45667 8.34121 7.30449L6.05947 5.02275C5.81815 4.78143 5.41133 4.84745 5.2587 5.1527Z" fill="#363538"/>
<path d="M12.4697 11.5303C12.7626 11.8232 13.2374 11.8232 13.5303 11.5303L16.4926 8.568V9.58572C16.4926 9.99993 16.8284 10.3357 17.2426 10.3357C17.6569 10.3357 17.9926 9.99993 17.9926 9.58572V6.75729C17.9926 6.34308 17.6569 6.00729 17.2426 6.00729H14.4142C14 6.00729 13.6642 6.34308 13.6642 6.75729C13.6642 7.1715 14 7.50729 14.4142 7.50729H15.432L12.4697 10.4697C12.1768 10.7625 12.1768 11.2374 12.4697 11.5303Z" fill="#363538"/>
</svg>
