<svg width="24" height="24" viewBox="0 0 24 24" fill="none" xmlns="http://www.w3.org/2000/svg">
<path fill-rule="evenodd" clip-rule="evenodd" d="M3.05763 6.20075L3.91706 4.48188C4.52756 3.26088 6.15485 2.99681 7.12013 3.96209L9.40187 6.24383C10.0106 6.85255 10.1615 7.78249 9.77651 8.55247L9.51377 9.07793C9.09107 9.92333 9.08404 10.9237 9.57658 11.7304C9.96218 12.362 10.4558 13.0873 10.9475 13.5789C11.3712 14.0026 11.9685 14.4279 12.5297 14.7841C13.4703 15.3812 14.6702 15.2686 15.5675 14.6084C16.3677 14.0196 17.4806 14.1163 18.1672 14.8343L20.1267 16.8831C21.0572 17.8562 20.7799 19.4522 19.5757 20.0543L17.7993 20.9425C16.4189 21.6327 14.8547 21.9259 13.3955 21.423C11.6428 20.8188 9.13093 19.6108 6.76012 17.24C4.38931 14.8692 3.18132 12.3573 2.57714 10.6046C2.07415 9.14538 2.36738 7.58124 3.05763 6.20075ZM4.39927 6.87157L5.2587 5.1527C5.41133 4.84745 5.81815 4.78143 6.05947 5.02275L8.34121 7.30449C8.49338 7.45667 8.53111 7.68915 8.43486 7.88165L8.17213 8.40711C7.54649 9.6584 7.50305 11.2128 8.29634 12.5121C8.69505 13.1651 9.26397 14.0167 9.88683 14.6396C10.4285 15.1813 11.1367 15.6765 11.7259 16.0505C13.2557 17.0216 15.128 16.7941 16.4565 15.8166C16.6494 15.6746 16.9176 15.6979 17.0832 15.871L19.0426 17.9199C19.2752 18.1631 19.2059 18.5621 18.9049 18.7127L17.1285 19.6008C15.9771 20.1765 14.8428 20.3352 13.8844 20.0048C12.2934 19.4564 9.99482 18.3534 7.82078 16.1793C5.64674 14.0053 4.54369 11.7067 3.99525 10.1157C3.66486 9.15725 3.82356 8.02299 4.39927 6.87157Z" fill="#363538"/>
<path d="M14.9445 6.88405C14.6517 6.59116 14.1768 6.59116 13.8839 6.88405C13.591 7.17695 13.591 7.65182 13.8839 7.94471L14.7678 8.8286L13.8839 9.71248C13.591 10.0054 13.591 10.4802 13.8839 10.7731C14.1768 11.066 14.6517 11.066 14.9445 10.7731L15.8284 9.88926L16.7123 10.7731C17.0052 11.066 17.4801 11.066 17.773 10.7731C18.0659 10.4802 18.0659 10.0054 17.773 9.71248L16.8891 8.8286L17.773 7.94471C18.0659 7.65182 18.0659 7.17695 17.773 6.88405C17.4801 6.59116 17.0052 6.59116 16.7123 6.88405L15.8284 7.76794L14.9445 6.88405Z" fill="#363538"/>
</svg>
