<svg width="24" height="24" viewBox="0 0 24 24" fill="none" xmlns="http://www.w3.org/2000/svg">
<path fill-rule="evenodd" clip-rule="evenodd" d="M3.05751 6.20075L3.91694 4.48188C4.52744 3.26088 6.15472 2.99681 7.12001 3.96209L9.40174 6.24383C10.0105 6.85255 10.1614 7.78249 9.77638 8.55247L9.51365 9.07793C9.09095 9.92333 9.08392 10.9237 9.57646 11.7304C9.96206 12.362 10.4557 13.0873 10.9474 13.5789C11.3711 14.0026 11.9684 14.4279 12.5296 14.7841C13.4702 15.3812 14.6701 15.2686 15.5674 14.6084C16.3676 14.0196 17.4805 14.1163 18.1671 14.8343L20.1265 16.8831C21.0571 17.8562 20.7798 19.4522 19.5756 20.0543L17.7992 20.9425C16.4187 21.6327 14.8546 21.9259 13.3954 21.423C11.6427 20.8188 9.13081 19.6108 6.76 17.24C4.38918 14.8692 3.1812 12.3573 2.57702 10.6046C2.07403 9.14538 2.36726 7.58124 3.05751 6.20075ZM4.39915 6.87157L5.25858 5.1527C5.41121 4.84745 5.81803 4.78143 6.05935 5.02275L8.34108 7.30449C8.49326 7.45667 8.53099 7.68915 8.43474 7.88165L8.17201 8.40711C7.54637 9.6584 7.50293 11.2128 8.29622 12.5121C8.69493 13.1651 9.26385 14.0167 9.88671 14.6396C10.4284 15.1813 11.1366 15.6765 11.7258 16.0505C13.2556 17.0216 15.1278 16.7941 16.4564 15.8166C16.6493 15.6746 16.9175 15.6979 17.083 15.871L19.0425 17.9199C19.2751 18.1631 19.2058 18.5621 18.9047 18.7127L17.1284 19.6008C15.977 20.1765 14.8427 20.3352 13.8843 20.0048C12.2932 19.4564 9.9947 18.3534 7.82066 16.1793C5.64662 14.0053 4.54357 11.7067 3.99513 10.1157C3.66474 9.15725 3.82344 8.02299 4.39915 6.87157Z" fill="#363538"/>
</svg>
