<svg width="24" height="24" viewBox="0 0 24 24" fill="none" xmlns="http://www.w3.org/2000/svg">
<path fill-rule="evenodd" clip-rule="evenodd" d="M12 2C17.5228 2 22 6.47715 22 12C22 17.5228 17.5228 22 12 22C6.47715 22 2 17.5228 2 12C2 6.47715 6.47715 2 12 2ZM14.25 15C14.1303 15.09 14.0043 15.1717 13.874 15.2471L7.26855 19.0605C8.6212 19.9688 10.2483 20.5 12 20.5C12.7792 20.5 13.5331 20.3926 14.25 20.1963V15ZM15.7217 11.5508C15.7393 11.6981 15.75 11.8479 15.75 12V19.6289C17.9392 18.5508 19.5966 16.5589 20.2246 14.1504L15.7217 11.5508ZM3.52051 11.4336C3.50819 11.6208 3.5 11.8096 3.5 12C3.5 14.3656 4.46688 16.5049 6.02637 18.0459L10.5254 15.4482C10.3626 15.3785 10.2056 15.2981 10.0557 15.207L3.52051 11.4336ZM12 9.75C10.7574 9.75 9.75 10.7574 9.75 12C9.75 13.2426 10.7574 14.25 12 14.25C13.2426 14.25 14.25 13.2426 14.25 12C14.25 10.7574 13.2426 9.75 12 9.75ZM13.4736 8.55078C13.6075 8.60803 13.737 8.67328 13.8623 8.74512C13.8665 8.74743 13.8708 8.74955 13.875 8.75195L20.4785 12.5645C20.4908 12.3778 20.5 12.1897 20.5 12C20.5 9.63391 19.5327 7.49416 17.9727 5.95312L13.4736 8.55078ZM8.25 4.37012C6.0608 5.44813 4.40257 7.44026 3.77441 9.84863L8.27734 12.4482C8.25983 12.3012 8.25 12.1517 8.25 12V4.37012ZM12 3.5C11.2209 3.5 10.4668 3.60644 9.75 3.80273V8.99902C9.86534 8.91241 9.98622 8.83284 10.1113 8.75977C10.1158 8.75707 10.1205 8.75457 10.125 8.75195L16.7305 4.9375C15.3781 4.02991 13.751 3.5 12 3.5Z" fill="#363538"/>
</svg>
