<svg width="24" height="24" viewBox="0 0 24 24" fill="none" xmlns="http://www.w3.org/2000/svg">
<path fill-rule="evenodd" clip-rule="evenodd" d="M12 17C14.2091 17 16 15.2091 16 13C16 10.7909 14.2091 9 12 9C9.79086 9 8 10.7909 8 13C8 15.2091 9.79086 17 12 17ZM12 15.5C13.3807 15.5 14.5 14.3807 14.5 13C14.5 11.6193 13.3807 10.5 12 10.5C10.6193 10.5 9.5 11.6193 9.5 13C9.5 14.3807 10.6193 15.5 12 15.5Z" fill="#363538"/>
<path d="M16 9C16.5523 9 17 8.55228 17 8C17 7.44772 16.5523 7 16 7C15.4477 7 15 7.44772 15 8C15 8.55228 15.4477 9 16 9Z" fill="#363538"/>
<path fill-rule="evenodd" clip-rule="evenodd" d="M18.0387 5.42127C18.4444 6.03738 19.0538 6.49115 19.7604 6.70312C21.0897 7.10191 22 8.3254 22 9.7132V17C22 19.2091 20.2091 21 18 21H6C3.79086 21 2 19.2091 2 17V9.7132C2 8.3254 2.91031 7.10191 4.23959 6.70312C4.94615 6.49115 5.55563 6.03738 5.9613 5.42127L6.37019 4.80027C7.11014 3.67648 8.36551 3 9.71103 3H14.289C15.6345 3 16.8899 3.67648 17.6298 4.80027L18.0387 5.42127ZM18 19.5C19.3807 19.5 20.5 18.3807 20.5 17V9.7132C20.5 8.98781 20.0242 8.3483 19.3294 8.13986C18.2856 7.82672 17.3852 7.15636 16.7859 6.24617L16.377 5.62517C15.9145 4.9228 15.1299 4.5 14.289 4.5H9.71103C8.87008 4.5 8.08547 4.9228 7.62301 5.62517L7.21412 6.24617C6.61482 7.15636 5.71443 7.82672 4.67061 8.13986C3.97581 8.3483 3.5 8.98781 3.5 9.7132V17C3.5 18.3807 4.61929 19.5 6 19.5H18Z" fill="#363538"/>
</svg>
