<svg width="24" height="24" viewBox="0 0 24 24" fill="none" xmlns="http://www.w3.org/2000/svg">
<path d="M9 12.25C9.28109 12.25 9.53851 12.4072 9.66699 12.6572L10.0654 13.4336L10.8428 13.833C11.0928 13.9615 11.25 14.2189 11.25 14.5C11.25 14.7811 11.0928 15.0385 10.8428 15.167L10.0654 15.5654L9.66699 16.3428C9.53851 16.5928 9.28109 16.75 9 16.75C8.71891 16.75 8.46149 16.5928 8.33301 16.3428L7.93359 15.5654L7.15723 15.167C6.90722 15.0385 6.75 14.7811 6.75 14.5C6.75 14.2189 6.90722 13.9615 7.15723 13.833L7.93359 13.4336L8.33301 12.6572L8.38672 12.5684C8.52589 12.3705 8.75387 12.25 9 12.25Z" fill="#363538"/>
<path fill-rule="evenodd" clip-rule="evenodd" d="M13.5 8.25C13.7811 8.25 14.0385 8.40722 14.167 8.65723L14.7354 9.76367L15.8428 10.333C16.0928 10.4615 16.25 10.7189 16.25 11C16.25 11.2811 16.0928 11.5385 15.8428 11.667L14.7354 12.2354L14.167 13.3428C14.0385 13.5928 13.7811 13.75 13.5 13.75C13.2189 13.75 12.9615 13.5928 12.833 13.3428L12.2637 12.2354L11.1572 11.667C10.9072 11.5385 10.75 11.2811 10.75 11C10.75 10.7189 10.9072 10.4615 11.1572 10.333L12.2637 9.76367L12.833 8.65723L12.8867 8.56836C13.0259 8.37054 13.2539 8.25 13.5 8.25ZM13.4883 10.6641C13.4167 10.8033 13.3033 10.9167 13.1641 10.9883L13.1406 11L13.1641 11.0117L13.2637 11.0732C13.3575 11.1418 13.4347 11.2316 13.4883 11.3359L13.5 11.3584L13.5117 11.3359C13.5833 11.1967 13.6967 11.0833 13.8359 11.0117L13.8584 11L13.8359 10.9883C13.6967 10.9167 13.5833 10.8033 13.5117 10.6641L13.5 10.6406L13.4883 10.6641Z" fill="#363538"/>
<path fill-rule="evenodd" clip-rule="evenodd" d="M14.3232 3C15.6254 3 16.8351 3.67526 17.5176 4.78418L18.0352 5.62598C18.3028 6.06082 18.7483 6.35595 19.2529 6.43359C20.8334 6.67693 22 8.03758 22 9.63672V17.25C22 19.3211 20.3211 21 18.25 21H5.75C3.67893 21 2 19.3211 2 17.25V9.63672C2 8.03758 3.16659 6.67693 4.74707 6.43359C5.25174 6.35595 5.69722 6.06082 5.96484 5.62598L6.48242 4.78418C7.16494 3.67526 8.37462 3 9.67676 3H14.3232ZM9.67676 4.5C8.89549 4.5 8.16928 4.90498 7.75977 5.57031L7.24219 6.41211C6.74389 7.22177 5.91524 7.77143 4.97559 7.91602C4.12666 8.04662 3.5 8.77781 3.5 9.63672V17.25C3.5 18.4926 4.50736 19.5 5.75 19.5H18.25C19.4926 19.5 20.5 18.4926 20.5 17.25V9.63672C20.5 8.77781 19.8733 8.04662 19.0244 7.91602C18.0848 7.77143 17.2561 7.22177 16.7578 6.41211L16.2402 5.57031C15.8307 4.90498 15.1045 4.5 14.3232 4.5H9.67676Z" fill="#363538"/>
</svg>
