<svg width="24" height="24" viewBox="0 0 24 24" fill="none" xmlns="http://www.w3.org/2000/svg">
<path fill-rule="evenodd" clip-rule="evenodd" d="M20.4697 2.46956C20.7443 2.19503 21.1791 2.17752 21.4736 2.41781C21.4932 2.43381 21.512 2.45128 21.5303 2.46956C21.5485 2.48782 21.566 2.50662 21.582 2.5262C21.8063 2.80113 21.8063 3.19851 21.582 3.47347C21.566 3.49309 21.5486 3.51182 21.5303 3.53011L3.53027 21.5301C3.51201 21.5484 3.49322 21.5659 3.47363 21.5819C3.41469 21.63 3.34998 21.6677 3.28223 21.6952C3.0565 21.7867 2.79485 21.7642 2.58691 21.6268C2.56612 21.6131 2.54601 21.5979 2.52637 21.5819C2.50678 21.5659 2.48799 21.5484 2.46973 21.5301C2.45144 21.5118 2.43397 21.4931 2.41797 21.4735C2.19366 21.1985 2.1936 20.8012 2.41797 20.5262C2.43395 20.5066 2.45147 20.4878 2.46973 20.4696L2.73438 20.2049L3.14258 19.7957C2.43677 19.0745 2 18.0887 2 16.9998V9.71273C2.00019 8.4119 2.80003 7.25501 3.99512 6.78695L4.23926 6.70296C4.94581 6.49099 5.55527 6.03684 5.96094 5.42074L6.37012 4.79964C7.11008 3.67611 8.36561 2.99987 9.71094 2.99984H14.2891L14.54 3.00765C15.7892 3.08606 16.9361 3.7463 17.6299 4.79964L17.832 5.10628L20.4697 2.46956ZM9.71094 4.49984C8.87012 4.49987 8.08552 4.92264 7.62305 5.62484L7.21387 6.24593C6.61464 7.15598 5.71454 7.8263 4.6709 8.13949C3.97625 8.34788 3.5002 8.98753 3.5 9.71273V16.9998C3.5 17.6745 3.76872 18.2855 4.20312 18.7352L8.33496 14.6034C8.11989 14.1124 8 13.5701 8 12.9998C8.00008 10.7908 9.79091 8.99984 12 8.99984C12.5703 8.99984 13.1126 9.11971 13.6035 9.3348L16.749 6.18929L16.377 5.62484C15.9145 4.92264 15.1299 4.49987 14.2891 4.49984H9.71094ZM12 10.4998C10.6193 10.4998 9.50008 11.6192 9.5 12.9998C9.5 13.1372 9.51383 13.2718 9.53516 13.4032L12.4033 10.535C12.2719 10.5137 12.1375 10.4998 12 10.4998Z" fill="#363538"/>
<path d="M20.2725 6.90804C21.3175 7.43483 21.9998 8.51181 22 9.71273V16.9998C22 19.209 20.2091 20.9998 18 20.9998H6.18164L7.68164 19.4998H18C19.3807 19.4998 20.5 18.3805 20.5 16.9998V9.71273C20.4998 8.98752 20.0238 8.34788 19.3291 8.13949C19.2561 8.11758 19.1839 8.09356 19.1123 8.0682L20.2725 6.90804Z" fill="#363538"/>
<path d="M15.7002 11.4803C15.8928 11.9489 16 12.4618 16 12.9998C16 15.209 14.2091 16.9998 12 16.9998C11.4619 16.9998 10.9491 16.8927 10.4805 16.7L11.7002 15.4803C11.7986 15.4921 11.8985 15.4998 12 15.4998C13.3807 15.4998 14.5 14.3805 14.5 12.9998C14.5 12.8984 14.4922 12.7983 14.4805 12.7L15.7002 11.4803Z" fill="#363538"/>
</svg>
