<svg width="24" height="24" viewBox="0 0 24 24" fill="none" xmlns="http://www.w3.org/2000/svg">
<path fill-rule="evenodd" clip-rule="evenodd" d="M18.5 9.5V8.25H20.5C20.9142 8.25 21.25 7.91421 21.25 7.5C21.25 7.08579 20.9142 6.75 20.5 6.75H18.5V5.5C18.5 4.39543 17.6046 3.5 16.5 3.5H10.5C9.39543 3.5 8.5 4.39543 8.5 5.5L8.5 6.75L2.5 6.75C2.08579 6.75 1.75 7.08579 1.75 7.5C1.75 7.91421 2.08579 8.25 2.5 8.25L8.5 8.25L8.5 9.5C8.5 10.6046 9.39543 11.5 10.5 11.5H16.5C17.6046 11.5 18.5 10.6046 18.5 9.5ZM17 5.5V9.5C17 9.77614 16.7761 10 16.5 10H10.5C10.2239 10 10 9.77614 10 9.5V5.5C10 5.22386 10.2239 5 10.5 5L16.5 5C16.7761 5 17 5.22386 17 5.5Z" fill="#363538"/>
<path fill-rule="evenodd" clip-rule="evenodd" d="M14.5 15.75V14.5C14.5 13.3954 13.6046 12.5 12.5 12.5H6.5C5.39543 12.5 4.5 13.3954 4.5 14.5L4.5 15.75H2.5C2.08579 15.75 1.75 16.0858 1.75 16.5C1.75 16.9142 2.08579 17.25 2.5 17.25H4.5L4.5 18.5C4.5 19.6046 5.39543 20.5 6.5 20.5H12.5C13.6046 20.5 14.5 19.6046 14.5 18.5V17.25L20.5 17.25C20.9142 17.25 21.25 16.9142 21.25 16.5C21.25 16.0858 20.9142 15.75 20.5 15.75L14.5 15.75ZM13 18.5C13 18.7761 12.7761 19 12.5 19H6.5C6.22386 19 6 18.7761 6 18.5V14.5C6 14.2239 6.22386 14 6.5 14H12.5C12.7761 14 13 14.2239 13 14.5V18.5Z" fill="#363538"/>
</svg>
