<svg width="24" height="24" viewBox="0 0 24 24" fill="none" xmlns="http://www.w3.org/2000/svg">
<path fill-rule="evenodd" clip-rule="evenodd" d="M12.7568 2.29119C13.0597 2.18731 13.3951 2.28665 13.5918 2.53924C14.1996 3.32076 14.9035 4.42429 15.1689 5.58221C15.3037 6.17043 15.3331 6.80687 15.1494 7.43084C14.9625 8.06533 14.5698 8.63498 13.9502 9.09978C13.9296 9.11521 13.9078 9.1305 13.8857 9.14373C13.34 9.47113 12.8202 9.67133 12.3291 9.75017H16C17.5188 9.75017 18.75 10.9814 18.75 12.5002V19.5002C18.7498 21.0188 17.5187 22.2502 16 22.2502H8C6.48132 22.2502 5.25017 21.0188 5.25 19.5002V12.5002C5.25 10.9814 6.48122 9.75017 8 9.75017H11.418C11.0069 9.6785 10.649 9.51077 10.3516 9.27947C9.57003 8.67135 9.2501 7.68055 9.25 7.00017C9.25 6.87595 9.24937 6.37015 9.50391 5.80779C9.77034 5.21946 10.2986 4.60967 11.2627 4.28826C11.9741 4.05112 12.126 3.87321 12.1689 3.80193C12.2282 3.70322 12.25 3.56235 12.25 3.00017L12.2598 2.88201C12.3029 2.61143 12.4917 2.38219 12.7568 2.29119ZM8 11.2502C7.30964 11.2502 6.75 11.8098 6.75 12.5002V19.5002C6.75017 20.1904 7.30975 20.7502 8 20.7502H16C16.6903 20.7502 17.2498 20.1904 17.25 19.5002V12.5002C17.25 11.8098 16.6904 11.2502 16 11.2502H8ZM13.2822 4.81267C12.9331 5.22426 12.4029 5.49023 11.7373 5.71209C11.2018 5.89061 10.9797 6.18711 10.8711 6.42693C10.7509 6.69266 10.75 6.93758 10.75 7.00017C10.7501 7.31969 10.9305 7.82915 11.2734 8.09588C11.4249 8.21348 11.6188 8.29392 11.8857 8.28924C12.1588 8.28435 12.5503 8.18759 13.0791 7.87615C13.4392 7.59773 13.6231 7.30163 13.71 7.00701C13.8022 6.69374 13.8003 6.32958 13.7061 5.91814C13.6225 5.55352 13.4708 5.17895 13.2822 4.81267Z" fill="#363538"/>
</svg>
