<svg width="24" height="24" viewBox="0 0 24 24" fill="none" xmlns="http://www.w3.org/2000/svg">
<path fill-rule="evenodd" clip-rule="evenodd" d="M7 2.25C7.41421 2.25 7.75 2.58579 7.75 3V5H9C10.1046 5 11 5.89543 11 7V13C11 14.1046 10.1046 15 9 15H7.75V21C7.75 21.4142 7.41421 21.75 7 21.75C6.58579 21.75 6.25 21.4142 6.25 21V15H5C3.89543 15 3 14.1046 3 13V7C3 5.89543 3.89543 5 5 5H6.25V3C6.25 2.58579 6.58579 2.25 7 2.25ZM9 6.5C9.27614 6.5 9.5 6.72386 9.5 7V13C9.5 13.2761 9.27614 13.5 9 13.5H5C4.72386 13.5 4.5 13.2761 4.5 13V7C4.5 6.72386 4.72386 6.5 5 6.5H9Z" fill="#363538"/>
<path fill-rule="evenodd" clip-rule="evenodd" d="M15.25 9H14C12.8954 9 12 9.89543 12 11V17C12 18.1046 12.8954 19 14 19H15.25V21C15.25 21.4142 15.5858 21.75 16 21.75C16.4142 21.75 16.75 21.4142 16.75 21V19H18C19.1046 19 20 18.1046 20 17V11C20 9.89543 19.1046 9 18 9H16.75V3C16.75 2.58579 16.4142 2.25 16 2.25C15.5858 2.25 15.25 2.58579 15.25 3V9ZM13.5 11C13.5 10.7239 13.7239 10.5 14 10.5H18C18.2761 10.5 18.5 10.7239 18.5 11V17C18.5 17.2761 18.2761 17.5 18 17.5H14C13.7239 17.5 13.5 17.2761 13.5 17V11Z" fill="#363538"/>
</svg>
