<svg width="24" height="24" viewBox="0 0 24 24" fill="none" xmlns="http://www.w3.org/2000/svg">
<path fill-rule="evenodd" clip-rule="evenodd" d="M7.1038 8.1568C7.2674 7.3388 7.98563 6.75 8.81982 6.75H15.1802C16.0144 6.75 16.7326 7.33881 16.8962 8.1568L17.4962 11.1568C17.7128 12.2397 16.8845 13.25 15.7802 13.25H8.21982C7.11549 13.25 6.28723 12.2397 6.5038 11.1568L7.1038 8.1568ZM8.81982 8.25C8.70065 8.25 8.59804 8.33411 8.57467 8.45097L7.97467 11.451C7.94373 11.6057 8.06206 11.75 8.21982 11.75H15.7802C15.938 11.75 16.0563 11.6057 16.0254 11.451L15.4254 8.45097C15.402 8.33412 15.2994 8.25 15.1802 8.25H8.81982Z" fill="#363538"/>
<path d="M9 14.25C8.58578 14.25 8.25 14.5858 8.25 15C8.25 15.4142 8.58578 15.75 9 15.75H15C15.4142 15.75 15.75 15.4142 15.75 15C15.75 14.5858 15.4142 14.25 15 14.25H9Z" fill="#363538"/>
<path fill-rule="evenodd" clip-rule="evenodd" d="M3 16V13.9948C3 13.8043 3.02721 13.6148 3.08077 13.4321L2.60523 13.1377C2.25306 12.9196 2.14432 12.4574 2.36237 12.1052C2.58042 11.753 3.04267 11.6443 3.39485 11.8623L3.53883 11.9515L5.12799 6.81727C5.64648 5.14213 7.19558 4 8.94913 4H15.0509C16.8044 4 18.3535 5.14213 18.872 6.81727L20.4608 11.9502L20.6027 11.8623C20.9549 11.6443 21.4171 11.753 21.6352 12.1052C21.8532 12.4574 21.7445 12.9196 21.3923 13.1377L20.9188 13.4308C20.9727 13.6139 21 13.8038 21 13.9948V16C21 16.6746 20.666 17.2711 20.1544 17.6334C20.2153 17.7418 20.25 17.8668 20.25 18V19.5C20.25 20.4665 19.4665 21.25 18.5 21.25H17.5C16.5335 21.25 15.75 20.4665 15.75 19.5V18H8.25V19.5C8.25 20.4665 7.46649 21.25 6.5 21.25H5.5C4.5335 21.25 3.75 20.4665 3.75 19.5V18C3.75 17.8668 3.7847 17.7418 3.84556 17.6334C3.33396 17.2711 3 16.6746 3 16ZM4.5 13.9948V16C4.5 16.2761 4.72385 16.5 5 16.5H19C19.2761 16.5 19.5 16.2761 19.5 16V13.9948C19.5 13.9446 19.4925 13.8948 19.4776 13.8469L17.4391 7.26079C17.115 6.21383 16.1468 5.5 15.0509 5.5H8.94913C7.85316 5.5 6.88497 6.21383 6.56091 7.26079L4.52235 13.8469C4.50753 13.8948 4.5 13.9446 4.5 13.9948ZM17.25 18H18.75V19.5C18.75 19.6381 18.6381 19.75 18.5 19.75H17.5C17.3619 19.75 17.25 19.6381 17.25 19.5V18ZM5.25 18V19.5C5.25 19.6381 5.36193 19.75 5.5 19.75H6.5C6.63807 19.75 6.75 19.6381 6.75 19.5V18H5.25Z" fill="#363538"/>
</svg>
