<svg width="24" height="24" viewBox="0 0 24 24" fill="none" xmlns="http://www.w3.org/2000/svg">
<path d="M19.75 3C19.75 2.58579 19.4142 2.25 19 2.25C18.5858 2.25 18.25 2.58579 18.25 3V5.18934L18.0303 4.96967C17.7374 4.67678 17.2626 4.67678 16.9697 4.96967C16.6768 5.26256 16.6768 5.73744 16.9697 6.03033L18.4697 7.53033C18.6103 7.67098 18.8011 7.75 19 7.75C19.1989 7.75 19.3897 7.67098 19.5303 7.53033L21.0303 6.03033C21.3232 5.73744 21.3232 5.26256 21.0303 4.96967C20.7374 4.67678 20.2626 4.67678 19.9697 4.96967L19.75 5.18934V3Z" fill="#363538"/>
<path d="M16 4.75C16 4.33579 15.6642 4 15.25 4H6C3.79086 4 2 5.79086 2 8V16C2 18.2091 3.79086 20 6 20H18C20.2091 20 22 18.2091 22 16V8.75C22 8.33579 21.6642 8 21.25 8C20.8358 8 20.5 8.33579 20.5 8.75V16C20.5 17.3807 19.3807 18.5 18 18.5H6C4.61929 18.5 3.5 17.3807 3.5 16V8C3.5 6.61929 4.61929 5.5 6 5.5H15.25C15.6642 5.5 16 5.16421 16 4.75Z" fill="#363538"/>
<path d="M5.25 15C5.25 14.5858 5.58579 14.25 6 14.25H7C7.41421 14.25 7.75 14.5858 7.75 15C7.75 15.4142 7.41421 15.75 7 15.75H6C5.58579 15.75 5.25 15.4142 5.25 15Z" fill="#363538"/>
<path d="M9.25 15C9.25 14.5858 9.58579 14.25 10 14.25H11C11.4142 14.25 11.75 14.5858 11.75 15C11.75 15.4142 11.4142 15.75 11 15.75H10C9.58579 15.75 9.25 15.4142 9.25 15Z" fill="#363538"/>
<path d="M14 14.25C13.5858 14.25 13.25 14.5858 13.25 15C13.25 15.4142 13.5858 15.75 14 15.75H18C18.4142 15.75 18.75 15.4142 18.75 15C18.75 14.5858 18.4142 14.25 18 14.25H14Z" fill="#363538"/>
</svg>
