<svg width="24" height="24" viewBox="0 0 24 24" fill="none" xmlns="http://www.w3.org/2000/svg">
<path d="M17.9445 3.55536C17.6517 3.26247 17.1768 3.26247 16.8839 3.55536C16.591 3.84826 16.591 4.32313 16.8839 4.61602L17.7678 5.49991L16.8839 6.38379C16.591 6.67668 16.591 7.15156 16.8839 7.44445C17.1768 7.73734 17.6517 7.73734 17.9445 7.44445L18.8284 6.56057L19.7123 7.44445C20.0052 7.73734 20.4801 7.73734 20.773 7.44445C21.0659 7.15156 21.0659 6.67668 20.773 6.38379L19.8891 5.49991L20.773 4.61602C21.0659 4.32313 21.0659 3.84826 20.773 3.55536C20.4801 3.26247 20.0052 3.26247 19.7123 3.55536L18.8284 4.43925L17.9445 3.55536Z" fill="#363538"/>
<path d="M16 4.74991C16 4.33569 15.6642 3.99991 15.25 3.99991H6C3.79086 3.99991 2 5.79077 2 7.99991V15.9999C2 18.209 3.79086 19.9999 6 19.9999H18C20.2091 19.9999 22 18.209 22 15.9999V8.74991C22 8.33569 21.6642 7.99991 21.25 7.99991C20.8358 7.99991 20.5 8.33569 20.5 8.74991V15.9999C20.5 17.3806 19.3807 18.4999 18 18.4999H6C4.61929 18.4999 3.5 17.3806 3.5 15.9999V7.99991C3.5 6.6192 4.61929 5.49991 6 5.49991H15.25C15.6642 5.49991 16 5.16412 16 4.74991Z" fill="#363538"/>
<path d="M5.25 14.9999C5.25 14.5857 5.58579 14.2499 6 14.2499H7C7.41421 14.2499 7.75 14.5857 7.75 14.9999C7.75 15.4141 7.41421 15.7499 7 15.7499H6C5.58579 15.7499 5.25 15.4141 5.25 14.9999Z" fill="#363538"/>
<path d="M9.25 14.9999C9.25 14.5857 9.58579 14.2499 10 14.2499H11C11.4142 14.2499 11.75 14.5857 11.75 14.9999C11.75 15.4141 11.4142 15.7499 11 15.7499H10C9.58579 15.7499 9.25 15.4141 9.25 14.9999Z" fill="#363538"/>
<path d="M14 14.2499C13.5858 14.2499 13.25 14.5857 13.25 14.9999C13.25 15.4141 13.5858 15.7499 14 15.7499H18C18.4142 15.7499 18.75 15.4141 18.75 14.9999C18.75 14.5857 18.4142 14.2499 18 14.2499H14Z" fill="#363538"/>
</svg>
