<svg width="24" height="24" viewBox="0 0 24 24" fill="none" xmlns="http://www.w3.org/2000/svg">
<path fill-rule="evenodd" clip-rule="evenodd" d="M11.9995 9.68945C12.5414 9.49668 13.0555 9.50136 13.5132 9.67285C14.0373 9.86938 14.3996 10.2483 14.6235 10.584C15.2082 11.461 15.0234 12.4694 14.6011 13.2354C14.1763 14.0056 13.4452 14.6807 12.6226 15.0586C12.2274 15.24 11.7726 15.24 11.3774 15.0586C10.5547 14.6807 9.82362 14.0056 9.39892 13.2354C8.9768 12.4695 8.7912 11.4608 9.37549 10.584C9.59929 10.2483 9.96272 9.86951 10.4868 9.67285C10.9442 9.50137 11.4579 9.49702 11.9995 9.68945ZM11.6645 11.1709C11.329 11.0032 11.1289 11.0337 11.0132 11.0771C10.871 11.1306 10.7329 11.252 10.6235 11.416C10.4641 11.6555 10.4441 12.0238 10.7124 12.5107C10.978 12.9926 11.4635 13.4469 12.0005 13.6943C12.537 13.4468 13.022 12.9924 13.2876 12.5107C13.5563 12.0234 13.5351 11.6554 13.3755 11.416C13.2661 11.2521 13.129 11.1305 12.9868 11.0771C12.8709 11.0338 12.6708 11.0032 12.3354 11.1709C12.1244 11.2763 11.8756 11.2763 11.6645 11.1709Z" fill="#363538"/>
<path fill-rule="evenodd" clip-rule="evenodd" d="M14.9995 2.25C15.0908 2.25 15.181 2.25498 15.27 2.26367C15.2992 2.26652 15.328 2.27164 15.3569 2.27539C15.4167 2.28317 15.4761 2.29118 15.5347 2.30273C15.5686 2.30941 15.6018 2.31826 15.6353 2.32617C15.6882 2.33872 15.7408 2.35162 15.7925 2.36719C15.8282 2.37792 15.8629 2.39119 15.8979 2.40332C15.9406 2.41809 15.9832 2.43243 16.0249 2.44922C16.0716 2.46799 16.1172 2.48855 16.1626 2.50977C16.1947 2.5248 16.2269 2.53944 16.2583 2.55566C16.2981 2.57622 16.3368 2.59868 16.3755 2.62109C16.4121 2.64232 16.4484 2.66368 16.4839 2.68652C16.5255 2.71328 16.5659 2.74161 16.606 2.77051C16.628 2.78647 16.6498 2.80274 16.6714 2.81934C16.7168 2.85419 16.7611 2.89017 16.8042 2.92773C16.8254 2.94624 16.8461 2.96524 16.8667 2.98438C16.9074 3.02212 16.9474 3.06046 16.9858 3.10059C17.0049 3.12059 17.023 3.14153 17.0415 3.16211C17.0805 3.20537 17.1186 3.24924 17.1548 3.29492C17.1661 3.30917 17.176 3.32439 17.187 3.33887C17.4759 3.71864 17.6688 4.17384 17.728 4.67188L20.1616 5.32422C21.6285 5.71728 22.4998 7.22546 22.1069 8.69238L19.0005 20.2842C18.6072 21.7509 17.0992 22.6216 15.6323 22.2285L13.8472 21.75H10.1519L8.3667 22.2285C6.8998 22.6216 5.3918 21.751 4.99853 20.2842L1.89209 8.69238C1.49925 7.22547 2.3705 5.71727 3.8374 5.32422L6.271 4.67188C6.27212 4.6624 6.27368 4.653 6.2749 4.64355C6.32592 4.24968 6.46024 3.8829 6.65967 3.55957C6.67308 3.53778 6.6857 3.51552 6.69971 3.49414C6.72844 3.45034 6.75941 3.40823 6.79053 3.36621C6.81071 3.33891 6.83089 3.31167 6.85205 3.28516C6.88035 3.24976 6.90996 3.21558 6.93994 3.18164C6.96648 3.15155 6.99318 3.12167 7.021 3.09277C7.05265 3.05993 7.08541 3.02831 7.11865 2.99707C7.14634 2.97101 7.17388 2.94482 7.20264 2.91992C7.2394 2.88812 7.27749 2.85797 7.31592 2.82812C7.34383 2.80642 7.37212 2.78528 7.40088 2.76465C7.43896 2.73736 7.47759 2.71091 7.51709 2.68555C7.55112 2.66367 7.58557 2.64246 7.6206 2.62207C7.65849 2.60005 7.69683 2.57883 7.73584 2.55859C7.77263 2.53948 7.8104 2.52235 7.84814 2.50488C7.8879 2.4865 7.9275 2.46769 7.96826 2.45117C7.97974 2.44652 7.99089 2.44103 8.00244 2.43652L8.18213 2.37402C8.18862 2.372 8.19515 2.37014 8.20166 2.36816C8.25873 2.35086 8.31691 2.33686 8.37549 2.32324C8.40442 2.31652 8.43313 2.30854 8.4624 2.30273C8.52535 2.29025 8.58939 2.28251 8.65381 2.27441C8.67823 2.27134 8.70243 2.2661 8.72705 2.26367C8.81668 2.25484 8.90755 2.25001 8.99951 2.25H14.9995ZM8.99951 3.75C8.82696 3.75007 8.66269 3.78534 8.51318 3.84863C8.45878 3.87165 8.40708 3.89951 8.35693 3.92969C7.99373 4.14837 7.74951 4.54515 7.74951 5V19C7.74951 19.4475 7.98592 19.8387 8.33935 20.0596C8.39479 20.0942 8.45239 20.1256 8.51318 20.1514C8.66269 20.2147 8.82696 20.2499 8.99951 20.25H14.9995C15.215 20.25 15.4183 20.1956 15.5952 20.0996C15.6661 20.0611 15.7327 20.0158 15.7944 19.9648C15.8254 19.9393 15.8549 19.9121 15.8833 19.8838C15.9964 19.7707 16.0876 19.6359 16.1509 19.4863C16.1666 19.4491 16.1807 19.411 16.1929 19.3721C16.2295 19.2545 16.2495 19.1296 16.2495 19V5C16.2495 4.87039 16.2295 4.74549 16.1929 4.62793C16.1807 4.58895 16.1666 4.55091 16.1509 4.51367C16.0876 4.3641 15.9964 4.22933 15.8833 4.11621C15.8549 4.08786 15.8254 4.06069 15.7944 4.03516C15.7327 3.98422 15.6661 3.93886 15.5952 3.90039C15.5599 3.88121 15.5232 3.8644 15.4858 3.84863C15.3737 3.80122 15.2534 3.76965 15.1274 3.75684L14.9995 3.75H8.99951ZM4.2251 6.77344C3.55837 6.95219 3.16265 7.63792 3.34131 8.30469L6.25928 19.1973C6.25465 19.1321 6.24951 19.0664 6.24951 19V6.23047L4.2251 6.77344ZM17.7495 19C17.7495 19.0429 17.7456 19.0855 17.7437 19.1279C17.7422 19.1501 17.7413 19.1723 17.7397 19.1943L20.6577 8.30469C20.8364 7.63788 20.4407 6.95214 19.7739 6.77344L17.7495 6.23047V19Z" fill="#363538"/>
</svg>
