<svg width="24" height="24" viewBox="0 0 24 24" fill="none" xmlns="http://www.w3.org/2000/svg">
<path d="M6 14.25C5.58579 14.25 5.25 14.5858 5.25 15C5.25 15.4142 5.58579 15.75 6 15.75H7C7.41421 15.75 7.75 15.4142 7.75 15C7.75 14.5858 7.41421 14.25 7 14.25H6Z" fill="#363538"/>
<path d="M9.25 15C9.25 14.5858 9.58579 14.25 10 14.25H11C11.4142 14.25 11.75 14.5858 11.75 15C11.75 15.4142 11.4142 15.75 11 15.75H10C9.58579 15.75 9.25 15.4142 9.25 15Z" fill="#363538"/>
<path d="M14 14.25C13.5858 14.25 13.25 14.5858 13.25 15C13.25 15.4142 13.5858 15.75 14 15.75H18C18.4142 15.75 18.75 15.4142 18.75 15C18.75 14.5858 18.4142 14.25 18 14.25H14Z" fill="#363538"/>
<path fill-rule="evenodd" clip-rule="evenodd" d="M18 4H6C3.79086 4 2 5.79086 2 8V16C2 18.2091 3.79086 20 6 20H18C20.2091 20 22 18.2091 22 16V8C22 5.79086 20.2091 4 18 4ZM6 5.5H18C19.3807 5.5 20.5 6.61929 20.5 8V16C20.5 17.3807 19.3807 18.5 18 18.5H6C4.61929 18.5 3.5 17.3807 3.5 16V8C3.5 6.61929 4.61929 5.5 6 5.5Z" fill="#363538"/>
</svg>
