<svg width="24" height="24" viewBox="0 0 24 24" fill="none" xmlns="http://www.w3.org/2000/svg">
<path d="M17.6428 3.46967C17.9357 3.17678 18.4105 3.17678 18.7034 3.46967C18.9963 3.76256 18.9963 4.23744 18.7034 4.53033L13.5319 9.70191C12.2627 10.9711 12.2627 13.0289 13.5319 14.2981L18.7034 19.4697C18.9963 19.7626 18.9963 20.2374 18.7034 20.5303C18.4105 20.8232 17.9357 20.8232 17.6428 20.5303L12.4712 15.3588C10.6162 13.5038 10.6162 10.4962 12.4712 8.64125L17.6428 3.46967Z" fill="#363538"/>
<path d="M11.6428 3.46967C11.9357 3.17678 12.4105 3.17678 12.7034 3.46967C12.9963 3.76256 12.9963 4.23744 12.7034 4.53033L7.53186 9.70191C6.26265 10.9711 6.26266 13.0289 7.53186 14.2981L12.7034 19.4697C12.9963 19.7626 12.9963 20.2374 12.7034 20.5303C12.4105 20.8232 11.9357 20.8232 11.6428 20.5303L6.4712 15.3588C4.61621 13.5038 4.61621 10.4962 6.4712 8.64125L11.6428 3.46967Z" fill="#363538"/>
</svg>
