<svg width="24" height="24" viewBox="0 0 24 24" fill="none" xmlns="http://www.w3.org/2000/svg">
<path d="M6.36029 3.46967C6.06739 3.17678 5.59252 3.17678 5.29963 3.46967C5.00673 3.76256 5.00673 4.23744 5.29963 4.53033L10.4712 9.70191C11.7404 10.9711 11.7404 13.0289 10.4712 14.2981L5.29963 19.4697C5.00673 19.7626 5.00673 20.2374 5.29963 20.5303C5.59252 20.8232 6.06739 20.8232 6.36029 20.5303L11.5319 15.3588C13.3868 13.5038 13.3869 10.4962 11.5319 8.64125L6.36029 3.46967Z" fill="#363538"/>
<path d="M12.3603 3.46967C12.0674 3.17678 11.5925 3.17678 11.2996 3.46967C11.0067 3.76256 11.0067 4.23744 11.2996 4.53033L16.4712 9.70191C17.7404 10.9711 17.7404 13.0289 16.4712 14.2981L11.2996 19.4697C11.0067 19.7626 11.0067 20.2374 11.2996 20.5303C11.5925 20.8232 12.0674 20.8232 12.3603 20.5303L17.5319 15.3588C19.3868 13.5038 19.3869 10.4962 17.5319 8.64125L12.3603 3.46967Z" fill="#363538"/>
</svg>
