<svg width="24" height="24" viewBox="0 0 24 24" fill="none" xmlns="http://www.w3.org/2000/svg">
<path d="M20.5303 17.6412C20.8232 17.9341 20.8232 18.409 20.5303 18.7018C20.2374 18.9947 19.7626 18.9947 19.4697 18.7018L14.2981 13.5303C13.0289 12.2611 10.9711 12.2611 9.70189 13.5303L4.53033 18.7018C4.23744 18.9947 3.76257 18.9947 3.46967 18.7018C3.17678 18.409 3.17678 17.9341 3.46967 17.6412L8.64123 12.4696C10.4962 10.6146 13.5038 10.6146 15.3587 12.4696L20.5303 17.6412Z" fill="#363538"/>
<path d="M20.5303 11.6412C20.8232 11.9341 20.8232 12.409 20.5303 12.7018C20.2374 12.9947 19.7626 12.9947 19.4697 12.7018L14.2981 7.53027C13.0289 6.26107 10.9711 6.26107 9.70189 7.53027L4.53033 12.7018C4.23744 12.9947 3.76257 12.9947 3.46967 12.7018C3.17678 12.409 3.17678 11.9341 3.46967 11.6412L8.64123 6.46961C10.4962 4.61462 13.5038 4.61462 15.3587 6.46961L20.5303 11.6412Z" fill="#363538"/>
</svg>
