<svg width="24" height="24" viewBox="0 0 24 24" fill="none" xmlns="http://www.w3.org/2000/svg">
<path d="M20.5303 6.3587C20.8232 6.06581 20.8232 5.59093 20.5303 5.29804C20.2374 5.00515 19.7626 5.00515 19.4697 5.29804L14.2981 10.4696C13.0289 11.7388 10.9711 11.7388 9.70189 10.4696L4.53033 5.29804C4.23744 5.00515 3.76257 5.00515 3.46967 5.29804C3.17678 5.59093 3.17678 6.06581 3.46967 6.3587L8.64123 11.5303C10.4962 13.3853 13.5038 13.3853 15.3587 11.5303L20.5303 6.3587Z" fill="#363538"/>
<path d="M20.5303 12.3587C20.8232 12.0658 20.8232 11.5909 20.5303 11.298C20.2374 11.0051 19.7626 11.0051 19.4697 11.298L14.2981 16.4696C13.0289 17.7388 10.9711 17.7388 9.70189 16.4696L4.53033 11.298C4.23744 11.0051 3.76257 11.0051 3.46967 11.298C3.17678 11.5909 3.17678 12.0658 3.46967 12.3587L8.64123 17.5303C10.4962 19.3853 13.5038 19.3853 15.3587 17.5303L20.5303 12.3587Z" fill="#363538"/>
</svg>
