<svg width="24" height="24" viewBox="0 0 24 24" fill="none" xmlns="http://www.w3.org/2000/svg">
<path fill-rule="evenodd" clip-rule="evenodd" d="M12 2.25C12.4142 2.25 12.75 2.58579 12.75 3V3.5L13.55 2.9C13.8814 2.65147 14.3515 2.71863 14.6 3.05C14.8485 3.38137 14.7814 3.85147 14.45 4.1L13.7317 4.63873C15.334 5.40234 16.3272 7.18832 15.951 9.06941L13.716 20.2442C13.3409 22.1199 10.6591 22.1199 10.284 20.2442L8.04903 9.06941C7.67281 7.18832 8.66596 5.40234 10.2683 4.63873L9.55 4.1C9.21863 3.85147 9.15147 3.38137 9.4 3.05C9.64853 2.71863 10.1186 2.65147 10.45 2.9L11.25 3.5V3C11.25 2.58579 11.5858 2.25 12 2.25ZM12 5.75C10.4039 5.75 9.20689 7.21018 9.5199 8.77524L10.5825 14.0881C10.7125 14.0667 10.8468 14.0497 10.9812 14.0396C11.2134 14.0221 11.475 14.0227 11.7291 14.071C11.9774 14.1182 12.2843 14.2236 12.5303 14.4697C12.8232 14.7626 12.8232 15.2374 12.5303 15.5303C12.2464 15.8143 11.7915 15.8229 11.4971 15.5564C11.4877 15.5533 11.4722 15.549 11.449 15.5446C11.3688 15.5294 11.2491 15.5237 11.0938 15.5354C11.0223 15.5408 10.9493 15.5493 10.8769 15.5602L11.7549 19.95C11.7728 20.0396 11.809 20.0795 11.8385 20.1018C11.8753 20.1296 11.9318 20.151 12 20.151C12.0682 20.151 12.1247 20.1296 12.1615 20.1018C12.191 20.0795 12.2272 20.0396 12.2451 19.95L14.2488 9.93177C13.7479 9.76959 13.035 9.71136 12.416 10.124C12.0714 10.3538 11.6057 10.2607 11.376 9.91603C11.1462 9.57138 11.2393 9.10573 11.584 8.87596C12.6127 8.19017 13.7104 8.22909 14.5238 8.45208C14.6254 7.01496 13.4855 5.75 12 5.75Z" fill="#363538"/>
</svg>
