<svg width="24" height="24" viewBox="0 0 24 24" fill="none" xmlns="http://www.w3.org/2000/svg">
<path d="M3 3.25C2.58579 3.25 2.25 3.58579 2.25 4C2.25 4.41421 2.58579 4.75 3 4.75C3.81705 4.75 4.52448 5.31748 4.70172 6.11507L5.13165 8.04975C5.13477 8.09674 5.14235 8.14372 5.15449 8.19008L5.20944 8.39979L5.26786 8.6627C5.27935 8.7144 5.29592 8.76366 5.31693 8.81006L6.9921 15.2039C7.53947 17.293 9.42732 18.75 11.587 18.75H16C16.4142 18.75 16.75 18.4142 16.75 18C16.75 17.5858 16.4142 17.25 16 17.25H11.587C10.1093 17.25 8.81764 16.2531 8.44313 14.8237L6.85182 8.75H17.0314C18.3646 8.75 19.5626 9.56422 20.0532 10.8038C20.2057 11.189 20.6415 11.3776 21.0266 11.2252C21.4118 11.0727 21.6004 10.6369 21.4479 10.2518C20.7308 8.44001 18.9799 7.25 17.0314 7.25H6.49052L6.166 5.78968C5.83625 4.30578 4.5201 3.25 3 3.25Z" fill="#363538"/>
<path d="M10 21C10 21.5523 9.55228 22 9 22C8.44772 22 8 21.5523 8 21C8 20.4477 8.44772 20 9 20C9.55228 20 10 20.4477 10 21Z" fill="#363538"/>
<path d="M18 21C18 21.5523 17.5523 22 17 22C16.4477 22 16 21.5523 16 21C16 20.4477 16.4477 20 17 20C17.5523 20 18 20.4477 18 21Z" fill="#363538"/>
<path d="M16.25 15C16.25 14.5858 16.5858 14.25 17 14.25H21C21.4142 14.25 21.75 14.5858 21.75 15C21.75 15.4142 21.4142 15.75 21 15.75H17C16.5858 15.75 16.25 15.4142 16.25 15Z" fill="#363538"/>
</svg>
