<svg width="24" height="24" viewBox="0 0 24 24" fill="none" xmlns="http://www.w3.org/2000/svg">
<path d="M14.3408 9.14586C14.6171 8.66784 15.2289 8.50455 15.707 8.78062C16.1849 9.05674 16.3489 9.66773 16.0732 10.1459C15.7971 10.6241 15.1853 10.7882 14.707 10.5121C14.2287 10.2359 14.0647 9.62415 14.3408 9.14586Z" fill="#363538"/>
<path fill-rule="evenodd" clip-rule="evenodd" d="M5.49023 2.83434C6.2497 1.51923 7.93185 1.06913 9.24707 1.82848L19.1377 7.53844C20.6385 8.40519 20.9626 10.4154 19.8506 11.7093L19.7393 11.8314L16.873 14.7962C15.996 15.7029 14.6141 15.8966 13.5215 15.266L8.62012 12.4359L6.22363 17.2298C5.75776 18.1614 4.8052 18.7504 3.76367 18.7504H3.25V20.0004C3.24983 20.4144 2.91411 20.7504 2.5 20.7504C2.08589 20.7504 1.75017 20.4144 1.75 20.0004V16.0004C1.75 15.5861 2.08579 15.2504 2.5 15.2504C2.91421 15.2504 3.25 15.5861 3.25 16.0004V17.2504H3.76367C4.23704 17.2504 4.67005 16.9823 4.88184 16.5589L7.31934 11.6839L4.49707 10.055C3.18186 9.2957 2.73108 7.61444 3.49023 6.29918L5.49023 2.83434ZM8.49707 3.1273C7.89926 2.78216 7.13429 2.9866 6.78906 3.58434L4.78906 7.04918C4.4442 7.64699 4.64933 8.41111 5.24707 8.75621L14.2715 13.9671C14.7681 14.2537 15.3973 14.1655 15.7959 13.7533L18.6611 10.7884L18.7588 10.6742C19.2066 10.0856 19.0475 9.2184 18.3877 8.83727L8.49707 3.1273Z" fill="#363538"/>
<path d="M21.4561 11.3519C21.7294 11.0412 22.2026 11.0106 22.5137 11.2836C22.8248 11.557 22.8555 12.031 22.582 12.3421L19.2168 16.1722C18.9434 16.4833 18.4693 16.5139 18.1582 16.2406C17.8471 15.9672 17.8165 15.4931 18.0898 15.182L21.4561 11.3519Z" fill="#363538"/>
</svg>
