<svg width="24" height="24" viewBox="0 0 24 24" fill="none" xmlns="http://www.w3.org/2000/svg">
<path d="M12 10.6465C12.5523 10.6465 13 11.0942 13 11.6465C13 12.1988 12.5523 12.6465 12 12.6465C11.4477 12.6465 11 12.1988 11 11.6465C11 11.0942 11.4477 10.6465 12 10.6465Z" fill="#363538"/>
<path fill-rule="evenodd" clip-rule="evenodd" d="M20 4.25C20.4142 4.25 20.75 4.58579 20.75 5C20.75 5.41421 20.4142 5.75 20 5.75H19.75V12C19.75 16.2802 16.2802 19.75 12 19.75C7.71979 19.75 4.25 16.2802 4.25 12V5.75H4C3.58579 5.75 3.25 5.41421 3.25 5C3.25 4.58579 3.58579 4.25 4 4.25H20ZM5.75 12C5.75 15.4518 8.54822 18.25 12 18.25C15.4518 18.25 18.25 15.4518 18.25 12V5.75H16.25V11.5C16.25 13.8472 14.3472 15.75 12 15.75C9.65279 15.75 7.75 13.8472 7.75 11.5V5.75H5.75V12ZM12 8.75C10.4812 8.75 9.25 9.98122 9.25 11.5C9.25 13.0188 10.4812 14.25 12 14.25C13.5188 14.25 14.75 13.0188 14.75 11.5C14.75 9.98122 13.5188 8.75 12 8.75ZM9.25 8.26074C9.9913 7.63079 10.951 7.25 12 7.25C13.049 7.25 14.0087 7.63079 14.75 8.26074V5.75H9.25V8.26074Z" fill="#363538"/>
</svg>
