<svg width="24" height="24" viewBox="0 0 24 24" fill="none" xmlns="http://www.w3.org/2000/svg">
<path fill-rule="evenodd" clip-rule="evenodd" d="M3 3.25C2.58579 3.25 2.25 3.58579 2.25 4C2.25 4.41421 2.58579 4.75 3 4.75H4.36039C4.95624 4.75 5.46926 5.17058 5.58612 5.75486L7.09833 13.3159C6.60502 13.4832 6.25 13.9502 6.25 14.5V15.5C6.25 16.0498 6.60502 16.5168 7.09833 16.6841L6.26456 20.8529C6.18333 21.2591 6.44674 21.6542 6.85291 21.7354C7.25908 21.8167 7.6542 21.5533 7.73544 21.1471L8.61485 16.75H15.3851L16.2646 21.1471C16.3458 21.5533 16.7409 21.8167 17.1471 21.7354C17.5533 21.6542 17.8167 21.2591 17.7354 20.8529L16.9017 16.6841C17.395 16.5168 17.75 16.0498 17.75 15.5V14.5C17.75 13.8096 17.1904 13.25 16.5 13.25H8.61485L7.05699 5.46068C6.79991 4.17527 5.67127 3.25 4.36039 3.25H3ZM7.98451 14.75C7.99428 14.7502 8.00407 14.7502 8.01389 14.75H16.25V15.25H16.0155C16.0057 15.2498 15.9959 15.2498 15.9861 15.25H8.01389C8.00407 15.2498 7.99428 15.2498 7.98451 15.25H7.75V14.75H7.98451Z" fill="#363538"/>
</svg>
