<svg width="24" height="24" viewBox="0 0 24 24" fill="none" xmlns="http://www.w3.org/2000/svg">
<path d="M15.8285 12.9926C15.4142 12.9926 15.0785 12.6569 15.0785 12.2426V11.2107L12.5303 13.7588C12.2374 14.0517 11.7626 14.0517 11.4697 13.7588L10.5 12.7891L7.53033 15.7588C7.23744 16.0517 6.76256 16.0517 6.46967 15.7588C6.17678 15.4659 6.17678 14.991 6.46967 14.6981L9.96967 11.1981C10.2626 10.9052 10.7374 10.9052 11.0303 11.1981L12 12.1678L14.0036 10.1642H13C12.5858 10.1642 12.25 9.82843 12.25 9.41422C12.25 9 12.5858 8.66422 13 8.66422L15.8285 8.66422C16.2427 8.66422 16.5785 9 16.5785 9.41422L16.5785 12.2426C16.5785 12.6569 16.2427 12.9926 15.8285 12.9926Z" fill="#363538"/>
<path fill-rule="evenodd" clip-rule="evenodd" d="M2 12C2 15.7385 2 17.6077 2.80385 19C3.33046 19.9121 4.08788 20.6695 5 21.1962C6.3923 22 8.26154 22 12 22C15.7385 22 17.6077 22 19 21.1962C19.9121 20.6695 20.6695 19.9121 21.1962 19C22 17.6077 22 15.7385 22 12C22 8.26154 22 6.3923 21.1962 5C20.6695 4.08788 19.9121 3.33046 19 2.80385C17.6077 2 15.7385 2 12 2C8.26154 2 6.3923 2 5 2.80385C4.08788 3.33046 3.33046 4.08788 2.80385 5C2 6.3923 2 8.26154 2 12ZM19.8971 5.75C20.1453 6.1798 20.3146 6.75097 20.4056 7.75559C20.4986 8.78082 20.5 10.1032 20.5 12C20.5 13.8968 20.4986 15.2192 20.4056 16.2444C20.3146 17.249 20.1453 17.8202 19.8971 18.25C19.5022 18.9341 18.9341 19.5022 18.25 19.8971C17.8202 20.1453 17.249 20.3146 16.2444 20.4056C15.2192 20.4986 13.8968 20.5 12 20.5C10.1032 20.5 8.78082 20.4986 7.75559 20.4056C6.75097 20.3146 6.1798 20.1453 5.75 19.8971C5.06591 19.5022 4.49784 18.9341 4.10289 18.25C3.85474 17.8202 3.68541 17.249 3.59436 16.2444C3.50144 15.2192 3.5 13.8968 3.5 12C3.5 10.1032 3.50144 8.78082 3.59436 7.75559C3.68541 6.75097 3.85474 6.1798 4.10289 5.75C4.49784 5.06591 5.06591 4.49784 5.75 4.10289C6.1798 3.85474 6.75097 3.68541 7.75559 3.59436C8.78082 3.50144 10.1032 3.5 12 3.5C13.8968 3.5 15.2192 3.50144 16.2444 3.59436C17.249 3.68541 17.8202 3.85474 18.25 4.10289C18.9341 4.49784 19.5022 5.06591 19.8971 5.75Z" fill="#363538"/>
</svg>
