<svg width="24" height="24" viewBox="0 0 24 24" fill="none" xmlns="http://www.w3.org/2000/svg">
<path d="M10.2426 14.0643H9.2391L11.2427 12.0607L12.2123 13.0304C12.5052 13.3233 12.9801 13.3233 13.273 13.0304L16.773 9.53039C17.0659 9.2375 17.0659 8.76262 16.773 8.46973C16.4801 8.17684 16.0052 8.17684 15.7123 8.46973L12.7427 11.4394L11.773 10.4697C11.4801 10.1768 11.0052 10.1768 10.7123 10.4697L8.16421 13.0179V11.9859C8.16421 11.5717 7.82843 11.2359 7.41421 11.2359C7 11.2359 6.66421 11.5717 6.66421 11.9859V14.8143C6.66421 15.2285 7 15.5643 7.41421 15.5643H10.2426C10.6569 15.5643 10.9926 15.2285 10.9926 14.8143C10.9926 14.4001 10.6569 14.0643 10.2426 14.0643Z" fill="#363538"/>
<path fill-rule="evenodd" clip-rule="evenodd" d="M2 12C2 15.7385 2 17.6077 2.80385 19C3.33046 19.9121 4.08788 20.6695 5 21.1962C6.3923 22 8.26154 22 12 22C15.7385 22 17.6077 22 19 21.1962C19.9121 20.6695 20.6695 19.9121 21.1962 19C22 17.6077 22 15.7385 22 12C22 8.26154 22 6.3923 21.1962 5C20.6695 4.08788 19.9121 3.33046 19 2.80385C17.6077 2 15.7385 2 12 2C8.26154 2 6.3923 2 5 2.80385C4.08788 3.33046 3.33046 4.08788 2.80385 5C2 6.3923 2 8.26154 2 12ZM19.8971 5.75C20.1453 6.1798 20.3146 6.75097 20.4056 7.75559C20.4986 8.78082 20.5 10.1032 20.5 12C20.5 13.8968 20.4986 15.2192 20.4056 16.2444C20.3146 17.249 20.1453 17.8202 19.8971 18.25C19.5022 18.9341 18.9341 19.5022 18.25 19.8971C17.8202 20.1453 17.249 20.3146 16.2444 20.4056C15.2192 20.4986 13.8968 20.5 12 20.5C10.1032 20.5 8.78082 20.4986 7.75559 20.4056C6.75097 20.3146 6.1798 20.1453 5.75 19.8971C5.06591 19.5022 4.49784 18.9341 4.10289 18.25C3.85474 17.8202 3.68541 17.249 3.59436 16.2444C3.50144 15.2192 3.5 13.8968 3.5 12C3.5 10.1032 3.50144 8.78082 3.59436 7.75559C3.68541 6.75097 3.85474 6.1798 4.10289 5.75C4.49784 5.06591 5.06591 4.49784 5.75 4.10289C6.1798 3.85474 6.75097 3.68541 7.75559 3.59436C8.78082 3.50144 10.1032 3.5 12 3.5C13.8968 3.5 15.2192 3.50144 16.2444 3.59436C17.249 3.68541 17.8202 3.85474 18.25 4.10289C18.9341 4.49784 19.5022 5.06591 19.8971 5.75Z" fill="#363538"/>
</svg>
