<svg width="24" height="24" viewBox="0 0 24 24" fill="none" xmlns="http://www.w3.org/2000/svg">
<path fill-rule="evenodd" clip-rule="evenodd" d="M9 1.94995C9.41421 1.94995 9.75 2.28574 9.75 2.69995V5.99994H14.25V2.69995C14.25 2.28574 14.5858 1.94995 15 1.94995C15.4142 1.94995 15.75 2.28574 15.75 2.69995V5.99994H18.2593C18.6684 5.99994 19 6.33158 19 6.74068V8.99994C19 12.4979 16.4343 15.3966 13.0821 15.9168C13.1464 16.1025 13.2058 16.3011 13.2548 16.5082C13.4055 17.1451 13.4735 17.9317 13.2079 18.6905C12.8429 19.7334 12.75 20.8834 12.75 21.2999C12.75 21.7141 12.4142 22.0499 12 22.0499C11.5858 22.0499 11.25 21.7141 11.25 21.2999C11.25 20.7641 11.3571 19.4379 11.7921 18.195C11.9265 17.811 11.9111 17.3437 11.7952 16.8536C11.7193 16.5328 11.6071 16.2313 11.4968 15.9821C7.8657 15.7242 5 12.6967 5 8.99994V6.74068C5 6.33158 5.33164 5.99994 5.74074 5.99994H8.25V2.69995C8.25 2.28574 8.58579 1.94995 9 1.94995ZM6.5 8.99994V7.49994H17.5V8.99994C17.5 12.0375 15.0376 14.4999 12 14.4999C8.96243 14.4999 6.5 12.0375 6.5 8.99994Z" fill="#363538"/>
</svg>
