<svg width="24" height="24" viewBox="0 0 24 24" fill="none" xmlns="http://www.w3.org/2000/svg">
<path fill-rule="evenodd" clip-rule="evenodd" d="M2 12.0002C2 15.7387 2 17.6079 2.80385 19.0002C3.33046 19.9124 4.08788 20.6698 5 21.1964C6.3923 22.0002 8.26154 22.0002 12 22.0002C15.7385 22.0002 17.6077 22.0002 19 21.1964C19.9121 20.6698 20.6695 19.9124 21.1962 19.0002C22 17.6079 22 15.7387 22 12.0002C22 8.26178 22 6.39255 21.1962 5.00024C20.6695 4.08813 19.9121 3.3307 19 2.80409C17.6077 2.00024 15.7385 2.00024 12 2.00024C8.26154 2.00024 6.3923 2.00024 5 2.80409C4.08788 3.3307 3.33046 4.08813 2.80385 5.00024C2 6.39255 2 8.26178 2 12.0002ZM19.8971 5.75024C20.1453 6.18005 20.3146 6.75121 20.4056 7.75583C20.4986 8.78107 20.5 10.1034 20.5 12.0002C20.5 13.8971 20.4986 15.2194 20.4056 16.2447C20.3146 17.2493 20.1453 17.8204 19.8971 18.2502C19.5022 18.9343 18.9341 19.5024 18.25 19.8974C17.8202 20.1455 17.249 20.3148 16.2444 20.4059C15.2192 20.4988 13.8968 20.5002 12 20.5002C10.1032 20.5002 8.78082 20.4988 7.75559 20.4059C6.75097 20.3148 6.1798 20.1455 5.75 19.8974C5.06591 19.5024 4.49784 18.9343 4.10289 18.2502C3.85474 17.8204 3.68541 17.2493 3.59436 16.2447C3.50144 15.2194 3.5 13.8971 3.5 12.0002C3.5 10.1034 3.50144 8.78107 3.59436 7.75583C3.68541 6.75121 3.85474 6.18005 4.10289 5.75024C4.49784 5.06616 5.06591 4.49809 5.75 4.10313C6.1798 3.85498 6.75097 3.68565 7.75559 3.5946C8.78082 3.50168 10.1032 3.50024 12 3.50024C13.8968 3.50024 15.2192 3.50168 16.2444 3.5946C17.249 3.68565 17.8202 3.85498 18.25 4.10313C18.9341 4.49809 19.5022 5.06616 19.8971 5.75024Z" fill="#363538"/>
</svg>
