<svg width="24" height="24" viewBox="0 0 24 24" fill="none" xmlns="http://www.w3.org/2000/svg">
<path d="M3.53033 4.46966C3.23744 4.17677 2.76256 4.17677 2.46967 4.46966C2.17678 4.76256 2.17678 5.23743 2.46967 5.53032L3.96968 7.03033C4.11033 7.17098 4.3011 7.25 4.50001 7.25C4.69892 7.25 4.88969 7.17098 5.03034 7.03033L8.03033 4.03033C8.32322 3.73744 8.32322 3.26256 8.03033 2.96967C7.73744 2.67678 7.26256 2.67678 6.96967 2.96967L4.50001 5.43934L3.53033 4.46966Z" fill="#363538"/>
<path d="M11 4.25C10.5858 4.25 10.25 4.58579 10.25 5C10.25 5.41421 10.5858 5.75 11 5.75H21C21.4142 5.75 21.75 5.41421 21.75 5C21.75 4.58579 21.4142 4.25 21 4.25H11Z" fill="#363538"/>
<path d="M11 11.25C10.5858 11.25 10.25 11.5858 10.25 12C10.25 12.4142 10.5858 12.75 11 12.75H21C21.4142 12.75 21.75 12.4142 21.75 12C21.75 11.5858 21.4142 11.25 21 11.25H11Z" fill="#363538"/>
<path d="M10.25 19C10.25 18.5858 10.5858 18.25 11 18.25H21C21.4142 18.25 21.75 18.5858 21.75 19C21.75 19.4142 21.4142 19.75 21 19.75H11C10.5858 19.75 10.25 19.4142 10.25 19Z" fill="#363538"/>
<path d="M2.46967 11.4697C2.76256 11.1768 3.23744 11.1768 3.53033 11.4697L4.50001 12.4393L6.96967 9.96967C7.26256 9.67678 7.73744 9.67678 8.03033 9.96967C8.32322 10.2626 8.32322 10.7374 8.03033 11.0303L5.03034 14.0303C4.88969 14.171 4.69892 14.25 4.50001 14.25C4.3011 14.25 4.11033 14.171 3.96968 14.0303L2.46967 12.5303C2.17678 12.2374 2.17678 11.7626 2.46967 11.4697Z" fill="#363538"/>
<path d="M3.53033 18.4697C3.23744 18.1768 2.76256 18.1768 2.46967 18.4697C2.17678 18.7626 2.17678 19.2374 2.46967 19.5303L3.96968 21.0303C4.11033 21.171 4.3011 21.25 4.50001 21.25C4.69892 21.25 4.88969 21.171 5.03034 21.0303L8.03033 18.0303C8.32322 17.7374 8.32322 17.2626 8.03033 16.9697C7.73744 16.6768 7.26256 16.6768 6.96967 16.9697L4.50001 19.4393L3.53033 18.4697Z" fill="#363538"/>
</svg>
