<svg width="24" height="24" viewBox="0 0 24 24" fill="none" xmlns="http://www.w3.org/2000/svg">
<path fill-rule="evenodd" clip-rule="evenodd" d="M13.3739 4.20828C14.302 4.34104 15.0532 4.8628 15.6425 5.52859C16.2288 6.19131 16.6903 7.03399 17.0516 7.90359C17.6523 9.3492 18.0155 10.9721 18.1991 12.2317C18.3771 12.2155 18.5805 12.1994 18.7831 12.2005C19.2898 12.2032 19.8833 12.3145 20.3934 12.8245C21.966 14.3975 21.9661 16.9479 20.3934 18.5208C18.8206 20.0933 16.2701 20.0932 14.6972 18.5208C13.1244 16.9479 13.1245 14.3974 14.6972 12.8245C15.2074 12.3143 15.8019 12.2031 16.3085 12.2005C16.4343 12.1998 16.5606 12.2056 16.6806 12.2141C16.5011 11.0871 16.1737 9.69958 15.6669 8.47976C15.3414 7.69652 14.9567 7.01702 14.5194 6.52273C14.2469 6.2148 13.9671 5.99286 13.6806 5.85379C13.0567 7.19944 12.1461 8.96734 11.1561 10.4964C10.5847 11.3789 9.97023 12.209 9.35438 12.8352C9.28318 12.9076 9.20881 12.9788 9.13368 13.0491C9.46053 13.2217 9.77504 13.4839 10.0028 13.9055L10.0975 14.0911C11.013 16.0147 10.2686 18.3397 8.37294 19.3636C6.41578 20.4204 3.97211 19.6906 2.91493 17.7337C1.85801 15.7764 2.58774 13.3328 4.54481 12.2757L4.66395 12.2161C4.75191 12.1752 4.83945 12.1423 4.92567 12.1155C4.68952 11.7716 4.49599 11.3612 4.37196 10.8723L4.3202 10.6438C4.17633 9.92413 4.23316 9.18403 4.6952 8.68875C5.21483 8.13215 5.95437 8.17042 6.51649 8.45144C7.36631 8.87657 8.12571 9.93186 8.54091 11.5052C8.9795 11.0123 9.44042 10.3851 9.89638 9.68093C10.9862 7.99774 11.992 5.98498 12.5819 4.64773L12.6405 4.53836C12.798 4.29863 13.0828 4.16668 13.3739 4.20828ZM5.84559 13.5784C5.64238 13.5188 5.50398 13.5097 5.37977 13.5452L5.2577 13.595C4.02931 14.2584 3.57189 15.7924 4.23524 17.0208C4.89877 18.2486 6.43188 18.7072 7.66005 18.0442C8.81147 17.4223 9.28635 16.0348 8.79481 14.8518L8.68349 14.6184C8.59627 14.4569 8.47149 14.3636 8.20204 14.2815C8.05494 14.2367 7.89097 14.2035 7.68056 14.1614C7.58187 14.1417 7.47191 14.1197 7.35731 14.094L7.00184 14.0032C6.76232 13.9317 6.53461 13.8393 6.34755 13.7639C6.14855 13.6838 5.99318 13.6217 5.84559 13.5784ZM18.7753 13.7005C18.6215 13.6997 18.4549 13.7147 18.2411 13.7346C18.1408 13.744 18.0293 13.7548 17.912 13.763L17.5458 13.7766C17.2958 13.7767 17.0513 13.7533 16.8505 13.7346C16.6368 13.7148 16.4702 13.6997 16.3163 13.7005C16.034 13.7019 15.8882 13.7558 15.7587 13.885C14.7716 14.8722 14.7715 16.4731 15.7587 17.4602C16.7458 18.4466 18.3459 18.4469 19.3329 17.4602C20.3198 16.4732 20.3196 14.8722 19.3329 13.885C19.2031 13.7553 19.0571 13.702 18.7753 13.7005ZM5.77528 9.76492C5.75239 9.84552 5.72533 10.0219 5.79091 10.3499L5.85927 10.6194C6.09579 11.3875 6.61933 11.8194 7.13173 12.0423C6.79365 10.6262 6.18786 9.96466 5.84559 9.79324C5.81746 9.77918 5.79336 9.77151 5.77528 9.76492Z" fill="#363538"/>
</svg>
