<svg width="24" height="24" viewBox="0 0 24 24" fill="none" xmlns="http://www.w3.org/2000/svg">
<path fill-rule="evenodd" clip-rule="evenodd" d="M17.3404 3.24805C17.7189 3.28254 18.0169 3.59909 18.021 3.9873C18.025 4.40125 17.6929 4.74082 17.2789 4.74512L17.2066 4.75C17.0344 4.77322 16.8426 4.87263 16.6412 5.05957C16.5637 5.13152 16.4935 5.21013 16.4312 5.28711C16.6501 5.56204 16.9018 5.91303 17.149 6.33008C17.4211 6.78927 17.6972 7.33524 17.9302 7.95312L18.0269 8.22266L18.0425 8.27344C19.3994 13.3577 17.6549 17.0412 14.8609 19.1826C12.134 21.2723 8.40636 21.8858 5.77593 20.915C5.51472 20.8185 5.32776 20.5857 5.29155 20.3096C5.25551 20.0332 5.37607 19.759 5.60405 19.5986C7.95028 17.9487 9.09944 16.5309 9.63237 15.2568C10.1605 13.9939 10.1264 12.771 9.89507 11.3984C9.71012 10.3009 9.61708 9.10746 9.80425 8.02441C9.99348 6.93005 10.483 5.88252 11.5142 5.21094L11.691 5.10352C12.1154 4.8656 12.6239 4.70399 13.1392 4.60742C13.764 4.49037 14.4547 4.4604 15.1177 4.53613C15.2543 4.34446 15.4228 4.14361 15.6207 3.95996C15.9994 3.60841 16.5592 3.25159 17.2632 3.24414L17.3404 3.24805ZM12.7769 6.25391C12.6001 6.31884 12.4507 6.39155 12.3335 6.46777C11.7596 6.8416 11.4253 7.45007 11.2818 8.28027C11.1364 9.12198 11.2016 10.1232 11.3746 11.1494C11.6261 12.6417 11.7019 14.194 11.0152 15.8359C10.4643 17.1527 9.44966 18.4607 7.7769 19.832C9.71646 20.0139 12.084 19.4212 13.9478 17.9932C16.251 16.2281 17.7887 13.1775 16.6011 8.68945C16.4842 8.35343 16.3505 8.03962 16.2105 7.75098C15.8731 7.90609 15.5404 7.99854 15.2125 8.01953C14.6354 8.0564 14.1423 7.8747 13.7525 7.58203C13.2854 7.23123 12.9744 6.72991 12.7769 6.25391ZM14.3218 5.99512C14.4178 6.15288 14.529 6.28866 14.6529 6.38184C14.7855 6.48138 14.9311 6.53424 15.1167 6.52246C15.2017 6.517 15.3063 6.49495 15.4322 6.4502C15.3124 6.28568 15.2063 6.14953 15.1177 6.04785C14.8614 6.00853 14.592 5.99218 14.3218 5.99512Z" fill="#363538"/>
</svg>
