<svg width="24" height="24" viewBox="0 0 24 24" fill="none" xmlns="http://www.w3.org/2000/svg">
<path fill-rule="evenodd" clip-rule="evenodd" d="M12.7874 2.35669C12.3742 1.8811 11.6261 1.8811 11.2128 2.35669C10.4427 3.243 9.24409 4.56862 8.25012 5.43007C7.49179 6.08729 6.51763 6.76463 5.56516 7.37084C4.68079 7.93372 5.06999 9.43007 6.1183 9.43007H10.2927C9.08625 10.7895 7.43514 12.541 5.99996 13.6801C5.27744 14.2535 4.37228 14.8601 3.48574 15.4144C2.60158 15.9672 2.98477 17.4301 4.02754 17.4301H11.25V21.4301C11.25 21.8443 11.5858 22.1801 12 22.1801C12.4142 22.1801 12.75 21.8443 12.75 21.4301V17.4301H19.9724C21.0152 17.4301 21.3983 15.9672 20.5142 15.4144C19.6276 14.8601 18.7225 14.2535 18 13.6801C16.5648 12.541 14.9137 10.7895 13.7073 9.43007H17.8819C18.9302 9.43007 19.3194 7.93372 18.4351 7.37084C17.4826 6.76463 16.5084 6.08729 15.7501 5.43007C14.7561 4.56862 13.5575 3.243 12.7874 2.35669ZM16.5611 7.93007C15.9268 7.49331 15.3052 7.02941 14.7677 6.5636C13.835 5.75524 12.7704 4.605 12.0001 3.73411C11.2298 4.605 10.1652 5.75524 9.23251 6.5636C8.69505 7.02941 8.0734 7.49331 7.43915 7.93007H16.5611ZM18.5514 15.9301C18.0282 15.5777 17.5193 15.2136 17.0675 14.855C15.2753 13.4327 13.2241 11.1722 12 9.75782C10.7759 11.1722 8.72458 13.4327 6.93245 14.855C6.4806 15.2136 5.97171 15.5777 5.44856 15.9301H18.5514Z" fill="#363538"/>
</svg>
