<svg width="24" height="24" viewBox="0 0 24 24" fill="none" xmlns="http://www.w3.org/2000/svg">
<path fill-rule="evenodd" clip-rule="evenodd" d="M12.1044 3.52332C12.0381 3.49288 11.9619 3.49288 11.8956 3.52332L3.64562 7.31392C3.55688 7.3547 3.5 7.44342 3.5 7.54109V20.2501C3.5 20.3881 3.61193 20.5001 3.75 20.5001H9.25V19.5C9.25 17.9812 10.4812 16.75 12 16.75C13.5188 16.75 14.75 17.9812 14.75 19.5V20.5001H20.25C20.3881 20.5001 20.5 20.3881 20.5 20.2501V7.54109C20.5 7.44342 20.4431 7.3547 20.3544 7.31392L12.1044 3.52332ZM13.25 20.5001V19.5C13.25 18.8096 12.6904 18.25 12 18.25C11.3096 18.25 10.75 18.8096 10.75 19.5V20.5001H13.25ZM11.2694 2.16031C11.7331 1.94722 12.2669 1.94721 12.7306 2.16031L20.9806 5.95091C21.6019 6.23634 22 6.85742 22 7.54109V20.2501C22 21.2166 21.2165 22.0001 20.25 22.0001H3.75C2.7835 22.0001 2 21.2165 2 20.2501V7.54109C2 6.85742 2.39813 6.23635 3.01937 5.95091L11.2694 2.16031ZM12 6.24998C12.4142 6.24998 12.75 6.58577 12.75 6.99998V7.24998H13.3335C13.7478 7.24998 14.0835 7.58577 14.0835 7.99998C14.0835 8.4142 13.7478 8.74998 13.3335 8.74998H12.75V12C12.75 12.4142 12.4142 12.75 12 12.75C11.5858 12.75 11.25 12.4142 11.25 12V8.74998H10.6654C10.2512 8.74998 9.91544 8.4142 9.91544 7.99998C9.91544 7.58577 10.2512 7.24998 10.6654 7.24998H11.25V6.99998C11.25 6.58577 11.5858 6.24998 12 6.24998ZM5.25 12C5.25 11.5858 5.58579 11.25 6 11.25H7.32965C7.74386 11.25 8.07965 11.5858 8.07965 12C8.07965 12.4142 7.74386 12.75 7.32965 12.75H6C5.58579 12.75 5.25 12.4142 5.25 12ZM15.918 12C15.918 11.5858 16.2538 11.25 16.668 11.25H18C18.4142 11.25 18.75 11.5858 18.75 12C18.75 12.4142 18.4142 12.75 18 12.75H16.668C16.2538 12.75 15.918 12.4142 15.918 12ZM5.25 15.5C5.25 15.0858 5.58579 14.75 6 14.75H7.32965C7.74386 14.75 8.07965 15.0858 8.07965 15.5C8.07965 15.9142 7.74386 16.25 7.32965 16.25H6C5.58579 16.25 5.25 15.9142 5.25 15.5ZM15.918 15.5C15.918 15.0858 16.2538 14.75 16.668 14.75H18C18.4142 14.75 18.75 15.0858 18.75 15.5C18.75 15.9142 18.4142 16.25 18 16.25H16.668C16.2538 16.25 15.918 15.9142 15.918 15.5Z" fill="#363538"/>
</svg>
