<svg width="24" height="24" viewBox="0 0 24 24" fill="none" xmlns="http://www.w3.org/2000/svg">
<path d="M6.84301 3.12945C7.35259 3.32829 7.33288 3.99258 6.92687 4.39858L4.65311 6.67235C4.2471 7.07835 3.58282 7.09807 3.38398 6.58849C3.26358 6.27994 3.20659 5.94717 3.21627 5.60918C3.22595 5.2712 3.30211 4.93461 3.4404 4.61865C3.57868 4.30269 3.77639 4.01353 4.02222 3.7677C4.26806 3.52186 4.55721 3.32416 4.87318 3.18587C5.18914 3.04759 5.52572 2.97143 5.86371 2.96175C6.20169 2.95207 6.53446 3.00905 6.84301 3.12945Z" fill="#363538"/>
<path d="M12.75 7.99994C12.75 7.58572 12.4142 7.24994 12 7.24994C11.5858 7.24994 11.25 7.58572 11.25 7.99994V13.9999C11.25 14.4141 11.5858 14.7499 12 14.7499H16C16.4142 14.7499 16.75 14.4141 16.75 13.9999C16.75 13.5857 16.4142 13.2499 16 13.2499H12.75V7.99994Z" fill="#363538"/>
<path fill-rule="evenodd" clip-rule="evenodd" d="M21 12.9999C21 17.9705 16.9706 21.9999 12 21.9999C7.02944 21.9999 3 17.9705 3 12.9999C3 8.02937 7.02944 3.99994 12 3.99994C16.9706 3.99994 21 8.02937 21 12.9999ZM19.5 12.9999C19.5 17.1421 16.1421 20.4999 12 20.4999C7.85786 20.4999 4.5 17.1421 4.5 12.9999C4.5 8.8578 7.85786 5.49993 12 5.49993C16.1421 5.49993 19.5 8.8578 19.5 12.9999Z" fill="#363538"/>
<path d="M17.0776 4.39858C16.6716 3.99258 16.6519 3.32829 17.1614 3.12945C17.47 3.00905 17.8028 2.95207 18.1407 2.96175C18.4787 2.97143 18.8153 3.04759 19.1313 3.18587C19.4472 3.32416 19.7364 3.52186 19.9822 3.7677C20.2281 4.01353 20.4258 4.30269 20.5641 4.61865C20.7023 4.93461 20.7785 5.2712 20.7882 5.60918C20.7979 5.94717 20.7409 6.27994 20.6205 6.58849C20.4216 7.09807 19.7574 7.07835 19.3513 6.67235L17.0776 4.39858Z" fill="#363538"/>
</svg>
