<svg width="24" height="24" viewBox="0 0 24 24" fill="none" xmlns="http://www.w3.org/2000/svg">
<path fill-rule="evenodd" clip-rule="evenodd" d="M19 2.75C18.5858 2.75 18.25 2.41421 18.25 2C18.25 1.58579 18.5858 1.25 19 1.25H22C22.3033 1.25 22.5768 1.43273 22.6929 1.71299C22.809 1.99324 22.7448 2.31583 22.5303 2.53033L20.8107 4.25H22C22.4142 4.25 22.75 4.58579 22.75 5C22.75 5.41421 22.4142 5.75 22 5.75H19C18.6967 5.75 18.4232 5.56727 18.3071 5.28701C18.191 5.00676 18.2552 4.68417 18.4697 4.46967L20.1893 2.75H19ZM11 5.75C6.99594 5.75 3.75 8.99594 3.75 13C3.75 17.0041 6.99594 20.25 11 20.25C15.0041 20.25 18.25 17.0041 18.25 13C18.25 12.1617 18.108 11.3581 17.8474 10.611C17.711 10.2199 17.9174 9.79229 18.3085 9.65586C18.6996 9.51942 19.1273 9.72587 19.2637 10.117C19.579 11.0207 19.75 11.9912 19.75 13C19.75 17.8325 15.8325 21.75 11 21.75C6.16751 21.75 2.25 17.8325 2.25 13C2.25 8.16751 6.16751 4.25 11 4.25C11.5598 4.25 12.1081 4.30267 12.6398 4.40354C13.0467 4.48073 13.3141 4.87322 13.2369 5.28017C13.1597 5.68713 12.7672 5.95445 12.3602 5.87726C11.9202 5.79379 11.4656 5.75 11 5.75ZM15 6.75C14.5858 6.75 14.25 6.41421 14.25 6C14.25 5.58579 14.5858 5.25 15 5.25H17C17.3033 5.25 17.5768 5.43273 17.6929 5.71299C17.809 5.99324 17.7448 6.31583 17.5303 6.53033L16.8107 7.25H17C17.4142 7.25 17.75 7.58579 17.75 8C17.75 8.41421 17.4142 8.75 17 8.75H15C14.6967 8.75 14.4232 8.56727 14.3071 8.28701C14.191 8.00676 14.2552 7.68417 14.4697 7.46967L15.1893 6.75H15ZM11 7.75C11.4142 7.75 11.75 8.08579 11.75 8.5V13.15H14.6C15.0142 13.15 15.35 13.4858 15.35 13.9C15.35 14.3142 15.0142 14.65 14.6 14.65H11C10.5858 14.65 10.25 14.3142 10.25 13.9V8.5C10.25 8.08579 10.5858 7.75 11 7.75Z" fill="#363538"/>
</svg>
