<svg width="24" height="24" viewBox="0 0 24 24" fill="none" xmlns="http://www.w3.org/2000/svg">
<path d="M12.75 7C12.75 6.58579 12.4142 6.25 12 6.25C11.5858 6.25 11.25 6.58579 11.25 7V13C11.25 13.4142 11.5858 13.75 12 13.75H16C16.4142 13.75 16.75 13.4142 16.75 13C16.75 12.5858 16.4142 12.25 16 12.25H12.75V7Z" fill="#363538"/>
<path fill-rule="evenodd" clip-rule="evenodd" d="M22 12C22 17.5228 17.5228 22 12 22C6.47715 22 2 17.5228 2 12C2 6.47715 6.47715 2 12 2C17.5228 2 22 6.47715 22 12ZM20.5 12C20.5 16.6944 16.6944 20.5 12 20.5C7.30558 20.5 3.5 16.6944 3.5 12C3.5 7.30558 7.30558 3.5 12 3.5C16.6944 3.5 20.5 7.30558 20.5 12Z" fill="#363538"/>
</svg>
