<svg width="24" height="24" viewBox="0 0 24 24" fill="none" xmlns="http://www.w3.org/2000/svg">
<path d="M9.7019 8.64149C9.409 8.34859 8.93413 8.34859 8.64124 8.64149C8.34834 8.93438 8.34834 9.40925 8.64124 9.70215L10.9393 12.0002L8.64124 14.2983C8.34834 14.5912 8.34834 15.0661 8.64124 15.359C8.93413 15.6519 9.409 15.6519 9.7019 15.359L12 13.0609L14.2981 15.359C14.591 15.6519 15.0659 15.6519 15.3588 15.359C15.6516 15.0661 15.6516 14.5912 15.3588 14.2983L13.0607 12.0002L15.3588 9.70215C15.6516 9.40925 15.6516 8.93438 15.3588 8.64149C15.0659 8.34859 14.591 8.34859 14.2981 8.64149L12 10.9396L9.7019 8.64149Z" fill="#363538"/>
<path fill-rule="evenodd" clip-rule="evenodd" d="M2.80385 19.0002C2 17.6079 2 15.7387 2 12.0002C2 8.26178 2 6.39255 2.80385 5.00024C3.33046 4.08813 4.08788 3.3307 5 2.80409C6.3923 2.00024 8.26154 2.00024 12 2.00024C15.7385 2.00024 17.6077 2.00024 19 2.80409C19.9121 3.3307 20.6695 4.08813 21.1962 5.00024C22 6.39255 22 8.26178 22 12.0002C22 15.7387 22 17.6079 21.1962 19.0002C20.6695 19.9124 19.9121 20.6698 19 21.1964C17.6077 22.0002 15.7385 22.0002 12 22.0002C8.26154 22.0002 6.3923 22.0002 5 21.1964C4.08788 20.6698 3.33046 19.9124 2.80385 19.0002ZM20.4056 7.75583C20.3146 6.75121 20.1453 6.18005 19.8971 5.75024C19.5022 5.06616 18.9341 4.49809 18.25 4.10313C17.8202 3.85498 17.249 3.68565 16.2444 3.5946C15.2192 3.50168 13.8968 3.50024 12 3.50024C10.1032 3.50024 8.78082 3.50168 7.75559 3.5946C6.75097 3.68565 6.1798 3.85498 5.75 4.10313C5.06591 4.49809 4.49784 5.06616 4.10289 5.75024C3.85474 6.18005 3.68541 6.75121 3.59436 7.75583C3.50144 8.78107 3.5 10.1034 3.5 12.0002C3.5 13.8971 3.50144 15.2194 3.59436 16.2447C3.68541 17.2493 3.85474 17.8204 4.10289 18.2502C4.49784 18.9343 5.06591 19.5024 5.75 19.8974C6.1798 20.1455 6.75097 20.3148 7.75559 20.4059C8.78082 20.4988 10.1032 20.5002 12 20.5002C13.8968 20.5002 15.2192 20.4988 16.2444 20.4059C17.249 20.3148 17.8202 20.1455 18.25 19.8974C18.9341 19.5024 19.5022 18.9343 19.8971 18.2502C20.1453 17.8204 20.3146 17.2493 20.4056 16.2447C20.4986 15.2194 20.5 13.8971 20.5 12.0002C20.5 10.1034 20.4986 8.78107 20.4056 7.75583Z" fill="#363538"/>
</svg>
