<svg width="24" height="24" viewBox="0 0 24 24" fill="none" xmlns="http://www.w3.org/2000/svg">
<path d="M11.2684 11.1262C11.4481 11.1262 11.5892 10.9688 11.5473 10.7941C11.4981 10.5891 11.4267 10.4006 11.3332 10.2285C11.193 9.96715 11.0112 9.74651 10.7877 9.56658C10.5642 9.38477 10.3076 9.24651 10.0178 9.15181C9.72997 9.05711 9.41747 9.00977 9.08034 9.00977C8.56898 9.00977 8.10875 9.12719 7.69966 9.36204C7.29057 9.59499 6.96671 9.93401 6.72807 10.3791C6.48944 10.8242 6.37012 11.3639 6.37012 11.9984C6.37012 12.631 6.48754 13.1698 6.72239 13.6149C6.95913 14.06 7.2811 14.3999 7.6883 14.6348C8.09739 14.8696 8.56141 14.987 9.08034 14.987C9.45345 14.987 9.78773 14.9312 10.0832 14.8194C10.3805 14.7058 10.6362 14.5524 10.8502 14.3592C11.0661 14.1641 11.2375 13.9435 11.3644 13.6973C11.4394 13.5529 11.498 13.4053 11.5402 13.2545C11.5886 13.0818 11.4485 12.9238 11.2691 12.923L10.6129 12.92C10.4675 12.9193 10.3468 13.025 10.2938 13.1604C10.2698 13.2216 10.2413 13.2793 10.2082 13.3336C10.1362 13.4548 10.0453 13.5581 9.93546 13.6433C9.82561 13.7266 9.69966 13.7901 9.55762 13.8336C9.41747 13.8772 9.265 13.899 9.10023 13.899C8.80667 13.899 8.54815 13.827 8.32466 13.6831C8.10118 13.5391 7.92694 13.3261 7.80194 13.0439C7.67883 12.7617 7.61728 12.4132 7.61728 11.9984C7.61728 11.595 7.67883 11.2522 7.80194 10.97C7.92504 10.6859 8.09834 10.47 8.32182 10.3223C8.54531 10.1726 8.80762 10.0978 9.10875 10.0978C9.27542 10.0978 9.42978 10.1215 9.57182 10.1689C9.71576 10.2162 9.84266 10.2844 9.9525 10.3734C10.0624 10.4624 10.1523 10.5704 10.2224 10.6973C10.2533 10.7524 10.2796 10.811 10.3013 10.8731C10.3506 11.0142 10.4727 11.1262 10.6222 11.1262H11.2684Z" fill="#363538"/>
<path d="M17.2841 11.1262C17.4637 11.1262 17.6048 10.9688 17.5629 10.7941C17.5137 10.5891 17.4423 10.4006 17.3488 10.2285C17.2087 9.96715 17.0268 9.74651 16.8034 9.56658C16.5799 9.38477 16.3232 9.24651 16.0335 9.15181C15.7456 9.05711 15.4331 9.00977 15.096 9.00977C14.5846 9.00977 14.1244 9.12719 13.7153 9.36204C13.3062 9.59499 12.9823 9.93401 12.7437 10.3791C12.5051 10.8242 12.3857 11.3639 12.3857 11.9984C12.3857 12.631 12.5032 13.1698 12.738 13.6149C12.9748 14.06 13.2967 14.3999 13.7039 14.6348C14.113 14.8696 14.577 14.987 15.096 14.987C15.4691 14.987 15.8034 14.9312 16.0988 14.8194C16.3962 14.7058 16.6518 14.5524 16.8659 14.3592C17.0818 14.1641 17.2532 13.9435 17.3801 13.6973C17.455 13.5529 17.5136 13.4053 17.5558 13.2545C17.6042 13.0818 17.4641 12.9238 17.2848 12.923L16.6285 12.92C16.4831 12.9193 16.3625 13.025 16.3094 13.1604C16.2854 13.2216 16.2569 13.2793 16.2238 13.3336C16.1518 13.4548 16.0609 13.5581 15.9511 13.6433C15.8412 13.7266 15.7153 13.7901 15.5732 13.8336C15.4331 13.8772 15.2806 13.899 15.1159 13.899C14.8223 13.899 14.5638 13.827 14.3403 13.6831C14.1168 13.5391 13.9426 13.3261 13.8176 13.0439C13.6945 12.7617 13.6329 12.4132 13.6329 11.9984C13.6329 11.595 13.6945 11.2522 13.8176 10.97C13.9407 10.6859 14.114 10.47 14.3374 10.3223C14.5609 10.1726 14.8232 10.0978 15.1244 10.0978C15.291 10.0978 15.4454 10.1215 15.5874 10.1689C15.7314 10.2162 15.8583 10.2844 15.9681 10.3734C16.078 10.4624 16.1679 10.5704 16.238 10.6973C16.2689 10.7524 16.2952 10.811 16.3169 10.8731C16.3662 11.0142 16.4884 11.1262 16.6378 11.1262H17.2841Z" fill="#363538"/>
<path fill-rule="evenodd" clip-rule="evenodd" d="M18 3H6C3.79086 3 2 4.79086 2 7V17C2 19.2091 3.79086 21 6 21H18C20.2091 21 22 19.2091 22 17V7C22 4.79086 20.2091 3 18 3ZM6 4.5H18C19.3807 4.5 20.5 5.61929 20.5 7V17C20.5 18.3807 19.3807 19.5 18 19.5H6C4.61929 19.5 3.5 18.3807 3.5 17V7C3.5 5.61929 4.61929 4.5 6 4.5Z" fill="#363538"/>
</svg>
