<svg width="24" height="24" viewBox="0 0 24 24" fill="none" xmlns="http://www.w3.org/2000/svg">
<path d="M9.7019 8.64149C9.409 8.34859 8.93413 8.34859 8.64124 8.64149C8.34834 8.93438 8.34834 9.40925 8.64124 9.70215L10.9393 12.0002L8.64124 14.2983C8.34834 14.5912 8.34834 15.0661 8.64124 15.359C8.93413 15.6519 9.409 15.6519 9.7019 15.359L12 13.0609L14.2981 15.359C14.591 15.6519 15.0659 15.6519 15.3588 15.359C15.6516 15.0661 15.6516 14.5912 15.3588 14.2983L13.0607 12.0002L15.3588 9.70215C15.6516 9.40925 15.6516 8.93438 15.3588 8.64149C15.0659 8.34859 14.591 8.34859 14.2981 8.64149L12 10.9396L9.7019 8.64149Z" fill="#363538"/>
<path fill-rule="evenodd" clip-rule="evenodd" d="M22 12.0002C22 17.5231 17.5228 22.0002 12 22.0002C6.47715 22.0002 2 17.5231 2 12.0002C2 6.4774 6.47715 2.00024 12 2.00024C17.5228 2.00024 22 6.4774 22 12.0002ZM20.5 12.0002C20.5 16.6947 16.6944 20.5002 12 20.5002C7.30558 20.5002 3.5 16.6947 3.5 12.0002C3.5 7.30582 7.30558 3.50024 12 3.50024C16.6944 3.50024 20.5 7.30582 20.5 12.0002Z" fill="#363538"/>
</svg>
