<svg width="24" height="24" viewBox="0 0 24 24" fill="none" xmlns="http://www.w3.org/2000/svg">
<path fill-rule="evenodd" clip-rule="evenodd" d="M8.19653 3.27828C8.37498 3.22795 8.57229 3.24329 8.74931 3.33646C10.7841 4.40742 13.2159 4.40742 15.2507 3.33646C15.4277 3.24329 15.625 3.22795 15.8035 3.27828C15.8133 3.28104 15.823 3.284 15.8327 3.28715C15.8386 3.2891 15.8446 3.29112 15.8505 3.29321L21.2483 5.18719C21.5488 5.29264 21.75 5.5764 21.75 5.89489V10.6317C21.75 10.8643 21.6421 11.0837 21.4579 11.2257C21.2737 11.3677 21.034 11.4162 20.8091 11.357L18.15 10.6573V19.04C18.1566 19.403 17.8984 19.7268 17.5296 19.7915C13.8711 20.4333 10.1289 20.4333 6.4704 19.7915C6.21314 19.7464 6.00967 19.5751 5.91238 19.3525C5.87021 19.2559 5.848 19.1498 5.85 19.04V10.6573L3.19087 11.357C2.96595 11.4162 2.7263 11.3677 2.5421 11.2257C2.3579 11.0837 2.25 10.8643 2.25 10.6317V5.89489C2.25 5.5764 2.45115 5.29264 2.75168 5.18719L8.14946 3.29323C8.16499 3.28773 8.18069 3.28275 8.19653 3.27828ZM8.34831 4.81312L3.75 6.42656V9.65883L6.40913 8.95906C6.63405 8.89987 6.8737 8.94837 7.0579 9.09037C7.2421 9.23237 7.35 9.45179 7.35 9.68436V18.4163C10.4318 18.8917 13.5682 18.8917 16.65 18.4163V9.68436C16.65 9.45179 16.7579 9.23237 16.9421 9.09037C17.1263 8.94837 17.3659 8.89987 17.5909 8.95906L20.25 9.65883V6.42656L15.6517 4.81312C13.3425 5.9152 10.6575 5.9152 8.34831 4.81312Z" fill="#363538"/>
</svg>
