<svg width="24" height="24" viewBox="0 0 24 24" fill="none" xmlns="http://www.w3.org/2000/svg">
<path d="M13.7767 10.4179C14.0713 10.1777 14.5061 10.1951 14.7806 10.4696C15.055 10.7442 15.0725 11.179 14.8324 11.4735L14.7806 11.5302L11.804 14.5068C11.5184 14.792 11.0584 14.7995 10.763 14.5243L9.23862 13.1034L9.1849 13.0487C8.93465 12.7628 8.937 12.3279 9.20151 12.0439C9.46641 11.76 9.90073 11.727 10.2035 11.9569L10.2621 12.0068L11.2552 12.9335L13.7201 10.4696L13.7767 10.4179Z" fill="#363538"/>
<path fill-rule="evenodd" clip-rule="evenodd" d="M9.806 3.42081C11.4533 3.05029 13.2503 3.2642 14.724 4.24308C16.0823 5.14551 17.0913 6.64994 17.4788 8.76456C20.2244 9.06721 21.7503 11.2841 21.7503 13.54C21.7502 14.75 21.3156 15.9855 20.4037 16.9569C19.5441 17.8725 18.2961 18.5163 16.682 18.7138L16.3548 18.747C16.3344 18.7487 16.3128 18.7499 16.2923 18.7499H7.14682C4.71493 18.7499 2.90139 17.3796 2.39096 15.6112C2.1357 14.7267 2.22056 13.7669 2.71322 12.9081C3.11752 12.2036 3.7731 11.605 4.6644 11.1659C4.30173 9.23129 4.71507 7.53559 5.61947 6.20988C6.61089 4.75679 8.15979 3.79128 9.806 3.42081ZM13.8939 5.49308C12.8122 4.77454 11.4476 4.58977 10.1361 4.88468C8.82351 5.17998 7.61483 5.94592 6.85776 7.05558C6.11192 8.14915 5.77289 9.61986 6.25619 11.414C6.3568 11.7879 6.15626 12.1775 5.7933 12.3124C4.84647 12.6639 4.2963 13.1632 4.01401 13.6552C3.73355 14.1443 3.6834 14.6821 3.83139 15.1952C4.12807 16.2229 5.27461 17.2499 7.14682 17.2499H16.2591C17.6977 17.1254 18.6841 16.5971 19.3099 15.9306C19.9443 15.2547 20.2502 14.3932 20.2503 13.54C20.2503 11.8402 19.0575 10.2286 16.8304 10.2284C16.4507 10.2283 16.1313 9.94431 16.0863 9.5673C15.839 7.48698 14.9604 6.20174 13.8939 5.49308Z" fill="#363538"/>
</svg>
