<svg width="24" height="24" viewBox="0 0 24 24" fill="none" xmlns="http://www.w3.org/2000/svg">
<path d="M15 3.25C15.4142 3.25 15.75 3.58579 15.75 4V4.625C15.75 5.03921 15.4142 5.375 15 5.375C14.5858 5.375 14.25 5.03921 14.25 4.625V4C14.25 3.58579 14.5858 3.25 15 3.25Z" fill="#363538"/>
<path d="M16.4292 11.3628C16.1868 11.5625 16 11.8397 16 12.1538C16 12.7002 16.5279 13.0941 16.9907 12.8036C18.0475 12.1403 18.75 10.9647 18.75 9.625C18.75 7.55393 17.0711 5.875 15 5.875C14.0334 5.875 13.1522 6.24071 12.4873 6.84132C11.9867 7.29342 12.4016 8 13.0761 8C13.312 8 13.5342 7.90178 13.7287 7.76831C14.0904 7.52018 14.5283 7.375 15 7.375C16.2426 7.375 17.25 8.38236 17.25 9.625C17.25 10.3249 16.9304 10.9502 16.4292 11.3628Z" fill="#363538"/>
<path d="M20.6495 6.4624C20.8566 6.82112 20.7337 7.27981 20.375 7.48692L19.8337 7.79942C19.475 8.00653 19.0163 7.88362 18.8092 7.5249C18.6021 7.16618 18.725 6.70749 19.0837 6.50038L19.625 6.18788C19.9837 5.98078 20.4424 6.10368 20.6495 6.4624Z" fill="#363538"/>
<path d="M9.625 7.48692C9.26628 7.27981 9.14338 6.82112 9.35048 6.4624C9.55759 6.10368 10.0163 5.98078 10.375 6.18788L10.9163 6.50038C11.275 6.70749 11.3979 7.16618 11.1908 7.5249C10.9837 7.88362 10.525 8.00653 10.1663 7.79942L9.625 7.48692Z" fill="#363538"/>
<path d="M20.375 11.8505C20.7337 12.0576 20.8566 12.5163 20.6495 12.875C20.4424 13.2337 19.9837 13.3566 19.625 13.1495L19.0837 12.837C18.725 12.6299 18.6021 12.1712 18.8092 11.8125C19.0163 11.4538 19.475 11.3309 19.8337 11.538L20.375 11.8505Z" fill="#363538"/>
<path fill-rule="evenodd" clip-rule="evenodd" d="M12.2134 9.05948C13.2872 9.78005 14.0818 10.9628 14.405 12.5986C16.559 12.8991 17.75 14.6908 17.75 16.4954C17.75 17.4823 17.3994 18.4924 16.6602 19.2878C15.9158 20.0889 14.8181 20.6293 13.4008 20.7474C13.3801 20.7491 13.3593 20.75 13.3385 20.75H6.22476C4.26588 20.75 2.78399 19.632 2.36515 18.166C2.15575 17.4331 2.22512 16.6358 2.63029 15.9223C2.94576 15.3668 3.4445 14.8963 4.10844 14.5441C3.85605 13.033 4.1873 11.6997 4.89707 10.6487C5.69314 9.46986 6.93589 8.68849 8.25544 8.38859C9.57597 8.08846 11.0229 8.26061 12.2134 9.05948ZM5.69407 14.7852C5.32911 13.4166 5.58672 12.3077 6.14017 11.4881C6.70408 10.6531 7.60592 10.0745 8.58788 9.85129C9.56885 9.62833 10.5803 9.77004 11.3775 10.305C12.1605 10.8305 12.8241 11.7941 13.0121 13.3922C13.0565 13.7699 13.3767 14.0546 13.757 14.0546C15.3796 14.0546 16.25 15.2304 16.25 16.4954C16.25 17.13 16.0252 17.7676 15.5614 18.2668C15.1069 18.7558 14.3831 19.1541 13.3063 19.25H6.22476C4.83592 19.25 4.01628 18.4849 3.80744 17.754C3.70301 17.3884 3.73826 17.0088 3.93463 16.663C4.13218 16.3152 4.52607 15.9457 5.23274 15.6807C5.59392 15.5452 5.79346 15.1579 5.69407 14.7852Z" fill="#363538"/>
</svg>
