<svg width="24" height="24" viewBox="0 0 24 24" fill="none" xmlns="http://www.w3.org/2000/svg">
<path fill-rule="evenodd" clip-rule="evenodd" d="M9.80519 4.61329C11.4524 4.2266 13.2495 4.45006 14.7232 5.47131C15.2171 5.81374 15.6641 6.23988 16.0523 6.74916L17.8189 4.90677C18.1118 4.60114 18.5865 4.60114 18.8794 4.90677C19.1723 5.2124 19.1723 5.70782 18.8794 6.01343L4.03077 21.5077C3.7379 21.8133 3.26312 21.8132 2.97023 21.5077C2.67733 21.202 2.67733 20.7066 2.97023 20.401L3.83449 19.4981C3.1263 18.9263 2.62257 18.1737 2.39015 17.3337C2.13506 16.4109 2.22 15.4089 2.71241 14.5131C3.11664 13.778 3.77248 13.1533 4.66359 12.6952C4.30107 10.6767 4.71446 8.90684 5.61866 7.52362C6.60998 6.00744 8.15911 4.99995 9.80519 4.61329ZM13.8931 6.77566C12.8114 6.02606 11.4467 5.83301 10.1353 6.14081C8.82284 6.44904 7.61392 7.24826 6.85695 8.40609C6.11132 9.54709 5.77228 11.0822 6.25538 12.954C6.35586 13.3442 6.15555 13.7509 5.79249 13.8915C4.8459 14.2583 4.29544 14.7793 4.0132 15.2926C3.73298 15.8028 3.68276 16.3644 3.83058 16.8996C3.97975 17.4386 4.34477 17.9759 4.90773 18.3782L14.9829 7.86499C14.6609 7.41055 14.2904 7.05112 13.8931 6.77566Z" fill="#363538"/>
<path d="M17.478 10.1894C20.2236 10.505 21.7494 12.8184 21.7495 15.1724C21.7493 16.435 21.3148 17.7243 20.4028 18.738C19.4861 19.7568 18.1275 20.4531 16.354 20.6058C16.3337 20.6076 16.3119 20.6089 16.2915 20.6089H7.43116L8.93116 19.0437H16.2583C17.6968 18.9138 18.6832 18.3624 19.3091 17.667C19.9435 16.9618 20.2493 16.0627 20.2495 15.1724C20.2494 13.3988 19.0568 11.7169 16.8296 11.7169C16.5917 11.7166 16.3776 11.6 16.2398 11.4163L17.4673 10.1354C17.4706 10.1533 17.4749 10.1714 17.478 10.1894Z" fill="#363538"/>
</svg>
