<svg width="24" height="24" viewBox="0 0 24 24" fill="none" xmlns="http://www.w3.org/2000/svg">
<path fill-rule="evenodd" clip-rule="evenodd" d="M12.2134 5.05958C13.2871 5.78015 14.0818 6.96294 14.405 8.59869C15.6149 8.76749 16.5209 9.40674 17.0827 10.2545C17.1587 10.2629 17.2346 10.2832 17.308 10.3163C18.3197 10.772 18.7029 11.7262 18.7458 12.6414C18.7728 12.6498 18.8047 12.6594 18.8428 12.6705L18.8775 12.6806C18.9817 12.7108 19.1222 12.7515 19.2633 12.8044C19.594 12.9284 19.9997 13.1436 20.306 13.5904C20.6065 14.0285 20.75 14.5996 20.75 15.3192C20.75 16.5487 20.2242 17.4816 19.6094 18.0986C19.3046 18.4044 18.9733 18.6381 18.6617 18.7985C18.3693 18.949 18.0277 19.0692 17.7084 19.0692H10.2462C10.0332 19.0692 9.78116 19.0472 9.52255 18.9591C9.10696 18.8175 8.5669 18.5592 8.11652 18.153C7.74384 17.8168 7.40356 17.3496 7.29 16.7501H6.22476C4.26588 16.7501 2.78398 15.6321 2.36514 14.1661C2.15574 13.4332 2.22511 12.6359 2.63029 11.9224C2.94575 11.3669 3.44449 10.8964 4.10843 10.5442C3.85604 9.03314 4.18729 7.6998 4.89707 6.64877C5.69313 5.46996 6.93588 4.68859 8.25543 4.38869C9.57596 4.08856 11.0229 4.2607 12.2134 5.05958ZM5.69407 10.7853C5.3291 9.41665 5.58672 8.30779 6.14016 7.48825C6.70408 6.6532 7.60591 6.07456 8.58787 5.85138C9.56884 5.62843 10.5803 5.77013 11.3775 6.30512C12.1605 6.83056 12.8241 7.79424 13.0121 9.3923C13.0565 9.77001 13.3766 10.0547 13.757 10.0547C15.3796 10.0547 16.25 11.2305 16.25 12.4955C16.25 13.1301 16.0252 13.7677 15.5614 14.2669C15.1069 14.7559 14.3831 15.1542 13.3063 15.2501H6.22475C4.83591 15.2501 4.01627 14.485 3.80743 13.7541C3.703 13.3885 3.73826 13.0089 3.93463 12.6631C4.13217 12.3153 4.52607 11.9458 5.23273 11.6808C5.59391 11.5453 5.79345 11.158 5.69407 10.7853ZM8.8745 16.7501C8.93466 16.849 9.01679 16.945 9.1212 17.0392C9.37747 17.2703 9.71964 17.4416 10.0064 17.5392C10.0573 17.5566 10.1322 17.5692 10.2462 17.5692H17.7084C17.7038 17.5692 17.7049 17.569 17.7115 17.5675C17.7345 17.5624 17.8248 17.5422 17.9752 17.4649C18.1492 17.3752 18.3534 17.2339 18.5469 17.0398C18.9286 16.6567 19.25 16.0897 19.25 15.3192C19.25 14.7888 19.1435 14.5474 19.0689 14.4386C19.0003 14.3385 18.906 14.2724 18.7366 14.2089C18.6522 14.1773 18.567 14.1525 18.4554 14.12L18.4228 14.1105C18.3114 14.078 18.1509 14.0311 18 13.9619C17.8742 13.9043 17.7187 13.8155 17.5803 13.6721C17.4086 14.2538 17.1046 14.8097 16.6602 15.2879C15.9158 16.089 14.8181 16.6294 13.4008 16.7475C13.3801 16.7492 13.3593 16.7501 13.3385 16.7501H8.8745Z" fill="#363538"/>
</svg>
