<svg width="24" height="24" viewBox="0 0 24 24" fill="none" xmlns="http://www.w3.org/2000/svg">
<path d="M6.85776 8.05529C6.11169 9.1489 5.77287 10.6195 6.25624 12.4139C6.35701 12.788 6.15627 13.1773 5.79306 13.3121C4.89479 13.6456 4.35378 14.112 4.06017 14.5777C3.76855 15.0402 3.69138 15.5465 3.79163 16.0342C3.99293 17.0136 4.95414 18.0248 6.58798 18.2179C6.99934 18.2665 7.2934 18.6394 7.24479 19.0507C7.19619 19.4621 6.82332 19.7561 6.41196 19.7075C4.23653 19.4505 2.67305 18.0424 2.32235 16.3362C2.1466 15.4812 2.28659 14.5782 2.79133 13.7777C3.2 13.1295 3.8279 12.5785 4.66223 12.1672C4.29932 10.2323 4.71412 8.53584 5.61864 7.20996C6.61013 5.7566 8.1596 4.79146 9.80606 4.42104C11.4534 4.05041 13.2497 4.26472 14.7234 5.24369C16.0818 6.14605 17.0933 7.64936 17.4809 9.76392C20.1379 10.0581 21.6559 12.1479 21.7457 14.3316C21.8434 16.7098 20.2666 19.1579 16.9463 19.6773C16.537 19.7413 16.1534 19.4614 16.0894 19.0522C16.0254 18.6429 16.3052 18.2593 16.7145 18.1953C19.2775 17.7944 20.3136 16.0138 20.247 14.3932C20.1795 12.7506 18.9974 11.2287 16.8304 11.2287C16.4504 11.2287 16.1304 10.9445 16.0856 10.5672C15.8383 8.4866 14.9601 7.20175 13.8934 6.49314C12.8116 5.77449 11.447 5.58935 10.1353 5.88446C8.82268 6.17977 7.61483 6.94555 6.85776 8.05529Z" fill="#363538"/>
<path fill-rule="evenodd" clip-rule="evenodd" d="M13.1216 8.40505C13.3908 7.41789 12.1605 6.88275 11.5548 7.55379L8.48544 10.9545C8.01743 11.473 8.28295 12.2786 8.93303 12.4498L10.3611 12.8257L9.87848 14.5954C9.60925 15.5826 10.8396 16.1177 11.4452 15.4467L14.5146 12.046C14.9826 11.5274 14.7171 10.7218 14.067 10.5507L12.6389 10.1747L13.1216 8.40505ZM10.2448 11.244L11.0301 10.3739C10.9087 10.8665 11.2123 11.3503 11.6867 11.4752L12.7553 11.7565L11.9699 12.6266C12.0914 12.134 11.7877 11.6502 11.3133 11.5253L10.2448 11.244Z" fill="#363538"/>
<path d="M7.35045 20.6251C7.14335 20.9838 7.26625 21.4425 7.62497 21.6496C7.98369 21.8567 8.44239 21.7338 8.64949 21.3751L9.64949 19.6431C9.8566 19.2843 9.73369 18.8256 9.37497 18.6185C9.01625 18.4114 8.55756 18.5343 8.35045 18.8931L7.35045 20.6251Z" fill="#363538"/>
<path d="M10.625 21.6496C10.2663 21.4425 10.1433 20.9838 10.3505 20.6251L11.3505 18.8931C11.5576 18.5343 12.0163 18.4114 12.375 18.6185C12.7337 18.8256 12.8566 19.2843 12.6495 19.6431L11.6495 21.3751C11.4424 21.7338 10.9837 21.8567 10.625 21.6496Z" fill="#363538"/>
<path d="M13.3505 20.6251C13.1433 20.9838 13.2663 21.4425 13.625 21.6496C13.9837 21.8567 14.4424 21.7338 14.6495 21.3751L15.6495 19.6431C15.8566 19.2843 15.7337 18.8256 15.375 18.6185C15.0163 18.4114 14.5576 18.5343 14.3505 18.8931L13.3505 20.6251Z" fill="#363538"/>
</svg>
