<svg width="24" height="24" viewBox="0 0 24 24" fill="none" xmlns="http://www.w3.org/2000/svg">
<path d="M6.85776 7.05529C6.11169 8.1489 5.77287 9.61955 6.25624 11.4139C6.35701 11.788 6.15627 12.1773 5.79306 12.3121C4.89479 12.6456 4.35378 13.112 4.06017 13.5777C3.76855 14.0402 3.69138 14.5465 3.79163 15.0342C3.99293 16.0136 4.95414 17.0248 6.58798 17.2179C6.99934 17.2665 7.2934 17.6394 7.24479 18.0507C7.19619 18.4621 6.82332 18.7561 6.41196 18.7075C4.23653 18.4505 2.67305 17.0424 2.32235 15.3362C2.1466 14.4812 2.28659 13.5782 2.79133 12.7777C3.2 12.1295 3.8279 11.5785 4.66223 11.1672C4.29932 9.23226 4.71412 7.53584 5.61864 6.20996C6.61013 4.7566 8.1596 3.79146 9.80606 3.42104C11.4534 3.05041 13.2497 3.26472 14.7234 4.24369C16.0818 5.14606 17.0933 6.64939 17.4809 8.76398C20.0207 9.0456 21.5253 10.9701 21.7265 13.0529C21.9446 15.3102 20.6405 17.7396 17.6922 18.5213C17.2918 18.6275 16.8812 18.389 16.775 17.9886C16.6689 17.5882 16.9074 17.1776 17.3078 17.0714C19.5138 16.4865 20.3842 14.7571 20.2335 13.1971C20.0826 11.6348 18.9161 10.2287 16.8304 10.2287C16.4504 10.2287 16.1304 9.94449 16.0856 9.56716C15.8383 7.4866 14.9601 6.20175 13.8934 5.49314C12.8116 4.77449 11.447 4.58935 10.1353 4.88446C8.82268 5.17977 7.61483 5.94555 6.85776 7.05529Z" fill="#363538"/>
<path d="M8.46964 14.3697C8.76254 14.0768 9.23741 14.0768 9.5303 14.3697L9.99997 14.8393L10.4696 14.3697C10.7625 14.0768 11.2374 14.0768 11.5303 14.3697C11.8232 14.6626 11.8232 15.1374 11.5303 15.4303L11.0606 15.9L11.5303 16.3697C11.8232 16.6626 11.8232 17.1374 11.5303 17.4303C11.2374 17.7232 10.7625 17.7232 10.4696 17.4303L9.99997 16.9607L9.5303 17.4303C9.23741 17.7232 8.76254 17.7232 8.46964 17.4303C8.17675 17.1374 8.17675 16.6626 8.46964 16.3697L8.93931 15.9L8.46964 15.4303C8.17675 15.1374 8.17675 14.6626 8.46964 14.3697Z" fill="#363538"/>
<path d="M9.0303 18.4698C8.73741 18.1769 8.26254 18.1769 7.96964 18.4698C7.67675 18.7627 7.67675 19.2375 7.96964 19.5304L8.43931 20.0001L7.96964 20.4698C7.67675 20.7627 7.67675 21.2375 7.96964 21.5304C8.26254 21.8233 8.73741 21.8233 9.0303 21.5304L9.49997 21.0608L9.96964 21.5304C10.2625 21.8233 10.7374 21.8233 11.0303 21.5304C11.3232 21.2375 11.3232 20.7627 11.0303 20.4698L10.5606 20.0001L11.0303 19.5304C11.3232 19.2375 11.3232 18.7627 11.0303 18.4698C10.7374 18.1769 10.2625 18.1769 9.96964 18.4698L9.49997 18.9394L9.0303 18.4698Z" fill="#363538"/>
<path d="M11.9696 18.4698C12.2625 18.1769 12.7374 18.1769 13.0303 18.4698L13.5 18.9394L13.9696 18.4698C14.2625 18.1769 14.7374 18.1769 15.0303 18.4698C15.3232 18.7627 15.3232 19.2375 15.0303 19.5304L14.5606 20.0001L15.0303 20.4698C15.3232 20.7627 15.3232 21.2375 15.0303 21.5304C14.7374 21.8233 14.2625 21.8233 13.9696 21.5304L13.5 21.0608L13.0303 21.5304C12.7374 21.8233 12.2625 21.8233 11.9696 21.5304C11.6768 21.2375 11.6768 20.7627 11.9696 20.4698L12.4393 20.0001L11.9696 19.5304C11.6768 19.2375 11.6768 18.7627 11.9696 18.4698Z" fill="#363538"/>
<path d="M14.0303 14.3697C13.7374 14.0768 13.2625 14.0768 12.9696 14.3697C12.6768 14.6626 12.6768 15.1374 12.9696 15.4303L13.4393 15.9L12.9696 16.3697C12.6768 16.6626 12.6768 17.1374 12.9696 17.4303C13.2625 17.7232 13.7374 17.7232 14.0303 17.4303L14.5 16.9607L14.9696 17.4303C15.2625 17.7232 15.7374 17.7232 16.0303 17.4303C16.3232 17.1374 16.3232 16.6626 16.0303 16.3697L15.5606 15.9L16.0303 15.4303C16.3232 15.1374 16.3232 14.6626 16.0303 14.3697C15.7374 14.0768 15.2625 14.0768 14.9696 14.3697L14.5 14.8393L14.0303 14.3697Z" fill="#363538"/>
</svg>
