<svg width="24" height="24" viewBox="0 0 24 24" fill="none" xmlns="http://www.w3.org/2000/svg">
<path fill-rule="evenodd" clip-rule="evenodd" d="M6.85775 8.05529C6.11168 9.1489 5.77285 10.6195 6.25623 12.4139C6.357 12.788 6.15626 13.1773 5.79305 13.3121C4.84598 13.6637 4.29598 14.1628 4.01367 14.6549C3.73295 15.1442 3.68332 15.6823 3.8315 16.1957C4.12813 17.2235 5.27381 18.2501 7.14609 18.2501H16.2607C17.6985 18.1254 18.6843 17.597 19.3099 16.9306C19.9445 16.2546 20.25 15.3932 20.25 14.5397C20.25 12.8398 19.0577 11.2287 16.8303 11.2287C16.4504 11.2287 16.1304 10.9445 16.0856 10.5672C15.8383 8.4866 14.9601 7.20175 13.8934 6.49314C12.8116 5.77449 11.447 5.58935 10.1353 5.88446C8.82267 6.17977 7.61481 6.94555 6.85775 8.05529ZM17.4809 9.76387C17.0932 7.64934 16.0818 6.14604 14.7234 5.24369C13.2497 4.26472 11.4534 4.05041 9.80604 4.42104C8.15958 4.79146 6.61011 5.7566 5.61863 7.20996C4.71411 8.53584 4.29931 10.2323 4.66222 12.1672C3.77174 12.6062 3.11657 13.2043 2.71258 13.9085C2.21989 14.7673 2.135 15.7271 2.39033 16.6117C2.90072 18.3801 4.71415 19.7501 7.14609 19.7501H16.2923C16.3129 19.7501 16.3335 19.7493 16.354 19.7476C18.1279 19.6012 19.4866 18.934 20.4035 17.9573C21.3156 16.9856 21.75 15.7499 21.75 14.5397C21.75 12.2843 20.2252 10.0674 17.4809 9.76387Z" fill="#363538"/>
</svg>
