<svg width="24" height="24" viewBox="0 0 24 24" fill="none" xmlns="http://www.w3.org/2000/svg">
<path d="M6.25626 12.4137C5.77289 10.6193 6.11171 9.14866 6.85778 8.05504C7.61485 6.94531 8.8227 6.17953 10.1353 5.88421C11.447 5.5891 12.8116 5.77424 13.8934 6.4929C14.9602 7.2015 15.8384 8.48636 16.0856 10.5669C16.1305 10.9442 16.4504 11.2284 16.8304 11.2284C18.965 11.2284 20.1411 12.7035 20.2429 14.3145C20.3439 15.9118 19.3753 17.6723 16.9592 18.1517C16.5529 18.2323 16.2889 18.627 16.3695 19.0333C16.4501 19.4396 16.8448 19.7036 17.2511 19.623C20.4216 18.9939 21.8872 16.5499 21.7399 14.2199C21.6044 12.0759 20.0911 10.0529 17.481 9.7637C17.0933 7.64913 16.0818 6.14581 14.7234 5.24345C13.2497 4.26447 11.4534 4.05017 9.80608 4.42079C8.15962 4.79122 6.61015 5.75636 5.61866 7.20971C4.71408 8.53569 4.29928 10.2323 4.66233 12.1674C2.87883 13.0492 2.0701 14.5601 2.28269 16.1046C2.50955 17.7528 3.87359 19.1748 5.83766 19.6103C6.24205 19.6999 6.64256 19.4448 6.73221 19.0404C6.82187 18.636 6.56673 18.2355 6.16233 18.1458C4.71599 17.8251 3.89748 16.8358 3.76868 15.9001C3.64847 15.0267 4.10253 13.9394 5.79308 13.3119C6.15629 13.1771 6.35703 12.7878 6.25626 12.4137Z" fill="#363538"/>
<path d="M14.5303 13.3696C14.2374 13.0767 13.7626 13.0767 13.4697 13.3696L11.4697 15.3696C11.1768 15.6624 11.1768 16.1373 11.4697 16.4302C11.7626 16.7231 12.2374 16.7231 12.5303 16.4302L13.25 15.7105V17.8999C13.25 18.3141 13.5858 18.6499 14 18.6499C14.4142 18.6499 14.75 18.3141 14.75 17.8999V15.7105L15.4697 16.4302C15.7626 16.7231 16.2374 16.7231 16.5303 16.4302C16.8232 16.1373 16.8232 15.6624 16.5303 15.3696L14.5303 13.3696Z" fill="#363538"/>
<path d="M10.75 17.2544C10.75 16.8402 10.4142 16.5044 9.99999 16.5044C9.58578 16.5044 9.24999 16.8402 9.24999 17.2544V19.4437L8.53032 18.724C8.23743 18.4311 7.76256 18.4311 7.46966 18.724C7.17677 19.0169 7.17677 19.4918 7.46966 19.7847L9.46966 21.7847C9.76256 22.0776 10.2374 22.0776 10.5303 21.7847L12.5303 19.7847C12.8232 19.4918 12.8232 19.0169 12.5303 18.724C12.2374 18.4311 11.7626 18.4311 11.4697 18.724L10.75 19.4437V17.2544Z" fill="#363538"/>
</svg>
