<svg width="24" height="24" viewBox="0 0 24 24" fill="none" xmlns="http://www.w3.org/2000/svg">
<path d="M6.25623 11.4139C5.77285 9.61955 6.11168 8.14891 6.85775 7.05529C7.61481 5.94555 8.82267 5.17977 10.1353 4.88446C11.447 4.58935 12.8116 4.77449 13.8934 5.49314C14.9601 6.20175 15.8383 7.4866 16.0856 9.56716C16.1304 9.94449 16.4504 10.2287 16.8303 10.2287C19.0577 10.2287 20.25 11.8398 20.25 13.5397C20.25 14.3932 19.9445 15.2546 19.3099 15.9306C18.68 16.6016 17.6848 17.1327 16.2307 17.2526C15.8179 17.2867 15.5108 17.6489 15.5449 18.0618C15.5789 18.4746 15.9412 18.7816 16.354 18.7476C18.1279 18.6012 19.4866 17.934 20.4035 16.9573C21.3156 15.9856 21.75 14.7499 21.75 13.5397C21.75 11.2843 20.2252 9.06736 17.4809 8.76387C17.0932 6.64934 16.0818 5.14604 14.7234 4.24369C13.2497 3.26472 11.4534 3.05041 9.80604 3.42104C8.15958 3.79146 6.61011 4.7566 5.61863 6.20996C4.71411 7.53584 4.29931 9.23227 4.66222 11.1672C3.77174 11.6062 3.11657 12.2043 2.71258 12.9085C2.21989 13.7673 2.135 14.7271 2.39033 15.6117C2.90072 17.3801 4.71415 18.7501 7.14609 18.7501C7.5603 18.7501 7.89609 18.4143 7.89609 18.0001C7.89609 17.5859 7.5603 17.2501 7.14609 17.2501C5.27381 17.2501 4.12813 16.2235 3.8315 15.1957C3.68332 14.6823 3.73295 14.1442 4.01367 13.6549C4.29598 13.1628 4.84598 12.6637 5.79305 12.3121C6.15626 12.1773 6.357 11.788 6.25623 11.4139Z" fill="#363538"/>
<path fill-rule="evenodd" clip-rule="evenodd" d="M14.1138 12.2476C14.4538 11.3045 13.2906 10.5461 12.5648 11.2376L8.55561 15.0571C8.0443 15.5442 8.22437 16.3992 8.88874 16.6387L10.701 17.2919L9.88616 19.5523C9.5462 20.4954 10.7093 21.2538 11.4351 20.5623L15.4444 16.7428C15.9557 16.2557 15.7756 15.4008 15.1112 15.1613L13.299 14.508L14.1138 12.2476ZM10.2346 15.5293L11.9126 13.9307L11.7014 14.5167C11.5234 15.0103 11.7793 15.5547 12.2729 15.7326L13.7654 16.2706L12.0874 17.8692L12.2986 17.2832C12.4765 16.7896 12.2206 16.2452 11.7271 16.0673L10.2346 15.5293Z" fill="#363538"/>
</svg>
