<svg width="24" height="24" viewBox="0 0 24 24" fill="none" xmlns="http://www.w3.org/2000/svg">
<path d="M6.25624 11.4139C5.77287 9.61955 6.11169 8.1489 6.85776 7.05529C7.61483 5.94555 8.82268 5.17977 10.1353 4.88446C11.447 4.58935 12.8116 4.77449 13.8934 5.49314C14.9601 6.20175 15.8383 7.4866 16.0856 9.56716C16.1304 9.94449 16.4504 10.2287 16.8304 10.2287C18.9974 10.2287 20.1795 11.7506 20.247 13.3932C20.3136 15.0138 19.2775 16.7944 16.7145 17.1953C16.3052 17.2593 16.0254 17.6429 16.0894 18.0522C16.1534 18.4614 16.537 18.7413 16.9463 18.6773C20.2666 18.1579 21.8434 15.7098 21.7457 13.3316C21.6559 11.1479 20.1379 9.0581 17.4809 8.76392C17.0933 6.64936 16.0818 5.14605 14.7234 4.24369C13.2497 3.26472 11.4534 3.05041 9.80606 3.42104C8.1596 3.79146 6.61013 4.7566 5.61864 6.20996C4.71412 7.53584 4.29932 9.23226 4.66223 11.1672C3.8279 11.5785 3.2 12.1295 2.79133 12.7777C2.28659 13.5782 2.1466 14.4812 2.32235 15.3362C2.67305 17.0424 4.23653 18.4505 6.41196 18.7075C6.82332 18.7561 7.19619 18.4621 7.24479 18.0507C7.2934 17.6394 6.99934 17.2665 6.58798 17.2179C4.95414 17.0248 3.99293 16.0136 3.79163 15.0342C3.69138 14.5465 3.76855 14.0402 4.06017 13.5777C4.35378 13.112 4.89479 12.6456 5.79306 12.3121C6.15627 12.1773 6.35701 11.788 6.25624 11.4139Z" fill="#363538"/>
<path d="M7.35045 20.6251C7.14335 20.9838 7.26625 21.4425 7.62497 21.6496C7.98369 21.8567 8.44239 21.7338 8.64949 21.3751L9.64949 19.643C9.8566 19.2843 9.73369 18.8256 9.37497 18.6185C9.01625 18.4114 8.55756 18.5343 8.35045 18.8931L7.35045 20.6251Z" fill="#363538"/>
<path d="M10.625 21.6496C10.2663 21.4425 10.1433 20.9838 10.3505 20.6251L11.3505 18.8931C11.5576 18.5343 12.0163 18.4114 12.375 18.6185C12.7337 18.8256 12.8566 19.2843 12.6495 19.643L11.6495 21.3751C11.4424 21.7338 10.9837 21.8567 10.625 21.6496Z" fill="#363538"/>
<path d="M13.3505 20.6251C13.1433 20.9838 13.2663 21.4425 13.625 21.6496C13.9837 21.8567 14.4424 21.7338 14.6495 21.3751L15.6495 19.643C15.8566 19.2843 15.7337 18.8256 15.375 18.6185C15.0163 18.4114 14.5576 18.5343 14.3505 18.8931L13.3505 20.6251Z" fill="#363538"/>
</svg>
