<svg width="24" height="24" viewBox="0 0 24 24" fill="none" xmlns="http://www.w3.org/2000/svg">
<path d="M6.85781 8.05529C6.11174 9.1489 5.77291 10.6195 6.25629 12.4139C6.35706 12.788 6.15632 13.1773 5.79311 13.3121C4.22956 13.8925 3.73092 14.8668 3.7506 15.6769C3.77143 16.5347 4.37218 17.4705 5.5251 17.9468C5.90794 18.1049 6.09009 18.5435 5.93196 18.9263C5.77382 19.3091 5.33527 19.4913 4.95244 19.3332C3.33561 18.6653 2.28841 17.2519 2.25104 15.7133C2.21658 14.2946 3.0391 12.9696 4.66235 12.1676C4.29932 10.2325 4.71412 8.53592 5.61869 7.20996C6.61017 5.7566 8.15964 4.79146 9.8061 4.42104C11.4535 4.05041 13.2497 4.26472 14.7235 5.24369C16.0819 6.14606 17.0934 7.64941 17.481 9.76402C19.9255 10.0354 21.4155 11.8303 21.6997 13.8274C22.0068 15.9858 20.9099 18.3805 18.2562 19.3449C17.8669 19.4863 17.4366 19.2854 17.2951 18.8961C17.1536 18.5068 17.3546 18.0765 17.7439 17.9351C19.6856 17.2294 20.4287 15.5434 20.2146 14.0387C20.0019 12.5441 18.8498 11.2287 16.8304 11.2287C16.4504 11.2287 16.1305 10.9445 16.0857 10.5672C15.8384 8.4866 14.9602 7.20175 13.8935 6.49314C12.8116 5.77449 11.4471 5.58935 10.1353 5.88446C8.82273 6.17977 7.61487 6.94555 6.85781 8.05529Z" fill="#363538"/>
<path d="M6.93991 18.2973C6.64701 18.0044 6.64701 17.5295 6.93991 17.2366L7.80086 16.3757C8.09375 16.0828 8.56862 16.0828 8.86152 16.3757L9.72247 17.2366C10.0154 17.5295 10.0154 18.0044 9.72247 18.2973C9.60345 18.4163 9.45438 18.487 9.29969 18.5093C9.71255 19.4672 10.6653 20.1378 11.7747 20.1378C12.4696 20.1378 13.1015 19.8756 13.5798 19.4436C13.8871 19.1659 14.3614 19.19 14.6391 19.4973C14.9168 19.8047 14.8927 20.2789 14.5853 20.5566C13.8422 21.228 12.8554 21.6378 11.7747 21.6378C9.81533 21.6378 8.16982 20.2942 7.7093 18.478C7.448 18.5656 7.14802 18.5054 6.93991 18.2973Z" fill="#363538"/>
<path d="M16.5795 16.5909C16.8723 16.8838 16.8723 17.3586 16.5795 17.6515L15.7185 18.5125C15.4256 18.8054 14.9507 18.8054 14.6578 18.5125L13.7969 17.6515C13.504 17.3586 13.504 16.8838 13.7969 16.5909C13.9159 16.4718 14.065 16.4012 14.2197 16.3789C13.8069 15.4208 12.8541 14.7501 11.7446 14.7501C11.0733 14.7501 10.461 14.9947 9.98906 15.4007C9.67504 15.6708 9.2015 15.6352 8.93138 15.3212C8.66126 15.0072 8.69684 14.5336 9.01086 14.2635C9.74459 13.6323 10.7009 13.2501 11.7446 13.2501C13.7041 13.2501 15.3496 14.5939 15.8101 16.4101C16.0714 16.3225 16.3713 16.3828 16.5795 16.5909Z" fill="#363538"/>
</svg>
