<svg width="24" height="24" viewBox="0 0 24 24" fill="none" xmlns="http://www.w3.org/2000/svg">
<path fill-rule="evenodd" clip-rule="evenodd" d="M10.1914 2.23144C11.1696 1.93594 12.2446 2.23594 13.1523 2.98632C13.3089 3.11574 13.5281 3.16382 13.7246 3.1123C14.8637 2.81365 15.9645 2.99437 16.7275 3.67382C17.5008 4.36283 17.7776 5.43091 17.5244 6.5791C17.3794 7.23648 17.1116 7.85966 16.7627 8.4248C17.4222 8.3461 18.1004 8.36762 18.7578 8.51269C19.9058 8.76621 20.7589 9.46567 21.0586 10.457C21.3541 11.4352 21.0541 12.5102 20.3037 13.418C20.1743 13.5745 20.1262 13.7938 20.1777 13.9902C20.4764 15.1293 20.2957 16.2302 19.6162 16.9932C18.9272 17.7665 17.8591 18.0432 16.7109 17.79C16.4276 17.7275 16.1508 17.6414 15.8818 17.5371C15.8879 17.5452 15.8942 17.5535 15.9004 17.5615C17.0878 19.1181 18.5852 20.2499 20.5 20.25C20.9139 20.2502 21.2498 20.5861 21.25 21C21.2498 21.4139 20.9139 21.7498 20.5 21.75C18.0029 21.7499 16.1591 20.3041 14.8457 18.6445C14.8268 18.7713 14.805 18.8979 14.7773 19.0234C14.5238 20.1715 13.8244 21.0237 12.833 21.3232C11.8548 21.6187 10.7798 21.3197 9.87206 20.5693C9.71563 20.4401 9.49709 20.392 9.30078 20.4434C8.16152 20.7421 7.05989 20.5606 6.29687 19.8809C5.52382 19.1919 5.2479 18.1245 5.50097 16.9766C5.64598 16.3192 5.91191 15.695 6.26074 15.1299C5.60163 15.2084 4.92357 15.188 4.2666 15.043C3.11879 14.7894 2.2664 14.0898 1.96679 13.0986C1.6713 12.1204 1.97127 11.0454 2.72167 10.1377C2.85103 9.98117 2.89916 9.76184 2.84765 9.56542C2.54899 8.42628 2.72962 7.3255 3.40917 6.56249C4.09819 5.78919 5.16626 5.51343 6.31445 5.7666C6.97112 5.91152 7.59453 6.17701 8.15917 6.52538C8.08074 5.86647 8.10214 5.189 8.24706 4.53222C8.50059 3.38419 9.20004 2.53108 10.1914 2.23144ZM11.0557 13.8486C10.3812 13.6998 9.49784 13.9627 8.66601 14.6338C7.84738 15.2943 7.19405 16.2648 6.96581 17.2988C6.80448 18.0304 7.00661 18.5049 7.29492 18.7617C7.59373 19.0278 8.13923 19.1972 8.92089 18.9922C9.58402 18.8185 10.2997 18.9763 10.8281 19.4131C11.4508 19.9277 12.0164 20.0033 12.3994 19.8877C12.769 19.7759 13.152 19.4307 13.3135 18.6992C13.5415 17.6652 13.3572 16.5101 12.8926 15.5664C12.4204 14.6077 11.7301 13.9975 11.0557 13.8486ZM18.4336 9.97753C17.3996 9.7495 16.2444 9.93379 15.3008 10.3984C14.3421 10.8706 13.7318 11.5609 13.583 12.2353C13.4343 12.9097 13.6974 13.7924 14.3682 14.624C15.0287 15.4427 15.9992 16.0959 17.0332 16.3242C17.7649 16.4856 18.2392 16.2834 18.4961 15.9951C18.7621 15.6963 18.9315 15.1516 18.7266 14.3701C18.5527 13.7069 18.7107 12.9914 19.1475 12.4629C19.6624 11.8401 19.7377 11.2746 19.6221 10.8916C19.5104 10.5219 19.1653 10.139 18.4336 9.97753ZM5.99218 7.23144C5.26049 7.07002 4.78616 7.2722 4.52929 7.56054C4.26321 7.85936 4.09383 8.4039 4.29882 9.18554C4.47263 9.8487 4.31464 10.5643 3.87792 11.0928C3.363 11.7156 3.28769 12.281 3.40331 12.6641C3.51497 13.0336 3.8595 13.4166 4.59081 13.5781C5.62488 13.8062 6.78087 13.6219 7.7246 13.1572C8.68313 12.685 9.29259 11.9947 9.4414 11.3203C9.59014 10.6459 9.32796 9.76328 8.65722 8.93163C7.99676 8.11304 7.02609 7.45976 5.99218 7.23144ZM10.9824 10.9463C10.9814 11.1793 10.9572 11.4124 10.9062 11.6435C10.8553 11.8745 10.7787 12.096 10.6816 12.3076C10.9145 12.3086 11.1479 12.3328 11.3789 12.3838C11.6096 12.4347 11.8306 12.5115 12.042 12.6084C12.043 12.3757 12.0682 12.143 12.1191 11.9121C12.1702 11.6809 12.2456 11.4589 12.3428 11.2471C12.1101 11.246 11.8773 11.2218 11.6465 11.1709C11.4154 11.1199 11.1941 11.0434 10.9824 10.9463ZM12.1973 4.14257C11.5745 3.62765 11.009 3.55233 10.626 3.66796C10.2563 3.77964 9.87339 4.12478 9.71191 4.85644C9.48388 5.89044 9.66816 7.0456 10.1328 7.98925C10.605 8.94788 11.2953 9.5582 11.9697 9.70703C12.6441 9.85571 13.5268 9.59262 14.3584 8.92187C15.177 8.26137 15.8303 7.2908 16.0586 6.25683C16.22 5.52514 16.0178 5.0508 15.7295 4.79394C15.4306 4.52793 14.886 4.3585 14.1045 4.56347C13.4413 4.7373 12.7257 4.57937 12.1973 4.14257Z" fill="#363538"/>
</svg>
