<svg width="24" height="24" viewBox="0 0 24 24" fill="none" xmlns="http://www.w3.org/2000/svg">
<path fill-rule="evenodd" clip-rule="evenodd" d="M10.7267 20.5C10.7898 20.2744 10.8469 20.0503 10.8983 19.8486C10.9049 19.8229 10.9113 19.7975 10.9177 19.7725C11.065 19.1958 10.649 18.651 10.0984 18.6228C9.9445 18.615 9.82811 18.6707 9.71221 18.7261C9.64384 18.7589 9.57563 18.7915 9.5 18.811C9.02057 18.9344 8.51795 19 8 19C4.68629 19 2 16.3137 2 13C2 10.3737 3.68739 8.1415 6.03717 7.32841C6.37103 4.33082 8.91332 2 12 2C15.0867 2 17.629 4.33082 17.9628 7.32841C20.3126 8.1415 22 10.3737 22 13C22 16.3137 19.3137 19 16 19C15.4821 19 14.9794 18.9344 14.5 18.811C14.4244 18.7915 14.3562 18.7589 14.2878 18.7262C14.1719 18.6707 14.0556 18.615 13.9017 18.6229C13.3511 18.651 12.9352 19.1958 13.0825 19.7725C13.0889 19.7975 13.0953 19.8229 13.1019 19.8486C13.1533 20.0503 13.2104 20.2744 13.2735 20.5C13.2763 20.5101 13.2792 20.5202 13.282 20.5303C13.3688 20.8379 13.4667 21.1465 13.5765 21.4031C13.6219 21.5092 13.6693 21.6063 13.7187 21.6909C13.772 21.7819 13.682 22 13.5765 22H10.4237C10.3182 22 10.2282 21.7819 10.2815 21.6909C10.3309 21.6063 10.3783 21.5092 10.4237 21.4031C10.5335 21.1465 10.6314 20.8379 10.7182 20.5303C10.721 20.5202 10.7239 20.5101 10.7267 20.5ZM7.52795 7.49445C7.46388 8.06966 7.07461 8.55669 6.52767 8.74595C4.76343 9.35642 3.5 11.0326 3.5 13C3.5 15.4853 5.51472 17.5 8 17.5C8.36766 17.5 8.72315 17.4562 9.06234 17.3742L9.06929 17.3709C9.09103 17.3605 9.12836 17.3426 9.16899 17.3244C9.35272 17.2418 9.70704 17.1009 10.1749 17.1248C10.9425 17.164 11.594 17.5599 12.0001 18.1338C12.4061 17.5599 13.0575 17.164 13.8252 17.1248C14.293 17.1009 14.6473 17.2418 14.831 17.3244C14.8717 17.3426 14.909 17.3605 14.9307 17.3709L14.9377 17.3742C15.2769 17.4562 15.6323 17.5 16 17.5C18.4853 17.5 20.5 15.4853 20.5 13C20.5 11.0326 19.2366 9.35642 17.4723 8.74595C16.9254 8.55669 16.5361 8.06966 16.4721 7.49445C16.2218 5.24784 14.314 3.5 12 3.5C9.686 3.5 7.77817 5.24784 7.52795 7.49445Z" fill="#363538"/>
</svg>
