<svg width="24" height="24" viewBox="0 0 24 24" fill="none" xmlns="http://www.w3.org/2000/svg">
<path d="M15.6894 5.29563C15.8525 4.91491 15.6762 4.474 15.2955 4.31083C14.9147 4.14767 14.4738 4.32403 14.3107 4.70475L8.31066 18.7048C8.14749 19.0855 8.32386 19.5264 8.70458 19.6896C9.0853 19.8527 9.52621 19.6764 9.68938 19.2956L15.6894 5.29563Z" fill="#363538"/>
<path d="M8.62406 7.58417C8.85382 7.92881 8.76069 8.39447 8.41605 8.62423L3.66412 11.7922C3.51569 11.8911 3.51569 12.1092 3.66412 12.2082L8.41605 15.3762C8.76069 15.6059 8.85382 16.0716 8.62406 16.4162C8.39429 16.7609 7.92864 16.854 7.58399 16.6242L2.83207 13.4563C1.79304 12.7636 1.79304 11.2368 2.83207 10.5441L7.58399 7.37615C7.92864 7.14639 8.39429 7.23952 8.62406 7.58417Z" fill="#363538"/>
<path d="M15.376 7.58417C15.1462 7.92881 15.2393 8.39447 15.584 8.62423L20.3359 11.7922C20.4844 11.8911 20.4844 12.1092 20.3359 12.2082L15.584 15.3762C15.2393 15.6059 15.1462 16.0716 15.376 16.4162C15.6057 16.7609 16.0714 16.854 16.416 16.6242L21.168 13.4563C22.207 12.7636 22.207 11.2368 21.168 10.5441L16.416 7.37615C16.0714 7.14639 15.6057 7.23952 15.376 7.58417Z" fill="#363538"/>
</svg>
