<svg width="24" height="24" viewBox="0 0 24 24" fill="none" xmlns="http://www.w3.org/2000/svg">
<path d="M11 3C11.4142 3 11.75 3.33579 11.75 3.75C11.75 4.16421 11.4142 4.5 11 4.5C9.58881 4.5 8.57321 4.5003 7.77441 4.5625C6.98408 4.62405 6.46876 4.74269 6.04785 4.94531C5.12937 5.38763 4.38763 6.12937 3.94531 7.04785C3.7427 7.46876 3.62405 7.98408 3.5625 8.77441C3.5003 9.57321 3.5 10.5888 3.5 12C3.5 13.4112 3.5003 14.4268 3.5625 15.2256C3.62405 16.0159 3.7427 16.5312 3.94531 16.9521C4.38763 17.8706 5.12937 18.6124 6.04785 19.0547C6.46876 19.2573 6.98408 19.376 7.77441 19.4375C8.57321 19.4997 9.58881 19.5 11 19.5H13C14.4112 19.5 15.4268 19.4997 16.2256 19.4375C17.0159 19.376 17.5312 19.2573 17.9521 19.0547C18.8706 18.6124 19.6124 17.8706 20.0547 16.9521C20.2573 16.5312 20.376 16.0159 20.4375 15.2256C20.4997 14.4268 20.5 13.4112 20.5 12C20.5 11.5858 20.8358 11.25 21.25 11.25C21.6642 11.25 22 11.5858 22 12C22 13.3876 22.0004 14.4713 21.9326 15.3418C21.8642 16.2205 21.7234 16.9449 21.4062 17.6035C20.8165 18.8282 19.8282 19.8165 18.6035 20.4062C17.9449 20.7234 17.2205 20.8642 16.3418 20.9326C15.4713 21.0004 14.3876 21 13 21H11C9.61238 21 8.52872 21.0004 7.6582 20.9326C6.77953 20.8642 6.05509 20.7234 5.39648 20.4062C4.17184 19.8165 3.18351 18.8282 2.59375 17.6035C2.27658 16.9449 2.1358 16.2205 2.06738 15.3418C1.99961 14.4713 2 13.3876 2 12C2 10.6124 1.99961 9.52872 2.06738 8.6582C2.1358 7.77953 2.27658 7.05509 2.59375 6.39648C3.18351 5.17184 4.17184 4.18351 5.39648 3.59375C6.05509 3.27658 6.77953 3.1358 7.6582 3.06738C8.52872 2.99961 9.61238 3 11 3Z" fill="#363538"/>
<path d="M17 14.25C17.4142 14.25 17.75 14.5858 17.75 15C17.75 15.4142 17.4142 15.75 17 15.75H13C12.5858 15.75 12.25 15.4142 12.25 15C12.25 14.5858 12.5858 14.25 13 14.25H17Z" fill="#363538"/>
<path d="M6.36426 9.60254C6.58381 9.25136 7.04624 9.14474 7.39746 9.36426L10.041 11.0156C11.1376 11.7011 11.1376 13.2989 10.041 13.9844L7.39746 15.6357L7.33008 15.6738C6.98913 15.8414 6.57 15.7265 6.36426 15.3975C6.15854 15.0683 6.23906 14.6413 6.53906 14.4082L6.60254 14.3643L9.24609 12.7119C9.40234 12.614 9.40234 12.386 9.24609 12.2881L6.60254 10.6357C6.25136 10.4162 6.14474 9.95376 6.36426 9.60254Z" fill="#363538"/>
<path fill-rule="evenodd" clip-rule="evenodd" d="M20 5.25C20.2811 5.25 20.5385 5.40722 20.667 5.65723L21.2354 6.76367L22.3428 7.33301C22.5928 7.46149 22.75 7.71891 22.75 8C22.75 8.28109 22.5928 8.53851 22.3428 8.66699L21.2354 9.23535L20.667 10.3428C20.5385 10.5928 20.2811 10.75 20 10.75C19.7189 10.75 19.4615 10.5928 19.333 10.3428L18.7637 9.23535L17.6572 8.66699C17.4072 8.53851 17.25 8.28109 17.25 8C17.25 7.71891 17.4072 7.46149 17.6572 7.33301L18.7637 6.76367L19.333 5.65723L19.3867 5.56836C19.5259 5.37054 19.7539 5.25 20 5.25ZM19.9883 7.66406C19.9167 7.80332 19.8033 7.91671 19.6641 7.98828L19.6406 8L19.6641 8.01172L19.7637 8.07324C19.8575 8.14182 19.9347 8.23161 19.9883 8.33594L20 8.3584L20.0117 8.33594C20.0833 8.19668 20.1967 8.08329 20.3359 8.01172L20.3584 8L20.3359 7.98828C20.1967 7.91671 20.0833 7.80332 20.0117 7.66406L20 7.64062L19.9883 7.66406Z" fill="#363538"/>
<path d="M15.5 2.25C15.7811 2.25 16.0385 2.40722 16.167 2.65723L16.5654 3.43359L17.3428 3.83301C17.5928 3.96149 17.75 4.21891 17.75 4.5C17.75 4.78109 17.5928 5.03851 17.3428 5.16699L16.5654 5.56543L16.167 6.34277C16.0385 6.59278 15.7811 6.75 15.5 6.75C15.2189 6.75 14.9615 6.59278 14.833 6.34277L14.4336 5.56543L13.6572 5.16699C13.4072 5.03851 13.25 4.78109 13.25 4.5C13.25 4.21891 13.4072 3.96149 13.6572 3.83301L14.4336 3.43359L14.833 2.65723L14.8867 2.56836C15.0259 2.37054 15.2539 2.25 15.5 2.25Z" fill="#363538"/>
</svg>
