<svg width="24" height="24" viewBox="0 0 24 24" fill="none" xmlns="http://www.w3.org/2000/svg">
<path d="M10.3975 9.136C10.7488 8.91647 10.8555 8.45375 10.636 8.1025C10.4165 7.75125 9.95375 7.64447 9.6025 7.864L6.9593 9.516C5.86263 10.2014 5.86263 11.7986 6.9593 12.484L9.6025 14.136C9.95375 14.3555 10.4165 14.2488 10.636 13.8975C10.8555 13.5462 10.7488 13.0835 10.3975 12.864L7.7543 11.212C7.59763 11.1141 7.59763 10.8859 7.7543 10.788L10.3975 9.136Z" fill="#363538"/>
<path d="M13.364 8.1025C13.1445 8.45375 13.2512 8.91647 13.6025 9.136L16.2457 10.788C16.4024 10.8859 16.4024 11.1141 16.2457 11.212L13.6025 12.864C13.2512 13.0835 13.1445 13.5462 13.364 13.8975C13.5835 14.2488 14.0462 14.3555 14.3975 14.136L17.0407 12.484C18.1374 11.7986 18.1374 10.2014 17.0407 9.516L14.3975 7.864C14.0462 7.64447 13.5835 7.75125 13.364 8.1025Z" fill="#363538"/>
<path fill-rule="evenodd" clip-rule="evenodd" d="M18 3H6C3.79086 3 2 4.79086 2 7V15C2 17.2091 3.79086 19 6 19H18C20.2091 19 22 17.2091 22 15V7C22 4.79086 20.2091 3 18 3ZM6 4.5H18C19.3807 4.5 20.5 5.61929 20.5 7V15C20.5 16.3807 19.3807 17.5 18 17.5H6C4.61929 17.5 3.5 16.3807 3.5 15V7C3.5 5.61929 4.61929 4.5 6 4.5Z" fill="#363538"/>
<path d="M10 19.25C9.58579 19.25 9.25 19.5858 9.25 20C9.25 20.4142 9.58579 20.75 10 20.75H14C14.4142 20.75 14.75 20.4142 14.75 20C14.75 19.5858 14.4142 19.25 14 19.25H10Z" fill="#363538"/>
</svg>
