<svg width="24" height="24" viewBox="0 0 24 24" fill="none" xmlns="http://www.w3.org/2000/svg">
<path d="M6.81818 15.7724C6.41633 15.8728 6.17201 16.28 6.27247 16.6819C6.37293 17.0837 6.78013 17.328 7.18198 17.2276C7.71008 17.0956 8.11875 16.8466 8.43117 16.4544C8.71632 16.0965 8.88688 15.6581 9.03256 15.2348C9.08456 15.0837 9.13639 14.9252 9.19099 14.7582C9.45198 13.9599 9.77635 12.9677 10.4864 11.6671C10.5737 11.5073 10.6757 11.3603 10.791 11.2301C11.9519 9.91931 13.3079 9.02021 14.5451 8.46224C15.8011 7.89584 16.8714 7.70848 17.4486 7.7482C17.8618 7.77663 18.2199 7.46469 18.2483 7.05145C18.2767 6.63821 17.9648 6.28017 17.5516 6.25173C16.6422 6.18916 15.3165 6.46891 13.9285 7.09485C12.5218 7.72923 10.9858 8.74771 9.6681 10.2356C9.47282 10.4561 9.30717 10.6968 9.16988 10.9483C8.38817 12.3801 8.01999 13.5094 7.75857 14.3113C7.7071 14.4692 7.65976 14.6143 7.61422 14.7467C7.47121 15.1621 7.3682 15.3814 7.25791 15.5198C7.17489 15.6241 7.06625 15.7104 6.81818 15.7724Z" fill="#363538"/>
<path fill-rule="evenodd" clip-rule="evenodd" d="M20.689 6.05496C20.7838 4.51013 19.5042 3.20302 17.934 3.33402C13.0144 3.74445 9.59785 5.62418 7.306 8.0832C5.0268 10.5287 3.90229 13.5003 3.46765 16.0488C3.10927 18.1502 4.5764 20.0951 6.70638 20.3026C9.47721 20.5725 12.7989 20.1195 15.5346 17.9879C18.2873 15.8431 20.3183 12.0995 20.689 6.05496ZM18.0587 4.82882C18.6899 4.77616 19.2323 5.30295 19.1918 5.96312C18.8396 11.7063 16.9365 14.9941 14.6126 16.8047C12.2717 18.6287 9.37426 19.0554 6.85179 18.8097C5.59685 18.6874 4.73292 17.5522 4.9463 16.301C5.34417 13.9681 6.36875 11.2889 8.40331 9.1059C10.4252 6.9365 13.4871 5.21023 18.0587 4.82882Z" fill="#363538"/>
</svg>
