<svg width="24" height="24" viewBox="0 0 24 24" fill="none" xmlns="http://www.w3.org/2000/svg">
<path d="M7.07805 2.68286C6.70757 2.49762 6.25706 2.64779 6.07182 3.01827C5.90875 3.34442 6.00561 3.73258 6.28389 3.94719C5.74557 4.21645 5.14679 4.59598 4.62132 5.12145C3.90676 5.83601 3.46207 6.68617 3.19755 7.33544C3.06381 7.6637 2.97231 7.95009 2.91369 8.15681C2.88431 8.26041 2.86301 8.34464 2.84866 8.40489C2.84149 8.43503 2.83604 8.45923 2.83218 8.47691L2.82756 8.49849L2.82612 8.50549L2.8256 8.50802L2.8254 8.50904C2.82535 8.50924 2.82522 8.50989 3.56066 8.65698L2.8254 8.50904C2.74416 8.91521 3.0074 9.31118 3.41357 9.39242C3.81918 9.47354 4.21377 9.21096 4.29576 8.80575L4.29769 8.79674C4.29961 8.78792 4.30297 8.77293 4.30787 8.75232C4.3177 8.71106 4.33368 8.64752 4.35679 8.56605C4.40312 8.40265 4.47735 8.16976 4.58669 7.90139C4.8083 7.35743 5.15911 6.70498 5.68198 6.18211C6.03386 5.83023 6.44442 5.55628 6.84111 5.34718C6.84642 5.6294 7.0116 5.89673 7.28656 6.01894C7.66508 6.18717 8.1083 6.0167 8.27653 5.63818L8.84221 4.36539C9.00506 3.99898 8.8509 3.56929 8.49226 3.38997L7.07805 2.68286Z" fill="#363538"/>
<path d="M15.9219 21.3136C16.2924 21.4988 16.7429 21.3487 16.9282 20.9782C17.0913 20.652 16.9944 20.2639 16.7161 20.0492C17.2544 19.78 17.8532 19.4005 18.3787 18.875C19.0932 18.1604 19.5379 17.3103 19.8025 16.661C19.9362 16.3327 20.0277 16.0464 20.0863 15.8396C20.1157 15.736 20.137 15.6518 20.1513 15.5916C20.1585 15.5614 20.164 15.5372 20.1678 15.5195L20.1724 15.498L20.1739 15.491L20.1744 15.4884L20.1746 15.4874C20.1746 15.4872 20.1748 15.4865 19.4393 15.3395L20.1746 15.4874C20.2558 15.0812 19.9926 14.6853 19.5864 14.604C19.1808 14.5229 18.7862 14.7855 18.7042 15.1907L18.704 15.192L18.7023 15.1997L18.6989 15.2152L18.6921 15.2441C18.6823 15.2854 18.6663 15.3489 18.6432 15.4304C18.5969 15.5938 18.5226 15.8267 18.4133 16.0951C18.1917 16.639 17.8409 17.2915 17.318 17.8143C16.9661 18.1662 16.5556 18.4402 16.1589 18.6493C16.1536 18.367 15.9884 18.0997 15.7134 17.9775C15.3349 17.8093 14.8917 17.9797 14.7235 18.3583L14.1578 19.6311C13.9949 19.9975 14.1491 20.4272 14.5077 20.6065L15.9219 21.3136Z" fill="#363538"/>
<path fill-rule="evenodd" clip-rule="evenodd" d="M8.5 21.0001C11.8137 21.0001 14.5 18.3138 14.5 15.0001C14.5 11.6864 11.8137 9.00013 8.5 9.00013C5.18629 9.00013 2.5 11.6864 2.5 15.0001C2.5 18.3138 5.18629 21.0001 8.5 21.0001ZM8.5 19.5001C10.9853 19.5001 13 17.4854 13 15.0001C13 12.5148 10.9853 10.5001 8.5 10.5001C6.01472 10.5001 4 12.5148 4 15.0001C4 17.4854 6.01472 19.5001 8.5 19.5001Z" fill="#363538"/>
<path d="M15.4999 13.5001C17.9852 13.5001 19.9999 11.4854 19.9999 9.00013C19.9999 6.51485 17.9852 4.50013 15.4999 4.50013C13.2851 4.50013 11.4439 6.10023 11.0695 8.20751C10.5947 8.07917 10.0965 8.00765 9.58276 8.00069C10.0586 5.1627 12.5267 3.00013 15.4999 3.00013C18.8136 3.00013 21.4999 5.68642 21.4999 9.00013C21.4999 12.3138 18.8136 15.0001 15.4999 15.0001C15.4722 15.0001 15.4446 14.9999 15.417 14.9996C15.4715 14.6745 15.4999 14.3406 15.4999 14.0001C15.4999 13.8317 15.493 13.665 15.4794 13.5001L15.4999 13.5001Z" fill="#363538"/>
</svg>
