<svg width="24" height="24" viewBox="0 0 24 24" fill="none" xmlns="http://www.w3.org/2000/svg">
<path fill-rule="evenodd" clip-rule="evenodd" d="M9.73408 12.5111C9.48192 11.8296 8.51808 11.8296 8.26592 12.5111L7.91686 13.4544C7.83758 13.6687 7.66866 13.8376 7.45441 13.9169L6.51109 14.2659C5.82964 14.5181 5.82964 15.4819 6.51109 15.7341L7.45441 16.0831C7.66866 16.1624 7.83758 16.3313 7.91686 16.5456L8.26592 17.4889C8.51808 18.1704 9.48192 18.1704 9.73408 17.4889L10.0831 16.5456C10.1624 16.3313 10.3313 16.1624 10.5456 16.0831L11.4889 15.7341C12.1704 15.4819 12.1704 14.5181 11.4889 14.2659L10.5456 13.9169C10.3313 13.8376 10.1624 13.6687 10.0831 13.4544L9.73408 12.5111ZM9 14.5643C8.87513 14.7285 8.72853 14.8751 8.56429 15C8.72853 15.1249 8.87513 15.2715 9 15.4357C9.12487 15.2715 9.27147 15.1249 9.43571 15C9.27147 14.8751 9.12487 14.7285 9 14.5643Z" fill="#363538"/>
<path fill-rule="evenodd" clip-rule="evenodd" d="M14.9171 15.9999C14.9308 16 14.9445 16 14.9583 16C18.295 16 21 13.3137 21 10C21 6.68629 18.295 4 14.9583 4C11.9646 4 9.47948 6.16229 9.00009 9C9.00006 9 9.00013 9 9.00009 9C5.68639 9 3 11.6863 3 15C3 18.3137 5.68629 21 9 21C11.973 21 14.441 18.8376 14.9171 15.9999ZM14.9795 14.5C17.4723 14.4886 19.4896 12.4783 19.4896 10C19.4896 7.51472 17.4608 5.5 14.9583 5.5C12.7345 5.5 10.8848 7.09086 10.5004 9.18912C12.9322 9.81518 14.7672 11.9275 14.9795 14.5ZM9 19.5C11.4853 19.5 13.5 17.4853 13.5 15C13.5 12.5147 11.4853 10.5 9 10.5C6.51472 10.5 4.5 12.5147 4.5 15C4.5 17.4853 6.51472 19.5 9 19.5Z" fill="#363538"/>
</svg>
