<svg width="24" height="24" viewBox="0 0 24 24" fill="none" xmlns="http://www.w3.org/2000/svg">
<path d="M15.2328 7.42212C13.9878 6.17716 12.0859 5.86851 10.5111 6.6559C9.12536 7.34878 8.25 8.76515 8.25 10.3145V10.5H7.5C7.08579 10.5 6.75 10.8358 6.75 11.25C6.75 11.6642 7.08579 12 7.5 12H8.25V12.5H7.5C7.08579 12.5 6.75 12.8358 6.75 13.25C6.75 13.6642 7.08579 14 7.5 14H8.25V15.25C8.25 16.7688 9.48122 18 11 18H15C15.4142 18 15.75 17.6642 15.75 17.25C15.75 16.8358 15.4142 16.5 15 16.5H11C10.3096 16.5 9.75 15.9403 9.75 15.25V14H15C15.4142 14 15.75 13.6642 15.75 13.25C15.75 12.8358 15.4142 12.5 15 12.5H9.75V12H15C15.4142 12 15.75 11.6642 15.75 11.25C15.75 10.8358 15.4142 10.5 15 10.5H9.75V10.3145C9.75 9.3333 10.3044 8.43634 11.182 7.99754C12.1792 7.4989 13.3837 7.69436 14.1721 8.48278L14.4697 8.78032C14.7626 9.07321 15.2374 9.07321 15.5303 8.78032C15.8232 8.48743 15.8232 8.01255 15.5303 7.71966L15.2328 7.42212Z" fill="#363538"/>
<path fill-rule="evenodd" clip-rule="evenodd" d="M21 12C21 16.9706 16.9706 21 12 21C7.02944 21 3 16.9706 3 12C3 7.02944 7.02944 3 12 3C16.9706 3 21 7.02944 21 12ZM19.5 12C19.5 16.1421 16.1421 19.5 12 19.5C7.85786 19.5 4.5 16.1421 4.5 12C4.5 7.85786 7.85786 4.5 12 4.5C16.1421 4.5 19.5 7.85786 19.5 12Z" fill="#363538"/>
</svg>
