<svg width="24" height="24" viewBox="0 0 24 24" fill="none" xmlns="http://www.w3.org/2000/svg">
<path d="M13.9569 6.39326C12.962 5.63392 11.663 5.53617 10.5789 6.15677L9.67086 6.67656C8.69446 7.23548 8.07005 8.27147 7.92125 9.40093C7.86638 9.8175 7.92896 10.2088 7.99805 10.5217L8.33909 12.0665H8C7.58579 12.0665 7.25 12.4022 7.25 12.8165C7.25 13.2307 7.58579 13.5665 8 13.5665H8.36035L7.93834 15.7061C7.90786 15.8606 7.8742 16.0807 7.90273 16.325C8.02002 17.3289 8.80221 18.25 9.90909 18.25H15C15.4142 18.25 15.75 17.9142 15.75 17.5C15.75 17.0858 15.4142 16.75 15 16.75H9.90909C9.72568 16.75 9.4418 16.572 9.3926 16.1509C9.39098 16.137 9.39018 16.0968 9.40999 15.9964L9.88925 13.5665H14.0909C14.5051 13.5665 14.8409 13.2307 14.8409 12.8165C14.8409 12.4022 14.5051 12.0665 14.0909 12.0665H9.87521L9.46278 10.1983C9.40684 9.94494 9.38753 9.75531 9.4084 9.59685C9.50423 8.86947 9.8975 8.27519 10.4161 7.97836L11.3241 7.45857C11.874 7.14379 12.5216 7.18478 13.0468 7.58564L14.545 8.72911C14.8742 8.98042 15.3449 8.91723 15.5962 8.58796C15.8475 8.25869 15.7843 7.78804 15.455 7.53673L13.9569 6.39326Z" fill="#363538"/>
<path fill-rule="evenodd" clip-rule="evenodd" d="M21 12C21 16.9706 16.9706 21 12 21C7.02944 21 3 16.9706 3 12C3 7.02944 7.02944 3 12 3C16.9706 3 21 7.02944 21 12ZM19.5 12C19.5 16.1421 16.1421 19.5 12 19.5C7.85786 19.5 4.5 16.1421 4.5 12C4.5 7.85786 7.85786 4.5 12 4.5C16.1421 4.5 19.5 7.85786 19.5 12Z" fill="#363538"/>
</svg>
