<svg width="24" height="24" viewBox="0 0 24 24" fill="none" xmlns="http://www.w3.org/2000/svg">
<path d="M15.7078 9.50353C15.8962 9.03936 16 8.5318 16 8C16 5.79086 14.2091 4 12 4C9.79086 4 8 5.79086 8 8C8 8.53315 8.10431 9.04193 8.29362 9.50706C8.19634 9.50237 8.09845 9.5 8 9.5C7.56991 9.5 7.15039 9.54525 6.74594 9.63126C6.58609 9.11584 6.5 8.56797 6.5 8C6.5 4.96243 8.96243 2.5 12 2.5C15.0376 2.5 17.5 4.96243 17.5 8C17.5 8.61143 17.4002 9.19957 17.2161 9.749C16.7358 9.6059 16.2303 9.52132 15.7078 9.50353Z" fill="#363538"/>
<path d="M11.0799 11.4425C10.2011 10.8475 9.14116 10.5 8 10.5C4.96243 10.5 2.5 12.9624 2.5 16C2.5 19.0376 4.96243 21.5 8 21.5C9.40405 21.5 10.6852 20.9739 11.6571 20.108C11.2721 19.7866 10.928 19.4178 10.6337 19.0106C9.9301 19.6267 9.00865 20 8 20C5.79086 20 4 18.2091 4 16C4 13.7909 5.79086 12 8 12C8.81717 12 9.5771 12.245 10.2103 12.6657C10.4488 12.2215 10.7416 11.8108 11.0799 11.4425Z" fill="#363538"/>
<path fill-rule="evenodd" clip-rule="evenodd" d="M16 21.5C19.0376 21.5 21.5 19.0376 21.5 16C21.5 12.9624 19.0376 10.5 16 10.5C12.9624 10.5 10.5 12.9624 10.5 16C10.5 19.0376 12.9624 21.5 16 21.5ZM16 20C18.2091 20 20 18.2091 20 16C20 13.7909 18.2091 12 16 12C13.7909 12 12 13.7909 12 16C12 18.2091 13.7909 20 16 20Z" fill="#363538"/>
</svg>
