<svg width="24" height="24" viewBox="0 0 24 24" fill="none" xmlns="http://www.w3.org/2000/svg">
<path fill-rule="evenodd" clip-rule="evenodd" d="M18.7177 5.63615C18.3271 5.24563 17.694 5.24563 17.3035 5.63615L14.2983 8.64136L15.7125 10.0556L18.7177 7.05037C19.1082 6.65984 19.1082 6.02668 18.7177 5.63615ZM19.7783 4.57549C20.7546 5.55181 20.7546 7.13472 19.7783 8.11103L16.7731 11.1162L17.657 12.0001C17.9499 12.293 17.9499 12.7679 17.657 13.0608C17.3641 13.3537 16.8892 13.3537 16.5963 13.0608L15.3589 11.8233L7.40396 19.7783C6.62291 20.5593 5.35658 20.5593 4.57553 19.7783C3.79448 18.9972 3.79448 17.7309 4.57553 16.9499L12.5305 8.99491L10.9395 7.40392C10.6466 7.11103 10.6466 6.63616 10.9395 6.34326C11.2324 6.05037 11.7073 6.05037 12.0002 6.34326L13.2376 7.5807L16.2428 4.57549C17.2191 3.59918 18.802 3.59918 19.7783 4.57549ZM13.5911 10.0556L5.63619 18.0105C5.44093 18.2058 5.44093 18.5224 5.63619 18.7176C5.83146 18.9129 6.14804 18.9129 6.3433 18.7176L14.2983 10.7627L13.5911 10.0556Z" fill="#363538"/>
</svg>
