<svg width="24" height="24" viewBox="0 0 24 24" fill="none" xmlns="http://www.w3.org/2000/svg">
<path fill-rule="evenodd" clip-rule="evenodd" d="M7 2H6C3.79086 2 2 3.79086 2 6V18C2 20.2091 3.79086 22 6 22H7C9.20914 22 11 20.2091 11 18V6C11 3.79086 9.20914 2 7 2ZM6 3.5H7C8.38071 3.5 9.5 4.61929 9.5 6V18C9.5 19.3807 8.38071 20.5 7 20.5H6C4.61929 20.5 3.5 19.3807 3.5 18V6C3.5 4.61929 4.61929 3.5 6 3.5Z" fill="#363538"/>
<path fill-rule="evenodd" clip-rule="evenodd" d="M18 2H17C14.7909 2 13 3.79086 13 6V18C13 20.2091 14.7909 22 17 22H18C20.2091 22 22 20.2091 22 18V6C22 3.79086 20.2091 2 18 2ZM17 3.5H18C19.3807 3.5 20.5 4.61929 20.5 6V18C20.5 19.3807 19.3807 20.5 18 20.5H17C15.6193 20.5 14.5 19.3807 14.5 18V6C14.5 4.61929 15.6193 3.5 17 3.5Z" fill="#363538"/>
</svg>
