<svg width="24" height="24" viewBox="0 0 24 24" fill="none" xmlns="http://www.w3.org/2000/svg">
<path fill-rule="evenodd" clip-rule="evenodd" d="M6.33339 2.46572C6.62625 2.17286 7.10103 2.17291 7.39393 2.46572C7.68683 2.75861 7.68683 3.23337 7.39393 3.52627L5.27284 5.64736C4.96777 5.95243 4.70932 6.28567 4.4955 6.6376L5.27675 7.41982L8.28261 4.41396L8.33925 4.36221C8.63376 4.12229 9.06866 4.13966 9.34315 4.41396C9.61762 4.68843 9.63485 5.1233 9.39491 5.41787L9.34315 5.47451L6.33729 8.48037L6.98476 9.12685L9.98964 6.12197L10.0473 6.07021C10.3418 5.83033 10.7757 5.8477 11.0502 6.12197C11.3245 6.39646 11.3419 6.83038 11.1019 7.1249L11.0502 7.18252L8.0453 10.1874L8.69179 10.8339L11.6967 7.829L11.7543 7.77724C12.0487 7.5374 12.4827 7.55496 12.7572 7.829C13.0317 8.10347 13.0489 8.53736 12.809 8.83193L12.7572 8.88955L9.75233 11.8944L10.3998 12.5419L13.4047 9.53701C13.6976 9.24412 14.1723 9.24412 14.4652 9.53701C14.758 9.82991 14.7581 10.3047 14.4652 10.5976L11.4603 13.6024L12.1068 14.2499L15.1127 11.244C15.4056 10.9515 15.8804 10.9513 16.1732 11.244C16.4657 11.5369 16.4657 12.0118 16.1732 12.3046L13.1674 15.3104L13.8139 15.9569L16.8197 12.9511L16.8764 12.8993C17.1709 12.6594 17.6058 12.6767 17.8803 12.9511C18.1547 13.2255 18.172 13.6604 17.932 13.955L17.8803 14.0116L14.8744 17.0175L15.5219 17.664L18.5267 14.6591C18.8196 14.3662 19.2944 14.3664 19.5873 14.6591C19.88 14.952 19.8801 15.4268 19.5873 15.7196L16.5824 18.7245L17.3637 19.5058C17.7157 19.2919 18.0497 19.0345 18.3549 18.7294L20.476 16.6073C20.7688 16.3148 21.2437 16.3147 21.5365 16.6073C21.8294 16.9002 21.8294 17.376 21.5365 17.6688L19.4154 19.7899C18.8586 20.3468 18.2265 20.7861 17.5521 21.1083C15.0442 22.3062 11.9485 21.8686 9.86952 19.7899L4.21229 14.1327C2.13346 12.0538 1.69513 8.95806 2.89296 6.4501C3.21514 5.77566 3.65538 5.14372 4.21229 4.58681L6.33339 2.46572ZM3.87831 8.1415C3.47112 9.85624 3.93625 11.7355 5.27284 13.0722L10.9301 18.7294C12.2665 20.0656 14.1453 20.5299 15.8598 20.1229L3.87831 8.1415Z" fill="#363538"/>
</svg>
