<svg width="24" height="24" viewBox="0 0 24 24" fill="none" xmlns="http://www.w3.org/2000/svg">
<path fill-rule="evenodd" clip-rule="evenodd" d="M6.5 3.24976C8.29493 3.24976 9.75 4.70483 9.75 6.49976V8.24976H14.25V6.49976C14.25 4.70483 15.7051 3.24976 17.5 3.24976C19.2949 3.24976 20.75 4.70483 20.75 6.49976C20.75 8.29468 19.2949 9.74976 17.5 9.74976H15.75V14.2498H17.5C19.2949 14.2498 20.75 15.7048 20.75 17.4998C20.75 19.2947 19.2949 20.7498 17.5 20.7498C15.7051 20.7498 14.25 19.2947 14.25 17.4998V15.7498H9.75V17.4998C9.75 19.2947 8.29493 20.7498 6.5 20.7498C4.70507 20.7498 3.25 19.2947 3.25 17.4998C3.25 15.7048 4.70507 14.2498 6.5 14.2498H8.25V9.74976H6.5C4.70507 9.74976 3.25 8.29468 3.25 6.49976C3.25 4.70483 4.70507 3.24976 6.5 3.24976ZM4.75 6.49976C4.75 5.53326 5.5335 4.74976 6.5 4.74976C7.4665 4.74976 8.25 5.53326 8.25 6.49976V8.24976H6.5C5.5335 8.24976 4.75 7.46625 4.75 6.49976ZM19.25 6.49976C19.25 7.46625 18.4665 8.24976 17.5 8.24976H15.75V6.49976C15.75 5.53326 16.5335 4.74976 17.5 4.74976C18.4665 4.74976 19.25 5.53326 19.25 6.49976ZM17.5 19.2498C16.5335 19.2498 15.75 18.4663 15.75 17.4998V15.7498H17.5C18.4665 15.7498 19.25 16.5333 19.25 17.4998C19.25 18.4663 18.4665 19.2498 17.5 19.2498ZM4.75 17.4998C4.75 16.5333 5.5335 15.7498 6.5 15.7498H8.25V17.4998C8.25 18.4663 7.4665 19.2498 6.5 19.2498C5.5335 19.2498 4.75 18.4663 4.75 17.4998ZM9.75 14.2498V9.74976H14.25V14.2498H9.75Z" fill="#363538"/>
</svg>
