<svg width="24" height="24" viewBox="0 0 24 24" fill="none" xmlns="http://www.w3.org/2000/svg">
<path fill-rule="evenodd" clip-rule="evenodd" d="M11.1162 1.82315C11.6044 1.33499 12.3959 1.33499 12.884 1.82315L16.1769 5.11604C16.6651 5.6042 16.6651 6.39565 16.1769 6.88381L12.884 10.1767C12.3959 10.6649 11.6044 10.6649 11.1162 10.1767L7.82335 6.88381C7.33519 6.39565 7.33519 5.6042 7.82335 5.11604L11.1162 1.82315ZM12.0001 3.06059L9.06078 5.99992L12.0001 8.93926L14.9395 5.99992L12.0001 3.06059Z" fill="#363538"/>
<path fill-rule="evenodd" clip-rule="evenodd" d="M6.88393 7.82315C6.39578 7.33499 5.60432 7.33499 5.11616 7.82315L1.82327 11.116C1.33512 11.6042 1.33511 12.3957 1.82327 12.8838L5.11616 16.1767C5.60432 16.6649 6.39577 16.6649 6.88393 16.1767L10.1768 12.8838C10.665 12.3957 10.665 11.6042 10.1768 11.116L6.88393 7.82315ZM3.06071 11.9999L6.00005 9.06059L8.93939 11.9999L6.00005 14.9393L3.06071 11.9999Z" fill="#363538"/>
<path fill-rule="evenodd" clip-rule="evenodd" d="M18.884 7.82322C18.3959 7.33507 17.6044 7.33507 17.1162 7.82322L13.8233 11.1161C13.3352 11.6043 13.3352 12.3957 13.8233 12.8839L17.1162 16.1768C17.6044 16.6649 18.3959 16.6649 18.884 16.1768L22.1769 12.8839C22.6651 12.3957 22.6651 11.6043 22.1769 11.1161L18.884 7.82322ZM15.0608 12L18.0001 9.06066L20.9395 12L18.0001 14.9393L15.0608 12Z" fill="#363538"/>
<path fill-rule="evenodd" clip-rule="evenodd" d="M12.884 13.8232C12.3959 13.3351 11.6044 13.3351 11.1162 13.8232L7.82335 17.1161C7.33519 17.6043 7.33519 18.3957 7.82335 18.8839L11.1162 22.1768C11.6044 22.6649 12.3959 22.6649 12.884 22.1768L16.1769 18.8839C16.6651 18.3957 16.6651 17.6043 16.1769 17.1161L12.884 13.8232ZM9.06078 18L12.0001 15.0607L14.9395 18L12.0001 20.9393L9.06078 18Z" fill="#363538"/>
</svg>
