<svg width="24" height="24" viewBox="0 0 24 24" fill="none" xmlns="http://www.w3.org/2000/svg">
<path d="M14.7212 3.80384C14.3366 3.95767 14.1495 4.39414 14.3034 4.77873C14.515 5.30782 14.5008 5.60262 14.4568 5.76244C14.414 5.91853 14.3119 6.06005 14.1041 6.22335C13.9474 6.34654 13.7955 6.4375 13.6115 6.54774C13.5121 6.60729 13.4033 6.67248 13.2793 6.75141C12.9927 6.93378 12.5743 7.22228 12.3604 7.69206C12.1888 8.06903 12.3552 8.51378 12.7322 8.68544C13.1091 8.8571 13.5539 8.69067 13.7255 8.3137C13.7399 8.28216 13.8053 8.19466 14.0846 8.0169C14.1403 7.98144 14.2102 7.93939 14.2888 7.89215C14.5094 7.75939 14.7982 7.58566 15.031 7.4027C15.3803 7.12815 15.7443 6.73824 15.9032 6.15987C16.0611 5.58523 15.9844 4.94254 15.6961 4.22167C15.5423 3.83708 15.1058 3.65001 14.7212 3.80384Z" fill="#363538"/>
<path d="M20.6144 6.48905C20.9696 6.70215 21.4303 6.58696 21.6434 6.23176C21.8565 5.87657 21.7413 5.41588 21.3861 5.20278C20.5822 4.7205 19.7838 4.64792 19.0312 4.91325C18.3279 5.16118 17.7365 5.67947 17.2369 6.22549C16.7772 6.72802 16.3368 7.32146 15.9239 7.87787L15.8053 8.03758C15.3447 8.65715 14.9165 9.21898 14.4793 9.65528C14.1861 9.94788 14.1856 10.4227 14.4782 10.7159C14.7708 11.0091 15.2457 11.0096 15.5389 10.717C16.066 10.191 16.5563 9.54159 17.0091 8.93256L17.1206 8.78243C17.5445 8.2116 17.9388 7.68049 18.3436 7.23803C18.7882 6.75206 19.1767 6.45242 19.5299 6.32791C19.8337 6.22082 20.1681 6.2213 20.6144 6.48905Z" fill="#363538"/>
<path fill-rule="evenodd" clip-rule="evenodd" d="M11.3411 8.2393C10.6307 7.32575 9.19987 7.29379 8.50732 8.29769C7.32776 10.0075 5.07304 13.3808 3.6641 16.1659C3.31055 16.8647 3.00373 17.5392 2.77946 18.1499C2.5594 18.7491 2.39986 19.3368 2.37874 19.847C2.35841 20.3383 2.46552 20.9849 3.05394 21.3442C3.5846 21.6683 4.2438 21.5807 4.83746 21.3929C8.7327 20.1607 13.9213 17.9002 16.4566 16.7618C17.6933 16.2065 17.8234 14.5579 16.8051 13.7565C15.9364 13.0728 14.828 12.1563 13.9804 11.3087C13.0493 10.3775 12.0362 9.13307 11.3411 8.2393ZM9.74202 9.14946C9.82369 9.03108 10.0305 8.99739 10.1571 9.16013C10.8608 10.065 11.9202 11.3698 12.9198 12.3694C13.8313 13.281 14.9956 14.2413 15.8774 14.9353C16.0573 15.0768 15.9963 15.3242 15.8422 15.3934C13.3043 16.533 8.18777 18.7598 4.38505 19.9628C4.11091 20.0495 3.9562 20.062 3.88081 20.0607C3.87695 20.0269 3.87461 19.9779 3.87746 19.909C3.88897 19.6308 3.98609 19.2155 4.18752 18.667C4.38473 18.1299 4.66421 17.5118 5.00257 16.843C6.36128 14.1572 8.56396 10.8571 9.74202 9.14946ZM3.896 20.1258C3.89566 20.1262 3.89369 20.123 3.89112 20.1149C3.89506 20.1213 3.89634 20.1253 3.896 20.1258Z" fill="#363538"/>
<path d="M18.34 12.9239C18.5204 12.6148 18.7505 12.4634 18.9344 12.4252C19.0864 12.3937 19.3271 12.4128 19.6369 12.7226C19.9298 13.0155 20.4046 13.0155 20.6975 12.7226C20.9904 12.4297 20.9904 11.9548 20.6975 11.6619C20.0919 11.0563 19.3558 10.8057 18.6294 10.9566C17.9351 11.1008 17.3854 11.5838 17.0446 12.1678C16.8358 12.5255 16.9565 12.9848 17.3142 13.1936C17.672 13.4024 18.1312 13.2816 18.34 12.9239Z" fill="#363538"/>
<path d="M10.9998 6.00037C11.5521 6.00037 11.9998 5.55265 11.9998 5.00037C11.9998 4.44808 11.5521 4.00037 10.9998 4.00037C10.4475 4.00037 9.9998 4.44808 9.9998 5.00037C9.9998 5.55265 10.4475 6.00037 10.9998 6.00037Z" fill="#363538"/>
<path d="M21.9998 9.00037C21.9998 9.55265 21.5521 10.0004 20.9998 10.0004C20.4475 10.0004 19.9998 9.55265 19.9998 9.00037C19.9998 8.44809 20.4475 8.00037 20.9998 8.00037C21.5521 8.00037 21.9998 8.44809 21.9998 9.00037Z" fill="#363538"/>
</svg>
