<svg width="24" height="24" viewBox="0 0 24 24" fill="none" xmlns="http://www.w3.org/2000/svg">
<path fill-rule="evenodd" clip-rule="evenodd" d="M12.5 12.4998C11.9538 12.4998 11.4332 12.5682 10.9588 12.6921C9.51476 13.0692 8.5 13.9604 8.5 14.9998C8.5 16.3805 10.2909 17.4998 12.5 17.4998C14.7091 17.4998 16.5 16.3805 16.5 14.9998C16.5 13.9604 15.4852 13.0692 14.0412 12.6921C13.5668 12.5682 13.0462 12.4998 12.5 12.4998ZM15 15C15 15.0078 15.0001 15.0484 14.9434 15.1322C14.8809 15.2245 14.7554 15.3568 14.5334 15.4955C14.0834 15.7768 13.3684 15.9998 12.5 15.9998C11.6316 15.9998 10.9166 15.7768 10.4666 15.4955C10.2446 15.3568 10.1191 15.2245 10.0566 15.1322C9.99995 15.0484 9.99999 15.0078 10 15C9.99999 14.9922 9.99995 14.9511 10.0566 14.8673C10.1191 14.775 10.2446 14.6427 10.4666 14.504C10.9166 14.2227 11.6316 13.9998 12.5 13.9998C13.3684 13.9998 14.0834 14.2227 14.5334 14.504C14.7554 14.6427 14.8809 14.775 14.9434 14.8673C15.0001 14.9511 15 14.9922 15 15Z" fill="#363538"/>
<path fill-rule="evenodd" clip-rule="evenodd" d="M10 8.99976C10 9.88956 10.4649 10.6708 11.165 11.1138C11.5512 11.3583 12.0091 11.4998 12.5 11.4998C12.9909 11.4998 13.4488 11.3583 13.835 11.1138C14.5351 10.6708 15 9.88956 15 8.99976C15 7.61904 13.8807 6.49976 12.5 6.49976C11.1193 6.49976 10 7.61904 10 8.99976ZM13.5 8.99976C13.5 9.55204 13.0523 9.99976 12.5 9.99976C11.9477 9.99976 11.5 9.55204 11.5 8.99976C11.5 8.44747 11.9477 7.99976 12.5 7.99976C13.0523 7.99976 13.5 8.44747 13.5 8.99976Z" fill="#363538"/>
<path fill-rule="evenodd" clip-rule="evenodd" d="M10 3.24976C7.80926 3.24976 5.96491 4.73284 5.41619 6.74976H5C4.58579 6.74976 4.25 7.08554 4.25 7.49976C4.25 7.91397 4.58579 8.24976 5 8.24976H5.25V9.74976H5C4.58579 9.74976 4.25 10.0855 4.25 10.4998C4.25 10.914 4.58579 11.2498 5 11.2498H5.25V12.7498H5C4.58579 12.7498 4.25 13.0855 4.25 13.4998C4.25 13.914 4.58579 14.2498 5 14.2498H5.25V15.7498H5C4.58579 15.7498 4.25 16.0855 4.25 16.4998C4.25 16.914 4.58579 17.2498 5 17.2498H5.41619C5.96491 19.2667 7.80926 20.7498 10 20.7498H15C17.6234 20.7498 19.75 18.6231 19.75 15.9998V7.99976C19.75 5.3764 17.6234 3.24976 15 3.24976H10ZM10 4.74976C8.64803 4.74976 7.48886 5.57528 6.99908 6.74976C7.4133 6.74976 7.75 7.08554 7.75 7.49976C7.75 7.91397 7.41421 8.24976 7 8.24976H6.75V9.74976H7C7.41421 9.74976 7.75 10.0855 7.75 10.4998C7.75 10.914 7.41421 11.2498 7 11.2498H6.75V12.7498H7C7.41421 12.7498 7.75 13.0855 7.75 13.4998C7.75 13.914 7.41421 14.2498 7 14.2498H6.75V15.7498H7C7.41421 15.7498 7.75 16.0855 7.75 16.4998C7.75 16.914 7.41421 17.2498 7 17.2498C7.48978 18.4242 8.64803 19.2498 10 19.2498H15C16.7949 19.2498 18.25 17.7947 18.25 15.9998V7.99976C18.25 6.20483 16.7949 4.74976 15 4.74976H10Z" fill="#363538"/>
</svg>
