<svg width="24" height="24" viewBox="0 0 24 24" fill="none" xmlns="http://www.w3.org/2000/svg">
<path d="M14 3C14.5523 3 15 3.44772 15 4C15 4.55228 14.5523 5 14 5C13.4477 5 13 4.55228 13 4C13 3.44772 13.4477 3 14 3Z" fill="#363538"/>
<path d="M15 15C15.5523 15 16 15.4477 16 16C16 16.5523 15.5523 17 15 17C14.4477 17 14 16.5523 14 16C14 15.4477 14.4477 15 15 15Z" fill="#363538"/>
<path d="M10 16C10 15.4477 9.55229 15 9.00001 15C8.44772 15 8.00001 15.4477 8.00001 16C8.00001 16.5523 8.44772 17 9.00001 17C9.55229 17 10 16.5523 10 16Z" fill="#363538"/>
<path d="M12 10C12.5523 10 13 10.4477 13 11C13 11.5523 12.5523 12 12 12C11.4477 12 11 11.5523 11 11C11 10.4477 11.4477 10 12 10Z" fill="#363538"/>
<path d="M7.00001 10C7.00001 9.44772 6.55229 9 6.00001 9C5.44772 9 5.00001 9.44772 5.00001 10C5.00001 10.5523 5.44772 11 6.00001 11C6.55229 11 7.00001 10.5523 7.00001 10Z" fill="#363538"/>
<path fill-rule="evenodd" clip-rule="evenodd" d="M9.74317 4.25009C9.65752 3.39929 8.76588 2.74685 7.87587 3.16285C4.55396 4.71551 2.24988 8.08796 2.24988 12.0001C2.24988 17.3849 6.6151 21.7501 11.9999 21.7501C16.0539 21.7501 19.5283 19.276 20.999 15.7583C21.5502 14.4398 20.4529 13.2501 19.2328 13.2501C18.9661 13.2501 18.7499 13.0339 18.7499 12.7672V12.5001C18.7499 11.2574 17.7425 10.2501 16.4999 10.2501C16.0857 10.2501 15.7499 9.9143 15.7499 9.50009C15.7499 8.25745 14.7425 7.25009 13.4999 7.25009C13.0857 7.25009 12.7499 6.9143 12.7499 6.50009C12.7499 5.25745 11.7425 4.25009 10.4999 4.25009H9.74317ZM8.2734 4.63749C8.39234 5.27086 8.94831 5.75009 9.61621 5.75009H10.4999C10.9141 5.75009 11.2499 6.08588 11.2499 6.50009C11.2499 7.74273 12.2572 8.75009 13.4999 8.75009C13.9141 8.75009 14.2499 9.08588 14.2499 9.50009C14.2499 10.7427 15.2572 11.7501 16.4999 11.7501C16.9141 11.7501 17.2499 12.0859 17.2499 12.5001V12.7672C17.2499 13.8623 18.1377 14.7501 19.2328 14.7501C19.3923 14.7501 19.5154 14.8239 19.5818 14.912C19.6417 14.9915 19.6572 15.0789 19.6151 15.1798C18.3695 18.159 15.428 20.2501 11.9999 20.2501C7.44353 20.2501 3.74988 16.5564 3.74988 12.0001C3.74988 8.78587 5.58799 5.99952 8.2734 4.63749Z" fill="#363538"/>
<path d="M18.5 8.25C18.5 7.83579 18.1642 7.5 17.75 7.5C17.3358 7.5 17 7.83579 17 8.25C17 8.66421 17.3358 9 17.75 9C18.1642 9 18.5 8.66421 18.5 8.25Z" fill="#363538"/>
<path d="M19 4.5C19 4.22386 18.7761 4 18.5 4C18.2239 4 18 4.22386 18 4.5C18 4.77614 18.2239 5 18.5 5C18.7761 5 19 4.77614 19 4.5Z" fill="#363538"/>
<path d="M20.5 9C20.7761 9 21 9.22386 21 9.5C21 9.77614 20.7761 10 20.5 10C20.2239 10 20 9.77614 20 9.5C20 9.22386 20.2239 9 20.5 9Z" fill="#363538"/>
</svg>
