<svg width="24" height="24" viewBox="0 0 24 24" fill="none" xmlns="http://www.w3.org/2000/svg">
<path fill-rule="evenodd" clip-rule="evenodd" d="M4 7H8C9.10457 7 10 7.89543 10 9C10 10.1046 9.10457 11 8 11H4C2.89543 11 2 10.1046 2 9C2 7.89543 2.89543 7 4 7ZM8 8.5H4C3.72386 8.5 3.5 8.72386 3.5 9C3.5 9.27614 3.72386 9.5 4 9.5H8C8.27614 9.5 8.5 9.27614 8.5 9C8.5 8.72386 8.27614 8.5 8 8.5Z" fill="#363538"/>
<path fill-rule="evenodd" clip-rule="evenodd" d="M2 14V18C2 19.1046 2.89543 20 4 20H20C21.1046 20 22 19.1046 22 18V14C22 12.8954 21.1046 12 20 12H4C2.89543 12 2 12.8954 2 14ZM3.5 14V18C3.5 18.2761 3.72386 18.5 4 18.5H20C20.2761 18.5 20.5 18.2761 20.5 18V14C20.5 13.7239 20.2761 13.5 20 13.5H4C3.72386 13.5 3.5 13.7239 3.5 14Z" fill="#363538"/>
<path fill-rule="evenodd" clip-rule="evenodd" d="M20 7H16C14.8954 7 14 7.89543 14 9C14 10.1046 14.8954 11 16 11H20C21.1046 11 22 10.1046 22 9C22 7.89543 21.1046 7 20 7ZM16 8.5H20C20.2761 8.5 20.5 8.72386 20.5 9C20.5 9.27614 20.2761 9.5 20 9.5H16C15.7239 9.5 15.5 9.27614 15.5 9C15.5 8.72386 15.7239 8.5 16 8.5Z" fill="#363538"/>
</svg>
