<svg width="24" height="24" viewBox="0 0 24 24" fill="none" xmlns="http://www.w3.org/2000/svg">
<path fill-rule="evenodd" clip-rule="evenodd" d="M11.2659 10.5109C11.5181 9.82945 12.4819 9.82945 12.7341 10.5109L13.0831 11.4542C13.1624 11.6685 13.3313 11.8374 13.5456 11.9167L14.4889 12.2657C15.1704 12.5179 15.1704 13.4817 14.4889 13.7339L13.5456 14.083C13.3313 14.1622 13.1624 14.3312 13.0831 14.5454L12.7341 15.4887C12.4819 16.1702 11.5181 16.1702 11.2659 15.4887L10.9169 14.5454C10.8376 14.3312 10.6687 14.1622 10.4544 14.083L9.51109 13.7339C8.82963 13.4817 8.82963 12.5179 9.51109 12.2657L10.4544 11.9167C10.6687 11.8374 10.8376 11.6685 10.9169 11.4542L11.2659 10.5109ZM12.4357 12.9998C12.2715 13.1247 12.1249 13.2713 12 13.4355C11.8751 13.2713 11.7285 13.1247 11.5643 12.9998C11.7285 12.8749 11.8751 12.7283 12 12.5641C12.1249 12.7283 12.2715 12.8749 12.4357 12.9998Z" fill="#363538"/>
<path fill-rule="evenodd" clip-rule="evenodd" d="M13.5739 4.52202C12.9356 3.20881 11.0645 3.2088 10.4261 4.52202L7.36453 10.8202C7.29984 10.9533 7.13433 11.0013 7.0084 10.9236L4.70912 9.50465C3.32345 8.64948 1.6233 9.98439 2.12529 11.5334L4.3609 18.4318C4.62318 19.2412 5.42519 19.7392 6.25922 19.6347C7.58539 19.4686 10.1713 19.1784 12 19.1784C13.8288 19.1784 16.4147 19.4686 17.7408 19.6347C18.5749 19.7392 19.3769 19.2412 19.6392 18.4318L21.8748 11.5334C22.3768 9.98439 20.6766 8.64949 19.2909 9.50465L16.9917 10.9236C16.8657 11.0013 16.7002 10.9533 16.6355 10.8202L13.5739 4.52202ZM11.7752 5.17781C11.8664 4.99021 12.1337 4.99021 12.2249 5.17781L15.2865 11.476C15.7394 12.4076 16.8979 12.7441 17.7794 12.2001L20.0787 10.7811C20.2767 10.659 20.5195 10.8497 20.4478 11.071L18.2122 17.9694C18.175 18.0842 18.0572 18.1626 17.9273 18.1463C16.6048 17.9807 13.9336 17.6784 12 17.6784C10.0665 17.6784 7.39529 17.9807 6.07279 18.1463C5.9429 18.1626 5.82505 18.0842 5.78784 17.9694L3.55223 11.071C3.48052 10.8497 3.7234 10.659 3.92135 10.7811L6.22062 12.2001C7.10215 12.7441 8.2607 12.4076 8.71359 11.476L11.7752 5.17781Z" fill="#363538"/>
</svg>
