<svg width="24" height="24" viewBox="0 0 24 24" fill="none" xmlns="http://www.w3.org/2000/svg">
<path d="M17.0931 9.74421C17.5041 9.69283 17.7956 9.31799 17.7442 8.90697C17.6929 8.49596 17.318 8.20441 16.907 8.25579L15.345 8.45104C14.7194 8.52924 14.25 9.06099 14.25 9.69139V11.3596C14.25 12.1728 15.0143 12.7695 15.8032 12.5723L16.25 12.4606V12.9144L14.8181 13.2724C14.4163 13.3729 14.172 13.7801 14.2724 14.1819C14.3729 14.5837 14.7801 14.8281 15.1819 14.7276L16.8032 14.3223C17.3597 14.1832 17.75 13.6832 17.75 13.1096V12.1404C17.75 11.3272 16.9858 10.7305 16.1969 10.9277L15.75 11.0394V9.91209L17.0931 9.74421Z" fill="#363538"/>
<path d="M13.7442 8.90697C13.7956 9.31799 13.5041 9.69283 13.0931 9.74421L11.75 9.91209V11.0394L12.1969 10.9277C12.9858 10.7305 13.75 11.3272 13.75 12.1404V13.1096C13.75 13.6832 13.3597 14.1832 12.8032 14.3223L11.1819 14.7276C10.7801 14.8281 10.3729 14.5837 10.2724 14.1819C10.172 13.7801 10.4163 13.3729 10.8181 13.2724L12.25 12.9144V12.4606L11.8032 12.5723C11.0143 12.7695 10.25 12.1728 10.25 11.3596V9.69139C10.25 9.06099 10.7194 8.52924 11.345 8.45104L12.907 8.25579C13.318 8.20441 13.6929 8.49596 13.7442 8.90697Z" fill="#363538"/>
<path d="M9.09305 9.74421C9.50407 9.69283 9.79561 9.31799 9.74424 8.90697C9.69286 8.49596 9.31802 8.20441 8.907 8.25579L7.34498 8.45104C6.71945 8.52924 6.25003 9.06099 6.25003 9.69139V13.3596C6.25003 14.1728 7.01426 14.7695 7.8032 14.5723L9.18193 14.2276C9.58378 14.1271 9.8281 13.7199 9.72763 13.3181C9.62717 12.9163 9.21997 12.6719 8.81813 12.7724L7.75003 13.0394V9.91209L9.09305 9.74421Z" fill="#363538"/>
<path fill-rule="evenodd" clip-rule="evenodd" d="M4.55868 2.25C3.81367 2.25 3.23405 2.89758 3.31633 3.63804L4.99666 18.7611C5.05104 19.2505 5.3877 19.6624 5.85651 19.8131L11.6175 21.6648C11.8663 21.7448 12.1338 21.7448 12.3826 21.6648L18.1436 19.8131C18.6124 19.6624 18.9491 19.2505 19.0034 18.7611L20.6838 3.63804C20.766 2.89758 20.1864 2.25 19.4414 2.25H4.55868ZM6.46962 18.4346L4.838 3.75H19.1621L17.5305 18.4346L12 20.2122L6.46962 18.4346Z" fill="#363538"/>
</svg>
