<svg width="24" height="24" viewBox="0 0 24 24" fill="none" xmlns="http://www.w3.org/2000/svg">
<path fill-rule="evenodd" clip-rule="evenodd" d="M13 1.75C12.5858 1.75 12.25 2.08579 12.25 2.5V5.75H6C5.58579 5.75 5.25 6.08579 5.25 6.5V9.5C5.25 9.54131 5.25341 9.58255 5.2602 9.6233L7.2602 21.6233C7.32048 21.9849 7.63337 22.25 8 22.25H15C15.3666 22.25 15.6795 21.9849 15.7398 21.6233L17.7398 9.6233C17.7466 9.58255 17.75 9.54131 17.75 9.5V6.5C17.75 6.08579 17.4142 5.75 17 5.75H13.75V3.25H16C16.4142 3.25 16.75 2.91421 16.75 2.5C16.75 2.08579 16.4142 1.75 16 1.75H13ZM6.75 7.25V9.43793L8.63535 20.75H14.3647L16.25 9.43793V7.25H6.75Z" fill="#363538"/>
</svg>
