<svg width="24" height="24" viewBox="0 0 24 24" fill="none" xmlns="http://www.w3.org/2000/svg">
<path fill-rule="evenodd" clip-rule="evenodd" d="M16.8447 3C18.0081 3 18.926 3.98915 18.8391 5.14929L18.6186 8.09465C18.645 8.07912 18.6715 8.06408 18.6981 8.04954C19.1657 7.79385 19.7429 7.64873 20.3254 7.71748C20.9265 7.78841 21.5129 8.08721 21.9333 8.67419C22.3422 9.24531 22.55 10.0262 22.55 10.9999C22.55 12.7498 21.55 14.5403 20.5978 15.8734C19.6242 17.2365 18.5896 18.2711 18.3312 18.5295L18.3304 18.5303C18.1827 18.678 17.9889 18.7512 17.7954 18.75C17.4414 20.6142 15.8057 22 13.866 22H8.13399C6.04068 22 4.3014 20.3861 4.14515 18.2986L3.16087 5.14929C3.07403 3.98915 3.99191 3 5.15529 3H16.8447ZM17.972 16.7336C18.374 16.291 18.8852 15.6904 19.3772 15.0015C20.3001 13.7096 21.05 12.2501 21.05 10.9999C21.05 10.2237 20.8829 9.78372 20.7137 9.54749C20.5559 9.32712 20.3611 9.23209 20.1496 9.20714C19.9197 9.18 19.6531 9.23694 19.4176 9.36567C19.1755 9.49804 19.0419 9.66332 18.9977 9.77528C18.9022 10.0172 18.695 10.1818 18.4586 10.2331L17.972 16.7336ZM5.64096 18.1866L4.65669 5.03732C4.63498 4.74729 4.86445 4.5 5.15529 4.5H16.8447C17.1355 4.5 17.365 4.74729 17.3433 5.03732L16.359 18.1866C16.2614 19.4913 15.1743 20.5 13.866 20.5H8.13399C6.82567 20.5 5.73862 19.4913 5.64096 18.1866Z" fill="#363538"/>
</svg>
