<svg width="24" height="24" viewBox="0 0 24 24" fill="none" xmlns="http://www.w3.org/2000/svg">
<path d="M8.99997 2.25C6.9289 2.25 5.24997 3.92893 5.24997 6V8.27364C5.24997 9.53179 4.39369 10.6285 3.17311 10.9336C2.06298 11.2112 2.06298 12.7888 3.17311 13.0664C4.39369 13.3715 5.24997 14.4682 5.24997 15.7264V18C5.24997 20.0711 6.9289 21.75 8.99997 21.75C9.41418 21.75 9.74997 21.4142 9.74997 21C9.74997 20.5858 9.41418 20.25 8.99997 20.25C7.75733 20.25 6.74997 19.2426 6.74997 18V15.7264C6.74997 14.1453 5.8759 12.729 4.53569 12C5.8759 11.271 6.74997 9.85472 6.74997 8.27364V6C6.74997 4.75736 7.75733 3.75 8.99997 3.75C9.41418 3.75 9.74997 3.41421 9.74997 3C9.74997 2.58579 9.41418 2.25 8.99997 2.25Z" fill="#363538"/>
<path d="M15 2.25C14.5858 2.25 14.25 2.58579 14.25 3C14.25 3.41421 14.5858 3.75 15 3.75C16.2426 3.75 17.25 4.75736 17.25 6V8.27364C17.25 9.85472 18.1241 11.271 19.4643 12C18.1241 12.729 17.25 14.1453 17.25 15.7264V18C17.25 19.2426 16.2426 20.25 15 20.25C14.5858 20.25 14.25 20.5858 14.25 21C14.25 21.4142 14.5858 21.75 15 21.75C17.0711 21.75 18.75 20.0711 18.75 18V15.7264C18.75 14.4682 19.6063 13.3715 20.8269 13.0664C21.937 12.7888 21.937 11.2112 20.8269 10.9336C19.6063 10.6285 18.75 9.53179 18.75 8.27364V6C18.75 3.92893 17.0711 2.25 15 2.25Z" fill="#363538"/>
</svg>
