<svg width="24" height="24" viewBox="0 0 24 24" fill="none" xmlns="http://www.w3.org/2000/svg">
<path d="M13 8C13.4142 8 13.75 7.66421 13.75 7.25C13.75 6.83579 13.4142 6.5 13 6.5H12C11.5858 6.5 11.25 6.83579 11.25 7.25C11.25 7.66421 11.5858 8 12 8H13Z" fill="#363538"/>
<path d="M15.25 7.25C15.25 6.83579 15.5858 6.5 16 6.5H17C17.4142 6.5 17.75 6.83579 17.75 7.25C17.75 7.66421 17.4142 8 17 8H16C15.5858 8 15.25 7.66421 15.25 7.25Z" fill="#363538"/>
<path fill-rule="evenodd" clip-rule="evenodd" d="M3 7.25C3 5.04086 4.79086 3.25 7 3.25H17C19.2091 3.25 21 5.04086 21 7.25C21 9.45914 19.2091 11.25 17 11.25H7C4.79086 11.25 3 9.45914 3 7.25ZM4.5 7.25C4.5 5.86929 5.61929 4.75 7 4.75H17C18.3807 4.75 19.5 5.86929 19.5 7.25C19.5 8.63071 18.3807 9.75 17 9.75H7C5.61929 9.75 4.5 8.63071 4.5 7.25Z" fill="#363538"/>
<path d="M13.75 16.75C13.75 17.1642 13.4142 17.5 13 17.5H12C11.5858 17.5 11.25 17.1642 11.25 16.75C11.25 16.3358 11.5858 16 12 16H13C13.4142 16 13.75 16.3358 13.75 16.75Z" fill="#363538"/>
<path d="M16 16C15.5858 16 15.25 16.3358 15.25 16.75C15.25 17.1642 15.5858 17.5 16 17.5H17C17.4142 17.5 17.75 17.1642 17.75 16.75C17.75 16.3358 17.4142 16 17 16H16Z" fill="#363538"/>
<path fill-rule="evenodd" clip-rule="evenodd" d="M3 16.75C3 14.5409 4.79086 12.75 7 12.75H17C19.2091 12.75 21 14.5409 21 16.75C21 18.9591 19.2091 20.75 17 20.75H7C4.79086 20.75 3 18.9591 3 16.75ZM4.5 16.75C4.5 15.3693 5.61929 14.25 7 14.25H17C18.3807 14.25 19.5 15.3693 19.5 16.75C19.5 18.1307 18.3807 19.25 17 19.25H7C5.61929 19.25 4.5 18.1307 4.5 16.75Z" fill="#363538"/>
</svg>
