<svg width="24" height="24" viewBox="0 0 24 24" fill="none" xmlns="http://www.w3.org/2000/svg">
<path fill-rule="evenodd" clip-rule="evenodd" d="M2.29091 7.22949C1.95968 5.94027 3.13254 4.76745 4.42177 5.09863L13.91 7.53906C14.9546 7.80778 15.746 8.66247 15.9335 9.72461L16.703 14.0938L17.954 14.7197C19.0223 15.2539 19.2537 16.6778 18.4091 17.5225L14.7147 21.2168C13.8701 22.0614 12.4462 21.8301 11.912 20.7617L11.286 19.5107L6.91688 18.7412C5.85478 18.5537 5.00005 17.7623 4.73134 16.7178L2.29091 7.22949ZM12.7011 18.9863L13.2528 20.0908C13.3291 20.2433 13.5325 20.2765 13.6532 20.1562L17.3485 16.4609C17.4688 16.3402 17.4356 16.1368 17.2831 16.0605L16.1786 15.5088L12.7011 18.9863ZM9.05165 10.7988C9.88792 10.3995 10.9196 10.5447 11.6122 11.2373C12.4909 12.116 12.4909 13.5412 11.6122 14.4199C10.7335 15.2986 9.30825 15.2986 8.42958 14.4199C7.73699 13.7273 7.5918 12.6956 7.9911 11.8594L4.00478 7.87305L6.18349 16.3438C6.30558 16.8186 6.69482 17.1784 7.17763 17.2637L11.5341 18.0322L15.2245 14.3418L14.4559 9.98535C14.3707 9.50252 14.0109 9.11331 13.536 8.99121L5.06532 6.8125L9.05165 10.7988ZM10.5517 12.2979C10.2588 12.005 9.78301 12.005 9.49013 12.2979C9.19729 12.5907 9.19729 13.0665 9.49013 13.3594C9.78301 13.6523 10.2588 13.6522 10.5517 13.3594C10.8445 13.0665 10.8445 12.5907 10.5517 12.2979Z" fill="#363538"/>
<path fill-rule="evenodd" clip-rule="evenodd" d="M19.9999 7.25C20.281 7.25 20.5384 7.40724 20.6669 7.65723L21.2352 8.76367L22.3427 9.33301C22.5927 9.46149 22.7499 9.71891 22.7499 10C22.7499 10.2811 22.5927 10.5385 22.3427 10.667L21.2352 11.2354L20.6669 12.3428C20.5384 12.5928 20.281 12.75 19.9999 12.75C19.7188 12.75 19.4614 12.5928 19.3329 12.3428L18.7636 11.2354L17.6571 10.667C17.4072 10.5385 17.2499 10.2811 17.2499 10C17.2499 9.71893 17.4072 9.4615 17.6571 9.33301L18.7636 8.76367L19.3329 7.65723L19.3866 7.56836C19.5258 7.37057 19.7538 7.25003 19.9999 7.25ZM19.9882 9.66406C19.9166 9.8033 19.8032 9.91671 19.664 9.98828L19.6405 10L19.664 10.0117L19.7636 10.0732C19.8574 10.1418 19.9345 10.2316 19.9882 10.3359L19.9999 10.3584L20.0116 10.3359C20.0832 10.1967 20.1966 10.0833 20.3358 10.0117L20.3583 10L20.3358 9.98828C20.1966 9.9167 20.0832 9.80329 20.0116 9.66406L19.9999 9.64062L19.9882 9.66406Z" fill="#363538"/>
<path d="M15.4999 2.25C15.781 2.25 16.0384 2.40724 16.1669 2.65723L16.5653 3.43359L17.3427 3.83301C17.5927 3.96149 17.7499 4.21891 17.7499 4.5C17.7499 4.78109 17.5927 5.03851 17.3427 5.16699L16.5653 5.56543L16.1669 6.34277C16.0384 6.59276 15.781 6.75 15.4999 6.75C15.2188 6.74997 14.9614 6.59276 14.8329 6.34277L14.4335 5.56543L13.6571 5.16699C13.4072 5.0385 13.2499 4.78107 13.2499 4.5C13.2499 4.21893 13.4072 3.9615 13.6571 3.83301L14.4335 3.43359L14.8329 2.65723L14.8866 2.56836C15.0258 2.37057 15.2538 2.25003 15.4999 2.25Z" fill="#363538"/>
</svg>
