<svg width="24" height="24" viewBox="0 0 24 24" fill="none" xmlns="http://www.w3.org/2000/svg">
<path fill-rule="evenodd" clip-rule="evenodd" d="M19.2306 6.24395C19.2306 7.19983 18.4557 7.97472 17.4998 7.97472C16.5439 7.97472 15.769 7.19983 15.769 6.24395C15.769 5.28808 16.5439 4.51318 17.4998 4.51318C18.4557 4.51318 19.2306 5.28808 19.2306 6.24395ZM17.7306 6.24395C17.7306 6.3714 17.6273 6.47472 17.4998 6.47472C17.3724 6.47472 17.269 6.3714 17.269 6.24395C17.269 6.1165 17.3724 6.01318 17.4998 6.01318C17.6273 6.01318 17.7306 6.1165 17.7306 6.24395Z" fill="#363538"/>
<path fill-rule="evenodd" clip-rule="evenodd" d="M20.1397 9.91496L19.3603 10.365C18.9298 10.6135 18.3794 10.466 18.1309 10.0355C17.8505 9.5499 17.1495 9.5499 16.8691 10.0355C16.6206 10.466 16.0702 10.6135 15.6397 10.365L14.8603 9.91496C14.4298 9.66643 14.2823 9.116 14.5309 8.68554C14.8113 8.1999 14.4608 7.59285 13.9 7.59285C13.4029 7.59285 13 7.1899 13 6.69285V5.79285C13 5.29579 13.4029 4.89285 13.9 4.89285C14.4608 4.89285 14.8112 4.28579 14.5309 3.80015C14.2823 3.36969 14.4298 2.81926 14.8603 2.57073L15.6397 2.12073C16.0702 1.8722 16.6206 2.01969 16.8691 2.45015C17.1495 2.93579 17.8505 2.9358 18.1309 2.45015C18.3794 2.01969 18.9298 1.8722 19.3603 2.12073L20.1397 2.57073C20.5702 2.81926 20.7177 3.36969 20.4691 3.80015C20.1888 4.28579 20.5392 4.89285 21.1 4.89285C21.5971 4.89285 22 5.29579 22 5.79285V6.69285C22 7.1899 21.5971 7.59285 21.1 7.59285C20.5392 7.59285 20.1887 8.19989 20.4691 8.68553C20.7177 9.116 20.5702 9.66643 20.1397 9.91496ZM14.7126 6.24285C15.6761 5.86866 16.264 4.85039 16.1063 3.82892C16.9121 4.4762 18.0879 4.47621 18.8937 3.82892C18.736 4.85039 19.3239 5.86866 20.2874 6.24285C19.3239 6.61703 18.736 7.63529 18.8937 8.65676C18.0879 8.00948 16.9121 8.00949 16.1063 8.65677C16.264 7.6353 15.6761 6.61704 14.7126 6.24285Z" fill="#363538"/>
<path d="M10 19.25C9.58579 19.25 9.25 19.5858 9.25 20C9.25 20.4142 9.58579 20.75 10 20.75H14C14.4142 20.75 14.75 20.4142 14.75 20C14.75 19.5858 14.4142 19.25 14 19.25H10Z" fill="#363538"/>
<path d="M12.7161 3.70468C12.8363 3.63642 12.9108 3.50625 12.9099 3.36808C12.9087 3.17302 12.7607 3 12.5656 3H6C3.79086 3 2 4.79086 2 7V15C2 17.2091 3.79086 19 6 19H18C20.2091 19 22 17.2091 22 15V11.6408C22 11.3434 21.1473 11.0653 20.8897 11.214C20.6486 11.3532 20.5 11.6105 20.5 11.889V15C20.5 16.3807 19.3807 17.5 18 17.5H6C4.61929 17.5 3.5 16.3807 3.5 15V7C3.5 5.61929 4.61929 4.5 6 4.5H11.2762C11.651 4.5 11.9878 4.29499 12.2616 4.0391C12.399 3.91069 12.5515 3.79823 12.7161 3.70468Z" fill="#363538"/>
</svg>
