<svg width="24" height="24" viewBox="0 0 24 24" fill="none" xmlns="http://www.w3.org/2000/svg">
<path d="M16 17.5C16.4142 17.5 16.75 17.1642 16.75 16.75C16.75 16.3358 16.4142 16 16 16C15.5858 16 15.25 16.3358 15.25 16.75C15.25 17.1642 15.5858 17.5 16 17.5Z" fill="#363538"/>
<path fill-rule="evenodd" clip-rule="evenodd" d="M18 4.5H6C4.61929 4.5 3.5 5.61929 3.5 7V15C3.5 16.3807 4.61929 17.5 6 17.5H10.2908C10.1033 17.0368 10 16.5304 10 16V9C10 6.79086 11.7909 5 14 5H18C20.2091 5 22 6.79086 22 9V16C22 18.2091 20.2091 20 18 20H14.75C14.75 20.4142 14.4142 20.75 14 20.75H10C9.58579 20.75 9.25 20.4142 9.25 20C9.25 19.5858 9.58579 19.25 10 19.25H11.6676C11.5564 19.17 11.4494 19.0845 11.3471 18.9938C11.3153 18.9979 11.2829 19 11.25 19H6C3.79086 19 2 17.2091 2 15V7C2 4.79086 3.79086 3 6 3H18C18.889 3 19.7102 3.28999 20.3743 3.78054C20.9629 4.21538 20.5493 5 19.8174 5C19.6116 5 19.4142 4.92789 19.2353 4.82601C18.8709 4.61852 18.4493 4.5 18 4.5ZM18 6.5H14C12.6193 6.5 11.5 7.61929 11.5 9V16C11.5 17.3807 12.6193 18.5 14 18.5H18C19.3807 18.5 20.5 17.3807 20.5 16V9C20.5 7.61929 19.3807 6.5 18 6.5Z" fill="#363538"/>
</svg>
