<svg width="24" height="24" viewBox="0 0 24 24" fill="none" xmlns="http://www.w3.org/2000/svg">
<path fill-rule="evenodd" clip-rule="evenodd" d="M9.87871 3.12135L3.12136 9.87871C1.94978 11.0503 1.94978 12.9498 3.12135 14.1214L9.87871 20.8787C11.0503 22.0503 12.9498 22.0503 14.1214 20.8787L20.8787 14.1214C22.0503 12.9498 22.0503 11.0503 20.8787 9.87871L14.1214 3.12136C12.9498 1.94978 11.0503 1.94978 9.87871 3.12135ZM10.9394 4.18201L4.18202 10.9394C3.59623 11.5252 3.59623 12.4749 4.18201 13.0607L10.9394 19.8181C11.5252 20.4038 12.4749 20.4038 13.0607 19.8181L19.8181 13.0607C20.4038 12.4749 20.4038 11.5252 19.8181 10.9394L13.0607 4.18202C12.4749 3.59623 11.5252 3.59623 10.9394 4.18201Z" fill="#363538"/>
</svg>
