<svg width="24" height="24" viewBox="0 0 24 24" fill="none" xmlns="http://www.w3.org/2000/svg">
<path fill-rule="evenodd" clip-rule="evenodd" d="M15 12.75C13.7574 12.75 12.75 13.7574 12.75 15V18.6C12.75 19.8427 13.7574 20.85 15 20.85H18.6C19.8426 20.85 20.85 19.8427 20.85 18.6V15C20.85 13.7574 19.8426 12.75 18.6 12.75H15ZM11.25 15C11.25 12.929 12.9289 11.25 15 11.25H18.6C20.6711 11.25 22.35 12.929 22.35 15V18.6C22.35 20.6711 20.6711 22.35 18.6 22.35H15C12.9289 22.35 11.25 20.6711 11.25 18.6V15Z" fill="#363538"/>
<path fill-rule="evenodd" clip-rule="evenodd" d="M14.8 16.0536C14.1096 16.0536 13.55 15.494 13.55 14.8036V14.7964C13.55 14.1061 14.1096 13.5464 14.8 13.5464C15.4904 13.5464 16.05 14.1061 16.05 14.7964V14.8036C16.05 15.494 15.4904 16.0536 14.8 16.0536Z" fill="#363538"/>
<path fill-rule="evenodd" clip-rule="evenodd" d="M18.8 20.0538C18.1096 20.0538 17.55 19.4942 17.55 18.8038V18.7966C17.55 18.1063 18.1096 17.5466 18.8 17.5466C19.4903 17.5466 20.05 18.1063 20.05 18.7966V18.8038C20.05 19.4942 19.4903 20.0538 18.8 20.0538Z" fill="#363538"/>
<path fill-rule="evenodd" clip-rule="evenodd" d="M10.3792 3.65168C9.50055 2.77301 8.07593 2.77301 7.19725 3.65169L4.65166 6.19727C3.77298 7.07595 3.77298 8.50057 4.65166 9.37925L7.19725 11.9248C8.07593 12.8035 9.50055 12.8035 10.3792 11.9248L12.9248 9.37925C13.8035 8.50057 13.8035 7.07595 12.9248 6.19727L10.3792 3.65168ZM6.13659 2.59103C7.60105 1.12656 9.97542 1.12656 11.4399 2.59102L13.9855 5.13661C15.4499 6.60108 15.4499 8.97544 13.9855 10.4399L11.4399 12.9855C9.97542 14.45 7.60106 14.45 6.13659 12.9855L3.591 10.4399C2.12654 8.97545 2.12654 6.60108 3.591 5.13661L6.13659 2.59103Z" fill="#363538"/>
<path fill-rule="evenodd" clip-rule="evenodd" d="M7.90167 5.8464C7.41351 5.35824 7.41351 4.56679 7.90167 4.07863L7.90676 4.07354C8.39491 3.58538 9.18637 3.58538 9.67452 4.07354C10.1627 4.56169 10.1627 5.35315 9.67453 5.84131L9.66943 5.8464C9.18128 6.33455 8.38982 6.33455 7.90167 5.8464Z" fill="#363538"/>
<path fill-rule="evenodd" clip-rule="evenodd" d="M5.07338 8.67469C4.58522 8.18653 4.58522 7.39507 5.07338 6.90692L5.07847 6.90183C5.56662 6.41367 6.35808 6.41367 6.84624 6.90183C7.33439 7.38998 7.33439 8.18144 6.84624 8.66959L6.84114 8.67469C6.35299 9.16284 5.56153 9.16284 5.07338 8.67469Z" fill="#363538"/>
<path fill-rule="evenodd" clip-rule="evenodd" d="M7.90167 11.5033C7.41351 11.0151 7.41351 10.2236 7.90167 9.73548L7.90676 9.73039C8.39491 9.24224 9.18637 9.24224 9.67452 9.73039C10.1627 10.2185 10.1627 11.01 9.67453 11.4982L9.66943 11.5033C9.18128 11.9914 8.38982 11.9914 7.90167 11.5033Z" fill="#363538"/>
<path fill-rule="evenodd" clip-rule="evenodd" d="M10.7302 8.67469C10.2421 8.18653 10.2421 7.39507 10.7302 6.90692L10.7353 6.90183C11.2235 6.41367 12.0149 6.41367 12.5031 6.90183C12.9912 7.38998 12.9912 8.18144 12.5031 8.66959L12.498 8.67469C12.0098 9.16284 11.2184 9.16284 10.7302 8.67469Z" fill="#363538"/>
</svg>
