<svg width="24" height="24" viewBox="0 0 24 24" fill="none" xmlns="http://www.w3.org/2000/svg">
<path d="M12.75 10.5C12.75 10.0858 12.4142 9.75 12 9.75C11.5858 9.75 11.25 10.0858 11.25 10.5V15.5C11.25 15.9142 11.5858 16.25 12 16.25C12.4142 16.25 12.75 15.9142 12.75 15.5V10.5Z" fill="#363538"/>
<path fill-rule="evenodd" clip-rule="evenodd" d="M9.63929 3.51798L3.26084 17.2003C2.22353 19.4255 4.46818 21.762 6.68245 20.762L10.9391 18.8397C11.6145 18.5347 12.3855 18.5347 13.0609 18.8397L17.3175 20.762C19.5318 21.762 21.7765 19.4255 20.7392 17.2003L14.3607 3.51798C13.4172 1.49401 10.5828 1.49401 9.63929 3.51798ZM4.62036 17.8341L10.9988 4.15177C11.4039 3.28275 12.5961 3.28274 13.0012 4.15177L19.3796 17.8341C19.8633 18.8716 18.8078 19.7892 17.9349 19.395L13.6783 17.4727C12.6104 16.9904 11.3896 16.9904 10.3217 17.4727L6.06509 19.395C5.19216 19.7892 4.13673 18.8716 4.62036 17.8341Z" fill="#363538"/>
</svg>
