<svg width="24" height="24" viewBox="0 0 24 24" fill="none" xmlns="http://www.w3.org/2000/svg">
<path fill-rule="evenodd" clip-rule="evenodd" d="M10.52 12.25C10.52 13.3545 9.70295 14.25 8.69503 14.25C7.68711 14.25 6.87003 13.3545 6.87003 12.25C6.87003 11.1454 7.68711 10.25 8.69503 10.25C9.70295 10.25 10.52 11.1454 10.52 12.25ZM9.02003 12.25C9.02003 12.4314 8.9534 12.5699 8.87747 12.6531C8.80362 12.734 8.73779 12.75 8.69503 12.75C8.65228 12.75 8.58645 12.734 8.51259 12.6531C8.43667 12.5699 8.37003 12.4314 8.37003 12.25C8.37003 12.0686 8.43667 11.93 8.51259 11.8468C8.58645 11.7659 8.65228 11.75 8.69503 11.75C8.73779 11.75 8.80362 11.7659 8.87747 11.8468C8.9534 11.93 9.02003 12.0686 9.02003 12.25Z" fill="#363538"/>
<path fill-rule="evenodd" clip-rule="evenodd" d="M15.285 14.25C16.2929 14.25 17.11 13.3545 17.11 12.25C17.11 11.1454 16.2929 10.25 15.285 10.25C14.2771 10.25 13.46 11.1454 13.46 12.25C13.46 13.3545 14.2771 14.25 15.285 14.25ZM15.61 12.25C15.61 12.4314 15.5434 12.5699 15.4674 12.6531C15.3936 12.734 15.3278 12.75 15.285 12.75C15.2422 12.75 15.1764 12.734 15.1026 12.6531C15.0266 12.5699 14.96 12.4314 14.96 12.25C14.96 12.0686 15.0266 11.93 15.1026 11.8468C15.1764 11.7659 15.2422 11.75 15.285 11.75C15.3278 11.75 15.3936 11.7659 15.4674 11.8468C15.5434 11.93 15.61 12.0686 15.61 12.25Z" fill="#363538"/>
<path fill-rule="evenodd" clip-rule="evenodd" d="M13.4921 3.28725C13.463 3.33832 13.4336 3.39107 13.4042 3.44501C12.4632 3.36682 11.5243 3.36642 10.5913 3.44428C10.5608 3.38922 10.5308 3.33587 10.5015 3.28474L10.4964 3.27593L10.4912 3.26719C10.1527 2.69545 9.51454 2.42726 8.91251 2.51759L8.89846 2.5197L8.88445 2.52207C7.32878 2.78571 5.84034 3.2472 4.45149 3.8742C4.1991 3.98694 3.96328 4.17316 3.79081 4.43164C0.994673 8.54641 0.210629 12.6133 0.589203 16.6068C0.633309 17.0801 0.883215 17.4629 1.19387 17.702L1.21181 17.7158L1.23016 17.729C3.08828 19.0717 4.89732 19.8913 6.66405 20.4316L6.67135 20.4339C7.31084 20.6259 7.96987 20.3885 8.35269 19.901L8.36468 19.8857L8.37628 19.8701C8.7034 19.4306 9.00536 18.9705 9.27787 18.4898C11.0818 18.8644 12.9199 18.8658 14.7171 18.4929C14.9891 18.9677 15.2863 19.4229 15.6042 19.8582C16.0032 20.4051 16.6954 20.6206 17.3174 20.4339L17.3227 20.4322C19.0985 19.8917 20.9081 19.0719 22.7664 17.729L22.7713 17.7255C23.1195 17.4717 23.3628 17.0728 23.407 16.6117C23.8595 11.9993 22.6408 7.97247 20.2114 4.44384C20.0276 4.16092 19.7772 3.97904 19.5453 3.87499C18.1578 3.24886 16.6702 2.7874 15.1148 2.52278C14.478 2.41282 13.8246 2.70632 13.4927 3.28631L13.4921 3.28725ZM14.86 4.00099C14.8339 3.9963 14.8079 4.00801 14.7945 4.03144C14.6187 4.33911 14.424 4.74048 14.2876 5.05596C12.7504 4.82951 11.221 4.82951 9.71531 5.05596C9.57891 4.73347 9.37711 4.33911 9.20052 4.03144C9.18711 4.0088 9.16111 3.99708 9.13508 4.00099C7.70663 4.24307 6.33967 4.66709 5.06415 5.24339C5.05311 5.24807 5.04364 5.25589 5.03736 5.26603C2.44453 9.07756 1.73425 12.7954 2.08269 16.4672C2.08427 16.4851 2.09451 16.5023 2.1087 16.5132C3.81938 17.7494 5.47646 18.4998 7.10277 18.9972C7.1288 19.0051 7.15638 18.9957 7.17294 18.9746C7.26783 18.8471 7.36017 18.7179 7.44987 18.587L7.45685 18.5767C7.5665 18.4164 7.67217 18.2534 7.77367 18.0879C7.84284 17.9751 7.91007 17.8611 7.97531 17.7459L7.97689 17.7431C8.05215 17.6101 8.12476 17.4756 8.1946 17.3394C8.21195 17.3058 8.19539 17.266 8.15993 17.2527C8.07185 17.2199 7.98446 17.1858 7.89773 17.1507C7.79594 17.1094 7.69506 17.0666 7.59503 17.0223L7.58516 17.0179C7.55333 17.0038 7.52159 16.9895 7.48994 16.9751L7.43794 16.9513C7.24089 16.8602 7.04714 16.7636 6.85636 16.6618C6.82793 16.6467 6.79955 16.6314 6.77126 16.616L6.76791 16.6142L6.72005 16.588L6.71865 16.5872C6.67891 16.5654 6.6393 16.5433 6.59981 16.521C6.5604 16.4984 6.55725 16.4429 6.5935 16.4164C6.63129 16.3885 6.66908 16.3603 6.70665 16.3317L6.71015 16.329C6.77563 16.2792 6.84042 16.2285 6.90333 16.1774C6.92145 16.1626 6.94669 16.1595 6.96798 16.1688C7.32977 16.3314 7.69487 16.4759 8.06248 16.6025C8.16323 16.6372 8.26416 16.6706 8.36527 16.7026C8.80054 16.8403 9.23955 16.9532 9.67996 17.0409C11.2181 17.3473 12.7798 17.3486 14.3102 17.0449C14.7513 16.9573 15.1899 16.8444 15.6245 16.7062L15.626 16.7057C15.7269 16.6736 15.8276 16.6402 15.9281 16.6053C16.2951 16.478 16.659 16.3326 17.0192 16.1688C17.0405 16.1587 17.0657 16.1618 17.0846 16.1767C17.1482 16.2282 17.2136 16.2798 17.28 16.3303C17.3181 16.3594 17.3567 16.3882 17.3952 16.4164C17.4315 16.4429 17.4291 16.4984 17.3897 16.521C17.3494 16.5442 17.3089 16.5671 17.2684 16.5897L17.2299 16.6111L17.2221 16.6153C17.1929 16.6314 17.1635 16.6474 17.1341 16.6632C16.9194 16.7787 16.7007 16.8863 16.4779 16.9863L16.4341 17.0059L16.4118 17.0157L16.3999 17.0209C16.2986 17.0654 16.1963 17.1084 16.0932 17.1498C16.0057 17.1849 15.9176 17.219 15.8288 17.252C15.7933 17.2652 15.7776 17.3058 15.7949 17.3394C15.8617 17.4667 15.9307 17.5927 16.0016 17.7174L16.0057 17.7246C16.0758 17.8476 16.1479 17.9692 16.2218 18.0894C16.3228 18.2537 16.4273 18.4155 16.5351 18.5748L16.5422 18.5853C16.6312 18.7165 16.7224 18.846 16.8158 18.9738C16.8316 18.9957 16.8599 19.0051 16.886 18.9972C18.5202 18.4998 20.1772 17.7494 21.8879 16.5132C21.9029 16.5023 21.9123 16.4859 21.9139 16.4679C22.3309 12.223 21.2154 8.53563 18.9569 5.26681C18.9514 5.25589 18.9419 5.24807 18.9309 5.24339C17.6562 4.66786 16.2892 4.24384 14.86 4.00099Z" fill="#363538"/>
</svg>
