<svg width="24" height="24" viewBox="0 0 24 24" fill="none" xmlns="http://www.w3.org/2000/svg">
<path fill-rule="evenodd" clip-rule="evenodd" d="M8.40704 15.9912L7.63332 17.9314C6.96899 19.5973 8.43649 21.3287 10.1887 20.9463C10.4936 20.8797 10.7739 20.7295 10.9981 20.5125L14.7874 16.8445L15.819 16.0455C16.4167 15.5826 16.8629 14.9665 17.1196 14.2751V15.8446C17.1196 16.3969 17.4859 16.8446 17.9378 16.8446H20.8014C21.2533 16.8446 21.6196 16.3969 21.6196 15.8446V5.84461C21.6196 5.29233 21.2533 4.84461 20.8014 4.84461H17.9378C17.4859 4.84461 17.1196 5.29233 17.1196 5.84461V7.20732C16.8098 6.37288 16.2251 5.65194 15.4404 5.17713L14.1928 4.42222C13.5682 4.04428 12.8521 3.84448 12.122 3.84448H7.46616C5.66944 3.84448 4.09318 5.04249 3.61217 6.77363L2.07411 12.3091C1.72 13.5835 2.6784 14.8445 4.0011 14.8445H7.62982C8.22141 14.8445 8.62617 15.4417 8.40704 15.9912ZM13.8689 15.6586C13.8253 15.6923 13.7837 15.7284 13.7441 15.7667L9.95484 19.4347C9.93104 19.4577 9.90128 19.4737 9.86892 19.4808C9.29136 19.6068 8.80764 19.0361 9.02662 18.487L9.80034 16.5468C10.4123 15.0122 9.28193 13.3445 7.62982 13.3445H4.0011C3.67043 13.3445 3.43083 13.0292 3.51935 12.7106L5.05741 7.1752C5.35805 6.09324 6.34321 5.34448 7.46616 5.34448H12.122C12.5783 5.34448 13.0259 5.46936 13.4163 5.70557L14.6639 6.46048C15.4123 6.91337 15.8696 7.72456 15.8696 8.59939V12.8831C15.8696 13.6564 15.5118 14.3861 14.9005 14.8596L13.8689 15.6586ZM18.6196 6.34461H20.1196V15.3446H18.6196V6.34461Z" fill="#363538"/>
</svg>
