<svg width="24" height="24" viewBox="0 0 24 24" fill="none" xmlns="http://www.w3.org/2000/svg">
<path d="M13.7764 10.418C14.0709 10.1777 14.5057 10.1951 14.7803 10.4697C15.0549 10.7443 15.0723 11.1791 14.832 11.4736L14.7803 11.5303L11.8037 14.5068C11.518 14.7921 11.0581 14.7998 10.7627 14.5244L9.23828 13.1035L9.18457 13.0488C8.93432 12.7629 8.93666 12.3279 9.20117 12.0439C9.46606 11.7599 9.90034 11.7271 10.2031 11.957L10.2617 12.0068L11.2549 12.9336L13.7197 10.4697L13.7764 10.418Z" fill="#363538"/>
<path fill-rule="evenodd" clip-rule="evenodd" d="M13.3428 2.25C14.6026 2.25 15.8114 2.7508 16.7021 3.6416L18.3584 5.29785L18.5215 5.46875C19.3104 6.34008 19.75 7.47625 19.75 8.65723V17C19.75 19.6234 17.6234 21.75 15 21.75H9C6.37665 21.75 4.25 19.6234 4.25 17V7C4.25 4.37665 6.37665 2.25 9 2.25H13.3428ZM9 3.75C7.20507 3.75 5.75 5.20507 5.75 7V17C5.75 18.7949 7.20507 20.25 9 20.25H15C16.7949 20.25 18.25 18.7949 18.25 17V8.65723C18.25 7.84915 17.949 7.07177 17.4092 6.47559L17.2979 6.3584L15.6416 4.70215C15.0321 4.09266 14.2047 3.75 13.3428 3.75H9Z" fill="#363538"/>
</svg>
