<svg width="24" height="24" viewBox="0 0 24 24" fill="none" xmlns="http://www.w3.org/2000/svg">
<path d="M12 8.25C12.4142 8.25 12.75 8.58579 12.75 9V13.1893L13.4697 12.4697C13.7626 12.1768 14.2374 12.1768 14.5303 12.4697C14.8232 12.7626 14.8232 13.2374 14.5303 13.5303L12.5303 15.5303C12.4584 15.6022 12.3755 15.6565 12.2871 15.6931C12.1987 15.7298 12.1017 15.75 12 15.75C11.8983 15.75 11.8013 15.7298 11.7129 15.6931C11.6245 15.6565 11.5416 15.6022 11.4697 15.5303L9.46967 13.5303C9.17678 13.2374 9.17678 12.7626 9.46967 12.4697C9.76256 12.1768 10.2374 12.1768 10.5303 12.4697L11.25 13.1893L11.25 9C11.25 8.58579 11.5858 8.25 12 8.25Z" fill="#363538"/>
<path fill-rule="evenodd" clip-rule="evenodd" d="M4.25 7C4.25 4.37665 6.37665 2.25 9 2.25H13.3431C14.6029 2.25 15.8111 2.75045 16.7019 3.64124L18.3588 5.2981C19.2496 6.1889 19.75 7.39708 19.75 8.65685V17C19.75 19.6234 17.6234 21.75 15 21.75H9C6.37665 21.75 4.25 19.6234 4.25 17V7ZM9 3.75C7.20507 3.75 5.75 5.20507 5.75 7V17C5.75 18.7949 7.20507 20.25 9 20.25H15C16.7949 20.25 18.25 18.7949 18.25 17V8.65685C18.25 7.7949 17.9076 6.96825 17.2981 6.35876L15.6412 4.7019C15.0317 4.09241 14.2051 3.75 13.3431 3.75H9Z" fill="#363538"/>
</svg>
