<svg width="24" height="24" viewBox="0 0 24 24" fill="none" xmlns="http://www.w3.org/2000/svg">
<path d="M11.25 17C11.25 17.4142 11.5858 17.75 12 17.75C12.4142 17.75 12.75 17.4142 12.75 17V9C12.75 8.58579 12.4142 8.25 12 8.25C11.5858 8.25 11.25 8.58579 11.25 9L11.25 17Z" fill="#363538"/>
<path d="M8 17.75C7.58579 17.75 7.25 17.4142 7.25 17L7.25 11.5C7.25 11.0858 7.58579 10.75 8 10.75C8.41421 10.75 8.75 11.0858 8.75 11.5L8.75 17C8.75 17.4142 8.41421 17.75 8 17.75Z" fill="#363538"/>
<path d="M15.25 17C15.25 17.4142 15.5858 17.75 16 17.75C16.4142 17.75 16.75 17.4142 16.75 17V14C16.75 13.5858 16.4142 13.25 16 13.25C15.5858 13.25 15.25 13.5858 15.25 14V17Z" fill="#363538"/>
<path fill-rule="evenodd" clip-rule="evenodd" d="M9 2.25C6.37665 2.25 4.25 4.37665 4.25 7V17C4.25 19.6234 6.37665 21.75 9 21.75H15C17.6234 21.75 19.75 19.6234 19.75 17V8.65685C19.75 7.39708 19.2496 6.1889 18.3588 5.2981L16.7019 3.64124C15.8111 2.75045 14.6029 2.25 13.3431 2.25H9ZM5.75 7C5.75 5.20507 7.20507 3.75 9 3.75H13.3431C14.2051 3.75 15.0317 4.09241 15.6412 4.7019L17.2981 6.35876C17.9076 6.96825 18.25 7.7949 18.25 8.65685V17C18.25 18.7949 16.7949 20.25 15 20.25H9C7.20507 20.25 5.75 18.7949 5.75 17V7Z" fill="#363538"/>
</svg>
