<svg width="24" height="24" viewBox="0 0 24 24" fill="none" xmlns="http://www.w3.org/2000/svg">
<path d="M4.25 7C4.25 4.37665 6.37665 2.25 9 2.25H13.3431C14.6029 2.25 15.8111 2.75045 16.7019 3.64124L18.3588 5.2981C19.2496 6.1889 19.75 7.39708 19.75 8.65685V12C19.75 12.4142 19.4142 12.75 19 12.75C18.5858 12.75 18.25 12.4142 18.25 12V8.65685C18.25 7.7949 17.9076 6.96825 17.2981 6.35876L15.6412 4.7019C15.0317 4.09241 14.2051 3.75 13.3431 3.75H9C7.20507 3.75 5.75 5.20507 5.75 7V17C5.75 18.7949 7.20507 20.25 9 20.25H12C12.4142 20.25 12.75 20.5858 12.75 21C12.75 21.4142 12.4142 21.75 12 21.75H9C6.37665 21.75 4.25 19.6234 4.25 17V7Z" fill="#363538"/>
<path d="M7.25 13C7.25 12.5858 7.58579 12.25 8 12.25H14C14.4142 12.25 14.75 12.5858 14.75 13C14.75 13.4142 14.4142 13.75 14 13.75H8C7.58579 13.75 7.25 13.4142 7.25 13Z" fill="#363538"/>
<path d="M8 8.25C7.58579 8.25 7.25 8.58579 7.25 9C7.25 9.41421 7.58579 9.75 8 9.75H12C12.4142 9.75 12.75 9.41421 12.75 9C12.75 8.58579 12.4142 8.25 12 8.25H8Z" fill="#363538"/>
<path d="M7.25 17C7.25 16.5858 7.58579 16.25 8 16.25H11C11.4142 16.25 11.75 16.5858 11.75 17C11.75 17.4142 11.4142 17.75 11 17.75H8C7.58579 17.75 7.25 17.4142 7.25 17Z" fill="#363538"/>
<path fill-rule="evenodd" clip-rule="evenodd" d="M17.5685 14.2462C17.7704 13.9179 18.2296 13.9179 18.4315 14.2462L19.4654 15.9277C19.5348 16.0406 19.6424 16.1222 19.7666 16.1563L21.6171 16.6639C21.9783 16.7629 22.1202 17.2192 21.8838 17.5211L20.6723 19.0679C20.5909 19.1718 20.5499 19.3038 20.5572 19.4378L20.667 21.433C20.6884 21.8225 20.3168 22.1045 19.9688 21.9629L18.1862 21.2373C18.0664 21.1886 17.9336 21.1886 17.8138 21.2373L16.0312 21.9629C15.6832 22.1045 15.3116 21.8225 15.333 21.433L15.4428 19.4378C15.4501 19.3038 15.4091 19.1718 15.3277 19.0679L14.1162 17.5211C13.8798 17.2192 14.0217 16.7629 14.3829 16.6639L16.2334 16.1563C16.3576 16.1222 16.4652 16.0406 16.5346 15.9277L17.5685 14.2462ZM17.8124 16.7134L18 16.4082L18.1876 16.7134C18.45 17.14 18.8672 17.465 19.3699 17.6029L19.8181 17.7258L19.4914 18.143C19.1817 18.5385 19.0326 19.0299 19.0595 19.5202L19.085 19.9837L18.7516 19.848C18.2694 19.6517 17.7306 19.6517 17.2484 19.848L16.915 19.9837L16.9405 19.5202C16.9674 19.0299 16.8183 18.5385 16.5086 18.143L16.1819 17.7258L16.6301 17.6029C17.1328 17.465 17.55 17.14 17.8124 16.7134Z" fill="#363538"/>
</svg>
