<svg width="24" height="24" viewBox="0 0 24 24" fill="none" xmlns="http://www.w3.org/2000/svg">
<path d="M10 12.25C8.48122 12.25 7.25 13.4812 7.25 15C7.25 16.5188 8.48122 17.75 10 17.75H11C11.4142 17.75 11.75 17.4142 11.75 17C11.75 16.5858 11.4142 16.25 11 16.25H10C9.30964 16.25 8.75 15.6904 8.75 15C8.75 14.3096 9.30964 13.75 10 13.75H11C11.4142 13.75 11.75 13.4142 11.75 13C11.75 12.5858 11.4142 12.25 11 12.25H10Z" fill="#363538"/>
<path d="M12.25 13C12.25 12.5858 12.5858 12.25 13 12.25H14C15.5188 12.25 16.75 13.4812 16.75 15C16.75 16.5188 15.5188 17.75 14 17.75H13C12.5858 17.75 12.25 17.4142 12.25 17C12.25 16.5858 12.5858 16.25 13 16.25H14C14.6904 16.25 15.25 15.6904 15.25 15C15.25 14.3096 14.6904 13.75 14 13.75H13C12.5858 13.75 12.25 13.4142 12.25 13Z" fill="#363538"/>
<path d="M11 14.25C10.5858 14.25 10.25 14.5858 10.25 15C10.25 15.4142 10.5858 15.75 11 15.75H13C13.4142 15.75 13.75 15.4142 13.75 15C13.75 14.5858 13.4142 14.25 13 14.25H11Z" fill="#363538"/>
<path fill-rule="evenodd" clip-rule="evenodd" d="M9 2.25C6.37665 2.25 4.25 4.37665 4.25 7V17C4.25 19.6234 6.37665 21.75 9 21.75H15C17.6234 21.75 19.75 19.6234 19.75 17V8.65685C19.75 7.39708 19.2496 6.1889 18.3588 5.2981L16.7019 3.64124C15.8111 2.75045 14.6029 2.25 13.3431 2.25H9ZM5.75 7C5.75 5.20507 7.20507 3.75 9 3.75H13.3431C14.2051 3.75 15.0317 4.09241 15.6412 4.7019L17.2981 6.35876C17.9076 6.96825 18.25 7.7949 18.25 8.65685V17C18.25 18.7949 16.7949 20.25 15 20.25H9C7.20507 20.25 5.75 18.7949 5.75 17V7Z" fill="#363538"/>
</svg>
