<svg width="24" height="24" viewBox="0 0 24 24" fill="none" xmlns="http://www.w3.org/2000/svg">
<path d="M11.1708 12.6646C11.3561 13.0351 11.2059 13.4856 10.8354 13.6708L8.62426 14.7764C8.44 14.8685 8.44 15.1315 8.62426 15.2236L10.8354 16.3292C11.2059 16.5144 11.3561 16.9649 11.1708 17.3354C10.9856 17.7059 10.5351 17.8561 10.1646 17.6708L7.95344 16.5652C6.66361 15.9203 6.66361 14.0797 7.95344 13.4348L10.1646 12.3292C10.5351 12.1439 10.9856 12.2941 11.1708 12.6646Z" fill="#363538"/>
<path d="M13.1646 13.6708C12.7941 13.4856 12.6439 13.0351 12.8292 12.6646C13.0144 12.2941 13.4649 12.1439 13.8354 12.3292L16.0466 13.4348C17.3364 14.0797 17.3364 15.9203 16.0466 16.5652L13.8354 17.6708C13.4649 17.8561 13.0144 17.7059 12.8292 17.3354C12.6439 16.9649 12.7941 16.5144 13.1646 16.3292L15.3757 15.2236C15.56 15.1315 15.56 14.8685 15.3757 14.7764L13.1646 13.6708Z" fill="#363538"/>
<path fill-rule="evenodd" clip-rule="evenodd" d="M4.25 7C4.25 4.37665 6.37665 2.25 9 2.25H13.3431C14.6029 2.25 15.8111 2.75045 16.7019 3.64124L18.3588 5.2981C19.2496 6.1889 19.75 7.39708 19.75 8.65685V17C19.75 19.6234 17.6234 21.75 15 21.75H9C6.37665 21.75 4.25 19.6234 4.25 17V7ZM9 3.75C7.20507 3.75 5.75 5.20507 5.75 7V17C5.75 18.7949 7.20507 20.25 9 20.25H15C16.7949 20.25 18.25 18.7949 18.25 17V8.65685C18.25 7.7949 17.9076 6.96825 17.2981 6.35876L15.6412 4.7019C15.0317 4.09241 14.2051 3.75 13.3431 3.75H9Z" fill="#363538"/>
</svg>
