<svg width="24" height="24" viewBox="0 0 24 24" fill="none" xmlns="http://www.w3.org/2000/svg">
<path d="M11.25 15C11.25 15.4142 11.5858 15.75 12 15.75C12.4142 15.75 12.75 15.4142 12.75 15V10.8107L13.4697 11.5303C13.7626 11.8232 14.2374 11.8232 14.5303 11.5303C14.8232 11.2374 14.8232 10.7626 14.5303 10.4697L12.5303 8.46967C12.4584 8.39776 12.3755 8.34351 12.2871 8.30691C12.1987 8.27024 12.1017 8.25 12 8.25C11.8983 8.25 11.8013 8.27024 11.7129 8.30691C11.6245 8.34351 11.5416 8.39776 11.4697 8.46967L9.46967 10.4697C9.17678 10.7626 9.17678 11.2374 9.46967 11.5303C9.76256 11.8232 10.2374 11.8232 10.5303 11.5303L11.25 10.8107L11.25 15Z" fill="#363538"/>
<path fill-rule="evenodd" clip-rule="evenodd" d="M4.25 7C4.25 4.37665 6.37665 2.25 9 2.25H13.3431C14.6029 2.25 15.8111 2.75045 16.7019 3.64124L18.3588 5.2981C19.2496 6.1889 19.75 7.39708 19.75 8.65685V17C19.75 19.6234 17.6234 21.75 15 21.75H9C6.37665 21.75 4.25 19.6234 4.25 17V7ZM9 3.75C7.20507 3.75 5.75 5.20507 5.75 7V17C5.75 18.7949 7.20507 20.25 9 20.25H15C16.7949 20.25 18.25 18.7949 18.25 17V8.65685C18.25 7.7949 17.9076 6.96825 17.2981 6.35876L15.6412 4.7019C15.0317 4.09241 14.2051 3.75 13.3431 3.75H9Z" fill="#363538"/>
</svg>
