<svg width="24" height="24" viewBox="0 0 24 24" fill="none" xmlns="http://www.w3.org/2000/svg">
<path fill-rule="evenodd" clip-rule="evenodd" d="M9.5 11.5V11.6808C10.502 11.9081 11.25 12.8042 11.25 13.875C11.25 14.2892 10.9142 14.625 10.5 14.625C10.4497 14.625 10.4005 14.62 10.3529 14.6106C10.8947 14.9823 11.25 15.6059 11.25 16.3125C11.25 17.3454 10.4908 18.2009 9.5 18.3515V18.5C9.5 18.9142 9.16421 19.25 8.75 19.25C8.33579 19.25 8 18.9142 8 18.5V18.3192C6.99801 18.0919 6.25 17.1958 6.25 16.125C6.25 15.7108 6.58579 15.375 7 15.375C7.05034 15.375 7.09952 15.38 7.14709 15.3894C6.60535 15.0177 6.25 14.3941 6.25 13.6875C6.25 12.6546 7.00921 11.7991 8 11.6485V11.5C8 11.0858 8.33579 10.75 8.75 10.75C9.16421 10.75 9.5 11.0858 9.5 11.5ZM7.75 13.6875C7.75 13.4925 7.84925 13.3206 8 13.2197V14.1553C7.84925 14.0544 7.75 13.8825 7.75 13.6875ZM9.5 13.316V14.2735C9.66253 14.2982 9.81883 14.3419 9.96657 14.4022C9.83267 14.2667 9.75 14.0805 9.75 13.875C9.75 13.6529 9.65344 13.4533 9.5 13.316ZM7.53343 15.5978C7.68117 15.6581 7.83747 15.7018 8 15.7265V16.684C7.84656 16.5467 7.75 16.3471 7.75 16.125C7.75 15.9195 7.66733 15.7333 7.53343 15.5978ZM9.75 16.3125C9.75 16.1175 9.65075 15.9456 9.5 15.8447V16.7803C9.65075 16.6794 9.75 16.5075 9.75 16.3125Z" fill="#363538"/>
<path fill-rule="evenodd" clip-rule="evenodd" d="M14.9171 15.9999C14.9308 16 14.9445 16 14.9583 16C18.295 16 21 13.3137 21 10C21 6.68629 18.295 4 14.9583 4C11.9646 4 9.47948 6.16229 9.00009 9C9.00013 9 9.00006 9 9.00009 9C5.68639 9 3 11.6863 3 15C3 18.3137 5.68629 21 9 21C11.973 21 14.441 18.8376 14.9171 15.9999ZM14.9795 14.5C17.4723 14.4886 19.4896 12.4783 19.4896 10C19.4896 7.51472 17.4608 5.5 14.9583 5.5C12.7345 5.5 10.8848 7.09086 10.5004 9.18912C12.9322 9.81518 14.7672 11.9275 14.9795 14.5ZM13.5 15C13.5 17.4853 11.4853 19.5 9 19.5C6.51472 19.5 4.5 17.4853 4.5 15C4.5 12.5147 6.51472 10.5 9 10.5C11.4853 10.5 13.5 12.5147 13.5 15Z" fill="#363538"/>
</svg>
