<svg width="24" height="24" viewBox="0 0 24 24" fill="none" xmlns="http://www.w3.org/2000/svg">
<path fill-rule="evenodd" clip-rule="evenodd" d="M12.375 7.33571V6.75C12.375 6.33579 12.0392 6 11.625 6C11.2108 6 10.875 6.33579 10.875 6.75V7.31409C9.41689 7.3635 8.25 8.5611 8.25 10.0312C8.25 11.5014 9.41689 12.699 10.875 12.7484V15.1402C10.228 14.9737 9.75 14.3864 9.75 13.6875C9.75 13.2733 9.41421 12.9375 9 12.9375C8.58579 12.9375 8.25 13.2733 8.25 13.6875C8.25 15.2174 9.39513 16.4798 10.875 16.6643V17.25C10.875 17.6642 11.2108 18 11.625 18C12.0392 18 12.375 17.6642 12.375 17.25V16.6859C13.8331 16.6365 15 15.4389 15 13.9688C15 12.4986 13.8331 11.301 12.375 11.2516V8.85976C13.022 9.02627 13.5 9.61356 13.5 10.3125C13.5 10.7267 13.8358 11.0625 14.25 11.0625C14.6642 11.0625 15 10.7267 15 10.3125C15 8.78264 13.8549 7.52025 12.375 7.33571ZM10.875 8.81605C10.2457 8.86392 9.75 9.3897 9.75 10.0312C9.75 10.6728 10.2457 11.1986 10.875 11.2464V8.81605ZM12.375 12.7536V15.1839C13.0043 15.1361 13.5 14.6103 13.5 13.9688C13.5 13.3272 13.0043 12.8014 12.375 12.7536Z" fill="#363538"/>
<path fill-rule="evenodd" clip-rule="evenodd" d="M12 21C16.9706 21 21 16.9706 21 12C21 7.02944 16.9706 3 12 3C7.02944 3 3 7.02944 3 12C3 16.9706 7.02944 21 12 21ZM12 19.5C16.1421 19.5 19.5 16.1421 19.5 12C19.5 7.85786 16.1421 4.5 12 4.5C7.85786 4.5 4.5 7.85786 4.5 12C4.5 16.1421 7.85786 19.5 12 19.5Z" fill="#363538"/>
</svg>
