<svg width="24" height="24" viewBox="0 0 24 24" fill="none" xmlns="http://www.w3.org/2000/svg">
<path d="M12 5.75461C11.3096 5.75461 10.75 5.19496 10.75 4.50461V4.49561C10.75 3.80525 11.3096 3.24561 12 3.24561C12.6904 3.24561 13.25 3.80525 13.25 4.49561V4.50461C13.25 5.19496 12.6904 5.75461 12 5.75461Z" fill="#363538"/>
<path d="M12 13.2546C11.3096 13.2546 10.75 12.695 10.75 12.0046V11.9956C10.75 11.3052 11.3096 10.7456 12 10.7456C12.6904 10.7456 13.25 11.3052 13.25 11.9956V12.0046C13.25 12.695 12.6904 13.2546 12 13.2546Z" fill="#363538"/>
<path d="M10.75 19.5046C10.75 20.195 11.3096 20.7546 12 20.7546C12.6904 20.7546 13.25 20.195 13.25 19.5046V19.4956C13.25 18.8052 12.6904 18.2456 12 18.2456C11.3096 18.2456 10.75 18.8052 10.75 19.4956V19.5046Z" fill="#363538"/>
</svg>
