<svg width="24" height="24" viewBox="0 0 24 24" fill="none" xmlns="http://www.w3.org/2000/svg">
<path d="M3.81079 11.25C3.12044 11.25 2.56079 11.8096 2.56079 12.5C2.56079 13.1904 3.12044 13.75 3.81079 13.75H3.82552C4.51587 13.75 5.07552 13.1904 5.07552 12.5C5.07552 11.8096 4.51587 11.25 3.82552 11.25H3.81079Z" fill="#363538"/>
<path d="M10.6971 12.5C10.6971 11.8096 11.2568 11.25 11.9471 11.25H11.9619C12.6522 11.25 13.2119 11.8096 13.2119 12.5C13.2119 13.1904 12.6522 13.75 11.9619 13.75H11.9471C11.2568 13.75 10.6971 13.1904 10.6971 12.5Z" fill="#363538"/>
<path d="M18.8335 12.5C18.8335 11.8096 19.3931 11.25 20.0835 11.25H20.0982C20.7886 11.25 21.3482 11.8096 21.3482 12.5C21.3482 13.1904 20.7886 13.75 20.0982 13.75H20.0835C19.3931 13.75 18.8335 13.1904 18.8335 12.5Z" fill="#363538"/>
</svg>
