<svg width="24" height="24" viewBox="0 0 24 24" fill="none" xmlns="http://www.w3.org/2000/svg">
<path d="M5.2455 12.0002C5.2455 11.3099 5.80514 10.7502 6.4955 10.7502H6.5045C7.19486 10.7502 7.7545 11.3099 7.7545 12.0002C7.7545 12.6906 7.19486 13.2502 6.5045 13.2502H6.4955C5.80514 13.2502 5.2455 12.6906 5.2455 12.0002Z" fill="#363538"/>
<path d="M11.9955 10.7502C11.3051 10.7502 10.7455 11.3099 10.7455 12.0002C10.7455 12.6906 11.3051 13.2502 11.9955 13.2502H12.0045C12.6949 13.2502 13.2545 12.6906 13.2545 12.0002C13.2545 11.3099 12.6949 10.7502 12.0045 10.7502H11.9955Z" fill="#363538"/>
<path d="M17.4955 10.7502C16.8051 10.7502 16.2455 11.3099 16.2455 12.0002C16.2455 12.6906 16.8051 13.2502 17.4955 13.2502H17.5045C18.1949 13.2502 18.7545 12.6906 18.7545 12.0002C18.7545 11.3099 18.1949 10.7502 17.5045 10.7502H17.4955Z" fill="#363538"/>
<path fill-rule="evenodd" clip-rule="evenodd" d="M22 12.0002C22 17.5231 17.5228 22.0002 12 22.0002C6.47715 22.0002 2 17.5231 2 12.0002C2 6.4774 6.47715 2.00024 12 2.00024C17.5228 2.00024 22 6.4774 22 12.0002ZM20.5 12.0002C20.5 16.6947 16.6944 20.5002 12 20.5002C7.30558 20.5002 3.5 16.6947 3.5 12.0002C3.5 7.30582 7.30558 3.50024 12 3.50024C16.6944 3.50024 20.5 7.30582 20.5 12.0002Z" fill="#363538"/>
</svg>
