<svg width="24" height="24" viewBox="0 0 24 24" fill="none" xmlns="http://www.w3.org/2000/svg">
<path fill-rule="evenodd" clip-rule="evenodd" d="M14 2.75049C14.4141 2.75056 14.75 3.08632 14.75 3.50049V4.46436C14.8805 4.53618 15.0068 4.62563 15.124 4.73584C15.4202 5.01437 15.6188 5.38386 15.7275 5.81885C16.0598 7.14854 15.3839 8.40313 14.9014 9.24756C14.6304 9.72179 14.4159 10.0678 14.2812 10.3774C14.1994 10.5657 14.186 10.6567 14.1836 10.687L14.1846 10.688C14.1953 10.7043 14.2111 10.7258 14.2324 10.7534C14.2761 10.8101 14.3356 10.8802 14.4131 10.9663C14.5716 11.1424 14.7685 11.3447 15.0117 11.6001C15.485 12.0971 16.0817 12.7409 16.6162 13.5093C17.6566 15.0048 18.5101 17.0456 17.7871 19.4985L17.7119 19.7378C17.3211 20.9103 16.2125 21.4103 15.2344 21.3999C14.6277 21.3933 13.9708 21.1892 13.4717 20.7593C13.0885 21.0556 12.5885 21.2505 12 21.2505C11.4111 21.2505 10.9106 21.0559 10.5273 20.7593C10.0284 21.1888 9.37286 21.3932 8.7666 21.3999C7.8495 21.4098 6.81761 20.9708 6.37011 19.9497L6.28808 19.7378C5.43493 17.1781 6.31073 15.0532 7.38476 13.5093C7.91925 12.7411 8.51504 12.097 8.98828 11.6001C9.23147 11.3447 9.42836 11.1424 9.58691 10.9663C9.66442 10.8802 9.72395 10.8101 9.76757 10.7534C9.78887 10.7258 9.80469 10.7043 9.81543 10.688C9.81304 10.6576 9.80052 10.5655 9.71875 10.3774C9.58411 10.0678 9.3696 9.72177 9.09863 9.24756C8.61612 8.40313 7.94022 7.14856 8.27246 5.81885L8.31738 5.65869C8.43228 5.29273 8.61679 4.9796 8.87597 4.73584C8.9932 4.62566 9.11952 4.53617 9.25 4.46436V3.50049C9.25 3.0863 9.5858 2.75051 10 2.75049C10.3881 2.75056 10.7075 3.04541 10.7461 3.42334L10.75 3.50049V4.24951C11.1209 4.30571 11.4698 4.41907 11.7549 4.53857L11.875 4.57568C11.9984 4.6 12.1289 4.58726 12.2451 4.53857L12.4434 4.46045C12.6856 4.37095 12.9611 4.29327 13.25 4.24951V3.50049C13.25 3.08627 13.5858 2.75049 14 2.75049ZM10.7021 11.9702C10.5249 12.1671 10.2996 12.3986 10.0742 12.6353C9.61014 13.1225 9.08057 13.6978 8.61523 14.3667C7.68944 15.6977 7.06526 17.3231 7.71191 19.2632L7.77246 19.4038C7.94203 19.7139 8.29836 19.9048 8.75 19.8999C9.27466 19.8942 9.66688 19.6267 9.78808 19.2632L9.83496 19.1538C9.96254 18.9089 10.2174 18.7505 10.5 18.7505C10.8228 18.7506 11.1098 18.957 11.2119 19.2632C11.2808 19.4699 11.5363 19.7505 12 19.7505C12.4636 19.7504 12.7192 19.4699 12.7881 19.2632L12.835 19.1538C12.9625 18.9089 13.2174 18.7505 13.5 18.7505C13.8228 18.7505 14.1098 18.957 14.2119 19.2632C14.3331 19.6267 14.7253 19.8942 15.25 19.8999C15.7663 19.9054 16.1585 19.655 16.2891 19.2632L16.3955 18.9028C16.8561 17.121 16.2526 15.6144 15.3848 14.3667C14.9194 13.6978 14.3899 13.1226 13.9258 12.6353C13.7004 12.3986 13.4751 12.1671 13.2978 11.9702C13.2365 11.9021 13.1731 11.8275 13.1103 11.7505H10.8896C10.8268 11.8275 10.7634 11.9021 10.7021 11.9702ZM13.8691 5.72607C13.6435 5.68623 13.3228 5.73704 12.9756 5.86377L12.8252 5.92236C12.3649 6.11526 11.8491 6.13933 11.375 5.99463L11.1748 5.92236C10.8216 5.77432 10.4848 5.70021 10.2334 5.71436L10.1309 5.72607C10.0214 5.74542 9.9525 5.78241 9.90332 5.82861C9.86621 5.86357 9.81561 5.92685 9.7705 6.04443L9.72754 6.18213C9.56 6.85225 9.88392 7.59786 10.4014 8.50342C10.6303 8.90414 10.9159 9.37076 11.0937 9.77979C11.152 9.91384 11.2131 10.0743 11.2568 10.2505H12.7432C12.7869 10.0743 12.848 9.91384 12.9062 9.77979C13.0841 9.37076 13.3697 8.90413 13.5986 8.50342C14.0836 7.65459 14.3983 6.94637 14.2978 6.30908L14.2725 6.18213C14.22 5.97245 14.1462 5.87531 14.0967 5.82861C14.0599 5.794 14.0119 5.76442 13.9443 5.74365L13.8691 5.72607Z" fill="#363538"/>
</svg>
