<svg width="24" height="24" viewBox="0 0 24 24" fill="none" xmlns="http://www.w3.org/2000/svg">
<path fill-rule="evenodd" clip-rule="evenodd" d="M8.12576 3.87424C5.60069 5.08032 3.7258 7.42872 3.16991 10.2506C3.12138 10.497 3.08291 10.7469 3.05493 11C3.01863 11.3283 3 11.662 3 12C3 14.2826 3.84975 16.3667 5.25017 17.9533C5.41713 18.1424 5.59191 18.3245 5.77402 18.499C7.39065 20.0482 9.58417 21 12 21C13.437 21 14.7953 20.6632 16.0004 20.0643C16.2553 19.9376 16.5033 19.7992 16.7438 19.6497C19.0885 18.1927 20.714 15.6877 20.9659 12.7894C20.9659 12.7893 20.9659 12.7892 20.9659 12.7892C20.9903 12.5086 21.0011 12.2277 20.9988 11.9475C20.9822 9.94253 20.2905 7.97288 19.0445 6.39987C18.8734 6.18379 18.6918 5.9752 18.5 5.77503C18.4999 5.77495 18.4998 5.77487 18.4998 5.77478C16.8615 4.06476 14.5551 3 12 3C11.105 3 10.2405 3.13065 9.42455 3.3739C8.97595 3.50764 8.54202 3.67542 8.12576 3.87424ZM8.99268 5.12727C6.87597 6.05481 5.26983 7.93155 4.71273 10.2191C5.07531 10.2045 5.48307 10.1835 5.92097 10.1531C7.57958 10.0382 9.62279 9.7929 11.2794 9.28317C11.4691 9.22482 11.6533 9.16633 11.8322 9.10778C11.003 7.6884 10.0476 6.33753 8.99268 5.12727ZM13.2684 8.5951C12.474 7.2054 11.5605 5.86675 10.5469 4.64065C11.017 4.54837 11.5029 4.5 12 4.5C13.952 4.5 15.7281 5.24406 17.0635 6.46718C16.4463 7.02758 15.3133 7.79697 13.2684 8.5951ZM12.5659 10.4447C12.2954 10.5358 12.0137 10.6266 11.7206 10.7168C9.89813 11.2776 7.7188 11.5322 6.02464 11.6495C5.45952 11.6887 4.94307 11.7129 4.50485 11.7278C4.50163 11.8181 4.5 11.9089 4.5 12C4.5 13.821 5.14901 15.4905 6.22833 16.7897C6.55608 16.4199 6.94915 15.9945 7.38972 15.5518C8.67624 14.2588 10.4571 12.7252 12.2468 12.0832C12.5742 11.9658 12.8935 11.8613 13.2045 11.7688C13.0045 11.3251 12.7915 10.883 12.5659 10.4447ZM14.6834 11.4028C14.4658 10.9075 14.2326 10.4141 13.9848 9.92497C16.0433 9.10386 17.297 8.27858 18.062 7.58656C18.8703 8.70307 19.3606 10.0349 19.4738 11.408C19.4613 11.405 19.4487 11.4021 19.4361 11.3991C18.309 11.1358 16.7178 11.0037 14.6834 11.4028ZM13.7869 13.1614C13.4548 13.2564 13.1102 13.3671 12.7532 13.4951C11.2998 14.0165 9.71823 15.3382 8.45302 16.6098C8.012 17.053 7.62027 17.4789 7.29852 17.8438C8.58466 18.8798 10.2199 19.5 12 19.5C13.1398 19.5 14.2204 19.2456 15.188 18.7906C15.0246 17.0522 14.5428 15.1192 13.7869 13.1614ZM16.5979 17.9257C16.3755 16.2894 15.9159 14.5526 15.2626 12.8212C16.942 12.5311 18.2213 12.6557 19.0949 12.8598C19.2179 12.8885 19.3331 12.9189 19.4406 12.95C19.1858 14.9682 18.1283 16.7367 16.5979 17.9257Z" fill="#363538"/>
</svg>
