<svg width="24" height="24" viewBox="0 0 24 24" fill="none" xmlns="http://www.w3.org/2000/svg">
<path d="M21.8262 18.7539C22.2045 18.7921 22.5 19.1115 22.5 19.5C22.5 19.8883 22.2045 20.2078 21.8262 20.246L21.75 20.25H2.25C1.8358 20.25 1.50003 19.9141 1.5 19.5C1.5 19.0857 1.83579 18.75 2.25 18.75H21.75L21.8262 18.7539Z" fill="#363538"/>
<path d="M21.8262 11.7539C22.2045 11.7921 22.5 12.1115 22.5 12.5C22.5 12.8883 22.2045 13.2078 21.8262 13.246L21.75 13.25H2.25C1.8358 13.25 1.50003 12.9141 1.5 12.5C1.5 12.0857 1.83579 11.75 2.25 11.75H21.75L21.8262 11.7539Z" fill="#363538"/>
<path fill-rule="evenodd" clip-rule="evenodd" d="M4.34277 3.23042C4.75572 2.19533 6.24428 2.19532 6.65723 3.23042L6.69531 3.33686L7.77637 6.86128L8.55273 9.26948L8.57227 9.3437C8.65191 9.71544 8.43883 10.0945 8.06934 10.2138C7.69974 10.3329 7.3049 10.1499 7.15234 9.80171L7.125 9.73042L6.51562 7.84077H4.48438L3.875 9.73042C3.74778 10.1244 3.32477 10.3408 2.93066 10.2138C2.53667 10.0866 2.32028 9.66359 2.44727 9.26948L3.22363 6.86128L4.30469 3.33686L4.34277 3.23042ZM4.95215 6.34077H6.04785L5.5 4.55561L4.95215 6.34077Z" fill="#363538"/>
<path d="M21.8271 4.75386C22.2051 4.79248 22.5 5.11179 22.5 5.49995C22.5 5.88809 22.2051 6.20742 21.8271 6.24604L21.75 6.24995H12.75C12.3358 6.24995 12 5.91414 12 5.49995C12 5.08574 12.3358 4.74995 12.75 4.74995H21.75L21.8271 4.75386Z" fill="#363538"/>
</svg>
