<svg width="24" height="24" viewBox="0 0 24 24" fill="none" xmlns="http://www.w3.org/2000/svg">
<path fill-rule="evenodd" clip-rule="evenodd" d="M7.04577 2.25C8.53919 2.25003 9.74984 3.46068 9.74987 4.9541C9.74987 5.85822 9.29802 6.70257 8.54577 7.2041L8.24987 7.40137V8.38086C9.12339 8.68994 9.74987 9.52061 9.74987 10.5C9.74987 11.3385 9.29035 12.068 8.61022 12.4551L10.7274 16.2646C12.0945 18.7255 10.315 21.75 7.49987 21.75C4.6849 21.7499 2.90531 18.7254 4.27233 16.2646L6.38855 12.4551C5.70898 12.0679 5.24987 11.3381 5.24987 10.5C5.24987 9.52073 5.87653 8.69003 6.74987 8.38086V7.2002C6.74991 6.82438 6.93818 6.47315 7.25085 6.26465L7.71374 5.95605C8.04869 5.73272 8.24987 5.35669 8.24987 4.9541C8.24984 4.28911 7.71076 3.75003 7.04577 3.75H6.99987C6.3096 3.7501 5.74987 4.3097 5.74987 5C5.74987 5.41421 5.41409 5.75 4.99987 5.75C4.58574 5.7499 4.24987 5.41415 4.24987 5C4.24987 3.48128 5.48117 2.2501 6.99987 2.25H7.04577ZM5.58386 16.9932C4.77227 18.4541 5.82863 20.2499 7.49987 20.25C9.17125 20.25 10.2276 18.4542 9.41589 16.9932L7.49987 13.5449L5.58386 16.9932ZM7.49987 9.75C7.08574 9.7501 6.74987 10.0858 6.74987 10.5C6.74987 10.9142 7.08574 11.2499 7.49987 11.25C7.91409 11.25 8.24987 10.9142 8.24987 10.5C8.24987 10.0858 7.91409 9.75 7.49987 9.75Z" fill="#363538"/>
<path fill-rule="evenodd" clip-rule="evenodd" d="M16.0458 2.25C17.5392 2.25003 18.7498 3.46068 18.7499 4.9541C18.7499 5.85822 18.298 6.70257 17.5458 7.2041L17.2499 7.40137V8.38086C18.1234 8.68994 18.7499 9.52061 18.7499 10.5C18.7499 11.3385 18.2903 12.068 17.6102 12.4551L19.7274 16.2646C21.0945 18.7255 19.315 21.75 16.4999 21.75C13.6849 21.7499 11.9053 18.7254 13.2723 16.2646L15.3885 12.4551C14.709 12.0679 14.2499 11.3381 14.2499 10.5C14.2499 9.52073 14.8765 8.69003 15.7499 8.38086V7.2002C15.7499 6.82438 15.9382 6.47315 16.2508 6.26465L16.7137 5.95605C17.0487 5.73272 17.2499 5.35669 17.2499 4.9541C17.2498 4.28911 16.7108 3.75003 16.0458 3.75H15.9999C15.3096 3.7501 14.7499 4.3097 14.7499 5C14.7499 5.41421 14.4141 5.75 13.9999 5.75C13.5857 5.7499 13.2499 5.41415 13.2499 5C13.2499 3.48128 14.4812 2.2501 15.9999 2.25H16.0458ZM14.5839 16.9932C13.7723 18.4541 14.8286 20.2499 16.4999 20.25C18.1713 20.25 19.2276 18.4542 18.4159 16.9932L16.4999 13.5449L14.5839 16.9932ZM16.4999 9.75C16.0857 9.7501 15.7499 10.0858 15.7499 10.5C15.7499 10.9142 16.0857 11.2499 16.4999 11.25C16.9141 11.25 17.2499 10.9142 17.2499 10.5C17.2499 10.0858 16.9141 9.75 16.4999 9.75Z" fill="#363538"/>
</svg>
