<svg width="24" height="24" viewBox="0 0 24 24" fill="none" xmlns="http://www.w3.org/2000/svg">
<path fill-rule="evenodd" clip-rule="evenodd" d="M6.66666 5.58462C9.09876 0.804966 14.9013 0.805287 17.3333 5.58462L19.3532 10.4613C20.2156 12.5436 20.2156 14.9007 19.3532 16.983C16.5825 23.6725 7.41749 23.6725 4.64684 16.983C3.78439 14.9007 3.78439 12.5436 4.64684 10.4613L5.03361 9.52749C5.04714 9.484 5.06457 9.44208 5.08551 9.40218L6.66666 5.58462ZM6.27666 10.4462L6.03268 11.0353C5.32244 12.7501 5.32244 14.6942 6.03268 16.409C8.29195 21.8638 15.7081 21.8638 17.9673 16.409C18.6776 14.6942 18.6776 12.7501 17.9673 11.0353L17.7616 10.5387L16.4039 10.3689C16.1007 10.331 15.8043 10.4792 15.6527 10.7446L15.2837 11.3903C14.5109 12.7426 12.525 12.6291 11.9114 11.1974C11.8095 10.9596 11.5072 10.887 11.3085 11.0527L10.8122 11.4662C9.7633 12.3403 8.16675 11.9364 7.65965 10.6687C7.57454 10.4559 7.35788 10.3261 7.1301 10.3514L6.27666 10.4462ZM17.1013 8.94445L16.59 8.88053C15.6858 8.76751 14.8024 9.20922 14.3503 10.0003L13.9813 10.6461C13.823 10.9233 13.4159 10.9 13.2902 10.6066C12.7928 9.44608 11.3181 9.09209 10.3482 9.90036L9.85195 10.3139C9.58591 10.5356 9.18098 10.4331 9.05237 10.1116C8.71678 9.27263 7.86253 8.76078 6.96445 8.86057L6.9319 8.86418L8.02899 6.21536C9.01648 4.31296 10.573 3.49997 12 3.5C13.4269 3.50003 14.9835 4.3131 15.971 6.21537L17.1013 8.94445Z" fill="#363538"/>
</svg>
