<svg width="24" height="24" viewBox="0 0 24 24" fill="none" xmlns="http://www.w3.org/2000/svg">
<path fill-rule="evenodd" clip-rule="evenodd" d="M6.66666 5.58462C9.09876 0.804966 14.9013 0.805287 17.3333 5.58462L19.3532 10.4613C20.2156 12.5436 20.2156 14.9007 19.3532 16.983C16.5825 23.6725 7.41749 23.6725 4.64684 16.983C3.78439 14.9007 3.78439 12.5436 4.64684 10.4613L6.66666 5.58462ZM15.971 6.21537L17.9673 11.0353C18.6776 12.7501 18.6776 14.6942 17.9673 16.409C15.7081 21.8638 8.29195 21.8638 6.03268 16.409C5.32244 14.6942 5.32244 12.7501 6.03268 11.0353L8.02899 6.21536C9.01648 4.31296 10.573 3.49997 12 3.5C13.4269 3.50003 14.9835 4.3131 15.971 6.21537Z" fill="#363538"/>
</svg>
