<svg width="24" height="24" viewBox="0 0 24 24" fill="none" xmlns="http://www.w3.org/2000/svg">
<path d="M12 2.12988C12.7425 2.12989 13.467 2.2122 14.1641 2.36816C14.5681 2.45875 14.8219 2.85956 14.7314 3.26367C14.641 3.66783 14.2401 3.92247 13.8359 3.83203C13.2458 3.7 12.6315 3.62989 12 3.62988C7.37738 3.62988 3.62988 7.37738 3.62988 12C3.62995 16.6226 7.37742 20.3701 12 20.3701C16.6225 20.3701 20.3701 16.6225 20.3701 12C20.3701 10.9571 20.1795 9.96013 19.832 9.04102L19.6738 8.65234L19.6465 8.58008C19.5305 8.21832 19.705 7.82057 20.0605 7.66504C20.4162 7.50964 20.8269 7.6516 21.0137 7.98242L21.0479 8.05176L21.2354 8.51074C21.6457 9.59635 21.8701 10.7728 21.8701 12C21.8701 17.451 17.451 21.8701 12 21.8701C6.54899 21.8701 2.12995 17.451 2.12988 12C2.12988 6.54895 6.54895 2.12988 12 2.12988Z" fill="#363538"/>
<path fill-rule="evenodd" clip-rule="evenodd" d="M15.3066 14.25C16.1211 14.2502 16.8501 15.1063 16.3721 15.9873C15.8481 16.9529 14.5304 18.75 12 18.75C9.46959 18.75 8.15191 16.9529 7.62793 15.9873C7.14988 15.1063 7.87893 14.2502 8.69336 14.25H15.3066ZM9.24316 15.75C9.75165 16.4688 10.6202 17.25 12 17.25C13.3798 17.25 14.2483 16.4688 14.7568 15.75H9.24316Z" fill="#363538"/>
<path d="M8.5 8C9.32843 8 10 8.67157 10 9.5C10 10.3284 9.32843 11 8.5 11C7.67157 11 7 10.3284 7 9.5C7 8.67157 7.67157 8 8.5 8Z" fill="#363538"/>
<path d="M15.5 8C16.3284 8 17 8.67157 17 9.5C17 10.3284 16.3284 11 15.5 11C14.6716 11 14 10.3284 14 9.5C14 8.67157 14.6716 8 15.5 8Z" fill="#363538"/>
<path d="M18 2.5C18.4142 2.5 18.75 2.83579 18.75 3.25V4.5H20C20.4142 4.5 20.75 4.83579 20.75 5.25C20.75 5.66421 20.4142 6 20 6H18.75V7.25C18.75 7.66421 18.4142 8 18 8C17.5858 8 17.25 7.66421 17.25 7.25V6H16C15.5858 6 15.25 5.66421 15.25 5.25C15.25 4.83579 15.5858 4.5 16 4.5H17.25V3.25C17.25 2.83579 17.5858 2.5 18 2.5Z" fill="#363538"/>
</svg>
