<svg width="24" height="24" viewBox="0 0 24 24" fill="none" xmlns="http://www.w3.org/2000/svg">
<path d="M18.25 2.00024C18.25 2.41446 18.5858 2.75024 19 2.75024H20.1893L18.4697 4.46991C18.2552 4.68441 18.191 5.007 18.3071 5.28726C18.4232 5.56751 18.6967 5.75024 19 5.75024H22C22.4142 5.75024 22.75 5.41446 22.75 5.00024C22.75 4.58603 22.4142 4.25024 22 4.25024H20.8107L22.5303 2.53057C22.7448 2.31608 22.809 1.99349 22.6929 1.71323C22.5768 1.43298 22.3033 1.25024 22 1.25024H19C18.5858 1.25024 18.25 1.58603 18.25 2.00024Z" fill="#363538"/>
<path d="M3.62988 12.0001C3.62988 7.3775 7.37726 3.63013 11.9999 3.63013C12.6315 3.63013 13.246 3.69996 13.8362 3.83204C14.2405 3.92248 14.6415 3.66812 14.7319 3.2639C14.8223 2.85968 14.568 2.45868 14.1638 2.36823C13.4667 2.21226 12.7424 2.13013 11.9999 2.13013C6.54883 2.13013 2.12988 6.54908 2.12988 12.0001C2.12988 17.4512 6.54883 21.8701 11.9999 21.8701C17.4509 21.8701 21.8699 17.4512 21.8699 12.0001C21.8699 10.5978 21.577 9.26189 21.0483 8.05185C20.8824 7.67228 20.4403 7.49902 20.0607 7.66486C19.6812 7.8307 19.5079 8.27284 19.6738 8.65241C20.1213 9.67663 20.3699 10.8084 20.3699 12.0001C20.3699 16.6228 16.6225 20.3701 11.9999 20.3701C7.37726 20.3701 3.62988 16.6228 3.62988 12.0001Z" fill="#363538"/>
<path d="M17.5303 10.5306C16.409 11.6519 14.591 11.6519 13.4697 10.5306C13.1768 10.2377 13.1768 9.76281 13.4697 9.46991C13.7626 9.17702 14.2374 9.17702 14.5303 9.46991C15.0659 10.0054 15.9341 10.0054 16.4697 9.46991C16.7626 9.17702 17.2374 9.17702 17.5303 9.46991C17.8232 9.76281 17.8232 10.2377 17.5303 10.5306Z" fill="#363538"/>
<path d="M6.46967 10.5306C7.59099 11.6519 9.40901 11.6519 10.5303 10.5306C10.8232 10.2377 10.8232 9.76281 10.5303 9.46991C10.2374 9.17702 9.76256 9.17702 9.46967 9.46991C8.93414 10.0054 8.06586 10.0054 7.53033 9.46991C7.23744 9.17702 6.76256 9.17702 6.46967 9.46991C6.17678 9.76281 6.17678 10.2377 6.46967 10.5306Z" fill="#363538"/>
<path d="M15 5.75024C14.5858 5.75024 14.25 5.41446 14.25 5.00024C14.25 4.58603 14.5858 4.25024 15 4.25024H17C17.3033 4.25024 17.5768 4.43298 17.6929 4.71323C17.809 4.99349 17.7448 5.31608 17.5303 5.53057L16.8107 6.25024H17C17.4142 6.25024 17.75 6.58603 17.75 7.00024C17.75 7.41446 17.4142 7.75024 17 7.75024H15C14.6967 7.75024 14.4232 7.56751 14.3071 7.28726C14.191 7.007 14.2552 6.68441 14.4697 6.46991L15.1893 5.75024H15Z" fill="#363538"/>
<path d="M12 18.0002C12.8284 18.0002 13.5 17.3287 13.5 16.5002C13.5 15.6718 12.8284 15.0002 12 15.0002C11.1716 15.0002 10.5 15.6718 10.5 16.5002C10.5 17.3287 11.1716 18.0002 12 18.0002Z" fill="#363538"/>
</svg>
