<svg width="24" height="24" viewBox="0 0 24 24" fill="none" xmlns="http://www.w3.org/2000/svg">
<path d="M9 15.2502C8.58579 15.2502 8.25 15.586 8.25 16.0002C8.25 16.4145 8.58579 16.7502 9 16.7502H15C15.4142 16.7502 15.75 16.4145 15.75 16.0002C15.75 15.586 15.4142 15.2502 15 15.2502H9Z" fill="#363538"/>
<path d="M10 9.50024C10 10.3287 9.32843 11.0002 8.5 11.0002C7.67157 11.0002 7 10.3287 7 9.50024C7 8.67182 7.67157 8.00024 8.5 8.00024C9.32843 8.00024 10 8.67182 10 9.50024Z" fill="#363538"/>
<path d="M15.5 11.0002C16.3284 11.0002 17 10.3287 17 9.50024C17 8.67182 16.3284 8.00024 15.5 8.00024C14.6716 8.00024 14 8.67182 14 9.50024C14 10.3287 14.6716 11.0002 15.5 11.0002Z" fill="#363538"/>
<path fill-rule="evenodd" clip-rule="evenodd" d="M22 12.0002C22 17.5231 17.5228 22.0002 12 22.0002C6.47715 22.0002 2 17.5231 2 12.0002C2 6.4774 6.47715 2.00024 12 2.00024C17.5228 2.00024 22 6.4774 22 12.0002ZM20.5 12.0002C20.5 16.6947 16.6944 20.5002 12 20.5002C7.30558 20.5002 3.5 16.6947 3.5 12.0002C3.5 7.30582 7.30558 3.50024 12 3.50024C16.6944 3.50024 20.5 7.30582 20.5 12.0002Z" fill="#363538"/>
</svg>
