<svg width="24" height="24" viewBox="0 0 24 24" fill="none" xmlns="http://www.w3.org/2000/svg">
<path d="M7.66459 15.3294C8.03294 15.1452 8.4804 15.2926 8.6676 15.6585L8.66912 15.6613C8.67225 15.667 8.67912 15.6792 8.68992 15.6969C8.71157 15.7326 8.74876 15.7903 8.80313 15.8627C8.91211 16.0081 9.08796 16.2101 9.34352 16.4146C9.84512 16.8159 10.6822 17.2502 12 17.2502C13.3178 17.2502 14.1549 16.8159 14.6565 16.4146C14.912 16.2101 15.0879 16.0081 15.1969 15.8627C15.2512 15.7903 15.2884 15.7326 15.3101 15.6969C15.3209 15.6792 15.3277 15.667 15.3309 15.6613L15.3324 15.6585C15.5196 15.2926 15.9671 15.1452 16.3354 15.3294C16.7059 15.5147 16.8561 15.9652 16.6708 16.3357L16 16.0002C16.6708 16.3357 16.671 16.3352 16.6708 16.3357L16.67 16.3373L16.669 16.3392L16.6669 16.3434L16.6613 16.3542C16.6571 16.3623 16.6517 16.3723 16.6452 16.3841C16.6322 16.4078 16.6147 16.4385 16.5923 16.4754C16.5475 16.5491 16.4831 16.6477 16.3969 16.7627C16.2246 16.9924 15.963 17.2903 15.5935 17.5859C14.8451 18.1846 13.6822 18.7502 12 18.7502C10.3178 18.7502 9.15488 18.1846 8.40648 17.5859C8.03704 17.2903 7.77539 16.9924 7.60313 16.7627C7.51687 16.6477 7.4525 16.5491 7.40774 16.4754C7.38534 16.4385 7.36778 16.4078 7.3548 16.3841L7.34539 16.3668L7.33869 16.3542L7.33313 16.3434L7.33095 16.3392L7.33002 16.3373C7.32981 16.3369 7.32918 16.3357 8 16.0002L7.32918 16.3357C7.14394 15.9652 7.29411 15.5147 7.66459 15.3294Z" fill="#363538"/>
<path d="M10 9.50024C10 10.3287 9.32843 11.0002 8.5 11.0002C7.67157 11.0002 7 10.3287 7 9.50024C7 8.67182 7.67157 8.00024 8.5 8.00024C9.32843 8.00024 10 8.67182 10 9.50024Z" fill="#363538"/>
<path d="M15.5 11.0002C16.3284 11.0002 17 10.3287 17 9.50024C17 8.67182 16.3284 8.00024 15.5 8.00024C14.6716 8.00024 14 8.67182 14 9.50024C14 10.3287 14.6716 11.0002 15.5 11.0002Z" fill="#363538"/>
<path fill-rule="evenodd" clip-rule="evenodd" d="M22 12.0002C22 17.5231 17.5228 22.0002 12 22.0002C6.47715 22.0002 2 17.5231 2 12.0002C2 6.4774 6.47715 2.00024 12 2.00024C17.5228 2.00024 22 6.4774 22 12.0002ZM20.5 12.0002C20.5 16.6947 16.6944 20.5002 12 20.5002C7.30558 20.5002 3.5 16.6947 3.5 12.0002C3.5 7.30582 7.30558 3.50024 12 3.50024C16.6944 3.50024 20.5 7.30582 20.5 12.0002Z" fill="#363538"/>
</svg>
