<svg width="24" height="24" viewBox="0 0 24 24" fill="none" xmlns="http://www.w3.org/2000/svg">
<path fill-rule="evenodd" clip-rule="evenodd" d="M12 20.5002C16.6944 20.5002 20.5 16.6947 20.5 12.0002C20.5 7.30582 16.6944 3.50024 12 3.50024C7.30558 3.50024 3.5 7.30582 3.5 12.0002C3.5 16.6947 7.30558 20.5002 12 20.5002ZM12 22.0002C17.5228 22.0002 22 17.5231 22 12.0002C22 6.4774 17.5228 2.00024 12 2.00024C6.47715 2.00024 2 6.4774 2 12.0002C2 17.5231 6.47715 22.0002 12 22.0002Z" fill="#363538"/>
<path fill-rule="evenodd" clip-rule="evenodd" d="M9.24291 15.7502C9.75139 16.4691 10.6201 17.2502 12 17.2502C13.3799 17.2502 14.2486 16.4691 14.7571 15.7502H9.24291ZM7.62773 15.9875C7.14961 15.1064 7.87914 14.2502 8.69371 14.2502H15.3063C16.1209 14.2502 16.8504 15.1064 16.3723 15.9875C15.8483 16.953 14.5305 18.7502 12 18.7502C9.46947 18.7502 8.15166 16.953 7.62773 15.9875Z" fill="#363538"/>
<path d="M10 9.50024C10 10.3287 9.32843 11.0002 8.5 11.0002C7.67157 11.0002 7 10.3287 7 9.50024C7 8.67182 7.67157 8.00024 8.5 8.00024C9.32843 8.00024 10 8.67182 10 9.50024Z" fill="#363538"/>
<path d="M17 9.50024C17 10.3287 16.3284 11.0002 15.5 11.0002C14.6716 11.0002 14 10.3287 14 9.50024C14 8.67182 14.6716 8.00024 15.5 8.00024C16.3284 8.00024 17 8.67182 17 9.50024Z" fill="#363538"/>
</svg>
