<svg width="24" height="24" viewBox="0 0 24 24" fill="none" xmlns="http://www.w3.org/2000/svg">
<path d="M7.66459 17.6711C8.03294 17.8552 8.4804 17.7079 8.6676 17.342L8.66912 17.3392C8.67225 17.3335 8.67912 17.3213 8.68992 17.3035C8.71157 17.2679 8.74876 17.2102 8.80313 17.1377C8.91211 16.9924 9.08796 16.7903 9.34352 16.5859C9.84512 16.1846 10.6822 15.7502 12 15.7502C13.3178 15.7502 14.1549 16.1846 14.6565 16.5859C14.912 16.7903 15.0879 16.9924 15.1969 17.1377C15.2512 17.2102 15.2884 17.2679 15.3101 17.3035C15.3209 17.3213 15.3277 17.3335 15.3309 17.3392L15.3324 17.342C15.5196 17.7079 15.9671 17.8552 16.3354 17.6711C16.7059 17.4858 16.8561 17.0353 16.6708 16.6648L16 17.0002C16.6708 16.6648 16.671 16.6652 16.6708 16.6648L16.67 16.6632L16.669 16.6613L16.6669 16.657L16.6613 16.6463L16.654 16.6325L16.6452 16.6163C16.6322 16.5927 16.6147 16.562 16.5923 16.5251C16.5475 16.4514 16.4831 16.3528 16.3969 16.2377C16.2246 16.0081 15.963 15.7101 15.5935 15.4146C14.8451 14.8159 13.6822 14.2502 12 14.2502C10.3178 14.2502 9.15488 14.8159 8.40648 15.4146C8.03704 15.7101 7.77539 16.0081 7.60313 16.2377C7.51687 16.3528 7.4525 16.4514 7.40774 16.5251C7.38534 16.562 7.36778 16.5927 7.3548 16.6163C7.34831 16.6282 7.34295 16.6382 7.33869 16.6463L7.33313 16.657L7.33095 16.6613L7.33002 16.6632C7.32981 16.6636 7.32918 16.6648 8 17.0002L7.32918 16.6648C7.14394 17.0353 7.29411 17.4858 7.66459 17.6711Z" fill="#363538"/>
<path d="M10 9.50024C10 10.3287 9.32843 11.0002 8.5 11.0002C7.67157 11.0002 7 10.3287 7 9.50024C7 8.67182 7.67157 8.00024 8.5 8.00024C9.32843 8.00024 10 8.67182 10 9.50024Z" fill="#363538"/>
<path d="M15.5 11.0002C16.3284 11.0002 17 10.3287 17 9.50024C17 8.67182 16.3284 8.00024 15.5 8.00024C14.6716 8.00024 14 8.67182 14 9.50024C14 10.3287 14.6716 11.0002 15.5 11.0002Z" fill="#363538"/>
<path fill-rule="evenodd" clip-rule="evenodd" d="M22 12.0002C22 17.5231 17.5228 22.0002 12 22.0002C6.47715 22.0002 2 17.5231 2 12.0002C2 6.4774 6.47715 2.00024 12 2.00024C17.5228 2.00024 22 6.4774 22 12.0002ZM20.5 12.0002C20.5 16.6947 16.6944 20.5002 12 20.5002C7.30558 20.5002 3.5 16.6947 3.5 12.0002C3.5 7.30582 7.30558 3.50024 12 3.50024C16.6944 3.50024 20.5 7.30582 20.5 12.0002Z" fill="#363538"/>
</svg>
