<svg width="24" height="24" viewBox="0 0 24 24" fill="none" xmlns="http://www.w3.org/2000/svg">
<path d="M9.13646 15.592C8.91098 15.2445 8.44651 15.1456 8.09905 15.3711C7.75159 15.5966 7.6527 16.0611 7.87819 16.4085C8.51408 17.3884 9.80246 18.7502 12.0002 18.7502C14.1979 18.7502 15.4862 17.3884 16.1221 16.4085C16.3476 16.0611 16.2487 15.5966 15.9013 15.3711C15.5538 15.1456 15.0893 15.2445 14.8639 15.592C14.3673 16.3572 13.4807 17.2502 12.0002 17.2502C10.5196 17.2502 9.63305 16.3572 9.13646 15.592Z" fill="#363538"/>
<path d="M10 9.50024C10 10.3287 9.32843 11.0002 8.5 11.0002C7.67157 11.0002 7 10.3287 7 9.50024C7 8.67182 7.67157 8.00024 8.5 8.00024C9.32843 8.00024 10 8.67182 10 9.50024Z" fill="#363538"/>
<path d="M17.5303 8.96991C16.409 7.84859 14.591 7.84859 13.4697 8.96991C13.1768 9.26281 13.1768 9.73768 13.4697 10.0306C13.7626 10.3235 14.2374 10.3235 14.5303 10.0306C15.0659 9.49504 15.9341 9.49504 16.4697 10.0306C16.7626 10.3235 17.2374 10.3235 17.5303 10.0306C17.8232 9.73768 17.8232 9.26281 17.5303 8.96991Z" fill="#363538"/>
<path fill-rule="evenodd" clip-rule="evenodd" d="M22 12.0002C22 17.5231 17.5228 22.0002 12 22.0002C6.47715 22.0002 2 17.5231 2 12.0002C2 6.4774 6.47715 2.00024 12 2.00024C17.5228 2.00024 22 6.4774 22 12.0002ZM20.5 12.0002C20.5 16.6947 16.6944 20.5002 12 20.5002C7.30558 20.5002 3.5 16.6947 3.5 12.0002C3.5 7.30582 7.30558 3.50024 12 3.50024C16.6944 3.50024 20.5 7.30582 20.5 12.0002Z" fill="#363538"/>
</svg>
