<svg width="24" height="24" viewBox="0 0 24 24" fill="none" xmlns="http://www.w3.org/2000/svg">
<path d="M16.9081 12.4404C17.3082 12.5476 17.5456 12.9593 17.4384 13.3594L16.7147 13.165C17.4388 13.3591 17.4394 13.36 17.4393 13.3604L17.4345 13.375C17.4325 13.3821 17.4298 13.3916 17.4266 13.4023C17.4201 13.4243 17.4112 13.454 17.3993 13.4902C17.3754 13.563 17.3391 13.6632 17.2899 13.7852C17.1917 14.0288 17.0378 14.362 16.8095 14.7363C16.3524 15.4853 15.5902 16.4116 14.3749 17.1133C13.1597 17.8148 11.9766 18.0119 11.0995 18.0332C10.6611 18.0438 10.2952 18.0104 10.035 17.9736C9.90515 17.9553 9.80034 17.9365 9.72547 17.9209C9.68818 17.9131 9.65794 17.9057 9.63563 17.9004C9.62479 17.8978 9.61541 17.8954 9.60829 17.8936L9.59364 17.8896L9.59266 17.8906C9.59235 17.8905 9.59192 17.8895 9.78602 17.165L9.59169 17.8896C9.19176 17.7823 8.95423 17.3707 9.06141 16.9707C9.16867 16.5707 9.5803 16.3332 9.98036 16.4404L9.98426 16.4414C9.99302 16.4435 10.0095 16.4465 10.0321 16.4512C10.0776 16.4607 10.1498 16.4748 10.245 16.4883C10.4366 16.5154 10.7193 16.5415 11.0634 16.5332C11.7519 16.5165 12.6754 16.3626 13.6249 15.8145C14.5745 15.2662 15.1704 14.543 15.5292 13.9551C15.7084 13.6614 15.827 13.4031 15.8993 13.2236C15.9352 13.1344 15.959 13.0646 15.9735 13.0205C15.9807 12.9987 15.9866 12.9832 15.9891 12.9746L15.9901 12.9707L16.0136 12.8975C16.1486 12.5424 16.5333 12.3402 16.9081 12.4404Z" fill="#363538"/>
<path d="M6.96864 11.2861C7.68608 10.8719 8.60423 11.1175 9.01844 11.835C9.43249 12.5524 9.18601 13.4696 8.46864 13.8838C7.75123 14.2979 6.83399 14.0523 6.41981 13.335C6.00569 12.6176 6.25149 11.7004 6.96864 11.2861Z" fill="#363538"/>
<path d="M13.0311 7.78613C13.7486 7.37193 14.6657 7.61758 15.08 8.33496C15.4942 9.05238 15.2485 9.96956 14.5311 10.3838C13.8137 10.798 12.8966 10.5523 12.4823 9.83496C12.0681 9.11756 12.3138 8.20038 13.0311 7.78613Z" fill="#363538"/>
<path fill-rule="evenodd" clip-rule="evenodd" d="M11.9999 2C17.5226 2.00019 21.9999 6.47727 21.9999 12C21.9999 14.541 21.0487 16.8585 19.4882 18.6221C19.6615 18.6815 19.8386 18.747 20.0136 18.8184C20.6506 19.0781 21.4185 19.4738 21.8505 20.0498C22.1955 20.51 22.2558 21.0538 22.0282 21.543C21.8275 21.9742 21.444 22.2787 21.0682 22.4766C20.3129 22.8741 19.2266 23.0327 18.2636 22.7119C17.4654 22.4459 17.0827 22.3046 16.6464 22.2803C16.2375 22.2576 15.7273 22.3408 14.7636 22.7021C14.1822 22.9201 13.6975 22.9917 13.2499 22.959C12.8196 22.9274 12.4625 22.7991 12.2011 22.7119C11.9298 22.6215 11.7098 22.5552 11.4306 22.5381C11.1521 22.5211 10.7725 22.5517 10.2157 22.7188C9.54017 22.9214 8.99511 22.995 8.53016 22.9453C8.03757 22.8925 7.69373 22.7069 7.42567 22.5059C6.92 22.1266 6.92563 22.0086 6.54188 22.001C6.53739 22.0025 6.53204 22.0047 6.52626 22.0068C6.47136 22.0269 6.39439 22.0614 6.287 22.1133C6.09764 22.2047 5.78402 22.3683 5.49208 22.498C5.18785 22.6332 4.82232 22.772 4.44032 22.834C4.05488 22.8964 3.60076 22.8887 3.16493 22.6709C2.48231 22.3297 1.99445 21.8349 1.86708 21.166C1.74624 20.5312 1.99335 19.9458 2.28407 19.501C2.69051 18.8793 3.3281 18.3113 3.912 17.8799C2.71044 16.2296 1.99989 14.1972 1.99989 12C1.99989 6.47727 6.47721 2.0002 11.9999 2ZM11.9999 3.5C7.30564 3.5002 3.49989 7.3057 3.49989 12C3.49989 14.1249 4.27866 16.0662 5.56727 17.5566C5.71114 17.7231 5.77481 17.9446 5.7411 18.1621C5.70731 18.3795 5.57992 18.5715 5.39247 18.6865C4.75458 19.0777 3.93572 19.716 3.53993 20.3213C3.34287 20.6228 3.32485 20.8024 3.34071 20.8857C3.35027 20.9355 3.40147 21.112 3.83583 21.3291C3.89991 21.361 4.00896 21.3847 4.20106 21.3535C4.39674 21.3217 4.62594 21.2415 4.88368 21.127C5.15349 21.007 5.3713 20.8889 5.63465 20.7617C5.75359 20.7043 5.88503 20.6449 6.01161 20.5986C6.12545 20.557 6.30346 20.5001 6.49989 20.5C7.57283 20.5001 8.09853 21.1367 8.32508 21.3066C8.43183 21.3867 8.52618 21.4356 8.68934 21.4531C8.88048 21.4735 9.21146 21.4533 9.78504 21.2812C10.4773 21.0736 11.0355 21.0103 11.5223 21.04C12.0082 21.0698 12.3836 21.1911 12.6747 21.2881C12.9755 21.3883 13.1505 21.4475 13.3602 21.4629C13.5531 21.4769 13.8194 21.4545 14.2372 21.2979C15.2731 20.9094 16.0134 20.7425 16.7294 20.7822C17.4175 20.8205 18.0358 21.0543 18.7372 21.2881C19.2738 21.4668 19.9382 21.3757 20.37 21.1484C20.5288 21.0648 20.6088 20.9873 20.6444 20.9434C20.4731 20.721 20.0506 20.453 19.4472 20.207C18.8737 19.9733 18.2684 19.811 17.8974 19.7354C17.6173 19.6783 17.3936 19.466 17.3212 19.1895C17.249 18.913 17.3404 18.6195 17.5565 18.4326C19.3604 16.8729 20.4999 14.5699 20.4999 12C20.4999 7.3057 16.6941 3.50019 11.9999 3.5Z" fill="#363538"/>
</svg>
