<svg width="24" height="24" viewBox="0 0 24 24" fill="none" xmlns="http://www.w3.org/2000/svg">
<path fill-rule="evenodd" clip-rule="evenodd" d="M6.69669 8.81825L15.182 17.3035L20.8388 11.6467C22.0104 10.4751 22.0104 8.57561 20.8388 7.40404L16.5962 3.16139C15.4246 1.98982 13.5251 1.98982 12.3535 3.16139L6.69669 8.81825ZM19.7782 10.586L15.182 15.1822L8.81801 8.81825L13.4142 4.22205C14 3.63627 14.9497 3.63627 15.5355 4.22205L19.7782 8.46469C20.3639 9.05048 20.3639 10.0002 19.7782 10.586Z" fill="#363538"/>
<path fill-rule="evenodd" clip-rule="evenodd" d="M3.16115 12.3538L5.63602 9.87891L14.1213 18.3642L11.6464 20.8391C10.4749 22.0106 8.57536 22.0106 7.40379 20.8391L3.16115 16.5964C1.98958 15.4249 1.98958 13.5254 3.16115 12.3538ZM4.22181 13.4144L5.63602 12.0002L12 18.3642L10.5858 19.7784C9.99998 20.3642 9.05024 20.3642 8.46445 19.7784L4.22181 15.5358C3.63602 14.95 3.63602 14.0002 4.22181 13.4144Z" fill="#363538"/>
</svg>
