<svg width="24" height="24" viewBox="0 0 24 24" fill="none" xmlns="http://www.w3.org/2000/svg">
<path fill-rule="evenodd" clip-rule="evenodd" d="M13.3665 2.50737C12.666 1.63166 11.3341 1.63166 10.6335 2.50737L3.41436 11.5313C3.2548 11.7307 3.20771 11.9977 3.2894 12.2397C3.37109 12.4817 3.57032 12.6655 3.81811 12.7274L11.5756 14.6668C11.8542 14.7364 12.1458 14.7364 12.4244 14.6668L20.1819 12.7274C20.4297 12.6655 20.6289 12.4817 20.7106 12.2397C20.7923 11.9977 20.7452 11.7307 20.5857 11.5313L13.3665 2.50737ZM11.8048 3.44441C11.9049 3.31931 12.0951 3.31931 12.1952 3.44441L17.5148 10.0939L12.7014 7.98805C12.2543 7.79241 11.7457 7.79241 11.2986 7.98805L6.48521 10.0939L11.8048 3.44441ZM12.1002 9.36228L17.6848 11.8055L12.0606 13.2116C12.0208 13.2215 11.9792 13.2215 11.9394 13.2116L6.31524 11.8055L11.8998 9.36228C11.9637 9.33433 12.0363 9.33433 12.1002 9.36228Z" fill="#363538"/>
<path fill-rule="evenodd" clip-rule="evenodd" d="M6.7899 15.7291L6.789 15.7282L4.74612 15.8066C3.84967 14.9102 4.70324 13.4026 5.93317 13.7101L12 15.2268L18.0668 13.7101C19.2968 13.4026 20.1504 14.9102 19.2539 15.8066L12.8839 22.1766C12.3957 22.6648 11.6043 22.6648 11.1161 22.1766L4.74612 15.8066L6.7899 15.7291ZM6.789 15.7282L6.445 15.3842L7.68362 15.6938L6.789 15.7282ZM6.7899 15.7291L12 20.9392L17.555 15.3842L12.3032 16.6971C12.1041 16.7469 11.8959 16.7469 11.6968 16.6971L7.68824 15.695L18.7236 15.2763L18.7175 15.2702L7.68362 15.6938L7.68824 15.695L6.7899 15.7291Z" fill="#363538"/>
</svg>
