<svg width="24" height="24" viewBox="0 0 24 24" fill="none" xmlns="http://www.w3.org/2000/svg">
<path d="M17.0023 4.82521C15.5566 3.3795 13.348 3.02109 11.5193 3.93544L10.1757 4.6072C8.56651 5.41181 7.55 7.05656 7.55 8.85573V10.2336H6C5.58579 10.2336 5.25 10.5694 5.25 10.9836C5.25 11.3978 5.58579 11.7336 6 11.7336H7.55V13.3003H6C5.58579 13.3003 5.25 13.636 5.25 14.0503C5.25 14.4645 5.58579 14.8003 6 14.8003H7.55V18.1836C7.55 19.7024 8.78122 20.9336 10.3 20.9336H17.5C17.9142 20.9336 18.25 20.5978 18.25 20.1836C18.25 19.7694 17.9142 19.4336 17.5 19.4336H10.3C9.60964 19.4336 9.05 18.874 9.05 18.1836V14.8003H17.5C17.9142 14.8003 18.25 14.4645 18.25 14.0503C18.25 13.636 17.9142 13.3003 17.5 13.3003H9.05V11.7336H17.5C17.9142 11.7336 18.25 11.3978 18.25 10.9836C18.25 10.5694 17.9142 10.2336 17.5 10.2336H9.05V8.85573C9.05 7.62472 9.74551 6.49936 10.8466 5.94884L12.1901 5.27708C13.4413 4.65147 14.9524 4.8967 15.9416 5.88587L16.9697 6.91392C17.2626 7.20682 17.7374 7.20682 18.0303 6.91392C18.3232 6.62103 18.3232 6.14616 18.0303 5.85326L17.0023 4.82521Z" fill="#363538"/>
</svg>
