<svg width="24" height="24" viewBox="0 0 24 24" fill="none" xmlns="http://www.w3.org/2000/svg">
<path d="M8.38106 11.9472C8.68936 11.817 9.02061 11.75 9.35525 11.75H10C10.4142 11.75 10.75 12.0858 10.75 12.5C10.75 12.9142 10.4142 13.25 10 13.25H9.35525C9.22098 13.25 9.08806 13.2769 8.96435 13.3291C8.6801 13.4491 8.4718 13.6901 8.38915 13.9773H10C10.4142 13.9773 10.75 14.3131 10.75 14.7273C10.75 14.9422 10.6596 15.136 10.5148 15.2727C10.6596 15.4095 10.75 15.6033 10.75 15.8182C10.75 16.2324 10.4142 16.5682 10 16.5682H8.4863C8.6932 16.9729 9.11424 17.25 9.6 17.25H10C10.4142 17.25 10.75 17.5858 10.75 18C10.75 18.4142 10.4142 18.75 10 18.75H9.6C8.27401 18.75 7.16721 17.8115 6.90759 16.5625C6.53697 16.517 6.25 16.2011 6.25 15.8182C6.25 15.6033 6.34039 15.4095 6.48524 15.2727C6.34039 15.136 6.25 14.9422 6.25 14.7273C6.25 14.3595 6.51475 14.0535 6.86407 13.9896C6.95968 13.0907 7.53555 12.304 8.38106 11.9472Z" fill="#363538"/>
<path fill-rule="evenodd" clip-rule="evenodd" d="M14.9171 15.9999C14.9308 16 14.9445 16 14.9583 16C18.295 16 21 13.3137 21 10C21 6.68629 18.295 4 14.9583 4C11.9646 4 9.47948 6.16229 9.00009 9V9C5.68639 9 3 11.6863 3 15C3 18.3137 5.68629 21 9 21C11.973 21 14.441 18.8376 14.9171 15.9999ZM14.9795 14.5C17.4723 14.4886 19.4896 12.4783 19.4896 10C19.4896 7.51472 17.4608 5.5 14.9583 5.5C12.7345 5.5 10.8848 7.09086 10.5004 9.18912C12.9322 9.81518 14.7672 11.9275 14.9795 14.5ZM9 19.5C11.4853 19.5 13.5 17.4853 13.5 15C13.5 12.5147 11.4853 10.5 9 10.5C6.51472 10.5 4.5 12.5147 4.5 15C4.5 17.4853 6.51472 19.5 9 19.5Z" fill="#363538"/>
</svg>
