<svg width="24" height="24" viewBox="0 0 24 24" fill="none" xmlns="http://www.w3.org/2000/svg">
<path fill-rule="evenodd" clip-rule="evenodd" d="M16.0791 10.1345C16.5351 8.76646 15.2335 7.46491 13.8655 7.92094L10.2372 9.13037C9.71461 9.30456 9.30456 9.71461 9.13037 10.2372L7.92094 13.8655C7.46491 15.2335 8.76646 16.5351 10.1345 16.0791L13.7628 14.8696C14.2854 14.6954 14.6954 14.2854 14.8696 13.7628L16.0791 10.1345ZM14.3398 9.34397C14.5352 9.27882 14.7212 9.46475 14.656 9.66019L13.4466 13.2885C13.4217 13.3631 13.3631 13.4217 13.2885 13.4466L9.66019 14.656C9.46475 14.7212 9.27882 14.5352 9.34397 14.3398L10.5534 10.7115C10.5783 10.6369 10.6369 10.5783 10.7115 10.5534L14.3398 9.34397Z" fill="#363538"/>
<path fill-rule="evenodd" clip-rule="evenodd" d="M22 12C22 17.5228 17.5228 22 12 22C6.47715 22 2 17.5228 2 12C2 6.47715 6.47715 2 12 2C17.5228 2 22 6.47715 22 12ZM20.5 12C20.5 16.6944 16.6944 20.5 12 20.5C7.30558 20.5 3.5 16.6944 3.5 12C3.5 7.30558 7.30558 3.5 12 3.5C16.6944 3.5 20.5 7.30558 20.5 12Z" fill="#363538"/>
</svg>
