<svg width="24" height="24" viewBox="0 0 24 24" fill="none" xmlns="http://www.w3.org/2000/svg">
<path fill-rule="evenodd" clip-rule="evenodd" d="M9.88632 7.81225C9.29847 7.69467 8.75001 8.1443 8.75001 8.7438V10.3228L7.90814 12.0065C7.69388 12.435 7.83224 12.956 8.23089 13.2218L9.25001 13.9012V14.7224C9.25001 15.3708 9.88527 15.8287 10.5004 15.6236L13.0605 14.7703L15.5909 15.192C16.2467 15.3013 16.809 14.7205 16.6786 14.0686L16.2964 12.1574L16.9167 11.2268C17.3376 10.5955 16.8851 9.74984 16.1263 9.74984H14.9635L14.2484 8.31957C14.037 7.89672 13.5468 7.69367 13.0983 7.84318L11.9518 8.22534L9.88632 7.81225ZM10.25 10.4526V9.41469L11.8008 9.72486C11.963 9.75728 12.1307 9.74683 12.2876 9.69455L13.1201 9.41705L13.7739 10.7247C13.9348 11.0465 14.2638 11.2498 14.6236 11.2498H15.0986L14.9219 11.5149C14.7822 11.7245 14.7314 11.9811 14.7808 12.2282L15.0515 13.5814L13.1723 13.2682C13.0195 13.2427 12.8627 13.255 12.7157 13.304L10.75 13.9593V13.6069C10.75 13.2892 10.5913 12.9926 10.327 12.8164L9.46692 12.2431L10.1497 10.8775C10.2157 10.7456 10.25 10.6001 10.25 10.4526Z" fill="#363538"/>
<path fill-rule="evenodd" clip-rule="evenodd" d="M16.5226 3.14499C16.2688 2.00281 14.9872 1.42662 13.9644 1.99485L10.9297 3.68082C10.882 3.70732 10.8269 3.71749 10.7729 3.70977L6.23544 3.06156C4.76196 2.85106 3.71509 4.45928 4.50396 5.72147L5.48814 7.29616C5.54441 7.38619 5.53768 7.50194 5.47136 7.58484L2.61602 11.154C1.96205 11.9715 2.1673 13.1764 3.05504 13.7312L5.72755 15.4015C5.78723 15.4388 5.82843 15.4996 5.84102 15.5688L6.50671 19.2301C6.72388 20.4246 8.0616 21.0404 9.11025 20.4287L13.5855 17.8181C13.6329 17.7905 13.6881 17.7792 13.7425 17.786L19.8323 18.5472C21.1099 18.7069 22.1168 17.4788 21.7096 16.2573L20.8115 13.563C20.7952 13.5141 20.7944 13.4614 20.8092 13.4121L21.9554 9.59143C22.2158 8.72346 21.7705 7.80029 20.9291 7.46374L17.2687 5.99955C17.192 5.96887 17.1354 5.90229 17.1175 5.82166L16.5226 3.14499ZM14.6929 3.30608C14.839 3.22491 15.0221 3.30722 15.0584 3.47039L15.6532 6.14706C15.7786 6.71148 16.1747 7.17753 16.7116 7.39226L20.372 8.85645C20.4922 8.90453 20.5558 9.03641 20.5187 9.16041L19.3725 12.9811C19.2689 13.3264 19.2744 13.6953 19.3885 14.0373L20.2866 16.7317C20.3447 16.9062 20.2009 17.0816 20.0184 17.0588L13.9286 16.2976C13.5475 16.2499 13.1614 16.3289 12.8297 16.5224L8.35445 19.133C8.20464 19.2204 8.01354 19.1324 7.98251 18.9618L7.31682 15.3005C7.22869 14.8158 6.94033 14.3907 6.52255 14.1296L3.85004 12.4592C3.72322 12.38 3.6939 12.2078 3.78732 12.0911L6.64266 8.52188C7.10691 7.94158 7.15401 7.13135 6.76014 6.50116L5.77596 4.92647C5.66326 4.74615 5.81282 4.51641 6.02331 4.54648L10.5608 5.19469C10.9389 5.24871 11.3243 5.17754 11.6581 4.99206L14.6929 3.30608Z" fill="#363538"/>
</svg>
