<svg width="24" height="24" viewBox="0 0 24 24" fill="none" xmlns="http://www.w3.org/2000/svg">
<path d="M12.5303 2.46967C12.2374 2.17678 11.7626 2.17678 11.4697 2.46967L9.46967 4.46967C9.17678 4.76256 9.17678 5.23744 9.46967 5.53033C9.76256 5.82322 10.2374 5.82322 10.5303 5.53033L11.25 4.81066V13C11.25 13.4142 11.5858 13.75 12 13.75C12.4142 13.75 12.75 13.4142 12.75 13V4.81066L13.4697 5.53033C13.7626 5.82322 14.2374 5.82322 14.5303 5.53033C14.8232 5.23744 14.8232 4.76256 14.5303 4.46967L12.5303 2.46967Z" fill="#363538"/>
<path d="M3.75 15C3.75 13.7574 4.75736 12.75 6 12.75C6.41421 12.75 6.75 12.4142 6.75 12C6.75 11.5858 6.41421 11.25 6 11.25C3.92893 11.25 2.25 12.9289 2.25 15V17C2.25 19.6234 4.37665 21.75 7 21.75H17C19.6234 21.75 21.75 19.6234 21.75 17V15C21.75 12.9289 20.0711 11.25 18 11.25C17.5858 11.25 17.25 11.5858 17.25 12C17.25 12.4142 17.5858 12.75 18 12.75C19.2426 12.75 20.25 13.7574 20.25 15V17C20.25 18.7949 18.7949 20.25 17 20.25H7C5.20507 20.25 3.75 18.7949 3.75 17V15Z" fill="#363538"/>
</svg>
