<svg width="24" height="24" viewBox="0 0 24 24" fill="none" xmlns="http://www.w3.org/2000/svg">
<path d="M13.25 9.75C13.6642 9.75 14 10.0858 14 10.5C14 10.9142 13.6642 11.25 13.25 11.25C11.4551 11.25 10 12.7051 10 14.5C10 16.2949 11.4551 17.75 13.25 17.75C13.6642 17.75 14 18.0858 14 18.5C14 18.9142 13.6642 19.25 13.25 19.25C11.5695 19.25 10.0944 18.3764 9.25 17.0596C8.40561 18.3764 6.93045 19.25 5.25 19.25C4.83579 19.25 4.5 18.9142 4.5 18.5C4.5 18.0858 4.83579 17.75 5.25 17.75C7.04493 17.75 8.5 16.2949 8.5 14.5C8.5 12.7051 7.04493 11.25 5.25 11.25C4.83579 11.25 4.5 10.9142 4.5 10.5C4.5 10.0858 4.83579 9.75 5.25 9.75C6.93016 9.75 8.40554 10.623 9.25 11.9395C10.0945 10.623 11.5698 9.75 13.25 9.75Z" fill="#363538"/>
<path d="M17.5 4.75C18.6046 4.75 19.5 5.64543 19.5 6.75V8C19.5 8.41421 19.1642 8.75 18.75 8.75C18.3358 8.75 18 8.41421 18 8V6.75C18 6.47386 17.7761 6.25 17.5 6.25C17.2239 6.25 17 6.47386 17 6.75V8C17 8.41421 16.6642 8.75 16.25 8.75C15.8358 8.75 15.5 8.41421 15.5 8V6.75C15.5 5.64543 16.3954 4.75 17.5 4.75Z" fill="#363538"/>
</svg>
