<svg width="24" height="24" viewBox="0 0 24 24" fill="none" xmlns="http://www.w3.org/2000/svg">
<path fill-rule="evenodd" clip-rule="evenodd" d="M20.4697 2.57712C20.7626 2.27149 21.2373 2.27149 21.5302 2.57712C21.8231 2.88275 21.8231 3.37817 21.5302 3.68378L3.53022 22.4664C3.23734 22.772 2.76257 22.772 2.46967 22.4664C2.17678 22.1608 2.17678 21.6654 2.46967 21.3597L5.41401 18.2864C4.09517 17.0815 3.0813 15.5219 2.51264 13.7487L2.39252 13.3441C2.26216 12.8744 2.24499 12.3784 2.34272 11.9022L2.39252 11.6994C3.59965 7.35262 7.44226 4.1742 11.997 4.17393C13.9755 4.17393 15.8192 4.77461 17.371 5.80946L20.4697 2.57712ZM11.997 5.73914C8.12793 5.73941 4.85934 8.43871 3.83295 12.1345C3.76288 12.387 3.76286 12.6565 3.83295 12.909C4.30048 14.5925 5.23467 16.0677 6.47748 17.1766L8.69037 14.8665C8.25453 14.1983 7.99995 13.3911 7.99994 12.5218C7.99994 10.2166 9.7908 8.34784 11.9999 8.34784C12.833 8.34785 13.6066 8.6135 14.247 9.06829L16.2802 6.9477C15.0223 6.17997 13.5587 5.73914 11.997 5.73914ZM11.9999 9.91306C10.6192 9.91306 9.49994 11.081 9.49994 12.5218C9.49995 12.9565 9.60282 13.3658 9.78315 13.7262L13.1542 10.2086C12.8088 10.0204 12.4166 9.91307 11.9999 9.91306Z" fill="#363538"/>
<path d="M19.6337 7.87501C20.5271 8.97753 21.2061 10.2755 21.6015 11.6994C21.7505 12.2363 21.7505 12.8072 21.6015 13.3441C20.3943 17.6909 16.5519 20.8696 11.997 20.8696C10.5795 20.8695 9.23135 20.5595 8.00971 20.0044L9.16596 18.7979C10.0517 19.1245 11.0044 19.3043 11.997 19.3044C15.8662 19.3044 19.1346 16.6049 20.1611 12.909C20.2312 12.6565 20.2312 12.3871 20.1611 12.1345C19.837 10.9675 19.2887 9.90041 18.5693 8.98575L19.6337 7.87501Z" fill="#363538"/>
<path d="M15.9287 11.7412C15.9745 11.9941 15.9999 12.2549 15.9999 12.5218C15.9999 14.8269 14.209 16.6956 11.9999 16.6957C11.7442 16.6957 11.4943 16.6691 11.2519 16.6213L12.8232 14.9817C13.5407 14.7202 14.1068 14.1295 14.3574 13.3808L15.9287 11.7412Z" fill="#363538"/>
</svg>
