<svg width="24" height="24" viewBox="0 0 24 24" fill="none" xmlns="http://www.w3.org/2000/svg">
<path fill-rule="evenodd" clip-rule="evenodd" d="M16 12C16 14.2091 14.2091 16 12 16C9.79086 16 8 14.2091 8 12C8 9.79086 9.79086 8 12 8C14.2091 8 16 9.79086 16 12ZM14.5 12C14.5 13.3807 13.3807 14.5 12 14.5C10.6193 14.5 9.5 13.3807 9.5 12C9.5 10.6193 10.6193 9.5 12 9.5C13.3807 9.5 14.5 10.6193 14.5 12Z" fill="#363538"/>
<path fill-rule="evenodd" clip-rule="evenodd" d="M2.39188 12.7884C2.24274 12.2738 2.24274 11.7262 2.39188 11.2116C3.59907 7.0456 7.44284 4 11.9979 4C16.5531 4 20.3968 7.0456 21.604 11.2116C21.7532 11.7262 21.7532 12.2738 21.604 12.7884C20.3968 16.9544 16.5531 20 11.9979 20C7.44284 20 3.59907 16.9544 2.39188 12.7884ZM3.83261 11.6291C4.85899 8.08706 8.1283 5.5 11.9979 5.5C15.8676 5.5 19.1369 8.08706 20.1633 11.6291C20.2334 11.871 20.2334 12.129 20.1633 12.3709C19.1369 15.9129 15.8676 18.5 11.9979 18.5C8.1283 18.5 4.85899 15.9129 3.83261 12.3709C3.7625 12.129 3.7625 11.871 3.83261 11.6291Z" fill="#363538"/>
</svg>
