<svg width="24" height="24" viewBox="0 0 24 24" fill="none" xmlns="http://www.w3.org/2000/svg">
<path fill-rule="evenodd" clip-rule="evenodd" d="M16 2.08691C19.3137 2.08691 22 4.89 22 8.34778V16.6956C22 20.1534 19.3137 22.9565 16 22.9565H8C4.68629 22.9565 2 20.1534 2 16.6956V8.34778C2 4.89 4.68629 2.08691 8 2.08691H16ZM8 3.65213C5.51472 3.65213 3.5 5.75445 3.5 8.34778V16.6956C3.5 19.2889 5.51472 21.3913 8 21.3913H11.25V14.8695H8.5V13.3043H11.25V10.9565C11.25 8.79536 12.9289 7.04344 15 7.04344H16.5V8.60865H15C13.7574 8.60865 12.75 9.65981 12.75 10.9565V13.3043H15.5V14.8695H12.75V21.3913H16C18.4853 21.3913 20.5 19.2889 20.5 16.6956V8.34778C20.5 5.75445 18.4853 3.65213 16 3.65213H8Z" fill="#363538"/>
</svg>
