<svg width="24" height="24" viewBox="0 0 24 24" fill="none" xmlns="http://www.w3.org/2000/svg">
<path fill-rule="evenodd" clip-rule="evenodd" d="M14.5 1.87012C11.1863 1.87012 8.5 4.55641 8.5 7.87012V9.87012H6.5C5.80964 9.87012 5.25 10.4298 5.25 11.1201V13.6201C5.25 14.3105 5.80964 14.8701 6.5 14.8701H8.5V20.8701C8.5 21.5605 9.05964 22.1201 9.75 22.1201H12.25C12.9404 22.1201 13.5 21.5605 13.5 20.8701V14.8701H16.0664C16.6884 14.8701 17.2158 14.4127 17.3038 13.7969L17.6609 11.2969C17.7685 10.5439 17.1842 9.87012 16.4235 9.87012H13.5V7.87012C13.5 7.31783 13.9477 6.87012 14.5 6.87012H17C17.6904 6.87012 18.25 6.31047 18.25 5.62012V3.12012C18.25 2.42976 17.6904 1.87012 17 1.87012H14.5ZM10 7.87012C10 5.38484 12.0147 3.37012 14.5 3.37012H16.75V5.37012H14.5C13.1193 5.37012 12 6.48941 12 7.87012V10.1201C12 10.8105 12.5596 11.3701 13.25 11.3701H16.1352L15.8495 13.3701H13.25C12.5596 13.3701 12 13.9298 12 14.6201V20.6201H10V14.6201C10 13.9298 9.44036 13.3701 8.75 13.3701H6.75V11.3701H8.75C9.44036 11.3701 10 10.8105 10 10.1201V7.87012Z" fill="#363538"/>
</svg>
