<svg width="24" height="24" viewBox="0 0 24 24" fill="none" xmlns="http://www.w3.org/2000/svg">
<path fill-rule="evenodd" clip-rule="evenodd" d="M12.2832 3.08843C11.5491 2.93587 10.9163 3.15107 10.4574 3.63451C10.0437 4.07022 9.81667 4.67391 9.68333 5.25291C9.4339 6.33607 9.55173 7.98807 9.94975 9.27544C10.1483 9.91759 10.4454 10.5671 10.8845 11.0142C10.9042 11.0343 10.9244 11.0541 10.945 11.0736C9.92568 11.5529 9.22004 12.589 9.22004 13.7899L9.22007 13.8025C9.14123 13.7935 9.06263 13.7882 8.98533 13.7855C8.60573 13.7723 8.13918 13.819 7.57706 13.9197C7.38976 13.9533 7.22321 13.9848 7.06451 14.0149C6.31984 14.1559 5.74808 14.2642 4.01649 14.3945C3.47072 14.4356 2.92868 14.5329 2.54926 14.8382C2.33242 15.0127 2.18406 15.2417 2.11746 15.5088C2.05547 15.7574 2.07475 15.9963 2.11254 16.1926C2.18211 16.554 2.35844 16.9653 2.5201 17.3424L2.54737 17.406C2.72094 17.8108 2.9114 18.2551 3.08096 18.769C3.31587 19.481 3.81861 19.9214 4.46678 20.0772C5.05093 20.2175 5.68727 20.1123 6.25538 19.9383C7.31813 19.6127 8.68989 18.6847 9.60577 17.6963C9.99471 17.2766 10.3526 16.7923 10.5538 16.285C11.0304 16.604 11.6035 16.7899 12.22 16.7899C12.6924 16.7899 13.1393 16.6808 13.5369 16.4862C13.7455 16.9201 14.0593 17.3324 14.3965 17.6963C15.3124 18.6847 16.6841 19.6127 17.7469 19.9383C18.315 20.1123 18.9513 20.2175 19.5355 20.0772C20.1837 19.9214 20.6864 19.481 20.9213 18.769C21.0909 18.2551 21.2813 17.8108 21.4549 17.406L21.4822 17.3424C21.6438 16.9653 21.8202 16.554 21.8897 16.1926C21.9275 15.9963 21.9468 15.7574 21.8848 15.5088C21.8182 15.2417 21.6699 15.0127 21.453 14.8382C21.0736 14.5329 20.5316 14.4356 19.9858 14.3945C18.2542 14.2642 17.6824 14.1559 16.9378 14.0149C16.7791 13.9848 16.6125 13.9533 16.4252 13.9197C15.9595 13.8363 15.5594 13.7899 15.22 13.784C15.2176 12.5488 14.4687 11.4888 13.4005 11.0311C13.4931 10.9245 13.5745 10.8093 13.6468 10.6935C13.8481 10.3714 14.0409 9.94397 14.2347 9.4068C14.2993 9.22782 14.3553 9.06781 14.4086 8.91535C14.6588 8.19994 14.8509 7.65064 15.6038 6.08586C15.8411 5.59266 16.0279 5.07461 15.9532 4.59338C15.9105 4.31834 15.7863 4.07533 15.5883 3.8841C15.404 3.70614 15.1875 3.60336 14.9986 3.53794C14.6508 3.41749 14.2065 3.36456 13.7991 3.31603L13.7304 3.30784C13.293 3.25574 12.813 3.19856 12.2832 3.08843ZM11.1451 5.58953C11.2548 5.11308 11.4029 4.81715 11.5452 4.66728C11.6422 4.56517 11.746 4.50885 11.9779 4.55705C12.5725 4.68062 13.1085 4.74442 13.5402 4.7958L13.5935 4.80214C14.0161 4.85253 14.2779 4.88841 14.4492 4.93705C14.4245 5.03104 14.3705 5.18946 14.2521 5.4355C13.4636 7.07439 13.2514 7.68097 12.9944 8.41537C12.9413 8.56724 12.8862 8.72459 12.8238 8.89765C12.6468 9.38799 12.4961 9.70434 12.3747 9.89867C12.305 10.0103 12.2592 10.0584 12.2427 10.0745C12.1777 10.0968 12.1463 10.0902 12.1313 10.0862C12.1048 10.0793 12.0442 10.0543 11.9547 9.96314C11.7613 9.7663 11.5532 9.38338 11.3828 8.83237C11.043 7.7334 10.9685 6.35621 11.1451 5.58953ZM13.72 13.7899C13.72 14.6184 13.0485 15.2899 12.22 15.2899C11.3916 15.2899 10.72 14.6184 10.72 13.7899C10.72 12.9615 11.3916 12.2899 12.22 12.2899C13.0485 12.2899 13.72 12.9615 13.72 13.7899ZM4.81727 18.6187C5.01819 18.667 5.34854 18.6473 5.81603 18.5041C6.56826 18.2736 7.72368 17.5205 8.50553 16.6768C8.89754 16.2537 9.12508 15.882 9.19888 15.6161C9.23307 15.493 9.2244 15.428 9.21719 15.4017C9.21309 15.3867 9.20314 15.3561 9.15131 15.3111C9.12908 15.3047 9.06458 15.2892 8.93303 15.2846C8.70402 15.2766 8.35471 15.3043 7.84159 15.3962C7.66049 15.4287 7.49671 15.4597 7.33862 15.4896C6.57413 15.6343 5.94271 15.7538 4.1291 15.8903C3.85684 15.9108 3.69266 15.9433 3.59887 15.9688C3.64244 16.1416 3.74225 16.3862 3.90993 16.7774L3.93106 16.8267C4.10241 17.2262 4.31517 17.7223 4.50544 18.299C4.57965 18.524 4.68036 18.5858 4.81727 18.6187ZM18.1863 18.5041C18.6537 18.6473 18.9841 18.667 19.185 18.6187C19.3219 18.5858 19.4226 18.524 19.4968 18.299C19.6871 17.7223 19.8999 17.2262 20.0712 16.8267L20.0924 16.7774C20.26 16.3862 20.3598 16.1416 20.4034 15.9688C20.3096 15.9433 20.1454 15.9108 19.8732 15.8903C18.0596 15.7538 17.4282 15.6343 16.6637 15.4896C16.5056 15.4597 16.3418 15.4287 16.1607 15.3962C15.6476 15.3043 15.2983 15.2766 15.0693 15.2846C14.9377 15.2892 14.8732 15.3047 14.851 15.3111C14.7991 15.3561 14.7892 15.3867 14.7851 15.4017C14.7779 15.428 14.7692 15.493 14.8034 15.6161C14.8772 15.882 15.1047 16.2537 15.4967 16.6768C16.2786 17.5205 17.434 18.2736 18.1863 18.5041Z" fill="#363538"/>
</svg>
