<svg width="24" height="24" viewBox="0 0 24 24" fill="none" xmlns="http://www.w3.org/2000/svg">
<path fill-rule="evenodd" clip-rule="evenodd" d="M18.6821 3.77755C15.5935 3.49681 13.1597 4.47873 11.226 6.06663C9.64405 7.36566 8.38836 9.07909 7.40692 10.8606C6.97674 11.6415 6.6016 12.4311 6.27643 13.1981C7.87821 13.9804 9.58933 13.9504 11.2705 13.3922C12.9987 12.8183 14.6675 11.6912 16.0563 10.3603C15.9173 10.2227 15.6906 10.0842 15.3206 9.98513C14.5958 9.79111 13.3731 9.77286 11.4319 10.2582C11.0301 10.3586 10.6229 10.1143 10.5224 9.71245C10.4219 9.3106 10.6663 8.9034 11.0681 8.80294C13.1269 8.28824 14.6349 8.24875 15.7085 8.53615C16.2889 8.69153 16.7511 8.94737 17.0907 9.27348C18.2601 7.92456 19.0673 6.53396 19.3683 5.45291C19.5477 4.80862 19.5155 4.39097 19.4119 4.16402C19.3384 4.00309 19.179 3.82271 18.6821 3.77755ZM5.73009 14.5998C7.71636 15.5311 9.80626 15.4589 11.7432 14.8157C13.9241 14.0915 15.9421 12.6381 17.5187 11.0225C19.1393 9.36187 20.3687 7.45198 20.8133 5.85529C21.0331 5.06626 21.0936 4.23568 20.7764 3.54099C20.429 2.78026 19.7185 2.36557 18.8179 2.28371C15.2926 1.96328 12.4762 3.09906 10.274 4.90739C8.49999 6.36419 7.13342 8.24841 6.09309 10.1368C5.51265 11.1905 5.02993 12.2524 4.63228 13.2539C3.52412 16.0447 3.06185 18.8552 3.00031 21.0091C2.98848 21.4232 3.31454 21.7684 3.72859 21.7802C4.14263 21.7921 4.48787 21.466 4.4997 21.052C4.55093 19.2589 4.90502 16.9476 5.73009 14.5998Z" fill="#363538"/>
</svg>
