<svg width="24" height="24" viewBox="0 0 24 24" fill="none" xmlns="http://www.w3.org/2000/svg">
<path d="M5.75 2.49976C5.75 2.08554 5.41421 1.74976 5 1.74976C4.58579 1.74976 4.25 2.08554 4.25 2.49976V3.74976H3C2.58579 3.74976 2.25 4.08554 2.25 4.49976C2.25 4.91397 2.58579 5.24976 3 5.24976H4.25V6.49976C4.25 6.91397 4.58579 7.24976 5 7.24976C5.41421 7.24976 5.75 6.91397 5.75 6.49976V5.24976H7C7.41421 5.24976 7.75 4.91397 7.75 4.49976C7.75 4.08554 7.41421 3.74976 7 3.74976H5.75V2.49976Z" fill="#363538"/>
<path fill-rule="evenodd" clip-rule="evenodd" d="M11.7432 14.8157C9.80625 15.4589 7.71636 15.531 5.73009 14.5998C4.90501 16.9476 4.55092 19.2589 4.49969 21.0519C4.48786 21.466 4.14262 21.792 3.72858 21.7802C3.31454 21.7684 2.98848 21.4231 3.00031 21.0091C3.06185 18.8552 3.52411 16.0447 4.63227 13.2538C5.02993 12.2523 5.51264 11.1904 6.09309 10.1368C7.13342 8.24838 8.49998 6.36416 10.274 4.90737C12.4762 3.09903 15.2926 1.96325 18.8179 2.28368C19.7185 2.36554 20.429 2.78024 20.7764 3.54096C21.0936 4.23565 21.033 5.06623 20.8133 5.85526C20.3687 7.45195 19.1393 9.36184 17.5187 11.0225C15.9421 12.6381 13.9241 14.0915 11.7432 14.8157ZM11.226 6.0666C13.1597 4.4787 15.5935 3.49678 18.6821 3.77752C19.179 3.82269 19.3384 4.00306 19.4119 4.16399C19.5155 4.39094 19.5477 4.80859 19.3683 5.45288C19.0673 6.53393 18.2601 7.92453 17.0907 9.27346C16.7511 8.94734 16.2889 8.6915 15.7085 8.53613C14.6349 8.24872 13.1269 8.28821 11.0681 8.80291C10.6663 8.90337 10.4219 9.31057 10.5224 9.71242C10.6229 10.1143 11.0301 10.3586 11.4319 10.2581C13.3731 9.77283 14.5958 9.79108 15.3206 9.9851C15.6905 10.0841 15.9173 10.2227 16.0563 10.3602C14.6675 11.6911 12.9987 12.8183 11.2705 13.3921C9.58932 13.9504 7.8782 13.9804 6.27642 13.1981C6.60159 12.4311 6.97673 11.6415 7.40691 10.8606C8.38836 9.07906 9.64405 7.36563 11.226 6.0666Z" fill="#363538"/>
</svg>
