<svg width="24" height="24" viewBox="0 0 24 24" fill="none" xmlns="http://www.w3.org/2000/svg">
<path fill-rule="evenodd" clip-rule="evenodd" d="M4.26592 2.51109C4.51808 1.82964 5.48192 1.82964 5.73408 2.51109L6.08314 3.45441C6.16242 3.66866 6.33134 3.83758 6.54559 3.91686L7.48891 4.26592C8.17036 4.51808 8.17036 5.48192 7.48891 5.73408L6.54559 6.08314C6.33134 6.16242 6.16242 6.33134 6.08314 6.54559L5.73408 7.48891C5.48192 8.17036 4.51808 8.17036 4.26592 7.48891L3.91686 6.54559C3.83758 6.33134 3.66866 6.16242 3.45441 6.08314L2.51109 5.73408C1.82964 5.48192 1.82964 4.51808 2.51109 4.26592L3.45441 3.91686C3.66866 3.83758 3.83758 3.66866 3.91686 3.45441L4.26592 2.51109ZM4.56429 5C4.72853 4.87513 4.87513 4.72853 5 4.56429C5.12487 4.72853 5.27147 4.87513 5.43571 5C5.27147 5.12487 5.12487 5.27147 5 5.43571C4.87513 5.27147 4.72853 5.12487 4.56429 5Z" fill="#363538"/>
<path fill-rule="evenodd" clip-rule="evenodd" d="M11.7432 14.8159C9.80625 15.4591 7.71636 15.5313 5.73009 14.6C4.90501 16.9478 4.55092 19.2591 4.49969 21.0522C4.48786 21.4662 4.14262 21.7923 3.72858 21.7805C3.31454 21.7686 2.98848 21.4234 3.00031 21.0093C3.06185 18.8554 3.52411 16.0449 4.63227 13.2541C5.02993 12.2526 5.51264 11.1907 6.09309 10.137C7.13342 8.24862 8.49998 6.36441 10.274 4.90761C12.4762 3.09927 15.2926 1.9635 18.8179 2.28392C19.7185 2.36578 20.429 2.78048 20.7764 3.5412C21.0936 4.2359 21.033 5.06647 20.8133 5.8555C20.3687 7.45219 19.1393 9.36208 17.5187 11.0227C15.9421 12.6383 13.9241 14.0918 11.7432 14.8159ZM11.226 6.06685C13.1597 4.47895 15.5935 3.49703 18.6821 3.77777C19.179 3.82293 19.3384 4.0033 19.4119 4.16423C19.5155 4.39118 19.5477 4.80883 19.3683 5.45312C19.0673 6.53417 18.2601 7.92478 17.0907 9.2737C16.7511 8.94758 16.2889 8.69175 15.7085 8.53637C14.6349 8.24897 13.1269 8.28845 11.0681 8.80315C10.6663 8.90362 10.4219 9.31082 10.5224 9.71266C10.6229 10.1145 11.0301 10.3588 11.4319 10.2584C13.3731 9.77307 14.5958 9.79132 15.3206 9.98535C15.6905 10.0844 15.9173 10.2229 16.0563 10.3605C14.6675 11.6914 12.9987 12.8185 11.2705 13.3924C9.58932 13.9506 7.8782 13.9806 6.27642 13.1983C6.60159 12.4314 6.97673 11.6417 7.40691 10.8608C8.38836 9.0793 9.64405 7.36587 11.226 6.06685Z" fill="#363538"/>
</svg>
