<svg width="24" height="24" viewBox="0 0 24 24" fill="none" xmlns="http://www.w3.org/2000/svg">
<path fill-rule="evenodd" clip-rule="evenodd" d="M5.44995 6.325C5.44995 4.31957 7.07568 2.69385 9.08111 2.69385H14.9931C16.9985 2.69385 18.6243 4.31957 18.6243 6.325C18.6243 7.49871 18.0674 8.54235 17.2035 9.20614C18.0674 9.86993 18.6243 10.9136 18.6243 12.0873C18.6243 14.0927 16.9985 15.7184 14.9931 15.7184H14.9183C14.122 15.7184 13.3856 15.4621 12.7871 15.0276V17.8121C12.7871 19.8445 11.1195 21.4807 9.0997 21.4807C7.10055 21.4807 5.44995 19.8612 5.44995 17.8495C5.44995 16.6758 6.00681 15.6322 6.87075 14.9684C6.00681 14.3046 5.44995 13.261 5.44995 12.0873C5.44995 10.9136 6.00681 9.86992 6.87075 9.20614C6.00681 8.54235 5.44995 7.4987 5.44995 6.325ZM11.2871 12.0819C11.2871 12.0837 11.2871 12.0855 11.2871 12.0873C11.2871 12.089 11.2871 12.0908 11.2871 12.0926V14.2184H9.08111L9.07014 14.2184C7.89818 14.2125 6.94995 13.2606 6.94995 12.0873C6.94995 10.9139 7.89827 9.96195 9.07032 9.95614L9.08111 9.95616H11.2871L11.2871 12.0819ZM15.0039 8.45613C15.0003 8.45612 14.9967 8.45612 14.9931 8.45612H14.9183C14.9123 8.45612 14.9064 8.45613 14.9005 8.45616H12.7871V4.19385H14.9931C16.1701 4.19385 17.1243 5.148 17.1243 6.325C17.1243 7.49841 16.1759 8.45032 15.0039 8.45613ZM12.7871 12.0913C12.7893 13.2665 13.7426 14.2184 14.9183 14.2184H14.9931C16.1701 14.2184 17.1243 13.2643 17.1243 12.0873C17.1243 10.9139 16.1759 9.96195 15.0039 9.95614C15.0003 9.95615 14.9967 9.95616 14.9931 9.95616H14.9047C13.7353 9.96346 12.7893 10.9126 12.7871 12.0832V12.0913ZM9.08111 15.7184L9.07014 15.7184C7.89818 15.7243 6.94995 16.6762 6.94995 17.8495C6.94995 19.0203 7.9164 19.9807 9.0997 19.9807C10.3037 19.9807 11.2871 19.0035 11.2871 17.8121V15.7184H9.08111ZM11.2871 8.45612H9.08111L9.07032 8.45613C7.89827 8.45032 6.94995 7.49841 6.94995 6.325C6.94995 5.148 7.9041 4.19385 9.08111 4.19385H11.2871V8.45612Z" fill="#363538"/>
</svg>
