<svg width="24" height="24" viewBox="0 0 24 24" fill="none" xmlns="http://www.w3.org/2000/svg">
<path fill-rule="evenodd" clip-rule="evenodd" d="M5.1 2.25C3.56089 2.25 2.25 3.44715 2.25 5V9C2.25 10.5528 3.56089 11.75 5.1 11.75H7.9C9.43911 11.75 10.75 10.5528 10.75 9V5.96207C10.75 5.29502 10.4992 4.65571 10.0519 4.15876L9.18605 3.19669C8.64039 2.59041 7.85303 2.25 7.03414 2.25H5.1ZM3.75 5C3.75 4.34371 4.31951 3.75 5.1 3.75H7.03414C7.44132 3.75 7.81883 3.91984 8.0711 4.20014L8.93697 5.16221C9.1422 5.39024 9.25 5.67427 9.25 5.96207V9C9.25 9.65629 8.68049 10.25 7.9 10.25H5.1C4.31951 10.25 3.75 9.65629 3.75 9V5Z" fill="#363538"/>
<path fill-rule="evenodd" clip-rule="evenodd" d="M21.25 15.6C21.25 14.0609 20.0528 12.75 18.5 12.75H14.5C12.9472 12.75 11.75 14.0609 11.75 15.6V18.4C11.75 19.9391 12.9472 21.25 14.5 21.25H17.5379C18.205 21.25 18.8443 20.9992 19.3412 20.5519L20.3033 19.686C20.9096 19.1404 21.25 18.353 21.25 17.5341V15.6ZM18.5 14.25C19.1563 14.25 19.75 14.8195 19.75 15.6V17.5341C19.75 17.9413 19.5802 18.3188 19.2999 18.5711L18.3378 19.437C18.1098 19.6422 17.8257 19.75 17.5379 19.75H14.5C13.8437 19.75 13.25 19.1805 13.25 18.4V15.6C13.25 14.8195 13.8437 14.25 14.5 14.25H18.5Z" fill="#363538"/>
<path d="M5.5 16.0607L5.28033 16.2803C4.98744 16.5732 4.51256 16.5732 4.21967 16.2803C3.92678 15.9874 3.92678 15.5126 4.21967 15.2197L5.71821 13.7211C5.85404 13.5846 6.04215 13.5 6.25 13.5C6.44807 13.5 6.6282 13.5768 6.76227 13.7022C6.76838 13.7079 6.7744 13.7137 6.78033 13.7197L8.28033 15.2197C8.57322 15.5126 8.57322 15.9874 8.28033 16.2803C7.98744 16.5732 7.51256 16.5732 7.21967 16.2803L7 16.0607V17.25C7 17.9403 7.55964 18.5 8.25 18.5H9.25C9.66421 18.5 10 18.8357 10 19.25C10 19.6642 9.66421 20 9.25 20H8.25C6.73122 20 5.5 18.7687 5.5 17.25V16.0607Z" fill="#363538"/>
<path d="M16.25 11C16.4579 11 16.646 10.9154 16.7818 10.7788Z" fill="#363538"/>
<path d="M16.7818 10.7788L18.2803 9.28028C18.5732 8.98739 18.5732 8.51252 18.2803 8.21962C17.9874 7.92673 17.5126 7.92673 17.2197 8.21962L17 8.43929V7.25C17 5.73122 15.7688 4.5 14.25 4.5H13.25C12.8358 4.5 12.5 4.83579 12.5 5.25C12.5 5.66421 12.8358 6 13.25 6H14.25C14.9404 6 15.5 6.55964 15.5 7.25V8.43929L15.2803 8.21962C14.9874 7.92673 14.5126 7.92673 14.2197 8.21962C13.9268 8.51251 13.9268 8.98739 14.2197 9.28028L15.7197 10.7803C15.7263 10.7869 15.733 10.7934 15.7398 10.7997C15.8737 10.924 16.053 11 16.25 11" fill="#363538"/>
</svg>
