<svg width="24" height="24" viewBox="0 0 24 24" fill="none" xmlns="http://www.w3.org/2000/svg">
<path fill-rule="evenodd" clip-rule="evenodd" d="M5.1 2.25C3.56089 2.25 2.25 3.44715 2.25 5V9C2.25 10.5528 3.56089 11.75 5.1 11.75H7.9C9.43911 11.75 10.75 10.5528 10.75 9V5.96207C10.75 5.29502 10.4992 4.65571 10.0519 4.15876L9.18605 3.19669C8.64039 2.59041 7.85303 2.25 7.03414 2.25H5.1ZM3.75 5C3.75 4.34371 4.31951 3.75 5.1 3.75H7.03414C7.44132 3.75 7.81883 3.91984 8.0711 4.20014L8.93697 5.16221C9.1422 5.39024 9.25 5.67427 9.25 5.96207V9C9.25 9.65629 8.68049 10.25 7.9 10.25H5.1C4.31951 10.25 3.75 9.65629 3.75 9V5Z" fill="#363538"/>
<path fill-rule="evenodd" clip-rule="evenodd" d="M15.1 12.25C13.5609 12.25 12.25 13.4472 12.25 15V19C12.25 20.5528 13.5609 21.75 15.1 21.75H17.9C19.4391 21.75 20.75 20.5528 20.75 19V15.9621C20.75 15.295 20.4992 14.6557 20.0519 14.1588L19.186 13.1967C18.6404 12.5904 17.853 12.25 17.0341 12.25H15.1ZM13.75 15C13.75 14.3437 14.3195 13.75 15.1 13.75H17.0341C17.4413 13.75 17.8188 13.9198 18.0711 14.2001L18.937 15.1622C19.1422 15.3902 19.25 15.6743 19.25 15.9621V19C19.25 19.6563 18.6805 20.25 17.9 20.25H15.1C14.3195 20.25 13.75 19.6563 13.75 19V15Z" fill="#363538"/>
<path d="M12.4491 7.50892C12.4558 7.51618 12.4627 7.52332 12.4697 7.53033L13.9697 9.03033C14.2626 9.32322 14.7374 9.32322 15.0303 9.03033C15.3232 8.73744 15.3232 8.26256 15.0303 7.96967L14.8107 7.75H16C16.6903 7.75 17.25 8.30964 17.25 9V10C17.25 10.4142 17.5857 10.75 18 10.75C18.4142 10.75 18.75 10.4142 18.75 10V9C18.75 7.48122 17.5187 6.25 16 6.25H14.8107L15.0303 6.03033C15.3232 5.73744 15.3232 5.26256 15.0303 4.96967C14.7374 4.67678 14.2626 4.67678 13.9697 4.96967L12.4711 6.46821C12.3346 6.60404 12.25 6.79215 12.25 7C12.25 7.19642 12.3255 7.37521 12.4491 7.50892Z" fill="#363538"/>
<path d="M8.18934 16.25H7.00005C6.30969 16.25 5.75005 15.6904 5.75005 15V14C5.75005 13.5858 5.41426 13.25 5.00005 13.25C4.58583 13.25 4.25005 13.5858 4.25005 14V15C4.25005 16.5188 5.48126 17.75 7.00005 17.75H8.18934L7.96967 17.9697C7.67678 18.2626 7.67678 18.7374 7.96967 19.0303C8.26256 19.3232 8.73744 19.3232 9.03033 19.0303L10.5288 17.5318C10.6654 17.396 10.75 17.2079 10.75 17C10.75 16.8011 10.671 16.6103 10.5303 16.4697L9.03033 14.9697C8.73744 14.6768 8.26256 14.6768 7.96967 14.9697C7.67678 15.2626 7.67678 15.7374 7.96967 16.0303L8.18934 16.25Z" fill="#363538"/>
</svg>
