<svg width="24" height="24" viewBox="0 0 24 24" fill="none" xmlns="http://www.w3.org/2000/svg">
<path fill-rule="evenodd" clip-rule="evenodd" d="M7.90695 8.74453C7.57591 10.0413 6.39994 11.0002 5 11.0002C3.34315 11.0002 2 9.6571 2 8.00024C2 6.34339 3.34315 5.00024 5 5.00024C6.39994 5.00024 7.57591 5.95914 7.90695 7.25596C7.93744 7.25219 7.96849 7.25024 8 7.25024L21 7.25024C21.4142 7.25024 21.75 7.58603 21.75 8.00024C21.75 8.41446 21.4142 8.75024 21 8.75024L8 8.75024C7.96849 8.75024 7.93744 8.7483 7.90695 8.74453ZM6.5 8.00024C6.5 8.82867 5.82843 9.50024 5 9.50024C4.17157 9.50024 3.5 8.82867 3.5 8.00024C3.5 7.17182 4.17157 6.50024 5 6.50024C5.82843 6.50024 6.5 7.17182 6.5 8.00024Z" fill="#363538"/>
<path fill-rule="evenodd" clip-rule="evenodd" d="M22 16.0002C22 17.6571 20.6569 19.0002 19 19.0002C17.6001 19.0002 16.4241 18.0413 16.093 16.7445C16.0626 16.7483 16.0315 16.7502 16 16.7502L3 16.7502C2.58579 16.7502 2.25 16.4145 2.25 16.0002C2.25 15.586 2.58579 15.2502 3 15.2502L16 15.2502C16.0315 15.2502 16.0626 15.2522 16.093 15.256C16.4241 13.9591 17.6001 13.0002 19 13.0002C20.6569 13.0002 22 14.3434 22 16.0002ZM20.5 16.0002C20.5 16.8287 19.8284 17.5002 19 17.5002C18.1716 17.5002 17.5 16.8287 17.5 16.0002C17.5 15.1718 18.1716 14.5002 19 14.5002C19.8284 14.5002 20.5 15.1718 20.5 16.0002Z" fill="#363538"/>
</svg>
