<svg width="24" height="24" viewBox="0 0 24 24" fill="none" xmlns="http://www.w3.org/2000/svg">
<path d="M10.1289 15.1064C11.4086 14.5578 12.8703 14.5968 14.124 15.2236L14.335 15.3291L14.4023 15.3672C14.7232 15.5706 14.8442 15.9878 14.6709 16.335C14.4973 16.6822 14.0907 16.8358 13.7354 16.7012L13.665 16.6709L13.4531 16.5654C12.5383 16.1081 11.4617 16.1081 10.5469 16.5654L10.335 16.6709C9.96455 16.8558 9.51428 16.7053 9.3291 16.335C9.14416 15.9646 9.29469 15.5143 9.66504 15.3291L9.87598 15.2236L10.1289 15.1064Z" fill="#363538"/>
<path fill-rule="evenodd" clip-rule="evenodd" d="M12 2.25C13.5056 2.25 14.6789 2.93769 15.5605 3.89941C16.4281 4.84579 17.0322 6.07403 17.4551 7.24512C17.8807 8.42389 18.14 9.59418 18.293 10.4639C18.3697 10.9001 18.4205 11.2645 18.4521 11.5215C18.468 11.6501 18.4791 11.7525 18.4863 11.8232C18.4899 11.8585 18.4924 11.886 18.4941 11.9053C18.495 11.9148 18.4956 11.9223 18.4961 11.9277C18.4963 11.9305 18.4971 11.9346 18.4971 11.9346V11.9375L18.499 11.9551L18.5 11.9736L18.5283 12.7842L18.8887 13.5342L19.0879 13.9824C19.5242 15.0396 19.75 16.1735 19.75 17.3203V20C19.75 20.4142 19.4142 20.75 19 20.75C18.5858 20.75 18.25 20.4142 18.25 20V17.3203C18.25 16.8723 18.2069 16.4269 18.125 15.9893C17.2391 18.1876 15.0882 19.7498 12.5596 19.75H11.4404C8.91268 19.7498 6.76056 18.1894 5.87402 15.9922C5.79259 16.4289 5.75002 16.8733 5.75 17.3203V20C5.75 20.4142 5.41421 20.75 5 20.75C4.58579 20.75 4.25 20.4142 4.25 20V17.3203C4.25004 16.0097 4.54421 14.7157 5.11133 13.5342L5.4707 12.7842L5.5 11.9736L5.50098 11.9551L5.50293 11.9375V11.9346C5.50293 11.9346 5.50367 11.9305 5.50391 11.9277C5.50438 11.9223 5.50498 11.9148 5.50586 11.9053C5.50764 11.886 5.51008 11.8585 5.51367 11.8232C5.52088 11.7525 5.53204 11.6501 5.54785 11.5215C5.57947 11.2645 5.63028 10.9001 5.70703 10.4639C5.86003 9.59418 6.11925 8.42389 6.54492 7.24512C6.96784 6.07403 7.57194 4.84579 8.43945 3.89941C9.32106 2.93769 10.4944 2.25 12 2.25ZM12 3.75C11.0056 3.75 10.2102 4.18735 9.54492 4.91309C8.86566 5.65414 8.34464 6.67609 7.95508 7.75488C7.5683 8.82603 7.32746 9.90588 7.18359 10.7236C7.11193 11.131 7.06507 11.4699 7.03613 11.7051C7.02172 11.8223 7.01208 11.9136 7.00586 11.9746C7.0032 12.0007 7.00039 12.0215 6.99902 12.0361L6.94336 13.5898C6.85268 16.1361 8.89253 18.2498 11.4404 18.25H12.5596C15.0279 18.2498 17.0191 16.2661 17.0586 13.8271L17.0566 13.5898L17 12.0361C16.9986 12.0215 16.9968 12.0007 16.9941 11.9746C16.9879 11.9136 16.9783 11.8223 16.9639 11.7051C16.9349 11.4699 16.8881 11.131 16.8164 10.7236C16.6725 9.90588 16.4317 8.82603 16.0449 7.75488C15.6554 6.67609 15.1343 5.65414 14.4551 4.91309C13.7898 4.18735 12.9944 3.75 12 3.75Z" fill="#363538"/>
</svg>
