<svg width="24" height="24" viewBox="0 0 24 24" fill="none" xmlns="http://www.w3.org/2000/svg">
<path fill-rule="evenodd" clip-rule="evenodd" d="M15.9899 2.31377C15.9899 2.31393 15.9899 2.3136 15.9899 2.31377L15.9901 2.31507L15.9935 2.33575C15.9968 2.35581 16.0025 2.3882 16.011 2.43185C16.028 2.51919 16.0562 2.65131 16.0994 2.81961C16.1858 3.15667 16.3315 3.63604 16.5661 4.18996C17.0362 5.30029 17.8543 6.68906 19.2481 7.84203C19.2989 7.8841 19.344 7.9327 19.3821 7.98656C20.7282 9.88794 21.4592 12.577 21.0098 15.1567C20.5532 17.7781 18.883 20.243 15.5314 21.6141C10.8784 23.5175 6.38018 21.4668 4.21575 18.005C3.13135 16.2706 2.61993 14.1666 2.96824 12.0112C3.31761 9.84936 4.52242 7.69276 6.77101 5.84098C6.96421 5.68188 7.22404 5.62963 7.46372 5.70168C7.70341 5.77374 7.89135 5.96061 7.96478 6.19988C8.28058 7.22884 8.50255 8.01736 8.6762 8.63665L8.68861 8.6809C8.85778 9.28427 8.97445 9.70039 9.08869 10.0316C9.20182 10.3596 9.30315 10.5751 9.43041 10.77C9.5608 10.9697 9.73678 11.1761 10.0303 11.4696C10.3455 11.7848 10.711 11.8794 11.1114 11.8229C11.5372 11.7629 12.0079 11.5256 12.4139 11.1556C12.8198 10.7857 13.1052 10.3339 13.2141 9.9155C13.3182 9.51513 13.2593 9.17532 13.0298 8.89502L13.0209 8.88394C12.3185 7.99201 12.0666 7.06135 12.1207 6.17128C12.1735 5.30198 12.5143 4.52418 12.9072 3.89682C13.3018 3.26689 13.7722 2.75148 14.137 2.39737C14.3209 2.21889 14.4816 2.07786 14.5981 1.98014C14.6564 1.9312 14.7039 1.89292 14.7379 1.86602C14.755 1.85256 14.7686 1.84193 14.7787 1.83423L14.7909 1.82486L14.7949 1.82184L14.7963 1.82075C14.7966 1.82056 14.7974 1.81994 15.2474 2.41993L14.7974 1.81994C15.0094 1.66094 15.2896 1.62561 15.5344 1.727C15.7787 1.82816 15.9516 2.05047 15.9896 2.31205C15.9896 2.31211 15.9896 2.31199 15.9896 2.31205C15.9897 2.31226 15.9899 2.31356 15.9899 2.31377ZM14.8335 3.83482C14.6108 4.08167 14.3796 4.37201 14.1785 4.69304C13.8668 5.19068 13.6506 5.72538 13.6179 6.26232C13.5866 6.77712 13.7198 7.34479 14.1955 7.95103C14.7802 8.66945 14.8657 9.52444 14.6658 10.2931C14.4699 11.0459 14.0005 11.7392 13.4242 12.2643C12.8481 12.7893 12.1092 13.197 11.321 13.3082C10.5074 13.423 9.65447 13.2151 8.96966 12.5303C8.64482 12.2054 8.3866 11.9151 8.17442 11.5901C7.95909 11.2603 7.80946 10.9231 7.67067 10.5207C7.54166 10.1467 7.41411 9.69165 7.25411 9.12086C7.24678 9.0947 7.23938 9.06829 7.2319 9.04163C7.13024 8.67906 7.01291 8.26173 6.87035 7.77366C5.43491 9.2132 4.68963 10.7617 4.44903 12.2505C4.16356 14.017 4.57908 15.7567 5.48761 17.2098C7.30905 20.123 11.0606 21.8223 14.9635 20.2258C17.8333 19.0518 19.1633 17.0167 19.5321 14.8993C19.9021 12.7752 19.3094 10.5258 18.2123 8.93127C16.6327 7.59798 15.7116 6.01881 15.1848 4.77489C15.0405 4.43412 14.9251 4.11699 14.8335 3.83482Z" fill="#363538"/>
<path fill-rule="evenodd" clip-rule="evenodd" d="M13.2494 16.2707C12.7231 16.8792 12.1403 17.2269 11.5333 17.3454C11.2786 17.3951 11.0347 17.4015 10.8061 17.3772C10.835 17.4799 10.8757 17.5832 10.9298 17.6824C11.1142 18.0209 11.4152 18.2499 11.8689 18.2499C12.302 18.2499 12.5972 18.0585 12.8213 17.7384C13.0637 17.3922 13.2075 16.9047 13.242 16.4292C13.246 16.3749 13.2484 16.3219 13.2494 16.2707ZM14.05 18.5988C13.5924 19.2523 12.8683 19.7499 11.8689 19.7499C10.78 19.7499 10.0159 19.1402 9.61264 18.4001C9.22865 17.6954 9.13285 16.8072 9.40558 16.0953C9.48504 15.8879 9.65234 15.7264 9.8624 15.6543C10.0725 15.5821 10.3037 15.6068 10.4938 15.7217C10.7091 15.8518 10.9723 15.9266 11.246 15.8732C11.5082 15.822 11.9055 15.6287 12.3534 14.9792C12.5478 14.6973 12.8339 14.3811 13.2412 14.2807C13.7576 14.1535 14.1533 14.4288 14.3627 14.7123C14.5522 14.9689 14.6481 15.2878 14.6975 15.5709C14.7495 15.8693 14.7625 16.2012 14.7381 16.5378C14.69 17.2006 14.4894 17.9714 14.05 18.5988Z" fill="#363538"/>
</svg>
