<svg width="24" height="24" viewBox="0 0 24 24" fill="none" xmlns="http://www.w3.org/2000/svg">
<path fill-rule="evenodd" clip-rule="evenodd" d="M16.7501 6C17.5001 6 16.7501 5.99899 16.7501 5.99899L16.7501 5.9979L16.7501 5.99552L16.7501 5.98989L16.7498 5.97527C16.7496 5.96405 16.7492 5.9499 16.7484 5.93301C16.7469 5.89925 16.7441 5.85439 16.7389 5.79999C16.7286 5.69144 16.7086 5.54331 16.6698 5.36855C16.5925 5.02096 16.4376 4.55416 16.1242 4.08397C15.4681 3.09982 14.2186 2.25 12.0001 2.25C9.78164 2.25 8.53219 3.09982 7.87609 4.08397C7.56263 4.55416 7.40772 5.02096 7.33048 5.36855C7.29165 5.54331 7.27165 5.69144 7.26131 5.79999C7.25613 5.85439 7.25334 5.89925 7.25184 5.93301C7.25109 5.9499 7.25066 5.96405 7.25042 5.97527L7.25018 5.98989L7.25013 5.99552L7.25012 5.9979L7.25012 5.99899C7.25012 5.99899 6.51131 6 7.26131 6H5.54139C4.07488 6 2.8233 7.06024 2.58221 8.5068C2.27744 10.3354 3.68757 12 5.54139 12H18.4586C20.3124 12 21.7226 10.3354 21.4178 8.5068C21.1767 7.06024 19.9251 6 18.4586 6H16.7501ZM15.2499 6H8.75034C8.7508 5.98981 8.75192 5.96983 8.75456 5.9422C8.75984 5.88668 8.7711 5.80044 8.79476 5.69395C8.84252 5.47904 8.93762 5.19584 9.12416 4.91603C9.46806 4.40018 10.2186 3.75 12.0001 3.75C13.7816 3.75 14.5322 4.40018 14.8761 4.91603C15.0626 5.19584 15.1577 5.47904 15.2055 5.69395C15.2291 5.80044 15.2404 5.88668 15.2457 5.9422C15.2483 5.96983 15.2494 5.98981 15.2499 6ZM5.54139 10.5C4.61448 10.5 3.90942 9.6677 4.0618 8.7534C4.18235 8.03012 4.80813 7.5 5.54139 7.5H18.4586C19.1919 7.5 19.8177 8.03012 19.9382 8.7534C20.0906 9.6677 19.3855 10.5 18.4586 10.5H5.54139Z" fill="#363538"/>
<path d="M12.75 14.5C12.75 14.0858 12.4142 13.75 12 13.75C11.5858 13.75 11.25 14.0858 11.25 14.5V15.75H10C9.58579 15.75 9.25 16.0858 9.25 16.5C9.25 16.9142 9.58579 17.25 10 17.25H11.25V18.5C11.25 18.9142 11.5858 19.25 12 19.25C12.4142 19.25 12.75 18.9142 12.75 18.5V17.25H14C14.4142 17.25 14.75 16.9142 14.75 16.5C14.75 16.0858 14.4142 15.75 14 15.75H12.75V14.5Z" fill="#363538"/>
<path d="M20.7426 14.1061C20.8012 13.696 20.5162 13.3161 20.1062 13.2575C19.6961 13.199 19.3162 13.4839 19.2577 13.8939L18.7483 17.4596C18.5195 19.0607 17.1483 20.25 15.5309 20.25H8.4693C6.85194 20.25 5.4807 19.0607 5.25197 17.4596L4.74258 13.8939C4.68401 13.4839 4.30411 13.199 3.89406 13.2575C3.48401 13.3161 3.19908 13.696 3.25766 14.1061L3.76704 17.6718C4.10134 20.0118 6.10546 21.75 8.4693 21.75H15.5309C17.8948 21.75 19.8989 20.0118 20.2332 17.6718L20.7426 14.1061Z" fill="#363538"/>
</svg>
