<svg width="24" height="24" viewBox="0 0 24 24" fill="none" xmlns="http://www.w3.org/2000/svg">
<path fill-rule="evenodd" clip-rule="evenodd" d="M11.5244 12.251C12.9896 12.2982 14.3428 13.2271 15.2764 14.002C15.365 13.9166 15.4496 13.8377 15.5273 13.7637C15.6575 13.6397 15.8054 13.5005 15.9326 13.4092C15.971 13.3816 16.1276 13.2654 16.3389 13.2305C16.4688 13.209 16.7112 13.2049 16.9385 13.376C17.1036 13.5003 17.1809 13.657 17.2168 13.7764L17.2402 13.8809L17.2646 14.0674C17.2818 14.2452 17.2795 14.3973 17.2725 14.5361C17.2625 14.7327 17.25 14.8289 17.25 15C17.25 15.1712 17.2625 15.2674 17.2725 15.4639C17.2819 15.649 17.2825 15.8583 17.2402 16.1201C17.2214 16.2363 17.159 16.4537 16.9473 16.6182C16.7278 16.7884 16.4904 16.792 16.3574 16.7734C16.143 16.7435 15.983 16.63 15.9434 16.6025C15.8138 16.5129 15.6637 16.3762 15.5332 16.2549C15.4555 16.1826 15.3723 16.1046 15.2842 16.0215C14.3503 16.8064 12.9849 17.7499 11.5 17.75C10.0187 17.7501 9.06779 17.1453 8.49805 16.4941C8.22178 16.1784 8.04467 15.8631 7.93555 15.625C7.88076 15.5054 7.84223 15.4033 7.81641 15.3271C7.80346 15.289 7.79327 15.2569 7.78613 15.2324C7.78261 15.2203 7.77961 15.2096 7.77734 15.2012C7.77625 15.1971 7.77523 15.1936 7.77441 15.1904C7.77399 15.1888 7.77379 15.1869 7.77344 15.1855L7.77246 15.1836C7.74318 15.0665 7.74233 14.9426 7.77051 14.8252L8.5 15C7.77882 14.8267 7.77049 14.8256 7.77051 14.8252L7.77148 14.8232V14.8213L7.77539 14.8057C7.77759 14.7972 7.78071 14.7868 7.78418 14.7744C7.79115 14.7496 7.80072 14.7167 7.81348 14.6777C7.83894 14.5999 7.87726 14.4947 7.93164 14.3721C8.03983 14.1282 8.21647 13.804 8.49316 13.4814C9.066 12.8137 10.0286 12.2029 11.5244 12.251ZM11.4756 13.75C10.472 13.7178 9.93404 14.1058 9.63184 14.458C9.47118 14.6453 9.36644 14.8368 9.30273 14.9805C9.30058 14.9853 9.29893 14.9904 9.29688 14.9951C9.2976 14.9967 9.29809 14.9984 9.29883 15C9.36157 15.1369 9.46576 15.3226 9.62695 15.5068C9.93223 15.8557 10.4815 16.2501 11.5 16.25C12.358 16.2499 13.2928 15.7043 14.1465 15.0156C13.2928 14.3341 12.3479 13.7781 11.4756 13.75Z" fill="#363538"/>
<path fill-rule="evenodd" clip-rule="evenodd" d="M18.5 3.25C18.7646 3.25 19.0094 3.3897 19.1445 3.61719C19.2796 3.84466 19.2847 4.12604 19.1582 4.3584L17.9453 6.58398C18.2625 6.878 18.5593 7.19347 18.8301 7.53125C20.0308 9.02911 20.75 10.9315 20.75 13C20.75 17.8325 16.8325 21.75 12 21.75C7.16751 21.75 3.25 17.8325 3.25 13C3.25 11.841 3.47613 10.7331 3.88672 9.71875C4.37323 8.51686 5.11821 7.4484 6.05273 6.58203L4.8418 4.3584C4.71528 4.12604 4.72037 3.84466 4.85547 3.61719C4.99062 3.3897 5.23539 3.25 5.5 3.25H18.5ZM18.1758 9.19922C17.3059 9.9303 16.1025 10.2712 14.9688 10.3721C13.455 10.5068 11.8131 10.2448 10.665 9.6709C10.4129 9.54483 10.0365 9.47093 9.53516 9.47461C9.0422 9.47827 8.48218 9.55615 7.90332 9.68262C6.88758 9.90454 5.87512 10.2624 5.16992 10.5605C4.89794 11.322 4.75 12.143 4.75 13C4.75 17.0041 7.99594 20.25 12 20.25C16.0041 20.25 19.25 17.0041 19.25 13C19.25 11.6056 18.8574 10.3041 18.1758 9.19922ZM7.6582 6.39551C7.83192 6.71452 7.75217 7.11264 7.46875 7.33984C7.01983 7.69974 6.61674 8.11343 6.26465 8.56836C6.68776 8.43701 7.13371 8.31496 7.58301 8.2168C8.22449 8.07665 8.89321 7.97931 9.52344 7.97461C10.1451 7.97 10.7872 8.05535 11.335 8.3291C12.1869 8.75508 13.5408 8.99319 14.8359 8.87793C15.8788 8.78508 16.7275 8.47837 17.2559 8.00977C17.0292 7.77109 16.7883 7.54595 16.5312 7.33984C16.2478 7.11264 16.1681 6.71452 16.3418 6.39551L17.2383 4.75H6.76172L7.6582 6.39551Z" fill="#363538"/>
</svg>
