<svg width="24" height="24" viewBox="0 0 24 24" fill="none" xmlns="http://www.w3.org/2000/svg">
<path fill-rule="evenodd" clip-rule="evenodd" d="M5.25 19.9998C5.25 20.414 5.58579 20.7498 6 20.7498C6.41421 20.7498 6.75 20.414 6.75 19.9998L6.75 12.7498H16.6972C18.4287 12.7498 19.1086 10.5041 17.668 9.54367L15.6641 8.20778C15.5157 8.10882 15.5157 7.89071 15.6641 7.79175L17.6679 6.45597C19.1085 5.49554 18.4286 3.24987 16.6971 3.24987H6.01311C6.00875 3.24979 6.00438 3.24976 6 3.24976C5.58579 3.24976 5.25 3.58554 5.25 3.99976V19.9998ZM6.75 4.74987L6.75 11.2498H16.6972C16.7749 11.2498 16.8208 11.227 16.8514 11.2028C16.8869 11.1746 16.9191 11.1298 16.9365 11.0722C16.9539 11.0146 16.9521 10.9595 16.9381 10.9163C16.9261 10.8792 16.9006 10.8349 16.8359 10.7917L14.8321 9.45586C13.793 8.76316 13.793 7.23635 14.8321 6.54367L16.8358 5.20788C16.9005 5.16477 16.926 5.12045 16.938 5.08329C16.952 5.04016 16.9539 4.985 16.9364 4.92742C16.919 4.86985 16.8868 4.82499 16.8513 4.79685C16.8207 4.7726 16.7749 4.74987 16.6971 4.74987H6.75Z" fill="#363538"/>
</svg>
