<svg width="24" height="24" viewBox="0 0 24 24" fill="none" xmlns="http://www.w3.org/2000/svg">
<path d="M17.7822 9.80717C18.347 10.1242 18.627 10.8761 18.3095 11.5395L13.6181 21.3293C13.0282 22.5603 11.2499 22.1227 11.2499 20.7464V16.6244L12.746 15.0623C12.7472 15.0849 12.7499 15.1076 12.7499 15.1305V19.6418L16.7861 11.2175H16.4316L17.7822 9.80717Z" fill="#363538"/>
<path fill-rule="evenodd" clip-rule="evenodd" d="M10.4404 3.60337C11.0809 2.51108 12.7498 2.96404 12.7499 4.29732V9.65228H13.6894L18.4697 4.66417C18.7626 4.35854 19.2373 4.35854 19.5302 4.66417C19.8231 4.9698 19.8231 5.46522 19.5302 5.77083L5.53022 20.3795C5.23734 20.6851 4.76257 20.6851 4.46967 20.3795C4.17678 20.0739 4.17678 19.5785 4.46967 19.2729L8.1894 15.3914H6.80951C5.88029 15.3914 5.27579 14.3704 5.69135 13.5032L10.3818 3.71342L10.4404 3.60337ZM7.21381 13.8262H9.6894L12.2216 11.1829C11.6654 11.0507 11.25 10.5335 11.2499 9.91315V5.40194L7.21381 13.8262Z" fill="#363538"/>
</svg>
