<svg width="24" height="24" viewBox="0 0 24 24" fill="none" xmlns="http://www.w3.org/2000/svg">
<path d="M12.75 13.1716C12.7967 13.1365 12.8414 13.0977 12.8839 13.0553L15.4697 10.4695C15.7626 10.1766 16.2374 10.1766 16.5303 10.4695C16.8232 10.7624 16.8232 11.2372 16.5303 11.5301L13.9445 14.1159C12.8706 15.1899 11.1294 15.1899 10.0555 14.1159L7.46966 11.5301C7.17677 11.2372 7.17677 10.7624 7.46966 10.4695C7.76255 10.1766 8.23743 10.1766 8.53032 10.4695L11.1161 13.0553C11.1586 13.0977 11.2033 13.1365 11.25 13.1716L11.25 3C11.25 2.58579 11.5858 2.25 12 2.25C12.4142 2.25 12.75 2.58579 12.75 3L12.75 13.1716Z" fill="#363538"/>
<path d="M15.75 21C15.75 21.4142 15.4142 21.75 15 21.75H9C8.58579 21.75 8.25 21.4142 8.25 21C8.25 20.5858 8.58579 20.25 9 20.25H15C15.4142 20.25 15.75 20.5858 15.75 21Z" fill="#363538"/>
<path d="M18 17.75C18.4142 17.75 18.75 17.4142 18.75 17C18.75 16.5858 18.4142 16.25 18 16.25L6 16.25C5.58579 16.25 5.25 16.5858 5.25 17C5.25 17.4142 5.58579 17.75 6 17.75L18 17.75Z" fill="#363538"/>
</svg>
