<svg width="24" height="24" viewBox="0 0 24 24" fill="none" xmlns="http://www.w3.org/2000/svg">
<path fill-rule="evenodd" clip-rule="evenodd" d="M10.0999 5.07493C10.4605 5.48824 10.7282 5.86873 10.9836 6.3121C11.3503 5.74738 11.7878 5.27897 12.2563 4.90888C11.7403 4.5369 11.4035 4.49049 11.1634 4.52308C10.9677 4.54964 10.7446 4.63882 10.459 4.82158C10.3434 4.89556 10.2248 4.98002 10.0999 5.07493ZM13.7782 5.70006C13.0276 6.09288 12.2565 6.84243 11.8093 7.96897C12.3929 9.3166 12.5801 10.6167 12.701 12.5861C13.1521 12.4539 13.652 12.2487 14.1093 11.9558C14.8546 11.4785 15.4326 10.8073 15.5877 9.87658C15.7056 9.16963 15.7458 8.55867 15.7692 8.00375C15.7744 7.88076 15.7788 7.75722 15.7831 7.63402C15.7978 7.2205 15.8124 6.81071 15.8565 6.43769C15.9075 6.00598 16.0016 5.57609 16.1987 5.15157C15.9864 5.20797 15.75 5.24983 15.5 5.24983C15.0957 5.24983 14.8252 5.31594 14.5903 5.39743C14.487 5.43325 14.3938 5.47067 14.2846 5.51455C14.2564 5.52586 14.2272 5.53759 14.1965 5.54984C14.0745 5.59845 13.9341 5.65271 13.7782 5.70006ZM11.583 14.2315C9.35799 14.0375 6.75004 12.309 6.75004 8.99992C6.75004 7.26324 6.50801 6.15625 6.24144 5.4916C6.01683 4.93159 5.80751 4.75585 5.76186 4.71752C5.74975 4.70736 5.74916 4.70686 5.76287 4.71143C5.42606 4.59916 5.21411 4.26611 5.25504 3.91345C5.29597 3.56079 5.57857 3.28514 5.93214 3.253C6.41639 3.20897 7.05269 3.3379 7.63477 3.52587C8.06289 3.66413 8.51697 3.85232 8.93545 4.08169C9.17168 3.89208 9.41039 3.7118 9.65044 3.55817C10.0367 3.31093 10.4699 3.10346 10.9617 3.03671C11.8856 2.9113 12.758 3.3068 13.6833 4.13956C13.6926 4.13582 13.702 4.13201 13.7117 4.12813C13.8236 4.08312 13.9578 4.02911 14.0988 3.98024C14.4675 3.85237 14.9044 3.74983 15.5 3.74983C15.6304 3.74983 15.7902 3.71639 15.9986 3.64482C16.1375 3.59714 16.2455 3.55315 16.3667 3.50382C16.4557 3.46759 16.5518 3.42848 16.6723 3.38291C16.8961 3.29831 17.2137 3.18903 17.5451 3.19167C17.9384 3.19479 18.3254 3.35488 18.6033 3.73101C18.8481 4.06247 18.7797 4.52942 18.45 4.77668C18.0136 5.10397 17.7702 5.39202 17.6214 5.66084C17.4725 5.92967 17.3919 6.22612 17.3461 6.61383C17.3099 6.92 17.2983 7.24396 17.2841 7.64027C17.2793 7.7736 17.2743 7.91511 17.2679 8.06688C17.2433 8.65069 17.1995 9.33014 17.0673 10.1232C16.8224 11.5925 15.9034 12.588 14.9183 13.219C14.3388 13.5901 13.7179 13.8487 13.1507 14.0173C13.2862 14.3287 13.4062 14.6819 13.4863 15.0632C14.14 14.9455 15.0062 14.9144 15.8354 15.329C16.2059 15.5142 16.3561 15.9648 16.1709 16.3352C15.9856 16.7057 15.5351 16.8559 15.1646 16.6706C14.6469 16.4118 14.0613 16.4653 13.5536 16.5824C13.4993 16.9948 13.3795 17.418 13.1709 17.8353C12.458 19.261 12.6091 20.4552 12.7116 20.7627C12.8425 21.1556 12.6302 21.5804 12.2372 21.7114C11.8443 21.8423 11.4195 21.63 11.2885 21.237C11.0577 20.5445 10.9421 18.9387 11.8292 17.1644C12.0188 16.7852 12.0926 16.3928 12.0893 16.0063C12.0834 15.3098 11.8261 14.6552 11.583 14.2315ZM8.51975 5.58048C8.28543 5.42528 8.00852 5.28099 7.71806 5.15694C8.03188 6.0411 8.25004 7.28641 8.25004 8.99992C8.25004 11.1009 9.72067 12.3323 11.2025 12.6606C11.0754 10.6141 10.886 9.51362 10.322 8.32034C9.68149 6.9653 9.39585 6.46427 8.51975 5.58048Z" fill="#363538"/>
</svg>
