<svg width="24" height="24" viewBox="0 0 24 24" fill="none" xmlns="http://www.w3.org/2000/svg">
<path fill-rule="evenodd" clip-rule="evenodd" d="M2.51707 8.2963C2.34616 5.56173 4.51792 3.25 7.25782 3.25H11.5C12.7427 3.25 13.75 4.25736 13.75 5.5C13.75 5.91421 14.0858 6.25 14.5 6.25H16.8464C19.5138 6.25 21.6188 8.51232 21.4314 11.1689V12.5C21.4314 12.5911 21.4152 12.6784 21.3855 12.7591C21.7974 13.4852 21.9097 14.3866 21.5829 15.2622C21.5829 15.2624 21.5828 15.2627 21.5827 15.2629L20.4634 18.2622C20.4488 18.3014 20.4309 18.3392 20.41 18.3753C19.5864 19.8002 18.0456 20.75 16.2959 20.75H7.75782C6.00635 20.75 4.46667 19.7989 3.64368 18.3754C3.28668 17.7579 3.06426 17.0514 3.01707 16.2963L2.51707 8.2963ZM7.75782 19.25H16.2959C17.4706 19.25 18.5094 18.6245 19.0811 17.6759L20.1774 14.7384C20.1775 14.7382 20.1775 14.738 20.1776 14.7378C20.5368 13.7753 19.8251 12.75 18.7978 12.75H15.0205C13.761 12.75 12.803 11.6191 13.0101 10.3767C13.0647 10.0486 12.8117 9.75 12.4792 9.75H9.2983C7.74515 9.75 6.41151 10.8545 6.12211 12.3804L5.88328 13.6397L5.88004 13.6558L5.3288 16.2508C5.00066 17.7954 6.17869 19.25 7.75782 19.25ZM14.4896 10.6233C14.435 10.9514 14.688 11.25 15.0205 11.25H18.7978C19.2039 11.25 19.5856 11.3294 19.9314 11.4717V11.1414C19.9314 11.1222 19.9322 11.103 19.9337 11.0839C20.072 9.2855 18.6501 7.75 16.8464 7.75H14.5C13.2574 7.75 12.25 6.74264 12.25 5.5C12.25 5.08579 11.9142 4.75 11.5 4.75H7.25782C5.38315 4.75 3.89721 6.33171 4.01415 8.20273L4.35306 13.6253L4.41107 13.3522L4.64838 12.1009C5.07206 9.86697 7.02451 8.25 9.2983 8.25H12.4792C13.7387 8.25 14.6967 9.38094 14.4896 10.6233Z" fill="#363538"/>
</svg>
