<svg width="24" height="24" viewBox="0 0 24 24" fill="none" xmlns="http://www.w3.org/2000/svg">
<path d="M13.7767 10.418C14.0713 10.1778 14.5061 10.1952 14.7806 10.4697C15.055 10.7443 15.0725 11.1791 14.8324 11.4736L14.7806 11.5303L11.8041 14.5068C11.5184 14.7921 11.0584 14.7996 10.763 14.5244L9.23864 13.1035L9.18492 13.0488C8.93467 12.7629 8.93702 12.3279 9.20153 12.0439C9.46643 11.7601 9.90076 11.7271 10.2035 11.957L10.2621 12.0068L11.2552 12.9336L13.7201 10.4697L13.7767 10.418Z" fill="#363538"/>
<path fill-rule="evenodd" clip-rule="evenodd" d="M11.5004 3.25C12.7428 3.25019 13.7504 4.25748 13.7504 5.5C13.7504 5.91416 14.0862 6.24991 14.5004 6.25H16.847C19.4407 6.25026 21.5033 8.38949 21.4427 10.9502L21.43 11.1992L21.0326 16.3643C20.8422 18.8389 18.7781 20.7498 16.2963 20.75H7.75817C5.32831 20.7499 3.30383 18.9196 3.03746 16.5293L3.01793 16.2959L2.51793 8.2959C2.34725 5.56155 4.51846 3.25009 7.25817 3.25H11.5004ZM7.25817 4.75C5.38357 4.75009 3.89807 6.33216 4.015 8.20312L4.515 16.2031L4.52867 16.3623C4.71102 17.9977 6.09573 19.2499 7.75817 19.25H16.2963C17.9943 19.2498 19.4062 17.9421 19.5365 16.249L19.9339 11.084L19.9427 10.916C19.9834 9.19116 18.5941 7.75026 16.847 7.75H14.5004C13.2578 7.74991 12.2504 6.74258 12.2504 5.5C12.2504 5.0859 11.9144 4.75019 11.5004 4.75H7.25817Z" fill="#363538"/>
</svg>
