<svg width="24" height="24" viewBox="0 0 24 24" fill="none" xmlns="http://www.w3.org/2000/svg">
<path fill-rule="evenodd" clip-rule="evenodd" d="M2.51725 8.2963C2.34634 5.56173 4.5181 3.25 7.258 3.25H11.5002C12.7428 3.25 13.7502 4.25736 13.7502 5.5C13.7502 5.91421 14.086 6.25 14.5002 6.25H16.8466C19.524 6.25 21.6348 8.52936 21.4294 11.1989L21.0321 16.3643C20.8417 18.839 18.7781 20.75 16.2961 20.75H7.758C5.2497 20.75 3.17372 18.7997 3.01725 16.2963L2.51725 8.2963ZM7.258 4.75C5.38333 4.75 3.89739 6.33171 4.01433 8.20273L4.51433 16.2027C4.62138 17.9156 6.0418 19.25 7.758 19.25H16.2961C17.9943 19.25 19.4063 17.9425 19.5365 16.2493L19.9338 11.0839C20.0722 9.2855 18.6503 7.75 16.8466 7.75H14.5002C13.2576 7.75 12.2502 6.74264 12.2502 5.5C12.2502 5.08579 11.9144 4.75 11.5002 4.75H9.25003V6.25H10C10.4142 6.25 10.75 6.58579 10.75 7C10.75 7.41421 10.4142 7.75 10 7.75H9.25003V8.75H10C10.4142 8.75 10.75 9.08579 10.75 9.5C10.75 9.91421 10.4142 10.25 10 10.25H9.25003V11.25H10C10.4142 11.25 10.75 11.5858 10.75 12C10.75 12.4142 10.4142 12.75 10 12.75H9.25003V13.5C9.25003 13.9142 8.91424 14.25 8.50003 14.25C8.08582 14.25 7.75003 13.9142 7.75003 13.5V12.75H7.00003C6.58582 12.75 6.25003 12.4142 6.25003 12C6.25003 11.5858 6.58582 11.25 7.00003 11.25H7.75003V10.25H7.00003C6.58582 10.25 6.25003 9.91421 6.25003 9.5C6.25003 9.08579 6.58582 8.75 7.00003 8.75H7.75003V7.75H7.00003C6.58582 7.75 6.25003 7.41421 6.25003 7C6.25003 6.58579 6.58582 6.25 7.00003 6.25H7.75003V4.75H7.258Z" fill="#363538"/>
</svg>
