<svg width="24" height="24" viewBox="0 0 24 24" fill="none" xmlns="http://www.w3.org/2000/svg">
<path d="M12.75 10C12.75 9.58579 12.4142 9.25 12 9.25C11.5858 9.25 11.25 9.58579 11.25 10V14.1893L10.5304 13.4697C10.2375 13.1768 9.76259 13.1768 9.4697 13.4697C9.17681 13.7626 9.17681 14.2374 9.4697 14.5303L11.4697 16.5303C11.7626 16.8232 12.2375 16.8232 12.5304 16.5303L14.5304 14.5303C14.8233 14.2374 14.8233 13.7626 14.5304 13.4697C14.2375 13.1768 13.7626 13.1768 13.4697 13.4697L12.75 14.1893V10Z" fill="#363538"/>
<path fill-rule="evenodd" clip-rule="evenodd" d="M7.25782 3.25C4.51792 3.25 2.34616 5.56173 2.51707 8.2963L3.01707 16.2963C3.17353 18.7997 5.24952 20.75 7.75782 20.75H16.2959C18.7779 20.75 20.8415 18.839 21.0319 16.3643L21.4292 11.1989C21.6346 8.52936 19.5238 6.25 16.8464 6.25H14.5C14.0858 6.25 13.75 5.91421 13.75 5.5C13.75 4.25736 12.7427 3.25 11.5 3.25H7.25782ZM4.01415 8.20273C3.89721 6.33171 5.38315 4.75 7.25782 4.75H11.5C11.9142 4.75 12.25 5.08579 12.25 5.5C12.25 6.74264 13.2574 7.75 14.5 7.75H16.8464C18.6501 7.75 20.072 9.2855 19.9337 11.0839L19.5363 16.2493C19.4061 17.9425 17.9941 19.25 16.2959 19.25H7.75782C6.04161 19.25 4.6212 17.9156 4.51415 16.2027L4.01415 8.20273Z" fill="#363538"/>
</svg>
