<svg width="24" height="24" viewBox="0 0 24 24" fill="none" xmlns="http://www.w3.org/2000/svg">
<path fill-rule="evenodd" clip-rule="evenodd" d="M8.00003 13.0556C8.00003 12.0738 8.79597 11.2779 9.77781 11.2779H9.91659V10.6853C9.91659 9.53594 10.9348 8.75015 11.9999 8.75015C13.065 8.75015 14.0832 9.53594 14.0832 10.6853V11.2779H14.2223C15.2041 11.2779 16 12.0738 16 13.0556V15.7223C16 16.7041 15.2041 17.5001 14.2223 17.5001H9.77781C8.79597 17.5001 8.00003 16.7041 8.00003 15.7223V13.0556ZM9.50003 13.0556C9.50003 12.9022 9.6244 12.7779 9.77781 12.7779H14.2223C14.3757 12.7779 14.5 12.9022 14.5 13.0556V15.7223C14.5 15.8757 14.3757 16.0001 14.2223 16.0001H9.77781C9.6244 16.0001 9.50003 15.8757 9.50003 15.7223V13.0556ZM12.5832 10.6853V11.2779H11.4166V10.6853C11.4166 10.5256 11.5923 10.2502 11.9999 10.2502C12.4075 10.2502 12.5832 10.5256 12.5832 10.6853Z" fill="#363538"/>
<path fill-rule="evenodd" clip-rule="evenodd" d="M7.25782 3.25C4.51792 3.25 2.34616 5.56173 2.51707 8.2963L3.01707 16.2963C3.17353 18.7997 5.24952 20.75 7.75782 20.75H16.2959C18.7779 20.75 20.8415 18.839 21.0319 16.3643L21.4292 11.1989C21.6346 8.52936 19.5238 6.25 16.8464 6.25H14.5C14.0858 6.25 13.75 5.91421 13.75 5.5C13.75 4.25736 12.7427 3.25 11.5 3.25H7.25782ZM4.01415 8.20273C3.89721 6.33171 5.38315 4.75 7.25782 4.75H11.5C11.9142 4.75 12.25 5.08579 12.25 5.5C12.25 6.74264 13.2574 7.75 14.5 7.75H16.8464C18.6501 7.75 20.072 9.2855 19.9337 11.0839L19.5363 16.2493C19.4061 17.9425 17.9941 19.25 16.2959 19.25H7.75782C6.04161 19.25 4.6212 17.9156 4.51415 16.2027L4.01415 8.20273Z" fill="#363538"/>
</svg>
