<svg width="24" height="24" viewBox="0 0 24 24" fill="none" xmlns="http://www.w3.org/2000/svg">
<path fill-rule="evenodd" clip-rule="evenodd" d="M10.2293 10C10.3642 10 10.4959 10.0153 10.6227 10.0418C10.9404 10.1079 11.2272 10.2436 11.4557 10.3814C11.621 10.4811 11.843 10.5455 12.036 10.5455C12.2291 10.5455 12.379 10.4811 12.5443 10.3814C12.8641 10.1886 13.2978 10 13.7708 10C13.803 10 13.8347 10.0002 13.866 10.0007C15.3812 10.0237 16.276 11.6205 15.9234 13.1574C15.533 14.8594 13.2488 16.3681 12.3567 16.9003C12.1339 17.0332 11.8661 17.0332 11.6433 16.9003C10.7513 16.3681 8.46709 14.8594 8.07664 13.1574C7.72408 11.6205 8.61886 10.0237 10.1341 10.0007C10.1654 10.0002 10.1971 10 10.2293 10ZM10.6812 11.666C11.0692 11.8999 11.5574 12.0455 12.036 12.0455C12.6176 12.0455 13.044 11.8317 13.3189 11.666C13.4101 11.611 13.5017 11.5664 13.5872 11.5371C13.6723 11.5079 13.7328 11.5 13.7708 11.5C13.7955 11.5 13.8197 11.5002 13.8433 11.5005C14.0227 11.5033 14.1835 11.5815 14.3209 11.8027C14.472 12.0461 14.5532 12.422 14.4614 12.822C14.3736 13.2046 14.0005 13.746 13.3262 14.3512C12.8764 14.755 12.3894 15.1018 12 15.3552C11.6107 15.1018 11.1237 14.755 10.6738 14.3512C9.99954 13.746 9.62644 13.2046 9.53866 12.822C9.4469 12.422 9.52806 12.0461 9.67919 11.8027C9.81657 11.5815 9.9774 11.5033 10.1568 11.5005C10.1804 11.5002 10.2046 11.5 10.2293 11.5C10.2672 11.5 10.3277 11.5079 10.4129 11.5371C10.4983 11.5664 10.59 11.611 10.6812 11.666Z" fill="#363538"/>
<path fill-rule="evenodd" clip-rule="evenodd" d="M7.25782 3.25C4.51792 3.25 2.34616 5.56173 2.51707 8.2963L3.01707 16.2963C3.17353 18.7997 5.24952 20.75 7.75782 20.75H16.2959C18.7779 20.75 20.8415 18.839 21.0319 16.3643L21.4292 11.1989C21.6346 8.52936 19.5238 6.25 16.8464 6.25H14.5C14.0858 6.25 13.75 5.91421 13.75 5.5C13.75 4.25736 12.7427 3.25 11.5 3.25H7.25782ZM4.01415 8.20273C3.89721 6.33171 5.38315 4.75 7.25782 4.75H11.5C11.9142 4.75 12.25 5.08579 12.25 5.5C12.25 6.74264 13.2574 7.75 14.5 7.75H16.8464C18.6501 7.75 20.072 9.2855 19.9337 11.0839L19.5363 16.2493C19.4061 17.9425 17.9941 19.25 16.2959 19.25H7.75782C6.04161 19.25 4.6212 17.9156 4.51415 16.2027L4.01415 8.20273Z" fill="#363538"/>
</svg>
