<svg width="24" height="24" viewBox="0 0 24 24" fill="none" xmlns="http://www.w3.org/2000/svg">
<path d="M12.75 11C12.75 10.5858 12.4142 10.25 12 10.25C11.5858 10.25 11.25 10.5858 11.25 11V12.25H10C9.58582 12.25 9.25003 12.5858 9.25003 13C9.25003 13.4142 9.58582 13.75 10 13.75H11.25V15C11.25 15.4142 11.5858 15.75 12 15.75C12.4142 15.75 12.75 15.4142 12.75 15V13.75H14C14.4142 13.75 14.75 13.4142 14.75 13C14.75 12.5858 14.4142 12.25 14 12.25H12.75V11Z" fill="#363538"/>
<path fill-rule="evenodd" clip-rule="evenodd" d="M7.25782 3.25C4.51792 3.25 2.34616 5.56173 2.51707 8.2963L3.01707 16.2963C3.17353 18.7997 5.24952 20.75 7.75782 20.75H16.2959C18.7779 20.75 20.8415 18.839 21.0319 16.3643L21.4292 11.1989C21.6346 8.52936 19.5238 6.25 16.8464 6.25H14.5C14.0858 6.25 13.75 5.91421 13.75 5.5C13.75 4.25736 12.7427 3.25 11.5 3.25H7.25782ZM4.01415 8.20273C3.89721 6.33171 5.38315 4.75 7.25782 4.75H11.5C11.9142 4.75 12.25 5.08579 12.25 5.5C12.25 6.74264 13.2574 7.75 14.5 7.75H16.8464C18.6501 7.75 20.072 9.2855 19.9337 11.0839L19.5363 16.2493C19.4061 17.9425 17.9941 19.25 16.2959 19.25H7.75782C6.04161 19.25 4.6212 17.9156 4.51415 16.2027L4.01415 8.20273Z" fill="#363538"/>
</svg>
