<svg width="24" height="24" viewBox="0 0 24 24" fill="none" xmlns="http://www.w3.org/2000/svg">
<path d="M7.17966 13.7471C6.88677 13.4542 6.88677 12.9794 7.17966 12.6865L8.04061 11.8255C8.33351 11.5326 8.80838 11.5326 9.10127 11.8255L9.96222 12.6865C10.2551 12.9794 10.2551 13.4542 9.96222 13.7471C9.84326 13.8661 9.69426 13.9368 9.53964 13.9591C9.95249 14.9171 10.9052 15.5877 12.0146 15.5877C12.7096 15.5877 13.3415 15.3255 13.8197 14.8935C14.1271 14.6158 14.6014 14.6398 14.879 14.9472C15.1567 15.2545 15.1327 15.7288 14.8253 16.0065C14.0822 16.6779 13.0954 17.0877 12.0146 17.0877C10.0553 17.0877 8.40973 15.744 7.94924 13.9278C7.6879 14.0155 7.38782 13.9553 7.17966 13.7471Z" fill="#363538"/>
<path d="M16.8194 12.0407C17.1123 12.3336 17.1123 12.8085 16.8194 13.1014L15.9585 13.9623C15.6656 14.2552 15.1907 14.2552 14.8978 13.9623L14.0369 13.1014C13.744 12.8085 13.744 12.3336 14.0369 12.0407C14.1559 11.9217 14.3049 11.8511 14.4595 11.8288C14.0467 10.8707 13.0939 10.2 11.9844 10.2C11.3131 10.2 10.7008 10.4446 10.2289 10.8505C9.91486 11.1206 9.44132 11.085 9.1712 10.771C8.90107 10.457 8.93666 9.98347 9.25068 9.71334C9.9844 9.08219 10.9407 8.69995 11.9844 8.69995C13.9439 8.69995 15.5895 10.0438 16.0499 11.8601C16.3112 11.7724 16.6113 11.8326 16.8194 12.0407Z" fill="#363538"/>
<path fill-rule="evenodd" clip-rule="evenodd" d="M2.51725 8.2963C2.34634 5.56173 4.5181 3.25 7.258 3.25H11.5002C12.7428 3.25 13.7502 4.25736 13.7502 5.5C13.7502 5.91421 14.086 6.25 14.5002 6.25H16.8466C19.524 6.25 21.6348 8.52936 21.4294 11.1989L21.0321 16.3643C20.8417 18.839 18.7781 20.75 16.2961 20.75H7.758C5.2497 20.75 3.17372 18.7997 3.01725 16.2963L2.51725 8.2963ZM7.258 4.75C5.38333 4.75 3.89739 6.33171 4.01433 8.20273L4.51433 16.2027C4.62138 17.9156 6.0418 19.25 7.758 19.25H16.2961C17.9943 19.25 19.4063 17.9425 19.5365 16.2493L19.9338 11.0839C20.0722 9.2855 18.6503 7.75 16.8466 7.75H14.5002C13.2576 7.75 12.2502 6.74264 12.2502 5.5C12.2502 5.08579 11.9144 4.75 11.5002 4.75H7.258Z" fill="#363538"/>
</svg>
