<svg width="24" height="24" viewBox="0 0 24 24" fill="none" xmlns="http://www.w3.org/2000/svg">
<path fill-rule="evenodd" clip-rule="evenodd" d="M9.09124 3.85182C8.17558 3.06697 6.82442 3.06697 5.90876 3.85182L5.71032 4.02191C5.1008 4.54436 4.75 5.30707 4.75 6.10986V13.7501H8.38515L9.89761 6.18779C10.071 5.32061 9.7627 4.42736 9.09124 3.85182ZM4.93257 2.71294C6.40997 1.4466 8.59003 1.4466 10.0674 2.71294C11.1508 3.64155 11.6483 5.08279 11.3685 6.48197L9.73544 14.6472C9.66532 14.9977 9.35751 15.2501 9 15.2501H4C3.58579 15.2501 3.25 14.9143 3.25 14.5001V6.10986C3.25 4.86918 3.79214 3.69045 4.73414 2.88302L4.93257 2.71294Z" fill="#363538"/>
<path fill-rule="evenodd" clip-rule="evenodd" d="M16.5867 4.62764C17.6577 4.07318 18.973 4.3824 19.6847 5.35598L19.839 5.56697C20.3128 6.21505 20.4797 7.0378 20.296 7.81929L18.5474 15.2567L15.0088 14.4248L15.2671 6.71707C15.2968 5.8332 15.8014 5.03423 16.5867 4.62764ZM20.8957 4.47074C19.7473 2.89989 17.6251 2.40096 15.8971 3.29557C14.6299 3.95159 13.8158 5.24072 13.768 6.66681L13.489 14.989C13.477 15.3464 13.7189 15.6625 14.0669 15.7443L18.9342 16.8886C19.3374 16.9834 19.7412 16.7333 19.836 16.3301L21.7562 8.16258C22.0401 6.95483 21.7821 5.6833 21.0499 4.68172L20.8957 4.47074Z" fill="#363538"/>
<path fill-rule="evenodd" clip-rule="evenodd" d="M3.25 17.0001C3.25 16.5859 3.58579 16.2501 4 16.2501H9C9.41421 16.2501 9.75 16.5859 9.75 17.0001V18.0001C9.75 19.795 8.29493 21.2501 6.5 21.2501C4.70507 21.2501 3.25 19.795 3.25 18.0001V17.0001ZM4.75 17.7501V18.0001C4.75 18.9666 5.5335 19.7501 6.5 19.7501C7.4665 19.7501 8.25 18.9666 8.25 18.0001V17.7501H4.75Z" fill="#363538"/>
<path fill-rule="evenodd" clip-rule="evenodd" d="M13.2936 16.7179C13.4627 16.6132 13.6665 16.5799 13.8601 16.6255L18.7274 17.7698C19.1306 17.8646 19.3807 18.2683 19.2859 18.6715L19.0354 19.7369C18.6246 21.4842 16.8751 22.5677 15.1278 22.1569C13.3806 21.7461 12.2971 19.9966 12.7079 18.2493L12.9584 17.1839C13.0039 16.9903 13.1245 16.8227 13.2936 16.7179ZM14.2469 18.2573L14.1681 18.5926C13.9469 19.5335 14.5303 20.4755 15.4711 20.6967C16.412 20.9179 17.354 20.3345 17.5752 19.3936L17.654 19.0583L14.2469 18.2573Z" fill="#363538"/>
</svg>
