<svg width="24" height="24" viewBox="0 0 24 24" fill="none" xmlns="http://www.w3.org/2000/svg">
<path fill-rule="evenodd" clip-rule="evenodd" d="M20.1508 3.1012C19.2416 1.77948 17.2189 1.71958 16.3633 3.1949C15.3055 5.01907 15.3622 6.78863 15.8577 8.20905C16.1855 9.14889 16.9233 9.76694 17.75 9.99819V20.9999C17.75 21.4141 18.0858 21.7499 18.5 21.7499C18.9142 21.7499 19.25 21.4141 19.25 20.9999V9.98813C19.8476 9.8072 20.3913 9.40547 20.7501 8.77036C21.154 8.05523 21.4018 7.19628 21.3384 6.21868C21.2752 5.24339 20.9055 4.19824 20.1508 3.1012ZM17.6609 3.94738C17.9136 3.51165 18.5721 3.45295 18.915 3.95132C19.5461 4.86879 19.7989 5.65846 19.8416 6.31576C19.884 6.97075 19.7211 7.54216 19.444 8.03263C19.2223 8.4251 18.8671 8.5979 18.4954 8.60017C17.9949 8.60322 17.4764 8.29522 17.274 7.71505C16.9012 6.64625 16.8531 5.34045 17.6609 3.94738Z" fill="#363538"/>
<path d="M4.75 2.99989C4.75 2.58568 4.41421 2.24989 4 2.24989C3.58579 2.24989 3.25 2.58568 3.25 2.99989V6.99989C3.25 8.51867 4.48122 9.74989 6 9.74989H6.25V20.9999C6.25 21.4141 6.58579 21.7499 7 21.7499C7.41421 21.7499 7.75 21.4141 7.75 20.9999V9.74989H8C9.51878 9.74989 10.75 8.51867 10.75 6.99989V2.99989C10.75 2.58568 10.4142 2.24989 10 2.24989C9.58579 2.24989 9.25 2.58568 9.25 2.99989V6.99989C9.25 7.69025 8.69036 8.24989 8 8.24989H7.75V2.99989C7.75 2.58568 7.41421 2.24989 7 2.24989C6.58579 2.24989 6.25 2.58568 6.25 2.99989V8.24989H6C5.30964 8.24989 4.75 7.69025 4.75 6.99989V2.99989Z" fill="#363538"/>
</svg>
