<svg width="24" height="24" viewBox="0 0 24 24" fill="none" xmlns="http://www.w3.org/2000/svg">
<path fill-rule="evenodd" clip-rule="evenodd" d="M14.9494 2.87488C15.1565 2.51616 15.0336 2.05747 14.6749 1.85036C14.3161 1.64326 13.8574 1.76616 13.6503 2.12488L11.6503 5.58898C10.891 6.90429 11.3416 8.58616 12.6569 9.34555L12.8816 9.4753L12.5143 10.1307L12.4626 10.0349L8.37661 2.9577C7.93494 2.19271 7.11344 1.92368 6.40855 2.15629C5.69223 2.39267 5.20081 3.11397 5.35063 4.00279C5.6532 5.79784 6.11308 7.86395 6.79769 9.44164C7.13808 10.2261 7.56041 10.9531 8.09704 11.4603C8.65546 11.988 9.37929 12.3084 10.226 12.1352C10.7916 12.0194 11.2468 11.7991 11.5895 11.576L11.6457 11.6803L6.90801 20.1332C6.70549 20.4945 6.83423 20.9516 7.19556 21.1541C7.55688 21.3566 8.01397 21.2279 8.21649 20.8666L12.4889 13.244L16.6398 20.9418C16.8364 21.3064 17.2914 21.4426 17.656 21.246C18.0205 21.0494 18.1567 20.5944 17.9601 20.2298L13.3575 11.6943L14.1808 10.2254L14.389 10.3456C15.7043 11.1049 17.3861 10.6543 18.1455 9.33898L20.1455 5.87488C20.3526 5.51616 20.2297 5.05747 19.871 4.85036C19.5123 4.64326 19.0536 4.76616 18.8465 5.12488L16.8465 8.58898C16.5013 9.18685 15.7368 9.39169 15.139 9.04651L14.9225 8.92151L17.5475 4.37488C17.7546 4.01616 17.6317 3.55747 17.2729 3.35036C16.9142 3.14326 16.4555 3.26616 16.2484 3.62488L13.6234 8.17151L13.4069 8.04651C12.809 7.70134 12.6042 6.93685 12.9494 6.33898L14.9494 2.87488ZM6.82976 3.75347C6.81287 3.65328 6.83584 3.61522 6.83913 3.60976C6.84547 3.59925 6.85716 3.58781 6.8786 3.58074C6.90043 3.57353 6.927 3.57301 6.95417 3.58343C6.97619 3.59188 7.02564 3.61775 7.07758 3.7077L10.8597 10.2585C10.6402 10.4156 10.3283 10.5832 9.92523 10.6656C9.67549 10.7168 9.42798 10.6542 9.12736 10.3701C8.80495 10.0654 8.48054 9.55158 8.17372 8.84453C7.56392 7.43925 7.1275 5.51985 6.82976 3.75347Z" fill="#363538"/>
</svg>
