<svg width="24" height="24" viewBox="0 0 24 24" fill="none" xmlns="http://www.w3.org/2000/svg">
<path fill-rule="evenodd" clip-rule="evenodd" d="M17.0925 3.63485C17.0869 3.63793 17.048 3.65941 17.0125 3.75462C16.3872 5.43323 15.8054 7.31368 15.6309 8.83559C15.5431 9.60132 15.5671 10.2085 15.694 10.6336C15.8123 11.03 15.9954 11.2079 16.2372 11.2885C16.6275 11.4186 16.9814 11.4294 17.25 11.4031V3.83889C17.25 3.73502 17.2201 3.68789 17.2053 3.66956C17.187 3.64696 17.1637 3.63413 17.1412 3.62945C17.1191 3.62485 17.1032 3.62892 17.0925 3.63485ZM17.25 12.9075V21C17.25 21.4142 17.5858 21.75 18 21.75C18.4142 21.75 18.75 21.4142 18.75 21V3.83889C18.75 2.95555 18.1731 2.31182 17.4463 2.16081C16.7078 2.00736 15.9216 2.38632 15.6069 3.23097C14.9714 4.93681 14.3366 6.95606 14.1407 8.66468C14.0432 9.51422 14.0455 10.355 14.2566 11.0625C14.4763 11.7988 14.943 12.4382 15.7629 12.7115C16.3227 12.8981 16.8371 12.9324 17.25 12.9075Z" fill="#363538"/>
<path fill-rule="evenodd" clip-rule="evenodd" d="M4 2.25006C4.41421 2.25006 4.75 2.58584 4.75 3.00006V7.00006C4.75 7.69041 5.30964 8.25006 6 8.25006H6.25V3.00006C6.25 2.58584 6.58579 2.25006 7 2.25006C7.41421 2.25006 7.75 2.58584 7.75 3.00006V8.25006H8C8.69036 8.25006 9.25 7.69041 9.25 7.00006V3.00006C9.25 2.58584 9.58579 2.25006 10 2.25006C10.4142 2.25006 10.75 2.58584 10.75 3.00006V7.00006C10.75 8.51884 9.51878 9.75006 8 9.75006H7.75V21.0001C7.75 21.4143 7.41421 21.7501 7 21.7501C6.58579 21.7501 6.25 21.4143 6.25 21.0001V9.75006H6C4.48122 9.75006 3.25 8.51884 3.25 7.00006V3.00006C3.25 2.58584 3.58579 2.25006 4 2.25006Z" fill="#363538"/>
</svg>
