<svg width="24" height="24" viewBox="0 0 24 24" fill="none" xmlns="http://www.w3.org/2000/svg">
<path fill-rule="evenodd" clip-rule="evenodd" d="M11.337 14.6184C11.3386 14.6267 11.3403 14.6349 11.342 14.6431L9.52763 15.8661C8.23348 16.7384 6.5 15.8004 6.5 14.2278V9.77226C6.5 8.19971 8.23347 7.26174 9.52763 8.13404L11.342 9.35694C11.6139 8.04304 13.152 7.34165 14.3276 8.13404L17.6328 10.3618C18.789 11.1412 18.789 12.8589 17.6328 13.6383L14.3276 15.8661C13.1447 16.6634 11.5947 15.9482 11.337 14.6184ZM12.8 9.77226V14.2278C12.8 14.6293 13.2165 14.8061 13.4892 14.6222L16.7944 12.3944C17.0685 12.2097 17.0685 11.7904 16.7944 11.6057L13.4892 9.37787C13.2165 9.19403 12.8 9.37082 12.8 9.77226ZM11.3 11.1376L8.68925 9.37787C8.4165 9.19403 8 9.37082 8 9.77226V14.2278C8 14.6293 8.4165 14.8061 8.68925 14.6222L11.3 12.8625V11.1376Z" fill="#363538"/>
<path fill-rule="evenodd" clip-rule="evenodd" d="M12 22C17.5228 22 22 17.5228 22 12C22 6.47715 17.5228 2 12 2C6.47715 2 2 6.47715 2 12C2 17.5228 6.47715 22 12 22ZM12 20.5C16.6944 20.5 20.5 16.6944 20.5 12C20.5 7.30558 16.6944 3.5 12 3.5C7.30558 3.5 3.5 7.30558 3.5 12C3.5 16.6944 7.30558 20.5 12 20.5Z" fill="#363538"/>
</svg>
