<svg width="24" height="24" viewBox="0 0 24 24" fill="none" xmlns="http://www.w3.org/2000/svg">
<path fill-rule="evenodd" clip-rule="evenodd" d="M17.2 3H7.93137C7.21865 3 6.86171 3.86171 7.36569 4.36569L11.7657 8.76569C11.9157 8.91571 12.1192 9 12.3314 9H17.2C17.6418 9 18 8.64183 18 8.2V3.8C18 3.35817 17.6418 3 17.2 3ZM12.6213 7.5L9.62132 4.5H16.5V7.5H12.6213Z" fill="#363538"/>
<path fill-rule="evenodd" clip-rule="evenodd" d="M6 9.8C6 9.35817 6.35817 9 6.8 9H11.6686C11.8808 9 12.0843 9.08429 12.2343 9.23431L16.6343 13.6343C17.1383 14.1383 16.7814 15 16.0686 15H12.8C12.3582 15 12 15.3582 12 15.8V19.0686C12 19.7814 11.1383 20.1383 10.6343 19.6343L6.23431 15.2343C6.08429 15.0843 6 14.8808 6 14.6686V9.8ZM7.5 14.3787V10.5H11.3787L14.3787 13.5H12.8C11.5297 13.5 10.5 14.5297 10.5 15.8V17.3787L7.5 14.3787Z" fill="#363538"/>
</svg>
