<svg width="24" height="24" viewBox="0 0 24 24" fill="none" xmlns="http://www.w3.org/2000/svg">
<path fill-rule="evenodd" clip-rule="evenodd" d="M4.74987 1.99976L5.24987 1.99976C6.5979 1.99975 7.71939 2.96968 7.95453 4.24973L16.0452 4.24974C16.2804 2.96969 17.4018 1.99976 18.7499 1.99976L19.2499 1.99976C20.7687 1.99975 21.9999 3.23097 21.9999 4.74976V5.24971C21.9999 6.59768 21.03 7.71913 19.7501 7.95433V16.0454C21.03 16.2806 21.9999 17.402 21.9999 18.75V19.2497C21.9999 20.7685 20.7687 21.9997 19.2499 21.9997L18.7499 21.9997C17.4019 21.9997 16.2804 21.0298 16.0452 19.7498L7.95451 19.7498C7.71932 21.0298 6.59786 21.9997 5.24987 21.9997L4.74987 21.9997C3.23109 21.9997 1.99988 20.7685 1.99988 19.2497V18.75C1.99988 17.4019 2.96991 16.2804 4.25005 16.0453L4.25005 7.9544C2.96991 7.71934 1.99988 6.5978 1.99988 5.24971V4.74976C1.99988 3.23098 3.23109 1.99976 4.74987 1.99976ZM5.75005 7.95433L5.75005 16.0454C6.86784 16.2508 7.74912 17.1321 7.95451 18.2498L16.0452 18.2498C16.2507 17.1319 17.1321 16.2506 18.2501 16.0453V7.9544C17.1321 7.74911 16.2506 6.8677 16.0452 5.74974L7.95453 5.74973C7.74919 6.86758 6.86788 7.74893 5.75005 7.95433ZM5.24987 3.49976L4.74987 3.49976C4.05952 3.49976 3.49988 4.0594 3.49988 4.74976V5.24971C3.49988 5.94006 4.05952 6.49971 4.74988 6.49971H5.24988C5.94023 6.49971 6.49988 5.94006 6.49988 5.24971V4.74976C6.49988 4.0594 5.94023 3.49975 5.24987 3.49976ZM19.2499 3.49976L18.7499 3.49976C18.0595 3.49976 17.4999 4.0594 17.4999 4.74976V5.24971C17.4999 5.94006 18.0595 6.49971 18.7499 6.49971H19.2499C19.9402 6.49971 20.4999 5.94006 20.4999 5.24971V4.74976C20.4999 4.0594 19.9402 3.49975 19.2499 3.49976ZM4.74988 17.5C4.05952 17.5 3.49988 18.0596 3.49988 18.75V19.2497C3.49988 19.9401 4.05952 20.4997 4.74987 20.4997L5.24987 20.4997C5.94023 20.4997 6.49988 19.9401 6.49988 19.2497V18.75C6.49988 18.0596 5.94023 17.5 5.24988 17.5H4.74988ZM18.7499 17.5C18.0595 17.5 17.4999 18.0596 17.4999 18.75V19.2497C17.4999 19.9401 18.0595 20.4997 18.7499 20.4997L19.2499 20.4997C19.9402 20.4997 20.4999 19.9401 20.4999 19.2497V18.75C20.4999 18.0596 19.9402 17.5 19.2499 17.5H18.7499Z" fill="#363538"/>
</svg>
