<svg width="24" height="24" viewBox="0 0 24 24" fill="none" xmlns="http://www.w3.org/2000/svg">
<path d="M16.8193 5.06142C18.3184 5.00041 19.5887 6.04581 19.8791 7.44647C19.9294 7.68896 19.8929 7.929 19.7989 8.15092L19.7917 8.16767C19.7367 8.29329 19.6633 8.41293 19.5769 8.52369C19.5277 8.58687 19.4742 8.64716 19.4176 8.70404C19.0823 9.04046 18.9566 9.5521 19.4271 9.61661C19.47 9.6225 19.5141 9.62787 19.5586 9.6333C19.8701 9.67128 20.2062 9.71226 20.3589 9.95355L20.9189 10.8383C21.8564 12.3195 22.3296 15.2856 20.777 16.0996L19.8497 16.5859C19.6618 16.6844 19.2435 16.8021 18.7661 16.9363C18.0779 17.1299 17.2667 17.3581 16.8455 17.6135C16.6436 17.7359 16.5567 17.9653 16.499 18.1942L16.1866 19.4325C16.1288 19.6614 16.0499 19.8867 15.9166 20.0816C15.0185 21.3949 13.218 21.7921 11.8383 20.9188L10.9536 20.3589C10.7576 20.2349 10.5491 19.99 10.3324 19.7355C9.97935 19.321 9.60457 18.8809 9.22714 18.8963L8.18093 18.9389C6.42939 19.0101 4.99013 17.5709 5.06142 15.8193L5.104 14.7731C5.11936 14.3957 4.67929 14.0209 4.26473 13.6679C4.01026 13.4512 3.76541 13.2426 3.64141 13.0467L3.08143 12.162C2.14392 10.6807 2.67073 8.71467 4.22324 7.90063L5.15058 7.4144L5.84714 8.74286L4.9198 9.2291C4.14354 9.63611 3.88014 10.6191 4.34889 11.3598L4.88977 12.2143C4.89047 12.2151 4.89128 12.2159 4.89221 12.2169C4.90489 12.23 4.9403 12.2667 5.01244 12.3314C5.07315 12.3859 5.14121 12.4441 5.22658 12.5168L5.24028 12.5284C5.3179 12.5945 5.40958 12.6726 5.4999 12.7528C5.68051 12.913 5.93186 13.1471 6.13996 13.4299C6.33992 13.7016 6.62894 14.1908 6.60276 14.8341L6.56018 15.8803C6.52453 16.7561 7.24416 17.4757 8.11993 17.4401L9.16615 17.3975C9.80951 17.3713 10.2986 17.6604 10.5704 17.8603C10.8532 18.0684 11.0872 18.3198 11.2475 18.5004C11.3276 18.5907 11.4057 18.6823 11.4718 18.76L11.4835 18.7737C11.5562 18.8591 11.6144 18.9271 11.6689 18.9878C11.7335 19.06 11.7702 19.0954 11.7834 19.1081C11.7844 19.109 11.7852 19.1098 11.7859 19.1105L12.6405 19.6514C13.3278 20.0864 14.2267 19.8906 14.6756 19.239C14.6773 19.2358 14.6811 19.2279 14.6867 19.2139C14.6985 19.1844 14.7138 19.1381 14.7321 19.0656L15.0445 17.8273C15.1086 17.5734 15.3086 16.791 16.0679 16.3308C16.6317 15.989 17.4832 15.742 18.0308 15.5855C18.1555 15.5499 18.2702 15.5176 18.3775 15.4874C18.5537 15.4379 18.7101 15.3939 18.8581 15.3497C19.0204 15.3013 19.1068 15.2711 19.1424 15.2587C19.1661 15.2504 19.1672 15.25 19.1531 15.2574L20.0805 14.7712C20.0899 14.7662 20.0982 14.7606 20.1111 14.745C20.1264 14.7265 20.1549 14.685 20.1853 14.6056C20.2503 14.4361 20.2982 14.1598 20.2829 13.7795C20.2515 13.0003 19.9718 12.1468 19.6514 11.6405L19.3189 11.1151C19.2889 11.1114 19.2563 11.1072 19.2234 11.1027C18.8324 11.0491 18.3533 10.8681 18.0023 10.4232C17.6568 9.98515 17.5962 9.4948 17.6251 9.14031C17.6779 8.49308 18.0333 7.96811 18.3551 7.64522C18.3633 7.63697 18.3707 7.62903 18.3773 7.6215C18.1847 6.98751 17.5804 6.53168 16.8803 6.56017L15.8341 6.60275C15.4063 6.62017 14.7553 6.57462 14.1607 6.48891C13.8546 6.4448 13.5286 6.38517 13.2256 6.3061C12.955 6.23547 12.5748 6.11793 12.2445 5.90887L11.3598 5.34889C10.6191 4.88014 9.63611 5.14354 9.2291 5.9198L8.74286 6.84714C8.49274 7.32418 8.08954 7.62459 7.84667 7.78579C7.56883 7.9702 7.26478 8.1223 7.00581 8.24146C6.76728 8.35121 6.5233 8.45252 6.32642 8.53427L6.26816 8.55847C6.03455 8.6556 5.91088 8.70944 5.84714 8.74286L5.15058 7.4144C5.29733 7.33746 5.51062 7.24886 5.74914 7.14979C6.38818 6.88436 7.20826 6.54373 7.4144 6.15058L7.90063 5.22324C8.71467 3.67073 10.6807 3.14392 12.162 4.08142L13.0467 4.64141C13.5618 4.96743 15.164 5.12878 15.7731 5.104L16.8193 5.06142Z" fill="#363538"/>
<path d="M10.5 12C10.7761 12 11 11.7761 11 11.5C11 11.2239 10.7761 11 10.5 11C10.2239 11 10 11.2239 10 11.5C10 11.7761 10.2239 12 10.5 12Z" fill="#363538"/>
<path d="M12 13.5C12 13.7761 11.7761 14 11.5 14C11.2239 14 11 13.7761 11 13.5C11 13.2239 11.2239 13 11.5 13C11.7761 13 12 13.2239 12 13.5Z" fill="#363538"/>
<path fill-rule="evenodd" clip-rule="evenodd" d="M16 12C16 14.2091 14.2091 16 12 16C9.79086 16 8 14.2091 8 12C8 9.79086 9.79086 8 12 8C14.2091 8 16 9.79086 16 12ZM14.5 12C14.5 13.3807 13.3807 14.5 12 14.5C10.6193 14.5 9.5 13.3807 9.5 12C9.5 10.6193 10.6193 9.5 12 9.5C13.3807 9.5 14.5 10.6193 14.5 12Z" fill="#363538"/>
</svg>
