<svg width="24" height="24" viewBox="0 0 24 24" fill="none" xmlns="http://www.w3.org/2000/svg">
<path fill-rule="evenodd" clip-rule="evenodd" d="M10.0068 14.5078C11.0909 13.3677 12.9091 13.3677 13.9932 14.5078L15.4932 16.085C15.9792 16.5961 16.25 17.2751 16.25 17.9805V19.25C16.25 20.7688 15.0188 22 13.5 22H10.5C8.98122 22 7.75 20.7688 7.75 19.25V17.9805C7.75 17.2751 8.02081 16.5961 8.50684 16.085L10.0068 14.5078ZM12.9062 15.541C12.4135 15.0228 11.5865 15.0228 11.0938 15.541L9.59375 17.1191C9.37306 17.3514 9.25 17.66 9.25 17.9805V19.25C9.25 19.9404 9.80964 20.5 10.5 20.5H13.5C14.1904 20.5 14.75 19.9404 14.75 19.25V17.9805C14.75 17.66 14.6269 17.3514 14.4062 17.1191L12.9062 15.541Z" fill="#363538"/>
<path fill-rule="evenodd" clip-rule="evenodd" d="M6.01953 7.75C6.72488 7.75 7.40387 8.02081 7.91504 8.50684L9.49219 10.0068C10.6323 11.0909 10.6323 12.9091 9.49219 13.9932L7.91504 15.4932C7.40387 15.9792 6.72488 16.25 6.01953 16.25H4.75C3.23122 16.25 2 15.0188 2 13.5V10.5C2 8.98122 3.23122 7.75 4.75 7.75H6.01953ZM4.75 9.25C4.05964 9.25 3.5 9.80964 3.5 10.5V13.5C3.5 14.1904 4.05964 14.75 4.75 14.75H6.01953C6.33997 14.75 6.64855 14.6269 6.88086 14.4062L8.45898 12.9062C8.97721 12.4135 8.97721 11.5865 8.45898 11.0938L6.88086 9.59375C6.64855 9.37306 6.33997 9.25 6.01953 9.25H4.75Z" fill="#363538"/>
<path fill-rule="evenodd" clip-rule="evenodd" d="M19.25 7.75C20.7688 7.75 22 8.98122 22 10.5V13.5C22 15.0188 20.7688 16.25 19.25 16.25H17.9805C17.2751 16.25 16.5961 15.9792 16.085 15.4932L14.5078 13.9932C13.3677 12.9091 13.3677 11.0909 14.5078 10.0068L16.085 8.50684C16.5961 8.02081 17.2751 7.75 17.9805 7.75H19.25ZM17.9805 9.25C17.66 9.25 17.3514 9.37306 17.1191 9.59375L15.541 11.0938C15.0228 11.5865 15.0228 12.4135 15.541 12.9062L17.1191 14.4062C17.3514 14.6269 17.66 14.75 17.9805 14.75H19.25C19.9404 14.75 20.5 14.1904 20.5 13.5V10.5C20.5 9.80964 19.9404 9.25 19.25 9.25H17.9805Z" fill="#363538"/>
<path fill-rule="evenodd" clip-rule="evenodd" d="M13.5 2C15.0188 2 16.25 3.23122 16.25 4.75V6.01953C16.25 6.72488 15.9792 7.40387 15.4932 7.91504L13.9932 9.49219C12.9091 10.6323 11.0909 10.6323 10.0068 9.49219L8.50684 7.91504C8.02081 7.40387 7.75 6.72488 7.75 6.01953V4.75C7.75 3.23122 8.98122 2 10.5 2H13.5ZM10.5 3.5C9.80964 3.5 9.25 4.05964 9.25 4.75V6.01953C9.25 6.33997 9.37306 6.64855 9.59375 6.88086L11.0938 8.45898C11.5865 8.97721 12.4135 8.97721 12.9062 8.45898L14.4062 6.88086C14.6269 6.64855 14.75 6.33997 14.75 6.01953V4.75C14.75 4.05964 14.1904 3.5 13.5 3.5H10.5Z" fill="#363538"/>
</svg>
