<svg width="24" height="24" viewBox="0 0 24 24" fill="none" xmlns="http://www.w3.org/2000/svg">
<path d="M9.25977 17.5C9.67398 17.5 10.0098 17.8358 10.0098 18.25C10.0098 18.6642 9.67398 19 9.25977 19H9.25C8.83579 19 8.5 18.6642 8.5 18.25C8.5 17.8358 8.83579 17.5 9.25 17.5H9.25977Z" fill="#363538"/>
<path d="M14.75 14.5C15.1642 14.5 15.5 14.8358 15.5 15.25V16H16.25C16.6642 16 17 16.3358 17 16.75C17 17.1642 16.6642 17.5 16.25 17.5H15.5V18.25C15.5 18.6642 15.1642 19 14.75 19C14.3358 19 14 18.6642 14 18.25V17.5H13.25C12.8358 17.5 12.5 17.1642 12.5 16.75C12.5 16.3358 12.8358 16 13.25 16H14V15.25C14 14.8358 14.3358 14.5 14.75 14.5Z" fill="#363538"/>
<path d="M7.75488 15.9951C8.1691 15.9951 8.50488 16.3309 8.50488 16.7451V16.7549C8.50488 17.1691 8.1691 17.5049 7.75488 17.5049C7.34067 17.5049 7.00488 17.1691 7.00488 16.7549V16.7451C7.00488 16.3309 7.34067 15.9951 7.75488 15.9951Z" fill="#363538"/>
<path d="M10.7549 15.9951C11.1691 15.9951 11.5049 16.3309 11.5049 16.7451V16.7549C11.5049 17.1691 11.1691 17.5049 10.7549 17.5049C10.3407 17.5049 10.0049 17.1691 10.0049 16.7549V16.7451C10.0049 16.3309 10.3407 15.9951 10.7549 15.9951Z" fill="#363538"/>
<path d="M9.25977 14.5C9.67398 14.5 10.0098 14.8358 10.0098 15.25C10.0098 15.6642 9.67398 16 9.25977 16H9.25C8.83579 16 8.5 15.6642 8.5 15.25C8.5 14.8358 8.83579 14.5 9.25 14.5H9.25977Z" fill="#363538"/>
<path fill-rule="evenodd" clip-rule="evenodd" d="M14.5 5C15.7426 5 16.75 6.00736 16.75 7.25V10.25C16.75 11.4926 15.7426 12.5 14.5 12.5H9.5C8.25736 12.5 7.25 11.4926 7.25 10.25V7.25C7.25 6.00736 8.25736 5 9.5 5H14.5ZM9.5 6.5C9.08579 6.5 8.75 6.83579 8.75 7.25V10.25C8.75 10.6642 9.08579 11 9.5 11H14.5C14.9142 11 15.25 10.6642 15.25 10.25V7.25C15.25 6.83579 14.9142 6.5 14.5 6.5H9.5Z" fill="#363538"/>
<path fill-rule="evenodd" clip-rule="evenodd" d="M15 2C17.6234 2 19.75 4.12665 19.75 6.75V17.25C19.75 19.8734 17.6234 22 15 22H9C6.37665 22 4.25 19.8734 4.25 17.25V6.75C4.25 4.12665 6.37665 2 9 2H15ZM9 3.5C7.20507 3.5 5.75 4.95507 5.75 6.75V17.25C5.75 19.0449 7.20507 20.5 9 20.5H15C16.7949 20.5 18.25 19.0449 18.25 17.25V6.75C18.25 4.95507 16.7949 3.5 15 3.5H9Z" fill="#363538"/>
</svg>
