<svg width="24" height="24" viewBox="0 0 24 24" fill="none" xmlns="http://www.w3.org/2000/svg">
<path d="M9.25005 9.00003C9.25005 8.58582 8.91426 8.25003 8.50005 8.25003C8.08583 8.25003 7.75005 8.58582 7.75005 9.00003V9.75003H7.00005C6.58583 9.75003 6.25005 10.0858 6.25005 10.5C6.25005 10.9142 6.58583 11.25 7.00005 11.25H7.75005V12C7.75005 12.4142 8.08583 12.75 8.50005 12.75C8.91426 12.75 9.25005 12.4142 9.25005 12V11.25H10C10.4143 11.25 10.75 10.9142 10.75 10.5C10.75 10.0858 10.4143 9.75003 10 9.75003H9.25005V9.00003Z" fill="#363538"/>
<path d="M16.5 8.75003C16.5 9.16424 16.1643 9.50003 15.75 9.50003C15.3358 9.50003 15 9.16424 15 8.75003C15 8.33582 15.3358 8.00003 15.75 8.00003C16.1643 8.00003 16.5 8.33582 16.5 8.75003Z" fill="#363538"/>
<path d="M15.75 12.5C16.1643 12.5 16.5 12.1642 16.5 11.75C16.5 11.3358 16.1643 11 15.75 11C15.3358 11 15 11.3358 15 11.75C15 12.1642 15.3358 12.5 15.75 12.5Z" fill="#363538"/>
<path d="M18 10.25C18 10.6642 17.6643 11 17.25 11C16.8358 11 16.5 10.6642 16.5 10.25C16.5 9.83582 16.8358 9.50003 17.25 9.50003C17.6643 9.50003 18 9.83582 18 10.25Z" fill="#363538"/>
<path d="M14.25 11C14.6643 11 15 10.6642 15 10.25C15 9.83582 14.6643 9.50003 14.25 9.50003C13.8358 9.50003 13.5 9.83582 13.5 10.25C13.5 10.6642 13.8358 11 14.25 11Z" fill="#363538"/>
<path fill-rule="evenodd" clip-rule="evenodd" d="M2.54951 16.2322L3.65608 8.64433C4.01138 6.20799 6.46236 4.66796 8.81157 5.40497L9.41541 5.59441C9.8029 5.71597 10.2067 5.77782 10.6128 5.77782H13.3873C13.7934 5.77782 14.1972 5.71597 14.5847 5.59441L15.1885 5.40497C17.5377 4.66796 19.9887 6.20799 20.344 8.64433L21.4506 16.2322C21.7403 18.2188 20.2 20 18.1924 20C16.8645 20 15.6666 19.2024 15.1545 17.9773L14.5136 16.4444C14.2026 15.7002 13.4749 15.2157 12.6684 15.2157H11.3317C10.5251 15.2157 9.79751 15.7002 9.48643 16.4444L8.8456 17.9773C8.33346 19.2024 7.13556 20 5.8077 20C3.80009 20 2.2598 18.2188 2.54951 16.2322ZM4.03381 16.4487L5.14038 8.86079C5.36244 7.33807 6.8943 6.37556 8.36256 6.83619L8.9664 7.02563C9.4992 7.19278 10.0544 7.27782 10.6128 7.27782H13.3873C13.9457 7.27782 14.5009 7.19278 15.0337 7.02563L15.6375 6.83619C17.1058 6.37556 18.6376 7.33807 18.8597 8.86079L19.9663 16.4487C20.124 17.5303 19.2854 18.5 18.1924 18.5C17.4694 18.5 16.8172 18.0658 16.5384 17.3988L15.8976 15.8658C15.3532 14.5636 14.0799 13.7157 12.6684 13.7157H11.3317C9.92022 13.7157 8.64688 14.5636 8.10249 15.8658L7.46166 17.3988C7.18283 18.0658 6.53064 18.5 5.8077 18.5C4.71468 18.5 3.87608 17.5303 4.03381 16.4487Z" fill="#363538"/>
</svg>
