<svg width="24" height="24" viewBox="0 0 24 24" fill="none" xmlns="http://www.w3.org/2000/svg">
<path d="M18 4.5H6C4.61929 4.5 3.5 5.61929 3.5 7V15C3.5 16.3807 4.61929 17.5 6 17.5H7.25C7.66421 17.5 8 17.8358 8 18.25C8 18.6642 7.66421 19 7.25 19H6C3.79086 19 2 17.2091 2 15V7C2 4.79086 3.79086 3 6 3H18C20.2091 3 22 4.79086 22 7V11.25C22 11.6642 21.6642 12 21.25 12C20.8358 12 20.5 11.6642 20.5 11.25V7C20.5 5.61929 19.3807 4.5 18 4.5Z" fill="#363538"/>
<path d="M13.8514 14.8401C13.8514 14.4259 13.5156 14.0901 13.1014 14.0901C12.6872 14.0901 12.3514 14.4259 12.3514 14.8401V14.8683H12.3198C11.9056 14.8683 11.5698 15.2041 11.5698 15.6183C11.5698 16.0325 11.9056 16.3683 12.3198 16.3683H12.3514V16.4C12.3514 16.8142 12.6872 17.15 13.1014 17.15C13.5156 17.15 13.8514 16.8142 13.8514 16.4V16.3683H13.88C14.2942 16.3683 14.63 16.0325 14.63 15.6183C14.63 15.2041 14.2942 14.8683 13.88 14.8683H13.8514V14.8401Z" fill="#363538"/>
<path d="M18.5834 14.4191C18.5834 14.7029 18.3533 14.933 18.0695 14.933C17.7856 14.933 17.5555 14.7029 17.5555 14.4191C17.5555 14.1353 17.7856 13.9052 18.0695 13.9052C18.3533 13.9052 18.5834 14.1353 18.5834 14.4191Z" fill="#363538"/>
<path d="M18.0695 16.9888C18.3533 16.9888 18.5834 16.7587 18.5834 16.4748C18.5834 16.191 18.3533 15.9609 18.0695 15.9609C17.7856 15.9609 17.5555 16.191 17.5555 16.4748C17.5555 16.7587 17.7856 16.9888 18.0695 16.9888Z" fill="#363538"/>
<path d="M19.6113 15.447C19.6113 15.7308 19.3812 15.9609 19.0974 15.9609C18.8135 15.9609 18.5834 15.7308 18.5834 15.447C18.5834 15.1631 18.8135 14.933 19.0974 14.933C19.3812 14.933 19.6113 15.1631 19.6113 15.447Z" fill="#363538"/>
<path d="M17.0416 15.9609C17.3254 15.9609 17.5555 15.7308 17.5555 15.447C17.5555 15.1631 17.3254 14.933 17.0416 14.933C16.7578 14.933 16.5277 15.1631 16.5277 15.447C16.5277 15.7308 16.7578 15.9609 17.0416 15.9609Z" fill="#363538"/>
<path fill-rule="evenodd" clip-rule="evenodd" d="M9.78233 14.3467L9.02406 19.0463C8.82553 20.4076 9.88101 21.6282 11.2567 21.6282C12.0479 21.6282 12.7718 21.2149 13.1779 20.5551C13.2073 20.5074 13.236 20.4593 13.2648 20.4112C13.356 20.2585 13.4472 20.1057 13.558 19.9669C13.6347 19.8708 13.7008 19.7667 13.767 19.6627C13.8265 19.5692 13.8861 19.4755 13.9533 19.3877C14.1241 19.1643 14.3597 18.999 14.6267 18.9141C14.7588 18.8721 14.8986 18.8497 15.042 18.8497H15.958C16.1014 18.8497 16.2412 18.8721 16.3733 18.9141C16.6403 18.999 16.8759 19.1643 17.0467 19.3877C17.1139 19.4755 17.1734 19.5691 17.2329 19.6626C17.2991 19.7667 17.3653 19.8707 17.442 19.9669C17.5527 20.1057 17.644 20.2584 17.7352 20.4111C17.7639 20.4593 17.7927 20.5074 17.8221 20.5551C18.2282 21.2149 18.9521 21.6282 19.7433 21.6282C21.119 21.6282 22.1745 20.4076 21.9759 19.0463L21.2177 14.3467C20.9742 12.6772 19.2947 11.6219 17.6849 12.1269L17.2711 12.2567C17.0056 12.3401 16.7289 12.3824 16.4506 12.3824H14.5494C14.2711 12.3824 13.9944 12.3401 13.7289 12.2567L13.3151 12.1269C11.7053 11.6219 10.0258 12.6772 9.78233 14.3467ZM20.4928 19.2711L19.7368 14.5856L19.7334 14.5632C19.6231 13.8073 18.8627 13.3295 18.1339 13.5582L17.7201 13.688C17.3093 13.8169 16.8812 13.8824 16.4506 13.8824H14.5494C14.1188 13.8824 13.6907 13.8169 13.2799 13.688L12.8661 13.5582C12.1373 13.3295 11.3769 13.8073 11.2666 14.5632L11.2632 14.5856L10.5072 19.2711C10.4461 19.724 10.7984 20.1282 11.2567 20.1282C11.5216 20.1282 11.7645 19.9898 11.9006 19.7688C11.9113 19.7514 11.9259 19.7267 11.9438 19.6965C12.0322 19.5475 12.2013 19.2623 12.3854 19.0314C12.4017 19.011 12.4256 18.9767 12.4917 18.8729L12.5053 18.8514C12.5606 18.7644 12.6531 18.6185 12.7618 18.4764C13.2963 17.7775 14.134 17.3497 15.042 17.3497H15.958C16.866 17.3497 17.7037 17.7775 18.2382 18.4764C18.3468 18.6184 18.4393 18.7642 18.4946 18.8512L18.5083 18.8729C18.5744 18.9767 18.5983 19.011 18.6146 19.0314C18.7987 19.2623 18.9678 19.5475 19.0562 19.6965L19.078 19.7332C19.0863 19.7472 19.0935 19.7591 19.0994 19.7688C19.2355 19.9898 19.4784 20.1282 19.7433 20.1282C20.2016 20.1282 20.5539 19.724 20.4928 19.2711Z" fill="#363538"/>
</svg>
