<svg width="24" height="24" viewBox="0 0 24 24" fill="none" xmlns="http://www.w3.org/2000/svg">
<path fill-rule="evenodd" clip-rule="evenodd" d="M5.5 7C5.5 5.89543 6.39543 5 7.5 5H11.5C12.6046 5 13.5 5.89543 13.5 7V11C13.5 12.1046 12.6046 13 11.5 13H7.5C6.39543 13 5.5 12.1046 5.5 11V7ZM7 7C7 6.72386 7.22386 6.5 7.5 6.5H11.5C11.7761 6.5 12 6.72386 12 7V11C12 11.2761 11.7761 11.5 11.5 11.5H7.5C7.22386 11.5 7 11.2761 7 11V7Z" fill="#363538"/>
<path fill-rule="evenodd" clip-rule="evenodd" d="M5 2C3.89543 2 3 2.89543 3 4V20C3 21.1046 3.89543 22 5 22H14C15.1046 22 16 21.1046 16 20V15.7502C16.0477 15.7502 16.0954 15.7457 16.1424 15.7366C16.1517 15.796 16.1608 15.8615 16.1694 15.9337C16.2191 16.3483 16.25 16.9416 16.25 17.7727C16.25 18.9465 16.5284 19.8712 17.0151 20.5515C17.5045 21.2356 18.1698 21.6223 18.8417 21.7674C19.5002 21.9096 20.178 21.8226 20.7165 21.5472C21.2484 21.2753 21.75 20.7487 21.75 20.0002L21.7501 9.96581C21.7502 9.31079 21.7504 7.9654 21.4006 6.89263C21.2226 6.34665 20.9149 5.74411 20.3483 5.3832C19.8956 5.09481 19.3746 5.01915 18.8185 5.12569L18.1241 4.08402C17.8944 3.73936 17.4287 3.64619 17.0841 3.87593C16.7394 4.10567 16.6462 4.57132 16.876 4.91598L17.5597 5.94164C17.4521 6.19025 17.4388 6.44352 17.4493 6.64439C17.4696 7.03095 17.5994 7.47871 17.7066 7.84852L17.7177 7.88711C17.8376 8.30088 17.9495 8.68711 18.0035 9.05835C18.0577 9.43125 18.0404 9.71255 17.9593 9.92251C17.9452 9.95908 17.9284 9.99808 17.9045 10.053L17.9014 10.0602C17.8799 10.1094 17.8522 10.1731 17.8264 10.2392C17.7723 10.3778 17.7069 10.5744 17.6959 10.8071C17.6824 11.0936 17.7331 11.4006 17.9188 11.6692C18.1057 11.9397 18.365 12.078 18.5877 12.1492C18.801 12.2175 19.019 12.2369 19.1911 12.2445C19.3175 12.2501 19.4579 12.2501 19.5785 12.2501C19.6193 12.2501 19.658 12.2501 19.6929 12.2503C20.0245 12.2524 20.1659 12.2779 20.2266 12.3068C20.2344 12.3281 20.25 12.3853 20.25 12.5002V20.0002C20.25 20.0017 20.2517 20.1002 20.0336 20.2117C19.8221 20.3199 19.4999 20.3749 19.1584 20.3012C18.8303 20.2303 18.4956 20.0431 18.235 19.6788C17.9717 19.3107 17.75 18.7126 17.75 17.7727C17.75 16.9127 17.7185 16.2533 17.6588 15.7552C17.6018 15.2801 17.5111 14.8684 17.3401 14.5666C17.2493 14.4063 17.1078 14.2267 16.8874 14.1099C16.6511 13.9846 16.4057 13.9746 16.1986 14.0224C16.1287 14.0385 16.0624 14.0615 16 14.0888V4C16 2.89543 15.1046 2 14 2H5ZM5 3.5C4.72386 3.5 4.5 3.72386 4.5 4V20C4.5 20.2761 4.72386 20.5 5 20.5H14C14.2761 20.5 14.5 20.2761 14.5 20V4C14.5 3.72386 14.2761 3.5 14 3.5H5ZM20.25 10.7803V10.0002C20.25 9.30819 20.2434 8.18244 19.9745 7.35765C19.84 6.94527 19.679 6.73529 19.5424 6.64832C19.4631 6.5978 19.3015 6.52955 18.9533 6.63484C18.9749 6.81931 19.0455 7.07957 19.1565 7.46283L19.1701 7.50963C19.2817 7.89451 19.4187 8.36716 19.4879 8.84245C19.5599 9.33765 19.5713 9.91227 19.3586 10.463C19.3318 10.5323 19.3031 10.5983 19.281 10.6491L19.2799 10.6516C19.2638 10.6885 19.2509 10.7183 19.2397 10.7451L19.2574 10.7459C19.3484 10.75 19.4378 10.75 19.5456 10.75C19.5936 10.75 19.6452 10.75 19.7023 10.7503C19.8469 10.7513 20.0402 10.7528 20.25 10.7803Z" fill="#363538"/>
</svg>
