<svg width="24" height="24" viewBox="0 0 24 24" fill="none" xmlns="http://www.w3.org/2000/svg">
<path fill-rule="evenodd" clip-rule="evenodd" d="M2 9.75L10.1762 19.8149C11.1166 20.9725 12.8837 20.9722 13.824 19.8146L22 9.75L19.5528 4.85557C19.214 4.178 18.5215 3.75 17.7639 3.75H6.23607C5.47852 3.75 4.786 4.178 4.44721 4.85557L2 9.75ZM4.82121 10.8439L7.46804 14.1022L6.43983 11.0382L4.82121 10.8439ZM8.06889 11.1778L10.1639 17.4208L11.3405 18.8691C11.6803 19.2875 12.3195 19.2877 12.6598 18.8689L13.8363 17.4206L15.9311 11.1778C13.3129 11.3403 10.6871 11.3403 8.06889 11.1778ZM17.4783 9.53722L20.0616 9.22723L18.2111 5.52639C18.1264 5.357 17.9533 5.25 17.7639 5.25H15.7285L17.4783 9.53722ZM14.1084 5.25H9.89178L8.08524 9.67587C10.6925 9.84095 13.3076 9.84095 15.9148 9.67586L14.1084 5.25ZM6.52169 9.53722L8.27163 5.25H6.23607C6.04668 5.25 5.87355 5.357 5.78885 5.52639L3.93843 9.22723L6.52169 9.53722ZM19.1788 10.8439L17.5602 11.0382L16.532 14.1021L19.1788 10.8439Z" fill="#363538"/>
</svg>
