<svg width="24" height="24" viewBox="0 0 24 24" fill="none" xmlns="http://www.w3.org/2000/svg">
<path fill-rule="evenodd" clip-rule="evenodd" d="M14.2858 4.37158C13.8716 4.37158 13.5358 4.70737 13.5358 5.12158C13.5358 5.5358 13.8716 5.87158 14.2858 5.87158H16.7178L12.6574 9.93196C11.8382 9.34545 10.8344 9.00024 9.75 9.00024C6.98858 9.00024 4.75 11.2388 4.75 14.0002C4.75 16.7617 6.98858 19.0002 9.75 19.0002C12.5114 19.0002 14.75 16.7617 14.75 14.0002C14.75 12.8644 14.3713 11.817 13.7332 10.9775L17.7784 6.93224V9.36422C17.7784 9.77844 18.1142 10.1142 18.5284 10.1142C18.9426 10.1142 19.2784 9.77844 19.2784 9.36422V5.12158C19.2784 4.92267 19.1994 4.7319 19.0588 4.59125C18.9181 4.4506 18.7273 4.37158 18.5284 4.37158H14.2858ZM13.25 14.0002C13.25 15.9332 11.683 17.5002 9.75 17.5002C7.817 17.5002 6.25 15.9332 6.25 14.0002C6.25 12.0672 7.817 10.5002 9.75 10.5002C10.7294 10.5002 11.6126 10.9006 12.2496 11.5503C12.87 12.1832 13.25 13.0458 13.25 14.0002Z" fill="#363538"/>
</svg>
