<svg width="24" height="24" viewBox="0 0 24 24" fill="none" xmlns="http://www.w3.org/2000/svg">
<path fill-rule="evenodd" clip-rule="evenodd" d="M12.75 11.9444C15.1556 11.5825 17 9.50676 17 7.00024C17 4.23882 14.7614 2.00024 12 2.00024C9.23858 2.00024 7 4.23882 7 7.00024C7 9.50676 8.84437 11.5825 11.25 11.9444V15.2502H8C7.58579 15.2502 7.25 15.586 7.25 16.0002C7.25 16.4145 7.58579 16.7502 8 16.7502H11.25V21.0002C11.25 21.4145 11.5858 21.7502 12 21.7502C12.4142 21.7502 12.75 21.4145 12.75 21.0002V16.7502H16C16.4142 16.7502 16.75 16.4145 16.75 16.0002C16.75 15.586 16.4142 15.2502 16 15.2502H12.75V11.9444ZM15.5 7.00024C15.5 8.93324 13.933 10.5002 12 10.5002C10.067 10.5002 8.5 8.93324 8.5 7.00024C8.5 5.06725 10.067 3.50024 12 3.50024C13.933 3.50024 15.5 5.06725 15.5 7.00024Z" fill="#363538"/>
</svg>
