<svg width="24" height="24" viewBox="0 0 24 24" fill="none" xmlns="http://www.w3.org/2000/svg">
<path d="M9.99981 8.99976C10.8282 8.99976 11.4998 9.67133 11.4998 10.4998C11.4998 11.3282 10.8282 11.9998 9.99981 11.9998C9.17153 11.9996 8.49981 11.3281 8.49981 10.4998C8.49981 9.67143 9.17153 8.99993 9.99981 8.99976Z" fill="#363538"/>
<path d="M14.9998 8.99976C15.8282 8.99976 16.4998 9.67133 16.4998 10.4998C16.4998 11.3282 15.8282 11.9998 14.9998 11.9998C14.1715 11.9996 13.4998 11.3281 13.4998 10.4998C13.4998 9.67143 14.1715 8.99992 14.9998 8.99976Z" fill="#363538"/>
<path fill-rule="evenodd" clip-rule="evenodd" d="M12.4998 1.74976C16.9947 1.74976 20.5016 5.56104 20.4481 10.0007C20.4159 12.6658 20.4729 15.5692 20.7449 17.9128C20.8008 18.394 20.8796 18.9749 20.9588 19.5251C21.1641 20.9508 20.0656 22.2498 18.6102 22.2498H18.4998C17.2573 22.2496 16.2498 21.2423 16.2498 19.9998C16.2498 19.5855 15.914 19.2498 15.4998 19.2498C15.0857 19.2499 14.7498 19.5856 14.7498 19.9998C14.7498 21.2424 13.7425 22.2498 12.4998 22.2498C11.2573 22.2496 10.2498 21.2423 10.2498 19.9998C10.2498 19.5855 9.91403 19.2498 9.49981 19.2498C9.08574 19.2499 8.74981 19.5856 8.74981 19.9998C8.74981 21.2424 7.74245 22.2498 6.49981 22.2498H6.38946C4.93416 22.2496 3.83558 20.9507 4.04083 19.5251C4.12006 18.9749 4.19883 18.394 4.2547 17.9128C4.52677 15.5692 4.58376 12.6658 4.55157 10.0007C4.49802 5.56114 8.00513 1.74993 12.4998 1.74976ZM12.4998 3.24976C8.89488 3.24993 6.00737 6.32364 6.05157 9.98315C6.08399 12.6684 6.02813 15.6475 5.74493 18.0867C5.68674 18.5878 5.60515 19.1838 5.5252 19.739C5.44801 20.2754 5.86269 20.7496 6.38946 20.7498H6.49981C6.91403 20.7498 7.24981 20.414 7.24981 19.9998C7.24981 18.7572 8.25732 17.7499 9.49981 17.7498C10.7425 17.7498 11.7498 18.7571 11.7498 19.9998C11.7498 20.4139 12.0857 20.7496 12.4998 20.7498C12.914 20.7498 13.2498 20.414 13.2498 19.9998C13.2498 18.7572 14.2573 17.7499 15.4998 17.7498C16.7425 17.7498 17.7498 18.7571 17.7498 19.9998C17.7498 20.4139 18.0857 20.7496 18.4998 20.7498H18.6102C19.1371 20.7498 19.5517 20.2755 19.4744 19.739C19.3945 19.1838 19.3129 18.5878 19.2547 18.0867C18.9715 15.6475 18.9156 12.6684 18.9481 9.98315C18.9923 6.32353 16.1049 3.24976 12.4998 3.24976Z" fill="#363538"/>
</svg>
