<svg width="24" height="24" viewBox="0 0 24 24" fill="none" xmlns="http://www.w3.org/2000/svg">
<path d="M9.81678 11.3086C9.68303 11.3086 9.56935 11.2179 9.51056 11.0978C9.48761 11.0509 9.46201 11.0066 9.43377 10.965C9.3663 10.8638 9.28374 10.7786 9.18608 10.7093C9.0902 10.6383 8.98011 10.5842 8.85582 10.5469C8.73331 10.5096 8.59748 10.4909 8.44833 10.4909C8.16957 10.4909 7.92454 10.5602 7.71325 10.6987C7.50373 10.8372 7.34038 11.0387 7.22319 11.3033C7.106 11.566 7.04741 11.8874 7.04741 12.2674C7.04741 12.6474 7.10511 12.9705 7.22053 13.2369C7.33594 13.5032 7.49929 13.7065 7.71058 13.8468C7.92188 13.9853 8.17134 14.0545 8.45899 14.0545C8.71999 14.0545 8.94283 14.0083 9.12749 13.916C9.31392 13.8219 9.45597 13.6896 9.55362 13.5192C9.64809 13.3572 9.69768 13.1672 9.7024 12.9492H8.62714C8.57398 12.9492 8.5309 12.9061 8.5309 12.853V12.381C8.5309 12.2153 8.66521 12.081 8.8309 12.081H10.5134C10.6791 12.081 10.8134 12.2153 10.8134 12.381V12.7681C10.8134 13.2475 10.7122 13.6594 10.5098 14.0039C10.3074 14.3466 10.0286 14.6111 9.67347 14.7976C9.31836 14.9822 8.91176 15.0746 8.45366 15.0746C7.94229 15.0746 7.49308 14.9618 7.106 14.7363C6.71893 14.5091 6.41708 14.1868 6.20046 13.7695C5.98562 13.3505 5.8782 12.8533 5.8782 12.2781C5.8782 11.8359 5.94212 11.4418 6.06996 11.0955C6.19957 10.7475 6.38068 10.4528 6.61328 10.2113C6.84588 9.96981 7.11666 9.78604 7.4256 9.65998C7.73455 9.53391 8.06925 9.47088 8.42969 9.47088C8.73864 9.47088 9.02628 9.51616 9.29261 9.60671C9.55895 9.69549 9.7951 9.82155 10.0011 9.98491C10.2088 10.1483 10.3784 10.3427 10.5098 10.5682C10.5846 10.6956 10.6441 10.8304 10.6884 10.9728C10.7425 11.1466 10.6005 11.3086 10.4185 11.3086H9.81678Z" fill="#363538"/>
<path d="M12.5329 9.54545C12.6986 9.54545 12.8329 9.67977 12.8329 9.84545V14.7C12.8329 14.8657 12.6986 15 12.5329 15H11.9796C11.814 15 11.6796 14.8657 11.6796 14.7V9.84545C11.6796 9.67977 11.814 9.54545 11.9796 9.54545H12.5329Z" fill="#363538"/>
<path d="M13.7817 14.7C13.7817 14.8657 13.916 15 14.0817 15H14.6349C14.8006 15 14.9349 14.8657 14.9349 14.7V13.0468C14.9349 12.8811 15.0692 12.7468 15.2349 12.7468H16.8535C17.0192 12.7468 17.1535 12.6125 17.1535 12.4468V12.096C17.1535 11.9303 17.0192 11.796 16.8535 11.796H15.2349C15.0692 11.796 14.9349 11.6617 14.9349 11.496V10.7963C14.9349 10.6306 15.0692 10.4963 15.2349 10.4963H17.0932C17.2589 10.4963 17.3932 10.362 17.3932 10.1963V9.84545C17.3932 9.67977 17.2589 9.54545 17.0932 9.54545H14.0817C13.916 9.54545 13.7817 9.67977 13.7817 9.84545V14.7Z" fill="#363538"/>
<path fill-rule="evenodd" clip-rule="evenodd" d="M6 3H18C20.2091 3 22 4.79086 22 7V17C22 19.2091 20.2091 21 18 21H6C3.79086 21 2 19.2091 2 17V7C2 4.79086 3.79086 3 6 3ZM18 4.5H6C4.61929 4.5 3.5 5.61929 3.5 7V17C3.5 18.3807 4.61929 19.5 6 19.5H18C19.3807 19.5 20.5 18.3807 20.5 17V7C20.5 5.61929 19.3807 4.5 18 4.5Z" fill="#363538"/>
</svg>
