<svg width="24" height="24" viewBox="0 0 24 24" fill="none" xmlns="http://www.w3.org/2000/svg">
<path d="M11.416 17.8759C11.0713 17.6462 10.6057 17.7393 10.3759 18.0839C10.1462 18.4286 10.2393 18.8942 10.5839 19.124C11.7442 19.8975 13.2557 19.8975 14.416 19.124C14.7606 18.8942 14.8538 18.4286 14.624 18.0839C14.3942 17.7393 13.9286 17.6462 13.5839 17.8759C12.9275 18.3135 12.0724 18.3135 11.416 17.8759Z" fill="#363538"/>
<path fill-rule="evenodd" clip-rule="evenodd" d="M11.8247 2.00372C11.7868 1.99993 11.7486 1.99904 11.7106 2.00104C10.0684 2.08747 7.66327 2.47651 5.64814 3.81236C3.58399 5.1807 2.00004 7.49893 2.00003 11.2498C2.00002 14.4885 2.20016 16.4551 2.33233 17.7538C2.34898 17.9174 2.36455 18.0704 2.3785 18.214C2.44179 18.8652 2.4631 19.2528 2.42701 19.5589C2.39536 19.8274 2.31723 20.0469 2.12595 20.3338C1.95408 20.5916 1.95845 20.9286 2.13694 21.1819C2.31544 21.4351 2.6313 21.5526 2.9319 21.4774C3.99886 21.2107 5.08422 20.5054 6.04927 19.4428C6.67133 20.1566 7.36126 20.7348 8.1503 21.1601C9.20367 21.7279 10.3901 21.9998 11.75 21.9998C12.8148 21.9998 14.8593 21.8103 16.6595 20.6362C17.7721 19.9106 18.752 18.8343 19.3579 17.2809C19.7192 18.1105 20.1253 18.8077 20.4288 19.3288C20.49 19.4338 20.5469 19.5316 20.5985 19.6219C20.7673 19.9172 21.1135 20.062 21.4422 19.9747C21.7709 19.8874 21.9997 19.5899 21.9997 19.2498C21.9997 13.3798 21.5097 9.25929 19.9664 6.50804C18.3645 3.65251 15.7102 2.39229 11.8247 2.00372ZM8.86206 19.8397C8.18446 19.4744 7.57093 18.9467 6.99067 18.232C7.51456 17.4485 7.98606 16.5336 8.37512 15.4923C8.64997 15.8037 9.05206 16 9.5 16C10.3284 16 11 15.3284 11 14.5C11 13.6716 10.3284 13 9.5 13C9.35176 13 9.20854 13.0215 9.07329 13.0616C9.24543 12.2398 9.37039 11.3621 9.43901 10.4302C10.7023 11.4795 12.4619 12.5946 14.5394 13.3479C14.2098 13.623 14 14.037 14 14.5C14 15.3284 14.6716 16 15.5 16C16.3284 16 17 15.3284 17 14.5C17 14.3262 16.9704 14.1593 16.9161 14.0041C17.4251 14.101 17.9466 14.1721 18.4788 14.213C18.3089 17.0286 17.1305 18.5382 15.8401 19.3798C14.3904 20.3253 12.6849 20.4998 11.75 20.4998C10.598 20.4998 9.6636 20.2718 8.86206 19.8397ZM20.4339 15.9207C20.1766 15.1789 19.9998 14.366 19.9998 13.5C19.9998 13.0919 19.6734 12.7587 19.2654 12.7502C14.7254 12.6556 10.8742 9.97173 9.30472 8.24531C9.09629 8.01603 8.76832 7.93853 8.47932 8.05027C8.19031 8.162 7.99976 8.43995 7.99976 8.74981C7.99976 12.892 6.86094 15.9224 5.45897 17.8015C4.96513 18.4634 4.44713 18.9723 3.94303 19.3406C3.95149 18.9567 3.91709 18.5383 3.87147 18.0689C3.85734 17.9236 3.84167 17.7696 3.82499 17.6056C3.69382 16.3164 3.50002 14.4117 3.50003 11.2498C3.50004 8.00088 4.83276 6.15253 6.47694 5.0626C8.14918 3.95405 10.2132 3.58825 11.7326 3.50207C15.3117 3.86953 17.3918 4.98449 18.6582 7.24191C19.719 9.133 20.2584 11.9004 20.4339 15.9207Z" fill="#363538"/>
</svg>
