<svg width="24" height="24" viewBox="0 0 24 24" fill="none" xmlns="http://www.w3.org/2000/svg">
<path fill-rule="evenodd" clip-rule="evenodd" d="M9 11.25C9.03151 11.25 9.06256 11.2519 9.09305 11.2557C9.42409 9.9589 10.6001 9 12 9C13.3999 9 14.5759 9.9589 14.907 11.2557C14.9374 11.2519 14.9685 11.25 15 11.25L21 11.25C21.4142 11.25 21.75 11.5858 21.75 12C21.75 12.4142 21.4142 12.75 21 12.75L15 12.75C14.9685 12.75 14.9374 12.7481 14.907 12.7443C14.5759 14.0411 13.3999 15 12 15C10.6001 15 9.42409 14.0411 9.09305 12.7443C9.06256 12.7481 9.03151 12.75 9 12.75H3C2.58579 12.75 2.25 12.4142 2.25 12C2.25 11.5858 2.58579 11.25 3 11.25H9ZM10.5 12C10.5 12.8284 11.1716 13.5 12 13.5C12.8284 13.5 13.5 12.8284 13.5 12C13.5 11.1716 12.8284 10.5 12 10.5C11.1716 10.5 10.5 11.1716 10.5 12Z" fill="#363538"/>
</svg>
