<svg width="24" height="24" viewBox="0 0 24 24" fill="none" xmlns="http://www.w3.org/2000/svg">
<path fill-rule="evenodd" clip-rule="evenodd" d="M6.96915 4.19438C6.88574 4.50309 6.8317 5.26155 7.64311 6.6139C7.76804 6.82211 7.78443 7.07793 7.68711 7.30039C6.84549 9.22409 6.75148 10.4844 6.94793 11.3009C7.13652 12.0847 7.62036 12.5714 8.23221 12.9028C8.86575 13.246 9.60462 13.4026 10.214 13.5017C10.2981 13.5153 10.3869 13.5289 10.4751 13.5423C10.6685 13.5718 10.8588 13.6008 10.9894 13.6296C11.0441 13.6417 11.1087 13.6577 11.1737 13.6797C11.2291 13.6985 11.3352 13.7378 11.4412 13.8152C11.5447 13.8908 11.7626 14.091 11.7723 14.4359C11.7813 14.7551 11.6014 14.959 11.5303 15.0301C11.4482 15.1123 11.3738 15.1836 11.306 15.2486C10.9859 15.5556 10.8115 15.7229 10.6454 16.2363C10.4164 16.9441 10.25 18.2504 10.25 20.9997C10.25 21.414 9.91421 21.7497 9.5 21.7497C9.08579 21.7497 8.75 21.414 8.75 20.9997C8.75 19.9271 8.77422 19.0418 8.82209 18.3041C8.7386 18.3059 8.64969 18.3046 8.5571 18.2977C8.04425 18.2597 7.49954 18.0599 6.96967 17.5301C6.64988 17.2103 6.45458 16.8931 6.30842 16.6351C6.27356 16.5736 6.24335 16.5194 6.21638 16.4711C6.1195 16.2973 6.0645 16.1987 5.98633 16.1049C5.88426 15.9824 5.6615 15.7497 4.5 15.7497C4.08579 15.7497 3.75 15.414 3.75 14.9997C3.75 14.5855 4.08579 14.2497 4.5 14.2497C5.8385 14.2497 6.61574 14.5171 7.13867 15.1446C7.31624 15.3577 7.45481 15.6089 7.55714 15.7944C7.57731 15.8309 7.59608 15.8649 7.61345 15.8956C7.73292 16.1064 7.85012 16.2892 8.03033 16.4694C8.30046 16.7395 8.50575 16.7898 8.6679 16.8018C8.7611 16.8087 8.85903 16.8035 8.98303 16.7911C9.04809 16.391 9.12657 16.058 9.21821 15.7746C9.33188 15.4232 9.46833 15.1465 9.61378 14.9194C9.00578 14.8046 8.23373 14.6095 7.51779 14.2217C6.62963 13.7406 5.80097 12.9461 5.48955 11.6518C5.20327 10.4619 5.38133 8.95795 6.16457 7.0489C5.10878 5.10043 5.30863 3.63048 5.96966 2.96944C6.07436 2.86474 6.20771 2.79337 6.3529 2.76434C6.86967 2.66098 7.66888 2.63268 8.47266 2.86732C9.1139 3.05451 9.78014 3.41778 10.2862 4.05741C11.0991 3.75487 11.6792 3.74975 12 3.74975C12.3207 3.74975 12.9009 3.75487 13.7138 4.05742C14.2199 3.41778 14.8861 3.05451 15.5273 2.86732C16.3311 2.63268 17.1303 2.66098 17.6471 2.76434C17.7923 2.79337 17.9256 2.86474 18.0303 2.96944C18.6914 3.63048 18.8912 5.10043 17.8354 7.0489C18.6187 8.95796 18.7967 10.4619 18.5104 11.6518C18.199 12.9461 17.3704 13.7406 16.4822 14.2217C15.7663 14.6095 14.9942 14.8046 14.3862 14.9194C14.5317 15.1465 14.6681 15.4232 14.7818 15.7746C15.0907 16.7297 15.25 18.2491 15.25 20.9997C15.25 21.414 14.9142 21.7497 14.5 21.7497C14.0858 21.7497 13.75 21.414 13.75 20.9997C13.75 18.2504 13.5836 16.9441 13.3546 16.2363C13.1885 15.7229 13.0141 15.5556 12.694 15.2486C12.6262 15.1836 12.5518 15.1123 12.4697 15.0301C12.3986 14.959 12.2187 14.7551 12.2277 14.4359C12.2374 14.091 12.4553 13.8908 12.5588 13.8152C12.6648 13.7378 12.7709 13.6985 12.8263 13.6797C12.8913 13.6577 12.9559 13.6417 13.0106 13.6296C13.1412 13.6008 13.3315 13.5718 13.5249 13.5423C13.6131 13.5289 13.7019 13.5153 13.786 13.5017C14.3954 13.4026 15.1342 13.246 15.7678 12.9028C16.3796 12.5714 16.8635 12.0847 17.0521 11.3009C17.2485 10.4844 17.1545 9.22409 16.3129 7.30039C16.2156 7.07793 16.232 6.82211 16.3569 6.6139C17.1683 5.26155 17.1143 4.50309 17.0308 4.19438C16.7234 4.17405 16.3322 4.19496 15.9477 4.30722C15.4274 4.45909 14.9566 4.76369 14.6708 5.33518C14.5819 5.5131 14.4259 5.64839 14.2372 5.71129C14.0485 5.77419 13.8425 5.75955 13.6646 5.67059C12.8221 5.24934 12.2881 5.24961 12.0143 5.24974C12.0094 5.24975 12.0047 5.24975 12 5.24975C11.9953 5.24975 11.9905 5.24975 11.9857 5.24974C11.7119 5.24961 11.1779 5.24934 10.3354 5.67059C10.1575 5.75955 9.95154 5.77419 9.76283 5.71129C9.57413 5.64839 9.41813 5.5131 9.32918 5.33518C9.04343 4.76369 8.57255 4.45909 8.05232 4.30722C7.66775 4.19496 7.27659 4.17405 6.96915 4.19438Z" fill="#363538"/>
</svg>
