<svg width="24" height="24" viewBox="0 0 24 24" fill="none" xmlns="http://www.w3.org/2000/svg">
<path fill-rule="evenodd" clip-rule="evenodd" d="M20.9998 7.25049C21.9663 7.25049 22.7498 8.03399 22.7498 9.00049V11.604C22.7498 14.4461 20.4454 16.7505 17.6033 16.7505H16.5496C14.7098 16.7505 13.1255 15.452 12.7645 13.6479L12.4608 12.1284C12.4168 11.9088 12.2238 11.7505 11.9998 11.7505C11.8037 11.7505 11.6316 11.8717 11.5623 12.0493L11.5389 12.1284L11.2352 13.6479C10.8742 15.452 9.28983 16.7505 7.45001 16.7505H6.3963C3.5542 16.7505 1.24982 14.4461 1.24982 11.604V9.00049C1.24982 8.03399 2.03332 7.25049 2.99982 7.25049H20.9998ZM2.99982 8.75049C2.86175 8.75049 2.74982 8.86242 2.74982 9.00049V11.604C2.74982 13.6177 4.38263 15.2505 6.3963 15.2505H7.45001C8.57493 15.2505 9.54385 14.4561 9.76447 13.353L10.0682 11.8335L10.1102 11.6646C10.3541 10.8331 11.1195 10.2505 11.9998 10.2505C12.9386 10.2505 13.7471 10.913 13.9315 11.8335L14.2352 13.353C14.4558 14.4561 15.4247 15.2505 16.5496 15.2505H17.6033C19.617 15.2505 21.2498 13.6177 21.2498 11.604V9.00049C21.2498 8.86242 21.1379 8.75049 20.9998 8.75049H2.99982Z" fill="#363538"/>
</svg>
