<svg width="24" height="24" viewBox="0 0 24 24" fill="none" xmlns="http://www.w3.org/2000/svg">
<path fill-rule="evenodd" clip-rule="evenodd" d="M9.93039 12.2469C9.58057 14.0991 7.95388 15.5 6 15.5C3.79086 15.5 2 13.7091 2 11.5C2 9.29086 3.79086 7.5 6 7.5C7.93574 7.5 9.55033 8.87503 9.92032 10.7016C11.233 10.0623 12.767 10.0623 14.0797 10.7016C14.4497 8.87503 16.0643 7.5 18 7.5C20.2091 7.5 22 9.29086 22 11.5C22 13.7091 20.2091 15.5 18 15.5C16.0461 15.5 14.4194 14.0991 14.0696 12.2469C13.9347 12.2596 13.7947 12.2359 13.6646 12.1709L13.4534 12.0653C12.5385 11.6078 11.4615 11.6078 10.5466 12.0653L10.3354 12.1709C10.2053 12.2359 10.0653 12.2596 9.93039 12.2469ZM6 14C7.38071 14 8.5 12.8807 8.5 11.5C8.5 10.1193 7.38071 9 6 9C4.61929 9 3.5 10.1193 3.5 11.5C3.5 12.8807 4.61929 14 6 14ZM18 14C19.3807 14 20.5 12.8807 20.5 11.5C20.5 10.1193 19.3807 9 18 9C16.6193 9 15.5 10.1193 15.5 11.5C15.5 12.8807 16.6193 14 18 14Z" fill="#363538"/>
</svg>
