<svg width="24" height="24" viewBox="0 0 24 24" fill="none" xmlns="http://www.w3.org/2000/svg">
<path fill-rule="evenodd" clip-rule="evenodd" d="M17.7843 2C17.9034 2 18 2.09657 18 2.21569V7C18 10.0597 15.7097 12.5845 12.75 12.9536V18.5365L14.441 19.382C15.6208 19.9719 15.201 21.7501 13.882 21.7501H10.1181C8.79906 21.7501 8.37929 19.9719 9.55907 19.382L11.25 18.5366V12.9536C8.29027 12.5845 6 10.0597 6 7V2.21569C6 2.09657 6.09657 2 6.21569 2H17.7843ZM10.4588 3.5L11.1894 5.20456C11.2892 5.43752 11.2646 5.70514 11.124 5.91603L10.4651 6.90444L11.0303 7.46967C11.3232 7.76256 11.3232 8.23744 11.0303 8.53033C10.7374 8.82322 10.2626 8.82322 9.96967 8.53033L8.96967 7.53033C8.71687 7.27753 8.67765 6.88144 8.87596 6.58397L9.6506 5.42201L8.82688 3.5H7.5V7C7.5 9.48528 9.51472 11.5 12 11.5C14.4853 11.5 16.5 9.48528 16.5 7V3.5H10.4588ZM11.1771 20.2501L12 19.8386L12.823 20.2501H11.1771Z" fill="#363538"/>
</svg>
