<svg width="24" height="24" viewBox="0 0 24 24" fill="none" xmlns="http://www.w3.org/2000/svg">
<path fill-rule="evenodd" clip-rule="evenodd" d="M6 2.21569V7C6 10.0597 8.29027 12.5845 11.25 12.9536V18.5365L9.55902 19.382C8.37924 19.9719 8.79901 21.75 10.118 21.75H13.882C15.201 21.75 15.6208 19.9719 14.441 19.382L12.75 18.5365V12.9536C15.7097 12.5845 18 10.0597 18 7V2.21569C18 2.09657 17.9034 2 17.7843 2H6.21569C6.09657 2 6 2.09657 6 2.21569ZM7.5 3.5H16.5V7C16.5 9.48528 14.4853 11.5 12 11.5C9.51472 11.5 7.5 9.48528 7.5 7V3.5ZM11.1771 20.25L12 19.8385L12.8229 20.25H11.1771Z" fill="#363538"/>
</svg>
