<svg width="24" height="24" viewBox="0 0 24 24" fill="none" xmlns="http://www.w3.org/2000/svg">
<path fill-rule="evenodd" clip-rule="evenodd" d="M22 12C22 17.5228 17.5228 22 12 22C6.47715 22 2 17.5228 2 12C2 6.47715 6.47715 2 12 2C17.5228 2 22 6.47715 22 12ZM3.5 12C3.5 11.2433 3.59888 10.5097 3.78444 9.81134L4.16582 9.73157L4.20482 9.72354C4.23949 9.71645 4.29122 9.70595 4.35848 9.69252C4.49301 9.66567 4.68956 9.62714 4.93578 9.58082C5.28583 9.51498 5.73568 9.43352 6.25 9.34755V14.6525C5.73568 14.5665 5.28583 14.485 4.93578 14.4192C4.68956 14.3729 4.49301 14.3343 4.35848 14.3075C4.29122 14.2941 4.23949 14.2835 4.20482 14.2765L4.16582 14.2684L3.78444 14.1887C3.59888 13.4903 3.5 12.7567 3.5 12ZM4.6585 8.10668C5.07176 8.02894 5.62055 7.93 6.25 7.82721V5.73994C5.50467 6.42491 4.882 7.24125 4.41871 8.15227C4.49249 8.13809 4.57258 8.12284 4.6585 8.10668ZM11.25 15.2333C10.134 15.1863 8.8892 15.0461 7.75 14.8846V9.11537C8.8892 8.95393 10.134 8.81368 11.25 8.76672V15.2333ZM7.75 7.60076C8.87834 7.44519 10.1173 7.31009 11.25 7.26553V3.53263C9.98325 3.64338 8.79615 4.03198 7.75 4.63715V7.60076ZM16.25 14.8846C15.1108 15.0461 13.866 15.1863 12.75 15.2333V8.76672C13.866 8.81368 15.1108 8.95393 16.25 9.11537V14.8846ZM12.75 7.26553C13.8827 7.31009 15.1217 7.44519 16.25 7.60076V4.63715C15.2038 4.03198 14.0167 3.64338 12.75 3.53263V7.26553ZM19.0642 14.4192C18.7142 14.485 18.2643 14.5665 17.75 14.6525V9.34755C18.2643 9.43352 18.7142 9.51498 19.0642 9.58082C19.3104 9.62714 19.507 9.66567 19.6415 9.69252C19.7088 9.70595 19.7605 9.71645 19.7952 9.72354L19.8342 9.73157L19.8437 9.73354L20.2156 9.81134C20.4011 10.5097 20.5 11.2433 20.5 12C20.5 12.7567 20.4011 13.4903 20.2156 14.1887L19.8342 14.2684L19.7952 14.2765C19.7605 14.2835 19.7088 14.2941 19.6415 14.3075C19.507 14.3343 19.3104 14.3729 19.0642 14.4192ZM19.3415 8.10668C19.4274 8.12284 19.5075 8.13809 19.5813 8.15227C19.118 7.24125 18.4953 6.42491 17.75 5.73994V7.82721C18.3794 7.93 18.9282 8.02894 19.3415 8.10668ZM17.75 18.2601C18.4953 17.5751 19.118 16.7587 19.5813 15.8477C19.5075 15.8619 19.4274 15.8772 19.3415 15.8933C18.9282 15.9711 18.3794 16.07 17.75 16.1728V18.2601ZM12.75 16.7345C13.8827 16.6899 15.1217 16.5548 16.25 16.3992V19C16.25 19.1148 16.2758 19.2235 16.3219 19.3208C15.2583 19.95 14.0459 20.3541 12.75 20.4674V16.7345ZM7.75 16.3992C8.87834 16.5548 10.1173 16.6899 11.25 16.7345V20.4674C9.95415 20.3541 8.74165 19.95 7.67812 19.3208C7.72422 19.2235 7.75 19.1148 7.75 19V16.3992ZM4.6585 15.8933C5.07176 15.9711 5.62055 16.07 6.25 16.1728V18.2601C5.50467 17.5751 4.882 16.7587 4.41871 15.8477C4.49249 15.8619 4.57258 15.8772 4.6585 15.8933Z" fill="#363538"/>
</svg>
