<svg width="24" height="24" viewBox="0 0 24 24" fill="none" xmlns="http://www.w3.org/2000/svg">
<path d="M17.9998 14C18.5521 14 18.9998 14.4477 18.9998 15C18.9998 15.5523 18.5521 16 17.9998 16C17.4476 15.9999 16.9998 15.5522 16.9998 15C16.9998 14.4478 17.4476 14.0001 17.9998 14Z" fill="#363538"/>
<path fill-rule="evenodd" clip-rule="evenodd" d="M6.03598 2.25098C6.05154 2.25151 6.07097 2.25238 6.0936 2.25391C6.13895 2.25697 6.19891 2.26261 6.27328 2.27246C6.42219 2.29221 6.63025 2.32914 6.90121 2.39844C7.44359 2.53718 8.24009 2.80532 9.32309 3.32324C10.4183 3.84702 11.2127 4.37553 11.7401 4.78027C12.0035 4.98245 12.2006 5.15379 12.3348 5.27832C12.4018 5.34043 12.4537 5.3909 12.4901 5.42773C12.5082 5.44612 12.5233 5.46133 12.534 5.47266C12.5393 5.47822 12.5432 5.48354 12.5467 5.4873L12.5545 5.49512L12.618 5.57422C12.7507 5.76682 12.7863 6.01286 12.7108 6.23828C12.6352 6.46376 12.4582 6.63823 12.2362 6.71191L12.1385 6.7373C12.1377 6.73749 12.1351 6.73801 12.1336 6.73828C12.13 6.73897 12.1242 6.73983 12.117 6.74121C12.1018 6.74416 12.0785 6.74895 12.0487 6.75488C11.9886 6.76683 11.9006 6.78438 11.7909 6.80762C11.5703 6.85434 11.2621 6.92288 10.9159 7.00879C10.2989 7.16188 9.59383 7.36203 9.03696 7.58594L8.80844 7.68359C8.34155 7.89431 7.7542 8.24472 7.2645 8.55762C7.06608 8.6844 6.88941 8.80258 6.74985 8.89648V11.8545C6.77362 11.8434 6.79717 11.8314 6.82114 11.8203L7.28793 11.6094C12.0686 9.51055 15.6279 9.62355 18.0594 10.7881C20.5435 11.978 21.7508 14.2335 21.7508 16.001C21.7508 16.9986 21.6602 18.3672 20.7909 19.335C19.9238 20.3 18.5011 20.6551 16.4149 20.3135L15.9881 20.2363C14.6969 19.9781 13.9096 19.7166 13.2948 19.5322C12.7003 19.3539 12.2801 19.251 11.6356 19.251C11.2163 19.251 10.9318 19.3876 10.6581 19.6084C10.5103 19.7276 10.3664 19.8708 10.203 20.0439C10.0502 20.2058 9.8615 20.4144 9.67075 20.6006C9.27203 20.9896 8.75445 21.3952 8.00864 21.5547C7.36254 21.6928 6.62552 21.6294 5.74887 21.3389L5.36411 21.2002C3.83463 20.6066 2.30372 19.158 2.18051 17.2793C2.07445 15.6587 3.02381 14.0462 5.24985 12.6611V3C5.24985 2.58584 5.5857 2.25008 5.99985 2.25V3C5.99985 2.27852 5.99944 2.25104 5.99985 2.25H6.01547C6.02142 2.2501 6.02834 2.25071 6.03598 2.25098ZM17.411 12.1416C15.4952 11.2241 12.4121 10.9973 7.89145 12.9824L7.45004 13.1816C7.20139 13.2964 6.9687 13.413 6.74985 13.5283V16C6.74985 16.4142 6.41406 16.75 5.99985 16.75C5.5857 16.7499 5.24985 16.4142 5.24985 16V14.4824C3.9596 15.4966 3.63043 16.4611 3.67758 17.1816C3.75048 18.2887 4.71881 19.3406 5.90707 19.8018L6.2225 19.916C6.92351 20.1482 7.38187 20.1548 7.69516 20.0879C8.04544 20.013 8.3184 19.8245 8.62387 19.5264C8.7851 19.369 8.92784 19.21 9.11215 19.0146C9.28594 18.8305 9.48576 18.6259 9.71567 18.4404C10.1974 18.0519 10.805 17.751 11.6356 17.751C12.4906 17.751 13.0712 17.8982 13.7264 18.0947C14.3613 18.2851 15.0753 18.5241 16.2831 18.7656L16.6659 18.835C18.5089 19.1368 19.302 18.7468 19.6747 18.332C20.1273 17.8281 20.2507 17.0027 20.2508 16.001C20.2508 14.8532 19.4138 13.101 17.411 12.1416ZM6.74985 7.11035C7.19981 6.83169 7.72588 6.52644 8.19125 6.31641L8.46762 6.19824C9.05395 5.96181 9.73826 5.7635 10.3241 5.6123C9.90322 5.32943 9.3586 5.00295 8.67661 4.67676C7.82442 4.2692 7.18848 4.0422 6.74985 3.91406V7.11035Z" fill="#363538"/>
</svg>
