<svg width="24" height="24" viewBox="0 0 24 24" fill="none" xmlns="http://www.w3.org/2000/svg">
<path fill-rule="evenodd" clip-rule="evenodd" d="M5 13.25C6.51878 13.25 7.75 14.4812 7.75 16C7.75 17.2584 6.90373 18.3158 5.75 18.6426V20.2949C6.04093 20.3981 6.25 20.6737 6.25 21C6.25 21.4142 5.91421 21.75 5.5 21.75H4.5C4.08579 21.75 3.75 21.4142 3.75 21C3.75 20.6737 3.95907 20.3981 4.25 20.2949V18.6426C3.09627 18.3158 2.25 17.2584 2.25 16C2.25 14.4812 3.48122 13.25 5 13.25ZM5 14.75C4.30964 14.75 3.75 15.3096 3.75 16C3.75 16.6904 4.30964 17.25 5 17.25C5.69036 17.25 6.25 16.6904 6.25 16C6.25 15.3096 5.69036 14.75 5 14.75Z" fill="#363538"/>
<path fill-rule="evenodd" clip-rule="evenodd" d="M17.7539 2.25C18.8731 2.25 19.7046 3.28636 19.4619 4.37891L16.2539 18.8135C15.8726 20.5291 14.3512 21.7499 12.5938 21.75H11.5C9.98122 21.75 8.75 20.5188 8.75 19C8.75 17.4812 9.98122 16.25 11.5 16.25H12.2461C12.3576 16.2498 12.4557 16.1756 12.4863 16.0684L16.0713 3.51855C16.2859 2.7676 16.9729 2.25002 17.7539 2.25ZM17.7539 3.75C17.6426 3.75002 17.5443 3.82366 17.5137 3.93066L13.9287 16.4805C13.7141 17.2316 13.0273 17.7498 12.2461 17.75H11.5C10.8096 17.75 10.25 18.3096 10.25 19C10.25 19.6904 10.8096 20.25 11.5 20.25H12.5938C13.6482 20.2499 14.5612 19.5176 14.79 18.4883L17.9971 4.05371C18.0317 3.89787 17.9135 3.75 17.7539 3.75Z" fill="#363538"/>
</svg>
