<svg width="24" height="24" viewBox="0 0 24 24" fill="none" xmlns="http://www.w3.org/2000/svg">
<path fill-rule="evenodd" clip-rule="evenodd" d="M12.8086 3.78974C10.9092 3.60266 9.00356 4.07998 7.41655 5.14039C5.82954 6.2008 4.65931 7.77867 4.10524 9.60517C3.55118 11.4317 3.64758 13.3938 4.378 15.1572C5.10842 16.9205 6.42767 18.3761 8.11098 19.2759C9.79429 20.1756 11.7375 20.4639 13.6095 20.0915C15.4815 19.7191 17.1665 18.7092 18.3773 17.2338C19.4288 15.9526 20.0662 14.3892 20.2159 12.75H20.1634L20.2453 11.9259C20.2484 11.8946 20.25 11.8626 20.25 11.83V10.95H12.75V12.78H18.4382L18.1707 13.7328C17.9327 14.5803 17.5209 15.3759 16.9545 16.0661C16.0138 17.2123 14.7048 17.9969 13.2504 18.2862C11.7961 18.5755 10.2864 18.3516 8.97866 17.6526C7.67091 16.9536 6.64599 15.8227 6.07853 14.4528C5.51108 13.0828 5.43619 11.5585 5.86664 10.1395C6.29708 8.72049 7.20622 7.49466 8.43916 6.67084C9.67209 5.84701 11.1525 5.47618 12.6282 5.62153C13.8534 5.7422 15.0124 6.21247 15.9706 6.96872L17.2792 5.6602C16.0143 4.60692 14.4581 3.9522 12.8086 3.78974ZM21.75 12C21.75 14.2557 20.9679 16.4417 19.5369 18.1854C18.1058 19.929 16.1145 21.1226 13.9021 21.5627C11.6898 22.0027 9.39325 21.6621 7.40389 20.5988C5.41452 19.5354 3.8554 17.8152 2.99218 15.7312C2.12895 13.6472 2.01503 11.3283 2.66983 9.16974C3.32463 7.01116 4.70764 5.1464 6.58319 3.89319C8.45875 2.63998 10.7108 2.07587 12.9557 2.29696C15.2005 2.51806 17.2993 3.51069 18.8943 5.10572L19.4246 5.63605L16.0018 9.05891L15.4714 8.52858C14.6683 7.72544 13.6115 7.22563 12.4812 7.1143C11.3509 7.00298 10.2169 7.28702 9.27251 7.91804C8.32813 8.54906 7.63175 9.48801 7.30205 10.5749C6.97234 11.6618 7.0297 12.8294 7.46435 13.8787C7.89901 14.9281 8.68406 15.7943 9.68575 16.3297C10.6874 16.8651 11.8438 17.0366 12.9578 16.815C14.0718 16.5935 15.0744 15.9925 15.795 15.1145C16.0085 14.8543 16.1934 14.5745 16.3478 14.28H11.25V9.45H21.75L21.75 12Z" fill="#363538"/>
</svg>
