<svg width="24" height="24" viewBox="0 0 24 24" fill="none" xmlns="http://www.w3.org/2000/svg">
<path fill-rule="evenodd" clip-rule="evenodd" d="M20.4697 2.57718C20.7626 2.27155 21.2374 2.27155 21.5303 2.57718C21.8232 2.88281 21.8232 3.37821 21.5303 3.68384L3.53027 22.4664C3.23738 22.7721 2.76262 22.7721 2.46973 22.4664C2.17683 22.1608 2.17683 21.6654 2.46973 21.3598L6.5498 17.1013C5.72858 16.0389 5.18557 14.7326 5.04004 13.3014C5.02675 13.3021 5.01347 13.3044 5 13.3044H3C2.58579 13.3044 2.25 12.954 2.25 12.5218C2.25 12.0896 2.58579 11.7392 3 11.7392H5C5.01345 11.7392 5.02677 11.7405 5.04004 11.7412C5.38729 8.33069 7.98351 5.62159 11.252 5.25925C11.2513 5.24539 11.25 5.2315 11.25 5.21747V3.13051C11.25 2.69829 11.5858 2.3479 12 2.3479C12.4142 2.3479 12.75 2.69829 12.75 3.13051V5.21747C12.75 5.23152 12.7478 5.24538 12.7471 5.25925C14.1187 5.4111 15.3706 5.97772 16.3887 6.83465L20.4697 2.57718ZM12 6.78268C8.96243 6.78268 6.5 9.35218 6.5 12.5218C6.5 13.8242 6.91655 15.0245 7.61719 15.9875L8.69141 14.8666C8.2554 14.1982 8 13.3913 8 12.5218C8 10.2166 9.79086 8.3479 12 8.3479C12.8333 8.3479 13.6066 8.6144 14.2471 9.06937L15.3213 7.94844C14.3984 7.21734 13.2481 6.78268 12 6.78268ZM12 9.91312C10.6193 9.91312 9.5 11.0811 9.5 12.5218C9.5 12.9567 9.60374 13.3658 9.78418 13.7263L13.1543 10.2097C12.8088 10.0214 12.4168 9.91312 12 9.91312Z" fill="#363538"/>
<path d="M18.2773 9.2905C18.6338 10.0433 18.8702 10.8692 18.959 11.7412C18.9726 11.7405 18.9862 11.7392 19 11.7392H21C21.4142 11.7392 21.75 12.0896 21.75 12.5218C21.75 12.954 21.4142 13.3044 21 13.3044H19C18.9862 13.3044 18.9726 13.3021 18.959 13.3014C18.6121 16.7126 16.0162 19.4214 12.7471 19.7834C12.7478 19.7976 12.75 19.8118 12.75 19.8262V21.9131C12.75 22.3453 12.4142 22.6957 12 22.6957C11.5858 22.6957 11.25 22.3453 11.25 21.9131V19.8262C11.25 19.8118 11.2512 19.7975 11.252 19.7834C10.4162 19.6907 9.62478 19.444 8.90332 19.0721L10.042 17.8839C10.6505 18.126 11.31 18.2609 12 18.2609C15.0376 18.2609 17.5 15.6914 17.5 12.5218C17.5 11.8018 17.3707 11.1137 17.1387 10.4787L18.2773 9.2905Z" fill="#363538"/>
<path d="M15.9287 11.7412C15.9746 11.9942 16 12.2549 16 12.5218C16 14.827 14.2091 16.6957 12 16.6957C11.7442 16.6957 11.4944 16.6692 11.252 16.6213L12.8232 14.9817C13.5407 14.7203 14.1069 14.1295 14.3574 13.3808L15.9287 11.7412Z" fill="#363538"/>
</svg>
