<svg width="24" height="24" viewBox="0 0 24 24" fill="none" xmlns="http://www.w3.org/2000/svg">
<path fill-rule="evenodd" clip-rule="evenodd" d="M16 12C16 14.2091 14.2091 16 12 16C9.79086 16 8 14.2091 8 12C8 9.79086 9.79086 8 12 8C14.2091 8 16 9.79086 16 12ZM14.5 12C14.5 13.3807 13.3807 14.5 12 14.5C10.6193 14.5 9.5 13.3807 9.5 12C9.5 10.6193 10.6193 9.5 12 9.5C13.3807 9.5 14.5 10.6193 14.5 12Z" fill="#363538"/>
<path fill-rule="evenodd" clip-rule="evenodd" d="M12 2.25C12.4142 2.25 12.75 2.58579 12.75 3V5C12.75 5.01328 12.7497 5.02649 12.749 5.0396C16.0167 5.38718 18.6128 7.98328 18.9604 11.251C18.9735 11.2503 18.9867 11.25 19 11.25H21C21.4142 11.25 21.75 11.5858 21.75 12C21.75 12.4142 21.4142 12.75 21 12.75H19C18.9867 12.75 18.9735 12.7497 18.9604 12.749C18.6128 16.0167 16.0167 18.6128 12.749 18.9604C12.7497 18.9735 12.75 18.9867 12.75 19V21C12.75 21.4142 12.4142 21.75 12 21.75C11.5858 21.75 11.25 21.4142 11.25 21V19C11.25 18.9867 11.2503 18.9735 11.251 18.9604C7.98328 18.6128 5.38718 16.0167 5.0396 12.749C5.02648 12.7497 5.01328 12.75 5 12.75H3C2.58579 12.75 2.25 12.4142 2.25 12C2.25 11.5858 2.58579 11.25 3 11.25H5C5.01328 11.25 5.02648 11.2503 5.0396 11.251C5.38718 7.98328 7.98328 5.38718 11.251 5.0396C11.2503 5.02649 11.25 5.01328 11.25 5V3C11.25 2.58579 11.5858 2.25 12 2.25ZM17.5 12C17.5 15.0376 15.0376 17.5 12 17.5C8.96243 17.5 6.5 15.0376 6.5 12C6.5 8.96243 8.96243 6.5 12 6.5C15.0376 6.5 17.5 8.96243 17.5 12Z" fill="#363538"/>
</svg>
