<svg width="24" height="24" viewBox="0 0 24 24" fill="none" xmlns="http://www.w3.org/2000/svg">
<path fill-rule="evenodd" clip-rule="evenodd" d="M21.75 9.66584C21.9297 8.96773 21.6775 8.17395 20.9846 7.74017L12.9286 2.69642C12.3606 2.34078 11.6393 2.34078 11.0713 2.69642L3.01532 7.74017C1.89528 8.44141 1.92678 10.0835 3.07289 10.7412L4.74994 11.7037V18.3524C4.74994 19.6762 6.13489 20.4874 7.28654 19.9988C8.64737 19.4214 10.5617 18.7499 11.9999 18.7499C13.4382 18.7499 15.3525 19.4214 16.7133 19.9988C17.865 20.4874 19.2499 19.6762 19.2499 18.3524V11.7037L20.25 11.1298V14.9999C20.25 15.4141 20.5858 15.7499 21 15.7499C21.4142 15.7499 21.75 15.4141 21.75 14.9999V9.66584ZM12.1326 3.96779C12.0515 3.91699 11.9485 3.91699 11.8673 3.96779L3.81131 9.01154C3.65131 9.11172 3.6558 9.3463 3.81954 9.44027L11.8755 14.0637C11.9526 14.1079 12.0473 14.1079 12.1244 14.0637L20.1804 9.44027C20.2082 9.42432 20.2314 9.40433 20.25 9.38163V9.06529C20.2333 9.04493 20.2128 9.0267 20.1886 9.01154L12.1326 3.96779ZM12.8711 15.3647L17.7499 12.5646V18.3524C17.7499 18.4433 17.7049 18.5285 17.6108 18.5881C17.5143 18.6493 17.3995 18.6605 17.2992 18.6179C15.9356 18.0393 13.7718 17.2499 11.9999 17.2499C10.2281 17.2499 8.06433 18.0393 6.70063 18.6179C6.60043 18.6605 6.4856 18.6493 6.38905 18.5881C6.29493 18.5285 6.24994 18.4433 6.24994 18.3524V12.5646L11.1289 15.3647C11.6683 15.6743 12.3316 15.6743 12.8711 15.3647Z" fill="#363538"/>
</svg>
