<svg width="24" height="24" viewBox="0 0 24 24" fill="none" xmlns="http://www.w3.org/2000/svg">
<path fill-rule="evenodd" clip-rule="evenodd" d="M8 2H6C3.79086 2 2 3.79086 2 6V9C2 11.2091 3.79086 13 6 13H8C10.2091 13 12 11.2091 12 9V6C12 3.79086 10.2091 2 8 2ZM6 3.5H8C9.38071 3.5 10.5 4.61929 10.5 6V9C10.5 10.3807 9.38071 11.5 8 11.5H6C4.61929 11.5 3.5 10.3807 3.5 9V6C3.5 4.61929 4.61929 3.5 6 3.5Z" fill="#363538"/>
<path fill-rule="evenodd" clip-rule="evenodd" d="M18 2H17C14.7909 2 13 3.79086 13 6C13 8.20914 14.7909 10 17 10H18C20.2091 10 22 8.20914 22 6C22 3.79086 20.2091 2 18 2ZM17 3.5H18C19.3807 3.5 20.5 4.61929 20.5 6C20.5 7.38071 19.3807 8.5 18 8.5H17C15.6193 8.5 14.5 7.38071 14.5 6C14.5 4.61929 15.6193 3.5 17 3.5Z" fill="#363538"/>
<path fill-rule="evenodd" clip-rule="evenodd" d="M16 11H18C20.2091 11 22 12.7909 22 15V18C22 20.2091 20.2091 22 18 22H16C13.7909 22 12 20.2091 12 18V15C12 12.7909 13.7909 11 16 11ZM16 12.5C14.6193 12.5 13.5 13.6193 13.5 15V18C13.5 19.3807 14.6193 20.5 16 20.5H18C19.3807 20.5 20.5 19.3807 20.5 18V15C20.5 13.6193 19.3807 12.5 18 12.5H16Z" fill="#363538"/>
<path fill-rule="evenodd" clip-rule="evenodd" d="M7 14H6C3.79086 14 2 15.7909 2 18C2 20.2091 3.79086 22 6 22H7C9.20914 22 11 20.2091 11 18C11 15.7909 9.20914 14 7 14ZM6 15.5H7C8.38071 15.5 9.5 16.6193 9.5 18C9.5 19.3807 8.38071 20.5 7 20.5H6C4.61929 20.5 3.5 19.3807 3.5 18C3.5 16.6193 4.61929 15.5 6 15.5Z" fill="#363538"/>
</svg>
