<svg width="24" height="24" viewBox="0 0 24 24" fill="none" xmlns="http://www.w3.org/2000/svg">
<path fill-rule="evenodd" clip-rule="evenodd" d="M4.5 2H18.5C20.433 2 22 3.567 22 5.5C22 7.433 20.433 9 18.5 9H4.5C2.567 9 1 7.433 1 5.5C1 3.567 2.567 2 4.5 2ZM18.5 3.5H4.5C3.39543 3.5 2.5 4.39543 2.5 5.5C2.5 6.60457 3.39543 7.5 4.5 7.5H18.5C19.6046 7.5 20.5 6.60457 20.5 5.5C20.5 4.39543 19.6046 3.5 18.5 3.5Z" fill="#363538"/>
<path fill-rule="evenodd" clip-rule="evenodd" d="M2 18V14C2 11.7909 3.79086 10 6 10C8.20914 10 10 11.7909 10 14V18C10 20.2091 8.20914 22 6 22C3.79086 22 2 20.2091 2 18ZM3.5 14V18C3.5 19.3807 4.61929 20.5 6 20.5C7.38071 20.5 8.5 19.3807 8.5 18V14C8.5 12.6193 7.38071 11.5 6 11.5C4.61929 11.5 3.5 12.6193 3.5 14Z" fill="#363538"/>
<path fill-rule="evenodd" clip-rule="evenodd" d="M18 10H15C12.7909 10 11 11.7909 11 14V18C11 20.2091 12.7909 22 15 22H18C20.2091 22 22 20.2091 22 18V14C22 11.7909 20.2091 10 18 10ZM15 11.5H18C19.3807 11.5 20.5 12.6193 20.5 14V18C20.5 19.3807 19.3807 20.5 18 20.5H15C13.6193 20.5 12.5 19.3807 12.5 18V14C12.5 12.6193 13.6193 11.5 15 11.5Z" fill="#363538"/>
</svg>
