<svg width="24" height="24" viewBox="0 0 24 24" fill="none" xmlns="http://www.w3.org/2000/svg">
<path fill-rule="evenodd" clip-rule="evenodd" d="M8 2H6C3.79086 2 2 3.79086 2 6V7C2 9.20914 3.79086 11 6 11H8C10.2091 11 12 9.20914 12 7V6C12 3.79086 10.2091 2 8 2ZM6 3.5H8C9.38071 3.5 10.5 4.61929 10.5 6V7C10.5 8.38071 9.38071 9.5 8 9.5H6C4.61929 9.5 3.5 8.38071 3.5 7V6C3.5 4.61929 4.61929 3.5 6 3.5Z" fill="#363538"/>
<path fill-rule="evenodd" clip-rule="evenodd" d="M18 2H17C14.7909 2 13 3.79086 13 6V8C13 10.2091 14.7909 12 17 12H18C20.2091 12 22 10.2091 22 8V6C22 3.79086 20.2091 2 18 2ZM17 3.5H18C19.3807 3.5 20.5 4.61929 20.5 6V8C20.5 9.38071 19.3807 10.5 18 10.5H17C15.6193 10.5 14.5 9.38071 14.5 8V6C14.5 4.61929 15.6193 3.5 17 3.5Z" fill="#363538"/>
<path fill-rule="evenodd" clip-rule="evenodd" d="M16 13H18C20.2091 13 22 14.7909 22 17V18C22 20.2091 20.2091 22 18 22H16C13.7909 22 12 20.2091 12 18V17C12 14.7909 13.7909 13 16 13ZM16 14.5C14.6193 14.5 13.5 15.6193 13.5 17V18C13.5 19.3807 14.6193 20.5 16 20.5H18C19.3807 20.5 20.5 19.3807 20.5 18V17C20.5 15.6193 19.3807 14.5 18 14.5H16Z" fill="#363538"/>
<path fill-rule="evenodd" clip-rule="evenodd" d="M7 12H6C3.79086 12 2 13.7909 2 16V18C2 20.2091 3.79086 22 6 22H7C9.20914 22 11 20.2091 11 18V16C11 13.7909 9.20914 12 7 12ZM6 13.5H7C8.38071 13.5 9.5 14.6193 9.5 16V18C9.5 19.3807 8.38071 20.5 7 20.5H6C4.61929 20.5 3.5 19.3807 3.5 18V16C3.5 14.6193 4.61929 13.5 6 13.5Z" fill="#363538"/>
</svg>
