<svg width="24" height="24" viewBox="0 0 24 24" fill="none" xmlns="http://www.w3.org/2000/svg">
<path d="M4 3.25C3.58579 3.25 3.25 3.58579 3.25 4V6C3.25 6.41421 3.58579 6.75 4 6.75C4.41421 6.75 4.75 6.41421 4.75 6V4.75H6C6.41421 4.75 6.75 4.41421 6.75 4C6.75 3.58579 6.41421 3.25 6 3.25H4Z" fill="#363538"/>
<path d="M10 3.25C9.58579 3.25 9.25 3.58579 9.25 4C9.25 4.41421 9.58579 4.75 10 4.75H14C14.4142 4.75 14.75 4.41421 14.75 4C14.75 3.58579 14.4142 3.25 14 3.25H10Z" fill="#363538"/>
<path d="M18 3.25C17.5858 3.25 17.25 3.58579 17.25 4C17.25 4.41421 17.5858 4.75 18 4.75H19.25V6C19.25 6.41421 19.5858 6.75 20 6.75C20.4142 6.75 20.75 6.41421 20.75 6V4C20.75 3.58579 20.4142 3.25 20 3.25H18Z" fill="#363538"/>
<path d="M4.75 10C4.75 9.58579 4.41421 9.25 4 9.25C3.58579 9.25 3.25 9.58579 3.25 10V14C3.25 14.4142 3.58579 14.75 4 14.75C4.41421 14.75 4.75 14.4142 4.75 14V10Z" fill="#363538"/>
<path d="M20.75 10C20.75 9.58579 20.4142 9.25 20 9.25C19.5858 9.25 19.25 9.58579 19.25 10V14C19.25 14.4142 19.5858 14.75 20 14.75C20.4142 14.75 20.75 14.4142 20.75 14V10Z" fill="#363538"/>
<path d="M4.75 18C4.75 17.5858 4.41421 17.25 4 17.25C3.58579 17.25 3.25 17.5858 3.25 18V20C3.25 20.4142 3.58579 20.75 4 20.75H6C6.41421 20.75 6.75 20.4142 6.75 20C6.75 19.5858 6.41421 19.25 6 19.25H4.75V18Z" fill="#363538"/>
<path d="M20.75 18C20.75 17.5858 20.4142 17.25 20 17.25C19.5858 17.25 19.25 17.5858 19.25 18V19.25H18C17.5858 19.25 17.25 19.5858 17.25 20C17.25 20.4142 17.5858 20.75 18 20.75H20C20.4142 20.75 20.75 20.4142 20.75 20V18Z" fill="#363538"/>
<path d="M10 19.25C9.58579 19.25 9.25 19.5858 9.25 20C9.25 20.4142 9.58579 20.75 10 20.75H14C14.4142 20.75 14.75 20.4142 14.75 20C14.75 19.5858 14.4142 19.25 14 19.25H10Z" fill="#363538"/>
</svg>
