<svg width="24" height="24" viewBox="0 0 24 24" fill="none" xmlns="http://www.w3.org/2000/svg">
<path fill-rule="evenodd" clip-rule="evenodd" d="M6.92314 2.48307C5.89721 1.72871 4.5321 2.81209 5.03372 3.98253L5.71112 5.56314L5.35226 6.99859C5.23111 7.48316 5.41007 7.99334 5.80738 8.29605L12.4688 13.3714V15.2812C12.4688 15.6298 12.6143 15.9625 12.8702 16.1991L15.0944 18.2553L14.4105 21.2189C14.2298 22.0021 14.8247 22.7499 15.6285 22.7499H19.1396C19.6777 22.7499 20.1553 22.4056 20.3255 21.8952L22.5964 15.0824C22.7679 14.5678 22.588 14.0014 22.151 13.6801L19.9549 12.0653C19.9484 12.0603 19.9419 12.0555 19.9352 12.0507L6.92314 2.48307ZM18.5284 12.8782L6.77397 4.23524L7.12301 5.04967C7.23063 5.30077 7.25302 5.5802 7.18676 5.84524L6.8474 7.20267L16.6978 14.7077C17.0885 15.0054 17.2687 15.5044 17.1582 15.9831L15.9428 21.2499H18.9594L20.5149 16.5835L18.5252 15.3897C17.9508 15.045 17.7501 14.3089 18.0702 13.7205L18.5284 12.8782ZM21.0008 15.1258L21.1158 14.7807L19.7481 13.7751L19.5024 14.2267L21.0008 15.1258ZM13.9688 15.1719V14.5142L15.6603 15.8031L15.483 16.5717L13.9688 15.1719Z" fill="#363538"/>
</svg>
