<svg width="24" height="24" viewBox="0 0 24 24" fill="none" xmlns="http://www.w3.org/2000/svg">
<path fill-rule="evenodd" clip-rule="evenodd" d="M3.55005 13.0962C3.92105 13.4672 4.52255 13.4672 4.89355 13.0962L8.46448 9.52526L14.4749 15.5356L10.9039 19.1066C10.5329 19.4776 10.5329 20.0791 10.9039 20.4501L12.0353 21.5814C12.4063 21.9524 13.0078 21.9524 13.3788 21.5814L14.1213 20.839L14.8637 21.5814C15.2347 21.9524 15.8362 21.9524 16.2072 21.5814L16.9497 20.839L17.6922 21.5814C18.0632 21.9524 18.6647 21.9524 19.0357 21.5814L21.5812 19.0359C21.9522 18.6649 21.9522 18.0634 21.5812 17.6924L20.8388 16.9499L21.5812 16.2074C21.9522 15.8364 21.9522 15.2349 21.5812 14.8639L20.8388 14.1215L21.5812 13.379C21.9522 13.008 21.9522 12.4065 21.5812 12.0355L20.4499 10.9041C20.0789 10.5331 19.4774 10.5331 19.1064 10.9041L15.5355 14.475L9.52514 8.4646L13.096 4.89375C13.467 4.52275 13.467 3.92124 13.096 3.55024L11.9646 2.41887C11.5936 2.04788 10.9921 2.04788 10.6211 2.41887L9.87866 3.16134L9.13619 2.41887C8.76519 2.04788 8.16369 2.04788 7.79269 2.41887L7.05023 3.16134L6.30777 2.41887C5.93677 2.04788 5.33526 2.04788 4.96426 2.41887L2.41868 4.96446C2.04768 5.33546 2.04768 5.93696 2.41868 6.30796L3.16114 7.05042L2.41868 7.79288C2.04768 8.16388 2.04768 8.76539 2.41868 9.13639L3.16114 9.87885L2.41868 10.6213C2.04768 10.9923 2.04768 11.5938 2.41868 11.9648L3.55005 13.0962ZM4.2218 11.6466L3.86825 11.2931L4.61071 10.5506C4.98171 10.1796 4.98171 9.5781 4.61071 9.2071L3.86825 8.46464L4.61071 7.72217C4.98171 7.35118 4.98171 6.74967 4.61071 6.37867L3.86825 5.63621L5.63601 3.86844L6.37848 4.6109C6.74948 4.9819 7.35098 4.9819 7.72198 4.6109L8.46444 3.86844L9.2069 4.6109C9.5779 4.9819 10.1794 4.9819 10.5504 4.6109L11.2929 3.86844L11.6464 4.222L4.2218 11.6466ZM12.3535 19.7783L12.7071 20.1319L13.4495 19.3894C13.8205 19.0184 14.422 19.0184 14.793 19.3894L15.5355 20.1319L16.2779 19.3894C16.6489 19.0184 17.2505 19.0184 17.6215 19.3894L18.3639 20.1319L20.1317 18.3641L19.3892 17.6216C19.0182 17.2506 19.0182 16.6491 19.3892 16.2781L20.1317 15.5357L19.3892 14.7932C19.0182 14.4222 19.0182 13.8207 19.3892 13.4497L20.1317 12.7073L19.7781 12.3537L12.3535 19.7783Z" fill="#363538"/>
</svg>
