<svg width="24" height="24" viewBox="0 0 24 24" fill="none" xmlns="http://www.w3.org/2000/svg">
<path d="M2.75 2.25C2.33579 2.25 2 2.58579 2 3C2 3.22219 2.09662 3.42181 2.25014 3.55915V20.4409C2.09662 20.5782 2 20.7778 2 21C2 21.4142 2.33579 21.75 2.75 21.75H3.25C3.66421 21.75 4 21.4142 4 21C4 20.7779 3.90349 20.5784 3.75014 20.4411V12.75H12.2501V20.4409C12.0966 20.5782 12 20.7778 12 21C12 21.4142 12.3358 21.75 12.75 21.75H13.25C13.6642 21.75 14 21.4142 14 21C14 20.7779 13.9035 20.5784 13.7501 20.4411V3.5589C13.9035 3.42158 14 3.22206 14 3C14 2.58579 13.6642 2.25 13.25 2.25H12.75C12.3358 2.25 12 2.58579 12 3C12 3.22219 12.0966 3.42181 12.2501 3.55915V11.25H3.75014V3.5589C3.90349 3.42158 4 3.22206 4 3C4 2.58579 3.66421 2.25 3.25 2.25H2.75Z" fill="#363538"/>
<path d="M19.1507 13.4227C19.1507 13.2018 18.9716 13.0227 18.7507 13.0227H17.9871C17.9094 13.0227 17.8333 13.0454 17.7683 13.0879L15.8716 14.3276C15.7586 14.4015 15.6904 14.5274 15.6904 14.6624V14.9684C15.6904 15.2862 16.0431 15.4771 16.3091 15.3033L17.7687 14.3501C17.7751 14.346 17.7826 14.3437 17.7902 14.3437C17.812 14.3437 17.8296 14.3614 17.8296 14.3831V21.35C17.8296 21.5709 18.0087 21.75 18.2296 21.75H18.7507C18.9716 21.75 19.1507 21.5709 19.1507 21.35V13.4227Z" fill="#363538"/>
</svg>
