<svg width="24" height="24" viewBox="0 0 24 24" fill="none" xmlns="http://www.w3.org/2000/svg">
<path fill-rule="evenodd" clip-rule="evenodd" d="M3.25 5C3.25 4.58579 3.58579 4.25 4 4.25H4.38889C4.8031 4.25 5.13889 4.58579 5.13889 5C5.13889 5.1939 5.06531 5.37061 4.94455 5.50373V11.25H11.2223V5.50397C11.1014 5.37081 11.0278 5.19401 11.0278 5C11.0278 4.58579 11.3636 4.25 11.7778 4.25H12.1667C12.5809 4.25 12.9167 4.58579 12.9167 5C12.9167 5.1939 12.8431 5.37061 12.7223 5.50373V18.4963C12.8431 18.6294 12.9167 18.8061 12.9167 19C12.9167 19.4142 12.5809 19.75 12.1667 19.75H11.7778C11.3636 19.75 11.0278 19.4142 11.0278 19C11.0278 18.806 11.1014 18.6292 11.2223 18.496V12.75H4.94455V18.4963C5.06531 18.6294 5.13889 18.8061 5.13889 19C5.13889 19.4142 4.8031 19.75 4.38889 19.75H4C3.58579 19.75 3.25 19.4142 3.25 19C3.25 18.806 3.32367 18.6292 3.44455 18.496V5.50397C3.32367 5.37081 3.25 5.19401 3.25 5Z" fill="#363538"/>
<path d="M17.2475 19.7491C16.6622 19.7491 16.1395 19.6483 15.6793 19.4466C15.2219 19.2449 14.8597 18.965 14.5926 18.6071C14.4081 18.355 14.2831 18.0752 14.2178 17.7677C14.1705 17.5452 14.3561 17.3542 14.5836 17.3542H15.1301C15.3408 17.3542 15.5069 17.5225 15.5833 17.7189C15.6265 17.8302 15.687 17.933 15.7645 18.0275C15.9236 18.215 16.131 18.3599 16.3867 18.4622C16.6424 18.5645 16.9264 18.6156 17.2389 18.6156C17.5827 18.6156 17.8867 18.5559 18.1509 18.4366C18.4179 18.3173 18.6267 18.1511 18.7773 17.938C18.9279 17.7221 19.0032 17.4735 19.0032 17.1923C19.0032 16.8997 18.9279 16.6426 18.7773 16.421C18.6296 16.1966 18.4122 16.0204 18.1253 15.8926C17.8412 15.7647 17.4975 15.7008 17.0941 15.7008H16.7568C16.5359 15.7008 16.3568 15.5217 16.3568 15.3008V15.027C16.3568 14.806 16.5359 14.627 16.7568 14.627H17.0941C17.4179 14.627 17.702 14.5687 17.9463 14.4522C18.1935 14.3358 18.3867 14.1738 18.5259 13.9664C18.6651 13.7562 18.7347 13.5105 18.7347 13.2292C18.7347 12.9593 18.6736 12.725 18.5514 12.5261C18.4321 12.3244 18.2617 12.1667 18.0401 12.0531C17.8213 11.9395 17.5628 11.8826 17.2645 11.8826C16.9804 11.8826 16.7148 11.9352 16.4676 12.0403C16.2233 12.1426 16.0245 12.2903 15.871 12.4835C15.7951 12.5777 15.7365 12.6814 15.6954 12.7945C15.6221 12.9959 15.4548 13.1696 15.2406 13.1696H14.762C14.5363 13.1696 14.3512 12.9815 14.3963 12.7605C14.4587 12.4542 14.5824 12.1758 14.7674 11.9252C15.0344 11.5673 15.3867 11.2875 15.8242 11.0858C16.2617 10.8841 16.7475 10.7832 17.2816 10.7832C17.8412 10.7832 18.3242 10.8926 18.7304 11.1113C19.1395 11.3272 19.4549 11.6156 19.6764 11.9764C19.9009 12.3372 20.0117 12.7321 20.0088 13.161C20.0117 13.6497 19.8753 14.0645 19.5997 14.4054C19.3333 14.7384 18.9801 14.9644 18.5402 15.0832C18.5218 15.0882 18.5088 15.1048 18.5088 15.1238C18.5088 15.1444 18.524 15.1619 18.5443 15.1652C19.1067 15.2572 19.5438 15.4854 19.8554 15.85C20.1764 16.2221 20.3355 16.6838 20.3327 17.2349C20.3355 17.715 20.202 18.1454 19.9321 18.5261C19.6651 18.9068 19.3 19.2065 18.837 19.4252C18.3739 19.6412 17.8441 19.7491 17.2475 19.7491Z" fill="#363538"/>
</svg>
