<svg width="24" height="24" viewBox="0 0 24 24" fill="none" xmlns="http://www.w3.org/2000/svg">
<path d="M4 5.25C3.58579 5.25 3.25 5.58579 3.25 6C3.25 6.17866 3.31247 6.34273 3.41676 6.47156V17.5284C3.31247 17.6573 3.25 17.8213 3.25 18C3.25 18.4142 3.58579 18.75 4 18.75H4.33333C4.74755 18.75 5.08333 18.4142 5.08333 18C5.08333 17.8214 5.02094 17.6575 4.91676 17.5287V12.75H10.0834V17.5284C9.97914 17.6573 9.91667 17.8213 9.91667 18C9.91667 18.4142 10.2525 18.75 10.6667 18.75H11C11.4142 18.75 11.75 18.4142 11.75 18C11.75 17.8214 11.6876 17.6575 11.5834 17.5287V6.47133C11.6876 6.34254 11.75 6.17856 11.75 6C11.75 5.58579 11.4142 5.25 11 5.25H10.6667C10.2525 5.25 9.91667 5.58579 9.91667 6C9.91667 6.17866 9.97914 6.34273 10.0834 6.47156V11.25H4.91676V6.47133C5.02094 6.34254 5.08333 6.17856 5.08333 6C5.08333 5.58579 4.74755 5.25 4.33333 5.25H4Z" fill="#363538"/>
<path fill-rule="evenodd" clip-rule="evenodd" d="M13 16.6454C13 16.8663 13.1791 17.0454 13.4 17.0454H17.1378V18.35C17.1378 18.5709 17.3169 18.75 17.5378 18.75H17.9949C18.2158 18.75 18.3949 18.5709 18.3949 18.35V17.0454H19.1497C19.3706 17.0454 19.5497 16.8663 19.5497 16.6454V16.329C19.5497 16.108 19.3706 15.929 19.1497 15.929H18.3949V10.4227C18.3949 10.2018 18.2158 10.0227 17.9949 10.0227H17.5463C17.4864 10.0227 17.4296 10.0359 17.3786 10.0595C17.3275 10.0359 17.2707 10.0227 17.2108 10.0227H16.9915C16.8544 10.0227 16.7269 10.0929 16.6535 10.2088L13.062 15.8821C13.0215 15.9461 13 16.0203 13 16.0961V16.6454ZM17.1463 11.6129C17.0774 11.6389 17.0175 11.6868 16.977 11.7509L14.3889 15.8478C14.3835 15.8563 14.3807 15.8661 14.3807 15.8761C14.3807 15.9053 14.4044 15.929 14.4336 15.929H17.1463V11.6129Z" fill="#363538"/>
</svg>
