<svg width="24" height="24" viewBox="0 0 24 24" fill="none" xmlns="http://www.w3.org/2000/svg">
<path d="M5 6.25C4.58579 6.25 4.25 6.58579 4.25 7C4.25 7.16217 4.30147 7.31232 4.38896 7.435V16.565C4.30147 16.6877 4.25 16.8378 4.25 17C4.25 17.4142 4.58579 17.75 5 17.75H5.27778C5.69199 17.75 6.02778 17.4142 6.02778 17C6.02778 16.8379 5.97637 16.6879 5.88896 16.5652V12.75H9.94452V16.565C9.85703 16.6877 9.80556 16.8378 9.80556 17C9.80556 17.4142 10.1413 17.75 10.5556 17.75H10.8333C11.2475 17.75 11.5833 17.4142 11.5833 17C11.5833 16.8379 11.5319 16.6879 11.4445 16.5652V7.43479C11.5319 7.31214 11.5833 7.16208 11.5833 7C11.5833 6.58579 11.2475 6.25 10.8333 6.25H10.5556C10.1413 6.25 9.80556 6.58579 9.80556 7C9.80556 7.16217 9.85703 7.31232 9.94452 7.435V11.25H5.88896V7.43479C5.97637 7.31214 6.02778 7.16208 6.02778 7C6.02778 6.58579 5.69199 6.25 5.27778 6.25H5Z" fill="#363538"/>
<path d="M14.2525 17.4424C14.6787 17.6469 15.1588 17.7492 15.6929 17.7492C16.2781 17.7492 16.7966 17.6228 17.2483 17.3699C17.7028 17.1142 18.0579 16.7648 18.3136 16.3216C18.5721 15.8784 18.7 15.3742 18.6971 14.8088C18.7 14.2435 18.5807 13.7435 18.3392 13.3088C18.1005 12.8713 17.7724 12.5262 17.3548 12.2733C16.94 12.0205 16.467 11.8941 15.9358 11.8941C15.6119 11.8941 15.3079 11.9495 15.0238 12.0603C14.7479 12.1689 14.5253 12.3036 14.3561 12.4642C14.3498 12.4702 14.3414 12.4736 14.3327 12.4736C14.3127 12.4736 14.2971 12.4562 14.2994 12.4363L14.5319 10.3868C14.5548 10.1846 14.7259 10.0318 14.9293 10.0318H17.8753C18.0962 10.0318 18.2753 9.85276 18.2753 9.63185V9.30259C18.2753 9.08167 18.0962 8.90259 17.8753 8.90259H13.8349C13.6311 8.90259 13.4599 9.05577 13.4373 9.25829L13.0296 12.917C13.0058 13.1309 13.1555 13.3253 13.3684 13.3569L14.007 13.4517C14.1248 13.4692 14.2425 13.4309 14.3407 13.3636C14.4805 13.268 14.6471 13.1872 14.8406 13.1213C15.1076 13.0304 15.3733 12.985 15.6375 12.985C15.9841 12.9878 16.2909 13.0688 16.5579 13.2279C16.8278 13.387 17.0395 13.6057 17.1929 13.8841C17.3463 14.1625 17.423 14.4793 17.423 14.8344C17.423 15.1838 17.3477 15.4949 17.1971 15.7676C17.0494 16.0404 16.8449 16.2549 16.5835 16.4111C16.325 16.5645 16.0281 16.6412 15.6929 16.6412C15.2724 16.6412 14.9116 16.5205 14.6105 16.279C14.4115 16.1194 14.2714 15.9307 14.1902 15.7127C14.1177 15.5178 13.9519 15.3543 13.7439 15.3543H13.2485C13.0218 15.3543 12.8365 15.5439 12.8824 15.7659C12.9444 16.0652 13.063 16.3399 13.2383 16.5901C13.4912 16.9509 13.8292 17.235 14.2525 17.4424Z" fill="#363538"/>
</svg>
