<svg width="24" height="24" viewBox="0 0 24 24" fill="none" xmlns="http://www.w3.org/2000/svg">
<path d="M4 2.75L4.00391 2.67285C4.04253 2.29488 4.36183 2 4.75 2C5.13817 2 5.45747 2.29488 5.49609 2.67285L5.5 2.75L5.5 10L6.41699 10L6.41699 2.75C6.41699 2.33579 6.75278 2 7.16699 2C7.58106 2.00018 7.91699 2.33589 7.91699 2.75L7.91699 10L8.83301 10L8.83301 2.75C8.83301 2.33589 9.16894 2.00018 9.58301 2C9.99722 2 10.333 2.33579 10.333 2.75L10.333 10L11.25 10L11.25 2.75L11.2539 2.67285C11.2925 2.29488 11.6118 2 12 2C12.3882 2 12.7075 2.29488 12.7461 2.67285L12.75 2.75L12.75 10L13.6748 10L13.752 2.74219L13.7568 2.66504C13.7994 2.28754 14.1217 1.99602 14.5098 2C14.8982 2.00415 15.2148 2.30289 15.249 2.68164L15.252 2.75781L15.1748 10L16.083 10L16.083 2.75L16.0869 2.67285C16.1255 2.29497 16.445 2.00016 16.833 2C17.2212 2 17.5405 2.2949 17.5791 2.67285L17.583 2.75L17.583 10L18.5 10L18.5 2.75L18.5039 2.67285C18.5425 2.29488 18.8618 2 19.25 2C19.6382 2 19.9575 2.29488 19.9961 2.67285L20 2.75L20 11.5L19.9365 11.5C19.6346 13.2835 18.275 14.7497 16.4775 15.1729C15.9738 15.2915 15.5441 15.6206 15.2988 16.0645L15.2051 16.2617L14.752 17.3945L14.752 19.248C14.752 20.7678 13.5197 22 12 22C10.4803 22 9.24805 20.7678 9.24805 19.248L9.24805 17.3818L8.85645 16.3115C8.64579 15.7363 8.1584 15.3068 7.56152 15.1689L7.50488 15.1553C5.4535 14.6818 4 12.8553 4 10.75L4 2.75ZM12 20.5C12.6913 20.5 13.252 19.9393 13.252 19.248L13.252 17.1055L13.3057 16.9717L13.8125 15.7041L13.8936 15.5195C14.3244 14.6107 15.1542 13.9436 16.1338 13.7129C17.2591 13.4479 18.123 12.5756 18.4023 11.5L5.59473 11.5C5.86969 12.5737 6.72216 13.4359 7.8418 13.6943L7.89844 13.707C8.98941 13.9588 9.87965 14.7445 10.2646 15.7959L10.7021 16.9922L10.748 17.1172L10.748 19.248C10.748 19.9393 11.3087 20.5 12 20.5Z" fill="#363538"/>
</svg>
