<svg width="24" height="24" viewBox="0 0 24 24" fill="none" xmlns="http://www.w3.org/2000/svg">
<path fill-rule="evenodd" clip-rule="evenodd" d="M6.5 5.74976C7.74255 5.74976 8.74985 6.75725 8.75 7.99976C8.75 9.2424 7.74264 10.2498 6.5 10.2498C5.25736 10.2498 4.25 9.2424 4.25 7.99976C4.25015 6.75725 5.25745 5.74976 6.5 5.74976ZM6.5 7.24976C6.08588 7.24976 5.75015 7.58568 5.75 7.99976C5.75 8.41397 6.08579 8.74976 6.5 8.74976C6.91421 8.74976 7.25 8.41397 7.25 7.99976C7.24985 7.58568 6.91412 7.24976 6.5 7.24976Z" fill="#363538"/>
<path fill-rule="evenodd" clip-rule="evenodd" d="M1.25 7.99976C1.25018 4.48075 4.59022 1.92108 7.98828 2.8357L14.8418 4.68042L14.9502 4.59937C16.1038 3.73473 17.7498 4.55804 17.75 5.99976V9.99976C17.75 11.4417 16.1038 12.265 14.9502 11.4002L14.8418 11.3181L10.4346 12.5046L11.332 15.4968C11.5488 16.2195 11.2754 16.9425 10.7422 17.3679C10.855 17.7938 10.8556 18.3028 10.7109 18.7371C10.5835 19.1193 10.3776 19.3952 10.1885 19.6043C10.098 19.7043 10.005 19.7962 9.93359 19.8669C9.85639 19.9435 9.80056 19.9997 9.75391 20.0535C9.66904 20.1514 9.6443 20.2071 9.63379 20.2605C9.62475 20.3067 9.61806 20.4003 9.65625 20.5681L9.71094 20.7625L9.73145 20.8367C9.81458 21.2075 9.60555 21.5888 9.2373 21.7117C8.86889 21.8345 8.47245 21.655 8.31641 21.3084L8.28809 21.2371L8.23633 21.0681C8.12603 20.6782 8.09526 20.3157 8.16211 19.9734C8.2402 19.5741 8.43449 19.2853 8.62012 19.071C8.70872 18.9688 8.80261 18.8762 8.87695 18.8025C8.95702 18.7231 9.01859 18.662 9.07617 18.5984C9.18374 18.4795 9.24894 18.3799 9.28809 18.2625C9.30823 18.2018 9.32434 18.1138 9.3252 18.0105C9.32595 17.9134 9.31255 17.8224 9.29297 17.7498H8.61816C7.95531 17.7498 7.34917 17.3749 7.05273 16.782L5.3291 13.3347L5.29883 13.2644C5.28879 13.2379 5.28323 13.2103 5.27637 13.1834C3.01114 12.6024 1.25 10.5548 1.25 7.99976ZM7.98828 13.1638C7.65898 13.2525 7.3301 13.3071 7.00488 13.3328L8.39453 16.1111C8.43688 16.1958 8.52347 16.2498 8.61816 16.2498H9.65625C9.82357 16.2496 9.9436 16.0878 9.89551 15.9275L8.98438 12.8953L7.98828 13.1638ZM7.59863 4.28394C5.15358 3.62573 2.75018 5.4677 2.75 7.99976C2.75 10.532 5.15347 12.3739 7.59863 11.7156L14.7568 9.78882L14.8525 9.76831C15.0447 9.73965 15.2415 9.77762 15.4092 9.87574L15.4902 9.92945L15.8496 10.2C16.0144 10.3236 16.25 10.2058 16.25 9.99976V5.99976C16.2498 5.79398 16.0143 5.67618 15.8496 5.79957L15.4902 6.07007C15.2805 6.22734 15.01 6.27882 14.7568 6.2107L7.59863 4.28394Z" fill="#363538"/>
<path d="M21 8.24976C21.1888 8.24976 21.3803 8.28103 21.543 8.31812L21.6953 8.35621L21.7686 8.38062C22.1235 8.5163 22.3247 8.90135 22.2236 9.27613C22.1224 9.65087 21.7549 9.88235 21.3799 9.82105L21.3047 9.80445L21.1182 9.76246C21.0669 9.75361 21.027 9.74976 21 9.74976C20.9706 9.74976 20.959 9.74887 20.8096 9.81324C20.6508 9.88164 20.3814 9.99976 20 9.99976C19.8092 9.99976 19.621 9.9702 19.459 9.93433L19.3066 9.89722L19.2334 9.87378C18.8781 9.73908 18.6753 9.35433 18.7754 8.97925C18.8757 8.60441 19.2431 8.37208 19.6182 8.43238L19.6934 8.448L19.8711 8.48706C19.9227 8.49552 19.9662 8.49976 20 8.49976C20.0552 8.49976 20.0847 8.49274 20.2158 8.43628C20.3563 8.37577 20.6269 8.24976 21 8.24976Z" fill="#363538"/>
<path d="M21 5.99976C21.1888 5.99976 21.3803 6.03103 21.543 6.06812L21.6953 6.10621L21.7686 6.13062C22.1235 6.2663 22.3247 6.65135 22.2236 7.02613C22.1224 7.40087 21.7549 7.63235 21.3799 7.57105L21.3047 7.55445L21.1182 7.51246C21.0669 7.50361 21.027 7.49976 21 7.49976C20.9706 7.49976 20.959 7.49887 20.8096 7.56324C20.6508 7.63164 20.3814 7.74976 20 7.74976C19.8092 7.74976 19.621 7.7202 19.459 7.68433L19.3066 7.64722L19.2334 7.62378C18.8781 7.48908 18.6753 7.10433 18.7754 6.72925C18.8757 6.35441 19.2431 6.12208 19.6182 6.18238L19.6934 6.198L19.8711 6.23707C19.9227 6.24552 19.9662 6.24976 20 6.24976C20.0552 6.24976 20.0847 6.24274 20.2158 6.18628C20.3563 6.12577 20.6269 5.99976 21 5.99976Z" fill="#363538"/>
</svg>
