<svg width="24" height="24" viewBox="0 0 24 24" fill="none" xmlns="http://www.w3.org/2000/svg">
<path fill-rule="evenodd" clip-rule="evenodd" d="M8 3H16C18.7614 3 21 5.23858 21 8C21 8.55228 20.5523 9 20 9H4C3.44772 9 3 8.55228 3 8C3 5.23858 5.23858 3 8 3ZM16 4.5H8C6.23676 4.5 4.77806 5.80385 4.53544 7.5H19.4646C19.2219 5.80385 17.7632 4.5 16 4.5Z" fill="#363538"/>
<path fill-rule="evenodd" clip-rule="evenodd" d="M8 21H16C18.7614 21 21 18.7614 21 16C21 15.4477 20.5523 15 20 15H4C3.44772 15 3 15.4477 3 16C3 18.7614 5.23858 21 8 21ZM8 19.5H16C17.7632 19.5 19.2219 18.1961 19.4646 16.5H4.53544C4.77806 18.1961 6.23676 19.5 8 19.5Z" fill="#363538"/>
<path fill-rule="evenodd" clip-rule="evenodd" d="M20 10H4C2.89543 10 2 10.8954 2 12C2 13.1046 2.89543 14 4 14H20C21.1046 14 22 13.1046 22 12C22 10.8954 21.1046 10 20 10ZM4 11.5H20C20.2761 11.5 20.5 11.7239 20.5 12C20.5 12.2761 20.2761 12.5 20 12.5H4C3.72386 12.5 3.5 12.2761 3.5 12C3.5 11.7239 3.72386 11.5 4 11.5Z" fill="#363538"/>
</svg>
