<svg width="24" height="24" viewBox="0 0 24 24" fill="none" xmlns="http://www.w3.org/2000/svg">
<path d="M3.78033 11.8198C3.48744 11.5269 3.01256 11.5269 2.71967 11.8198C2.42678 12.1127 2.42678 12.5875 2.71967 12.8804L6.21967 16.3804C6.51256 16.6733 6.98744 16.6733 7.28033 16.3804C7.57322 16.0875 7.57322 15.6127 7.28033 15.3198L3.78033 11.8198Z" fill="#363538"/>
<path fill-rule="evenodd" clip-rule="evenodd" d="M17.5304 6.63051C17.8165 6.34439 17.8239 5.88272 17.5473 5.58736L17.5456 5.58549L17.5419 5.58157L17.5293 5.56826C17.5186 5.55701 17.5033 5.54111 17.4839 5.52108C17.4451 5.48106 17.3895 5.42443 17.32 5.35555C17.1812 5.21815 16.9849 5.03015 16.7541 4.82699C16.3099 4.43601 15.673 3.93049 15.0462 3.66111C14.5757 3.45892 14.0261 3.39884 13.5232 3.39476C13.0084 3.39058 12.4772 3.44528 12.0075 3.51615C11.5353 3.58738 11.11 3.67734 10.8033 3.74922C10.6495 3.78527 10.5244 3.81704 10.4367 3.84008C10.3929 3.85161 10.3583 3.86096 10.3342 3.8676L10.3059 3.87545L10.2978 3.87772L10.2953 3.87842L10.2939 3.87882C10.1714 3.91384 10.0598 3.97951 9.96971 4.06962L4.46967 9.56972C4.17678 9.86262 4.17678 10.3375 4.46967 10.6304L8.46967 14.6304C8.76256 14.9233 9.23743 14.9233 9.53032 14.6304L10.75 13.4107L17.2197 19.8804C18.203 20.8636 19.7971 20.8636 20.7804 19.8804C21.7636 18.8971 21.7636 17.303 20.7804 16.3197L14.3107 9.85006L17.5304 6.63051ZM6.06066 10.1L10.888 5.27268C10.9572 5.25497 11.0442 5.23341 11.1456 5.20964C11.4251 5.14415 11.8094 5.063 12.2313 4.99936C12.6555 4.93535 13.1025 4.89139 13.511 4.89471C13.9314 4.89812 14.2502 4.95168 14.4539 5.03924C14.8498 5.20936 15.338 5.57884 15.7631 5.95298C15.8225 6.00534 15.8795 6.05664 15.9335 6.10608L9.00001 13.0394L6.06066 10.1ZM11.8107 12.35L13.25 10.9107L19.7197 17.3804C20.1172 17.7778 20.1172 18.4223 19.7197 18.8197C19.3223 19.2172 18.6778 19.2172 18.2804 18.8197L11.8107 12.35Z" fill="#363538"/>
</svg>
