<svg width="24" height="24" viewBox="0 0 24 24" fill="none" xmlns="http://www.w3.org/2000/svg">
<path fill-rule="evenodd" clip-rule="evenodd" d="M16.049 3.71154C15.6743 3.71154 15.3183 3.79237 14.9977 3.9376L14.9975 3.79778L14.9975 3.7956L14.9975 3.80029L14.9975 3.79778C15.0026 2.39234 13.8646 1.25 12.4588 1.25C11.0568 1.25 9.92021 2.38659 9.92021 3.78864V5.06345C9.60142 4.91973 9.24772 4.83974 8.87533 4.83974C7.46984 4.83974 6.33046 5.97912 6.33046 7.38462V10.6644C5.24487 9.83477 3.57674 10.0061 2.73674 11.2661C2.3865 11.7914 2.24188 12.4394 2.36099 13.0752C2.88815 15.8891 3.73166 18.3362 5.43198 20.0712C7.15799 21.8325 9.65392 22.75 13.2343 22.75C16.9489 22.75 19.0766 20.8387 20.2471 18.842C21.3931 16.887 21.6299 14.8508 21.668 14.4411C21.6751 14.3646 21.6766 14.2983 21.6766 14.2394V9.17949H20.9266C21.6766 9.17949 21.6766 9.17949 21.6766 9.17949V9.17829L21.6766 9.1769L21.6766 9.17354L21.6765 9.16453L21.676 9.13771C21.6755 9.11605 21.6744 9.08687 21.6725 9.05123C21.6687 8.98016 21.6613 8.88218 21.6468 8.76595C21.6182 8.53739 21.5599 8.2193 21.4366 7.8905C21.3144 7.56482 21.1135 7.18827 20.7758 6.88816C20.4227 6.57429 19.9572 6.37821 19.3882 6.37821C19.098 6.37821 18.8348 6.42917 18.5997 6.52074V6.26224C18.5997 4.85353 17.4577 3.71154 16.049 3.71154ZM11.4202 3.78864C11.4202 3.21501 11.8852 2.75 12.4588 2.75C13.0343 2.75 13.5001 3.21792 13.4975 3.79341L13.4975 3.7981L13.5014 6.13616C13.4996 6.17247 13.4986 6.20898 13.4983 6.24567L13.4983 6.25228L13.5099 11.232C13.5108 11.6461 13.8473 11.9816 14.2614 11.9808C14.6755 11.9799 15.0106 11.6436 15.0099 11.2295L15.0014 6.18035C15.0433 5.63794 15.4966 5.21154 16.049 5.21154C16.6293 5.21154 17.0997 5.68195 17.0997 6.26224V11.7436C17.0997 12.1578 17.4355 12.4936 17.8497 12.4936C18.2639 12.4936 18.5997 12.1578 18.5997 11.7436V9.18229L18.5998 9.1752C18.6 9.16681 18.6005 9.15192 18.6016 9.13147C18.6038 9.09035 18.6084 9.02808 18.6179 8.952C18.6374 8.79594 18.6752 8.60122 18.7442 8.41719C18.8144 8.23005 18.9019 8.09378 18.997 8.00927C19.0766 7.93853 19.1879 7.87821 19.3882 7.87821C19.5884 7.87821 19.6997 7.93853 19.7793 8.00927C19.8744 8.09378 19.9619 8.23005 20.0321 8.41719C20.1011 8.60122 20.1389 8.79594 20.1584 8.952C20.1679 9.02808 20.1725 9.09035 20.1747 9.13147C20.1748 9.13402 20.1749 9.13649 20.1751 9.13887C20.1759 9.15554 20.1763 9.16786 20.1765 9.1752L20.1766 9.18133L20.1766 14.2394C20.1766 14.2715 20.1758 14.2879 20.1745 14.3021C20.1439 14.6308 19.9346 16.4089 18.953 18.0834C17.9958 19.7163 16.3145 21.25 13.2343 21.25C9.91377 21.25 7.86062 20.4064 6.5033 19.0214C5.12028 17.6101 4.34617 15.5258 3.83534 12.799C3.79114 12.5631 3.84308 12.3107 3.98481 12.0981C4.4088 11.4621 5.36164 11.5215 5.70347 12.2051L6.40964 13.6175C6.5652 13.9286 6.91425 14.0919 7.25278 14.012C7.5913 13.9321 7.83046 13.6299 7.83046 13.2821V7.38462C7.83046 6.80755 8.29827 6.33974 8.87533 6.33974C9.4524 6.33974 9.92021 6.80755 9.92021 7.38462V11.7436C9.92021 12.1578 10.256 12.4936 10.6702 12.4936C11.0844 12.4936 11.4202 12.1578 11.4202 11.7436V3.78864Z" fill="#363538"/>
</svg>
