<svg width="24" height="24" viewBox="0 0 24 24" fill="none" xmlns="http://www.w3.org/2000/svg">
<path fill-rule="evenodd" clip-rule="evenodd" d="M12 4.25049C10.7574 4.25049 9.75 5.25785 9.75 6.50049V7.00049C9.75 7.4147 9.41421 7.75049 9 7.75049C8.58579 7.75049 8.25 7.4147 8.25 7.00049V6.50049C8.25 4.42942 9.92893 2.75049 12 2.75049C14.0711 2.75049 15.75 4.42942 15.75 6.50049V6.82344C15.75 8.13532 15.0088 9.33462 13.8354 9.92131C13.2057 10.2362 12.7956 10.8622 12.7536 11.559L21.3847 16.3061C22.2268 16.7693 22.75 17.6541 22.75 18.6152C22.75 20.0706 21.5701 21.2505 20.1147 21.2505H3.88529C2.42986 21.2505 1.25 20.0706 1.25 18.6152C1.25 17.6541 1.77319 16.7693 2.61529 16.3061L11.2521 11.5559C11.2964 10.2919 12.0276 9.14817 13.1646 8.57967C13.8298 8.24706 14.25 7.56717 14.25 6.82344V6.50049C14.25 5.25785 13.2426 4.25049 12 4.25049ZM12 12.8564L3.33817 17.6204C2.97539 17.82 2.75 18.2012 2.75 18.6152C2.75 19.2422 3.25828 19.7505 3.88529 19.7505H20.1147C20.7417 19.7505 21.25 19.2422 21.25 18.6152C21.25 18.2012 21.0246 17.82 20.6618 17.6204L12 12.8564Z" fill="#363538"/>
</svg>
