<svg width="24" height="24" viewBox="0 0 24 24" fill="none" xmlns="http://www.w3.org/2000/svg">
<path fill-rule="evenodd" clip-rule="evenodd" d="M9.24541 3.08289C9.29115 2.67121 8.9945 2.3004 8.58282 2.25465C8.17114 2.20891 7.80033 2.50556 7.75459 2.91724L7.16205 8.25007H3.5C3.08579 8.25007 2.75 8.58585 2.75 9.00007C2.75 9.41428 3.08579 9.75007 3.5 9.75007H6.99538L6.49538 14.2501H3.5C3.08579 14.2501 2.75 14.5859 2.75 15.0001C2.75 15.4143 3.08579 15.7501 3.5 15.7501H6.32872L5.75459 20.9172C5.70884 21.3289 6.0055 21.6997 6.41718 21.7455C6.82886 21.7912 7.19967 21.4946 7.24541 21.0829L7.83795 15.7501H15.3287L14.7546 20.9172C14.7088 21.3289 15.0055 21.6997 15.4172 21.7455C15.8289 21.7912 16.1997 21.4946 16.2454 21.0829L16.8379 15.7501H20.5C20.9142 15.7501 21.25 15.4143 21.25 15.0001C21.25 14.5859 20.9142 14.2501 20.5 14.2501H17.0046L17.5046 9.75007H20.5C20.9142 9.75007 21.25 9.41428 21.25 9.00007C21.25 8.58585 20.9142 8.25007 20.5 8.25007H17.6713L18.2454 3.08289C18.2912 2.67121 17.9945 2.3004 17.5828 2.25465C17.1711 2.20891 16.8003 2.50556 16.7546 2.91724L16.1621 8.25007H8.67128L9.24541 3.08289ZM8.00462 14.2501L8.50462 9.75007H15.9954L15.4954 14.2501H8.00462Z" fill="#363538"/>
</svg>
