<svg width="24" height="24" viewBox="0 0 24 24" fill="none" xmlns="http://www.w3.org/2000/svg">
<path fill-rule="evenodd" clip-rule="evenodd" d="M14.0861 5.56704C16.0292 5.17843 17.9402 6.36926 18.4474 8.28481L19.5129 12.3092C19.7436 12.357 19.9784 12.4286 20.2013 12.5153C20.6063 12.6728 21.0325 12.8946 21.423 13.1608C21.8108 13.4252 22.1886 13.7502 22.4767 14.1227C22.7609 14.4902 23.0001 14.9614 23.0002 15.4997C23.0002 16.0689 22.7331 16.5763 22.2668 16.9831C21.8184 17.3741 21.1741 17.6872 20.341 17.9372C18.6725 18.4377 16.0224 18.7497 12.0002 18.7497C7.97795 18.7497 5.32779 18.4377 3.65935 17.9372C2.82623 17.6872 2.18192 17.3741 1.73357 16.9831C1.26724 16.5763 1.00016 16.0689 1.00017 15.4997C1.00022 14.9615 1.23941 14.4902 1.52361 14.1227C1.8117 13.7502 2.1896 13.4251 2.57732 13.1608C2.96778 12.8946 3.39403 12.6728 3.799 12.5153C4.02209 12.4285 4.25656 12.355 4.48747 12.3073L5.5529 8.28481C6.06015 6.36926 7.9711 5.17843 9.91423 5.56704L11.5588 5.89614C11.8501 5.9544 12.1503 5.9544 12.4416 5.89614L14.0861 5.56704ZM19.714 13.9372C19.5554 14.5533 19.0624 15.064 18.3683 15.1862C17.0781 15.413 14.7097 15.7497 12.0002 15.7497C9.29064 15.7497 6.9222 15.413 5.632 15.1862C4.93783 15.064 4.44394 14.5534 4.28532 13.9372C4.00331 14.052 3.70109 14.2114 3.42302 14.401C3.12338 14.6053 2.87612 14.8274 2.71111 15.0407C2.54234 15.2589 2.50022 15.413 2.50017 15.4997C2.50017 15.5553 2.51449 15.673 2.71989 15.8522C2.94338 16.0471 3.36177 16.2809 4.09099 16.4997C5.54757 16.9366 8.02254 17.2497 12.0002 17.2497C15.9777 17.2497 18.4527 16.9366 19.9093 16.4997C20.6385 16.2809 21.0569 16.0471 21.2804 15.8522C21.4859 15.673 21.5002 15.5553 21.5002 15.4997C21.5001 15.413 21.4588 15.2587 21.2902 15.0407C21.1252 14.8273 20.877 14.6054 20.5773 14.401C20.299 14.2113 19.9963 14.052 19.714 13.9372ZM18.0646 12.8229C17.641 12.8702 17.0485 12.9337 16.3742 12.9967C15.0321 13.1221 13.3398 13.2497 12.0002 13.2497C10.6606 13.2497 8.96824 13.1221 7.62614 12.9967C6.9518 12.9337 6.35934 12.8702 5.93571 12.8229C5.92518 12.8217 5.91479 12.8201 5.90446 12.819L5.73943 13.443C5.70191 13.5847 5.78875 13.6914 5.89177 13.7096C7.12986 13.9272 9.40622 14.2497 12.0002 14.2497C14.5941 14.2497 16.8705 13.9272 18.1086 13.7096C18.2116 13.6914 18.2984 13.5847 18.2609 13.443L18.0949 12.819C18.0849 12.8201 18.0748 12.8218 18.0646 12.8229ZM16.9972 8.6686C16.6928 7.51948 15.5468 6.80571 14.381 7.03872L12.7355 7.36782C12.2501 7.46488 11.7502 7.46488 11.2648 7.36782L9.61931 7.03872C8.45358 6.80571 7.30752 7.51948 7.0031 8.6686L6.29216 11.3512C6.68848 11.3946 7.19764 11.4495 7.76579 11.5026C9.09931 11.6272 10.7339 11.7497 12.0002 11.7497C13.2664 11.7497 14.901 11.6272 16.2345 11.5026C16.8022 11.4495 17.311 11.3946 17.7072 11.3512L16.9972 8.6686Z" fill="#363538"/>
</svg>
