<svg width="24" height="24" viewBox="0 0 24 24" fill="none" xmlns="http://www.w3.org/2000/svg">
<path d="M5.24247 14.75C5.07679 14.75 4.94247 14.6157 4.94247 14.45V9.95909C4.94247 9.79341 5.07679 9.65909 5.24247 9.65909H5.71882C5.88451 9.65909 6.01882 9.79341 6.01882 9.95909V11.4596C6.01882 11.6253 6.15313 11.7596 6.31882 11.7596H7.90383C8.06952 11.7596 8.20383 11.6253 8.20383 11.4596V9.95909C8.20383 9.79341 8.33815 9.65909 8.50383 9.65909H8.9777C9.14338 9.65909 9.2777 9.79341 9.2777 9.95909V14.45C9.2777 14.6157 9.14338 14.75 8.9777 14.75H8.50383C8.33815 14.75 8.20383 14.6157 8.20383 14.45V12.947C8.20383 12.7813 8.06952 12.647 7.90383 12.647H6.31882C6.15313 12.647 6.01882 12.7813 6.01882 12.947V14.45C6.01882 14.6157 5.88451 14.75 5.71882 14.75H5.24247Z" fill="#363538"/>
<path fill-rule="evenodd" clip-rule="evenodd" d="M11.9698 14.75H10.4651C10.2994 14.75 10.1651 14.6157 10.1651 14.45V9.95909C10.1651 9.79341 10.2994 9.65909 10.4651 9.65909H11.9847C12.4968 9.65909 12.9376 9.76101 13.3072 9.96484C13.6767 10.167 13.9609 10.4579 14.1598 10.8374C14.3603 11.2169 14.4606 11.6709 14.4606 12.1996C14.4606 12.7299 14.3603 13.1856 14.1598 13.5668C13.9609 13.9479 13.6751 14.2404 13.3022 14.4442C12.931 14.6481 12.4869 14.75 11.9698 14.75ZM11.2415 13.5278C11.2415 13.6935 11.3758 13.8278 11.5415 13.8278H11.9251C12.2433 13.8278 12.5109 13.7714 12.728 13.6587C12.9467 13.5444 13.1108 13.3679 13.2202 13.1293C13.3312 12.889 13.3867 12.5791 13.3867 12.1996C13.3867 11.8234 13.3312 11.516 13.2202 11.2773C13.1108 11.0387 12.9476 10.863 12.7305 10.7504C12.5134 10.6377 12.2457 10.5813 11.9276 10.5813H11.5415C11.3758 10.5813 11.2415 10.7156 11.2415 10.8813V13.5278Z" fill="#363538"/>
<path fill-rule="evenodd" clip-rule="evenodd" d="M15.2579 14.45C15.2579 14.6157 15.3922 14.75 15.5579 14.75H16.0342C16.1999 14.75 16.3342 14.6157 16.3342 14.45V12.9453H17.1199L17.9995 14.5914C18.0517 14.689 18.1534 14.75 18.2641 14.75H18.7668C18.9946 14.75 19.1393 14.5061 19.0301 14.3062L18.1923 12.7722C18.2078 12.7655 18.2232 12.7586 18.2384 12.7514C18.5151 12.6222 18.7264 12.4366 18.8722 12.1946C19.0181 11.951 19.091 11.6602 19.091 11.3221C19.091 10.9857 19.0189 10.6932 18.8747 10.4446C18.7322 10.1944 18.5242 10.0013 18.2508 9.86541C17.979 9.72786 17.6509 9.65909 17.2664 9.65909H15.5579C15.3922 9.65909 15.2579 9.79341 15.2579 9.95909V14.45ZM16.3342 12.0803H17.0651C17.2706 12.0803 17.4413 12.0521 17.5771 11.9957C17.713 11.9394 17.8141 11.8549 17.8804 11.7422C17.9484 11.6295 17.9823 11.4895 17.9823 11.3221C17.9823 11.1531 17.9484 11.0105 17.8804 10.8945C17.8141 10.7785 17.7122 10.6907 17.5747 10.631C17.4388 10.5697 17.2673 10.5391 17.0601 10.5391H16.6342C16.4686 10.5391 16.3342 10.6734 16.3342 10.8391V12.0803Z" fill="#363538"/>
<path fill-rule="evenodd" clip-rule="evenodd" d="M18 3H6C3.79086 3 2 4.79086 2 7V17C2 19.2091 3.79086 21 6 21H18C20.2091 21 22 19.2091 22 17V7C22 4.79086 20.2091 3 18 3ZM6 4.5H18C19.3807 4.5 20.5 5.61929 20.5 7V17C20.5 18.3807 19.3807 19.5 18 19.5H6C4.61929 19.5 3.5 18.3807 3.5 17V7C3.5 5.61929 4.61929 4.5 6 4.5Z" fill="#363538"/>
</svg>
