<svg width="24" height="24" viewBox="0 0 24 24" fill="none" xmlns="http://www.w3.org/2000/svg">
<path fill-rule="evenodd" clip-rule="evenodd" d="M6 3C6 2.58579 6.33579 2.25 6.75 2.25H7.25C7.66421 2.25 8 2.58579 8 3C8 3.22206 7.90349 3.42158 7.75014 3.5589V11.25H16.2501V3.55915C16.0966 3.42181 16 3.22219 16 3C16 2.58579 16.3358 2.25 16.75 2.25H17.25C17.6642 2.25 18 2.58579 18 3C18 3.22206 17.9035 3.42158 17.7501 3.5589V20.4411C17.9035 20.5784 18 20.7779 18 21C18 21.4142 17.6642 21.75 17.25 21.75H16.75C16.3358 21.75 16 21.4142 16 21C16 20.7778 16.0966 20.5782 16.2501 20.4409V12.75H7.75014V20.4411C7.90349 20.5784 8 20.7779 8 21C8 21.4142 7.66421 21.75 7.25 21.75H6.75C6.33579 21.75 6 21.4142 6 21C6 20.7778 6.09662 20.5782 6.25014 20.4409V3.55915C6.09662 3.42181 6 3.22219 6 3Z" fill="#363538"/>
</svg>
