<svg width="24" height="24" viewBox="0 0 24 24" fill="none" xmlns="http://www.w3.org/2000/svg">
<path fill-rule="evenodd" clip-rule="evenodd" d="M20.0001 5.25C20.4143 5.25005 20.7501 5.58582 20.7501 6V6.99512L21.713 7.28125L21.7853 7.30664C22.137 7.45085 22.3291 7.84055 22.2188 8.21289C22.1085 8.58525 21.735 8.80798 21.3614 8.7373L21.2872 8.71875L20.089 8.36328L19.5255 8.67578C19.7908 9.58933 19.8271 10.5962 19.5958 11.584C19.1985 13.28 17.8766 14.7872 16.5694 15.9365C15.5715 16.8139 14.5147 17.5409 13.711 18.0469L13.003 18.4766C12.4185 18.8182 11.7157 18.8397 11.1163 18.541L10.9972 18.4766C10.1966 18.0087 8.76143 17.1065 7.43076 15.9365C7.3075 15.8281 7.18533 15.7152 7.06259 15.6006L5.60263 16.4121L5.14756 16.6641L5.38584 16.7119C5.79195 16.7932 6.05495 17.1886 5.97373 17.5947C5.89252 18.0008 5.49792 18.2646 5.09189 18.1836L2.85263 17.7354C2.65176 17.6951 2.47593 17.5744 2.36631 17.4014C2.25667 17.2281 2.22289 17.0173 2.27256 16.8184L2.77256 14.8184C2.87301 14.4166 3.27997 14.1722 3.68174 14.2725C4.08345 14.3729 4.32792 14.7799 4.22763 15.1816L4.14658 15.5039L4.87412 15.1006L5.9874 14.4814C5.25359 13.615 4.65087 12.6361 4.40439 11.584C4.05178 10.0783 4.31746 8.52735 5.07529 7.33203C5.84017 6.12566 7.11598 5.27483 8.72373 5.25098C8.78213 5.25011 8.84153 5.25 8.90146 5.25C10.2026 5.25008 11.3127 5.89561 11.9151 6.32422L11.9542 6.3418C11.9977 6.35383 12.0513 6.3482 12.0851 6.32422C12.6875 5.8956 13.7976 5.25005 15.0987 5.25C15.1587 5.25 15.2181 5.25011 15.2765 5.25098C16.8718 5.27468 18.1396 6.11307 18.9063 7.30469L19.2501 7.11426V6C19.2501 5.58579 19.5859 5.25 20.0001 5.25ZM15.0987 6.75C14.2651 6.75005 13.4691 7.17957 12.9542 7.5459C12.4242 7.92295 11.7078 7.94696 11.1544 7.61719L11.046 7.5459C10.5311 7.17957 9.73506 6.75008 8.90146 6.75C8.84893 6.75 8.79702 6.75023 8.74619 6.75098C7.70239 6.76646 6.86862 7.30496 6.34189 8.13574C5.80839 8.9775 5.60018 10.1126 5.86435 11.2412C6.15042 12.4627 7.16858 13.7084 8.42099 14.8096C9.64975 15.89 10.9934 16.7371 11.754 17.1816L11.8136 17.2119C11.9546 17.2718 12.1096 17.2615 12.2462 17.1816L12.9151 16.7754C13.6715 16.299 14.6577 15.6198 15.5792 14.8096C16.8316 13.7084 17.8498 12.4627 18.1358 11.2412C18.2806 10.6229 18.2827 10.0026 18.1681 9.42969L12.3644 12.6553C12.0023 12.8564 11.546 12.7262 11.3448 12.3643C11.1437 12.0022 11.2739 11.5459 11.6358 11.3447L17.5909 8.03516C17.0618 7.26201 16.2548 6.76585 15.254 6.75098C15.2032 6.75022 15.1513 6.75 15.0987 6.75Z" fill="#363538"/>
</svg>
