<svg width="24" height="24" viewBox="0 0 24 24" fill="none" xmlns="http://www.w3.org/2000/svg">
<path d="M14.7276 4.8181C14.643 4.47962 14.3361 4.2442 13.9873 4.25011C13.6384 4.25602 13.3398 4.5017 13.2666 4.84285L10.8788 15.986L8.71837 8.78449C8.63001 8.48997 8.37084 8.27922 8.06449 8.25278C7.75814 8.22634 7.46669 8.38957 7.32918 8.66459L5.53647 12.25H2C1.58579 12.25 1.25 12.5858 1.25 13C1.25 13.4142 1.58579 13.75 2 13.75H6C6.28408 13.75 6.54378 13.5895 6.67082 13.3354L7.82506 11.0269L10.2816 19.2155C10.38 19.5435 10.688 19.7631 11.0301 19.7494C11.3722 19.7356 11.6616 19.4919 11.7334 19.1571L14.0562 8.31716L15.2724 13.1819C15.3559 13.5158 15.6558 13.75 16 13.75H22C22.4142 13.75 22.75 13.4142 22.75 13C22.75 12.5858 22.4142 12.25 22 12.25H16.5856L14.7276 4.8181Z" fill="#363538"/>
</svg>
