<svg width="24" height="24" viewBox="0 0 24 24" fill="none" xmlns="http://www.w3.org/2000/svg">
<path d="M19.75 3C19.75 2.58579 19.4142 2.25 19 2.25C18.5858 2.25 18.25 2.58579 18.25 3V4.25H17C16.5858 4.25 16.25 4.58579 16.25 5C16.25 5.41421 16.5858 5.75 17 5.75H18.25V7C18.25 7.41421 18.5858 7.75 19 7.75C19.4142 7.75 19.75 7.41421 19.75 7V5.75H21C21.4142 5.75 21.75 5.41421 21.75 5C21.75 4.58579 21.4142 4.25 21 4.25H19.75V3Z" fill="#363538"/>
<path d="M12.7424 4.8248C13.3928 4.36589 14.4173 3.77512 15.5995 3.57218C15.2295 3.93513 15 4.44076 15 5C15 5.09633 15.0068 5.19108 15.02 5.28377C14.4834 5.48891 13.9948 5.77693 13.6072 6.05044C12.6527 6.72389 11.3473 6.72389 10.3928 6.05044C9.68295 5.54957 8.63436 5 7.57317 5C7.49992 5 7.42793 5.00053 7.35718 5.00157C4.81395 5.03899 2.91939 7.7236 3.65137 10.8232C4.02675 12.4128 5.39088 14.1004 7.16542 15.6477C8.89163 17.1528 10.7852 18.3369 11.8604 18.9601L11.1082 20.2579C8.87811 18.9654 3.16765 15.3014 2.19153 11.168C1.31012 7.43556 3.54708 3.55747 7.33511 3.50174C7.41331 3.50059 7.49265 3.5 7.57317 3.5C9.09809 3.5 10.4595 4.26167 11.2576 4.82479C11.6936 5.13244 12.3064 5.13244 12.7424 4.8248Z" fill="#363538"/>
<path d="M12.8918 20.2579C12.3347 20.5807 11.6653 20.5807 11.1082 20.2579L11.8604 18.9601C11.9522 19.0133 12.0478 19.0133 12.1396 18.9601L12.8918 20.2579Z" fill="#363538"/>
<path d="M12.8918 20.2579L12.1396 18.9601C13.2148 18.3369 15.1084 17.1528 16.8346 15.6477C18.6091 14.1004 19.9732 12.4128 20.3486 10.8232C20.5481 9.97842 20.5525 9.16444 20.4018 8.42648C20.771 8.06362 21 7.55855 21 7C21.1715 7 21.3379 6.97843 21.4967 6.93784C22.0194 8.20948 22.1551 9.69999 21.8085 11.168C20.8324 15.3014 15.1219 18.9654 12.8918 20.2579Z" fill="#363538"/>
</svg>
