<svg width="24" height="24" viewBox="0 0 24 24" fill="none" xmlns="http://www.w3.org/2000/svg">
<path fill-rule="evenodd" clip-rule="evenodd" d="M17.8341 2.62343C17.6379 2.76821 17.3621 2.76821 17.1659 2.62343C16.8068 2.35843 16.1941 2 15.5079 2C15.4717 2 15.436 2.00028 15.4008 2.00082C13.6962 2.02704 12.6896 3.85203 13.0862 5.60846C13.5254 7.55362 16.0951 9.27782 17.0987 9.88606C17.3494 10.038 17.6506 10.038 17.9013 9.88606C18.9049 9.27782 21.4746 7.55362 21.9138 5.60846C22.3104 3.85203 21.3038 2.02704 19.5992 2.00082C19.564 2.00028 19.5283 2 19.4921 2C18.8059 2 18.1932 2.35843 17.8341 2.62343ZM20.4507 5.27805C20.3357 5.78708 19.8726 6.44347 19.1085 7.1402C18.5565 7.64355 17.9575 8.06941 17.5 8.36688C17.0425 8.06941 16.4435 7.64355 15.8915 7.1402C15.1274 6.44347 14.6643 5.78708 14.5493 5.27805C14.4328 4.762 14.5334 4.26849 14.7353 3.93821C14.9239 3.62979 15.1608 3.50469 15.4239 3.50064C15.4513 3.50022 15.4793 3.5 15.5079 3.5C15.5925 3.5 15.7118 3.52323 15.8642 3.58913C16.0153 3.65445 16.1588 3.74445 16.2753 3.83044C17.001 4.36587 17.999 4.36587 18.7247 3.83044C18.8412 3.74445 18.9847 3.65445 19.1358 3.58913C19.2882 3.52323 19.4075 3.5 19.4921 3.5C19.5207 3.5 19.5487 3.50022 19.5761 3.50064C19.8392 3.50469 20.0761 3.62979 20.2647 3.93821C20.4666 4.26849 20.5672 4.762 20.4507 5.27805Z" fill="#363538"/>
<path fill-rule="evenodd" clip-rule="evenodd" d="M15.8659 14.4127C15.1826 17.3304 11.1853 19.9167 9.62423 20.8291C9.23432 21.057 8.76568 21.057 8.37577 20.8291C6.81467 19.9167 2.81735 17.3304 2.13407 14.4127C1.51708 11.778 3.08296 9.04057 5.73458 9.00123C5.78931 9.00041 5.84486 9 5.90122 9C6.96866 9 7.92163 9.53765 8.48032 9.93515C8.78554 10.1523 9.21446 10.1523 9.51968 9.93515C10.0784 9.53765 11.0313 9 12.0988 9C12.1551 9 12.2107 9.00041 12.2654 9.00123C14.917 9.04057 16.4829 11.778 15.8659 14.4127ZM14.4054 14.0707C14.175 15.0549 13.3088 16.1693 12.0838 17.2464C10.9734 18.2227 9.75624 19.0067 9 19.4559C8.24376 19.0067 7.0266 18.2227 5.91621 17.2464C4.69116 16.1693 3.82505 15.0549 3.59456 14.0707C3.3743 13.1301 3.5537 12.2021 3.97544 11.5369C4.38309 10.8939 4.995 10.5124 5.75683 10.5011C5.80406 10.5004 5.85219 10.5 5.90122 10.5C6.50114 10.5 7.13957 10.8221 7.61073 11.1574C8.43652 11.7449 9.56348 11.7449 10.3893 11.1574C10.8604 10.8221 11.4989 10.5 12.0988 10.5C12.1478 10.5 12.1959 10.5004 12.2432 10.5011C13.005 10.5124 13.6169 10.8939 14.0246 11.5369C14.4463 12.2021 14.6257 13.1301 14.4054 14.0707Z" fill="#363538"/>
</svg>
