<svg width="24" height="24" viewBox="0 0 24 24" fill="none" xmlns="http://www.w3.org/2000/svg">
<path d="M11.2576 4.82479C11.3298 4.87576 11.4069 4.91828 11.4873 4.95236C11.8115 5.08991 12.1885 5.08991 12.5127 4.95237C12.5931 4.91829 12.6702 4.87577 12.7424 4.8248C13.5405 4.26167 14.9019 3.5 16.4268 3.5C16.5073 3.5 16.5867 3.50059 16.6649 3.50174C20.4529 3.55747 22.6899 7.43556 21.8085 11.168C20.8324 15.3014 15.1219 18.9654 12.8918 20.2579L12.1396 18.9601C13.2148 18.3369 15.1084 17.1528 16.8346 15.6477C18.6091 14.1004 19.9732 12.4128 20.3486 10.8232C21.0806 7.7236 19.1861 5.03899 16.6428 5.00157C16.5721 5.00053 16.5001 5 16.4268 5C15.3656 5 14.317 5.54957 13.6072 6.05044C13.4655 6.15038 13.3161 6.23549 13.1613 6.30577L13.6727 7.49903C14.1145 8.52983 13.759 9.72908 12.8268 10.3526C12.4807 10.5842 12.36 11.0365 12.5447 11.4097L13.4146 13.1673C13.5983 13.5385 13.4463 13.9884 13.0751 14.1722C12.7039 14.3559 12.254 14.2039 12.0702 13.8327L11.2003 12.0751C10.6815 11.0268 11.0206 9.75621 11.9928 9.10585C12.3247 8.88386 12.4513 8.45689 12.294 8.08991L11.6258 6.53078C11.1892 6.47274 10.7645 6.31263 10.3928 6.05044C9.68295 5.54957 8.63436 5 7.57317 5C7.49992 5 7.42793 5.00053 7.35718 5.00157C4.81395 5.03899 2.91939 7.7236 3.65137 10.8232C4.02675 12.4128 5.39088 14.1004 7.16542 15.6477C8.89163 17.1528 10.7852 18.3369 11.8604 18.9601L11.1082 20.2579C8.87811 18.9654 3.16765 15.3014 2.19153 11.168C1.31012 7.43556 3.54708 3.55747 7.33511 3.50174C7.41331 3.50059 7.49265 3.5 7.57317 3.5C9.09809 3.5 10.4595 4.26167 11.2576 4.82479Z" fill="#363538"/>
<path d="M11.1082 20.2579L11.8604 18.9601C11.9522 19.0133 12.0478 19.0133 12.1396 18.9601L12.8918 20.2579C12.3347 20.5807 11.6653 20.5807 11.1082 20.2579Z" fill="#363538"/>
</svg>
