<svg width="24" height="24" viewBox="0 0 24 24" fill="none" xmlns="http://www.w3.org/2000/svg">
<path fill-rule="evenodd" clip-rule="evenodd" d="M19.5643 2.66902C20.1216 2.48989 20.7757 2.60386 21.2469 3.10262C21.7787 3.66562 22.4094 4.43887 22.7039 5.24129C23.0191 6.10041 23.0173 7.18128 22.9578 7.99422C22.8905 8.91301 22.4789 9.71168 21.909 10.3468C21.9045 10.3589 21.9 10.3729 21.8943 10.3878C21.8658 10.4628 21.8235 10.5731 21.7733 10.711C21.6725 10.9873 21.5371 11.3739 21.3963 11.8136C21.1094 12.7096 20.8211 13.7693 20.7469 14.5694C20.6429 15.6901 20.6417 17.2782 20.6688 18.6095C20.6822 19.27 20.7028 19.8598 20.7195 20.2833C20.7279 20.4943 20.7356 20.6645 20.741 20.7813C20.7437 20.8396 20.7454 20.8858 20.7469 20.9161C20.7476 20.9309 20.7485 20.9428 20.7488 20.9503V20.961L20.7498 21.0382C20.7308 21.4174 20.4263 21.7287 20.0389 21.7491C19.6514 21.769 19.3178 21.4906 19.2596 21.1153L19.2518 21.0391L19.2508 21.0352C19.2507 21.0332 19.2509 21.03 19.2508 21.0264C19.2504 21.0182 19.2496 21.005 19.2488 20.9893C19.2473 20.9577 19.2448 20.9111 19.242 20.8516C19.2364 20.7317 19.229 20.5571 19.2205 20.3419C19.2035 19.9114 19.1834 19.3128 19.1697 18.6407C19.1426 17.3056 19.1413 15.643 19.2537 14.4307C19.3199 13.7172 19.5154 12.8861 19.7303 12.1348C15.6587 15.3979 13.9608 17.9177 13.2557 19.419C12.7155 20.5687 11.5019 21.7501 9.99982 21.7501H4.39728C2.65917 21.7501 1.25004 20.3407 1.24982 18.6026C1.24984 17.684 1.65113 16.8109 2.34845 16.213L6.1297 12.9718C6.81872 12.3812 7.67518 12.5132 8.26837 12.8223C8.86187 13.1318 9.39237 13.7026 9.60626 14.378C9.66276 14.5564 9.72859 14.6453 9.77423 14.6856C9.78535 14.6954 9.80048 14.7049 9.82013 14.7149C9.82629 14.7107 9.83327 14.7066 9.83966 14.7022C10.0051 14.5881 10.2455 14.4199 10.5399 14.2052C11.1298 13.7748 11.9355 13.1595 12.7986 12.4239C14.5491 10.932 16.4431 9.01803 17.3231 7.17683C17.7589 6.26473 18.1407 4.96444 18.4061 3.91707C18.5628 3.29843 19.0185 2.84463 19.5643 2.66902ZM20.0233 4.09676C19.9595 4.11731 19.8874 4.17761 19.8602 4.28523C19.5916 5.34551 19.1806 6.76846 18.6766 7.82332C17.6515 9.96824 15.5453 12.0543 13.7723 13.5655C12.8737 14.3314 12.036 14.9704 11.4236 15.4171C11.1175 15.6404 10.8663 15.8168 10.6912 15.9376C10.6038 15.9979 10.5344 16.0444 10.4871 16.0762C10.464 16.0918 10.4459 16.104 10.4334 16.1124C10.4272 16.1165 10.4212 16.1199 10.4178 16.1221C10.4162 16.1232 10.4148 16.1245 10.4139 16.1251L10.4129 16.1261C10.4127 16.1261 10.407 16.1184 9.99982 15.5001L10.4129 16.1261C10.2905 16.2066 10.1463 16.2501 9.99982 16.2501C9.5269 16.2501 9.1095 16.0995 8.78107 15.8096C8.46727 15.5325 8.28472 15.1726 8.17657 14.8311C8.09642 14.5778 7.85956 14.3008 7.57501 14.1524C7.28997 14.0039 7.15703 14.0679 7.10626 14.1114L3.32501 17.3516C2.96003 17.6646 2.74984 18.1218 2.74982 18.6026C2.75004 19.5122 3.4876 20.2501 4.39728 20.2501H9.99982C10.7065 20.2501 11.4991 19.6308 11.8983 18.7813C12.814 16.8316 15.0088 13.727 20.2684 9.82332C20.9595 9.3104 21.4088 8.61896 21.4627 7.88484C21.5195 7.10834 21.4942 6.3005 21.2957 5.75887C21.1111 5.25584 20.6594 4.66576 20.1561 4.13289C20.1274 4.10256 20.1059 4.09488 20.0936 4.09187C20.0782 4.08824 20.0541 4.08686 20.0233 4.09676Z" fill="#363538"/>
</svg>
