<svg width="24" height="24" viewBox="0 0 24 24" fill="none" xmlns="http://www.w3.org/2000/svg">
<path fill-rule="evenodd" clip-rule="evenodd" d="M20.9999 5.25C21.9664 5.25 22.7499 6.0335 22.7499 7V8.61426C22.7498 9.76035 22.0388 10.7859 20.9657 11.1885L14.7499 13.5195V13.8574C14.7497 16.0072 13.007 17.7498 10.8573 17.75H10.7499V18.5H11.5858C12.2923 18.5 12.97 18.2193 13.4696 17.7197C13.7625 17.4269 14.2373 17.4269 14.5302 17.7197C14.823 18.0126 14.823 18.4874 14.5302 18.7803C13.7493 19.5611 12.6902 20 11.5858 20H5.41394C4.37864 19.9999 3.38285 19.6145 2.61902 18.9229L2.46961 18.7803L2.41785 18.7236C2.17761 18.4291 2.19508 17.9943 2.46961 17.7197C2.74419 17.4451 3.17893 17.4277 3.47351 17.668L3.53016 17.7197L3.72547 17.8965C4.19951 18.285 4.79569 18.4999 5.41394 18.5H6.24988V17.6904C3.983 17.3307 2.24988 15.3681 2.24988 13C2.24988 10.3767 4.37658 8.25006 6.99988 8.25H8.24988V7.25H2.99988C2.58572 7.24994 2.24988 6.91417 2.24988 6.5C2.24988 6.08583 2.58572 5.75006 2.99988 5.75H14.9999C15.4141 5.75 15.7499 6.08579 15.7499 6.5C15.7499 6.91421 15.4141 7.25 14.9999 7.25H9.74988V8.25H14.4257L18.1346 7.50781C18.4923 7.43623 18.7498 7.12256 18.7499 6.75781C18.7499 5.92518 19.4251 5.25006 20.2577 5.25H20.9999ZM7.74988 18.5H9.24988V17.75H7.74988V18.5ZM9.74988 11C9.74988 12.5188 8.51866 13.75 6.99988 13.75H3.83777C4.17641 15.1832 5.46321 16.2499 6.99988 16.25H10.8573C12.1786 16.2498 13.2497 15.1787 13.2499 13.8574V9.75H9.74988V11ZM6.99988 9.75C5.46321 9.75005 4.17641 10.8168 3.83777 12.25H6.99988C7.69024 12.25 8.24988 11.6904 8.24988 11V9.75H6.99988ZM20.2518 6.75195L20.2499 6.75488V6.75781C20.2498 7.83762 19.4874 8.76772 18.4286 8.97949L14.7499 9.71484V11.917L20.4384 9.78418L20.6141 9.70312C21.0026 9.48417 21.2498 9.06998 21.2499 8.61426V7C21.2499 6.86193 21.138 6.75 20.9999 6.75H20.2548L20.2518 6.75195Z" fill="#363538"/>
</svg>
