<svg width="24" height="24" viewBox="0 0 24 24" fill="none" xmlns="http://www.w3.org/2000/svg">
<path fill-rule="evenodd" clip-rule="evenodd" d="M4.07778 17.8056C2.9463 16.4619 2.97935 14.3635 3.01022 12.4033C3.01518 12.0882 3.02009 11.7765 3.02009 11.4722C3.02009 10.9797 3.05985 10.4964 3.13636 10.0254C3.13636 10.0254 3.21717 9.61809 3.3067 9.24365C3.34305 9.09163 3.38083 8.94503 3.41523 8.83331C4.54434 5.16597 7.96524 2.5 12.01 2.5C16.9751 2.5 21 6.517 21 11.4722C21 16.2048 17.3286 20.0816 12.6732 20.4204L7.56586 21.2713C6.74072 21.4088 5.9172 21.0182 5.50155 20.2922L4.07778 17.8056ZM5.77714 17.7547L12.1833 14.3642C13.5263 13.6534 14.0383 11.9881 13.3266 10.6455L12.8376 9.72314C12.2951 8.69993 11.171 8.12499 10.0227 8.28834L4.9351 9.01202C5.9544 6.09396 8.73779 4 12.01 4C16.1494 4 19.5 7.34822 19.5 11.4722C19.5 15.4104 16.4439 18.642 12.5644 18.9244C12.5183 18.9277 12.4723 18.9332 12.4267 18.9408L7.31936 19.7917C7.11307 19.8261 6.90719 19.7284 6.80328 19.5469L5.77714 17.7547ZM4.57294 10.5786L10.2339 9.77339C10.7546 9.69933 11.2651 9.95948 11.5123 10.4257L12.0013 11.3481C12.3248 11.9584 12.0921 12.7153 11.4816 13.0384L4.9831 16.4778C4.76093 16.0608 4.61817 15.4967 4.55036 14.7433C4.48542 14.0218 4.4969 13.2964 4.5094 12.5069C4.51465 12.1749 4.52009 11.8314 4.52009 11.4722C4.52009 11.1693 4.53808 10.8711 4.57294 10.5786Z" fill="#363538"/>
</svg>
