<svg width="24" height="24" viewBox="0 0 24 24" fill="none" xmlns="http://www.w3.org/2000/svg">
<path d="M10.969 13.9021C10.969 13.9705 11.0245 14.026 11.0929 14.026H12.3951C12.4635 14.026 12.519 13.9705 12.519 13.9021C12.5221 13.5652 12.5609 13.2824 12.6354 13.0536C12.713 12.8217 12.8309 12.6199 12.9891 12.4483C13.1505 12.2767 13.3569 12.1115 13.6082 11.9526C13.8937 11.7778 14.1404 11.5792 14.3483 11.3568C14.5562 11.1343 14.7161 10.8801 14.8278 10.5941C14.9426 10.3082 15 9.98404 15 9.62179C15 9.08477 14.8728 8.62084 14.6183 8.22999C14.367 7.83596 14.0147 7.5325 13.5617 7.3196C13.1117 7.10669 12.5904 7.00024 11.9977 7.00024C11.4546 7.00024 10.9581 7.10193 10.5081 7.3053C10.0613 7.50867 9.70132 7.81372 9.42824 8.22045C9.29641 8.41907 9.19491 8.64117 9.12375 8.88677C8.99248 9.33986 9.38896 9.73618 9.86069 9.73618H9.87882C10.315 9.73618 10.6319 9.36205 10.8712 8.99738C11.0016 8.80037 11.1645 8.6542 11.36 8.55887C11.5586 8.46036 11.768 8.41111 11.9884 8.41111C12.2273 8.41111 12.443 8.46195 12.6354 8.56364C12.8309 8.66532 12.986 8.80832 13.1009 8.99262C13.2157 9.17692 13.2731 9.39459 13.2731 9.64562C13.2731 9.86805 13.2296 10.0698 13.1427 10.251C13.0559 10.4289 12.9364 10.591 12.7843 10.7371C12.6354 10.8801 12.4663 11.012 12.277 11.1328C12.0008 11.3075 11.7665 11.4998 11.5741 11.7095C11.3817 11.916 11.2327 12.1893 11.1272 12.5293C11.0248 12.8693 10.9721 13.3269 10.969 13.9021Z" fill="#363538"/>
<path d="M11.0574 16.6952C11.2591 16.8986 11.4996 17.0002 11.7789 17.0002C11.9651 17.0002 12.1342 16.9542 12.2863 16.862C12.4414 16.7667 12.5656 16.6396 12.6587 16.4807C12.7548 16.3218 12.8029 16.1455 12.8029 15.9516C12.8029 15.6656 12.7005 15.421 12.4957 15.2176C12.294 15.0142 12.0551 14.9125 11.7789 14.9125C11.4996 14.9125 11.2591 15.0142 11.0574 15.2176C10.8557 15.421 10.7548 15.6656 10.7548 15.9516C10.7548 16.244 10.8557 16.4918 11.0574 16.6952Z" fill="#363538"/>
<path fill-rule="evenodd" clip-rule="evenodd" d="M22 12.0002C22 17.5231 17.5228 22.0002 12 22.0002C6.47715 22.0002 2 17.5231 2 12.0002C2 6.4774 6.47715 2.00024 12 2.00024C17.5228 2.00024 22 6.4774 22 12.0002ZM20.5 12.0002C20.5 16.6947 16.6944 20.5002 12 20.5002C7.30558 20.5002 3.5 16.6947 3.5 12.0002C3.5 7.30582 7.30558 3.50024 12 3.50024C16.6944 3.50024 20.5 7.30582 20.5 12.0002Z" fill="#363538"/>
</svg>
