<svg width="24" height="24" viewBox="0 0 24 24" fill="none" xmlns="http://www.w3.org/2000/svg">
<path fill-rule="evenodd" clip-rule="evenodd" d="M7 5.5C7 4.39543 7.89543 3.5 9 3.5H15C16.1046 3.5 17 4.39543 17 5.5V7.5C17 8.60457 16.1046 9.5 15 9.5H12.75V11.75H16C17.5188 11.75 18.75 12.9812 18.75 14.5H20C21.1046 14.5 22 15.3954 22 16.5V18.5C22 19.6046 21.1046 20.5 20 20.5H16C14.8954 20.5 14 19.6046 14 18.5V16.5C14 15.3954 14.8954 14.5 16 14.5H17.25C17.25 13.8096 16.6904 13.25 16 13.25H8C7.30964 13.25 6.75 13.8096 6.75 14.5H8C9.10457 14.5 10 15.3954 10 16.5V18.5C10 19.6046 9.10457 20.5 8 20.5H4C2.89543 20.5 2 19.6046 2 18.5V16.5C2 15.3954 2.89543 14.5 4 14.5H5.25C5.25 12.9812 6.48122 11.75 8 11.75H11.25V9.5H9C7.89543 9.5 7 8.60457 7 7.5V5.5ZM9 5H15C15.2761 5 15.5 5.22386 15.5 5.5V7.5C15.5 7.77614 15.2761 8 15 8H9C8.72386 8 8.5 7.77614 8.5 7.5V5.5C8.5 5.22386 8.72386 5 9 5ZM4 16H8C8.27614 16 8.5 16.2239 8.5 16.5V18.5C8.5 18.7761 8.27614 19 8 19H4C3.72386 19 3.5 18.7761 3.5 18.5V16.5C3.5 16.2239 3.72386 16 4 16ZM20 16H16C15.7239 16 15.5 16.2239 15.5 16.5V18.5C15.5 18.7761 15.7239 19 16 19H20C20.2761 19 20.5 18.7761 20.5 18.5V16.5C20.5 16.2239 20.2761 16 20 16Z" fill="#363538"/>
</svg>
