<svg width="24" height="24" viewBox="0 0 24 24" fill="none" xmlns="http://www.w3.org/2000/svg">
<path d="M5.81767 1.94116C6.23169 1.94118 6.56836 2.2908 6.56864 2.72275V3.92214C6.72995 3.81141 6.89548 3.70517 7.06474 3.60319C11.7853 0.759279 17.8215 2.44601 20.5472 7.37153C23.2727 12.2975 21.6556 18.5971 16.9349 21.4412C12.2142 24.2849 6.17793 22.5966 3.45243 17.6708C2.75142 16.4037 2.33691 15.0433 2.18974 13.6742C2.14387 13.2449 2.44038 12.8572 2.85185 12.809C3.26325 12.7611 3.63369 13.0707 3.67997 13.4999C3.80453 14.6588 4.15551 15.8113 4.75126 16.8882C7.06256 21.0655 12.1816 22.4966 16.1849 20.0848C20.1881 17.673 21.5596 12.3315 19.2483 8.15414C17.0104 4.11006 12.1411 2.64007 8.20048 4.7394L8.49931 4.74041C8.91341 4.74041 9.2501 5.08995 9.25029 5.522C9.25029 5.95423 8.91352 6.30461 8.49931 6.30461H5.81767C5.40363 6.30444 5.06773 5.95407 5.06767 5.522V2.72377C5.06767 2.29165 5.40359 1.94133 5.81767 1.94116Z" fill="#363538"/>
<path d="M11.0003 8.60862C11.4144 8.60874 11.7503 8.95908 11.7503 9.39123V13.826H15.0003C15.4144 13.8261 15.7503 14.1765 15.7503 14.6086C15.7503 15.0408 15.4144 15.3911 15.0003 15.3912H11.0003C10.5861 15.3912 10.2503 15.0408 10.2503 14.6086V9.39123C10.2503 8.95901 10.5861 8.60862 11.0003 8.60862Z" fill="#363538"/>
</svg>
