<svg width="24" height="24" viewBox="0 0 24 24" fill="none" xmlns="http://www.w3.org/2000/svg">
<path fill-rule="evenodd" clip-rule="evenodd" d="M3.6644 8.66853L9.5012 3.99908C10.9621 2.83038 13.0379 2.83038 14.4988 3.99908L20.3356 8.66853C21.3759 9.50082 21.9336 10.7965 21.823 12.1242L21.1528 20.1662C21.0664 21.2027 20.1999 22.0001 19.1597 22.0001H15.2748C13.9097 22.0001 12.9458 20.6627 13.3775 19.3676L13.6304 18.6089C14.0582 17.3255 13.1029 16.0001 11.75 16.0001C10.3971 16.0001 9.44179 17.3255 9.86961 18.6089L10.1225 19.3676C10.5542 20.6627 9.59025 22.0001 8.22513 22.0001H4.84025C3.80007 22.0001 2.93354 21.2027 2.84716 20.1661L2.17699 12.1242C2.06635 10.7965 2.62403 9.50082 3.6644 8.66853ZM4.60144 9.83983L10.4382 5.17039C11.3513 4.43995 12.6487 4.43995 13.5617 5.17039L19.3985 9.83983C20.0488 10.36 20.3973 11.1698 20.3282 11.9996L19.658 20.0416C19.6364 20.3007 19.4198 20.5001 19.1597 20.5001H15.2748C14.9336 20.5001 14.6926 20.1657 14.8005 19.8419L15.0534 19.0833C15.805 16.8285 14.1267 14.5001 11.75 14.5001C9.37326 14.5001 7.695 16.8285 8.44658 19.0833L8.69947 19.8419C8.80739 20.1657 8.56641 20.5001 8.22513 20.5001H4.84025C4.5802 20.5001 4.36357 20.3007 4.34197 20.0416L3.67181 11.9996C3.60266 11.1698 3.95121 10.36 4.60144 9.83983Z" fill="#363538"/>
</svg>
