<svg width="24" height="24" viewBox="0 0 24 24" fill="none" xmlns="http://www.w3.org/2000/svg">
<path fill-rule="evenodd" clip-rule="evenodd" d="M8 12.9998C7.44772 12.9998 7 13.4475 7 13.9998V17.9998C7 18.552 7.44772 18.9998 8 18.9998H11C11.5523 18.9998 12 18.552 12 17.9998V13.9998C12 13.4475 11.5523 12.9998 11 12.9998H8ZM8.5 14.4998V17.4998H10.5V14.4998H8.5Z" fill="#363538"/>
<path fill-rule="evenodd" clip-rule="evenodd" d="M14 10.9998C14 10.4475 14.4477 9.99976 15 9.99976H17C17.5523 9.99976 18 10.4475 18 10.9998V12.9998C18 13.552 17.5523 13.9998 17 13.9998H15C14.4477 13.9998 14 13.552 14 12.9998V10.9998ZM15.5 12.4998V11.4998H16.5V12.4998H15.5Z" fill="#363538"/>
<path fill-rule="evenodd" clip-rule="evenodd" d="M9.50145 3.99884L3.83285 8.53372C2.7013 9.43896 2.14783 10.8854 2.38606 12.3148L3.44316 18.6574C3.76462 20.5862 5.43338 21.9998 7.38874 21.9998H16.6117C18.5671 21.9998 20.2358 20.5862 20.5573 18.6574L21.6144 12.3148C21.8526 10.8854 21.2992 9.43896 20.1676 8.53372L14.499 3.99884C13.0381 2.83014 10.9623 2.83014 9.50145 3.99884ZM10.4385 5.17014L4.7699 9.70502C4.06267 10.2708 3.71676 11.1748 3.86565 12.0682L4.92275 18.4108C5.12366 19.6163 6.16664 20.4998 7.38874 20.4998H16.6117C17.8338 20.4998 18.8768 19.6163 19.0777 18.4108L20.1348 12.0682C20.2837 11.1748 19.9378 10.2708 19.2306 9.70502L13.562 5.17014C12.6489 4.43971 11.3515 4.43971 10.4385 5.17014Z" fill="#363538"/>
</svg>
