<svg width="24" height="24" viewBox="0 0 24 24" fill="none" xmlns="http://www.w3.org/2000/svg">
<path d="M12.0001 8.75043C12.4143 8.75052 12.7501 9.08627 12.7501 9.50043V9.67133C13.0844 9.59134 13.4409 9.74999 13.5978 10.0717C13.7788 10.444 13.6243 10.8933 13.2521 11.0747L12.7501 11.3188V12.7172L13.2326 12.4467L14.0021 12.0131L13.9513 11.5219C13.9083 11.11 14.2074 10.7408 14.6193 10.6977C14.9807 10.6599 15.308 10.8861 15.4122 11.2202L15.632 11.0971C15.9928 10.8941 16.4502 11.0216 16.6534 11.3823C16.8561 11.7431 16.7288 12.2006 16.3683 12.4038L16.2218 12.4858C16.4381 12.7308 16.4784 13.0967 16.2931 13.3852C16.0829 13.7116 15.6612 13.8211 15.3224 13.6489L15.256 13.6108L14.7745 13.3002L13.9679 13.7543L13.5294 14.0004L14.7745 14.6997L15.256 14.3901C15.6043 14.166 16.069 14.2673 16.2931 14.6157C16.4783 14.9045 16.4376 15.2701 16.2208 15.5151L16.3673 15.5971L16.4327 15.6381C16.7431 15.8571 16.8437 16.2803 16.6534 16.6186C16.4502 16.9789 15.9927 17.1064 15.632 16.9038L15.4513 16.8022C15.351 17.1241 15.044 17.3499 14.6925 17.3286C14.2792 17.3031 13.9642 16.9469 13.9894 16.5336L15.0958 16.602L15.0949 16.601L14.7384 16.5795L13.9894 16.5336L14.0226 15.9975L13.2326 15.5541L12.7501 15.2827V16.6811L13.2521 16.9262C13.6242 17.1077 13.7791 17.5569 13.5978 17.9291C13.4408 18.2507 13.0843 18.4085 12.7501 18.3286V18.5004C12.7499 18.9144 12.4141 19.2503 12.0001 19.2504C11.5861 19.2504 11.2504 18.9144 11.2501 18.5004V18.3286C10.9159 18.4087 10.5596 18.2507 10.4025 17.9291C10.2211 17.5568 10.3758 17.1076 10.7482 16.9262L11.2501 16.6811V15.2827L10.7677 15.5541L9.97669 15.9975L10.0109 16.5336C10.0361 16.9468 9.72095 17.303 9.30775 17.3286C8.95608 17.35 8.64823 17.1243 8.54798 16.8022L8.36829 16.9038L8.29896 16.9379C7.95083 17.0897 7.53742 16.9564 7.34681 16.6186C7.14375 16.2576 7.27199 15.8002 7.63294 15.5971L7.77943 15.5151C7.56261 15.2701 7.52183 14.9045 7.70716 14.6157C7.91732 14.289 8.33896 14.1795 8.67786 14.352L8.74427 14.3901L9.22474 14.6997L10.0324 14.2465L10.4699 14.0004L9.24427 13.311L8.81068 13.6166C8.47201 13.8547 8.00408 13.7724 7.76575 13.434C7.5622 13.1445 7.59403 12.7624 7.81849 12.5082L7.63197 12.4038L7.56751 12.3627C7.25695 12.1439 7.15669 11.7206 7.34681 11.3823C7.53733 11.0442 7.95067 10.9111 8.29896 11.0629L8.36829 11.0971L8.54798 11.1977C8.64837 10.8758 8.95622 10.6508 9.30775 10.6723C9.72109 10.6979 10.0363 11.0539 10.0109 11.4672L9.97669 12.0024L11.2501 12.7172V11.3403L10.7755 11.1332C10.3965 10.9672 10.2233 10.5252 10.3888 10.1459C10.5366 9.80813 10.9037 9.63339 11.2501 9.71625V9.50043C11.2501 9.08622 11.5859 8.75043 12.0001 8.75043Z" fill="#363538"/>
<path fill-rule="evenodd" clip-rule="evenodd" d="M9.50111 3.99946C10.9619 2.83083 13.0373 2.83099 14.4982 3.99946L20.1671 8.53364C21.2986 9.43885 21.8526 10.8856 21.6144 12.3149L20.5568 18.6577L20.5226 18.8373C20.1431 20.6142 18.6091 21.9134 16.7941 21.9956L16.6115 22.0004H7.3888L7.20618 21.9956C5.39098 21.9135 3.85617 20.6143 3.47669 18.8373L3.44251 18.6577L2.38587 12.3149C2.14771 10.8857 2.70082 9.43887 3.83216 8.53364L9.50111 3.99946ZM13.5617 5.17036C12.6487 4.44016 11.3516 4.44019 10.4386 5.17036L4.76966 9.70551C4.06264 10.2713 3.71651 11.1756 3.86536 12.0688L4.922 18.4106C5.1229 19.6159 6.16685 20.5003 7.3888 20.5004H16.6115C17.8335 20.5004 18.8764 19.616 19.0773 18.4106L20.1349 12.0688C20.2838 11.1756 19.9376 10.2713 19.2306 9.70551L13.5617 5.17036Z" fill="#363538"/>
</svg>
