<svg width="24" height="24" viewBox="0 0 24 24" fill="none" xmlns="http://www.w3.org/2000/svg">
<path fill-rule="evenodd" clip-rule="evenodd" d="M14.0997 10.0014C15.804 10.028 16.8107 11.8526 16.4142 13.6088L16.3663 13.7905C15.8151 15.6603 13.3738 17.2969 12.4015 17.8862L12.3048 17.936C12.076 18.0355 11.8179 18.0189 11.5988 17.8862C10.5951 17.2779 8.02562 15.5537 7.58607 13.6088C7.20189 11.9073 8.13486 10.1417 9.74329 10.0092L9.90052 10.0014C9.93562 10.0009 9.9718 10.0004 10.0079 10.0004C10.694 10.0005 11.307 10.3585 11.6661 10.6235C11.8623 10.768 12.138 10.7681 12.3341 10.6235C12.6933 10.3585 13.3062 10.0004 13.9923 10.0004L14.0997 10.0014ZM13.9923 11.5004C13.9077 11.5004 13.7882 11.5234 13.6359 11.5893C13.4849 11.6546 13.3412 11.7446 13.2247 11.8305C12.4992 12.3658 11.5011 12.3657 10.7755 11.8305C10.6591 11.7446 10.5153 11.6546 10.3644 11.5893C10.2121 11.5235 10.0925 11.5005 10.0079 11.5004C9.9794 11.5004 9.95128 11.501 9.92396 11.5014C9.66089 11.5055 9.42402 11.6305 9.23548 11.9389C9.03375 12.2692 8.93345 12.7629 9.04993 13.2788C9.16521 13.7877 9.62804 14.4447 10.3917 15.1411C10.9435 15.6441 11.5429 16.0693 12.0001 16.3666C12.4574 16.0693 13.0567 15.6441 13.6085 15.1411C14.3722 14.4447 14.8351 13.7877 14.9503 13.2788C15.0668 12.763 14.9665 12.2692 14.7648 11.9389C14.5763 11.6306 14.3393 11.5055 14.0763 11.5014C14.049 11.501 14.0209 11.5004 13.9923 11.5004Z" fill="#363538"/>
<path fill-rule="evenodd" clip-rule="evenodd" d="M9.50111 3.99946C10.9619 2.83083 13.0373 2.83099 14.4982 3.99946L20.1671 8.53364C21.2986 9.43885 21.8526 10.8856 21.6144 12.3149L20.5568 18.6577L20.5226 18.8373C20.1431 20.6142 18.6091 21.9134 16.7941 21.9956L16.6115 22.0004H7.3888L7.20618 21.9956C5.39098 21.9135 3.85617 20.6143 3.47669 18.8373L3.44251 18.6577L2.38587 12.3149C2.14771 10.8857 2.70082 9.43887 3.83216 8.53364L9.50111 3.99946ZM13.5617 5.17036C12.6487 4.44016 11.3516 4.44019 10.4386 5.17036L4.76966 9.70551C4.06264 10.2713 3.71651 11.1756 3.86536 12.0688L4.922 18.4106C5.1229 19.6159 6.16685 20.5003 7.3888 20.5004H16.6115C17.8335 20.5004 18.8764 19.616 19.0773 18.4106L20.1349 12.0688C20.2838 11.1756 19.9376 10.2713 19.2306 9.70551L13.5617 5.17036Z" fill="#363538"/>
</svg>
