<svg width="24" height="24" viewBox="0 0 24 24" fill="none" xmlns="http://www.w3.org/2000/svg">
<path fill-rule="evenodd" clip-rule="evenodd" d="M12.9064 9.40082C13.1184 9.24182 13.3989 9.20569 13.6437 9.30707C13.8882 9.40849 14.0612 9.63192 14.0988 9.89399C14.0996 9.89895 14.1009 9.90845 14.1036 9.92231C14.1093 9.95111 14.1193 9.99829 14.1349 10.059C14.1665 10.1821 14.2208 10.3613 14.3087 10.5688C14.4637 10.9347 14.7169 11.3747 15.1212 11.7631L15.3048 11.9262L15.3761 11.9946C15.3983 12.0186 15.4197 12.044 15.4386 12.0707C16.0625 12.9523 16.4002 14.1913 16.1915 15.3901C15.9753 16.6305 15.1794 17.785 13.6408 18.4145C11.4807 19.2981 9.38522 18.34 8.38197 16.7358C7.87838 15.9302 7.63741 14.9455 7.80091 13.9331C7.96565 12.9139 8.53093 11.9223 9.54114 11.0903C9.73434 10.9312 9.99484 10.8796 10.2345 10.9516C10.4739 11.0238 10.6621 11.2106 10.7355 11.4497C10.8688 11.884 10.9626 12.2178 11.0353 12.477C11.1101 12.7439 11.1558 12.9083 11.1993 13.0346C11.239 13.1494 11.2677 13.2046 11.2951 13.2465C11.3257 13.2933 11.3757 13.3555 11.4884 13.4682C11.5119 13.4917 11.5231 13.4982 11.5695 13.4916C11.6415 13.4815 11.7602 13.4318 11.88 13.3227C11.9994 13.2138 12.0649 13.0952 12.0851 13.018C12.091 12.995 12.0902 12.9808 12.09 12.975C12.0882 12.9728 12.0859 12.9704 12.0841 12.9682C11.726 12.5135 11.5863 12.0197 11.6154 11.5395C11.6433 11.0801 11.8223 10.6847 12.0099 10.3852C12.1991 10.0831 12.4212 9.8401 12.589 9.67719C12.6742 9.5945 12.7494 9.52834 12.8048 9.48188C12.8324 9.4587 12.8559 9.43984 12.8732 9.42622C12.8816 9.41954 12.8891 9.41389 12.8947 9.40961C12.8973 9.40756 12.8996 9.40525 12.9015 9.40375C12.9024 9.40305 12.9036 9.40237 12.9044 9.4018L12.9064 9.40082ZM13.1124 11.6303C13.1061 11.7367 13.1283 11.8697 13.2628 12.0405C13.6048 12.4664 13.647 12.9702 13.5363 13.3959C13.4291 13.8073 13.1797 14.1668 12.8898 14.4311C12.5999 14.6952 12.2137 14.9156 11.7794 14.977C11.3197 15.0418 10.8212 14.9218 10.4279 14.5288C10.2833 14.3842 10.1515 14.2378 10.0392 14.0659C9.92387 13.8892 9.84671 13.7131 9.78138 13.5239C9.74471 13.4176 9.70887 13.2972 9.67103 13.1655C9.45679 13.5073 9.33381 13.848 9.28138 14.1723C9.1807 14.796 9.32661 15.4165 9.65443 15.9409C10.3147 16.9963 11.6627 17.6033 13.0724 17.0268C14.1294 16.5944 14.5855 15.8699 14.714 15.1332C14.8453 14.3793 14.6347 13.5708 14.2492 12.9946C13.7251 12.5362 13.3654 12.0229 13.1222 11.562C13.1181 11.5854 13.1138 11.6083 13.1124 11.6303Z" fill="#363538"/>
<path fill-rule="evenodd" clip-rule="evenodd" d="M9.50111 3.99946C10.9619 2.83083 13.0373 2.83099 14.4982 3.99946L20.1671 8.53364C21.2986 9.43885 21.8526 10.8856 21.6144 12.3149L20.5568 18.6577L20.5226 18.8373C20.1431 20.6142 18.6091 21.9134 16.7941 21.9956L16.6115 22.0004H7.3888L7.20618 21.9956C5.39098 21.9135 3.85617 20.6143 3.47669 18.8373L3.44251 18.6577L2.38587 12.3149C2.14771 10.8857 2.70082 9.43887 3.83216 8.53364L9.50111 3.99946ZM13.5617 5.17036C12.6487 4.44016 11.3516 4.44019 10.4386 5.17036L4.76966 9.70551C4.06264 10.2713 3.71651 11.1756 3.86536 12.0688L4.922 18.4106C5.1229 19.6159 6.16685 20.5003 7.3888 20.5004H16.6115C17.8335 20.5004 18.8764 19.616 19.0773 18.4106L20.1349 12.0688C20.2838 11.1756 19.9376 10.2713 19.2306 9.70551L13.5617 5.17036Z" fill="#363538"/>
</svg>
