<svg width="24" height="24" viewBox="0 0 24 24" fill="none" xmlns="http://www.w3.org/2000/svg">
<path fill-rule="evenodd" clip-rule="evenodd" d="M10.7667 8.7768C11.0406 8.29856 11.5575 8.20016 11.9152 8.27387C12.2717 8.34768 12.75 8.66301 12.7501 9.26899V11.6772H15.1925C15.539 11.6773 15.8659 11.8388 16.0656 12.1206C16.2717 12.412 16.327 12.8234 16.1183 13.1879L13.2335 18.2241C12.9596 18.7019 12.4427 18.8006 12.0851 18.727C11.7286 18.6533 11.2505 18.3377 11.2501 17.7319V15.3237H8.80775C8.46135 15.3236 8.1344 15.1619 7.9347 14.8803C7.72841 14.5889 7.67336 14.1776 7.88197 13.8129L10.7667 8.7768ZM9.60462 13.8237H11.6925C12.1775 13.8238 12.75 14.1875 12.7501 14.8422V16.0502L14.3956 13.1772H12.3077C11.8228 13.1772 11.2506 12.8131 11.2501 12.1586V10.9497L9.60462 13.8237Z" fill="#363538"/>
<path fill-rule="evenodd" clip-rule="evenodd" d="M9.50111 3.99946C10.9619 2.83083 13.0373 2.83099 14.4982 3.99946L20.1671 8.53364C21.2986 9.43885 21.8526 10.8856 21.6144 12.3149L20.5568 18.6577L20.5226 18.8373C20.1431 20.6142 18.6091 21.9134 16.7941 21.9956L16.6115 22.0004H7.3888L7.20618 21.9956C5.39098 21.9135 3.85617 20.6143 3.47669 18.8373L3.44251 18.6577L2.38587 12.3149C2.14771 10.8857 2.70082 9.43887 3.83216 8.53364L9.50111 3.99946ZM13.5617 5.17036C12.6487 4.44016 11.3516 4.44019 10.4386 5.17036L4.76966 9.70551C4.06264 10.2713 3.71651 11.1756 3.86536 12.0688L4.922 18.4106C5.1229 19.6159 6.16685 20.5003 7.3888 20.5004H16.6115C17.8335 20.5004 18.8764 19.616 19.0773 18.4106L20.1349 12.0688C20.2838 11.1756 19.9376 10.2713 19.2306 9.70551L13.5617 5.17036Z" fill="#363538"/>
</svg>
