<svg width="24" height="24" viewBox="0 0 24 24" fill="none" xmlns="http://www.w3.org/2000/svg">
<path d="M13.9998 18.7501C14.414 18.7501 14.7498 18.4143 14.7498 18.0001C14.7498 17.5858 14.414 17.2501 13.9998 17.2501H9.99976C9.58554 17.2501 9.24976 17.5858 9.24976 18.0001C9.24976 18.4143 9.58554 18.7501 9.99976 18.7501H13.9998Z" fill="#363538"/>
<path fill-rule="evenodd" clip-rule="evenodd" d="M3.83237 8.53396L9.50096 3.99908C10.9618 2.83038 13.0376 2.83038 14.4985 3.99908L20.1671 8.53396C21.2987 9.4392 21.8521 10.8856 21.6139 12.315L20.5568 18.6577C20.2353 20.5864 18.5666 22.0001 16.6112 22.0001H7.38825C5.43289 22.0001 3.76413 20.5864 3.44267 18.6577L2.38557 12.315C2.14734 10.8856 2.70081 9.4392 3.83237 8.53396ZM4.76941 9.70526L10.438 5.17039C11.351 4.43995 12.6484 4.43995 13.5615 5.17039L19.2301 9.70526C19.9373 10.271 20.2832 11.1751 20.1343 12.0684L19.0772 18.4111C18.8763 19.6165 17.8333 20.5001 16.6112 20.5001H7.38825C6.16615 20.5001 5.12318 19.6165 4.92226 18.4111L3.86516 12.0684C3.71627 11.1751 4.06219 10.271 4.76941 9.70526Z" fill="#363538"/>
</svg>
