<svg width="24" height="24" viewBox="0 0 24 24" fill="none" xmlns="http://www.w3.org/2000/svg">
<path fill-rule="evenodd" clip-rule="evenodd" d="M12.4863 2.00879C14.8786 2.09341 16.6752 2.80714 17.9092 3.99023C19.2231 5.25023 19.8059 6.95312 19.874 8.7207C20.0035 12.0877 18.2798 15.9057 15.75 18.0986V20.5C15.75 21.4663 14.9663 22.2497 14 22.25H10C9.03373 22.2497 8.25 21.4663 8.25 20.5V18.0996C5.71981 15.9068 3.99549 12.088 4.125 8.7207C4.19308 6.95323 4.77608 5.25021 6.08985 3.99023C7.40606 2.72813 9.36319 2.00009 12 2L12.4863 2.00879ZM9.75 20.5C9.75 20.6379 9.86216 20.7497 10 20.75H14C14.1379 20.7497 14.25 20.6379 14.25 20.5V18.5H9.75V20.5ZM11.25 3.79395C11.0347 3.93579 10.7924 4.13558 10.5381 4.40918C9.93307 5.0603 9.34636 6.03407 8.9834 7.27344C8.28369 9.66293 8.41388 13.0604 10.9082 17H11.25V3.79395ZM12.75 17H13.0908C15.5853 13.0602 15.7154 9.66298 15.0156 7.27344C14.6526 6.03397 14.066 5.06028 13.4609 4.40918C13.207 4.13603 12.965 3.9367 12.75 3.79492V17ZM8.95801 3.96875C8.19535 4.24429 7.59381 4.62558 7.12793 5.07227C6.16097 5.99962 5.68103 7.29724 5.62403 8.7793C5.51558 11.6034 6.95675 14.8805 9.04981 16.8047C6.90788 12.9329 6.77805 9.46696 7.54395 6.85156C7.8775 5.71269 8.38162 4.73849 8.95801 3.96875ZM15.04 3.96875C15.6166 4.73857 16.1214 5.7124 16.4551 6.85156C17.2211 9.46712 17.0905 12.9326 14.9482 16.8047C17.0417 14.8806 18.4835 11.6038 18.375 8.7793C18.318 7.29711 17.8382 5.99964 16.8711 5.07227C16.405 4.62544 15.8032 4.24427 15.04 3.96875Z" fill="#363538"/>
</svg>
