<svg width="24" height="24" viewBox="0 0 24 24" fill="none" xmlns="http://www.w3.org/2000/svg">
<path fill-rule="evenodd" clip-rule="evenodd" d="M14.3 10.646C15.1143 9.63464 16.1838 8.22213 16.8611 7C17.2353 6.32497 17.627 5.46036 17.9714 4.64059C18.5068 3.3665 17.5478 2 16.1658 2H7.83428C6.45228 2 5.49324 3.3665 6.02862 4.64059C6.37309 5.46036 6.76481 6.32497 7.13892 7C7.81624 8.22213 8.88574 9.63464 9.70011 10.646C10.333 11.4318 10.333 12.5682 9.70011 13.354C8.88574 14.3654 7.81624 15.7779 7.13892 17C6.76481 17.675 6.37309 18.5396 6.02862 19.3594C5.49324 20.6335 6.45228 22 7.83428 22H16.1658C17.5478 22 18.5068 20.6335 17.9714 19.3594C17.627 18.5396 17.2353 17.675 16.8611 17C16.1838 15.7779 15.1143 14.3654 14.3 13.354C13.6671 12.5682 13.6671 11.4318 14.3 10.646ZM16.553 3.69436C16.6267 3.80121 16.6456 3.92367 16.5886 4.05951C16.2509 4.86314 15.8838 5.66904 15.5492 6.27288C14.938 7.37571 13.9373 8.70465 13.1316 9.70517C12.0565 11.0403 12.0565 12.9597 13.1317 14.2948C13.9373 15.2954 14.938 16.6243 15.5492 17.7271C15.8838 18.331 16.2509 19.1369 16.5886 19.9405C16.6456 20.0763 16.6267 20.1988 16.553 20.3056C16.4758 20.4176 16.3436 20.5 16.1658 20.5H7.83428C7.65651 20.5 7.52431 20.4176 7.44708 20.3056C7.37336 20.1988 7.35442 20.0763 7.41149 19.9405C7.74919 19.1369 8.11625 18.331 8.4509 17.7271C9.0621 16.6243 10.0627 15.2954 10.8684 14.2948C11.9435 12.9597 11.9435 11.0403 10.8684 9.70518C10.0627 8.70464 9.0621 7.37571 8.4509 6.27288C8.11625 5.66904 7.74919 4.86314 7.41149 4.05951C7.35442 3.92368 7.37336 3.80121 7.44708 3.69436C7.52431 3.58243 7.65651 3.5 7.83428 3.5H16.1658C16.3436 3.5 16.4758 3.58243 16.553 3.69436Z" fill="#363538"/>
</svg>
