<svg width="24" height="24" viewBox="0 0 24 24" fill="none" xmlns="http://www.w3.org/2000/svg">
<path d="M8.0001 6.25C7.58589 6.25 7.2501 6.58579 7.2501 7C7.2501 7.41421 7.58589 7.75 8.0001 7.75H14.8756C15.0252 7.75 15.1413 7.88059 15.1238 8.02921L14.8332 10.5H8.0001C7.58589 10.5 7.2501 10.8358 7.2501 11.25C7.2501 11.6642 7.58589 12 8.0001 12H14.6567L14.3183 14.8762C14.3085 14.9599 14.2572 15.0329 14.1818 15.0706L12.0352 16.1439C11.9759 16.1736 11.9072 16.1785 11.8443 16.1575L9.63023 15.4195C9.56733 15.3985 9.51533 15.3534 9.48568 15.2941L8.67092 13.6646C8.48568 13.2941 8.03517 13.1439 7.66469 13.3292C7.29421 13.5144 7.14404 13.9649 7.32928 14.3354L8.14404 15.9649C8.3516 16.3801 8.71558 16.6957 9.15589 16.8425L11.37 17.5805C11.8103 17.7273 12.2909 17.6931 12.706 17.4856L14.8526 16.4123C15.38 16.1486 15.7391 15.637 15.808 15.0515L16.6136 8.20447C16.736 7.16411 15.9231 6.25 14.8756 6.25H8.0001Z" fill="#363538"/>
<path fill-rule="evenodd" clip-rule="evenodd" d="M6.26566 2.25C4.61154 2.25 3.33173 3.69975 3.5369 5.34109L5.09955 17.8423C5.23091 18.8932 5.95401 19.7752 6.95869 20.1101L11.1305 21.5007C11.695 21.6889 12.3052 21.6889 12.8697 21.5007L17.0415 20.1101C18.0462 19.7752 18.7693 18.8932 18.9006 17.8423L20.4633 5.3411C20.6685 3.69975 19.3887 2.25 17.7345 2.25H6.26566ZM5.02532 5.15504C4.93206 4.40898 5.51379 3.75 6.26566 3.75H17.7345C18.4864 3.75 19.0681 4.40898 18.9749 5.15504L17.4122 17.6563C17.3525 18.1339 17.0238 18.5349 16.5672 18.6871L12.3954 20.0777C12.1388 20.1632 11.8614 20.1632 11.6048 20.0777L7.43303 18.6871C6.97636 18.5349 6.64768 18.1339 6.58797 17.6563L5.02532 5.15504Z" fill="#363538"/>
</svg>
