<svg width="24" height="24" viewBox="0 0 24 24" fill="none" xmlns="http://www.w3.org/2000/svg">
<path d="M8.56646 6.25C7.81458 6.25 7.23285 6.90898 7.32611 7.65504L7.70111 10.655C7.7793 11.2806 8.31105 11.75 8.94146 11.75H15.0852L14.35 15.4261L11.983 16.2151L9.25007 15.4343V14C9.25007 13.5858 8.91428 13.25 8.50007 13.25C8.08585 13.25 7.75007 13.5858 7.75007 14V15.6228C7.75007 16.181 8.12004 16.6714 8.65666 16.8248L11.6453 17.6786C11.8875 17.7479 12.145 17.7423 12.384 17.6626L14.962 16.8033C15.3875 16.6614 15.7044 16.3024 15.7924 15.8626L16.6159 11.7451C16.7706 10.9717 16.179 10.25 15.3902 10.25H9.16215L8.84965 7.75H16.0001C16.4143 7.75 16.7501 7.41421 16.7501 7C16.7501 6.58579 16.4143 6.25 16.0001 6.25H8.56646Z" fill="#363538"/>
<path fill-rule="evenodd" clip-rule="evenodd" d="M6.26554 2.25C4.61142 2.25 3.33161 3.69975 3.53678 5.34109L5.09943 17.8423C5.23079 18.8932 5.95389 19.7752 6.95857 20.1101L11.1304 21.5007C11.6948 21.6889 12.3051 21.6889 12.8696 21.5007L17.0414 20.1101C18.0461 19.7752 18.7692 18.8932 18.9005 17.8423L20.4632 5.3411C20.6683 3.69975 19.3885 2.25 17.7344 2.25H6.26554ZM5.02519 5.15504C4.93194 4.40898 5.51367 3.75 6.26554 3.75H17.7344C18.4863 3.75 19.068 4.40898 18.9748 5.15504L17.4121 17.6563C17.3524 18.1339 17.0237 18.5349 16.567 18.6871L12.3953 20.0777C12.1387 20.1632 11.8613 20.1632 11.6047 20.0777L7.43291 18.6871C6.97624 18.5349 6.64755 18.1339 6.58785 17.6563L5.02519 5.15504Z" fill="#363538"/>
</svg>
