<svg width="24" height="24" viewBox="0 0 24 24" fill="none" xmlns="http://www.w3.org/2000/svg">
<path d="M4.97002 20.4703C8.0331 17.4073 13.9848 14.8813 20.0374 15.6735L20.6233 15.7604L20.6985 15.777C21.0651 15.8771 21.3043 16.2407 21.2405 16.6237C21.1766 17.0064 20.8325 17.2727 20.4534 17.2487L20.3773 17.2399L19.8382 17.1598C14.2716 16.433 8.77995 18.7815 6.03057 21.5309C5.73777 21.8236 5.26291 21.8235 4.97002 21.5309C4.67716 21.238 4.67721 20.7632 4.97002 20.4703Z" fill="#363538"/>
<path d="M11.7962 13.0113C13.4518 12.4809 15.3773 12.0899 17.2161 12.2213L17.5833 12.2555L17.6585 12.2672C18.0302 12.3471 18.2883 12.6976 18.2454 13.0836C18.2022 13.469 17.8741 13.7539 17.4944 13.7506L17.4173 13.7457L17.1058 13.7174C15.5355 13.6057 13.8172 13.9393 12.2542 14.4401C10.5938 14.972 9.17115 15.6721 8.38604 16.1432L8.31866 16.1793C7.97466 16.3411 7.55668 16.2192 7.35674 15.8863C7.14375 15.5312 7.25943 15.0701 7.61456 14.8571L7.97491 14.649C8.88206 14.1436 10.2453 13.5083 11.7962 13.0113Z" fill="#363538"/>
<path d="M5.6917 3.99963C5.92026 3.80023 6.24715 3.75739 6.51885 3.89221C6.79039 4.02714 6.95353 4.31331 6.93291 4.61584L6.50811 10.8512L7.75518 10.9362C8.1684 10.9643 8.48053 11.3218 8.45245 11.735C8.42429 12.1482 8.06684 12.4604 7.65362 12.4322L3.66241 12.1608C3.24933 12.1324 2.937 11.7741 2.96514 11.361C2.99345 10.9479 3.35179 10.6355 3.76495 10.6637L5.01202 10.7487L5.31377 6.31994L4.5462 6.98889C4.23407 7.26099 3.76082 7.22867 3.48858 6.91662C3.21636 6.6045 3.24875 6.13129 3.56084 5.85901L5.6917 3.99963Z" fill="#363538"/>
<path fill-rule="evenodd" clip-rule="evenodd" d="M12.2903 3.22619C13.8054 3.3296 14.9502 4.6417 14.847 6.15686L14.6429 9.15002C14.5394 10.6651 13.2273 11.8099 11.7122 11.7067C10.197 11.6034 9.0525 10.2911 9.15557 8.776L9.35967 5.78283C9.4629 4.26756 10.7751 3.12296 12.2903 3.22619ZM12.1878 4.72229C11.4992 4.67552 10.9028 5.19582 10.8558 5.8844L10.6517 8.87756C10.6048 9.56617 11.1252 10.1624 11.8138 10.2096C12.5025 10.2565 13.0989 9.73624 13.1458 9.04748L13.3499 6.05432C13.3967 5.36564 12.8765 4.76921 12.1878 4.72229Z" fill="#363538"/>
<path fill-rule="evenodd" clip-rule="evenodd" d="M19.3421 2.70373C20.8572 2.80711 22.0018 4.11931 21.8987 5.6344L21.6946 8.62756C21.5914 10.1428 20.2792 11.2874 18.764 11.1842C17.2487 11.0809 16.1041 9.76878 16.2073 8.25354L16.4114 5.26037C16.5149 3.7453 17.827 2.60051 19.3421 2.70373ZM19.2396 4.2008C18.5509 4.15402 17.9544 4.67424 17.9075 5.36291L17.7034 8.35608C17.6567 9.04455 18.1771 9.64097 18.8655 9.68811C19.5542 9.73502 20.1515 9.21462 20.1985 8.526L20.4017 5.53283C20.4486 4.84407 19.9283 4.24773 19.2396 4.2008Z" fill="#363538"/>
</svg>
