<svg width="24" height="24" viewBox="0 0 24 24" fill="none" xmlns="http://www.w3.org/2000/svg">
<path fill-rule="evenodd" clip-rule="evenodd" d="M10.8589 2.4824C8.64899 3.57906 4 6.74792 4 14C4 19 7.99266 22 11.9999 22C16.0071 22 19.9999 19 19.9999 14C19.9999 6.74791 15.3508 3.57905 13.1408 2.48239C12.4154 2.1224 11.5844 2.12241 10.8589 2.4824ZM5.5 14C5.5 7.84178 9.21753 5.04907 11.2507 3.96743C11.2502 3.97822 11.25 3.98908 11.25 3.99999L11.25 20.458C8.22913 20.1187 5.5 17.7443 5.5 14ZM18.2762 15.7839C17.5656 18.4912 15.2584 20.1761 12.75 20.4579V18.9589C12.7943 18.9436 12.8377 18.9238 12.8798 18.8995L18.2762 15.7839ZM18.4997 13.9228L12.75 17.2424L12.75 13.8971L18.1225 10.7953C18.3559 11.7252 18.4938 12.764 18.4997 13.9228ZM17.625 9.35047L12.75 12.1651V9.47752C12.8158 9.46094 12.8804 9.4351 12.942 9.39951L16.5545 7.31381C16.9652 7.90419 17.3399 8.57567 17.6484 9.33749C17.6406 9.34166 17.6328 9.34599 17.625 9.35047ZM15.5973 6.13439C14.6064 5.0813 13.5479 4.39244 12.7493 3.96754C12.7498 3.9783 12.75 3.98912 12.75 3.99999V7.77831L15.5973 6.13439Z" fill="#363538"/>
</svg>
