<svg width="24" height="24" viewBox="0 0 24 24" fill="none" xmlns="http://www.w3.org/2000/svg">
<path d="M15.6117 2.42591C15.4016 1.85803 14.5984 1.85803 14.3883 2.42591L14.0974 3.21201C14.0313 3.39055 13.8905 3.53132 13.712 3.59738L12.9259 3.88826C12.358 4.0984 12.358 4.9016 12.9259 5.11174L13.712 5.40262C13.8905 5.46868 14.0313 5.60945 14.0974 5.78799L14.3883 6.57409C14.5984 7.14197 15.4016 7.14197 15.6117 6.57409L15.9026 5.78799C15.9687 5.60945 16.1095 5.46868 16.288 5.40262L17.0741 5.11174C17.642 4.9016 17.642 4.0984 17.0741 3.88826L16.288 3.59738C16.1095 3.53132 15.9687 3.39055 15.9026 3.21201L15.6117 2.42591Z" fill="#363538"/>
<path fill-rule="evenodd" clip-rule="evenodd" d="M10.25 4C10.6642 4 11 4.33579 11 4.75C11 5.16421 10.6642 5.5 10.25 5.5H6C4.61929 5.5 3.5 6.61929 3.5 8V16C3.5 16.3858 3.5874 16.7513 3.74349 17.0775L5.93431 14.0652C6.94223 12.6793 9.03781 12.7719 9.91949 14.2414C10.3009 14.8771 11.2465 14.7968 11.5152 14.1058L12.6188 11.2681C13.3231 9.45704 15.8097 9.26531 16.7833 10.947L20.2901 17.0042C20.4251 16.6969 20.5 16.3572 20.5 16V11.75C20.5 11.3358 20.8358 11 21.25 11C21.6642 11 22 11.3358 22 11.75V16C22 18.2091 20.2091 20 18 20H6C3.79086 20 2 18.2091 2 16V8C2 5.79086 3.79086 4 6 4H10.25ZM19.2344 18.1745L15.4852 11.6985C15.1419 11.1056 14.2651 11.1732 14.0168 11.8117L12.9132 14.6495C12.1925 16.5028 9.65635 16.7183 8.63325 15.0131C8.30452 14.4653 7.52321 14.4307 7.14741 14.9474L4.79035 18.1884C5.1488 18.3869 5.5612 18.5 6 18.5H18C18.4489 18.5 18.8702 18.3817 19.2344 18.1745Z" fill="#363538"/>
<path d="M9 8.5C9 9.32843 8.32843 10 7.5 10C6.67157 10 6 9.32843 6 8.5C6 7.67157 6.67157 7 7.5 7C8.32843 7 9 7.67157 9 8.5Z" fill="#363538"/>
<path fill-rule="evenodd" clip-rule="evenodd" d="M18.2659 5.51109C18.5181 4.82964 19.4819 4.82964 19.7341 5.51109L20.0831 6.45441C20.1624 6.66866 20.3313 6.83758 20.5456 6.91686L21.4889 7.26592C22.1704 7.51808 22.1704 8.48192 21.4889 8.73408L20.5456 9.08314C20.3313 9.16242 20.1624 9.33134 20.0831 9.54559L19.7341 10.4889C19.4819 11.1704 18.5181 11.1704 18.2659 10.4889L17.9169 9.54559C17.8376 9.33134 17.6687 9.16242 17.4544 9.08314L16.5111 8.73408C15.8296 8.48192 15.8296 7.51808 16.5111 7.26592L17.4544 6.91686C17.6687 6.83758 17.8376 6.66866 17.9169 6.45441L18.2659 5.51109ZM18.5643 8C18.7285 7.87513 18.8751 7.72853 19 7.56429C19.1249 7.72853 19.2715 7.87513 19.4357 8C19.2715 8.12487 19.1249 8.27147 19 8.43571C18.8751 8.27147 18.7285 8.12487 18.5643 8Z" fill="#363538"/>
</svg>
