<svg width="24" height="24" viewBox="0 0 24 24" fill="none" xmlns="http://www.w3.org/2000/svg">
<path d="M20.4697 3.46967C20.7626 3.17678 21.2374 3.17678 21.5303 3.46967C21.8232 3.76256 21.8232 4.23744 21.5303 4.53033L18.5541 7.50652C18.2684 7.79222 17.8078 7.80025 17.5123 7.52469L15.9885 6.10361C15.6856 5.8211 15.669 5.34652 15.9515 5.04359C16.234 4.74066 16.7086 4.72411 17.0115 5.00661L18.0056 5.93371L20.4697 3.46967Z" fill="#363538"/>
<path d="M7.5 10C8.32843 10 9 9.32843 9 8.5C9 7.67157 8.32843 7 7.5 7C6.67157 7 6 7.67157 6 8.5C6 9.32843 6.67157 10 7.5 10Z" fill="#363538"/>
<path fill-rule="evenodd" clip-rule="evenodd" d="M3.7435 17.0775C3.58741 16.7513 3.5 16.3858 3.5 16V8C3.5 6.61929 4.61929 5.5 6 5.5H14.25C14.6642 5.5 15 5.16421 15 4.75C15 4.33579 14.6642 4 14.25 4H6C3.79086 4 2 5.79086 2 8V16C2 18.2091 3.79086 20 6 20H18C20.2091 20 22 18.2091 22 16V8.75C22 8.33579 21.6642 8 21.25 8C20.8358 8 20.5 8.33579 20.5 8.75V16C20.5 16.3572 20.4251 16.6969 20.2901 17.0042L16.7833 10.947C15.8097 9.26533 13.3231 9.45705 12.6188 11.2681L11.5152 14.1058C11.2465 14.7968 10.3009 14.8772 9.91949 14.2414C9.03781 12.7719 6.94223 12.6793 5.93431 14.0652L3.7435 17.0775ZM14.0168 11.8117C14.2651 11.1732 15.1419 11.1056 15.4852 11.6985L19.2344 18.1745C18.8702 18.3817 18.4489 18.5 18 18.5H6C5.5612 18.5 5.14881 18.387 4.79036 18.1884L7.14741 14.9474C7.52321 14.4307 8.30452 14.4653 8.63325 15.0131C9.65635 16.7183 12.1925 16.5028 12.9132 14.6495L14.0168 11.8117Z" fill="#363538"/>
</svg>
