<svg width="24" height="24" viewBox="0 0 24 24" fill="none" xmlns="http://www.w3.org/2000/svg">
<path fill-rule="evenodd" clip-rule="evenodd" d="M18.6628 2.57257L15.1619 6.07344C15.0583 6.17714 15 6.31778 15 6.46442V8.44708C15 8.75245 15.2476 9 15.5529 9H17.5356C17.6822 9 17.8229 8.94175 17.9266 8.83805L21.4274 5.33718C22.1909 4.57375 22.1909 3.336 21.4274 2.57257C20.664 1.80914 19.4262 1.80914 18.6628 2.57257ZM16.5 6.85671V7.5H17.1433L20.3668 4.27652C20.5444 4.09888 20.5444 3.81087 20.3668 3.63323C20.1891 3.45559 19.9011 3.45559 19.7235 3.63323L16.5 6.85671Z" fill="#363538"/>
<path d="M7.5 10C8.32843 10 9 9.32843 9 8.5C9 7.67157 8.32843 7 7.5 7C6.67157 7 6 7.67157 6 8.5C6 9.32843 6.67157 10 7.5 10Z" fill="#363538"/>
<path fill-rule="evenodd" clip-rule="evenodd" d="M3.74356 17.0777C3.58743 16.7514 3.5 16.3859 3.5 16V8C3.5 6.61929 4.61929 5.5 6 5.5H14.25C14.6642 5.5 15 5.16421 15 4.75C15 4.33579 14.6642 4 14.25 4H6C3.79086 4 2 5.79086 2 8V16C2 18.2091 3.79086 20 6 20H18C20.2091 20 22 18.2091 22 16V8.75C22 8.33579 21.6642 8 21.25 8C20.8358 8 20.5 8.33579 20.5 8.75V16C20.5 16.3572 20.4251 16.697 20.2901 17.0044L16.7833 10.9472C15.8097 9.26556 13.3231 9.45728 12.6188 11.2683L11.5152 14.106C11.2465 14.797 10.3009 14.8774 9.91949 14.2416C9.03781 12.7722 6.94223 12.6795 5.93431 14.0654L3.74356 17.0777ZM14.0168 11.812C14.2651 11.1734 15.1419 11.1058 15.4852 11.6988L19.2343 18.1746C18.8702 18.3817 18.4489 18.5 18 18.5H6C5.56125 18.5 5.1489 18.387 4.79047 18.1885L7.14741 14.9477C7.52321 14.431 8.30452 14.4655 8.63325 15.0134C9.65635 16.7185 12.1925 16.503 12.9132 14.6497L14.0168 11.812Z" fill="#363538"/>
</svg>
