<svg width="24" height="24" viewBox="0 0 24 24" fill="none" xmlns="http://www.w3.org/2000/svg">
<path fill-rule="evenodd" clip-rule="evenodd" d="M14.25 4C14.6642 4 15 4.33579 15 4.75C15 5.16421 14.6642 5.5 14.25 5.5H6C4.61929 5.5 3.5 6.61929 3.5 8V16C3.5 16.3853 3.58941 16.7492 3.74512 17.0752L5.93457 14.0654C6.9425 12.6797 9.03824 12.7719 9.91992 14.2412C10.3014 14.8767 11.2467 14.797 11.5156 14.1064L12.6191 11.2686C13.3234 9.45754 15.8096 9.26562 16.7832 10.9473L20.2891 17.002C20.4236 16.695 20.5 16.3566 20.5 16V8.75C20.5 8.33579 20.8358 8 21.25 8C21.6642 8 22 8.33579 22 8.75V16C22 18.2091 20.2091 20 18 20H6L5.79395 19.9951C3.68056 19.8879 2 18.14 2 16V8C2 5.79086 3.79086 4 6 4H14.25ZM15.4854 11.6992C15.1421 11.1064 14.2651 11.1733 14.0166 11.8115L12.9131 14.6494C12.1923 16.5025 9.65595 16.7186 8.63281 15.0137C8.30415 14.4659 7.52334 14.4308 7.14746 14.9473L4.79102 18.1875C5.14944 18.386 5.56125 18.5 6 18.5H18C18.4486 18.5 18.8684 18.3797 19.2324 18.1729L15.4854 11.6992Z" fill="#363538"/>
<path d="M7.5 7C8.32843 7 9 7.67157 9 8.5C9 9.32843 8.32843 10 7.5 10C6.67157 10 6 9.32843 6 8.5C6 7.67157 6.67157 7 7.5 7Z" fill="#363538"/>
<path d="M21.25 4C21.6642 4 22 4.33579 22 4.75C22 5.16421 21.6642 5.5 21.25 5.5H17.25C16.8358 5.5 16.5 5.16421 16.5 4.75C16.5 4.33579 16.8358 4 17.25 4H21.25Z" fill="#363538"/>
</svg>
