<svg width="24" height="24" viewBox="0 0 24 24" fill="none" xmlns="http://www.w3.org/2000/svg">
<path fill-rule="evenodd" clip-rule="evenodd" d="M11.75 4C12.1642 4 12.5 4.33579 12.5 4.75C12.5 5.16421 12.1642 5.5 11.75 5.5H6C4.61929 5.5 3.5 6.61929 3.5 8V16C3.5 16.3853 3.58941 16.7492 3.74512 17.0752L5.93457 14.0654L6.03223 13.9395C7.07239 12.6867 9.06585 12.8179 9.91992 14.2412L9.99707 14.3525C10.4162 14.8649 11.2635 14.7539 11.5156 14.1064L12.6191 11.2686L12.6904 11.1035C13.4775 9.44736 15.84 9.31817 16.7832 10.9473L20.2891 17.002C20.4236 16.695 20.5 16.3566 20.5 16V11.75C20.5 11.3358 20.8358 11 21.25 11C21.6642 11 22 11.3358 22 11.75V16C22 18.2091 20.2091 20 18 20H6L5.79395 19.9951C3.68056 19.8879 2 18.14 2 16V8C2 5.79086 3.79086 4 6 4H11.75ZM15.4854 11.6992C15.1635 11.1433 14.3724 11.1676 14.0703 11.6992L14.0166 11.8115L12.9131 14.6494C12.2148 16.4445 9.81307 16.7034 8.7334 15.168L8.63281 15.0137C8.32464 14.5001 7.61935 14.4375 7.22266 14.8574L7.14746 14.9473L4.79102 18.1875C5.14944 18.386 5.56125 18.5 6 18.5H18C18.4486 18.5 18.8684 18.3797 19.2324 18.1729L15.4854 11.6992Z" fill="#363538"/>
<path d="M7.5 7C8.32843 7 9 7.67157 9 8.5C9 9.32843 8.32843 10 7.5 10C6.67157 10 6 9.32843 6 8.5C6 7.67157 6.67157 7 7.5 7Z" fill="#363538"/>
<path fill-rule="evenodd" clip-rule="evenodd" d="M17.25 2.25C19.0449 2.25 20.5 3.70507 20.5 5.5C20.5 6.12565 20.322 6.70924 20.0156 7.20508L21.2803 8.46973L21.332 8.52637C21.5723 8.82095 21.5548 9.2557 21.2803 9.53027C21.0057 9.80484 20.5709 9.82227 20.2764 9.58203L20.2197 9.53027L18.9551 8.26562C18.4592 8.57197 17.8756 8.75 17.25 8.75C15.4551 8.75 14 7.29493 14 5.5C14 3.70507 15.4551 2.25 17.25 2.25ZM17.25 3.75C16.2835 3.75 15.5 4.5335 15.5 5.5C15.5 6.4665 16.2835 7.25 17.25 7.25C18.2165 7.25 19 6.4665 19 5.5C19 4.5335 18.2165 3.75 17.25 3.75Z" fill="#363538"/>
</svg>
