<svg width="24" height="24" viewBox="0 0 24 24" fill="none" xmlns="http://www.w3.org/2000/svg">
<path fill-rule="evenodd" clip-rule="evenodd" d="M21 5C21 6.65685 19.6569 8 18 8C16.3431 8 15 6.65685 15 5C15 3.34315 16.3431 2 18 2C19.6569 2 21 3.34315 21 5ZM19.5 5C19.5 5.82843 18.8284 6.5 18 6.5C17.1716 6.5 16.5 5.82843 16.5 5C16.5 4.17157 17.1716 3.5 18 3.5C18.8284 3.5 19.5 4.17157 19.5 5Z" fill="#363538"/>
<path fill-rule="evenodd" clip-rule="evenodd" d="M5.86319 7.06612C6.2756 5.69142 7.5409 4.75 8.97612 4.75H13C13.4142 4.75 13.75 4.41421 13.75 4C13.75 3.58579 13.4142 3.25 13 3.25H8.97612C6.87848 3.25 5.0292 4.62592 4.42645 6.6351L2.28163 13.7845C2.26066 13.8544 2.25 13.927 2.25 14V15.2116C2.25 15.9825 2.43761 16.7418 2.79664 17.4239L3.21157 18.2123C4.03295 19.7729 5.65135 20.75 7.41493 20.75H16.5851C18.3486 20.75 19.9671 19.7729 20.7884 18.2123L21.2034 17.4239C21.5624 16.7418 21.75 15.9825 21.75 15.2116V14C21.75 13.927 21.7393 13.8544 21.7184 13.7845L20.5184 9.78449C20.3993 9.38774 19.9812 9.16261 19.5845 9.28163C19.1877 9.40065 18.9626 9.81877 19.0816 10.2155L19.992 13.25H18.3735C16.9638 13.25 15.6269 13.8762 14.7244 14.9591L14.6232 15.0806C14.0057 15.8216 13.091 16.25 12.1265 16.25H11.8735C10.909 16.25 9.99426 15.8216 9.37678 15.0806L9.27555 14.9591C8.37308 13.8762 7.0362 13.25 5.6265 13.25H4.00802L5.86319 7.06612ZM18.3735 14.75H20.25V15.2116C20.25 15.7391 20.1216 16.2586 19.876 16.7253L19.4611 17.5137C18.8991 18.5815 17.7917 19.25 16.5851 19.25H7.41493C6.20827 19.25 5.10094 18.5815 4.53894 17.5137L4.12402 16.7253C3.87837 16.2586 3.75 15.7391 3.75 15.2116V14.75H5.6265C6.59103 14.75 7.50574 15.1784 8.12322 15.9194L8.22445 16.0409C9.12692 17.1238 10.4638 17.75 11.8735 17.75H12.1265C13.5362 17.75 14.8731 17.1238 15.7755 16.0409L15.8768 15.9194C16.4943 15.1784 17.409 14.75 18.3735 14.75Z" fill="#363538"/>
</svg>
