<svg width="24" height="24" viewBox="0 0 24 24" fill="none" xmlns="http://www.w3.org/2000/svg">
<path fill-rule="evenodd" clip-rule="evenodd" d="M4.42645 6.6351C5.0292 4.62592 6.87848 3.25 8.97612 3.25H15.0239C17.1215 3.25 18.9708 4.62592 19.5736 6.6351L21.7184 13.7845C21.7393 13.8544 21.75 13.927 21.75 14V15.2116C21.75 15.9825 21.5624 16.7418 21.2034 17.4239L20.7884 18.2123C19.9671 19.7729 18.3486 20.75 16.5851 20.75H7.41493C5.65135 20.75 4.03295 19.7729 3.21157 18.2123L2.79664 17.4239C2.43761 16.7418 2.25 15.9825 2.25 15.2116V14C2.25 13.927 2.26066 13.8544 2.28163 13.7845L4.42645 6.6351ZM8.97612 4.75C7.5409 4.75 6.2756 5.69142 5.86319 7.06612L4.00802 13.25H5.6265C7.0362 13.25 8.37308 13.8762 9.27555 14.9591L9.37678 15.0806C9.99426 15.8216 10.909 16.25 11.8735 16.25H12.1265C13.091 16.25 14.0057 15.8216 14.6232 15.0806L14.7244 14.9591C15.6269 13.8762 16.9638 13.25 18.3735 13.25H19.992L18.1368 7.06612C17.7244 5.69142 16.4591 4.75 15.0239 4.75H8.97612ZM20.25 14.75H18.3735C17.409 14.75 16.4943 15.1784 15.8768 15.9194L15.7755 16.0409C14.8731 17.1238 13.5362 17.75 12.1265 17.75H11.8735C10.4638 17.75 9.12692 17.1238 8.22445 16.0409L8.12322 15.9194C7.50574 15.1784 6.59103 14.75 5.6265 14.75H3.75V15.2116C3.75 15.7391 3.87837 16.2586 4.12402 16.7253L4.53894 17.5137C5.10094 18.5815 6.20827 19.25 7.41493 19.25H16.5851C17.7917 19.25 18.8991 18.5815 19.4611 17.5137L19.876 16.7253C20.1216 16.2586 20.25 15.7391 20.25 15.2116V14.75Z" fill="#363538"/>
</svg>
