<svg width="24" height="24" viewBox="0 0 24 24" fill="none" xmlns="http://www.w3.org/2000/svg">
<path fill-rule="evenodd" clip-rule="evenodd" d="M18.8613 5.93377C18.8613 4.23772 17.341 2.94597 15.6672 3.21986L12.2021 3.78688C12.0684 3.80876 11.9321 3.80876 11.7984 3.78688L8.33321 3.21986C6.65943 2.94597 5.13912 4.23771 5.13912 5.93376V7.82722C5.13912 7.99067 5.10718 8.15009 5.04721 8.29769C4.96488 8.5003 4.82988 8.68029 4.65234 8.81716L2.86655 10.194C1.54397 11.2137 2.26505 13.3299 3.93507 13.3299H20.0654C21.7354 13.3299 22.4565 11.2137 21.1339 10.194L19.3481 8.81716C19.1706 8.68028 19.0356 8.5003 18.9532 8.29769C18.8933 8.1501 18.8613 7.99068 18.8613 7.82722V5.93377ZM15.9095 4.70017C16.6703 4.57567 17.3613 5.16283 17.3613 5.93377L17.3613 7.83001H6.63912L6.63912 5.93376C6.63912 5.16283 7.33017 4.57567 8.09098 4.70017L11.5561 5.2672C11.8502 5.31532 12.1502 5.31532 12.4443 5.2672L15.9095 4.70017ZM6.19219 9.33001H17.8083C17.9749 9.5854 18.1848 9.81431 18.4322 10.0051L20.218 11.3819C20.407 11.5276 20.304 11.8299 20.0654 11.8299H3.93507C3.69649 11.8299 3.59348 11.5276 3.78242 11.3819L5.56821 10.0051C5.81567 9.81431 6.02557 9.5854 6.19219 9.33001Z" fill="#363538"/>
<path fill-rule="evenodd" clip-rule="evenodd" d="M7.5 14.3301C5.70507 14.3301 4.25 15.7852 4.25 17.5801C4.25 19.375 5.70507 20.8301 7.5 20.8301C9.1121 20.8301 10.4501 19.6563 10.7059 18.1168C10.7729 18.0938 10.8456 18.0698 10.9221 18.0458C11.3097 17.9245 11.7181 17.8301 12 17.8301C12.2819 17.8301 12.6903 17.9245 13.0779 18.0458C13.1544 18.0698 13.2271 18.0938 13.2941 18.1168C13.5499 19.6563 14.8879 20.8301 16.5 20.8301C18.2949 20.8301 19.75 19.375 19.75 17.5801C19.75 15.7852 18.2949 14.3301 16.5 14.3301C15.0547 14.3301 13.8298 15.2735 13.4074 16.5781C13.0059 16.4582 12.4748 16.3301 12 16.3301C11.5252 16.3301 10.9941 16.4582 10.5926 16.5781C10.1702 15.2735 8.94528 14.3301 7.5 14.3301ZM5.75 17.5801C5.75 16.6136 6.5335 15.8301 7.5 15.8301C8.4665 15.8301 9.25 16.6136 9.25 17.5801C9.25 18.5466 8.4665 19.3301 7.5 19.3301C6.5335 19.3301 5.75 18.5466 5.75 17.5801ZM14.75 17.5801C14.75 16.6136 15.5335 15.8301 16.5 15.8301C17.4665 15.8301 18.25 16.6136 18.25 17.5801C18.25 18.5466 17.4665 19.3301 16.5 19.3301C15.5335 19.3301 14.75 18.5466 14.75 17.5801Z" fill="#363538"/>
</svg>
