<svg width="24" height="24" viewBox="0 0 24 24" fill="none" xmlns="http://www.w3.org/2000/svg">
<path d="M3 4.25C2.58579 4.25 2.25 4.58579 2.25 5C2.25 5.41421 2.58579 5.75 3 5.75H21C21.4142 5.75 21.75 5.41421 21.75 5C21.75 4.58579 21.4142 4.25 21 4.25H3Z" fill="#363538"/>
<path d="M9 11.25C8.58579 11.25 8.25 11.5858 8.25 12C8.25 12.4142 8.58579 12.75 9 12.75L21 12.75C21.4142 12.75 21.75 12.4142 21.75 12C21.75 11.5858 21.4142 11.25 21 11.25L9 11.25Z" fill="#363538"/>
<path d="M2.25 19C2.25 18.5858 2.58579 18.25 3 18.25H21C21.4142 18.25 21.75 18.5858 21.75 19C21.75 19.4142 21.4142 19.75 21 19.75H3C2.58579 19.75 2.25 19.4142 2.25 19Z" fill="#363538"/>
<path d="M2.46949 9.53033C2.17659 9.23744 2.17659 8.76256 2.46949 8.46967C2.76238 8.17678 3.23725 8.17678 3.53015 8.46967L5.11593 10.0554C6.18987 11.1294 6.18987 12.8706 5.11593 13.9445L3.53015 15.5303C3.23725 15.8232 2.76238 15.8232 2.46949 15.5303C2.17659 15.2374 2.17659 14.7626 2.46949 14.4697L4.05527 12.8839C4.54343 12.3957 4.54343 11.6043 4.05527 11.1161L2.46949 9.53033Z" fill="#363538"/>
</svg>
