<svg width="24" height="24" viewBox="0 0 24 24" fill="none" xmlns="http://www.w3.org/2000/svg">
<path fill-rule="evenodd" clip-rule="evenodd" d="M15.0137 8.7057C17.7551 6.57367 21.7498 8.52682 21.75 11.9996C21.75 15.4727 17.7551 17.4258 15.0137 15.2936L12 12.9498L8.98633 15.2936C6.24487 17.4258 2.25 15.4727 2.25 11.9996C2.2502 8.52682 6.24495 6.57367 8.98633 8.7057L12 11.0485L15.0137 8.7057ZM8.06543 9.88929C6.30934 8.5236 3.7502 9.77504 3.75 11.9996C3.75 14.2245 6.30926 15.4759 8.06543 14.11L10.7773 11.9996L8.06543 9.88929ZM20.25 11.9996C20.2498 9.77504 17.6907 8.5236 15.9346 9.88929L13.2217 11.9996L15.9346 14.11C17.6907 15.4759 20.25 14.2245 20.25 11.9996Z" fill="#363538"/>
</svg>
