<svg width="24" height="24" viewBox="0 0 24 24" fill="none" xmlns="http://www.w3.org/2000/svg">
<path d="M12.8629 7.87987C12.8733 7.39715 12.4848 7.00024 12.002 7.00024C11.5194 7.00024 11.131 7.39681 11.141 7.87931L11.2529 13.2539C11.2614 13.6605 11.5935 13.9858 12.0002 13.9858C12.4068 13.9858 12.7388 13.6608 12.7475 13.2543L12.8629 7.87987Z" fill="#363538"/>
<path d="M11.2909 16.6911C11.4879 16.8972 11.7242 17.0002 12 17.0002C12.1818 17.0002 12.347 16.9535 12.4955 16.8601C12.647 16.7635 12.7682 16.6347 12.8591 16.4737C12.953 16.3126 13 16.1339 13 15.9374C13 15.6476 12.9 15.3996 12.7 15.1935C12.503 14.9874 12.2697 14.8843 12 14.8843C11.7242 14.8843 11.4879 14.9874 11.2909 15.1935C11.097 15.3996 11 15.6476 11 15.9374C11 16.2337 11.097 16.4849 11.2909 16.6911Z" fill="#363538"/>
<path fill-rule="evenodd" clip-rule="evenodd" d="M22 12.0002C22 17.5231 17.5228 22.0002 12 22.0002C6.47715 22.0002 2 17.5231 2 12.0002C2 6.4774 6.47715 2.00024 12 2.00024C17.5228 2.00024 22 6.4774 22 12.0002ZM20.5 12.0002C20.5 16.6947 16.6944 20.5002 12 20.5002C7.30558 20.5002 3.5 16.6947 3.5 12.0002C3.5 7.30582 7.30558 3.50024 12 3.50024C16.6944 3.50024 20.5 7.30582 20.5 12.0002Z" fill="#363538"/>
</svg>
