<svg width="24" height="24" viewBox="0 0 24 24" fill="none" xmlns="http://www.w3.org/2000/svg">
<path fill-rule="evenodd" clip-rule="evenodd" d="M13.4625 1.85578C12.6548 1.04807 11.3452 1.04807 10.5375 1.85578L1.85578 10.5375C1.04807 11.3452 1.04807 12.6548 1.85578 13.4625L10.5375 22.1442C11.3452 22.9519 12.6548 22.9519 13.4625 22.1442L22.1442 13.4625C22.9519 12.6548 22.9519 11.3452 22.1442 10.5375L13.4625 1.85578ZM11.5982 2.91644C11.8201 2.69452 12.1799 2.69452 12.4018 2.91644L21.0836 11.5982C21.3055 11.8201 21.3055 12.1799 21.0836 12.4018L12.4018 21.0836C12.1799 21.3055 11.8201 21.3055 11.5982 21.0836L2.91644 12.4018C2.69452 12.1799 2.69452 11.8201 2.91644 11.5982L11.5982 2.91644Z" fill="#363538"/>
</svg>
