<svg width="24" height="24" viewBox="0 0 24 24" fill="none" xmlns="http://www.w3.org/2000/svg">
<path fill-rule="evenodd" clip-rule="evenodd" d="M10.789 2.64028C11.6848 2.9414 12.7403 3.63237 14.1931 4.82927C16.9529 4.25419 19.6185 5.15258 20.8643 5.84481C21.163 6.0108 21.3118 6.35776 21.226 6.68858C21.1403 7.01941 20.8417 7.25043 20.5 7.2504C19.7838 7.25035 18.6394 7.35039 17.3854 7.63839C17.4112 7.64649 17.4371 7.65484 17.463 7.66344C18.3619 7.96201 19.2433 8.54818 20.0694 9.51188C20.26 9.73426 20.3038 10.0473 20.1814 10.3134C20.059 10.5795 19.7929 10.75 19.5 10.75C16.7444 10.75 15.0153 10.8055 13.9333 10.9502C13.3915 11.0227 13.0644 11.1114 12.8692 11.1987C12.8089 11.2256 12.7667 11.2498 12.7374 11.2701C12.6285 13.49 12.6229 15.3116 12.7052 16.4673C14.1933 16.8433 15.4779 17.6484 16.4401 18.4128C17.1055 18.9413 17.6395 19.4685 18.0077 19.8639C18.1922 20.062 18.3362 20.2282 18.4353 20.3465C18.4849 20.4057 18.5233 20.453 18.5501 20.4864C18.5635 20.5032 18.574 20.5164 18.5815 20.526L18.5905 20.5375L18.5933 20.5412L18.5942 20.5424C18.5944 20.5426 18.5949 20.5433 18 21L18.5949 20.5433C18.7688 20.7699 18.799 21.0755 18.6727 21.3317C18.5464 21.5878 18.2856 21.75 18 21.75H4.00001C3.71442 21.75 3.45361 21.5878 3.32732 21.3317C3.20103 21.0755 3.23118 20.7699 3.40507 20.5433L4.00001 21C3.40507 20.5433 3.40491 20.5435 3.40507 20.5433L3.40576 20.5424L3.40674 20.5412L3.40955 20.5375L3.41855 20.526C3.42604 20.5164 3.43651 20.5032 3.4499 20.4864C3.47666 20.453 3.51511 20.4057 3.56471 20.3465C3.66383 20.2282 3.80781 20.062 3.99232 19.8639C4.36051 19.4685 4.89451 18.9413 5.5599 18.4128C6.39575 17.7488 7.47488 17.054 8.71932 16.6366C8.64022 15.0075 9.03665 12.4717 10.9865 9.62651C10.1466 9.13447 8.18791 8.64774 4.81035 10.183C4.57821 10.2885 4.30836 10.2688 4.09396 10.1308C3.87957 9.99274 3.75 9.75522 3.75 9.50022C3.75 8.42735 4.14041 7.55331 4.78201 6.89198C5.40896 6.24575 6.24424 5.83296 7.11031 5.5905C7.85203 5.38285 8.65535 5.28934 9.44225 5.29568L8.01189 4.06954C7.81516 3.90089 7.71941 3.64264 7.75867 3.3865C7.79792 3.13037 7.96661 2.91264 8.20482 2.81065C8.56661 2.65576 8.95579 2.51821 9.39116 2.47107C9.83669 2.42284 10.2916 2.47305 10.789 2.64028ZM12.0855 5.58588L10.306 4.0604L10.311 4.06209C10.8166 4.23206 11.4885 4.61849 12.4878 5.38729C12.3532 5.44901 12.219 5.51514 12.0855 5.58588ZM10.2102 16.2971C10.4687 16.2664 10.7322 16.25 11 16.25C11.0633 16.25 11.1264 16.2509 11.1892 16.2527C11.1339 15.2242 11.1356 13.8466 11.1939 12.251C10.4097 13.8971 10.2028 15.3068 10.2102 16.2971ZM17.4206 9.26352C15.8092 9.28767 14.6255 9.3466 13.7644 9.4595C14.2067 9.25965 14.6903 9.08167 15.1987 8.98781C15.7791 8.88065 16.3818 8.88491 16.9902 9.08698C17.1309 9.13372 17.2745 9.1919 17.4206 9.26352ZM5.60178 8.25413C8.69671 7.19805 10.8543 7.68072 11.9981 8.48866C13.2533 7.44541 14.8116 6.78644 16.259 6.37834C16.4926 6.31246 16.7249 6.2527 16.9542 6.19865C16.0812 6.10225 15.1305 6.12692 14.1875 6.37034C13.5812 6.52685 12.9781 6.77349 12.3975 7.13637C12.1947 7.26317 11.9436 7.2856 11.7215 7.19676C10.6305 6.76037 8.92477 6.64021 7.51469 7.03496C6.81826 7.22993 6.24729 7.53582 5.85861 7.93646C5.76345 8.03454 5.67732 8.1401 5.60178 8.25413ZM15.5071 19.5873C15.7902 19.8122 16.0474 20.0374 16.2747 20.25H5.72529C5.95266 20.0374 6.20979 19.8122 6.49293 19.5873C7.69705 18.6307 9.28281 17.75 11 17.75C12.7172 17.75 14.303 18.6307 15.5071 19.5873Z" fill="#363538"/>
</svg>
