<svg width="24" height="24" viewBox="0 0 24 24" fill="none" xmlns="http://www.w3.org/2000/svg">
<path d="M17.8263 21.7217C17.5459 22.0264 17.0715 22.046 16.7667 21.7657C16.4622 21.4853 16.4417 21.0109 16.7218 20.7061L17.8263 21.7217Z" fill="#363538"/>
<path fill-rule="evenodd" clip-rule="evenodd" d="M11.4122 2.27347C11.7884 2.36957 12.0252 2.73447 11.9689 3.11038L11.9532 3.18558C11.7895 3.82686 11.6266 4.55183 11.4845 5.33401C12.8832 5.21117 14.3814 4.99584 15.8556 4.70608C16.2619 4.62632 16.6566 4.89151 16.7364 5.29788C16.8159 5.70409 16.5509 6.09889 16.1446 6.17874C14.5239 6.4973 12.8352 6.73504 11.2491 6.85745C11.0611 8.33113 10.9757 9.92978 11.1065 11.5137C11.8576 11.3442 12.658 11.2501 13.5001 11.25C14.4122 11.2501 15.2438 11.3705 15.9845 11.5928C16.2246 10.8261 16.4088 10.0714 16.5362 9.36624L16.5538 9.29202C16.6588 8.92685 17.0254 8.69305 17.4073 8.76175C17.8149 8.83543 18.0855 9.22621 18.0118 9.63382L17.9308 10.0567C17.792 10.7362 17.6054 11.4551 17.3702 12.1866C18.462 12.8191 19.2435 13.7413 19.6564 14.8584C20.4452 16.9936 19.7915 19.5848 17.8263 21.7217L16.7218 20.7061C18.4082 18.8723 18.7966 16.857 18.2501 15.378C18.002 14.7067 17.538 14.0941 16.8439 13.628C16.3902 14.7299 15.8183 15.8196 15.1114 16.8018C14.7144 17.3533 14.2719 17.8745 13.7823 18.3467C14.0668 18.6544 14.3769 18.9463 14.7159 19.2188L14.9503 19.4004L15.0089 19.4492C15.2883 19.7069 15.3326 20.1396 15.0997 20.4502C14.8666 20.7608 14.4389 20.8389 14.1134 20.6426L14.0499 20.5996L13.7735 20.3848C13.3518 20.0457 12.9694 19.6827 12.6222 19.3008C11.3429 20.1896 9.81048 20.75 7.99913 20.75C6.40173 20.7498 5.20228 20.1819 4.69346 19.0596C4.21168 17.9964 4.49264 16.7261 5.12999 15.6241C5.96736 14.1764 7.54665 12.7709 9.64366 11.959C9.63359 11.8583 9.62277 11.7578 9.61436 11.6573C9.47946 10.0446 9.55086 8.43053 9.72666 6.93948C8.45722 6.97371 7.30084 6.91561 6.36045 6.73733C5.95381 6.66023 5.68623 6.26798 5.7628 5.86136C5.83996 5.45442 6.23281 5.18658 6.63975 5.2637C7.52331 5.43121 8.66366 5.4795 9.94444 5.43167C10.1083 4.46496 10.305 3.57859 10.5001 2.81448L10.5226 2.74124C10.6533 2.38427 11.036 2.17749 11.4122 2.27347ZM9.86436 13.4903C8.24099 14.1949 7.04901 15.3037 6.42881 16.376C5.90984 17.2735 5.86182 18.0038 6.05967 18.4405C6.23076 18.8178 6.72063 19.2498 7.99913 19.25C9.42237 19.25 10.6468 18.8267 11.6964 18.1172C10.7493 16.7061 10.1775 15.115 9.86436 13.4903ZM13.5001 12.75C12.7182 12.7501 11.9828 12.8437 11.3009 13.0088C11.566 14.4978 12.0551 15.9137 12.8565 17.1524C13.2294 16.7789 13.5759 16.3677 13.8946 15.9248C14.5365 15.0329 15.0603 14.0298 15.4776 13.0069C14.9063 12.844 14.2487 12.7501 13.5001 12.75Z" fill="#363538"/>
</svg>
