<svg width="24" height="24" viewBox="0 0 24 24" fill="none" xmlns="http://www.w3.org/2000/svg">
<path d="M10.5 6.25C10.9142 6.25 11.25 6.58579 11.25 7V17C11.25 17.2411 11.1341 17.4675 10.9385 17.6084C10.7429 17.7494 10.4915 17.7877 10.2628 17.7115L7.26281 16.7115C6.86985 16.5805 6.65748 16.1558 6.78847 15.7628C6.91945 15.3699 7.34419 15.1575 7.73715 15.2885L9.74998 15.9594V7C9.74998 6.58579 10.0858 6.25 10.5 6.25Z" fill="#363538"/>
<path d="M16.1233 7.7398C16.5319 7.6717 16.8079 7.28528 16.7398 6.8767C16.6717 6.46812 16.2853 6.19211 15.8767 6.2602L14.9334 6.41742C13.3849 6.6755 12.25 8.01524 12.25 9.58507V11.4189C12.25 12.7086 13.5136 13.6194 14.7371 13.2115C14.9894 13.1274 15.25 13.3152 15.25 13.5811V14.4214C15.25 14.7984 15.037 15.143 14.6998 15.3116L12.6646 16.3292C12.2941 16.5144 12.1439 16.9649 12.3292 17.3354C12.5144 17.7059 12.9649 17.8561 13.3354 17.6708L15.3706 16.6532C16.216 16.2305 16.75 15.3665 16.75 14.4214V13.5811C16.75 12.2914 15.4864 11.3806 14.2628 11.7885C14.0105 11.8726 13.75 11.6848 13.75 11.4189V9.58507C13.75 8.7485 14.3548 8.03454 15.18 7.89701L16.1233 7.7398Z" fill="#363538"/>
<path fill-rule="evenodd" clip-rule="evenodd" d="M3.53678 5.34109C3.33161 3.69975 4.61142 2.25 6.26554 2.25H17.7344C19.3885 2.25 20.6683 3.69975 20.4632 5.3411L18.9005 17.8423C18.7692 18.8932 18.0461 19.7752 17.0414 20.1101L12.8696 21.5007C12.3051 21.6889 11.6948 21.6889 11.1304 21.5007L6.95857 20.1101C5.95389 19.7752 5.23079 18.8932 5.09943 17.8423L3.53678 5.34109ZM6.26554 3.75C5.51367 3.75 4.93194 4.40898 5.02519 5.15504L6.58785 17.6563C6.64755 18.1339 6.97624 18.5349 7.43291 18.6871L11.6047 20.0777C11.8613 20.1632 12.1387 20.1632 12.3953 20.0777L16.567 18.6871C17.0237 18.5349 17.3524 18.1339 17.4121 17.6563L18.9748 5.15504C19.068 4.40898 18.4863 3.75 17.7344 3.75H6.26554Z" fill="#363538"/>
</svg>
