<svg width="24" height="24" viewBox="0 0 24 24" fill="none" xmlns="http://www.w3.org/2000/svg">
<path fill-rule="evenodd" clip-rule="evenodd" d="M8.62127 6.3274C8.07174 4.12929 9.73425 2 12 2C14.2658 2 15.9283 4.12929 15.3787 6.3274L15.2106 7H17.75C19.2688 7 20.5 8.23122 20.5 9.75V17.25C20.5 19.8734 18.3734 22 15.75 22H6.25C4.73122 22 3.5 20.7688 3.5 19.25V16.75C3.5 16.519 3.6064 16.301 3.78844 16.1588C3.97048 16.0167 4.20785 15.9664 4.43191 16.0224L6.03624 16.4235C7.28762 16.7363 8.49982 15.7899 8.49982 14.5C8.49982 13.2101 7.28762 12.2637 6.03624 12.5765L4.43191 12.9776C4.20785 13.0336 3.97048 12.9833 3.78844 12.8412C3.6064 12.699 3.5 12.481 3.5 12.25V8.75C3.5 7.7835 4.2835 7 5.25 7H8.78942L8.62127 6.3274ZM12 3.5C10.7101 3.5 9.76364 4.71221 10.0765 5.9636L10.4776 7.5681C10.5336 7.79215 10.4833 8.02952 10.3412 8.21156C10.199 8.3936 9.98095 8.5 9.75 8.5H5.25C5.11193 8.5 5 8.61193 5 8.75V11.2894L5.67242 11.1213C7.87052 10.5718 9.99982 12.2342 9.99982 14.5C9.99982 16.7658 7.87052 18.4282 5.67243 17.8787L5 17.7106V19.25C5 19.9404 5.55964 20.5 6.25 20.5H15.75C17.5449 20.5 19 19.0449 19 17.25V9.75C19 9.05964 18.4404 8.5 17.75 8.5H14.25C14.019 8.5 13.801 8.3936 13.6588 8.21156C13.5167 8.02952 13.4664 7.79215 13.5224 7.5681L13.9235 5.9636C14.2364 4.71221 13.2899 3.5 12 3.5Z" fill="#363538"/>
</svg>
