<svg width="24" height="24" viewBox="0 0 24 24" fill="none" xmlns="http://www.w3.org/2000/svg">
<path fill-rule="evenodd" clip-rule="evenodd" d="M20 9C20 11.2091 18.2092 13 16 13C15.2253 13 14.5021 12.7798 13.8895 12.3985C13.8529 12.4907 13.7973 12.5771 13.7227 12.6517L6.65165 19.7227C6.35876 20.0156 5.88388 20.0156 5.59099 19.7227L3.46967 17.6014C3.17678 17.3085 3.17678 16.8336 3.46967 16.5407C3.76256 16.2478 4.23744 16.2478 4.53033 16.5407L6.12132 18.1317L7.63196 16.6211L6.39452 15.3837C6.10163 15.0908 6.10163 14.6159 6.39452 14.323C6.68741 14.0301 7.16229 14.0301 7.45518 14.323L8.69262 15.5604L12.6621 11.591C12.7169 11.5361 12.7782 11.4915 12.8435 11.4572C12.3149 10.7791 12 9.92634 12 9C12 6.79086 13.7909 5 16 5C18.2092 5 20 6.79086 20 9ZM18.5 9C18.5 10.3807 17.3807 11.5 16 11.5C14.6193 11.5 13.5 10.3807 13.5 9C13.5 7.61929 14.6193 6.5 16 6.5C17.3807 6.5 18.5 7.61929 18.5 9Z" fill="#363538"/>
</svg>
