<svg width="24" height="24" viewBox="0 0 24 24" fill="none" xmlns="http://www.w3.org/2000/svg">
<path d="M11.5 10.75C11.0858 10.75 10.75 11.0858 10.75 11.5C10.75 11.9142 11.0858 12.25 11.5 12.25H13.5C13.9142 12.25 14.25 11.9142 14.25 11.5C14.25 11.0858 13.9142 10.75 13.5 10.75H11.5Z" fill="#363538"/>
<path d="M5.25 11.5C5.25 11.0858 5.58579 10.75 6 10.75H8.5C8.91421 10.75 9.25 11.0858 9.25 11.5C9.25 11.9142 8.91421 12.25 8.5 12.25H6C5.58579 12.25 5.25 11.9142 5.25 11.5Z" fill="#363538"/>
<path d="M17 15.25C16.5858 15.25 16.25 15.5858 16.25 16C16.25 16.4142 16.5858 16.75 17 16.75H18C18.4142 16.75 18.75 16.4142 18.75 16C18.75 15.5858 18.4142 15.25 18 15.25H17Z" fill="#363538"/>
<path d="M5.25 16C5.25 15.5858 5.58579 15.25 6 15.25H7C7.41421 15.25 7.75 15.5858 7.75 16C7.75 16.4142 7.41421 16.75 7 16.75H6C5.58579 16.75 5.25 16.4142 5.25 16Z" fill="#363538"/>
<path d="M16.5 10.75C16.0858 10.75 15.75 11.0858 15.75 11.5C15.75 11.9142 16.0858 12.25 16.5 12.25H18C18.4142 12.25 18.75 11.9142 18.75 11.5C18.75 11.0858 18.4142 10.75 18 10.75H16.5Z" fill="#363538"/>
<path d="M8.75 16C8.75 15.5858 9.08579 15.25 9.5 15.25H14.5C14.9142 15.25 15.25 15.5858 15.25 16C15.25 16.4142 14.9142 16.75 14.5 16.75H9.5C9.08579 16.75 8.75 16.4142 8.75 16Z" fill="#363538"/>
<path fill-rule="evenodd" clip-rule="evenodd" d="M18.25 3C18.25 2.58579 17.9142 2.25 17.5 2.25C17.0858 2.25 16.75 2.58579 16.75 3C16.75 2.94911 16.7421 2.9607 16.7105 3.0068C16.5745 3.20524 16.0007 4.04298 13.7372 3.28847C13.0176 3.04862 12.3678 3.00689 11.8089 3.22183C11.236 3.44217 10.8956 3.87879 10.6954 4.30781C10.501 4.72425 10.4162 5.17885 10.3665 5.53773C10.3453 5.69073 10.3289 5.83989 10.315 5.96652L10.3113 6.00001C7.14921 6.00034 5.54741 6.01754 4.46243 6.90796C4.25989 7.07418 4.07418 7.25989 3.90796 7.46243C3 8.56878 3 10.2125 3 13.5C3 16.7875 3 18.4312 3.90796 19.5376C4.07418 19.7401 4.25989 19.9258 4.46243 20.092C5.56878 21 7.21252 21 10.5 21H13.5C16.7875 21 18.4312 21 19.5376 20.092C19.7401 19.9258 19.9258 19.7401 20.092 19.5376C21 18.4312 21 16.7875 21 13.5C21 10.2125 21 8.56878 20.092 7.46243C19.9258 7.25989 19.7401 7.07418 19.5376 6.90796C18.4312 6 16.7875 6 13.5 6H11.8205C11.8301 5.91546 11.8402 5.83064 11.8523 5.74346C11.8963 5.42527 11.9573 5.15069 12.0546 4.94213C12.1461 4.74615 12.2431 4.66193 12.3474 4.62185C12.4656 4.57638 12.7324 4.53466 13.2628 4.71149C16.4735 5.78173 18.25 4.26996 18.25 3ZM18.586 8.06747C18.7126 8.17136 18.8286 8.28743 18.9325 8.41401C19.1308 8.65564 19.3001 9.02082 19.3969 9.83937C19.4975 10.691 19.5 11.8195 19.5 13.5C19.5 15.1805 19.4975 16.309 19.3969 17.1606C19.3001 17.9792 19.1308 18.3444 18.9325 18.586C18.8286 18.7126 18.7126 18.8286 18.586 18.9325C18.3444 19.1308 17.9792 19.3001 17.1606 19.3969C16.309 19.4975 15.1805 19.5 13.5 19.5H10.5C8.81952 19.5 7.69103 19.4975 6.83937 19.3969C6.02082 19.3001 5.65565 19.1308 5.41402 18.9325C5.28743 18.8286 5.17136 18.7126 5.06747 18.586C4.86917 18.3444 4.69988 17.9792 4.60312 17.1606C4.50245 16.309 4.5 15.1805 4.5 13.5C4.5 11.8195 4.50245 10.691 4.60312 9.83937C4.69988 9.02082 4.86917 8.65565 5.06747 8.41402C5.17136 8.28743 5.28743 8.17136 5.41402 8.06747C5.65565 7.86917 6.02082 7.69988 6.83937 7.60312C7.69103 7.50245 8.81952 7.5 10.5 7.5H13.5C15.1805 7.5 16.309 7.50245 17.1606 7.60312C17.9792 7.69988 18.3444 7.86917 18.586 8.06747Z" fill="#363538"/>
</svg>
