<svg width="24" height="24" viewBox="0 0 24 24" fill="none" xmlns="http://www.w3.org/2000/svg">
<path d="M8.95534 2.2549C9.36702 2.30062 9.66412 2.67136 9.61843 3.08303L9.57937 3.47463C9.41014 5.38305 9.63818 6.50591 9.89968 7.32229C9.97175 7.54725 10.0484 7.75531 10.1262 7.96096C10.2019 8.16088 10.2838 8.37278 10.3548 8.57815C10.5008 9.00065 10.6223 9.45828 10.6223 10C10.6223 11.8202 10.3225 12.9782 9.65163 13.8369C9.32447 14.2557 8.93681 14.5669 8.53738 14.8389C8.35045 14.9661 8.13804 15.0987 7.92116 15.2324L7.27566 15.6328C6.53994 16.1011 5.96483 16.9316 5.71023 17.8819C5.45661 18.8284 5.53962 19.8204 6.01589 20.6143C6.2289 20.9694 6.11412 21.4305 5.75906 21.6436C5.40389 21.8566 4.94284 21.7409 4.72976 21.3858C4.00624 20.1798 3.92297 18.7548 4.26101 17.4932C4.59812 16.2353 5.3728 15.0656 6.46999 14.3672L7.13503 13.9551C7.33271 13.8337 7.51251 13.7213 7.69265 13.5987C8.02747 13.3707 8.2754 13.1609 8.46902 12.9131C8.83981 12.4385 9.12234 11.6798 9.12234 10C9.12233 9.69343 9.05724 9.41415 8.93777 9.06838C8.87604 8.88978 8.80535 8.70907 8.72292 8.49123C8.64264 8.27905 8.55504 8.04273 8.47097 7.78029C8.12502 6.7003 7.86621 5.26743 8.12722 2.91701L8.13991 2.84182C8.21968 2.47016 8.56947 2.21229 8.95534 2.2549Z" fill="#363538"/>
<path d="M10.637 2.85256C10.7184 2.44666 11.1138 2.18361 11.5198 2.26467C11.9259 2.34595 12.1889 2.74135 12.1077 3.14748C11.9594 3.88943 11.9121 5.31052 12.1009 6.39358C12.193 6.92249 12.3225 7.2441 12.427 7.38674C12.4399 7.38001 12.4573 7.37523 12.4749 7.36428L12.8801 7.126C14.9205 6.00635 17.1634 5.92261 18.6214 7.34084C20.1503 8.82842 20.408 11.5963 19.0774 15.2559C17.9926 18.2394 15.8915 19.7643 13.6165 19.9356C11.6711 20.0819 9.71687 19.2265 8.33034 17.6621C7.93696 18.2822 7.60812 19.3341 8.08425 20.7627C8.21524 21.1557 8.0026 21.5809 7.60964 21.7119C7.21686 21.8426 6.79243 21.63 6.6614 21.2373C5.74677 18.4933 7.03121 16.569 7.92214 15.9004L7.98562 15.8574C8.13772 15.7659 8.3186 15.7305 8.49538 15.7598C8.69728 15.7933 8.87709 15.9081 8.99245 16.0772C10.1083 17.7137 11.8626 18.5629 13.5042 18.4395C15.1038 18.3189 16.7523 17.26 17.6673 14.7442C18.939 11.2467 18.4471 9.26408 17.5755 8.41604C16.7828 7.64506 15.3245 7.4935 13.6155 8.43361L13.2698 8.63576C12.961 8.82868 12.5987 8.95296 12.2093 8.90139C11.8135 8.84883 11.5137 8.63173 11.305 8.38674C10.9206 7.93553 10.7286 7.26075 10.6223 6.65139C10.4018 5.38636 10.452 3.77732 10.637 2.85256Z" fill="#363538"/>
</svg>
