<svg width="24" height="24" viewBox="0 0 24 24" fill="none" xmlns="http://www.w3.org/2000/svg">
<path fill-rule="evenodd" clip-rule="evenodd" d="M9.96875 2.60973C10.3039 2.50382 10.6031 2.5927 10.8096 2.71227C10.997 2.82091 11.1428 2.97148 11.2432 3.08727C11.3487 3.20903 11.4496 3.34728 11.5371 3.46716C11.7297 3.73116 11.8789 3.93986 12.041 4.09508C12.1984 4.24573 12.2721 4.24938 12.2871 4.24938C13.1719 4.24956 15.3627 4.80442 16.5566 6.94665C16.614 7.04954 16.6653 7.13104 16.7178 7.19665L17.8779 8.64587C18.5036 9.42799 18.5506 10.5254 17.9951 11.3588C17.667 11.8509 17.0755 12.3258 16.3037 12.2953C15.404 12.2596 14.7634 11.8967 14.3037 11.5843C14.0351 11.4018 13.9391 11.3199 13.7656 11.2093C13.761 11.2064 13.7554 11.2043 13.751 11.2015C13.7509 11.2064 13.7506 11.2106 13.751 11.2132C13.7714 11.3519 13.8502 11.4949 14.1279 11.7299C14.2693 11.8494 14.4297 11.9674 14.6318 12.1175C14.8253 12.2612 15.047 12.4279 15.2666 12.6215C15.7138 13.0157 16.1662 13.5322 16.4619 14.2767C16.6912 14.8541 16.8109 15.5342 16.793 16.3519C17.3527 16.5695 17.7498 17.1127 17.75 17.7494V17.7699C18.5978 17.8913 19.2498 18.6181 19.25 19.4994V20.1664C19.25 21.0407 18.5413 21.7492 17.667 21.7494H6.83301C5.95872 21.7492 5.25003 21.0407 5.25 20.1664V19.8334C5.25007 18.7108 6.13812 17.7971 7.25 17.7533V17.4994C7.25013 17.093 7.44466 16.7325 7.74512 16.5043C7.73566 15.8769 7.7091 15.0905 7.65234 14.3666C7.61573 13.8997 7.5683 13.4732 7.50879 13.1381C7.47899 12.9703 7.44833 12.8375 7.41895 12.7406C7.39506 12.6618 7.37891 12.6302 7.37891 12.6302L7.38672 12.642L7.26855 12.4603C6.96623 11.965 6.50189 10.9823 6.35449 9.8363C6.18161 8.49162 6.44497 6.85124 7.98242 5.5863C8.43066 5.21756 8.75238 4.68486 8.90332 4.08825C8.99914 3.70951 9.14191 3.38062 9.33594 3.10485C9.46514 2.92124 9.666 2.70541 9.96875 2.60973ZM8.75 17.8334C8.7498 18.6156 8.11529 19.2494 7.33301 19.2494C7.01103 19.2496 6.75007 19.5114 6.75 19.8334V20.1664C6.75003 20.2123 6.78715 20.2492 6.83301 20.2494H17.667C17.7128 20.2492 17.75 20.2123 17.75 20.1664V19.4994C17.7498 19.3615 17.6379 19.2494 17.5 19.2494C16.8096 19.2494 16.25 18.6897 16.25 17.9994V17.7494H8.75V17.8334ZM10.3574 4.45544C10.1368 5.32755 9.6573 6.15077 8.93555 6.7445C7.90506 7.59227 7.71456 8.6552 7.8418 9.64489C7.95708 10.5413 8.33248 11.3191 8.53711 11.6595L8.61328 11.7777L8.69434 11.9086C8.76736 12.0428 8.81783 12.1842 8.85449 12.305C8.9071 12.4786 8.94955 12.6739 8.98535 12.8754C9.05705 13.279 9.10909 13.76 9.14746 14.2494C9.20027 14.9229 9.22853 15.6411 9.24121 16.2494H15.2969C15.3029 15.6353 15.207 15.1795 15.0684 14.8304C14.8849 14.3687 14.6048 14.0369 14.2754 13.7465C14.1067 13.5978 13.9282 13.4634 13.7373 13.3216C13.5551 13.1863 13.3461 13.0334 13.1592 12.8754C12.7806 12.5552 12.3661 12.1096 12.2666 11.43C12.2068 11.021 12.3156 10.6295 12.5029 10.3216C12.6221 10.1258 12.7817 9.93204 13.002 9.79528C13.209 9.66677 13.4341 9.61165 13.6572 9.61852L13.752 9.62438L13.877 9.64391C14.161 9.70033 14.3977 9.83316 14.5713 9.94372C14.7403 10.0514 15.0076 10.2491 15.1475 10.3441C15.5056 10.5874 15.8682 10.7766 16.3633 10.7963C16.445 10.7993 16.6016 10.7449 16.7471 10.5267C16.9403 10.2369 16.9236 9.85541 16.7061 9.58337L15.5469 8.13317C15.4235 7.9789 15.3258 7.82015 15.2461 7.67712C14.3851 6.13231 12.784 5.7496 12.2871 5.74938C11.7176 5.74938 11.2893 5.45125 11.0039 5.17809C10.7476 4.93273 10.5292 4.62966 10.3701 4.41051C10.3661 4.42517 10.3613 4.44008 10.3574 4.45544Z" fill="#363538"/>
</svg>
