<svg width="24" height="24" viewBox="0 0 24 24" fill="none" xmlns="http://www.w3.org/2000/svg">
<path d="M4 15.25C4.41421 15.25 4.75 15.5858 4.75 16V19C4.75 19.6904 5.30964 20.25 6 20.25H17.5C17.9142 20.25 18.25 20.5858 18.25 21C18.25 21.4142 17.9142 21.75 17.5 21.75H6C4.48122 21.75 3.25 20.5188 3.25 19V16C3.25 15.5858 3.58579 15.25 4 15.25Z" fill="#363538"/>
<path d="M17.5 2.25C17.9142 2.25 18.25 2.58579 18.25 3V9.75H20C20.4142 9.75 20.75 10.0858 20.75 10.5C20.75 10.9142 20.4142 11.25 20 11.25H18.25V17L18.2461 17.0771C18.2075 17.4551 17.8882 17.75 17.5 17.75C17.1118 17.75 16.7925 17.4551 16.7539 17.0771L16.75 17V3C16.75 2.58579 17.0858 2.25 17.5 2.25Z" fill="#363538"/>
<path fill-rule="evenodd" clip-rule="evenodd" d="M9 7.25C10.4933 7.25 11.882 7.6114 12.9219 8.23535C13.9467 8.85035 14.75 9.80473 14.75 11C14.75 12.1953 13.9467 13.1497 12.9219 13.7646C11.882 14.3886 10.4933 14.75 9 14.75C7.50673 14.75 6.11804 14.3886 5.07812 13.7646C4.05326 13.1497 3.25 12.1953 3.25 11C3.25 9.80473 4.05326 8.85035 5.07812 8.23535C6.11804 7.6114 7.50673 7.25 9 7.25ZM9 8.75C7.73203 8.75 6.6203 9.05975 5.85059 9.52148C5.06593 9.99228 4.75 10.5385 4.75 11C4.75 11.4615 5.06593 12.0077 5.85059 12.4785C6.6203 12.9402 7.73203 13.25 9 13.25C10.268 13.25 11.3797 12.9402 12.1494 12.4785C12.9341 12.0077 13.25 11.4615 13.25 11C13.25 10.5385 12.9341 9.99228 12.1494 9.52148C11.3797 9.05975 10.268 8.75 9 8.75Z" fill="#363538"/>
<path d="M8.5 2.25C8.91421 2.25 9.25 2.58579 9.25 3V4.75H13.5C13.9142 4.75 14.25 5.08579 14.25 5.5C14.25 5.91421 13.9142 6.25 13.5 6.25H3.5C3.08579 6.25 2.75 5.91421 2.75 5.5C2.75 5.08579 3.08579 4.75 3.5 4.75H7.75V3C7.75 2.58579 8.08579 2.25 8.5 2.25Z" fill="#363538"/>
</svg>
