<svg width="24" height="24" viewBox="0 0 24 24" fill="none" xmlns="http://www.w3.org/2000/svg">
<path fill-rule="evenodd" clip-rule="evenodd" d="M6.62629 1.25C5.32368 1.25 4.19976 2.1639 3.93409 3.43913L2.26742 11.4391C1.91165 13.1468 3.21526 14.75 4.95962 14.75H11.25V21.25H8.00001C7.5858 21.25 7.25001 21.5858 7.25001 22C7.25001 22.4142 7.5858 22.75 8.00001 22.75H16C16.4142 22.75 16.75 22.4142 16.75 22C16.75 21.5858 16.4142 21.25 16 21.25H12.75V14.75H19.0404C20.7848 14.75 22.0884 13.1468 21.7326 11.4391L20.0659 3.43913C19.8003 2.1639 18.6763 1.25 17.3737 1.25H6.62629ZM5.40256 3.74506C5.52332 3.16541 6.03419 2.75 6.62629 2.75H17.3737C17.9658 2.75 18.4767 3.16541 18.5975 3.74506L20.2641 11.7451C20.4258 12.5213 19.8333 13.25 19.0404 13.25H4.95962C4.16673 13.25 3.57418 12.5213 3.73589 11.7451L5.40256 3.74506Z" fill="#363538"/>
</svg>
