<svg width="24" height="24" viewBox="0 0 24 24" fill="none" xmlns="http://www.w3.org/2000/svg">
<path fill-rule="evenodd" clip-rule="evenodd" d="M7 4.25C4.37665 4.25 2.25 6.37665 2.25 9V15C2.25 17.6234 4.37665 19.75 7 19.75H17C19.6234 19.75 21.75 17.6234 21.75 15V10C21.75 8.5049 21.0461 7.09706 19.85 6.2L18.5167 5.2C17.6945 4.58334 16.6944 4.25 15.6667 4.25H7ZM3.75 9C3.75 7.20507 5.20507 5.75 7 5.75H15.6667C16.3699 5.75 17.0541 5.97808 17.6167 6.4L18.95 7.4C19.7684 8.01378 20.25 8.97704 20.25 10V15C20.25 16.7949 18.7949 18.25 17 18.25H7C5.20507 18.25 3.75 16.7949 3.75 15V9Z" fill="#363538"/>
</svg>
