<svg width="24" height="24" viewBox="0 0 24 24" fill="none" xmlns="http://www.w3.org/2000/svg">
<path fill-rule="evenodd" clip-rule="evenodd" d="M11.1263 6.0015L11.1267 6C11.5399 4.39577 12.9166 3.18584 14.6079 3.01926C14.8035 3 15.0357 3 15.5 3H16C16.9293 3 17.394 3 17.7804 3.07686C19.3671 3.39249 20.6075 4.63288 20.9231 6.21964C21 6.60603 21 7.07069 21 8V8.5C21 8.96434 21 9.19651 20.9807 9.39207C20.8142 11.0834 19.6042 12.4601 18 12.8733L17.9985 12.8737C17.9912 14.1751 17.9482 14.9207 17.6955 15.5307C17.2895 16.5108 16.5108 17.2895 15.5307 17.6955C14.9207 17.9482 14.1751 17.9912 12.8737 17.9985L12.8733 18C12.4601 19.6042 11.0834 20.8142 9.39207 20.9807C9.19651 21 8.96434 21 8.5 21H8C7.07069 21 6.60603 21 6.21964 20.9231C4.63288 20.6075 3.39249 19.3671 3.07686 17.7804C3 17.394 3 16.9293 3 16V15.5C3 15.0357 3 14.8035 3.01926 14.6079C3.18584 12.9166 4.39577 11.5399 6 11.1267L6.0015 11.1263C6.00881 9.82495 6.05178 9.07933 6.30448 8.46927C6.71046 7.48915 7.48915 6.71046 8.46927 6.30448C9.07933 6.05178 9.82495 6.00881 11.1263 6.0015ZM14.5021 7.57683C14.7472 7.61717 14.9509 7.67868 15.135 7.77248C15.6054 8.01217 15.9878 8.39462 16.2275 8.86502C16.3213 9.04913 16.3828 9.25282 16.4232 9.49792C16.4398 9.61179 16.4541 9.74805 16.4654 9.91348C16.4992 10.4084 16.5 11.0476 16.5 12C16.5 12.9524 16.4992 13.5916 16.4654 14.0865C16.4326 14.568 16.3736 14.8024 16.3097 14.9567C16.056 15.5693 15.5693 16.056 14.9567 16.3097C14.8024 16.3736 14.568 16.4326 14.0865 16.4654C13.5916 16.4992 12.9524 16.5 12 16.5C11.0476 16.5 10.4084 16.4992 9.91348 16.4654C9.74805 16.4541 9.61179 16.4398 9.49792 16.4232C9.25282 16.3828 9.04913 16.3213 8.86502 16.2275C8.39462 15.9878 8.01217 15.6054 7.77248 15.135C7.67868 14.9509 7.61717 14.7472 7.57683 14.5021C7.56024 14.3882 7.54587 14.2519 7.53458 14.0865C7.50081 13.5916 7.5 12.9524 7.5 12C7.5 11.0476 7.50081 10.4084 7.53458 9.91348C7.56743 9.43203 7.62639 9.1976 7.6903 9.04329C7.94404 8.43072 8.43072 7.94404 9.04329 7.6903C9.1976 7.62639 9.43203 7.56743 9.91348 7.53458C10.4084 7.50081 11.0476 7.5 12 7.5C12.9524 7.5 13.5916 7.50081 14.0865 7.53458C14.2519 7.54587 14.3882 7.56024 14.5021 7.57683ZM14.733 6.09462C14.5756 6.06913 14.419 6.0517 14.2641 6.03904C13.8233 6.00302 13.2984 6.00021 12.7084 6.00001C13.0628 5.18804 13.8343 4.60271 14.755 4.51204C14.8587 4.50182 15 4.5 15.5 4.5H16C17.0012 4.5 17.2828 4.50727 17.4877 4.54804C18.4795 4.7453 19.2547 5.52055 19.452 6.51227C19.4927 6.71725 19.5 6.99879 19.5 8V8.5C19.5 9.00003 19.4982 9.1413 19.488 9.24504C19.3973 10.1657 18.812 10.9372 18 11.2916C17.9998 10.7015 17.997 10.1767 17.961 9.73586C17.9483 9.58095 17.9309 9.42435 17.9054 9.26694C17.8603 8.9641 17.7938 8.70644 17.6955 8.46927C17.5592 8.1402 17.3809 7.83384 17.167 7.55666C16.9986 7.33831 16.8081 7.13809 16.5987 6.95915C16.2822 6.68865 15.9226 6.46678 15.5307 6.30448C15.2935 6.20624 15.0359 6.13969 14.733 6.09462ZM6.09462 14.733C6.06913 14.5756 6.0517 14.419 6.03904 14.2641C6.00302 13.8233 6.00021 13.2985 6.00001 12.7084C5.18804 13.0628 4.60271 13.8343 4.51204 14.755C4.50182 14.8587 4.5 15 4.5 15.5V16C4.5 17.0012 4.50727 17.2828 4.54804 17.4877C4.7453 18.4795 5.52055 19.2547 6.51227 19.452C6.71725 19.4927 6.99879 19.5 8 19.5H8.5C9.00003 19.5 9.1413 19.4982 9.24504 19.488C10.1657 19.3973 10.9372 18.812 11.2916 18C10.7016 17.9998 10.1767 17.997 9.73586 17.961C9.58095 17.9483 9.42435 17.9309 9.26694 17.9054C8.9641 17.8603 8.70644 17.7938 8.46927 17.6955C8.07744 17.5332 7.7178 17.3113 7.4013 17.0409C7.19325 16.8631 7.00385 16.6642 6.83619 16.4475C6.62091 16.1692 6.44147 15.8615 6.30448 15.5307C6.20624 15.2935 6.13969 15.0359 6.09462 14.733Z" fill="#363538"/>
</svg>
