<svg width="24" height="24" viewBox="0 0 24 24" fill="none" xmlns="http://www.w3.org/2000/svg">
<path fill-rule="evenodd" clip-rule="evenodd" d="M11.2171 3.55267C11.7098 3.30634 12.2897 3.30634 12.7824 3.55267L19.5463 6.93464C20.8362 7.57955 20.8362 9.42021 19.5463 10.0651L12.7824 13.4471C12.2897 13.6934 11.7098 13.6934 11.2171 13.4471L4.45322 10.0651C3.16338 9.42022 3.16338 7.57956 4.45322 6.93464L11.2171 3.55267ZM12.1116 4.89431C12.0412 4.85912 11.9584 4.85912 11.888 4.89431L5.12404 8.27628C4.93978 8.36841 4.93977 8.63136 5.12404 8.72349L11.888 12.1055C11.9584 12.1406 12.0412 12.1406 12.1116 12.1055L18.8755 8.72349C19.0598 8.63136 19.0598 8.36841 18.8755 8.27628L12.1116 4.89431Z" fill="#363538"/>
<path d="M4.47318 11.5464C4.88683 11.5681 5.20463 11.9209 5.183 12.3346C5.18023 12.3876 5.19254 12.4371 5.21461 12.4761C5.2347 12.5116 5.26736 12.5472 5.32603 12.5748L11.8936 15.6707C11.9611 15.7025 12.0393 15.7025 12.1068 15.6707L18.6743 12.5748C18.733 12.5472 18.7656 12.5116 18.7857 12.4761C18.8078 12.4371 18.8201 12.3876 18.8173 12.3346C18.7957 11.9209 19.1135 11.5681 19.5272 11.5464C19.9408 11.5248 20.2937 11.8426 20.3153 12.2563C20.3494 12.9095 20.0179 13.5998 19.3139 13.9317L12.7463 17.0275C12.2738 17.2502 11.7265 17.2502 11.254 17.0275L4.68645 13.9317C3.98245 13.5998 3.65089 12.9095 3.68505 12.2563C3.70667 11.8426 4.05953 11.5248 4.47318 11.5464Z" fill="#363538"/>
<path d="M5.18294 15.536C5.20266 15.1222 4.88324 14.7708 4.46949 14.7511C4.05575 14.7314 3.70436 15.0508 3.68464 15.4645C3.65362 16.1154 3.9855 16.8013 4.68645 17.1317L11.254 20.2276C11.7265 20.4503 12.2738 20.4503 12.7463 20.2276L19.3139 17.1317C20.0148 16.8013 20.3467 16.1154 20.3157 15.4645C20.296 15.0508 19.9446 14.7314 19.5308 14.7511C19.1171 14.7708 18.7977 15.1222 18.8174 15.536C18.8199 15.5887 18.8075 15.6379 18.7855 15.6767C18.7654 15.712 18.7328 15.7474 18.6743 15.7749L12.1068 18.8707C12.0393 18.9026 11.9611 18.9026 11.8936 18.8707L5.32603 15.7749C5.26757 15.7474 5.23497 15.712 5.21489 15.6767C5.19283 15.6379 5.18042 15.5887 5.18294 15.536Z" fill="#363538"/>
</svg>
