<svg width="24" height="24" viewBox="0 0 24 24" fill="none" xmlns="http://www.w3.org/2000/svg">
<path fill-rule="evenodd" clip-rule="evenodd" d="M3 21.75C2.0335 21.75 1.25 20.9665 1.25 20V13C1.25 12.0335 2.0335 11.25 3 11.25H7.25V4C7.25 3.0335 8.0335 2.25 9 2.25H15C15.9665 2.25 16.75 3.0335 16.75 4V7.25H21C21.9665 7.25 22.75 8.0335 22.75 9V20C22.75 20.9665 21.9665 21.75 21 21.75H3ZM9 3.75C8.86193 3.75 8.75 3.86193 8.75 4V20.25H15.25V4C15.25 3.86193 15.1381 3.75 15 3.75H9ZM16.75 8.75H21C21.1381 8.75 21.25 8.86193 21.25 9V20C21.25 20.1381 21.1381 20.25 21 20.25H16.75V8.75ZM7.25 12.75H3C2.86193 12.75 2.75 12.8619 2.75 13V20C2.75 20.1381 2.86193 20.25 3 20.25H7.25V12.75Z" fill="#363538"/>
</svg>
