<svg width="24" height="24" viewBox="0 0 24 24" fill="none" xmlns="http://www.w3.org/2000/svg">
<path d="M16.2742 9.27868C16.089 8.90819 15.6385 8.75802 15.268 8.94326C14.9684 9.09306 14.8129 9.41632 14.8623 9.73045C14.8497 9.78843 14.822 9.88232 14.771 10.0042C14.661 10.2668 14.4668 10.6029 14.1762 10.9191C13.7482 11.3849 13.1071 11.8164 12.1728 11.9021C12.2865 11.5036 12.3534 11.0751 12.3534 10.6141C12.3534 10.1999 12.0176 9.86409 11.6034 9.86409C11.1892 9.86409 10.8534 10.1999 10.8534 10.6141C10.8534 11.4127 10.5577 12.0993 10.1099 12.7524C9.78207 13.2304 9.41354 13.6397 9.0336 14.0617C8.91078 14.1981 8.78672 14.3359 8.6625 14.4777C7.57377 14.6665 6.45482 15.0004 5.65564 15.5953C5.32338 15.8427 5.25455 16.3125 5.50189 16.6448C5.74923 16.977 6.21909 17.0459 6.55135 16.7985C7.18916 16.3237 8.29072 16.0205 9.52576 15.8655C10.7301 15.7143 11.931 15.7188 12.6563 15.7687C13.0695 15.7972 13.4275 15.4852 13.456 15.072C13.4844 14.6588 13.1725 14.3007 12.7592 14.2723C12.2693 14.2386 11.5986 14.2237 10.8535 14.254C11.0253 14.0438 11.1931 13.8251 11.3469 13.6007C11.3907 13.537 11.4338 13.4721 11.4761 13.4062C13.2445 13.5183 14.4948 12.7892 15.2807 11.934C15.6984 11.4794 15.9833 10.9927 16.1546 10.5834C16.2399 10.3797 16.3031 10.1808 16.3377 10.002C16.3549 9.91346 16.3682 9.81419 16.3688 9.71261C16.3692 9.63168 16.3638 9.45787 16.2742 9.27868Z" fill="#363538"/>
<path fill-rule="evenodd" clip-rule="evenodd" d="M20.8409 3.40281C20.5894 3.31897 20.319 3.28135 20.0428 3.33423C19.7609 3.38823 19.5369 3.5243 19.3639 3.6845C19.0836 3.94402 18.8893 4.32413 18.7526 4.59167L18.7243 4.64678C18.4018 5.27418 18.0943 5.83445 17.3611 6.15055C16.9064 6.34659 16.3537 6.31147 15.6009 6.22783C11.3272 5.75299 8.29834 6.37744 6.20944 7.55299C4.11243 8.7331 3.02451 10.4351 2.58872 11.9798C2.31577 12.9473 2.13105 13.9489 2.01914 14.9366C1.84904 16.4378 2.20044 18.2356 3.8537 19.4288C5.46011 20.5882 8.11893 21.0388 12.2269 20.3541C17.4236 19.488 20.0785 15.4215 21.233 11.6726C21.8124 9.79104 22.0331 7.94029 22.0083 6.50919C21.9959 5.79711 21.9224 5.15922 21.7864 4.6609C21.7189 4.41338 21.6278 4.16961 21.5005 3.96168C21.3798 3.76448 21.1734 3.5137 20.8409 3.40281ZM17.9549 7.528C19.2078 6.98786 19.7225 5.98624 20.0462 5.35627L20.0584 5.33261C20.1672 5.12093 20.2389 4.98865 20.2921 4.90394C20.3072 4.94625 20.3232 4.99656 20.3393 5.05571C20.4311 5.39219 20.4974 5.89572 20.5085 6.53521C20.5306 7.80725 20.3325 9.50024 19.7994 11.2311C18.7289 14.7072 16.3837 18.1406 11.9803 18.8745C8.01296 19.5357 5.85133 19.0207 4.73154 18.2125C3.6586 17.4382 3.37806 16.2664 3.5096 15.1055C3.61369 14.1869 3.78439 13.2661 4.03237 12.3871C4.36725 11.2 5.21504 9.83381 6.94509 8.86021C8.68326 7.88204 11.3728 7.26729 15.4352 7.71865L15.4556 7.72091C16.1421 7.79724 17.0868 7.90226 17.9549 7.528Z" fill="#363538"/>
</svg>
