<svg width="24" height="24" viewBox="0 0 24 24" fill="none" xmlns="http://www.w3.org/2000/svg">
<path fill-rule="evenodd" clip-rule="evenodd" d="M8 13.25C8.9665 13.25 9.75 14.0335 9.75 15V15.5C9.75 15.8722 9.63264 16.2164 9.43457 16.5C9.63264 16.7836 9.75 17.1278 9.75 17.5V18C9.75 18.9665 8.9665 19.75 8 19.75H6C5.58579 19.75 5.25 19.4142 5.25 19V14L5.25391 13.9229C5.29253 13.5449 5.61183 13.25 6 13.25H8ZM6.75 18.25H8C8.13807 18.25 8.25 18.1381 8.25 18V17.5C8.25 17.3619 8.13807 17.25 8 17.25H6.75V18.25ZM6.75 15.75H8C8.13807 15.75 8.25 15.6381 8.25 15.5V15C8.25 14.8619 8.13807 14.75 8 14.75H6.75V15.75Z" fill="#363538"/>
<path d="M18 13.25C18.4142 13.25 18.75 13.5858 18.75 14C18.75 14.4142 18.4142 14.75 18 14.75H17C16.3096 14.75 15.75 15.3096 15.75 16V17C15.75 17.6904 16.3096 18.25 17 18.25H18C18.4142 18.25 18.75 18.5858 18.75 19C18.75 19.4142 18.4142 19.75 18 19.75H17C15.4812 19.75 14.25 18.5188 14.25 17V16C14.25 14.4812 15.4812 13.25 17 13.25H18Z" fill="#363538"/>
<path fill-rule="evenodd" clip-rule="evenodd" d="M12 4.25C12.2691 4.25003 12.5178 4.39427 12.6514 4.62793L14.6514 8.12793C14.7161 8.24122 14.75 8.36953 14.75 8.5V10C14.75 10.4142 14.4142 10.75 14 10.75C13.5858 10.75 13.25 10.4142 13.25 10V9.25H10.75V10C10.75 10.4142 10.4142 10.75 10 10.75C9.58579 10.75 9.25 10.4142 9.25 10V8.5C9.25 8.36952 9.28392 8.24123 9.34863 8.12793L11.3486 4.62793L11.4043 4.54492C11.545 4.36072 11.7645 4.25 12 4.25ZM11.293 7.75H12.707L12 6.51172L11.293 7.75Z" fill="#363538"/>
<path fill-rule="evenodd" clip-rule="evenodd" d="M14.5 2.25C16.0188 2.25 17.25 3.48122 17.25 5V10C17.25 10.4506 17.1394 10.8747 16.9473 11.25H19C20.5188 11.25 21.75 12.4812 21.75 14V19C21.75 20.5188 20.5188 21.75 19 21.75H14C13.2108 21.75 12.5015 21.4153 12 20.8828C11.4985 21.4153 10.7892 21.75 10 21.75H5C3.48122 21.75 2.25 20.5188 2.25 19V14C2.25 12.4812 3.48122 11.25 5 11.25H7.05273C6.86065 10.8747 6.75 10.4506 6.75 10V5C6.75 3.48122 7.98122 2.25 9.5 2.25H14.5ZM5 12.75C4.30964 12.75 3.75 13.3096 3.75 14V19C3.75 19.6904 4.30964 20.25 5 20.25H10C10.6904 20.25 11.25 19.6904 11.25 19V14C11.25 13.3096 10.6904 12.75 10 12.75H5ZM14 12.75C13.3096 12.75 12.75 13.3096 12.75 14V19C12.75 19.6904 13.3096 20.25 14 20.25H19C19.6904 20.25 20.25 19.6904 20.25 19V14C20.25 13.3096 19.6904 12.75 19 12.75H14ZM9.5 3.75C8.80964 3.75 8.25 4.30964 8.25 5V10C8.25 10.6904 8.80964 11.25 9.5 11.25H14.5C15.1904 11.25 15.75 10.6904 15.75 10V5C15.75 4.30964 15.1904 3.75 14.5 3.75H9.5Z" fill="#363538"/>
</svg>
