<svg width="24" height="24" viewBox="0 0 24 24" fill="none" xmlns="http://www.w3.org/2000/svg">
<path fill-rule="evenodd" clip-rule="evenodd" d="M13.192 3.78458C12.8243 2.61966 11.1757 2.61965 10.808 3.78458L8.47391 11.1782L6.78809 16.264C6.65776 16.6572 6.87084 17.0816 7.26402 17.2119C7.6572 17.3422 8.08158 17.1292 8.21191 16.736L9.72902 12.1591H14.271L15.7881 16.736C15.9184 17.1292 16.3428 17.3422 16.736 17.2119C17.1292 17.0816 17.3422 16.6572 17.2119 16.264L15.5261 11.1782L13.192 3.78458ZM12 4.99133L13.7892 10.6591H10.2108L12 4.99133Z" fill="#363538"/>
<path d="M17.9697 20.9697L18.1893 20.75H5.81066L6.03033 20.9697C6.32322 21.2626 6.32322 21.7374 6.03033 22.0303C5.73744 22.3232 5.26256 22.3232 4.96967 22.0303L3.46967 20.5303C3.17678 20.2374 3.17678 19.7626 3.46967 19.4697L4.96967 17.9697C5.26256 17.6768 5.73744 17.6768 6.03033 17.9697C6.32322 18.2626 6.32322 18.7374 6.03033 19.0303L5.81066 19.25H18.1893L17.9697 19.0303C17.6768 18.7374 17.6768 18.2626 17.9697 17.9697C18.2626 17.6768 18.7374 17.6768 19.0303 17.9697L20.5303 19.4697C20.8232 19.7626 20.8232 20.2374 20.5303 20.5303L19.0303 22.0303C18.7374 22.3232 18.2626 22.3232 17.9697 22.0303C17.6768 21.7374 17.6768 21.2626 17.9697 20.9697Z" fill="#363538"/>
</svg>
