<svg width="24" height="24" viewBox="0 0 24 24" fill="none" xmlns="http://www.w3.org/2000/svg">
<path fill-rule="evenodd" clip-rule="evenodd" d="M4 10.0002C4 5.50024 7.58172 2.00024 12 2.00024C16.4183 2.00024 20 5.50024 20 10.0002C20 13.4273 17.68 15.6944 16.5737 16.5807C16.2275 16.8581 16 17.2698 16 17.7134C16 18.4241 15.4239 19.0002 14.7132 19.0002H9.2868C8.57612 19.0002 8 18.4241 8 17.7134C8 17.2698 7.77254 16.8581 7.42628 16.5807C6.31999 15.6944 4 13.4273 4 10.0002ZM5.5 10.0002C5.5 6.33867 8.40012 3.50024 12 3.50024C15.5999 3.50024 18.5 6.33867 18.5 10.0002C18.5 12.7261 16.638 14.6072 15.6359 15.41C15.0375 15.8894 14.5738 16.6277 14.508 17.5002H9.49199C9.42623 16.6277 8.96247 15.8894 8.3641 15.41C7.36196 14.6072 5.5 12.7261 5.5 10.0002Z" fill="#363538"/>
<path d="M9.1233 19.7604C8.71472 19.6924 8.3283 19.9684 8.2602 20.3769C8.19211 20.7855 8.46812 21.1719 8.8767 21.24C10.9446 21.5847 13.0554 21.5847 15.1233 21.24C15.5319 21.1719 15.8079 20.7855 15.7398 20.3769C15.6717 19.9684 15.2853 19.6924 14.8767 19.7604C12.972 20.0779 11.028 20.0779 9.1233 19.7604Z" fill="#363538"/>
</svg>
