<svg width="24" height="24" viewBox="0 0 24 24" fill="none" xmlns="http://www.w3.org/2000/svg">
<path fill-rule="evenodd" clip-rule="evenodd" d="M11.9997 3.25C12.4139 3.25002 12.7497 3.5858 12.7497 4V6.2793C16.8881 6.59765 20.4054 9.52888 21.4255 13.6094L21.487 13.8564L21.5212 14.0361C21.6356 14.9309 20.9378 15.7497 20.0085 15.75H16.6902C16.3305 18.0169 14.3678 19.75 11.9997 19.75C9.63171 19.7499 7.66891 18.0169 7.3093 15.75H3.99094C2.99983 15.7495 2.27236 14.8181 2.51243 13.8564L2.57395 13.6094L2.6843 13.207C3.8287 9.33715 7.2487 6.58717 11.2497 6.2793V4C11.2497 3.58587 11.5856 3.25013 11.9997 3.25ZM8.83762 15.75C9.17625 17.1832 10.4631 18.2499 11.9997 18.25C13.5364 18.25 14.8232 17.1832 15.1618 15.75H8.83762ZM11.9997 7.75C8.34795 7.75011 5.14944 10.1576 4.1218 13.6328L4.03001 13.9727L3.96751 14.2197C3.9659 14.2262 3.96751 14.2305 3.96751 14.2305C3.96805 14.2328 3.96944 14.2364 3.97239 14.2402C3.97548 14.2442 3.97901 14.2469 3.98118 14.248C3.98118 14.248 3.985 14.2499 3.99094 14.25H20.0085C20.0144 14.2499 20.0183 14.248 20.0183 14.248C20.0204 14.247 20.0239 14.2442 20.0271 14.2402C20.0301 14.2363 20.0314 14.2328 20.032 14.2305V14.2197L19.9695 13.9727C19.055 10.3156 15.7694 7.75001 11.9997 7.75Z" fill="#363538"/>
</svg>
