<svg width="24" height="24" viewBox="0 0 24 24" fill="none" xmlns="http://www.w3.org/2000/svg">
<path fill-rule="evenodd" clip-rule="evenodd" d="M11.9999 2.08691C14.4568 2.08693 16.6509 3.21961 18.1181 5.02985L20.4697 2.57706C20.7626 2.27147 21.2373 2.27145 21.5302 2.57706C21.8231 2.88268 21.8231 3.3781 21.5302 3.68372L3.53022 22.4663C3.23733 22.7719 2.76257 22.7719 2.46967 22.4663C2.17678 22.1607 2.17678 21.6653 2.46967 21.3597L6.85541 16.7822C5.67323 15.6322 3.99994 13.4704 3.99994 10.4347C3.99994 5.73909 7.58166 2.08691 11.9999 2.08691ZM11.9999 3.65213C8.40006 3.65213 5.49994 6.61396 5.49994 10.4347C5.49994 12.8926 6.8905 14.6923 7.91498 15.6766L17.0546 6.13956C15.865 4.61112 14.0466 3.65215 11.9999 3.65213Z" fill="#363538"/>
<path d="M14.8769 20.6188C15.2853 20.548 15.6721 20.8367 15.7402 21.2629C15.8081 21.6891 15.5314 22.0926 15.123 22.1637C13.0553 22.5232 10.9446 22.5232 8.8769 22.1637C8.46842 22.0926 8.19181 21.6891 8.25971 21.2629C8.32779 20.8366 8.71453 20.548 9.12299 20.6188C11.0276 20.9501 12.9722 20.9501 14.8769 20.6188Z" fill="#363538"/>
<path d="M19.6279 7.88107C19.8692 8.68237 19.9999 9.53951 19.9999 10.4347C19.9999 14.0108 17.6795 16.3761 16.5732 17.3009C16.2271 17.5903 16 18.0202 15.9999 18.483C15.9999 19.2245 15.4235 19.826 14.7128 19.826H9.28705L9.15522 19.8189C8.89732 19.7916 8.66263 19.6838 8.4726 19.5214L9.68158 18.2608H14.5087C14.5745 17.3505 15.0375 16.5803 15.6357 16.0801C16.6378 15.2424 18.4999 13.2791 18.4999 10.4347C18.4999 10.0021 18.4608 9.58078 18.3896 9.17319L19.6279 7.88107Z" fill="#363538"/>
</svg>
