<svg width="24" height="24" viewBox="0 0 24 24" fill="none" xmlns="http://www.w3.org/2000/svg">
<path fill-rule="evenodd" clip-rule="evenodd" d="M15.2126 8.85321L15.9863 6.91297C16.6506 5.24705 15.1831 3.5157 13.4309 3.89811C13.126 3.96464 12.8457 4.11486 12.6215 4.3319L8.83226 7.99988L7.80067 8.79887C7.20296 9.2618 6.75671 9.87783 6.5 10.5693V8.99988C6.5 8.44759 6.13369 7.99988 5.68182 7.99988H2.81818C2.36631 7.99988 2 8.44759 2 8.99988V18.9999C2 19.5522 2.36631 19.9999 2.81818 19.9999H5.68182C6.13369 19.9999 6.5 19.5522 6.5 18.9999V17.637C6.80987 18.4715 7.39453 19.1924 8.17922 19.6672L9.42682 20.4221C10.0514 20.8001 10.7675 20.9999 11.4976 20.9999H16.1535C17.9502 20.9999 19.5264 19.8019 20.0075 18.0707L21.5455 12.5353C21.8996 11.2609 20.9412 9.99988 19.6185 9.99988H15.9898C15.3982 9.99988 14.9935 9.40271 15.2126 8.85321ZM9.75076 9.18579C9.7943 9.15206 9.83596 9.11596 9.87553 9.07765L13.6648 5.40966C13.6886 5.38662 13.7183 5.37068 13.7507 5.36361C14.3283 5.23757 14.812 5.80824 14.593 6.35735L13.8193 8.29759C13.2073 9.83218 14.3377 11.4999 15.9898 11.4999H19.6185C19.9492 11.4999 20.1888 11.8151 20.1003 12.1337L18.5622 17.6692C18.2616 18.7511 17.2764 19.4999 16.1535 19.4999H11.4976C11.0413 19.4999 10.5937 19.375 10.2034 19.1388L8.95576 18.3839C8.20729 17.931 7.75 17.1198 7.75 16.245V11.9613C7.75 11.188 8.10783 10.4583 8.71917 9.98477L9.75076 9.18579ZM5 18.4999H3.5V9.49988H5V18.4999Z" fill="#363538"/>
</svg>
