<svg width="24" height="24" viewBox="0 0 24 24" fill="none" xmlns="http://www.w3.org/2000/svg">
<path d="M8.87012 17.2173H7.37012V9.913H8.87012V17.2173Z" fill="#363538"/>
<path d="M13.4951 9.65213C15.221 9.65213 16.6201 11.1121 16.6201 12.913V17.2173H15.1201V12.913C15.1201 11.9765 14.3926 11.2173 13.4951 11.2173C12.5977 11.2173 11.8701 11.9765 11.8701 12.913V17.2173H10.3701V9.913H11.8701V10.1311C12.344 9.82905 12.8992 9.65213 13.4951 9.65213Z" fill="#363538"/>
<path d="M8.12012 7.56517C8.53433 7.56517 8.87012 7.91556 8.87012 8.34778V8.45172C8.87012 8.88395 8.53433 9.23433 8.12012 9.23433C7.7059 9.23433 7.37012 8.88395 7.37012 8.45172V8.34778C7.37012 7.91556 7.7059 7.56517 8.12012 7.56517Z" fill="#363538"/>
<path fill-rule="evenodd" clip-rule="evenodd" d="M16 2.08691C19.3137 2.08691 22 4.89 22 8.34778V16.6956C22 20.1534 19.3137 22.9565 16 22.9565H8C4.68629 22.9565 2 20.1534 2 16.6956V8.34778C2 4.89 4.68629 2.08691 8 2.08691H16ZM8 3.65213C5.51472 3.65213 3.5 5.75445 3.5 8.34778V16.6956C3.5 19.2889 5.51472 21.3913 8 21.3913H16C18.4853 21.3913 20.5 19.2889 20.5 16.6956V8.34778C20.5 5.75445 18.4853 3.65213 16 3.65213H8Z" fill="#363538"/>
</svg>
