<svg width="24" height="24" viewBox="0 0 24 24" fill="none" xmlns="http://www.w3.org/2000/svg">
<path d="M17.8336 6.16626C16.5644 4.89705 14.5067 4.89705 13.2375 6.16626L11.8232 7.58047C11.5303 7.87337 11.0555 7.87337 10.7626 7.58047C10.4697 7.28758 10.4697 6.81271 10.7626 6.51981L12.1768 5.1056C14.0318 3.25061 17.0393 3.25061 18.8943 5.1056C20.7493 6.96059 20.7493 9.96812 18.8943 11.8231L17.4801 13.2373C17.1872 13.5302 16.7123 13.5302 16.4194 13.2373C16.1265 12.9444 16.1265 12.4696 16.4194 12.1767L17.8336 10.7625C19.1028 9.49325 19.1028 7.43546 17.8336 6.16626Z" fill="#363538"/>
<path d="M7.58059 10.7625C7.87349 11.0553 7.87349 11.5302 7.58059 11.8231L6.16638 13.2373C4.89718 14.5065 4.89718 16.5643 6.16638 17.8335C7.43558 19.1027 9.49337 19.1027 10.7626 17.8335L12.1768 16.4193C12.4697 16.1264 12.9446 16.1264 13.2374 16.4193C13.5303 16.7122 13.5303 17.1871 13.2374 17.48L11.8232 18.8942C9.96824 20.7492 6.96071 20.7492 5.10572 18.8942C3.25073 17.0392 3.25073 14.0317 5.10572 12.1767L6.51993 10.7625C6.81283 10.4696 7.2877 10.4696 7.58059 10.7625Z" fill="#363538"/>
<path d="M9.34833 13.5909C9.05544 13.8838 9.05544 14.3587 9.34833 14.6515C9.64123 14.9444 10.1161 14.9444 10.409 14.6515L14.6516 10.4089C14.9445 10.116 14.9445 9.64114 14.6516 9.34825C14.3587 9.05535 13.8839 9.05535 13.591 9.34825L9.34833 13.5909Z" fill="#363538"/>
</svg>
