<svg width="24" height="24" viewBox="0 0 24 24" fill="none" xmlns="http://www.w3.org/2000/svg">
<path d="M2.25 12.0002C2.25 9.37689 4.37665 7.25024 7 7.25024H9C9.41421 7.25024 9.75 7.58603 9.75 8.00024C9.75 8.41446 9.41421 8.75024 9 8.75024H7C5.20507 8.75024 3.75 10.2053 3.75 12.0002C3.75 13.7952 5.20507 15.2502 7 15.2502H9C9.41421 15.2502 9.75 15.586 9.75 16.0002C9.75 16.4145 9.41421 16.7502 9 16.7502H7C4.37665 16.7502 2.25 14.6236 2.25 12.0002Z" fill="#363538"/>
<path d="M14.25 8.00024C14.25 7.58603 14.5858 7.25024 15 7.25024H17C19.6234 7.25024 21.75 9.37689 21.75 12.0002C21.75 14.6236 19.6234 16.7502 17 16.7502H15C14.5858 16.7502 14.25 16.4145 14.25 16.0002C14.25 15.586 14.5858 15.2502 15 15.2502H17C18.7949 15.2502 20.25 13.7952 20.25 12.0002C20.25 10.2053 18.7949 8.75024 17 8.75024H15C14.5858 8.75024 14.25 8.41446 14.25 8.00024Z" fill="#363538"/>
<path d="M9 11.2502C8.58579 11.2502 8.25 11.586 8.25 12.0002C8.25 12.4145 8.58579 12.7502 9 12.7502H15C15.4142 12.7502 15.75 12.4145 15.75 12.0002C15.75 11.586 15.4142 11.2502 15 11.2502H9Z" fill="#363538"/>
</svg>
