<svg width="24" height="24" viewBox="0 0 24 24" fill="none" xmlns="http://www.w3.org/2000/svg">
<path fill-rule="evenodd" clip-rule="evenodd" d="M5.75834 3.18667C6.38408 3.22912 6.99825 3.45572 7.50737 3.70425C8.0243 3.95661 8.48203 4.25662 8.80717 4.48843C8.97084 4.60513 9.10455 4.70674 9.1978 4.78042C9.24431 4.81718 9.28222 4.84698 9.30815 4.86831C9.32085 4.87877 9.33012 4.88854 9.33744 4.89468C9.34108 4.89773 9.34497 4.89962 9.34721 4.90152C9.3482 4.90233 9.34933 4.90294 9.35014 4.90347L9.35209 4.90542L9.36479 4.91714L9.37748 4.92788L11.6167 7.01968L15.7046 11.1076C16.2447 10.6569 17.049 10.6848 17.5562 11.1916L20.2964 13.9318C20.9798 14.6152 20.9797 15.723 20.2964 16.4064L16.4078 20.296C15.7244 20.9794 14.6166 20.9792 13.9331 20.296L11.1929 17.5558C10.6859 17.0488 10.6575 16.2445 11.108 15.7043L7.02006 11.6164L4.92924 9.37612L4.91752 9.36441L4.9058 9.35073L4.90483 9.34976C4.90418 9.349 4.90383 9.34698 4.90287 9.34585C4.90098 9.34361 4.89811 9.3407 4.89506 9.33706C4.88897 9.3298 4.88003 9.32033 4.86967 9.30777C4.84833 9.28184 4.81764 9.24403 4.7808 9.19741C4.70712 9.10417 4.60551 8.97046 4.48881 8.80679C4.25708 8.48175 3.95793 8.02374 3.70561 7.50698C3.45708 6.99787 3.2295 6.3837 3.18705 5.75796C3.14332 5.1124 3.29722 4.41451 3.856 3.85562C4.41483 3.29679 5.11281 3.143 5.75834 3.18667ZM10.731 8.25503C10.6123 8.84463 10.3251 9.40798 9.86674 9.86636C9.40841 10.3246 8.84493 10.611 8.25541 10.7296L12.2535 14.7277C12.7604 15.2348 12.7872 16.0391 12.3365 16.5793L14.9937 19.2355C15.0913 19.3328 15.2497 19.333 15.3472 19.2355L19.2359 15.3459C19.3334 15.2482 19.3335 15.0899 19.2359 14.9923L16.5796 12.3361C16.0394 12.7869 15.2352 12.7593 14.7281 12.2521L10.731 8.25503ZM5.65776 4.68277C5.32583 4.66026 5.09509 4.73878 4.91752 4.91616C4.73994 5.09374 4.66164 5.32436 4.68412 5.6564C4.708 6.00832 4.84616 6.42255 5.05424 6.84878C5.25839 7.26686 5.50688 7.65245 5.70951 7.93667C5.80991 8.07748 5.89686 8.19091 5.95756 8.26773C5.98785 8.30605 6.01242 8.33489 6.02787 8.35366C6.0355 8.36294 6.0411 8.37015 6.04448 8.37417L6.40971 8.7648C7.05313 9.45316 8.13981 9.47201 8.80619 8.80581C9.47252 8.13944 9.4536 7.05376 8.76518 6.4103L8.37455 6.04409C8.37054 6.04073 8.36425 6.03412 8.35502 6.02652C8.33624 6.01106 8.30645 5.98748 8.26811 5.95718C8.19129 5.89648 8.07786 5.80953 7.93705 5.70913C7.65274 5.50643 7.26738 5.25706 6.84916 5.05288C6.42314 4.84491 6.00956 4.70672 5.65776 4.68277Z" fill="#363538"/>
</svg>
