<svg width="24" height="24" viewBox="0 0 24 24" fill="none" xmlns="http://www.w3.org/2000/svg">
<path fill-rule="evenodd" clip-rule="evenodd" d="M12.5 2H11.5C10.1193 2 9 3.11929 9 4.5C9 5.79637 9.98672 6.86228 11.2501 6.98767L11.25 7V8H10C7.79086 8 6 9.79086 6 12V18C6 20.2091 7.79086 22 10 22H14C16.2091 22 18 20.2091 18 18V12C18 9.79086 16.2091 8 14 8H12.75V7L12.7499 6.98767C13.7616 6.88726 14.5959 6.18373 14.8881 5.24171C14.9246 5.24717 14.962 5.25 15 5.25H16.5C16.6381 5.25 16.75 5.36193 16.75 5.5C16.75 5.91421 17.0858 6.25 17.5 6.25C17.9142 6.25 18.25 5.91421 18.25 5.5C18.25 4.5335 17.4665 3.75 16.5 3.75H15C14.962 3.75 14.9246 3.75283 14.8881 3.75829C14.5721 2.73973 13.6225 2 12.5 2ZM11.5 3.5H12.5C13.0523 3.5 13.5 3.94772 13.5 4.5C13.5 5.05228 13.0523 5.5 12.5 5.5H11.5C10.9477 5.5 10.5 5.05228 10.5 4.5C10.5 3.94772 10.9477 3.5 11.5 3.5ZM7.5 18V12C7.5 10.6193 8.61929 9.5 10 9.5H14C15.3807 9.5 16.5 10.6193 16.5 12V18C16.5 19.3807 15.3807 20.5 14 20.5H10C8.61929 20.5 7.5 19.3807 7.5 18Z" fill="#363538"/>
</svg>
