<svg width="24" height="24" viewBox="0 0 24 24" fill="none" xmlns="http://www.w3.org/2000/svg">
<path fill-rule="evenodd" clip-rule="evenodd" d="M14.5 2H9.5C8.11929 2 7 3.11929 7 4.5C7 5.88071 8.11929 7 9.5 7H11.25V8H6C3.79086 8 2 9.79086 2 12V18C2 20.2091 3.79086 22 6 22H18C20.2091 22 22 20.2091 22 18V12C22 9.79086 20.2091 8 18 8H12.75V7H14.5C15.6225 7 16.5721 6.26027 16.8881 5.24171C16.9246 5.24717 16.962 5.25 17 5.25H18.2857C18.714 5.25 19.25 5.69701 19.25 6.5C19.25 6.91421 19.5858 7.25 20 7.25C20.4142 7.25 20.75 6.91421 20.75 6.5C20.75 5.09385 19.751 3.75 18.2857 3.75H17C16.962 3.75 16.9246 3.75283 16.8881 3.75829C16.5721 2.73973 15.6225 2 14.5 2ZM9.5 3.5H14.5C15.0523 3.5 15.5 3.94772 15.5 4.5C15.5 5.05228 15.0523 5.5 14.5 5.5H9.5C8.94772 5.5 8.5 5.05228 8.5 4.5C8.5 3.94772 8.94772 3.5 9.5 3.5ZM3.5 18V12C3.5 10.6193 4.61929 9.5 6 9.5H18C19.3807 9.5 20.5 10.6193 20.5 12V18C20.5 19.3807 19.3807 20.5 18 20.5H6C4.61929 20.5 3.5 19.3807 3.5 18Z" fill="#363538"/>
</svg>
