<svg width="24" height="24" viewBox="0 0 24 24" fill="none" xmlns="http://www.w3.org/2000/svg">
<path d="M3.88 6.75C4.8465 6.75 5.63 5.9665 5.63 5C5.63 4.0335 4.8465 3.25 3.88 3.25C2.91351 3.25 2.13 4.0335 2.13 5C2.13 5.9665 2.91351 6.75 3.88 6.75Z" fill="#363538"/>
<path d="M9.13 5.75L21.13 5.75C21.5442 5.75 21.88 5.41421 21.88 5C21.88 4.58579 21.5442 4.25 21.13 4.25L9.13 4.25C8.71579 4.25 8.38 4.58579 8.38 5C8.38 5.41422 8.71579 5.75 9.13 5.75Z" fill="#363538"/>
<path d="M9.13 12.75L21.13 12.75C21.5442 12.75 21.88 12.4142 21.88 12C21.88 11.5858 21.5442 11.25 21.13 11.25L9.13 11.25C8.71579 11.25 8.38 11.5858 8.38 12C8.38 12.4142 8.71579 12.75 9.13 12.75Z" fill="#363538"/>
<path d="M21.13 19.75L9.13 19.75C8.71579 19.75 8.38 19.4142 8.38 19C8.38 18.5858 8.71579 18.25 9.13 18.25L21.13 18.25C21.5442 18.25 21.88 18.5858 21.88 19C21.88 19.4142 21.5442 19.75 21.13 19.75Z" fill="#363538"/>
<path d="M5.63 19C5.63 19.9665 4.8465 20.75 3.88 20.75C2.91351 20.75 2.13 19.9665 2.13 19C2.13 18.0335 2.91351 17.25 3.88 17.25C4.8465 17.25 5.63 18.0335 5.63 19Z" fill="#363538"/>
<path d="M3.88 13.75C4.8465 13.75 5.63 12.9665 5.63 12C5.63 11.0335 4.8465 10.25 3.88 10.25C2.91351 10.25 2.13 11.0335 2.13 12C2.13 12.9665 2.91351 13.75 3.88 13.75Z" fill="#363538"/>
</svg>
