<svg width="24" height="24" viewBox="0 0 24 24" fill="none" xmlns="http://www.w3.org/2000/svg">
<path fill-rule="evenodd" clip-rule="evenodd" d="M11.3742 2.25C10.8197 2.25 10.3314 2.61531 10.175 3.14729L7.45635 12.3907L4.76285 13.2885C4.36989 13.4195 4.15752 13.8442 4.28851 14.2372C4.41949 14.6301 4.84423 14.8425 5.23719 14.7115L6.94076 14.1437L5.4691 19.1473C5.23363 19.9479 5.8338 20.75 6.66831 20.75H18.6097C19.1833 20.75 19.6832 20.3596 19.8224 19.8032L20.5724 16.8032C20.7696 16.0142 20.1729 15.25 19.3597 15.25H12.4787L13.3519 12.0066L17.2372 10.7115C17.6301 10.5805 17.8425 10.1558 17.7115 9.76283C17.5805 9.36987 17.1558 9.1575 16.7628 9.28849L13.8196 10.2696L15.5547 3.82497C15.7685 3.03072 15.1702 2.25 14.3477 2.25H11.3742ZM12.113 10.8384L14.0214 3.75H11.5612L9.18983 11.8128L12.113 10.8384ZM8.67424 13.5658L7.00243 19.25H18.4145L19.0395 16.75H12.1525C11.33 16.75 10.7316 15.9693 10.9455 15.175L11.6454 12.5755L8.67424 13.5658Z" fill="#363538"/>
</svg>
