<svg width="24" height="24" viewBox="0 0 24 24" fill="none" xmlns="http://www.w3.org/2000/svg">
<path fill-rule="evenodd" clip-rule="evenodd" d="M11.9999 2.08691C14.4696 2.08693 16.704 3.12782 18.33 4.80872L20.4697 2.57706C20.7626 2.27147 21.2373 2.27145 21.5302 2.57706C21.8231 2.88268 21.8231 3.3781 21.5302 3.68372L3.53022 22.4663C3.23733 22.7719 2.76256 22.7719 2.46967 22.4663C2.17678 22.1607 2.17678 21.6653 2.46967 21.3597L5.58588 18.1059C4.15657 16.1963 3.23695 13.9367 2.99994 11.4782C2.99994 6.29154 7.02938 2.08691 11.9999 2.08691ZM11.9999 3.65213C7.88127 3.65213 4.53867 7.11641 4.50092 11.4048C4.71292 13.4472 5.46811 15.352 6.65424 16.9911L9.14252 14.3957C8.4365 13.6432 7.99994 12.6145 7.99994 11.4782C7.99994 9.17303 9.7908 7.30431 11.9999 7.30431C13.0889 7.30432 14.0747 7.75985 14.7958 8.49656L17.2705 5.91436C15.9162 4.51657 14.0556 3.65215 11.9999 3.65213ZM11.9999 8.86952C10.6192 8.86952 9.49994 10.0375 9.49994 11.4782C9.49994 12.1823 9.76852 12.8198 10.2031 13.289L13.7353 9.60322C13.2856 9.14979 12.6747 8.86954 11.9999 8.86952Z" fill="#363538"/>
<path d="M20.1025 7.38583C20.6773 8.62281 20.9999 10.0112 20.9999 11.4782C20.5544 16.1001 17.3295 20.025 13.4482 22.2279L13.2763 22.3186C12.406 22.7432 11.3931 22.7328 10.5283 22.2798C9.49411 21.7381 8.53958 21.0882 7.68061 20.3478L8.74604 19.236C9.48683 19.8603 10.3083 20.4141 11.2011 20.8818C11.6826 21.1339 12.2545 21.1239 12.7314 20.8532C16.2945 18.831 19.0856 15.3294 19.498 11.4038C19.4891 10.4047 19.2985 9.45127 18.9628 8.57503L20.1025 7.38583Z" fill="#363538"/>
</svg>
