<svg width="24" height="24" viewBox="0 0 24 24" fill="none" xmlns="http://www.w3.org/2000/svg">
<path d="M10.9445 8.88407C10.6517 8.59118 10.1768 8.59118 9.88388 8.88407C9.59099 9.17696 9.59099 9.65184 9.88388 9.94473L10.7678 10.8286L9.88388 11.7125C9.59099 12.0054 9.59099 12.4803 9.88388 12.7732C10.1768 13.0661 10.6517 13.0661 10.9445 12.7732L11.8284 11.8893L12.7123 12.7732C13.0052 13.0661 13.4801 13.0661 13.773 12.7732C14.0659 12.4803 14.0659 12.0054 13.773 11.7125L12.8891 10.8286L13.773 9.94473C14.0659 9.65184 14.0659 9.17696 13.773 8.88407C13.4801 8.59118 13.0052 8.59118 12.7123 8.88407L11.8284 9.76795L10.9445 8.88407Z" fill="#363538"/>
<path fill-rule="evenodd" clip-rule="evenodd" d="M12 2C16.9706 2 21 6.02944 21 11C20.5544 15.4294 17.3295 19.1909 13.4481 21.3019C12.5415 21.7951 11.4508 21.8149 10.5284 21.3518C6.34219 19.2505 3.4491 15.4645 3 11C3 6.02944 7.02944 2 12 2ZM11.2013 20.0113C7.43094 18.1186 4.91589 14.7761 4.50036 10.9256C4.54029 6.81772 7.8827 3.5 12 3.5C16.1172 3.5 19.4595 6.8175 19.4996 10.9252C19.0887 14.6886 16.2957 18.0456 12.7314 19.9842C12.2545 20.2437 11.6828 20.253 11.2013 20.0113Z" fill="#363538"/>
</svg>
