<svg width="24" height="24" viewBox="0 0 24 24" fill="none" xmlns="http://www.w3.org/2000/svg">
<path d="M12.75 9C12.75 8.58579 12.4142 8.25 12 8.25C11.5858 8.25 11.25 8.58579 11.25 9V10.25H10C9.58579 10.25 9.25 10.5858 9.25 11C9.25 11.4142 9.58579 11.75 10 11.75H11.25V13C11.25 13.4142 11.5858 13.75 12 13.75C12.4142 13.75 12.75 13.4142 12.75 13V11.75H14C14.4142 11.75 14.75 11.4142 14.75 11C14.75 10.5858 14.4142 10.25 14 10.25H12.75V9Z" fill="#363538"/>
<path fill-rule="evenodd" clip-rule="evenodd" d="M12 2C16.9706 2 21 6.02944 21 11C20.5544 15.4294 17.3295 19.1909 13.4481 21.3019C12.5415 21.7951 11.4508 21.8149 10.5284 21.3518C6.34219 19.2505 3.4491 15.4645 3 11C3 6.02944 7.02944 2 12 2ZM11.2013 20.0113C7.43094 18.1186 4.91589 14.7761 4.50036 10.9256C4.54029 6.81772 7.8827 3.5 12 3.5C16.1172 3.5 19.4595 6.8175 19.4996 10.9252C19.0887 14.6886 16.2957 18.0456 12.7314 19.9842C12.2545 20.2437 11.6828 20.253 11.2013 20.0113Z" fill="#363538"/>
</svg>
