<svg width="24" height="24" viewBox="0 0 24 24" fill="none" xmlns="http://www.w3.org/2000/svg">
<path d="M12.75 14.6615C12.9056 14.4852 13 14.2536 13 14C13 13.4477 12.5523 13 12 13C11.4477 13 11 13.4477 11 14C11 14.2536 11.0944 14.4852 11.25 14.6615V18C11.25 18.4142 11.5858 18.75 12 18.75C12.4142 18.75 12.75 18.4142 12.75 18V14.6615Z" fill="#363538"/>
<path fill-rule="evenodd" clip-rule="evenodd" d="M7.25 8V6C7.25 3.37665 9.37665 1.25 12 1.25C14.6234 1.25 16.75 3.37665 16.75 6V8H17C19.2091 8 21 9.79086 21 12V18C21 20.2091 19.2091 22 17 22H7C4.79086 22 3 20.2091 3 18V12C3 9.79086 4.79086 8 7 8H7.25ZM8.75 6C8.75 4.20507 10.2051 2.75 12 2.75C13.7949 2.75 15.25 4.20507 15.25 6V8H8.75V6ZM4.5 12C4.5 10.6193 5.61929 9.5 7 9.5H17C18.3807 9.5 19.5 10.6193 19.5 12V18C19.5 19.3807 18.3807 20.5 17 20.5H7C5.61929 20.5 4.5 19.3807 4.5 18V12Z" fill="#363538"/>
</svg>
