<svg width="24" height="24" viewBox="0 0 24 24" fill="none" xmlns="http://www.w3.org/2000/svg">
<path d="M16.5 19.25C16.9142 19.25 17.25 19.5858 17.25 20V20.0098C17.25 20.424 16.9142 20.7598 16.5 20.7598C16.0858 20.7598 15.75 20.424 15.75 20.0098V20C15.75 19.5858 16.0858 19.25 16.5 19.25Z" fill="#363538"/>
<path d="M16.5 16.25C16.9142 16.25 17.25 16.5858 17.25 17V18C17.25 18.4142 16.9142 18.75 16.5 18.75C16.0858 18.75 15.75 18.4142 15.75 18V17C15.75 16.5858 16.0858 16.25 16.5 16.25Z" fill="#363538"/>
<path fill-rule="evenodd" clip-rule="evenodd" d="M15.1904 13.9746C15.8836 12.9644 17.454 13.0127 18.0664 14.1064L21.542 20.3135L21.5977 20.4209C22.127 21.5376 21.2495 22.7498 20.0635 22.75H12.9365C11.6978 22.7497 10.8018 21.4289 11.4756 20.2832L15.126 14.0762L15.1904 13.9746ZM16.5898 14.75C16.5262 14.7494 16.4785 14.7703 16.4463 14.8018L16.4189 14.8369L12.7686 21.0439C12.7525 21.0713 12.7497 21.0906 12.75 21.1045C12.7504 21.1209 12.7557 21.1423 12.7695 21.165C12.7964 21.209 12.8495 21.2499 12.9365 21.25H20.0635C20.1492 21.2499 20.2023 21.2103 20.2295 21.167C20.2435 21.1445 20.2493 21.1229 20.25 21.1064C20.2503 21.0994 20.2495 21.0911 20.2471 21.0811L20.2334 21.0459L16.7578 14.8389C16.73 14.7893 16.6748 14.7508 16.5898 14.75Z" fill="#363538"/>
<path fill-rule="evenodd" clip-rule="evenodd" d="M12 1.25C14.6234 1.25 16.75 3.37665 16.75 6V8H17C19.2091 8 21 9.79086 21 12V13.25C21 13.6642 20.6642 14 20.25 14C19.8358 14 19.5 13.6642 19.5 13.25V12C19.5 10.6193 18.3807 9.5 17 9.5H7C5.61929 9.5 4.5 10.6193 4.5 12V18C4.5 19.3807 5.61929 20.5 7 20.5H9.25C9.66421 20.5 10 20.8358 10 21.25C10 21.6642 9.66421 22 9.25 22H7L6.79395 21.9951C4.68056 21.8879 3 20.14 3 18V12C3 9.79086 4.79086 8 7 8H7.25V6C7.25 3.37665 9.37665 1.25 12 1.25ZM12 2.75C10.2051 2.75 8.75 4.20507 8.75 6V8H15.25V6C15.25 4.20507 13.7949 2.75 12 2.75Z" fill="#363538"/>
</svg>
