<svg width="24" height="24" viewBox="0 0 24 24" fill="none" xmlns="http://www.w3.org/2000/svg">
<path fill-rule="evenodd" clip-rule="evenodd" d="M6.7865 5.02817C6.64902 5.26884 6.52772 5.51995 6.42408 5.78001C6.15046 6.46667 6 7.21576 6 8C6 11.0602 8.29099 13.5853 11.2514 13.9538C11.2505 13.9691 11.25 13.9845 11.25 14V21C11.25 21.4142 11.5858 21.75 12 21.75C12.4142 21.75 12.75 21.4142 12.75 21V14C12.75 13.9845 12.7495 13.9691 12.7486 13.9538C14.7063 13.7101 16.3712 12.5233 17.2745 10.8624C17.4111 10.6112 17.5303 10.3492 17.6304 10.078C17.8695 9.4305 18 8.7305 18 8C18 4.68629 15.3137 2 12 2C9.76754 2 7.81986 3.21924 6.7865 5.02817ZM16.5 8C16.5 8.49793 16.4197 8.97432 16.2723 9.41859C15.7701 9.43118 15.2666 9.40671 14.7855 9.30057C13.9327 9.11244 13.1755 8.67319 12.671 7.66442C12.013 6.34869 10.8179 5.69214 9.65274 5.36658C9.27906 5.26217 8.89905 5.18895 8.52681 5.13804C9.353 4.13675 10.6031 3.5 12 3.5C14.4853 3.5 16.5 5.51472 16.5 8ZM9.24909 6.81124C8.75644 6.67359 8.23687 6.60004 7.73398 6.56273C7.58253 7.01247 7.5 7.49526 7.5 8C7.5 10.4853 9.51472 12.5 12 12.5C13.3785 12.5 14.614 11.8798 15.4402 10.9015C15.1163 10.8794 14.7874 10.8371 14.4623 10.7653C13.2509 10.4981 12.0715 9.81925 11.3294 8.33534C10.93 7.53677 10.1841 7.07249 9.24909 6.81124Z" fill="#363538"/>
</svg>
