<svg width="24" height="24" viewBox="0 0 24 24" fill="none" xmlns="http://www.w3.org/2000/svg">
<path fill-rule="evenodd" clip-rule="evenodd" d="M17.7993 5.11063C19.7851 4.559 21.75 6.05245 21.75 8.11353V15.8863C21.75 17.9474 19.7851 19.4409 17.7993 18.8892L9.75 16.6533V18.3633C9.75 19.6814 8.68148 20.7499 7.36339 20.7499C6.21159 20.7499 5.22412 19.9273 5.01604 18.7945L4.34225 15.126C3.08859 14.6098 2.25 13.382 2.25 11.9999C2.25 10.481 3.26282 9.14854 4.7263 8.74201L17.7993 5.11063ZM3.75 11.9999C3.75 12.845 4.31351 13.5864 5.12777 13.8126L17.25 17.1799V6.82L5.12777 10.1873C4.31351 10.4135 3.75 11.1549 3.75 11.9999ZM18.75 6.50003V17.4998C19.5647 17.4417 20.25 16.763 20.25 15.8863V8.11353C20.25 7.23686 19.5647 6.55817 18.75 6.50003ZM5.9542 15.5989L6.49136 18.5235C6.56866 18.9443 6.9355 19.2499 7.36339 19.2499C7.85305 19.2499 8.25 18.853 8.25 18.3633V16.2367L5.9542 15.5989Z" fill="#363538"/>
</svg>
