<svg width="24" height="24" viewBox="0 0 24 24" fill="none" xmlns="http://www.w3.org/2000/svg">
<path fill-rule="evenodd" clip-rule="evenodd" d="M12.0768 2.25391C12.4549 2.29239 12.7497 2.61173 12.7497 3V9.55859C12.7497 10.0053 12.9883 10.4088 13.361 10.6309V9.34277C13.3611 8.26808 14.0408 7.091 15.3434 6.96191C16.7572 6.82211 18.9432 7.09071 20.5788 9.3584L20.735 9.58398C21.2018 10.2843 21.4596 11.1929 21.5993 12.1367C21.7406 13.0917 21.7706 14.1491 21.738 15.1953C21.6726 17.288 21.3543 19.4155 21.1178 20.751L21.0934 20.8613C20.9507 21.3954 20.5007 21.6961 20.0749 21.7686C19.6282 21.8444 19.0897 21.6958 18.7634 21.2314L18.529 20.9111C18.2812 20.5875 17.9963 20.2599 17.6852 19.9766C17.2656 19.5945 16.8384 19.33 16.4284 19.2275C14.8196 18.8252 14.016 18.1087 13.6589 17.6631C13.4211 17.3664 13.3611 17.0257 13.361 16.7646V12.2432L13.1305 12.167L12.9235 12.0898C12.5676 11.9387 12.2559 11.7156 11.9997 11.4434C11.7434 11.7155 11.4317 11.9387 11.0759 12.0898L10.8688 12.167L10.7497 12.2061V16.7646C10.7495 17.0257 10.6896 17.3664 10.4518 17.6631C10.0946 18.1087 9.29087 18.8253 7.6823 19.2275C7.27239 19.3301 6.84495 19.5946 6.42546 19.9766C6.11448 20.2598 5.82942 20.5876 5.58171 20.9111L5.34734 21.2314C5.02093 21.6957 4.48244 21.8446 4.03582 21.7686C3.60998 21.696 3.15993 21.3954 3.01726 20.8613L2.99285 20.751C2.75642 19.4155 2.43811 17.288 2.37273 15.1953C2.34008 14.1492 2.37007 13.0917 2.5114 12.1367C2.65112 11.1931 2.90899 10.2843 3.37566 9.58398L3.53191 9.3584C5.16742 7.09084 7.35348 6.82217 8.76726 6.96191C10.0701 7.09083 10.7496 8.26799 10.7497 9.34277V10.5547C11.0574 10.323 11.2496 9.95882 11.2497 9.55859V3C11.2497 2.6116 11.5452 2.29222 11.9235 2.25391C11.9486 2.25137 11.974 2.25001 11.9997 2.25L12.0768 2.25391ZM8.6198 8.4541C7.58802 8.35212 6.07558 8.51965 4.86199 10.084L4.62371 10.416C4.33385 10.8511 4.12125 11.509 3.99578 12.3564C3.87203 13.1927 3.84071 14.154 3.87175 15.1484C3.92659 16.9037 4.17401 18.7041 4.38933 20C4.67781 19.6231 5.02376 19.2251 5.4157 18.8682C5.93409 18.3961 6.57672 17.9579 7.31804 17.7725C8.53491 17.4682 9.06595 16.9747 9.24968 16.7617V14.2324C9.24556 14.2434 9.24218 14.2547 9.23796 14.2656C8.92278 15.0814 8.30599 15.9464 7.18132 16.2275C6.77964 16.3277 6.37256 16.0833 6.27214 15.6816C6.1719 15.28 6.41646 14.873 6.81804 14.7725C7.29299 14.6536 7.62166 14.2866 7.83855 13.7256C7.95414 13.4264 8.02297 13.1032 8.05925 12.8047H6.99968C6.58572 12.8045 6.24988 12.4686 6.24968 12.0547C6.24968 11.6406 6.5856 11.3048 6.99968 11.3047H8.71355L9.24968 11.126V9.34277C9.24957 8.79366 8.93305 8.48522 8.6198 8.4541ZM19.2487 10.084C18.035 8.51953 16.5227 8.35207 15.4909 8.4541C15.1778 8.4854 14.8611 8.79386 14.861 9.34277V11.1631L15.2858 11.3047H16.9997C17.4139 11.3047 17.7497 11.6405 17.7497 12.0547C17.7495 12.4687 17.4138 12.8047 16.9997 12.8047H15.9401C15.9764 13.1031 16.0452 13.4264 16.1608 13.7256C16.3777 14.2866 16.7065 14.6536 17.1813 14.7725C17.5831 14.8729 17.8275 15.2799 17.7272 15.6816C17.6267 16.0834 17.2198 16.3278 16.818 16.2275C15.7991 15.9727 15.1995 15.2376 14.861 14.4951V16.7617C15.0445 16.9746 15.5753 17.4681 16.7927 17.7725C17.5341 17.9578 18.1765 18.396 18.695 18.8682C19.0871 19.2252 19.4328 19.623 19.7214 20C19.9367 18.7041 20.1841 16.9037 20.2389 15.1484C20.27 14.154 20.2387 13.1927 20.1149 12.3564C19.9894 11.5089 19.7769 10.8511 19.487 10.416L19.2487 10.084Z" fill="#363538"/>
</svg>
