<svg width="24" height="24" viewBox="0 0 24 24" fill="none" xmlns="http://www.w3.org/2000/svg">
<path fill-rule="evenodd" clip-rule="evenodd" d="M6.71211 3.35349C6.74863 2.81126 7.34524 2.46681 7.83308 2.70629L10.3323 3.93315C10.5001 4.01555 10.6958 4.03207 10.8807 3.97945L13.6335 3.19601C14.1708 3.04308 14.6689 3.47995 14.5693 4.01685L14.059 6.76733C14.0247 6.95206 14.0621 7.14005 14.1638 7.2941L15.678 9.58767C15.9736 10.0354 15.6848 10.6498 15.1354 10.7422L13.2803 11.054L19.8388 20.4143C20.0764 20.7535 19.9941 21.2212 19.6549 21.4589C19.3157 21.6966 18.848 21.6143 18.6103 21.2751L11.794 11.5468L10.0202 13.6954C9.66556 14.125 8.98902 14.0679 8.74909 13.5881L7.5199 11.13C7.43734 10.9649 7.29324 10.8385 7.11613 10.7758L4.47898 9.84248C3.96421 9.6603 3.83489 9.01054 4.23601 8.62165L6.29088 6.6294C6.42889 6.4956 6.51245 6.31782 6.52501 6.13126L6.71211 3.35349ZM8.02162 6.23206L8.13652 4.52624L9.67125 5.27965C10.1823 5.53051 10.7607 5.5732 11.2913 5.42216L12.8661 4.97398L12.5841 6.4937C12.4805 7.05256 12.5922 7.63609 12.912 8.12053L13.7881 9.44757L12.0722 9.73595C11.5273 9.82755 11.0322 10.1134 10.6804 10.5395L9.57271 11.8813L8.86151 10.4591C8.60188 9.93988 8.1524 9.55136 7.61657 9.36173L6.15947 8.84605L7.335 7.70635C7.73114 7.32229 7.98337 6.80004 8.02162 6.23206Z" fill="#363538"/>
</svg>
