<svg width="24" height="24" viewBox="0 0 24 24" fill="none" xmlns="http://www.w3.org/2000/svg">
<path fill-rule="evenodd" clip-rule="evenodd" d="M11.2659 5.51134C11.5181 4.82988 12.4819 4.82988 12.7341 5.51134L13.0831 6.45465C13.1624 6.6689 13.3313 6.83782 13.5456 6.9171L14.4889 7.26616C15.1704 7.51832 15.1704 8.48217 14.4889 8.73433L13.5456 9.08339C13.3313 9.16267 13.1624 9.33159 13.0831 9.54583L12.7341 10.4892C12.4819 11.1706 11.5181 11.1706 11.2659 10.4892L10.9169 9.54583C10.8376 9.33159 10.6687 9.16267 10.4544 9.08339L9.51109 8.73433C8.82964 8.48217 8.82964 7.51832 9.51109 7.26616L10.4544 6.9171C10.6687 6.83782 10.8376 6.6689 10.9169 6.45465L11.2659 5.51134ZM11.5643 8.00024C11.7285 7.87537 11.8751 7.72877 12 7.56453C12.1249 7.72877 12.2715 7.87537 12.4357 8.00024C12.2715 8.12512 12.1249 8.27172 12 8.43596C11.8751 8.27172 11.7285 8.12512 11.5643 8.00024Z" fill="#363538"/>
<path d="M6.80458 11.5403C7.01455 11.2438 7.48005 11.3686 7.51365 11.7303L7.56016 12.2311C7.57072 12.3448 7.63044 12.4482 7.72366 12.5143L8.13407 12.8049C8.43056 13.0149 8.30583 13.4804 7.94408 13.514L7.44332 13.5605C7.32959 13.5711 7.22615 13.6308 7.16013 13.724L6.86947 14.1344C6.6595 14.4309 6.194 14.3062 6.1604 13.9444L6.1139 13.4437C6.10333 13.3299 6.04361 13.2265 5.9504 13.1605L5.53998 12.8698C5.24349 12.6598 5.36822 12.1943 5.72998 12.1607L6.23073 12.1142C6.34447 12.1037 6.44791 12.0439 6.51392 11.9507L6.80458 11.5403Z" fill="#363538"/>
<path d="M13.5143 14.0188C13.5446 13.545 14.148 13.3646 14.4334 13.7441L14.8285 14.2693C14.9182 14.3886 15.0556 14.4628 15.2045 14.4723L15.8604 14.5143C16.3342 14.5447 16.5146 15.1481 16.1351 15.4335L15.6099 15.8285C15.4906 15.9183 15.4164 16.0556 15.4069 16.2046L15.3649 16.8605C15.3345 17.3343 14.7311 17.5147 14.4457 17.1352L14.0507 16.61C13.9609 16.4907 13.8236 16.4165 13.6746 16.407L13.0187 16.365C12.5449 16.3346 12.3645 15.7312 12.744 15.4458L13.2692 15.0507C13.3885 14.961 13.4627 14.8236 13.4722 14.6747L13.5143 14.0188Z" fill="#363538"/>
<path fill-rule="evenodd" clip-rule="evenodd" d="M18.4561 17.2707C20.0305 15.65 21 13.4383 21 11.0002C21 8.54734 20.0187 6.32362 18.4273 4.70024C16.7939 3.03402 14.5177 2.00024 12 2.00024C7.02944 2.00024 3 6.02968 3 11.0002C3 13.4383 3.9694 15.6498 5.54378 17.2706L5.1632 18.0794C4.30494 19.9033 5.63572 22.0002 7.65148 22.0002H16.3484C18.3642 22.0002 19.695 19.9032 18.8366 18.0792L18.4561 17.2707ZM12 18.5002C16.1421 18.5002 19.5 15.1424 19.5 11.0002C19.5 8.95564 18.6838 7.10466 17.3561 5.75031C15.9932 4.36001 14.0984 3.50024 12 3.50024C7.85786 3.50024 4.5 6.85811 4.5 11.0002C4.5 15.1424 7.85786 18.5002 12 18.5002ZM17.2783 18.2907C15.7955 19.3661 13.9718 20.0002 12 20.0002C10.0281 20.0002 8.20439 19.3661 6.72156 18.2906L6.52045 18.718C6.13033 19.5471 6.73523 20.5002 7.65148 20.5002H16.3484C17.2646 20.5002 17.8695 19.547 17.4794 18.718L17.2783 18.2907Z" fill="#363538"/>
</svg>
