<svg width="24" height="24" viewBox="0 0 24 24" fill="none" xmlns="http://www.w3.org/2000/svg">
<path fill-rule="evenodd" clip-rule="evenodd" d="M6.73205 1.99997C5.77547 2.55226 5.44772 3.77544 6 4.73202L15 20.3205C15.5523 21.2771 16.7755 21.6048 17.7321 21.0525C18.6886 20.5002 19.0164 19.2771 18.4641 18.3205L9.4641 2.73202C8.91182 1.77544 7.68864 1.44769 6.73205 1.99997ZM8.79312 4.56984L8.16506 3.48202C8.02699 3.24288 7.7212 3.16094 7.48205 3.29901C7.2429 3.43708 7.16097 3.74288 7.29904 3.98202L7.95934 5.12569L8.79312 4.56984ZM9.54467 5.87158L8.71089 6.42743L16.299 19.5705C16.4371 19.8096 16.7429 19.8916 16.9821 19.7535C17.2212 19.6154 17.3031 19.3096 17.1651 19.0705L9.54467 5.87158Z" fill="#363538"/>
<path fill-rule="evenodd" clip-rule="evenodd" d="M15.7341 2.51107C15.4819 1.82961 14.5181 1.82961 14.2659 2.51107L13.9169 3.45438C13.8376 3.66863 13.6687 3.83755 13.4544 3.91683L12.5111 4.26589C11.8296 4.51805 11.8296 5.48189 12.5111 5.73406L13.4544 6.08311C13.6687 6.16239 13.8376 6.33132 13.9169 6.54556L14.2659 7.48888C14.5181 8.17034 15.4819 8.17034 15.7341 7.48888L16.0831 6.54556C16.1624 6.33132 16.3313 6.16239 16.5456 6.08311L17.4889 5.73406C18.1704 5.48189 18.1704 4.51805 17.4889 4.26589L16.5456 3.91683C16.3313 3.83755 16.1624 3.66863 16.0831 3.45438L15.7341 2.51107ZM15 4.56426C14.8751 4.7285 14.7285 4.8751 14.5643 4.99997C14.7285 5.12485 14.8751 5.27144 15 5.43568C15.1249 5.27144 15.2715 5.12485 15.4357 4.99997C15.2715 4.8751 15.1249 4.7285 15 4.56426Z" fill="#363538"/>
<path fill-rule="evenodd" clip-rule="evenodd" d="M5.73408 7.51107C5.48192 6.82961 4.51808 6.82961 4.26592 7.51107L3.91686 8.45438C3.83758 8.66863 3.66866 8.83755 3.45441 8.91683L2.51109 9.26589C1.82964 9.51805 1.82964 10.4819 2.51109 10.7341L3.45441 11.0831C3.66866 11.1624 3.83758 11.3313 3.91686 11.5456L4.26592 12.4889C4.51808 13.1703 5.48192 13.1703 5.73408 12.4889L6.08314 11.5456C6.16242 11.3313 6.33134 11.1624 6.54559 11.0831L7.48891 10.7341C8.17036 10.4819 8.17036 9.51805 7.48891 9.26589L6.54559 8.91683C6.33134 8.83755 6.16242 8.66863 6.08314 8.45438L5.73408 7.51107ZM5 9.56426C4.87513 9.7285 4.72853 9.8751 4.56429 9.99997C4.72853 10.1248 4.87513 10.2714 5 10.4357C5.12487 10.2714 5.27147 10.1248 5.43571 9.99997C5.27147 9.8751 5.12487 9.7285 5 9.56426Z" fill="#363538"/>
<path fill-rule="evenodd" clip-rule="evenodd" d="M18.2659 9.51107C18.5181 8.82961 19.4819 8.82961 19.7341 9.51107L20.0831 10.4544C20.1624 10.6686 20.3313 10.8376 20.5456 10.9168L21.4889 11.2659C22.1704 11.5181 22.1704 12.4819 21.4889 12.7341L20.5456 13.0831C20.3313 13.1624 20.1624 13.3313 20.0831 13.5456L19.7341 14.4889C19.4819 15.1703 18.5181 15.1703 18.2659 14.4889L17.9169 13.5456C17.8376 13.3313 17.6687 13.1624 17.4544 13.0831L16.5111 12.7341C15.8296 12.4819 15.8296 11.5181 16.5111 11.2659L17.4544 10.9168C17.6687 10.8376 17.8376 10.6686 17.9169 10.4544L18.2659 9.51107ZM18.5643 12C18.7285 11.8751 18.8751 11.7285 19 11.5643C19.1249 11.7285 19.2715 11.8751 19.4357 12C19.2715 12.1248 19.1249 12.2714 19 12.4357C18.8751 12.2714 18.7285 12.1248 18.5643 12Z" fill="#363538"/>
</svg>
