<svg width="24" height="24" viewBox="0 0 24 24" fill="none" xmlns="http://www.w3.org/2000/svg">
<path fill-rule="evenodd" clip-rule="evenodd" d="M16.1943 4.4C16.1943 4.41442 16.1947 4.42875 16.1955 4.44297C15.51 4.61004 15 5.24371 15 5.9999V8.3999C15 9.28356 15.6964 9.9999 16.5556 9.9999H20.4444C21.3036 9.9999 22 9.28356 22 8.3999V5.9999C22 5.24363 21.4899 4.60991 20.8042 4.44292C20.805 4.42871 20.8054 4.4144 20.8054 4.4V4.1C20.8054 2.82219 19.793 1.75 18.4999 1.75C17.2068 1.75 16.1943 2.82219 16.1943 4.1V4.4ZM18.4999 3.25C18.0748 3.25 17.6943 3.6105 17.6943 4.1V4.3999H19.3054V4.1C19.3054 3.6105 18.925 3.25 18.4999 3.25ZM16.5311 5.91415C16.515 5.93067 16.5 5.9582 16.5 5.9999V8.3999C16.5 8.4416 16.515 8.46913 16.5311 8.48566C16.5392 8.49397 16.5457 8.49751 16.5485 8.4987C16.5485 8.4987 16.5513 8.4999 16.5556 8.4999H20.4444C20.4487 8.4999 20.4515 8.4987 20.4515 8.4987C20.4543 8.49751 20.4608 8.49397 20.4689 8.48566C20.485 8.46913 20.5 8.4416 20.5 8.3999V5.9999C20.5 5.9582 20.485 5.93067 20.4689 5.91415C20.4608 5.90584 20.4543 5.90229 20.4515 5.90111C20.4515 5.90111 20.4487 5.8999 20.4444 5.8999H16.5556C16.5513 5.8999 16.5485 5.90111 16.5485 5.90111C16.5457 5.90229 16.5392 5.90584 16.5311 5.91415Z" fill="#363538"/>
<path d="M14 4.75C14 4.33579 13.6642 4 13.25 4H6C3.79086 4 2 5.79086 2 8V16C2 18.2091 3.79086 20 6 20H18C20.2091 20 22 18.2091 22 16V11.75C22 11.3358 21.6642 11 21.25 11C20.8358 11 20.5 11.3358 20.5 11.75V16C20.5 17.3807 19.3807 18.5 18 18.5H6C4.61929 18.5 3.5 17.3807 3.5 16V8C3.5 6.61929 4.61929 5.5 6 5.5H13.25C13.6642 5.5 14 5.16421 14 4.75Z" fill="#363538"/>
<path d="M15.1667 10C14.9438 10 14.7338 10.105 14.6 10.2834C13.3 12.0167 10.7 12.0167 9.40004 10.2834L6.60004 6.55004C6.35152 6.21867 5.88141 6.15152 5.55004 6.40004C5.21867 6.64857 5.15152 7.11867 5.40004 7.45004L8.20004 11.1834C10.1 13.7167 13.9 13.7167 15.8 11.1834C16.1657 10.6958 15.8178 10 15.2084 10H15.1667Z" fill="#363538"/>
</svg>
