<svg width="24" height="24" viewBox="0 0 24 24" fill="none" xmlns="http://www.w3.org/2000/svg">
<path fill-rule="evenodd" clip-rule="evenodd" d="M19.2308 6.24376C19.2308 7.19964 18.4559 7.97453 17.5 7.97453C16.5441 7.97453 15.7692 7.19964 15.7692 6.24376C15.7692 5.28789 16.5441 4.513 17.5 4.513C18.4559 4.513 19.2308 5.28789 19.2308 6.24376ZM17.7308 6.24376C17.7308 6.37122 17.6275 6.47453 17.5 6.47453C17.3726 6.47453 17.2692 6.37122 17.2692 6.24376C17.2692 6.11631 17.3726 6.013 17.5 6.013C17.6275 6.013 17.7308 6.11631 17.7308 6.24376Z" fill="#363538"/>
<path fill-rule="evenodd" clip-rule="evenodd" d="M19.3603 10.365L20.1397 9.91496C20.5702 9.66643 20.7177 9.116 20.4691 8.68553C20.1887 8.19989 20.5392 7.59285 21.1 7.59285C21.5971 7.59285 22 7.1899 22 6.69285V5.79285C22 5.29579 21.5971 4.89285 21.1 4.89285C20.5392 4.89285 20.1888 4.28579 20.4691 3.80015C20.7177 3.36969 20.5702 2.81926 20.1397 2.57073L19.3603 2.12073C18.9298 1.8722 18.3794 2.01969 18.1309 2.45015C17.8505 2.9358 17.1495 2.93579 16.8691 2.45015C16.6206 2.01969 16.0702 1.8722 15.6397 2.12073L14.8603 2.57073C14.4298 2.81926 14.2823 3.36969 14.5309 3.80015C14.8112 4.28579 14.4608 4.89285 13.9 4.89285C13.4029 4.89285 13 5.29579 13 5.79285V6.69285C13 7.1899 13.4029 7.59285 13.9 7.59285C14.4608 7.59285 14.8113 8.1999 14.5309 8.68554C14.2823 9.116 14.4298 9.66643 14.8603 9.91496L15.6397 10.365C16.0702 10.6135 16.6206 10.466 16.8691 10.0355C17.1495 9.5499 17.8505 9.5499 18.1309 10.0355C18.3794 10.466 18.9298 10.6135 19.3603 10.365ZM16.1063 3.82892C16.264 4.85039 15.6761 5.86866 14.7126 6.24285C15.6761 6.61704 16.264 7.6353 16.1063 8.65677C16.9121 8.00949 18.0879 8.00948 18.8937 8.65676C18.736 7.63529 19.3239 6.61703 20.2874 6.24285C19.3239 5.86866 18.736 4.85039 18.8937 3.82892C18.0879 4.47621 16.9121 4.4762 16.1063 3.82892Z" fill="#363538"/>
<path d="M11.25 4C11.6642 4 12 4.33579 12 4.75C12 5.16421 11.6642 5.5 11.25 5.5H6C4.61929 5.5 3.5 6.61929 3.5 8V16C3.5 17.3807 4.61929 18.5 6 18.5H18C19.3807 18.5 20.5 17.3807 20.5 16V11.75C20.5 11.3358 20.8358 11 21.25 11C21.6642 11 22 11.3358 22 11.75V16C22 18.2091 20.2091 20 18 20H6C3.79086 20 2 18.2091 2 16V8C2 5.79086 3.79086 4 6 4H11.25Z" fill="#363538"/>
<path d="M13.4929 11.2228C13.7653 11.0823 14.095 11.0816 14.3549 11.2439C14.7819 11.5106 14.9113 12.1243 14.4821 12.3874C12.4739 13.618 9.72496 13.2166 8.19998 11.1833L5.39998 7.45001C5.15145 7.11864 5.21861 6.64854 5.54998 6.40001C5.88135 6.15149 6.35145 6.21864 6.59998 6.55001L9.39998 10.2833C10.3923 11.6064 12.1421 11.9196 13.4929 11.2228Z" fill="#363538"/>
</svg>
