<svg width="24" height="24" viewBox="0 0 24 24" fill="none" xmlns="http://www.w3.org/2000/svg">
<path d="M19.75 3C19.75 2.58579 19.4142 2.25 19 2.25C18.5858 2.25 18.25 2.58579 18.25 3V4.25H17C16.5858 4.25 16.25 4.58579 16.25 5C16.25 5.41421 16.5858 5.75 17 5.75H18.25V7C18.25 7.41421 18.5858 7.75 19 7.75C19.4142 7.75 19.75 7.41421 19.75 7V5.75H21C21.4142 5.75 21.75 5.41421 21.75 5C21.75 4.58579 21.4142 4.25 21 4.25H19.75V3Z" fill="#363538"/>
<path d="M15 4.75C15 4.33579 14.6642 4 14.25 4H6C3.79086 4 2 5.79086 2 8V16C2 18.2091 3.79086 20 6 20H18C20.2091 20 22 18.2091 22 16V10.75C22 10.3358 21.6642 10 21.25 10C20.8358 10 20.5 10.3358 20.5 10.75V16C20.5 17.3807 19.3807 18.5 18 18.5H6C4.61929 18.5 3.5 17.3807 3.5 16V8C3.5 6.61929 4.61929 5.5 6 5.5H14.25C14.6642 5.5 15 5.16421 15 4.75Z" fill="#363538"/>
<path d="M16.6875 7.99997C16.4514 7.99997 16.2291 8.11111 16.0875 8.29997L14.6 10.2833C13.3 12.0166 10.7 12.0166 9.39998 10.2833L6.59998 6.54998C6.35146 6.21861 5.88135 6.15145 5.54998 6.39998C5.21861 6.64851 5.15145 7.11861 5.39998 7.44998L8.19998 11.1833C10.1 13.7166 13.9 13.7166 15.8 11.1833L17.2875 9.19997C17.6583 8.70554 17.3055 7.99997 16.6875 7.99997Z" fill="#363538"/>
</svg>
