<svg width="24" height="24" viewBox="0 0 24 24" fill="none" xmlns="http://www.w3.org/2000/svg">
<path d="M19.75 4C19.75 3.58579 19.4142 3.25 19 3.25C18.5858 3.25 18.25 3.58579 18.25 4V5.4C18.25 5.81421 18.5858 6.15 19 6.15H20C20.4142 6.15 20.75 5.81421 20.75 5.4C20.75 4.98579 20.4142 4.65 20 4.65H19.75V4Z" fill="#363538"/>
<path fill-rule="evenodd" clip-rule="evenodd" d="M19 9C21.2091 9 23 7.20914 23 5C23 2.79086 21.2091 1 19 1C16.7909 1 15 2.79086 15 5C15 7.20914 16.7909 9 19 9ZM19 7.5C20.3807 7.5 21.5 6.38071 21.5 5C21.5 3.61929 20.3807 2.5 19 2.5C17.6193 2.5 16.5 3.61929 16.5 5C16.5 6.38071 17.6193 7.5 19 7.5Z" fill="#363538"/>
<path d="M13.25 4C13.6642 4 14 4.33579 14 4.75C14 5.16421 13.6642 5.5 13.25 5.5H6C4.61929 5.5 3.5 6.61929 3.5 8V16C3.5 17.3807 4.61929 18.5 6 18.5H18C19.3807 18.5 20.5 17.3807 20.5 16V10.75C20.5 10.3358 20.8358 10 21.25 10C21.6642 10 22 10.3358 22 10.75V16C22 18.2091 20.2091 20 18 20H6C3.79086 20 2 18.2091 2 16V8C2 5.79086 3.79086 4 6 4H13.25Z" fill="#363538"/>
<path d="M15.3376 9.30003C15.4792 9.11118 15.7015 9.00003 15.9376 9.00003C16.5556 9.00003 16.9084 9.7056 16.5376 10.2L15.8 11.1834C13.9 13.7167 10.1 13.7167 8.20004 11.1834L5.40004 7.45004C5.15152 7.11867 5.21867 6.64857 5.55004 6.40004C5.88141 6.15152 6.35152 6.21867 6.60004 6.55004L9.40004 10.2834C10.7 12.0167 13.3 12.0167 14.6 10.2834L15.3376 9.30003Z" fill="#363538"/>
</svg>
