<svg width="24" height="24" viewBox="0 0 24 24" fill="none" xmlns="http://www.w3.org/2000/svg">
<path d="M19 2.25C19.4142 2.25 19.75 2.58579 19.75 3V6.18934L20.4697 5.46967C20.7626 5.17678 21.2374 5.17678 21.5303 5.46967C21.8232 5.76256 21.8232 6.23744 21.5303 6.53033L19.5303 8.53033C19.4584 8.60224 19.3755 8.65649 19.2871 8.69309C19.2099 8.72509 19.1262 8.74458 19.0386 8.74902C19.0258 8.74967 19.0129 8.75 19 8.75C18.8983 8.75 18.8013 8.72976 18.7129 8.69309C18.6245 8.65649 18.5416 8.60224 18.4697 8.53033L16.4697 6.53033C16.1768 6.23744 16.1768 5.76256 16.4697 5.46967C16.7626 5.17678 17.2374 5.17678 17.5303 5.46967L18.25 6.18934V3C18.25 2.58579 18.5858 2.25 19 2.25Z" fill="#363538"/>
<path d="M14.25 4C14.6642 4 15 4.33579 15 4.75C15 5.16421 14.6642 5.5 14.25 5.5H6C4.61929 5.5 3.5 6.61929 3.5 8V16C3.5 17.3807 4.61929 18.5 6 18.5H18C19.3807 18.5 20.5 17.3807 20.5 16V10.75C20.5 10.3358 20.8358 10 21.25 10C21.6642 10 22 10.3358 22 10.75V16C22 18.2091 20.2091 20 18 20H6C3.79086 20 2 18.2091 2 16V8C2 5.79086 3.79086 4 6 4H14.25Z" fill="#363538"/>
<path d="M16.0875 8.30005C16.2291 8.11119 16.4514 8.00005 16.6875 8.00005C17.3055 8.00005 17.6583 8.70562 17.2875 9.20005L15.8 11.1833C13.9 13.7167 10.1 13.7167 8.19998 11.1833L5.39998 7.45001C5.15145 7.11864 5.21861 6.64854 5.54998 6.40001C5.88135 6.15149 6.35146 6.21864 6.59998 6.55001L9.39998 10.2833C10.7 12.0167 13.3 12.0167 14.6 10.2833L16.0875 8.30005Z" fill="#363538"/>
</svg>
