<svg width="24" height="24" viewBox="0 0 24 24" fill="none" xmlns="http://www.w3.org/2000/svg">
<path d="M17.5303 5.53033C17.2374 5.82322 16.7626 5.82322 16.4697 5.53033C16.1768 5.23744 16.1768 4.76256 16.4697 4.46967L18.4697 2.46967C18.6155 2.3238 18.8066 2.25057 18.9978 2.25L19 2.25L19.0022 2.25C19.1031 2.2503 19.1993 2.27051 19.2871 2.30691C19.3755 2.34351 19.4584 2.39776 19.5303 2.46967L21.5303 4.46967C21.8232 4.76256 21.8232 5.23744 21.5303 5.53033C21.2374 5.82322 20.7626 5.82322 20.4697 5.53033L19.75 4.81066V8C19.75 8.41421 19.4142 8.75 19 8.75C18.5858 8.75 18.25 8.41421 18.25 8V4.81066L17.5303 5.53033Z" fill="#363538"/>
<path d="M14.25 4C14.6642 4 15 4.33579 15 4.75C15 5.16421 14.6642 5.5 14.25 5.5H6C4.61929 5.5 3.5 6.61929 3.5 8V16C3.5 17.3807 4.61929 18.5 6 18.5H18C19.3807 18.5 20.5 17.3807 20.5 16V10.75C20.5 10.3358 20.8358 10 21.25 10C21.6642 10 22 10.3358 22 10.75V16C22 18.2091 20.2091 20 18 20H6C3.79086 20 2 18.2091 2 16V8C2 5.79086 3.79086 4 6 4H14.25Z" fill="#363538"/>
<path d="M16.0875 8.30005C16.2291 8.11119 16.4514 8.00005 16.6875 8.00005C17.3055 8.00005 17.6583 8.70562 17.2875 9.20005L15.8 11.1833C13.9 13.7167 10.1 13.7167 8.19998 11.1833L5.39998 7.45001C5.15145 7.11864 5.21861 6.64854 5.54998 6.40001C5.88135 6.15149 6.35146 6.21864 6.59998 6.55001L9.39998 10.2833C10.7 12.0167 13.3 12.0167 14.6 10.2833L16.0875 8.30005Z" fill="#363538"/>
</svg>
