<svg width="24" height="24" viewBox="0 0 24 24" fill="none" xmlns="http://www.w3.org/2000/svg">
<path d="M18.5303 2.46967C18.2374 2.17678 17.7626 2.17678 17.4697 2.46967C17.1768 2.76256 17.1768 3.23744 17.4697 3.53033L18.4393 4.5L17.4697 5.46967C17.1768 5.76256 17.1768 6.23744 17.4697 6.53033C17.7626 6.82322 18.2374 6.82322 18.5303 6.53033L19.5 5.56066L20.4697 6.53033C20.7626 6.82322 21.2374 6.82322 21.5303 6.53033C21.8232 6.23744 21.8232 5.76256 21.5303 5.46967L20.5607 4.5L21.5303 3.53033C21.8232 3.23744 21.8232 2.76256 21.5303 2.46967C21.2374 2.17678 20.7626 2.17678 20.4697 2.46967L19.5 3.43934L18.5303 2.46967Z" fill="#363538"/>
<path d="M15 4.75C15 4.33579 14.6642 4 14.25 4H6C3.79086 4 2 5.79086 2 8V16C2 18.2091 3.79086 20 6 20H18C20.2091 20 22 18.2091 22 16V10.75C22 10.3358 21.6642 10 21.25 10C20.8358 10 20.5 10.3358 20.5 10.75V16C20.5 17.3807 19.3807 18.5 18 18.5H6C4.61929 18.5 3.5 17.3807 3.5 16V8C3.5 6.61929 4.61929 5.5 6 5.5H14.25C14.6642 5.5 15 5.16421 15 4.75Z" fill="#363538"/>
<path d="M16.6875 7.99997C16.4514 7.99997 16.2291 8.11111 16.0875 8.29997L14.6 10.2833C13.3 12.0166 10.7 12.0166 9.39998 10.2833L6.59998 6.54998C6.35146 6.21861 5.88135 6.15145 5.54998 6.39998C5.21861 6.64851 5.15145 7.11861 5.39998 7.44998L8.19998 11.1833C10.1 13.7166 13.9 13.7166 15.8 11.1833L17.2875 9.19997C17.6583 8.70554 17.3055 7.99997 16.6875 7.99997Z" fill="#363538"/>
</svg>
