<svg width="24" height="24" viewBox="0 0 24 24" fill="none" xmlns="http://www.w3.org/2000/svg">
<path d="M20.8487 2.87942C20.8668 2.39918 20.4824 2 20.0018 2C19.5216 2 19.1373 2.39857 19.1548 2.87846L19.2415 5.25376C19.2564 5.66214 19.5918 5.98551 20.0004 5.98551C20.4087 5.98551 20.744 5.66265 20.7593 5.25462L20.8487 2.87942Z" fill="#363538"/>
<path d="M19.2909 8.69082C19.4879 8.89694 19.7242 9 20 9C20.1818 9 20.347 8.9533 20.4955 8.8599C20.647 8.76329 20.7682 8.63446 20.8591 8.47343C20.953 8.3124 21 8.13366 21 7.9372C21 7.64734 20.9 7.39936 20.7 7.19324C20.503 6.98712 20.2697 6.88406 20 6.88406C19.7242 6.88406 19.4879 6.98712 19.2909 7.19324C19.097 7.39936 19 7.64734 19 7.9372C19 8.23349 19.097 8.4847 19.2909 8.69082Z" fill="#363538"/>
<path d="M15 4.75C15 4.33579 14.6642 4 14.25 4H6C3.79086 4 2 5.79086 2 8V16C2 18.2091 3.79086 20 6 20H18C20.2091 20 22 18.2091 22 16V10.75C22 10.3358 21.6642 10 21.25 10C20.8358 10 20.5 10.3358 20.5 10.75V16C20.5 17.3807 19.3807 18.5 18 18.5H6C4.61929 18.5 3.5 17.3807 3.5 16V8C3.5 6.61929 4.61929 5.5 6 5.5H14.25C14.6642 5.5 15 5.16421 15 4.75Z" fill="#363538"/>
<path d="M16.6875 7.99997C16.4514 7.99997 16.2291 8.11111 16.0875 8.29997L14.6 10.2833C13.3 12.0166 10.7 12.0166 9.39998 10.2833L6.59998 6.54998C6.35146 6.21861 5.88135 6.15145 5.54998 6.39998C5.21861 6.64851 5.15145 7.11861 5.39998 7.44998L8.19998 11.1833C10.1 13.7166 13.9 13.7166 15.8 11.1833L17.2875 9.19997C17.6583 8.70554 17.3055 7.99997 16.6875 7.99997Z" fill="#363538"/>
</svg>
