<svg width="24" height="24" viewBox="0 0 24 24" fill="none" xmlns="http://www.w3.org/2000/svg">
<path fill-rule="evenodd" clip-rule="evenodd" d="M4.5 7.99976V17.3398C4.5 18.3447 5.73349 18.827 6.4151 18.0886L6.96621 18.5973L7.51731 19.106C5.90952 20.8478 3 19.7102 3 17.3398V7.99976C3 7.05549 3.44458 6.16633 4.2 5.59976L7.51672 3.11222C8.42577 2.43043 9.64201 2.32077 10.6584 2.82894L14.3081 4.65381C15.327 5.16328 16.5546 4.99135 17.3944 4.22156C19.1572 2.60562 22 3.85615 22 6.24757V15.5946C22 16.485 21.6045 17.3293 20.9206 17.8993L17.6911 20.5905C16.6846 21.4292 15.2503 21.5178 14.1483 20.8094L10.8388 18.6818C9.77544 17.9983 8.37473 18.1771 7.51731 19.106L6.96621 18.5973L6.4151 18.0886C6.92851 17.5324 7.56552 17.1468 8.25 16.9416V4.43726L5.1 6.79976C4.72229 7.08305 4.5 7.52763 4.5 7.99976ZM11.6499 17.4201C11.0621 17.0422 10.4088 16.8315 9.75 16.7804V4.07612C9.83089 4.10054 9.91037 4.132 9.98754 4.17058L13.6373 5.99545C14.1512 6.25241 14.6994 6.39723 15.25 6.4344V19.6927C15.1496 19.6556 15.0522 19.6072 14.9594 19.5476L11.6499 17.4201ZM16.75 19.4222L19.9603 16.747C20.3023 16.462 20.5 16.0398 20.5 15.5946V6.24757C20.5 5.16131 19.2087 4.59328 18.408 5.32729C17.923 5.77188 17.3543 6.08745 16.75 6.26728V19.4222Z" fill="#363538"/>
</svg>
