<svg width="24" height="24" viewBox="0 0 24 24" fill="none" xmlns="http://www.w3.org/2000/svg">
<path fill-rule="evenodd" clip-rule="evenodd" d="M10.9057 3.56971C13.6829 5.34591 15.525 8.45719 15.525 12C15.525 15.5428 13.6829 18.6541 10.9057 20.4303C11.2638 20.4763 11.629 20.5 12 20.5C16.6944 20.5 20.5 16.6944 20.5 12C20.5 7.30558 16.6944 3.5 12 3.5C11.629 3.5 11.2638 3.52372 10.9057 3.56971ZM8.7625 19.8619C11.8521 18.5882 14.025 15.547 14.025 12C14.025 8.45303 11.8521 5.41178 8.7625 4.13807C5.67289 5.41178 3.5 8.45303 3.5 12C3.5 15.547 5.67289 18.5882 8.7625 19.8619ZM8.49997 2.62984C9.59031 2.2224 10.77 2 12 2C17.5228 2 22 6.47715 22 12C22 17.5228 17.5228 22 12 22C10.77 22 9.59031 21.7776 8.49997 21.3702C4.70447 19.9519 2 16.2927 2 12C2 7.70729 4.70447 4.04814 8.49997 2.62984Z" fill="#363538"/>
</svg>
