<svg width="24" height="24" viewBox="0 0 24 24" fill="none" xmlns="http://www.w3.org/2000/svg">
<path d="M6 3.25C6.41421 3.25 6.75 3.58579 6.75 4V6.25H9C9.41421 6.25 9.75 6.58579 9.75 7C9.75 7.41421 9.41421 7.75 9 7.75H6.75V10C6.75 10.4142 6.41421 10.75 6 10.75C5.58579 10.75 5.25 10.4142 5.25 10V7.75H3C2.58579 7.75 2.25 7.41421 2.25 7C2.25 6.58579 2.58579 6.25 3 6.25H5.25V4C5.25 3.58579 5.58579 3.25 6 3.25Z" fill="#363538"/>
<path d="M15 6.25C14.5858 6.25 14.25 6.58579 14.25 7C14.25 7.41421 14.5858 7.75 15 7.75H21C21.4142 7.75 21.75 7.41421 21.75 7C21.75 6.58579 21.4142 6.25 21 6.25H15Z" fill="#363538"/>
<path d="M3 13.75C2.58579 13.75 2.25 14.0858 2.25 14.5C2.25 14.9142 2.58579 15.25 3 15.25H9C9.41421 15.25 9.75 14.9142 9.75 14.5C9.75 14.0858 9.41421 13.75 9 13.75H3Z" fill="#363538"/>
<path d="M3 18.75C2.58579 18.75 2.25 19.0858 2.25 19.5C2.25 19.9142 2.58579 20.25 3 20.25H9C9.41421 20.25 9.75 19.9142 9.75 19.5C9.75 19.0858 9.41421 18.75 9 18.75H3Z" fill="#363538"/>
<path d="M18 15.9393L15.5303 13.4697C15.2374 13.1768 14.7626 13.1768 14.4697 13.4697C14.1768 13.7626 14.1768 14.2374 14.4697 14.5303L16.9393 17L14.4697 19.4697C14.1768 19.7626 14.1768 20.2374 14.4697 20.5303C14.7626 20.8232 15.2374 20.8232 15.5303 20.5303L18 18.0607L20.4697 20.5303C20.7626 20.8232 21.2374 20.8232 21.5303 20.5303C21.8232 20.2374 21.8232 19.7626 21.5303 19.4697L19.0607 17L21.5303 14.5303C21.8232 14.2374 21.8232 13.7626 21.5303 13.4697C21.2374 13.1768 20.7626 13.1768 20.4697 13.4697L18 15.9393Z" fill="#363538"/>
</svg>
