<svg width="24" height="24" viewBox="0 0 24 24" fill="none" xmlns="http://www.w3.org/2000/svg">
<path fill-rule="evenodd" clip-rule="evenodd" d="M22 18C22 20.2091 20.2091 22 18 22H6C3.79086 22 2 20.2091 2 18V6C2 3.79086 3.79086 2 6 2H18C20.2091 2 22 3.79086 22 6V18ZM3.5 18C3.5 19.3807 4.61929 20.5 6 20.5H6.75V17.75H3.5V18ZM3.5 6C3.5 4.61929 4.61929 3.5 6 3.5H6.75V6.25H3.5V6ZM18 3.5C19.3807 3.5 20.5 4.61929 20.5 6V6.25H17.25V3.5H18ZM20.5 18C20.5 19.3807 19.3807 20.5 18 20.5H17.25V17.75H20.5V18ZM15.75 20.5H8.25V12.75H15.75V20.5ZM6.75 12.75V16.25H3.5V12.75H6.75ZM6.75 11.25H3.5V7.75H6.75V11.25ZM8.25 3.5H15.75V11.25H8.25V3.5ZM17.25 7.75H20.5V11.25H17.25V7.75ZM17.25 12.75H20.5V16.25H17.25V12.75Z" fill="#363538"/>
</svg>
