<svg width="24" height="24" viewBox="0 0 24 24" fill="none" xmlns="http://www.w3.org/2000/svg">
<path d="M12.25 12.75C12.6642 12.75 13 13.0858 13 13.5V14.25H13.75C14.1642 14.25 14.5 14.5858 14.5 15C14.5 15.4142 14.1642 15.75 13.75 15.75H13V16.5C13 16.9142 12.6642 17.25 12.25 17.25C11.8358 17.25 11.5 16.9142 11.5 16.5V15.75H10.75C10.3358 15.75 10 15.4142 10 15C10 14.5858 10.3358 14.25 10.75 14.25H11.5V13.5C11.5 13.0858 11.8358 12.75 12.25 12.75Z" fill="#363538"/>
<path fill-rule="evenodd" clip-rule="evenodd" d="M14 2C14.9664 2.00011 15.75 2.78357 15.75 3.75V5.75C15.75 6.55877 15.2005 7.23689 14.4551 7.4375C14.6786 7.77654 15.0635 8 15.5 8H16C17.5187 8.00011 18.75 9.23129 18.75 10.75V19.2725C18.7499 20.7791 17.5369 22.0056 16.0303 22.0225L8.03027 22.1113C6.49978 22.1282 5.25 20.892 5.25 19.3613V10.75C5.25 9.23122 6.48122 8 8 8H8.5C8.93611 7.99993 9.31937 7.77609 9.54297 7.4375C8.7983 7.2364 8.25 6.55825 8.25 5.75V3.75C8.25 2.7835 9.0335 2 10 2H14ZM6.75781 19.5C6.82735 20.1302 7.36491 20.6184 8.01367 20.6113L16.0137 20.5225C16.6207 20.5157 17.1212 20.0765 17.2275 19.5H6.75781ZM6.75 12.5V18H17.25V12.5H6.75ZM11.1436 7.5C10.8169 8.65382 9.75843 9.49991 8.5 9.5H8C7.30964 9.5 6.75 10.0596 6.75 10.75V11H17.25V10.75C17.25 10.0597 16.6903 9.50011 16 9.5H15.5C14.2414 9.5 13.1821 8.65396 12.8555 7.5H11.1436ZM10 3.5C9.86193 3.5 9.75 3.61193 9.75 3.75V5.75C9.75 5.88807 9.86193 6 10 6H14C14.138 5.99989 14.25 5.888 14.25 5.75V3.75C14.25 3.612 14.138 3.50011 14 3.5H10Z" fill="#363538"/>
</svg>
