<svg width="24" height="24" viewBox="0 0 24 24" fill="none" xmlns="http://www.w3.org/2000/svg">
<path d="M21.75 5.00024C21.75 4.58603 21.4142 4.25024 21 4.25024H3C2.58579 4.25024 2.25 4.58603 2.25 5.00024C2.25 5.41446 2.58579 5.75024 3 5.75024H21C21.4142 5.75024 21.75 5.41446 21.75 5.00024Z" fill="#363538"/>
<path d="M21.75 12.0002C21.75 11.586 21.4142 11.2502 21 11.2502H11C10.5858 11.2502 10.25 11.586 10.25 12.0002C10.25 12.4145 10.5858 12.7502 11 12.7502H21C21.4142 12.7502 21.75 12.4145 21.75 12.0002Z" fill="#363538"/>
<path d="M21 18.2502C21.4142 18.2502 21.75 18.586 21.75 19.0002C21.75 19.4145 21.4142 19.7502 21 19.7502H17C16.5858 19.7502 16.25 19.4145 16.25 19.0002C16.25 18.586 16.5858 18.2502 17 18.2502H21Z" fill="#363538"/>
</svg>
