<svg width="24" height="24" viewBox="0 0 24 24" fill="none" xmlns="http://www.w3.org/2000/svg">
<path d="M2.25 5.00024C2.25 4.58603 2.58579 4.25024 3 4.25024H21C21.4142 4.25024 21.75 4.58603 21.75 5.00024C21.75 5.41446 21.4142 5.75024 21 5.75024H3C2.58579 5.75024 2.25 5.41446 2.25 5.00024Z" fill="#363538"/>
<path d="M2.25 12.0002C2.25 11.586 2.58579 11.2502 3 11.2502H13C13.4142 11.2502 13.75 11.586 13.75 12.0002C13.75 12.4145 13.4142 12.7502 13 12.7502H3C2.58579 12.7502 2.25 12.4145 2.25 12.0002Z" fill="#363538"/>
<path d="M3 18.2502C2.58579 18.2502 2.25 18.586 2.25 19.0002C2.25 19.4145 2.58579 19.7502 3 19.7502H7C7.41421 19.7502 7.75 19.4145 7.75 19.0002C7.75 18.586 7.41421 18.2502 7 18.2502H3Z" fill="#363538"/>
</svg>
