<svg width="24" height="24" viewBox="0 0 24 24" fill="none" xmlns="http://www.w3.org/2000/svg">
<path fill-rule="evenodd" clip-rule="evenodd" d="M3.91096 11.6976L4.24782 15.0161C4.24558 15.0375 4.24135 15.0699 4.23344 15.1116C4.21378 15.2154 4.17171 15.3752 4.0821 15.5658C3.90722 15.9378 3.53448 16.4639 2.71282 16.9253C2.52067 17.0332 2.31811 17.2207 2.22865 17.5098C2.13933 17.7984 2.19981 18.0686 2.29729 18.2693C2.47496 18.6352 2.83586 18.9126 3.21333 19.1242C4.00696 19.5691 5.35467 19.9859 7.38513 20.2415L8.80694 20.5043L9.43546 20.724C15.4527 22.8275 21.75 18.3671 21.75 11.9965V11.6596C21.75 6.73812 17.7557 2.75 12.8305 2.75C7.90522 2.75 3.91096 6.73812 3.91096 11.6596V11.6976ZM5.74999 14.9615L5.41106 11.6226C5.43104 7.54823 8.74432 4.25 12.8305 4.25C16.929 4.25 20.25 7.56826 20.25 11.6596V11.9965C20.25 17.3315 14.975 21.0715 9.93045 19.308L9.19303 19.0502L7.61481 18.7585L7.59306 18.7558C5.72858 18.5227 4.6099 18.1623 4.02955 17.8604C4.76417 17.3245 5.19384 16.7266 5.43955 16.204C5.58969 15.8847 5.66722 15.602 5.70723 15.3908C5.72724 15.2852 5.73794 15.1971 5.74364 15.1306C5.74649 15.0974 5.7481 15.0694 5.74899 15.0473C5.74943 15.0363 5.7497 15.0267 5.74985 15.0186L5.75001 15.0076L5.75004 15.003L5.75004 15.0009L5.75004 14.9989L5.74999 14.9615Z" fill="#363538"/>
<path d="M13.0366 10.0969C12.6756 9.73593 12.0633 9.86162 11.8737 10.3355L11.6966 10.7784C11.5427 11.163 11.1062 11.35 10.7217 11.1962C10.3371 11.0424 10.15 10.6059 10.3038 10.2213L10.481 9.77845C11.0705 8.30468 12.9748 7.9138 14.0972 9.03619C15.1643 10.1033 14.8724 11.9023 13.5226 12.5772L13.23 12.7234C12.936 12.8705 12.7502 13.171 12.7502 13.4998C12.7502 13.914 12.4144 14.2498 12.0002 14.2498C11.586 14.2498 11.2502 13.914 11.2502 13.4998C11.2502 12.6029 11.757 11.7829 12.5592 11.3818L12.8518 11.2355C13.2858 11.0185 13.3797 10.44 13.0366 10.0969Z" fill="#363538"/>
<path d="M12.7502 15.5C12.7502 15.0858 12.4144 14.75 12.0002 14.75C11.586 14.75 11.2502 15.0858 11.2502 15.5V15.55C11.2502 15.9642 11.586 16.3 12.0002 16.3C12.4144 16.3 12.7502 15.9642 12.7502 15.55V15.5Z" fill="#363538"/>
</svg>
