<svg width="24" height="24" viewBox="0 0 24 24" fill="none" xmlns="http://www.w3.org/2000/svg">
<path d="M13.0364 10.0969C12.6754 9.73594 12.0631 9.86164 11.8735 10.3356L11.6964 10.7784C11.5425 11.163 11.106 11.35 10.7215 11.1962C10.3369 11.0424 10.1498 10.6059 10.3036 10.2213L10.4808 9.77847C11.0703 8.3047 12.9746 7.91382 14.097 9.03621C15.1641 10.1033 14.8722 11.9023 13.5224 12.5772L13.2298 12.7235C12.9358 12.8705 12.75 13.1711 12.75 13.4998C12.75 13.9141 12.4142 14.2498 12 14.2498C11.5858 14.2498 11.25 13.9141 11.25 13.4998C11.25 12.6029 11.7568 11.7829 12.559 11.3818L12.8516 11.2355C13.2856 11.0185 13.3795 10.44 13.0364 10.0969Z" fill="#363538"/>
<path d="M12.75 15.5C12.75 15.0858 12.4142 14.75 12 14.75C11.5858 14.75 11.25 15.0858 11.25 15.5V15.55C11.25 15.9642 11.5858 16.3 12 16.3C12.4142 16.3 12.75 15.9642 12.75 15.55V15.5Z" fill="#363538"/>
<path fill-rule="evenodd" clip-rule="evenodd" d="M2.25 8C2.25 5.37665 4.37665 3.25 7 3.25H17C19.6234 3.25 21.75 5.37665 21.75 8V14.3656C21.75 16.787 19.787 18.75 17.3656 18.75C16.6669 18.75 15.992 19.0036 15.4662 19.4637L13.8109 20.9121C12.7741 21.8193 11.2259 21.8193 10.1891 20.912L8.53382 19.4637C8.00802 19.0036 7.33309 18.75 6.63442 18.75C4.21297 18.75 2.25 16.787 2.25 14.3656V8ZM7 4.75C5.20507 4.75 3.75 6.20507 3.75 8V14.3656C3.75 15.9586 5.0414 17.25 6.63442 17.25C7.69643 17.25 8.72234 17.6355 9.52158 18.3348L11.1769 19.7832C11.6482 20.1956 12.3518 20.1956 12.8231 19.7832L14.4784 18.3348C15.2777 17.6355 16.3036 17.25 17.3656 17.25C18.9586 17.25 20.25 15.9586 20.25 14.3656V8C20.25 6.20507 18.7949 4.75 17 4.75H7Z" fill="#363538"/>
</svg>
