<svg width="24" height="24" viewBox="0 0 24 24" fill="none" xmlns="http://www.w3.org/2000/svg">
<path fill-rule="evenodd" clip-rule="evenodd" d="M5.411 11.6226L5.74993 14.9615L5.74998 14.9989L4.99998 15C5.74998 14.9989 5.74998 14.9985 5.74998 14.9989L5.74998 15.0009L5.74997 15.003L5.74995 15.0076L5.74979 15.0186C5.74964 15.0267 5.74937 15.0363 5.74892 15.0473C5.74803 15.0694 5.74643 15.0974 5.74358 15.1306C5.73788 15.1971 5.72718 15.2852 5.70717 15.3908C5.66716 15.602 5.58963 15.8847 5.43949 16.204C5.19378 16.7266 4.76411 17.3245 4.02949 17.8604C4.60984 18.1623 5.72852 18.5227 7.593 18.7558L7.61475 18.7585L9.19297 19.0502L9.93039 19.308C14.975 21.0715 20.2499 17.3315 20.2499 11.9965V11.6596C20.2499 7.56826 16.929 4.25 12.8304 4.25C8.74426 4.25 5.43098 7.54823 5.411 11.6226ZM4.24776 15.0161L3.9109 11.6976V11.6596C3.9109 6.73812 7.90516 2.75 12.8304 2.75C17.7557 2.75 21.7499 6.73812 21.7499 11.6596V11.9965C21.7499 18.3671 15.4527 22.8275 9.4354 20.724L8.80688 20.5043L7.38507 20.2415C5.35461 19.9859 4.0069 19.5691 3.21327 19.1242C2.8358 18.9126 2.47489 18.6352 2.29723 18.2693C2.19975 18.0686 2.13927 17.7984 2.22859 17.5098C2.31805 17.2207 2.52061 17.0332 2.71276 16.9253C3.53442 16.4639 3.90716 15.9378 4.08204 15.5658C4.17165 15.3752 4.21372 15.2154 4.23338 15.1116C4.24129 15.0699 4.24552 15.0375 4.24776 15.0161Z" fill="#363538"/>
</svg>
