<svg width="24" height="24" viewBox="0 0 24 24" fill="none" xmlns="http://www.w3.org/2000/svg">
<path d="M17.5303 11.0303C17.8232 10.7374 17.8232 10.2626 17.5303 9.96968C17.2374 9.67678 16.7626 9.67678 16.4697 9.96968L13.9044 12.5349L11.416 10.876C11.1186 10.6777 10.7225 10.7169 10.4697 10.9697L7.96968 13.4697C7.67679 13.7626 7.67679 14.2374 7.96968 14.5303C8.26257 14.8232 8.73745 14.8232 9.03034 14.5303L11.0956 12.4651L13.584 14.124C13.8815 14.3224 14.2775 14.2831 14.5303 14.0303L17.5303 11.0303Z" fill="#363538"/>
<path fill-rule="evenodd" clip-rule="evenodd" d="M19.2525 4.85536C15.2716 1.07352 8.94057 1.37539 5.33758 5.51884C2.77597 8.46468 2.24376 12.6646 3.98961 16.1563L4.69026 17.5576L4.00544 19.612C3.52444 21.055 4.98643 22.3824 6.37638 21.7646L8.55784 20.7951L10.3168 21.2876C16.179 22.929 22.0674 18.7641 22.4724 12.6899C22.662 9.84464 21.5758 7.06255 19.5084 5.09854L19.2525 4.85536ZM6.46949 6.50311C9.51189 3.00435 14.8578 2.74944 18.2193 5.94286L18.4753 6.18604C20.2194 7.84288 21.1357 10.1899 20.9757 12.5901C20.6341 17.7143 15.6666 21.2278 10.7212 19.8431L8.44218 19.205L5.76717 20.3939C5.56861 20.4821 5.35975 20.2925 5.42846 20.0864L6.30976 17.4425L5.33125 15.4854C3.85704 12.537 4.30644 8.9906 6.46949 6.50311Z" fill="#363538"/>
</svg>
