<svg width="24" height="24" viewBox="0 0 24 24" fill="none" xmlns="http://www.w3.org/2000/svg">
<path fill-rule="evenodd" clip-rule="evenodd" d="M5.41093 11.6226C5.43092 7.54823 8.7442 4.25 12.8304 4.25C13.3511 4.25 13.8585 4.30346 14.3477 4.40493C14.7533 4.48906 15.1503 4.22847 15.2344 3.82289C15.3185 3.41731 15.058 3.02032 14.6524 2.93619C14.0635 2.81406 13.454 2.75 12.8304 2.75C7.9051 2.75 3.91084 6.73812 3.91084 11.6596V11.6976L4.2477 15.0161C4.24546 15.0375 4.24123 15.0699 4.23332 15.1116C4.21366 15.2154 4.17159 15.3752 4.08198 15.5658C3.90709 15.9378 3.53436 16.4639 2.7127 16.9253C2.52055 17.0332 2.31799 17.2207 2.22853 17.5098C2.13921 17.7984 2.19969 18.0686 2.29717 18.2693C2.47483 18.6352 2.83574 18.9126 3.21321 19.1242C4.00684 19.5691 5.35455 19.9859 7.38501 20.2415L8.80682 20.5043L9.43534 20.724C15.4526 22.8275 21.7499 18.3671 21.7499 11.9965V11.6596C21.7499 10.8444 21.6401 10.0536 21.434 9.30174C21.3245 8.90226 20.9119 8.66718 20.5124 8.77668C20.1129 8.88617 19.8779 9.29877 19.9873 9.69825C20.1583 10.3221 20.2499 10.9796 20.2499 11.6596V11.9965C20.2499 17.3315 14.9749 21.0715 9.93033 19.308L9.19291 19.0502L7.61469 18.7585L7.59294 18.7558C5.72846 18.5227 4.60978 18.1623 4.02943 17.8604C4.76405 17.3245 5.19372 16.7266 5.43943 16.204C5.58956 15.8847 5.6671 15.602 5.70711 15.3908C5.72712 15.2852 5.73782 15.1971 5.74352 15.1306C5.74637 15.0974 5.74797 15.0694 5.74886 15.0473C5.74931 15.0363 5.74958 15.0267 5.74973 15.0186L5.74988 15.0076L5.74991 15.003L5.74992 15.0009C5.74992 15.0009 6.45711 14.9989 5.70711 15L5.74992 14.9989L5.74987 14.9615L5.41093 11.6226Z" fill="#363538"/>
<path d="M19.75 3C19.75 2.58579 19.4142 2.25 19 2.25C18.5858 2.25 18.25 2.58579 18.25 3V4.25H17C16.5858 4.25 16.25 4.58579 16.25 5C16.25 5.41421 16.5858 5.75 17 5.75H18.25V7C18.25 7.41421 18.5858 7.75 19 7.75C19.4142 7.75 19.75 7.41421 19.75 7V5.75H21C21.4142 5.75 21.75 5.41421 21.75 5C21.75 4.58579 21.4142 4.25 21 4.25H19.75V3Z" fill="#363538"/>
<path d="M8.99997 13.5C9.55226 13.5 9.99997 13.0523 9.99997 12.5C9.99997 11.9477 9.55226 11.5 8.99997 11.5C8.44769 11.5 7.99997 11.9477 7.99997 12.5C7.99997 13.0523 8.44769 13.5 8.99997 13.5Z" fill="#363538"/>
<path d="M13 13.5C13.5523 13.5 14 13.0523 14 12.5C14 11.9477 13.5523 11.5 13 11.5C12.4477 11.5 12 11.9477 12 12.5C12 13.0523 12.4477 13.5 13 13.5Z" fill="#363538"/>
<path d="M18 12.5C18 13.0523 17.5523 13.5 17 13.5C16.4477 13.5 16 13.0523 16 12.5C16 11.9477 16.4477 11.5 17 11.5C17.5523 11.5 18 11.9477 18 12.5Z" fill="#363538"/>
</svg>
