<svg width="24" height="24" viewBox="0 0 24 24" fill="none" xmlns="http://www.w3.org/2000/svg">
<path d="M8 12.5C8.55228 12.5 9 12.0523 9 11.5C9 10.9477 8.55228 10.5 8 10.5C7.44772 10.5 7 10.9477 7 11.5C7 12.0523 7.44772 12.5 8 12.5Z" fill="#363538"/>
<path d="M13 11.5C13 12.0523 12.5523 12.5 12 12.5C11.4477 12.5 11 12.0523 11 11.5C11 10.9477 11.4477 10.5 12 10.5C12.5523 10.5 13 10.9477 13 11.5Z" fill="#363538"/>
<path d="M16 12.5C16.5523 12.5 17 12.0523 17 11.5C17 10.9477 16.5523 10.5 16 10.5C15.4477 10.5 15 10.9477 15 11.5C15 12.0523 15.4477 12.5 16 12.5Z" fill="#363538"/>
<path fill-rule="evenodd" clip-rule="evenodd" d="M7 3.25C4.37665 3.25 2.25 5.37665 2.25 8V14.3656C2.25 16.787 4.21297 18.75 6.63442 18.75C7.33309 18.75 8.00802 19.0036 8.53382 19.4637L10.1891 20.912C11.2259 21.8193 12.7741 21.8193 13.8109 20.9121L15.4662 19.4637C15.992 19.0036 16.6669 18.75 17.3656 18.75C19.787 18.75 21.75 16.787 21.75 14.3656V8C21.75 5.37665 19.6234 3.25 17 3.25H7ZM3.75 8C3.75 6.20507 5.20507 4.75 7 4.75H17C18.7949 4.75 20.25 6.20507 20.25 8V14.3656C20.25 15.9586 18.9586 17.25 17.3656 17.25C16.3036 17.25 15.2777 17.6355 14.4784 18.3348L12.8231 19.7832C12.3518 20.1956 11.6482 20.1956 11.1769 19.7832L9.52158 18.3348C8.72234 17.6355 7.69643 17.25 6.63442 17.25C5.0414 17.25 3.75 15.9586 3.75 14.3656V8Z" fill="#363538"/>
</svg>
