<svg width="24" height="24" viewBox="0 0 24 24" fill="none" xmlns="http://www.w3.org/2000/svg">
<path d="M19.75 3C19.75 2.58579 19.4142 2.25 19 2.25C18.5858 2.25 18.25 2.58579 18.25 3V4.25H17C16.5858 4.25 16.25 4.58579 16.25 5C16.25 5.41421 16.5858 5.75 17 5.75H18.25V7C18.25 7.41421 18.5858 7.75 19 7.75C19.4142 7.75 19.75 7.41421 19.75 7V5.75H21C21.4142 5.75 21.75 5.41421 21.75 5C21.75 4.58579 21.4142 4.25 21 4.25H19.75V3Z" fill="#363538"/>
<path d="M2.25 8C2.25 5.37665 4.37665 3.25 7 3.25H14C14.4142 3.25 14.75 3.58579 14.75 4C14.75 4.41421 14.4142 4.75 14 4.75H7C5.20507 4.75 3.75 6.20507 3.75 8V14.3656C3.75 15.9586 5.0414 17.25 6.63442 17.25C7.69643 17.25 8.72234 17.6355 9.52158 18.3348L11.1769 19.7832C11.6482 20.1956 12.3518 20.1956 12.8231 19.7832L14.4784 18.3348C15.2777 17.6355 16.3036 17.25 17.3656 17.25C18.9586 17.25 20.25 15.9586 20.25 14.3656V9C20.25 8.58579 20.5858 8.25 21 8.25C21.4142 8.25 21.75 8.58579 21.75 9V14.3656C21.75 16.787 19.787 18.75 17.3656 18.75C16.6669 18.75 15.992 19.0036 15.4662 19.4637L13.8109 20.9121C12.7741 21.8193 11.2259 21.8193 10.1891 20.912L8.53382 19.4637C8.00802 19.0036 7.33309 18.75 6.63442 18.75C4.21297 18.75 2.25 16.787 2.25 14.3656V8Z" fill="#363538"/>
<path d="M7.25 9C7.25 8.58579 7.58579 8.25 8 8.25H15C15.4142 8.25 15.75 8.58579 15.75 9C15.75 9.41421 15.4142 9.75 15 9.75H8C7.58579 9.75 7.25 9.41421 7.25 9Z" fill="#363538"/>
<path d="M7.25 13C7.25 12.5858 7.58579 12.25 8 12.25H16C16.4142 12.25 16.75 12.5858 16.75 13C16.75 13.4142 16.4142 13.75 16 13.75H8C7.58579 13.75 7.25 13.4142 7.25 13Z" fill="#363538"/>
</svg>
