<svg width="24" height="24" viewBox="0 0 24 24" fill="none" xmlns="http://www.w3.org/2000/svg">
<path d="M19.588 12C19.8138 12.0001 19.9952 12.1863 19.9893 12.4121C19.7875 16.3897 16.6806 19.5991 12.7481 19.9639C12.7487 19.9759 12.7501 19.9879 12.7501 20V21C12.7501 21.4142 12.4143 21.75 12.0001 21.75C11.5859 21.75 11.2501 21.4142 11.2501 21V20C11.2501 19.9882 11.2505 19.9765 11.251 19.9648C10.1395 19.8612 9.09393 19.5298 8.1612 19.0186L9.27741 17.9023C10.1057 18.285 11.0278 18.5 12.0001 18.5C15.4774 18.4999 18.3169 15.769 18.4913 12.335C18.4962 12.1487 18.6487 12.0002 18.835 12H19.588Z" fill="#363538"/>
<path fill-rule="evenodd" clip-rule="evenodd" d="M12.0001 2C14.4173 2.00002 16.4981 3.43054 17.4483 5.49023L19.4698 3.46973C19.7627 3.17686 20.2375 3.17684 20.5303 3.46973C20.8232 3.76261 20.8232 4.23739 20.5303 4.53027L4.53034 20.5303C4.23746 20.8232 3.76269 20.8231 3.46979 20.5303C3.1769 20.2374 3.1769 19.7626 3.46979 19.4697L5.83893 17.0996C4.77316 15.814 4.10104 14.1902 4.01081 12.4121C4.00493 12.1864 4.18646 12.0002 4.41217 12H4.75983C5.16864 12 5.49607 12.333 5.54206 12.7393C5.68209 13.9762 6.17076 15.1066 6.90534 16.0332L7.26081 15.6777C6.47116 14.6619 6.00007 13.3863 6.00007 12V8C6.00007 4.68629 8.68636 2 12.0001 2ZM12.0001 3.5C9.51478 3.5 7.50007 5.51472 7.50007 8V12C7.50007 12.9716 7.80944 13.8701 8.33307 14.6055L16.2911 6.64746C15.7168 4.82334 14.0139 3.50002 12.0001 3.5Z" fill="#363538"/>
<path d="M18.0001 12C18.0001 15.3137 15.3137 18 12.0001 18C11.1684 18 10.3764 17.8303 9.65632 17.5244L10.834 16.3467C11.206 16.4462 11.5968 16.5 12.0001 16.5C14.4853 16.5 16.5001 14.4853 16.5001 12V10.6816L18.0001 9.18164V12Z" fill="#363538"/>
</svg>
