<svg width="24" height="24" viewBox="0 0 24 24" fill="none" xmlns="http://www.w3.org/2000/svg">
<path fill-rule="evenodd" clip-rule="evenodd" d="M3.75736 3.75736C5.89444 1.62028 9.24255 1.43234 11.5926 3.19352C11.8192 3.36334 12.0366 3.55129 12.2426 3.75736C13.7184 5.23307 14.2647 7.28624 13.8816 9.1895L20.0208 17.1924L19.1741 18.0391L19.2909 18.2992C19.3463 18.4225 19.4049 18.4817 19.445 18.5115C19.4854 18.5415 19.5323 18.5603 19.5913 18.5673C19.724 18.583 19.9085 18.5342 20.0601 18.4184C20.2491 18.2743 20.3424 18.0751 20.2592 17.6139C20.1694 17.1155 19.899 16.5113 19.5549 15.8058C19.5136 15.7211 19.4711 15.6347 19.4279 15.5469C19.1361 14.9538 18.8142 14.2995 18.6357 13.7089C18.4385 13.0562 18.3158 12.1531 18.9846 11.4843C19.2775 11.1914 19.7523 11.1914 20.0452 11.4843C20.3381 11.7772 20.3381 12.2521 20.0452 12.545C20.0069 12.5833 19.9037 12.7195 20.0716 13.2751C20.2115 13.738 20.4707 14.2663 20.77 14.8764C20.8136 14.9653 20.8581 15.0559 20.9031 15.1482C21.2339 15.8266 21.6029 16.6126 21.7354 17.3477C21.8747 18.12 21.7736 18.9977 20.9701 19.6109C20.5595 19.9242 19.9938 20.1254 19.4149 20.0569C18.8706 19.9924 18.3751 19.6944 18.0521 19.1611L17.1924 20.0208L9.1895 13.8816C7.28624 14.2647 5.23307 13.7184 3.75736 12.2426C3.54497 12.0302 3.35183 11.8059 3.17794 11.5717C1.43347 9.22274 1.62661 5.88811 3.75736 3.75736ZM17.0618 18.0301L10.6107 13.0813C10.9567 12.5891 11.355 12.0696 11.7123 11.7123C12.0696 11.355 12.5891 10.9567 13.0813 10.6107L18.0301 17.0618L17.0618 18.0301ZM10.6517 10.6517C11.1286 10.1747 11.784 9.68462 12.3277 9.30744L12.4111 8.89351C12.6881 7.51707 12.3186 6.04276 11.3074 4.94843C10.3735 5.39314 9.24948 6.06507 8.16941 6.97489C6.86417 8.07438 5.64973 9.49825 4.89756 11.2596C5.99679 12.3069 7.49562 12.6924 8.89351 12.4111L9.30744 12.3277C9.68462 11.784 10.1747 11.1286 10.6517 10.6517ZM7.20303 5.82767C8.12904 5.04763 9.08732 4.42335 9.96349 3.9496C8.28671 3.13667 6.20989 3.42614 4.81802 4.81802C3.45433 6.18171 3.14885 8.20288 3.90157 9.86114C4.76385 8.21004 5.96451 6.87096 7.20303 5.82767Z" fill="#363538"/>
</svg>
