<svg width="24" height="24" viewBox="0 0 24 24" fill="none" xmlns="http://www.w3.org/2000/svg">
<path fill-rule="evenodd" clip-rule="evenodd" d="M12 2C8.68629 2 6 4.68629 6 8V12C6 15.3137 8.68629 18 12 18C15.3137 18 18 15.3137 18 12V8C18 4.68629 15.3137 2 12 2ZM16.5 12V8C16.5 5.51472 14.4853 3.5 12 3.5C9.51472 3.5 7.5 5.51472 7.5 8V12C7.5 14.4853 9.51472 16.5 12 16.5C14.4853 16.5 16.5 14.4853 16.5 12Z" fill="#363538"/>
<path d="M12.7492 19.9654C12.7497 19.9769 12.75 19.9884 12.75 20V21C12.75 21.4142 12.4142 21.75 12 21.75C11.5858 21.75 11.25 21.4142 11.25 21V20C11.25 19.9884 11.2503 19.9769 11.2508 19.9654C7.43048 19.6106 4.38943 16.5696 4.03457 12.7493C3.99626 12.3369 4.33573 12 4.74994 12C5.16416 12 5.4954 12.3372 5.5426 12.7487C5.91388 15.9859 8.66332 18.5 11.9999 18.5C15.3366 18.5 18.086 15.9859 18.4573 12.7487C18.5045 12.3372 18.8357 12 19.2499 12C19.6642 12 20.0036 12.3369 19.9653 12.7493C19.6105 16.5695 16.5695 19.6105 12.7492 19.9654Z" fill="#363538"/>
</svg>
