<svg width="24" height="24" viewBox="0 0 24 24" fill="none" xmlns="http://www.w3.org/2000/svg">
<path d="M4.75966 12C5.16848 12 5.49592 12.333 5.54189 12.7393C5.90889 15.981 8.66008 18.4999 11.9999 18.5C15.4773 18.4999 18.3168 15.769 18.4911 12.335C18.496 12.1486 18.6485 12.0001 18.8349 12H19.5878C19.8137 12 19.995 12.1863 19.9892 12.4121C19.7873 16.3897 16.6804 19.5991 12.7479 19.9639C12.7485 19.9759 12.7499 19.9879 12.7499 20V21C12.7499 21.4142 12.4141 21.75 11.9999 21.75C11.5857 21.75 11.2499 21.4142 11.2499 21V20C11.2499 19.9879 11.2503 19.9758 11.2509 19.9639C7.31893 19.5986 4.21247 16.3893 4.01064 12.4121C4.00475 12.1864 4.18621 12.0002 4.412 12H4.75966Z" fill="#363538"/>
<path d="M11.9999 2C12.4141 2 12.7499 2.33579 12.7499 2.75C12.7499 3.16421 12.4141 3.5 11.9999 3.5C9.51478 3.5002 7.49989 5.51484 7.49989 8V12C7.49989 14.4852 9.51478 16.4998 11.9999 16.5C14.4852 16.5 16.4999 14.4853 16.4999 12V8C16.4999 7.58591 16.8359 7.2502 17.2499 7.25C17.6641 7.25 17.9999 7.58579 17.9999 8V12C17.9999 15.3137 15.3136 18 11.9999 18C8.68635 17.9998 5.99989 15.3136 5.99989 12V8C5.99989 4.68641 8.68635 2.0002 11.9999 2Z" fill="#363538"/>
<path d="M11.4999 5.25C11.781 5.25 12.0384 5.40725 12.1669 5.65723L12.5653 6.43359L13.3427 6.83301C13.5927 6.96149 13.7499 7.21891 13.7499 7.5C13.7499 7.78109 13.5927 8.03851 13.3427 8.16699L12.5653 8.56543L12.1669 9.34277C12.0384 9.59275 11.781 9.75 11.4999 9.75C11.2189 9.74995 10.9614 9.59274 10.8329 9.34277L10.4335 8.56543L9.65712 8.16699C9.40718 8.03849 9.2499 7.78105 9.2499 7.5C9.2499 7.21895 9.40718 6.96151 9.65712 6.83301L10.4335 6.43359L10.8329 5.65723L10.8866 5.56836C11.0258 5.37058 11.2538 5.25005 11.4999 5.25Z" fill="#363538"/>
<path fill-rule="evenodd" clip-rule="evenodd" d="M15.9999 1.25C16.281 1.25 16.5384 1.40725 16.6669 1.65723L17.2352 2.76367L18.3427 3.33301C18.5927 3.46149 18.7499 3.71891 18.7499 4C18.7499 4.28109 18.5927 4.53851 18.3427 4.66699L17.2352 5.23535L16.6669 6.34277C16.5384 6.59275 16.281 6.75 15.9999 6.75C15.7189 6.74995 15.4614 6.59274 15.3329 6.34277L14.7636 5.23535L13.6571 4.66699C13.4072 4.53849 13.2499 4.28105 13.2499 4C13.2499 3.71895 13.4072 3.46151 13.6571 3.33301L14.7636 2.76367L15.3329 1.65723L15.3866 1.56836C15.5258 1.37058 15.7538 1.25005 15.9999 1.25ZM15.9882 3.66406C15.9166 3.80329 15.8032 3.91672 15.664 3.98828L15.6405 4L15.664 4.01172L15.7636 4.07324C15.8574 4.14181 15.9346 4.23163 15.9882 4.33594L15.9999 4.3584L16.0116 4.33594C16.0832 4.19672 16.1966 4.0833 16.3358 4.01172L16.3583 4L16.3358 3.98828C16.1966 3.9167 16.0832 3.80328 16.0116 3.66406L15.9999 3.64062L15.9882 3.66406Z" fill="#363538"/>
</svg>
