<svg width="24" height="24" viewBox="0 0 24 24" fill="none" xmlns="http://www.w3.org/2000/svg">
<path d="M3.74994 8C3.74994 6.20507 5.20501 4.75 6.99994 4.75H16.9999C18.7949 4.75 20.2499 6.20507 20.2499 8V16C20.2499 17.7949 18.7949 19.25 16.9999 19.25H12.9999C12.5857 19.25 12.2499 19.5858 12.2499 20C12.2499 20.4142 12.5857 20.75 12.9999 20.75H16.9999C19.6233 20.75 21.7499 18.6234 21.7499 16V8C21.7499 5.37665 19.6233 3.25 16.9999 3.25H6.99994C4.37658 3.25 2.24993 5.37665 2.24993 8V10C2.24993 10.4142 2.58572 10.75 2.99993 10.75C3.41415 10.75 3.74994 10.4142 3.74994 10V8Z" fill="#363538"/>
<path d="M2.74356 14.9408C2.92234 15.3127 3.3677 15.4701 3.74014 15.2939L3.74744 15.2906C3.7564 15.2867 3.77305 15.2796 3.79677 15.2702C3.84432 15.2513 3.91945 15.2238 4.0173 15.1947C4.2144 15.1362 4.49517 15.0742 4.82328 15.0615C5.46448 15.0367 6.29605 15.1961 7.08546 15.9855C7.87486 16.7749 8.03428 17.6064 8.00941 18.2477C7.99669 18.5758 7.9347 18.8565 7.8762 19.0536C7.84715 19.1515 7.81959 19.2266 7.80077 19.2742C7.79138 19.2979 7.78425 19.3145 7.7803 19.3235L7.77704 19.3308C7.60084 19.7032 7.75821 20.1486 8.13009 20.3274C8.5034 20.5068 8.95152 20.3497 9.13099 19.9764L9.13169 19.9749L9.13249 19.9732L9.13438 19.9692L9.1393 19.9587C9.14306 19.9505 9.14778 19.9401 9.15332 19.9275C9.1644 19.9023 9.1788 19.8684 9.19545 19.8263C9.22869 19.7423 9.2712 19.6253 9.31419 19.4805C9.39976 19.1922 9.48968 18.7856 9.50828 18.3058C9.54608 17.3311 9.28587 16.0646 8.14612 14.9248C7.00636 13.7851 5.73979 13.5249 4.76515 13.5626C4.28534 13.5813 3.87875 13.6712 3.59047 13.7567C3.44564 13.7997 3.32858 13.8422 3.24461 13.8755C3.20257 13.8921 3.16862 13.9065 3.14344 13.9176C3.13085 13.9232 3.12042 13.9279 3.11225 13.9316L3.10169 13.9366L3.09769 13.9384L3.09601 13.9392C3.09601 13.9392 3.11225 13.9316 3.10169 13.9366L3.09455 13.9399C2.72124 14.1194 2.56409 14.5675 2.74356 14.9408Z" fill="#363538"/>
<path fill-rule="evenodd" clip-rule="evenodd" d="M5.50824 18.5837L5.50951 18.5806C5.51272 18.5725 5.51927 18.555 5.52672 18.5299C5.54202 18.4783 5.55845 18.4037 5.56178 18.3178C5.56786 18.1611 5.53427 17.9587 5.32333 17.7478C5.1124 17.5368 4.90996 17.5032 4.75327 17.5093C4.66742 17.5126 4.59276 17.5291 4.54121 17.5444C4.51612 17.5518 4.49804 17.5584 4.48993 17.5616L4.48736 17.5629C4.11639 17.7337 3.67561 17.5759 3.49798 17.2064C3.31851 16.8331 3.47566 16.385 3.84897 16.2055L3.85037 16.2049L3.85186 16.2042L3.85512 16.2026L3.86274 16.1991L3.88231 16.1903C3.89725 16.1837 3.91603 16.1758 3.93836 16.1669C3.98289 16.1493 4.04232 16.1278 4.11438 16.1064C4.25711 16.064 4.45759 16.0197 4.69515 16.0104C5.18527 15.9914 5.8227 16.1258 6.38399 16.6871C6.94528 17.2484 7.07966 17.8858 7.06066 18.3759C7.05144 18.6135 7.00707 18.814 6.96471 18.9567C6.94332 19.0288 6.92182 19.0882 6.90419 19.1327C6.89535 19.1551 6.8874 19.1738 6.88083 19.1888L6.87202 19.2084L6.86848 19.216L6.86694 19.2192L6.86622 19.2207L6.86555 19.2221C6.68609 19.5954 6.23797 19.7526 5.86465 19.5731C5.49517 19.3955 5.33744 18.9547 5.50824 18.5837ZM4.48993 17.5616L4.48736 17.5629L4.4863 17.5633L4.48993 17.5616Z" fill="#363538"/>
<path fill-rule="evenodd" clip-rule="evenodd" d="M3.32425 13.194L3.3222 13.195C2.94943 13.3724 2.50302 13.2151 2.32398 12.8427C2.14451 12.4694 2.30166 12.0213 2.67497 11.8418L2.67648 11.8411L2.67832 11.8402L2.68293 11.838L2.69595 11.832C2.7063 11.8272 2.71996 11.821 2.73683 11.8136C2.77055 11.7988 2.81714 11.779 2.87563 11.7558C2.99248 11.7096 3.15758 11.6495 3.36309 11.5885C3.7727 11.467 4.35113 11.3391 5.03293 11.3126C6.41153 11.2592 8.20263 11.6243 9.82468 13.2463C11.4467 14.8684 11.8118 16.6595 11.7584 18.0381C11.7319 18.7199 11.604 19.2983 11.4825 19.7079C11.4215 19.9134 11.3614 20.0785 11.3152 20.1954C11.292 20.2539 11.2722 20.3004 11.2574 20.3342C11.25 20.351 11.2438 20.3647 11.239 20.375L11.233 20.3881L11.2308 20.3927L11.2299 20.3945L11.2292 20.396C11.0497 20.7693 10.6016 20.9265 10.2283 20.747C9.85585 20.568 9.69857 20.1216 9.876 19.7488L9.87665 19.7474L9.88437 19.7302C9.89208 19.7127 9.90459 19.6834 9.92049 19.6432C9.95233 19.5628 9.99741 19.4396 10.0445 19.2811C10.139 18.9626 10.2389 18.51 10.2595 17.9799C10.3 16.9348 10.0357 15.5787 8.76402 14.307C7.49233 13.0353 6.13622 12.771 5.09105 12.8115C4.56096 12.8321 4.10836 12.932 3.78992 13.0265C3.63139 13.0736 3.50821 13.1187 3.42778 13.1505C3.38763 13.1664 3.35833 13.1789 3.34082 13.1866L3.32425 13.194Z" fill="#363538"/>
</svg>
