<svg width="24" height="24" viewBox="0 0 24 24" fill="none" xmlns="http://www.w3.org/2000/svg">
<path d="M12.0596 7.96973C12.3525 7.67708 12.8273 7.67691 13.1201 7.96973C13.4127 8.26256 13.4127 8.73744 13.1201 9.03027L9.62012 12.5303C9.32731 12.8231 8.85248 12.8229 8.55957 12.5303C8.26668 12.2374 8.26668 11.7626 8.55957 11.4697L12.0596 7.96973Z" fill="#363538"/>
<path d="M9.05957 7.46973C9.35248 7.17703 9.82729 7.1769 10.1201 7.46973C10.4127 7.76257 10.4127 8.23743 10.1201 8.53027L9.03027 9.62012C8.73743 9.91275 8.26257 9.91275 7.96973 9.62012C7.6769 9.32729 7.67703 8.85248 7.96973 8.55957L9.05957 7.46973Z" fill="#363538"/>
<path fill-rule="evenodd" clip-rule="evenodd" d="M12 2C16.931 2 20.75 6.58306 20.75 12C20.75 17.4169 16.931 22 12 22C7.069 22 3.25 17.4169 3.25 12C3.25 6.58306 7.069 2 12 2ZM12 3.5C8.09445 3.5 4.75 7.19967 4.75 12C4.75 16.8003 8.09445 20.5 12 20.5C15.9056 20.5 19.25 16.8003 19.25 12C19.25 7.19967 15.9056 3.5 12 3.5Z" fill="#363538"/>
</svg>
