<svg width="24" height="24" viewBox="0 0 24 24" fill="none" xmlns="http://www.w3.org/2000/svg">
<path fill-rule="evenodd" clip-rule="evenodd" d="M7.50863 2.43343C7.73778 2.23467 8.0641 2.19353 8.33542 2.32918L10.0002 3.16148L11.6646 2.3292C11.8758 2.22361 12.1243 2.22361 12.3355 2.3292L13.9999 3.16148L15.6646 2.32918C15.936 2.19353 16.2623 2.23467 16.4914 2.43343C16.7206 2.63218 16.8075 2.94941 16.7115 3.23718L16.2668 4.57143C16.5948 4.44315 16.9391 4.32456 17.2858 4.22769C17.8 4.08399 18.3472 3.98006 18.8695 3.97504C19.386 3.97009 19.9444 4.06141 20.4162 4.37597C20.7609 4.60574 20.854 5.07139 20.6242 5.41604C20.3945 5.76068 19.9288 5.85381 19.5842 5.62405C19.456 5.53861 19.2352 5.4716 18.8839 5.47498C18.5385 5.47829 18.1295 5.54936 17.6895 5.67233C17.3464 5.76821 17.0015 5.89075 16.6761 6.02303C19.4529 7.83857 21.1148 11.434 20.9996 14.7759C20.9317 16.7431 20.2501 18.6856 18.7647 20.171C17.2764 21.6593 15.0521 22.618 12.0326 22.7493C12.0109 22.7502 11.9892 22.7502 11.9675 22.7493C8.94794 22.618 6.72372 21.6593 5.23539 20.171C3.74998 18.6856 3.06836 16.7431 3.0005 14.7759C2.87521 11.1434 4.84962 7.21136 8.07317 5.59111L7.28852 3.23718C7.1926 2.94941 7.27947 2.63218 7.50863 2.43343ZM8.96493 6.82744C6.24016 8.0624 4.38728 11.4674 4.49961 14.7242C4.55679 16.3819 5.1252 17.9395 6.29605 19.1103C7.45931 20.2736 9.28759 21.1252 12 21.2493C14.7125 21.1252 16.5408 20.2736 17.704 19.1103C18.8749 17.9395 19.4433 16.3819 19.5005 14.7242C19.6133 11.4527 17.7432 8.03169 14.9982 6.81087C12.3865 7.82702 10.1188 7.36305 8.96493 6.82744ZM14.3979 5.43462C12.2217 6.2618 10.4095 5.83898 9.61604 5.47631L9.2841 4.4805L9.66481 4.67084C9.87596 4.77641 10.1245 4.7764 10.3356 4.67082L12 3.83855L13.6644 4.67082C13.8756 4.7764 14.1241 4.77641 14.3353 4.67084L14.716 4.4805L14.3979 5.43462Z" fill="#363538"/>
<path fill-rule="evenodd" clip-rule="evenodd" d="M11.9048 10.375C12.25 10.375 12.5298 10.6548 12.5298 11V11.0066C13.7071 11.1287 14.625 12.1238 14.625 13.3333C14.625 13.6785 14.3452 13.9583 14 13.9583C13.6549 13.9583 13.375 13.6785 13.375 13.3333C13.375 12.8157 13.0139 12.3823 12.5298 12.2715V13.9943C13.6897 14.0102 14.625 14.9554 14.625 16.1191C14.625 17.2827 13.6897 18.2279 12.5298 18.2439C12.5267 18.5864 12.2481 18.8631 11.9048 18.8631C11.5596 18.8631 11.2798 18.5833 11.2798 18.2381V18.2038C10.1955 18.0001 9.37503 17.0482 9.37503 15.9048C9.37503 15.5596 9.65485 15.2798 10 15.2798C10.3452 15.2798 10.625 15.5596 10.625 15.9048C10.625 16.3519 10.8944 16.7361 11.2798 16.9039V15.2328C10.2097 15.1226 9.37503 14.2183 9.37503 13.1191C9.37503 12.0198 10.2097 11.1155 11.2798 11.0053V11C11.2798 10.6548 11.5596 10.375 11.9048 10.375ZM11.2798 12.272C10.9032 12.3697 10.625 12.7119 10.625 13.1191C10.625 13.5262 10.9032 13.8685 11.2798 13.9661V12.272ZM12.5298 15.2446V16.9936C12.9993 16.9779 13.375 16.5923 13.375 16.1191C13.375 15.6458 12.9993 15.2602 12.5298 15.2446Z" fill="#363538"/>
</svg>
