<svg width="24" height="24" viewBox="0 0 24 24" fill="none" xmlns="http://www.w3.org/2000/svg">
<path fill-rule="evenodd" clip-rule="evenodd" d="M15 12C15 13.6569 13.6569 15 12 15C10.3431 15 9 13.6569 9 12C9 10.3431 10.3431 9 12 9C13.6569 9 15 10.3431 15 12ZM13.5 12C13.5 12.8284 12.8284 13.5 12 13.5C11.1716 13.5 10.5 12.8284 10.5 12C10.5 11.1716 11.1716 10.5 12 10.5C12.8284 10.5 13.5 11.1716 13.5 12Z" fill="#363538"/>
<path fill-rule="evenodd" clip-rule="evenodd" d="M18 4H6C3.79086 4 2 5.79086 2 8V16C2 18.2091 3.79086 20 6 20H18C20.2091 20 22 18.2091 22 16V8C22 5.79086 20.2091 4 18 4ZM17.25 5.5H6.75V6C6.75 7.51878 5.51878 8.75 4 8.75H3.5V15.25H4C5.51878 15.25 6.75 16.4812 6.75 18V18.5H17.25V18C17.25 16.4812 18.4812 15.25 20 15.25H20.5V8.75H20C18.4812 8.75 17.25 7.51878 17.25 6V5.5ZM3.61445 7.25C3.85865 6.47248 4.47248 5.85865 5.25 5.61445V6C5.25 6.69036 4.69036 7.25 4 7.25H3.61445ZM5.25 18.3855V18C5.25 17.3096 4.69036 16.75 4 16.75H3.61445C3.85865 17.5275 4.47248 18.1413 5.25 18.3855ZM20.3855 16.75C20.1413 17.5275 19.5275 18.1413 18.75 18.3855V18C18.75 17.3096 19.3096 16.75 20 16.75H20.3855ZM20.3855 7.25C20.1413 6.47248 19.5275 5.85865 18.75 5.61445V6C18.75 6.69036 19.3096 7.25 20 7.25H20.3855Z" fill="#363538"/>
</svg>
