<svg width="24" height="24" viewBox="0 0 24 24" fill="none" xmlns="http://www.w3.org/2000/svg">
<path fill-rule="evenodd" clip-rule="evenodd" d="M15.7 14.5C15.7 15.9497 14.4912 17.125 13 17.125C11.5088 17.125 10.3 15.9497 10.3 14.5C10.3 13.0503 11.5088 11.875 13 11.875C14.4912 11.875 15.7 13.0503 15.7 14.5ZM14.2 14.5C14.2 15.0818 13.7028 15.625 13 15.625C12.2971 15.625 11.8 15.0818 11.8 14.5C11.8 13.9182 12.2971 13.375 13 13.375C13.7028 13.375 14.2 13.9182 14.2 14.5Z" fill="#363538"/>
<path fill-rule="evenodd" clip-rule="evenodd" d="M20 5.5V7.67071C21.1652 8.08254 22 9.19378 22 10.5V18.5C22 20.1569 20.6569 21.5 19 21.5H7C5.34315 21.5 4 20.1569 4 18.5V16.3293C2.83481 15.9175 2 14.8062 2 13.5V5.5C2 3.84315 3.34315 2.5 5 2.5H17C18.6569 2.5 20 3.84315 20 5.5ZM6.34999 4H15.65C15.65 5.51878 16.8812 6.75 18.4 6.75H18.5V7.5H12.7488C12.2777 7.11022 11.6671 6.875 11 6.875C10.3329 6.875 9.72226 7.11022 9.25112 7.5H7C5.34315 7.5 4 8.84315 4 10.5V12.2789C3.86942 12.2599 3.73586 12.25 3.59999 12.25H3.5V6.75H3.59999C5.11878 6.75 6.34999 5.51878 6.34999 4ZM4 13.8154V14.6181C3.75196 14.3961 3.57824 14.0927 3.52074 13.75H3.59999C3.73989 13.75 3.87441 13.773 4 13.8154ZM17.15 4.00741C17.825 4.07443 18.3683 4.58889 18.4793 5.25H18.4C17.7121 5.25 17.154 4.69435 17.15 4.00741ZM3.59999 5.25H3.52074C3.63165 4.5889 4.175 4.07444 4.84997 4.00741C4.84599 4.69436 4.28788 5.25 3.59999 5.25ZM17.65 9H8.35001C8.35001 10.5188 7.11879 11.75 5.60001 11.75H5.5V17.25H5.60001C7.11879 17.25 8.35001 18.4812 8.35001 20H17.65C17.65 18.4812 18.8812 17.25 20.4 17.25H20.5V11.75H20.4C18.8812 11.75 17.65 10.5188 17.65 9ZM5.52074 10.25C5.63165 9.5889 6.175 9.07443 6.84998 9.00741C6.846 9.69436 6.28789 10.25 5.60001 10.25H5.52074ZM6.84998 19.9926C6.84599 19.3056 6.28789 18.75 5.60001 18.75H5.52074C5.63165 19.4111 6.175 19.9256 6.84998 19.9926ZM20.4793 18.75C20.3683 19.4111 19.825 19.9256 19.15 19.9926C19.154 19.3056 19.7121 18.75 20.4 18.75H20.4793ZM19.15 9.00741C19.154 9.69435 19.7121 10.25 20.4 10.25H20.4793C20.3683 9.5889 19.825 9.07443 19.15 9.00741Z" fill="#363538"/>
</svg>
