<svg width="24" height="24" viewBox="0 0 24 24" fill="none" xmlns="http://www.w3.org/2000/svg">
<path d="M15.5303 2.46967C15.2374 2.17678 14.7626 2.17678 14.4697 2.46967C14.1768 2.76256 14.1768 3.23744 14.4697 3.53033L14.9393 4L14.4697 4.46967C14.1768 4.76256 14.1768 5.23744 14.4697 5.53033C14.7626 5.82322 15.2374 5.82322 15.5303 5.53033L16 5.06066L16.4697 5.53033C16.7626 5.82322 17.2374 5.82322 17.5303 5.53033C17.8232 5.23744 17.8232 4.76256 17.5303 4.46967L17.0607 4L17.5303 3.53033C17.8232 3.23744 17.8232 2.76256 17.5303 2.46967C17.2374 2.17678 16.7626 2.17678 16.4697 2.46967L16 2.93934L15.5303 2.46967Z" fill="#363538"/>
<path fill-rule="evenodd" clip-rule="evenodd" d="M12.3423 3.01068L12.3697 3.01245C12.596 3.02748 12.8214 3.05102 13.0455 3.08294C13.6203 3.16486 13.6148 4.00769 13.1119 4.29803C13.0226 4.34959 12.9351 4.40311 12.8495 4.4585C12.8059 4.48665 12.7629 4.51528 12.7203 4.54438L12.7101 4.55135C10.1535 6.30681 9.33877 9.76276 10.9158 12.4942C12.4927 15.2256 15.893 16.248 18.6916 14.9116L18.7028 14.9063C18.7492 14.884 18.7956 14.861 18.8417 14.8374C18.9325 14.7909 19.0226 14.7419 19.1119 14.6903C19.6148 14.4 20.3475 14.8166 20.131 15.3554C20.0466 15.5654 19.9543 15.7724 19.8541 15.9759L19.842 16.0005C19.0814 17.5341 17.8754 18.8683 16.2818 19.7884C11.9771 22.2737 6.47283 20.7988 3.98755 16.4942C1.50227 12.1895 2.97714 6.68523 7.28178 4.19995C8.87538 3.27988 10.6339 2.9026 12.3423 3.01068ZM9.61671 13.2442C7.98382 10.4159 8.40236 6.96623 10.4106 4.61808C9.59554 4.76964 8.79175 5.06022 8.03178 5.49899C4.44458 7.57006 3.21552 12.157 5.28659 15.7442C7.35765 19.3314 11.9446 20.5604 15.5318 18.4894C16.2918 18.0506 16.9453 17.4998 17.4841 16.8697C14.4464 17.4348 11.2496 16.0724 9.61671 13.2442Z" fill="#363538"/>
<path d="M14.4697 8.46967C14.7626 8.17678 15.2374 8.17678 15.5303 8.46967L16 8.93934L16.4697 8.46967C16.7626 8.17678 17.2374 8.17678 17.5303 8.46967C17.8232 8.76256 17.8232 9.23744 17.5303 9.53033L17.0607 10L17.5303 10.4697C17.8232 10.7626 17.8232 11.2374 17.5303 11.5303C17.2374 11.8232 16.7626 11.8232 16.4697 11.5303L16 11.0607L15.5303 11.5303C15.2374 11.8232 14.7626 11.8232 14.4697 11.5303C14.1768 11.2374 14.1768 10.7626 14.4697 10.4697L14.9393 10L14.4697 9.53033C14.1768 9.23744 14.1768 8.76256 14.4697 8.46967Z" fill="#363538"/>
<path d="M20.5303 6.46967C20.2374 6.17678 19.7626 6.17678 19.4697 6.46967C19.1768 6.76256 19.1768 7.23744 19.4697 7.53033L19.9393 8L19.4697 8.46967C19.1768 8.76256 19.1768 9.23744 19.4697 9.53033C19.7626 9.82322 20.2374 9.82322 20.5303 9.53033L21 9.06066L21.4697 9.53033C21.7626 9.82322 22.2374 9.82322 22.5303 9.53033C22.8232 9.23744 22.8232 8.76256 22.5303 8.46967L22.0607 8L22.5303 7.53033C22.8232 7.23744 22.8232 6.76256 22.5303 6.46967C22.2374 6.17678 21.7626 6.17678 21.4697 6.46967L21 6.93934L20.5303 6.46967Z" fill="#363538"/>
</svg>
