<svg width="24" height="24" viewBox="0 0 24 24" fill="none" xmlns="http://www.w3.org/2000/svg">
<path fill-rule="evenodd" clip-rule="evenodd" d="M19.7771 4.0003L19.8 4.01555C19.9885 4.14172 20.172 4.27482 20.35 4.41449C20.8069 4.77287 20.3807 5.5 19.8 5.5C19.6969 5.5 19.5943 5.5026 19.4925 5.50774C19.4407 5.51036 19.3891 5.51363 19.3377 5.51755L19.3254 5.5185C16.2336 5.76045 13.8 8.34603 13.8 11.5C13.8 14.654 16.2336 17.2395 19.3254 17.4815L19.3377 17.4825C19.3891 17.4864 19.4407 17.4896 19.4925 17.4923C19.5943 17.4974 19.6969 17.5 19.8 17.5C20.3807 17.5 20.8069 18.2271 20.35 18.5855C20.172 18.7252 19.9885 18.8583 19.8 18.9845L19.7771 18.9997C18.3672 19.9372 16.6774 20.4879 14.8601 20.4998C14.2474 21.186 13.3442 21.6469 12.1879 21.7472C12.1664 21.7491 12.1447 21.75 12.1231 21.75H6.53371C4.91263 21.75 3.68863 20.7836 3.3445 19.5293C3.17283 18.9037 3.22889 18.2211 3.56345 17.6076C3.81108 17.1536 4.19475 16.7666 4.69856 16.4705C4.46554 14.8722 4.98659 13.5461 5.87036 12.6307C5.82393 12.2604 5.80001 11.883 5.80001 11.5C5.80001 6.52944 9.82945 2.5 14.8 2.5C16.6401 2.5 18.3517 3.0525 19.7771 4.0003ZM7.30117 11.6331C7.55557 11.5205 7.81901 11.4317 8.08711 11.3683C9.16909 11.1122 10.3603 11.2586 11.3403 11.9434C11.7967 12.2623 12.1877 12.6842 12.4948 13.2055C12.3674 12.6576 12.3 12.0867 12.3 11.5C12.3 8.23422 14.3873 5.45597 17.3006 4.42655C16.5189 4.15025 15.6776 4 14.8 4C10.6579 4 7.30001 7.35786 7.30001 11.5C7.30001 11.5445 7.3004 11.5888 7.30117 11.6331ZM15.7348 17.8038C15.7449 17.9133 15.75 18.023 15.75 18.1326C15.75 18.4052 15.7195 18.6807 15.6571 18.9517C16.227 18.887 16.7772 18.7585 17.3006 18.5735C16.7458 18.3774 16.221 18.1179 15.7348 17.8038ZM6.2739 16.7054C5.73139 14.5868 6.98816 13.1698 8.43257 12.828C9.15891 12.6561 9.89933 12.7664 10.4811 13.173C11.0525 13.5723 11.5615 14.3215 11.7066 15.6061C11.7494 15.9853 12.0702 16.2719 12.4519 16.2719C13.5992 16.2719 14.25 17.1325 14.25 18.1326C14.25 18.6284 14.081 19.12 13.7417 19.5002C13.4134 19.8681 12.8877 20.1741 12.0891 20.25H6.5337C5.52442 20.25 4.94008 19.6757 4.79104 19.1325C4.71612 18.8594 4.74226 18.579 4.88034 18.3258C5.0182 18.0731 5.29783 17.794 5.82016 17.5901C6.17322 17.4522 6.36793 17.0726 6.2739 16.7054Z" fill="#363538"/>
</svg>
