<svg width="24" height="24" viewBox="0 0 24 24" fill="none" xmlns="http://www.w3.org/2000/svg">
<path fill-rule="evenodd" clip-rule="evenodd" d="M18.9771 4.5003C18.977 4.50021 18.9769 4.50012 18.9767 4.50004C17.5513 3.55224 15.8401 3 14 3C9.02944 3 5 7.02944 5 12C5 16.9706 9.02944 21 14 21C15.8401 21 17.5513 20.4478 18.9767 19.5C18.9769 19.4999 18.977 19.4998 18.9771 19.4997C18.9848 19.4946 18.9924 19.4895 19 19.4845C19.1885 19.3583 19.3719 19.2252 19.55 19.0855C20.0069 18.7271 19.5807 18 19 18C18.8969 18 18.7943 17.9974 18.6925 17.9923C18.6407 17.9896 18.5891 17.9864 18.5377 17.9825C18.5336 17.9821 18.5295 17.9818 18.5254 17.9815C15.4335 17.7396 13 15.154 13 12C13 8.84603 15.4335 6.26045 18.5254 6.0185C18.5295 6.01818 18.5336 6.01786 18.5377 6.01755C18.5891 6.01363 18.6407 6.01036 18.6925 6.00774C18.7943 6.0026 18.8969 6 19 6C19.5807 6 20.0069 5.27287 19.55 4.91449C19.3719 4.77482 19.1885 4.64172 19 4.51555C18.9924 4.51045 18.9848 4.50537 18.9771 4.5003ZM16.5006 4.92655C13.5873 5.95597 11.5 8.73422 11.5 12C11.5 15.2658 13.5873 18.044 16.5006 19.0735C15.7189 19.3498 14.8775 19.5 14 19.5C9.85786 19.5 6.5 16.1421 6.5 12C6.5 7.85786 9.85786 4.5 14 4.5C14.8775 4.5 15.7189 4.65025 16.5006 4.92655Z" fill="#363538"/>
</svg>
