<svg width="24" height="24" viewBox="0 0 24 24" fill="none" xmlns="http://www.w3.org/2000/svg">
<path fill-rule="evenodd" clip-rule="evenodd" d="M12.7203 4.54438L12.7101 4.55135C10.1535 6.30681 9.33877 9.76276 10.9158 12.4942C12.4927 15.2256 15.893 16.248 18.6916 14.9116L18.7028 14.9063C18.7492 14.884 18.7956 14.861 18.8417 14.8374C18.9325 14.7909 19.0226 14.7419 19.1119 14.6903C19.6148 14.4 20.3475 14.8166 20.131 15.3554C20.0466 15.5654 19.9543 15.7724 19.8541 15.9759L19.842 16.0005C19.0814 17.5341 17.8754 18.8683 16.2818 19.7884C11.9771 22.2737 6.47283 20.7988 3.98755 16.4942C1.50227 12.1895 2.97714 6.68523 7.28178 4.19995C8.87538 3.27988 10.6334 2.90257 12.3418 3.01065L12.3697 3.01245C12.596 3.02748 12.8214 3.05102 13.0455 3.08294C13.6203 3.16486 13.6148 4.00769 13.1119 4.29803C13.0226 4.34959 12.9351 4.40311 12.8495 4.4585C12.8059 4.48665 12.7629 4.51528 12.7203 4.54438ZM9.61671 13.2442C11.2496 16.0724 14.4464 17.4348 17.4841 16.8697C16.9453 17.4998 16.2918 18.0506 15.5318 18.4894C11.9446 20.5604 7.35765 19.3314 5.28659 15.7442C3.21552 12.157 4.44458 7.57006 8.03178 5.49899C8.79175 5.06022 9.59554 4.76964 10.4106 4.61808C8.40236 6.96623 7.98382 10.4159 9.61671 13.2442Z" fill="#363538"/>
<path fill-rule="evenodd" clip-rule="evenodd" d="M17.0212 4.68146C17.3574 3.77285 18.6426 3.77285 18.9788 4.68146L19.4442 5.93921C19.5499 6.22488 19.7751 6.45011 20.0608 6.55581L21.3185 7.02122C22.2271 7.35744 22.2272 8.64256 21.3185 8.97878L20.0608 9.44419C19.7751 9.54989 19.5499 9.77512 19.4442 10.0608L18.9788 11.3185C18.6426 12.2272 17.3574 12.2272 17.0212 11.3185L16.5558 10.0608C16.4501 9.77512 16.2249 9.54989 15.9392 9.44419L14.6815 8.97878C13.7728 8.64256 13.7728 7.35744 14.6815 7.02122L15.9392 6.55581C16.2249 6.45011 16.4501 6.22488 16.5558 5.93921L17.0212 4.68146ZM17.9626 6.45977L18 6.35866L18.0374 6.45977C18.295 7.15601 18.844 7.70496 19.5402 7.96259L19.6413 8L19.5402 8.03741C18.844 8.29504 18.295 8.84399 18.0374 9.54023L18 9.64134L17.9626 9.54023C17.705 8.84399 17.156 8.29505 16.4598 8.03741L16.3587 8L16.4598 7.96259C17.156 7.70495 17.705 7.15601 17.9626 6.45977Z" fill="#363538"/>
</svg>
