<svg width="24" height="24" viewBox="0 0 24 24" fill="none" xmlns="http://www.w3.org/2000/svg">
<path d="M4.3093 14.8108C3.89509 14.8108 3.5593 15.1466 3.5593 15.5608C3.5593 15.975 3.89509 16.3108 4.3093 16.3108H5.3093C5.72352 16.3108 6.0593 15.975 6.0593 15.5608C6.0593 15.1466 5.72352 14.8108 5.3093 14.8108H4.3093Z" fill="#363538"/>
<path d="M7.5593 15.5608C7.5593 15.1466 7.89509 14.8108 8.3093 14.8108H9.3093C9.72352 14.8108 10.0593 15.1466 10.0593 15.5608C10.0593 15.975 9.72352 16.3108 9.3093 16.3108H8.3093C7.89509 16.3108 7.5593 15.975 7.5593 15.5608Z" fill="#363538"/>
<path d="M12.3093 14.8108C11.8951 14.8108 11.5593 15.1466 11.5593 15.5608C11.5593 15.975 11.8951 16.3108 12.3093 16.3108H13.3093C13.7235 16.3108 14.0593 15.975 14.0593 15.5608C14.0593 15.1466 13.7235 14.8108 13.3093 14.8108H12.3093Z" fill="#363538"/>
<path d="M11.5593 18.5608C11.5593 18.1466 11.8951 17.8108 12.3093 17.8108H13.3093C13.7235 17.8108 14.0593 18.1466 14.0593 18.5608C14.0593 18.975 13.7235 19.3108 13.3093 19.3108H12.3093C11.8951 19.3108 11.5593 18.975 11.5593 18.5608Z" fill="#363538"/>
<path d="M4.3093 17.8108C3.89509 17.8108 3.5593 18.1466 3.5593 18.5608C3.5593 18.975 3.89509 19.3108 4.3093 19.3108H5.3093C5.72352 19.3108 6.0593 18.975 6.0593 18.5608C6.0593 18.1466 5.72352 17.8108 5.3093 17.8108H4.3093Z" fill="#363538"/>
<path fill-rule="evenodd" clip-rule="evenodd" d="M9.25125 2C9.32391 2 9.39584 2.00325 9.4669 2.00962C9.88668 2.04722 10.276 2.19357 10.6079 2.42099C10.659 2.45603 10.7088 2.49301 10.7571 2.5318C10.8811 2.63135 10.7654 2.83333 10.6079 2.83333C10.5759 2.83333 10.5442 2.83428 10.5127 2.83613C10.1124 2.85975 9.75093 3.03143 9.47966 3.29847C9.41601 3.36114 9.35732 3.42905 9.30427 3.50153C9.10058 3.77982 8.97992 4.12548 8.97992 4.5C8.97992 4.87452 9.10058 5.22018 9.30427 5.49847C9.35732 5.57095 9.41601 5.63886 9.47966 5.70153C9.75093 5.96857 10.1124 6.14025 10.5127 6.16387C10.5442 6.16573 10.5759 6.16667 10.6079 6.16667C10.7654 6.16667 10.8811 6.36865 10.7571 6.4682C10.7088 6.50699 10.659 6.54397 10.6079 6.57901C10.315 6.77972 9.97735 6.91728 9.61351 6.97268C10.0872 7.37835 10.6212 7.68056 11.1915 7.94206C11.5343 8.09922 11.8825 8.23837 12.239 8.37897L12.333 8.41603C12.6543 8.54258 12.9854 8.67301 13.3008 8.81317C13.989 9.11905 14.6964 9.50995 15.2228 10.1459C15.7675 10.8039 16.0595 11.6497 16.0595 12.7508L16.0593 12.7672V20.2508C16.0593 21.2173 15.2758 22.0008 14.3093 22.0008H3.3093C2.34281 22.0008 1.5593 21.2173 1.5593 20.2508V12.7722C1.49696 11.7582 1.75207 10.9267 2.24849 10.2431C2.73443 9.57391 3.41668 9.09484 4.12099 8.70977C4.69837 8.3941 5.34232 8.11549 5.9587 7.84881L5.95965 7.8484C6.0896 7.79217 6.21832 7.73648 6.34493 7.68108C6.95888 7.41244 7.53895 7.1446 8.05967 6.83569V6.68267C7.3136 6.25485 6.80933 5.43772 6.80933 4.5C6.80933 3.36243 7.55146 2.40233 8.56709 2.09945C8.78417 2.03471 9.01375 2 9.25125 2ZM3.0593 13.5008H14.5593V20.2508C14.5593 20.3888 14.4474 20.5008 14.3093 20.5008H11.5593V20.25C11.5593 18.7312 10.3281 17.5 8.8093 17.5C7.29052 17.5 6.0593 18.7312 6.0593 20.25V20.5008H3.3093C3.17123 20.5008 3.0593 20.3888 3.0593 20.2508V13.5008ZM10.0593 20.25V20.5008H7.5593V20.25C7.5593 19.5596 8.11895 19 8.8093 19C9.49966 19 10.0593 19.5596 10.0593 20.25ZM14.4875 12.0008C14.4031 11.6073 14.251 11.3243 14.0674 11.1024C13.7654 10.7377 13.3161 10.4615 12.6916 10.1839C12.4073 10.0576 12.1063 9.93894 11.7789 9.80993L11.6887 9.77438C11.3323 9.63383 10.95 9.48148 10.5663 9.30556C9.95312 9.02438 9.31705 8.67471 8.72421 8.18466C8.14283 8.52049 7.52953 8.80006 6.94623 9.05529C6.80572 9.11677 6.66749 9.17663 6.53162 9.23548C5.91752 9.50143 5.35151 9.74656 4.84056 10.0259C4.22145 10.3644 3.76008 10.7143 3.46224 11.1245C3.28508 11.3684 3.15268 11.6516 3.09008 12.0008H14.4875Z" fill="#363538"/>
<path fill-rule="evenodd" clip-rule="evenodd" d="M18.5238 2.22655C18.8681 2.00803 19.301 1.99553 19.6575 2.19455C20.0885 2.43518 21.2497 3.13793 21.9259 4.16978C22.2756 4.70337 22.5299 5.37776 22.4272 6.14408C22.3361 6.82288 21.9787 7.4711 21.3554 8.07957L21.3554 20.85C21.3554 21.4851 20.8405 22 20.2054 22H18.0054C17.3703 22 16.8554 21.4851 16.8554 20.85L16.8555 8.10869C16.2361 7.56839 15.8739 6.95834 15.7822 6.29197C15.6786 5.53886 15.9414 4.86087 16.2834 4.32477C16.9524 3.27605 18.1005 2.49523 18.5238 2.22655ZM18.3555 8.50002L18.3554 20.5H19.8554L19.8554 8.50002H18.3555ZM20.3141 7.00002C20.756 6.56719 20.9049 6.20956 20.9405 5.94467C20.9811 5.64158 20.8911 5.32728 20.6713 4.99198C20.2759 4.38863 19.5773 3.89494 19.1299 3.62311C18.6799 3.92948 17.9588 4.48748 17.548 5.13147C17.3163 5.49473 17.2304 5.81223 17.2682 6.0875C17.2999 6.31727 17.4335 6.63127 17.8664 7.00002H20.3141Z" fill="#363538"/>
</svg>
