<svg width="24" height="24" viewBox="0 0 24 24" fill="none" xmlns="http://www.w3.org/2000/svg">
<path fill-rule="evenodd" clip-rule="evenodd" d="M9.9873 3.34818C10.8165 1.68993 13.1835 1.68993 14.0127 3.34818L21.9473 19.2183C22.5284 20.3817 21.6825 21.7505 20.3818 21.7505H3.61816C2.31751 21.7505 1.47163 20.3817 2.05273 19.2183L9.9873 3.34818ZM9.75684 10.4058L7.77832 11.1968C7.7633 11.2028 7.74758 11.2065 7.73242 11.2115L3.39453 19.8892C3.31211 20.0553 3.43258 20.2505 3.61816 20.2505H20.3818C20.5674 20.2505 20.6879 20.0553 20.6055 19.8892L16.2676 11.2124L16.2217 11.1968L14.2432 10.4058C14.1622 10.3734 14.0698 10.3857 14 10.438L13.0498 11.1509C12.4278 11.6171 11.5722 11.6171 10.9502 11.1509L10 10.438C9.9302 10.3857 9.83784 10.3734 9.75684 10.4058ZM12.6709 4.01908C12.3945 3.4664 11.6055 3.4664 11.3291 4.01908L8.74023 9.19584L9.19922 9.01322C9.76625 8.78641 10.4108 8.87143 10.8994 9.23783L11.8496 9.95072C11.9384 10.0172 12.0616 10.0172 12.1504 9.95072L13.1006 9.23783C13.5892 8.87143 14.2337 8.78641 14.8008 9.01322L15.2588 9.19584L12.6709 4.01908Z" fill="#363538"/>
<path d="M21.5 7.25053C21.9142 7.25053 22.25 7.58631 22.25 8.00053C22.2498 8.41453 21.9141 8.75053 21.5 8.75053C21.4953 8.75124 21.4359 8.75764 21.3213 8.80131C21.2087 8.84424 21.0827 8.90784 20.9668 8.98197C20.8541 9.05414 20.7738 9.1225 20.7285 9.17045C20.6512 9.50236 20.3554 9.75053 20 9.75053C19.6445 9.75053 19.3477 9.50246 19.2705 9.17045C19.2252 9.12253 19.1456 9.0539 19.0332 8.98197C18.9173 8.90784 18.7913 8.84424 18.6787 8.80131C18.5641 8.75764 18.5047 8.75124 18.5 8.75053C18.0859 8.75053 17.7502 8.41453 17.75 8.00053C17.75 7.58631 18.0858 7.25053 18.5 7.25053C18.7545 7.25053 19.0079 7.32225 19.2119 7.39994C19.4272 7.48198 19.6454 7.59358 19.8418 7.71928C19.8944 7.75293 19.9476 7.78874 20 7.8267C20.0524 7.78874 20.1056 7.75293 20.1582 7.71928C20.3546 7.59358 20.5728 7.48198 20.7881 7.39994C20.9921 7.32225 21.2455 7.25053 21.5 7.25053Z" fill="#363538"/>
<path d="M5.5 4.25053C5.91421 4.25053 6.25 4.58631 6.25 5.00053C6.24976 5.41453 5.91406 5.75053 5.5 5.75053C5.49527 5.75124 5.43591 5.75764 5.32129 5.80131C5.20869 5.84424 5.08265 5.90784 4.9668 5.98197C4.85406 6.05414 4.77376 6.1225 4.72852 6.17045C4.6512 6.50236 4.35545 6.75053 4 6.75053C3.64447 6.75053 3.34774 6.50246 3.27051 6.17045C3.22518 6.12253 3.14555 6.0539 3.0332 5.98197C2.91735 5.90784 2.79131 5.84424 2.67871 5.80131C2.56409 5.75764 2.50473 5.75124 2.5 5.75053C2.08594 5.75053 1.75024 5.41453 1.75 5.00053C1.75 4.58631 2.08579 4.25053 2.5 4.25053C2.75453 4.25053 3.00792 4.32225 3.21191 4.39994C3.42723 4.48198 3.64539 4.59358 3.8418 4.71928C3.89436 4.75293 3.9476 4.78874 4 4.8267C4.0524 4.78874 4.10564 4.75293 4.1582 4.71928C4.35461 4.59358 4.57277 4.48198 4.78809 4.39994C4.99208 4.32225 5.24547 4.25053 5.5 4.25053Z" fill="#363538"/>
</svg>
