<svg width="24" height="24" viewBox="0 0 24 24" fill="none" xmlns="http://www.w3.org/2000/svg">
<path fill-rule="evenodd" clip-rule="evenodd" d="M19.9999 9.96282C20 9.9752 20 9.9876 20 10V14C20 18.4183 16.4183 22 12 22C7.58172 22 4 18.4183 4 14V10C4 5.58172 7.58172 2 12 2C12.0124 2 12.0248 2.00003 12.0372 2.00008L12.0398 2C12.3102 2 12.5774 2.01348 12.8408 2.0398C13.0624 2.06194 13.2812 2.09316 13.4971 2.13309L13.5 2.13363C16.7255 2.73163 19.2684 5.27446 19.8664 8.5L19.8669 8.50293C19.9068 8.71876 19.9381 8.93764 19.9602 9.15919C19.9865 9.42262 20 9.68984 20 9.9602L19.9999 9.96282ZM5.5 10C5.5 6.41015 8.41015 3.5 12 3.5V9C12 9.55228 12.4477 10 13 10H18.5V14C18.5 17.5899 15.5899 20.5 12 20.5C8.41015 20.5 5.5 17.5899 5.5 14V10ZM13.5 3.67393C15.8852 4.23735 17.7626 6.11482 18.3261 8.5H13.5V3.67393Z" fill="#363538"/>
</svg>
