<svg width="24" height="24" viewBox="0 0 24 24" fill="none" xmlns="http://www.w3.org/2000/svg">
<path fill-rule="evenodd" clip-rule="evenodd" d="M11.9628 2.00008L11.9602 2C11.6898 2 11.4226 2.01348 11.1592 2.0398C10.9376 2.06194 10.7188 2.09316 10.5029 2.13309L10.5 2.13363C7.27446 2.73163 4.73163 5.27446 4.13363 8.5L4.13309 8.50293C4.09316 8.71876 4.06194 8.93764 4.0398 9.15919C4.01348 9.42262 4 9.68984 4 9.9602L4.00008 9.96282C4.00003 9.9752 4 9.9876 4 10V14C4 18.4183 7.58172 22 12 22C16.4183 22 20 18.4183 20 14V10C20 5.58172 16.4183 2 12 2C11.9876 2 11.9752 2.00003 11.9628 2.00008ZM12 3.5V9C12 9.55228 11.5523 10 11 10L5.5 10V14C5.5 17.5899 8.41015 20.5 12 20.5C15.5899 20.5 18.5 17.5899 18.5 14V10C18.5 6.41015 15.5899 3.5 12 3.5ZM5.67393 8.5H10.5V3.67393C8.11482 4.23735 6.23735 6.11482 5.67393 8.5Z" fill="#363538"/>
</svg>
