<svg width="24" height="24" viewBox="0 0 24 24" fill="none" xmlns="http://www.w3.org/2000/svg">
<path fill-rule="evenodd" clip-rule="evenodd" d="M4 10C4 5.58172 7.58172 2 12 2C16.4183 2 20 5.58172 20 10V14C20 18.4183 16.4183 22 12 22C7.58172 22 4 18.4183 4 14V10ZM11.25 3.5428C8.01342 3.91465 5.5 6.66381 5.5 10V14C5.5 17.5899 8.41015 20.5 12 20.5C15.5899 20.5 18.5 17.5899 18.5 14V10C18.5 6.66381 15.9866 3.91465 12.75 3.5428V9C12.75 9.41421 12.4142 9.75 12 9.75C11.5858 9.75 11.25 9.41421 11.25 9V3.5428Z" fill="#363538"/>
</svg>
