<svg width="24" height="24" viewBox="0 0 24 24" fill="none" xmlns="http://www.w3.org/2000/svg">
<path fill-rule="evenodd" clip-rule="evenodd" d="M11.9999 2.25C13.5218 2.25 15.0081 2.57854 16.3544 3.14746C18.4859 4.04821 20.3061 5.56811 21.371 7.4043C22.4886 9.33142 22.7766 11.625 21.6718 13.835C21.381 14.4165 20.9625 14.8311 20.4315 15.0791C19.9184 15.3187 19.3544 15.3777 18.8036 15.3574C18.1198 15.3322 17.3382 15.1712 16.5399 14.9883C16.5887 15.3671 16.6178 15.7956 16.6288 16.2432C16.6597 17.5043 16.5637 19.0341 16.3798 20.3008C16.2542 21.1638 15.5057 21.7498 14.6806 21.75H9.31923C8.49408 21.7497 7.74554 21.1638 7.62001 20.3008C7.43611 19.0341 7.33996 17.5043 7.37098 16.2432C7.382 15.7957 7.41006 15.3671 7.45887 14.9883C6.66102 15.1711 5.87963 15.3322 5.19618 15.3574C4.64558 15.3777 4.08217 15.3187 3.56923 15.0791C3.03828 14.8311 2.61977 14.4165 2.32899 13.835C1.42523 12.0271 1.45055 10.152 2.11415 8.4668C3.01107 6.18931 5.05977 4.27377 7.52821 3.19824C8.90551 2.5982 10.4336 2.25008 11.9999 2.25ZM11.9999 14.25C11.011 14.25 10.023 14.4168 9.0536 14.626C9.03617 14.6829 9.01691 14.7579 8.99794 14.8525C8.92869 15.1983 8.88453 15.69 8.87001 16.2793C8.84114 17.4521 8.93202 18.8978 9.10438 20.085C9.11605 20.1648 9.19179 20.2498 9.31923 20.25H14.6806C14.808 20.2498 14.8837 20.1648 14.8954 20.085C15.0678 18.8977 15.1585 17.4521 15.1298 16.2793C15.1153 15.69 15.0711 15.1983 15.0018 14.8525C14.9828 14.7577 14.9627 14.6829 14.9452 14.626C13.9761 14.4169 12.9884 14.25 11.9999 14.25ZM11.9999 3.75C11.0017 3.75006 10.0148 3.91485 9.08094 4.21387C9.50315 4.87403 9.74989 5.65808 9.74989 6.5C9.74989 8.84721 7.8471 10.75 5.49989 10.75C4.65561 10.75 3.86912 10.5025 3.2079 10.0781C3.02943 11.0896 3.15689 12.1372 3.67079 13.165C3.82261 13.4685 4.00386 13.6262 4.20399 13.7197C4.4222 13.8216 4.72235 13.8738 5.14149 13.8584C6.01008 13.8264 7.06473 13.5319 8.40907 13.2295C8.4704 13.2094 8.53462 13.1959 8.60048 13.1885C9.64433 12.9588 10.803 12.75 11.9999 12.75C13.1958 12.75 14.354 12.958 15.3974 13.1875C15.4623 13.1946 15.5253 13.209 15.5858 13.2285C16.9328 13.5313 17.9894 13.8263 18.8593 13.8584C19.2784 13.8738 19.5785 13.8216 19.7968 13.7197C19.9969 13.6262 20.1782 13.4685 20.33 13.165C21.0836 11.6579 21.0072 10.0966 20.3368 8.66602C20.0658 8.7202 19.786 8.75 19.4999 8.75C17.1528 8.7499 15.2499 6.84715 15.2499 4.5C15.2499 4.44279 15.2515 4.38582 15.2538 4.3291C14.2223 3.95839 13.1182 3.75 11.9999 3.75ZM7.65419 4.79492C5.86896 5.68466 4.4465 7.05291 3.70301 8.58105C4.18547 8.9982 4.81296 9.24995 5.49989 9.25C7.01867 9.25 8.24989 8.01878 8.24989 6.5C8.24989 5.85507 8.02635 5.26423 7.65419 4.79492ZM16.8026 5.03613C17.0486 6.28058 18.1339 7.22094 19.4442 7.24707C18.7555 6.38948 17.8509 5.62756 16.8026 5.03613Z" fill="#363538"/>
</svg>
