<svg width="24" height="24" viewBox="0 0 24 24" fill="none" xmlns="http://www.w3.org/2000/svg">
<path fill-rule="evenodd" clip-rule="evenodd" d="M19.6222 7.08854C19.6223 7.08865 19.6224 7.08874 19 7.50724L19.6222 7.08854C19.7769 7.31852 19.7922 7.61522 19.662 7.85982C19.5317 8.10442 19.2771 8.25724 19 8.25724H13.75V15.5001C13.75 18.1235 11.6234 20.2501 9 20.2501H6.99822C4.92813 20.2501 3.25 18.572 3.25 16.5019C3.25 14.4318 4.92813 12.7537 6.99822 12.7537H12.25V5.45853C12.25 4.53981 12.9826 3.7219 13.9776 3.76034C14.7483 3.79011 15.9599 3.90041 16.8353 4.33782C17.5952 4.71756 18.3017 5.44195 18.7819 6.00049C19.0317 6.2911 19.2397 6.5603 19.3856 6.757C19.4587 6.85561 19.5166 6.93667 19.5568 6.99393C19.577 7.02258 19.5927 7.04532 19.6037 7.06137L19.6167 7.08035L19.6205 7.0859L19.6222 7.08854ZM13.75 5.45853C13.75 5.38984 13.7764 5.33648 13.8091 5.30328C13.8395 5.27246 13.8753 5.2575 13.9197 5.25922C14.6827 5.28869 15.6039 5.39936 16.1647 5.67962C16.5741 5.88418 17.0343 6.30225 17.4488 6.75724H13.75V5.45853ZM4.75 16.5019C4.75 15.2602 5.75656 14.2537 6.99822 14.2537H12.25V15.5001C12.25 17.295 10.7949 18.7501 9 18.7501H6.99822C5.75656 18.7501 4.75 17.7435 4.75 16.5019Z" fill="#363538"/>
</svg>
