<svg width="24" height="24" viewBox="0 0 24 24" fill="none" xmlns="http://www.w3.org/2000/svg">
<path fill-rule="evenodd" clip-rule="evenodd" d="M11 4.25C9.48122 4.25 8.25 5.48122 8.25 7V14.25H5.25C3.59315 14.25 2.25 15.5931 2.25 17.25C2.25 18.9069 3.59315 20.25 5.25 20.25H6C8.07107 20.25 9.75 18.5711 9.75 16.5V9.25H18.25V13.25H15C13.4812 13.25 12.25 14.4812 12.25 16C12.25 17.5188 13.4812 18.75 15 18.75H16C18.0711 18.75 19.75 17.0711 19.75 15V7C19.75 5.48122 18.5188 4.25 17 4.25H11ZM3.75 17.25C3.75 16.4216 4.42157 15.75 5.25 15.75H8.25V16.5C8.25 17.7426 7.24264 18.75 6 18.75H5.25C4.42157 18.75 3.75 18.0784 3.75 17.25ZM17 5.75C17.6904 5.75 18.25 6.30964 18.25 7V7.75H9.75V7C9.75 6.30964 10.3096 5.75 11 5.75H17ZM13.75 16C13.75 15.3096 14.3096 14.75 15 14.75H18.25V15C18.25 16.2426 17.2426 17.25 16 17.25H15C14.3096 17.25 13.75 16.6904 13.75 16Z" fill="#363538"/>
</svg>
