<svg width="24" height="24" viewBox="0 0 24 24" fill="none" xmlns="http://www.w3.org/2000/svg">
<path fill-rule="evenodd" clip-rule="evenodd" d="M9 11C9.41421 11 9.75 11.3358 9.75 11.75V16.5C9.75 18.5711 8.07107 20.25 6 20.25H5.25C3.59315 20.25 2.25 18.9069 2.25 17.25C2.25 15.5931 3.59315 14.25 5.25 14.25H8.25V11.75C8.25 11.3358 8.58579 11 9 11ZM5.25 15.75C4.42157 15.75 3.75 16.4216 3.75 17.25C3.75 18.0784 4.42157 18.75 5.25 18.75H6C7.24264 18.75 8.25 17.7426 8.25 16.5V15.75H5.25Z" fill="#363538"/>
<path fill-rule="evenodd" clip-rule="evenodd" d="M17 4.25C18.5188 4.25 19.75 5.48122 19.75 7V15C19.75 17.0711 18.0711 18.75 16 18.75H15C13.4812 18.75 12.25 17.5188 12.25 16C12.25 14.4812 13.4812 13.25 15 13.25H18.25V9.25H11C10.5858 9.25 10.25 8.91421 10.25 8.5C10.25 8.08579 10.5858 7.75 11 7.75H18.25V7C18.25 6.30964 17.6904 5.75 17 5.75H13C12.5858 5.75 12.25 5.41421 12.25 5C12.25 4.58579 12.5858 4.25 13 4.25H17ZM15 14.75C14.3096 14.75 13.75 15.3096 13.75 16C13.75 16.6904 14.3096 17.25 15 17.25H16C17.2426 17.25 18.25 16.2426 18.25 15V14.75H15Z" fill="#363538"/>
<path d="M5.5 7.25C5.78109 7.25 6.03851 7.40722 6.16699 7.65723L6.56543 8.43359L7.34277 8.83301C7.59278 8.96149 7.75 9.21891 7.75 9.5C7.75 9.78109 7.59278 10.0385 7.34277 10.167L6.56543 10.5654L6.16699 11.3428C6.03851 11.5928 5.78109 11.75 5.5 11.75C5.21891 11.75 4.96149 11.5928 4.83301 11.3428L4.43359 10.5654L3.65723 10.167C3.40722 10.0385 3.25 9.78109 3.25 9.5C3.25 9.21891 3.40722 8.96149 3.65723 8.83301L4.43359 8.43359L4.83301 7.65723L4.88672 7.56836C5.02589 7.37054 5.25387 7.25 5.5 7.25Z" fill="#363538"/>
<path fill-rule="evenodd" clip-rule="evenodd" d="M8.5 2.25C8.78109 2.25 9.03851 2.40722 9.16699 2.65723L9.73535 3.76367L10.8428 4.33301C11.0928 4.46149 11.25 4.71891 11.25 5C11.25 5.28109 11.0928 5.53851 10.8428 5.66699L9.73535 6.23535L9.16699 7.34277C9.03851 7.59278 8.78109 7.75 8.5 7.75C8.21891 7.75 7.96149 7.59278 7.83301 7.34277L7.26367 6.23535L6.15723 5.66699C5.90722 5.53851 5.75 5.28109 5.75 5C5.75 4.71891 5.90722 4.46149 6.15723 4.33301L7.26367 3.76367L7.83301 2.65723L7.88672 2.56836C8.02589 2.37054 8.25387 2.25 8.5 2.25ZM8.48828 4.66406C8.41671 4.80332 8.30332 4.91671 8.16406 4.98828L8.14062 5L8.16406 5.01172L8.26367 5.07324C8.35753 5.14182 8.43466 5.23161 8.48828 5.33594L8.5 5.3584L8.51172 5.33594C8.58329 5.19668 8.69668 5.08329 8.83594 5.01172L8.8584 5L8.83594 4.98828C8.69668 4.91671 8.58329 4.80332 8.51172 4.66406L8.5 4.64062L8.48828 4.66406Z" fill="#363538"/>
</svg>
