<svg width="24" height="24" viewBox="0 0 24 24" fill="none" xmlns="http://www.w3.org/2000/svg">
<path fill-rule="evenodd" clip-rule="evenodd" d="M13.633 1.75C14.5037 1.75015 15.2423 2.39089 15.3654 3.25293L16.0793 8.25293C16.1739 8.91665 15.8838 9.53538 15.3908 9.90332C16.5495 10.2427 17.5001 11.1278 17.8957 12.3145L17.9357 12.4336C18.1612 13.1101 18.1887 13.8375 18.0158 14.5293L16.4172 20.9248C16.2223 21.7036 15.5217 22.2499 14.7189 22.25H9.28142C8.47854 22.25 7.77807 21.7036 7.58318 20.9248L5.98455 14.5293C5.8116 13.8374 5.8391 13.1102 6.06462 12.4336L6.10466 12.3145C6.50017 11.128 7.45018 10.2428 8.60857 9.90332C8.11576 9.53534 7.82641 8.91649 7.92107 8.25293L8.63494 3.25293C8.75811 2.39084 9.49653 1.75005 10.3674 1.75H13.633ZM11.1652 14.6709C10.6154 14.396 9.90323 14.425 9.1408 14.665C8.60665 14.8332 8.10874 15.0876 7.72869 15.3242L9.03826 20.5605C9.0661 20.6718 9.16672 20.75 9.28142 20.75H14.7189C14.8336 20.7499 14.9343 20.6718 14.9621 20.5605L16.2472 15.417C14.9907 15.5973 13.2114 15.6938 11.1652 14.6709ZM9.66228 11.25C8.69399 11.2501 7.83384 11.8695 7.52751 12.7881L7.48748 12.9082C7.39219 13.1941 7.3561 13.4951 7.37908 13.793C7.76878 13.5834 8.21596 13.3838 8.6906 13.2344C9.62168 12.9412 10.7852 12.8043 11.8351 13.3291C13.7949 14.3089 15.3622 14.0409 16.6164 13.8379C16.6468 13.5254 16.6129 13.2084 16.5129 12.9082L16.4728 12.7881C16.1665 11.8696 15.3063 11.2502 14.3381 11.25H9.66228ZM10.3674 3.25C10.243 3.25005 10.1379 3.34173 10.1203 3.46484L9.40544 8.46484C9.38408 8.61536 9.50143 8.75 9.65349 8.75H14.3469C14.4988 8.74988 14.6162 8.61528 14.5949 8.46484L13.8801 3.46484C13.8625 3.34178 13.7573 3.25015 13.633 3.25H10.3674Z" fill="#363538"/>
</svg>
