<svg width="24" height="24" viewBox="0 0 24 24" fill="none" xmlns="http://www.w3.org/2000/svg">
<path fill-rule="evenodd" clip-rule="evenodd" d="M7.25254 4.86502C7.05356 4.6163 6.71919 4.52039 6.41863 4.62582C6.11807 4.73125 5.91688 5.01502 5.91688 5.33354V8.58354H4C3.58579 8.58354 3.25 8.91932 3.25 9.33354C3.25 9.74775 3.58579 10.0835 4 10.0835H5.91688V13.9173H4C3.58579 13.9173 3.25 14.2531 3.25 14.6673C3.25 15.0815 3.58579 15.4173 4 15.4173H5.91688V18.6669C5.91688 19.0811 6.25267 19.4169 6.66688 19.4169C7.0811 19.4169 7.41688 19.0811 7.41688 18.6669V15.4173H13.7734L16.7479 19.1354C16.9469 19.3841 17.2812 19.48 17.5818 19.3746C17.8824 19.2692 18.0836 18.9854 18.0836 18.6669V15.4173H20C20.4142 15.4173 20.75 15.0815 20.75 14.6673C20.75 14.2531 20.4142 13.9173 20 13.9173H18.0836V10.0835H20C20.4142 10.0835 20.75 9.74775 20.75 9.33354C20.75 8.91932 20.4142 8.58354 20 8.58354H18.0836V5.33354C18.0836 4.91932 17.7478 4.58354 17.3336 4.58354C16.9193 4.58354 16.5836 4.91932 16.5836 5.33354V8.58354H10.2274L7.25254 4.86502ZM9.50642 10.0835L12.5734 13.9173H7.41688V10.0835H9.50642ZM8.30642 8.58354L7.41688 7.47162V8.58354H8.30642ZM14.4944 13.9173L11.4274 10.0835H16.5836V13.9173H14.4944ZM16.5836 16.5288L15.6944 15.4173H16.5836V16.5288Z" fill="#363538"/>
</svg>
