<svg width="24" height="24" viewBox="0 0 24 24" fill="none" xmlns="http://www.w3.org/2000/svg">
<path fill-rule="evenodd" clip-rule="evenodd" d="M9.25232 7.36482C9.05334 7.1161 8.71897 7.02019 8.41841 7.12562C8.11785 7.23105 7.91667 7.51483 7.91667 7.83334V9.58334H7C6.58579 9.58334 6.25 9.91913 6.25 10.3333C6.25 10.7476 6.58579 11.0833 7 11.0833H7.91667V12.9167H7C6.58579 12.9167 6.25 13.2525 6.25 13.6667C6.25 14.0809 6.58579 14.4167 7 14.4167H7.91667V16.1667C7.91667 16.5809 8.25245 16.9167 8.66667 16.9167C9.08088 16.9167 9.41667 16.5809 9.41667 16.1667V14.4167H12.9729L14.7477 16.6352C14.9467 16.8839 15.281 16.9798 15.5816 16.8744C15.8821 16.769 16.0833 16.4852 16.0833 16.1667V14.4167H17C17.4142 14.4167 17.75 14.0809 17.75 13.6667C17.75 13.2525 17.4142 12.9167 17 12.9167H16.0833V11.0833H17C17.4142 11.0833 17.75 10.7476 17.75 10.3333C17.75 9.91913 17.4142 9.58334 17 9.58334H16.0833V7.83334C16.0833 7.41913 15.7475 7.08334 15.3333 7.08334C14.9191 7.08334 14.5833 7.41913 14.5833 7.83334V9.58334H11.0271L9.25232 7.36482ZM14.5833 12.9167V11.0833H12.2271L13.6938 12.9167H14.5833ZM11.7729 12.9167L10.3062 11.0833H9.41667V12.9167H11.7729Z" fill="#363538"/>
<path fill-rule="evenodd" clip-rule="evenodd" d="M21 12C21 16.9706 16.9706 21 12 21C7.02944 21 3 16.9706 3 12C3 7.02944 7.02944 3 12 3C16.9706 3 21 7.02944 21 12ZM19.5 12C19.5 16.1421 16.1421 19.5 12 19.5C7.85786 19.5 4.5 16.1421 4.5 12C4.5 7.85786 7.85786 4.5 12 4.5C16.1421 4.5 19.5 7.85786 19.5 12Z" fill="#363538"/>
</svg>
