<svg width="24" height="24" viewBox="0 0 24 24" fill="none" xmlns="http://www.w3.org/2000/svg">
<path fill-rule="evenodd" clip-rule="evenodd" d="M6.75174 11.7923C7.05231 11.6868 7.38668 11.7828 7.58565 12.0315L8.56047 13.25H10.25V12.5C10.25 12.0858 10.5858 11.75 11 11.75C11.4142 11.75 11.75 12.0858 11.75 12.5V13.25H12C12.4142 13.25 12.75 13.5858 12.75 14C12.75 14.4142 12.4142 14.75 12 14.75H11.75V15.25H12C12.4142 15.25 12.75 15.5858 12.75 16C12.75 16.4142 12.4142 16.75 12 16.75H11.75V17.5C11.75 17.8185 11.5488 18.1023 11.2483 18.2077C10.9477 18.3132 10.6133 18.2172 10.4143 17.9685L9.43953 16.75H7.75V17.5C7.75 17.9142 7.41421 18.25 7 18.25C6.58579 18.25 6.25 17.9142 6.25 17.5V16.75H6C5.58579 16.75 5.25 16.4142 5.25 16C5.25 15.5858 5.58579 15.25 6 15.25H6.25V14.75H6C5.58579 14.75 5.25 14.4142 5.25 14C5.25 13.5858 5.58579 13.25 6 13.25H6.25V12.5C6.25 12.1815 6.45118 11.8977 6.75174 11.7923ZM9.76047 14.75H10.25V15.25H10.1605L9.76047 14.75ZM7.75 14.75H7.83953L8.23953 15.25H7.75V14.75Z" fill="#363538"/>
<path fill-rule="evenodd" clip-rule="evenodd" d="M14.9171 15.9999C14.9308 16 14.9445 16 14.9583 16C18.295 16 21 13.3137 21 10C21 6.68629 18.295 4 14.9583 4C11.9646 4 9.47948 6.16229 9.00009 9C9.00006 9 9.00013 9 9.00009 9C5.68639 9 3 11.6863 3 15C3 18.3137 5.68629 21 9 21C11.973 21 14.441 18.8376 14.9171 15.9999ZM14.9795 14.5C17.4723 14.4886 19.4896 12.4783 19.4896 10C19.4896 7.51472 17.4608 5.5 14.9583 5.5C12.7345 5.5 10.8848 7.09086 10.5004 9.18912C12.9322 9.81518 14.7672 11.9275 14.9795 14.5ZM9 19.5C11.4853 19.5 13.5 17.4853 13.5 15C13.5 12.5147 11.4853 10.5 9 10.5C6.51472 10.5 4.5 12.5147 4.5 15C4.5 17.4853 6.51472 19.5 9 19.5Z" fill="#363538"/>
</svg>
