<svg width="24" height="24" viewBox="0 0 24 24" fill="none" xmlns="http://www.w3.org/2000/svg">
<path d="M20.25 5C20.25 4.58579 19.9142 4.25 19.5 4.25C19.0858 4.25 18.75 4.58579 18.75 5V19C18.75 19.4142 19.0858 19.75 19.5 19.75C19.9142 19.75 20.25 19.4142 20.25 19V5Z" fill="#363538"/>
<path d="M14.5 9.25C14.9142 9.25 15.25 9.58579 15.25 10V19C15.25 19.4142 14.9142 19.75 14.5 19.75C14.0858 19.75 13.75 19.4142 13.75 19V10C13.75 9.58579 14.0858 9.25 14.5 9.25Z" fill="#363538"/>
<path d="M10.25 13C10.25 12.5858 9.91421 12.25 9.5 12.25C9.08579 12.25 8.75 12.5858 8.75 13V19C8.75 19.4142 9.08579 19.75 9.5 19.75C9.91421 19.75 10.25 19.4142 10.25 19V13Z" fill="#363538"/>
<path d="M5.25 16C5.25 15.5858 4.91421 15.25 4.5 15.25C4.08579 15.25 3.75 15.5858 3.75 16V19C3.75 19.4142 4.08579 19.75 4.5 19.75C4.91421 19.75 5.25 19.4142 5.25 19L5.25 16Z" fill="#363538"/>
</svg>
