<svg width="24" height="24" viewBox="0 0 24 24" fill="none" xmlns="http://www.w3.org/2000/svg">
<path d="M4.94451 3.88398C4.65162 3.59108 4.17675 3.59108 3.88385 3.88398C3.59096 4.17687 3.59096 4.65174 3.88385 4.94464L4.76774 5.82852L3.88385 6.7124C3.59096 7.0053 3.59096 7.48017 3.88385 7.77306C4.17675 8.06596 4.65162 8.06596 4.94451 7.77306L5.8284 6.88918L6.71228 7.77306C7.00517 8.06596 7.48005 8.06596 7.77294 7.77306C8.06583 7.48017 8.06583 7.0053 7.77294 6.7124L6.88906 5.82852L7.77294 4.94464C8.06583 4.65174 8.06583 4.17687 7.77294 3.88398C7.48005 3.59108 7.00517 3.59108 6.71228 3.88398L5.8284 4.76786L4.94451 3.88398Z" fill="#363538"/>
<path d="M19.5 4.24991C19.9142 4.24991 20.25 4.58569 20.25 4.99991V18.9999C20.25 19.4141 19.9142 19.7499 19.5 19.7499C19.0858 19.7499 18.75 19.4141 18.75 18.9999V4.99991C18.75 4.58569 19.0858 4.24991 19.5 4.24991Z" fill="#363538"/>
<path d="M15.25 9.99991C15.25 9.58569 14.9142 9.24991 14.5 9.24991C14.0858 9.24991 13.75 9.58569 13.75 9.99991V18.9999C13.75 19.4141 14.0858 19.7499 14.5 19.7499C14.9142 19.7499 15.25 19.4141 15.25 18.9999V9.99991Z" fill="#363538"/>
<path d="M9.49997 12.2499C9.91418 12.2499 10.25 12.5857 10.25 12.9999V18.9999C10.25 19.4141 9.91418 19.7499 9.49997 19.7499C9.08576 19.7499 8.74997 19.4141 8.74997 18.9999V12.9999C8.74997 12.5857 9.08576 12.2499 9.49997 12.2499Z" fill="#363538"/>
<path d="M4.49997 15.2499C4.91418 15.2499 5.24997 15.5857 5.24997 15.9999L5.24997 18.9999C5.24997 19.4141 4.91418 19.7499 4.49997 19.7499C4.08576 19.7499 3.74997 19.4141 3.74997 18.9999L3.74997 15.9999C3.74997 15.5857 4.08576 15.2499 4.49997 15.2499Z" fill="#363538"/>
</svg>
