<svg width="24" height="24" viewBox="0 0 24 24" fill="none" xmlns="http://www.w3.org/2000/svg">
<path fill-rule="evenodd" clip-rule="evenodd" d="M7.04606 18.4434L10.07 16.4052C10.5232 18.595 13.0867 19.764 15.0461 18.4434L20.5547 14.7304C20.6222 14.6849 20.6873 14.6375 20.75 14.5884V18C20.75 18.4142 21.0858 18.75 21.5 18.75C21.9142 18.75 22.25 18.4142 22.25 18V6C22.25 5.58579 21.9142 5.25 21.5 5.25C21.0858 5.25 20.75 5.58579 20.75 6V9.41165C20.6873 9.36248 20.6222 9.31509 20.5547 9.26962L15.0461 5.55665C13.0867 4.23601 10.5232 5.40499 10.07 7.59484L7.04606 5.55665C4.88913 4.10282 2 5.6661 2 8.28703V15.713C2 18.3339 4.88913 19.8972 7.04606 18.4434ZM10 14.6434V9.3566L6.20768 6.80048C5.07215 6.03511 3.5 6.83721 3.5 8.28703V15.713C3.5 17.1628 5.07216 17.9649 6.20768 17.1995L10 14.6434ZM11.5 8.28703V15.713C11.5 17.1628 13.0722 17.9649 14.2077 17.1995L19.7163 13.4865C20.7612 12.7823 20.7612 11.2177 19.7163 10.5135L14.2077 6.80048C13.0722 6.03511 11.5 6.83721 11.5 8.28703Z" fill="#363538"/>
</svg>
