<svg width="24" height="24" viewBox="0 0 24 24" fill="none" xmlns="http://www.w3.org/2000/svg">
<path fill-rule="evenodd" clip-rule="evenodd" d="M16.75 13.8963V15C16.75 15.4142 17.0858 15.75 17.5 15.75C17.9142 15.75 18.25 15.4142 18.25 15V9C18.25 8.58579 17.9142 8.25 17.5 8.25C17.0858 8.25 16.75 8.58579 16.75 9V10.1038L13.8276 8.13404C12.652 7.34165 11.1139 8.04304 10.842 9.35695L9.02763 8.13404C7.73347 7.26174 6 8.19971 6 9.77226V14.2278C6 15.8004 7.73348 16.7384 9.02763 15.8661L10.8418 14.6426C11.1135 15.9568 12.6519 16.6586 13.8276 15.8661L16.75 13.8963ZM12.3 14.2278V9.77226C12.3 9.37082 12.7165 9.19403 12.9892 9.37787L16.2944 11.6057C16.5685 11.7904 16.5685 12.2097 16.2944 12.3944L12.9892 14.6222C12.7165 14.8061 12.3 14.6293 12.3 14.2278ZM10.8 12.8625L8.18925 14.6222C7.9165 14.8061 7.5 14.6293 7.5 14.2278V9.77226C7.5 9.37082 7.9165 9.19403 8.18925 9.37787L10.8 11.1376V12.8625ZM10.837 14.6184L10.8418 14.6426C10.8402 14.6346 10.8386 14.6265 10.837 14.6184Z" fill="#363538"/>
<path fill-rule="evenodd" clip-rule="evenodd" d="M22 12C22 17.5228 17.5228 22 12 22C6.47715 22 2 17.5228 2 12C2 6.47715 6.47715 2 12 2C17.5228 2 22 6.47715 22 12ZM20.5 12C20.5 16.6944 16.6944 20.5 12 20.5C7.30558 20.5 3.5 16.6944 3.5 12C3.5 7.30558 7.30558 3.5 12 3.5C16.6944 3.5 20.5 7.30558 20.5 12Z" fill="#363538"/>
</svg>
