<svg width="24" height="24" viewBox="0 0 24 24" fill="none" xmlns="http://www.w3.org/2000/svg">
<path fill-rule="evenodd" clip-rule="evenodd" d="M16 3.63431C16 3.31152 15.7749 3.02512 15.4527 3.00617C15.383 3.00207 15.313 3 15.2427 3H8.75729C7.50165 3 6.3414 3.66025 5.71358 4.73205L2.47086 10.2679C1.84305 11.3397 1.84305 12.6603 2.47086 13.732L5.71358 19.2679C6.3414 20.3397 7.50165 21 8.75728 21L15.2427 21C16.4983 21 17.6586 20.3397 18.2864 19.268L21.5291 13.732C22.157 12.6603 22.157 11.3397 21.5291 10.2679L20.4179 8.37092C20.2834 8.14117 20.0371 8 19.7708 8C19.1913 8 18.8308 8.62909 19.1236 9.12908L20.2348 11.0261C20.5884 11.6297 20.5884 12.3703 20.2348 12.9739L18.4877 15.9565L16.7868 12.9534L16.7833 12.9472C15.8097 11.2656 13.3231 11.4573 12.6188 13.2683L11.5152 16.106C11.2465 16.797 10.3009 16.8774 9.91949 16.2416C9.12925 14.9246 7.36956 14.7158 6.28484 15.6785C6.1642 15.7856 6.0595 15.898 5.97779 15.9866L5.95143 16.0152C5.87618 16.0969 5.82067 16.1571 5.76205 16.2131L5.69823 16.274L3.76516 12.9739C3.41161 12.3703 3.41161 11.6297 3.76516 11.0261L7.00788 5.4902C7.36294 4.88405 8.02702 4.5 8.75729 4.5L15.2427 4.5C15.6148 4.5 16 4.2406 16 3.86856V3.63431ZM15.4837 13.6962L17.6113 17.4528L16.9921 18.5098C16.6371 19.1159 15.973 19.5 15.2427 19.5L8.75728 19.5C8.02702 19.5 7.36294 19.1159 7.00788 18.5098L6.4773 17.604L6.79772 17.2982C6.89379 17.2065 6.9835 17.1089 7.05419 17.0321L7.08035 17.0037C7.16174 16.9154 7.22163 16.8527 7.28051 16.8004C7.68385 16.4424 8.34068 16.5258 8.63325 17.0134C9.65635 18.7185 12.1925 18.503 12.9132 16.6497L14.0168 13.812C14.2648 13.1744 15.1393 13.106 15.4837 13.6962Z" fill="#363538"/>
<path fill-rule="evenodd" clip-rule="evenodd" d="M11 9C11 10.1046 10.1046 11 9 11C7.89543 11 7 10.1046 7 9C7 7.89543 7.89543 7 9 7C10.1046 7 11 7.89543 11 9ZM9.5 9C9.5 9.27614 9.27614 9.5 9 9.5C8.72386 9.5 8.5 9.27614 8.5 9C8.5 8.72386 8.72386 8.5 9 8.5C9.27614 8.5 9.5 8.72386 9.5 9Z" fill="#363538"/>
<path d="M21.5303 4.53033C21.8232 4.23744 21.8232 3.76256 21.5303 3.46967C21.2374 3.17678 20.7626 3.17678 20.4697 3.46967L18.0056 5.93371L17.0115 5.00661C16.7086 4.72411 16.234 4.74066 15.9515 5.04359C15.669 5.34652 15.6856 5.8211 15.9885 6.10361L17.5123 7.52469C17.8078 7.80025 18.2684 7.79222 18.5541 7.50652L21.5303 4.53033Z" fill="#363538"/>
</svg>
