<svg width="24" height="24" viewBox="0 0 24 24" fill="none" xmlns="http://www.w3.org/2000/svg">
<path d="M18.9445 1.88422C18.6516 1.59133 18.1768 1.59133 17.8839 1.88422C17.591 2.17711 17.591 2.65199 17.8839 2.94488L18.7678 3.82876L17.8839 4.71265C17.591 5.00554 17.591 5.48041 17.8839 5.77331C18.1768 6.0662 18.6516 6.0662 18.9445 5.77331L19.8284 4.88942L20.7123 5.77331C21.0052 6.0662 21.4801 6.0662 21.773 5.77331C22.0659 5.48041 22.0659 5.00554 21.773 4.71265L20.8891 3.82876L21.773 2.94488C22.0659 2.65199 22.0659 2.17711 21.773 1.88422C21.4801 1.59133 21.0052 1.59133 20.7123 1.88422L19.8284 2.7681L18.9445 1.88422Z" fill="#363538"/>
<path fill-rule="evenodd" clip-rule="evenodd" d="M16 3.63446C16 3.31167 15.7749 3.02527 15.4527 3.00632C15.383 3.00222 15.313 3.00015 15.2427 3.00015H8.75729C7.50165 3.00015 6.3414 3.6604 5.71358 4.7322L2.47086 10.2681C1.84305 11.3399 1.84305 12.6604 2.47086 13.7322L5.71358 19.2681C6.3414 20.3399 7.50165 21.0001 8.75728 21.0001L15.2427 21.0002C16.4983 21.0002 17.6586 20.3399 18.2864 19.2681L21.5291 13.7322C22.157 12.6604 22.157 11.3399 21.5291 10.2681L20.4179 8.37108C20.2834 8.14132 20.0371 8.00015 19.7708 8.00015C19.1913 8.00015 18.8308 8.62924 19.1236 9.12923L20.2348 11.0262C20.5884 11.6298 20.5884 12.3705 20.2348 12.9741L18.4877 15.9567L16.7868 12.9535L16.7833 12.9473C15.8097 11.2657 13.3231 11.4574 12.6188 13.2684L11.5152 16.1062C11.2465 16.7972 10.3009 16.8775 9.91949 16.2418C9.12925 14.9247 7.36956 14.716 6.28484 15.6787C6.1642 15.7857 6.0595 15.8982 5.97779 15.9868L5.95143 16.0154C5.87618 16.097 5.82067 16.1573 5.76205 16.2132L5.69823 16.2742L3.76516 12.9741C3.41161 12.3705 3.41161 11.6298 3.76516 11.0262L7.00788 5.49035C7.36294 4.8842 8.02702 4.50015 8.75729 4.50015H15.2427C15.6148 4.50015 16 4.24075 16 3.86871V3.63446ZM15.4837 13.6963L17.6113 17.4529L16.9921 18.51C16.6371 19.1161 15.973 19.5002 15.2427 19.5002L8.75728 19.5001C8.02702 19.5001 7.36294 19.1161 7.00788 18.5099L6.4773 17.6042L6.79772 17.2983C6.89379 17.2066 6.9835 17.1091 7.05419 17.0322L7.08035 17.0038C7.16174 16.9156 7.22163 16.8528 7.28051 16.8006C7.68385 16.4426 8.34068 16.5259 8.63325 17.0135C9.65635 18.7187 12.1925 18.5032 12.9132 16.6499L14.0168 13.8121C14.2648 13.1745 15.1393 13.1062 15.4837 13.6963Z" fill="#363538"/>
<path fill-rule="evenodd" clip-rule="evenodd" d="M11 9.00015C11 10.1047 10.1046 11.0002 9 11.0002C7.89543 11.0002 7 10.1047 7 9.00015C7 7.89558 7.89543 7.00015 9 7.00015C10.1046 7.00015 11 7.89558 11 9.00015ZM9.5 9.00015C9.5 9.27629 9.27614 9.50015 9 9.50015C8.72386 9.50015 8.5 9.27629 8.5 9.00015C8.5 8.72401 8.72386 8.50015 9 8.50015C9.27614 8.50015 9.5 8.72401 9.5 9.00015Z" fill="#363538"/>
</svg>
