<svg width="24" height="24" viewBox="0 0 24 24" fill="none" xmlns="http://www.w3.org/2000/svg">
<path fill-rule="evenodd" clip-rule="evenodd" d="M17.0566 18.3998C15.9422 17.7 14.0456 16.75 12 16.75C9.95438 16.75 8.05783 17.7 6.94342 18.3998L7.00788 18.5098C7.36294 19.1159 8.02702 19.5 8.75728 19.5L15.2427 19.5C15.973 19.5 16.6371 19.1159 16.9921 18.5098L17.0566 18.3998ZM17.8151 17.1048C16.5741 16.3308 14.4149 15.25 12 15.25C9.58505 15.25 7.42593 16.3308 6.18488 17.1048L3.76516 12.9739C3.41161 12.3703 3.41161 11.6297 3.76516 11.0261L7.00788 5.4902C7.36294 4.88405 8.02702 4.5 8.75729 4.5L15.2427 4.5C15.973 4.5 16.6371 4.88405 16.9921 5.4902L20.2348 11.0261C20.5884 11.6297 20.5884 12.3703 20.2348 12.9739L17.8151 17.1048ZM21.5291 13.732C22.157 12.6603 22.157 11.3397 21.5291 10.2679L18.2864 4.73205C17.6586 3.66025 16.4984 3 15.2427 3H8.75729C7.50165 3 6.3414 3.66025 5.71358 4.73205L2.47086 10.2679C1.84305 11.3397 1.84305 12.6603 2.47086 13.732L5.71358 19.2679C6.3414 20.3397 7.50165 21 8.75728 21L15.2427 21C16.4983 21 17.6586 20.3397 18.2864 19.268L21.5291 13.732Z" fill="#363538"/>
<path fill-rule="evenodd" clip-rule="evenodd" d="M12 11.5C12.8284 11.5 13.5 10.8284 13.5 10C13.5 9.17157 12.8284 8.5 12 8.5C11.1716 8.5 10.5 9.17157 10.5 10C10.5 10.8284 11.1716 11.5 12 11.5ZM12 13C13.6569 13 15 11.6569 15 10C15 8.34315 13.6569 7 12 7C10.3431 7 9 8.34315 9 10C9 11.6569 10.3431 13 12 13Z" fill="#363538"/>
</svg>
