<svg width="24" height="24" viewBox="0 0 24 24" fill="none" xmlns="http://www.w3.org/2000/svg">
<path d="M20.75 2C20.75 1.58579 20.4142 1.25 20 1.25C19.5858 1.25 19.25 1.58579 19.25 2V3.25H18C17.5858 3.25 17.25 3.58579 17.25 4C17.25 4.41421 17.5858 4.75 18 4.75H19.25V6C19.25 6.41421 19.5858 6.75 20 6.75C20.4142 6.75 20.75 6.41421 20.75 6V4.75H22C22.4142 4.75 22.75 4.41421 22.75 4C22.75 3.58579 22.4142 3.25 22 3.25H20.75V2Z" fill="#363538"/>
<path fill-rule="evenodd" clip-rule="evenodd" d="M16 3.63431C16 3.31152 15.7749 3.02512 15.4527 3.00617C15.383 3.00207 15.313 3 15.2427 3H8.75729C7.50165 3 6.3414 3.66025 5.71358 4.73205L2.47086 10.2679C1.84305 11.3397 1.84305 12.6603 2.47086 13.732L5.71358 19.2679C6.3414 20.3397 7.50165 21 8.75728 21L15.2427 21C16.4983 21 17.6586 20.3397 18.2864 19.268L21.5291 13.732C22.157 12.6603 22.157 11.3397 21.5291 10.268L20.4179 8.37092C20.2834 8.14117 20.0371 8 19.7708 8C19.1913 8 18.8308 8.62909 19.1236 9.12908L20.2348 11.0261C20.5884 11.6297 20.5884 12.3703 20.2348 12.9739L18.7757 15.4649L16.7868 11.9534L16.7833 11.9472C15.8097 10.2656 13.3231 10.4573 12.6188 12.2683L11.5152 15.106C11.2465 15.797 10.3009 15.8774 9.91949 15.2416C9.12925 13.9246 7.36956 13.7158 6.28484 14.6785C6.1642 14.7856 6.0595 14.898 5.97779 14.9866L5.95143 15.0152C5.87618 15.0969 5.82067 15.1571 5.76205 15.2131L5.32253 15.6326L3.76516 12.9739C3.41161 12.3703 3.41161 11.6297 3.76516 11.0261L7.00788 5.4902C7.36294 4.88405 8.02702 4.5 8.75729 4.5L15.2427 4.5C15.6148 4.5 16 4.2406 16 3.86856V3.63431ZM17.8474 16.8696C17.8643 16.8995 17.883 16.9278 17.9032 16.9544L16.9921 18.5098C16.6371 19.1159 15.973 19.5 15.2427 19.5L8.75728 19.5C8.02702 19.5 7.36294 19.1159 7.00788 18.5098L6.10159 16.9626L6.79772 16.2982C6.89379 16.2065 6.9835 16.1089 7.05419 16.0321L7.08035 16.0037C7.16174 15.9154 7.22163 15.8527 7.28051 15.8004C7.68385 15.4424 8.34068 15.5258 8.63325 16.0134C9.65635 17.7185 12.1925 17.503 12.9132 15.6497L14.0168 12.812C14.2648 12.1744 15.1393 12.106 15.4837 12.6962L17.8474 16.8696Z" fill="#363538"/>
<path fill-rule="evenodd" clip-rule="evenodd" d="M11 9C11 10.1046 10.1046 11 9 11C7.89543 11 7 10.1046 7 9C7 7.89543 7.89543 7 9 7C10.1046 7 11 7.89543 11 9ZM9.5 9C9.5 9.27614 9.27614 9.5 9 9.5C8.72386 9.5 8.5 9.27614 8.5 9C8.5 8.72386 8.72386 8.5 9 8.5C9.27614 8.5 9.5 8.72386 9.5 9Z" fill="#363538"/>
</svg>
