<svg width="24" height="24" viewBox="0 0 24 24" fill="none" xmlns="http://www.w3.org/2000/svg">
<path fill-rule="evenodd" clip-rule="evenodd" d="M16.2574 5.05509C15.9948 3.96465 16.6552 2.83192 17.7778 2.80079L17.8005 2.80032C17.8239 2.79998 17.8477 2.7998 17.8719 2.7998C18.2253 2.7998 18.5494 2.93349 18.789 3.07067C18.9148 3.14274 19.0819 3.18945 19.227 3.18945C19.372 3.18945 19.4851 3.14274 19.6109 3.07067C19.8505 2.93349 20.1746 2.7998 20.528 2.7998C20.5522 2.7998 20.576 2.79998 20.5994 2.80032C21.7358 2.81671 22.4069 3.95732 22.1425 5.05509C21.8497 6.27082 20.1365 7.34844 19.4675 7.72859C19.3004 7.82354 19.0995 7.82354 18.9324 7.72859C18.2634 7.34844 16.5502 6.27082 16.2574 5.05509ZM18.0436 4.37237C18.3837 4.56712 18.8062 4.68945 19.227 4.68945C19.7458 4.68945 20.1264 4.50398 20.3563 4.37237C20.4079 4.34282 20.4544 4.32208 20.4916 4.30995C20.5152 4.30225 20.5283 4.30025 20.5315 4.29981C20.5473 4.29982 20.5627 4.29994 20.5778 4.30016C20.5946 4.3004 20.6026 4.3025 20.6042 4.30293C20.6058 4.30339 20.6061 4.30358 20.6063 4.30372C20.6068 4.30401 20.61 4.30592 20.6156 4.31133C20.6214 4.31689 20.63 4.32648 20.6398 4.34153C20.684 4.40929 20.7228 4.54352 20.6842 4.70383C20.6541 4.82861 20.4684 5.1401 19.9714 5.565C19.7166 5.78282 19.4428 5.97757 19.2 6.13578C18.9571 5.97757 18.6833 5.78282 18.4285 5.565C17.9315 5.1401 17.7458 4.82861 17.7157 4.70383C17.6771 4.54352 17.7159 4.4093 17.7601 4.34153C17.7699 4.32648 17.7785 4.31689 17.7843 4.31133C17.7899 4.30593 17.7931 4.30401 17.7936 4.30372C17.7938 4.30359 17.7942 4.30335 17.7957 4.30293C17.7973 4.3025 17.8053 4.3004 17.8221 4.30016C17.8372 4.29994 17.8526 4.29982 17.8684 4.29981C17.8716 4.30025 17.8847 4.30225 17.9083 4.30995C17.9455 4.32208 17.992 4.34282 18.0436 4.37237Z" fill="#363538"/>
<path fill-rule="evenodd" clip-rule="evenodd" d="M15 3.75C15 3.33579 14.6642 3 14.25 3H8.75729C7.50165 3 6.3414 3.66025 5.71358 4.73205L2.47086 10.2679C1.84305 11.3397 1.84305 12.6603 2.47086 13.732L5.71358 19.2679C6.3414 20.3397 7.50165 21 8.75728 21L15.2427 21C16.4983 21 17.6586 20.3397 18.2864 19.268L21.5291 13.732C22.157 12.6603 22.157 11.3397 21.5291 10.2679L21.0037 9.37092C20.8691 9.14117 20.6228 9 20.3565 9C19.7771 9 19.4165 9.62909 19.7094 10.1291L20.2348 11.0261C20.5884 11.6297 20.5884 12.3703 20.2348 12.9739L18.4877 15.9565L16.7868 12.9534L16.7833 12.9472C15.8097 11.2656 13.3231 11.4573 12.6188 13.2683L11.5152 16.106C11.2465 16.797 10.3009 16.8774 9.91949 16.2416C9.12925 14.9246 7.36956 14.7158 6.28484 15.6785C6.1642 15.7856 6.0595 15.898 5.97779 15.9866L5.95143 16.0152C5.87618 16.0969 5.82067 16.1571 5.76205 16.2131L5.69823 16.274L3.76516 12.9739C3.41161 12.3703 3.41161 11.6297 3.76516 11.0261L7.00788 5.4902C7.36294 4.88405 8.02702 4.5 8.75729 4.5L14.25 4.5C14.6642 4.5 15 4.16421 15 3.75ZM15.4837 13.6962L17.6113 17.4528L16.9921 18.5098C16.6371 19.1159 15.973 19.5 15.2427 19.5L8.75728 19.5C8.02702 19.5 7.36294 19.1159 7.00788 18.5098L6.4773 17.604L6.79772 17.2982C6.89379 17.2065 6.9835 17.1089 7.05419 17.0321L7.08035 17.0037C7.16174 16.9154 7.22163 16.8527 7.28051 16.8004C7.68385 16.4424 8.34068 16.5258 8.63325 17.0134C9.65635 18.7185 12.1925 18.503 12.9132 16.6497L14.0168 13.812C14.2648 13.1744 15.1393 13.106 15.4837 13.6962Z" fill="#363538"/>
<path fill-rule="evenodd" clip-rule="evenodd" d="M11 9C11 10.1046 10.1046 11 9 11C7.89543 11 7 10.1046 7 9C7 7.89543 7.89543 7 9 7C10.1046 7 11 7.89543 11 9ZM9.5 9C9.5 9.27614 9.27614 9.5 9 9.5C8.72386 9.5 8.5 9.27614 8.5 9C8.5 8.72386 8.72386 8.5 9 8.5C9.27614 8.5 9.5 8.72386 9.5 9Z" fill="#363538"/>
</svg>
