<svg width="24" height="24" viewBox="0 0 24 24" fill="none" xmlns="http://www.w3.org/2000/svg">
<path fill-rule="evenodd" clip-rule="evenodd" d="M5.41619 6.74976C5.96491 4.73284 7.80926 3.24976 10 3.24976H15C17.6234 3.24976 19.75 5.3764 19.75 7.99976V15.9998C19.75 18.6231 17.6234 20.7498 15 20.7498H10C7.80926 20.7498 5.96491 19.2667 5.41619 17.2498H5C4.58579 17.2498 4.25 16.914 4.25 16.4998C4.25 16.0855 4.58579 15.7498 5 15.7498H5.25V14.2498H5C4.58579 14.2498 4.25 13.914 4.25 13.4998C4.25 13.0855 4.58579 12.7498 5 12.7498H5.25V11.2498H5C4.58579 11.2498 4.25 10.914 4.25 10.4998C4.25 10.0855 4.58579 9.74976 5 9.74976H5.25V8.24976H5C4.58579 8.24976 4.25 7.91397 4.25 7.49976C4.25 7.08554 4.58579 6.74976 5 6.74976H5.41619ZM6.99908 6.74976C7.48886 5.57528 8.64803 4.74976 10 4.74976H15C16.7949 4.74976 18.25 6.20483 18.25 7.99976V15.9998C18.25 17.7947 16.7949 19.2498 15 19.2498H10C8.64803 19.2498 7.48886 18.4242 6.99908 17.2498C7.4133 17.2498 7.75 16.914 7.75 16.4998C7.75 16.0855 7.41421 15.7498 7 15.7498H6.75V14.2498H7C7.41421 14.2498 7.75 13.914 7.75 13.4998C7.75 13.0855 7.41421 12.7498 7 12.7498H6.75V11.2498H7C7.41421 11.2498 7.75 10.914 7.75 10.4998C7.75 10.0855 7.41421 9.74976 7 9.74976H6.75V8.24976H7C7.41421 8.24976 7.75 7.91397 7.75 7.49976C7.75 7.08554 7.4133 6.74976 6.99908 6.74976Z" fill="#363538"/>
</svg>
