<svg width="24" height="24" viewBox="0 0 24 24" fill="none" xmlns="http://www.w3.org/2000/svg">
<path fill-rule="evenodd" clip-rule="evenodd" d="M10.5286 3.20912C7.38708 3.98337 5.05726 6.82001 5.05726 10.2006V11.5002C5.05726 13.2654 4.50774 15.4765 3.97673 17.2011C3.55937 18.5566 4.54844 20.0002 5.96673 20.0002H10.0001C10.0001 20.2629 10.0519 20.523 10.1524 20.7656C10.2529 21.0083 10.4002 21.2287 10.5859 21.4145C10.7716 21.6002 10.9921 21.7475 11.2348 21.848C11.4774 21.9485 11.7375 22.0002 12.0001 22.0002C12.2628 22.0002 12.5228 21.9485 12.7655 21.848C13.0081 21.7475 13.2286 21.6002 13.4143 21.4145C13.6 21.2287 13.7474 21.0083 13.8479 20.7656C13.9484 20.523 14.0001 20.2629 14.0001 20.0002H18.3096C19.65 20.0002 20.6235 18.7042 20.3172 17.3992C19.9044 15.6404 19.4573 13.3164 19.4573 11.5002V10.2006C19.4573 6.62874 16.8563 3.66411 13.4451 3.09778C13.4289 3.03957 13.4092 2.98227 13.3859 2.92622C13.3106 2.74423 13.2001 2.57887 13.0608 2.43958C12.9215 2.3003 12.7561 2.18981 12.5741 2.11442C12.3922 2.03904 12.1971 2.00024 12.0001 2.00024C11.8031 2.00024 11.6081 2.03904 11.4261 2.11442C11.2441 2.18981 11.0787 2.3003 10.9395 2.43958C10.8002 2.57887 10.6897 2.74423 10.6143 2.92622C10.5764 3.01769 10.5478 3.11246 10.5286 3.20912ZM6.55726 10.2006V11.5002C6.55726 13.5044 5.9476 15.8975 5.41031 17.6425C5.34705 17.848 5.38676 18.0701 5.51097 18.247C5.63155 18.4188 5.79472 18.5002 5.96673 18.5002H18.3096C18.6283 18.5002 18.9549 18.1596 18.8569 17.742C18.4407 15.969 17.9573 13.5014 17.9573 11.5002V10.2006C17.9573 7.05246 15.4052 4.50024 12.2573 4.50024C9.10933 4.50024 6.55726 7.05247 6.55726 10.2006Z" fill="#363538"/>
</svg>
