<svg width="24" height="24" viewBox="0 0 24 24" fill="none" xmlns="http://www.w3.org/2000/svg">
<path d="M13.3858 2.92622C13.409 2.98227 13.4288 3.03956 13.445 3.09776C13.6688 3.1349 13.889 3.18237 14.1053 3.23965C13.7386 3.62402 13.4478 4.08132 13.2566 4.58757C12.9321 4.53018 12.5982 4.50024 12.2573 4.50024C9.10933 4.50024 6.55726 7.05247 6.55726 10.2006V11.5002C6.55726 13.5044 5.9476 15.8975 5.41031 17.6425C5.34705 17.848 5.38676 18.0701 5.51097 18.247C5.63155 18.4188 5.79472 18.5002 5.96673 18.5002H18.3096C18.6283 18.5002 18.9549 18.1596 18.8569 17.742C18.4407 15.969 17.9573 13.5014 17.9573 11.5002V10.2006C17.9573 10.0954 17.9544 9.99084 17.9488 9.88705C18.478 9.75831 18.9661 9.52429 19.3895 9.20843C19.4342 9.53275 19.4573 9.86396 19.4573 10.2006V11.5002C19.4573 13.3164 19.9044 15.6404 20.3172 17.3992C20.6235 18.7042 19.65 20.0002 18.3096 20.0002H14C14 20.2629 13.9483 20.523 13.8478 20.7656C13.7472 21.0083 13.5999 21.2287 13.4142 21.4145C13.2285 21.6002 13.008 21.7475 12.7654 21.848C12.5227 21.9485 12.2626 22.0002 12 22.0002C11.7374 22.0002 11.4773 21.9485 11.2346 21.848C10.992 21.7475 10.7715 21.6002 10.5858 21.4145C10.4001 21.2287 10.2528 21.0083 10.1522 20.7656C10.0517 20.523 10 20.2629 10 20.0002H5.96673C4.54844 20.0002 3.55937 18.5566 3.97673 17.2011C4.50774 15.4765 5.05726 13.2654 5.05726 11.5002V10.2006C5.05726 6.82006 7.38702 3.98344 10.5285 3.20915C10.5476 3.11248 10.5763 3.0177 10.6142 2.92622C10.6896 2.74423 10.8001 2.57887 10.9393 2.43958C11.0786 2.3003 11.244 2.18981 11.426 2.11442C11.608 2.03904 11.803 2.00024 12 2.00024C12.197 2.00024 12.392 2.03904 12.574 2.11442C12.756 2.18981 12.9214 2.3003 13.0607 2.43958C13.1999 2.57887 13.3104 2.74423 13.3858 2.92622Z" fill="#363538"/>
<path d="M17 9.00024C18.6569 9.00024 20 7.6571 20 6.00024C20 4.34339 18.6569 3.00024 17 3.00024C15.3431 3.00024 14 4.34339 14 6.00024C14 7.6571 15.3431 9.00024 17 9.00024Z" fill="#363538"/>
</svg>
