<svg width="24" height="24" viewBox="0 0 24 24" fill="none" xmlns="http://www.w3.org/2000/svg">
<path d="M13.9999 20.8695C13.9999 21.1436 13.9481 21.4152 13.8476 21.6684C13.7471 21.9215 13.5996 22.1513 13.414 22.3451C13.2284 22.5388 13.0081 22.6926 12.7656 22.7975C12.5229 22.9024 12.2626 22.9565 11.9999 22.9565C11.7373 22.9565 11.477 22.9024 11.2343 22.7975C10.9918 22.6926 10.7715 22.5388 10.5859 22.3451C10.4002 22.1513 10.2528 21.9215 10.1523 21.6684C10.0518 21.4152 9.99994 21.1436 9.99994 20.8695H7.18158L8.68158 19.3043H18.3095C18.6281 19.3041 18.9541 18.9491 18.8564 18.5135C18.4663 16.7793 18.0175 14.4075 17.9628 12.3974L17.957 12V10.6436C17.957 10.3225 17.9317 10.0074 17.8847 9.70003L19.1298 8.40077C19.3419 9.10915 19.457 9.86237 19.457 10.6436V12C19.457 13.895 19.9045 16.3206 20.3173 18.1559C20.6232 19.5173 19.6497 20.8694 18.3095 20.8695H13.9999Z" fill="#363538"/>
<path fill-rule="evenodd" clip-rule="evenodd" d="M11.9999 2.08691C12.1969 2.08692 12.3922 2.12749 12.5742 2.20614C12.7561 2.2848 12.9213 2.40019 13.0605 2.54547C13.1997 2.69077 13.3103 2.86313 13.3857 3.05295C13.4091 3.11195 13.427 3.17305 13.4433 3.23433C15.0729 3.51666 16.5164 4.36934 17.581 5.59031L20.4697 2.57706C20.7626 2.27147 21.2373 2.27145 21.5302 2.57706C21.8231 2.88268 21.8231 3.3781 21.5302 3.68372L3.53022 22.4663C3.23733 22.7719 2.76257 22.7719 2.46967 22.4663C2.17678 22.1607 2.17678 21.6653 2.46967 21.3597L4.1142 19.6426C3.89077 19.1763 3.81455 18.6259 3.94135 18.0815L3.97651 17.949C4.47433 16.2619 4.98841 14.1282 5.05072 12.3505L5.05756 12V10.6436C5.05762 7.1167 7.3866 4.15792 10.5273 3.34948C10.5464 3.24817 10.5761 3.14881 10.6142 3.05295C10.6896 2.86313 10.8002 2.69076 10.9394 2.54547C11.0786 2.40018 11.2438 2.28479 11.4257 2.20614C11.6077 2.12748 11.803 2.08691 11.9999 2.08691ZM12.2568 4.69561C9.10906 4.69581 6.55764 7.35884 6.55756 10.6436V12C6.55756 14.0273 5.98253 16.4361 5.45795 18.2404L16.5205 6.69697C15.4762 5.46956 13.9532 4.69564 12.2568 4.69561Z" fill="#363538"/>
</svg>
