<svg width="24" height="24" viewBox="0 0 24 24" fill="none" xmlns="http://www.w3.org/2000/svg">
<path fill-rule="evenodd" clip-rule="evenodd" d="M11.2736 2.56106C11.7207 2.2928 12.2793 2.2928 12.7263 2.56106L17.7375 5.56775C20.8064 7.4091 22.437 10.94 21.8486 14.4703C21.1485 18.671 17.514 21.7499 13.2553 21.7499H13.0108C13.004 21.75 12.9973 21.75 12.9905 21.7499H10.7446C6.48597 21.7499 2.85149 18.671 2.15137 14.4703C1.56299 10.94 3.19354 7.4091 6.26246 5.56775L11.2736 2.56106ZM15.0073 20.0348C15.1839 19.7629 15.3273 19.4818 15.4394 19.1932C15.7866 18.2995 15.8137 17.3864 15.6627 16.538C15.3651 14.8661 14.3646 13.3661 13.5492 12.4892C13.2672 12.1858 12.7926 12.1686 12.4893 12.4506C12.1859 12.7327 12.1687 13.2072 12.4507 13.5106C13.1446 14.2568 13.9552 15.5046 14.1859 16.8009C14.299 17.4365 14.2694 18.0626 14.0412 18.65C13.8327 19.1867 13.4414 19.7355 12.758 20.2499H11.242C10.5586 19.7355 10.1672 19.1867 9.95873 18.65C9.73052 18.0626 9.70096 17.4365 9.81409 16.8009C10.0448 15.5046 10.8554 14.2568 11.5492 13.5106C11.8313 13.2072 11.814 12.7327 11.5107 12.4506C11.2073 12.1686 10.7328 12.1858 10.4507 12.4892C9.63534 13.3661 8.63484 14.8661 8.33729 16.538C8.1863 17.3864 8.21334 18.2995 8.56053 19.1932C8.67264 19.4818 8.81604 19.7629 8.99264 20.0348C8.73537 19.9705 8.48325 19.8923 8.23719 19.801C8.21691 19.7273 8.18493 19.6555 8.14071 19.5881C6.74306 17.4603 6.50485 15.6445 6.96019 14.0695C7.42572 12.4592 8.65404 10.967 10.4542 9.59665C10.7838 9.34576 10.8476 8.8752 10.5967 8.54561C10.3459 8.21602 9.87529 8.15222 9.5457 8.40311C7.6167 9.87148 6.11028 11.6083 5.5192 13.6529C5.1 15.1029 5.1594 16.6429 5.7712 18.2607C4.67092 17.2134 3.89632 15.8159 3.63096 14.2237C3.14389 11.3013 4.49369 8.37829 7.0342 6.85399L12 3.87452L16.9658 6.85399C19.5063 8.37829 20.8561 11.3013 20.369 14.2237C20.1036 15.8159 19.329 17.2134 18.2288 18.2607C18.8406 16.6429 18.9 15.1029 18.4808 13.6529C17.8897 11.6083 16.3833 9.87148 14.4543 8.40311C14.1247 8.15222 13.6541 8.21602 13.4032 8.54561C13.1523 8.8752 13.2161 9.34576 13.5457 9.59665C15.3459 10.967 16.5742 12.4592 17.0398 14.0695C17.4951 15.6445 17.2569 17.4603 15.8593 19.5881C15.815 19.6555 15.783 19.7273 15.7628 19.801C15.5167 19.8923 15.2646 19.9705 15.0073 20.0348Z" fill="#363538"/>
</svg>
