<svg width="24" height="24" viewBox="0 0 24 24" fill="none" xmlns="http://www.w3.org/2000/svg">
<path d="M15.4999 1.74976C15.0857 1.74976 14.7499 2.08554 14.7499 2.49976C14.7499 2.91397 15.0857 3.24976 15.4999 3.24976H19.4999C19.5746 3.24976 19.6478 3.25631 19.7189 3.26888L13.0184 9.96943C12.7255 10.2623 12.7255 10.7372 13.0184 11.0301C13.3113 11.323 13.7861 11.323 14.079 11.0301L20.7428 4.36628C20.7475 4.41014 20.7499 4.45467 20.7499 4.49976V8.49976C20.7499 8.91397 21.0857 9.24976 21.4999 9.24976C21.9141 9.24976 22.2499 8.91397 22.2499 8.49976V4.49976C22.2499 3.75856 21.9567 3.08585 21.4799 2.59131L21.4765 2.58783C20.9765 2.07104 20.2757 1.74976 19.4999 1.74976H15.4999Z" fill="#363538"/>
<path d="M11.5 2.74994L11.4624 2.74994C9.81192 2.74993 8.52215 2.74993 7.49047 2.84343C6.44067 2.93858 5.58471 3.13526 4.825 3.57388C3.89008 4.11366 3.11372 4.89002 2.57394 5.82494C2.13532 6.58465 1.93864 7.44061 1.84349 8.49041C1.74999 9.52209 1.74999 10.8119 1.75 12.4623V12.5375C1.74999 14.188 1.74999 15.4778 1.84349 16.5095C1.93864 17.5593 2.13532 18.4152 2.57394 19.1749C3.11372 20.1099 3.89008 20.8862 4.825 21.426C5.58471 21.8646 6.44067 22.0613 7.49047 22.1564C8.52214 22.2499 9.81191 22.2499 11.4624 22.2499H11.5376C13.1881 22.2499 14.4779 22.2499 15.5095 22.1564C16.5593 22.0613 17.4153 21.8646 18.175 21.426C19.1099 20.8862 19.8863 20.1099 20.4261 19.1749C20.8647 18.4152 21.0614 17.5593 21.1565 16.5095C21.25 15.4778 21.25 14.188 21.25 12.5376V12.4999C21.25 12.0857 20.9142 11.7499 20.5 11.7499C20.0858 11.7499 19.75 12.0857 19.75 12.4999C19.75 14.1961 19.7493 15.418 19.6626 16.3741C19.5769 17.3198 19.4119 17.9316 19.127 18.4249C18.7189 19.1318 18.1319 19.7188 17.425 20.127C16.9316 20.4118 16.3199 20.5768 15.3741 20.6626C14.418 20.7492 13.1961 20.7499 11.5 20.7499C9.80389 20.7499 8.58195 20.7492 7.62587 20.6626C6.6801 20.5768 6.06836 20.4118 5.575 20.127C4.86811 19.7188 4.28111 19.1318 3.87298 18.4249C3.58814 17.9316 3.42309 17.3198 3.33737 16.3741C3.25072 15.418 3.25 14.1961 3.25 12.4999C3.25 10.8038 3.25072 9.58189 3.33737 8.62581C3.42309 7.68004 3.58814 7.0683 3.87298 6.57494C4.2811 5.86805 4.86811 5.28104 5.575 4.87292C6.06836 4.58808 6.6801 4.42303 7.62587 4.33731C8.58195 4.25066 9.80389 4.24994 11.5 4.24994C11.9142 4.24994 12.25 3.91415 12.25 3.49994C12.25 3.08573 11.9142 2.74994 11.5 2.74994Z" fill="#363538"/>
</svg>
