<svg width="24" height="24" viewBox="0 0 24 24" fill="none" xmlns="http://www.w3.org/2000/svg">
<path d="M3 5.25C2.58579 5.25 2.25 5.58579 2.25 6C2.25 6.41421 2.58579 6.75 3 6.75H6.92963C7.34757 6.75 7.73786 6.95888 7.9697 7.30662L14.7822 17.5254C15.2923 18.2905 16.1509 18.75 17.0704 18.75H21C21.4142 18.75 21.75 18.4142 21.75 18C21.75 17.5858 21.4142 17.25 21 17.25H17.0704C16.6524 17.25 16.2621 17.0411 16.0303 16.6934L9.21777 6.47457C8.70774 5.70953 7.8491 5.25 6.92963 5.25H3Z" fill="#363538"/>
<path d="M16 5.25C15.5858 5.25 15.25 5.58579 15.25 6C15.25 6.41421 15.5858 6.75 16 6.75H21C21.4142 6.75 21.75 6.41421 21.75 6C21.75 5.58579 21.4142 5.25 21 5.25H16Z" fill="#363538"/>
</svg>
