<svg width="24" height="24" viewBox="0 0 24 24" fill="none" xmlns="http://www.w3.org/2000/svg">
<path d="M9.5 10.9999C9.77614 10.9999 10 10.7761 10 10.4999C10 10.2238 9.77614 9.99994 9.5 9.99994C9.22386 9.99994 9 10.2238 9 10.4999C9 10.7761 9.22386 10.9999 9.5 10.9999Z" fill="#363538"/>
<path d="M9 12.4999C9 12.7761 8.77614 12.9999 8.5 12.9999C8.22386 12.9999 8 12.7761 8 12.4999C8 12.2238 8.22386 11.9999 8.5 11.9999C8.77614 11.9999 9 12.2238 9 12.4999Z" fill="#363538"/>
<path fill-rule="evenodd" clip-rule="evenodd" d="M17.6914 2.71426C14.8714 1.5073 12.7556 2.12033 11.5524 3.00692C11.201 3.26582 11.0461 3.6615 11.0956 4.04482C6.54969 4.49843 3 8.33465 3 12.9999C3 17.9705 7.02944 21.9999 12 21.9999C16.9706 21.9999 21 17.9705 21 12.9999C21 9.92598 19.4589 7.21196 17.1072 5.58835C18.3226 5.68839 19.4659 5.70605 20.3367 5.44737C20.3658 5.43874 20.3943 5.42835 20.4221 5.41626C20.4709 5.39506 20.5141 5.37973 20.5668 5.36114L20.5703 5.35989C20.5923 5.35213 20.6294 5.33906 20.6639 5.32508L20.6665 5.32405C20.6913 5.31405 20.7875 5.27536 20.8819 5.20201C20.9334 5.16195 21.039 5.07044 21.111 4.91432C21.1967 4.72842 21.2045 4.515 21.1303 4.32165C21.0678 4.15898 20.9662 4.05967 20.9152 4.0151C20.8589 3.96595 20.8061 3.93378 20.7749 3.91609C20.6787 3.86144 20.5587 3.81935 20.4911 3.79563L20.4835 3.79296C20.4392 3.77742 20.3873 3.75965 20.3271 3.739C19.9169 3.59851 19.1178 3.32478 17.6914 2.71426ZM14.7352 3.82462C14.3496 3.77902 13.9525 3.73231 13.547 3.68729C14.3952 3.45175 15.5687 3.4446 17.0692 4.07966C17.0114 4.07461 16.953 4.06934 16.8938 4.06384C16.2588 4.00482 15.5748 3.92392 14.8454 3.83765L14.7352 3.82462ZM19.5 12.9999C19.5 17.1421 16.1421 20.4999 12 20.4999C7.85786 20.4999 4.5 17.1421 4.5 12.9999C4.5 8.85781 7.85786 5.49994 12 5.49994C16.1421 5.49994 19.5 8.85781 19.5 12.9999Z" fill="#363538"/>
</svg>
