<svg width="24" height="24" viewBox="0 0 24 24" fill="none" xmlns="http://www.w3.org/2000/svg">
<path fill-rule="evenodd" clip-rule="evenodd" d="M16.9051 3.60303C14.5915 4.98376 11.3252 7.49264 6.97749 11.8276L4.99211 12.6098C3.87177 13.0511 3.16886 14.17 3.25751 15.3708L3.47452 18.3102C3.53837 19.1751 4.22603 19.8628 5.09092 19.9266L8.21852 20.1575C9.29107 20.2367 10.3114 19.6834 10.83 18.7413L11.8921 16.8122C16.5569 12.135 18.6469 8.88626 19.8316 6.46143C20.2947 5.5135 20.1552 4.492 19.5213 3.84024C18.8682 3.16889 17.8411 3.04444 16.9051 3.60303ZM17.6738 4.89109C18.079 4.64925 18.3289 4.76567 18.446 4.88614C18.5823 5.02622 18.7064 5.3475 18.4838 5.80297C17.4224 7.97543 15.5353 10.9591 11.2837 15.2942L8.45982 12.4703C12.54 8.44883 15.5723 6.14522 17.6738 4.89109ZM7.21463 13.3464L10.3575 16.4893L9.51601 18.0179C9.28025 18.4461 8.81648 18.6976 8.32896 18.6616L5.20136 18.4307C5.0778 18.4216 4.97957 18.3234 4.97044 18.1998L4.75344 15.2604C4.71315 14.7146 5.03265 14.206 5.5419 14.0054L7.21463 13.3464Z" fill="#363538"/>
</svg>
