<svg width="24" height="24" viewBox="0 0 24 24" fill="none" xmlns="http://www.w3.org/2000/svg">
<path fill-rule="evenodd" clip-rule="evenodd" d="M20.7487 10.8493C21.2505 11.3511 21.0845 12.2014 20.4308 12.4776L19.7822 12.7516C19.2665 12.9695 18.8023 13.2931 18.4195 13.7017L14.1749 18.233C12.6296 19.8826 10.0255 19.9251 8.42722 18.3268L4.82843 14.728C3.26634 13.1659 3.26634 10.6333 4.82843 9.07116L11.1924 2.7072C11.5829 2.31668 12.2161 2.31668 12.6066 2.7072L20.7487 10.8493ZM17.3248 12.6762C17.8423 12.1238 18.4681 11.6843 19.163 11.3849L11.8995 4.12141L5.88909 10.1318C4.91278 11.1081 4.91278 12.691 5.88909 13.6674L9.48788 17.2661C10.4868 18.2651 12.1144 18.2385 13.0802 17.2075L17.3248 12.6762Z" fill="#363538"/>
<path d="M21.1964 14.7215C21.0825 14.4368 20.8067 14.2501 20.5 14.2501C20.1933 14.2501 19.9175 14.4368 19.8036 14.7215L19.175 16.2931C18.8001 17.2304 19.4904 18.2501 20.5 18.2501C21.5096 18.2501 22.1999 17.2304 21.825 16.2931L21.1964 14.7215Z" fill="#363538"/>
</svg>
