<svg width="24" height="24" viewBox="0 0 24 24" fill="none" xmlns="http://www.w3.org/2000/svg">
<path fill-rule="evenodd" clip-rule="evenodd" d="M3.5 21C3.22386 21 3 20.7761 3 20.5V13.6898C3 11.6056 4.60038 9.87068 6.67782 9.7028L7.34859 9.6486C8.38731 9.56466 9.1875 8.6972 9.1875 7.6551V4.8125C9.1875 3.2592 10.4467 2 12 2C13.5533 2 14.8125 3.2592 14.8125 4.8125V7.6551C14.8125 8.6972 15.6127 9.56466 16.6514 9.6486L17.3222 9.7028C19.3996 9.87068 21 11.6056 21 13.6898V20.5C21 20.7761 20.7761 21 20.5 21H13.6514C13.5527 21 13.4562 20.9748 13.374 20.92L12.2774 20.18C12.1094 20.068 11.8906 20.068 11.7226 20.18L10.626 20.92C10.5438 20.9748 10.4473 21 10.3486 21H3.5ZM10.8836 18.9366L10.0487 19.5H4.5V16H19.5V19.5H13.9513L13.1164 18.9366L13.1094 18.9319C12.4376 18.4841 11.5624 18.4841 10.8906 18.9319L10.8836 18.9366ZM6.79864 11.1979C5.50024 11.3028 4.5 12.3872 4.5 13.6898V14.5H19.5V13.6898C19.5 12.3872 18.4998 11.3028 17.2014 11.1979L16.5306 11.1437C14.7128 10.9968 13.3125 9.47878 13.3125 7.6551V4.8125C13.3125 4.08763 12.7249 3.5 12 3.5C11.2751 3.5 10.6875 4.08763 10.6875 4.8125V7.6551C10.6875 9.47878 9.28717 10.9968 7.46941 11.1437L6.79864 11.1979Z" fill="#363538"/>
</svg>
