<svg width="24" height="24" viewBox="0 0 24 24" fill="none" xmlns="http://www.w3.org/2000/svg">
<path d="M9.5 9.00007C10.3284 9.00007 11 8.32849 11 7.50007C11 6.67164 10.3284 6.00007 9.5 6.00007C8.67157 6.00007 8 6.67164 8 7.50007C8 8.32849 8.67157 9.00007 9.5 9.00007Z" fill="#363538"/>
<path d="M16 16.5001C16 17.3285 15.3284 18.0001 14.5 18.0001C13.6716 18.0001 13 17.3285 13 16.5001C13 15.6716 13.6716 15.0001 14.5 15.0001C15.3284 15.0001 16 15.6716 16 16.5001Z" fill="#363538"/>
<path d="M6.5 13.0001C7.32843 13.0001 8 12.3285 8 11.5001C8 10.6716 7.32843 10.0001 6.5 10.0001C5.67157 10.0001 5 10.6716 5 11.5001C5 12.3285 5.67157 13.0001 6.5 13.0001Z" fill="#363538"/>
<path d="M11 15.5001C11 16.3285 10.3284 17.0001 9.5 17.0001C8.67157 17.0001 8 16.3285 8 15.5001C8 14.6716 8.67157 14.0001 9.5 14.0001C10.3284 14.0001 11 14.6716 11 15.5001Z" fill="#363538"/>
<path fill-rule="evenodd" clip-rule="evenodd" d="M6.92052 3.18559C9.49519 1.92654 12.5497 2.00046 14.593 2.25576C15.2255 2.33479 16.1102 2.62185 17.0237 3.06432C17.9474 3.51168 18.954 4.14359 19.8174 4.95118C20.1896 5.29929 20.4234 5.72312 20.4826 6.18766C20.5413 6.6483 20.4201 7.08402 20.197 7.44581C19.7591 8.15597 18.9147 8.6237 17.9817 8.67114C16.1148 8.76606 14.9637 9.15853 14.3638 9.58128C14.07 9.78831 13.9403 9.9791 13.8895 10.1152C13.8431 10.2393 13.8437 10.3631 13.9041 10.5054C14.0413 10.8287 14.5302 11.3011 15.5887 11.6162C16.6149 11.9216 18.0646 12.0391 19.886 11.7589C20.405 11.679 20.8988 11.699 21.3292 11.8667C21.7786 12.0417 22.1147 12.3621 22.3059 12.7843C22.6618 13.5704 22.4565 14.5496 22.0543 15.4244C21.22 17.2389 19.202 19.3686 16.3104 20.6829C14.1259 21.6759 10.6411 21.4999 7.73398 20.1524C4.7802 18.7833 2.25 16.1191 2.25 12.0001C2.25 9.59633 2.73985 7.71433 3.5863 6.26112C4.43532 4.80348 5.61651 3.82327 6.92052 3.18559ZM4.88245 7.01609C4.19765 8.1918 3.75 9.79946 3.75 12.0001C3.75 15.3811 5.78564 17.596 8.36479 18.7915C10.9906 20.0087 14.0058 20.0828 15.6896 19.3174C18.298 18.1317 20.0272 16.2426 20.6915 14.7977C21.0386 14.0428 21.0205 13.5822 20.9394 13.403C20.9121 13.3426 20.8737 13.299 20.7847 13.2644C20.6769 13.2223 20.4686 13.1869 20.114 13.2414C18.1226 13.5478 16.4428 13.4354 15.1608 13.0539C13.9111 12.6819 12.9133 12.0102 12.5233 11.0914C12.3202 10.6127 12.2972 10.0911 12.4844 9.59013C12.6671 9.10118 13.0283 8.68736 13.4997 8.35513C14.4303 7.69934 15.9077 7.27466 17.9055 7.17307C18.4115 7.14734 18.774 6.89561 18.9202 6.65853C18.9891 6.54671 19.0042 6.45186 18.9947 6.37731C18.9857 6.30667 18.9467 6.19068 18.7928 6.04665C18.0622 5.36328 17.1889 4.81103 16.3698 4.41431C15.5407 4.0127 14.8197 3.79576 14.407 3.74419C12.4503 3.4997 9.75481 3.46933 7.57948 4.5331C6.50849 5.05682 5.56468 5.8448 4.88245 7.01609Z" fill="#363538"/>
</svg>
