<svg width="24" height="24" viewBox="0 0 24 24" fill="none" xmlns="http://www.w3.org/2000/svg">
<path fill-rule="evenodd" clip-rule="evenodd" d="M8.5 8.49989C9.74259 8.49989 10.7499 9.50732 10.75 10.7499C10.75 11.9925 9.74264 12.9999 8.5 12.9999C7.25736 12.9999 6.25 11.9925 6.25 10.7499C6.25008 9.50732 7.25741 8.49989 8.5 8.49989ZM8.5 9.99989C8.08583 9.99989 7.75008 10.3357 7.75 10.7499C7.75 11.1641 8.08579 11.4999 8.5 11.4999C8.91421 11.4999 9.25 11.1641 9.25 10.7499C9.24992 10.3357 8.91417 9.99989 8.5 9.99989Z" fill="#363538"/>
<path fill-rule="evenodd" clip-rule="evenodd" d="M18.6943 5.12782C19.7109 5.03275 20.8015 5.50883 21.2412 6.57704C21.7245 7.75156 22.314 9.72532 22.25 12.2684C22.1924 14.5518 21.7282 16.2292 21.3076 17.2958C20.8358 18.4919 19.578 18.8999 18.5127 18.6923C16.8499 18.3681 14.3419 17.9999 12 17.9999C9.63566 17.9999 7.10234 18.3757 5.44043 18.702C4.40792 18.9047 3.17467 18.5293 2.68848 17.3681C2.24038 16.2976 1.74995 14.5899 1.75 12.2499C1.75008 9.75802 2.30648 7.81585 2.7627 6.6415C3.18968 5.54309 4.3003 5.03432 5.34668 5.13173C7.1479 5.29941 9.85154 5.49989 12 5.49989C14.165 5.49989 16.8936 5.29624 18.6943 5.12782ZM18.834 6.62196C17.0197 6.79165 14.2358 6.99989 12 6.99989C9.78087 6.99989 7.02182 6.79482 5.20703 6.62587C4.69652 6.57841 4.29982 6.82556 4.16016 7.18446C3.7561 8.22455 3.25007 9.98145 3.25 12.2499C3.24995 14.375 3.69444 15.8864 4.07227 16.789C4.20755 17.1121 4.60485 17.3376 5.15137 17.2304C6.41687 16.9819 8.18967 16.7024 10.0381 16.5731L11.7803 13.786C12.3161 12.9289 13.4162 12.6192 14.3203 13.0712C14.5375 13.1797 14.8014 13.1012 14.9238 12.8915L16.8027 9.67079C17.5425 8.40311 19.4202 8.55479 19.9473 9.9247L20.752 12.0155C20.7724 9.83 20.2629 8.14329 19.8535 7.14833C19.7139 6.80931 19.3326 6.57533 18.834 6.62196ZM18.5479 10.4628C18.4724 10.2675 18.2044 10.246 18.0986 10.4267L16.2197 13.6474C15.6988 14.5403 14.5741 14.8753 13.6494 14.413C13.437 14.3068 13.1787 14.3797 13.0527 14.5809L11.8516 16.5009C11.9011 16.5006 11.9506 16.4999 12 16.4999C14.4756 16.4999 17.088 16.8868 18.7998 17.2206C19.3612 17.3299 19.7758 17.0907 19.9121 16.745C20.072 16.3394 20.2408 15.8174 20.3877 15.1806C20.3674 15.1516 20.3474 15.122 20.3311 15.0897L20.2998 15.0194L18.5479 10.4628Z" fill="#363538"/>
</svg>
