<svg width="24" height="24" viewBox="0 0 24 24" fill="none" xmlns="http://www.w3.org/2000/svg">
<path fill-rule="evenodd" clip-rule="evenodd" d="M8 1.75C7.0335 1.75 6.25 2.5335 6.25 3.5V4.25H5.5C4.80964 4.25 4.25 4.80964 4.25 5.5V6.5C4.25 7.19036 4.80964 7.75 5.5 7.75H6.30166L7.18557 20.1247C7.25098 21.0405 8.013 21.75 8.93112 21.75H15.0689C15.987 21.75 16.749 21.0405 16.8144 20.1247L17.6983 7.75H18.5C19.1904 7.75 19.75 7.19036 19.75 6.5V5.5C19.75 4.80964 19.1904 4.25 18.5 4.25H17.75V3.5C17.75 2.5335 16.9665 1.75 16 1.75H8ZM8.68175 20.0178L7.80548 7.75H16.1945L15.3182 20.0178C15.3089 20.1486 15.2 20.25 15.0689 20.25H8.93112C8.79996 20.25 8.6911 20.1486 8.68175 20.0178ZM7.75 3.5C7.75 3.36193 7.86193 3.25 8 3.25H16C16.1381 3.25 16.25 3.36193 16.25 3.5V4.5C16.25 5.19036 16.8096 5.75 17.5 5.75H18.25V6.25H5.75V5.75H6.5C7.19036 5.75 7.75 5.19036 7.75 4.5V3.5Z" fill="#363538"/>
</svg>
