<svg width="24" height="24" viewBox="0 0 24 24" fill="none" xmlns="http://www.w3.org/2000/svg">
<path d="M13.7197 10.4697C14.0126 10.1768 14.4874 10.1768 14.7803 10.4697C15.0732 10.7626 15.0732 11.2374 14.7803 11.5303L11.8037 14.5068C11.518 14.7921 11.0581 14.7998 10.7627 14.5244L9.23828 13.1035L9.18457 13.0488C8.93432 12.7629 8.93666 12.3279 9.20117 12.0439C9.46606 11.7599 9.90034 11.7271 10.2031 11.957L10.2617 12.0068L11.2549 12.9336L13.7197 10.4697Z" fill="#363538"/>
<path fill-rule="evenodd" clip-rule="evenodd" d="M14.2041 2.01074C15.0445 2.09594 15.7298 2.70147 15.9355 3.5H16C18.2091 3.5 20 5.29086 20 7.5V18L19.9951 18.2061C19.8879 20.3194 18.14 22 16 22H8C5.79086 22 4 20.2091 4 18V7.5C4 5.29086 5.79086 3.5 8 3.5H8.06543C8.28765 2.63768 9.06829 2 10 2H14L14.2041 2.01074ZM8 5C6.61929 5 5.5 6.11929 5.5 7.5V18C5.5 19.3807 6.61929 20.5 8 20.5H16C17.3807 20.5 18.5 19.3807 18.5 18V7.5C18.5 6.11929 17.3807 5 16 5H15.7305C15.3845 5.59733 14.7399 6 14 6H10L9.7959 5.98926C9.1424 5.923 8.58326 5.54151 8.26953 5H8ZM10 3.5C9.72386 3.5 9.5 3.72386 9.5 4C9.5 4.27614 9.72386 4.5 10 4.5H14C14.2761 4.5 14.5 4.27614 14.5 4C14.5 3.72386 14.2761 3.5 14 3.5H10Z" fill="#363538"/>
</svg>
