<svg width="24" height="24" viewBox="0 0 24 24" fill="none" xmlns="http://www.w3.org/2000/svg">
<path fill-rule="evenodd" clip-rule="evenodd" d="M8.5 7.5C7.11929 7.5 6 8.61929 6 10V14C6 15.3807 7.11929 16.5 8.5 16.5C9.88071 16.5 11 15.3807 11 14V10C11 8.61929 9.88071 7.5 8.5 7.5ZM9.5 10C9.5 9.44772 9.05228 9 8.5 9C7.94772 9 7.5 9.44772 7.5 10V14C7.5 14.5523 7.94772 15 8.5 15C9.05228 15 9.5 14.5523 9.5 14V10Z" fill="#363538"/>
<path fill-rule="evenodd" clip-rule="evenodd" d="M13 10C13 8.61929 14.1193 7.5 15.5 7.5C16.8807 7.5 18 8.61929 18 10V14C18 15.3807 16.8807 16.5 15.5 16.5C14.1193 16.5 13 15.3807 13 14V10ZM15.5 9C16.0523 9 16.5 9.44772 16.5 10V14C16.5 14.5523 16.0523 15 15.5 15C14.9477 15 14.5 14.5523 14.5 14V10C14.5 9.44772 14.9477 9 15.5 9Z" fill="#363538"/>
<path fill-rule="evenodd" clip-rule="evenodd" d="M12 22C17.5228 22 22 17.5228 22 12C22 6.47715 17.5228 2 12 2C6.47715 2 2 6.47715 2 12C2 17.5228 6.47715 22 12 22ZM12 20.5C16.6944 20.5 20.5 16.6944 20.5 12C20.5 7.30558 16.6944 3.5 12 3.5C7.30558 3.5 3.5 7.30558 3.5 12C3.5 16.6944 7.30558 20.5 12 20.5Z" fill="#363538"/>
</svg>
