<svg width="24" height="24" viewBox="0 0 24 24" fill="none" xmlns="http://www.w3.org/2000/svg">
<path fill-rule="evenodd" clip-rule="evenodd" d="M17 13.5C15.6193 13.5 14.5 14.6193 14.5 16C14.5 17.3807 15.6193 18.5 17 18.5C18.3807 18.5 19.5 17.3807 19.5 16C19.5 14.6193 18.3807 13.5 17 13.5ZM16 16C16 16.5523 16.4477 17 17 17C17.5523 17 18 16.5523 18 16C18 15.4477 17.5523 15 17 15C16.4477 15 16 15.4477 16 16Z" fill="#363538"/>
<path fill-rule="evenodd" clip-rule="evenodd" d="M15 10C15 8.89543 15.8954 8 17 8C18.1046 8 19 8.89543 19 10C19 11.1046 18.1046 12 17 12C15.8954 12 15 11.1046 15 10ZM17 10.5C16.7239 10.5 16.5 10.2761 16.5 10C16.5 9.72386 16.7239 9.5 17 9.5C17.2761 9.5 17.5 9.72386 17.5 10C17.5 10.2761 17.2761 10.5 17 10.5Z" fill="#363538"/>
<path fill-rule="evenodd" clip-rule="evenodd" d="M18 4.5H6C4.61929 4.5 3.5 5.61929 3.5 7V15C3.5 16.3807 4.61929 17.5 6 17.5H12V9C12 6.79086 13.7909 5 16 5H18C20.2091 5 22 6.79086 22 9V18C22 20.2091 20.2091 22 18 22H16C14.8561 22 13.8243 21.5198 13.0953 20.75H10C9.58579 20.75 9.25 20.4142 9.25 20C9.25 19.5858 9.58579 19.25 10 19.25H12.1992C12.1722 19.1678 12.1478 19.0844 12.126 19H6C3.79086 19 2 17.2091 2 15V7C2 4.79086 3.79086 3 6 3H18C18.6155 3 19.1985 3.13902 19.7194 3.38737C19.8966 3.47186 20 3.65601 20 3.85232C20 4.38056 19.1723 4.72857 18.6629 4.58884C18.4518 4.53093 18.2295 4.5 18 4.5ZM16 6.5H18C19.3807 6.5 20.5 7.61929 20.5 9V18C20.5 19.3807 19.3807 20.5 18 20.5H16C14.6193 20.5 13.5 19.3807 13.5 18V9C13.5 7.61929 14.6193 6.5 16 6.5Z" fill="#363538"/>
</svg>
