<svg width="24" height="24" viewBox="0 0 24 24" fill="none" xmlns="http://www.w3.org/2000/svg">
<path d="M5.85462 4.75C5.55793 5.48296 4.83934 6 4 6C2.89543 6 2 5.10457 2 4C2 2.89543 2.89543 2 4 2C4.83934 2 5.55793 2.51704 5.85462 3.25H10V2H14V3.25H18.1454C18.4421 2.51704 19.1607 2 20 2C21.1046 2 22 2.89543 22 4C22 5.10457 21.1046 6 20 6C19.1607 6 18.4421 5.48296 18.1454 4.75H16.9005C19.2234 6.32316 20.75 8.9833 20.75 12V13C20.75 13.4142 20.4142 13.75 20 13.75C19.5858 13.75 19.25 13.4142 19.25 13V12C19.25 8.68967 17.0314 5.89753 14 5.02937V6H10V5.02937C6.9686 5.89753 4.75 8.68967 4.75 12V13C4.75 13.4142 4.41421 13.75 4 13.75C3.58579 13.75 3.25 13.4142 3.25 13V12C3.25 8.9833 4.77662 6.32316 7.09946 4.75H5.85462Z" fill="#363538"/>
<path fill-rule="evenodd" clip-rule="evenodd" d="M13.424 8.7033C12.7261 7.72619 11.2739 7.72619 10.576 8.7033L6.73965 14.0741C6.36288 14.6016 6.30855 15.2941 6.59844 15.8739L9.05279 20.7826C9.34922 21.3755 9.95518 21.75 10.618 21.75H13.382C14.0448 21.75 14.6508 21.3755 14.9472 20.7826L17.4016 15.8739C17.6915 15.2941 17.6371 14.6016 17.2603 14.0741L13.424 8.7033ZM12.75 14.378V10.3404L16.0397 14.946C16.0936 15.0214 16.1013 15.1203 16.0599 15.2031L13.6056 20.1118C13.5632 20.1965 13.4767 20.25 13.382 20.25H10.618C10.5233 20.25 10.4368 20.1965 10.3944 20.1118L7.94008 15.2031C7.89866 15.1203 7.90643 15.0213 7.96025 14.946L11.25 10.3404V14.378C10.3761 14.6869 9.75 15.5203 9.75 16.5C9.75 17.7426 10.7574 18.75 12 18.75C13.2426 18.75 14.25 17.7426 14.25 16.5C14.25 15.5203 13.6239 14.6869 12.75 14.378ZM11.25 16.5C11.25 16.0858 11.5858 15.75 12 15.75C12.4142 15.75 12.75 16.0858 12.75 16.5C12.75 16.9142 12.4142 17.25 12 17.25C11.5858 17.25 11.25 16.9142 11.25 16.5Z" fill="#363538"/>
</svg>
