<svg width="24" height="24" viewBox="0 0 24 24" fill="none" xmlns="http://www.w3.org/2000/svg">
<path fill-rule="evenodd" clip-rule="evenodd" d="M8.91649 17.7406L13.2866 18.5118L13.9116 19.7617C14.4457 20.83 15.8696 21.0611 16.7142 20.2165L20.409 16.5217C21.2536 15.6771 21.0225 14.2532 19.9542 13.719L18.7043 13.0941L17.9331 8.72398C17.7456 7.66174 16.9545 6.80717 15.9098 6.53854L6.42201 4.09883C5.13249 3.76723 3.95974 4.93999 4.29133 6.22951L6.73104 15.7173C6.99967 16.762 7.85424 17.5531 8.91649 17.7406ZM11.0507 9.79757L7.06652 5.81335L15.5362 7.99128C16.0111 8.11338 16.3707 8.50182 16.4559 8.98466L17.2248 13.3419L13.5344 17.0323L9.17717 16.2634C8.69432 16.1782 8.30589 15.8186 8.18378 15.3437L6.00586 6.87401L9.99008 10.8582C9.59055 11.6946 9.73715 12.7266 10.4299 13.4194C11.3086 14.298 12.7332 14.298 13.6119 13.4194C14.4905 12.5407 14.4905 11.1161 13.6119 10.2374C12.9191 9.54464 11.8871 9.39804 11.0507 9.79757ZM14.7012 17.9869L18.1794 14.5087L19.2833 15.0607C19.436 15.137 19.469 15.3404 19.3483 15.4611L15.6536 19.1558C15.5329 19.2765 15.3295 19.2435 15.2532 19.0908L14.7012 17.9869ZM11.4905 11.298C11.7834 11.0051 12.2583 11.0051 12.5512 11.298C12.8441 11.5909 12.8441 12.0658 12.5512 12.3587C12.2583 12.6516 11.7834 12.6516 11.4905 12.3587C11.1976 12.0658 11.1976 11.5909 11.4905 11.298Z" fill="#363538"/>
</svg>
