<svg width="24" height="24" viewBox="0 0 24 24" fill="none" xmlns="http://www.w3.org/2000/svg">
<path fill-rule="evenodd" clip-rule="evenodd" d="M19.8897 3.98392C18.8158 2.90998 17.0746 2.90998 16.0006 3.98392L10.8903 9.09424L10.4329 11.3816C10.188 12.6061 11.2676 13.6857 12.4921 13.4408L14.7794 12.9833L19.8897 7.87301C20.9637 6.79907 20.9637 5.05786 19.8897 3.98392ZM17.0613 5.04458C17.5495 4.55643 18.3409 4.55643 18.8291 5.04458C19.3172 5.53274 19.3172 6.32419 18.8291 6.81235L14.0399 11.6015L12.1979 11.9699C12.023 12.0049 11.8687 11.8507 11.9037 11.6758L12.2721 9.83376L17.0613 5.04458Z" fill="#363538"/>
<path d="M9.09029 14.3386C9.4982 14.2667 9.77053 13.8776 9.69854 13.4697C9.62656 13.0618 9.23753 12.7895 8.82962 12.8615C8.4974 12.9201 8.14953 12.9747 7.78871 13.0313L7.74463 13.0382C7.37089 13.0969 6.98452 13.1578 6.60439 13.2258C5.85159 13.3606 5.07958 13.5302 4.42188 13.79C3.77759 14.0445 3.1257 14.4304 2.76197 15.0727C2.37363 15.7584 2.41033 16.555 2.77054 17.3955C3.20905 18.4187 4.15666 18.8963 5.16356 19.0745C6.16415 19.2516 7.35224 19.1634 8.54183 18.9509C10.9322 18.5237 13.569 17.5484 15.2676 16.784C16.6116 16.1792 17.6792 16.3427 18.2043 16.7271C18.4565 16.9117 18.6058 17.1556 18.6466 17.4509C18.6888 17.7556 18.6235 18.1839 18.3107 18.7244C18.0595 19.1584 17.4642 19.5265 16.4308 19.8068C15.4257 20.0794 14.1896 20.2226 12.8848 20.3538C12.4727 20.3953 12.1722 20.763 12.2136 21.1751C12.2551 21.5872 12.6228 21.8877 13.0349 21.8463C14.3252 21.7165 15.6812 21.5643 16.8235 21.2545C17.9374 20.9523 19.0446 20.4508 19.609 19.4757C20.0462 18.7204 20.2309 17.957 20.1325 17.2453C20.0327 16.5243 19.6507 15.927 19.0904 15.5168C17.9905 14.7116 16.3081 14.6709 14.6521 15.4161C13.0174 16.1517 10.5042 17.0764 8.27796 17.4742C7.15922 17.6742 6.17232 17.7297 5.42499 17.5975C4.68399 17.4663 4.31076 17.1814 4.14926 16.8046C3.90947 16.2451 3.9795 15.9667 4.06721 15.8118C4.17953 15.6135 4.4464 15.3931 4.97296 15.1851C5.48611 14.9824 6.13703 14.8333 6.86862 14.7024C7.23069 14.6376 7.60187 14.579 7.97723 14.5201L8.02628 14.5124C8.38286 14.4564 8.74359 14.3998 9.09029 14.3386Z" fill="#363538"/>
</svg>
