<svg width="24" height="24" viewBox="0 0 24 24" fill="none" xmlns="http://www.w3.org/2000/svg">
<path fill-rule="evenodd" clip-rule="evenodd" d="M11 8C11 9.10457 10.1046 10 9 10C7.89543 10 7 9.10457 7 8C7 6.89543 7.89543 6 9 6C10.1046 6 11 6.89543 11 8ZM9.5 8C9.5 8.27614 9.27614 8.5 9 8.5C8.72386 8.5 8.5 8.27614 8.5 8C8.5 7.72386 8.72386 7.5 9 7.5C9.27614 7.5 9.5 7.72386 9.5 8Z" fill="#363538"/>
<path d="M8.04505 17.0156L16.5303 8.53033C16.8232 8.23744 16.8232 7.76256 16.5303 7.46967C16.2374 7.17678 15.7626 7.17678 15.4697 7.46967L6.98439 15.955C6.6915 16.2478 6.6915 16.7227 6.98439 17.0156C7.27728 17.3085 7.75216 17.3085 8.04505 17.0156Z" fill="#363538"/>
<path fill-rule="evenodd" clip-rule="evenodd" d="M15 18C16.1046 18 17 17.1046 17 16C17 14.8954 16.1046 14 15 14C13.8954 14 13 14.8954 13 16C13 17.1046 13.8954 18 15 18ZM15 16.5C15.2761 16.5 15.5 16.2761 15.5 16C15.5 15.7239 15.2761 15.5 15 15.5C14.7239 15.5 14.5 15.7239 14.5 16C14.5 16.2761 14.7239 16.5 15 16.5Z" fill="#363538"/>
<path fill-rule="evenodd" clip-rule="evenodd" d="M22 12C22 17.5228 17.5228 22 12 22C6.47715 22 2 17.5228 2 12C2 6.47715 6.47715 2 12 2C17.5228 2 22 6.47715 22 12ZM20.5 12C20.5 16.6944 16.6944 20.5 12 20.5C7.30558 20.5 3.5 16.6944 3.5 12C3.5 7.30558 7.30558 3.5 12 3.5C16.6944 3.5 20.5 7.30558 20.5 12Z" fill="#363538"/>
</svg>
