<svg width="24" height="24" viewBox="0 0 24 24" fill="none" xmlns="http://www.w3.org/2000/svg">
<path d="M18.1871 6.87359C18.48 6.5807 18.48 6.10582 18.1871 5.81293C17.8942 5.52004 17.4193 5.52004 17.1264 5.81293L5.8127 17.1266C5.51981 17.4195 5.51981 17.8944 5.8127 18.1873C6.10559 18.4802 6.58047 18.4802 6.87336 18.1873L18.1871 6.87359Z" fill="#363538"/>
<path fill-rule="evenodd" clip-rule="evenodd" d="M11 8C11 9.10457 10.1046 10 9 10C7.89543 10 7 9.10457 7 8C7 6.89543 7.89543 6 9 6C10.1046 6 11 6.89543 11 8ZM9.5 8C9.5 8.27614 9.27614 8.5 9 8.5C8.72386 8.5 8.5 8.27614 8.5 8C8.5 7.72386 8.72386 7.5 9 7.5C9.27614 7.5 9.5 7.72386 9.5 8Z" fill="#363538"/>
<path fill-rule="evenodd" clip-rule="evenodd" d="M15 18C16.1046 18 17 17.1046 17 16C17 14.8954 16.1046 14 15 14C13.8954 14 13 14.8954 13 16C13 17.1046 13.8954 18 15 18ZM15 16.5C15.2761 16.5 15.5 16.2761 15.5 16C15.5 15.7239 15.2761 15.5 15 15.5C14.7239 15.5 14.5 15.7239 14.5 16C14.5 16.2761 14.7239 16.5 15 16.5Z" fill="#363538"/>
<path fill-rule="evenodd" clip-rule="evenodd" d="M2 12C2 15.7385 2 17.6077 2.80385 19C3.33046 19.9121 4.08788 20.6695 5 21.1962C6.3923 22 8.26154 22 12 22C15.7385 22 17.6077 22 19 21.1962C19.9121 20.6695 20.6695 19.9121 21.1962 19C22 17.6077 22 15.7385 22 12C22 8.26154 22 6.3923 21.1962 5C20.6695 4.08788 19.9121 3.33046 19 2.80385C17.6077 2 15.7385 2 12 2C8.26154 2 6.3923 2 5 2.80385C4.08788 3.33046 3.33046 4.08788 2.80385 5C2 6.3923 2 8.26154 2 12ZM19.8971 5.75C20.1453 6.1798 20.3146 6.75097 20.4056 7.75559C20.4986 8.78082 20.5 10.1032 20.5 12C20.5 13.8968 20.4986 15.2192 20.4056 16.2444C20.3146 17.249 20.1453 17.8202 19.8971 18.25C19.5022 18.9341 18.9341 19.5022 18.25 19.8971C17.8202 20.1453 17.249 20.3146 16.2444 20.4056C15.2192 20.4986 13.8968 20.5 12 20.5C10.1032 20.5 8.78082 20.4986 7.75559 20.4056C6.75097 20.3146 6.1798 20.1453 5.75 19.8971C5.06591 19.5022 4.49784 18.9341 4.10289 18.25C3.85474 17.8202 3.68541 17.249 3.59436 16.2444C3.50144 15.2192 3.5 13.8968 3.5 12C3.5 10.1032 3.50144 8.78082 3.59436 7.75559C3.68541 6.75097 3.85474 6.1798 4.10289 5.75C4.49784 5.06591 5.06591 4.49784 5.75 4.10289C6.1798 3.85474 6.75097 3.68541 7.75559 3.59436C8.78082 3.50144 10.1032 3.5 12 3.5C13.8968 3.5 15.2192 3.50144 16.2444 3.59436C17.249 3.68541 17.8202 3.85474 18.25 4.10289C18.9341 4.49784 19.5022 5.06591 19.8971 5.75Z" fill="#363538"/>
</svg>
