<svg width="24" height="24" viewBox="0 0 24 24" fill="none" xmlns="http://www.w3.org/2000/svg">
<path fill-rule="evenodd" clip-rule="evenodd" d="M8.99999 9C10.1046 9 11 8.10457 11 7C11 5.89543 10.1046 5 8.99999 5C7.89542 5 6.99999 5.89543 6.99999 7C6.99999 8.10457 7.89542 9 8.99999 9ZM8.99999 7.5C9.27613 7.5 9.49999 7.27614 9.49999 7C9.49999 6.72386 9.27613 6.5 8.99999 6.5C8.72385 6.5 8.49999 6.72386 8.49999 7C8.49999 7.27614 8.72385 7.5 8.99999 7.5Z" fill="#363538"/>
<path d="M18.1871 5.81293C18.4799 6.10582 18.4799 6.5807 18.1871 6.87359L6.87335 18.1873C6.58045 18.4802 6.10558 18.4802 5.81269 18.1873C5.51979 17.8944 5.51979 17.4195 5.81269 17.1266L17.1264 5.81293C17.4193 5.52004 17.8942 5.52004 18.1871 5.81293Z" fill="#363538"/>
<path fill-rule="evenodd" clip-rule="evenodd" d="M17 17C17 18.1046 16.1046 19 15 19C13.8954 19 13 18.1046 13 17C13 15.8954 13.8954 15 15 15C16.1046 15 17 15.8954 17 17ZM15.5 17C15.5 17.2761 15.2761 17.5 15 17.5C14.7238 17.5 14.5 17.2761 14.5 17C14.5 16.7239 14.7238 16.5 15 16.5C15.2761 16.5 15.5 16.7239 15.5 17Z" fill="#363538"/>
</svg>
