<svg width="24" height="24" viewBox="0 0 24 24" fill="none" xmlns="http://www.w3.org/2000/svg">
<path d="M2.68021 15.4134L2.7554 15.4349L2.95072 15.5062C3.92238 15.8888 4.70505 16.6456 5.11868 17.6107C5.36365 18.1817 5.8191 18.6364 6.39017 18.8812L6.5806 18.9691C7.51699 19.431 8.23388 20.2495 8.56595 21.2455L8.58646 21.3197C8.66941 21.6905 8.45963 22.0719 8.09134 22.1947C7.69845 22.3257 7.27318 22.1129 7.14212 21.7201L7.04837 21.4798C6.83519 21.0129 6.47839 20.6257 6.03079 20.3744L5.79935 20.2611C4.87389 19.8645 4.13641 19.126 3.73978 18.2006L3.62552 17.9691C3.37429 17.5216 2.98689 17.1657 2.52005 16.9525L2.27982 16.8568L2.20755 16.8295C1.86149 16.6732 1.68261 16.2766 1.80521 15.9086C1.92806 15.5404 2.30943 15.3304 2.68021 15.4134Z" fill="#363538"/>
<path d="M15.5357 15.5355C15.9262 15.145 16.5592 15.1451 16.9497 15.5355C17.3403 15.926 17.3403 16.559 16.9497 16.9496C16.5592 17.3401 15.9262 17.3401 15.5357 16.9496C15.1453 16.559 15.1452 15.926 15.5357 15.5355Z" fill="#363538"/>
<path fill-rule="evenodd" clip-rule="evenodd" d="M6.16654 3.33824C8.02153 1.48325 11.0293 1.48325 12.8843 3.33824L20.6626 11.1166C22.5171 12.9715 22.5172 15.9785 20.6626 17.8334L17.8335 20.6625C15.9786 22.517 12.9716 22.5169 11.1167 20.6625L3.33841 12.8841C1.48342 11.0292 1.48342 8.02136 3.33841 6.16637L6.16654 3.33824ZM11.8238 4.39879C10.5546 3.12959 8.49629 3.12959 7.22708 4.39879L4.39896 7.22692C3.12975 8.49612 3.12975 10.5544 4.39896 11.8236L12.1773 19.6009C13.4465 20.8701 15.5038 20.8701 16.773 19.6009L19.6021 16.7728C20.8708 15.5037 20.8708 13.4462 19.6021 12.1771L11.8238 4.39879Z" fill="#363538"/>
<path d="M15.9087 1.80602C16.3015 1.67516 16.7258 1.88704 16.857 2.27965C17.0757 2.93569 17.5651 3.46716 18.2007 3.73961C19.0683 4.11147 19.771 4.78328 20.1822 5.62828L20.2603 5.80016C20.4987 6.35597 20.9354 6.79953 21.48 7.0482L21.7202 7.14195L21.7915 7.17027C22.1382 7.32629 22.3177 7.72373 22.1949 8.09215C22.0719 8.45993 21.6904 8.66905 21.3199 8.58629L21.2456 8.56578L21.0493 8.49449C20.0776 8.11191 19.295 7.35518 18.8814 6.39L18.7808 6.18199C18.5588 5.77624 18.2245 5.44217 17.8189 5.22008L17.6099 5.11852C16.5806 4.67732 15.7893 3.81659 15.4351 2.75426C15.3043 2.36145 15.516 1.93708 15.9087 1.80602Z" fill="#363538"/>
</svg>
