<svg width="24" height="24" viewBox="0 0 24 24" fill="none" xmlns="http://www.w3.org/2000/svg">
<path fill-rule="evenodd" clip-rule="evenodd" d="M13.25 3.28C13.25 2.71115 13.7111 2.25 14.28 2.25C18.4056 2.25 21.75 5.59443 21.75 9.72C21.75 10.2889 21.2889 10.75 20.72 10.75H14C13.5858 10.75 13.25 10.4142 13.25 10V3.28ZM14.75 3.76823C17.6724 3.99582 20.0042 6.32763 20.2318 9.25H14.75V3.76823Z" fill="#363538"/>
<path fill-rule="evenodd" clip-rule="evenodd" d="M20 12C20.5523 12 21.0057 12.4491 20.9445 12.998C20.7853 14.4249 20.2863 15.7983 19.4832 17.0001C18.4943 18.4802 17.0887 19.6337 15.4442 20.3149C13.7996 20.9961 11.99 21.1743 10.2442 20.8271C8.49836 20.4798 6.89471 19.6226 5.63604 18.364C4.37737 17.1053 3.5202 15.5016 3.17293 13.7558C2.82567 12.01 3.0039 10.2004 3.68508 8.55585C4.36627 6.91131 5.51983 5.50571 6.99987 4.51677C8.20174 3.71371 9.57508 3.2147 11.002 3.05549C11.5509 2.99425 12 3.44772 12 4V11C12 11.5523 12.4477 12 13 12H20ZM18.236 16.1668C18.7788 15.3544 19.155 14.448 19.3485 13.5H13C11.6193 13.5 10.5 12.3807 10.5 11V4.65153C9.552 4.84504 8.6456 5.22116 7.83322 5.76398C6.59985 6.58809 5.63856 7.75943 5.0709 9.12987C4.50325 10.5003 4.35472 12.0083 4.64411 13.4632C4.9335 14.918 5.64781 16.2544 6.6967 17.3033C7.74559 18.3522 9.08197 19.0665 10.5368 19.3559C11.9917 19.6453 13.4997 19.4968 14.8701 18.9291C16.2406 18.3614 17.4119 17.4001 18.236 16.1668Z" fill="#363538"/>
</svg>
