<svg width="24" height="24" viewBox="0 0 24 24" fill="none" xmlns="http://www.w3.org/2000/svg">
<path fill-rule="evenodd" clip-rule="evenodd" d="M14.6517 15.7122L8.2877 9.34824L5.2825 12.3534C3.52514 14.1108 3.52514 16.96 5.2825 18.7174C7.03986 20.4748 9.8891 20.4748 11.6465 18.7174L14.6517 15.7122ZM15.7123 14.6515L9.34836 8.28758L12.3536 5.28237C14.1109 3.52502 16.9602 3.52502 18.7175 5.28237C20.4749 7.03973 20.4749 9.88898 18.7175 11.6463L15.7123 14.6515ZM19.7782 12.707C22.1213 10.3639 22.1213 6.56486 19.7782 4.22171C17.435 1.87857 13.6361 1.87857 11.2929 4.22171L4.22184 11.2928C1.87869 13.6359 1.87869 17.4349 4.22184 19.7781C6.56498 22.1212 10.364 22.1212 12.7071 19.7781L19.7782 12.707Z" fill="#363538"/>
</svg>
