<svg width="24" height="24" viewBox="0 0 24 24" fill="none" xmlns="http://www.w3.org/2000/svg">
<path fill-rule="evenodd" clip-rule="evenodd" d="M17.1033 4.02786C16.0265 2.951 14.2805 2.951 13.2037 4.02786L10.6997 6.53178C10.5617 6.66982 10.3934 6.77382 10.2082 6.83556L7.35152 7.78779C5.40685 8.43601 4.8242 10.9041 6.27368 12.3536L8.42972 14.5097L3.46967 19.4697C3.17678 19.7626 3.17678 20.2375 3.46967 20.5304C3.76256 20.8233 4.23744 20.8233 4.53033 20.5304L9.49038 15.5703L11.6166 17.6965C13.0661 19.146 15.5342 18.5634 16.1824 16.6187L17.1347 13.762C17.1964 13.5768 17.3004 13.4085 17.4384 13.2705L19.9423 10.7666C21.0192 9.68969 21.0192 7.94374 19.9423 6.86688L17.1033 4.02786ZM10.1218 14.0804L12.6773 16.6359C13.3383 17.2969 14.4638 17.0312 14.7594 16.1443L15.7116 13.2876C15.847 12.8815 16.0751 12.5125 16.3778 12.2098L18.8817 9.70589C19.3728 9.21481 19.3728 8.41862 18.8817 7.92754L16.0427 5.08852C15.5516 4.59745 14.7554 4.59745 14.2643 5.08852L11.7604 7.59244C11.4577 7.89514 11.0887 8.12321 10.6826 8.25858L7.82586 9.21081C6.93904 9.50642 6.67334 10.6319 7.33434 11.2929L9.91964 13.8783C9.95867 13.9047 9.99577 13.9351 10.0303 13.9697C10.0649 14.0043 10.0954 14.0414 10.1218 14.0804Z" fill="#363538"/>
</svg>
