<svg width="24" height="24" viewBox="0 0 24 24" fill="none" xmlns="http://www.w3.org/2000/svg">
<path fill-rule="evenodd" clip-rule="evenodd" d="M22 12C22 17.5228 17.5228 22 12 22C6.47715 22 2 17.5228 2 12C2 6.47715 6.47715 2 12 2C17.5228 2 22 6.47715 22 12ZM20.5 12C20.5 16.6944 16.6944 20.5 12 20.5C11.122 20.5 10.2752 20.3669 9.47846 20.1198C9.55233 19.9448 9.63779 19.7409 9.73193 19.5136C10.0518 18.7413 10.473 17.6962 10.8805 16.6008C12.2095 17.671 14.09 17.4879 15.5283 16.6015C17.1788 15.5845 18.4498 13.5704 18.2476 10.9426C18.1029 9.06146 17.1143 7.66836 15.7738 6.82605C14.4515 5.99511 12.7965 5.70205 11.257 5.94695C9.71279 6.19262 8.22486 6.99143 7.3072 8.41377C6.38331 9.84579 6.10956 11.7968 6.7773 14.2006C6.88816 14.5997 7.30157 14.8334 7.70067 14.7225C8.09977 14.6116 8.33344 14.1982 8.22257 13.7991C7.64034 11.7031 7.92908 10.2167 8.56764 9.22697C9.21245 8.22753 10.287 7.62014 11.4927 7.42833C12.7031 7.23576 13.9856 7.47394 14.9757 8.09611C15.9478 8.7069 16.6467 9.68878 16.752 11.0576C16.9096 13.1056 15.9308 14.5916 14.7414 15.3245C13.5108 16.0829 12.2438 15.9716 11.5684 15.1867C11.5233 15.1342 11.4807 15.0806 11.4405 15.026C11.6415 14.4294 11.8233 13.8457 11.9666 13.3116C12.0996 12.8156 12.2043 12.345 12.2582 11.9372C12.3079 11.5606 12.3319 11.124 12.2115 10.7629C12.123 10.4974 11.9279 10.1131 11.4954 9.9653C11.0381 9.80904 10.654 10.0266 10.4531 10.1919C10.0541 10.5203 9.76462 11.1066 9.59274 11.6928C9.31528 12.6392 9.23657 13.9692 9.79912 15.1838C9.69714 15.4724 9.59155 15.763 9.4844 16.0514C9.08241 17.1337 8.66424 18.1714 8.34609 18.9396C8.25092 19.1694 8.16481 19.3748 8.0909 19.5498C5.36343 18.1347 3.5 15.2849 3.5 12C3.5 7.30558 7.30558 3.5 12 3.5C16.6944 3.5 20.5 7.30558 20.5 12ZM10.7746 11.2025C10.7746 11.2025 10.7764 11.2052 10.7794 11.2123C10.776 11.2063 10.7746 11.2025 10.7746 11.2025Z" fill="#363538"/>
</svg>
