<svg width="24" height="24" viewBox="0 0 24 24" fill="none" xmlns="http://www.w3.org/2000/svg">
<path d="M12.6096 12.0054C12.4013 12.8932 11.6567 13.4778 10.9464 13.3112C10.2362 13.1445 9.82924 12.2897 10.0376 11.4019C10.2459 10.514 10.9905 9.92941 11.7008 10.0961C12.411 10.2627 12.818 11.1175 12.6096 12.0054Z" fill="#363538"/>
<path d="M7.94642 18.3112C8.65668 18.4778 9.40133 17.8932 9.60964 17.0054C9.81796 16.1175 9.41104 15.2627 8.70078 15.0961C7.99052 14.9294 7.24586 15.514 7.03755 16.4019C6.82924 17.2897 7.23616 18.1445 7.94642 18.3112Z" fill="#363538"/>
<path d="M13.9464 18.3112C14.6567 18.4778 15.4013 17.8932 15.6096 17.0054C15.818 16.1175 15.411 15.2627 14.7008 15.0961C13.9905 14.9294 13.2459 15.514 13.0376 16.4019C12.8292 17.2897 13.2362 18.1445 13.9464 18.3112Z" fill="#363538"/>
<path fill-rule="evenodd" clip-rule="evenodd" d="M2.70705 17.9273C2.03826 19.0923 2.87711 20.5452 4.22043 20.5486L18.786 20.5845C20.0865 20.5877 21.2519 19.666 21.42 18.3164C21.559 17.2001 21.6892 15.6331 21.608 14.033C21.5276 12.4493 21.2367 10.7471 20.4701 9.4193C19.7035 8.09148 18.3748 6.98846 17.0435 6.127C15.6984 5.25661 14.2761 4.5859 13.2399 4.14811C11.9871 3.61882 10.6062 4.16728 9.95871 5.29516L2.70705 17.9273ZM4.22413 19.0486C4.03223 19.0481 3.91239 18.8405 4.00793 18.6741L10.442 7.46622C10.5225 7.49876 10.6101 7.53471 10.704 7.57396C11.2281 7.79318 11.9422 8.11361 12.7037 8.51842C14.2693 9.35075 15.8732 10.4573 16.573 11.6693C17.2727 12.8813 17.429 14.8237 17.3671 16.5957C17.3369 17.4575 17.2573 18.2362 17.1851 18.7997C17.1722 18.9006 17.1595 18.9944 17.1475 19.0804L4.22413 19.0486ZM11.2828 6.19012L11.1954 6.15378L11.2596 6.04195C11.5596 5.51934 12.1558 5.3185 12.6561 5.52986C13.6481 5.94896 14.9837 6.58083 16.2286 7.38635C17.4873 8.20079 18.5808 9.14699 19.171 10.1693C19.7613 11.1916 20.0339 12.6117 20.1099 14.109C20.1851 15.5899 20.0645 17.0625 19.9315 18.1311C19.8644 18.67 19.3923 19.086 18.7897 19.0845L18.6608 19.0842L18.673 18.9904C18.7494 18.3942 18.834 17.5678 18.8661 16.6481C18.9288 14.857 18.8023 12.5306 17.872 10.9193C16.9417 9.30804 14.9902 8.03523 13.4078 7.19396C12.5952 6.76197 11.8373 6.42205 11.2828 6.19012Z" fill="#363538"/>
</svg>
