<svg width="24" height="24" viewBox="0 0 24 24" fill="none" xmlns="http://www.w3.org/2000/svg">
<path fill-rule="evenodd" clip-rule="evenodd" d="M12.5153 5.29904C12.2152 4.74669 11.8829 4.23386 11.5175 3.78812C10.7387 2.83807 9.72071 2.08715 8.45711 2.05138C7.19343 2.01561 5.92087 2.70185 4.64885 4.07987C4.3679 4.38423 4.38688 4.85873 4.69124 5.13968C4.99561 5.42063 5.4701 5.40165 5.75106 5.09729C6.87904 3.87531 7.76481 3.53238 8.41467 3.55078C9.06462 3.56918 9.71535 3.95575 10.3574 4.73904C10.7703 5.2427 11.1425 5.86632 11.4713 6.55126C11.3711 6.46147 11.268 6.37494 11.162 6.29211C10.3923 5.69024 9.45386 5.27067 8.35925 5.25081C7.26637 5.23098 6.09919 5.61102 4.87229 6.46294C4.53205 6.69918 4.44775 7.16651 4.684 7.50675C4.92025 7.84699 5.38758 7.93129 5.72781 7.69504C6.75973 6.97852 7.62393 6.73772 8.33204 6.75057C9.0384 6.76338 9.67055 7.03 10.2381 7.47376C11.1066 8.15292 11.7766 9.21301 12.2146 10.2188C12.2226 10.4951 12.2339 10.7572 12.2476 11.0001H7C6.44772 11.0001 6 11.4478 6 12.0001V12.0934C6 12.6959 6.06808 13.2965 6.20293 13.8838L7.7102 20.4477C7.91881 21.3562 8.72734 22.0001 9.65946 22.0001H15.3405C16.2727 22.0001 17.0812 21.3562 17.2898 20.4477L18.7971 13.8838C18.9319 13.2965 19 12.6959 19 12.0934V12.0001C19 11.4478 18.5523 11.0001 18 11.0001H14.7639C15.0136 9.74807 15.5191 8.21664 16.2109 7.35121C16.5635 6.91 16.8699 6.75758 17.1183 6.75037C17.3662 6.74318 17.8058 6.87337 18.4426 7.58075C18.7197 7.88861 19.1939 7.91354 19.5018 7.63643C19.8096 7.35932 19.8346 6.8851 19.5574 6.57723C18.7824 5.71617 17.9524 5.22553 17.0747 5.251C16.1976 5.27647 15.5223 5.81024 15.0392 6.41466C14.5511 7.02527 14.1632 7.82465 13.8672 8.63905C13.8209 8.48545 13.7726 8.33107 13.7224 8.17636C13.7523 7.40563 13.8163 6.62683 13.9281 5.92631C14.0594 5.10438 14.2454 4.46721 14.4699 4.07823C14.5796 3.88819 14.6714 3.80536 14.7239 3.77332C14.7571 3.75306 14.7861 3.7426 14.8529 3.75597C15.2591 3.8372 15.6542 3.57379 15.7355 3.16762C15.8167 2.76145 15.5533 2.36633 15.1471 2.2851C14.7139 2.19846 14.3003 2.27445 13.9422 2.49313C13.6034 2.70003 13.3554 3.0086 13.1708 3.32846C12.8612 3.86481 12.6557 4.56438 12.5153 5.29904ZM9.65946 20.5001H15.3405C15.5736 20.5001 15.7757 20.3391 15.8279 20.112L17.3351 13.5481C17.4143 13.2033 17.4652 12.8527 17.4873 12.5001H7.51274C7.53485 12.8527 7.5857 13.2033 7.66488 13.5481L9.17215 20.112C9.2243 20.3391 9.42643 20.5001 9.65946 20.5001Z" fill="#363538"/>
</svg>
