<svg width="24" height="24" viewBox="0 0 24 24" fill="none" xmlns="http://www.w3.org/2000/svg">
<path fill-rule="evenodd" clip-rule="evenodd" d="M10.1635 12.3768C11.5228 12.1343 12.4675 11.0563 12.2735 9.96887C12.0795 8.88147 10.8204 8.19649 9.46116 8.43894C8.1019 8.68139 7.15723 9.75945 7.35119 10.8469C7.54515 11.9343 8.80428 12.6192 10.1635 12.3768ZM10.6728 10.5011C10.8126 10.3416 10.7994 10.247 10.7968 10.2323C10.7942 10.2175 10.7738 10.1242 10.5875 10.0229C10.3981 9.91982 10.0924 9.85003 9.72455 9.91563C9.35673 9.98124 9.09398 10.1524 8.95188 10.3146C8.8121 10.4741 8.82525 10.5687 8.82789 10.5835C8.83052 10.5982 8.85088 10.6915 9.03719 10.7929C9.2266 10.8959 9.53232 10.9657 9.90015 10.9001C10.268 10.8345 10.5307 10.6633 10.6728 10.5011Z" fill="#363538"/>
<path d="M17.4238 11.5513C17.5348 12.1733 16.9032 12.8062 16.0132 12.965C15.1232 13.1237 14.3118 12.7482 14.2009 12.1262C14.0899 11.5042 14.7215 10.8713 15.6115 10.7126C16.5015 10.5538 17.3129 10.9294 17.4238 11.5513Z" fill="#363538"/>
<path fill-rule="evenodd" clip-rule="evenodd" d="M19.8331 13.6333C19.0791 17.2683 15.8586 20 12 20C9.62971 20 7.50019 18.9692 6.03528 17.3314C5.96046 17.3238 5.88636 17.3157 5.813 17.3069C4.78941 17.1848 3.86979 16.9399 3.14595 16.5485C2.42019 16.156 1.82971 15.5792 1.61619 14.7823C1.37807 13.8936 1.68142 13.0112 2.21605 12.2475C2.67652 11.5897 3.34975 10.9551 4.16689 10.3666C4.92097 6.73166 8.14148 4 12 4C14.3703 4 16.4999 5.03087 17.9648 6.66873C19.0147 6.77448 19.9577 7.0035 20.7069 7.37546C21.5009 7.76961 22.1559 8.36778 22.3836 9.21772C22.5971 10.0146 22.3742 10.8094 21.9419 11.5121C21.5107 12.213 20.8368 12.885 20.0114 13.5025C19.9529 13.5462 19.8935 13.5898 19.8331 13.6333ZM17.8514 14.8338C16.7985 17.0039 14.574 18.5 12 18.5C10.6474 18.5 9.3912 18.0868 8.35088 17.3798C9.85943 17.3069 11.5235 17.0452 13.2293 16.5882C14.9357 16.131 16.5082 15.5252 17.8514 14.8338ZM18.4564 12.757C17.0225 13.6835 15.0771 14.5401 12.8411 15.1393C10.6052 15.7384 8.49235 15.9692 6.78742 15.8838C5.97875 14.8003 5.5 13.456 5.5 12C5.5 8.41015 8.41015 5.5 12 5.5C15.5899 5.5 18.5 8.41015 18.5 12C18.5 12.256 18.4852 12.5086 18.4564 12.757ZM19.1423 8.39242C19.4872 8.48363 19.7875 8.59367 20.04 8.71902C20.6093 9.00165 20.8577 9.31873 20.9347 9.60595C21.0071 9.87603 20.9618 10.2425 20.6643 10.7262C20.5027 10.9888 20.2772 11.2672 19.9878 11.5545C19.9256 10.4216 19.6277 9.35151 19.1423 8.39242ZM4.01219 12.4453C3.78424 12.6717 3.59479 12.8935 3.44489 13.1077C3.05055 13.671 2.98473 14.0942 3.06508 14.3941C3.13745 14.6642 3.35989 14.9589 3.85942 15.229C4.13023 15.3755 4.46419 15.5036 4.85773 15.6077C4.37227 14.6485 4.07435 13.5783 4.01219 12.4453Z" fill="#363538"/>
</svg>
