<svg width="24" height="24" viewBox="0 0 24 24" fill="none" xmlns="http://www.w3.org/2000/svg">
<path fill-rule="evenodd" clip-rule="evenodd" d="M15.7351 2.92257C15.6923 2.51057 15.3236 2.21128 14.9116 2.25407C14.4996 2.29687 14.2003 2.66556 14.2431 3.07755C14.2991 3.61635 14.0592 5.15161 12.349 6.11059C11.9409 6.3394 11.6046 6.60595 11.3301 6.89626C11.2381 6.68953 11.0935 6.51077 10.9147 6.3671C10.0581 5.67888 8.73719 5.19696 6.89758 5.44473C5.72801 5.60226 5.0883 5.64036 4.75788 5.66003C4.70916 5.66293 4.6671 5.66544 4.63112 5.66786L4.62272 5.66842C4.56998 5.67191 4.4583 5.67929 4.36007 5.70395C4.32725 5.71218 4.26928 5.72854 4.20311 5.76029C4.1432 5.78903 4.01966 5.85697 3.91647 5.99634C3.79373 6.16213 3.74447 6.36914 3.77721 6.57036C3.80468 6.73921 3.88161 6.85474 3.91981 6.90612C3.98943 6.99977 4.06901 7.06046 4.08737 7.07447L4.08938 7.07601C4.11535 7.09596 4.14305 7.1153 4.15739 7.12531L4.16003 7.12716C4.19528 7.15178 4.21926 7.16866 4.24544 7.18986C4.26901 7.20893 4.29371 7.22656 4.3194 7.24265C5.43251 7.93942 7.3696 8.64017 9.85687 8.77192C10.0304 8.78111 10.201 8.76351 10.3622 8.72152C10.3563 8.74737 10.3506 8.77319 10.3452 8.79899C10.1717 9.62604 10.2586 10.4245 10.4191 11.0001H5.99996C5.44767 11.0001 4.99996 11.4478 4.99996 12.0001V12.0933C4.99996 12.6959 5.06803 13.2965 5.20289 13.8838L6.71015 20.4477C6.91876 21.3561 7.7273 22.0001 8.65942 22.0001H14.3405C15.2726 22.0001 16.0812 21.3561 16.2898 20.4477L17.797 13.8838C17.9319 13.2965 18 12.6959 18 12.0933V12.0001C18 11.4478 17.5522 11.0001 17 11.0001H11.9553C11.9553 10.9164 11.9412 10.8314 11.9115 10.7481C11.7825 10.3864 11.6781 9.75114 11.8132 9.10701C11.8857 8.76187 12.026 8.41319 12.2755 8.09485C12.4903 8.35717 12.7961 8.55057 13.1504 8.63702C16.487 9.45099 19.3004 9.24644 20.9752 8.74891C21.0043 8.74028 21.0328 8.72989 21.0606 8.7178C21.1094 8.6966 21.1526 8.68127 21.2053 8.66268L21.2088 8.66143C21.2308 8.65367 21.2678 8.64061 21.3024 8.62662L21.305 8.62559C21.3298 8.61559 21.426 8.5769 21.5204 8.50354C21.5719 8.46349 21.6775 8.37198 21.7495 8.21586C21.8352 8.02996 21.843 7.81654 21.7688 7.62319C21.7063 7.46052 21.6047 7.36121 21.5537 7.31664C21.4974 7.26749 21.4446 7.23532 21.4134 7.21763C21.3172 7.16298 21.1972 7.12089 21.1296 7.09717L21.122 7.0945C21.0777 7.07896 21.0259 7.06119 20.9656 7.04054C20.5554 6.90005 19.7563 6.62632 18.3299 6.0158C17.1538 5.51245 16.0989 5.32508 15.1805 5.34323C15.6851 4.41453 15.7944 3.49371 15.7351 2.92257ZM14.3405 20.5001H8.65942C8.42639 20.5001 8.22425 20.3391 8.1721 20.112L6.66484 13.5481C6.58565 13.2032 6.53481 12.8527 6.5127 12.5001H16.4872C16.4651 12.8527 16.4143 13.2032 16.3351 13.5481L14.8278 20.112C14.7757 20.3391 14.5735 20.5001 14.3405 20.5001ZM13.606 7.20387C15.436 7.6398 17.0649 7.73898 18.3731 7.66128C18.1763 7.58002 17.9654 7.49143 17.7396 7.3948C15.836 6.58003 14.4597 6.79919 13.606 7.20387ZM7.41647 6.89673C8.03683 7.05589 8.74367 7.18166 9.52656 7.24629C9.04111 6.99618 8.3559 6.82019 7.41647 6.89673Z" fill="#363538"/>
</svg>
