<svg width="24" height="24" viewBox="0 0 24 24" fill="none" xmlns="http://www.w3.org/2000/svg">
<path fill-rule="evenodd" clip-rule="evenodd" d="M19.8331 13.6335C19.079 17.2684 15.8585 20 12 20C9.62967 20 7.50012 18.9691 6.03521 17.3313C5.96049 17.3238 5.8865 17.3156 5.81324 17.3069C4.78965 17.1848 3.87003 16.9399 3.14619 16.5484C2.42044 16.156 1.82995 15.5791 1.61644 14.7823C1.37831 13.8936 1.68167 13.0112 2.21629 12.2474C2.67671 11.5897 3.34983 10.9552 4.16684 10.3668C4.92085 6.73176 8.1414 4 12 4C14.3703 4 16.4998 5.03084 17.9647 6.66867C19.0148 6.7744 19.9578 7.00343 20.7072 7.37543C21.5011 7.76957 22.1561 8.36775 22.3838 9.21769C22.5974 10.0145 22.3744 10.8094 21.9421 11.5121C21.5109 12.213 20.837 12.8849 20.0116 13.5025C19.953 13.5463 19.8935 13.59 19.8331 13.6335ZM17.8513 14.8339C16.7984 17.0039 14.5739 18.5 12 18.5C10.6473 18.5 9.39117 18.0868 8.35084 17.3798C9.85947 17.3069 11.5237 17.0452 13.2295 16.5881C14.9358 16.131 16.5082 15.5253 17.8513 14.8339ZM18.4564 12.7571C17.0225 13.6836 15.0772 14.5401 12.8413 15.1393C10.6053 15.7384 8.49235 15.9692 6.78737 15.8838C5.97872 14.8002 5.49999 13.456 5.49999 12C5.49999 8.41015 8.41014 5.5 12 5.5C15.5898 5.5 18.5 8.41015 18.5 12C18.5 12.2561 18.4852 12.5087 18.4564 12.7571ZM19.1423 8.39231C19.4873 8.48353 19.7876 8.5936 20.0402 8.71899C20.6095 9.00162 20.858 9.31869 20.935 9.60592C21.0073 9.876 20.962 10.2425 20.6645 10.7262C20.5029 10.9888 20.2773 11.2673 19.9878 11.5547C19.9256 10.4217 19.6277 9.35149 19.1423 8.39231ZM4.01219 12.4456C3.78435 12.6718 3.59498 12.8936 3.44513 13.1076C3.05079 13.671 2.98497 14.0942 3.06532 14.3941C3.13769 14.6642 3.36013 14.9589 3.85967 15.229C4.1304 15.3754 4.46426 15.5035 4.85765 15.6076C4.37227 14.6485 4.07437 13.5784 4.01219 12.4456Z" fill="#363538"/>
</svg>
