<svg width="24" height="24" viewBox="0 0 24 24" fill="none" xmlns="http://www.w3.org/2000/svg">
<path d="M2.25 3.5C2.25 3.08579 2.58579 2.75 3 2.75H20C20.4142 2.75 20.75 3.08579 20.75 3.5C20.75 3.91422 20.4142 4.25 20 4.25L3 4.25C2.58579 4.25 2.25 3.91421 2.25 3.5Z" fill="#363538"/>
<path fill-rule="evenodd" clip-rule="evenodd" d="M21 12.0048C21.6224 11.5863 21.6223 11.5862 21.6223 11.5861L21.6208 11.5839L21.6179 11.5797L21.6086 11.566C21.6007 11.5546 21.5897 11.5387 21.5758 11.5188C21.5479 11.4791 21.508 11.4233 21.4579 11.3557C21.358 11.221 21.2155 11.0367 21.0442 10.8373C20.7209 10.4612 20.2227 9.94506 19.6686 9.66818C19.1463 9.40721 18.4872 9.31466 18.0073 9.27709C16.9826 9.19685 16.25 10.0466 16.25 10.9555V15.2524H12.9988C11.4807 15.2524 10.25 16.4831 10.25 18.0012C10.25 19.5193 11.4807 20.75 12.9988 20.75H14C16.0711 20.75 17.75 19.0711 17.75 17V12.7548H21C21.2771 12.7548 21.5317 12.6019 21.662 12.3573C21.7922 12.1127 21.7769 11.816 21.6223 11.5861L21 12.0048ZM17.8065 10.8046C17.7771 10.8341 17.75 10.8861 17.75 10.9555V11.2548H19.3527C19.228 11.1495 19.1076 11.0647 18.9981 11.01C18.7483 10.8852 18.3335 10.8072 17.8902 10.7725C17.8575 10.7699 17.8321 10.7789 17.8065 10.8046ZM16.25 16.7524H12.9988C12.3091 16.7524 11.75 17.3115 11.75 18.0012C11.75 18.6909 12.3091 19.25 12.9988 19.25H14C15.2426 19.25 16.25 18.2426 16.25 17V16.7524Z" fill="#363538"/>
<path d="M3 7.25C2.58579 7.25 2.25 7.58579 2.25 8C2.25 8.41421 2.58579 8.75 3 8.75L15 8.75C15.4142 8.75 15.75 8.41421 15.75 8C15.75 7.58579 15.4142 7.25 15 7.25L3 7.25Z" fill="#363538"/>
<path d="M2.25 13C2.25 12.5858 2.58579 12.25 3 12.25H12C12.4142 12.25 12.75 12.5858 12.75 13C12.75 13.4142 12.4142 13.75 12 13.75H3C2.58579 13.75 2.25 13.4142 2.25 13Z" fill="#363538"/>
<path d="M3 17.25C2.58579 17.25 2.25 17.5858 2.25 18C2.25 18.4142 2.58579 18.75 3 18.75H9C9.41421 18.75 9.75 18.4142 9.75 18C9.75 17.5858 9.41421 17.25 9 17.25H3Z" fill="#363538"/>
</svg>
