<svg width="24" height="24" viewBox="0 0 24 24" fill="none" xmlns="http://www.w3.org/2000/svg">
<path d="M10.3541 21.0407C10.4552 20.6631 10.8277 20.4289 11.217 20.4644C11.4748 20.488 11.736 20.5 12 20.5C16.6944 20.5 20.5 16.6944 20.5 12C20.5 7.30558 16.6944 3.5 12 3.5C11.736 3.5 11.4749 3.51203 11.217 3.53558C10.8277 3.57113 10.4553 3.33686 10.3541 2.95929C10.2403 2.53457 10.5121 2.10019 10.9494 2.05453C11.2947 2.01848 11.6452 2 12 2C17.5228 2 22 6.47715 22 12C22 17.5228 17.5228 22 12 22C11.6452 22 11.2947 21.9815 10.9494 21.9455C10.512 21.8998 10.2403 21.4654 10.3541 21.0407Z" fill="#363538"/>
<path d="M8.90471 20.6542C8.79098 21.0786 8.33892 21.319 7.93749 21.1403C7.29142 20.8528 6.68148 20.4987 6.11636 20.0868C5.76147 19.8282 5.74376 19.3168 6.05428 19.0063C6.33097 18.7296 6.77125 18.7134 7.0905 18.9396C7.51478 19.2403 7.96784 19.5031 8.44474 19.723C8.80005 19.8869 9.00598 20.2763 8.90471 20.6542Z" fill="#363538"/>
<path d="M4.99362 17.9457C4.6831 18.2562 4.17176 18.2385 3.91312 17.8836C3.50126 17.3184 3.1472 16.7085 2.85963 16.0624C2.68094 15.661 2.92134 15.2089 3.34577 15.0952C3.72371 14.994 4.11312 15.1999 4.27695 15.5552C4.49685 16.0321 4.75962 16.4852 5.06032 16.9094C5.28659 17.2287 5.27031 17.669 4.99362 17.9457Z" fill="#363538"/>
<path d="M2.95929 13.6459C2.53456 13.7597 2.10018 13.4879 2.05452 13.0506C2.01848 12.7053 2 12.3548 2 12C2 11.6452 2.01848 11.2946 2.05454 10.9493C2.1002 10.512 2.53457 10.2402 2.9593 10.354C3.33687 10.4552 3.57114 10.8277 3.53559 11.217C3.51204 11.4748 3.5 11.736 3.5 12C3.5 12.264 3.51203 12.5251 3.53558 12.7829C3.57113 13.1722 3.33686 13.5447 2.95929 13.6459Z" fill="#363538"/>
<path d="M3.34582 8.90468C2.92138 8.79095 2.68098 8.33888 2.85968 7.93744C3.14725 7.29139 3.50132 6.68147 3.91317 6.11636C4.17182 5.76147 4.68315 5.74376 4.99367 6.05428C5.27037 6.33097 5.28663 6.77125 5.06037 7.0905C4.75967 7.51477 4.4969 7.96782 4.277 8.44471C4.11316 8.80001 3.72375 9.00594 3.34582 8.90468Z" fill="#363538"/>
<path d="M6.05434 4.99362C5.74382 4.6831 5.76154 4.17176 6.11643 3.91312C6.68154 3.50127 7.29146 3.14722 7.93751 2.85964C8.33895 2.68096 8.79101 2.92135 8.90474 3.34579C9.00601 3.72372 8.80008 4.11313 8.44477 4.27697C7.96788 4.49686 7.51483 4.75963 7.09056 5.06032C6.77131 5.28659 6.33103 5.27031 6.05434 4.99362Z" fill="#363538"/>
<path fill-rule="evenodd" clip-rule="evenodd" d="M8.5 9.61309V14.3869C8.5 16.0718 10.4261 17.0768 11.864 16.1422L15.5365 13.7552C16.8212 12.9202 16.8212 11.0798 15.5365 10.2448L11.864 7.85784C10.4261 6.92324 8.5 7.92821 8.5 9.61309ZM10 14.3869V9.61309C10 9.38758 10.1172 9.19756 10.3367 9.08302C10.5583 8.96739 10.8183 8.96715 11.0466 9.11554L14.719 11.5024C15.0937 11.7459 15.0937 12.2541 14.719 12.4976L11.0466 14.8845C10.8183 15.0328 10.5583 15.0326 10.3367 14.917C10.1172 14.8024 10 14.6124 10 14.3869Z" fill="#363538"/>
</svg>
