<svg width="24" height="24" viewBox="0 0 24 24" fill="none" xmlns="http://www.w3.org/2000/svg">
<path fill-rule="evenodd" clip-rule="evenodd" d="M17 7C17 4.23858 14.7614 2 12 2C9.23858 2 7 4.23858 7 7V15C7 16.1046 7.89543 17 9 17H11.25V21C11.25 21.4142 11.5858 21.75 12 21.75C12.4142 21.75 12.75 21.4142 12.75 21V17H15C16.1046 17 17 16.1046 17 15V7ZM11.8623 10.5097C12.6517 11.786 13.548 12.4206 14.524 12.6777C14.8503 12.7636 15.18 12.8038 15.5 12.8183V15C15.5 15.2761 15.2761 15.5 15 15.5H9C8.72386 15.5 8.5 15.2761 8.5 15V8.71228C9.74238 8.76461 10.9915 9.10159 11.8623 10.5097ZM14.906 11.2271C15.1019 11.2787 15.2976 11.3061 15.5 11.318V7C15.5 5.067 13.933 3.5 12 3.5C10.067 3.5 8.5 5.067 8.5 7V7.20779C10.0083 7.26407 11.8825 7.6905 13.1381 9.7207C13.7602 10.7266 14.3612 11.0837 14.906 11.2271Z" fill="#363538"/>
</svg>
