<svg width="24" height="24" viewBox="0 0 24 24" fill="none" xmlns="http://www.w3.org/2000/svg">
<path fill-rule="evenodd" clip-rule="evenodd" d="M9 2.25C6.37665 2.25 4.25 4.37665 4.25 7V17C4.25 19.6234 6.37665 21.75 9 21.75H15C17.6234 21.75 19.75 19.6234 19.75 17V9.40312C19.75 8.32453 19.3829 7.27806 18.7091 6.43582L16.7866 4.0327C15.8852 2.90593 14.5205 2.25 13.0775 2.25H9ZM5.75 7C5.75 5.20507 7.20507 3.75 9 3.75H13.0775C14.0648 3.75 14.9986 4.19879 15.6153 4.96974L17.5378 7.37287C17.9988 7.94913 18.25 8.66514 18.25 9.40312V17C18.25 18.7949 16.7949 20.25 15 20.25H9C7.20507 20.25 5.75 18.7949 5.75 17V7Z" fill="#363538"/>
</svg>
