<svg width="24" height="24" viewBox="0 0 24 24" fill="none" xmlns="http://www.w3.org/2000/svg">
<path d="M15.0617 4.44792C13.6435 3.50239 11.8273 3.38932 10.3027 4.15163L8.87574 4.86509C7.44415 5.58088 6.48179 6.96141 6.28663 8.52418C6.22899 8.98576 6.304 9.42059 6.39482 9.77991L7.03685 12.3201H6C5.58579 12.3201 5.25 12.6558 5.25 13.0701C5.25 13.4843 5.58579 13.8201 6 13.8201H7.06176L6.31754 17.1159C6.27692 17.2958 6.23728 17.5372 6.26681 17.8038C6.41916 19.1793 7.58419 20.2486 9 20.2486H17C17.4142 20.2486 17.75 19.9128 17.75 19.4986C17.75 19.0844 17.4142 18.7486 17 18.7486H9C8.35718 18.7486 7.82681 18.2628 7.75769 17.6387C7.75459 17.6107 7.75603 17.5555 7.7807 17.4463L8.59953 13.8201H15.5714C15.9856 13.8201 16.3214 13.4843 16.3214 13.0701C16.3214 12.6558 15.9856 12.3201 15.5714 12.3201H8.58402L7.84909 9.41234C7.77792 9.13078 7.7508 8.90441 7.77507 8.71006C7.90858 7.64098 8.56723 6.69639 9.54656 6.20673L10.9735 5.49327C12.0166 4.97169 13.2593 5.04906 14.2297 5.69599L16.584 7.26552C16.9286 7.49528 17.3943 7.40215 17.624 7.0575C17.8538 6.71286 17.7607 6.24721 17.416 6.01744L15.0617 4.44792Z" fill="#363538"/>
</svg>
