<svg width="24" height="24" viewBox="0 0 24 24" fill="none" xmlns="http://www.w3.org/2000/svg">
<path d="M8.12699 11.3097C8.85178 10.9137 9.71976 10.9758 10.3856 11.4608L11.2417 12.0846C11.5765 12.3285 11.6501 12.7976 11.4062 13.1324C11.1623 13.4672 10.6932 13.5408 10.3584 13.2969L9.50231 12.6732C9.29951 12.5255 9.05518 12.5119 8.84624 12.626L8.32736 12.9095C8.15625 13.003 8.01141 13.1818 7.94738 13.418C7.92178 13.5125 7.9292 13.6546 7.99727 13.9489L8.12366 14.4954H10.2806C10.6948 14.4954 11.0306 14.8312 11.0306 15.2454C11.0306 15.6596 10.6948 15.9954 10.2806 15.9954H8.1382L7.93954 16.9568C7.93374 16.9849 7.92966 17.0064 7.92673 17.0246C7.92503 17.0352 7.9239 17.0435 7.92316 17.05H10.8C11.2143 17.05 11.55 17.3858 11.55 17.8C11.55 18.2143 11.2143 18.55 10.8 18.55H7.89096C7.15752 18.55 6.60928 18.0108 6.45833 17.3833C6.38377 17.0733 6.44273 16.788 6.47057 16.6533L6.61145 15.9715C6.28853 15.8878 6.05005 15.5945 6.05005 15.2454C6.05005 14.9038 6.27846 14.6155 6.5909 14.5249L6.53585 14.2869C6.46719 13.9901 6.36648 13.5168 6.49961 13.0256C6.66098 12.4303 7.04768 11.8995 7.60811 11.5932L8.12699 11.3097Z" fill="#363538"/>
<path fill-rule="evenodd" clip-rule="evenodd" d="M14.9171 15.9999C14.9308 16 14.9445 16 14.9583 16C18.295 16 21 13.3137 21 10C21 6.68629 18.295 4 14.9583 4C11.9646 4 9.47948 6.16229 9.00009 9C9.00013 9 9.00006 9 9.00009 9C5.68639 9 3 11.6863 3 15C3 18.3137 5.68629 21 9 21C11.973 21 14.441 18.8376 14.9171 15.9999ZM14.9795 14.5C17.4723 14.4886 19.4896 12.4783 19.4896 10C19.4896 7.51472 17.4608 5.5 14.9583 5.5C12.7345 5.5 10.8848 7.09086 10.5004 9.18912C12.9322 9.81518 14.7672 11.9275 14.9795 14.5ZM13.5 15C13.5 17.4853 11.4853 19.5 9 19.5C6.51472 19.5 4.5 17.4853 4.5 15C4.5 12.5147 6.51472 10.5 9 10.5C11.4853 10.5 13.5 12.5147 13.5 15Z" fill="#363538"/>
</svg>
