<svg width="24" height="24" viewBox="0 0 24 24" fill="none" xmlns="http://www.w3.org/2000/svg">
<path d="M12.75 3C12.75 2.58579 12.4142 2.25 12 2.25C11.5858 2.25 11.25 2.58579 11.25 3V11C11.25 11.4142 11.5858 11.75 12 11.75C12.4142 11.75 12.75 11.4142 12.75 11V3Z" fill="#363538"/>
<path d="M9.61936 4.30949C10.0745 4.18497 10.5 4.54563 10.5 5.01752C10.5 5.38046 10.2429 5.68914 9.89448 5.79085C6.77729 6.70085 4.5 9.58012 4.5 12.9913C4.5 17.1334 7.85786 20.4913 12 20.4913C16.1421 20.4913 19.5 17.1334 19.5 12.9913C19.5 9.58012 17.2227 6.70085 14.1055 5.79085C13.7571 5.68914 13.5 5.38046 13.5 5.01752C13.5 4.54563 13.9255 4.18497 14.3806 4.30949C18.1959 5.35329 21 8.84482 21 12.9913C21 17.9618 16.9706 21.9913 12 21.9913C7.02944 21.9913 3 17.9618 3 12.9913C3 8.84482 5.80406 5.35329 9.61936 4.30949Z" fill="#363538"/>
</svg>
