<svg width="24" height="24" viewBox="0 0 24 24" fill="none" xmlns="http://www.w3.org/2000/svg">
<path fill-rule="evenodd" clip-rule="evenodd" d="M7.25 13.8963V15C7.25 15.4142 6.91421 15.75 6.5 15.75C6.08579 15.75 5.75 15.4142 5.75 15V9C5.75 8.58579 6.08579 8.25 6.5 8.25C6.91421 8.25 7.25 8.58579 7.25 9V10.1038L10.1724 8.13404C11.348 7.34165 12.8861 8.04304 13.158 9.35695L14.9724 8.13404C16.2665 7.26174 18 8.19971 18 9.77226V14.2278C18 15.8004 16.2665 16.7384 14.9724 15.8661L13.1582 14.6426C12.8865 15.9568 11.3481 16.6586 10.1724 15.8661L7.25 13.8963ZM11.7 14.2278V9.77226C11.7 9.37082 11.2835 9.19403 11.0108 9.37787L7.70557 11.6057C7.4315 11.7904 7.4315 12.2097 7.70557 12.3944L11.0108 14.6222C11.2835 14.8061 11.7 14.6293 11.7 14.2278ZM13.2 12.8625L15.8107 14.6222C16.0835 14.8061 16.5 14.6293 16.5 14.2278V9.77226C16.5 9.37082 16.0835 9.19403 15.8107 9.37787L13.2 11.1376V12.8625ZM13.163 14.6184L13.1582 14.6426C13.1598 14.6346 13.1614 14.6265 13.163 14.6184Z" fill="#363538"/>
<path fill-rule="evenodd" clip-rule="evenodd" d="M2 12C2 17.5228 6.47715 22 12 22C17.5228 22 22 17.5228 22 12C22 6.47715 17.5228 2 12 2C6.47715 2 2 6.47715 2 12ZM3.5 12C3.5 16.6944 7.30558 20.5 12 20.5C16.6944 20.5 20.5 16.6944 20.5 12C20.5 7.30558 16.6944 3.5 12 3.5C7.30558 3.5 3.5 7.30558 3.5 12Z" fill="#363538"/>
</svg>
