<svg width="24" height="24" viewBox="0 0 24 24" fill="none" xmlns="http://www.w3.org/2000/svg">
<path d="M3.5 7C3.5 5.61929 4.61929 4.5 6 4.5H18C19.3807 4.5 20.5 5.61929 20.5 7V13C20.5 14.3807 19.3807 15.5 18 15.5V17C20.2091 17 22 15.2091 22 13V7C22 4.79086 20.2091 3 18 3H6C3.79086 3 2 4.79086 2 7V13C2 15.2091 3.79086 17 6 17V15.5C4.61929 15.5 3.5 14.3807 3.5 13V7Z" fill="#363538"/>
<path d="M6 9.25C5.58579 9.25 5.25 9.58579 5.25 10C5.25 10.4142 5.58579 10.75 6 10.75H18C18.4142 10.75 18.75 10.4142 18.75 10C18.75 9.58579 18.4142 9.25 18 9.25H6Z" fill="#363538"/>
<path d="M10 12.25C9.58579 12.25 9.25 12.5858 9.25 13C9.25 13.4142 9.58579 13.75 10 13.75H14C14.4142 13.75 14.75 13.4142 14.75 13C14.75 12.5858 14.4142 12.25 14 12.25H10Z" fill="#363538"/>
<path d="M9.25 16C9.25 15.5858 9.58579 15.25 10 15.25H12C12.4142 15.25 12.75 15.5858 12.75 16C12.75 16.4142 12.4142 16.75 12 16.75H10C9.58579 16.75 9.25 16.4142 9.25 16Z" fill="#363538"/>
<path d="M6.75 19V12H8.25V19C8.25 19.6904 8.80964 20.25 9.5 20.25H14.5C15.1904 20.25 15.75 19.6904 15.75 19V12H17.25V19C17.25 20.5188 16.0188 21.75 14.5 21.75H9.5C7.98122 21.75 6.75 20.5188 6.75 19Z" fill="#363538"/>
<path d="M7 8C7.55228 8 8 7.55228 8 7C8 6.44772 7.55228 6 7 6C6.44772 6 6 6.44772 6 7C6 7.55228 6.44772 8 7 8Z" fill="#363538"/>
</svg>
