<svg width="24" height="24" viewBox="0 0 24 24" fill="none" xmlns="http://www.w3.org/2000/svg">
<path fill-rule="evenodd" clip-rule="evenodd" d="M5.907 9.62695C4.6184 9.98867 3.19998 9.4497 2.50001 8.23732C1.67159 6.80244 2.16321 4.96767 3.59809 4.13924C5.03297 3.31081 6.86774 3.80244 7.69617 5.23732C8.39614 6.4497 8.15369 7.94757 7.19614 8.88267C7.21465 8.90719 7.23186 8.93311 7.24761 8.96039L9.13545 12.2302C10.033 11.9194 10.9968 11.7506 12 11.7506C16.8325 11.7506 20.75 15.6681 20.75 20.5006H21.25C21.6642 20.5006 22 20.8364 22 21.2506C22 21.6648 21.6642 22.0006 21.25 22.0006H2.75C2.33579 22.0006 2 21.6648 2 21.2506C2 20.8364 2.33579 20.5006 2.75 20.5006H3.25C3.25 17.207 5.06972 14.3384 7.75859 12.8454L5.94857 9.71039C5.93282 9.68311 5.91897 9.65524 5.907 9.62695ZM5.84809 8.03636C5.13065 8.45057 4.21327 8.20476 3.79905 7.48732C3.38484 6.76988 3.63065 5.85249 4.34809 5.43828C5.06553 5.02407 5.98292 5.26988 6.39713 5.98732C6.81134 6.70476 6.56553 7.62214 5.84809 8.03636ZM4.75 20.5006C4.75 16.4965 7.99594 13.2506 12 13.2506C16.0041 13.2506 19.25 16.4965 19.25 20.5006H4.75Z" fill="#363538"/>
</svg>
