<svg width="24" height="24" viewBox="0 0 24 24" fill="none" xmlns="http://www.w3.org/2000/svg">
<path fill-rule="evenodd" clip-rule="evenodd" d="M16.5 8.88267C15.5425 7.94757 15.3 6.4497 16 5.23732C16.8284 3.80244 18.6632 3.31081 20.0981 4.13924C21.533 4.96767 22.0246 6.80244 21.1962 8.23732C20.4962 9.4497 19.0778 9.98868 17.7892 9.62695C17.7772 9.65524 17.7634 9.68311 17.7476 9.71039L16.0094 12.7211C18.8251 14.1752 20.75 17.1131 20.75 20.5006H21.25C21.6642 20.5006 22 20.8363 22 21.2506C22 21.6648 21.6642 22.0006 21.25 22.0006H2.75C2.33579 22.0006 2 21.6648 2 21.2506C2 20.8363 2.33579 20.5006 2.75 20.5006H3.25C3.25 15.6681 7.16751 11.7506 12 11.7506C12.9088 11.7506 13.7852 11.8891 14.6092 12.1462L16.4486 8.96039C16.4643 8.93311 16.4815 8.90719 16.5 8.88267ZM17.8481 8.03636C17.1307 7.62214 16.8848 6.70476 17.2991 5.98732C17.7133 5.26988 18.6307 5.02407 19.3481 5.43828C20.0655 5.85249 20.3113 6.76988 19.8971 7.48732C19.4829 8.20476 18.5655 8.45057 17.8481 8.03636ZM4.75 20.5006C4.75 16.4965 7.99594 13.2506 12 13.2506C16.0041 13.2506 19.25 16.4965 19.25 20.5006H4.75Z" fill="#363538"/>
</svg>
