<svg width="24" height="24" viewBox="0 0 24 24" fill="none" xmlns="http://www.w3.org/2000/svg">
<path fill-rule="evenodd" clip-rule="evenodd" d="M14.0303 3.03033C14.3232 2.73744 14.3232 2.26256 14.0303 1.96967C13.7374 1.67678 13.2626 1.67678 12.9697 1.96967L10.4697 4.46968C10.4437 4.49567 10.4198 4.52338 10.3981 4.55253C10.3201 4.6573 10.2688 4.78313 10.2543 4.91994C10.2514 4.94641 10.25 4.97314 10.25 5.00001C10.25 5.02766 10.2515 5.05515 10.2545 5.08237C10.2689 5.21352 10.317 5.33451 10.3901 5.43644C10.4138 5.46965 10.4404 5.50108 10.4697 5.53034L12.9697 8.03033C13.2626 8.32322 13.7374 8.32322 14.0303 8.03033C14.3232 7.73744 14.3232 7.26256 14.0303 6.96967L12.8107 5.75H14.0001C15.795 5.75 17.2501 7.20507 17.2501 9V16C17.2501 16.0315 17.252 16.0625 17.2558 16.093C15.9589 16.4241 15 17.6 15 19C15 20.6569 16.3431 22 18 22C19.6569 22 21 20.6569 21 19C21 17.6001 20.0411 16.4241 18.7443 16.0931C18.7481 16.0626 18.7501 16.0315 18.7501 16V9C18.7501 6.37665 16.6234 4.25 14.0001 4.25H12.8107L14.0303 3.03033ZM19.5 19C19.5 19.8284 18.8284 20.5 18 20.5C17.1716 20.5 16.5 19.8284 16.5 19C16.5 18.1716 17.1716 17.5 18 17.5C18.8284 17.5 19.5 18.1716 19.5 19Z" fill="#363538"/>
<path fill-rule="evenodd" clip-rule="evenodd" d="M6.75 7.90549C8.04392 7.57245 9 6.39788 9 5C9 3.34315 7.65685 2 6 2C4.34315 2 3 3.34315 3 5C3 6.39788 3.95608 7.57245 5.25 7.90549V16.0945C3.95608 16.4275 3 17.6021 3 19C3 20.6569 4.34315 22 6 22C7.65685 22 9 20.6569 9 19C9 17.6021 8.04392 16.4275 6.75 16.0945V7.90549ZM7.5 5C7.5 5.82843 6.82843 6.5 6 6.5C5.17157 6.5 4.5 5.82843 4.5 5C4.5 4.17157 5.17157 3.5 6 3.5C6.82843 3.5 7.5 4.17157 7.5 5ZM6 20.5C6.82843 20.5 7.5 19.8284 7.5 19C7.5 18.1716 6.82843 17.5 6 17.5C5.17157 17.5 4.5 18.1716 4.5 19C4.5 19.8284 5.17157 20.5 6 20.5Z" fill="#363538"/>
</svg>
