<svg width="24" height="24" viewBox="0 0 24 24" fill="none" xmlns="http://www.w3.org/2000/svg">
<path fill-rule="evenodd" clip-rule="evenodd" d="M9.85211 4.25C7.8146 4.25 6.25 6.0042 6.25 8.05685V11.1096C6.25 12.8799 7.72814 13.7405 8.90951 14.1203C9.48934 14.3068 9.73651 14.5565 9.85004 14.7627C9.96948 14.9796 10.0077 15.2699 9.94119 15.651C9.80275 16.4439 9.26594 17.3226 8.87546 17.8674C8.65709 18.1721 8.60625 18.5496 8.70632 18.8793C8.8091 19.218 9.08892 19.5422 9.5273 19.6276C10.6565 19.8477 13.259 20.0248 15.3917 17.739C16.6885 16.3491 17.313 15.2693 17.5774 14.1845C17.774 13.3775 17.7577 12.578 17.7414 11.7781C17.7369 11.5568 17.7324 11.3353 17.7324 11.1137V8.05672C17.7324 6.00404 16.1678 4.25 14.1303 4.25H9.85211ZM7.75 8.05685C7.75 6.73299 8.73927 5.75 9.85211 5.75H14.1303C15.2432 5.75 16.2324 6.73291 16.2324 8.05672V11.1137C16.2324 11.4151 16.2374 11.685 16.2421 11.9325C16.2561 12.6834 16.2663 13.229 16.12 13.8293C15.9388 14.5731 15.4937 15.4309 14.2949 16.7157C12.9824 18.1225 11.4491 18.3101 10.4346 18.2374C10.8203 17.6282 11.267 16.7788 11.4188 15.909C11.5217 15.3197 11.5015 14.652 11.164 14.0392C10.8207 13.4156 10.2127 12.9637 9.36866 12.6923C8.32169 12.3557 7.75 11.8328 7.75 11.1096V8.05685Z" fill="#363538"/>
</svg>
