<svg width="24" height="24" viewBox="0 0 24 24" fill="none" xmlns="http://www.w3.org/2000/svg">
<path fill-rule="evenodd" clip-rule="evenodd" d="M21.6 2C21.8209 2 22 2.17909 22 2.4V7.6C22 7.82091 21.8209 8 21.6 8H16.4C16.1791 8 16 7.82091 16 7.6V2.4C16 2.17909 16.1791 2 16.4 2H21.6ZM20.1 3.5C20.3209 3.5 20.5 3.67909 20.5 3.9V6.1C20.5 6.32091 20.3209 6.5 20.1 6.5H17.9C17.6791 6.5 17.5 6.32091 17.5 6.1V3.9C17.5 3.67909 17.6791 3.5 17.9 3.5H20.1Z" fill="#363538"/>
<path fill-rule="evenodd" clip-rule="evenodd" d="M7.6 16C7.82091 16 8 16.1791 8 16.4V21.6C8 21.8209 7.82091 22 7.6 22H2.4C2.17909 22 2 21.8209 2 21.6V16.4C2 16.1791 2.17909 16 2.4 16H7.6ZM6.1 17.5C6.32091 17.5 6.5 17.6791 6.5 17.9V20.1C6.5 20.3209 6.32091 20.5 6.1 20.5H3.9C3.67909 20.5 3.5 20.3209 3.5 20.1V17.9C3.5 17.6791 3.67909 17.5 3.9 17.5H6.1Z" fill="#363538"/>
<path fill-rule="evenodd" clip-rule="evenodd" d="M8 2.4C8 2.17909 7.82091 2 7.6 2H2.4C2.17909 2 2 2.17909 2 2.4V7.6C2 7.82091 2.17909 8 2.4 8H7.6C7.82091 8 8 7.82091 8 7.6V2.4ZM6.5 3.9C6.5 3.67909 6.32091 3.5 6.1 3.5H3.9C3.67909 3.5 3.5 3.67909 3.5 3.9V6.1C3.5 6.32091 3.67909 6.5 3.9 6.5H6.1C6.32091 6.5 6.5 6.32091 6.5 6.1V3.9Z" fill="#363538"/>
<path d="M11 2H9V4H11V6H9V8H8V10H10V14H14V12H12V10H10V8H13V10H15V8H13V4H15V2H13V4H11V2Z" fill="#363538"/>
<path d="M16 14V10H22V14H20V12H18V14H16Z" fill="#363538"/>
<path d="M20 22V20H18V18H16V16H20V18H22V22H20Z" fill="#363538"/>
<path d="M16 20H18V22H16V20Z" fill="#363538"/>
<path d="M15 16V18H13V16H15Z" fill="#363538"/>
<path d="M11 18V16H9V18H11Z" fill="#363538"/>
<path d="M11 18H13V20H15V22H9V20H11V18Z" fill="#363538"/>
<path d="M6 12H8V14H6V12Z" fill="#363538"/>
<path d="M6 10V12H4V14H2V10H6Z" fill="#363538"/>
</svg>
