<svg width="24" height="24" viewBox="0 0 24 24" fill="none" xmlns="http://www.w3.org/2000/svg">
<path fill-rule="evenodd" clip-rule="evenodd" d="M3.06726 5.94671C3.58607 5.25164 4.36107 4.75 5.28169 4.75H8.70423C9.62482 4.75 10.3998 5.25158 10.9186 5.94663C11.4374 6.64157 11.7359 7.56685 11.7359 8.55672V10.6137C11.7359 10.8422 11.7396 11.068 11.7432 11.2921C11.7561 12.0891 11.7686 12.8631 11.6151 13.6504C11.409 14.7076 10.9184 15.7791 9.87568 17.176C9.02413 18.3169 8.0469 18.8825 7.1317 19.115C6.23205 19.3434 5.4425 19.2379 4.95909 19.1201C4.48614 19.0049 4.27591 18.6084 4.21037 18.3384C4.14144 18.0546 4.17126 17.721 4.33741 17.4313C4.64667 16.8919 5.0863 15.9991 5.20123 15.1763C5.25776 14.7716 5.22634 14.4464 5.11926 14.2033C5.02245 13.9835 4.83606 13.7648 4.43157 13.6022C3.38703 13.1824 2.25 12.2827 2.25 10.6096V8.55685C2.25 7.56697 2.54852 6.64168 3.06726 5.94671ZM4.26932 6.84395C3.96225 7.25534 3.75 7.85847 3.75 8.55685V10.6096C3.75 11.43 4.25284 11.9138 4.99096 12.2104C5.72555 12.5057 6.22332 12.9886 6.492 13.5986C6.75041 14.1853 6.76583 14.818 6.6868 15.3838C6.5637 16.2651 6.18907 17.1342 5.87388 17.7453C6.1367 17.7598 6.44033 17.7429 6.76247 17.6611C7.33784 17.515 8.02356 17.1497 8.67362 16.2788C9.62742 15.0009 9.99242 14.1348 10.1428 13.3634C10.2636 12.7439 10.255 12.1743 10.2436 11.4166C10.2399 11.1714 10.2359 10.9064 10.2359 10.6137V8.55672C10.2359 7.85835 10.0237 7.25526 9.7166 6.84391C9.40962 6.43266 9.04378 6.25 8.70423 6.25H5.28169C4.94217 6.25 4.57632 6.43266 4.26932 6.84395ZM13.0673 5.94671C13.5861 5.25164 14.3611 4.75 15.2817 4.75H18.7042C19.6248 4.75 20.3998 5.25158 20.9186 5.94663C21.4374 6.64157 21.7359 7.56685 21.7359 8.55672V10.6137C21.7359 10.8422 21.7396 11.068 21.7432 11.2921C21.7561 12.0891 21.7686 12.8631 21.6151 13.6504C21.409 14.7076 20.9184 15.7791 19.8757 17.176C19.0241 18.3169 18.0469 18.8825 17.1317 19.115C16.232 19.3434 15.4425 19.2379 14.9591 19.1201C14.4861 19.0049 14.2759 18.6084 14.2104 18.3384C14.1414 18.0546 14.1713 17.721 14.3374 17.4313C14.6467 16.8919 15.0863 15.9991 15.2012 15.1763C15.2578 14.7716 15.2263 14.4464 15.1193 14.2033C15.0224 13.9835 14.8361 13.7648 14.4316 13.6022C13.387 13.1824 12.25 12.2827 12.25 10.6096V8.55685C12.25 7.56697 12.5485 6.64168 13.0673 5.94671ZM14.2693 6.84395C13.9623 7.25534 13.75 7.85847 13.75 8.55685V10.6096C13.75 11.43 14.2528 11.9138 14.991 12.2104C15.7256 12.5057 16.2233 12.9886 16.492 13.5986C16.7504 14.1853 16.7658 14.818 16.6868 15.3838C16.5637 16.2651 16.1891 17.1342 15.8739 17.7453C16.1367 17.7598 16.4403 17.7429 16.7625 17.6611C17.3378 17.515 18.0236 17.1497 18.6736 16.2788C19.6274 15.0009 19.9924 14.1348 20.1428 13.3634C20.2636 12.7439 20.255 12.1743 20.2436 11.4166C20.2399 11.1714 20.2359 10.9064 20.2359 10.6137V8.55672C20.2359 7.85835 20.0237 7.25526 19.7166 6.84391C19.4096 6.43266 19.0438 6.25 18.7042 6.25H15.2817C14.9422 6.25 14.5763 6.43266 14.2693 6.84395Z" fill="#363538"/>
</svg>
