<svg width="24" height="24" viewBox="0 0 24 24" fill="none" xmlns="http://www.w3.org/2000/svg">
<path fill-rule="evenodd" clip-rule="evenodd" d="M8.01222 11.8994C8.22312 11.8987 8.4252 11.9873 8.56788 12.1426C8.71026 12.2978 8.78082 12.506 8.76222 12.7158C8.70519 13.358 8.83758 14.0231 9.18507 14.625C9.53265 15.227 10.0427 15.6746 10.6274 15.9463C10.8186 16.0352 10.9637 16.2003 11.0269 16.4014C11.09 16.6026 11.0656 16.8217 10.9595 17.0039L8.88136 20.5713C8.34947 21.4842 7.18079 22.1637 6.00147 21.5889L5.61866 21.3857C4.69682 20.8594 3.5962 19.9447 2.68995 18.375C1.65426 16.5811 1.48631 14.9954 1.563 13.9004L1.59327 13.6621C1.80173 12.5103 2.89303 11.9191 3.88331 11.915L8.01222 11.8994ZM3.89014 13.415C3.41764 13.4168 3.15086 13.6509 3.07862 13.8994L3.06007 14.0049C3.00182 14.8366 3.12005 16.1186 3.98975 17.625C4.85944 19.1312 5.91031 19.8748 6.65968 20.2402C6.91505 20.3642 7.31415 20.2813 7.58546 19.8154L9.28565 16.8965C8.72978 16.5097 8.24668 15.9993 7.88624 15.375C7.52599 14.751 7.32617 14.0778 7.26905 13.4033L3.89014 13.415Z" fill="#363538"/>
<path fill-rule="evenodd" clip-rule="evenodd" d="M20.1167 11.915C21.107 11.9191 22.1983 12.5103 22.4067 13.6621L22.437 13.9004C22.5137 14.9954 22.3458 16.5811 21.3101 18.375C20.4038 19.9447 19.3032 20.8594 18.3814 21.3857L17.9985 21.5889C16.8192 22.1637 15.6505 21.4842 15.1187 20.5713L13.0405 17.0039C12.9344 16.8217 12.91 16.6026 12.9732 16.4014C13.0363 16.2003 13.1815 16.0352 13.3726 15.9463C13.9573 15.6746 14.4674 15.227 14.8149 14.625C15.1624 14.0231 15.2948 13.358 15.2378 12.7158C15.2192 12.506 15.2897 12.2978 15.4321 12.1426C15.5748 11.9872 15.7769 11.8986 15.9878 11.8994L20.1167 11.915ZM16.731 13.4033C16.6738 14.0778 16.474 14.751 16.1138 15.375C15.7533 15.9993 15.2702 16.5097 14.7144 16.8965L16.4146 19.8154C16.6859 20.2813 17.085 20.3642 17.3403 20.2402C18.0897 19.8748 19.1406 19.1312 20.0103 17.625C20.88 16.1186 20.9982 14.8366 20.9399 14.0049L20.9214 13.8994C20.8492 13.6509 20.5824 13.4168 20.1099 13.415L16.731 13.4033Z" fill="#363538"/>
<path fill-rule="evenodd" clip-rule="evenodd" d="M11.9995 11C13.1041 11 13.9995 11.8954 13.9995 13C13.9995 14.1046 13.1041 15 11.9995 15C10.8952 14.9997 9.99952 14.1044 9.99952 13C9.99952 11.8956 10.8952 11.0003 11.9995 11ZM11.9995 12.5C11.7236 12.5003 11.4995 12.724 11.4995 13C11.4995 13.276 11.7236 13.4997 11.9995 13.5C12.2757 13.5 12.4995 13.2761 12.4995 13C12.4995 12.7239 12.2757 12.5 11.9995 12.5Z" fill="#363538"/>
<path fill-rule="evenodd" clip-rule="evenodd" d="M11.9995 2.25C14.0708 2.25 15.528 2.89686 16.438 3.51074L16.6294 3.65625C17.5229 4.41279 17.4894 5.65399 16.9976 6.51367L14.9468 10.0967C14.842 10.2796 14.6643 10.4102 14.4585 10.4561C14.2529 10.5017 14.0372 10.4589 13.8648 10.3379C13.3371 9.96746 12.6945 9.75 11.9995 9.75C11.3045 9.7501 10.6619 9.96741 10.1343 10.3379C9.96178 10.4588 9.74619 10.5018 9.54054 10.4561C9.33485 10.4101 9.15696 10.2796 9.05225 10.0967L7.00147 6.51367C6.47692 5.59661 6.47373 4.24459 7.56104 3.51074L7.92823 3.28027C8.84492 2.74517 10.1873 2.25009 11.9995 2.25ZM11.9995 3.75C10.2604 3.7501 9.091 4.28863 8.39991 4.75488C8.16488 4.91403 8.03656 5.30076 8.30421 5.76855L9.98194 8.70117C10.5948 8.41312 11.2787 8.25007 11.9995 8.25C12.7201 8.25 13.4034 8.41341 14.0161 8.70117L15.6948 5.76855C15.9296 5.35847 15.8603 5.01103 15.6812 4.82422L15.5991 4.75488C14.9079 4.28864 13.7387 3.75 11.9995 3.75Z" fill="#363538"/>
</svg>
