<svg width="24" height="24" viewBox="0 0 24 24" fill="none" xmlns="http://www.w3.org/2000/svg">
<path fill-rule="evenodd" clip-rule="evenodd" d="M18 12.0002C18 15.314 15.3137 18.0002 12 18.0002C8.68629 18.0002 6 15.314 6 12.0002C6 8.68654 8.68629 6.00024 12 6.00024C15.3137 6.00024 18 8.68654 18 12.0002ZM16.5 12.0002C16.5 14.4855 14.4853 16.5002 12 16.5002C9.51472 16.5002 7.5 14.4855 7.5 12.0002C7.5 9.51496 9.51472 7.50024 12 7.50024C14.4853 7.50024 16.5 9.51496 16.5 12.0002Z" fill="#363538"/>
<path fill-rule="evenodd" clip-rule="evenodd" d="M22 12.0002C22 17.5231 17.5228 22.0002 12 22.0002C6.47715 22.0002 2 17.5231 2 12.0002C2 6.4774 6.47715 2.00024 12 2.00024C17.5228 2.00024 22 6.4774 22 12.0002ZM20.5 12.0002C20.5 16.6947 16.6944 20.5002 12 20.5002C7.30558 20.5002 3.5 16.6947 3.5 12.0002C3.5 7.30582 7.30558 3.50024 12 3.50024C16.6944 3.50024 20.5 7.30582 20.5 12.0002Z" fill="#363538"/>
</svg>
