<svg width="24" height="24" viewBox="0 0 24 24" fill="none" xmlns="http://www.w3.org/2000/svg">
<path fill-rule="evenodd" clip-rule="evenodd" d="M13.5085 3.13908C12.8507 1.95431 11.1475 1.94937 10.4945 3.14792C8.03898 7.6548 6.28398 12.1559 6.15271 15.5892C6.08672 17.3152 6.42734 18.8812 7.41783 20.0204C8.42168 21.175 9.96817 21.7499 12 21.7499C14.2417 21.7499 15.9147 21.1898 16.9808 20.0372C18.0459 18.8857 18.362 17.2974 18.2395 15.5637C17.997 12.1289 15.9989 7.62488 13.5085 3.13908ZM11.8117 3.86557C11.8942 3.71403 12.1085 3.70774 12.1971 3.86717C14.6885 8.35476 16.5265 12.5992 16.7433 15.6694C16.8505 17.1882 16.5521 18.2916 15.8796 19.0187C15.2082 19.7446 14.0207 20.2499 12 20.2499C10.2434 20.2499 9.17886 19.7597 8.54981 19.0362C7.9074 18.2973 7.59328 17.1723 7.65162 15.6465C7.769 12.5763 9.37888 8.33075 11.8117 3.86557Z" fill="#363538"/>
</svg>
