<svg width="24" height="24" viewBox="0 0 24 24" fill="none" xmlns="http://www.w3.org/2000/svg">
<path d="M20.9445 3.94464C21.2374 3.65174 21.2374 3.17687 20.9445 2.88398C20.6517 2.59108 20.1768 2.59108 19.8839 2.88398L16.832 5.93583L16.7791 4.93052C16.7573 4.51688 16.4044 4.19921 15.9907 4.22098C15.5771 4.24275 15.2594 4.59572 15.2812 5.00936L15.4226 7.69637C15.4428 8.07957 15.7489 8.38574 16.1322 8.40591L18.8192 8.54733C19.2328 8.5691 19.5858 8.25143 19.6075 7.83779C19.6293 7.42415 19.3116 7.07118 18.898 7.04941L17.8927 6.99649L20.9445 3.94464Z" fill="#363538"/>
<path fill-rule="evenodd" clip-rule="evenodd" d="M12 6.25009C12.4142 6.25009 12.75 6.58588 12.75 7.00009V7.76545C14.4336 7.92711 15.75 9.34558 15.75 11.0715C15.75 11.4857 15.4142 11.8215 15 11.8215C14.5858 11.8215 14.25 11.4857 14.25 11.0715C14.25 10.1753 13.6026 9.43018 12.75 9.27836V12.2501C14.4069 12.2501 15.75 13.5932 15.75 15.2501C15.75 16.9069 14.4069 18.2501 12.75 18.2501V19.0001C12.75 19.4143 12.4142 19.7501 12 19.7501C11.5858 19.7501 11.25 19.4143 11.25 19.0001V18.2347C9.56644 18.0731 8.25 16.6546 8.25 14.9287C8.25 14.5145 8.58579 14.1787 9 14.1787C9.41421 14.1787 9.75 14.5145 9.75 14.9287C9.75 15.8249 10.3974 16.57 11.25 16.7218V13.7501C9.59315 13.7501 8.25 12.4069 8.25 10.7501C8.25 9.09324 9.59315 7.75009 11.25 7.75009V7.00009C11.25 6.58588 11.5858 6.25009 12 6.25009ZM9.75 10.7501C9.75 9.92167 10.4216 9.25009 11.25 9.25009V12.2501C10.4216 12.2501 9.75 11.5785 9.75 10.7501ZM14.25 15.2501C14.25 16.0785 13.5784 16.7501 12.75 16.7501V13.7501C13.5784 13.7501 14.25 14.4217 14.25 15.2501Z" fill="#363538"/>
</svg>
