<svg width="24" height="24" viewBox="0 0 24 24" fill="none" xmlns="http://www.w3.org/2000/svg">
<path d="M7.22541 7.42543C6.86669 7.21832 6.74379 6.75963 6.9509 6.40091L8.55379 3.62471C9.9972 1.12473 13.6056 1.12478 15.049 3.62481L17.5454 7.94893L18.1748 5.59993C18.282 5.19983 18.6933 4.96239 19.0934 5.0696C19.4935 5.17681 19.7309 5.58806 19.6237 5.98816L18.5285 10.0755C18.4807 10.2652 18.3591 10.4361 18.1763 10.5417C18.0791 10.5978 17.9745 10.6297 17.8696 10.6392C17.7838 10.6471 17.6952 10.6402 17.6071 10.6166L13.509 9.51849C13.1089 9.41129 12.8715 9.00003 12.9787 8.59993C13.0859 8.19983 13.4971 7.9624 13.8972 8.0696L16.2465 8.69908L13.7499 4.37479C12.8839 2.87477 10.7189 2.87474 9.85282 4.37473L8.24993 7.15093C8.04282 7.50964 7.58413 7.63254 7.22541 7.42543Z" fill="#363538"/>
<path d="M6.47184 13.204C6.57905 13.6041 6.9903 13.8416 7.3904 13.7344C7.7905 13.6272 8.02793 13.2159 7.92073 12.8158L6.82265 8.71772C6.7858 8.58019 6.71302 8.46188 6.61712 8.37018C6.60384 8.35748 6.59013 8.3453 6.576 8.33365C6.51982 8.28731 6.45717 8.24933 6.39019 8.22097C6.33935 8.19941 6.28715 8.18388 6.23447 8.17414C6.13521 8.15574 6.03076 8.15719 5.92667 8.18171C5.91802 8.18375 5.9094 8.18593 5.90082 8.18827L1.80601 9.28547C1.40591 9.39267 1.16847 9.80392 1.27568 10.204C1.38289 10.6041 1.79414 10.8416 2.19424 10.7344L4.54324 10.1049L2.04661 14.4291C0.603188 16.9291 2.40737 20.0541 5.29412 20.0541L8.49982 20.0542C8.91403 20.0542 9.24982 19.7184 9.24983 19.3042C9.24984 18.89 8.91405 18.5542 8.49984 18.5542L5.29414 18.5541C3.56209 18.5541 2.47958 16.6791 3.34563 15.1791L5.84236 10.8548L6.47184 13.204Z" fill="#363538"/>
<path d="M18.9242 11.3504C19.2829 11.1433 19.7416 11.2662 19.9487 11.6249L21.5515 14.4012C22.9948 16.9012 21.1906 20.0262 18.3038 20.0261L13.3107 20.026L15.0303 21.7457C15.3232 22.0386 15.3232 22.5135 15.0303 22.8064C14.7374 23.0993 14.2626 23.0993 13.9697 22.8064L10.9697 19.8064C10.8943 19.731 10.8384 19.6436 10.8018 19.5504C10.7728 19.4768 10.7552 19.3974 10.751 19.3146C10.7503 19.3018 10.75 19.2889 10.75 19.276C10.75 19.1686 10.7726 19.0666 10.8132 18.9742C10.843 18.9064 10.8832 18.8421 10.934 18.7839C10.9467 18.7693 10.9599 18.7553 10.9736 18.7417L13.9697 15.7457C14.2626 15.4528 14.7374 15.4528 15.0303 15.7457C15.3232 16.0386 15.3232 16.5135 15.0303 16.8064L13.3107 18.526L18.3038 18.5261C20.0359 18.5261 21.1185 16.6512 20.2524 15.1511L18.6496 12.3749C18.4425 12.0162 18.5654 11.5575 18.9242 11.3504Z" fill="#363538"/>
</svg>
