<svg width="24" height="24" viewBox="0 0 24 24" fill="none" xmlns="http://www.w3.org/2000/svg">
<path d="M12.25 5.54956C11.8358 5.54956 11.5 5.88535 11.5 6.29956C11.5 6.71377 11.8358 7.04956 12.25 7.04956H15.6121C17.4832 7.04956 19 8.56639 19 10.4375C19 12.3086 17.4832 13.8254 15.6121 13.8254H6.06066L7.91826 11.9678C8.21115 11.6749 8.21115 11.2001 7.91826 10.9072C7.62537 10.6143 7.15049 10.6143 6.8576 10.9072L3.71967 14.0451C3.42678 14.338 3.42678 14.8129 3.71967 15.1058L6.8576 18.2437C7.15049 18.5366 7.62537 18.5366 7.91826 18.2437C8.21115 17.9508 8.21115 17.4759 7.91826 17.183L6.06066 15.3254H15.6121C18.3116 15.3254 20.5 13.137 20.5 10.4375C20.5 7.73796 18.3116 5.54956 15.6121 5.54956H12.25Z" fill="#363538"/>
</svg>
