<svg width="24" height="24" viewBox="0 0 24 24" fill="none" xmlns="http://www.w3.org/2000/svg">
<path fill-rule="evenodd" clip-rule="evenodd" d="M11.0915 5.08571C10.1777 4.48261 8.97982 4.53443 8.12143 5.2142L6.74615 6.30332C6.48247 6.51213 6.15598 6.62575 5.81964 6.62575C4.52942 6.62575 3.38447 7.45273 2.97892 8.67756L2.5674 9.92046C2.55176 9.96767 2.53869 10.015 2.52809 10.0624C2.52282 10.0618 2.51758 10.0612 2.51238 10.0606C2.2383 10.029 2 10.2434 2 10.5193V12C2 17.5229 6.47715 22 12 22C17.5228 22 22 17.5229 22 12V10.5193C22 10.2434 21.7617 10.029 21.4876 10.0606C21.4652 10.0632 21.4421 10.0658 21.4183 10.0686C21.4018 9.99439 21.3791 9.92031 21.35 9.84688L21.1606 9.3684C20.6533 8.08739 19.5301 7.1517 18.1786 6.88412L17.9612 6.84109C17.4873 6.74727 17.0643 6.48271 16.7726 6.09764C15.8763 4.91463 14.3271 4.43226 12.9176 4.89734L11.986 5.20475C11.6853 5.30395 11.3558 5.2601 11.0915 5.08571ZM13.4597 12.2221C15.7393 12.1464 18.6582 11.935 20.1192 11.8224C20.2536 11.812 20.3811 11.7842 20.5 11.7415V12C20.5 16.6944 16.6944 20.5 12 20.5C7.30558 20.5 3.5 16.6944 3.5 12V11.7557C3.60292 11.7879 3.7117 11.8093 3.82537 11.8181C5.26747 11.9296 8.23147 12.1454 10.5398 12.2221C11.0464 12.2399 11.5373 12.25 12 12.25C12.4625 12.25 12.9533 12.2399 13.4597 12.2221ZM19.8904 10.235L19.7659 9.92068C19.4463 9.11363 18.7387 8.52414 17.8872 8.35556L17.6699 8.31253C16.8355 8.14733 16.0907 7.68151 15.577 7.00349C15.068 6.33162 14.1881 6.05767 13.3876 6.3218L12.456 6.6292C11.7196 6.87218 10.9125 6.76477 10.2653 6.33767C9.89221 6.09142 9.40314 6.11258 9.05267 6.39013L7.67738 7.47924C7.14868 7.89793 6.49405 8.12575 5.81964 8.12575C5.17617 8.12575 4.60515 8.53819 4.4029 9.14904L4.04554 10.2283C5.78694 10.4093 8.35429 10.6443 10.589 10.723C11.1027 10.7401 11.5815 10.75 12 10.75C12.4186 10.75 12.8976 10.7401 13.4115 10.723C15.6188 10.6452 18.1506 10.415 19.8904 10.235Z" fill="#363538"/>
</svg>
