<svg width="24" height="24" viewBox="0 0 24 24" fill="none" xmlns="http://www.w3.org/2000/svg">
<path fill-rule="evenodd" clip-rule="evenodd" d="M11.979 9.46899C13.0836 9.46899 13.979 8.57356 13.979 7.46899C13.979 6.36442 13.0836 5.46899 11.979 5.46899C10.8744 5.46899 9.979 6.36442 9.979 7.46899C9.979 8.57356 10.8744 9.46899 11.979 9.46899ZM11.979 7.96899C12.2551 7.96899 12.479 7.74514 12.479 7.46899C12.479 7.19285 12.2551 6.96899 11.979 6.96899C11.7029 6.96899 11.479 7.19285 11.479 7.46899C11.479 7.74514 11.7029 7.96899 11.979 7.96899Z" fill="#363538"/>
<path fill-rule="evenodd" clip-rule="evenodd" d="M14.0991 2.11946C12.9047 0.96018 11.0539 0.96018 9.8595 2.11946C8.28377 3.64881 6.54875 6.31895 5.72132 10.355C5.39187 10.4617 5.08006 10.6424 4.79879 10.8628C4.33272 11.228 3.89754 11.7416 3.5255 12.3662C2.78523 13.609 2.25745 15.3526 2.24967 17.4539C2.20494 17.8766 2.32028 18.3211 2.57441 18.6653C2.85659 19.0475 3.34158 19.3337 3.94344 19.2416C4.49627 19.1569 4.98443 18.7757 5.40517 18.2316L5.43046 18.1986C5.55217 18.8125 5.74902 19.3502 6.10121 19.7078C6.29803 19.9076 6.54139 20.0486 6.82274 20.1042C7.09641 20.1583 7.35563 20.1217 7.57825 20.0508C8.00104 19.916 8.39376 19.6234 8.7248 19.3321C9.1723 18.9382 9.67039 18.3908 10.1318 17.8837C10.3455 17.6489 10.5513 17.4226 10.7406 17.2244C11.0616 16.8881 11.3465 16.6163 11.5945 16.432C11.855 16.2385 11.9721 16.2202 11.979 16.2191C11.9859 16.2202 12.1037 16.2385 12.3641 16.432C12.6122 16.6163 12.897 16.8881 13.2181 17.2244C13.4073 17.4226 13.613 17.6487 13.8267 17.8835C14.2881 18.3906 14.7863 18.9382 15.2339 19.3321C15.5649 19.6234 15.9576 19.916 16.3804 20.0508C16.603 20.1217 16.8622 20.1583 17.1359 20.1042C17.4173 20.0486 17.6606 19.9076 17.8574 19.7078C18.2138 19.346 18.4111 18.7998 18.5325 18.1769C18.5463 18.1954 18.5602 18.2136 18.5741 18.2316C18.9949 18.7757 19.483 19.1569 20.0359 19.2416C20.6377 19.3337 21.1227 19.0475 21.4049 18.6653C21.659 18.3211 21.7744 17.8766 21.7296 17.4539C21.7219 15.3526 21.1941 13.609 20.4538 12.3662C20.0818 11.7416 19.6466 11.228 19.1805 10.8628C18.8929 10.6374 18.5734 10.4536 18.2358 10.3479C17.4082 6.31775 15.676 3.6499 14.0991 2.11946ZM10.9042 3.19585C11.5167 2.60138 12.442 2.60138 13.0544 3.19585C14.9054 4.99236 17.2293 8.84644 17.2293 15.469C17.2293 16.5473 17.1675 17.3202 17.0665 17.8568C16.9798 18.3174 16.8769 18.5306 16.8195 18.616C16.7011 18.5732 16.5052 18.4528 16.2248 18.206C15.8381 17.8657 15.4444 17.4321 15.0201 16.9649C14.7912 16.7128 14.5534 16.4509 14.3031 16.1887C13.9679 15.8375 13.6121 15.4905 13.2586 15.2279C12.9273 14.9818 12.4808 14.719 11.9793 14.719C11.4779 14.719 11.0313 14.9818 10.7001 15.2279C10.3466 15.4905 9.99079 15.8375 9.65556 16.1887C9.4052 16.4509 9.16742 16.7128 8.93854 16.9649C8.51425 17.4321 8.12052 17.8657 7.73385 18.206C7.45342 18.4528 7.25757 18.5732 7.13919 18.616C7.08178 18.5306 6.97889 18.3174 6.89215 17.8568C6.79111 17.3202 6.72932 16.5473 6.72932 15.469C6.72932 13.8638 6.86595 12.4219 7.09878 11.1334C7.82726 7.10187 9.49947 4.55922 10.9042 3.19585ZM4.81421 13.1338C5.00659 12.8108 5.2081 12.5458 5.40524 12.337C5.29626 13.2736 5.23452 14.2714 5.22964 15.3325C4.85748 16.3153 4.50907 16.9383 4.21856 17.314C3.99375 17.6047 3.83616 17.7068 3.76279 17.7417C3.74593 17.7032 3.73566 17.6509 3.74208 17.6058C3.74707 17.5708 3.74958 17.5354 3.74958 17.5001C3.74975 15.622 4.21968 14.1319 4.81421 13.1338ZM19.7607 17.314C19.4702 16.9383 19.1218 16.3153 18.7497 15.3325C18.7448 14.2714 18.683 13.2736 18.5741 12.337C18.7712 12.5458 18.9727 12.8108 19.1651 13.1338C19.7596 14.1319 20.2296 15.622 20.2297 17.5001C20.2297 17.5354 20.2322 17.5708 20.2372 17.6058C20.2436 17.6509 20.2334 17.7031 20.2165 17.7417C20.1431 17.7068 19.9855 17.6047 19.7607 17.314Z" fill="#363538"/>
<path fill-rule="evenodd" clip-rule="evenodd" d="M10.3085 18.4083C11.2277 17.4892 12.7179 17.4892 13.637 18.4083C14.3875 19.1588 14.5429 20.3188 14.0163 21.2403L13.3523 22.4022C12.7424 23.4697 11.2032 23.4697 10.5932 22.4022L9.92928 21.2403C9.4027 20.3188 9.55803 19.1588 10.3085 18.4083ZM12.5764 19.469C12.243 19.1357 11.7025 19.1357 11.3692 19.469C11.097 19.7412 11.0407 20.1619 11.2316 20.4961L11.8956 21.658C11.9071 21.6781 11.9183 21.6868 11.9275 21.6919C11.9387 21.6981 11.9543 21.7028 11.9728 21.7028C11.9912 21.7028 12.0069 21.6981 12.0181 21.6919C12.0272 21.6868 12.0385 21.6781 12.05 21.658L12.7139 20.4961C12.9049 20.1619 12.8486 19.7412 12.5764 19.469Z" fill="#363538"/>
</svg>
