<svg width="24" height="24" viewBox="0 0 24 24" fill="none" xmlns="http://www.w3.org/2000/svg">
<path fill-rule="evenodd" clip-rule="evenodd" d="M20.4771 5.08595C20.4676 4.23246 19.8158 3.57569 18.9625 3.55966C17.0052 3.52291 14.0225 4.12694 10.6478 6.44958C9.56917 7.19193 8.44945 8.1106 7.31002 9.24131C6.54467 10.0008 6.03954 10.5891 5.72984 11.0388C5.46398 11.4248 5.38516 11.648 5.36495 11.7489C5.47868 11.8028 5.70216 11.857 6.07486 11.8822C6.58875 11.917 7.17386 11.8911 7.80439 11.8631C8.14453 11.848 8.49789 11.8323 8.86041 11.8253C9.34582 11.8159 9.84272 11.824 10.2781 11.89C10.6861 11.9518 11.1872 12.0836 11.5404 12.4396C11.8936 12.7955 12.0216 13.2976 12.0803 13.7061C12.1429 14.1419 12.1472 14.6389 12.1341 15.1242C12.1242 15.4867 12.1059 15.8399 12.0882 16.1799C12.0554 16.8102 12.0249 17.3951 12.0558 17.9092C12.0781 18.2821 12.1306 18.506 12.1836 18.6202C12.2847 18.6007 12.5084 18.5236 12.8965 18.2607C13.3485 17.9545 13.9407 17.4539 14.7061 16.6944C19.4069 12.0295 20.5057 7.66525 20.4771 5.08595ZM18.9906 2.05993C20.6549 2.09118 21.9585 3.40488 21.977 5.0693C22.0014 7.2666 21.3278 10.3753 19.0501 13.8016C19.2129 14.1157 19.3074 14.472 19.3501 14.8348C19.4191 15.4229 19.3611 16.0936 19.1798 16.7976C18.8191 18.1985 17.9532 19.8012 16.4671 21.2869C16.1986 21.6164 15.8018 21.8476 15.3785 21.9097C14.9085 21.9786 14.3637 21.836 14.0051 21.3439C13.6758 20.8918 13.6026 20.2768 13.6924 19.5949C13.6954 19.5723 13.6986 19.5496 13.7019 19.5267C13.1742 19.8794 12.6476 20.124 12.1398 20.126C11.8593 20.127 11.5878 20.0536 11.3501 19.893C11.119 19.7369 10.9623 19.5271 10.8559 19.3191C10.6538 18.9241 10.5848 18.4392 10.5584 17.999C10.5228 17.404 10.5605 16.6648 10.5954 15.9801C10.6116 15.663 10.6272 15.3576 10.6346 15.0836C10.6472 14.6188 10.6395 14.2252 10.5955 13.9193C10.5494 13.5981 10.4799 13.502 10.4759 13.4964C10.4702 13.4923 10.3743 13.4216 10.0535 13.373C9.74791 13.3268 9.35436 13.316 8.88952 13.325C8.61544 13.3303 8.30993 13.3436 7.99274 13.3573C7.30775 13.387 6.56832 13.4191 5.97356 13.3788C5.5336 13.349 5.04929 13.2764 4.65579 13.0712C4.4486 12.9632 4.24008 12.8049 4.08568 12.5726C3.92696 12.3337 3.85562 12.0617 3.85884 11.7812C3.8646 11.2793 4.10759 10.7608 4.45765 10.242C4.44383 10.2438 4.43008 10.2456 4.4164 10.2473C3.73384 10.3319 3.11934 10.254 2.66986 9.92117C2.18052 9.55887 2.04209 9.01297 2.11459 8.54349C2.1799 8.12066 2.41415 7.7257 2.74568 7.45972C4.24276 5.98506 5.85213 5.13155 7.25574 4.78159C7.96115 4.60571 8.63227 4.55281 9.21978 4.6264C9.57434 4.67081 9.92226 4.76485 10.2301 4.92354C13.6777 2.66796 16.7951 2.0187 18.9906 2.05993ZM8.60054 6.09528C8.31346 6.10242 7.98338 6.14609 7.61862 6.23704C6.49135 6.5181 5.10266 7.23411 3.76946 8.55687C3.74435 8.58179 3.7175 8.6049 3.68912 8.62603C3.65263 8.6532 3.62274 8.69734 3.60728 8.73642C3.68368 8.76398 3.86718 8.80389 4.23189 8.75869C4.70319 8.70027 5.39082 8.50874 6.35055 8.08067C7.10718 7.3367 7.85895 6.67767 8.60054 6.09528ZM15.8739 17.6774C15.4384 18.6338 15.2416 19.32 15.1796 19.7908C15.1316 20.1551 15.1701 20.339 15.197 20.4156C15.2363 20.4004 15.2806 20.3709 15.3081 20.3346C15.3294 20.3064 15.3527 20.2797 15.3778 20.2548C16.7108 18.9318 17.4375 17.5486 17.7272 16.4235C17.8209 16.0595 17.8671 15.7298 17.8765 15.4427C17.2884 16.1798 16.6236 16.9265 15.8739 17.6774Z" fill="#363538"/>
<path fill-rule="evenodd" clip-rule="evenodd" d="M17.0386 7.68728C16.8426 7.8818 16.5261 7.88058 16.3315 7.68457C16.137 7.48856 16.1383 7.17198 16.3343 6.97747C16.5303 6.78296 16.8469 6.78417 17.0414 6.98018C17.2359 7.17619 17.2347 7.49277 17.0386 7.68728ZM18.0952 8.75201C17.3112 9.53005 16.0449 9.52519 15.2668 8.74115C14.4888 7.9571 14.4936 6.69078 15.2777 5.91274C16.0617 5.1347 17.328 5.13956 18.1061 5.92361C18.8841 6.70765 18.8793 7.97397 18.0952 8.75201ZM7.73909 15.3522C8.21052 15.354 8.59122 15.7376 8.58941 16.209C8.58793 16.594 8.329 16.9303 7.95725 17.0301L6.66485 17.3773C6.64249 17.3833 6.62841 17.3814 6.61833 17.3785C6.606 17.3749 6.59167 17.3671 6.57867 17.354C6.56568 17.3409 6.55799 17.3266 6.55453 17.3142C6.5517 17.3041 6.54992 17.29 6.5561 17.2677L6.91316 15.978C7.01587 15.607 7.35416 15.3507 7.73909 15.3522ZM10.0894 16.2148C10.0944 14.9149 9.0447 13.8572 7.74486 13.8522C6.6835 13.8481 5.75073 14.5549 5.46754 15.5778L5.11048 16.8675C4.78244 18.0523 5.86661 19.1449 7.05397 18.8259L8.34636 18.4788C9.37139 18.2035 10.0853 17.2761 10.0894 16.2148Z" fill="#363538"/>
</svg>
