<svg width="24" height="24" viewBox="0 0 24 24" fill="none" xmlns="http://www.w3.org/2000/svg">
<path fill-rule="evenodd" clip-rule="evenodd" d="M8.6708 4.29711C7.40783 3.28673 8.12227 1.25 9.73967 1.25H14.2603C15.8777 1.25 16.5922 3.28673 15.3292 4.29711L15.25 4.36047V5.31802C15.25 7.1565 15.9803 8.91967 17.2803 10.2197L17.6664 10.6057C19.0005 11.9398 19.75 13.7493 19.75 15.636C19.75 19.565 16.565 22.75 12.636 22.75H11.364C7.43503 22.75 4.25 19.565 4.25 15.636C4.25 13.7493 4.9995 11.9398 6.33363 10.6057L6.71967 10.2197C7.39361 9.54573 7.91444 8.74731 8.2598 7.87846C8.27582 7.78012 8.31097 7.6882 8.3613 7.60665C8.61624 6.87783 8.75 6.10482 8.75 5.31802V4.36047L8.6708 4.29711ZM9.51996 8.75H10.5C10.9142 8.75 11.25 8.41421 11.25 8C11.25 7.58579 10.9142 7.25 10.5 7.25H10.0257C10.141 6.76015 10.2129 6.25826 10.2389 5.75H11.5C11.9142 5.75 12.25 5.41421 12.25 5C12.25 4.58579 11.9142 4.25 11.5 4.25H10.25V4.1996C10.25 3.8456 10.0891 3.5108 9.81266 3.28966L9.60784 3.12581C9.5585 3.08633 9.54048 3.04905 9.53263 3.01843C9.52348 2.98272 9.52422 2.93769 9.54054 2.89117C9.55686 2.84466 9.5844 2.80903 9.61386 2.78686C9.63912 2.76785 9.67648 2.75 9.73967 2.75H14.2603C14.3235 2.75 14.3609 2.76785 14.3861 2.78686C14.4156 2.80903 14.4431 2.84466 14.4595 2.89117C14.4758 2.93769 14.4765 2.98272 14.4674 3.01843C14.4595 3.04905 14.4415 3.08633 14.3922 3.12581L14.1873 3.28966C13.9109 3.5108 13.75 3.8456 13.75 4.1996V5.31802C13.75 7.55432 14.6384 9.69903 16.2197 11.2803L16.6057 11.6664C17.6585 12.7192 18.25 14.1471 18.25 15.636C18.25 18.7365 15.7365 21.25 12.636 21.25H11.364C8.26346 21.25 5.75 18.7365 5.75 15.636C5.75 14.1471 6.34147 12.7192 7.39429 11.6664L7.78033 11.2803C8.51731 10.5433 9.10379 9.68398 9.51996 8.75Z" fill="#363538"/>
</svg>
