<svg width="24" height="24" viewBox="0 0 24 24" fill="none" xmlns="http://www.w3.org/2000/svg">
<path fill-rule="evenodd" clip-rule="evenodd" d="M8.5 6.52979C8.5 7.63435 7.60457 8.52979 6.5 8.52979C5.39543 8.52979 4.5 7.63435 4.5 6.52979C4.5 5.42522 5.39543 4.52979 6.5 4.52979C7.60457 4.52979 8.5 5.42522 8.5 6.52979ZM7 6.52979C7 6.80593 6.77614 7.02979 6.5 7.02979C6.22386 7.02979 6 6.80593 6 6.52979C6 6.25364 6.22386 6.02979 6.5 6.02979C6.77614 6.02979 7 6.25364 7 6.52979Z" fill="#363538"/>
<path fill-rule="evenodd" clip-rule="evenodd" d="M11 6.52979C11 4.0445 8.98528 2.02979 6.5 2.02979C4.01472 2.02979 2 4.0445 2 6.52979C2.1986 8.50407 3.35307 10.213 5.0653 11.3085C5.93469 11.8647 7.05594 11.841 7.91103 11.263C9.53399 10.166 10.8041 8.47699 11 6.52979ZM3.50088 6.45657C3.66992 7.88868 4.52235 9.18033 5.87371 10.0449C6.22906 10.2723 6.70243 10.2694 7.07103 10.0203C8.41275 9.11339 9.33406 7.81298 9.4991 6.45556C9.4597 4.833 8.13204 3.52979 6.5 3.52979C4.86762 3.52979 3.53975 4.83355 3.50088 6.45657Z" fill="#363538"/>
<path d="M3.81564 16.0864C3.70511 14.7641 4.20033 13.3171 5.33526 11.459C5.85281 11.7077 6.43427 11.7717 6.98584 11.6555C5.61574 13.7529 5.23113 15.0128 5.31042 15.9614C5.39196 16.9369 5.9719 17.7665 7.06855 19.0406C7.49349 19.5342 7.76035 19.6012 7.95328 19.6093C8.08111 19.6147 8.23444 19.5946 8.44849 19.543C8.58703 19.5096 8.71274 19.4736 8.85815 19.4319C8.96088 19.4025 9.07343 19.3703 9.20728 19.3342C9.80798 19.172 10.5611 19.0153 11.5166 19.1234C12.4675 19.2309 13.5648 19.594 14.886 20.3867C14.9529 20.4268 15.1536 20.4896 15.4464 20.4662C15.7242 20.444 16 20.3497 16.2105 20.1853C16.4076 20.0313 16.5764 19.7951 16.6361 19.4119C16.6983 19.012 16.6464 18.4122 16.3037 17.5547C16.2865 17.5115 16.2735 17.4677 16.2646 17.4237C16.7824 17.6926 17.3701 17.7719 17.9303 17.6666C18.1502 18.4073 18.2081 19.0651 18.1182 19.6426C17.9996 20.4049 17.6294 20.9803 17.1339 21.3674C16.6517 21.7441 16.0812 21.9203 15.5659 21.9615C15.0657 22.0014 14.5268 21.9204 14.1143 21.673C12.9354 20.9656 12.0419 20.6924 11.348 20.6139C10.6588 20.5359 10.1132 20.6433 9.59813 20.7823C9.51391 20.8051 9.41887 20.8321 9.32093 20.86C9.14631 20.9097 8.96033 20.9626 8.80003 21.0012C8.52725 21.067 8.21907 21.1218 7.89033 21.108C7.17013 21.0778 6.54359 20.73 5.9317 20.0191C4.86285 18.7773 3.94274 17.607 3.81564 16.0864Z" fill="#363538"/>
<path fill-rule="evenodd" clip-rule="evenodd" d="M19.5 12.5298C19.5 13.6344 18.6046 14.5298 17.5 14.5298C16.3954 14.5298 15.5 13.6344 15.5 12.5298C15.5 11.4252 16.3954 10.5298 17.5 10.5298C18.6046 10.5298 19.5 11.4252 19.5 12.5298ZM18 12.5298C18 12.8059 17.7761 13.0298 17.5 13.0298C17.2239 13.0298 17 12.8059 17 12.5298C17 12.2536 17.2239 12.0298 17.5 12.0298C17.7761 12.0298 18 12.2536 18 12.5298Z" fill="#363538"/>
<path fill-rule="evenodd" clip-rule="evenodd" d="M17.5 8.02979C19.9853 8.02979 22 10.0445 22 12.5298C21.8041 14.477 20.534 16.166 18.911 17.263C18.0559 17.841 16.9347 17.8647 16.0653 17.3085C14.3531 16.213 13.1986 14.5041 13 12.5298C13 10.0445 15.0147 8.02979 17.5 8.02979ZM16.8737 16.0449C15.5224 15.1803 14.6699 13.8887 14.5009 12.4566C14.5397 10.8335 15.8676 9.52979 17.5 9.52979C19.132 9.52979 20.4597 10.833 20.4991 12.4556C20.3341 13.813 19.4127 15.1134 18.071 16.0203C17.7024 16.2694 17.2291 16.2723 16.8737 16.0449Z" fill="#363538"/>
</svg>
