<svg width="24" height="24" viewBox="0 0 24 24" fill="none" xmlns="http://www.w3.org/2000/svg">
<path fill-rule="evenodd" clip-rule="evenodd" d="M22 7V6C22 3.79086 20.2091 2 18 2H6C3.79086 2 2 3.79086 2 6V7C2 9.20914 3.79086 11 6 11L18 11C20.2091 11 22 9.20914 22 7ZM20.5 6V7C20.5 8.38071 19.3807 9.5 18 9.5L6 9.5C4.61929 9.5 3.5 8.38071 3.5 7V6C3.5 4.61929 4.61929 3.5 6 3.5L18 3.5C19.3807 3.5 20.5 4.61929 20.5 6Z" fill="#363538"/>
<path fill-rule="evenodd" clip-rule="evenodd" d="M22 18V17C22 14.7909 20.2091 13 18 13H6C3.79086 13 2 14.7909 2 17V18C2 20.2091 3.79086 22 6 22H18C20.2091 22 22 20.2091 22 18ZM20.5 17V18C20.5 19.3807 19.3807 20.5 18 20.5H6C4.61929 20.5 3.5 19.3807 3.5 18V17C3.5 15.6193 4.61929 14.5 6 14.5H18C19.3807 14.5 20.5 15.6193 20.5 17Z" fill="#363538"/>
</svg>
