<svg width="24" height="24" viewBox="0 0 24 24" fill="none" xmlns="http://www.w3.org/2000/svg">
<path fill-rule="evenodd" clip-rule="evenodd" d="M16.7731 3.69148C15.8944 2.8128 14.4698 2.8128 13.5911 3.69148L12.3536 4.92899L13.591 6.16639C13.8839 6.45928 13.8839 6.93416 13.591 7.22705C13.2981 7.51994 12.8232 7.51994 12.5303 7.22705L11.2929 5.98965L10.2321 7.05045L11.4694 8.28773C11.7623 8.58062 11.7623 9.05549 11.4694 9.34839C11.1765 9.64128 10.7016 9.64128 10.4087 9.34839L9.17147 8.11111L8.11091 9.17167L9.34831 10.4091C9.6412 10.702 9.6412 11.1768 9.34831 11.4697C9.05542 11.7626 8.58054 11.7626 8.28765 11.4697L7.05025 10.2323L5.9897 11.2929L7.22722 12.5304C7.52011 12.8233 7.52011 13.2982 7.22722 13.5911C6.93432 13.884 6.45945 13.884 6.16656 13.5911L4.92904 12.3535L3.6916 13.591C2.81292 14.4697 2.81292 15.8943 3.6916 16.773L7.22714 20.3085C8.10582 21.1872 9.53044 21.1872 10.4091 20.3085L20.3086 10.409C21.1873 9.53031 21.1873 8.10569 20.3086 7.22701L16.7731 3.69148ZM12.5304 2.63082C13.9949 1.16635 16.3693 1.16635 17.8337 2.63082L21.3693 6.16635C22.8337 7.63082 22.8337 10.0052 21.3693 11.4697L11.4698 21.3692C10.0053 22.8336 7.63094 22.8336 6.16648 21.3692L2.63094 17.8336C1.16648 16.3691 1.16648 13.9948 2.63094 12.5303L12.5304 2.63082Z" fill="#363538"/>
</svg>
