<svg width="24" height="24" viewBox="0 0 24 24" fill="none" xmlns="http://www.w3.org/2000/svg">
<path d="M9 6.25C8.58579 6.25 8.25 6.58579 8.25 7C8.25 7.41421 8.58579 7.75 9 7.75H15C15.4142 7.75 15.75 7.41421 15.75 7C15.75 6.58579 15.4142 6.25 15 6.25H9Z" fill="#363538"/>
<path fill-rule="evenodd" clip-rule="evenodd" d="M3.25 7C3.25 4.37665 5.37665 2.25 8 2.25H13.6659C14.9995 2.25 16.2716 2.81061 17.1715 3.79485L19.5056 6.3478C20.3061 7.22332 20.75 8.36667 20.75 9.55295V17C20.75 19.6234 18.6234 21.75 16 21.75H8C5.37665 21.75 3.25 19.6234 3.25 17V7ZM19.25 17C19.25 18.5368 18.1833 19.8245 16.75 20.163V18C16.75 16.4812 15.5188 15.25 14 15.25H10C8.48122 15.25 7.25 16.4812 7.25 18V20.163C5.81665 19.8245 4.75 18.5368 4.75 17V7C4.75 5.20507 6.20507 3.75 8 3.75H13.6659C14.5783 3.75 15.4488 4.13358 16.0645 4.807L18.3986 7.35995C18.9463 7.95899 19.25 8.74128 19.25 9.55295V17ZM8.75 18V20.25H15.25V18C15.25 17.3096 14.6904 16.75 14 16.75H10C9.30964 16.75 8.75 17.3096 8.75 18Z" fill="#363538"/>
</svg>
