<svg width="24" height="24" viewBox="0 0 24 24" fill="none" xmlns="http://www.w3.org/2000/svg">
<path d="M4.75 8C4.75 6.20507 6.20507 4.75 8 4.75H10C10.4142 4.75 10.75 4.41421 10.75 4C10.75 3.58579 10.4142 3.25 10 3.25H8C5.37665 3.25 3.25 5.37665 3.25 8V10C3.25 10.4142 3.58579 10.75 4 10.75C4.41421 10.75 4.75 10.4142 4.75 10V8Z" fill="#363538"/>
<path d="M3 12.25C2.58579 12.25 2.25 12.5858 2.25 13C2.25 13.4142 2.58579 13.75 3 13.75H21C21.4142 13.75 21.75 13.4142 21.75 13C21.75 12.5858 21.4142 12.25 21 12.25H3Z" fill="#363538"/>
<path d="M3.25 14.5V16C3.25 18.6234 5.37665 20.75 8 20.75H10C10.4142 20.75 10.75 20.4142 10.75 20C10.75 19.5858 10.4142 19.25 10 19.25H8C6.20507 19.25 4.75 17.7949 4.75 16V14.5H3.25Z" fill="#363538"/>
<path d="M19.25 14.5V16C19.25 17.7949 17.7949 19.25 16 19.25H14C13.5858 19.25 13.25 19.5858 13.25 20C13.25 20.4142 13.5858 20.75 14 20.75H16C18.6234 20.75 20.75 18.6234 20.75 16V14.5H19.25Z" fill="#363538"/>
<path d="M14 3.25C13.5858 3.25 13.25 3.58579 13.25 4C13.25 4.41421 13.5858 4.75 14 4.75H16C17.7949 4.75 19.25 6.20507 19.25 8V10C19.25 10.4142 19.5858 10.75 20 10.75C20.4142 10.75 20.75 10.4142 20.75 10V8C20.75 5.37665 18.6234 3.25 16 3.25H14Z" fill="#363538"/>
</svg>
