<svg width="24" height="24" viewBox="0 0 24 24" fill="none" xmlns="http://www.w3.org/2000/svg">
<path d="M4.2019 4.2019C3.94567 4.45813 3.75 4.94946 3.75 6C3.75 6.41421 3.41421 6.75 3 6.75C2.58579 6.75 2.25 6.41421 2.25 6C2.25 4.8414 2.44976 3.83273 3.14124 3.14124C3.83273 2.44976 4.8414 2.25 6 2.25C6.41421 2.25 6.75 2.58579 6.75 3C6.75 3.41421 6.41421 3.75 6 3.75C4.94946 3.75 4.45813 3.94567 4.2019 4.2019Z" fill="#363538"/>
<path d="M8.40001 10.4001C9.06275 10.4001 9.60001 9.86286 9.60001 9.20012C9.60001 8.53738 9.06275 8.00012 8.40001 8.00012C7.73727 8.00012 7.20001 8.53738 7.20001 9.20012C7.20001 9.86286 7.73727 10.4001 8.40001 10.4001Z" fill="#363538"/>
<path fill-rule="evenodd" clip-rule="evenodd" d="M5.59226 17.6296C5.50595 17.5737 5.43495 17.503 5.38042 17.4231C4.5348 16.6896 4 15.6073 4 14.4001V9.6001C4 7.39096 5.79086 5.6001 8 5.6001H16C18.2091 5.6001 20 7.39096 20 9.6001V14.4001C20 15.6074 19.4651 16.6898 18.6194 17.4232C18.5515 17.5229 18.4585 17.6075 18.3437 17.6667C18.3135 17.6823 18.2827 17.6956 18.2515 17.7068C17.6101 18.1443 16.8349 18.4001 16 18.4001H8C7.16518 18.4001 6.39009 18.1444 5.7488 17.7069C5.69491 17.6877 5.64238 17.662 5.59226 17.6296ZM16 7.1001H8C6.61929 7.1001 5.5 8.21939 5.5 9.6001V14.4001C5.5 14.9041 5.64917 15.3734 5.90577 15.766L7.2656 13.6666C8.07239 12.421 9.91993 12.4987 10.6194 13.8076C10.8037 14.1525 11.3105 14.1126 11.4386 13.743L12.2795 11.315C12.8294 9.72732 15.0134 9.57128 15.7834 11.0647L18.1561 15.6663C18.3746 15.2949 18.5 14.8622 18.5 14.4001V9.6001C18.5 8.21939 17.3807 7.1001 16 7.1001ZM16 16.9001C16.3547 16.9001 16.6922 16.8262 16.9978 16.693L14.4502 11.7521C14.2846 11.4311 13.8151 11.4646 13.6969 11.8059L12.856 14.2339C12.2997 15.8399 10.0975 16.0135 9.29641 14.5145C9.13544 14.2133 8.71024 14.1954 8.52457 14.4821L7.07325 16.7227C7.35984 16.8372 7.67257 16.9001 8 16.9001H16Z" fill="#363538"/>
<path d="M18 2.25C17.5858 2.25 17.25 2.58579 17.25 3C17.25 3.41421 17.5858 3.75 18 3.75C19.0505 3.75 19.5419 3.94567 19.7981 4.2019C20.0543 4.45813 20.25 4.94946 20.25 6C20.25 6.41421 20.5858 6.75 21 6.75C21.4142 6.75 21.75 6.41421 21.75 6C21.75 4.8414 21.5502 3.83273 20.8588 3.14124C20.1673 2.44976 19.1586 2.25 18 2.25Z" fill="#363538"/>
<path d="M21 17.25C21.4142 17.25 21.75 17.5858 21.75 18C21.75 19.1586 21.5502 20.1673 20.8588 20.8588C20.1673 21.5502 19.1586 21.75 18 21.75C17.5858 21.75 17.25 21.4142 17.25 21C17.25 20.5858 17.5858 20.25 18 20.25C19.0505 20.25 19.5419 20.0543 19.7981 19.7981C20.0543 19.5419 20.25 19.0505 20.25 18C20.25 17.5858 20.5858 17.25 21 17.25Z" fill="#363538"/>
<path d="M3.75 18C3.75 17.5858 3.41421 17.25 3 17.25C2.58579 17.25 2.25 17.5858 2.25 18C2.25 19.1586 2.44976 20.1673 3.14124 20.8588C3.83273 21.5502 4.8414 21.75 6 21.75C6.41421 21.75 6.75 21.4142 6.75 21C6.75 20.5858 6.41421 20.25 6 20.25C4.94946 20.25 4.45813 20.0543 4.2019 19.7981C3.94567 19.5419 3.75 19.0505 3.75 18Z" fill="#363538"/>
</svg>
