<svg width="24" height="24" viewBox="0 0 24 24" fill="none" xmlns="http://www.w3.org/2000/svg">
<path d="M11 3C15.4181 3.00026 19 6.58188 19 11C19 13.0714 18.2115 14.9581 16.9199 16.3789C16.9469 16.3972 16.9731 16.4172 16.998 16.4395L21.498 20.4395L21.5527 20.4932C21.81 20.7731 21.8185 21.2077 21.5605 21.498C21.3025 21.7883 20.8697 21.8311 20.5615 21.6084L20.502 21.5605L16.002 17.5605C15.9368 17.5026 15.8867 17.4345 15.8467 17.3623C14.5015 18.3887 12.8226 18.9999 11 19C9.89834 18.9999 8.84825 18.7763 7.89355 18.373C7.06315 18.0218 7.39983 17 8.30176 17C8.43113 17.0001 8.55885 17.027 8.67969 17.0732C9.40018 17.3488 10.1827 17.5 11 17.5C14.5896 17.4997 17.5 14.5897 17.5 11C17.5 7.41031 14.5896 4.50026 11 4.5C8.30732 4.50016 5.99798 6.13816 5.01172 8.47168C4.88084 8.78128 4.58711 9 4.25098 9C3.74467 8.99998 3.37376 8.5204 3.56055 8.0498C4.73476 5.09161 7.62371 3.00016 11 3Z" fill="#363538"/>
<path d="M3.5 15.25C3.78109 15.25 4.03851 15.4072 4.16699 15.6572L4.56543 16.4336L5.34277 16.833C5.59278 16.9615 5.75 17.2189 5.75 17.5C5.75 17.7811 5.59278 18.0385 5.34277 18.167L4.56543 18.5654L4.16699 19.3428C4.03851 19.5928 3.78109 19.75 3.5 19.75C3.21891 19.75 2.96149 19.5928 2.83301 19.3428L2.43359 18.5654L1.65723 18.167C1.40722 18.0385 1.25 17.7811 1.25 17.5C1.25 17.2189 1.40722 16.9615 1.65723 16.833L2.43359 16.4336L2.83301 15.6572L2.88672 15.5684C3.02589 15.3705 3.25387 15.25 3.5 15.25Z" fill="#363538"/>
<path fill-rule="evenodd" clip-rule="evenodd" d="M7 9.25C7.28109 9.25 7.53851 9.40722 7.66699 9.65723L8.23535 10.7637L9.34277 11.333C9.59278 11.4615 9.75 11.7189 9.75 12C9.75 12.2811 9.59278 12.5385 9.34277 12.667L8.23535 13.2354L7.66699 14.3428C7.53851 14.5928 7.28109 14.75 7 14.75C6.71891 14.75 6.46149 14.5928 6.33301 14.3428L5.76367 13.2354L4.65723 12.667C4.40722 12.5385 4.25 12.2811 4.25 12C4.25 11.7189 4.40722 11.4615 4.65723 11.333L5.76367 10.7637L6.33301 9.65723L6.38672 9.56836C6.52589 9.37054 6.75387 9.25 7 9.25ZM6.98828 11.6641C6.91671 11.8033 6.80332 11.9167 6.66406 11.9883L6.64062 12L6.66406 12.0117L6.76367 12.0732C6.85753 12.1418 6.93466 12.2316 6.98828 12.3359L7 12.3584L7.01172 12.3359C7.08329 12.1967 7.19668 12.0833 7.33594 12.0117L7.3584 12L7.33594 11.9883C7.19668 11.9167 7.08329 11.8033 7.01172 11.6641L7 11.6406L6.98828 11.6641Z" fill="#363538"/>
<path d="M3.00098 11.0371C3.00092 11.0247 3 11.0124 3 11C3 10.9873 3.00092 10.9746 3.00098 10.9619V11.0371Z" fill="#363538"/>
</svg>
