<svg width="24" height="24" viewBox="0 0 24 24" fill="none" xmlns="http://www.w3.org/2000/svg">
<path d="M11 17.5C14.5899 17.5 17.5 14.5899 17.5 11C17.5 7.41015 14.5899 4.5 11 4.5C8.30674 4.5 5.99606 6.13802 5.00984 8.47218C4.87917 8.78144 4.586 9 4.25027 9C3.74461 9 3.37447 8.52139 3.56093 8.05137C4.73479 5.09236 7.62305 3 11 3C15.4183 3 19 6.58172 19 11C19 13.0713 18.2128 14.9587 16.9214 16.3794C16.9479 16.3975 16.9736 16.4175 16.9983 16.4394L21.4983 20.4394C21.8079 20.7146 21.8357 21.1887 21.5606 21.4983C21.2854 21.8079 20.8113 21.8357 20.5017 21.5606L16.0017 17.5606C15.9373 17.5033 15.8851 17.4375 15.8453 17.3663C14.5006 18.3913 12.8214 19 11 19C9.89758 19 8.84724 18.777 7.89163 18.3737C7.06003 18.0227 7.39647 17 8.29911 17C8.42881 17 8.55687 17.0266 8.67801 17.073C9.39911 17.3489 10.1819 17.5 11 17.5Z" fill="#363538"/>
<path d="M3 11L3.00017 10.9474V11.0526L3 11Z" fill="#363538"/>
<path d="M4 11.25C3.58579 11.25 3.25 11.5858 3.25 12C3.25 12.4142 3.58579 12.75 4 12.75H8C8.41421 12.75 8.75 12.4142 8.75 12C8.75 11.5858 8.41421 11.25 8 11.25H4Z" fill="#363538"/>
<path d="M3.25 15C3.25 14.5858 3.58579 14.25 4 14.25H11C11.4142 14.25 11.75 14.5858 11.75 15C11.75 15.4142 11.4142 15.75 11 15.75H4C3.58579 15.75 3.25 15.4142 3.25 15Z" fill="#363538"/>
</svg>
