<svg width="24" height="24" viewBox="0 0 24 24" fill="none" xmlns="http://www.w3.org/2000/svg">
<path d="M2.25 5C2.25 4.58579 2.58579 4.25 3 4.25H21C21.4142 4.25 21.75 4.58579 21.75 5C21.75 5.41421 21.4142 5.75 21 5.75H3C2.58579 5.75 2.25 5.41421 2.25 5Z" fill="#363538"/>
<path d="M2.25 12C2.25 11.5858 2.58579 11.25 3 11.25H9C9.41421 11.25 9.75 11.5858 9.75 12C9.75 12.4142 9.41421 12.75 9 12.75H3C2.58579 12.75 2.25 12.4142 2.25 12Z" fill="#363538"/>
<path d="M3 18.25C2.58579 18.25 2.25 18.5858 2.25 19C2.25 19.4142 2.58579 19.75 3 19.75H10C10.4142 19.75 10.75 19.4142 10.75 19C10.75 18.5858 10.4142 18.25 10 18.25H3Z" fill="#363538"/>
<path fill-rule="evenodd" clip-rule="evenodd" d="M19.4496 16.1774C19.4662 16.1899 19.4824 16.2032 19.4983 16.2172L21.9983 18.4394C22.3079 18.7146 22.3357 19.1887 22.0606 19.4983C21.7854 19.8079 21.3113 19.8357 21.0017 19.5606L18.5017 17.3383C18.4464 17.2892 18.4001 17.2337 18.3629 17.1739C17.6669 17.6262 16.8364 17.8889 15.9444 17.8889C13.4898 17.8889 11.5 15.899 11.5 13.4444C11.5 10.9898 13.4898 9 15.9444 9C18.399 9 20.3889 10.9898 20.3889 13.4444C20.3889 14.475 20.0382 15.4236 19.4496 16.1774ZM18.8889 13.4444C18.8889 15.0706 17.5706 16.3889 15.9444 16.3889C14.3183 16.3889 13 15.0706 13 13.4444C13 11.8183 14.3183 10.5 15.9444 10.5C17.5706 10.5 18.8889 11.8183 18.8889 13.4444Z" fill="#363538"/>
</svg>
