<svg width="24" height="24" viewBox="0 0 24 24" fill="none" xmlns="http://www.w3.org/2000/svg">
<path fill-rule="evenodd" clip-rule="evenodd" d="M6.517 2.29497C3.62446 0.924821 0.587094 3.88972 1.88699 6.81449L3.8427 11.2148C4.06683 11.7191 4.06683 12.2948 3.8427 12.799L1.88699 17.1994C0.587094 20.1241 3.62446 23.089 6.517 21.7189L20.4372 15.1251C23.0682 13.8788 23.0682 10.135 20.4372 8.88873L6.517 2.29497ZM3.25771 6.20529C2.52293 4.55202 4.23984 2.87609 5.87487 3.65058L19.795 10.2443C21.2823 10.9488 21.2823 13.065 19.795 13.7695L5.87487 20.3633C4.23983 21.1378 2.52293 19.4618 3.25771 17.8086L5.21341 13.4082C5.30727 13.1971 5.37891 12.9788 5.42833 12.7568H11.7663C12.1805 12.7568 12.5163 12.4211 12.5163 12.0068C12.5163 11.5926 12.1805 11.2568 11.7663 11.2568H5.4283C5.37887 11.0349 5.30725 10.8167 5.21341 10.6056L3.25771 6.20529Z" fill="#363538"/>
</svg>
