<svg width="24" height="24" viewBox="0 0 24 24" fill="none" xmlns="http://www.w3.org/2000/svg">
<path fill-rule="evenodd" clip-rule="evenodd" d="M18.2659 2.51109C18.5181 1.82964 19.4819 1.82964 19.7341 2.51109L20.0831 3.45441C20.1624 3.66866 20.3313 3.83758 20.5456 3.91686L21.4889 4.26592C22.1703 4.51808 22.1703 5.48192 21.4889 5.73408L20.5456 6.08314C20.3313 6.16242 20.1624 6.33134 20.0831 6.54559L19.7341 7.48891C19.4819 8.17037 18.5181 8.17036 18.2659 7.48891L17.9168 6.54559C17.8376 6.33134 17.6686 6.16242 17.4544 6.08314L16.5111 5.73408C15.8296 5.48192 15.8296 4.51808 16.5111 4.26592L17.4544 3.91686C17.6686 3.83758 17.8376 3.66866 17.9168 3.45441L18.2659 2.51109ZM18.5643 5C18.7285 4.87513 18.8751 4.72853 19 4.56429C19.1249 4.72853 19.2715 4.87513 19.4357 5C19.2715 5.12487 19.1249 5.27147 19 5.43571C18.8751 5.27147 18.7285 5.12487 18.5643 5Z" fill="#363538"/>
<path fill-rule="evenodd" clip-rule="evenodd" d="M1.88681 7.11136C0.586911 4.18658 3.62428 1.22169 6.51682 2.59184L20.437 9.18559C23.068 10.4319 23.068 14.1757 20.437 15.422L6.51682 22.0158C3.62428 23.3859 0.586911 20.421 1.88681 17.4962L3.84251 13.0959C4.06664 12.5916 4.06664 12.016 3.84251 11.5117L1.88681 7.11136ZM5.87469 3.94744C4.23965 3.17295 2.52275 4.84889 3.25753 6.50215L5.21323 10.9025C5.30707 11.1136 5.3787 11.3318 5.42812 11.5538H11.7662C12.1804 11.5538 12.5162 11.8896 12.5162 12.3038C12.5162 12.718 12.1804 13.0538 11.7662 13.0538H5.42814C5.37872 13.2757 5.30708 13.494 5.21323 13.7051L3.25753 18.1054C2.52274 19.7587 4.23965 21.4346 5.87469 20.6602L19.7948 14.0664C21.2821 13.3619 21.2821 11.2457 19.7948 10.5412L5.87469 3.94744Z" fill="#363538"/>
</svg>
