<svg width="24" height="24" viewBox="0 0 24 24" fill="none" xmlns="http://www.w3.org/2000/svg">
<path fill-rule="evenodd" clip-rule="evenodd" d="M22.4952 5.90782C23.4744 3.16611 20.8271 0.518831 18.0854 1.49801L3.57985 6.67856C0.565679 7.75505 0.514432 11.9993 3.50173 13.1483L7.99612 14.8769C8.51119 15.075 8.91823 15.482 9.11633 15.9971L10.8449 20.4915C11.9939 23.4788 16.2381 23.4275 17.3146 20.4133L22.4952 5.90782ZM18.5899 2.91062C20.1397 2.35713 21.6361 3.85354 21.0826 5.40332L15.902 19.9088C15.2935 21.6126 12.8944 21.6416 12.245 19.953L10.5164 15.4586C10.4334 15.243 10.3298 15.038 10.2078 14.8462L14.6895 10.3645C14.9824 10.0716 14.9824 9.59669 14.6895 9.30379C14.3966 9.0109 13.9218 9.0109 13.6289 9.30379L9.14719 13.7855C8.95528 13.6635 8.75029 13.5598 8.53459 13.4768L4.0402 11.7482C2.3516 11.0988 2.38057 8.69967 4.08436 8.09117L18.5899 2.91062Z" fill="#363538"/>
</svg>
