<svg width="24" height="24" viewBox="0 0 24 24" fill="none" xmlns="http://www.w3.org/2000/svg">
<path fill-rule="evenodd" clip-rule="evenodd" d="M10 16.0001C11.1046 16.0001 12 15.1046 12 14.0001C12 12.8955 11.1046 12.0001 10 12.0001C8.89543 12.0001 8 12.8955 8 14.0001C8 15.1046 8.89543 16.0001 10 16.0001ZM10 17.5001C11.933 17.5001 13.5 15.9331 13.5 14.0001C13.5 12.0671 11.933 10.5001 10 10.5001C8.067 10.5001 6.5 12.0671 6.5 14.0001C6.5 15.9331 8.067 17.5001 10 17.5001Z" fill="#363538"/>
<path fill-rule="evenodd" clip-rule="evenodd" d="M6.72883 9.53788C7.63621 11.2486 6.43521 13.3288 4.5 13.3983V14.6019C6.43518 14.6714 7.63623 16.7517 6.72884 18.4624L7.77117 19.0642C8.79897 17.423 11.201 17.423 12.2288 19.0642L13.2712 18.4624C12.3638 16.7517 13.5648 14.6714 15.5 14.6019V13.3983C13.5648 13.3288 12.3638 11.2486 13.2712 9.53788L12.2288 8.93609C11.201 10.5773 8.79896 10.5772 7.77116 8.93609L6.72883 9.53788ZM5.38134 10.2004C4.99475 9.53077 5.22417 8.67454 5.89378 8.28794L7.10622 7.58794C7.77583 7.20135 8.63205 7.43077 9.01865 8.10038C9.45481 8.85582 10.5452 8.85583 10.9814 8.10039C11.368 7.43078 12.2242 7.20135 12.8938 7.58795L14.1062 8.28795C14.7758 8.67455 15.0053 9.53078 14.6187 10.2004C14.1825 10.9558 14.7277 11.9001 15.6 11.9001C16.3732 11.9001 17 12.5269 17 13.3001V14.7001C17 15.4733 16.3732 16.1001 15.6 16.1001C14.7277 16.1001 14.1825 17.0444 14.6187 17.7999C15.0053 18.4695 14.7758 19.3257 14.1062 19.7123L12.8938 20.4123C12.2242 20.7989 11.3679 20.5695 10.9813 19.8999C10.5452 19.1444 9.45481 19.1444 9.01866 19.8999C8.63206 20.5695 7.77583 20.7989 7.10622 20.4123L5.89379 19.7123C5.22418 19.3257 4.99475 18.4695 5.38135 17.7999C5.8175 17.0444 5.27231 16.1001 4.4 16.1001C3.6268 16.1001 3 15.4733 3 14.7001V13.3001C3 12.5269 3.6268 11.9001 4.4 11.9001C5.27231 11.9001 5.8175 10.9558 5.38134 10.2004Z" fill="#363538"/>
<path fill-rule="evenodd" clip-rule="evenodd" d="M12.4259 5.11174C11.858 4.9016 11.858 4.0984 12.4259 3.88826L13.212 3.59738C13.3905 3.53132 13.5313 3.39055 13.5974 3.21201L13.8883 2.42591C14.0984 1.85803 14.9016 1.85803 15.1117 2.42591L15.4026 3.21201C15.4687 3.39055 15.6095 3.53132 15.788 3.59738L16.5741 3.88826C17.142 4.0984 17.142 4.9016 16.5741 5.11174L15.788 5.40262C15.6095 5.46868 15.4687 5.60945 15.4026 5.78799L15.1117 6.57409C14.9016 7.14197 14.0984 7.14197 13.8883 6.57409L13.5974 5.78799C13.5313 5.60945 13.3905 5.46868 13.212 5.40262L12.4259 5.11174ZM18.5643 10C18.7285 9.87513 18.8751 9.72853 19 9.56429C19.1249 9.72853 19.2715 9.87513 19.4357 10C19.2715 10.1249 19.1249 10.2715 19 10.4357C18.8751 10.2715 18.7285 10.1249 18.5643 10ZM18.2659 7.51109C18.5181 6.82964 19.4819 6.82964 19.7341 7.51109L20.0831 8.45441C20.1624 8.66866 20.3313 8.83758 20.5456 8.91686L21.4889 9.26592C22.1704 9.51808 22.1704 10.4819 21.4889 10.7341L20.5456 11.0831C20.3313 11.1624 20.1624 11.3313 20.0831 11.5456L19.7341 12.4889C19.4819 13.1704 18.5181 13.1704 18.2659 12.4889L17.9169 11.5456C17.8376 11.3313 17.6687 11.1624 17.4544 11.0831L16.5111 10.7341C15.8296 10.4819 15.8296 9.51808 16.5111 9.26592L17.4544 8.91686C17.6687 8.83758 17.8376 8.66866 17.9169 8.45441L18.2659 7.51109Z" fill="#363538"/>
</svg>
