<svg width="24" height="24" viewBox="0 0 24 24" fill="none" xmlns="http://www.w3.org/2000/svg">
<path fill-rule="evenodd" clip-rule="evenodd" d="M17 12.0002C17 14.7617 14.7614 17.0002 12 17.0002C9.23858 17.0002 7 14.7617 7 12.0002C7 9.23882 9.23858 7.00024 12 7.00024C14.7614 7.00024 17 9.23882 17 12.0002ZM15.5 12.0002C15.5 13.9332 13.933 15.5002 12 15.5002C10.067 15.5002 8.5 13.9332 8.5 12.0002C8.5 10.0672 10.067 8.50024 12 8.50024C13.933 8.50024 15.5 10.0672 15.5 12.0002Z" fill="#363538"/>
<path fill-rule="evenodd" clip-rule="evenodd" d="M20 8.20144C20.1491 7.99006 20.2524 7.75624 20.3099 7.51377C20.4646 6.86098 20.2874 6.14549 19.7782 5.63627L18.364 4.22206C17.8548 3.71284 17.1393 3.53562 16.4865 3.69038C16.244 3.74787 16.0102 3.85116 15.7988 4.00024C15.7064 4.06543 15.6182 4.13937 15.5355 4.22206L15 4.7576V4.00024C15 3.88329 14.99 3.76867 14.9707 3.65722C14.9266 3.40233 14.8343 3.16397 14.7035 2.95187C14.3514 2.38085 13.7201 2.00024 13 2.00024H11C10.2799 2.00024 9.64863 2.38085 9.29647 2.95187C9.16566 3.16397 9.07336 3.40234 9.0293 3.65724C9.01004 3.76868 9 3.88329 9 4.00024V4.75759L8.46447 4.22206C8.38178 4.13937 8.29364 4.06543 8.20122 4.00024C7.98983 3.85115 7.756 3.74787 7.51353 3.69038C6.86074 3.53563 6.14526 3.71285 5.63604 4.22206L4.22183 5.63628C3.71262 6.14549 3.53539 6.86098 3.69015 7.51377C3.74764 7.75623 3.85092 7.99005 4 8.20143C4.06519 8.29386 4.13913 8.382 4.22183 8.4647L4.75737 9.00024H4C3.88305 9.00024 3.76844 9.01028 3.65699 9.02954C3.4021 9.0736 3.16373 9.1659 2.95164 9.2967C2.38061 9.64886 2 10.2801 2 11.0002V13.0002C2 13.7204 2.3806 14.3516 2.95163 14.7038C3.16373 14.8346 3.40211 14.9269 3.65701 14.9709C3.76845 14.9902 3.88305 15.0002 4 15.0002H4.75735L4.22183 15.5358C4.13913 15.6185 4.06519 15.7066 4 15.799C3.85092 16.0104 3.74763 16.2442 3.69015 16.4867C3.53539 17.1395 3.71262 17.855 4.22183 18.3642L5.63604 19.7784C6.14526 20.2876 6.86073 20.4648 7.51353 20.3101C7.75599 20.2526 7.98981 20.1493 8.20119 20.0002C8.29363 19.9351 8.38177 19.8611 8.46447 19.7784L9 19.2429V20.0002C9 20.1172 9.01004 20.2318 9.0293 20.3432C9.07335 20.5981 9.16566 20.8365 9.29646 21.0486C9.64862 21.6196 10.2799 22.0002 11 22.0002H13C13.7201 22.0002 14.3514 21.6196 14.7035 21.0486C14.8343 20.8365 14.9266 20.5981 14.9707 20.3433C14.99 20.2318 15 20.1172 15 20.0002V19.2429L15.5355 19.7784C15.6182 19.8611 15.7064 19.9351 15.7988 20.0002C16.0102 20.1493 16.244 20.2526 16.4865 20.3101C17.1393 20.4649 17.8548 20.2876 18.364 19.7784L19.7782 18.3642C20.2874 17.855 20.4646 17.1395 20.3099 16.4867C20.2524 16.2442 20.1491 16.0104 20 15.799C19.9348 15.7066 19.8609 15.6185 19.7782 15.5358L19.2427 15.0002H20C20.117 15.0002 20.2316 14.9902 20.343 14.9709C20.5979 14.9269 20.8363 14.8346 21.0484 14.7038C21.6194 14.3516 22 13.7204 22 13.0002V11.0002C22 10.2801 21.6194 9.64887 21.0484 9.29671C20.8363 9.16591 20.5979 9.0736 20.343 9.02955C20.2316 9.01028 20.117 9.00024 20 9.00024H19.2426L19.7782 8.4647C19.8609 8.382 19.9348 8.29387 20 8.20144ZM7.93934 5.81825C8.36834 6.24725 9.01351 6.37558 9.57403 6.14341C10.1345 5.91124 10.5 5.36429 10.5 4.75759V4.00024C10.5 3.7241 10.7239 3.50024 11 3.50024H13C13.2761 3.50024 13.5 3.7241 13.5 4.00024V4.7576C13.5 5.36429 13.8655 5.91125 14.426 6.14342C14.9865 6.37559 15.6317 6.24726 16.0607 5.81826L16.5962 5.28272C16.7915 5.08746 17.108 5.08746 17.3033 5.28272L18.7175 6.69693C18.9128 6.8922 18.9128 7.20878 18.7175 7.40404L18.182 7.93958C17.753 8.36858 17.6246 9.01376 17.8568 9.57427C18.089 10.1348 18.6359 10.5002 19.2426 10.5002H20C20.2761 10.5002 20.5 10.7241 20.5 11.0002V13.0002C20.5 13.2764 20.2761 13.5002 20 13.5002H19.2427C18.636 13.5002 18.089 13.8657 17.8568 14.4262C17.6247 14.9867 17.753 15.6319 18.182 16.0609L18.7175 16.5964C18.9128 16.7917 18.9128 17.1083 18.7175 17.3035L17.3033 18.7178C17.108 18.913 16.7915 18.913 16.5962 18.7178L16.0607 18.1822C15.6317 17.7532 14.9865 17.6249 14.426 17.8571C13.8655 18.0892 13.5 18.6362 13.5 19.2429V20.0002C13.5 20.2764 13.2761 20.5002 13 20.5002H11C10.7239 20.5002 10.5 20.2764 10.5 20.0002V19.2429C10.5 18.6362 10.1345 18.0892 9.57403 17.8571C9.01351 17.6249 8.36834 17.7532 7.93934 18.1822L7.40381 18.7177C7.20855 18.913 6.89197 18.913 6.69671 18.7177L5.28249 17.3035C5.08723 17.1083 5.08723 16.7917 5.28249 16.5964L5.81801 16.0609C6.24701 15.6319 6.37535 14.9867 6.14317 14.4262C5.911 13.8657 5.36405 13.5002 4.75735 13.5002H4C3.72386 13.5002 3.5 13.2764 3.5 13.0002V11.0002C3.5 10.7241 3.72386 10.5002 4 10.5002H4.75737C5.36406 10.5002 5.91102 10.1348 6.14319 9.57427C6.37536 9.01376 6.24703 8.36858 5.81803 7.93958L5.28249 7.40404C5.08723 7.20878 5.08723 6.8922 5.28249 6.69694L6.6967 5.28272C6.89197 5.08746 7.20855 5.08746 7.40381 5.28272L7.93934 5.81825Z" fill="#363538"/>
</svg>
