<svg width="24" height="24" viewBox="0 0 24 24" fill="none" xmlns="http://www.w3.org/2000/svg">
<path fill-rule="evenodd" clip-rule="evenodd" d="M17 12.0005C17 14.7619 14.7614 17.0005 12 17.0005C9.23858 17.0005 7 14.7619 7 12.0005C7 9.23906 9.23858 7.00049 12 7.00049C14.7614 7.00049 17 9.23906 17 12.0005ZM15.5 12.0005C15.5 13.9335 13.933 15.5005 12 15.5005C10.067 15.5005 8.5 13.9335 8.5 12.0005C8.5 10.0675 10.067 8.50049 12 8.50049C13.933 8.50049 15.5 10.0675 15.5 12.0005Z" fill="#363538"/>
<path fill-rule="evenodd" clip-rule="evenodd" d="M6.13397 3.8403C5.17739 4.39259 4.84964 5.61577 5.40192 6.57236C6.025 7.65156 5.24616 9.00057 4 9.00057C2.89543 9.00057 2 9.896 2 11.0006V13.0006C2 14.1051 2.89543 15.0006 4 15.0006C5.24615 15.0006 6.02501 16.3496 5.40193 17.4288C4.84965 18.3854 5.1774 19.6085 6.13398 20.1608L7.86603 21.1608C8.82262 21.7131 10.0458 21.3854 10.5981 20.4288C11.2212 19.3496 12.7788 19.3496 13.4019 20.4288C13.9542 21.3853 15.1774 21.7131 16.134 21.1608L17.866 20.1608C18.8226 19.6085 19.1504 18.3853 18.5981 17.4288C17.975 16.3496 18.7539 15.0006 20 15.0006C21.1046 15.0006 22 14.1051 22 13.0006V11.0006C22 9.896 21.1046 9.00057 20 9.00057C18.7538 9.00057 17.975 7.65156 18.5981 6.57236C19.1504 5.61578 18.8226 4.3926 17.866 3.84031L16.134 2.84031C15.1774 2.28803 13.9542 2.61578 13.4019 3.57236C12.7789 4.65157 11.2212 4.65156 10.5981 3.57236C10.0458 2.61577 8.82261 2.28802 7.86602 2.8403L6.13397 3.8403ZM6.70096 5.82236C6.56289 5.58321 6.64483 5.27741 6.88397 5.13934L8.61602 4.13934C8.85517 4.00127 9.16096 4.08321 9.29903 4.32235C10.4995 6.40155 13.5005 6.40158 14.701 4.32236C14.839 4.08322 15.1448 4.00128 15.384 4.13935L17.116 5.13935C17.3552 5.27742 17.4371 5.58322 17.299 5.82236C16.0986 7.90155 17.5991 10.5006 20 10.5006C20.2761 10.5006 20.5 10.7244 20.5 11.0006V13.0006C20.5 13.2767 20.2761 13.5006 20 13.5006C17.5992 13.5006 16.0986 16.0996 17.299 18.1788C17.4371 18.4179 17.3552 18.7237 17.116 18.8618L15.384 19.8618C15.1448 19.9998 14.839 19.9179 14.701 19.6788C13.5005 17.5996 10.4995 17.5996 9.29905 19.6788C9.16097 19.9179 8.85518 19.9999 8.61603 19.8618L6.88398 18.8618C6.64484 18.7237 6.5629 18.4179 6.70097 18.1788C7.9014 16.0996 6.40084 13.5006 4 13.5006C3.72386 13.5006 3.5 13.2767 3.5 13.0006V11.0006C3.5 10.7244 3.72386 10.5006 4 10.5006C6.40087 10.5006 7.90138 7.90155 6.70096 5.82236Z" fill="#363538"/>
</svg>
