<svg width="24" height="24" viewBox="0 0 24 24" fill="none" xmlns="http://www.w3.org/2000/svg">
<path fill-rule="evenodd" clip-rule="evenodd" d="M18 9C19.6569 9 21 7.65685 21 6C21 4.34315 19.6569 3 18 3C16.3431 3 15 4.34315 15 6C15 6.13506 15.0089 6.26803 15.0262 6.39837L8.16459 9.82918C8.14402 9.83946 8.12413 9.85057 8.10494 9.86243C7.56339 9.32909 6.82013 9 6 9C4.34315 9 3 10.3431 3 12C3 13.6569 4.34315 15 6 15C6.82013 15 7.56339 14.6709 8.10494 14.1376C8.12414 14.1494 8.14402 14.1605 8.16459 14.1708L15.0262 17.6016C15.0089 17.732 15 17.8649 15 18C15 19.6569 16.3431 21 18 21C19.6569 21 21 19.6569 21 18C21 16.3431 19.6569 15 18 15C17.0148 15 16.1405 15.4749 15.5936 16.2083L8.87778 12.8504C8.95731 12.5808 9 12.2954 9 12C9 11.7046 8.95731 11.4192 8.87778 11.1496L15.5936 7.79173C16.1405 8.5251 17.0148 9 18 9ZM18 7.5C18.8284 7.5 19.5 6.82843 19.5 6C19.5 5.17157 18.8284 4.5 18 4.5C17.1716 4.5 16.5 5.17157 16.5 6C16.5 6.82843 17.1716 7.5 18 7.5ZM6 13.5C6.82843 13.5 7.5 12.8284 7.5 12C7.5 11.1716 6.82843 10.5 6 10.5C5.17157 10.5 4.5 11.1716 4.5 12C4.5 12.8284 5.17157 13.5 6 13.5ZM18 19.5C18.8284 19.5 19.5 18.8284 19.5 18C19.5 17.1716 18.8284 16.5 18 16.5C17.1716 16.5 16.5 17.1716 16.5 18C16.5 18.8284 17.1716 19.5 18 19.5Z" fill="#363538"/>
</svg>
