<svg width="24" height="24" viewBox="0 0 24 24" fill="none" xmlns="http://www.w3.org/2000/svg">
<path fill-rule="evenodd" clip-rule="evenodd" d="M12.4389 2.96948C12.1559 2.86336 11.8441 2.86336 11.5611 2.96948L5.56109 5.21948C5.07315 5.40246 4.75 5.86875 4.75 6.38973L4.75 12.0039C4.75001 13.4603 5.79948 15.0504 7.29142 16.5313C8.7486 17.9776 10.4714 19.1672 11.499 19.8216C11.8244 20.0289 12.2207 20.0367 12.5488 19.845C13.5787 19.2434 15.287 18.1423 16.7284 16.7286C18.1913 15.2939 19.25 13.6642 19.25 12.0039V6.38974C19.25 5.86875 18.9269 5.40246 18.4389 5.21948L12.4389 2.96948ZM11.0344 1.56499C11.657 1.33153 12.343 1.33153 12.9656 1.56499L18.9656 3.81499C20.0389 4.21746 20.75 5.24335 20.75 6.38974V12.0039C20.75 14.283 19.3257 16.2823 17.7787 17.7995C16.2104 19.3377 14.3823 20.5112 13.3054 21.1402C12.4869 21.6183 11.4877 21.5928 10.6932 21.0868C9.62746 20.4081 7.80226 19.1517 6.23473 17.5959C4.70195 16.0745 3.25001 14.106 3.25 12.0039L3.25 6.38973C3.25 5.24334 3.96114 4.21747 5.03441 3.81499L11.0344 1.56499ZM11.9018 9.20637L10.2238 10.805L11.7162 11.343C12.2098 11.5209 12.4657 12.0653 12.2878 12.5589L12.0765 13.1449L13.7546 11.5463L12.2621 11.0083C11.7685 10.8303 11.5126 10.286 11.6905 9.7924L11.9018 9.20637ZM12.554 6.51327C13.2798 5.82181 14.443 6.58019 14.103 7.52326L13.2882 9.78367L15.1004 10.4369C15.7648 10.6764 15.9449 11.5314 15.4335 12.0185L11.4243 15.838C10.6985 16.5295 9.53538 15.7711 9.87533 14.828L10.6902 12.5676L8.87791 11.9143C8.21355 11.6748 8.03347 10.8199 8.54479 10.3328L12.554 6.51327Z" fill="#363538"/>
</svg>
