<svg width="24" height="24" viewBox="0 0 24 24" fill="none" xmlns="http://www.w3.org/2000/svg">
<path d="M12.75 9.66144C12.9056 9.48516 13 9.2536 13 8.99998C13 8.4477 12.5523 7.99998 12 7.99998C11.4477 7.99998 11 8.4477 11 8.99998C11 9.2536 11.0944 9.48516 11.25 9.66144V13C11.25 13.4142 11.5858 13.75 12 13.75C12.4142 13.75 12.75 13.4142 12.75 13V9.66144Z" fill="#363538"/>
<path fill-rule="evenodd" clip-rule="evenodd" d="M11.0344 1.56108C11.657 1.32762 12.343 1.32762 12.9656 1.56108L18.9656 3.81108C20.0389 4.21356 20.75 5.23944 20.75 6.38583V12C20.75 14.2791 19.3257 16.2784 17.7787 17.7956C16.2104 19.3337 14.3823 20.5073 13.3054 21.1363C12.4869 21.6144 11.4877 21.5889 10.6932 21.0829C9.62746 20.4041 7.80226 19.1478 6.23473 17.592C4.70195 16.0706 3.25001 14.1021 3.25 12L3.25 6.38582C3.25 5.23944 3.96114 4.21356 5.03441 3.81108L11.0344 1.56108ZM12.4389 2.96557C12.1559 2.85946 11.8441 2.85946 11.5611 2.96558L5.56109 5.21558C5.07315 5.39855 4.75 5.86484 4.75 6.38583L4.75 12C4.75001 13.4564 5.79948 15.0465 7.29142 16.5274C8.7486 17.9737 10.4714 19.1633 11.499 19.8177C11.8244 20.025 12.2207 20.0328 12.5488 19.8411C13.5787 19.2395 15.287 18.1384 16.7284 16.7247C18.1913 15.29 19.25 13.6603 19.25 12V6.38583C19.25 5.86484 18.9269 5.39855 18.4389 5.21558L12.4389 2.96557Z" fill="#363538"/>
</svg>
