<svg width="24" height="24" viewBox="0 0 24 24" fill="none" xmlns="http://www.w3.org/2000/svg">
<path fill-rule="evenodd" clip-rule="evenodd" d="M15.75 4V6.25H16C17.5912 6.25 18.75 7.65699 18.75 9.22222V11.4594L20.0635 11.8972C21.0438 12.224 21.8024 13.0955 21.8543 14.1956C21.8905 14.9649 21.8903 16.0063 21.7323 17.0405C21.5769 18.0575 21.2552 19.164 20.5766 19.9797C19.4933 21.2818 17.6082 21.7226 16.0341 21.8661C14.4105 22.0141 12.8665 21.8656 12.2192 21.7864C12.0717 21.7684 11.9284 21.7684 11.7809 21.7864C11.1336 21.8656 9.58959 22.0141 7.96602 21.8661C6.39194 21.7226 4.50683 21.2818 3.4235 19.9797C2.74488 19.164 2.42317 18.0575 2.2678 17.0405C2.10981 16.0063 2.1096 14.9649 2.14584 14.1956C2.19767 13.0955 2.95627 12.224 3.93663 11.8972L5.25001 11.4594V9.22222C5.25001 7.65699 6.40885 6.25 8.00001 6.25H8.25001V4C8.25001 3.0335 9.03351 2.25 10 2.25H14C14.9665 2.25 15.75 3.0335 15.75 4ZM9.75001 4C9.75001 3.86193 9.86194 3.75 10 3.75H14C14.1381 3.75 14.25 3.86193 14.25 4V6.25H9.75001V4ZM16 7.75C16.618 7.75 17.25 8.33285 17.25 9.22222V10.9594L12.8697 9.49931C12.3052 9.31114 11.6949 9.31114 11.1304 9.49931L6.75001 10.9594V9.22222C6.75001 8.33285 7.38203 7.75 8.00001 7.75H16ZM12.75 11.0406L17.7457 12.7058C17.7511 12.7077 17.7565 12.7096 17.7619 12.7114C17.7678 12.7134 17.7738 12.7153 17.7798 12.7172L19.5891 13.3203C20.0473 13.473 20.3364 13.8516 20.3559 14.2662C20.3897 14.9825 20.3868 15.9152 20.2495 16.814C20.1096 17.7299 19.8438 18.5152 19.4235 19.0203C18.7522 19.8271 17.4175 20.2338 15.8979 20.3723C14.6627 20.4849 13.4603 20.4075 12.75 20.3362V11.0406ZM11.25 11.0406L6.25323 12.7062C6.24271 12.7099 6.23207 12.7135 6.22133 12.7168L4.41097 13.3203C3.95283 13.473 3.66371 13.8516 3.64418 14.2662C3.61044 14.9825 3.61329 15.9152 3.7506 16.814C3.89052 17.7299 4.15632 18.5152 4.5766 19.0203C5.24787 19.8271 6.58256 20.2338 8.10218 20.3723C9.33736 20.4848 10.5397 20.4075 11.25 20.3362V11.0406Z" fill="#363538"/>
</svg>
