<svg width="24" height="24" viewBox="0 0 24 24" fill="none" xmlns="http://www.w3.org/2000/svg">
<path fill-rule="evenodd" clip-rule="evenodd" d="M13.1097 2.1746C12.3749 2.05215 11.625 2.05215 10.8903 2.1746L8.9379 2.5H7.60553C7.06261 2.5 6.53184 2.66071 6.0801 2.96186L4.32799 4.12994C3.677 4.56393 3.2417 5.25465 3.13105 6.02917L2.38623 11.2429C2.26673 12.0794 2.63819 12.9102 3.34127 13.3789C3.50106 13.4854 3.67159 13.569 3.84826 13.6294L4.33951 17.805C4.62094 20.1972 6.64831 22 9.05697 22H15.443C17.8516 22 19.879 20.1972 20.1604 17.805L20.6831 13.3624C21.3703 12.8909 21.7318 12.0697 21.6137 11.2429L20.8689 6.02917C20.7583 5.25465 20.3229 4.56393 19.672 4.12994L17.9198 2.96186C17.4681 2.66071 16.9373 2.5 16.3944 2.5H15.062L13.1097 2.1746ZM6.91215 4.20994C7.11748 4.07305 7.35874 4 7.60553 4H8.15039L7.30228 10.7849L4.90285 12.156C4.67454 12.2864 4.39212 12.2767 4.17332 12.1308C3.95087 11.9825 3.83335 11.7197 3.87116 11.455L4.61597 6.2413C4.66627 5.88925 4.86413 5.57528 5.16004 5.37801L6.91215 4.20994ZM5.64706 13.4583L8.02358 12.1003L8.98128 12.5792C10.8816 13.5293 13.1184 13.5293 15.0187 12.5792L15.9764 12.1003L18.3529 13.4583C18.5972 13.5979 18.861 13.6867 19.1301 13.7253L18.6707 17.6297C18.4782 19.2665 17.091 20.5 15.443 20.5H14.75V18.25C14.75 16.7312 13.5188 15.5 12 15.5C10.4812 15.5 9.24997 16.7312 9.24997 18.25V20.5H9.05697C7.40894 20.5 6.02179 19.2665 5.82923 17.6297L5.35489 13.5978C5.45467 13.559 5.55234 13.5125 5.64706 13.4583ZM19.0971 12.156L16.6977 10.7849L15.8496 4H16.3944C16.6412 4 16.8825 4.07305 17.0878 4.20994L18.8399 5.37801C19.1358 5.57528 19.3337 5.88925 19.384 6.2413L20.1288 11.455C20.1666 11.7197 20.0491 11.9825 19.8266 12.1308C19.6078 12.2767 19.3254 12.2864 19.0971 12.156ZM12.8631 3.6542L14.3251 3.89787L15.1899 10.8165L14.3478 11.2375C12.8698 11.9766 11.1301 11.9766 9.6521 11.2375L8.81 10.8165L9.67483 3.89787L11.1369 3.6542C11.7083 3.55895 12.2916 3.55895 12.8631 3.6542ZM12 17C12.6903 17 13.25 17.5596 13.25 18.25V20.5H10.75V18.25C10.75 17.5596 11.3096 17 12 17Z" fill="#363538"/>
</svg>
