<svg width="24" height="24" viewBox="0 0 24 24" fill="none" xmlns="http://www.w3.org/2000/svg">
<path fill-rule="evenodd" clip-rule="evenodd" d="M11.5303 4.53033C11.8232 4.23744 11.8232 3.76256 11.5303 3.46967C11.2374 3.17678 10.7626 3.17678 10.4697 3.46967L9.49933 4.44001C9.35779 4.31011 9.19077 4.22955 9.07808 4.18086C8.93799 4.12032 8.77853 4.06672 8.61469 4.01876C5.72326 3.17237 3.25 5.72106 3.25 8.46911V12.0001L3.25019 12.0171C2.65747 12.1276 2.27944 12.7544 2.49905 13.3473L2.86216 14.3277C3.02685 14.7724 3.11116 15.2428 3.11116 15.717V17C3.11116 19.2092 4.90202 21 7.11116 21H16.8889C19.0981 21 20.8889 19.2092 20.8889 17V15.717C20.8889 15.2428 20.9733 14.7724 21.1379 14.3277L21.501 13.3473C21.7429 12.6942 21.2598 12 20.5633 12H4.75V8.46911C4.75 6.44908 6.50865 4.96521 8.19328 5.45835C8.28187 5.48428 8.35384 5.50801 8.4104 5.52893L7.46967 6.46967C7.17678 6.76256 7.17678 7.23744 7.46967 7.53033C7.76256 7.82322 8.23744 7.82322 8.53033 7.53033L11.5303 4.53033ZM4.26878 13.8067C4.49523 14.4182 4.61116 15.065 4.61116 15.717V17C4.61116 18.3807 5.73045 19.5 7.11116 19.5H16.8889C18.2697 19.5 19.3889 18.3807 19.3889 17V15.717C19.3889 15.065 19.5049 14.4182 19.7313 13.8067L19.8449 13.5L4.15518 13.5L4.26878 13.8067Z" fill="#363538"/>
</svg>
