<svg width="24" height="24" viewBox="0 0 24 24" fill="none" xmlns="http://www.w3.org/2000/svg">
<path d="M17.6291 8.04825C17.3028 8.30341 17.2451 8.77477 17.5003 9.10106C17.7555 9.42735 18.2268 9.48502 18.5531 9.22986L20.7082 7.54461C20.872 7.41655 20.9752 7.22627 20.9933 7.01917C21.0115 6.81208 20.9428 6.60675 20.8038 6.4522L18.9741 4.41832C18.697 4.11038 18.2228 4.08532 17.9149 4.36235C17.6069 4.63938 17.5819 5.11359 17.8589 5.42153L18.6042 6.24997H17C15.085 6.24997 13.3887 7.18611 12.3436 8.62572C12.6964 9.07912 12.9796 9.5892 13.1775 10.14C13.8674 8.72494 15.3198 7.74997 17 7.74997H18.0105L17.6291 8.04825Z" fill="#363538"/>
<path d="M10.8225 13.86C11.0204 14.4107 11.3036 14.9208 11.6564 15.3742C10.6113 16.8138 8.91499 17.75 7 17.75H4C3.58579 17.75 3.25 17.4142 3.25 17C3.25 16.5858 3.58579 16.25 4 16.25H7C8.68017 16.25 10.1326 15.275 10.8225 13.86Z" fill="#363538"/>
<path d="M3.25 6.99997C3.25 6.58576 3.58579 6.24997 4 6.24997H7C10.1756 6.24997 12.75 8.82433 12.75 12C12.75 14.3472 14.6528 16.25 17 16.25H18.0105L17.6291 15.9517C17.3028 15.6965 17.2451 15.2252 17.5003 14.8989C17.7555 14.5726 18.2268 14.5149 18.5531 14.7701L20.7082 16.4553C20.872 16.5834 20.9752 16.7737 20.9933 16.9808C21.0115 17.1879 20.9428 17.3932 20.8038 17.5478L18.9741 19.5816C18.697 19.8896 18.2228 19.9146 17.9149 19.6376C17.6069 19.3606 17.5819 18.8864 17.8589 18.5784L18.6042 17.75H17C13.8244 17.75 11.25 15.1756 11.25 12C11.25 9.65276 9.34721 7.74997 7 7.74997H4C3.58579 7.74997 3.25 7.41419 3.25 6.99997Z" fill="#363538"/>
</svg>
