<svg width="24" height="24" viewBox="0 0 24 24" fill="none" xmlns="http://www.w3.org/2000/svg">
<path d="M7 2.25C4.37665 2.25 2.25 4.37665 2.25 7V17C2.25 19.6234 4.37665 21.75 7 21.75H9C11.0711 21.75 12.75 20.0711 12.75 18C12.75 17.5858 12.4142 17.25 12 17.25C11.5858 17.25 11.25 17.5858 11.25 18C11.25 19.2426 10.2426 20.25 9 20.25H7C5.20507 20.25 3.75 18.7949 3.75 17V7C3.75 5.20507 5.20507 3.75 7 3.75H9C10.2426 3.75 11.25 4.75736 11.25 6C11.25 6.41421 11.5858 6.75 12 6.75C12.4142 6.75 12.75 6.41421 12.75 6C12.75 3.92893 11.0711 2.25 9 2.25H7Z" fill="#363538"/>
<path d="M13.5303 9.46967C13.8232 9.76256 13.8232 10.2374 13.5303 10.5303L12.8107 11.25H21C21.4142 11.25 21.75 11.5858 21.75 12C21.75 12.4142 21.4142 12.75 21 12.75H12.8107L13.5303 13.4697C13.8232 13.7626 13.8232 14.2374 13.5303 14.5303C13.2374 14.8232 12.7626 14.8232 12.4697 14.5303L10.4697 12.5303C10.3978 12.4584 10.3435 12.3755 10.3069 12.2871C10.2711 12.2007 10.2509 12.1061 10.25 12.0069L10.25 12L10.25 11.9931C10.2518 11.8034 10.325 11.6144 10.4697 11.4697L12.4697 9.46967C12.7626 9.17678 13.2374 9.17678 13.5303 9.46967Z" fill="#363538"/>
</svg>
