<svg width="24" height="24" viewBox="0 0 24 24" fill="none" xmlns="http://www.w3.org/2000/svg">
<path fill-rule="evenodd" clip-rule="evenodd" d="M10 6.25C8.48122 6.25 7.25 7.48122 7.25 9V15C7.25 16.5188 8.48122 17.75 10 17.75H14C15.5188 17.75 16.75 16.5188 16.75 15V10.4949C16.75 9.8574 16.5285 9.23975 16.1235 8.74751L14.8935 7.25266C14.3711 6.61782 13.5921 6.25 12.7699 6.25H10ZM8.75 9C8.75 8.30964 9.30964 7.75 10 7.75H12.7699C13.1436 7.75 13.4977 7.91719 13.7352 8.20575L14.9652 9.70061C15.1493 9.92435 15.25 10.2051 15.25 10.4949V15C15.25 15.6904 14.6904 16.25 14 16.25H10C9.30964 16.25 8.75 15.6904 8.75 15V9Z" fill="#363538"/>
<path fill-rule="evenodd" clip-rule="evenodd" d="M8 2.25C5.37665 2.25 3.25 4.37665 3.25 7V17C3.25 19.6234 5.37665 21.75 8 21.75H16C18.6234 21.75 20.75 19.6234 20.75 17V9.55295C20.75 8.36667 20.3061 7.22332 19.5056 6.3478L17.1715 3.79485C16.2716 2.81061 14.9995 2.25 13.6659 2.25H8ZM4.75 7C4.75 5.20507 6.20507 3.75 8 3.75H13.6659C14.5783 3.75 15.4488 4.13358 16.0645 4.807L18.3986 7.35995C18.9463 7.95899 19.25 8.74128 19.25 9.55295V17C19.25 18.7949 17.7949 20.25 16 20.25H8C6.20507 20.25 4.75 18.7949 4.75 17V7Z" fill="#363538"/>
</svg>
