<svg width="24" height="24" viewBox="0 0 24 24" fill="none" xmlns="http://www.w3.org/2000/svg">
<path d="M12 13.7502C12.2841 13.7502 12.5439 13.9112 12.6709 14.1653L13.1709 15.1653L13.208 15.2542C13.2816 15.4657 13.2572 15.7013 13.1377 15.8948C13.001 16.1157 12.7598 16.2502 12.5 16.2502H11.5C11.2402 16.2502 10.999 16.1157 10.8623 15.8948C10.7257 15.6738 10.7131 15.3977 10.8291 15.1653L11.3291 14.1653L11.3828 14.0745C11.5215 13.8734 11.7513 13.7502 12 13.7502Z" fill="#363538"/>
<path d="M9.5 9.50024C10.3284 9.50024 11 10.1718 11 11.0002C11 11.8287 10.3284 12.5002 9.5 12.5002C8.67157 12.5002 8 11.8287 8 11.0002C8 10.1718 8.67157 9.50024 9.5 9.50024Z" fill="#363538"/>
<path d="M14.5 9.50024C15.3284 9.50024 16 10.1718 16 11.0002C16 11.8287 15.3284 12.5002 14.5 12.5002C13.6716 12.5002 13 11.8287 13 11.0002C13 10.1718 13.6716 9.50024 14.5 9.50024Z" fill="#363538"/>
<path fill-rule="evenodd" clip-rule="evenodd" d="M12 2.75024C16.2802 2.75024 19.75 6.22004 19.75 10.5002V13.0159C19.7498 14.8213 18.7824 16.4882 17.2148 17.384L16.25 17.9368V18.6018C16.25 20.0644 15.0642 21.2502 13.6016 21.2502H10.3984C8.9358 21.2502 7.75 20.0644 7.75 18.6018V17.9368L6.78516 17.384C5.21764 16.4882 4.25017 14.8213 4.25 13.0159V10.5002L4.25977 10.1018C4.46714 6.00676 7.85342 2.75024 12 2.75024ZM12 4.25024C8.65597 4.25024 5.92503 6.87648 5.75781 10.179L5.75 10.5002V13.0159C5.75017 14.2831 6.42902 15.4535 7.5293 16.0823L8.72363 16.7639L8.83887 16.8411C9.09576 17.0372 9.25 17.3437 9.25 17.6721V18.6018C9.25 19.0958 9.56237 19.5159 10 19.678V18.5002C10 18.086 10.3358 17.7502 10.75 17.7502C11.1642 17.7502 11.5 18.086 11.5 18.5002V19.7502H12.5V18.5002C12.5 18.086 12.8358 17.7502 13.25 17.7502C13.6642 17.7502 14 18.086 14 18.5002V19.678C14.4376 19.5159 14.75 19.0958 14.75 18.6018V17.6721C14.75 17.297 14.9508 16.9501 15.2764 16.7639L16.4707 16.0823C17.571 15.4535 18.2498 14.2831 18.25 13.0159V10.5002C18.25 7.04846 15.4518 4.25024 12 4.25024Z" fill="#363538"/>
</svg>
