<svg width="24" height="24" viewBox="0 0 24 24" fill="none" xmlns="http://www.w3.org/2000/svg">
<path fill-rule="evenodd" clip-rule="evenodd" d="M7.73454 4.89088C7.73454 5.9316 8.5847 6.78177 9.62542 6.78177H11.5163V4.89088C11.5163 3.85016 10.6661 3 9.62542 3C8.5847 3 7.73454 3.85016 7.73454 4.89088ZM9.23454 4.89088C9.23454 5.10317 9.41313 5.28177 9.62542 5.28177H10.0163V4.89088C10.0163 4.67859 9.83771 4.5 9.62542 4.5C9.41313 4.5 9.23454 4.67859 9.23454 4.89088Z" fill="#363538"/>
<path fill-rule="evenodd" clip-rule="evenodd" d="M6.78177 14.3744C6.78177 15.4151 5.9316 16.2653 4.89088 16.2653C3.85016 16.2653 3 15.4151 3 14.3744C3 13.3337 3.85016 12.4835 4.89088 12.4835H6.78177V14.3744ZM5.28177 14.3744C5.28177 14.5867 5.10317 14.7653 4.89088 14.7653C4.67859 14.7653 4.5 14.5867 4.5 14.3744C4.5 14.1621 4.67859 13.9835 4.89088 13.9835H5.28177V14.3744Z" fill="#363538"/>
<path fill-rule="evenodd" clip-rule="evenodd" d="M7.73454 14.3746C7.73454 13.3338 8.5847 12.4837 9.62542 12.4837C10.6661 12.4837 11.5163 13.3338 11.5163 14.3746V19.1091C11.5163 20.1498 10.6661 21 9.62542 21C8.5847 21 7.73454 20.1498 7.73454 19.1091V14.3746ZM9.23454 14.3746C9.23454 14.1623 9.41313 13.9837 9.62542 13.9837C9.83771 13.9837 10.0163 14.1623 10.0163 14.3746V19.1091C10.0163 19.3214 9.83771 19.5 9.62542 19.5C9.41313 19.5 9.23454 19.3214 9.23454 19.1091V14.3746Z" fill="#363538"/>
<path fill-rule="evenodd" clip-rule="evenodd" d="M9.62542 7.73454C10.6661 7.73454 11.5163 8.5847 11.5163 9.62542C11.5163 10.6661 10.6661 11.5163 9.62542 11.5163H4.89088C3.85016 11.5163 3 10.6661 3 9.62542C3 8.5847 3.85016 7.73454 4.89088 7.73454H9.62542ZM9.62542 9.23454C9.83771 9.23454 10.0163 9.41313 10.0163 9.62542C10.0163 9.83771 9.83771 10.0163 9.62542 10.0163H4.89088C4.67859 10.0163 4.5 9.83771 4.5 9.62542C4.5 9.41313 4.67859 9.23454 4.89088 9.23454H9.62542Z" fill="#363538"/>
<path fill-rule="evenodd" clip-rule="evenodd" d="M19.1091 7.73454C18.0684 7.73454 17.2182 8.5847 17.2182 9.62542V11.5163H19.1091C20.1498 11.5163 21 10.6661 21 9.62542C21 8.5847 20.1498 7.73454 19.1091 7.73454ZM19.1091 9.23454C18.8968 9.23454 18.7182 9.41313 18.7182 9.62542V10.0163H19.1091C19.3214 10.0163 19.5 9.83771 19.5 9.62542C19.5 9.41313 19.3214 9.23454 19.1091 9.23454Z" fill="#363538"/>
<path fill-rule="evenodd" clip-rule="evenodd" d="M16.2656 9.62542C16.2656 10.6661 15.4154 11.5163 14.3747 11.5163C13.334 11.5163 12.4838 10.6661 12.4838 9.62542V4.89088C12.4838 3.85016 13.334 3 14.3747 3C15.4154 3 16.2656 3.85016 16.2656 4.89088V9.62542ZM14.7656 9.62542C14.7656 9.83771 14.587 10.0163 14.3747 10.0163C14.1624 10.0163 13.9838 9.83771 13.9838 9.62542V4.89088C13.9838 4.67859 14.1624 4.5 14.3747 4.5C14.587 4.5 14.7656 4.67859 14.7656 4.89088V9.62542Z" fill="#363538"/>
<path fill-rule="evenodd" clip-rule="evenodd" d="M16.2655 19.1091C16.2655 18.0684 15.4153 17.2182 14.3746 17.2182H12.4837V19.1091C12.4837 20.1498 13.3339 21 14.3746 21C15.4153 21 16.2655 20.1498 16.2655 19.1091ZM14.7655 19.1091C14.7655 18.8968 14.5869 18.7182 14.3746 18.7182H13.9837V19.1091C13.9837 19.3214 14.1623 19.5 14.3746 19.5C14.5869 19.5 14.7655 19.3214 14.7655 19.1091Z" fill="#363538"/>
<path fill-rule="evenodd" clip-rule="evenodd" d="M14.3747 16.2653C13.334 16.2653 12.4838 15.4151 12.4838 14.3744C12.4838 13.3337 13.334 12.4835 14.3747 12.4835H19.1092C20.1499 12.4835 21.0001 13.3337 21.0001 14.3744C21.0001 15.4151 20.1499 16.2653 19.1092 16.2653H14.3747ZM14.3747 14.7653C14.1624 14.7653 13.9838 14.5867 13.9838 14.3744C13.9838 14.1621 14.1624 13.9835 14.3747 13.9835H19.1092C19.3215 13.9835 19.5001 14.1621 19.5001 14.3744C19.5001 14.5867 19.3215 14.7653 19.1092 14.7653H14.3747Z" fill="#363538"/>
</svg>
