<svg width="24" height="24" viewBox="0 0 24 24" fill="none" xmlns="http://www.w3.org/2000/svg">
<path fill-rule="evenodd" clip-rule="evenodd" d="M12.1922 8.65653C10.603 7.58539 8.5 8.74762 8.5 10.6436V14.3566C8.5 16.2526 10.603 17.4149 12.1922 16.3437L14.9465 14.4872C16.3512 13.5405 16.3512 11.4598 14.9465 10.513L12.1922 8.65653ZM10 10.6436C10 9.91873 10.7861 9.51768 11.3538 9.90036L14.1082 11.7568C14.6306 12.109 14.6306 12.8913 14.1082 13.2434L11.3538 15.0999C10.7861 15.4826 10 15.0815 10 14.3566V10.6436Z" fill="#363538"/>
<path fill-rule="evenodd" clip-rule="evenodd" d="M6.50014 2C4.01478 2 2 4.01478 2 6.50015V14.7611C2 17.3844 4.12665 19.5111 6.75 19.5111H11.25V20.5002H9C8.58579 20.5002 8.25 20.836 8.25 21.2502C8.25 21.6645 8.58579 22.0002 9 22.0002H15C15.4142 22.0002 15.75 21.6645 15.75 21.2502C15.75 20.836 15.4142 20.5002 15 20.5002H12.75V19.5111H17.25C19.8734 19.5111 22 17.3844 22 14.7611V6.50015C22 4.01478 19.9852 2 17.4999 2H6.50014ZM20.4055 5.75015H3.59451C3.92754 4.45614 5.10218 3.5 6.50014 3.5H17.4999C18.8978 3.5 20.0725 4.45614 20.4055 5.75015ZM3.5 7.25015H20.5V14.7611C20.5 16.556 19.0449 18.0111 17.25 18.0111H6.75C4.95507 18.0111 3.5 16.556 3.5 14.7611V7.25015Z" fill="#363538"/>
</svg>
