<svg width="24" height="24" viewBox="0 0 24 24" fill="none" xmlns="http://www.w3.org/2000/svg">
<path d="M11.9844 8.75C11.134 8.75 10.376 9.14315 9.88106 9.76053C9.62198 10.0837 9.14996 10.1357 8.82677 9.87661C8.50358 9.61754 8.45161 9.14551 8.71069 8.82232C9.47804 7.86509 10.6596 7.25 11.9844 7.25C13.9438 7.25 15.5894 8.59381 16.0498 10.4101C16.3112 10.3224 16.6113 10.3826 16.8194 10.5908C17.1123 10.8837 17.1123 11.3585 16.8194 11.6514L15.9585 12.5124C15.8178 12.653 15.6271 12.732 15.4281 12.732C15.2292 12.732 15.0385 12.653 14.8978 12.5124L14.0369 11.6514C13.744 11.3585 13.744 10.8837 14.0369 10.5908C14.1558 10.4718 14.3048 10.4011 14.4595 10.3788C14.0467 9.42073 13.0938 8.75 11.9844 8.75Z" fill="#363538"/>
<path d="M8.57091 10.1559C8.76982 10.1559 8.96059 10.2349 9.10124 10.3756L9.96219 11.2365C10.2551 11.5294 10.2551 12.0043 9.96219 12.2972C9.84324 12.4162 9.69426 12.4868 9.53965 12.5091C9.95251 13.4671 10.9053 14.1377 12.0146 14.1377C12.865 14.1377 13.623 13.7446 14.1179 13.1272C14.377 12.804 14.849 12.752 15.1722 13.0111C15.4954 13.2702 15.5474 13.7422 15.2883 14.0654C14.521 15.0226 13.3394 15.6377 12.0146 15.6377C10.0553 15.6377 8.40975 14.294 7.94926 12.4778C7.6879 12.5656 7.3878 12.5054 7.17963 12.2972C6.88674 12.0043 6.88674 11.5294 7.17963 11.2365L8.04058 10.3756C8.18123 10.2349 8.372 10.1559 8.57091 10.1559Z" fill="#363538"/>
<path d="M12 20C12.5523 20 13 19.5523 13 19C13 18.4477 12.5523 18 12 18C11.4477 18 11 18.4477 11 19C11 19.5523 11.4477 20 12 20Z" fill="#363538"/>
<path fill-rule="evenodd" clip-rule="evenodd" d="M8 2C5.79086 2 4 3.79086 4 6V18C4 20.2091 5.79086 22 8 22H16C18.2091 22 20 20.2091 20 18V6C20 3.79086 18.2091 2 16 2H8ZM8 3.5C6.61929 3.5 5.5 4.61929 5.5 6V18C5.5 19.3807 6.61929 20.5 8 20.5H16C17.3807 20.5 18.5 19.3807 18.5 18V6C18.5 4.61929 17.3807 3.5 16 3.5H8Z" fill="#363538"/>
</svg>
