<svg width="24" height="24" viewBox="0 0 24 24" fill="none" xmlns="http://www.w3.org/2000/svg">
<path d="M13 19C13 19.5523 12.5523 20 12 20C11.4477 20 11 19.5523 11 19C11 18.4477 11.4477 18 12 18C12.5523 18 13 18.4477 13 19Z" fill="#363538"/>
<path d="M5.5 6C5.5 4.61929 6.61929 3.5 8 3.5H16C17.3807 3.5 18.5 4.61929 18.5 6V9.25C18.5 9.66421 18.8358 10 19.25 10C19.6642 10 20 9.66421 20 9.25V6C20 3.79086 18.2091 2 16 2H8C5.79086 2 4 3.79086 4 6V18C4 20.2091 5.79086 22 8 22H14.25C14.6642 22 15 21.6642 15 21.25C15 20.8358 14.6642 20.5 14.25 20.5H8C6.61929 20.5 5.5 19.3807 5.5 18V6Z" fill="#363538"/>
<path fill-rule="evenodd" clip-rule="evenodd" d="M15.0001 11C15.4143 11 15.7501 11.3358 15.7501 11.75V13.4H17.2499V11.75C17.2499 11.3358 17.5857 11 17.9999 11C18.4141 11 18.7499 11.3358 18.7499 11.75V13.4H19.6296C19.8342 13.4 20 13.5658 20 13.7704V14.9C20 16.5181 18.902 17.8797 17.4105 18.2804C17.4407 18.3714 17.4686 18.4677 17.4923 18.568C17.5764 18.9231 17.6235 19.3962 17.4579 19.8694C17.2929 20.3407 17.25 20.8717 17.25 21.0502C17.25 21.4644 16.9142 21.8002 16.5 21.8002C16.0858 21.8002 15.75 21.4644 15.75 21.0502C15.75 20.7525 15.8071 20.0453 16.0421 19.3738C16.0765 19.2755 16.082 19.1217 16.0327 18.9133C15.985 18.7121 15.901 18.5227 15.836 18.3988C15.8242 18.3765 15.8137 18.3538 15.8045 18.3309C14.2047 18.0084 13 16.5949 13 14.9V13.7704C13 13.5658 13.1658 13.4 13.3704 13.4H14.2501V11.75C14.2501 11.3358 14.5859 11 15.0001 11ZM16.5 16.9C15.3954 16.9 14.5 16.0046 14.5 14.9H18.5C18.5 16.0046 17.6046 16.9 16.5 16.9Z" fill="#363538"/>
</svg>
