<svg width="24" height="24" viewBox="0 0 24 24" fill="none" xmlns="http://www.w3.org/2000/svg">
<path fill-rule="evenodd" clip-rule="evenodd" d="M6 3.5C4.61929 3.5 3.5 4.61929 3.5 6V18C3.5 19.3807 4.61929 20.5 6 20.5H14C15.3807 20.5 16.5 19.3807 16.5 18V6C16.5 4.61929 15.3807 3.5 14 3.5H6ZM6 2C3.79086 2 2 3.79086 2 6V18C2 20.2091 3.79086 22 6 22H14C16.2091 22 18 20.2091 18 18V6C18 3.79086 16.2091 2 14 2H6Z" fill="#363538"/>
<path d="M11 19C11 19.5523 10.5523 20 10 20C9.44772 20 9 19.5523 9 19C9 18.4477 9.44772 18 10 18C10.5523 18 11 18.4477 11 19Z" fill="#363538"/>
<path fill-rule="evenodd" clip-rule="evenodd" d="M22.2115 14.7628C22.3425 15.1558 22.1301 15.5805 21.7372 15.7115L20.2372 16.2115C19.8568 16.3383 19.4439 16.1435 19.3 15.7692L18.8 14.4692C18.6513 14.0826 18.8442 13.6487 19.2308 13.5C19.5116 13.392 19.8174 13.4642 20.0208 13.66C20.1534 13.2317 20.25 12.7476 20.25 12.25C20.25 11.5105 20.0367 10.8011 19.8088 10.2598C19.6963 9.99272 19.5841 9.77555 19.5014 9.62724C19.4601 9.5533 19.4265 9.49706 19.4042 9.46094C19.3931 9.4429 19.3849 9.42993 19.38 9.42233L19.3753 9.41502C19.1458 9.0704 19.2394 8.60566 19.584 8.37596C19.9286 8.1462 20.3943 8.23933 20.624 8.58397L20 9C20.624 8.58397 20.624 8.58397 20.624 8.58397L20.6251 8.58557L20.6265 8.58772L20.6305 8.5937L20.6424 8.61222C20.6522 8.62744 20.6655 8.64841 20.6817 8.6748C20.7142 8.72754 20.7587 8.80217 20.8111 8.89619C20.9159 9.08383 21.0537 9.35103 21.1912 9.67771C21.4633 10.3239 21.75 11.2395 21.75 12.25C21.75 12.9931 21.595 13.6849 21.4047 14.2559C21.7532 14.2109 22.0962 14.4169 22.2115 14.7628ZM19.3753 9.41502V9.41502Z" fill="#363538"/>
</svg>
