<svg width="24" height="24" viewBox="0 0 24 24" fill="none" xmlns="http://www.w3.org/2000/svg">
<path fill-rule="evenodd" clip-rule="evenodd" d="M20.5 9.99996C20.5 8.61925 19.3807 7.49996 18 7.49996L6 7.49996C4.61929 7.49996 3.5 8.61925 3.5 9.99996L3.5 18C3.5 19.3807 4.61929 20.5 6 20.5L18 20.5C19.3807 20.5 20.5 19.3807 20.5 18V9.99996ZM22 9.99996C22 7.79082 20.2091 5.99996 18 5.99996L6 5.99996C3.79086 5.99996 2 7.79082 2 9.99996L2 18C2 20.2091 3.79086 22 6 22L18 22C20.2091 22 22 20.2091 22 18V9.99996Z" fill="#363538"/>
<path d="M5 15C4.44772 15 4 14.5522 4 14C4 13.4477 4.44772 13 5 13C5.55229 13 6 13.4477 6 14C6 14.5522 5.55229 15 5 15Z" fill="#363538"/>
<path fill-rule="evenodd" clip-rule="evenodd" d="M9.23717 1.78845C8.84421 1.65746 8.41947 1.86983 8.28849 2.26279L7.78849 3.76279C7.66169 4.14318 7.85652 4.55603 8.23077 4.69997L9.53077 5.19997C9.91737 5.34866 10.3513 5.1558 10.5 4.76919C10.608 4.48835 10.5358 4.18252 10.34 3.97921C10.7683 3.84656 11.2524 3.74996 11.75 3.74996C12.4895 3.74996 13.1989 3.96325 13.7402 4.19119C14.0073 4.30364 14.2245 4.41583 14.3728 4.49861C14.4467 4.53988 14.5029 4.57351 14.5391 4.59573C14.5571 4.60684 14.5701 4.61506 14.5777 4.61994L14.585 4.62467C14.9296 4.85417 15.3943 4.76053 15.624 4.41598C15.8538 4.07134 15.7607 3.60569 15.416 3.37592L15 3.99996C15.416 3.37592 15.416 3.37592 15.416 3.37592L15.4144 3.37486L15.4123 3.37344L15.4063 3.36951L15.3878 3.35752C15.3726 3.34774 15.3516 3.33449 15.3252 3.31825C15.2725 3.28579 15.1978 3.24129 15.1038 3.18881C14.9162 3.08409 14.649 2.94628 14.3223 2.80873C13.6761 2.53667 12.7605 2.24996 11.75 2.24996C11.0069 2.24996 10.3151 2.405 9.74407 2.59525C9.78909 2.24672 9.5831 1.90376 9.23717 1.78845ZM14.585 4.62467V4.62467Z" fill="#363538"/>
</svg>
