<svg width="24" height="24" viewBox="0 0 24 24" fill="none" xmlns="http://www.w3.org/2000/svg">
<path fill-rule="evenodd" clip-rule="evenodd" d="M12.005 21.2489C12.0312 21.2497 12.0562 21.25 12.08 21.25C12.1306 21.25 12.18 21.245 12.2278 21.2354C12.9254 21.1725 14.1037 20.8869 14.9603 20.0303C15.2033 19.7873 15.6925 19.5747 16.3311 19.4319C16.9409 19.2956 17.5603 19.25 17.93 19.25C18.3442 19.25 18.68 18.9142 18.68 18.5C18.68 18.5026 18.68 18.5041 18.6803 18.5041C18.6805 18.5042 18.6811 18.5029 18.6821 18.5005C18.6922 18.4777 18.749 18.3489 19.0706 18.1528C19.4048 17.9489 19.829 17.7983 20.1119 17.7276C20.4106 17.6529 20.6333 17.4033 20.6736 17.098C20.7138 16.7928 20.5634 16.4939 20.2942 16.3444C19.5994 15.9584 18.785 15.3762 18.0925 14.6645C17.5429 14.0996 17.0962 13.4801 16.8306 12.8383C17.0042 12.7469 17.1814 12.6632 17.3613 12.582C17.4437 12.5447 17.5302 12.5066 17.6186 12.4676C17.8824 12.3513 18.1634 12.2274 18.4039 12.0981C18.7336 11.9208 19.0951 11.6805 19.3519 11.31C19.6255 10.9153 19.7287 10.4496 19.6763 9.92537C19.6149 9.31186 19.257 8.6401 18.4657 8.37297C18.03 8.22587 17.5285 8.22588 16.9686 8.36258C17.0135 7.45496 16.9057 6.67325 16.6788 6.00197C16.3501 5.02995 15.7863 4.33363 15.1594 3.84568C13.9365 2.89368 12.4996 2.75 12.08 2.75C12.0547 2.75 12.0297 2.75125 12.005 2.7537C11.9803 2.75125 11.9553 2.75 11.93 2.75C11.5104 2.75 10.0735 2.89368 8.85054 3.84568C8.22371 4.33363 7.65985 5.02995 7.33121 6.00197C7.10426 6.67325 6.99648 7.45496 7.0414 8.36258C6.48144 8.22588 5.97997 8.22587 5.54424 8.37297C4.75292 8.6401 4.39505 9.31186 4.3337 9.92537C4.28128 10.4496 4.38446 10.9153 4.6581 11.31C4.91488 11.6805 5.27636 11.9208 5.60608 12.0981C5.84653 12.2274 6.12734 12.3512 6.39121 12.4676C6.47962 12.5066 6.56619 12.5447 6.64864 12.582C6.82854 12.6632 7.00575 12.7469 7.1794 12.8383C6.9138 13.4801 6.46703 14.0996 5.91744 14.6645C5.22498 15.3762 4.41058 15.9584 3.71575 16.3444C3.44659 16.4939 3.29617 16.7928 3.33641 17.098C3.37665 17.4033 3.59937 17.6529 3.89808 17.7276C4.18101 17.7983 4.60513 17.9489 4.93941 18.1528C5.26094 18.3489 5.31778 18.4777 5.32782 18.5005C5.32891 18.5029 5.32944 18.5042 5.32971 18.5041C5.32998 18.5041 5.32998 18.5027 5.32998 18.5001C5.32998 18.9143 5.66577 19.25 6.07998 19.25C6.4497 19.25 7.06909 19.2956 7.67882 19.4319C8.3175 19.5747 8.80666 19.7873 9.04965 20.0303C9.90622 20.8869 11.0845 21.1725 11.7822 21.2354C11.83 21.245 11.8794 21.25 11.93 21.25C11.9537 21.25 11.9788 21.2497 12.005 21.2489ZM8.66789 9.36584C8.43524 8.08625 8.52426 7.15659 8.7522 6.4824C8.97825 5.8138 9.35502 5.35387 9.77194 5.02932C10.6365 4.35632 11.6996 4.25 11.93 4.25C11.9553 4.25 11.9803 4.24875 12.005 4.2463C12.0296 4.24875 12.0547 4.25 12.08 4.25C12.3104 4.25 13.3735 4.35632 14.238 5.02932C14.655 5.35387 15.0317 5.8138 15.2578 6.4824C15.4857 7.15659 15.5747 8.08625 15.3421 9.36584C15.2913 9.64533 15.4027 9.92955 15.63 10.1C15.8572 10.2704 16.1613 10.2979 16.4154 10.1708C17.3454 9.7058 17.813 9.7358 17.986 9.79417C18.1002 9.83274 18.1673 9.91098 18.1837 10.0746C18.2063 10.3004 18.1595 10.3972 18.119 10.4556C18.0618 10.5382 17.9451 10.6417 17.6936 10.7769C17.5086 10.8764 17.3079 10.9649 17.0644 11.0723C16.9653 11.1161 16.8591 11.1629 16.744 11.2149C16.3682 11.3846 15.94 11.5919 15.514 11.876C15.2502 12.0518 15.1255 12.3744 15.2024 12.6819C15.4958 13.8557 16.2143 14.8851 17.0174 15.7105C17.4312 16.1358 17.8787 16.5185 18.3249 16.8508L18.2894 16.8722C17.9939 17.0525 17.5981 17.3478 17.3679 17.7715C16.9638 17.8003 16.4841 17.8607 16.0038 17.9681C15.3008 18.1253 14.4567 18.4127 13.8997 18.9697C13.3304 19.539 12.437 19.728 12.005 19.7481C11.573 19.728 10.6796 19.539 10.1103 18.9697C9.5533 18.4127 8.70913 18.1253 8.00614 17.9681C7.52585 17.8607 7.04613 17.8003 6.64205 17.7715C6.41182 17.3478 6.01602 17.0525 5.72055 16.8722L5.68503 16.8508C6.1313 16.5185 6.57873 16.1358 6.99253 15.7105C7.79566 14.8851 8.51413 13.8557 8.80759 12.6819C8.88446 12.3744 8.75973 12.0518 8.496 11.876C8.06995 11.5919 7.64177 11.3846 7.26601 11.2149C7.15089 11.1629 7.04468 11.1161 6.94557 11.0723C6.70203 10.9649 6.50133 10.8764 6.31638 10.7769C6.06485 10.6417 5.94821 10.5382 5.89093 10.4556C5.8505 10.3972 5.80368 10.3004 5.82626 10.0746C5.84262 9.91098 5.90975 9.83274 6.02401 9.79417C6.19692 9.7358 6.66453 9.7058 7.59458 10.1708C7.84867 10.2979 8.15272 10.2704 8.37999 10.1C8.60725 9.92955 8.71871 9.64533 8.66789 9.36584Z" fill="#363538"/>
</svg>
