<svg width="24" height="24" viewBox="0 0 24 24" fill="none" xmlns="http://www.w3.org/2000/svg">
<path fill-rule="evenodd" clip-rule="evenodd" d="M12.8057 6.21251C13.2005 5.02802 14.3983 4.30705 15.6299 4.51231L15.9922 4.57188C17.0064 4.74095 17.75 5.61888 17.75 6.64708C17.7502 6.98018 18.0204 7.25059 18.3535 7.25059H19.1895C20.1344 6.30576 21.7499 6.97488 21.75 8.31114V17.0006C21.7498 18.5192 20.5187 19.7506 19 19.7506H5C3.48134 19.7506 2.25021 18.5192 2.25 17.0006V15.5807C2.25005 13.1604 4.07008 11.1273 6.47559 10.86L10.0098 10.4674C10.8818 10.3704 11.6179 9.7743 11.8955 8.942L12.8057 6.21251ZM3.75 17.0006C3.75021 17.6908 4.30977 18.2506 5 18.2506H7.25V17.0006C7.25 16.3102 6.69036 15.7506 6 15.7506H3.75V17.0006ZM8.75 17.0006V18.2506H19C19.6902 18.2506 20.2498 17.6908 20.25 17.0006V16.7506H8.7373C8.74471 16.8329 8.75 16.9164 8.75 17.0006ZM15.3828 5.9918C14.8794 5.90806 14.3899 6.20296 14.2285 6.68712L13.3574 9.29747L14.5303 10.4703C14.8229 10.7632 14.823 11.2381 14.5303 11.5309C14.2375 11.8235 13.7626 11.8234 13.4697 11.5309L12.6064 10.6676C12.3934 10.9162 12.151 11.1372 11.8818 11.3219L12.5303 11.9703C12.8229 12.2632 12.823 12.7381 12.5303 13.0309C12.2375 13.3235 11.7626 13.3234 11.4697 13.0309L10.3672 11.9283C10.3034 11.9388 10.2395 11.9504 10.1748 11.9576L6.64062 12.3502C5.46466 12.481 4.49676 13.2301 4.03809 14.2506H6C6.85422 14.2506 7.61768 14.6395 8.12207 15.2506H20.25V11.7506H18C17.5859 11.7506 17.2502 11.4146 17.25 11.0006C17.25 10.5864 17.5858 10.2506 18 10.2506H20.25V8.31114C19.9687 8.5923 19.5871 8.75056 19.1895 8.75059H18.3535C17.1919 8.75059 16.2502 7.80861 16.25 6.64708C16.25 6.35227 16.0368 6.10104 15.7461 6.05235L15.3828 5.9918Z" fill="#363538"/>
</svg>
