<svg width="24" height="24" viewBox="0 0 24 24" fill="none" xmlns="http://www.w3.org/2000/svg">
<path fill-rule="evenodd" clip-rule="evenodd" d="M12 1.25C12.4142 1.25 12.75 1.58579 12.75 2V3.78647L13.6646 3.32918C14.0351 3.14394 14.4856 3.29411 14.6708 3.66459C14.8561 4.03507 14.7059 4.48558 14.3354 4.67082L12.75 5.46353V6.78647L14.4683 5.92731L14.4475 5.58082C14.4227 5.16736 14.7378 4.81205 15.1512 4.78724C15.4824 4.76736 15.7762 4.96545 15.8928 5.25749C16.204 5.21252 16.5225 5.36791 16.6708 5.66459C16.8561 6.03507 16.7059 6.48558 16.3354 6.67082L16.025 6.82604L16.1401 8.74371L17.2668 8.09318L17.0936 6.39511C17.0516 5.98303 17.3516 5.61491 17.7637 5.57288C18.1758 5.53085 18.5439 5.83084 18.5859 6.24292L18.6908 7.27107L20.2853 6.35047C20.644 6.14336 21.1027 6.26627 21.3098 6.62499C21.5169 6.98371 21.394 7.4424 21.0353 7.64951L19.4881 8.54275L20.3415 9.10616C20.6871 9.33438 20.7823 9.79962 20.5541 10.1453C20.3259 10.4909 19.8607 10.5862 19.515 10.3579L18.0358 9.38127L16.8901 10.0427L18.4933 11.1013L18.7829 10.91C19.1286 10.6818 19.5938 10.777 19.822 11.1227C20.0048 11.3995 19.9801 11.7529 19.7856 12C19.9802 12.247 20.0048 12.6005 19.8221 12.8773C19.5938 13.223 19.1286 13.3182 18.7829 13.09L18.4933 12.8987L16.89 13.9573L18.0357 14.6187L19.5149 13.6421C19.8606 13.4138 20.3258 13.509 20.5541 13.8547C20.7823 14.2004 20.6871 14.6656 20.3414 14.8938L19.4881 15.4573L21.0352 16.3505C21.394 16.5576 21.5169 17.0163 21.3098 17.375C21.1026 17.7337 20.644 17.8566 20.2852 17.6495L18.7381 16.7563L18.6768 17.777C18.652 18.1905 18.2967 18.5055 17.8832 18.4807C17.4698 18.4559 17.1547 18.1006 17.1795 17.6871L17.2857 15.9178L16.14 15.2563L16.0249 17.1739L16.3354 17.3292C16.7059 17.5144 16.8561 17.9649 16.6708 18.3354C16.5225 18.6321 16.204 18.7875 15.8928 18.7425C15.7761 19.0345 15.4823 19.2326 15.1512 19.2128C14.7377 19.1879 14.4227 18.8326 14.4475 18.4192L14.4683 18.0727L12.75 17.2135V18.5365L14.3354 19.3292C14.7059 19.5144 14.8561 19.9649 14.6708 20.3354C14.4856 20.7059 14.0351 20.8561 13.6646 20.6708L12.75 20.2135V22C12.75 22.4142 12.4142 22.75 12 22.75C11.5858 22.75 11.25 22.4142 11.25 22V20.2135L10.3354 20.6708C9.96493 20.8561 9.51442 20.7059 9.32918 20.3354C9.14394 19.9649 9.29411 19.5144 9.66459 19.3292L11.25 18.5365V17.2135L9.53173 18.0727L9.55253 18.4192C9.57735 18.8326 9.26228 19.1879 8.84881 19.2127C8.51771 19.2326 8.2239 19.0345 8.10724 18.7425C7.79599 18.7875 7.47753 18.6321 7.32918 18.3354C7.14394 17.9649 7.29411 17.5144 7.66459 17.3292L7.97509 17.1739L7.85998 15.2563L6.71427 15.9177L6.82048 17.6871C6.84529 18.1006 6.53023 18.4559 6.11676 18.4807C5.70329 18.5055 5.34799 18.1904 5.32317 17.777L5.26191 16.7563L3.71477 17.6495C3.35605 17.8566 2.89736 17.7337 2.69025 17.375C2.48315 17.0163 2.60605 16.5576 2.96477 16.3505L4.51191 15.4572L3.65858 14.8938C3.31292 14.6656 3.21771 14.2004 3.44594 13.8547C3.67417 13.509 4.1394 13.4138 4.48507 13.6421L5.96427 14.6187L7.10998 13.9572L5.50678 12.8987L5.21707 13.09C4.8714 13.3182 4.40617 13.223 4.17794 12.8774C3.99517 12.6005 4.01983 12.247 4.21444 12C4.01987 11.7529 3.99523 11.3994 4.17799 11.1226C4.40622 10.777 4.87145 10.6818 5.21712 10.91L5.50678 11.1013L7.10993 10.0428L5.98318 9.39223L4.5992 10.3913C4.26335 10.6337 3.79455 10.558 3.55211 10.2221C3.30968 9.88624 3.38541 9.41745 3.72127 9.17501L4.55925 8.57013L2.96472 7.64953C2.60601 7.44242 2.4831 6.98373 2.69021 6.62501C2.89731 6.26629 3.35601 6.14338 3.71472 6.35049L5.26186 7.24373L5.32312 6.22302C5.34794 5.80955 5.70324 5.49449 6.11671 5.51931C6.53018 5.54412 6.84525 5.89943 6.82043 6.3129L6.71423 8.08225L7.85993 8.74373L7.97504 6.82604L7.66459 6.67082C7.29411 6.48558 7.14394 6.03507 7.32918 5.66459C7.47752 5.36791 7.79596 5.21251 8.1072 5.25749C8.22386 4.96546 8.51766 4.76738 8.84876 4.78726C9.26223 4.81207 9.5773 5.16737 9.55248 5.58084L9.53168 5.92731L11.25 6.78647V5.48541L9.69284 4.78636C9.31496 4.61672 9.14615 4.17286 9.31579 3.79498C9.48543 3.4171 9.92929 3.24829 10.3072 3.41793L11.25 3.84119V2C11.25 1.58579 11.5858 1.25 12 1.25ZM6.86797 12L8.56235 13.1187L10.5 12L8.5623 10.8813L6.86797 12ZM11.25 13.299L9.31235 14.4177L9.434 16.4445L11.25 15.5365V13.299ZM13.5 12L15.4377 10.8813L17.1321 12L15.4377 13.1187L13.5 12ZM12.75 10.701V8.46353L14.5661 7.5555L14.6877 9.58223L12.75 10.701ZM12.75 15.5365V13.2991L14.6877 14.4178L14.566 16.4445L12.75 15.5365ZM11.25 8.46353V10.701L9.3123 9.58225L9.43395 7.5555L11.25 8.46353Z" fill="#363538"/>
</svg>
