<svg width="24" height="24" viewBox="0 0 24 24" fill="none" xmlns="http://www.w3.org/2000/svg">
<path fill-rule="evenodd" clip-rule="evenodd" d="M19 4.25C20.5188 4.25 21.75 5.48122 21.75 7V17C21.75 18.5188 20.5188 19.75 19 19.75H5C3.48122 19.75 2.25 18.5188 2.25 17V7C2.25 5.48122 3.48122 4.25 5 4.25H19ZM5 5.75C4.30964 5.75 3.75 6.30964 3.75 7V8.25H4C5.51878 8.25 6.75 9.48122 6.75 11V13C6.75 14.5188 5.51878 15.75 4 15.75H3.75V17C3.75 17.6904 4.30964 18.25 5 18.25H11.25V15.6748C9.53834 15.3273 8.25 13.8142 8.25 12C8.25 10.1857 9.53824 8.67161 11.25 8.32422V5.75H5ZM12.75 8.32422C14.4618 8.67161 15.75 10.1857 15.75 12C15.75 13.8142 14.4617 15.3273 12.75 15.6748V18.25H19C19.6904 18.25 20.25 17.6904 20.25 17V15.75H20C18.4812 15.75 17.25 14.5188 17.25 13V11C17.25 9.48122 18.4812 8.25 20 8.25H20.25V7C20.25 6.30964 19.6904 5.75 19 5.75H12.75V8.32422ZM3.75 14.25H4C4.69036 14.25 5.25 13.6904 5.25 13V11C5.25 10.3096 4.69036 9.75 4 9.75H3.75V14.25ZM20 9.75C19.3096 9.75 18.75 10.3096 18.75 11V13C18.75 13.6904 19.3096 14.25 20 14.25H20.25V9.75H20ZM11.25 9.88086C10.3766 10.19 9.75 11.0207 9.75 12C9.75 12.9792 10.3767 13.8089 11.25 14.1182V9.88086ZM12.75 14.1182C13.6233 13.8089 14.25 12.9792 14.25 12C14.25 11.0207 13.6234 10.19 12.75 9.88086V14.1182Z" fill="#363538"/>
</svg>
