<svg width="24" height="24" viewBox="0 0 24 24" fill="none" xmlns="http://www.w3.org/2000/svg">
<path fill-rule="evenodd" clip-rule="evenodd" d="M16.6355 12.8177L15.6998 12.3499C15.2709 12.1355 15 11.6971 15 11.2176V6H7V14.6464C7 16.0991 7.78757 17.4375 9.05743 18.143L12.7458 20.1921C14.5996 21.222 16.9311 20.6964 18.1638 18.9707C19.653 16.8858 18.9272 13.9636 16.6355 12.8177ZM13.5 6.75H8.5V14.6464C8.5 15.5543 8.99223 16.3909 9.78589 16.8318L13.4743 18.8809C14.6612 19.5403 16.154 19.2038 16.9432 18.0989C17.8966 16.764 17.4319 14.893 15.9647 14.1594L15.029 13.6915C14.0919 13.223 13.5 12.2653 13.5 11.2176V6.75Z" fill="#363538"/>
<path fill-rule="evenodd" clip-rule="evenodd" d="M8 3C7.44772 3 7 3.44772 7 4V6H15V4C15 3.44772 14.5523 3 14 3H8ZM8.5 5.25H13.5V4.5H8.5V5.25Z" fill="#363538"/>
</svg>
