<svg width="24" height="24" viewBox="0 0 24 24" fill="none" xmlns="http://www.w3.org/2000/svg">
<path fill-rule="evenodd" clip-rule="evenodd" d="M6.25 8.04985V6.19771C6.25 4.85616 7.22434 3.68815 8.58607 3.51644C9.60959 3.38738 10.9415 3.25 12 3.25C13.0585 3.25 14.3904 3.38738 15.4139 3.51644C16.7757 3.68815 17.75 4.85616 17.75 6.19771V8.04985C18.125 7.85814 18.5499 7.75 19 7.75C20.5188 7.75 21.75 8.98122 21.75 10.5V12.5C21.75 13.3627 21.3527 14.1327 20.7312 14.6368C21.3585 15.2294 21.75 16.069 21.75 17C21.75 18.3858 20.8827 19.569 19.6612 20.0364C19.7185 20.1798 19.75 20.3362 19.75 20.5C19.75 21.1904 19.1904 21.75 18.5 21.75H17.5C16.8096 21.75 16.25 21.1904 16.25 20.5C16.25 20.4144 16.2586 20.3308 16.275 20.25H7.725C7.74139 20.3308 7.75 20.4144 7.75 20.5C7.75 21.1904 7.19036 21.75 6.5 21.75H5.5C4.80964 21.75 4.25 21.1904 4.25 20.5C4.25 20.3362 4.28151 20.1798 4.33879 20.0364C3.11734 19.569 2.25 18.3858 2.25 17C2.25 16.069 2.6415 15.2294 3.26885 14.6368C2.64727 14.1327 2.25 13.3627 2.25 12.5V10.5C2.25 8.98122 3.48122 7.75 5 7.75C5.45011 7.75 5.87497 7.85814 6.25 8.04985ZM8.77373 5.00466C9.78694 4.87689 11.0409 4.75 12 4.75C12.9591 4.75 14.2131 4.87689 15.2263 5.00466C15.8076 5.07796 16.25 5.58086 16.25 6.19771V12.5C16.25 13.1904 15.6904 13.75 15 13.75H9C8.30964 13.75 7.75 13.1904 7.75 12.5V6.19771C7.75 5.58086 8.19245 5.07796 8.77373 5.00466ZM6.25 10.5C6.25 9.80964 5.69036 9.25 5 9.25C4.30964 9.25 3.75 9.80964 3.75 10.5V12.5C3.75 13.1904 4.30964 13.75 5 13.75C5.69036 13.75 6.25 13.1904 6.25 12.5V10.5ZM17.75 12.5V10.5C17.75 9.80964 18.3096 9.25 19 9.25C19.6904 9.25 20.25 9.80964 20.25 10.5V12.5C20.25 13.1904 19.6904 13.75 19 13.75C18.3096 13.75 17.75 13.1904 17.75 12.5ZM5.5 15.25C4.5335 15.25 3.75 16.0335 3.75 17C3.75 17.9665 4.5335 18.75 5.5 18.75H18.5C19.4665 18.75 20.25 17.9665 20.25 17C20.25 16.0335 19.4665 15.25 18.5 15.25H5.5Z" fill="#363538"/>
</svg>
