<svg width="24" height="24" viewBox="0 0 24 24" fill="none" xmlns="http://www.w3.org/2000/svg">
<path fill-rule="evenodd" clip-rule="evenodd" d="M4.0528 3.21738C4.34923 2.6245 4.95519 2.25 5.61804 2.25H19.382C20.6829 2.25 21.529 3.61905 20.9472 4.78262L19.9472 6.78262C19.6508 7.3755 19.0448 7.75 18.382 7.75H4.61804C3.31713 7.75 2.47101 6.38095 3.0528 5.21738L4.0528 3.21738ZM5.61804 3.75C5.52335 3.75 5.43678 3.8035 5.39444 3.8882L4.39444 5.8882C4.31132 6.05442 4.4322 6.25 4.61804 6.25H18.382C18.4767 6.25 18.5632 6.1965 18.6056 6.1118L19.6056 4.1118C19.6887 3.94558 19.5678 3.75 19.382 3.75H5.61804Z" fill="#363538"/>
<path fill-rule="evenodd" clip-rule="evenodd" d="M19.9472 10.2174C19.6508 9.6245 19.0448 9.25 18.382 9.25H4.61804C3.31712 9.25 2.47101 10.619 3.05279 11.7826L4.05279 13.7826C4.34923 14.3755 4.95519 14.75 5.61804 14.75H19.382C20.6829 14.75 21.529 13.381 20.9472 12.2174L19.9472 10.2174ZM18.382 10.75C18.4767 10.75 18.5632 10.8035 18.6056 10.8882L19.6056 12.8882C19.6887 13.0544 19.5678 13.25 19.382 13.25H5.61804C5.52335 13.25 5.43678 13.1965 5.39444 13.1118L4.39443 11.1118C4.31132 10.9456 4.4322 10.75 4.61804 10.75H18.382Z" fill="#363538"/>
<path fill-rule="evenodd" clip-rule="evenodd" d="M5.61804 16.25C4.95519 16.25 4.34923 16.6245 4.0528 17.2174L3.0528 19.2174C2.47101 20.381 3.31713 21.75 4.61804 21.75H18.382C19.0448 21.75 19.6508 21.3755 19.9472 20.7826L20.9472 18.7826C21.529 17.619 20.6829 16.25 19.382 16.25H5.61804ZM5.39444 17.8882C5.43678 17.8035 5.52335 17.75 5.61804 17.75H19.382C19.5678 17.75 19.6887 17.9456 19.6056 18.1118L18.6056 20.1118C18.5632 20.1965 18.4767 20.25 18.382 20.25H4.61804C4.4322 20.25 4.31132 20.0544 4.39444 19.8882L5.39444 17.8882Z" fill="#363538"/>
</svg>
