<svg width="24" height="24" viewBox="0 0 24 24" fill="none" xmlns="http://www.w3.org/2000/svg">
<path d="M2.25 5C2.25 4.58579 2.58579 4.25 3 4.25H21C21.4142 4.25 21.75 4.58579 21.75 5C21.75 5.41421 21.4142 5.75 21 5.75H3C2.58579 5.75 2.25 5.41421 2.25 5Z" fill="#363538"/>
<path d="M2.25 12C2.25 11.5858 2.58579 11.25 3 11.25H13C13.4142 11.25 13.75 11.5858 13.75 12C13.75 12.4142 13.4142 12.75 13 12.75H3C2.58579 12.75 2.25 12.4142 2.25 12Z" fill="#363538"/>
<path d="M3 18.25C2.58579 18.25 2.25 18.5858 2.25 19C2.25 19.4142 2.58579 19.75 3 19.75H7C7.41421 19.75 7.75 19.4142 7.75 19C7.75 18.5858 7.41421 18.25 7 18.25H3Z" fill="#363538"/>
<path d="M20.4697 14.5303C20.7626 14.8232 21.2374 14.8232 21.5303 14.5303C21.8232 14.2374 21.8232 13.7626 21.5303 13.4697L18.5324 10.4717C18.3965 10.3348 18.2082 10.25 18 10.25C17.8011 10.25 17.6103 10.329 17.4697 10.4697L14.4697 13.4697C14.1768 13.7626 14.1768 14.2374 14.4697 14.5303C14.7626 14.8232 15.2374 14.8232 15.5303 14.5303L17.25 12.8107V19C17.25 19.4142 17.5858 19.75 18 19.75C18.4142 19.75 18.75 19.4142 18.75 19V12.8107L20.4697 14.5303Z" fill="#363538"/>
</svg>
