<svg width="24" height="24" viewBox="0 0 24 24" fill="none" xmlns="http://www.w3.org/2000/svg">
<path fill-rule="evenodd" clip-rule="evenodd" d="M12.7779 16.412C13.8515 14.2407 16.1254 12.928 18.5425 13.0838L20.7486 13.2254C21.9947 13.3058 22.7581 14.6285 22.2046 15.7479L21.2251 17.7303C20.1516 19.9014 17.8775 21.2142 15.4605 21.0585L13.2535 20.9159C12.729 20.882 12.2918 20.6267 12.0005 20.2606C11.7093 20.6264 11.2728 20.8821 10.7486 20.9159L8.54252 21.0585C6.1255 21.2143 3.85152 19.9014 2.77787 17.7303L1.7974 15.7479C1.24407 14.6286 2.00752 13.306 3.25346 13.2254L5.46049 13.0838C7.8776 12.928 10.1516 14.2408 11.2251 16.412L12.0005 17.9813L12.7779 16.412ZM5.55717 14.5799L3.35013 14.7225C3.17232 14.7341 3.0633 14.9231 3.14213 15.0829L4.1226 17.0653C4.92782 18.6936 6.63307 19.6783 8.44584 19.5614L10.6529 19.4188C10.8306 19.407 10.9398 19.2182 10.8609 19.0585L9.88041 17.076C9.07518 15.4479 7.36978 14.4632 5.55717 14.5799ZM18.4458 14.5799C16.6332 14.4631 14.9279 15.448 14.1226 17.076L13.1421 19.0585C13.0631 19.2183 13.1721 19.4073 13.3501 19.4188L15.5572 19.5614C17.3698 19.6781 19.0753 18.6936 19.8804 17.0653L20.8599 15.0829C20.9389 14.923 20.8299 14.734 20.6519 14.7225L18.4458 14.5799Z" fill="#363538"/>
<path fill-rule="evenodd" clip-rule="evenodd" d="M10.5435 3.83189C11.2361 2.79296 12.7629 2.79308 13.4556 3.83189L14.6822 5.67173C16.0257 7.6871 16.0257 10.3126 14.6822 12.328L13.4556 14.1678C12.7628 15.2066 11.2361 15.2067 10.5435 14.1678L9.31693 12.328C7.97357 10.3127 7.9736 7.687 9.31693 5.67173L10.5435 3.83189ZM12.2076 4.66392C12.1085 4.51571 11.8905 4.51559 11.7915 4.66392L10.565 6.50376C9.55755 8.01518 9.55752 9.98454 10.565 11.496L11.7915 13.3358C11.8904 13.4841 12.1085 13.4839 12.2076 13.3358L13.4341 11.496C14.4418 9.98443 14.4418 8.01528 13.4341 6.50376L12.2076 4.66392Z" fill="#363538"/>
</svg>
