<svg width="24" height="24" viewBox="0 0 24 24" fill="none" xmlns="http://www.w3.org/2000/svg">
<path d="M8.50023 10C9.0524 10.0001 9.50023 10.4478 9.50023 11C9.50023 11.5522 9.0524 11.9999 8.50023 12C7.94794 12 7.50023 11.5523 7.50023 11C7.50023 10.4477 7.94794 10 8.50023 10Z" fill="#363538"/>
<path d="M12.0002 10C12.5524 10.0001 13.0002 10.4478 13.0002 11C13.0002 11.5522 12.5524 11.9999 12.0002 12C11.4479 12 11.0002 11.5523 11.0002 11C11.0002 10.4477 11.4479 10 12.0002 10Z" fill="#363538"/>
<path d="M15.5002 10C16.0524 10.0001 16.5002 10.4478 16.5002 11C16.5002 11.5522 16.0524 11.9999 15.5002 12C14.9479 12 14.5002 11.5523 14.5002 11C14.5002 10.4477 14.9479 10 15.5002 10Z" fill="#363538"/>
<path fill-rule="evenodd" clip-rule="evenodd" d="M12.0002 1.75C15.1182 1.75014 17.6544 4.23211 17.7453 7.32812C18.2875 7.43819 18.8027 7.66435 19.2502 8L20.6077 9.01855C21.9595 10.0326 22.2842 11.9259 21.3469 13.332C20.7872 14.1716 19.8647 14.6919 18.8635 14.7441L19.7424 20.8936L19.7493 20.9707C19.7645 21.3502 19.4906 21.687 19.1067 21.7422C18.7224 21.7971 18.3643 21.5504 18.2727 21.1816L18.258 21.1064L17.3498 14.75H12.7502V18C12.7502 18.4141 12.4143 18.7499 12.0002 18.75C11.586 18.75 11.2502 18.4142 11.2502 18V14.75H7.10668L5.73363 21.1572C5.64683 21.5621 5.24792 21.82 4.843 21.7334C4.43802 21.6466 4.18005 21.2478 4.26683 20.8428L5.5725 14.75H5.30296C4.23836 14.75 3.24412 14.2178 2.65355 13.332C1.71612 11.9259 2.04082 10.0325 3.39281 9.01855L4.75023 8C5.19754 7.66456 5.71229 7.43823 6.25414 7.32812C6.34505 4.23201 8.8821 1.75 12.0002 1.75ZM7.00023 8.75C6.51353 8.75 6.04003 8.90825 5.65062 9.2002L4.29222 10.2188C3.5774 10.7551 3.40584 11.7564 3.9016 12.5C4.21397 12.9685 4.73989 13.25 5.30296 13.25H18.6975C19.2605 13.2499 19.7865 12.9685 20.0989 12.5C20.5945 11.7564 20.4229 10.7551 19.7082 10.2188L18.3498 9.2002C17.9605 8.90822 17.4869 8.75006 17.0002 8.75H7.00023ZM12.0002 3.25C9.73696 3.25 7.88747 5.01918 7.75804 7.25H16.2424C16.113 5.01926 14.2634 3.25013 12.0002 3.25Z" fill="#363538"/>
</svg>
