<svg width="24" height="24" viewBox="0 0 24 24" fill="none" xmlns="http://www.w3.org/2000/svg">
<path d="M14.0002 19.25C14.4143 19.2501 14.7502 19.5859 14.7502 20C14.7502 20.4141 14.4143 20.7499 14.0002 20.75H10.0002C9.58602 20.75 9.25023 20.4142 9.25023 20C9.25023 19.5858 9.58602 19.25 10.0002 19.25H14.0002Z" fill="#363538"/>
<path d="M16.0002 16.25C16.4143 16.2501 16.7502 16.5859 16.7502 17C16.7502 17.4141 16.4143 17.7499 16.0002 17.75H8.00023C7.58602 17.75 7.25023 17.4142 7.25023 17C7.25023 16.5858 7.58602 16.25 8.00023 16.25H16.0002Z" fill="#363538"/>
<path d="M8.50023 10C9.0524 10.0001 9.50023 10.4478 9.50023 11C9.50023 11.5522 9.0524 11.9999 8.50023 12C7.94794 12 7.50023 11.5523 7.50023 11C7.50023 10.4477 7.94794 10 8.50023 10Z" fill="#363538"/>
<path d="M12.0002 10C12.5524 10.0001 13.0002 10.4478 13.0002 11C13.0002 11.5522 12.5524 11.9999 12.0002 12C11.4479 12 11.0002 11.5523 11.0002 11C11.0002 10.4477 11.4479 10 12.0002 10Z" fill="#363538"/>
<path d="M15.5002 10C16.0524 10.0001 16.5002 10.4478 16.5002 11C16.5002 11.5522 16.0524 11.9999 15.5002 12C14.9479 12 14.5002 11.5523 14.5002 11C14.5002 10.4477 14.9479 10 15.5002 10Z" fill="#363538"/>
<path fill-rule="evenodd" clip-rule="evenodd" d="M12.0002 1.75C15.1182 1.75014 17.6544 4.23211 17.7453 7.32812C18.2875 7.43819 18.8027 7.66435 19.2502 8L20.6077 9.01855C21.9173 10.001 22.263 11.8088 21.4309 13.1992L21.3469 13.332C20.7564 14.2178 19.762 14.7499 18.6975 14.75H5.30296C4.23836 14.75 3.24412 14.2178 2.65355 13.332C1.71612 11.9259 2.04082 10.0325 3.39281 9.01855L4.75023 8L5.00023 7.82812C5.38512 7.58546 5.81062 7.41825 6.25414 7.32812C6.34505 4.23202 8.8821 1.75 12.0002 1.75ZM7.00023 8.75C6.57433 8.75 6.15823 8.87085 5.80003 9.09668L5.65062 9.2002L4.29222 10.2188C3.5774 10.7551 3.40584 11.7564 3.9016 12.5C4.21397 12.9685 4.73989 13.25 5.30296 13.25H18.6975C19.2605 13.2499 19.7865 12.9685 20.0989 12.5L20.1838 12.3574C20.5706 11.6328 20.3782 10.7216 19.7082 10.2188L18.3498 9.2002C17.9605 8.90822 17.4869 8.75006 17.0002 8.75H7.00023ZM12.0002 3.25C9.73696 3.25 7.88747 5.01918 7.75804 7.25H16.2424C16.113 5.01926 14.2634 3.25013 12.0002 3.25Z" fill="#363538"/>
</svg>
