<svg width="24" height="24" viewBox="0 0 24 24" fill="none" xmlns="http://www.w3.org/2000/svg">
<path fill-rule="evenodd" clip-rule="evenodd" d="M11.2481 17.791L11.2475 17.7985C11.2082 18.2505 11.1293 18.916 11.0034 19.5868C10.9452 19.8969 10.877 20.2082 10.7981 20.5L10.7854 20.5465C10.6829 20.9171 10.5628 21.2542 10.4236 21.5146C10.3851 21.5865 10.3452 21.6526 10.3038 21.7119C10.2434 21.7984 10.3181 22 10.4236 22H13.5769C13.6824 22 13.7566 21.7984 13.6962 21.7119C13.6549 21.6528 13.6152 21.5871 13.5769 21.5155C13.4375 21.255 13.3172 20.9176 13.2146 20.5466L13.2019 20.5C13.123 20.2082 13.0548 19.8969 12.9966 19.5868C12.8707 18.916 12.7918 18.2505 12.7525 17.7985L12.7519 17.791C12.7484 17.7506 12.7452 17.712 12.7424 17.6752L12.7576 17.6859C13.163 17.9707 13.7107 18.3043 14.3495 18.5641C14.9713 18.817 15.6794 19 16.4268 19C16.5073 19 16.5867 18.9994 16.6649 18.9983C20.4529 18.9425 22.6899 15.0644 21.8085 11.332C20.8324 7.19856 15.1219 3.53463 12.8918 2.24212C12.3347 1.91929 11.6653 1.91929 11.1082 2.24212C8.87811 3.53463 3.16765 7.19856 2.19153 11.332C1.31012 15.0644 3.54708 18.9425 7.33511 18.9983C7.41331 18.9994 7.49265 19 7.57317 19C8.32058 19 9.02871 18.817 9.65049 18.5641C10.2893 18.3043 10.837 17.9707 11.2424 17.6859L11.2576 17.6752C11.2548 17.712 11.2516 17.7506 11.2481 17.791ZM11.9988 16.3711L12 16.3718L12.0012 16.3711C12.5065 16.0839 13.1322 16.1145 13.6072 16.4496C14.317 16.9504 15.3656 17.5 16.4268 17.5C16.5001 17.5 16.5721 17.4995 16.6428 17.4984C19.1861 17.461 21.0806 14.7764 20.3486 11.6768C19.9732 10.0872 18.6091 8.39956 16.8346 6.8523C15.1084 5.34717 13.2148 4.16308 12.1396 3.53991C12.0478 3.4867 11.9522 3.4867 11.8604 3.53992C10.7852 4.16308 8.89163 5.34717 7.16542 6.8523C5.39088 8.39956 4.02675 10.0872 3.65137 11.6768C2.91939 14.7764 4.81395 17.461 7.35718 17.4984C7.42793 17.4995 7.49993 17.5 7.57317 17.5C8.63436 17.5 9.68295 16.9504 10.3928 16.4496C10.8678 16.1145 11.4935 16.0839 11.9988 16.3711Z" fill="#363538"/>
</svg>
