<svg width="24" height="24" viewBox="0 0 24 24" fill="none" xmlns="http://www.w3.org/2000/svg">
<path fill-rule="evenodd" clip-rule="evenodd" d="M5.67914 1.69668C7.59516 1.1851 9.72731 1.68141 11.2328 3.18691C12.7111 4.66516 13.2159 6.74755 12.7494 8.63613C12.7036 8.82175 12.7573 8.95351 12.8159 9.01211L20.4252 16.6215C21.4992 17.6954 21.4992 19.4372 20.4252 20.5111C19.3513 21.5846 17.6104 21.5847 16.5366 20.5111L8.92718 12.9008C8.8686 12.8422 8.73678 12.7886 8.55121 12.8344C6.6626 13.3009 4.57929 12.797 3.10101 11.3188C1.59551 9.81321 1.10017 7.68009 1.61175 5.76406C1.68096 5.50522 1.88424 5.3033 2.143 5.23379C2.4018 5.16447 2.67815 5.23769 2.86761 5.42715L5.09808 7.65762C5.1703 7.72967 5.27868 7.75044 5.3725 7.71035L6.85785 7.07461C6.91676 7.04933 6.9644 7.00168 6.98968 6.94277L7.62543 5.45742C7.6654 5.36365 7.64469 5.25518 7.57269 5.18301L5.34222 2.95254C5.15277 2.76308 5.07856 2.48672 5.14789 2.22793C5.2174 1.96908 5.42019 1.76584 5.67914 1.69668ZM8.63324 4.12246C9.139 4.62839 9.28701 5.39164 9.00531 6.04922L8.36859 7.53359C8.1916 7.94658 7.86163 8.27649 7.44867 8.45352L5.96332 9.09023C5.30585 9.37166 4.54334 9.22381 4.03754 8.71816L2.93402 7.61563C3.01622 8.57975 3.42549 9.52016 4.16254 10.2572C5.25408 11.3488 6.79205 11.7241 8.19183 11.3783C8.77781 11.2337 9.48431 11.3369 9.98773 11.8402L17.5971 19.4496C18.0853 19.9378 18.8765 19.9378 19.3647 19.4496C19.8528 18.9614 19.8528 18.1702 19.3647 17.682L11.7553 10.0727C11.2519 9.56918 11.1487 8.86277 11.2934 8.27676C11.6392 6.87697 11.2638 5.339 10.1723 4.24746C9.43527 3.51045 8.49477 3.10215 7.5307 3.01992L8.63324 4.12246Z" fill="#363538"/>
</svg>
