<svg width="24" height="24" viewBox="0 0 24 24" fill="none" xmlns="http://www.w3.org/2000/svg">
<path fill-rule="evenodd" clip-rule="evenodd" d="M17 13.5C15.6193 13.5 14.5 14.6193 14.5 16C14.5 17.3807 15.6193 18.5 17 18.5C18.3807 18.5 19.5 17.3807 19.5 16C19.5 14.6193 18.3807 13.5 17 13.5ZM16 16C16 16.5523 16.4477 17 17 17C17.5523 17 18 16.5523 18 16C18 15.4477 17.5523 15 17 15C16.4477 15 16 15.4477 16 16Z" fill="#363538"/>
<path fill-rule="evenodd" clip-rule="evenodd" d="M15 8C15 6.89543 15.8954 6 17 6C18.1046 6 19 6.89543 19 8C19 9.10457 18.1046 10 17 10C15.8954 10 15 9.10457 15 8ZM17 8.5C16.7239 8.5 16.5 8.27614 16.5 8C16.5 7.72386 16.7239 7.5 17 7.5C17.2761 7.5 17.5 7.72386 17.5 8C17.5 8.27614 17.2761 8.5 17 8.5Z" fill="#363538"/>
<path fill-rule="evenodd" clip-rule="evenodd" d="M7.75 12.75C6.23122 12.75 5 13.9812 5 15.5C5 17.0188 6.23122 18.25 7.75 18.25C9.26878 18.25 10.5 17.0188 10.5 15.5C10.5 13.9812 9.26878 12.75 7.75 12.75ZM6.5 15.5C6.5 16.1904 7.05964 16.75 7.75 16.75C8.44036 16.75 9 16.1904 9 15.5C9 14.8096 8.44036 14.25 7.75 14.25C7.05964 14.25 6.5 14.8096 6.5 15.5Z" fill="#363538"/>
<path fill-rule="evenodd" clip-rule="evenodd" d="M18 22C20.2091 22 22 20.2091 22 18V6C22 3.79086 20.2091 2 18 2H16C13.7909 2 12 3.79086 12 6V9H6C3.79086 9 2 10.7909 2 13V18C2 20.2091 3.79086 22 6 22H18ZM18 3.5H16C14.6193 3.5 13.5 4.61929 13.5 6V18C13.5 19.3807 14.6193 20.5 16 20.5H18C19.3807 20.5 20.5 19.3807 20.5 18V6C20.5 4.61929 19.3807 3.5 18 3.5ZM12.8773 20.5C12.3284 19.8152 12 18.9459 12 18V10.5H6C4.61929 10.5 3.5 11.6193 3.5 13V18C3.5 19.3807 4.61929 20.5 6 20.5H12.8773Z" fill="#363538"/>
</svg>
