<svg width="24" height="24" viewBox="0 0 24 24" fill="none" xmlns="http://www.w3.org/2000/svg">
<path fill-rule="evenodd" clip-rule="evenodd" d="M12 11.5C9.79086 11.5 8 13.2909 8 15.5C8 17.7091 9.79086 19.5 12 19.5C14.2091 19.5 16 17.7091 16 15.5C16 13.2909 14.2091 11.5 12 11.5ZM9.5 15.5C9.5 16.8807 10.6193 18 12 18C13.3807 18 14.5 16.8807 14.5 15.5C14.5 14.1193 13.3807 13 12 13C10.6193 13 9.5 14.1193 9.5 15.5Z" fill="#363538"/>
<path fill-rule="evenodd" clip-rule="evenodd" d="M9 7.5C9 5.84315 10.3431 4.5 12 4.5C13.6569 4.5 15 5.84315 15 7.5C15 9.15685 13.6569 10.5 12 10.5C10.3431 10.5 9 9.15685 9 7.5ZM12 9C11.1716 9 10.5 8.32843 10.5 7.5C10.5 6.67157 11.1716 6 12 6C12.8284 6 13.5 6.67157 13.5 7.5C13.5 8.32843 12.8284 9 12 9Z" fill="#363538"/>
<path fill-rule="evenodd" clip-rule="evenodd" d="M9 2C6.79086 2 5 3.79086 5 6V18C5 20.2091 6.79086 22 9 22H15C17.2091 22 19 20.2091 19 18V6C19 3.79086 17.2091 2 15 2H9ZM9 3.5C7.61929 3.5 6.5 4.61929 6.5 6V18C6.5 19.3807 7.61929 20.5 9 20.5H15C16.3807 20.5 17.5 19.3807 17.5 18V6C17.5 4.61929 16.3807 3.5 15 3.5H9Z" fill="#363538"/>
</svg>
