<svg width="24" height="24" viewBox="0 0 24 24" fill="none" xmlns="http://www.w3.org/2000/svg">
<path fill-rule="evenodd" clip-rule="evenodd" d="M17.5 2H6.5C5.11929 2 4 3.11929 4 4.5C4 5.88071 5.11929 7 6.5 7H17.5C18.8807 7 20 5.88071 20 4.5C20 3.11929 18.8807 2 17.5 2ZM6.5 3.5H17.5C18.0523 3.5 18.5 3.94772 18.5 4.5C18.5 5.05228 18.0523 5.5 17.5 5.5H6.5C5.94772 5.5 5.5 5.05228 5.5 4.5C5.5 3.94772 5.94772 3.5 6.5 3.5Z" fill="#363538"/>
<path fill-rule="evenodd" clip-rule="evenodd" d="M2 18V12C2 9.79086 3.79086 8 6 8H18C20.2091 8 22 9.79086 22 12V18C22 20.2091 20.2091 22 18 22H6C3.79086 22 2 20.2091 2 18ZM3.5 18V12C3.5 10.6193 4.61929 9.5 6 9.5H18C19.3807 9.5 20.5 10.6193 20.5 12V18C20.5 19.3807 19.3807 20.5 18 20.5H6C4.61929 20.5 3.5 19.3807 3.5 18Z" fill="#363538"/>
</svg>
