<svg width="24" height="24" viewBox="0 0 24 24" fill="none" xmlns="http://www.w3.org/2000/svg">
<path fill-rule="evenodd" clip-rule="evenodd" d="M15.5 2H8.5C7.11929 2 6 3.11929 6 4.5C6 5.88071 7.11929 7 8.5 7H15.5C16.8807 7 18 5.88071 18 4.5C18 3.11929 16.8807 2 15.5 2ZM8.5 3.5H15.5C16.0523 3.5 16.5 3.94771 16.5 4.5C16.5 5.05228 16.0523 5.5 15.5 5.5H8.5C7.94772 5.5 7.5 5.05228 7.5 4.5C7.5 3.94772 7.94772 3.5 8.5 3.5Z" fill="#363538"/>
<path fill-rule="evenodd" clip-rule="evenodd" d="M4.80159 17.3241L5.83016 11.3241C6.15937 9.4038 7.82429 8 9.77265 8H14.2274C16.1757 8 17.8407 9.4038 18.1699 11.3241L19.1984 17.3241C19.6173 19.7678 17.7352 22 15.256 22H8.74408C6.26482 22 4.38269 19.7678 4.80159 17.3241ZM6.28003 17.5776L7.3086 11.5776C7.51435 10.3774 8.55493 9.5 9.77265 9.5H14.2274C15.4451 9.5 16.4857 10.3774 16.6914 11.5776L17.72 17.5776C17.9818 19.1049 16.8055 20.5 15.256 20.5H8.74408C7.19454 20.5 6.01821 19.1048 6.28003 17.5776Z" fill="#363538"/>
</svg>
