<svg width="24" height="24" viewBox="0 0 24 24" fill="none" xmlns="http://www.w3.org/2000/svg">
<path fill-rule="evenodd" clip-rule="evenodd" d="M4.65155 3.59089L3.59089 4.65155C2.71221 5.53023 2.71221 6.95486 3.59089 7.83354C4.46957 8.71221 5.8942 8.71221 6.77287 7.83354L7.83354 6.77287C8.71221 5.8942 8.71221 4.46957 7.83354 3.59089C6.95486 2.71221 5.53023 2.71221 4.65155 3.59089ZM4.65155 5.71221L5.71221 4.65155C6.00511 4.35866 6.47998 4.35866 6.77288 4.65155C7.06577 4.94445 7.06577 5.41932 6.77288 5.71221L5.71221 6.77288C5.41932 7.06577 4.94445 7.06577 4.65155 6.77288C4.35866 6.47998 4.35866 6.00511 4.65155 5.71221Z" fill="#363538"/>
<path fill-rule="evenodd" clip-rule="evenodd" d="M14.0281 20.9436L6.32807 11.5324C5.67742 10.7372 5.73522 9.57829 6.46177 8.85174L8.85183 6.46168C9.57839 5.73513 10.7373 5.67733 11.5325 6.32798L20.9437 14.0281C21.4016 14.4027 21.4359 15.0908 21.0176 15.5091L15.5092 21.0175C15.0909 21.4358 14.4028 21.4015 14.0281 20.9436ZM19.5663 14.8391L14.8392 19.5662L7.48901 10.5826C7.32635 10.3838 7.3408 10.094 7.52244 9.9124L9.91249 7.52234C10.0941 7.34071 10.3839 7.32625 10.5827 7.48892L19.5663 14.8391Z" fill="#363538"/>
</svg>
