<svg width="24" height="24" viewBox="0 0 24 24" fill="none" xmlns="http://www.w3.org/2000/svg">
<path d="M21 20.5002C21.4142 20.5002 21.75 20.836 21.75 21.2502C21.75 21.6645 21.4142 22.0002 21 22.0002H3C2.58579 22.0002 2.25 21.6645 2.25 21.2502C2.25 20.836 2.58579 20.5002 3 20.5002H21Z" fill="#363538"/>
<path fill-rule="evenodd" clip-rule="evenodd" d="M12 2.00024C14.6234 2.00024 16.75 4.12689 16.75 6.75024C16.75 8.34895 15.9584 9.76024 14.75 10.6204V12.2502H17C19.6234 12.2502 21.75 14.3769 21.75 17.0002V19.0002C21.75 19.4144 21.4142 19.7502 21 19.7502H3C2.5858 19.7502 2.25003 19.4144 2.25 19.0002V17.0002C2.25 14.3769 4.37665 12.2502 7 12.2502H9.25V10.6204C8.04165 9.76024 7.25 8.34895 7.25 6.75024C7.25 4.12689 9.37665 2.00024 12 2.00024ZM12 3.50024C10.2051 3.50024 8.75 4.95532 8.75 6.75024C8.75 7.91088 9.35921 8.92844 10.2773 9.50415C10.5541 9.61452 10.75 9.88433 10.75 10.2004V13.0002C10.75 13.4144 10.4142 13.7502 10 13.7502H7C5.20507 13.7502 3.75 15.2053 3.75 17.0002V18.2502H20.25V17.0002C20.25 15.2053 18.7949 13.7502 17 13.7502H14C13.5858 13.7502 13.25 13.4144 13.25 13.0002V10.2004C13.25 9.88465 13.4454 9.61473 13.7217 9.50415C14.6402 8.92851 15.25 7.91117 15.25 6.75024C15.25 4.95532 13.7949 3.50024 12 3.50024Z" fill="#363538"/>
</svg>
