<svg width="24" height="24" viewBox="0 0 24 24" fill="none" xmlns="http://www.w3.org/2000/svg">
<path fill-rule="evenodd" clip-rule="evenodd" d="M9 8.99633L7.69259 11.0044C7.36483 11.5079 6.86096 11.8666 6.28455 12.0159L3.98056 12.6128L5.4781 14.4186C5.86141 14.8809 6.05738 15.4719 6.02228 16.0747L5.88535 18.4267L8.13602 17.5615L8.67421 18.9617L5.55455 20.1608C4.94559 20.3949 4.29536 19.9288 4.33283 19.2851L4.52482 15.9875C4.53771 15.766 4.46586 15.5479 4.32347 15.3762L2.20343 12.8197C1.78959 12.3206 2.03796 11.5665 2.67008 11.4028L5.90839 10.5639C6.12589 10.5075 6.31401 10.3727 6.43554 10.186L8.24494 7.40687C8.59814 6.86438 9.40186 6.86438 9.75506 7.40687L11.5645 10.186C11.686 10.3727 11.8741 10.5075 12.0916 10.5639L15.3299 11.4028C15.5548 11.461 15.7311 11.5939 15.8463 11.7635C16.0549 12.0707 16.0632 12.4981 15.7966 12.8197L13.6765 15.3762C13.6572 15.3995 13.6391 15.4237 13.6224 15.4487C13.5162 15.6073 13.464 15.7962 13.4752 15.9875L13.6672 19.2851C13.7046 19.9288 13.0544 20.3949 12.4455 20.1608L9.32579 18.9617L9.86398 17.5615L12.1146 18.4267L11.9777 16.0747C11.9426 15.4719 12.1386 14.8809 12.5219 14.4187L14.0194 12.6128L11.7154 12.0159C11.139 11.8666 10.6352 11.5079 10.3074 11.0045L9 8.99633ZM13.8729 8.37793C13.7672 8.09226 13.542 7.86703 13.2564 7.76133L11.9986 7.29592C11.09 6.9597 11.09 5.67458 11.9986 5.33836L13.2564 4.87295C13.542 4.76724 13.7672 4.54202 13.8729 4.25635L14.3384 2.9986C14.6746 2.08999 15.9597 2.08999 16.2959 2.9986L16.7613 4.25635C16.867 4.54202 17.0923 4.76724 17.3779 4.87295L18.6357 5.33836C19.5443 5.67458 19.5443 6.9597 18.6357 7.29592L17.3779 7.76133C17.0923 7.86703 16.867 8.09226 16.7613 8.37793L16.2959 9.63568C16.2324 9.80738 16.135 9.94663 16.0165 10.0534C15.9012 10.1573 15.766 10.2305 15.6226 10.273C15.1334 10.418 14.5492 10.2056 14.3384 9.63568L13.8729 8.37793ZM14.9982 16.3385C14.998 16.3386 14.9983 16.3385 14.9982 16.3385L16.2564 15.8729C16.542 15.7672 16.7672 15.542 16.8729 15.2564L17.3384 13.9986C17.6746 13.09 18.9597 13.09 19.2959 13.9986L19.7613 15.2564L18.3545 15.7769L18.3171 15.6758L18.2797 15.7769C18.0221 16.4731 17.4732 17.0221 16.7769 17.2797L16.6758 17.3171L16.7769 17.3546C17.4732 17.6122 18.0221 18.1611 18.2797 18.8574L18.3171 18.9585L18.3545 18.8574C18.6122 18.1611 19.1611 17.6122 19.8574 17.3546L19.9585 17.3171L19.8574 17.2797C19.1611 17.0221 18.6122 16.4732 18.3545 15.7769L19.7613 15.2564C19.867 15.542 20.0923 15.7672 20.3779 15.8729L21.6357 16.3384C22.5443 16.6746 22.5443 17.9597 21.6357 18.2959L20.3779 18.7613C20.0923 18.867 19.867 19.0923 19.7613 19.3779L19.2959 20.6357C18.9597 21.5443 17.6746 21.5443 17.3384 20.6357L16.8729 19.3779C16.7672 19.0923 16.542 18.867 16.2564 18.7613L14.9986 18.2959C14.0901 17.9598 14.09 16.675 14.9982 16.3385ZM18.7451 14.5192C18.745 14.5196 18.7448 14.52 18.7447 14.5204ZM9.32579 18.9617C9.11627 18.8811 8.88373 18.8811 8.67421 18.9617L8.13602 17.5615C8.69198 17.3478 9.30802 17.3478 9.86398 17.5615L9.32579 18.9617ZM15.3171 4.6758L15.2797 4.77691C15.0221 5.47315 14.4732 6.02209 13.7769 6.27973L13.6758 6.31714L13.7769 6.35455C14.4732 6.61218 15.0221 7.16113 15.2797 7.85737L15.3171 7.95848L15.3546 7.85737C15.6122 7.16113 16.1611 6.61218 16.8574 6.35455L16.9585 6.31714L16.8574 6.27973C16.1611 6.02209 15.6122 5.47315 15.3546 4.77691L15.3171 4.6758Z" fill="#363538"/>
</svg>
