<svg width="24" height="24" viewBox="0 0 24 24" fill="none" xmlns="http://www.w3.org/2000/svg">
<path d="M5.07617 2.51988C4.81099 2.20167 4.33807 2.15868 4.01986 2.42385C3.70165 2.68903 3.65866 3.16195 3.92383 3.48016L6.42383 6.48016C6.68901 6.79836 7.16193 6.84136 7.48014 6.57618C7.79835 6.31101 7.84134 5.83809 7.57617 5.51988L5.07617 2.51988Z" fill="#363538"/>
<path d="M20.0762 3.48016C20.3413 3.16195 20.2983 2.68903 19.9801 2.42385C19.6619 2.15868 19.189 2.20167 18.9238 2.51988L16.4238 5.51988C16.1587 5.83809 16.2017 6.31101 16.5199 6.57618C16.8381 6.84136 17.311 6.79836 17.5762 6.48016L20.0762 3.48016Z" fill="#363538"/>
<path d="M5.53033 14.5303C5.82322 14.2375 5.82322 13.7626 5.53033 13.4697C5.23744 13.1768 4.76256 13.1768 4.46967 13.4697L2.46967 15.4697C2.17678 15.7626 2.17678 16.2375 2.46967 16.5303C2.76256 16.8232 3.23744 16.8232 3.53033 16.5303L5.53033 14.5303Z" fill="#363538"/>
<path d="M19.5303 13.4697C19.2374 13.1768 18.7626 13.1768 18.4697 13.4697C18.1768 13.7626 18.1768 14.2375 18.4697 14.5303L20.4697 16.5303C20.7626 16.8232 21.2374 16.8232 21.5303 16.5303C21.8232 16.2375 21.8232 15.7626 21.5303 15.4697L19.5303 13.4697Z" fill="#363538"/>
<path d="M12.75 19C12.75 18.5858 12.4142 18.25 12 18.25C11.5858 18.25 11.25 18.5858 11.25 19V21C11.25 21.4142 11.5858 21.75 12 21.75C12.4142 21.75 12.75 21.4142 12.75 21V19Z" fill="#363538"/>
<path fill-rule="evenodd" clip-rule="evenodd" d="M11.2449 4.79678C11.5981 4.25429 12.4019 4.25429 12.7551 4.79678L14.5645 7.57594C14.686 7.7626 14.8741 7.89744 15.0916 7.95378L18.3299 8.79267C18.962 8.95643 19.2104 9.71053 18.7966 10.2096L16.6765 12.7661C16.5341 12.9378 16.4623 13.156 16.4752 13.3774L16.6672 16.6751C16.7046 17.3188 16.0544 17.7848 15.4455 17.5507L12.3258 16.3516C12.1163 16.271 11.8837 16.271 11.6742 16.3516L8.55455 17.5507C7.94559 17.7848 7.29536 17.3187 7.33284 16.6751L7.52482 13.3774C7.53771 13.156 7.46586 12.9378 7.32347 12.7661L5.20343 10.2096C4.78959 9.71053 5.03796 8.95643 5.67008 8.79267L8.90839 7.95378C9.12589 7.89744 9.31401 7.7626 9.43554 7.57594L11.2449 4.79678ZM10.6926 8.39436L12 6.38624L13.3074 8.39436C13.6352 8.89779 14.139 9.25653 14.7154 9.40585L17.0194 10.0027L15.5219 11.8086C15.1386 12.2708 14.9426 12.8618 14.9777 13.4646L15.1146 15.8166L12.864 14.9515C12.308 14.7378 11.692 14.7378 11.136 14.9515L8.88535 15.8166L9.02228 13.4646C9.05738 12.8618 8.8614 12.2708 8.4781 11.8086L6.98056 10.0027L9.28455 9.40585C9.86096 9.25653 10.3648 8.89779 10.6926 8.39436Z" fill="#363538"/>
</svg>
