<svg width="24" height="24" viewBox="0 0 24 24" fill="none" xmlns="http://www.w3.org/2000/svg">
<path d="M15.122 13.4084C15.3475 13.0609 15.2486 12.5964 14.9011 12.371C14.5536 12.1455 14.0892 12.2444 13.8637 12.5918C13.3671 13.357 12.4805 14.2501 11 14.2501C10.5858 14.2501 10.25 14.5859 10.25 15.0001C10.25 15.4143 10.5858 15.7501 11 15.7501C13.1977 15.7501 14.4861 14.3883 15.122 13.4084Z" fill="#363538"/>
<path d="M10 9.5C10 10.3284 9.32843 11 8.5 11C7.67157 11 7 10.3284 7 9.5C7 8.67157 7.67157 8 8.5 8C9.32843 8 10 8.67157 10 9.5Z" fill="#363538"/>
<path d="M16.6574 7.75821C15.2444 7.03833 13.5154 7.6002 12.7955 9.01318C12.6075 9.38225 12.7542 9.83388 13.1233 10.0219C13.4924 10.2099 13.944 10.0632 14.132 9.69411C14.4758 9.01928 15.3016 8.75094 15.9764 9.09475C16.3455 9.28278 16.7971 9.13602 16.9852 8.76694C17.1732 8.39787 17.0264 7.94624 16.6574 7.75821Z" fill="#363538"/>
<path fill-rule="evenodd" clip-rule="evenodd" d="M9 21.75C6.37665 21.75 4.25 19.6234 4.25 17V7C4.25 4.37665 6.37665 2.25 9 2.25H15C17.6234 2.25 19.75 4.37665 19.75 7V15.3431C19.75 18.8816 16.8816 21.75 13.3431 21.75H9ZM5.75 17C5.75 18.7949 7.20507 20.25 9 20.25H12.3983C11.8827 16.8216 14.8899 13.8839 18.25 14.3851V7C18.25 5.20508 16.7949 3.75 15 3.75H9C7.20507 3.75 5.75 5.20507 5.75 7V17ZM18.2184 15.9029C15.702 15.399 13.3994 17.6445 13.9154 20.217C16.1722 19.9549 17.962 18.1614 18.2184 15.9029Z" fill="#363538"/>
</svg>
