<svg width="24" height="24" viewBox="0 0 24 24" fill="none" xmlns="http://www.w3.org/2000/svg">
<path d="M12.7502 3C12.7502 2.58579 12.4144 2.25 12.0002 2.25C11.586 2.25 11.2502 2.58579 11.2502 3V4C11.2502 4.41421 11.586 4.75 12.0002 4.75C12.4144 4.75 12.7502 4.41421 12.7502 4V3Z" fill="#363538"/>
<path d="M4.37516 6.89048C4.01644 6.68338 3.55775 6.80628 3.35065 7.165C3.14354 7.52372 3.26644 7.98241 3.62516 8.18952L4.49119 8.68952C4.84991 8.89663 5.3086 8.77372 5.51571 8.415C5.72282 8.05628 5.59991 7.59759 5.24119 7.39048L4.37516 6.89048Z" fill="#363538"/>
<path d="M20.3752 8.18952C20.7339 7.98241 20.8568 7.52372 20.6497 7.165C20.4426 6.80628 19.9839 6.68338 19.6252 6.89048L18.7591 7.39048C18.4004 7.59759 18.2775 8.05628 18.4846 8.415C18.6917 8.77372 19.1504 8.89663 19.5091 8.68952L20.3752 8.18952Z" fill="#363538"/>
<path d="M4.33557 13.3292C3.96509 13.1439 3.51459 13.2941 3.32934 13.6646C3.1441 14.0351 3.29427 14.4856 3.66475 14.6708L4.66475 15.1708C5.50541 15.5912 6.49491 15.5912 7.33557 15.1708C7.75394 14.9616 8.24639 14.9616 8.66475 15.1708C9.50541 15.5912 10.4949 15.5912 11.3356 15.1708C11.7539 14.9616 12.2464 14.9616 12.6648 15.1708C13.5054 15.5912 14.4949 15.5912 15.3356 15.1708C15.7539 14.9616 16.2464 14.9616 16.6648 15.1708C17.5054 15.5912 18.4949 15.5912 19.3356 15.1708L20.3356 14.6708C20.7061 14.4856 20.8562 14.0351 20.671 13.6646C20.4857 13.2941 20.0352 13.1439 19.6648 13.3292L18.6648 13.8292C18.2464 14.0384 17.7539 14.0384 17.3356 13.8292C16.4949 13.4088 15.5054 13.4088 14.6648 13.8292C14.2464 14.0384 13.7539 14.0384 13.3356 13.8292C12.4949 13.4088 11.5054 13.4088 10.6648 13.8292C10.2464 14.0384 9.75394 14.0384 9.33557 13.8292C8.49491 13.4088 7.50541 13.4088 6.66475 13.8292C6.24639 14.0384 5.75394 14.0384 5.33557 13.8292L4.33557 13.3292Z" fill="#363538"/>
<path d="M20.3356 17.6708C20.7061 17.4856 20.8562 17.0351 20.671 16.6646C20.4857 16.2941 20.0352 16.1439 19.6648 16.3292L18.6648 16.8292C18.2464 17.0384 17.7539 17.0384 17.3356 16.8292C16.4949 16.4088 15.5054 16.4088 14.6648 16.8292C14.2464 17.0384 13.7539 17.0384 13.3356 16.8292C12.4949 16.4088 11.5054 16.4088 10.6648 16.8292L9.66475 17.3292C9.29427 17.5144 9.1441 17.9649 9.32934 18.3354C9.51459 18.7059 9.96509 18.8561 10.3356 18.6708L11.3356 18.1708C11.7539 17.9616 12.2464 17.9616 12.6648 18.1708C13.5054 18.5912 14.4949 18.5912 15.3356 18.1708C15.7539 17.9616 16.2464 17.9616 16.6648 18.1708C17.5054 18.5912 18.4949 18.5912 19.3356 18.1708L20.3356 17.6708Z" fill="#363538"/>
<path d="M16.5 12C16.5 12.3437 16.4615 12.6784 16.3885 13H17.917C17.9716 12.6748 18 12.3407 18 12C18 8.68629 15.3137 6 12 6C8.68629 6 6 8.68629 6 12C6 12.3407 6.0284 12.6748 6.08296 13H7.61151C7.53853 12.6784 7.5 12.3437 7.5 12C7.5 9.51472 9.51472 7.5 12 7.5C14.4853 7.5 16.5 9.51472 16.5 12Z" fill="#363538"/>
</svg>
