<svg width="24" height="24" viewBox="0 0 24 24" fill="none" xmlns="http://www.w3.org/2000/svg">
<path d="M12 4.75C12.4142 4.75 12.75 5.08579 12.75 5.5V6.5C12.75 6.91421 12.4142 7.25 12 7.25C11.5858 7.25 11.25 6.91421 11.25 6.5V5.5C11.25 5.08579 11.5858 4.75 12 4.75Z" fill="#363538"/>
<path d="M20.6495 9.665C20.8566 10.0237 20.7337 10.4824 20.375 10.6895L19.509 11.1895C19.1503 11.3966 18.6916 11.2737 18.4845 10.915C18.2773 10.5563 18.4003 10.0976 18.759 9.89048L19.625 9.39048C19.9837 9.18337 20.4424 9.30628 20.6495 9.665Z" fill="#363538"/>
<path d="M3.625 10.6895C3.26628 10.4824 3.14337 10.0237 3.35048 9.665C3.55759 9.30628 4.01628 9.18337 4.375 9.39048L5.24103 9.89048C5.59975 10.0976 5.72265 10.5563 5.51554 10.915C5.30844 11.2737 4.84975 11.3966 4.49103 11.1895L3.625 10.6895Z" fill="#363538"/>
<path d="M16.0321 12.5C15.2958 11.0183 13.7668 10 11.9999 10C10.233 10 8.70401 11.0183 7.96766 12.5H6.34131C7.16498 10.1696 9.38746 8.5 11.9999 8.5C14.6123 8.5 16.8348 10.1696 17.6585 12.5H16.0321Z" fill="#363538"/>
<path d="M4.33541 13.3292C3.96493 13.1439 3.51442 13.2941 3.32918 13.6646C3.14394 14.0351 3.29411 14.4856 3.66459 14.6708L4.66459 15.1708C5.50525 15.5912 6.49475 15.5912 7.33541 15.1708C7.75378 14.9616 8.24622 14.9616 8.66459 15.1708C9.50525 15.5912 10.4948 15.5912 11.3354 15.1708C11.7538 14.9616 12.2462 14.9616 12.6646 15.1708C13.5052 15.5912 14.4948 15.5912 15.3354 15.1708C15.7538 14.9616 16.2462 14.9616 16.6646 15.1708C17.5052 15.5912 18.4948 15.5912 19.3354 15.1708L20.3354 14.6708C20.7059 14.4856 20.8561 14.0351 20.6708 13.6646C20.4856 13.2941 20.0351 13.1439 19.6646 13.3292L18.6646 13.8292C18.2462 14.0384 17.7538 14.0384 17.3354 13.8292C16.4948 13.4088 15.5052 13.4088 14.6646 13.8292C14.2462 14.0384 13.7538 14.0384 13.3354 13.8292C12.4948 13.4088 11.5052 13.4088 10.6646 13.8292C10.2462 14.0384 9.75378 14.0384 9.33541 13.8292C8.49475 13.4088 7.50525 13.4088 6.66459 13.8292C6.24622 14.0384 5.75378 14.0384 5.33541 13.8292L4.33541 13.3292Z" fill="#363538"/>
<path d="M14.6708 18.3354C14.8561 17.9649 14.7059 17.5144 14.3354 17.3292L13.3354 16.8292C12.4948 16.4088 11.5052 16.4088 10.6646 16.8292C10.2462 17.0384 9.75378 17.0384 9.33541 16.8292C8.49475 16.4088 7.50525 16.4088 6.66459 16.8292C6.24622 17.0384 5.75378 17.0384 5.33541 16.8292L4.33541 16.3292C3.96493 16.1439 3.51442 16.2941 3.32918 16.6646C3.14394 17.0351 3.29411 17.4856 3.66459 17.6708L4.66459 18.1708C5.50525 18.5912 6.49475 18.5912 7.33541 18.1708C7.75378 17.9616 8.24622 17.9616 8.66459 18.1708C9.50525 18.5912 10.4948 18.5912 11.3354 18.1708C11.7538 17.9616 12.2462 17.9616 12.6646 18.1708L13.6646 18.6708C14.0351 18.8561 14.4856 18.7059 14.6708 18.3354Z" fill="#363538"/>
<path d="M4.33541 19.3292C3.96493 19.1439 3.51442 19.2941 3.32918 19.6646C3.14394 20.0351 3.29411 20.4856 3.66459 20.6708L4.32295 21C5.37868 21.5279 6.62132 21.5279 7.67705 21L8.33541 20.6708C8.70589 20.4856 8.85606 20.0351 8.67082 19.6646C8.48558 19.2941 8.03507 19.1439 7.66459 19.3292L7.00623 19.6584C6.37279 19.9751 5.62721 19.9751 4.99377 19.6584L4.33541 19.3292Z" fill="#363538"/>
</svg>
