<svg width="24" height="24" viewBox="0 0 24 24" fill="none" xmlns="http://www.w3.org/2000/svg">
<path d="M12 2.25C12.4142 2.25 12.75 2.58579 12.75 3V4C12.75 4.41421 12.4142 4.75 12 4.75C11.5858 4.75 11.25 4.41421 11.25 4V3C11.25 2.58579 11.5858 2.25 12 2.25Z" fill="#363538"/>
<path fill-rule="evenodd" clip-rule="evenodd" d="M12 18C15.3137 18 18 15.3137 18 12C18 8.68629 15.3137 6 12 6C8.68629 6 6 8.68629 6 12C6 15.3137 8.68629 18 12 18ZM12 16.5C14.4853 16.5 16.5 14.4853 16.5 12C16.5 9.51472 14.4853 7.5 12 7.5C9.51472 7.5 7.5 9.51472 7.5 12C7.5 14.4853 9.51472 16.5 12 16.5Z" fill="#363538"/>
<path d="M12.75 20C12.75 19.5858 12.4142 19.25 12 19.25C11.5858 19.25 11.25 19.5858 11.25 20V21C11.25 21.4142 11.5858 21.75 12 21.75C12.4142 21.75 12.75 21.4142 12.75 21V20Z" fill="#363538"/>
<path d="M20.6495 7.16501C20.8566 7.52373 20.7337 7.98242 20.375 8.18953L19.509 8.68953C19.1503 8.89663 18.6916 8.77373 18.4845 8.41501C18.2774 8.05629 18.4003 7.5976 18.759 7.39049L19.625 6.89049C19.9837 6.68338 20.4424 6.80629 20.6495 7.16501Z" fill="#363538"/>
<path d="M3.625 8.18953C3.26628 7.98242 3.14338 7.52373 3.35048 7.16501C3.55759 6.80629 4.01628 6.68338 4.375 6.89049L5.24103 7.39049C5.59975 7.5976 5.72265 8.05629 5.51555 8.41501C5.30844 8.77373 4.84975 8.89663 4.49103 8.68953L3.625 8.18953Z" fill="#363538"/>
<path d="M3.35048 16.975C3.14338 16.6163 3.26628 16.1576 3.625 15.9505L4.49103 15.4505C4.84975 15.2434 5.30844 15.3663 5.51555 15.725C5.72265 16.0837 5.59975 16.5424 5.24103 16.7495L4.375 17.2495C4.01628 17.4566 3.55759 17.3337 3.35048 16.975Z" fill="#363538"/>
<path d="M20.375 15.9505C20.7337 16.1576 20.8566 16.6163 20.6495 16.975C20.4424 17.3337 19.9837 17.4566 19.625 17.2495L18.759 16.7495C18.4003 16.5424 18.2774 16.0837 18.4845 15.725C18.6916 15.3663 19.1503 15.2434 19.509 15.4505L20.375 15.9505Z" fill="#363538"/>
</svg>
