<svg width="24" height="24" viewBox="0 0 24 24" fill="none" xmlns="http://www.w3.org/2000/svg">
<path fill-rule="evenodd" clip-rule="evenodd" d="M19.5298 3C19.5298 2.65482 19.2499 2.375 18.9048 2.375C18.5596 2.375 18.2798 2.65482 18.2798 3V3.00532C17.2096 3.11551 16.375 4.01981 16.375 5.11905C16.375 6.21829 17.2096 7.12258 18.2798 7.23277V8.90393C17.8944 8.73611 17.625 8.3519 17.625 7.90476C17.625 7.55958 17.3452 7.27976 17 7.27976C16.6548 7.27976 16.375 7.55958 16.375 7.90476C16.375 9.04823 17.1954 10.0001 18.2798 10.2038V10.2381C18.2798 10.5833 18.5596 10.8631 18.9048 10.8631C19.248 10.8631 19.5266 10.5864 19.5297 10.2438C20.6896 10.2279 21.625 9.28272 21.625 8.11905C21.625 6.95538 20.6896 6.01017 19.5298 5.99425V4.27149C20.0139 4.3823 20.375 4.81564 20.375 5.33333C20.375 5.67851 20.6548 5.95833 21 5.95833C21.3452 5.95833 21.625 5.67851 21.625 5.33333C21.625 4.1238 20.707 3.12866 19.5298 3.00662V3ZM17.625 5.11905C17.625 4.71187 17.9031 4.36965 18.2798 4.272V5.9661C17.9031 5.86845 17.625 5.52623 17.625 5.11905ZM20.375 8.11905C20.375 8.59234 19.9992 8.97786 19.5298 8.99355V7.24454C19.9992 7.26024 20.375 7.64576 20.375 8.11905Z" fill="#363538"/>
<path fill-rule="evenodd" clip-rule="evenodd" d="M2.81818 7.25C1.8184 7.25 1.25 8.18124 1.25 9V19C1.25 19.8188 1.8184 20.75 2.81818 20.75H5.68182C6.6816 20.75 7.25 19.8188 7.25 19V18.707C7.27883 18.6968 7.30735 18.6846 7.33541 18.6706C7.85098 18.4128 8.12488 18.3787 8.36808 18.4024C8.63255 18.4282 8.89967 18.5201 9.3901 18.6888C9.48252 18.7206 9.58292 18.7552 9.69267 18.7925C11.5166 19.4128 14.0002 19.6225 16.3312 19.0999C18.6715 18.5752 20.9446 17.2877 22.1708 14.8357C22.3686 14.4401 22.5218 14.0441 22.541 13.6782C22.5512 13.4829 22.5256 13.2567 22.4121 13.0393C22.2937 12.8126 22.1117 12.6565 21.9141 12.5603C21.567 12.3915 21.166 12.4047 20.8678 12.4361C20.5382 12.4707 20.1588 12.5509 19.7625 12.6459C19.4714 12.7158 19.1606 12.7959 18.8328 12.8804C17.3253 13.2689 15.4587 13.7501 13.4999 13.7502C13.501 13.7502 13.5015 13.7503 13.4999 13.7502C13.4948 13.75 13.4742 13.7489 13.4362 13.7452C13.3914 13.7408 13.3331 13.7336 13.2646 13.7234C13.1272 13.7029 12.9602 13.6717 12.7919 13.6299C12.7497 13.6194 12.7084 13.6085 12.6682 13.5973C13.1275 13.3671 13.9171 13.0729 15.1973 12.7238L15.2842 12.7C16.0301 12.4954 16.7424 11.9452 16.7409 11.1307C16.7401 10.7077 16.5286 10.3398 16.196 10.1017C15.8789 9.87481 15.4806 9.7808 15.0672 9.77786C14.4601 9.77356 13.7776 9.85924 13.1701 9.93548C13.0646 9.94873 12.9612 9.9617 12.861 9.97386C12.1254 10.0631 11.5771 10.1049 11.2221 10.0356C11.1324 10.0181 11.0257 9.97272 10.8449 9.87374C10.8185 9.85924 10.7888 9.84259 10.7564 9.82444C10.6045 9.73919 10.3935 9.62081 10.1792 9.53737C9.29245 9.19209 8.60881 9.03644 7.98759 9.14625C7.70991 9.19533 7.46691 9.29586 7.25 9.41683V9C7.25 8.18124 6.6816 7.25 5.68182 7.25H2.81818ZM8.51368 16.9095C8.08781 16.8679 7.68548 16.9236 7.25 17.0768V11.2071C7.31996 11.1823 7.38741 11.1467 7.44992 11.0998C7.90536 10.7583 8.05175 10.6582 8.24867 10.6233C8.44466 10.5887 8.80183 10.6108 9.63491 10.9351C9.74244 10.977 9.83779 11.0302 9.97945 11.1091C10.0229 11.1333 10.0706 11.1599 10.1245 11.1894C10.3238 11.2985 10.6025 11.4429 10.9346 11.5078C11.5642 11.6307 12.357 11.546 13.0417 11.4629C13.1551 11.4492 13.2671 11.4352 13.3775 11.4214C13.8804 11.3587 14.3519 11.3 14.7802 11.2827C13.1682 11.7235 12.1404 12.123 11.553 12.5083C11.2688 12.6947 10.969 12.9528 10.8406 13.3183C10.6813 13.7718 10.8512 14.1685 11.0809 14.419C11.2803 14.6364 11.5427 14.7746 11.7504 14.8638C11.9727 14.9592 12.2125 15.0316 12.4305 15.0857C12.8496 15.1898 13.2891 15.2502 13.5001 15.2502C15.6704 15.25 17.7627 14.7082 19.2663 14.3188C19.5745 14.239 19.8581 14.1656 20.1125 14.1045C20.4486 14.0239 20.7201 13.9676 20.9347 13.9387C20.9069 14.0036 20.8723 14.0786 20.8292 14.1648C19.863 16.0968 18.0494 17.1774 16.003 17.6362C13.9473 18.0971 11.7442 17.9059 10.1757 17.3724C10.089 17.3429 10.0028 17.313 9.91701 17.2831C9.43681 17.1162 8.97018 16.954 8.51368 16.9095ZM15.2561 11.056C15.2562 11.056 15.2558 11.0566 15.255 11.0578L15.2561 11.056ZM2.75 9C2.75 8.88655 2.78811 8.80692 2.82011 8.76782C2.82722 8.75913 2.83285 8.75351 2.83688 8.75H5.66312C5.66715 8.75351 5.67278 8.75913 5.67989 8.76782C5.71189 8.80692 5.75 8.88655 5.75 9V19C5.75 19.1135 5.71189 19.1931 5.67989 19.2322C5.67278 19.2409 5.66715 19.2465 5.66312 19.25H2.83688C2.83285 19.2465 2.82722 19.2409 2.82011 19.2322C2.78811 19.1931 2.75 19.1135 2.75 19V9Z" fill="#363538"/>
</svg>
