<svg width="24" height="24" viewBox="0 0 24 24" fill="none" xmlns="http://www.w3.org/2000/svg">
<path d="M13.591 10.4089C12.7123 9.53024 11.2877 9.53024 10.409 10.4089C9.53033 11.2876 9.53033 12.7122 10.409 13.5909C11.2877 14.4696 12.7123 14.4696 13.591 13.5909C13.8839 13.298 13.8839 12.8231 13.591 12.5302C13.2981 12.2373 12.8232 12.2373 12.5303 12.5302C12.2374 12.8231 11.7626 12.8231 11.4697 12.5302C11.1768 12.2373 11.1768 11.7625 11.4697 11.4696C11.7626 11.1767 12.2374 11.1767 12.5303 11.4696C12.8232 11.7625 13.2981 11.7625 13.591 11.4696C13.8839 11.1767 13.8839 10.7018 13.591 10.4089Z" fill="#363538"/>
<path fill-rule="evenodd" clip-rule="evenodd" d="M13.0748 7.11615L14.1189 4.40169C14.6382 3.05142 16.4646 2.84893 17.2671 4.05267C17.3196 4.13148 17.4081 4.17881 17.5028 4.17881L17.6893 4.17881C18.8667 4.17881 19.8211 5.13325 19.8211 6.31062V6.49713C19.8211 6.59185 19.8684 6.68031 19.9473 6.73285C21.151 7.53534 20.9485 9.36173 19.5982 9.88106L16.8837 10.9251C17.2363 12.5344 16.7869 14.284 15.5355 15.5354C14.2841 16.7868 12.5345 17.2362 10.9252 16.8836L9.88114 19.5981C9.3618 20.9484 7.53541 21.1508 6.73292 19.9471C6.68038 19.8683 6.59193 19.821 6.49721 19.821H6.31069C5.13333 19.821 4.17889 18.8665 4.17889 17.6892L4.17889 17.5026C4.17889 17.4079 4.13155 17.3195 4.05274 17.2669C2.84901 16.4644 3.05149 14.6381 4.40177 14.1187L7.11625 13.0747C6.76368 11.4654 7.21308 9.71574 8.46447 8.46435C9.71586 7.21296 11.4655 6.76356 13.0748 7.11615ZM17.6893 5.67881C18.0382 5.67881 18.3211 5.96168 18.3211 6.31062V6.49713C18.3211 7.09338 18.6191 7.65018 19.1152 7.98092C19.3064 8.10841 19.2743 8.39854 19.0598 8.48104L16.3459 9.52484C16.1295 9.14536 15.8594 8.78817 15.5355 8.46435C15.2117 8.14054 14.8546 7.87043 14.4751 7.65402L15.5189 4.94016C15.6014 4.72566 15.8915 4.69349 16.019 4.88472C16.3497 5.38082 16.9065 5.67881 17.5028 5.67881L17.6893 5.67881ZM8.46447 15.5354C8.78827 15.8592 9.14545 16.1293 9.52492 16.3458L8.48112 19.0596C8.39862 19.2741 8.10848 19.3063 7.981 19.1151C7.65026 18.619 7.09346 18.321 6.49721 18.321H6.31069C5.96176 18.321 5.67889 18.0381 5.67889 17.6892L5.67889 17.5026C5.67889 16.9064 5.3809 16.3496 4.88479 16.0189C4.69357 15.8914 4.72573 15.6012 4.94024 15.5187L7.65412 14.4749C7.87053 14.8544 8.14065 15.2116 8.46447 15.5354ZM14.4749 14.4748C13.108 15.8416 10.892 15.8416 9.52513 14.4748C8.15829 13.1079 8.15829 10.8918 9.52513 9.52501C10.892 8.15818 13.108 8.15818 14.4749 9.52501C15.8417 10.8918 15.8417 13.1079 14.4749 14.4748Z" fill="#363538"/>
</svg>
