<svg width="24" height="24" viewBox="0 0 24 24" fill="none" xmlns="http://www.w3.org/2000/svg">
<path d="M16.165 18.5791C17.3202 18.0017 18.6798 18.0017 19.835 18.5791L20.585 18.9541C20.9553 19.1393 21.1058 19.5896 20.9209 19.96C20.7473 20.3072 20.3407 20.4608 19.9854 20.3262L19.915 20.2959L19.165 19.9209C18.4319 19.5543 17.5681 19.5543 16.835 19.9209C15.6798 20.4983 14.3202 20.4983 13.165 19.9209C12.4319 19.5543 11.5681 19.5543 10.835 19.9209C9.67977 20.4983 8.32025 20.4983 7.16505 19.9209C6.43193 19.5543 5.56809 19.5543 4.83497 19.9209L4.08497 20.2959C3.71456 20.4808 3.26429 20.3303 3.07911 19.96C2.89417 19.5896 3.0447 19.1393 3.41505 18.9541L4.16505 18.5791C5.32025 18.0017 6.67977 18.0017 7.83497 18.5791C8.56809 18.9457 9.43193 18.9457 10.165 18.5791C11.3202 18.0017 12.6798 18.0017 13.835 18.5791C14.5681 18.9457 15.4319 18.9457 16.165 18.5791Z" fill="#363538"/>
<path fill-rule="evenodd" clip-rule="evenodd" d="M15.5 3.25C15.9142 3.25001 16.25 3.58579 16.25 4V14.5391C17.3866 14.003 18.7078 14.0157 19.835 14.5791L20.585 14.9541C20.9553 15.1393 21.1058 15.5896 20.9209 15.96C20.7473 16.3072 20.3407 16.4608 19.9854 16.3262L19.915 16.2959L19.165 15.9209C18.4319 15.5543 17.5681 15.5543 16.835 15.9209C15.6798 16.4983 14.3202 16.4983 13.165 15.9209C12.4319 15.5543 11.5681 15.5543 10.835 15.9209C9.67977 16.4983 8.32025 16.4983 7.16505 15.9209C6.43193 15.5543 5.56809 15.5543 4.83497 15.9209L4.08497 16.2959C3.71456 16.4808 3.26429 16.3303 3.07911 15.96C2.89417 15.5896 3.0447 15.1393 3.41505 14.9541L4.16505 14.5791C5.29221 14.0157 6.61341 14.003 7.75001 14.5391V4C7.75001 3.58579 8.0858 3.25 8.50001 3.25C8.91421 3.25001 9.25001 3.58579 9.25001 4V7.25H14.75V4C14.75 3.58579 15.0858 3.25 15.5 3.25ZM9.25001 14.8408C9.56464 14.8105 9.87513 14.7241 10.165 14.5791C11.3202 14.0017 12.6798 14.0017 13.835 14.5791C14.1249 14.7241 14.4354 14.8105 14.75 14.8408V12.75H9.25001V14.8408ZM9.25001 11.25H14.75V8.75H9.25001V11.25Z" fill="#363538"/>
</svg>
