<svg width="24" height="24" viewBox="0 0 24 24" fill="none" xmlns="http://www.w3.org/2000/svg">
<path fill-rule="evenodd" clip-rule="evenodd" d="M20.5004 4.75C20.9144 4.75023 21.2504 5.08593 21.2504 5.5V12.5C21.2504 16.2278 18.2281 19.2498 14.5004 19.25H11.7299C11.384 19.8471 10.7401 20.2498 10.0004 20.25C8.89585 20.25 8.00042 19.3546 8.00042 18.25C8.00042 17.1454 8.89585 16.25 10.0004 16.25C10.9319 16.2502 11.7118 16.8879 11.934 17.75H14.5004C17.3997 17.7498 19.7504 15.3994 19.7504 12.5V5.5C19.7504 5.08579 20.0862 4.75 20.5004 4.75ZM10.0004 17.75C9.72428 17.75 9.50042 17.9739 9.50042 18.25C9.50042 18.5261 9.72428 18.75 10.0004 18.75C10.2764 18.7498 10.5004 18.526 10.5004 18.25C10.5004 17.974 10.2764 17.7502 10.0004 17.75Z" fill="#363538"/>
<path fill-rule="evenodd" clip-rule="evenodd" d="M12.9243 5.9541C15.4729 5.81956 17.6812 7.70485 17.9477 10.2432L18.0444 11.167C18.1983 12.6345 17.4107 14.0402 16.0785 14.6748C15.2197 15.0838 14.2302 15.1236 13.3412 14.7852L11.5873 14.1172C11.2403 13.985 10.8718 13.917 10.5004 13.917C10.129 13.917 9.76058 13.985 9.41351 14.1172L7.6596 14.7852C6.77067 15.1237 5.78116 15.0837 4.9223 14.6748C3.58997 14.0403 2.80255 12.6346 2.95648 11.167L3.05316 10.2432C3.31972 7.70473 5.52778 5.81933 8.0766 5.9541L10.5004 6.08203L12.9243 5.9541ZM13.0034 7.45215L10.5405 7.58203C10.5142 7.58342 10.4867 7.58341 10.4604 7.58203L7.99749 7.45215C6.24576 7.35947 4.72855 8.65483 4.54535 10.3994L4.44769 11.3232C4.35999 12.1589 4.80921 12.9591 5.56781 13.3203C6.05664 13.5529 6.61951 13.5755 7.12542 13.3828L8.87933 12.7148C9.39693 12.5177 9.94656 12.417 10.5004 12.417C11.0543 12.417 11.6039 12.5177 12.1215 12.7148L13.8754 13.3828C14.3814 13.5754 14.9442 13.553 15.433 13.3203C16.1914 12.959 16.6408 12.1587 16.5532 11.3232L16.4555 10.3994C16.2723 8.65495 14.7549 7.3597 13.0034 7.45215Z" fill="#363538"/>
</svg>
