<svg width="24" height="24" viewBox="0 0 24 24" fill="none" xmlns="http://www.w3.org/2000/svg">
<path fill-rule="evenodd" clip-rule="evenodd" d="M14 12.0002C14 14.2094 12.2091 16.0002 10 16.0002C7.79086 16.0002 6 14.2094 6 12.0002C6 9.79111 7.79086 8.00024 10 8.00024C12.2091 8.00024 14 9.79111 14 12.0002ZM12.5 12.0002C12.5 13.381 11.3807 14.5002 10 14.5002C8.61929 14.5002 7.5 13.381 7.5 12.0002C7.5 10.6195 8.61929 9.50024 10 9.50024C11.3807 9.50024 12.5 10.6195 12.5 12.0002Z" fill="#363538"/>
<path fill-rule="evenodd" clip-rule="evenodd" d="M14 5.00024H10C6.13401 5.00024 3 8.13425 3 12.0002C3 15.8662 6.13401 19.0002 10 19.0002H14C17.866 19.0002 21 15.8662 21 12.0002C21 8.13425 17.866 5.00024 14 5.00024ZM10 6.50024H14C17.0376 6.50024 19.5 8.96268 19.5 12.0002C19.5 15.0378 17.0376 17.5002 14 17.5002H10C6.96243 17.5002 4.5 15.0378 4.5 12.0002C4.5 8.96268 6.96243 6.50024 10 6.50024Z" fill="#363538"/>
</svg>
