<svg width="24" height="24" viewBox="0 0 24 24" fill="none" xmlns="http://www.w3.org/2000/svg">
<path fill-rule="evenodd" clip-rule="evenodd" d="M12.1768 3.23729C12.0791 3.13965 11.9209 3.13965 11.8232 3.23729L9.88698 5.17353C9.8309 5.22961 9.80476 5.30896 9.81652 5.38739L11.1459 14.2498H12.8541L14.1835 5.38739C14.1952 5.30896 14.1691 5.22961 14.113 5.17353L12.1768 3.23729ZM14.3709 14.2498L15.6669 5.6099C15.7492 5.06091 15.5662 4.50541 15.1737 4.11287L13.2374 2.17663C12.554 1.49321 11.446 1.49321 10.7626 2.17663L8.82632 4.11287C8.43378 4.50541 8.25077 5.06091 8.33312 5.6099L9.62911 14.2498H9.0001C8.0336 14.2498 7.2501 15.0333 7.2501 15.9998C7.2501 16.9663 8.0336 17.7498 9.0001 17.7498H9.5C9.63807 17.7498 9.75 17.8618 9.75 17.9998V20.4998C9.75 21.4663 10.5335 22.2498 11.5 22.2498H12.5C13.4665 22.2498 14.25 21.4663 14.25 20.4998V17.9998C14.25 17.8618 14.3619 17.7498 14.5 17.7498H15C15.9665 17.7498 16.75 16.9663 16.75 15.9998C16.75 15.0333 15.9665 14.2498 15 14.2498H14.3709ZM15.25 15.9998C15.25 15.8618 15.1381 15.7498 15 15.7498H9.0001C8.86203 15.7498 8.7501 15.8618 8.7501 15.9998C8.7501 16.1379 8.86203 16.2498 9.0001 16.2498H9.5C10.4665 16.2498 11.25 17.0334 11.25 17.9998V20.4998C11.25 20.6379 11.3619 20.7498 11.5 20.7498H12.5C12.6381 20.7498 12.75 20.6379 12.75 20.4998V17.9998C12.75 17.0334 13.5335 16.2498 14.5 16.2498H15C15.1381 16.2498 15.25 16.1379 15.25 15.9998Z" fill="#363538"/>
</svg>
