<svg width="24" height="24" viewBox="0 0 24 24" fill="none" xmlns="http://www.w3.org/2000/svg">
<path fill-rule="evenodd" clip-rule="evenodd" d="M14.7788 10.5338L15.6423 12.7293L16.1871 12.4148C17.0241 11.9315 18.0944 12.2183 18.5776 13.0553C19.0609 13.8923 18.7741 14.9626 17.9371 15.4459L17.5041 15.6959C17.3845 15.7649 17.3435 15.9178 17.4126 16.0374L18.6626 18.2024C19.1458 19.0394 18.859 20.1097 18.022 20.593L17.156 21.093C16.319 21.5762 15.2487 21.2894 14.7655 20.4524L13.5155 18.2874C13.4464 18.1678 13.2935 18.1268 13.174 18.1959L12.741 18.4458C12.2987 18.7012 11.7911 18.7415 11.3396 18.5992C10.8877 18.7419 10.3798 18.7017 9.93714 18.4461L9.50413 18.1961C9.38456 18.1271 9.23166 18.168 9.16262 18.2876L7.91262 20.4527C7.42938 21.2897 6.35909 21.5765 5.52208 21.0932L4.65605 20.5932C3.81904 20.11 3.53226 19.0397 4.01551 18.2027L5.26551 16.0376C5.33455 15.918 5.29358 15.7651 5.174 15.6961L4.74108 15.4462C3.90407 14.9629 3.61728 13.8926 4.10053 13.0556C4.58378 12.2186 5.65407 11.9318 6.49108 12.4151L7.03582 12.7296L7.89942 10.5337L6.09343 8.2658C5.74761 7.83153 5.62836 7.25895 5.77204 6.72273L6.48075 4.07777C6.7309 3.14421 7.69049 2.59019 8.62405 2.84034L11.269 3.54905C11.2927 3.5554 11.3162 3.56222 11.3394 3.56951C11.3624 3.56231 11.3857 3.55557 11.4091 3.5493L14.054 2.84059C14.9876 2.59044 15.9472 3.14446 16.1973 4.07802L16.906 6.72298C17.0497 7.2592 16.9305 7.83178 16.5847 8.26605L14.7788 10.5338ZM7.92964 4.466C7.96537 4.33264 8.10246 4.25349 8.23583 4.28923L10.8808 4.99794C10.9574 5.01847 11.0197 5.07412 11.0487 5.14792L14.3287 13.4877L12.8493 14.3418L7.26684 7.3314C7.21744 7.26936 7.2004 7.18756 7.22092 7.11096L7.92964 4.466ZM14.1449 8.92195L15.4112 7.33165C15.4606 7.26961 15.4777 7.18781 15.4572 7.11121L14.7484 4.46625C14.7127 4.33288 14.5756 4.25374 14.4423 4.28947L12.525 4.8032L14.1449 8.92195ZM10.1189 16.8266C10.1297 16.6483 10.1676 16.4728 10.231 16.3063L5.74108 13.7141C5.62151 13.6451 5.46861 13.686 5.39957 13.8056C5.33054 13.9252 5.37151 14.0781 5.49108 14.1471L5.924 14.3971C6.76102 14.8803 7.0478 15.9506 6.56455 16.7876L5.31455 18.9527C5.24551 19.0723 5.28648 19.2252 5.40605 19.2942L6.27208 19.7942C6.39165 19.8632 6.54455 19.8223 6.61359 19.7027L7.86359 17.5376C8.32117 16.7451 9.30508 16.4458 10.1189 16.8266ZM11.3388 15.2139L11.5358 15.1002L11.3391 14.8533L11.1423 15.1005L11.3388 15.2139ZM10.3804 13.6493L8.97837 11.8887L8.34939 13.488L9.82875 14.3421L10.3804 13.6493ZM16.9371 13.7138C17.0567 13.6448 17.2096 13.6857 17.2786 13.8053C17.3476 13.9249 17.3067 14.0778 17.1871 14.1468L16.7541 14.3968C15.9171 14.8801 15.6303 15.9504 16.1135 16.7874L17.3635 18.9524C17.4326 19.072 17.3916 19.2249 17.272 19.2939L16.406 19.7939C16.2864 19.863 16.1335 19.822 16.0645 19.7024L14.8145 17.5374C14.3312 16.7004 13.261 16.4136 12.424 16.8968L11.991 17.1468C11.8715 17.2158 11.7186 17.1748 11.6495 17.0553C11.5805 16.9357 11.6215 16.7828 11.741 16.7138L16.9371 13.7138Z" fill="#363538"/>
</svg>
