<svg width="24" height="24" viewBox="0 0 24 24" fill="none" xmlns="http://www.w3.org/2000/svg">
<path fill-rule="evenodd" clip-rule="evenodd" d="M19.75 12.3458V6.95004C19.75 5.80365 19.0389 4.77777 17.9656 4.37529L11.9656 2.12529C11.343 1.89183 10.657 1.89183 10.0344 2.12529L4.03441 4.37529C2.96114 4.77777 2.25 5.80365 2.25 6.95003L2.25 12.5642C2.25001 14.6663 3.70195 16.6348 5.23473 18.1562C6.80226 19.712 8.62746 20.9684 9.69317 21.6471C10.4877 22.1531 11.4869 22.1786 12.3054 21.7005C13.2728 21.1355 14.8463 20.131 16.2932 18.8176C16.3151 18.8296 16.3356 18.845 16.3538 18.8639L18.087 20.6655C18.7571 21.3621 19.8649 21.3835 20.5614 20.7134L21.2821 20.0201C21.9786 19.3501 22 18.2422 21.33 17.5457L19.5967 15.7441C19.501 15.6446 19.5041 15.4863 19.6036 15.3906L19.9639 15.0439C20.6604 14.3739 20.6818 13.266 20.0118 12.5695C19.9305 12.485 19.8427 12.4104 19.75 12.3458ZM11.4389 3.52978C11.1559 3.42367 10.8441 3.42367 10.5611 3.52978L4.56109 5.77979C4.07315 5.96276 3.75 6.42905 3.75 6.95004L3.75 12.5642C3.75001 14.0206 4.79948 15.6107 6.29142 17.0916C7.7486 18.5379 9.47143 19.7275 10.499 20.3819C10.8244 20.5892 11.2207 20.597 11.5488 20.4053C12.0206 20.1297 12.6348 19.7493 13.3004 19.282C13.2538 19.2428 13.2088 19.2007 13.1656 19.1558C12.4956 18.4593 12.517 17.3514 13.2135 16.6814L13.6668 16.2453L6.74282 10.9174C6.30286 10.5788 6.04962 10.0516 6.06036 9.49658L6.11334 6.75883C6.13204 5.79251 6.93055 5.02431 7.89687 5.04301L10.6346 5.09599C11.1896 5.10673 11.7067 5.38017 12.0279 5.8329L17.084 12.9578L17.5374 12.5217C17.7457 12.3212 17.9908 12.1827 18.25 12.1056V6.95004C18.25 6.42905 17.9269 5.96276 17.4389 5.77978L11.4389 3.52978ZM7.61306 6.78785C7.61573 6.6498 7.7298 6.54006 7.86785 6.54273L10.6056 6.59571C10.6849 6.59724 10.7587 6.6363 10.8046 6.70098L15.9909 14.0094L14.7599 15.1937L7.65758 9.72856C7.59472 9.6802 7.55855 9.60489 7.56008 9.5256L7.61306 6.78785ZM18.5773 13.6026C18.6768 13.5069 18.8351 13.51 18.9308 13.6095C19.0265 13.709 19.0235 13.8672 18.924 13.963L18.5636 14.3096C17.8671 14.9797 17.8457 16.0875 18.5157 16.784L20.249 18.5857C20.3447 18.6852 20.3416 18.8434 20.2421 18.9391L19.5215 19.6324C19.422 19.7282 19.2637 19.7251 19.168 19.6256L17.4348 17.824C16.7647 17.1275 15.6569 17.106 14.9604 17.7761L14.6001 18.1227C14.5006 18.2184 14.3423 18.2153 14.2466 18.1158C14.1509 18.0163 14.1539 17.8581 14.2535 17.7623L18.5773 13.6026Z" fill="#363538"/>
</svg>
