<svg width="24" height="24" viewBox="0 0 24 24" fill="none" xmlns="http://www.w3.org/2000/svg">
<path fill-rule="evenodd" clip-rule="evenodd" d="M17.8336 1.9267C17.5407 1.63381 17.0658 1.63381 16.7729 1.9267C16.48 2.21959 16.48 2.69447 16.7729 2.98736L18.3639 4.57835L17.3032 5.63901L16.4194 4.75513C15.3454 3.68119 13.6042 3.68119 12.5303 4.75513L9.7068 7.57859C9.70513 7.58024 9.70345 7.5819 9.70179 7.58356C9.70012 7.58523 9.69847 7.5869 9.69682 7.58858L7.58548 9.69991C7.58381 9.70156 7.58213 9.70322 7.58047 9.70488C7.5788 9.70655 7.57715 9.70822 7.5755 9.7099L6.87341 10.412C5.81622 11.4692 5.31847 12.9624 5.52991 14.4425L5.90114 17.0411L4.04499 18.8973C3.75209 19.1902 3.75209 19.665 4.04499 19.9579C4.33788 20.2508 4.81275 20.2508 5.10565 19.9579L6.9618 18.1018L9.56042 18.473C11.0405 18.6844 12.5337 18.1867 13.5909 17.1295L19.2478 11.4726C20.3217 10.3987 20.3217 8.6575 19.2478 7.58356L18.3639 6.69967L19.4246 5.63901L21.0155 7.23C21.3084 7.5229 21.7833 7.5229 22.0762 7.23C22.3691 6.93711 22.3691 6.46223 22.0762 6.16934L17.8336 1.9267ZM8.11082 11.2959L7.93407 11.4726C7.21073 12.196 6.87017 13.2177 7.01484 14.2304L7.35955 16.6434L9.77255 16.9881C10.7852 17.1327 11.8069 16.7922 12.5303 16.0688L18.1871 10.412C18.6753 9.92383 18.6753 9.13237 18.1871 8.64422L15.3587 5.81579C14.8705 5.32763 14.0791 5.32763 13.5909 5.81579L11.2928 8.11391L12.1767 8.99778C12.4696 9.29067 12.4696 9.76554 12.1767 10.0584C11.8838 10.3513 11.4089 10.3513 11.116 10.0584L10.2321 9.17458L9.17148 10.2352L10.0553 11.1191C10.3482 11.412 10.3482 11.8869 10.0553 12.1798C9.76245 12.4726 9.28758 12.4726 8.99468 12.1798L8.11082 11.2959Z" fill="#363538"/>
</svg>
