<svg width="24" height="24" viewBox="0 0 24 24" fill="none" xmlns="http://www.w3.org/2000/svg">
<path d="M5 13C5.55228 13 6 12.5523 6 12C6 11.4477 5.55228 11 5 11C4.44772 11 4 11.4477 4 12C4 12.5523 4.44772 13 5 13Z" fill="#363538"/>
<path fill-rule="evenodd" clip-rule="evenodd" d="M2 7C2 4.79086 3.79086 3 6 3H18C20.2091 3 22 4.79086 22 7V17C22 19.2091 20.2091 21 18 21H6C3.79086 21 2 19.2091 2 17V7ZM6 4.5H18C19.3807 4.5 20.5 5.61929 20.5 7V17C20.5 18.3807 19.3807 19.5 18 19.5H6C4.61929 19.5 3.5 18.3807 3.5 17V7C3.5 5.61929 4.61929 4.5 6 4.5Z" fill="#363538"/>
</svg>
