<svg width="24" height="24" viewBox="0 0 24 24" fill="none" xmlns="http://www.w3.org/2000/svg">
<path fill-rule="evenodd" clip-rule="evenodd" d="M21.4161 7.10765C20.4036 3.32888 16.4906 1.11339 12.7294 2.18936C9.05669 3.24001 6.90451 7.04118 7.89317 10.7311L8.26646 12.1242C8.51637 13.0569 8.93958 13.9178 9.50113 14.6696C10.4012 15.8745 11.657 16.7994 13.1249 17.2913L13.5213 17.4241C13.8809 17.5446 14.1562 17.8374 14.2544 18.2038L14.7694 20.1259C15.1625 21.5929 16.6704 22.4635 18.1374 22.0704C19.6045 21.6773 20.4751 20.1694 20.082 18.7023L19.5752 16.8109C19.4696 16.4167 19.563 15.9958 19.8255 15.6834L20.3276 15.0856C21.2368 14.0034 21.7987 12.6982 21.9767 11.3353C22.0989 10.4001 22.0404 9.43741 21.7894 8.50078L21.4161 7.10765ZM13.142 3.63151C16.0972 2.7861 19.1717 4.52685 19.9673 7.49588L20.3405 8.88901C20.4962 9.47006 20.5587 10.0635 20.5324 10.6494L10.4204 13.3589C10.1103 12.8622 9.87091 12.3166 9.71535 11.736L9.34207 10.3428C8.56526 7.44365 10.2563 4.45702 13.142 3.63151ZM11.4813 14.6276L20.2195 12.2862C19.9909 12.9474 19.6415 13.5704 19.1791 14.1208L18.677 14.7185C18.0995 15.406 17.8939 16.332 18.1263 17.1992L18.6331 19.0906C18.8118 19.7574 18.4161 20.4428 17.7492 20.6215C17.0824 20.8002 16.397 20.4045 16.2183 19.7376L15.7033 17.8156C15.4749 16.9633 14.8345 16.2822 13.9979 16.0019L13.6015 15.869C12.8047 15.602 12.086 15.1755 11.4813 14.6276Z" fill="#363538"/>
<path fill-rule="evenodd" clip-rule="evenodd" d="M6 14.25C3.92893 14.25 2.25 15.9289 2.25 18C2.25 20.071 3.92893 21.75 6 21.75C8.07107 21.75 9.75 20.071 9.75 18C9.75 15.9289 8.07107 14.25 6 14.25ZM3.75 18C3.75 16.7573 4.75736 15.75 6 15.75C7.24264 15.75 8.25 16.7573 8.25 18C8.25 19.2426 7.24264 20.25 6 20.25C4.75736 20.25 3.75 19.2426 3.75 18Z" fill="#363538"/>
</svg>
