<svg width="24" height="24" viewBox="0 0 24 24" fill="none" xmlns="http://www.w3.org/2000/svg">
<path fill-rule="evenodd" clip-rule="evenodd" d="M3.25 8C3.25 6.48122 4.48122 5.25 6 5.25H18C19.5188 5.25 20.75 6.48122 20.75 8C20.75 9.22185 19.9531 10.2576 18.8508 10.6159L20.2417 19.8887C20.3032 20.2984 20.0209 20.6803 19.6113 20.7417C19.2016 20.8031 18.8197 20.5209 18.7583 20.1113L17.3541 10.75H6.14589L4.74171 20.1113C4.68026 20.5209 4.29838 20.8031 3.88875 20.7417C3.47912 20.6803 3.19686 20.2984 3.2583 19.8887L4.67968 10.4129C3.82764 9.94568 3.25 9.0403 3.25 8ZM18.0104 9.24996C18.0031 9.24987 17.9959 9.24988 17.9886 9.25H6C5.30965 9.25 4.75 8.69036 4.75 8C4.75 7.30964 5.30965 6.75 6 6.75H18C18.6904 6.75 19.25 7.30964 19.25 8C19.25 8.68689 18.696 9.24438 18.0104 9.24996Z" fill="#363538"/>
</svg>
