<svg width="24" height="24" viewBox="0 0 24 24" fill="none" xmlns="http://www.w3.org/2000/svg">
<path fill-rule="evenodd" clip-rule="evenodd" d="M7 3.75C5.20507 3.75 3.75 5.20507 3.75 7V8.25H8.25V3.75H7ZM9.75 3.75V8.25H14.25V3.75H9.75ZM15.75 3.75V8.25H20.25V7C20.25 5.20507 18.7949 3.75 17 3.75H15.75ZM20.25 9.75H15.75V14.25H20.25V9.75ZM20.25 15.75H15.75V20.25H17C18.7949 20.25 20.25 18.7949 20.25 17V15.75ZM14.25 20.25V15.75H9.75V20.25H14.25ZM8.25 20.25V15.75H3.75V17C3.75 18.7949 5.20507 20.25 7 20.25H8.25ZM3.75 14.25H8.25V9.75H3.75V14.25ZM9.75 9.75V14.25H14.25V9.75H9.75ZM2.25 7C2.25 4.37665 4.37665 2.25 7 2.25H17C19.6234 2.25 21.75 4.37665 21.75 7V17C21.75 19.6234 19.6234 21.75 17 21.75H7C4.37665 21.75 2.25 19.6234 2.25 17V7Z" fill="#363538"/>
</svg>
