<svg width="24" height="24" viewBox="0 0 24 24" fill="none" xmlns="http://www.w3.org/2000/svg">
<path d="M12 20C12.5523 20 13 19.5523 13 19C13 18.4477 12.5523 18 12 18C11.4477 18 11 18.4477 11 19C11 19.5523 11.4477 20 12 20Z" fill="#363538"/>
<path fill-rule="evenodd" clip-rule="evenodd" d="M3 6C3 3.79086 4.79086 2 7 2H17C19.2091 2 21 3.79086 21 6V18C21 20.2091 19.2091 22 17 22H7C4.79086 22 3 20.2091 3 18V6ZM4.5 6C4.5 4.61929 5.61929 3.5 7 3.5H17C18.3807 3.5 19.5 4.61929 19.5 6V18C19.5 19.3807 18.3807 20.5 17 20.5H7C5.61929 20.5 4.5 19.3807 4.5 18V6Z" fill="#363538"/>
</svg>
