<svg width="24" height="24" viewBox="0 0 24 24" fill="none" xmlns="http://www.w3.org/2000/svg">
<path d="M9 14C9 14.5523 8.55228 15 8 15C7.44771 15 7 14.5523 7 14C7 13.4477 7.44771 13 8 13C8.55228 13 9 13.4477 9 14Z" fill="#363538"/>
<path d="M12 12.25C11.5858 12.25 11.25 12.5858 11.25 13C11.25 13.4142 11.5858 13.75 12 13.75C12.9327 13.75 13.5928 13.8659 14.1812 14.0798C14.7804 14.2977 15.3439 14.6307 16.084 15.124C16.4286 15.3538 16.8943 15.2606 17.124 14.916C17.3538 14.5713 17.2607 14.1057 16.916 13.8759C16.1561 13.3693 15.4696 12.9522 14.6938 12.6702C13.9072 12.3841 13.0673 12.25 12 12.25Z" fill="#363538"/>
<path fill-rule="evenodd" clip-rule="evenodd" d="M11.4697 7.96969C11.6588 7.78057 11.9343 7.70647 12.1927 7.77521L15.1927 8.57301C15.3416 8.61259 15.4733 8.69662 15.5714 8.81206L17.3954 8.55515C17.656 8.51844 17.9167 8.62099 18.0825 8.82536L19.3903 10.4378C19.4666 10.5318 19.5185 10.6422 19.5425 10.7593C19.7888 10.7201 20.0462 10.8054 20.2204 11.0005L21.5595 12.5005C21.8135 12.7851 21.8135 13.215 21.5595 13.4995L20.5832 14.593C21.0145 15.3806 21.2912 16.1259 21.4652 16.7046C21.5704 17.0542 21.6389 17.346 21.6816 17.5535C21.703 17.6573 21.7179 17.7404 21.7277 17.7993C21.7327 17.8287 21.7363 17.8522 21.7389 17.8693L21.7419 17.89L21.7429 17.8967L21.7432 17.8991L21.7434 17.9005C21.7434 17.9007 21.7434 17.9009 21 18L21.7434 17.9005C21.7719 18.1148 21.7067 18.3314 21.5643 18.4941C21.4219 18.6567 21.2162 18.75 21 18.75H3C2.7838 18.75 2.57812 18.6567 2.43571 18.4941C2.2933 18.3314 2.228 18.1152 2.25658 17.9009L3 18C2.25658 17.9009 2.25655 17.9011 2.25658 17.9009L2.25684 17.8989L2.25721 17.8962L2.25829 17.8885L2.26184 17.8643C2.26486 17.8444 2.26922 17.8168 2.27513 17.7822C2.28694 17.7129 2.30499 17.6152 2.33101 17.4933C2.38298 17.2498 2.46707 16.9083 2.59743 16.5032C2.83146 15.776 3.21868 14.8312 3.84652 13.8784L3.2856 12.1235C3.18336 11.8036 3.30622 11.4547 3.58634 11.2695L5.26052 10.1626C5.21036 9.86706 5.34138 9.56777 5.59677 9.40493L6.59677 8.76729C6.78449 8.64759 7.01569 8.61748 7.22781 8.68511L8.00306 8.93227C8.01603 8.78937 8.0699 8.65138 8.1608 8.53596C8.30301 8.3554 8.52016 8.25002 8.75 8.25002H11.1893L11.4697 7.96969ZM10.4681 9.75002H9.70223L9.72912 9.86158C9.7367 9.89302 9.74223 9.9249 9.74568 9.957C9.96995 9.9136 10.2003 9.87659 10.4369 9.84639L10.4681 9.75002ZM12.0451 9.75009C12.7418 9.75242 13.3928 9.80862 14.0009 9.91115L14.0329 9.8167L12.2248 9.33587L12.1578 9.40291L12.0451 9.75009ZM15.6154 10.3207C15.7828 10.3787 15.946 10.4406 16.105 10.5061L16.2327 10.2337L15.6154 10.3207ZM17.6711 10.6993L17.4395 11.1931C17.6421 11.3206 17.8355 11.454 18.0201 11.5924L18.0579 11.5703V11.1762L17.6711 10.6993ZM19.1888 12.6461C19.3853 12.8577 19.5669 13.0736 19.7347 13.2912L19.9946 13L19.5104 12.4576L19.1888 12.6461ZM7.94159 10.4871L7.10695 10.221L6.85305 10.3829L6.986 10.9421C7.28623 10.7763 7.60446 10.6237 7.94159 10.4871ZM5.65889 11.8451L5.62854 11.7175L4.88725 12.2076L4.97307 12.4761C5.18503 12.2594 5.41324 12.0481 5.65889 11.8451ZM3.93786 17.25H20.0621C20.0515 17.2131 20.0404 17.1753 20.0288 17.1365C19.8467 16.5309 19.536 15.7201 19.0238 14.8958C18.6313 14.264 18.1235 13.629 17.4685 13.0709C17.0763 12.7369 16.6301 12.4293 16.122 12.1658C15.5967 11.8935 15.0018 11.6665 14.3271 11.5066C13.6411 11.344 12.8691 11.25 12 11.25C11.674 11.25 11.3618 11.2632 11.0627 11.2883C10.3816 11.3455 9.76765 11.4642 9.21403 11.6291C8.31571 11.8965 7.56779 12.2879 6.94321 12.7455C6.25783 13.2475 5.7138 13.8346 5.28249 14.4368C4.63958 15.3343 4.25185 16.2588 4.02531 16.9627C3.99285 17.0636 3.9638 17.1596 3.93786 17.25Z" fill="#363538"/>
</svg>
