<svg width="24" height="24" viewBox="0 0 24 24" fill="none" xmlns="http://www.w3.org/2000/svg">
<path fill-rule="evenodd" clip-rule="evenodd" d="M9.5 13C11.433 13 13 11.433 13 9.5C13 7.567 11.433 6 9.5 6C7.567 6 6 7.567 6 9.5C6 11.433 7.567 13 9.5 13ZM9.5 11.5C10.6046 11.5 11.5 10.6046 11.5 9.5C11.5 8.39543 10.6046 7.5 9.5 7.5C8.39543 7.5 7.5 8.39543 7.5 9.5C7.5 10.6046 8.39543 11.5 9.5 11.5Z" fill="#363538"/>
<path d="M13.5303 17.5303L17.5303 13.5303C17.8232 13.2374 17.8232 12.7626 17.5303 12.4697C17.2374 12.1768 16.7626 12.1768 16.4697 12.4697L12.4697 16.4697C12.1768 16.7626 12.1768 17.2374 12.4697 17.5303C12.7626 17.8232 13.2374 17.8232 13.5303 17.5303Z" fill="#363538"/>
<path fill-rule="evenodd" clip-rule="evenodd" d="M6.3599 2H11.5981C12.7953 2 13.9398 2.49251 14.7632 3.36198L20.8052 9.74236C22.4596 11.4894 22.387 14.2469 20.643 15.9044L15.4914 20.8005C13.744 22.4613 10.9811 22.3885 9.32343 20.638L3.19482 14.1662C2.42761 13.356 2 12.2824 2 11.1664V6.36177C2 3.95283 3.952 2 6.3599 2ZM11.5981 3.5H6.3599C4.78103 3.5 3.5 4.78065 3.5 6.36177V11.1664C3.5 11.8988 3.78064 12.6032 4.28397 13.1348L10.4126 19.6066C11.4999 20.7548 13.3119 20.8025 14.458 19.7132L19.6096 14.8171C20.7539 13.7296 20.8016 11.9201 19.716 10.7737L13.674 4.39337C13.1339 3.82297 12.3832 3.5 11.5981 3.5Z" fill="#363538"/>
</svg>
