<svg width="24" height="24" viewBox="0 0 24 24" fill="none" xmlns="http://www.w3.org/2000/svg">
<path d="M12 2.00024C17.5228 2.00024 22 6.4774 22 12.0002C22 12.4145 21.6642 12.7502 21.25 12.7502C20.8358 12.7502 20.5 12.4145 20.5 12.0002C20.5 7.30582 16.6944 3.50024 12 3.50024C7.30558 3.50024 3.5 7.30582 3.5 12.0002C3.5 16.6947 7.30558 20.5002 12 20.5002C12.6321 20.5002 13.2475 20.4314 13.8389 20.301C14.2433 20.2121 14.6433 20.4679 14.7324 20.8723C14.8214 21.2767 14.5655 21.6767 14.1611 21.7659C13.4645 21.9194 12.7413 22.0002 12 22.0002C6.47715 22.0002 2 17.5231 2 12.0002C2 6.4774 6.47715 2.00024 12 2.00024Z" fill="#363538"/>
<path fill-rule="evenodd" clip-rule="evenodd" d="M16.1797 13.0979L16.3779 13.1448L21.1543 14.6379C22.4976 15.0577 22.5157 16.9526 21.1807 17.3977L19.1064 18.0881L18.4902 20.1448C18.0608 21.5753 16.0096 21.5004 15.6855 20.0422L14.5303 14.844C14.3035 13.8236 15.1909 12.9312 16.1797 13.0979ZM17.1074 19.5295L17.6768 17.6331L17.7373 17.468C17.9006 17.0946 18.2157 16.8047 18.6074 16.6741L20.5576 16.0227L16.0117 14.6018L17.1074 19.5295Z" fill="#363538"/>
<path d="M12 5.25024C15.7279 5.25024 18.75 8.27232 18.75 12.0002C18.75 12.4145 18.4142 12.7502 18 12.7502C17.5858 12.7502 17.25 12.4145 17.25 12.0002C17.25 9.10075 14.8995 6.75024 12 6.75024C9.10051 6.75024 6.75 9.10075 6.75 12.0002C6.75 14.8997 9.10051 17.2502 12 17.2502C12.4544 17.2502 12.8946 17.193 13.3135 17.0852L13.3887 17.0696C13.7644 17.0127 14.1298 17.2483 14.2266 17.6243C14.3298 18.0254 14.0876 18.4341 13.6865 18.5374L13.2773 18.6292C12.8632 18.7085 12.4362 18.7502 12 18.7502C8.27208 18.7502 5.25 15.7282 5.25 12.0002C5.25 8.27232 8.27208 5.25024 12 5.25024Z" fill="#363538"/>
<path d="M12 8.25024C13.5319 8.25024 14.8474 9.16854 15.4297 10.4827L15.5361 10.7502L15.5586 10.8235C15.6486 11.193 15.4453 11.5778 15.0791 11.7073C14.7131 11.8366 14.3137 11.6651 14.1514 11.3215L14.1221 11.2502L14.0586 11.0891C13.7086 10.2995 12.9174 9.75024 12 9.75024C10.7574 9.75024 9.75 10.7576 9.75 12.0002C9.75 13.2429 10.7574 14.2502 12 14.2502C12.2643 14.2502 12.5164 14.2049 12.75 14.1223C13.1405 13.9843 13.5689 14.189 13.707 14.5793C13.845 14.9698 13.6404 15.3983 13.25 15.5364C12.8581 15.6749 12.437 15.7502 12 15.7502C9.92893 15.7502 8.25 14.0713 8.25 12.0002C8.25 9.92918 9.92893 8.25024 12 8.25024Z" fill="#363538"/>
</svg>
