<svg width="24" height="24" viewBox="0 0 24 24" fill="none" xmlns="http://www.w3.org/2000/svg">
<path fill-rule="evenodd" clip-rule="evenodd" d="M19.0862 4.25C18.6325 4.25 18.1299 4.37864 17.2354 4.70558C16.3259 5.03805 14.9226 5.61129 12.6294 6.57312L12.6272 6.57403C11.025 7.25191 7.79964 8.63161 2.97696 10.7651C2.56488 10.9321 2.20693 11.1151 1.92787 11.323C1.65659 11.5251 1.37601 11.8133 1.27706 12.2126L1.26726 12.2521L1.2618 12.2925C1.21407 12.6456 1.31328 12.9692 1.52067 13.2275C1.7041 13.4559 1.9465 13.6018 2.14944 13.7011C2.45353 13.85 2.8611 13.9791 3.24378 14.1003C3.34828 14.1334 3.45093 14.1659 3.5491 14.1981C3.98292 14.344 4.49689 14.5058 4.98409 14.6321C5.45236 14.7535 5.96524 14.8611 6.36565 14.8611C7.10674 14.8611 7.8468 14.5753 8.59736 14.0518C9.71258 13.2932 10.6933 12.6271 11.5402 12.0538L11.2714 12.3058C10.8956 12.6581 10.573 12.9605 10.4666 13.0735C10.3619 13.182 10.2535 13.2873 10.1403 13.3966L10.1073 13.4284C10.0055 13.5267 9.89781 13.6306 9.7974 13.7331C9.58606 13.9488 9.33165 14.2311 9.18408 14.5694C9.01487 14.9574 8.99386 15.4015 9.22098 15.8462C9.42143 16.2386 9.78388 16.5678 10.2303 16.868L10.2356 16.8715C11.0041 17.3791 11.571 17.7683 12.1573 18.1709C12.6785 18.5287 13.2152 18.8973 13.9226 19.3688L13.9323 19.3751C14.116 19.4935 14.2914 19.6169 14.4766 19.7472L14.5767 19.8175C14.7926 19.969 15.0254 20.1298 15.266 20.2705C15.7491 20.5533 16.3343 20.7988 17.0316 20.7417L17.0452 20.7406L17.0588 20.739C18.012 20.6259 18.5943 19.7487 18.8426 18.4159C19.4114 15.4678 20.4733 9.01878 20.7353 6.35284C20.7699 6.03211 20.7372 5.67077 20.6992 5.47892C20.6657 5.30973 20.573 4.91 20.2139 4.60815L20.1992 4.59576L20.1838 4.58414C19.9608 4.41534 19.715 4.33804 19.5396 4.29977C19.3576 4.26008 19.193 4.25 19.0862 4.25ZM13.2105 7.95598C15.5095 6.99172 16.8797 6.43269 17.7504 6.11441C18.6364 5.79056 18.9207 5.75 19.0862 5.75C19.1084 5.75 19.1632 5.75294 19.2199 5.76531L19.2271 5.76693L19.2278 5.7706C19.232 5.79184 19.2418 5.85936 19.2469 5.95235C19.2519 6.04392 19.2508 6.13028 19.2438 6.19345L19.2429 6.2023C18.9883 8.79653 17.9357 15.1994 17.3693 18.134L17.3684 18.1391C17.2639 18.7011 17.1207 18.9938 17.0153 19.1344C16.9654 19.201 16.9283 19.2279 16.9118 19.2379C16.9018 19.244 16.8946 19.2468 16.8892 19.2482C16.6379 19.2635 16.3762 19.1823 16.0237 18.976C15.8417 18.8695 15.6536 18.7407 15.4382 18.5895L15.3443 18.5235C15.1612 18.3947 14.9596 18.2529 14.7499 18.1175C14.1074 17.6892 13.5651 17.3173 13.0299 16.9504C12.4131 16.5274 11.8056 16.1108 11.0649 15.6216C10.71 15.3826 10.5922 15.2293 10.5593 15.1685C10.5893 15.1 10.672 14.9838 10.8689 14.7827C10.9536 14.6963 11.0457 14.6074 11.1505 14.5063L11.1821 14.4758C11.2969 14.365 11.4236 14.2421 11.5499 14.1111L11.56 14.1006L11.5696 14.0898C11.5673 14.0924 11.5676 14.0921 11.5717 14.088C11.5781 14.0816 11.5934 14.0662 11.622 14.0383C11.6625 13.9989 11.7175 13.9463 11.786 13.8812C11.9229 13.7513 12.1069 13.5786 12.3237 13.3754L12.4658 13.2422C12.8747 12.8589 13.3734 12.3916 13.8682 11.9215C14.4209 11.3965 14.9747 10.8626 15.3972 10.4347C15.6074 10.2219 15.7929 10.0273 15.9316 9.86946C16 9.79156 16.0664 9.71211 16.1208 9.6377C16.1479 9.60075 16.1795 9.55493 16.2086 9.50405C16.2309 9.46517 16.2838 9.3695 16.3107 9.24279L16.3271 9.16574V9.09997C16.3276 9.09167 16.3285 9.07501 16.3291 9.05731C16.3305 9.01602 16.3315 8.94726 16.3221 8.86669C16.3045 8.7162 16.237 8.418 15.9522 8.20254C15.5474 7.89621 15.0889 8.01858 14.992 8.04442L14.9861 8.04601C14.9195 8.06206 14.8702 8.08279 14.8534 8.08986C14.8206 8.10365 14.7906 8.11834 14.7682 8.1298C14.7228 8.15304 14.6734 8.18099 14.6246 8.20966C14.5254 8.26797 14.3951 8.34903 14.2376 8.44966C13.9208 8.65202 13.4698 8.94916 12.8867 9.33861C11.7194 10.1183 10.0075 11.2784 7.74997 12.8141L7.74236 12.8194C7.15254 13.2313 6.70697 13.3611 6.36565 13.3611C6.1726 13.3611 5.8211 13.2995 5.36049 13.1801C4.91983 13.0658 4.44156 12.9157 4.02447 12.7754L4.01908 12.7736C3.86924 12.7245 3.73312 12.6812 3.60907 12.6418C3.3499 12.5593 3.14344 12.4937 2.97473 12.4266C3.11238 12.3448 3.30051 12.252 3.55003 12.1513L3.56149 12.1467L3.57279 12.1417C8.3929 10.0093 11.6141 8.63141 13.2105 7.95598Z" fill="#363538"/>
</svg>
