<svg width="24" height="24" viewBox="0 0 24 24" fill="none" xmlns="http://www.w3.org/2000/svg">
<path d="M6.364 9.6025C6.14447 9.95375 6.25125 10.4165 6.6025 10.636L9.2457 12.288C9.40237 12.3859 9.40237 12.6141 9.2457 12.712L6.6025 14.364C6.25125 14.5835 6.14447 15.0462 6.364 15.3975C6.58353 15.7488 7.04625 15.8555 7.3975 15.636L10.0407 13.984C11.1374 13.2986 11.1374 11.7014 10.0407 11.016L7.3975 9.364C7.04625 9.14447 6.58353 9.25125 6.364 9.6025Z" fill="#363538"/>
<path d="M13 14.25C12.5858 14.25 12.25 14.5858 12.25 15C12.25 15.4142 12.5858 15.75 13 15.75H17C17.4142 15.75 17.75 15.4142 17.75 15C17.75 14.5858 17.4142 14.25 17 14.25H13Z" fill="#363538"/>
<path fill-rule="evenodd" clip-rule="evenodd" d="M2.45672 6.7039C2 7.80653 2 9.20435 2 12C2 14.7956 2 16.1935 2.45672 17.2961C3.06569 18.7663 4.23373 19.9343 5.7039 20.5433C6.80653 21 8.20435 21 11 21H13C15.7956 21 17.1935 21 18.2961 20.5433C19.7663 19.9343 20.9343 18.7663 21.5433 17.2961C22 16.1935 22 14.7956 22 12C22 9.20435 22 7.80653 21.5433 6.7039C20.9343 5.23373 19.7663 4.06569 18.2961 3.45672C17.1935 3 15.7956 3 13 3H11C8.20435 3 6.80653 3 5.7039 3.45672C4.23373 4.06569 3.06569 5.23373 2.45672 6.7039ZM3.55361 8.81917C3.50081 9.59301 3.5 10.5817 3.5 12C3.5 13.4183 3.50081 14.407 3.55361 15.1808C3.60549 15.9412 3.70251 16.384 3.84254 16.7221C4.29926 17.8247 5.1753 18.7007 6.27792 19.1575C6.616 19.2975 7.0588 19.3945 7.81917 19.4464C8.59301 19.4992 9.58165 19.5 11 19.5H13C14.4183 19.5 15.407 19.4992 16.1808 19.4464C16.9412 19.3945 17.384 19.2975 17.7221 19.1575C18.8247 18.7007 19.7007 17.8247 20.1575 16.7221C20.2975 16.384 20.3945 15.9412 20.4464 15.1808C20.4992 14.407 20.5 13.4183 20.5 12C20.5 10.5817 20.4992 9.59301 20.4464 8.81917C20.3945 8.0588 20.2975 7.616 20.1575 7.27793C19.7007 6.1753 18.8247 5.29926 17.7221 4.84254C17.384 4.70251 16.9412 4.60549 16.1808 4.55361C15.407 4.50081 14.4183 4.5 13 4.5H11C9.58165 4.5 8.59301 4.50081 7.81917 4.55361C7.0588 4.60549 6.616 4.70251 6.27792 4.84254C5.1753 5.29926 4.29926 6.1753 3.84254 7.27792C3.70251 7.616 3.60549 8.0588 3.55361 8.81917Z" fill="#363538"/>
</svg>
