<svg width="24" height="24" viewBox="0 0 24 24" fill="none" xmlns="http://www.w3.org/2000/svg">
<path d="M8.00001 7.25C7.5858 7.25 7.25001 7.58579 7.25001 8C7.25001 8.41421 7.5858 8.75 8.00001 8.75H11.25V14C11.25 14.4142 11.5858 14.75 12 14.75C12.4142 14.75 12.75 14.4142 12.75 14V8.75H16C16.4142 8.75 16.75 8.41421 16.75 8C16.75 7.58579 16.4142 7.25 16 7.25H8.00001Z" fill="#363538"/>
<path fill-rule="evenodd" clip-rule="evenodd" d="M7.14878 3.25C6.17069 3.25 5.26621 3.7695 4.77338 4.61435L2.60867 8.3253C1.99239 9.38176 2.14792 10.7183 2.99031 11.605L10.0063 18.9902C11.0905 20.1315 12.9096 20.1315 13.9938 18.9902L21.0098 11.605C21.8522 10.7183 22.0077 9.38177 21.3914 8.3253L19.2267 4.61435C18.7339 3.76951 17.8294 3.25 16.8513 3.25H7.14878ZM6.06905 5.37016C6.29307 4.98614 6.70419 4.75 7.14878 4.75H16.8513C17.2959 4.75 17.707 4.98614 17.931 5.37016L20.0957 9.08111C20.3759 9.56132 20.3052 10.1688 19.9223 10.5719L12.9063 17.9571C12.4135 18.4759 11.5866 18.4759 11.0938 17.9571L4.07781 10.5719C3.6949 10.1688 3.62421 9.56132 3.90433 9.08111L6.06905 5.37016Z" fill="#363538"/>
</svg>
