<svg width="24" height="24" viewBox="0 0 24 24" fill="none" xmlns="http://www.w3.org/2000/svg">
<path fill-rule="evenodd" clip-rule="evenodd" d="M13 3.25H7C6.58579 3.25 6.25 3.58579 6.25 4V20C6.25 20.4142 6.58579 20.75 7 20.75H13C15.6234 20.75 17.75 18.6234 17.75 16C17.75 14.3205 16.8784 12.8446 15.5628 12C16.8784 11.1554 17.75 9.67947 17.75 8C17.75 5.37665 15.6234 3.25 13 3.25ZM13 12.75L7.75 12.75L7.75 19.25H13C14.7949 19.25 16.25 17.7949 16.25 16C16.25 14.2051 14.7949 12.75 13 12.75ZM13 11.25C14.7949 11.25 16.25 9.79492 16.25 8C16.25 6.20507 14.7949 4.75 13 4.75L7.75 4.75L7.75 11.25L13 11.25Z" fill="#363538"/>
</svg>
