<svg width="24" height="24" viewBox="0 0 24 24" fill="none" xmlns="http://www.w3.org/2000/svg">
<path fill-rule="evenodd" clip-rule="evenodd" d="M13.1708 2.66451C12.9856 2.29403 12.5351 2.14386 12.1646 2.3291C11.7964 2.51318 11.6458 2.95921 11.8257 3.32836C11.8276 3.33798 11.8364 3.3932 11.8026 3.52253C11.7579 3.69311 11.6591 3.91163 11.5077 4.16266C11.2705 4.5561 10.9523 4.95111 10.6792 5.24992H8.01302C8.00499 5.24979 7.99695 5.24979 7.98888 5.24992H4.00001C3.5858 5.24992 3.25001 5.58571 3.25001 5.99992C3.25001 6.41413 3.5858 6.74992 4.00001 6.74992H7.35846C7.79231 9.32078 8.71631 12.609 10.5027 15.3535C10.5227 15.3843 10.5429 15.415 10.5632 15.4457C8.65592 17.4703 6.41278 18.962 3.9127 19.255C3.5013 19.3032 3.20689 19.6758 3.25511 20.0872C3.30333 20.4986 3.67593 20.793 4.08732 20.7448C6.96943 20.407 9.44666 18.758 11.4668 16.671C13.4093 19.0283 16.1672 20.7499 20 20.7499C20.4142 20.7499 20.75 20.4141 20.75 19.9999C20.75 19.5857 20.4142 19.2499 20 19.2499C16.6181 19.2499 14.2087 17.7205 12.4827 15.5426C12.6924 15.2929 12.8963 15.0395 13.0941 14.7838C15.1981 12.0632 16.7087 8.96347 17.5284 6.74992H20C20.4142 6.74992 20.75 6.41413 20.75 5.99992C20.75 5.58571 20.4142 5.24992 20 5.24992H17.0174C17.0057 5.24965 16.9941 5.24965 16.9825 5.24992H12.5914C12.6612 5.14729 12.7287 5.04273 12.7923 4.93718C12.9826 4.62154 13.1588 4.26506 13.2537 3.90231C13.3467 3.54694 13.385 3.09291 13.1708 2.66451ZM11.5898 14.2677C11.697 14.1353 11.8029 14.0013 11.9075 13.8661C13.7433 11.4925 15.1108 8.79719 15.922 6.74992H8.88089C9.29538 9.07111 10.1168 11.8931 11.5898 14.2677Z" fill="#363538"/>
</svg>
