<svg width="24" height="24" viewBox="0 0 24 24" fill="none" xmlns="http://www.w3.org/2000/svg">
<path d="M17.416 14.8696C17.6309 15.4349 17.75 16.0506 17.75 16.6957C17.75 19.4331 15.6233 21.6522 13 21.6522H9.23633C7.58194 21.6521 6.06899 20.6763 5.3291 19.1322C5.14426 18.7458 5.29485 18.2759 5.66504 18.0826C6.0354 17.8897 6.48571 18.0468 6.6709 18.4331C7.15676 19.4467 8.15024 20.0869 9.23633 20.087H13C14.7949 20.087 16.25 18.5686 16.25 16.6957C16.25 16.0232 16.0619 15.3968 15.7383 14.8696H17.416Z" fill="#363538"/>
<path d="M14.7637 3.39136C16.4181 3.39139 17.931 4.36732 18.6709 5.9114C18.8558 6.29788 18.7052 6.76774 18.335 6.96099C17.9646 7.15382 17.5143 6.99681 17.3291 6.61045C16.8432 5.59688 15.8498 4.95661 14.7637 4.95657H11C9.20518 4.9567 7.75 6.47499 7.75 8.34788C7.75 10.2208 9.20518 11.7391 11 11.7392H20C20.4142 11.7392 20.75 12.0896 20.75 12.5218C20.75 12.954 20.4142 13.3044 20 13.3044H4C3.58579 13.3044 3.25 12.954 3.25 12.5218C3.25 12.0896 3.58579 11.7392 4 11.7392H7.53906C6.74031 10.8528 6.25 9.66067 6.25 8.34788C6.25 5.61055 8.37675 3.39148 11 3.39136H14.7637Z" fill="#363538"/>
</svg>
