<svg width="24" height="24" viewBox="0 0 24 24" fill="none" xmlns="http://www.w3.org/2000/svg">
<path d="M6.89453 3.25C7.43742 3.25002 7.96821 3.41077 8.41992 3.71191L9 4.09863L9.58008 3.71191C10.0318 3.41077 10.5626 3.25002 11.1055 3.25H12C12.4142 3.25 12.75 3.58579 12.75 4C12.75 4.41421 12.4142 4.75 12 4.75H11.1055C10.8587 4.75002 10.6174 4.82309 10.4121 4.95996L9.75 5.40137V18.5986L10.4121 19.04C10.6174 19.1769 10.8587 19.25 11.1055 19.25H12C12.4142 19.25 12.75 19.5858 12.75 20C12.75 20.4142 12.4142 20.75 12 20.75H11.1055C10.5626 20.75 10.0318 20.5892 9.58008 20.2881L9 19.9014L8.41992 20.2881C7.96821 20.5892 7.43742 20.75 6.89453 20.75H6C5.58579 20.75 5.25 20.4142 5.25 20C5.25 19.5858 5.58579 19.25 6 19.25H6.89453C7.14128 19.25 7.38258 19.1769 7.58789 19.04L8.25 18.5986V5.40137L7.58789 4.95996C7.38258 4.82309 7.14128 4.75002 6.89453 4.75H6C5.58579 4.75 5.25 4.41421 5.25 4C5.25 3.58579 5.58579 3.25 6 3.25H6.89453Z" fill="#363538"/>
<path d="M6 7.25C6.41421 7.25 6.75 7.58579 6.75 8C6.75 8.41421 6.41421 8.75 6 8.75H4.75C4.05964 8.75 3.5 9.30964 3.5 10V14C3.5 14.6904 4.05964 15.25 4.75 15.25H6C6.41421 15.25 6.75 15.5858 6.75 16C6.75 16.4142 6.41421 16.75 6 16.75H4.75C3.23122 16.75 2 15.5188 2 14V10C2 8.48122 3.23122 7.25 4.75 7.25H6Z" fill="#363538"/>
<path d="M19.25 7.25C20.7688 7.25 22 8.48122 22 10V14C22 15.5188 20.7688 16.75 19.25 16.75H12C11.5858 16.75 11.25 16.4142 11.25 16C11.25 15.5858 11.5858 15.25 12 15.25H19.25C19.9404 15.25 20.5 14.6904 20.5 14V10C20.5 9.30964 19.9404 8.75 19.25 8.75H12C11.5858 8.75 11.25 8.41421 11.25 8C11.25 7.58579 11.5858 7.25 12 7.25H19.25Z" fill="#363538"/>
</svg>
