<svg width="24" height="24" viewBox="0 0 24 24" fill="none" xmlns="http://www.w3.org/2000/svg">
<path d="M6.25 12.7825V3.91298C6.25 3.48076 6.58579 3.13037 7 3.13037C7.41421 3.13037 7.75 3.48076 7.75 3.91298V12.7825C7.75 15.2318 9.65279 17.2173 12 17.2173C14.3472 17.2173 16.25 15.2318 16.25 12.7825V3.91298C16.25 3.48076 16.5858 3.13037 17 3.13037C17.4142 3.13037 17.75 3.48076 17.75 3.91298V12.7825C17.75 16.0963 15.1756 18.7825 12 18.7825C8.82436 18.7825 6.25 16.0963 6.25 12.7825Z" fill="#363538"/>
<path d="M19 20.3478C19.4142 20.3478 19.75 20.6981 19.75 21.1304C19.75 21.5626 19.4142 21.913 19 21.913H5C4.58579 21.913 4.25 21.5626 4.25 21.1304C4.25 20.6981 4.58579 20.3478 5 20.3478H19Z" fill="#363538"/>
</svg>
