<svg width="24" height="24" viewBox="0 0 24 24" fill="none" xmlns="http://www.w3.org/2000/svg">
<path fill-rule="evenodd" clip-rule="evenodd" d="M18.8676 2.31368C16.9012 3.48268 14.134 5.60063 10.4575 9.25032L8.79867 9.90126C7.80416 10.2915 7.17768 11.2823 7.25668 12.3483L7.44039 14.8272C7.49891 15.6169 8.1284 16.2409 8.91531 16.2987L11.5632 16.4935C12.5144 16.5634 13.421 16.0747 13.8825 15.2396L14.7736 13.6273C18.7218 9.68201 20.4971 6.93531 21.506 4.87844C21.9174 4.03949 21.7977 3.12206 21.2218 2.53232C20.6278 1.92404 19.6999 1.81892 18.8676 2.31368ZM19.6341 3.60305C19.7976 3.50588 19.9155 3.49492 19.9833 3.50176C20.0517 3.50867 20.1061 3.53675 20.1486 3.5803C20.2248 3.65834 20.3282 3.87333 20.1592 4.21792C19.2739 6.02295 17.7014 8.50523 14.1656 12.1099L11.9411 9.89399C15.3479 6.55864 17.8801 4.64583 19.6341 3.60305ZM10.694 10.7689L13.2386 13.3037L12.5697 14.5141C12.3925 14.8347 12.0427 15.0247 11.6732 14.9975L9.02532 14.8028C8.97541 14.7991 8.93955 14.7603 8.93629 14.7164L8.75257 12.2375C8.72241 11.8304 8.9615 11.4487 9.34661 11.2976L10.694 10.7689Z" fill="#363538"/>
<path d="M3.75 8.00008C3.75 6.20516 5.20507 4.75008 7 4.75008H12C12.4142 4.75008 12.75 4.4143 12.75 4.00008C12.75 3.58587 12.4142 3.25008 12 3.25008H7C4.37665 3.25008 2.25 5.37673 2.25 8.00008V16.0001C2.25 18.6234 4.37665 20.7501 7 20.7501H17C19.6234 20.7501 21.75 18.6234 21.75 16.0001V11.0001C21.75 10.5859 21.4142 10.2501 21 10.2501C20.5858 10.2501 20.25 10.5859 20.25 11.0001V16.0001C20.25 17.795 18.7949 19.2501 17 19.2501H7C5.20507 19.2501 3.75 17.795 3.75 16.0001V8.00008Z" fill="#363538"/>
</svg>
