<svg width="24" height="24" viewBox="0 0 24 24" fill="none" xmlns="http://www.w3.org/2000/svg">
<path fill-rule="evenodd" clip-rule="evenodd" d="M5.25 4.5C5.25 3.25736 6.25736 2.25 7.5 2.25C8.74264 2.25 9.75 3.25736 9.75 4.5V14.75L10.5 15.75C10.9868 16.3991 11.25 17.1886 11.25 18C11.25 20.0711 9.57107 21.75 7.5 21.75C5.42893 21.75 3.75 20.0711 3.75 18C3.75 17.1886 4.01317 16.3991 4.5 15.75L5.25 14.75V4.5ZM7.5 3.75C7.08579 3.75 6.75 4.08579 6.75 4.5V14.951C6.75 15.1451 6.68705 15.3339 6.57059 15.4892L5.7 16.65C5.4079 17.0395 5.25 17.5132 5.25 18C5.25 19.2426 6.25736 20.25 7.5 20.25C8.74264 20.25 9.75 19.2426 9.75 18C9.75 17.5132 9.5921 17.0395 9.3 16.65L8.42941 15.4892C8.31295 15.3339 8.25 15.1451 8.25 14.951V4.5C8.25 4.08579 7.91421 3.75 7.5 3.75Z" fill="#363538"/>
<path d="M12.4697 2.46967C12.7626 2.17678 13.2374 2.17678 13.5303 2.46967L14 2.93934L14.4697 2.46967C14.7626 2.17678 15.2374 2.17678 15.5303 2.46967C15.8232 2.76256 15.8232 3.23744 15.5303 3.53033L15.0607 4L15.5303 4.46967C15.8232 4.76256 15.8232 5.23744 15.5303 5.53033C15.2374 5.82322 14.7626 5.82322 14.4697 5.53033L14 5.06066L13.5303 5.53033C13.2374 5.82322 12.7626 5.82322 12.4697 5.53033C12.1768 5.23744 12.1768 4.76256 12.4697 4.46967L12.9393 4L12.4697 3.53033C12.1768 3.23744 12.1768 2.76256 12.4697 2.46967Z" fill="#363538"/>
<path d="M17.7501 7C17.7501 6.58579 17.4143 6.25 17.0001 6.25C16.5859 6.25 16.2501 6.58579 16.2501 7V7.21624C15.9037 7.13332 15.537 7.30757 15.3892 7.64542C15.2232 8.02492 15.3963 8.46712 15.7758 8.63311L16.2501 8.84056V10.2176L14.9776 9.50183L15.0106 8.9667C15.0361 8.55327 14.7216 8.19747 14.3081 8.172C13.9565 8.15034 13.6465 8.37464 13.5461 8.69658L13.3678 8.59632C13.0068 8.39325 12.5495 8.52129 12.3465 8.88231C12.1434 9.24333 12.2714 9.70061 12.6324 9.90369L12.8159 10.0069C12.5919 10.2611 12.5621 10.6445 12.7656 10.9339C13.0039 11.2727 13.4717 11.3542 13.8106 11.1159L14.2447 10.8106L15.4703 11.5L14.2261 12.1999L13.744 11.8898C13.3957 11.6657 12.9316 11.7665 12.7075 12.1148C12.522 12.4032 12.5591 12.7709 12.775 13.0161L12.6325 13.0963C12.2714 13.2994 12.1434 13.7567 12.3465 14.1177C12.5495 14.4787 13.0068 14.6067 13.3679 14.4037L13.5461 14.3034C13.6465 14.6254 13.9565 14.8497 14.3082 14.828C14.7216 14.8025 15.0361 14.4467 15.0106 14.0333L14.9776 13.4982L16.2501 12.7824V14.1811L15.7479 14.4257C15.3755 14.6071 15.2207 15.0561 15.4021 15.4285C15.5589 15.7504 15.9157 15.9097 16.2501 15.8298V16C16.2501 16.4142 16.5859 16.75 17.0001 16.75C17.4143 16.75 17.7501 16.4142 17.7501 16V15.8298C18.0845 15.9097 18.4413 15.7504 18.5981 15.4285C18.7795 15.0561 18.6247 14.6071 18.2523 14.4257L17.7501 14.1811V12.7824L19.0226 13.4982L18.9897 14.0333C18.9642 14.4467 19.2787 14.8025 19.6921 14.828C20.0438 14.8497 20.3537 14.6254 20.4542 14.3034L20.6324 14.4037C20.9934 14.6068 21.4507 14.4787 21.6538 14.1177C21.8569 13.7567 21.7288 13.2994 21.3678 13.0963L21.2252 13.0161C21.4412 12.7709 21.4783 12.4032 21.2928 12.1148C21.0687 11.7665 20.6046 11.6657 20.2562 11.8898L19.7742 12.1999L18.5299 11.5L19.7742 10.8001L20.2563 11.1102C20.6046 11.3343 21.0687 11.2335 21.2928 10.8852C21.4783 10.5968 21.4412 10.2291 21.2252 9.98388L21.3678 9.90368C21.7288 9.7006 21.8569 9.24332 21.6538 8.8823C21.4507 8.52128 20.9935 8.39324 20.6324 8.59631L20.4133 8.71957C20.3092 8.38538 19.9808 8.15979 19.6193 8.19763C19.2074 8.24075 18.9084 8.60968 18.9515 9.02164L19.0029 9.51293L17.7501 10.2176V8.8189L18.2523 8.57425C18.6247 8.39285 18.7795 7.94392 18.5981 7.57154C18.4413 7.24961 18.0845 7.09029 17.7501 7.17024V7Z" fill="#363538"/>
</svg>
