<svg width="24" height="24" viewBox="0 0 24 24" fill="none" xmlns="http://www.w3.org/2000/svg">
<path fill-rule="evenodd" clip-rule="evenodd" d="M7.5 2.25C6.25736 2.25 5.25 3.25736 5.25 4.5V14.75L4.5 15.75C4.01317 16.3991 3.75 17.1886 3.75 18C3.75 20.0711 5.42893 21.75 7.5 21.75C9.57107 21.75 11.25 20.0711 11.25 18C11.25 17.1886 10.9868 16.3991 10.5 15.75L9.75 14.75V4.5C9.75 3.25736 8.74264 2.25 7.5 2.25ZM6.75 4.5C6.75 4.08579 7.08579 3.75 7.5 3.75C7.91421 3.75 8.25 4.08579 8.25 4.5V14.951C8.25 15.1451 8.31295 15.3339 8.42941 15.4892L9.3 16.65C9.5921 17.0395 9.75 17.5132 9.75 18C9.75 19.2426 8.74264 20.25 7.5 20.25C6.25736 20.25 5.25 19.2426 5.25 18C5.25 17.5132 5.4079 17.0395 5.7 16.65L6.57059 15.4892C6.68705 15.3339 6.75 15.1451 6.75 14.951V4.5Z" fill="#363538"/>
<path d="M12 3.25C11.5858 3.25 11.25 3.58579 11.25 4C11.25 4.41421 11.5858 4.75 12 4.75H21C21.4142 4.75 21.75 4.41421 21.75 4C21.75 3.58579 21.4142 3.25 21 3.25H12Z" fill="#363538"/>
<path d="M11.25 9C11.25 8.58579 11.5858 8.25 12 8.25L18 8.25C18.4142 8.25 18.75 8.58579 18.75 9C18.75 9.41421 18.4142 9.75 18 9.75L12 9.75C11.5858 9.75 11.25 9.41421 11.25 9Z" fill="#363538"/>
<path d="M12 13.25C11.5858 13.25 11.25 13.5858 11.25 14C11.25 14.4142 11.5858 14.75 12 14.75H15C15.4142 14.75 15.75 14.4142 15.75 14C15.75 13.5858 15.4142 13.25 15 13.25H12Z" fill="#363538"/>
</svg>
