<svg width="24" height="24" viewBox="0 0 24 24" fill="none" xmlns="http://www.w3.org/2000/svg">
<path fill-rule="evenodd" clip-rule="evenodd" d="M5.25 4.5C5.25 3.25736 6.25736 2.25 7.5 2.25C8.74264 2.25 9.75 3.25736 9.75 4.5V14.75L10.5 15.75C10.9868 16.3991 11.25 17.1886 11.25 18C11.25 20.0711 9.57107 21.75 7.5 21.75C5.42893 21.75 3.75 20.0711 3.75 18C3.75 17.1886 4.01317 16.3991 4.5 15.75L5.25 14.75V4.5ZM7.5 3.75C7.08579 3.75 6.75 4.08579 6.75 4.5V14.951C6.75 15.1451 6.68705 15.3339 6.57059 15.4892L5.7 16.65C5.4079 17.0395 5.25 17.5132 5.25 18C5.25 19.2426 6.25736 20.25 7.5 20.25C8.74264 20.25 9.75 19.2426 9.75 18C9.75 17.5132 9.5921 17.0395 9.3 16.65L8.42941 15.4892C8.31295 15.3339 8.25 15.1451 8.25 14.951V4.5C8.25 4.08579 7.91421 3.75 7.5 3.75Z" fill="#363538"/>
<path d="M15.9998 4.25C16.414 4.25 16.7498 4.58579 16.7498 5V5.5C16.7498 5.91421 16.414 6.25 15.9998 6.25C15.5856 6.25 15.2498 5.91421 15.2498 5.5V5C15.2498 4.58579 15.5856 4.25 15.9998 4.25Z" fill="#363538"/>
<path fill-rule="evenodd" clip-rule="evenodd" d="M15.9998 12.5C17.6566 12.5 18.9998 11.1569 18.9998 9.5C18.9998 7.84315 17.6566 6.5 15.9998 6.5C14.3429 6.5 12.9998 7.84315 12.9998 9.5C12.9998 11.1569 14.3429 12.5 15.9998 12.5ZM15.9998 11C16.8282 11 17.4998 10.3284 17.4998 9.5C17.4998 8.67157 16.8282 8 15.9998 8C15.1713 8 14.4998 8.67157 14.4998 9.5C14.4998 10.3284 15.1713 11 15.9998 11Z" fill="#363538"/>
<path d="M16.7498 13.5C16.7498 13.0858 16.414 12.75 15.9998 12.75C15.5856 12.75 15.2498 13.0858 15.2498 13.5V14C15.2498 14.4142 15.5856 14.75 15.9998 14.75C16.414 14.75 16.7498 14.4142 16.7498 14V13.5Z" fill="#363538"/>
<path d="M20.6492 6.89512C20.8563 7.25384 20.7334 7.71254 20.3747 7.91964L19.9417 8.16964C19.5829 8.37675 19.1242 8.25384 18.9171 7.89512C18.71 7.53641 18.8329 7.07771 19.1917 6.87061L19.6247 6.62061C19.9834 6.4135 20.4421 6.53641 20.6492 6.89512Z" fill="#363538"/>
<path d="M11.6249 7.91964C11.2662 7.71254 11.1432 7.25384 11.3504 6.89512C11.5575 6.53641 12.0162 6.4135 12.3749 6.62061L12.8079 6.87061C13.1666 7.07771 13.2895 7.53641 13.0824 7.89512C12.8753 8.25384 12.4166 8.37675 12.0579 8.16964L11.6249 7.91964Z" fill="#363538"/>
<path d="M11.3504 12.1752C11.1432 11.8165 11.2662 11.3578 11.6249 11.1507L12.0579 10.9007C12.4166 10.6936 12.8753 10.8165 13.0824 11.1752C13.2895 11.5339 13.1666 11.9926 12.8079 12.1997L12.3749 12.4497C12.0162 12.6568 11.5575 12.5339 11.3504 12.1752Z" fill="#363538"/>
<path d="M20.3747 11.1507C20.7334 11.3578 20.8563 11.8165 20.6492 12.1752C20.4421 12.5339 19.9834 12.6568 19.6247 12.4497L19.1917 12.1997C18.8329 11.9926 18.71 11.5339 18.9171 11.1752C19.1242 10.8165 19.5829 10.6936 19.9417 10.9007L20.3747 11.1507Z" fill="#363538"/>
</svg>
