<svg width="24" height="24" viewBox="0 0 24 24" fill="none" xmlns="http://www.w3.org/2000/svg">
<path fill-rule="evenodd" clip-rule="evenodd" d="M12.4222 4.25837C9.90331 4.13452 7.34316 5.35029 6.30136 8.54385C4.80465 13.1319 6.3745 18.0948 10.449 19.4192C12.267 20.0102 14.3043 19.7806 15.8458 18.9575C17.3784 18.1391 18.3329 16.796 18.2443 15.158C18.1865 14.0912 17.5566 13.2181 16.6083 12.6066C16.3492 14.2938 15.3112 16.0311 13.4438 16.3578C11.8308 16.64 10.5179 16.2582 9.68724 15.4316C8.86259 14.6109 8.60397 13.4301 8.97603 12.363C9.34921 11.2928 10.31 10.6718 11.3405 10.3767C12.3804 10.0788 13.6128 10.0693 14.7894 10.3077C14.8445 10.3189 14.8996 10.3307 14.9548 10.343C14.7484 9.76063 14.4007 9.26142 13.9194 8.9274C12.2608 7.77629 10.7698 8.58645 10.233 9.12674C9.94102 9.42057 9.46614 9.4221 9.17231 9.13015C8.87848 8.83819 8.87696 8.36332 9.16891 8.06949C10.0087 7.2243 12.3034 5.98003 14.7747 7.6951C15.88 8.46222 16.4558 9.67078 16.6238 10.9119C18.2541 11.6795 19.6321 13.0454 19.7421 15.077C19.8703 17.4455 18.4536 19.2654 16.5524 20.2806C14.66 21.2911 12.2008 21.5659 9.9853 20.8457C4.80213 19.161 3.24014 13.0912 4.87532 8.07865C6.15675 4.15053 9.4025 2.60808 12.4959 2.76018C15.52 2.90887 18.5723 4.6963 19.4654 7.58849C19.5877 7.98426 19.3659 8.40418 18.9701 8.5264C18.5744 8.64862 18.1544 8.42686 18.0322 8.03109C17.3767 5.9083 15.0104 4.38562 12.4222 4.25837ZM15.1707 11.9503C14.9509 11.8826 14.724 11.825 14.4916 11.7779C13.5027 11.5775 12.5192 11.5994 11.7535 11.8187C10.9784 12.0407 10.5438 12.4227 10.3924 12.8569C10.2089 13.383 10.3325 13.9575 10.7453 14.3684C11.1523 14.7733 11.9323 15.0995 13.1853 14.8803C14.1655 14.7088 14.9322 13.7195 15.1313 12.3417C15.1501 12.2111 15.1632 12.0804 15.1707 11.9503Z" fill="#363538"/>
</svg>
