<svg width="24" height="24" viewBox="0 0 24 24" fill="none" xmlns="http://www.w3.org/2000/svg">
<path d="M9.75 10C9.75 9.58579 9.41421 9.25 9 9.25C8.58579 9.25 8.25 9.58579 8.25 10V14C8.25 14.4142 8.58579 14.75 9 14.75C9.41421 14.75 9.75 14.4142 9.75 14V10Z" fill="#363538"/>
<path fill-rule="evenodd" clip-rule="evenodd" d="M3.35329 12C3.35329 12.2152 3.09656 12.7083 2.69359 13.3497C0.913977 16.1821 2.7406 20 6.1048 20H17.9683C20.1949 20 22 18.2091 22 16V8C22 5.79086 20.1949 4 17.9683 4H6.20237C3.01261 4 1.12157 7.48679 2.61933 10.2809C3.05855 11.1003 3.35329 11.7451 3.35329 12ZM9.75 5.5H17.9683C19.3777 5.5 20.5 6.63044 20.5 8V16C20.5 17.3696 19.3777 18.5 17.9683 18.5H9.75V17C9.75 16.5858 9.41421 16.25 9 16.25C8.58579 16.25 8.25 16.5858 8.25 17V18.5H6.1048C4.08784 18.5 2.72057 16.1263 3.96371 14.1476C4.17661 13.8088 4.37115 13.4775 4.51763 13.183C4.5906 13.0362 4.66405 12.874 4.72223 12.7083C4.77125 12.5686 4.85329 12.3076 4.85329 12C4.85329 11.7002 4.77711 11.434 4.73059 11.2869C4.67463 11.1099 4.60218 10.9276 4.52643 10.7536C4.37427 10.4039 4.1691 9.99705 3.94137 9.57222C2.92629 7.67857 4.2566 5.5 6.20237 5.5H8.25V7C8.25 7.41421 8.58579 7.75 9 7.75C9.41421 7.75 9.75 7.41421 9.75 7V5.5Z" fill="#363538"/>
</svg>
