<svg width="24" height="24" viewBox="0 0 24 24" fill="none" xmlns="http://www.w3.org/2000/svg">
<path d="M16.7803 9.78057C17.0732 9.48768 17.0732 9.01281 16.7803 8.71991C16.4874 8.42702 16.0126 8.42702 15.7197 8.71991L10.75 13.6896L8.28033 11.2199C7.98744 10.927 7.51256 10.927 7.21967 11.2199C6.92678 11.5128 6.92678 11.9877 7.21967 12.2806L10.2197 15.2806C10.5126 15.5735 10.9874 15.5735 11.2803 15.2806L16.7803 9.78057Z" fill="#363538"/>
<path fill-rule="evenodd" clip-rule="evenodd" d="M22 12.0002C22 17.5231 17.5228 22.0002 12 22.0002C6.47715 22.0002 2 17.5231 2 12.0002C2 6.4774 6.47715 2.00024 12 2.00024C17.5228 2.00024 22 6.4774 22 12.0002ZM20.5 12.0002C20.5 16.6947 16.6944 20.5002 12 20.5002C7.30558 20.5002 3.5 16.6947 3.5 12.0002C3.5 7.30582 7.30558 3.50024 12 3.50024C16.6944 3.50024 20.5 7.30582 20.5 12.0002Z" fill="#363538"/>
</svg>
