<svg width="24" height="24" viewBox="0 0 24 24" fill="none" xmlns="http://www.w3.org/2000/svg">
<path d="M9 9.25C9.41421 9.25 9.75 9.58579 9.75 10V14C9.75 14.4142 9.41421 14.75 9 14.75C8.58579 14.75 8.25 14.4142 8.25 14V10C8.25 9.58579 8.58579 9.25 9 9.25Z" fill="#363538"/>
<path fill-rule="evenodd" clip-rule="evenodd" d="M16.0803 9.59347C16.9237 9.20565 17.7944 10.0764 17.4066 10.9198L17.102 11.5822C16.9801 11.8474 16.9801 12.1526 17.102 12.4178L17.4066 13.0802C17.7944 13.9236 16.9237 14.7943 16.0803 14.4065L15.4178 14.1019C15.1527 13.98 14.8475 13.98 14.5823 14.1019L13.9199 14.4065C13.0764 14.7943 12.2057 13.9236 12.5935 13.0802L12.8981 12.4178C13.0201 12.1526 13.0201 11.8474 12.8981 11.5822L12.5935 10.9198C12.2057 10.0764 13.0764 9.20565 13.9199 9.59347L14.5823 9.89807C14.8475 10.02 15.1527 10.02 15.4178 9.89807L16.0803 9.59347ZM14.4218 11.4217C14.8019 11.5121 15.1982 11.5121 15.5783 11.4217C15.4879 11.8019 15.4879 12.1981 15.5783 12.5783C15.1982 12.4879 14.8019 12.4879 14.4218 12.5783C14.5122 12.1981 14.5122 11.8019 14.4218 11.4217Z" fill="#363538"/>
<path fill-rule="evenodd" clip-rule="evenodd" d="M2.69359 13.3497C3.09656 12.7083 3.35329 12.2152 3.35329 12C3.35329 11.7451 3.05855 11.1003 2.61933 10.2809C1.12157 7.48679 3.01261 4 6.20237 4H17.9683C20.1949 4 22 5.79086 22 8V16C22 18.2091 20.1949 20 17.9683 20H6.1048C2.7406 20 0.913977 16.1821 2.69359 13.3497ZM17.9683 5.5H9.75V7C9.75 7.41421 9.41421 7.75 9 7.75C8.58579 7.75 8.25 7.41421 8.25 7V5.5H6.20237C4.2566 5.5 2.92629 7.67857 3.94137 9.57222C4.1691 9.99705 4.37427 10.4039 4.52643 10.7536C4.60218 10.9276 4.67463 11.1099 4.73059 11.2869C4.77711 11.434 4.85329 11.7002 4.85329 12C4.85329 12.3076 4.77125 12.5686 4.72223 12.7083C4.66405 12.874 4.5906 13.0362 4.51763 13.183C4.37115 13.4775 4.17661 13.8088 3.96371 14.1476C2.72057 16.1263 4.08784 18.5 6.1048 18.5H8.25V17C8.25 16.5858 8.58579 16.25 9 16.25C9.41421 16.25 9.75 16.5858 9.75 17V18.5H17.9683C19.3777 18.5 20.5 17.3696 20.5 16V8C20.5 6.63044 19.3777 5.5 17.9683 5.5Z" fill="#363538"/>
</svg>
