<svg width="24" height="24" viewBox="0 0 24 24" fill="none" xmlns="http://www.w3.org/2000/svg">
<path d="M17 8.5C17 7.39543 17.6716 6.5 18.5 6.5C19.3284 6.5 20 7.39543 20 8.5C20 9.60457 19.3284 10.5 18.5 10.5C17.6716 10.5 17 9.60457 17 8.5Z" fill="#363538"/>
<path fill-rule="evenodd" clip-rule="evenodd" d="M8 2C4.27207 2 1.25 5.02208 1.25 8.75V20C1.25 20.9665 2.03351 21.75 3 21.75H13.75C14.7165 21.75 15.5 20.9665 15.5 20L15.5 14.75H18.5454C19.5081 14.75 20.5925 14.3328 21.4183 13.2815C22.2342 12.2427 22.75 10.6491 22.75 8.36364C22.75 6.07596 22.2263 4.48691 21.4053 3.45383C20.5758 2.40997 19.4925 2 18.5454 2H8ZM13.9991 10.2963C13.9965 9.67318 13.9938 9.00253 14.0621 8.33754C14.0295 7.32517 14.184 5.82477 14.7859 4.53746C14.9559 4.17386 15.1657 3.82111 15.4202 3.5L8 3.5C5.1005 3.5 2.75 5.8505 2.75 8.75L2.75 20C2.75 20.1381 2.86193 20.25 3 20.25H13.75C13.8881 20.25 14 20.1381 14 20L14 10.6388C14 10.5265 13.9995 10.4122 13.9991 10.2963ZM20.2387 12.3549C19.7077 13.0309 19.0649 13.25 18.5454 13.25C17.8769 13.25 17.1789 13.1346 16.6341 12.5816C16.0805 12.0196 15.5328 10.85 15.5634 8.37291L15.5637 8.35341L15.5629 8.33392C15.5288 7.47517 15.6641 6.2006 16.1447 5.17277C16.6105 4.17649 17.343 3.5 18.5454 3.5C19.0529 3.5 19.6969 3.71504 20.231 4.38708C20.7736 5.06991 21.25 6.28767 21.25 8.36364C21.25 10.4418 20.7795 11.6664 20.2387 12.3549Z" fill="#363538"/>
</svg>
