<svg width="24" height="24" viewBox="0 0 24 24" fill="none" xmlns="http://www.w3.org/2000/svg">
<path fill-rule="evenodd" clip-rule="evenodd" d="M12.0003 1.75C13.5767 1.75 15.158 1.77406 16.5784 1.91504C17.9871 2.05488 19.3095 2.31564 20.3362 2.8291C22.4893 3.90595 23.3629 6.69798 21.5306 8.53027C21.3196 8.74123 21.1378 8.92302 20.9817 9.0791C20.5291 9.5317 20.287 10.1616 20.3118 10.8145C20.3589 12.0496 20.4073 13.9534 20.3479 15.6963C20.3183 16.5663 20.262 17.413 20.1614 18.123C20.1112 18.4779 20.0474 18.8122 19.9671 19.1045C19.8895 19.3867 19.7828 19.6781 19.6243 19.916C18.8887 21.0194 17.5756 21.5062 16.262 21.7432C14.9257 21.9842 13.3899 22 12.0003 22C10.6108 22 9.07574 21.9841 7.73954 21.7432C6.42566 21.5062 5.11191 21.0197 4.37626 19.916C4.21764 19.678 4.11112 19.3869 4.03348 19.1045C3.95314 18.8122 3.89039 18.4779 3.84013 18.123C3.73957 17.413 3.68225 16.5663 3.65263 15.6963C3.59329 13.9534 3.64162 12.0496 3.68876 10.8145C3.7136 10.1617 3.47245 9.53169 3.01981 9.0791L2.47001 8.53027C0.637366 6.69793 1.51204 3.90592 3.66532 2.8291C4.6921 2.31579 6.01455 2.05484 7.42313 1.91504C8.84347 1.7741 10.424 1.75 12.0003 1.75ZM12.0003 3.25C10.4287 3.25 8.91219 3.27422 7.57157 3.40723C6.21932 3.54144 5.11544 3.78137 4.33622 4.1709C2.87726 4.9005 2.58826 6.52762 3.53056 7.46973L4.08036 8.01855C4.83753 8.77567 5.22795 9.8143 5.18778 10.8711C5.14112 12.0936 5.09511 13.9562 5.15263 15.6455C5.18143 16.4912 5.23565 17.2777 5.32548 17.9121C5.37038 18.2292 5.42207 18.496 5.47977 18.7061C5.54023 18.926 5.59527 19.0404 5.6243 19.084C6.00916 19.6614 6.79821 20.0499 8.00516 20.2676C9.18958 20.4812 10.5944 20.5 12.0003 20.5C13.4061 20.5 14.811 20.4811 15.9954 20.2676C17.2022 20.0499 17.9914 19.6613 18.3763 19.084C18.4053 19.0402 18.4604 18.9257 18.5208 18.7061C18.5785 18.496 18.6312 18.2292 18.6761 17.9121C18.7659 17.2777 18.8201 16.4911 18.8489 15.6455C18.9064 13.9562 18.8604 12.0936 18.8138 10.8711C18.7736 9.81425 19.164 8.77569 19.9212 8.01855C20.0773 7.86247 20.259 7.68068 20.47 7.46973C21.4119 6.52763 21.1239 4.9005 19.6653 4.1709C18.8861 3.78123 17.7824 3.54147 16.43 3.40723C15.0892 3.27415 13.5722 3.25 12.0003 3.25Z" fill="#363538"/>
</svg>
