<svg width="24" height="24" viewBox="0 0 24 24" fill="none" xmlns="http://www.w3.org/2000/svg">
<path fill-rule="evenodd" clip-rule="evenodd" d="M11.9009 11.2143L11.1962 11.9788L18.6118 19.3944C18.9047 19.6873 18.9047 20.1622 18.6118 20.4551C18.3189 20.7479 17.844 20.7479 17.5511 20.4551L4.82319 7.72713C4.53029 7.43424 4.53029 6.95937 4.82319 6.66647C5.11608 6.37358 5.59095 6.37358 5.88385 6.66647L6.02119 6.80381L6.78577 6.09916C7.47607 5.46295 8.54538 5.48475 9.20919 6.14855L11.8515 8.79084C12.5153 9.45464 12.5371 10.524 11.9009 11.2143ZM7.80232 7.20216C7.90094 7.11127 8.0537 7.11438 8.14853 7.20921L10.7908 9.8515C10.8856 9.94633 10.8888 10.0991 10.7979 10.1977L10.1347 10.9173L7.08273 7.86536L7.80232 7.20216Z" fill="#363538"/>
</svg>
