<svg width="24" height="24" viewBox="0 0 24 24" fill="none" xmlns="http://www.w3.org/2000/svg">
<path fill-rule="evenodd" clip-rule="evenodd" d="M11.9331 7.43169C11.5691 7.45219 11.1961 7.37401 10.8115 7.22016C9.63315 6.7488 9.08439 6.17391 8.69798 5.7691C8.61854 5.68588 8.54596 5.60985 8.47618 5.54338C8.29658 5.37229 8.12778 5.24894 7.85183 5.15557C7.55385 5.05475 7.0932 4.97686 6.31735 4.97686C5.7405 4.97686 5.35847 5.13782 5.09276 5.36811C4.81788 5.60636 4.60027 5.97772 4.4678 6.50729C4.19733 7.58845 4.3314 9.13884 4.81112 10.8178C5.45056 13.0557 6.17648 16.4811 6.62303 18.6914C7.12959 17.7493 7.80704 16.6167 8.56939 15.6876C8.97845 15.189 9.43151 14.7247 9.91676 14.3798C10.398 14.0377 10.9665 13.7738 11.59 13.7738C12.202 13.7738 12.7489 14.0516 13.2011 14.4008C13.6584 14.7538 14.0837 15.2292 14.4689 15.7435C15.226 16.7541 15.9057 18.0203 16.4279 19.1114C16.4395 19.1119 16.4527 19.1114 16.4668 19.1095C16.4818 19.1074 16.4955 19.1041 16.507 19.1002C16.8833 17.0126 17.6016 14.0838 18.9328 11.6625C19.5574 10.5265 19.845 8.83736 19.5265 7.40608C19.3697 6.70108 19.074 6.0942 18.6374 5.64365C18.2086 5.20118 17.6096 4.873 16.7697 4.76802C15.8909 4.65817 15.3461 4.80066 14.9724 5.00272C14.583 5.21324 14.3008 5.52856 13.9993 5.91882C13.9608 5.96861 13.9199 6.0225 13.8774 6.07849C13.7669 6.22397 13.6456 6.38365 13.5286 6.52268C13.3598 6.72321 13.1531 6.93983 12.8938 7.11065C12.6238 7.2886 12.3061 7.41069 11.9331 7.43169ZM14.259 3.68325C14.954 3.30744 15.8237 3.1381 16.9557 3.2796C18.1159 3.42461 19.0352 3.89873 19.7146 4.59977C20.3861 5.29271 20.7883 6.17053 20.9907 7.08034C21.3908 8.87866 21.0421 10.9395 20.2473 12.3851C19.02 14.6174 18.3353 17.392 17.972 19.429C17.8378 20.1813 17.1743 20.5267 16.6699 20.5956C16.1656 20.6646 15.4323 20.5097 15.103 19.818C14.5924 18.7454 13.9514 17.5546 13.2684 16.6428C12.9264 16.1863 12.5939 15.8271 12.2844 15.5881C11.9699 15.3453 11.7411 15.2738 11.59 15.2738C11.3935 15.2738 11.1272 15.3597 10.7858 15.6023C10.4485 15.8421 10.0912 16.1976 9.72901 16.639C9.00493 17.5215 8.33931 18.6506 7.84074 19.596C7.52915 20.1868 6.91121 20.3891 6.40352 20.325C5.89316 20.2605 5.33691 19.9046 5.20215 19.2338C4.76012 17.0334 4.01378 13.487 3.36884 11.2299C2.85798 9.44198 2.64975 7.59389 3.01264 6.14327C3.19683 5.40695 3.5398 4.72911 4.11033 4.23461C4.69003 3.73217 5.43823 3.47686 6.31736 3.47686C7.17787 3.47686 7.81948 3.56109 8.33258 3.7347C8.86771 3.91576 9.21879 4.17914 9.51078 4.45728C9.61969 4.56103 9.71656 4.66149 9.81092 4.75935C10.1792 5.14133 10.5094 5.48375 11.3686 5.82745C11.609 5.9236 11.7596 5.93909 11.8488 5.93406C11.9291 5.92954 11.9945 5.90691 12.0686 5.85809C12.1535 5.80214 12.2521 5.70993 12.381 5.55672C12.4727 5.44776 12.5573 5.33638 12.6567 5.20545C12.7043 5.14268 12.7554 5.07542 12.8123 5.00178C13.1387 4.5792 13.5795 4.0506 14.259 3.68325Z" fill="#363538"/>
</svg>
