<svg width="24" height="24" viewBox="0 0 24 24" fill="none" xmlns="http://www.w3.org/2000/svg">
<path fill-rule="evenodd" clip-rule="evenodd" d="M14.8594 2.53409C15.678 2.31095 16.5536 2.47816 17.2324 2.98721L20.2832 5.27432C21.1149 5.40976 21.7499 6.12999 21.75 6.99991V7.99991C21.75 8.96641 20.9665 9.74991 20 9.74991H18.75V19.9999C18.75 20.9664 17.9665 21.7499 17 21.7499H15C14.0335 21.7499 13.25 20.9664 13.25 19.9999V9.74991H6.25V12.2499H6.5C7.46644 12.2499 8.24991 13.0335 8.25 13.9999V15.9999C8.25 16.9664 7.4665 17.7499 6.5 17.7499H4.5C3.5335 17.7499 2.75 16.9664 2.75 15.9999V13.9999C2.75009 13.0335 3.53356 12.2499 4.5 12.2499H4.75V9.74991H4C3.0335 9.74991 2.25 8.96641 2.25 7.99991V6.99991C2.25009 6.03349 3.03356 5.24991 4 5.24991H4.89941L14.8594 2.53409ZM14.75 19.9999C14.75 20.138 14.8619 20.2499 15 20.2499H17C17.1381 20.2499 17.25 20.138 17.25 19.9999V18.7499H14.75V19.9999ZM14.75 17.2499H17.25V15.7499H14.75V17.2499ZM4.5 13.7499C4.36199 13.7499 4.25009 13.8619 4.25 13.9999V15.9999C4.25 16.138 4.36193 16.2499 4.5 16.2499H6.5C6.63807 16.2499 6.75 16.138 6.75 15.9999V13.9999C6.74991 13.8619 6.63801 13.7499 6.5 13.7499H4.5ZM14.75 14.2499H17.25V12.7499H14.75V14.2499ZM14.75 11.2499H17.25V9.74991H14.75V11.2499ZM4 6.74991C3.86199 6.74991 3.75009 6.86192 3.75 6.99991V7.99991C3.75 8.13798 3.86193 8.24991 4 8.24991H13.25V6.99991C13.25 6.91494 13.2578 6.83164 13.2695 6.74991H4ZM15 6.74991C14.862 6.74991 14.7501 6.86192 14.75 6.99991V8.24991H17.25V6.99991C17.2499 6.87928 17.1645 6.77821 17.0508 6.75479L17 6.74991H15ZM18.7305 6.74991C18.7422 6.83164 18.75 6.91494 18.75 6.99991V8.24991H20C20.1381 8.24991 20.25 8.13798 20.25 7.99991V6.99991C20.2499 6.86192 20.138 6.74991 20 6.74991H18.7305ZM16.333 4.18643C16.0245 3.95512 15.6259 3.87906 15.2539 3.98038L10.5996 5.24991H17.751L16.333 4.18643Z" fill="#363538"/>
</svg>
