<svg width="24" height="24" viewBox="0 0 24 24" fill="none" xmlns="http://www.w3.org/2000/svg">
<path fill-rule="evenodd" clip-rule="evenodd" d="M13.7143 6C9.4538 6 6 9.4538 6 13.7143C6 14.4244 6.57563 15 7.28571 15H14C15.1046 15 16 14.1046 16 13V7.42857C16 6.63959 15.3604 6 14.5714 6H13.7143ZM7.50363 13.5H14C14.2761 13.5 14.5 13.2761 14.5 13V7.5H13.7143C10.3539 7.5 7.61656 10.1672 7.50363 13.5Z" fill="#363538"/>
<path d="M7 16.25C6.58579 16.25 6.25 16.5858 6.25 17C6.25 17.4142 6.58579 17.75 7 17.75H13C13.4142 17.75 13.75 17.4142 13.75 17C13.75 16.5858 13.4142 16.25 13 16.25H7Z" fill="#363538"/>
<path fill-rule="evenodd" clip-rule="evenodd" d="M22 4C22 2.89543 21.1046 2 20 2H15.3333C7.96954 2 2 7.96954 2 15.3333C2 19.0152 4.98477 22 8.66667 22H20C21.1046 22 22 21.1046 22 20V4ZM15.3333 3.5C8.79796 3.5 3.5 8.79796 3.5 15.3333C3.5 18.1868 5.8132 20.5 8.66667 20.5H20C20.2761 20.5 20.5 20.2761 20.5 20V17.75H18C17.5858 17.75 17.25 17.4142 17.25 17C17.25 16.5858 17.5858 16.25 18 16.25H20.5V14.937C20.3402 14.9781 20.1726 15 20 15H19C17.8954 15 17 14.1046 17 13V8C17 6.89543 17.8954 6 19 6H20C20.1726 6 20.3402 6.02188 20.5 6.06301V4C20.5 3.72386 20.2761 3.5 20 3.5H15.3333ZM20.5 8C20.5 7.72386 20.2761 7.5 20 7.5H19C18.7239 7.5 18.5 7.72386 18.5 8V13C18.5 13.2761 18.7239 13.5 19 13.5H20C20.2761 13.5 20.5 13.2761 20.5 13V8Z" fill="#363538"/>
</svg>
