<svg width="24" height="24" viewBox="0 0 24 24" fill="none" xmlns="http://www.w3.org/2000/svg">
<path fill-rule="evenodd" clip-rule="evenodd" d="M6.90185 5.45645C6.83578 5.46517 6.77286 5.48224 6.71402 5.50646C5.92754 5.5679 5.23746 5.629 4.74054 5.67508C4.48635 5.69865 4.28256 5.71831 4.14208 5.7321L3.98044 5.74815L3.92447 5.75381L3.92339 5.75392C3.51135 5.79623 3.21161 6.16456 3.25392 6.5766C3.29623 6.98865 3.66455 7.28838 4.0766 7.24608L4.07587 7.2389C4.0766 7.24608 4.0766 7.24608 4.0766 7.24608L4.13046 7.24062L4.28863 7.22493C4.4267 7.21137 4.6278 7.19197 4.87906 7.16867C5.38169 7.12206 6.08441 7.05989 6.88424 6.99775C8.48937 6.87302 10.4654 6.75 12 6.75C13.5346 6.75 15.5106 6.87302 17.1158 6.99775C17.9156 7.05989 18.6183 7.12206 19.1209 7.16867C19.3722 7.19197 19.5733 7.21137 19.7114 7.22493L19.8695 7.24062L19.9227 7.24601C20.3348 7.28831 20.7038 6.98865 20.7461 6.5766C20.7884 6.16456 20.4886 5.79623 20.0766 5.75392L20.0196 5.74815L19.8579 5.7321C19.7174 5.71831 19.5136 5.69865 19.2595 5.67508C18.7625 5.62899 18.0724 5.5679 17.2859 5.50646C17.2343 5.48524 17.1795 5.46948 17.1221 5.46001C16.6274 5.37837 16.2109 5.0449 16.023 4.57999L15.9326 4.35615C15.4183 3.08329 14.1829 2.25 12.8101 2.25H11.4629C10.1082 2.25 8.88917 3.07225 8.3817 4.32825C8.13564 4.93723 7.58105 5.3668 6.92988 5.45275L6.90185 5.45645ZM11.4629 3.75C10.7197 3.75 10.0509 4.20111 9.77247 4.89018C9.71203 5.03976 9.64138 5.18341 9.56146 5.32039C10.4107 5.27787 11.2524 5.25 12 5.25C12.8297 5.25 13.7752 5.28433 14.7184 5.3349C14.6875 5.27191 14.6588 5.20755 14.6323 5.14191L14.5418 4.91808C14.2566 4.21214 13.5714 3.75 12.8101 3.75H11.4629Z" fill="#363538"/>
<path d="M18.7472 9.06497C18.7831 8.65232 18.4776 8.2887 18.065 8.25282C17.6523 8.21694 17.2887 8.52237 17.2528 8.93503L16.4476 18.1949C16.3465 19.3576 15.3732 20.25 14.2061 20.25H9.39414C8.18951 20.25 7.19859 19.3012 7.14626 18.0977L6.74929 8.96742C6.7313 8.5536 6.38124 8.23272 5.96742 8.25071C5.5536 8.2687 5.23271 8.61876 5.25071 9.03258L5.64768 18.1629C5.73488 20.1687 7.38642 21.75 9.39414 21.75H14.2061C16.1512 21.75 17.7735 20.2627 17.942 18.3249L18.7472 9.06497Z" fill="#363538"/>
<path d="M9 17.25C8.58578 17.25 8.25 17.5858 8.25 18C8.25 18.4142 8.58578 18.75 9 18.75H15C15.4142 18.75 15.75 18.4142 15.75 18C15.75 17.5858 15.4142 17.25 15 17.25H9Z" fill="#363538"/>
<path d="M8.25 15C8.25 14.5858 8.58578 14.25 9 14.25H15C15.4142 14.25 15.75 14.5858 15.75 15C15.75 15.4142 15.4142 15.75 15 15.75H9C8.58578 15.75 8.25 15.4142 8.25 15Z" fill="#363538"/>
<path d="M9 11.25C8.58578 11.25 8.25 11.5858 8.25 12C8.25 12.4142 8.58578 12.75 9 12.75H15C15.4142 12.75 15.75 12.4142 15.75 12C15.75 11.5858 15.4142 11.25 15 11.25H9Z" fill="#363538"/>
</svg>
