<svg width="24" height="24" viewBox="0 0 24 24" fill="none" xmlns="http://www.w3.org/2000/svg">
<path d="M9 9.25C9.41421 9.25 9.75 9.58579 9.75 10V16C9.75 16.4142 9.41421 16.75 9 16.75C8.58579 16.75 8.25 16.4142 8.25 16V10C8.25 9.58579 8.58579 9.25 9 9.25Z" fill="#363538"/>
<path d="M15 9.25C15.4142 9.25 15.75 9.58579 15.75 10V16C15.75 16.4142 15.4142 16.75 15 16.75C14.5858 16.75 14.25 16.4142 14.25 16V10C14.25 9.58579 14.5858 9.25 15 9.25Z" fill="#363538"/>
<path fill-rule="evenodd" clip-rule="evenodd" d="M14 1.25C14.9665 1.25 15.75 2.0335 15.75 3V5.25H16C17.5188 5.25 18.75 6.48122 18.75 8V18C18.75 19.5188 17.5188 20.75 16 20.75H15.75V21.5C15.75 21.9142 15.4142 22.25 15 22.25C14.5858 22.25 14.25 21.9142 14.25 21.5V20.75H9.75V21.5C9.75 21.9142 9.41421 22.25 9 22.25C8.58579 22.25 8.25 21.9142 8.25 21.5V20.75H8C6.48122 20.75 5.25 19.5188 5.25 18V8C5.25 6.48122 6.48122 5.25 8 5.25H8.25V3C8.25 2.0335 9.0335 1.25 10 1.25H14ZM8 6.75C7.30964 6.75 6.75 7.30964 6.75 8V18C6.75 18.6904 7.30964 19.25 8 19.25H16C16.6904 19.25 17.25 18.6904 17.25 18V8C17.25 7.30964 16.6904 6.75 16 6.75H8ZM10 2.75C9.86193 2.75 9.75 2.86193 9.75 3V5.25H14.25V3C14.25 2.86193 14.1381 2.75 14 2.75H10Z" fill="#363538"/>
</svg>
