<svg width="24" height="24" viewBox="0 0 24 24" fill="none" xmlns="http://www.w3.org/2000/svg">
<path fill-rule="evenodd" clip-rule="evenodd" d="M13.9481 1.25C12.8369 1.25 11.7609 1.63958 10.9072 2.35095L10.6849 2.53622C9.8806 3.20646 8.76322 3.36831 7.79897 2.95506C6.64522 2.46059 5.32838 2.49723 4.20429 3.05928L4.00466 3.15909C2.95206 3.68539 2.2014 4.66819 1.97061 5.82218L1.94292 5.9606C1.79455 6.70247 1.89768 7.47263 2.23603 8.14932C2.50379 8.68484 2.50379 9.31516 2.23603 9.85068L1.75514 10.8124C1.40401 11.5147 1.29829 12.3162 1.45192 13.0844C1.94151 15.5324 4.76499 16.7247 6.85184 15.3334C7.34381 15.0054 7.95499 14.91 8.52351 15.0725L8.91861 15.1854C9.50875 15.4724 10.0543 15.802 10.5277 16.0965C10.5655 16.3172 10.5978 16.5448 10.6248 16.777C10.7051 17.4665 10.7345 18.1545 10.7345 18.7527C10.506 19.0134 10.1608 19.3441 9.74065 19.6299C9.19827 19.9988 8.59509 20.25 8 20.25C7.58578 20.25 7.25 20.5858 7.25 21C7.25 21.4142 7.58578 21.75 8 21.75C9.00491 21.75 9.90172 21.3345 10.5843 20.8701C10.7276 20.7727 10.8642 20.6712 10.9934 20.568C11.1032 20.6499 11.2367 20.7027 11.3833 20.7141C11.5985 20.7309 11.7995 20.655 11.9473 20.5201C12.0938 20.6398 12.2503 20.7576 12.4157 20.8701C13.0983 21.3345 13.9951 21.75 15 21.75C15.4142 21.75 15.75 21.4142 15.75 21C15.75 20.5858 15.4142 20.25 15 20.25C14.4049 20.25 13.8017 19.9988 13.2593 19.6299C12.8196 19.3308 12.462 18.9825 12.2344 18.7168C12.2333 18.0733 12.2007 17.3409 12.1148 16.6035C12.0979 16.4588 12.0788 16.3123 12.0573 16.1646C12.1015 16.1018 12.1368 16.0312 12.1607 15.9538C12.2778 15.575 12.5133 15.1625 12.8322 14.7383C12.8569 14.7235 12.8814 14.7085 12.9059 14.6932L14.2428 13.8576C14.7657 13.5308 15.413 13.473 15.9855 13.702C16.9818 14.1005 18.107 14.0104 19.0271 13.4583L19.0532 13.4427C20.1058 12.8111 20.7499 11.6735 20.7499 10.446V9.60265C20.7499 9.32276 20.8151 9.04672 20.9402 8.79638C21.5164 7.6441 21.3699 6.26198 20.5652 5.256L18.7865 3.0327C17.8851 1.90593 16.5204 1.25 15.0774 1.25H13.9481ZM15.6561 12.0858C15.9569 12.12 16.2551 12.1943 16.5426 12.3093C17.1036 12.5337 17.7373 12.4829 18.2554 12.1721L18.2815 12.1564C18.8823 11.7959 19.2499 11.1466 19.2499 10.446V9.60265C19.2499 9.0899 19.3693 8.58418 19.5986 8.12556C19.9131 7.49659 19.8332 6.74216 19.3939 6.19304L17.6152 3.96974C16.9985 3.19879 16.0647 2.75 15.0774 2.75H13.9481C13.1878 2.75 12.4516 3.01655 11.8675 3.50328L11.6452 3.68855C10.4059 4.72128 8.68888 4.9684 7.20809 4.33377C6.45848 4.01251 5.60318 4.03688 4.87511 4.40092L4.67548 4.50073C4.0369 4.82002 3.5815 5.41626 3.44148 6.11635L3.41379 6.25478C3.33083 6.66956 3.3885 7.10016 3.57767 7.4785C4.05657 8.43631 4.05657 9.56369 3.57767 10.5215L3.09678 11.4833C2.89562 11.8856 2.83423 12.3474 2.92279 12.7902C3.14618 13.9072 4.20955 14.5631 5.2326 14.3967C5.04979 14.2855 4.91559 14.0972 4.88071 13.8692C4.8181 13.4597 5.09926 13.077 5.50872 13.0144C6.67971 12.8353 7.82616 13.1075 8.81122 13.4985C9.03038 13.5855 9.24448 13.6796 9.45215 13.7778L9.49552 13.7902C9.58326 13.8152 9.67165 13.8365 9.76046 13.854C9.74657 13.8337 9.73253 13.8138 9.71832 13.7944C9.47395 13.46 9.54697 12.9907 9.88142 12.7464C10.2159 12.502 10.6851 12.575 10.9295 12.9094C11.1141 13.1622 11.2727 13.4462 11.409 13.7508C11.5557 13.7023 11.6993 13.6432 11.8388 13.5736C12.1931 13.1363 12.5896 12.7249 12.983 12.3541C13.9462 11.4461 14.9977 10.6833 15.6827 10.2516C16.0331 10.0308 16.4962 10.1358 16.7171 10.4863C16.9379 10.8367 16.8329 11.2998 16.4824 11.5206C16.25 11.6671 15.9665 11.8589 15.6561 12.0858Z" fill="#363538"/>
</svg>
