<svg width="24" height="24" viewBox="0 0 24 24" fill="none" xmlns="http://www.w3.org/2000/svg">
<path fill-rule="evenodd" clip-rule="evenodd" d="M11.25 16.2501H7.6032C5.31814 16.2501 3.61199 14.9486 3.13199 13.2686C2.89201 12.4287 2.97157 11.5167 3.43536 10.7C3.81107 10.0385 4.41697 9.47639 5.23682 9.06152C4.90786 7.2483 5.29539 5.65604 6.1379 4.40848C7.06648 3.03347 8.51819 2.11961 10.062 1.76874C11.6068 1.41766 13.2932 1.62038 14.6774 2.54919C15.9459 3.40042 16.8875 4.81217 17.2539 6.78801C19.8136 7.09316 21.2282 9.19193 21.2282 11.3126C21.2282 12.4575 20.8215 13.6281 19.9651 14.5497C19.1035 15.4769 17.8274 16.109 16.1655 16.2475C16.1448 16.2492 16.124 16.2501 16.1032 16.2501H12.75V19.9595L15.2372 20.7886C15.6301 20.9196 15.8425 21.3443 15.7115 21.7373C15.5805 22.1302 15.1558 22.3426 14.7628 22.2116L12 21.2907L9.23719 22.2116C8.84423 22.3426 8.41949 22.1302 8.28851 21.7373C8.15752 21.3443 8.36989 20.9196 8.76285 20.7886L11.25 19.9595V16.2501ZM6.82787 9.30685C6.38137 7.63246 6.69504 6.2637 7.38099 5.24796C8.07741 4.21672 9.1882 3.50558 10.3944 3.23144C11.5996 2.95753 12.8507 3.12981 13.8415 3.79474C14.8182 4.45014 15.6296 5.64314 15.8583 7.58772C15.9028 7.96543 16.2229 8.25009 16.6032 8.25009C18.6336 8.2501 19.7282 9.73166 19.7282 11.3126C19.7282 12.1052 19.4474 12.9033 18.8663 13.5286C18.2948 14.1436 17.3927 14.6337 16.0711 14.7501H13.0263C13.0327 14.737 13.0392 14.7238 13.0458 14.7105C13.3282 14.1458 13.7 13.7501 14.25 13.7501C14.6642 13.7501 15 13.4143 15 13.0001C15 12.5859 14.6642 12.2501 14.25 12.2501C13.1083 12.2501 12.3986 12.9347 11.9812 13.5604C11.8494 13.4389 11.7107 13.3265 11.5742 13.2245C11.0409 12.8257 10.431 12.5021 10.0854 12.3293C9.71495 12.144 9.26444 12.2942 9.0792 12.6647C8.89396 13.0352 9.04413 13.4857 9.41461 13.6709C9.73569 13.8315 10.2508 14.1078 10.6759 14.4257C10.8289 14.5402 10.9561 14.6496 11.0539 14.7501H7.60319C5.88815 14.7501 4.84427 13.8015 4.57428 12.8566C4.43927 12.384 4.48472 11.8898 4.7397 11.4408C4.99585 10.9897 5.49677 10.5285 6.36653 10.2023C6.72772 10.0669 6.92726 9.67957 6.82787 9.30685Z" fill="#363538"/>
</svg>
