<svg width="24" height="24" viewBox="0 0 24 24" fill="none" xmlns="http://www.w3.org/2000/svg">
<path d="M8.75 6C8.75 5.58579 8.41421 5.25 8 5.25C7.58579 5.25 7.25 5.58579 7.25 6V7.25H6C5.58579 7.25 5.25 7.58579 5.25 8C5.25 8.41421 5.58579 8.75 6 8.75H7.25V10C7.25 10.4142 7.58579 10.75 8 10.75C8.41421 10.75 8.75 10.4142 8.75 10V8.75H10C10.4142 8.75 10.75 8.41421 10.75 8C10.75 7.58579 10.4142 7.25 10 7.25H8.75V6Z" fill="#363538"/>
<path fill-rule="evenodd" clip-rule="evenodd" d="M12 2H6C3.79086 2 2 3.79086 2 6V12C2 13.1046 2.89543 14 4 14H4.25V16C4.25 17.1182 4.73942 18.1221 5.51573 18.8091C5.67047 20.3208 6.94752 21.5 8.5 21.5C9.7155 21.5 10.7622 20.7771 11.2335 19.7378C11.2317 19.7419 11.2298 19.7459 11.228 19.75H13.272C13.746 20.7828 14.7893 21.5 16 21.5C17.2408 21.5 18.3057 20.7467 18.7622 19.6725C20.4678 19.3203 21.75 17.8099 21.75 16V11.8688C21.75 11.3214 21.5866 10.7865 21.2808 10.3325L17.9223 5.34635C17.0395 4.03578 15.5628 3.25 13.9826 3.25H13.8546C13.863 3.27061 13.871 3.29139 13.8786 3.31233C13.5982 2.54653 12.8629 2 12 2ZM6 3.5H12C12.2761 3.5 12.5 3.72386 12.5 4V12C12.5 12.2761 12.2761 12.5 12 12.5H4C3.72386 12.5 3.5 12.2761 3.5 12V6C3.5 4.61929 4.61929 3.5 6 3.5ZM5.75 16V14H12C13.1046 14 14 13.1046 14 12V4.75005C15.0746 4.75577 16.0774 5.29244 16.6782 6.18434L16.7977 6.36178C15.899 6.65679 15.25 7.50261 15.25 8.5V10.25C15.25 12.4591 17.0409 14.25 19.25 14.25H20.25V16C20.25 16.8977 19.7243 17.6726 18.964 18.0336C18.7399 16.5983 17.4982 15.5 16 15.5C14.4273 15.5 13.1373 16.7101 13.0103 18.25H11.4897C11.3627 16.7101 10.0727 15.5 8.5 15.5C7.42166 15.5 6.4762 16.0689 5.94743 16.923C5.82058 16.6414 5.75 16.3289 5.75 16ZM17.5 7.75C17.5737 7.75 17.6449 7.73936 17.7122 7.71954L20.0367 11.1705C20.1757 11.3769 20.25 11.62 20.25 11.8688V12.75H19.25C17.8693 12.75 16.75 11.6307 16.75 10.25V8.5C16.75 8.08579 17.0858 7.75 17.5 7.75ZM10 18.5C10 19.3284 9.32843 20 8.5 20C7.67157 20 7 19.3284 7 18.5C7 17.6716 7.67157 17 8.5 17C9.32843 17 10 17.6716 10 18.5ZM16 20C16.8284 20 17.5 19.3284 17.5 18.5C17.5 17.6716 16.8284 17 16 17C15.1716 17 14.5 17.6716 14.5 18.5C14.5 19.3284 15.1716 20 16 20Z" fill="#363538"/>
</svg>
