<svg width="24" height="24" viewBox="0 0 24 24" fill="none" xmlns="http://www.w3.org/2000/svg">
<path fill-rule="evenodd" clip-rule="evenodd" d="M6 3.5H12C12.2761 3.5 12.5 3.72386 12.5 4V12C12.5 12.2761 12.2761 12.5 12 12.5H4C3.72386 12.5 3.5 12.2761 3.5 12V11H2V12C2 13.1046 2.89543 14 4 14H4.25V16C4.25 17.1182 4.73942 18.1221 5.51573 18.8091C5.67047 20.3208 6.94752 21.5 8.5 21.5C9.71075 21.5 10.754 20.7828 11.228 19.75H13.272C13.746 20.7828 14.7893 21.5 16 21.5C17.2408 21.5 18.3057 20.7467 18.7622 19.6725C20.4678 19.3203 21.75 17.8099 21.75 16V11.8688C21.75 11.3214 21.5866 10.7865 21.2808 10.3325L17.9223 5.34635C17.0395 4.03578 15.5628 3.25 13.9826 3.25H13.8546C13.863 3.27061 13.871 3.29139 13.8786 3.31233C13.5982 2.54653 12.8629 2 12 2H6C4.51944 2 3.22675 2.8044 2.53513 4H4.49976C4.91763 3.68604 5.43709 3.5 6 3.5ZM5.75 16V14H12C13.1046 14 14 13.1046 14 12V4.75005C15.0746 4.75577 16.0774 5.29244 16.6782 6.18434L16.7977 6.36178C15.899 6.65679 15.25 7.50261 15.25 8.5V10.25C15.25 12.4591 17.0409 14.25 19.25 14.25H20.25V16C20.25 16.8977 19.7243 17.6726 18.964 18.0336C18.7399 16.5983 17.4982 15.5 16 15.5C14.4273 15.5 13.1373 16.7101 13.0103 18.25H11.4897C11.3627 16.7101 10.0727 15.5 8.5 15.5C7.42166 15.5 6.4762 16.0689 5.94743 16.923C5.82058 16.6414 5.75 16.3289 5.75 16ZM20.25 12.75V11.8688C20.25 11.62 20.1757 11.3769 20.0367 11.1705L17.7328 7.75H17.5C17.0858 7.75 16.75 8.08579 16.75 8.5V10.25C16.75 11.6307 17.8693 12.75 19.25 12.75H20.25ZM8.5 20C9.32843 20 10 19.3284 10 18.5C10 17.6716 9.32843 17 8.5 17C7.67157 17 7 17.6716 7 18.5C7 19.3284 7.67157 20 8.5 20ZM17.5 18.5C17.5 19.3284 16.8284 20 16 20C15.1716 20 14.5 19.3284 14.5 18.5C14.5 17.6716 15.1716 17 16 17C16.8284 17 17.5 17.6716 17.5 18.5Z" fill="#363538"/>
<path d="M1.25 6C1.25 5.58579 1.58579 5.25 2 5.25H6C6.41421 5.25 6.75 5.58579 6.75 6C6.75 6.41421 6.41421 6.75 6 6.75H2C1.58579 6.75 1.25 6.41421 1.25 6Z" fill="#363538"/>
<path d="M2 8.25C1.58579 8.25 1.25 8.58579 1.25 9C1.25 9.41421 1.58579 9.75 2 9.75H9C9.41421 9.75 9.75 9.41421 9.75 9C9.75 8.58579 9.41421 8.25 9 8.25H2Z" fill="#363538"/>
</svg>
