<svg width="24" height="24" viewBox="0 0 24 24" fill="none" xmlns="http://www.w3.org/2000/svg">
<path fill-rule="evenodd" clip-rule="evenodd" d="M6 2H12C12.8629 2 13.5982 2.54653 13.8786 3.31233C13.871 3.29139 13.863 3.27061 13.8546 3.25H13.9826C15.5628 3.25 17.0395 4.03578 17.9223 5.34635L21.2808 10.3325C21.5866 10.7865 21.75 11.3214 21.75 11.8688V16C21.75 17.8099 20.4678 19.3203 18.7622 19.6725C18.3057 20.7467 17.2408 21.5 16 21.5C14.7893 21.5 13.746 20.7828 13.272 19.75H11.228C11.2405 19.7228 11.2526 19.6954 11.2642 19.6677C10.8088 20.7445 9.74264 21.5 8.5 21.5C6.94752 21.5 5.67047 20.3208 5.51573 18.8091C4.73942 18.1221 4.25 17.1182 4.25 16V14H4C2.89543 14 2 13.1046 2 12V6C2 3.79086 3.79086 2 6 2ZM12 3.5H6C4.61929 3.5 3.5 4.61929 3.5 6V12C3.5 12.2761 3.72386 12.5 4 12.5H12C12.2761 12.5 12.5 12.2761 12.5 12V4C12.5 3.72386 12.2761 3.5 12 3.5ZM5.75 14V16C5.75 16.3289 5.82058 16.6414 5.94743 16.923C6.4762 16.0689 7.42166 15.5 8.5 15.5C10.0727 15.5 11.3627 16.7101 11.4897 18.25H13.0103C13.1373 16.7101 14.4273 15.5 16 15.5C17.4982 15.5 18.7399 16.5983 18.964 18.0336C19.7243 17.6726 20.25 16.8977 20.25 16V14.25H19.25C17.0409 14.25 15.25 12.4591 15.25 10.25V8.5C15.25 7.50261 15.899 6.65679 16.7977 6.36178L16.6782 6.18434C16.0774 5.29244 15.0746 4.75577 14 4.75005V12C14 13.1046 13.1046 14 12 14H5.75ZM17.7122 7.71954C17.6449 7.73936 17.5737 7.75 17.5 7.75C17.0858 7.75 16.75 8.08579 16.75 8.5V10.25C16.75 11.6307 17.8693 12.75 19.25 12.75H20.25V11.8688C20.25 11.62 20.1757 11.3769 20.0367 11.1705L17.7122 7.71954ZM8.5 20C9.32843 20 10 19.3284 10 18.5C10 17.6716 9.32843 17 8.5 17C7.67157 17 7 17.6716 7 18.5C7 19.3284 7.67157 20 8.5 20ZM17.5 18.5C17.5 19.3284 16.8284 20 16 20C15.1716 20 14.5 19.3284 14.5 18.5C14.5 17.6716 15.1716 17 16 17C16.8284 17 17.5 17.6716 17.5 18.5Z" fill="#363538"/>
</svg>
