<svg width="24" height="24" viewBox="0 0 24 24" fill="none" xmlns="http://www.w3.org/2000/svg">
<path fill-rule="evenodd" clip-rule="evenodd" d="M11.864 17.1423C10.4261 18.0769 8.5 17.0719 8.5 15.387V10.6132C8.5 8.92831 10.4261 7.92334 11.864 8.85794L15.5365 11.2449C16.8212 12.0799 16.8212 13.9203 15.5365 14.7553L11.864 17.1423ZM10 10.6132V15.387C10 15.6125 10.1172 15.8025 10.3367 15.9171C10.5583 16.0327 10.8183 16.0329 11.0466 15.8846L14.719 13.4977C15.0937 13.2542 15.0937 12.746 14.719 12.5025L11.0466 10.1156C10.8183 9.96725 10.5583 9.96749 10.3367 10.0831C10.1172 10.1977 10 10.3877 10 10.6132Z" fill="#363538"/>
<path fill-rule="evenodd" clip-rule="evenodd" d="M8.3975 2.3641C8.04625 2.14457 7.58353 2.25135 7.364 2.6026C7.14447 2.95385 7.25125 3.41657 7.6025 3.6361L9.7849 5.0001H6C3.79086 5.0001 2 6.79096 2 9.0001V17.0001C2 19.2092 3.79086 21.0001 6 21.0001H18C20.2091 21.0001 22 19.2092 22 17.0001V9.0001C22 6.79096 20.2091 5.0001 18 5.0001H14.2151L16.3975 3.6361C16.7488 3.41657 16.8555 2.95385 16.636 2.6026C16.4165 2.25135 15.9538 2.14457 15.6025 2.3641L12 4.61566L8.3975 2.3641ZM20.5 9.0001C20.5 7.61939 19.3807 6.5001 18 6.5001H6C4.61929 6.5001 3.5 7.61939 3.5 9.0001V17.0001C3.5 18.3808 4.61929 19.5001 6 19.5001H18C19.3807 19.5001 20.5 18.3808 20.5 17.0001V9.0001Z" fill="#363538"/>
</svg>
