<svg width="24" height="24" viewBox="0 0 24 24" fill="none" xmlns="http://www.w3.org/2000/svg">
<path fill-rule="evenodd" clip-rule="evenodd" d="M18.8755 4.29702L20.1789 3.51501C21.0269 3.00618 21.9911 3.97034 21.4823 4.81839L21.3505 5.03807C21.5711 5.07118 21.8038 5.18387 21.9658 5.44232C22.0844 5.63156 22.1485 5.86384 22.1259 6.12919C22.1053 6.37033 22.0161 6.60538 21.8918 6.83423C21.6626 7.25662 21.2316 7.8048 20.4978 8.55743C20.3892 14.2899 17.2773 17.8282 13.4939 19.5445C9.72393 21.2548 5.23571 21.18 2.37271 19.6815C1.97048 19.471 1.81615 19.0462 1.88638 18.6779C1.95465 18.3199 2.2351 17.9978 2.65134 17.9216C3.86488 17.6995 4.82074 17.3439 5.51061 17.0016C4.52959 16.5236 3.60278 15.6823 3.14395 14.3384C2.95321 13.7798 3.26804 13.3405 3.68619 13.1713C3.48435 12.9904 3.28717 12.7975 3.10286 12.5951C2.49189 11.9239 1.89091 11.0031 1.95859 9.97733C1.98075 9.64144 2.17447 9.37805 2.42648 9.23751C1.97258 8.20378 1.89682 6.85219 2.41708 5.3373C2.67703 4.5804 3.61447 4.52199 4.04934 5.04888C5.95248 7.35473 9.0154 7.99291 10.9002 8.0247C10.8342 6.95605 11.0707 6.03266 11.5431 5.27964C12.0999 4.39205 12.9458 3.80273 13.8621 3.48166C15.5074 2.90523 17.5599 3.14388 18.8755 4.29702ZM3.83175 11.1106C3.93624 11.2627 4.06284 11.4214 4.2121 11.5853C4.72694 12.1509 5.39482 12.6503 5.91998 12.9746C6.16555 13.1263 6.35455 13.3999 6.36411 13.732C6.37488 14.1061 6.14942 14.4454 5.78774 14.58C5.57284 14.66 5.315 14.7096 5.01577 14.7165C5.53134 15.4045 6.28175 15.7856 7.00834 15.9446C7.36361 16.0224 7.63077 16.286 7.72509 16.611C7.82403 16.952 7.72634 17.3571 7.39261 17.6095C6.84513 18.0237 5.9276 18.5471 4.66146 18.9595C7.02121 19.5881 10.1345 19.4214 12.8743 18.1785C16.2285 16.6569 18.9725 13.5462 19.0005 8.32728C19.0019 8.07891 19.1015 7.83614 19.2784 7.65807C19.6062 7.32798 19.8588 7.054 20.0524 6.8278C19.5727 6.75388 19.2145 6.30561 19.2491 5.82108C18.8403 6.04268 18.3608 5.92604 18.0808 5.61596C17.2925 4.74299 15.7105 4.42347 14.3581 4.89729C13.7059 5.12582 13.1604 5.52429 12.8138 6.07679C12.4717 6.62198 12.2843 7.37888 12.4507 8.4037C12.5313 8.90023 12.1942 9.476 11.5727 9.51154C9.76442 9.61496 6.161 9.18879 3.60126 6.7626C3.38989 8.16426 3.91427 9.09135 4.47262 9.49795C4.70918 9.67022 4.85566 9.94475 4.86843 10.2297C4.87517 10.3802 4.84553 10.5929 4.69838 10.7881C4.53781 11.0011 4.30563 11.1022 4.08819 11.1195C4.00056 11.1265 3.91482 11.1225 3.83175 11.1106Z" fill="#363538"/>
</svg>
