<svg width="24" height="24" viewBox="0 0 24 24" fill="none" xmlns="http://www.w3.org/2000/svg">
<path fill-rule="evenodd" clip-rule="evenodd" d="M4.63315 16.4674C0.578364 8.84439 8.84439 0.578363 16.4674 4.63315L16.8522 4.83784C17.0621 4.94949 17.2066 5.15405 17.2418 5.38919C17.2769 5.62434 17.1984 5.86221 17.0303 6.03032L12.0607 11L18.0303 16.9697C18.8755 17.8148 18.8755 19.1851 18.0303 20.0303C17.1851 20.8755 15.8148 20.8755 14.9697 20.0303C14.6768 19.7374 14.6768 19.2626 14.9697 18.9697C15.2626 18.6768 15.7374 18.6768 16.0303 18.9697C16.2897 19.2291 16.7103 19.2291 16.9697 18.9697C17.2291 18.7103 17.2291 18.2897 16.9697 18.0303L11 12.0607L6.03032 17.0303C5.86221 17.1984 5.62434 17.2769 5.38919 17.2418C5.15405 17.2066 4.94949 17.0621 4.83784 16.8522L4.63315 16.4674ZM15.2376 5.70175L5.70175 15.2376C3.05404 9.25089 9.25089 3.05404 15.2376 5.70175Z" fill="#363538"/>
</svg>
