<svg width="24" height="24" viewBox="0 0 24 24" fill="none" xmlns="http://www.w3.org/2000/svg">
<path d="M16.5303 4.469C16.8232 4.76193 16.8231 5.2368 16.5302 5.52966L15.5302 6.52942C15.2373 6.82228 14.7624 6.82222 14.4695 6.52929C14.1767 6.23636 14.1767 5.76149 14.4697 5.46863L15.4697 4.46887C15.7626 4.17602 16.2375 4.17607 16.5303 4.469Z" fill="#363538"/>
<path d="M7 7.24963C4.37665 7.24963 2.25 9.37628 2.25 11.9996C2.25 14.623 4.37665 16.7496 7 16.7496H9C9.41421 16.7496 9.75 16.4138 9.75 15.9996C9.75 15.5854 9.41421 15.2496 9 15.2496H7C5.20507 15.2496 3.75 13.7946 3.75 11.9996C3.75 10.2047 5.20507 8.74963 7 8.74963H9C9.41421 8.74963 9.75 8.41385 9.75 7.99963C9.75 7.58542 9.41421 7.24963 9 7.24963L7 7.24963Z" fill="#363538"/>
<path d="M15.0001 7.24963C14.5859 7.24963 14.2501 7.58542 14.2501 7.99963C14.2501 8.41385 14.5859 8.74963 15.0001 8.74963H17.0001C18.795 8.74963 20.2501 10.2047 20.2501 11.9996C20.2501 13.7946 18.795 15.2496 17.0001 15.2496H15.0001C14.5859 15.2496 14.2501 15.5854 14.2501 15.9996C14.2501 16.4138 14.5859 16.7496 15.0001 16.7496H17.0001C19.6235 16.7496 21.7501 14.623 21.7501 11.9996C21.7501 9.37628 19.6235 7.24963 17.0001 7.24963H15.0001Z" fill="#363538"/>
<path d="M7.46991 5.52984C7.17702 5.23695 7.17702 4.76207 7.46991 4.46918C7.76281 4.17629 8.23768 4.17629 8.53057 4.46918L9.53057 5.46918C9.82347 5.76207 9.82347 6.23695 9.53057 6.52984C9.23768 6.82274 8.76281 6.82274 8.46991 6.52984L7.46991 5.52984Z" fill="#363538"/>
<path d="M16.5305 19.5301C16.8234 19.2373 16.8234 18.7624 16.5305 18.4695L15.5303 17.4692C15.2374 17.1763 14.7625 17.1763 14.4696 17.4692C14.1767 17.7621 14.1767 18.237 14.4696 18.5299L15.4699 19.5301C15.7627 19.823 16.2376 19.823 16.5305 19.5301Z" fill="#363538"/>
<path d="M7.46991 18.4692C7.17702 18.7621 7.17702 19.237 7.46991 19.5299C7.76281 19.8228 8.23768 19.8228 8.53057 19.5299L9.53057 18.5299C9.82347 18.237 9.82347 17.7621 9.53057 17.4692C9.23768 17.1763 8.76281 17.1763 8.46991 17.4692L7.46991 18.4692Z" fill="#363538"/>
</svg>
