<svg width="24" height="24" viewBox="0 0 24 24" fill="none" xmlns="http://www.w3.org/2000/svg">
<path d="M9.87823 3.47168C10.2924 3.47173 10.6282 3.80756 10.6281 4.22177L10.628 5.63581C10.6279 6.05003 10.2921 6.38577 9.87788 6.38572C9.46366 6.38567 9.12792 6.04984 9.12797 5.63563L9.12814 4.22159C9.12819 3.80737 9.46402 3.47163 9.87823 3.47168Z" fill="#363538"/>
<path d="M10.7622 6.51998C10.4693 6.81287 10.4693 7.28774 10.7622 7.58064C11.0551 7.87353 11.53 7.87353 11.8229 7.58064L13.2371 6.16642C14.5063 4.89722 16.5641 4.89722 17.8333 6.16642C19.1025 7.43563 19.1025 9.49341 17.8333 10.7626L16.4191 12.1768C16.1262 12.4697 16.1262 12.9446 16.4191 13.2375C16.712 13.5304 17.1868 13.5304 17.4797 13.2375L18.894 11.8233C20.7489 9.96829 20.7489 6.96075 18.894 5.10576C17.039 3.25077 14.0314 3.25077 12.1764 5.10576L10.7622 6.51998Z" fill="#363538"/>
<path d="M5.10536 12.1768C3.25037 14.0318 3.25037 17.0394 5.10536 18.8944C6.96035 20.7493 9.96789 20.7493 11.8229 18.8944L13.2371 17.4801C13.53 17.1872 13.53 16.7124 13.2371 16.4195C12.9442 16.1266 12.4693 16.1266 12.1764 16.4195L10.7622 17.8337C9.49301 19.1029 7.43523 19.1029 6.16602 17.8337C4.89682 16.5645 4.89682 14.5067 6.16602 13.2375L7.58024 11.8233C7.87313 11.5304 7.87313 11.0555 7.58024 10.7626C7.28734 10.4697 6.81247 10.4697 6.51958 10.7626L5.10536 12.1768Z" fill="#363538"/>
<path d="M4.22168 10.6286C3.80747 10.6286 3.47168 10.2928 3.47168 9.87857C3.47168 9.46436 3.80747 9.12857 4.22168 9.12857H5.63589C6.05011 9.12857 6.38589 9.46436 6.38589 9.87857C6.38589 10.2928 6.05011 10.6286 5.63589 10.6286H4.22168Z" fill="#363538"/>
<path d="M20.5282 14.1213C20.5282 13.7071 20.1924 13.3713 19.7782 13.3713H18.3636C17.9494 13.3713 17.6136 13.7071 17.6136 14.1213C17.6136 14.5356 17.9494 14.8713 18.3636 14.8713H19.7782C20.1924 14.8713 20.5282 14.5356 20.5282 14.1213Z" fill="#363538"/>
<path d="M13.3712 19.778C13.3712 20.1923 13.7069 20.528 14.1212 20.528C14.5354 20.528 14.8712 20.1923 14.8712 19.778V18.3638C14.8712 17.9496 14.5354 17.6138 14.1212 17.6138C13.7069 17.6138 13.3712 17.9496 13.3712 18.3638V19.778Z" fill="#363538"/>
</svg>
