<svg width="24" height="24" viewBox="0 0 24 24" fill="none" xmlns="http://www.w3.org/2000/svg">
<path fill-rule="evenodd" clip-rule="evenodd" d="M11 12C13.7614 12 16 9.76142 16 7C16 4.23858 13.7614 2 11 2C8.23858 2 6 4.23858 6 7C6 9.76142 8.23858 12 11 12ZM11 10.5C12.933 10.5 14.5 8.933 14.5 7C14.5 5.067 12.933 3.5 11 3.5C9.067 3.5 7.5 5.067 7.5 7C7.5 8.933 9.067 10.5 11 10.5Z" fill="#363538"/>
<path d="M16.25 12C16.25 11.5858 16.5858 11.25 17 11.25H21C21.4142 11.25 21.75 11.5858 21.75 12C21.75 12.4142 21.4142 12.75 21 12.75H17C16.5858 12.75 16.25 12.4142 16.25 12Z" fill="#363538"/>
<path fill-rule="evenodd" clip-rule="evenodd" d="M19 17.5C19 19.9853 15.4183 22 11 22C6.58172 22 3 19.9853 3 17.5C3 15.0147 6.58172 13 11 13C15.4183 13 19 15.0147 19 17.5ZM17.5 17.5C17.5 17.96 17.1527 18.6821 15.9215 19.3746C14.7373 20.0407 13.0003 20.5 11 20.5C8.99969 20.5 7.26273 20.0407 6.07854 19.3746C4.84733 18.6821 4.5 17.96 4.5 17.5C4.5 17.04 4.84733 16.3179 6.07854 15.6254C7.26273 14.9593 8.99969 14.5 11 14.5C13.0003 14.5 14.7373 14.9593 15.9215 15.6254C17.1527 16.3179 17.5 17.04 17.5 17.5Z" fill="#363538"/>
</svg>
