<svg width="24" height="24" viewBox="0 0 24 24" fill="none" xmlns="http://www.w3.org/2000/svg">
<path fill-rule="evenodd" clip-rule="evenodd" d="M11 12C13.7614 12 16 9.76142 16 7C16 4.23858 13.7614 2 11 2C8.23858 2 6 4.23858 6 7C6 9.76142 8.23858 12 11 12ZM11 10.5C12.933 10.5 14.5 8.933 14.5 7C14.5 5.067 12.933 3.5 11 3.5C9.067 3.5 7.5 5.067 7.5 7C7.5 8.933 9.067 10.5 11 10.5Z" fill="#363538"/>
<path d="M21.5303 9.46967C21.8232 9.76256 21.8232 10.2374 21.5303 10.5303L18.5541 13.5065C18.2684 13.7922 17.8078 13.8003 17.5123 13.5247L15.9885 12.1036C15.6856 11.8211 15.669 11.3465 15.9515 11.0436C16.234 10.7407 16.7086 10.7241 17.0115 11.0066L18.0056 11.9337L20.4697 9.46967C20.7626 9.17678 21.2374 9.17678 21.5303 9.46967Z" fill="#363538"/>
<path fill-rule="evenodd" clip-rule="evenodd" d="M19 17.5C19 19.9853 15.4183 22 11 22C6.58172 22 3 19.9853 3 17.5C3 15.0147 6.58172 13 11 13C15.4183 13 19 15.0147 19 17.5ZM17.5 17.5C17.5 17.96 17.1527 18.6821 15.9215 19.3746C14.7373 20.0407 13.0003 20.5 11 20.5C8.99969 20.5 7.26273 20.0407 6.07854 19.3746C4.84733 18.6821 4.5 17.96 4.5 17.5C4.5 17.04 4.84733 16.3179 6.07854 15.6254C7.26273 14.9593 8.99969 14.5 11 14.5C13.0003 14.5 14.7373 14.9593 15.9215 15.6254C17.1527 16.3179 17.5 17.04 17.5 17.5Z" fill="#363538"/>
</svg>
