<svg width="24" height="24" viewBox="0 0 24 24" fill="none" xmlns="http://www.w3.org/2000/svg">
<path fill-rule="evenodd" clip-rule="evenodd" d="M17 7C17 9.76142 14.7614 12 12 12C9.23858 12 7 9.76142 7 7C7 4.23858 9.23858 2 12 2C14.7614 2 17 4.23858 17 7ZM15.5 7C15.5 8.933 13.933 10.5 12 10.5C10.067 10.5 8.5 8.933 8.5 7C8.5 5.067 10.067 3.5 12 3.5C13.933 3.5 15.5 5.067 15.5 7Z" fill="#363538"/>
<path fill-rule="evenodd" clip-rule="evenodd" d="M18.5 15.9745C19.4559 15.9745 20.2308 15.1996 20.2308 14.2438C20.2308 13.2879 19.4559 12.513 18.5 12.513C17.5441 12.513 16.7692 13.2879 16.7692 14.2438C16.7692 15.1996 17.5441 15.9745 18.5 15.9745ZM18.5 14.4745C18.6275 14.4745 18.7308 14.3712 18.7308 14.2438C18.7308 14.1163 18.6275 14.013 18.5 14.013C18.3726 14.013 18.2692 14.1163 18.2692 14.2438C18.2692 14.3712 18.3726 14.4745 18.5 14.4745Z" fill="#363538"/>
<path fill-rule="evenodd" clip-rule="evenodd" d="M21.1397 17.915L20.3603 18.365C19.9298 18.6135 19.3794 18.466 19.1309 18.0355C18.8505 17.5499 18.1495 17.5499 17.8691 18.0355C17.6206 18.466 17.0702 18.6135 16.6397 18.365L15.8603 17.915C15.4298 17.6664 15.2823 17.116 15.5309 16.6855C15.8113 16.1999 15.4608 15.5928 14.9 15.5928C14.4029 15.5928 14 15.1899 14 14.6928V13.7928C14 13.2958 14.4029 12.8928 14.9 12.8928C15.4608 12.8928 15.8112 12.2858 15.5309 11.8001C15.2823 11.3697 15.4298 10.8193 15.8603 10.5707L16.6397 10.1207C17.0702 9.8722 17.6206 10.0197 17.8691 10.4502C18.1495 10.9358 18.8505 10.9358 19.1309 10.4502C19.3794 10.0197 19.9298 9.8722 20.3603 10.1207L21.1397 10.5707C21.5702 10.8193 21.7177 11.3697 21.4691 11.8002C21.1888 12.2858 21.5392 12.8928 22.1 12.8928C22.5971 12.8928 23 13.2958 23 13.7928V14.6928C23 15.1899 22.5971 15.5928 22.1 15.5928C21.5392 15.5928 21.1887 16.1999 21.4691 16.6855C21.7177 17.116 21.5702 17.6664 21.1397 17.915ZM15.7126 14.2428C16.6761 13.8687 17.264 12.8504 17.1063 11.8289C17.9121 12.4762 19.0879 12.4762 19.8937 11.8289C19.736 12.8504 20.3239 13.8687 21.2874 14.2428C20.3239 14.617 19.736 15.6353 19.8937 16.6568C19.0879 16.0095 17.9121 16.0095 17.1063 16.6568C17.264 15.6353 16.6761 14.617 15.7126 14.2428Z" fill="#363538"/>
<path d="M12.3045 13.0032C12.6966 13.0115 13 13.3389 13 13.7311C13 14.1666 12.6287 14.5079 12.1932 14.5014C12.1291 14.5005 12.0647 14.5 12 14.5C9.99969 14.5 8.26273 14.9593 7.07854 15.6254C5.84733 16.3179 5.5 17.04 5.5 17.5C5.5 17.96 5.84733 18.6821 7.07854 19.3746C8.26273 20.0407 9.99969 20.5 12 20.5C14.0003 20.5 15.7373 20.0407 16.9215 19.3746C17.0362 19.3101 17.1433 19.2453 17.2431 19.1804C17.4154 19.0686 17.6138 19 17.8191 19C18.5693 19 18.9586 19.7907 18.3539 20.2346C16.8918 21.3079 14.5896 22 12 22C7.58172 22 4 19.9853 4 17.5C4 15.0147 7.58172 13 12 13C12.102 13 12.2035 13.0011 12.3045 13.0032Z" fill="#363538"/>
</svg>
