<svg width="24" height="24" viewBox="0 0 24 24" fill="none" xmlns="http://www.w3.org/2000/svg">
<path fill-rule="evenodd" clip-rule="evenodd" d="M12 12C14.7614 12 17 9.76142 17 7C17 4.23858 14.7614 2 12 2C9.23858 2 7 4.23858 7 7C7 9.76142 9.23858 12 12 12ZM12 10.5C13.933 10.5 15.5 8.933 15.5 7C15.5 5.067 13.933 3.5 12 3.5C10.067 3.5 8.5 5.067 8.5 7C8.5 8.933 10.067 10.5 12 10.5Z" fill="#363538"/>
<path fill-rule="evenodd" clip-rule="evenodd" d="M12 22C16.4183 22 20 19.9853 20 17.5C20 15.0147 16.4183 13 12 13C7.58172 13 4 15.0147 4 17.5C4 19.9853 7.58172 22 12 22ZM16.9215 19.3746C18.1527 18.6821 18.5 17.96 18.5 17.5C18.5 17.04 18.1527 16.3179 16.9215 15.6254C15.7373 14.9593 14.0003 14.5 12 14.5C9.99969 14.5 8.26273 14.9593 7.07854 15.6254C5.84733 16.3179 5.5 17.04 5.5 17.5C5.5 17.96 5.84733 18.6821 7.07854 19.3746C8.26273 20.0407 9.99969 20.5 12 20.5C14.0003 20.5 15.7373 20.0407 16.9215 19.3746Z" fill="#363538"/>
<path fill-rule="evenodd" clip-rule="evenodd" d="M16.1148 11.7553C15.8522 10.6648 16.5126 9.53212 17.6352 9.50099L17.6579 9.50051C17.6814 9.50017 17.7052 9.5 17.7293 9.5C18.0827 9.5 18.4068 9.63369 18.6464 9.77086C18.7723 9.84293 18.9394 9.88965 19.0844 9.88965C19.2294 9.88965 19.3425 9.84293 19.4683 9.77086C19.7079 9.63369 20.032 9.5 20.3854 9.5C20.4096 9.5 20.4334 9.50017 20.4568 9.50051C21.5933 9.5169 22.2643 10.6575 21.9999 11.7553C21.7071 12.971 19.9939 14.0486 19.3249 14.4288C19.1578 14.5237 18.957 14.5237 18.7898 14.4288C18.1208 14.0486 16.4077 12.971 16.1148 11.7553ZM17.901 11.0726C18.2411 11.2673 18.6636 11.3896 19.0844 11.3896C19.6033 11.3896 19.9839 11.2042 20.2137 11.0726C20.2653 11.043 20.3118 11.0223 20.349 11.0101C20.3727 11.0024 20.3857 11.0004 20.389 11C20.4048 11 20.4202 11.0001 20.4352 11.0004C20.452 11.0006 20.4616 11.0031 20.4616 11.0031L20.4632 11.0037C20.4632 11.0037 20.4675 11.0061 20.4731 11.0115C20.4788 11.0171 20.4874 11.0267 20.4972 11.0417C20.5414 11.1095 20.5802 11.2437 20.5416 11.404C20.5116 11.5288 20.3259 11.8403 19.8288 12.2652C19.574 12.483 19.3003 12.6778 19.0574 12.836C18.8145 12.6778 18.5407 12.483 18.2859 12.2652C17.7889 11.8403 17.6032 11.5288 17.5731 11.404C17.5345 11.2437 17.5733 11.1095 17.6175 11.0417C17.6273 11.0267 17.6359 11.0171 17.6417 11.0115C17.6473 11.0061 17.651 11.0039 17.651 11.0039L17.6532 11.0031C17.6532 11.0031 17.6627 11.0006 17.6795 11.0004C17.6946 11.0001 17.71 11 17.7258 11C17.7291 11.0004 17.7421 11.0024 17.7657 11.0101C17.8029 11.0223 17.8494 11.043 17.901 11.0726Z" fill="#363538"/>
</svg>
