<svg width="24" height="24" viewBox="0 0 24 24" fill="none" xmlns="http://www.w3.org/2000/svg">
<path fill-rule="evenodd" clip-rule="evenodd" d="M16.8506 8.21811C16.9482 7.8282 17 7.42015 17 7C17 4.23858 14.7614 2 12 2C9.23858 2 7 4.23858 7 7C7 9.76142 9.23858 12 12 12C13.7943 12 15.3679 11.0548 16.25 9.63521L16.25 11.1831C16.25 12.0708 16.831 12.8316 17.3266 13.3396C17.8537 13.8798 18.4589 14.3088 18.8054 14.5366C19.2187 14.8085 19.7477 14.8236 20.1771 14.5646C20.5303 14.3516 21.1425 13.9472 21.6754 13.4075C22.1896 12.8867 22.75 12.1188 22.75 11.1831V9.37141C22.75 8.80434 22.4087 8.27822 21.8653 8.06777L19.9903 7.3417C19.6745 7.21943 19.3255 7.21943 19.0097 7.3417L17.1347 8.06777C17.0325 8.10733 16.9375 8.15806 16.8506 8.21811ZM12 10.5C13.933 10.5 15.5 8.933 15.5 7C15.5 5.067 13.933 3.5 12 3.5C10.067 3.5 8.5 5.067 8.5 7C8.5 8.933 10.067 10.5 12 10.5ZM17.75 9.43805L19.5 8.76038L21.25 9.43805V11.1831C21.25 11.5186 21.0344 11.9218 20.6081 12.3536C20.2487 12.7175 19.823 13.0169 19.5182 13.2088C19.2092 12.9986 18.7711 12.6722 18.4003 12.2921C17.9507 11.8313 17.75 11.4438 17.75 11.1831L17.75 9.43805Z" fill="#363538"/>
<path fill-rule="evenodd" clip-rule="evenodd" d="M12 22C16.4183 22 20 19.9853 20 17.5C20 15.0147 16.4183 13 12 13C7.58172 13 4 15.0147 4 17.5C4 19.9853 7.58172 22 12 22ZM16.9215 19.3746C18.1527 18.6821 18.5 17.96 18.5 17.5C18.5 17.04 18.1527 16.3179 16.9215 15.6254C15.7373 14.9593 14.0003 14.5 12 14.5C9.99969 14.5 8.26273 14.9593 7.07854 15.6254C5.84733 16.3179 5.5 17.04 5.5 17.5C5.5 17.96 5.84733 18.6821 7.07854 19.3746C8.26273 20.0407 9.99969 20.5 12 20.5C14.0003 20.5 15.7373 20.0407 16.9215 19.3746Z" fill="#363538"/>
</svg>
