<svg width="24" height="24" viewBox="0 0 24 24" fill="none" xmlns="http://www.w3.org/2000/svg">
<path fill-rule="evenodd" clip-rule="evenodd" d="M16.5 7.5C16.5 9.98528 14.4853 12 12 12C9.51477 12 7.50005 9.98528 7.50005 7.5C7.50005 5.01472 9.51477 3 12 3C14.4853 3 16.5 5.01472 16.5 7.5ZM15 7.5C15 9.15685 13.6569 10.5 12 10.5C10.3432 10.5 9.00005 9.15685 9.00005 7.5C9.00005 5.84315 10.3432 4.5 12 4.5C13.6569 4.5 15 5.84315 15 7.5Z" fill="#363538"/>
<path fill-rule="evenodd" clip-rule="evenodd" d="M19.2 16.95C19.2 19.1867 15.9765 21 12 21C8.0236 21 4.80005 19.1867 4.80005 16.95C4.80005 14.7132 8.0236 12.9 12 12.9C15.9765 12.9 19.2 14.7132 19.2 16.95ZM17.7 16.95C17.7 17.2858 17.4423 17.8953 16.3558 18.5064C15.3164 19.0911 13.7794 19.5 12 19.5C10.2206 19.5 8.6837 19.0911 7.64427 18.5064C6.55783 17.8953 6.30005 17.2858 6.30005 16.95C6.30005 16.6142 6.55783 16.0047 7.64427 15.3936C8.6837 14.8089 10.2206 14.4 12 14.4C13.7794 14.4 15.3164 14.8089 16.3558 15.3936C17.4423 16.0047 17.7 16.6142 17.7 16.95Z" fill="#363538"/>
<path d="M18.5001 7.49999C18.5001 7.05949 18.3577 6.65225 18.1164 6.3218C17.8943 6.01767 17.5885 5.77859 17.2328 5.63848L17.2074 5.6282C17.1621 5.60939 17.1174 5.58822 17.0739 5.56483C17.0279 5.54013 16.9833 5.51296 16.9404 5.48345C16.6878 5.30946 16.5001 5.05452 16.5001 4.74999C16.5001 4.33577 16.8398 3.99164 17.2446 4.07935C18.4433 4.33905 19.4133 5.21287 19.8085 6.35494C19.9326 6.71372 20.0001 7.09898 20.0001 7.49999C20.0001 7.901 19.9326 8.28625 19.8085 8.64503C19.4133 9.78711 18.4433 10.6609 17.2446 10.9206C16.8398 11.0083 16.5001 10.6642 16.5001 10.25C16.5001 9.94545 16.6878 9.69052 16.9404 9.51652C16.9833 9.48702 17.028 9.45984 17.0739 9.43514C17.1175 9.41175 17.1621 9.39058 17.2074 9.37177L17.2328 9.3615C17.5885 9.22139 17.8943 8.98231 18.1164 8.67818C18.3577 8.34773 18.5001 7.94049 18.5001 7.49999Z" fill="#363538"/>
<path d="M20.5001 16.5C20.5001 16.5872 20.4543 16.7843 20.2247 17.0373C20.14 17.1306 20.0303 17.2315 19.8888 17.3373C19.8629 17.3567 19.8378 17.3772 19.8138 17.3987C19.7893 17.4207 19.7658 17.4438 19.7435 17.4679C19.5947 17.6285 19.5001 17.8327 19.5001 18.054C19.5001 18.6262 20.0873 19.0129 20.5632 18.695C20.6401 18.6437 20.7144 18.5911 20.7859 18.5374L20.8146 18.5157C21.0302 18.3511 21.2202 18.1761 21.3813 17.9924C21.7781 17.5397 22.0001 17.0338 22.0001 16.5C22.0001 15.9662 21.7781 15.4603 21.3813 15.0076C21.2201 14.8239 21.0302 14.6489 20.8146 14.4843L20.7859 14.4626C20.7144 14.4089 20.6401 14.3563 20.5632 14.305C20.0873 13.9871 19.5001 14.3738 19.5001 14.946C19.5001 15.1673 19.5947 15.3715 19.7435 15.5321C19.7658 15.5562 19.7893 15.5793 19.8138 15.6013C19.8378 15.6228 19.8629 15.6433 19.8888 15.6627C20.0303 15.7685 20.14 15.8694 20.2247 15.9627C20.4543 16.2157 20.5001 16.4128 20.5001 16.5Z" fill="#363538"/>
<path d="M5.5 7.49984C5.5 7.05933 5.64241 6.65209 5.8837 6.32164C6.10577 6.01752 6.4116 5.77843 6.76725 5.63833L6.79265 5.62805C6.83794 5.60924 6.88261 5.58807 6.92615 5.56468C6.97211 5.53998 7.01681 5.5128 7.05964 5.4833C7.31224 5.30931 7.5 5.05437 7.5 4.74984C7.5 4.33562 7.16028 3.99149 6.75545 4.07919C5.55671 4.33889 4.58681 5.21271 4.19159 6.35479C4.06744 6.71357 4 7.09883 4 7.49984C4 7.90084 4.06744 8.2861 4.19159 8.64488C4.58681 9.78696 5.55671 10.6608 6.75545 10.9205C7.16028 11.0082 7.5 10.664 7.5 10.2498C7.5 9.9453 7.31224 9.69036 7.05964 9.51637C7.01681 9.48687 6.97211 9.45969 6.92615 9.43499C6.88261 9.4116 6.83793 9.39043 6.79263 9.37162L6.76725 9.36134C6.4116 9.22124 6.10577 8.98215 5.8837 8.67803C5.64241 8.34758 5.5 7.94034 5.5 7.49984Z" fill="#363538"/>
<path d="M3.5 16.4998C3.5 16.587 3.5458 16.7841 3.77541 17.0372C3.86007 17.1305 3.96971 17.2314 4.11126 17.3372C4.1372 17.3566 4.16224 17.3771 4.18625 17.3986C4.2108 17.4206 4.23429 17.4437 4.25655 17.4677C4.40532 17.6283 4.5 17.8326 4.5 18.0538C4.5 18.6261 3.91272 19.0127 3.43687 18.6949C3.35997 18.6435 3.2857 18.5909 3.21419 18.5372L3.18549 18.5155C2.96985 18.351 2.7799 18.176 2.61879 17.9922C2.22192 17.5395 2 17.0336 2 16.4998C2 15.966 2.22193 15.4602 2.6188 15.0075C2.77992 14.8237 2.96986 14.6487 3.18549 14.4842L3.21419 14.4624C3.2857 14.4088 3.35997 14.3562 3.43687 14.3048C3.91272 13.987 4.5 14.3736 4.5 14.9459C4.5 15.1671 4.40532 15.3714 4.25655 15.532C4.23429 15.556 4.2108 15.5791 4.18625 15.6011C4.16224 15.6226 4.1372 15.6431 4.11126 15.6625C3.96971 15.7683 3.86007 15.8692 3.77541 15.9625C3.5458 16.2156 3.5 16.4127 3.5 16.4998Z" fill="#363538"/>
</svg>
