<svg width="24" height="24" viewBox="0 0 24 24" fill="none" xmlns="http://www.w3.org/2000/svg">
<path fill-rule="evenodd" clip-rule="evenodd" d="M11 12C13.7614 12 16 9.76142 16 7C16 4.23858 13.7614 2 11 2C8.23858 2 6 4.23858 6 7C6 9.76142 8.23858 12 11 12ZM11 10.5C12.933 10.5 14.5 8.933 14.5 7C14.5 5.067 12.933 3.5 11 3.5C9.067 3.5 7.5 5.067 7.5 7C7.5 8.933 9.067 10.5 11 10.5Z" fill="#363538"/>
<path d="M16.8839 8.88389C17.1768 8.59099 17.6517 8.59099 17.9445 8.88389L18.8284 9.76777L19.7123 8.88389C20.0052 8.59099 20.4801 8.59099 20.773 8.88389C21.0659 9.17678 21.0659 9.65165 20.773 9.94455L19.8891 10.8284L20.773 11.7123C21.0659 12.0052 21.0659 12.4801 20.773 12.773C20.4801 13.0659 20.0052 13.0659 19.7123 12.773L18.8284 11.8891L17.9445 12.773C17.6517 13.0659 17.1768 13.0659 16.8839 12.773C16.591 12.4801 16.591 12.0052 16.8839 11.7123L17.7678 10.8284L16.8839 9.94455C16.591 9.65165 16.591 9.17678 16.8839 8.88389Z" fill="#363538"/>
<path fill-rule="evenodd" clip-rule="evenodd" d="M19 17.5C19 19.9853 15.4183 22 11 22C6.58172 22 3 19.9853 3 17.5C3 15.0147 6.58172 13 11 13C15.4183 13 19 15.0147 19 17.5ZM17.5 17.5C17.5 17.96 17.1527 18.6821 15.9215 19.3746C14.7373 20.0407 13.0003 20.5 11 20.5C8.99969 20.5 7.26273 20.0407 6.07854 19.3746C4.84733 18.6821 4.5 17.96 4.5 17.5C4.5 17.04 4.84733 16.3179 6.07854 15.6254C7.26273 14.9593 8.99969 14.5 11 14.5C13.0003 14.5 14.7373 14.9593 15.9215 15.6254C17.1527 16.3179 17.5 17.04 17.5 17.5Z" fill="#363538"/>
</svg>
