<svg width="24" height="24" viewBox="0 0 24 24" fill="none" xmlns="http://www.w3.org/2000/svg">
<path fill-rule="evenodd" clip-rule="evenodd" d="M11.9999 12.7499C14.4161 12.7499 16.3749 10.7912 16.3749 8.37497C16.3749 5.95874 14.4161 4 11.9999 4C9.58367 4 7.62493 5.95874 7.62493 8.37497C7.62493 10.7912 9.58367 12.7499 11.9999 12.7499ZM11.9999 11.2499C13.5877 11.2499 14.8749 9.96277 14.8749 8.37497C14.8749 6.78717 13.5877 5.5 11.9999 5.5C10.4121 5.5 9.12493 6.78717 9.12493 8.37497C9.12493 9.96277 10.4121 11.2499 11.9999 11.2499Z" fill="#363538"/>
<path fill-rule="evenodd" clip-rule="evenodd" d="M6.63261 20.439C3.84737 18.6638 2 15.5476 2 12C2 6.47715 6.47715 2 12 2C17.5228 2 22 6.47715 22 12C22 15.5481 20.1522 18.6645 17.3664 20.4396C16.8483 20.8059 16.2255 21.1184 15.5253 21.3609C14.4289 21.774 13.2409 22 12 22C10.7596 22 9.57186 21.7741 8.4758 21.3613C7.77469 21.1186 7.15115 20.8058 6.63261 20.439ZM8.99596 19.9539C9.84921 20.2453 10.8737 20.4248 12 20.4248C13.1267 20.4248 14.1515 20.2452 15.005 19.9536C15.5456 19.7492 16.06 19.4913 16.5416 19.1863C17.2828 18.652 17.4999 18.1269 17.4999 17.7748C17.4999 17.3717 17.2151 16.7415 16.1847 16.1306C15.187 15.5391 13.7109 15.1248 12 15.1248C10.289 15.1248 8.81291 15.5391 7.8152 16.1306C6.78476 16.7415 6.5 17.3717 6.5 17.7748C6.5 18.1268 6.71699 18.6517 7.45757 19.1857C7.93969 19.4911 8.45465 19.7494 8.99596 19.9539ZM5.12289 16.9966C5.73734 15.0766 8.58268 13.6248 12 13.6248C15.4173 13.6248 18.2627 15.0766 18.877 16.9967C19.8978 15.5941 20.5 13.8674 20.5 12C20.5 7.30558 16.6944 3.5 12 3.5C7.30558 3.5 3.5 7.30558 3.5 12C3.5 13.8674 4.10216 15.5941 5.12289 16.9966Z" fill="#363538"/>
</svg>
