<svg width="24" height="24" viewBox="0 0 24 24" fill="none" xmlns="http://www.w3.org/2000/svg">
<path fill-rule="evenodd" clip-rule="evenodd" d="M18.877 16.9967C18.2627 15.0766 15.4173 13.6248 12 13.6248C8.58268 13.6248 5.73734 15.0766 5.12289 16.9966C4.79597 16.5474 4.51198 16.0649 4.27696 15.5552C4.11312 15.1999 3.72371 14.994 3.34577 15.0952C2.92134 15.2089 2.68096 15.6611 2.85965 16.0625C3.66232 17.8658 4.98297 19.3876 6.63261 20.439C7.64439 21.1547 9.05587 21.665 10.6634 21.8493C10.7469 21.9004 10.8433 21.9344 10.9494 21.9455C11.2947 21.9815 11.6452 22 12 22C13.2409 22 14.4289 21.774 15.5253 21.3609C16.2255 21.1184 16.8483 20.8059 17.3664 20.4396C20.1522 18.6645 22 15.5481 22 12C22 6.47715 17.5228 2 12 2C11.6452 2 11.2947 2.01848 10.9494 2.05453C10.5121 2.10019 10.2403 2.53456 10.3541 2.95929C10.4553 3.33686 10.8277 3.57113 11.217 3.53558C11.4749 3.51203 11.736 3.5 12 3.5C16.6944 3.5 20.5 7.30558 20.5 12C20.5 13.8674 19.8978 15.5941 18.877 16.9967ZM15.005 19.9536C14.1515 20.2452 13.1267 20.4248 12 20.4248C10.6782 20.4248 9.49669 20.1776 8.56755 19.7924C8.52901 19.7662 8.48798 19.743 8.44472 19.723C8.10281 19.5654 7.77315 19.3857 7.45757 19.1857C6.71699 18.6517 6.5 18.1268 6.5 17.7748C6.5 17.3717 6.78476 16.7415 7.8152 16.1306C8.81291 15.5391 10.289 15.1248 12 15.1248C13.7109 15.1248 15.187 15.5391 16.1847 16.1306C17.2151 16.7415 17.4999 17.3717 17.4999 17.7748C17.4999 18.1269 17.2828 18.652 16.5416 19.1863C16.06 19.4913 15.5456 19.7492 15.005 19.9536Z" fill="#363538"/>
<path d="M2.95929 13.6459C2.53456 13.7597 2.10018 13.4879 2.05452 13.0506C2.01848 12.7053 2 12.3548 2 12C2 11.6452 2.01848 11.2946 2.05454 10.9493C2.1002 10.512 2.53457 10.2402 2.9593 10.354C3.33687 10.4552 3.57114 10.8277 3.53559 11.217C3.51204 11.4748 3.5 11.736 3.5 12C3.5 12.264 3.51203 12.5251 3.53558 12.7829C3.57113 13.1722 3.33686 13.5447 2.95929 13.6459Z" fill="#363538"/>
<path d="M3.34582 8.90468C2.92138 8.79095 2.68098 8.33888 2.85968 7.93744C3.14725 7.29139 3.50132 6.68147 3.91317 6.11636C4.17182 5.76147 4.68316 5.74376 4.99367 6.05428C5.27037 6.33097 5.28663 6.77125 5.06037 7.0905C4.75967 7.51477 4.4969 7.96782 4.277 8.44471C4.11316 8.80001 3.72375 9.00594 3.34582 8.90468Z" fill="#363538"/>
<path d="M6.05434 4.99362C5.74382 4.6831 5.76154 4.17176 6.11643 3.91312C6.68154 3.50127 7.29147 3.14722 7.93751 2.85964C8.33895 2.68096 8.79101 2.92135 8.90474 3.34579C9.00601 3.72372 8.80008 4.11313 8.44477 4.27697C7.96788 4.49686 7.51483 4.75963 7.09056 5.06032C6.77131 5.28659 6.33103 5.27031 6.05434 4.99362Z" fill="#363538"/>
<path fill-rule="evenodd" clip-rule="evenodd" d="M11.9999 12.7499C14.4161 12.7499 16.3749 10.7912 16.3749 8.37497C16.3749 5.95874 14.4161 4 11.9999 4C9.58367 4 7.62493 5.95874 7.62493 8.37497C7.62493 10.7912 9.58367 12.7499 11.9999 12.7499ZM11.9999 11.2499C13.5877 11.2499 14.8749 9.96277 14.8749 8.37497C14.8749 6.78717 13.5877 5.5 11.9999 5.5C10.4121 5.5 9.12493 6.78717 9.12493 8.37497C9.12493 9.96277 10.4121 11.2499 11.9999 11.2499Z" fill="#363538"/>
</svg>
