<svg width="24" height="24" viewBox="0 0 24 24" fill="none" xmlns="http://www.w3.org/2000/svg">
<path fill-rule="evenodd" clip-rule="evenodd" d="M18.6 7.5C18.6 9.98528 16.5852 12 14.1 12C11.6147 12 9.59996 9.98528 9.59996 7.5C9.59996 5.01472 11.6147 3 14.1 3C16.5852 3 18.6 5.01472 18.6 7.5ZM17.1 7.5C17.1 9.15685 15.7568 10.5 14.1 10.5C12.4431 10.5 11.1 9.15685 11.1 7.5C11.1 5.84315 12.4431 4.5 14.1 4.5C15.7568 4.5 17.1 5.84315 17.1 7.5Z" fill="#363538"/>
<path fill-rule="evenodd" clip-rule="evenodd" d="M21.3 16.95C21.3 19.1867 18.0764 21 14.1 21C10.1235 21 6.89996 19.1867 6.89996 16.95C6.89996 14.7132 10.1235 12.9 14.1 12.9C18.0764 12.9 21.3 14.7132 21.3 16.95ZM19.8 16.95C19.8 17.2858 19.5422 17.8953 18.4557 18.5064C17.4163 19.0911 15.8794 19.5 14.1 19.5C12.3206 19.5 10.7836 19.0911 9.74419 18.5064C8.65775 17.8953 8.39996 17.2858 8.39996 16.95C8.39996 16.6142 8.65775 16.0047 9.74419 15.3936C10.7836 14.8089 12.3206 14.4 14.1 14.4C15.8794 14.4 17.4163 14.8089 18.4557 15.3936C19.5422 16.0047 19.8 16.6142 19.8 16.95Z" fill="#363538"/>
<path d="M9.09998 4.53222C9.09998 4.24587 8.88633 4 8.59998 4C6.39084 4 4.59998 5.79086 4.59998 8C4.59998 10.2091 6.39084 12 8.59998 12C8.88633 12 9.09998 11.7541 9.09998 11.4678V10.9533C9.09998 10.6932 8.86009 10.5 8.59998 10.5C7.21926 10.5 6.09998 9.38071 6.09998 8C6.09998 6.61929 7.21926 5.5 8.59998 5.5C8.86009 5.5 9.09998 5.30679 9.09998 5.04667V4.53222Z" fill="#363538"/>
<path d="M5.67812 13.5237C6.14334 13.3683 6.59998 13.7343 6.59998 14.2248C6.59998 14.5715 6.36537 14.8704 6.03853 14.9859C5.73484 15.0932 5.45888 15.2145 5.21493 15.3458C4.23606 15.8729 4.09998 16.3497 4.09998 16.5C4.09998 16.6503 4.23606 17.1271 5.21493 17.6542C5.45888 17.7855 5.73484 17.9068 6.03853 18.0141C6.36537 18.1296 6.59998 18.4285 6.59998 18.7752C6.59998 19.2657 6.14334 19.6317 5.67812 19.4763C3.83043 18.8591 2.59998 17.7569 2.59998 16.5C2.59998 15.2431 3.83043 14.1409 5.67812 13.5237Z" fill="#363538"/>
</svg>
