<svg width="24" height="24" viewBox="0 0 24 24" fill="none" xmlns="http://www.w3.org/2000/svg">
<path d="M13.25 11.996C13.25 11.3056 12.6904 10.746 12 10.746C11.3096 10.746 10.75 11.3056 10.75 11.996V12.0032C10.75 12.6936 11.3096 13.2532 12 13.2532C12.6904 13.2532 13.25 12.6936 13.25 12.0032V11.996Z" fill="#363538"/>
<path fill-rule="evenodd" clip-rule="evenodd" d="M13.9875 2.35736C12.7715 1.59735 11.2285 1.59735 10.0125 2.35736L5.0125 5.48236C3.91607 6.16763 3.25 7.36939 3.25 8.66235V15.3369C3.25 16.6298 3.91607 17.8316 5.0125 18.5169L10.0125 21.6419C11.2285 22.4019 12.7715 22.4019 13.9875 21.6419L18.9875 18.5169C20.0839 17.8316 20.75 16.6298 20.75 15.3369V8.66235C20.75 7.36939 20.0839 6.16763 18.9875 5.48236L13.9875 2.35736ZM10.8075 3.62936C11.5371 3.17335 12.4629 3.17335 13.1925 3.62936L18.1925 6.75436C18.8504 7.16552 19.25 7.88658 19.25 8.66235V15.3369C19.25 16.1126 18.8504 16.8337 18.1925 17.2449L13.1925 20.3699C12.4629 20.8259 11.5371 20.8259 10.8075 20.3699L5.8075 17.2449C5.14964 16.8337 4.75 16.1126 4.75 15.3369V8.66235C4.75 7.88658 5.14964 7.16552 5.8075 6.75436L10.8075 3.62936Z" fill="#363538"/>
</svg>
