<svg width="24" height="24" viewBox="0 0 24 24" fill="none" xmlns="http://www.w3.org/2000/svg">
<path fill-rule="evenodd" clip-rule="evenodd" d="M12.1553 4.73465C12.0757 4.6439 11.9243 4.6439 11.8447 4.73465L11.3598 5.28782C10.9192 5.7903 10.2022 5.94691 9.59167 5.68506L8.90923 5.39237C8.78326 5.33834 8.65855 5.41457 8.63218 5.51158L7.98886 5.33668L8.63218 5.51158L8.44076 6.21567C8.26406 6.86566 7.67929 7.31178 7.01534 7.33475L6.27058 7.36051C6.13293 7.36527 6.0655 7.48035 6.08303 7.56989L6.22306 8.28545C6.35297 8.94924 6.02139 9.60775 5.42681 9.91344L5.12198 9.32055L5.42681 9.91344L4.76723 10.2526C4.6592 10.3081 4.64075 10.4284 4.70144 10.5085L5.14519 11.0938C5.55244 11.6309 5.55244 12.3689 5.14519 12.9061L4.75652 12.6114L5.14518 12.9061L4.70144 13.4914C4.64075 13.5714 4.6592 13.6917 4.76723 13.7473L4.46241 14.3402L4.76723 13.7473L5.42681 14.0864L5.12198 14.6793L5.42681 14.0864C6.02138 14.3921 6.35297 15.0506 6.22306 15.7144L6.08303 16.4299C6.0655 16.5195 6.13293 16.6346 6.27058 16.6393L7.01534 16.6651C7.67929 16.6881 8.26406 17.1342 8.44076 17.7842L8.63218 18.4883C8.65855 18.5853 8.78326 18.6615 8.90923 18.6075L9.59166 18.3148C10.2022 18.0529 10.9192 18.2095 11.3598 18.712L11.8447 19.2652C11.9243 19.3559 12.0757 19.3559 12.1553 19.2652L12.6402 18.712C13.0808 18.2095 13.7978 18.0529 14.4083 18.3148L15.0908 18.6075C15.2167 18.6615 15.3415 18.5853 15.3678 18.4883L15.5592 17.7842C15.7359 17.1342 16.3207 16.6881 16.9847 16.6651L17.7294 16.6393C17.8671 16.6346 17.9345 16.5195 17.917 16.4299L17.7769 15.7144C17.647 15.0506 17.9786 14.3921 18.5732 14.0864L19.2328 13.7473C19.3408 13.6917 19.3593 13.5714 19.2986 13.4914L18.8548 12.9061C18.4476 12.3689 18.4476 11.6309 18.8548 11.0938L19.2986 10.5085C19.3593 10.4284 19.3408 10.3081 19.2328 10.2526L18.5732 9.91344C17.9786 9.60775 17.647 8.94925 17.7769 8.28545L17.917 7.5699C17.9345 7.48035 17.8671 7.36527 17.7294 7.36051L16.9847 7.33475C16.3207 7.31178 15.7359 6.86566 15.5592 6.21566L15.3678 5.51158C15.3415 5.41457 15.2167 5.33834 15.0908 5.39237L14.4083 5.68506C13.7978 5.94691 13.0808 5.7903 12.6402 5.28782L12.1553 4.73465ZM13.1579 3.85569L12.6566 4.29517L13.1579 3.85569L13.6429 4.40886C13.6978 4.47156 13.7961 4.49687 13.8828 4.45967L14.5652 4.16698C15.4106 3.80442 16.4084 4.25666 16.6545 5.16179L16.8459 5.86588C16.8647 5.93526 16.9338 5.99886 17.0308 6.00221L17.7755 6.02797C18.6979 6.05987 19.4073 6.89707 19.2255 7.82597L19.0855 8.54153C19.0723 8.60882 19.1035 8.68687 19.1829 8.72765L19.8424 9.06676C20.6732 9.49388 20.932 10.561 20.3611 11.314L19.9173 11.8993C19.8712 11.9602 19.8712 12.0397 19.9173 12.1005L20.3611 12.6858C20.932 13.4388 20.6732 14.506 19.8424 14.9331L19.1829 15.2722C19.1035 15.313 19.0723 15.391 19.0855 15.4583L19.2255 16.1739C19.4073 17.1028 18.6979 17.94 17.7755 17.9719L17.0308 17.9976C16.9338 18.001 16.8647 18.0646 16.8459 18.134L16.6545 18.838C16.4084 19.7432 15.4106 20.1954 14.5652 19.8329L13.8828 19.5402L14.1154 18.9978L13.8828 19.5402C13.7961 19.503 13.6978 19.5283 13.6429 19.591L13.1579 20.1441C12.5472 20.8407 11.4528 20.8407 10.8421 20.1441L10.3572 19.591C10.3022 19.5283 10.204 19.503 10.1172 19.5402L9.43478 19.8329C8.58943 20.1954 7.59161 19.7432 7.34554 18.838L7.15413 18.134C7.13527 18.0646 7.06622 18.001 6.96925 17.9976L6.22448 17.9719C5.30211 17.94 4.59273 17.1028 4.77451 16.1739L4.91455 15.4583C4.92772 15.391 4.89646 15.313 4.81715 15.2722L4.15758 14.9331C3.32684 14.506 3.06805 13.4388 3.63895 12.6858L4.04179 12.9912L3.63895 12.6858L4.0827 12.1005C4.12882 12.0397 4.12882 11.9602 4.0827 11.8993L3.63895 11.314C3.06805 10.561 3.32684 9.49388 4.15758 9.06676L4.81715 8.72765C4.89646 8.68688 4.92772 8.60882 4.91455 8.54153L4.77451 7.82597C4.59273 6.89707 5.30211 6.05987 6.22449 6.02797L6.96925 6.00221C7.06622 5.99886 7.13527 5.93526 7.15413 5.86588L7.69276 6.01231L7.15413 5.86588L7.34554 5.16179C7.59161 4.25667 8.58943 3.80442 9.43478 4.16698L10.1172 4.45967L9.85444 5.07237L10.1172 4.45967C10.204 4.49687 10.3022 4.47156 10.3572 4.40886L10.8421 3.85569C11.4528 3.1591 12.5472 3.15911 13.1579 3.85569ZM14.5606 9.40978C14.8239 9.1524 15.2459 9.15718 15.5033 9.42046C15.7607 9.68374 15.7559 10.1058 15.4926 10.3632L11.1689 14.5901C10.9099 14.8433 10.4959 14.8433 10.2369 14.5901L8.50737 12.8993C8.24409 12.6419 8.23931 12.2199 8.49669 11.9566C8.75408 11.6933 9.17616 11.6885 9.43944 11.9459L10.7029 13.181L14.5606 9.40978Z" fill="#363538"/>
</svg>
