<svg width="24" height="24" viewBox="0 0 24 24" fill="none" xmlns="http://www.w3.org/2000/svg">
<path fill-rule="evenodd" clip-rule="evenodd" d="M8.5 14.8869C8.5 16.5718 10.4261 17.5768 11.864 16.6422L15.5365 14.2552C16.8212 13.4202 16.8212 11.5798 15.5365 10.7448L11.864 8.35784C10.4261 7.42324 8.5 8.42821 8.5 10.1131V14.8869ZM10 14.8869V10.1131C10 9.88758 10.1172 9.69756 10.3367 9.58302C10.5583 9.46739 10.8183 9.46715 11.0466 9.61554L14.719 12.0024C15.0937 12.2459 15.0937 12.7541 14.719 12.9976L11.0466 15.3845C10.8183 15.5328 10.5583 15.5326 10.3367 15.417C10.1172 15.3024 10 15.1124 10 14.8869Z" fill="#363538"/>
<path fill-rule="evenodd" clip-rule="evenodd" d="M18 3H6C3.79086 3 2 4.79086 2 7V17C2 19.2091 3.79086 21 6 21H18C20.2091 21 22 19.2091 22 17V7C22 4.79086 20.2091 3 18 3ZM6 4.5H18C19.3807 4.5 20.5 5.61929 20.5 7V17C20.5 18.3807 19.3807 19.5 18 19.5H6C4.61929 19.5 3.5 18.3807 3.5 17V7C3.5 5.61929 4.61929 4.5 6 4.5Z" fill="#363538"/>
</svg>
