<svg width="24" height="24" viewBox="0 0 24 24" fill="none" xmlns="http://www.w3.org/2000/svg">
<path fill-rule="evenodd" clip-rule="evenodd" d="M7 5.25C4.37665 5.25 2.25 7.37665 2.25 10V14C2.25 16.6234 4.37665 18.75 7 18.75H14.5C16.3087 18.75 17.8535 17.6202 18.4671 16.0278L19.2626 16.8232C20.365 17.9257 22.25 17.1449 22.25 15.5858V8.41421C22.25 6.85513 20.365 6.07434 19.2626 7.17678L18.4671 7.97221C17.8535 6.37983 16.3087 5.25 14.5 5.25H7ZM20.3232 15.7626L18.75 14.1893V9.81066L20.3232 8.23744C20.4807 8.07995 20.75 8.19149 20.75 8.41421V15.5858C20.75 15.8085 20.4807 15.9201 20.3232 15.7626ZM3.75 10C3.75 8.20507 5.20507 6.75 7 6.75H14.5C16.0188 6.75 17.25 7.98122 17.25 9.5V14.5C17.25 16.0188 16.0188 17.25 14.5 17.25H7C5.20507 17.25 3.75 15.7949 3.75 14V10Z" fill="#363538"/>
</svg>
