<svg width="24" height="24" viewBox="0 0 24 24" fill="none" xmlns="http://www.w3.org/2000/svg">
<path fill-rule="evenodd" clip-rule="evenodd" d="M20.4697 2.46967C20.7626 2.17678 21.2374 2.17678 21.5303 2.46967C21.8231 2.76257 21.8231 3.23735 21.5303 3.53022L3.53027 21.5302C3.2374 21.823 2.7626 21.823 2.46973 21.5302C2.17686 21.2373 2.17692 20.7626 2.46973 20.4697L4.75488 18.1835C3.26437 17.3824 2.25006 15.8107 2.25 13.9999V9.99994C2.25 7.37659 4.37665 5.24994 7 5.24994H14.5C15.4026 5.24994 16.2375 5.53311 16.9248 6.01361L20.4697 2.46967ZM7 6.74994C5.20507 6.74994 3.75 8.20502 3.75 9.99994V13.9999C3.75007 15.4035 4.64042 16.5973 5.88672 17.0517L15.8389 7.09955C15.4425 6.87785 14.9865 6.74994 14.5 6.74994H7Z" fill="#363538"/>
<path fill-rule="evenodd" clip-rule="evenodd" d="M20.5186 6.66205C21.4068 6.67795 22.2499 7.37137 22.25 8.41401V15.5859C22.2497 17.1447 20.3651 17.9253 19.2627 16.8232L18.4658 16.0263C17.8523 17.619 16.3089 18.7499 14.5 18.7499H8.43164L9.93164 17.2499H14.5C16.0187 17.2499 17.2499 16.0186 17.25 14.4999V9.93158L20.5186 6.66205ZM20.75 8.41401C20.7499 8.19141 20.4807 8.0799 20.3232 8.23725L18.75 9.81049V14.1894L20.3232 15.7626C20.4807 15.9198 20.7497 15.8083 20.75 15.5859V8.41401Z" fill="#363538"/>
</svg>
