<svg width="24" height="24" viewBox="0 0 24 24" fill="none" xmlns="http://www.w3.org/2000/svg">
<path fill-rule="evenodd" clip-rule="evenodd" d="M17.5 2C20.1234 2 22.25 4.12665 22.25 6.75L22.25 17.25C22.25 19.8734 20.1234 22 17.5 22L6.5 22C4.08615 22 2.03891 19.8452 1.75476 17.3343C1.75159 17.3063 1.75 17.2782 1.75 17.25L1.75 6.75C1.75 6.72182 1.75159 6.69366 1.75476 6.66566C1.90257 5.35949 2.57374 4.20464 3.43381 3.38016C4.28474 2.56445 5.3988 2 6.5 2L17.5 2ZM20.75 6.75C20.75 4.95507 19.2949 3.5 17.5 3.5L17.25 3.5L17.25 7.5L20.75 7.5L20.75 6.75ZM20.75 9L3.25 9L3.25 17.2059C3.48271 19.0931 5.00616 20.5 6.5 20.5L17.5 20.5C19.2949 20.5 20.75 19.0449 20.75 17.25L20.75 9ZM3.25 7.5L6.75 7.5L6.75 3.5L6.5 3.5C5.89206 3.5 5.13112 3.83098 4.47183 4.46299C3.83127 5.07704 3.36144 5.90652 3.25 6.79447L3.25 7.5ZM8.25 3.5L8.25 7.5L11.25 7.5L11.25 3.5L8.25 3.5ZM12.75 3.5L12.75 7.5L15.75 7.5L15.75 3.5L12.75 3.5ZM14.9452 12.3659C16.6849 13.4967 16.6849 16.0033 14.9452 17.1341C14.9247 17.1474 14.9036 17.1597 14.8819 17.1709L12.2401 18.542C11.3346 19.1166 10.3496 19.1663 9.57627 18.6031C8.84676 18.0718 8.5 17.1306 8.5 16.1369L8.5 13.3631C8.5 12.3694 8.84676 11.4282 9.57626 10.8969C10.3496 10.3337 11.3346 10.3834 12.2401 10.958L14.8819 12.3291C14.9036 12.3403 14.9247 12.3526 14.9452 12.3659ZM14.1551 13.6418L11.5186 12.2735C11.4969 12.2623 11.4758 12.25 11.4553 12.2367C10.9318 11.8964 10.6242 11.9893 10.4593 12.1094C10.2413 12.2682 10 12.6719 10 13.3631L10 16.1369C10 16.8281 10.2413 17.2318 10.4593 17.3906C10.6242 17.5107 10.9318 17.6036 11.4553 17.2633C11.4758 17.25 11.4969 17.2377 11.5186 17.2265L14.1551 15.8582C14.9483 15.3172 14.9483 14.1828 14.1551 13.6418Z" fill="#363538"/>
</svg>
