<svg width="24" height="24" viewBox="0 0 24 24" fill="none" xmlns="http://www.w3.org/2000/svg">
<path fill-rule="evenodd" clip-rule="evenodd" d="M14.5 6.25C16.3087 6.25 17.8522 7.3803 18.4658 8.97266L19.2627 8.17676C20.3651 7.07446 22.2499 7.85512 22.25 9.41406V16.5859C22.2499 18.1449 20.3651 18.9255 19.2627 17.8232L18.4658 17.0264C17.8524 18.6192 16.309 19.75 14.5 19.75H7C4.37665 19.75 2.25 17.6234 2.25 15V11C2.25 9.79586 2.69884 8.69431 3.4375 7.85742C3.7116 7.54704 4.18559 7.51799 4.49609 7.79199C4.80663 8.06608 4.83657 8.54003 4.5625 8.85059C4.05643 9.42396 3.75 10.1752 3.75 11V15C3.75 16.7949 5.20507 18.25 7 18.25H14.5C16.0188 18.25 17.25 17.0188 17.25 15.5V10.5C17.25 8.98122 16.0188 7.75 14.5 7.75C14.0858 7.75 13.75 7.41421 13.75 7C13.75 6.58579 14.0858 6.25 14.5 6.25ZM20.75 9.41406C20.7499 9.19147 20.4807 9.07996 20.3232 9.2373L18.75 10.8105V15.1895L20.3232 16.7627C20.4807 16.92 20.7499 16.8085 20.75 16.5859V9.41406Z" fill="#363538"/>
<path d="M7.5 8.25C7.78109 8.25 8.03851 8.40722 8.16699 8.65723L8.56543 9.43359L9.34277 9.83301C9.59278 9.96149 9.75 10.2189 9.75 10.5C9.75 10.7811 9.59278 11.0385 9.34277 11.167L8.56543 11.5654L8.16699 12.3428C8.03851 12.5928 7.78109 12.75 7.5 12.75C7.21891 12.75 6.96149 12.5928 6.83301 12.3428L6.43359 11.5654L5.65723 11.167C5.40722 11.0385 5.25 10.7811 5.25 10.5C5.25 10.2189 5.40722 9.96149 5.65723 9.83301L6.43359 9.43359L6.83301 8.65723L6.88672 8.56836C7.02589 8.37054 7.25387 8.25 7.5 8.25Z" fill="#363538"/>
<path fill-rule="evenodd" clip-rule="evenodd" d="M10.5 3.25C10.7811 3.25 11.0385 3.40722 11.167 3.65723L11.7354 4.76367L12.8428 5.33301C13.0928 5.46149 13.25 5.71891 13.25 6C13.25 6.28109 13.0928 6.53851 12.8428 6.66699L11.7354 7.23535L11.167 8.34277C11.0385 8.59278 10.7811 8.75 10.5 8.75C10.2189 8.75 9.96149 8.59278 9.83301 8.34277L9.26367 7.23535L8.15723 6.66699C7.90722 6.53851 7.75 6.28109 7.75 6C7.75 5.71891 7.90722 5.46149 8.15723 5.33301L9.26367 4.76367L9.83301 3.65723L9.88672 3.56836C10.0259 3.37054 10.2539 3.25 10.5 3.25ZM10.4883 5.66406C10.4167 5.80332 10.3033 5.91671 10.1641 5.98828L10.1406 6L10.1641 6.01172L10.2637 6.07324C10.3575 6.14182 10.4347 6.23161 10.4883 6.33594L10.5 6.3584L10.5117 6.33594C10.5833 6.19668 10.6967 6.08329 10.8359 6.01172L10.8584 6L10.8359 5.98828C10.6967 5.91671 10.5833 5.80332 10.5117 5.66406L10.5 5.64062L10.4883 5.66406Z" fill="#363538"/>
</svg>
