<svg width="24" height="24" viewBox="0 0 24 24" fill="none" xmlns="http://www.w3.org/2000/svg">
<path d="M12.75 3C12.75 2.58579 12.4142 2.25 12 2.25C11.5858 2.25 11.25 2.58579 11.25 3L11.25 21C11.25 21.4142 11.5858 21.75 12 21.75C12.4142 21.75 12.75 21.4142 12.75 21L12.75 3Z" fill="#363538"/>
<path d="M6.75 7C6.75 6.58579 6.41421 6.25 6 6.25C5.58579 6.25 5.25 6.58579 5.25 7L5.25 17C5.25 17.4142 5.58579 17.75 6 17.75C6.41421 17.75 6.75 17.4142 6.75 17L6.75 7Z" fill="#363538"/>
<path d="M3 9.25C3.41421 9.25 3.75 9.58579 3.75 10V14C3.75 14.4142 3.41421 14.75 3 14.75C2.58579 14.75 2.25 14.4142 2.25 14V10C2.25 9.58579 2.58579 9.25 3 9.25Z" fill="#363538"/>
<path d="M21 9.25C21.4142 9.25 21.75 9.58579 21.75 10V14C21.75 14.4142 21.4142 14.75 21 14.75C20.5858 14.75 20.25 14.4142 20.25 14V10C20.25 9.58579 20.5858 9.25 21 9.25Z" fill="#363538"/>
<path d="M9.75 10C9.75 9.58579 9.41421 9.25 9 9.25C8.58579 9.25 8.25 9.58579 8.25 10V14C8.25 14.4142 8.58579 14.75 9 14.75C9.41421 14.75 9.75 14.4142 9.75 14V10Z" fill="#363538"/>
<path d="M15 9.25C15.4142 9.25 15.75 9.58579 15.75 10V14C15.75 14.4142 15.4142 14.75 15 14.75C14.5858 14.75 14.25 14.4142 14.25 14V10C14.25 9.58579 14.5858 9.25 15 9.25Z" fill="#363538"/>
<path d="M18 6.25C18.4142 6.25 18.75 6.58579 18.75 7V17C18.75 17.4142 18.4142 17.75 18 17.75C17.5858 17.75 17.25 17.4142 17.25 17V7C17.25 6.58579 17.5858 6.25 18 6.25Z" fill="#363538"/>
</svg>
