<svg width="24" height="24" viewBox="0 0 24 24" fill="none" xmlns="http://www.w3.org/2000/svg">
<path d="M15.3585 9.70213C15.6514 9.40923 15.6514 8.93436 15.3585 8.64147C15.0656 8.34857 14.5908 8.34857 14.2979 8.64147L14.1211 8.81824L13.9443 8.64147C13.6514 8.34857 13.1766 8.34857 12.8837 8.64147C12.5908 8.93436 12.5908 9.40923 12.8837 9.70213L13.0604 9.8789L11.9998 10.9396L11.823 10.7628C11.5301 10.4699 11.0552 10.4699 10.7623 10.7628C10.4694 11.0557 10.4694 11.5306 10.7623 11.8234L10.9391 12.0002L9.87846 13.0609L9.70168 12.8841C9.40879 12.5912 8.93391 12.5912 8.64102 12.8841C8.34813 13.177 8.34813 13.6519 8.64102 13.9448L8.8178 14.1215L8.64102 14.2983C8.34813 14.5912 8.34813 15.0661 8.64102 15.359C8.93391 15.6519 9.40879 15.6519 9.70168 15.359L9.87846 15.1822L10.0552 15.359C10.3481 15.6519 10.823 15.6519 11.1159 15.359C11.4088 15.0661 11.4088 14.5912 11.1159 14.2983L10.9391 14.1215L11.9998 13.0609L12.1766 13.2377C12.4694 13.5306 12.9443 13.5306 13.2372 13.2377C13.5301 12.9448 13.5301 12.4699 13.2372 12.177L13.0604 12.0002L14.1211 10.9396L14.2979 11.1163C14.5908 11.4092 15.0656 11.4092 15.3585 11.1163C15.6514 10.8234 15.6514 10.3486 15.3585 10.0557L15.1818 9.8789L15.3585 9.70213Z" fill="#363538"/>
<path fill-rule="evenodd" clip-rule="evenodd" d="M20.9613 5.34381C20.6563 4.21265 19.7878 3.34414 18.6566 3.03916C17.7471 2.79395 16.4524 2.56136 14.9359 2.62625C12.4503 2.73261 9.40187 3.63839 6.52017 6.52009C3.63847 9.4018 2.73269 12.4503 2.62633 14.9359C2.56144 16.4524 2.79402 17.7471 3.03923 18.6565C3.34421 19.7877 4.21273 20.6562 5.34389 20.9612C6.25335 21.2064 7.54806 21.439 9.06456 21.3741C11.5502 21.2677 14.5986 20.362 17.4803 17.4802C20.362 14.5985 21.2678 11.5501 21.3742 9.06449C21.4391 7.54798 21.2065 6.25328 20.9613 5.34381ZM18.2661 4.48744C18.8815 4.65335 19.3471 5.11894 19.513 5.73429C19.6683 6.31045 19.818 7.06417 19.8678 7.93914C19.7597 7.89325 19.6463 7.84371 19.5296 7.79078C18.7676 7.44511 17.9553 6.99503 17.4803 6.52009C17.0054 6.04515 16.5553 5.2328 16.2096 4.4708C16.1567 4.3541 16.1072 4.24075 16.0613 4.13261C16.9362 4.18241 17.69 4.3321 18.2661 4.48744ZM18.91 9.1568C19.2621 9.31652 19.585 9.44752 19.838 9.54475C19.643 11.5924 18.7953 14.044 16.4197 16.4196C14.0441 18.7952 11.5925 19.6429 9.54482 19.8379C9.4476 19.585 9.3166 19.262 9.15687 18.9099C8.79978 18.1227 8.25886 17.0976 7.58083 16.4196C6.9028 15.7416 5.87773 15.2006 5.09054 14.8435C4.73843 14.6838 4.41546 14.5528 4.16247 14.4556C4.35752 12.4079 5.20524 9.95634 7.58083 7.58075C9.95642 5.20516 12.408 4.35745 14.4557 4.1624C14.5529 4.41539 14.6839 4.73835 14.8436 5.09047C15.2007 5.87765 15.7416 6.90273 16.4197 7.58075C17.0977 8.25878 18.1228 8.79971 18.91 9.1568ZM7.79085 19.5295C7.84379 19.6462 7.89333 19.7596 7.93922 19.8677C7.06425 19.8179 6.31053 19.6682 5.73437 19.5129C5.11902 19.347 4.65342 18.8814 4.48751 18.266C4.33217 17.6899 4.18248 16.9362 4.13268 16.0612C4.24083 16.1071 4.35418 16.1566 4.47087 16.2096C5.23288 16.5552 6.04523 17.0053 6.52017 17.4802C6.99511 17.9552 7.44519 18.7675 7.79085 19.5295Z" fill="#363538"/>
</svg>
