<svg width="24" height="24" viewBox="0 0 24 24" fill="none" xmlns="http://www.w3.org/2000/svg">
<path fill-rule="evenodd" clip-rule="evenodd" d="M10.752 2.61574C12.546 1.13837 15.25 2.41473 15.25 4.73878V19.2622C15.2496 21.5859 12.5459 22.8622 10.752 21.3853L6.07715 17.5357C5.85335 17.3514 5.57215 17.2505 5.28223 17.2505H4.75C3.23138 17.2505 2.00026 16.0191 2 14.5005V9.5005C2 7.98172 3.23122 6.7505 4.75 6.7505H5.28223C5.57205 6.7505 5.85338 6.64953 6.07715 6.46535L10.752 2.61574ZM13.75 4.73878C13.75 3.68239 12.5205 3.10238 11.7051 3.77394L7.03027 7.62355C6.53801 8.02872 5.91981 8.2505 5.28223 8.2505H4.75C4.05964 8.2505 3.5 8.81015 3.5 9.5005V14.5005C3.50026 15.1906 4.0598 15.7505 4.75 15.7505H5.28223C5.91991 15.7505 6.53797 15.9722 7.03027 16.3775L11.7051 20.2271C12.5204 20.8982 13.7496 20.3182 13.75 19.2622V4.73878Z" fill="#363538"/>
<path d="M19.5 9.2505C19.9142 9.2505 20.25 9.58629 20.25 10.0005V11.2505H21.5C21.9142 11.2505 22.25 11.5863 22.25 12.0005C22.2497 12.4145 21.9141 12.7505 21.5 12.7505H20.25V14.0005C20.2497 14.4145 19.9141 14.7505 19.5 14.7505C19.0859 14.7505 18.7503 14.4145 18.75 14.0005V12.7505H17.5C17.0859 12.7505 16.7503 12.4145 16.75 12.0005C16.75 11.5863 17.0858 11.2505 17.5 11.2505H18.75V10.0005C18.75 9.58629 19.0858 9.2505 19.5 9.2505Z" fill="#363538"/>
</svg>
