<svg width="24" height="24" viewBox="0 0 24 24" fill="none" xmlns="http://www.w3.org/2000/svg">
<path d="M18.5 19.2614C18.5 21.5854 15.796 22.8618 14.002 21.3845L9.50198 17.6784L10.5674 16.613L14.9551 20.2263C15.7706 20.8977 17 20.3178 17 19.2614V10.1814L18.5 8.68136V19.2614Z" fill="#363538"/>
<path d="M20.4698 2.46945C20.7626 2.17672 21.2374 2.17668 21.5303 2.46945C21.8231 2.7623 21.8231 3.23709 21.5303 3.53L3.5303 21.53C3.23741 21.8229 2.76265 21.8229 2.46975 21.53C2.17694 21.2371 2.17689 20.7623 2.46975 20.4694L20.4698 2.46945Z" fill="#363538"/>
<path d="M14.002 2.61496C15.7213 1.19941 18.2746 2.31314 18.4844 4.45382L17 5.93918V4.738C16.9997 3.682 15.7705 3.10199 14.9551 3.77316L10.2803 7.62277C9.78801 8.02805 9.16991 8.24971 8.53225 8.24972H8.00003C7.30982 8.24972 6.75028 8.80958 6.75003 9.49972V14.4997C6.75005 14.9573 6.99646 15.3571 7.36331 15.5749L6.28811 16.6501C5.65618 16.1463 5.25005 15.3708 5.25003 14.4997V9.49972C5.25027 7.98115 6.4814 6.74972 8.00003 6.74972H8.53225C8.82216 6.74971 9.10339 6.64886 9.32717 6.46457L14.002 2.61496Z" fill="#363538"/>
</svg>
