<svg width="24" height="24" viewBox="0 0 24 24" fill="none" xmlns="http://www.w3.org/2000/svg">
<path fill-rule="evenodd" clip-rule="evenodd" d="M10.752 2.61574C12.546 1.13837 15.25 2.41473 15.25 4.73878V19.2622C15.2496 21.5859 12.5459 22.8622 10.752 21.3853L6.07715 17.5357C5.85335 17.3514 5.57215 17.2505 5.28223 17.2505H4.75C3.23138 17.2505 2.00026 16.0191 2 14.5005V9.5005C2 7.98172 3.23122 6.7505 4.75 6.7505H5.28223C5.57205 6.7505 5.85338 6.64953 6.07715 6.46535L10.752 2.61574ZM13.75 4.73878C13.75 3.68239 12.5205 3.10238 11.7051 3.77394L7.03027 7.62355C6.53801 8.02872 5.91981 8.2505 5.28223 8.2505H4.75C4.05964 8.2505 3.5 8.81015 3.5 9.5005V14.5005C3.50026 15.1906 4.0598 15.7505 4.75 15.7505H5.28223C5.91991 15.7505 6.53797 15.9722 7.03027 16.3775L11.7051 20.2271C12.5204 20.8982 13.7496 20.3182 13.75 19.2622V4.73878Z" fill="#363538"/>
<path d="M20.3838 10.0562C20.6766 9.76332 21.1514 9.76342 21.4443 10.0562C21.737 10.3491 21.7371 10.8239 21.4443 11.1167L20.5605 12.0005L21.4443 12.8843C21.737 13.1772 21.7371 13.652 21.4443 13.9448C21.1515 14.2374 20.6766 14.2374 20.3838 13.9448L19.5 13.061L18.6162 13.9448C18.3234 14.2374 17.8485 14.2374 17.5557 13.9448C17.263 13.652 17.2631 13.1772 17.5557 12.8843L18.4395 12.0005L17.5557 11.1167C17.2629 10.8239 17.263 10.3491 17.5557 10.0562C17.8486 9.76327 18.3233 9.76327 18.6162 10.0562L19.5 10.94L20.3838 10.0562Z" fill="#363538"/>
</svg>
