<svg width="24" height="24" viewBox="0 0 24 24" fill="none" xmlns="http://www.w3.org/2000/svg">
<path fill-rule="evenodd" clip-rule="evenodd" d="M14.002 2.61574C15.796 1.13837 18.5 2.41473 18.5 4.73878V19.2622C18.4996 21.5859 15.7959 22.8622 14.002 21.3853L9.32715 17.5357C9.10335 17.3514 8.82215 17.2505 8.53223 17.2505H8C6.48138 17.2505 5.25026 16.0191 5.25 14.5005V9.5005C5.25 7.98172 6.48122 6.7505 8 6.7505H8.53223C8.82205 6.7505 9.10338 6.64953 9.32715 6.46535L14.002 2.61574ZM17 4.73878C17 3.68239 15.7705 3.10238 14.9551 3.77394L10.2803 7.62355C9.78801 8.02872 9.16981 8.2505 8.53223 8.2505H8C7.30964 8.2505 6.75 8.81015 6.75 9.5005V14.5005C6.75026 15.1906 7.3098 15.7505 8 15.7505H8.53223C9.16991 15.7505 9.78797 15.9722 10.2803 16.3775L14.9551 20.2271C15.7704 20.8982 16.9996 20.3182 17 19.2622V4.73878Z" fill="#363538"/>
</svg>
