<svg width="24" height="24" viewBox="0 0 24 24" fill="none" xmlns="http://www.w3.org/2000/svg">
<path fill-rule="evenodd" clip-rule="evenodd" d="M9.7059 5.25337L9.70742 5.24943C9.7099 5.24304 9.71501 5.23024 9.72293 5.21194C9.73882 5.17523 9.76566 5.11721 9.80481 5.045C9.88381 4.8993 10.0087 4.70367 10.1885 4.50938C10.5378 4.13184 11.0984 3.75 12 3.75C12.9016 3.75 13.4622 4.13184 13.8115 4.50938C13.9913 4.70367 14.1162 4.8993 14.1952 5.045C14.2343 5.11721 14.2612 5.17523 14.2771 5.21194C14.285 5.23024 14.2901 5.24304 14.2926 5.24943L14.2941 5.25337C14.4331 5.64088 14.859 5.84421 15.2482 5.70774C15.6391 5.57067 15.8448 5.14269 15.7077 4.75181L15 5C15.7077 4.75181 15.7079 4.75218 15.7077 4.75181L15.7072 4.7503L15.7066 4.7486L15.7052 4.74464L15.7015 4.73449L15.6905 4.70565C15.6816 4.68274 15.6694 4.65258 15.6537 4.61618C15.6222 4.54352 15.5763 4.44529 15.5138 4.33C15.3895 4.1007 15.1954 3.79633 14.9125 3.49062C14.3365 2.86816 13.3971 2.25 12 2.25C10.6029 2.25 9.6635 2.86816 9.08752 3.49062C8.80463 3.79633 8.61052 4.1007 8.48619 4.33C8.42367 4.44529 8.37776 4.54352 8.34631 4.61618C8.33056 4.65258 8.31836 4.68274 8.30945 4.70565C8.305 4.7171 8.30136 4.72676 8.2985 4.73449L8.2948 4.74464L8.29339 4.7486L8.29278 4.7503C8.29265 4.75067 8.29225 4.75181 9 5L8.29225 4.75181C8.15518 5.14269 8.36093 5.57067 8.75181 5.70774C9.14095 5.84421 9.56688 5.64087 9.7059 5.25337Z" fill="#363538"/>
<path fill-rule="evenodd" clip-rule="evenodd" d="M15.1254 7.57521C18.7884 7.37171 21.9625 10.0879 22.3276 13.7384L22.4768 15.2311C22.67 17.163 21.6501 19.0135 19.9135 19.8818C18.7181 20.4795 17.3242 20.5374 16.0832 20.0411L13.6499 19.0677C13.1252 18.8578 12.5652 18.75 12 18.75C11.4348 18.75 10.8748 18.8578 10.3501 19.0677L7.91675 20.0411C6.67583 20.5374 5.28187 20.4795 4.08645 19.8818C2.34989 19.0135 1.32996 17.163 1.52315 15.2311L1.67242 13.7384C2.03747 10.0879 5.21155 7.37171 8.87459 7.57521L12 7.74884L15.1254 7.57521ZM4.75727 18.5401C5.56947 18.9462 6.51655 18.9856 7.35967 18.6484L9.79298 17.675C10.4949 17.3943 11.244 17.25 12 17.25C12.756 17.25 13.5051 17.3943 14.207 17.675L16.6403 18.6484C17.4834 18.9856 18.4305 18.9462 19.2427 18.5401C20.4226 17.9502 21.1155 16.6929 20.9843 15.3803L20.835 13.8876C20.5498 11.0358 18.0702 8.91392 15.2086 9.0729L12.0416 9.24885C12.0139 9.25038 11.9861 9.25038 11.9584 9.24885L8.79138 9.0729C5.92978 8.91392 3.45015 11.0358 3.16498 13.8876L3.0157 15.3803C2.88445 16.6929 3.57741 17.9502 4.75727 18.5401Z" fill="#363538"/>
<path d="M11.3693 6.20933C11.4873 6.08179 11.6729 5.94995 11.9998 5.94995C12.3268 5.94995 12.5123 6.08179 12.6304 6.20933C12.9117 6.51336 13.3862 6.53176 13.6902 6.25043C13.9942 5.96911 14.0126 5.49459 13.7313 5.19057C13.3867 4.81811 12.8222 4.44995 11.9998 4.44995C11.1774 4.44995 10.613 4.81811 10.2684 5.19057C9.98704 5.49459 10.0054 5.96911 10.3095 6.25043C10.6135 6.53176 11.088 6.51336 11.3693 6.20933Z" fill="#363538"/>
</svg>
