<svg width="24" height="24" viewBox="0 0 24 24" fill="none" xmlns="http://www.w3.org/2000/svg">
<path d="M21.8446 9.80417C22.0376 10.2721 21.6657 10.75 21.1595 10.75C20.8231 10.75 20.53 10.5311 20.3921 10.2242C19.5071 8.25507 17.4781 6.9468 15.2088 7.07287L12.0418 7.24881C12.0141 7.25035 11.9863 7.25035 11.9586 7.24881L8.79156 7.07287C5.92997 6.91389 3.45034 9.0358 3.16516 11.8876L3.01589 13.3803C2.88463 14.6929 3.5776 15.9502 4.75745 16.5401C5.56965 16.9462 6.51674 16.9856 7.35985 16.6483L9.79316 15.675C10.4951 15.3942 11.2442 15.25 12.0002 15.25C12.7562 15.25 13.5053 15.3942 14.2072 15.675L14.2785 15.7035C14.5633 15.8174 14.75 16.0932 14.75 16.3999C14.75 16.9305 14.2141 17.2933 13.7215 17.0963L13.6501 17.0677C13.1254 16.8578 12.5654 16.75 12.0002 16.75C11.435 16.75 10.875 16.8578 10.3502 17.0677L7.91694 18.041C6.67601 18.5374 5.28205 18.4794 4.08663 17.8817C2.35008 17.0134 1.33014 15.1629 1.52333 13.2311L1.6726 11.7383C2.03765 8.08786 5.21174 5.37168 8.87477 5.57518L12.0002 5.74881L15.1256 5.57518C18.1047 5.40967 20.7604 7.17534 21.8446 9.80417Z" fill="#363538"/>
<path fill-rule="evenodd" clip-rule="evenodd" d="M17.7501 11.75C17.7501 11.3358 17.4143 11 17.0001 11C16.5859 11 16.2501 11.3358 16.2501 11.75V13.4H15.3704C15.1658 13.4 15 13.5658 15 13.7704V14.9C15 16.5949 16.2047 18.0084 17.8045 18.3309C17.8137 18.3538 17.8242 18.3765 17.836 18.3988C17.901 18.5227 17.985 18.7121 18.0327 18.9133C18.082 19.1217 18.0765 19.2755 18.0421 19.3738C17.8071 20.0453 17.75 20.7525 17.75 21.0502C17.75 21.4644 18.0858 21.8002 18.5 21.8002C18.9142 21.8002 19.25 21.4644 19.25 21.0502C19.25 20.8717 19.2929 20.3407 19.4579 19.8694C19.6235 19.3962 19.5764 18.9231 19.4923 18.568C19.4686 18.4677 19.4407 18.3714 19.4105 18.2804C20.902 17.8797 22 16.5181 22 14.9V13.7704C22 13.5658 21.8342 13.4 21.6296 13.4H20.7499V11.75C20.7499 11.3358 20.4141 11 19.9999 11C19.5857 11 19.2499 11.3358 19.2499 11.75V13.4H17.7501V11.75ZM16.5 14.9C16.5 16.0046 17.3954 16.9 18.5 16.9C19.6046 16.9 20.5 16.0046 20.5 14.9H16.5Z" fill="#363538"/>
</svg>
