<svg width="24" height="24" viewBox="0 0 24 24" fill="none" xmlns="http://www.w3.org/2000/svg">
<path fill-rule="evenodd" clip-rule="evenodd" d="M21.4926 14.5175C21.4975 14.4289 21.5 14.3398 21.5 14.25V8.25C21.5 5.62665 19.3734 3.5 16.75 3.5H6.75C4.12665 3.5 2 5.62665 2 8.25V14.25C2 16.8734 4.12665 19 6.75 19H9.44663C9.74084 19.63 10.2452 20.158 10.8998 20.4762C11.6756 20.8533 12.5736 20.89 13.3776 20.5773L14.8626 19.9998C15.1455 19.8898 15.4464 19.8333 15.75 19.8333C16.0536 19.8333 16.3545 19.8898 16.6374 19.9998L18.1224 20.5773C18.9264 20.89 19.8244 20.8533 20.6002 20.4762C21.7709 19.9071 22.4611 18.667 22.328 17.3722L22.242 16.5367C22.1647 15.7854 21.8978 15.0977 21.4926 14.5175ZM6.75 5C4.95507 5 3.5 6.45507 3.5 8.25V14.25C3.5 16.0449 4.95507 17.5 6.75 17.5H9.16155C9.16416 17.4575 9.16766 17.4149 9.17204 17.3722L9.25798 16.5367C9.49264 14.2553 11.4766 12.5598 13.7667 12.6835L15.75 12.7906L17.7333 12.6835C18.5495 12.6394 19.3269 12.8264 20 13.1887V8.25C20 6.45507 18.5449 5 16.75 5H6.75ZM10.7501 16.6902C10.9029 15.2047 12.1947 14.1007 13.6858 14.1813L15.7095 14.2906C15.7365 14.292 15.7635 14.292 15.7905 14.2906L17.8142 14.1813C19.3053 14.1007 20.5971 15.2047 20.7499 16.6902L20.8358 17.5257C20.9045 18.1937 20.5484 18.8335 19.9444 19.1271C19.5441 19.3217 19.0809 19.3406 18.666 19.1793L17.181 18.6018C16.7248 18.4244 16.2395 18.3333 15.75 18.3333C15.2605 18.3333 14.7752 18.4244 14.319 18.6018L12.834 19.1793C12.4191 19.3406 11.9559 19.3217 11.5556 19.1271C10.9516 18.8335 10.5955 18.1937 10.6642 17.5257L10.7501 16.6902Z" fill="#363538"/>
</svg>
