<svg width="24" height="24" viewBox="0 0 24 24" fill="none" xmlns="http://www.w3.org/2000/svg">
<path fill-rule="evenodd" clip-rule="evenodd" d="M15.1254 5.57518C18.7884 5.37168 21.9625 8.08786 22.3276 11.7383L22.4768 13.231C22.67 15.1629 21.6501 17.0134 19.9135 17.8817C18.7181 18.4794 17.3242 18.5374 16.0832 18.041L13.6499 17.0677C13.1252 16.8578 12.5652 16.75 12 16.75C11.4348 16.75 10.8748 16.8578 10.3501 17.0677L7.91675 18.041C6.67583 18.5374 5.28187 18.4794 4.08645 17.8817C2.34989 17.0134 1.32996 15.1629 1.52315 13.2311L1.67242 11.7383C2.03747 8.08786 5.21155 5.37168 8.87459 5.57518L12 5.74881L15.1254 5.57518ZM4.75727 16.5401C5.56947 16.9462 6.51655 16.9856 7.35967 16.6483L9.79298 15.675C10.4949 15.3942 11.244 15.25 12 15.25C12.756 15.25 13.5051 15.3942 14.207 15.675L16.6403 16.6483C17.4834 16.9856 18.4305 16.9462 19.2427 16.5401C20.4226 15.9502 21.1155 14.6929 20.9843 13.3803L20.835 11.8876C20.5498 9.0358 18.0702 6.91389 15.2086 7.07287L12.0416 7.24881C12.0139 7.25035 11.9861 7.25035 11.9584 7.24881L8.79138 7.07287C5.92978 6.91389 3.45015 9.0358 3.16498 11.8876L3.0157 13.3803C2.88445 14.6929 3.57741 15.9502 4.75727 16.5401Z" fill="#363538"/>
</svg>
