<svg width="24" height="24" viewBox="0 0 24 24" fill="none" xmlns="http://www.w3.org/2000/svg">
<path d="M17.5303 2.46967C17.2374 2.17678 16.7626 2.17678 16.4697 2.46967C16.1768 2.76256 16.1768 3.23744 16.4697 3.53033L17.4393 4.5L16.4697 5.46967C16.1768 5.76256 16.1768 6.23744 16.4697 6.53033C16.7626 6.82322 17.2374 6.82322 17.5303 6.53033L18.5 5.56066L19.4697 6.53033C19.7626 6.82322 20.2374 6.82322 20.5303 6.53033C20.8232 6.23744 20.8232 5.76256 20.5303 5.46967L19.5607 4.5L20.5303 3.53033C20.8232 3.23744 20.8232 2.76256 20.5303 2.46967C20.2374 2.17678 19.7626 2.17678 19.4697 2.46967L18.5 3.43934L17.5303 2.46967Z" fill="#363538"/>
<path d="M17.25 12C17.25 11.5858 17.5858 11.25 18 11.25H19C19.4142 11.25 19.75 11.5858 19.75 12C19.75 12.4142 19.4142 12.75 19 12.75H18C17.5858 12.75 17.25 12.4142 17.25 12Z" fill="#363538"/>
<path fill-rule="evenodd" clip-rule="evenodd" d="M15 4.75C15 4.33579 14.6642 4 14.25 4H6C3.79086 4 2 5.79086 2 8V16C2 18.2091 3.79086 20 6 20H18C20.2091 20 22 18.2091 22 16V8.75C22 8.33579 21.6642 8 21.25 8C21.2106 8 21.1718 8.00304 21.1341 8.00891C21.0902 8.00303 21.0455 8 21 8H18C15.7909 8 14 9.79086 14 12C14 14.2091 15.7909 16 18 16L20.5 16C20.5 17.3807 19.3807 18.5 18 18.5H6C4.61929 18.5 3.5 17.3807 3.5 16V8C3.5 6.61929 4.61929 5.5 6 5.5H14.25C14.6642 5.5 15 5.16421 15 4.75ZM18 9.5H20.5V14.5H18C16.6193 14.5 15.5 13.3807 15.5 12C15.5 10.6193 16.6193 9.5 18 9.5Z" fill="#363538"/>
<path d="M7.1233 7.2602C6.71472 7.19211 6.3283 7.46812 6.2602 7.8767C6.19211 8.28528 6.46812 8.6717 6.8767 8.7398L9.2191 9.1302C9.73614 9.21637 10.2639 9.21637 10.7809 9.1302L13.1233 8.7398C13.5319 8.6717 13.8079 8.28528 13.7398 7.8767C13.6717 7.46812 13.2853 7.19211 12.8767 7.2602L10.5343 7.65061C10.1805 7.70956 9.81946 7.70956 9.4657 7.65061L7.1233 7.2602Z" fill="#363538"/>
</svg>
