<svg width="24" height="24" viewBox="0 0 24 24" fill="none" xmlns="http://www.w3.org/2000/svg">
<path d="M19.75 2.75C19.75 2.33579 19.4142 2 19 2C18.5858 2 18.25 2.33579 18.25 2.75V4.93934L18.0303 4.71967C17.7374 4.42678 17.2626 4.42678 16.9697 4.71967C16.6768 5.01256 16.6768 5.48744 16.9697 5.78033L18.4697 7.28033C18.6103 7.42098 18.8011 7.5 19 7.5C19.1989 7.5 19.3897 7.42098 19.5303 7.28033L21.0303 5.78033C21.3232 5.48744 21.3232 5.01256 21.0303 4.71967C20.7374 4.42678 20.2626 4.42678 19.9697 4.71967L19.75 4.93934V2.75Z" fill="#363538"/>
<path d="M17.25 12C17.25 11.5858 17.5858 11.25 18 11.25H19C19.4142 11.25 19.75 11.5858 19.75 12C19.75 12.4142 19.4142 12.75 19 12.75H18C17.5858 12.75 17.25 12.4142 17.25 12Z" fill="#363538"/>
<path fill-rule="evenodd" clip-rule="evenodd" d="M16 4.75C16 4.33579 15.6642 4 15.25 4H6C3.79086 4 2 5.79086 2 8V16C2 18.2091 3.79086 20 6 20H18C20.2091 20 22 18.2091 22 16V8.75C22 8.33579 21.6642 8 21.25 8C21.2106 8 21.1718 8.00304 21.1341 8.00891C21.0902 8.00303 21.0455 8 21 8H18C15.7909 8 14 9.79086 14 12C14 14.2091 15.7909 16 18 16L20.5 16C20.5 17.3807 19.3807 18.5 18 18.5H6C4.61929 18.5 3.5 17.3807 3.5 16V8C3.5 6.61929 4.61929 5.5 6 5.5H15.25C15.6642 5.5 16 5.16421 16 4.75ZM18 9.5H20.5V14.5H18C16.6193 14.5 15.5 13.3807 15.5 12C15.5 10.6193 16.6193 9.5 18 9.5Z" fill="#363538"/>
<path d="M7.1233 7.2602C6.71472 7.19211 6.3283 7.46812 6.2602 7.8767C6.19211 8.28528 6.46812 8.6717 6.8767 8.7398L9.2191 9.1302C9.73614 9.21637 10.2639 9.21637 10.7809 9.1302L13.1233 8.7398C13.5319 8.6717 13.8079 8.28528 13.7398 7.8767C13.6717 7.46812 13.2853 7.19211 12.8767 7.2602L10.5343 7.65061C10.1805 7.70956 9.81946 7.70956 9.4657 7.65061L7.1233 7.2602Z" fill="#363538"/>
</svg>
