<svg width="24" height="24" viewBox="0 0 24 24" fill="none" xmlns="http://www.w3.org/2000/svg">
<path fill-rule="evenodd" clip-rule="evenodd" d="M12 5.75C15.7279 5.75 18.75 8.77208 18.75 12.5C18.75 16.2279 15.7279 19.25 12 19.25C8.27208 19.25 5.25 16.2279 5.25 12.5C5.25 8.77208 8.27208 5.75 12 5.75ZM11.6279 13.6514C11.0701 13.3326 10.1254 13.2002 9.1377 13.2998C8.65857 13.3481 8.20444 13.4481 7.8252 13.585C7.43649 13.7252 7.17338 13.8872 7.03027 14.0303C7.01694 14.0436 7.00233 14.0553 6.98828 14.0674C7.65494 16.2013 9.64647 17.75 12 17.75C14.3114 17.75 16.2717 16.2555 16.9727 14.1807C15.6182 14.7391 13.7607 14.7638 11.9023 13.8008L11.6279 13.6514ZM12 7.25C9.12856 7.25 6.79683 9.55526 6.75195 12.416C6.93317 12.323 7.1234 12.2431 7.31543 12.1738C7.82675 11.9893 8.40405 11.8664 8.9873 11.8076C10.1246 11.6929 11.43 11.8104 12.3721 12.3486L12.5967 12.4717C14.7388 13.5837 16.5689 12.943 17.2432 12.2402C17.1078 9.46142 14.8124 7.25 12 7.25Z" fill="#363538"/>
<path d="M17.1768 4.75391C17.5549 4.79235 17.8496 5.1117 17.8496 5.5C17.8496 5.8883 17.5549 6.20765 17.1768 6.24609L17.0996 6.25H17C16.5858 6.25 16.25 5.91421 16.25 5.5C16.25 5.08579 16.5858 4.75 17 4.75H17.0996L17.1768 4.75391Z" fill="#363538"/>
<path fill-rule="evenodd" clip-rule="evenodd" d="M16 2C19.3137 2 22 4.68629 22 8V16C22 19.3137 19.3137 22 16 22H8C4.68629 22 2 19.3137 2 16V8C2 4.68629 4.68629 2 8 2H16ZM8 3.5C5.51472 3.5 3.5 5.51472 3.5 8V16C3.5 18.4853 5.51472 20.5 8 20.5H16C18.4853 20.5 20.5 18.4853 20.5 16V8C20.5 5.51472 18.4853 3.5 16 3.5H8Z" fill="#363538"/>
</svg>
