<svg width="24" height="24" viewBox="0 0 24 24" fill="none" xmlns="http://www.w3.org/2000/svg">
<path d="M15.5303 14.5305C15.8232 14.2376 15.8232 13.7628 15.5303 13.4699C15.2374 13.177 14.7626 13.177 14.4697 13.4699L11.9374 16.0021C11.4143 16.0344 11 16.4689 11 17.0002C11 17.5525 11.4477 18.0002 12 18.0002C12.5313 18.0002 12.9658 17.5859 12.9981 17.0628L15.5303 14.5305Z" fill="#363538"/>
<path fill-rule="evenodd" clip-rule="evenodd" d="M3.71151 3.76303C3.58053 3.37008 3.15579 3.15771 2.76283 3.28869C2.36987 3.41968 2.1575 3.84442 2.28849 4.23737L2.37679 4.50229C3.02333 6.44191 4.83849 7.7502 6.88304 7.7502H11.25V9.0002C11.25 9.00947 11.2502 9.01869 11.2505 9.02787C6.07771 9.41115 2 13.7295 2 19.0002C2 19.5687 2.48249 20.0002 3.051 20.0002H20.949C21.5175 20.0002 22 19.5687 22 19.0002C22 13.7295 17.9223 9.41115 12.7495 9.02787C12.7498 9.01869 12.75 9.00947 12.75 9.0002V7.7502H17.117C19.1615 7.7502 20.9767 6.44191 21.6232 4.50229L21.7115 4.23738C21.8425 3.84442 21.6301 3.41968 21.2372 3.28869C20.8442 3.1577 20.4195 3.37007 20.2885 3.76303L20.2002 4.02794C19.7578 5.35506 18.5159 6.2502 17.117 6.2502H6.88304C5.48414 6.2502 4.24219 5.35506 3.79982 4.02794L3.71151 3.76303ZM3.51446 18.5002H20.4855C20.2267 14.0385 16.5266 10.5002 12 10.5002C7.47343 10.5002 3.77327 14.0385 3.51446 18.5002Z" fill="#363538"/>
</svg>
