<svg width="24" height="24" viewBox="0 0 24 24" fill="none" xmlns="http://www.w3.org/2000/svg">
<path d="M7 15C7.55228 15 8 15.4477 8 16C8 16.5523 7.55228 17 7 17C6.44772 17 6 16.5523 6 16C6 15.4477 6.44772 15 7 15Z" fill="#363538"/>
<path fill-rule="evenodd" clip-rule="evenodd" d="M4.5 2.25C6.01878 2.25 7.25 3.48122 7.25 5V6.25H17.5C19.0188 6.25 20.25 7.48122 20.25 9V15.3379C21.6832 15.6765 22.75 16.9633 22.75 18.5C22.75 20.2949 21.2949 21.75 19.5 21.75C17.7051 21.75 16.25 20.2949 16.25 18.5C16.25 17.8555 16.4382 17.2552 16.7617 16.75H12.7002C12.3326 19.5712 9.92139 21.75 7 21.75C3.82436 21.75 1.25 19.1756 1.25 16C1.25 13.2537 3.17556 10.9585 5.75 10.3877V5C5.75 4.30964 5.19036 3.75 4.5 3.75H4C3.58579 3.75 3.25 3.41421 3.25 3C3.25 2.58579 3.58579 2.25 4 2.25H4.5ZM7 11.75C4.65279 11.75 2.75 13.6528 2.75 16C2.75 18.3472 4.65279 20.25 7 20.25C9.34721 20.25 11.25 18.3472 11.25 16C11.25 13.6528 9.34721 11.75 7 11.75ZM19.5 16.75C18.5335 16.75 17.75 17.5335 17.75 18.5C17.75 19.4665 18.5335 20.25 19.5 20.25C20.4665 20.25 21.25 19.4665 21.25 18.5C21.25 17.5335 20.4665 16.75 19.5 16.75ZM10.8721 11.75C11.8515 12.6428 12.5203 13.8693 12.7002 15.25H18.75V11.75H10.8721ZM7.25 10.25H18.75V9C18.75 8.30964 18.1904 7.75 17.5 7.75H7.25V10.25Z" fill="#363538"/>
</svg>
