<svg width="24" height="24" viewBox="0 0 24 24" fill="none" xmlns="http://www.w3.org/2000/svg">
<path fill-rule="evenodd" clip-rule="evenodd" d="M12.75 5.31134C12.75 4.81634 13.1121 4.39583 13.6017 4.3224L19.6017 3.4224C20.2063 3.33171 20.75 3.79997 20.75 4.41134V10.2502C20.75 10.8024 20.3023 11.2502 19.75 11.2502H13.75C13.1977 11.2502 12.75 10.8024 12.75 10.2502V5.31134ZM14.25 9.75015V5.74193L19.25 4.99193V9.75015H14.25Z" fill="#363538"/>
<path fill-rule="evenodd" clip-rule="evenodd" d="M3.25 7.08008C3.25 6.59886 3.59274 6.18589 4.06571 6.0972L10.0657 4.9722C10.6811 4.85681 11.25 5.32894 11.25 5.95508V10.2502C11.25 10.8024 10.8023 11.2502 10.25 11.2502H4.25C3.69772 11.2502 3.25 10.8024 3.25 10.2502V7.08008ZM4.75 9.75015V7.49504L9.75 6.55754V9.75015H4.75Z" fill="#363538"/>
<path fill-rule="evenodd" clip-rule="evenodd" d="M4.06571 17.9031C3.59274 17.8144 3.25 17.4014 3.25 16.9202V13.7502C3.25 13.1979 3.69772 12.7502 4.25 12.7502H10.25C10.8023 12.7502 11.25 13.1979 11.25 13.7502V18.0452C11.25 18.6714 10.6811 19.1435 10.0657 19.0281L4.06571 17.9031ZM4.75 16.5053V14.2502H9.75V17.4428L4.75 16.5053Z" fill="#363538"/>
<path fill-rule="evenodd" clip-rule="evenodd" d="M12.75 18.689C12.75 19.184 13.1121 19.6045 13.6017 19.6779L19.6017 20.5779C20.2063 20.6686 20.75 20.2003 20.75 19.589V13.7502C20.75 13.1979 20.3023 12.7502 19.75 12.7502H13.75C13.1977 12.7502 12.75 13.1979 12.75 13.7502V18.689ZM14.25 14.2502V18.2584L19.25 19.0084V14.2502H14.25Z" fill="#363538"/>
</svg>
