<svg width="24" height="24" viewBox="0 0 24 24" fill="none" xmlns="http://www.w3.org/2000/svg">
<path d="M12.25 10C12.25 9.58579 11.9142 9.25 11.5 9.25C11.0858 9.25 10.75 9.58579 10.75 10V13C10.75 13.4142 11.0858 13.75 11.5 13.75H14.5C14.9142 13.75 15.25 13.4142 15.25 13C15.25 12.5858 14.9142 12.25 14.5 12.25H12.25V10Z" fill="#363538"/>
<path fill-rule="evenodd" clip-rule="evenodd" d="M8.25 6.7C8.25 6.88312 8.31563 7.05092 8.42465 7.18114C6.9533 8.2746 6 10.026 6 12C6 13.974 6.9533 15.7254 8.42465 16.8189C8.31563 16.9491 8.25 17.1169 8.25 17.3V19C8.25 20.5188 9.48122 21.75 11 21.75H13C14.5188 21.75 15.75 20.5188 15.75 19V17.3C15.75 17.1169 15.6844 16.9491 15.5753 16.8189C17.0467 15.7254 18 13.974 18 12C18 10.026 17.0467 8.2746 15.5753 7.18114C15.6844 7.05092 15.75 6.88312 15.75 6.7V5C15.75 3.48122 14.5188 2.25 13 2.25H11C9.48122 2.25 8.25 3.48122 8.25 5V6.7ZM11 3.75C10.3096 3.75 9.75 4.30964 9.75 5V6.43614C10.4448 6.15488 11.2043 6 12 6C12.7957 6 13.5552 6.15488 14.25 6.43614V5C14.25 4.30964 13.6904 3.75 13 3.75H11ZM14.25 17.5639C13.5552 17.8451 12.7957 18 12 18C11.2043 18 10.4448 17.8451 9.75 17.5639V19C9.75 19.6904 10.3096 20.25 11 20.25H13C13.6904 20.25 14.25 19.6904 14.25 19V17.5639ZM7.5 12C7.5 9.51472 9.51472 7.5 12 7.5C14.4853 7.5 16.5 9.51472 16.5 12C16.5 14.4853 14.4853 16.5 12 16.5C9.51472 16.5 7.5 14.4853 7.5 12Z" fill="#363538"/>
</svg>
