<svg width="24" height="24" viewBox="0 0 24 24" fill="none" xmlns="http://www.w3.org/2000/svg">
<path d="M12.25 10C12.25 9.58579 11.9142 9.25 11.5 9.25C11.0858 9.25 10.75 9.58579 10.75 10V13C10.75 13.4142 11.0858 13.75 11.5 13.75H14.5C14.9142 13.75 15.25 13.4142 15.25 13C15.25 12.5858 14.9142 12.25 14.5 12.25H12.25V10Z" fill="#363538"/>
<path fill-rule="evenodd" clip-rule="evenodd" d="M8.25 6.2C8.25 6.26577 8.25847 6.32956 8.27437 6.39034C6.92909 7.03463 6 8.40882 6 10V14C6 15.5912 6.92909 16.9654 8.27437 17.6097C8.25847 17.6704 8.25 17.7342 8.25 17.8V19.5C8.25 21.0188 9.48122 22.25 11 22.25H13C14.5188 22.25 15.75 21.0188 15.75 19.5V17.8C15.75 17.7342 15.7415 17.6704 15.7256 17.6097C17.0709 16.9654 18 15.5912 18 14V10C18 8.40881 17.0709 7.03463 15.7256 6.39035C15.7415 6.32956 15.75 6.26577 15.75 6.2V4.5C15.75 2.98122 14.5188 1.75 13 1.75H11C9.48122 1.75 8.25 2.98122 8.25 4.5V6.2ZM11 3.25C10.3096 3.25 9.75 3.80964 9.75 4.5V6.00769C9.83268 6.00259 9.91604 6 10 6H14C14.084 6 14.1673 6.00259 14.25 6.00769V4.5C14.25 3.80964 13.6904 3.25 13 3.25H11ZM14.25 17.9923C14.1673 17.9974 14.084 18 14 18H10C9.91604 18 9.83268 17.9974 9.75 17.9923V19.5C9.75 20.1904 10.3096 20.75 11 20.75H13C13.6904 20.75 14.25 20.1904 14.25 19.5V17.9923ZM7.5 10C7.5 8.61929 8.61929 7.5 10 7.5H14C15.3807 7.5 16.5 8.61929 16.5 10V14C16.5 15.3807 15.3807 16.5 14 16.5H10C8.61929 16.5 7.5 15.3807 7.5 14V10Z" fill="#363538"/>
</svg>
