<svg width="24" height="24" viewBox="0 0 24 24" fill="none" xmlns="http://www.w3.org/2000/svg">
<path fill-rule="evenodd" clip-rule="evenodd" d="M8.26592 2.51109C8.51808 1.82964 9.48192 1.82964 9.73408 2.51109L10.0831 3.45441C10.1624 3.66866 10.3313 3.83758 10.5456 3.91686L11.4889 4.26592C12.1704 4.51808 12.1704 5.48192 11.4889 5.73408L10.5456 6.08314C10.3313 6.16242 10.1624 6.33134 10.0831 6.54559L9.73408 7.48891C9.48192 8.17037 8.51808 8.17036 8.26592 7.48891L7.91686 6.54559C7.83758 6.33134 7.66866 6.16242 7.45441 6.08314L6.51109 5.73408C5.82964 5.48192 5.82964 4.51808 6.51109 4.26592L7.45441 3.91686C7.66866 3.83758 7.83758 3.66866 7.91686 3.45441L8.26592 2.51109ZM8.56429 5C8.72853 4.87513 8.87513 4.72853 9 4.56429C9.12487 4.72853 9.27147 4.87513 9.43571 5C9.27147 5.12487 9.12487 5.27147 9 5.43571C8.87513 5.27147 8.72853 5.12487 8.56429 5Z" fill="#363538"/>
<path fill-rule="evenodd" clip-rule="evenodd" d="M4.02287 14.9726L14.23 4.76552C15.6107 3.3848 17.8493 3.3848 19.23 4.76551C20.6107 6.14623 20.6107 8.3848 19.23 9.76552L9.02287 19.9726C8.83534 20.1602 8.58098 20.2655 8.31577 20.2655H4.72998C4.1777 20.2655 3.72998 19.8178 3.72998 19.2655V15.6797C3.72998 15.4145 3.83534 15.1602 4.02287 14.9726ZM5.22998 18.7655V15.8868L15.2906 5.82618C16.0856 5.03125 17.3744 5.03125 18.1693 5.82617C18.9642 6.6211 18.9642 7.90993 18.1693 8.70486L8.10866 18.7655H5.22998Z" fill="#363538"/>
<path d="M15.4259 16.8883C14.858 17.0984 14.858 17.9016 15.4259 18.1117L16.212 18.4026C16.3905 18.4687 16.5313 18.6095 16.5974 18.788L16.8883 19.5741C17.0984 20.142 17.9016 20.142 18.1117 19.5741L18.4026 18.788C18.4687 18.6095 18.6095 18.4687 18.788 18.4026L19.5741 18.1117C20.142 17.9016 20.142 17.0984 19.5741 16.8883L18.788 16.5974C18.6095 16.5313 18.4687 16.3905 18.4026 16.212L18.1117 15.4259C17.9016 14.858 17.0984 14.858 16.8883 15.4259L16.5974 16.212C16.5313 16.3905 16.3905 16.5313 16.212 16.5974L15.4259 16.8883Z" fill="#363538"/>
</svg>
