<svg width="24" height="24" viewBox="0 0 24 24" fill="none" xmlns="http://www.w3.org/2000/svg">
<path fill-rule="evenodd" clip-rule="evenodd" d="M8.49996 13.6459C8.49968 13.9029 8.49932 14.2412 8.54161 14.5263C8.58879 14.8443 8.74956 15.5425 9.46387 15.9469C10.1782 16.3513 10.8595 16.13 11.1565 16.0068C11.4227 15.8964 11.7126 15.7221 11.9328 15.5896L14.677 13.9432C14.8857 13.8182 15.1665 13.6502 15.3834 13.4719C15.6321 13.2676 16.1225 12.7894 16.1225 12C16.1225 11.2106 15.6321 10.7324 15.3834 10.5281C15.1665 10.3498 14.8857 10.1817 14.677 10.0568L11.9329 8.41037C11.7127 8.27793 11.4227 8.10354 11.1565 7.99315C10.8595 7.86997 10.1782 7.64865 9.46387 8.05309C8.74956 8.45752 8.58879 9.15563 8.54161 9.4737C8.49932 9.75875 8.49968 10.0971 8.49996 10.354V13.6459ZM11.2116 9.72695L13.8567 11.314C14.3673 11.6203 14.6225 11.7735 14.6225 12C14.6225 12.2265 14.3673 12.3796 13.8567 12.686L11.2116 14.273C10.6744 14.5953 10.4058 14.7565 10.2029 14.6416C10 14.5267 10 14.2135 10 13.587V10.4129C10 9.7865 10 9.47328 10.2029 9.35839C10.4058 9.24349 10.6744 9.40465 11.2116 9.72695Z" fill="#363538"/>
<path fill-rule="evenodd" clip-rule="evenodd" d="M9.94358 3.25C8.10583 3.24998 6.65019 3.24997 5.51098 3.40314C4.33856 3.56076 3.38961 3.89288 2.64124 4.64124C1.89288 5.38961 1.56076 6.33856 1.40314 7.51098C1.24997 8.65019 1.24998 10.1058 1.25 11.9436V12.0564C1.24998 13.8942 1.24997 15.3498 1.40314 16.489C1.56076 17.6614 1.89288 18.6104 2.64124 19.3588C3.38961 20.1071 4.33856 20.4392 5.51098 20.5969C6.65018 20.75 8.1058 20.75 9.94354 20.75H14.0564C15.8942 20.75 17.3498 20.75 18.489 20.5969C19.6614 20.4392 20.6104 20.1071 21.3588 19.3588C22.1071 18.6104 22.4392 17.6614 22.5969 16.489C22.75 15.3498 22.75 13.8942 22.75 12.0565V11.9436C22.75 10.1059 22.75 8.65018 22.5969 7.51098C22.4392 6.33856 22.1071 5.38961 21.3588 4.64124C20.6104 3.89288 19.6614 3.56076 18.489 3.40314C17.3498 3.24997 15.8942 3.24998 14.0564 3.25H9.94358ZM3.7019 5.7019C4.12511 5.27869 4.70476 5.02503 5.71085 4.88976C6.73851 4.75159 8.09318 4.75 10 4.75H14C15.9068 4.75 17.2615 4.75159 18.2892 4.88976C19.2952 5.02503 19.8749 5.27869 20.2981 5.7019C20.7213 6.12511 20.975 6.70476 21.1102 7.71085C21.2484 8.73851 21.25 10.0932 21.25 12C21.25 13.9068 21.2484 15.2615 21.1102 16.2892C20.975 17.2952 20.7213 17.8749 20.2981 18.2981C19.8749 18.7213 19.2952 18.975 18.2892 19.1102C17.2615 19.2484 15.9068 19.25 14 19.25H10C8.09318 19.25 6.73851 19.2484 5.71085 19.1102C4.70476 18.975 4.12511 18.7213 3.7019 18.2981C3.27869 17.8749 3.02502 17.2952 2.88976 16.2892C2.75159 15.2615 2.75 13.9068 2.75 12C2.75 10.0932 2.75159 8.73851 2.88976 7.71085C3.02502 6.70476 3.27869 6.12511 3.7019 5.7019Z" fill="#363538"/>
</svg>
