<svg width="24" height="24" viewBox="0 0 24 24" fill="none" xmlns="http://www.w3.org/2000/svg">
<path fill-rule="evenodd" clip-rule="evenodd" d="M4.93035 5.25002C4.43995 5.24984 3.96874 5.24967 3.59813 5.32925C3.38594 5.37481 3.15914 5.45452 2.95212 5.60675C2.73808 5.76414 2.5885 5.9671 2.48711 6.19354C2.30607 6.59786 2.26675 7.11628 2.25213 7.66765C2.24206 8.04722 2.24436 8.51515 2.24709 9.0708C2.24849 9.35726 2.25001 9.66704 2.25001 10V14C2.25001 16.6234 4.37666 18.75 7.00001 18.75H14.5457C15.3818 18.7501 16.0725 18.7501 16.6063 18.6908C17.1442 18.631 17.6882 18.4975 18.0928 18.0929C18.4975 17.6882 18.631 17.1443 18.6907 16.6063C18.7022 16.5032 18.7114 16.3943 18.7189 16.2796L19.2626 16.8233C20.365 17.9257 22.25 17.1449 22.25 15.5858V8.41425C22.25 6.85517 20.365 6.07437 19.2626 7.17681L18.4671 7.97225C17.8535 6.37986 16.3087 5.25003 14.5 5.25003L4.93035 5.25002ZM20.3232 15.7626L18.75 14.1894V9.81069L20.3232 8.23747C20.4807 8.07998 20.75 8.19152 20.75 8.41425V15.5858C20.75 15.8085 20.4807 15.9201 20.3232 15.7626ZM3.75001 10C3.75001 9.64103 3.74841 9.31903 3.74696 9.02849C3.74428 8.49268 3.74215 8.06388 3.7516 7.70742C3.76655 7.1436 3.81172 6.91023 3.85393 6.81156C3.86639 6.80732 3.88546 6.80174 3.91305 6.79582C4.10703 6.75416 4.41084 6.75003 5.00008 6.75003H14.5C16.0188 6.75003 17.25 7.98125 17.25 9.50003V14.5C17.25 15.3934 17.2489 15.9998 17.1999 16.4406C17.1503 16.8871 17.0651 16.9993 17.0322 17.0322C16.9993 17.0651 16.887 17.1503 16.4406 17.1999C15.9997 17.2489 15.3933 17.25 14.5 17.25H7.00001C5.20509 17.25 3.75001 15.795 3.75001 14V10Z" fill="#363538"/>
</svg>
