<svg width="24" height="24" viewBox="0 0 24 24" fill="none" xmlns="http://www.w3.org/2000/svg">
<path d="M4.5 8.92973V6.92764C4.5 5.29306 6.3544 4.34876 7.67634 5.31017L8.35269 5.80205C9.38766 6.55476 10 7.75725 10 9.037V20.0001C10 20.5524 9.55228 21.0001 9 21.0001H8.5C7.94772 21.0001 7.5 20.5524 7.5 20.0001V14.1408C7.5 12.8034 6.8316 11.5545 5.7188 10.8126L5.3906 10.5938C4.8342 10.2229 4.5 9.59844 4.5 8.92973Z" fill="#363538"/>
<path d="M19.5 8.92973V6.92764C19.5 5.29306 17.6456 4.34876 16.3237 5.31017L15.6473 5.80205C14.6123 6.55476 14 7.75725 14 9.037V20.0001C14 20.5524 14.4477 21.0001 15 21.0001H15.5C16.0523 21.0001 16.5 20.5524 16.5 20.0001V14.1408C16.5 12.8034 17.1684 11.5545 18.2812 10.8126L18.6094 10.5938C19.1658 10.2229 19.5 9.59844 19.5 8.92973Z" fill="#363538"/>
</svg>
