<svg width="24" height="24" viewBox="0 0 24 24" fill="none" xmlns="http://www.w3.org/2000/svg">
<path d="M19.08 5.02519L20.7035 5.39656C21.2109 5.51263 21.5445 5.99855 21.4704 6.51377L21.3106 7.62399C21.277 7.85824 21.1613 8.07295 20.9842 8.22993L18.5034 10.4289C18.2419 10.6607 18.1204 11.0121 18.1828 11.3559L19.1792 16.8456C19.2453 17.21 19.1046 17.5812 18.8135 17.8102L18.2835 18.227C17.8106 18.5989 17.1188 18.4722 16.8086 17.9568L14.8032 14.6259C14.5212 14.1575 13.9153 14.0024 13.4429 14.2778L8.56287 17.1225C8.25293 17.3032 7.86995 17.304 7.55926 17.1246L3.50017 14.7811C3.02187 14.5049 2.858 13.8933 3.13414 13.415L3.5858 12.6327C3.81526 12.2353 4.28579 12.0451 4.727 12.1714L7.05735 12.8384C7.35261 12.9229 7.67034 12.867 7.91908 12.6869L18.2705 5.1901C18.5039 5.02102 18.799 4.96091 19.08 5.02519Z" fill="#363538"/>
</svg>
