<svg width="24" height="24" viewBox="0 0 24 24" fill="none" xmlns="http://www.w3.org/2000/svg">
<path d="M3.76119 13.6146L3.27104 15.2063C3.11786 15.7038 3.37191 16.2356 3.85516 16.429L4.89649 16.8458C5.11621 16.9337 5.35999 16.9409 5.5845 16.866L8.7293 15.8171C9.06073 15.7065 9.42583 15.777 9.69234 16.0029L13.9483 19.6107C14.2309 19.8502 14.6227 19.9139 14.9666 19.7763L15.5926 19.5257C16.1511 19.3022 16.3872 18.6397 16.096 18.1133L14.214 14.7112C13.9494 14.2327 14.118 13.6304 14.5927 13.359L19.4963 10.5551C19.8078 10.3771 19.9999 10.0458 19.9999 9.68703V5C19.9999 4.44772 19.5522 4 18.9999 4H18.0966C17.6377 4 17.2377 4.31237 17.1265 4.75761L16.5389 7.10925C16.4645 7.40722 16.2572 7.65445 15.9769 7.77979L4.30878 12.996C4.04562 13.1136 3.84602 13.3391 3.76119 13.6146Z" fill="#363538"/>
</svg>
