<svg width="24" height="24" viewBox="0 0 24 24" fill="none" xmlns="http://www.w3.org/2000/svg">
<path fill-rule="evenodd" clip-rule="evenodd" d="M12 3C15.866 3 19 6.13401 19 10V10.4365C19 10.8114 18.9736 11.1808 18.9023 11.5488C18.4842 13.708 16.6524 21.5 12 21.5C7.34758 21.5 5.51584 13.708 5.09766 11.5488C5.02638 11.1808 5 10.8114 5 10.4365V10C5 6.13401 8.13401 3 12 3ZM11.5 16.25C11.0858 16.25 10.75 16.5858 10.75 17C10.75 17.4142 11.0858 17.75 11.5 17.75H12.5C12.9142 17.75 13.25 17.4142 13.25 17C13.25 16.5858 12.9142 16.25 12.5 16.25H11.5ZM8.56348 9.25195C7.97296 8.84397 7.26053 9.30174 7.37891 10.0098C7.63747 11.5559 8.27868 13.0222 9.25 13.0879C10.5417 13.1751 10.75 12.5 10.75 12C10.75 11.0705 9.63657 9.99379 8.56348 9.25195ZM16.6211 10.0098C16.7395 9.30174 16.027 8.84397 15.4365 9.25195C14.3634 9.99379 13.25 11.0705 13.25 12C13.25 12.5 13.4583 13.1751 14.75 13.0879C15.7213 13.0222 16.3625 11.5559 16.6211 10.0098Z" fill="#363538"/>
</svg>
