<svg width="24" height="24" viewBox="0 0 24 24" fill="none" xmlns="http://www.w3.org/2000/svg">
<path d="M12 4.25C10.4812 4.25 9.25 5.48122 9.25 7C9.25 8.2587 10.0958 9.31977 11.2498 9.64636V19.3133C9.04705 19.3334 6.20952 17.7193 5.44605 14.649L6.31059 15.2985C6.64177 15.5473 7.11192 15.4805 7.36071 15.1494C7.60951 14.8182 7.54273 14.348 7.21156 14.0992L4.95018 12.4004C4.79115 12.2809 4.59116 12.2295 4.39423 12.2575C4.19729 12.2854 4.01954 12.3905 3.90006 12.5495L2.20119 14.8109C1.95239 15.1421 2.01917 15.6122 2.35034 15.861C2.68151 16.1098 3.15167 16.043 3.40046 15.7119L3.97251 14.9504C4.96097 19.1058 9.03177 21.1787 11.9998 20.7588C14.9678 21.1787 19.0385 19.1058 20.027 14.9504L20.599 15.7119C20.8478 16.043 21.3179 16.1098 21.6491 15.861C21.9803 15.6122 22.0471 15.1421 21.7983 14.8109L20.0994 12.5495C19.9799 12.3905 19.8022 12.2854 19.6052 12.2575C19.4083 12.2295 19.2083 12.2809 19.0493 12.4004L16.7879 14.0992C16.4567 14.348 16.39 14.8182 16.6387 15.1494C16.8875 15.4805 17.3577 15.5473 17.6889 15.2985L18.5534 14.649C17.79 17.7193 14.9525 19.3334 12.7498 19.3133V9.64661C13.9043 9.32027 14.75 8.25885 14.75 7C14.75 5.48122 13.5188 4.25 12 4.25Z" fill="#363538"/>
</svg>
