<svg width="24" height="24" viewBox="0 0 24 24" fill="none" xmlns="http://www.w3.org/2000/svg">
<path fill-rule="evenodd" clip-rule="evenodd" d="M18.916 5.37604C19.2607 5.60581 19.3538 6.07146 19.124 6.4161L17.5447 8.78515C19.9402 10.5099 21.5 13.3228 21.5 16.5001V16.6155C21.5 16.8279 21.3278 17.0001 21.1154 17.0001H2.88461C2.6722 17.0001 2.5 16.8279 2.5 16.6155V16.5001C2.5 13.3228 4.05975 10.5099 6.45533 8.78515L4.87596 6.4161C4.6462 6.07146 4.73933 5.60581 5.08397 5.37604C5.42862 5.14628 5.89427 5.23941 6.12404 5.58405L7.73923 8.00684C9.02068 7.36272 10.468 7.00008 12 7.00008C13.532 7.00008 14.9793 7.36272 16.2608 8.00684L17.876 5.58405C18.1057 5.23941 18.5714 5.14628 18.916 5.37604ZM9 13.0001C9 13.5524 8.55228 14.0001 8 14.0001C7.44772 14.0001 7 13.5524 7 13.0001C7 12.4478 7.44772 12.0001 8 12.0001C8.55228 12.0001 9 12.4478 9 13.0001ZM16 14.0001C16.5523 14.0001 17 13.5524 17 13.0001C17 12.4478 16.5523 12.0001 16 12.0001C15.4477 12.0001 15 12.4478 15 13.0001C15 13.5524 15.4477 14.0001 16 14.0001Z" fill="#363538"/>
</svg>
