<svg width="24" height="24" viewBox="0 0 24 24" fill="none" xmlns="http://www.w3.org/2000/svg">
<path d="M10.8343 4.00519C11.6218 2.95127 13.1563 1.89124 15.7301 2.17722C18.256 2.45788 18.9604 2.34469 18.9832 2.42489C18.9928 2.45899 18.8793 2.52806 18.7301 2.67725C17.4007 3.71123 14.8931 4.87611 11.5553 5.12769C10.8928 5.17763 10.4367 4.53741 10.8343 4.00519Z" fill="#363538"/>
<path d="M10.8334 6.25153C6.92398 4.36417 3.62518 7.49694 2.73014 10.6298C1.43395 15.1669 3.37221 20.4762 7.73013 21.6293C8.87238 21.9316 9.6851 21.7496 10.0771 21.6618C10.1386 21.648 10.1897 21.6366 10.2302 21.6297C10.6516 21.5577 11.0432 21.2866 11.3924 21.0448C11.7097 20.8251 11.9921 20.6297 12.2302 20.6297C12.5392 20.6297 12.8482 20.8206 13.2751 21.0845C13.5391 21.2477 13.8481 21.4387 14.2302 21.6297C14.5164 21.7727 15.238 22.092 16.7301 21.6297C20.9832 20.3118 22.505 15.0925 21.2301 10.6298C20.3438 7.52774 17.1007 4.42557 13.5896 6.19751C12.7342 6.62924 11.6964 6.66813 10.8334 6.25153Z" fill="#363538"/>
</svg>
