<svg width="24" height="24" viewBox="0 0 24 24" fill="none" xmlns="http://www.w3.org/2000/svg">
<path d="M12.1135 6.5V6C12.1135 3.79086 13.9043 2 16.1135 2V2.5C16.1135 4.70914 14.3226 6.5 12.1135 6.5Z" fill="#363538"/>
<path d="M12.1136 7.99998C12.1136 7.99998 10.3486 6.99998 9.11364 6.99998C7.36716 6.99998 6.11343 7.5001 5.11364 8.99998C4.11384 10.4999 3.86361 11.5 4.06373 14C4.16353 15.7 6.11358 20.6997 9.11364 21.6997C9.87743 21.9543 10.4559 21.6961 11.0647 21.4242C11.5309 21.2161 12.0149 21 12.6136 21C13.2431 21 13.7341 21.1908 14.2151 21.3778C14.7893 21.601 15.3493 21.8187 16.1136 21.6997C18.6292 21.3081 20.1135 16.6 20.1135 16.6C20.1135 16.6 17.6136 15.4997 17.6136 12.5C17.6136 9.99974 19.6137 8.99974 19.6137 8.99974C19.6137 8.99974 19.0871 7.6183 16.6137 6.99998C14.6137 6.50002 12.1136 7.99998 12.1136 7.99998Z" fill="#363538"/>
</svg>
