<svg width="24" height="24" viewBox="0 0 24 24" fill="none" xmlns="http://www.w3.org/2000/svg">
<path fill-rule="evenodd" clip-rule="evenodd" d="M13.9991 9.25C14.4133 9.25 14.7491 9.58579 14.7491 10C14.7491 10 14.7489 10.0023 14.7491 10.0059C14.7493 10.0101 14.7502 10.0165 14.751 10.0244C14.7527 10.0407 14.756 10.0627 14.7608 10.0908C14.7706 10.148 14.7861 10.2202 14.8087 10.3105C14.855 10.4961 14.9185 10.7124 14.9952 10.9834C15.0429 11.1519 15.0921 11.3363 15.1426 11.5322C16.086 10.8036 17.2845 10.1981 18.3858 9.95508C19.1687 9.78244 20.0473 9.76085 20.7628 10.1689C21.5421 10.6138 21.9219 11.4423 21.9219 12.5C21.9219 13.1925 21.6692 13.8048 21.1798 14.2549C20.7055 14.6907 20.0683 14.922 19.377 14.9961C18.2945 15.112 16.9582 14.8597 15.5059 14.2383C15.5107 15.8955 15.0452 17.1152 13.9991 17.9072C12.7863 18.825 10.9812 18.9931 9.00006 18.9932C6.28814 18.993 4.26355 17.8349 3.29108 16.1914C2.31172 14.536 2.46679 12.4719 3.96881 10.9697C4.26159 10.677 4.73645 10.6772 5.02936 10.9697C5.32224 11.2626 5.32227 11.7374 5.02936 12.0303C4.03189 13.0279 3.93668 14.3368 4.58209 15.4277C5.23479 16.5306 6.71265 17.493 9.00006 17.4932C11.0179 17.4931 12.3298 17.2891 13.0938 16.7109C13.7201 16.2367 14.1412 15.3625 13.9698 13.4824L13.9278 13.0928C13.852 12.4869 13.6981 11.9086 13.5518 11.3916C13.4812 11.1419 13.4073 10.8892 13.3536 10.6738C13.3027 10.47 13.2491 10.2251 13.2491 10C13.2491 9.58601 13.5852 9.25036 13.9991 9.25ZM20.0186 11.4717C19.7758 11.3335 19.341 11.2803 18.7081 11.4199C17.78 11.6248 16.733 12.1757 15.9571 12.7988C17.3042 13.3968 18.4308 13.588 19.2169 13.5039C19.6916 13.453 19.9925 13.3089 20.1641 13.1514C20.3203 13.0077 20.4219 12.8073 20.4219 12.5C20.4219 11.808 20.1974 11.5737 20.0186 11.4717Z" fill="#363538"/>
<path d="M18.0001 6C18.5523 6.00001 19.0001 6.44772 19.0001 7C19.0001 7.55228 18.5523 7.99999 18.0001 8C17.4478 8 17.0001 7.55228 17.0001 7C17.0001 6.44772 17.4478 6 18.0001 6Z" fill="#363538"/>
</svg>
