<svg width="24" height="24" viewBox="0 0 24 24" fill="none" xmlns="http://www.w3.org/2000/svg">
<path d="M10.4697 6.53033C10.7626 6.82322 11.2374 6.82322 11.5303 6.53033C11.8232 6.23744 11.8232 5.76256 11.5303 5.46967L8.53034 2.46967C8.38446 2.3238 8.19345 2.25057 8.00226 2.25L8.00001 2.25L7.99776 2.25C7.89689 2.2503 7.8007 2.27051 7.71292 2.30691C7.62446 2.34351 7.54159 2.39776 7.46968 2.46967L4.46967 5.46967C4.17678 5.76256 4.17678 6.23744 4.46967 6.53033C4.76256 6.82322 5.23744 6.82322 5.53033 6.53033L7.25001 4.81066L7.25001 15C7.25001 15.4142 7.58579 15.75 8.00001 15.75C8.41422 15.75 8.75001 15.4142 8.75001 15L8.75001 4.81066L10.4697 6.53033Z" fill="#363538"/>
<path d="M16.5324 21.5283C16.3965 21.6652 16.2082 21.75 16 21.75C15.8188 21.75 15.6526 21.6857 15.5229 21.5787C15.5044 21.5635 15.4866 21.5473 15.4697 21.5303L12.4697 18.5303C12.1768 18.2374 12.1768 17.7626 12.4697 17.4697C12.7626 17.1768 13.2374 17.1768 13.5303 17.4697L15.25 19.1893L15.25 9C15.25 8.58579 15.5858 8.25 16 8.25C16.4142 8.25 16.75 8.58579 16.75 9L16.75 19.1893L18.4697 17.4697C18.7626 17.1768 19.2374 17.1768 19.5303 17.4697C19.8232 17.7626 19.8232 18.2374 19.5303 18.5303L16.5324 21.5283Z" fill="#363538"/>
</svg>
