<svg width="24" height="24" viewBox="0 0 24 24" fill="none" xmlns="http://www.w3.org/2000/svg">
<path d="M12.5304 5.46967C12.3897 5.32902 12.199 5.25 12 5.25C11.8011 5.25 11.6104 5.32902 11.4697 5.46967L7.46973 9.46967C7.17683 9.76256 7.17683 10.2374 7.46973 10.5303C7.76262 10.8232 8.2375 10.8232 8.53039 10.5303L12 7.06066L15.4697 10.5303C15.7626 10.8232 16.2375 10.8232 16.5304 10.5303C16.8233 10.2374 16.8233 9.76256 16.5304 9.46967L12.5304 5.46967Z" fill="#363538"/>
<path d="M8.53033 13.4698C8.23744 13.1769 7.76256 13.1769 7.46967 13.4698C7.17678 13.7627 7.17678 14.2376 7.46967 14.5305L11.4697 18.5305C11.6103 18.6711 11.8011 18.7502 12 18.7502C12.1989 18.7502 12.3897 18.6711 12.5303 18.5305L16.5303 14.5305C16.8232 14.2376 16.8232 13.7627 16.5303 13.4698C16.2374 13.1769 15.7626 13.1769 15.4697 13.4698L12 16.9395L8.53033 13.4698Z" fill="#363538"/>
</svg>
