<svg width="24" height="24" viewBox="0 0 24 24" fill="none" xmlns="http://www.w3.org/2000/svg">
<path d="M14.8284 18.3211C14.4142 18.3211 14.0784 18.6569 14.0785 19.0711C14.0784 19.4853 14.4142 19.8211 14.8285 19.8211L19.069 19.8211C19.0751 19.8211 19.0812 19.8211 19.0874 19.8209C19.283 19.8168 19.4603 19.7377 19.5915 19.6112C19.5988 19.6042 19.6058 19.5971 19.6128 19.5898C19.6774 19.5224 19.727 19.4459 19.7615 19.3645C19.7999 19.2744 19.8211 19.1752 19.8211 19.0711L19.8211 14.8285C19.8211 14.4143 19.4853 14.0785 19.0711 14.0785C18.6569 14.0785 18.3211 14.4143 18.3211 14.8285L18.3211 17.2605L6.7396 5.67896H9.1716C9.58581 5.67896 9.9216 5.34317 9.9216 4.92896C9.9216 4.51474 9.58581 4.17896 9.1716 4.17896L4.92896 4.17896C4.82026 4.17895 4.71697 4.20208 4.62372 4.24367C4.52923 4.28583 4.44505 4.34695 4.37604 4.42221C4.25854 4.55036 4.18499 4.71947 4.17932 4.90567C4.17905 4.91438 4.17893 4.92309 4.17896 4.9318L4.17896 9.1716C4.17895 9.58581 4.51474 9.9216 4.92895 9.9216C5.34317 9.9216 5.67895 9.58582 5.67895 9.1716L5.67896 6.73964L17.2604 18.3211L14.8284 18.3211Z" fill="#363538"/>
</svg>
