<svg width="24" height="24" viewBox="0 0 24 24" fill="none" xmlns="http://www.w3.org/2000/svg">
<path d="M6 21.75C5.58579 21.75 5.25 21.4142 5.25 21C5.25 20.5858 5.58579 20.25 6 20.25H18C18.4142 20.25 18.75 20.5858 18.75 21C18.75 21.4142 18.4142 21.75 18 21.75H6Z" fill="#363538"/>
<path d="M7.30711 13.7128C7.4232 13.4325 7.69668 13.2498 8.00002 13.2498H11.25L11.25 3C11.25 2.58579 11.5858 2.25 12 2.25C12.4142 2.25 12.75 2.58579 12.75 3L12.75 13.2498H16C16.3034 13.2498 16.5769 13.4325 16.6929 13.7128C16.809 13.9931 16.7449 14.3156 16.5304 14.5301L13.9446 17.1159C12.8706 18.1899 11.1294 18.1899 10.0555 17.1159L7.46969 14.5301C7.25519 14.3156 7.19103 13.993 7.30711 13.7128Z" fill="#363538"/>
</svg>
