<svg width="24" height="24" viewBox="0 0 24 24" fill="none" xmlns="http://www.w3.org/2000/svg">
<path fill-rule="evenodd" clip-rule="evenodd" d="M22 12C22 8.26154 22 6.3923 21.1962 5C20.6695 4.08788 19.9121 3.33046 19 2.80385C17.6077 2 15.7385 2 12 2C8.26154 2 6.3923 2 5 2.80385C4.08788 3.33046 3.33046 4.08788 2.80385 5C2 6.3923 2 8.26154 2 12C2 15.7385 2 17.6077 2.80385 19C3.33046 19.9121 4.08788 20.6695 5 21.1962C6.3923 22 8.26154 22 12 22C15.7385 22 17.6077 22 19 21.1962C19.9121 20.6695 20.6695 19.9121 21.1962 19C22 17.6077 22 15.7385 22 12ZM8.53033 10.4697C8.23744 10.1768 7.76256 10.1768 7.46967 10.4697C7.17678 10.7626 7.17678 11.2374 7.46967 11.5303L10.0555 14.1161C11.1294 15.1901 12.8706 15.1901 13.9445 14.1161L16.5303 11.5303C16.8232 11.2374 16.8232 10.7626 16.5303 10.4697C16.2374 10.1768 15.7626 10.1768 15.4697 10.4697L12.8839 13.0555C12.3957 13.5436 11.6043 13.5436 11.1161 13.0555L8.53033 10.4697Z" fill="#363538"/>
</svg>
