<svg width="24" height="24" viewBox="0 0 24 24" fill="none" xmlns="http://www.w3.org/2000/svg">
<path d="M2.25 6C2.25 5.58579 2.58579 5.25 3 5.25C3.41421 5.25 3.75 5.58579 3.75 6V18C3.75 18.4142 3.41421 18.75 3 18.75C2.58579 18.75 2.25 18.4142 2.25 18V6Z" fill="#363538"/>
<path d="M10.2872 7.30711C10.5675 7.4232 10.7502 7.69668 10.7502 8.00002V11.25H21C21.4142 11.25 21.75 11.5858 21.75 12C21.75 12.4142 21.4142 12.75 21 12.75H10.7502V16C10.7502 16.3034 10.5675 16.5769 10.2872 16.6929C10.0069 16.809 9.68436 16.7449 9.46986 16.5304L6.88407 13.9446C5.81013 12.8706 5.81013 11.1294 6.88407 10.0555L9.46986 7.46969C9.68436 7.25519 10.007 7.19103 10.2872 7.30711Z" fill="#363538"/>
</svg>
