<svg width="24" height="24" viewBox="0 0 24 24" fill="none" xmlns="http://www.w3.org/2000/svg">
<path d="M7.53033 6.53033C7.82322 6.23744 7.82322 5.76256 7.53033 5.46967C7.23744 5.17678 6.76256 5.17678 6.46967 5.46967L3.46967 8.46968C3.44802 8.49133 3.42783 8.51417 3.40916 8.53804C3.32246 8.64878 3.26621 8.78452 3.25303 8.93264C3.25102 8.95495 3.25 8.97743 3.25 9.00001C3.25 9.16292 3.303 9.32037 3.39946 9.4493C3.42078 9.47779 3.44422 9.50488 3.46967 9.53034L6.46967 12.5303C6.76256 12.8232 7.23744 12.8232 7.53033 12.5303C7.82322 12.2374 7.82322 11.7626 7.53033 11.4697L5.81066 9.75H11C15.5563 9.75 19.25 13.4437 19.25 18C19.25 18.4142 19.5858 18.75 20 18.75C20.4142 18.75 20.75 18.4142 20.75 18C20.75 12.6152 16.3848 8.25 11 8.25H5.81066L7.53033 6.53033Z" fill="#363538"/>
</svg>
