<svg width="24" height="24" viewBox="0 0 24 24" fill="none" xmlns="http://www.w3.org/2000/svg">
<path d="M9.1716 18.3211C9.58582 18.3211 9.9216 18.6569 9.9216 19.0711C9.9216 19.4853 9.58581 19.8211 9.1716 19.8211L4.93109 19.8211C4.92496 19.8211 4.91883 19.8211 4.9127 19.8209C4.71701 19.8168 4.53978 19.7377 4.40853 19.6112C4.4013 19.6042 4.3942 19.5971 4.38725 19.5898C4.32264 19.5224 4.27307 19.4459 4.23852 19.3645C4.20017 19.2744 4.17895 19.1752 4.17896 19.0711L4.17896 14.8285C4.17896 14.4143 4.51474 14.0785 4.92896 14.0785C5.34317 14.0785 5.67896 14.4143 5.67896 14.8285L5.67895 17.2605L17.2605 5.67896H14.8285C14.4142 5.67896 14.0785 5.34317 14.0785 4.92896C14.0785 4.51474 14.4142 4.17896 14.8285 4.17896L19.0711 4.17896C19.1798 4.17895 19.2831 4.20208 19.3763 4.24367C19.4708 4.28583 19.555 4.34695 19.624 4.42221C19.7415 4.55036 19.8151 4.71947 19.8207 4.90567C19.821 4.91438 19.8211 4.92309 19.8211 4.9318L19.8211 9.1716C19.8211 9.58581 19.4853 9.9216 19.0711 9.9216C18.6569 9.9216 18.3211 9.58582 18.3211 9.1716L18.3211 6.73964L6.73962 18.3211L9.1716 18.3211Z" fill="#363538"/>
</svg>
