<svg width="24" height="24" viewBox="0 0 24 24" fill="none" xmlns="http://www.w3.org/2000/svg">
<path fill-rule="evenodd" clip-rule="evenodd" d="M22 12C22 8.26154 22 6.3923 21.1962 5C20.6695 4.08788 19.9121 3.33046 19 2.80385C17.6077 2 15.7385 2 12 2C8.26154 2 6.39231 2 5 2.80385C4.08788 3.33046 3.33046 4.08788 2.80385 5C2 6.3923 2 8.26154 2 12C2 15.7385 2 17.6077 2.80385 19C3.33046 19.9121 4.08788 20.6695 5 21.1962C6.39231 22 8.26154 22 12 22C15.7385 22 17.6077 22 19 21.1962C19.9121 20.6695 20.6695 19.9121 21.1962 19C22 17.6077 22 15.7385 22 12ZM15.0303 9.46967C14.7374 9.17678 14.2626 9.17678 13.9697 9.46967C13.6768 9.76256 13.6768 10.2374 13.9697 10.5303L14.6893 11.25H7.5C7.08579 11.25 6.75 11.5858 6.75 12C6.75 12.4142 7.08579 12.75 7.5 12.75H14.6893L13.9697 13.4697C13.6768 13.7626 13.6768 14.2374 13.9697 14.5303C14.2626 14.8232 14.7374 14.8232 15.0303 14.5303L17.0303 12.5303C17.171 12.3897 17.25 12.1989 17.25 12C17.25 11.8011 17.171 11.6103 17.0303 11.4697L15.0303 9.46967Z" fill="#363538"/>
</svg>
