<svg width="24" height="24" viewBox="0 0 24 24" fill="none" xmlns="http://www.w3.org/2000/svg">
<path d="M5.96967 15.4697C5.67678 15.7626 5.67678 16.2374 5.96967 16.5303C6.26256 16.8232 6.73744 16.8232 7.03033 16.5303L11.0303 12.5303C11.171 12.3897 11.25 12.1989 11.25 12C11.25 11.8011 11.171 11.6103 11.0303 11.4697L7.03033 7.46967C6.73744 7.17678 6.26256 7.17678 5.96967 7.46967C5.67678 7.76256 5.67678 8.23744 5.96967 8.53033L9.43934 12L5.96967 15.4697Z" fill="#363538"/>
<path d="M12.9699 11.4698C12.8293 11.6104 12.7502 11.8012 12.7502 12.0001C12.7502 12.199 12.8293 12.3898 12.9699 12.5304L16.9699 16.5304C17.2628 16.8233 17.7377 16.8233 18.0306 16.5305C18.3235 16.2376 18.3235 15.7627 18.0306 15.4698L14.5609 12.0001L18.0306 8.53045C18.3235 8.23756 18.3235 7.76269 18.0306 7.46979C17.7377 7.1769 17.2628 7.1769 16.9699 7.46979L12.9699 11.4698Z" fill="#363538"/>
</svg>
