<svg width="24" height="24" viewBox="0 0 24 24" fill="none" xmlns="http://www.w3.org/2000/svg">
<path d="M15.5857 4.92139C15.1715 4.92139 14.8357 4.5856 14.8357 4.17139C14.8357 3.75717 15.1715 3.42139 15.5857 3.42139L19.8284 3.42139C19.8481 3.42139 19.8678 3.42217 19.8873 3.42371C20.0496 3.43642 20.2086 3.50176 20.3365 3.61975C20.344 3.62667 20.3514 3.63377 20.3587 3.64106C20.366 3.64835 20.3731 3.65576 20.38 3.66327C20.4905 3.78324 20.5587 3.93571 20.5747 4.09726C20.5771 4.12179 20.5784 4.14653 20.5784 4.17139L20.5784 8.41403C20.5784 8.82824 20.2426 9.16403 19.8284 9.16403C19.4142 9.16403 19.0784 8.82824 19.0784 8.41403L19.0784 5.98211L14.0303 11.0304C13.7374 11.3233 13.2625 11.3233 12.9696 11.0304C12.6767 10.7375 12.6767 10.2627 12.9696 9.96976L18.0178 4.92139L15.5857 4.92139Z" fill="#363538"/>
<path d="M3.91652 20.5344C3.99615 20.5632 4.08206 20.5789 4.17163 20.5789L8.41428 20.5789C8.82849 20.5789 9.16428 20.2431 9.16428 19.8289C9.16428 19.4146 8.82849 19.0789 8.41428 19.0789L5.98221 19.0789L11.0303 14.0304C11.3232 13.7375 11.3231 13.2626 11.0302 12.9697C10.7373 12.6768 10.2624 12.6769 9.96957 12.9698L4.92163 18.0181V15.5862C4.92163 15.172 4.58584 14.8362 4.17163 14.8362C3.75742 14.8362 3.42163 15.172 3.42163 15.5862V19.8289C3.42163 19.9264 3.44024 20.0195 3.4741 20.105C3.51069 20.1976 3.56643 20.2844 3.64132 20.3592C3.72183 20.4397 3.81608 20.4981 3.91652 20.5344Z" fill="#363538"/>
</svg>
