<svg width="24" height="24" viewBox="0 0 24 24" fill="none" xmlns="http://www.w3.org/2000/svg">
<path d="M21.75 6C21.75 5.58579 21.4142 5.25 21 5.25C20.5858 5.25 20.25 5.58579 20.25 6V18C20.25 18.4142 20.5858 18.75 21 18.75C21.4142 18.75 21.75 18.4142 21.75 18V6Z" fill="#363538"/>
<path d="M13.7128 7.30711C13.4325 7.4232 13.2498 7.69668 13.2498 8.00002V11.25H3C2.58579 11.25 2.25 11.5858 2.25 12C2.25 12.4142 2.58579 12.75 3 12.75H13.2498V16C13.2498 16.3034 13.4325 16.5769 13.7128 16.6929C13.9931 16.809 14.3156 16.7449 14.5301 16.5304L17.1159 13.9446C18.1899 12.8706 18.1899 11.1294 17.1159 10.0555L14.5301 7.46969C14.3156 7.25519 13.993 7.19103 13.7128 7.30711Z" fill="#363538"/>
</svg>
