<svg width="24" height="24" viewBox="0 0 24 24" fill="none" xmlns="http://www.w3.org/2000/svg">
<path d="M11.9697 2.46967C12.2626 2.17678 12.7374 2.17678 13.0303 2.46967C13.3232 2.76256 13.3232 3.23744 13.0303 3.53033L12.3054 4.25523C16.9965 4.41615 20.75 8.26974 20.75 13C20.75 17.8325 16.8325 21.75 12 21.75C7.16751 21.75 3.25 17.8325 3.25 13C3.25 12.5858 3.58579 12.25 4 12.25C4.41421 12.25 4.75 12.5858 4.75 13C4.75 17.0041 7.99594 20.25 12 20.25C16.0041 20.25 19.25 17.0041 19.25 13C19.25 9.10231 16.1742 5.92301 12.3175 5.75683L13.0303 6.46967C13.3232 6.76256 13.3232 7.23744 13.0303 7.53033C12.7374 7.82322 12.2626 7.82322 11.9697 7.53033L9.96967 5.53033C9.67678 5.23744 9.67678 4.76256 9.96967 4.46967L11.9697 2.46967Z" fill="#363538"/>
</svg>
