<svg width="24" height="24" viewBox="0 0 24 24" fill="none" xmlns="http://www.w3.org/2000/svg">
<path fill-rule="evenodd" clip-rule="evenodd" d="M12 22C17.5228 22 22 17.5228 22 12C22 6.47715 17.5228 2 12 2C6.47715 2 2 6.47715 2 12C2 17.5228 6.47715 22 12 22ZM12.75 7.5C12.75 7.08579 12.4142 6.75 12 6.75C11.5858 6.75 11.25 7.08579 11.25 7.5V14.6893L10.5303 13.9697C10.2374 13.6768 9.76256 13.6768 9.46967 13.9697C9.17678 14.2626 9.17678 14.7374 9.46967 15.0303L11.4697 17.0303C11.7626 17.3232 12.2374 17.3232 12.5303 17.0303L14.5303 15.0303C14.8232 14.7374 14.8232 14.2626 14.5303 13.9697C14.2374 13.6768 13.7626 13.6768 13.4697 13.9697L12.75 14.6893V7.5Z" fill="#363538"/>
</svg>
