<svg width="24" height="24" viewBox="0 0 24 24" fill="none" xmlns="http://www.w3.org/2000/svg">
<path d="M16.4696 6.53033C16.1767 6.23744 16.1767 5.76256 16.4696 5.46967C16.7625 5.17678 17.2373 5.17678 17.5302 5.46967L20.5249 8.46434C20.6638 8.60046 20.75 8.79017 20.75 9C20.75 9.20939 20.6641 9.39874 20.5258 9.5348L17.5302 12.5303C17.2373 12.8232 16.7625 12.8232 16.4696 12.5303C16.1767 12.2374 16.1767 11.7626 16.4696 11.4697L18.1892 9.75H13C8.44366 9.75 4.75 13.4437 4.75 18C4.75 18.4142 4.41421 18.75 4 18.75C3.58578 18.75 3.25 18.4142 3.25 18C3.25 12.6152 7.61523 8.25 13 8.25H18.1892L16.4696 6.53033Z" fill="#363538"/>
</svg>
