<svg width="24" height="24" viewBox="0 0 24 24" fill="none" xmlns="http://www.w3.org/2000/svg">
<path d="M6.53033 9.53033C6.82322 9.23744 6.82322 8.76256 6.53033 8.46967C6.23744 8.17678 5.76256 8.17678 5.46967 8.46967L2.47175 11.4676C2.465 11.4743 2.45838 11.4811 2.45188 11.4881C2.32665 11.6221 2.25 11.8021 2.25 12C2.25 12.1006 2.26981 12.1966 2.30573 12.2842C2.34234 12.3738 2.39699 12.4577 2.46967 12.5303L5.46967 15.5303C5.76256 15.8232 6.23744 15.8232 6.53033 15.5303C6.82322 15.2374 6.82322 14.7626 6.53033 14.4697L4.81065 12.75H21C21.4142 12.75 21.75 12.4142 21.75 12C21.75 11.5858 21.4142 11.25 21 11.25H4.81066L6.53033 9.53033Z" fill="#363538"/>
</svg>
