<svg width="24" height="24" viewBox="0 0 24 24" fill="none" xmlns="http://www.w3.org/2000/svg">
<path d="M11.9614 21.749C11.9742 21.7497 11.9871 21.75 12 21.75C12.1919 21.75 12.3839 21.6768 12.5303 21.5303L15.5303 18.5303C15.8232 18.2374 15.8232 17.7626 15.5303 17.4697C15.2374 17.1768 14.7626 17.1768 14.4697 17.4697L12.75 19.1893V3C12.75 2.58579 12.4142 2.25 12 2.25C11.5858 2.25 11.25 2.58579 11.25 3V19.1893L9.53033 17.4697C9.23744 17.1768 8.76256 17.1768 8.46967 17.4697C8.17678 17.7626 8.17678 18.2374 8.46967 18.5303L11.4697 21.5303C11.5416 21.6022 11.6245 21.6565 11.7129 21.6931C11.7901 21.7251 11.8738 21.7446 11.9614 21.749Z" fill="#363538"/>
</svg>
