<svg width="24" height="24" viewBox="0 0 24 24" fill="none" xmlns="http://www.w3.org/2000/svg">
<path d="M6 2.25C5.58579 2.25 5.25 2.58579 5.25 3C5.25 3.41421 5.58579 3.75 6 3.75L18 3.75C18.4142 3.75 18.75 3.41421 18.75 3C18.75 2.58579 18.4142 2.25 18 2.25L6 2.25Z" fill="#363538"/>
<path d="M7.30711 10.2872C7.4232 10.5675 7.69668 10.7502 8.00002 10.7502H11.25L11.25 21C11.25 21.4142 11.5858 21.75 12 21.75C12.4142 21.75 12.75 21.4142 12.75 21L12.75 10.7502H16C16.3034 10.7502 16.5769 10.5675 16.6929 10.2872C16.809 10.0069 16.7449 9.68436 16.5304 9.46986L13.9446 6.88407C12.8706 5.81013 11.1294 5.81013 10.0555 6.88407L7.46969 9.46986C7.25519 9.68436 7.19103 10.007 7.30711 10.2872Z" fill="#363538"/>
</svg>
