<svg width="24" height="24" viewBox="0 0 24 24" fill="none" xmlns="http://www.w3.org/2000/svg">
<path fill-rule="evenodd" clip-rule="evenodd" d="M12 22C17.5228 22 22 17.5228 22 12C22 6.47715 17.5228 2 12 2C6.47715 2 2 6.47715 2 12C2 17.5228 6.47715 22 12 22ZM10.0303 10.5303C10.3232 10.2374 10.3232 9.76256 10.0303 9.46967C9.73744 9.17678 9.26256 9.17678 8.96967 9.46967L6.96967 11.4697C6.67678 11.7626 6.67678 12.2374 6.96967 12.5303L8.96967 14.5303C9.26256 14.8232 9.73744 14.8232 10.0303 14.5303C10.3232 14.2374 10.3232 13.7626 10.0303 13.4697L9.31066 12.75H16.5C16.9142 12.75 17.25 12.4142 17.25 12C17.25 11.5858 16.9142 11.25 16.5 11.25H9.31066L10.0303 10.5303Z" fill="#363538"/>
</svg>
