<svg width="24" height="24" viewBox="0 0 24 24" fill="none" xmlns="http://www.w3.org/2000/svg">
<path fill-rule="evenodd" clip-rule="evenodd" d="M22 12C22 8.26154 22 6.39231 21.1962 5C20.6695 4.08788 19.9121 3.33046 19 2.80385C17.6077 2 15.7385 2 12 2C8.26154 2 6.3923 2 5 2.80385C4.08788 3.33046 3.33046 4.08788 2.80385 5C2 6.39231 2 8.26154 2 12C2 15.7385 2 17.6077 2.80385 19C3.33046 19.9121 4.08788 20.6695 5 21.1962C6.3923 22 8.26154 22 12 22C15.7385 22 17.6077 22 19 21.1962C19.9121 20.6695 20.6695 19.9121 21.1962 19C22 17.6077 22 15.7385 22 12ZM12.5303 6.96967C12.2374 6.67678 11.7626 6.67678 11.4697 6.96967L9.46967 8.96967C9.17678 9.26256 9.17678 9.73744 9.46967 10.0303C9.76256 10.3232 10.2374 10.3232 10.5303 10.0303L11.25 9.31066V16.5C11.25 16.9142 11.5858 17.25 12 17.25C12.4142 17.25 12.75 16.9142 12.75 16.5V9.31066L13.4697 10.0303C13.7626 10.3232 14.2374 10.3232 14.5303 10.0303C14.8232 9.73744 14.8232 9.26256 14.5303 8.96967L12.5303 6.96967Z" fill="#363538"/>
</svg>
