<svg width="24" height="24" viewBox="0 0 24 24" fill="none" xmlns="http://www.w3.org/2000/svg">
<path d="M4.57178 4.58145L4.57853 4.57471C4.64965 4.50447 4.73131 4.45133 4.81839 4.41531C4.90682 4.37864 5.00378 4.3584 5.10547 4.3584H9.34811C9.76233 4.3584 10.0981 4.69418 10.0981 5.1084C10.0981 5.52261 9.76233 5.8584 9.34811 5.8584H6.91613L13.9015 12.8437H17.8334C18.0323 12.8437 18.223 12.9227 18.3637 13.0634L18.7172 13.4169C19.0101 13.7098 19.0101 14.1847 18.7172 14.4776C18.4243 14.7705 17.9495 14.7705 17.6566 14.4776L17.5227 14.3437H15.4014L16.0228 14.9651H19.9547C20.1536 14.9651 20.3443 15.0441 20.485 15.1847L21.5457 16.2454C21.8385 16.5383 21.8385 17.0132 21.5457 17.306C21.2528 17.5989 20.7779 17.5989 20.485 17.306L19.644 16.4651H16.462L16.462 19.647L17.303 20.488C17.5959 20.7809 17.5959 21.2558 17.303 21.5487C17.0101 21.8416 16.5352 21.8416 16.2423 21.5487L15.1817 20.488C15.041 20.3474 14.962 20.1566 14.962 19.9577L14.962 16.0256L14.3407 15.4043L14.3407 17.5257L14.4746 17.6596C14.7675 17.9525 14.7675 18.4274 14.4746 18.7202C14.1817 19.0131 13.7068 19.0131 13.4139 18.7202L13.0604 18.3667C12.9197 18.226 12.8407 18.0353 12.8407 17.8364L12.8407 13.9043L5.85547 6.91906L5.85547 9.35105C5.85547 9.76526 5.51968 10.101 5.10547 10.101C4.69125 10.101 4.35547 9.76526 4.35547 9.35104L4.35547 5.1084C4.35547 5.00671 4.37571 4.90974 4.41238 4.82131C4.44841 4.73424 4.50154 4.65257 4.57178 4.58145Z" fill="#363538"/>
</svg>
