<svg width="24" height="24" viewBox="0 0 24 24" fill="none" xmlns="http://www.w3.org/2000/svg">
<path d="M14.2119 11.0996C14.2119 9.65269 13.0114 8.45508 11.5 8.45508C9.98861 8.45508 8.78809 9.65269 8.78809 11.0996V12.5645C8.78809 13.7858 9.58751 14.7861 10.6738 15.1621C11.7235 15.5254 12.978 15.2372 14.2119 14.6826V11.0996ZM15.7119 14.7666C16.82 15.3863 18.25 14.5981 18.25 13.3203V10.9443C18.2498 7.5371 15.4292 4.75019 11.9189 4.75H11.5C7.75823 4.75 4.75 7.72123 4.75 11.3555V12C4.75001 16.0597 8.16434 19.3487 12.3398 19.248C13.7864 19.2131 15.3547 18.8194 16.7949 18.1338C17.1689 17.9557 17.6169 18.1143 17.7949 18.4883C17.9728 18.8622 17.8134 19.3093 17.4395 19.4873C15.8299 20.2535 14.0555 20.7065 12.376 20.7471C7.38685 20.8673 3.25001 16.9307 3.25 12V11.3555C3.25 6.86537 6.9575 3.25 11.5 3.25H11.9189C16.23 3.2502 19.7498 6.68124 19.75 10.9443V13.3203C19.75 15.8616 16.9361 17.2623 14.8848 16.0225C13.5147 16.6472 11.7956 17.1379 10.1836 16.5801C8.54773 16.0139 7.28809 14.4813 7.28809 12.5645V11.0996C7.28809 8.79683 9.18788 6.95508 11.5 6.95508C13.8121 6.95508 15.7119 8.79683 15.7119 11.0996V14.7666Z" fill="#363538"/>
</svg>
