<svg width="24" height="24" viewBox="0 0 24 24" fill="none" xmlns="http://www.w3.org/2000/svg">
<path d="M18.7439 2.7084C18.4448 2.42187 17.9701 2.43207 17.6835 2.73118C17.397 3.0303 17.4072 3.50506 17.7063 3.7916C19.2749 5.29425 20.2502 7.4076 20.2502 9.75C20.2502 14.3064 16.5565 18 12.0002 18C9.14049 18 6.6202 16.5457 5.13896 14.3328C4.90855 13.9886 4.44272 13.8963 4.09851 14.1267C3.75429 14.3572 3.66204 14.823 3.89245 15.1672C5.5098 17.5834 8.1812 19.238 11.2502 19.4716V21H9.00008C8.58587 21 8.25008 21.3358 8.25008 21.75C8.25008 22.1642 8.58587 22.5 9.00008 22.5H15.0001C15.4143 22.5 15.7501 22.1642 15.7501 21.75C15.7501 21.3358 15.4143 21 15.0001 21H12.7502V19.4716C17.7845 19.0886 21.7502 14.8824 21.7502 9.75C21.7502 6.98193 20.5957 4.48224 18.7439 2.7084Z" fill="#363538"/>
<path fill-rule="evenodd" clip-rule="evenodd" d="M19.0001 9.75C19.0001 13.616 15.8661 16.75 12.0001 16.75C8.13409 16.75 5.00008 13.616 5.00008 9.75C5.00008 5.88401 8.13409 2.75 12.0001 2.75C15.8661 2.75 19.0001 5.88401 19.0001 9.75ZM10.5097 6.75C9.93508 6.75 9.44983 7.38868 9.17645 7.89986C9.05653 8.12408 9.01331 8.37876 9.0053 8.63291C8.98706 9.21189 8.98197 9.39651 9.61159 9.74565C10.3632 10.1624 10.4969 10.173 10.7962 10.173C11.0698 10.173 11.6106 10.5668 11.4078 11.2435C11.1084 12.242 11.7071 14.2391 12.6052 13.64C13.4986 13.044 13.7331 11.6471 13.8786 10.7806C13.9515 10.3463 14.002 10.0452 14.102 10.0452C14.2542 10.0452 14.4949 9.77181 14.7015 9.48557C14.9105 9.19596 15.0343 8.74777 14.7072 8.60445C14.6269 8.56927 14.5263 8.54739 14.4014 8.54739C14.0013 8.54739 13.5734 8.12939 13.3269 7.81711C13.2426 7.71024 13.2039 7.57606 13.2039 7.43992C13.2039 7.05889 12.895 6.75 12.514 6.75H10.5097Z" fill="#363538"/>
</svg>
