<svg width="24" height="24" viewBox="0 0 24 24" fill="none" xmlns="http://www.w3.org/2000/svg">
<path fill-rule="evenodd" clip-rule="evenodd" d="M14.4323 3.80327C14.7122 4.10861 14.6916 4.58303 14.3862 4.86293L5.88087 12.6595C4.32333 14.0872 4.31907 16.5414 5.87164 17.9745C7.27481 19.2697 9.44388 19.2485 10.8214 17.9261L18.8079 10.259C19.3919 9.69838 19.4366 8.77926 18.9098 8.16457C18.3311 7.48949 17.3002 7.4499 16.6715 8.07861L10.9097 13.8404C10.6169 14.1333 10.142 14.1333 9.84909 13.8404C9.5562 13.5475 9.5562 13.0726 9.84909 12.7797L15.6109 7.01795C16.8574 5.7714 18.9014 5.84989 20.0486 7.18839C21.0933 8.40714 21.0047 10.2295 19.8467 11.3411L11.8602 19.0081C9.91042 20.88 6.84029 20.91 4.85422 19.0767C2.65669 17.0482 2.66272 13.5746 4.86728 11.5538L13.3726 3.7572C13.678 3.4773 14.1524 3.49793 14.4323 3.80327Z" fill="#363538"/>
</svg>
