<svg width="24" height="24" viewBox="0 0 24 24" fill="none" xmlns="http://www.w3.org/2000/svg">
<path fill-rule="evenodd" clip-rule="evenodd" d="M12 22C6.47715 22 2 17.5228 2 12C2 6.47715 6.47715 2 12 2C17.5228 2 22 6.47715 22 12C22 17.5228 17.5228 22 12 22ZM12.658 14.6429L14.4724 15.8658C15.7665 16.7381 17.5 15.8001 17.5 14.2276V9.77202C17.5 8.19946 15.7665 7.2615 14.4724 8.13379L12.658 9.3567C12.6649 9.38983 12.6709 9.42334 12.6762 9.45724C12.4639 8.07911 10.8776 7.32143 9.67238 8.13379L6.36719 10.3616C5.21095 11.1409 5.21095 12.8587 6.36719 13.638L9.67238 15.8658C10.848 16.6582 12.3861 15.9568 12.658 14.6429Z" fill="#363538"/>
</svg>
