<svg width="24" height="24" viewBox="0 0 24 24" fill="none" xmlns="http://www.w3.org/2000/svg">
<path fill-rule="evenodd" clip-rule="evenodd" d="M10.1599 4C9.00646 4 7.90916 4.49792 7.14961 5.36598L3.64961 9.36598C2.33002 10.8741 2.33001 13.1259 3.6496 14.634L7.14961 18.634C7.90916 19.5021 9.00646 20 10.1599 20H17.3448C19.554 20 21.3448 18.2091 21.3448 16V8C21.3448 5.79086 19.554 4 17.3448 4H10.1599ZM11.8751 9.46967C11.5822 9.17678 11.1073 9.17678 10.8144 9.46967C10.5215 9.76256 10.5215 10.2374 10.8144 10.5303L12.2841 12L10.8144 13.4697C10.5215 13.7626 10.5215 14.2374 10.8144 14.5303C11.1073 14.8232 11.5822 14.8232 11.8751 14.5303L13.3447 13.0607L14.8144 14.5303C15.1073 14.8232 15.5822 14.8232 15.8751 14.5303C16.1679 14.2374 16.1679 13.7626 15.8751 13.4697L14.4054 12L15.8751 10.5303C16.1679 10.2374 16.1679 9.76256 15.8751 9.46967C15.5822 9.17678 15.1073 9.17678 14.8144 9.46967L13.3447 10.9393L11.8751 9.46967Z" fill="#363538"/>
</svg>
