<svg width="24" height="24" viewBox="0 0 24 24" fill="none" xmlns="http://www.w3.org/2000/svg">
<path fill-rule="evenodd" clip-rule="evenodd" d="M3.57003 9.54995L6.33479 4.94202C7.05768 3.7372 8.35971 3 9.76476 3H14.2352C15.6403 3 16.9423 3.7372 17.6652 4.94202L20.43 9.54995C20.803 10.1716 21 10.883 21 11.6079V17C21 19.2091 19.2091 21 17 21H7C4.79086 21 3 19.2091 3 17V11.6079C3 10.883 3.19703 10.1716 3.57003 9.54995ZM10.3991 10H13.6011C15.126 10 16.09 8.36178 15.3494 7.02871C14.9966 6.39378 14.3274 6 13.6011 6H10.3991C9.67278 6 9.00354 6.39378 8.6508 7.02871C7.91021 8.36178 8.87415 10 10.3991 10Z" fill="#363538"/>
</svg>
