<svg width="24" height="24" viewBox="0 0 24 24" fill="none" xmlns="http://www.w3.org/2000/svg">
<path fill-rule="evenodd" clip-rule="evenodd" d="M12 2.25C14.6234 2.25 16.75 4.37665 16.75 7V7.5C16.75 7.6007 16.7294 7.69644 16.6934 7.78418C18.0903 7.97676 19.2335 9.04492 19.4893 10.4658L20.5293 16.248C20.9044 18.3332 19.3022 20.2499 17.1836 20.25H6.81641C4.6978 20.2498 3.09558 18.3332 3.47071 16.248L4.51172 10.4658C4.76742 9.04526 5.90938 7.97714 7.30567 7.78418C7.26976 7.69654 7.25001 7.60057 7.25001 7.5V7C7.25001 4.37665 9.37666 2.25 12 2.25ZM16.2256 11.4893C15.0325 10.2023 13.5742 11.7568 12.9941 12.6953C12.9813 12.6902 12.4906 12.4941 12 12.4941C11.5081 12.4942 11.0161 12.6912 11.0059 12.6953C10.4258 11.7568 8.96746 10.2023 7.77442 11.4893C7.38759 12.011 7.4676 12.5889 7.66212 13.0039C7.79717 13.292 7.79717 13.708 7.66212 13.9961C7.4676 14.4111 7.38759 14.989 7.77442 15.5107C8.96746 16.7977 10.4258 15.2432 11.0059 14.3047C11.0161 14.3088 11.5081 14.5059 12 14.5059C12.4905 14.5058 12.9813 14.3099 12.9941 14.3047C13.5742 15.2432 15.0325 16.7977 16.2256 15.5107C16.6124 14.989 16.5324 14.4111 16.3379 13.9961C16.2028 13.708 16.2028 13.292 16.3379 13.0039C16.5324 12.5889 16.6124 12.011 16.2256 11.4893ZM12 3.75C10.2051 3.75 8.75001 5.20508 8.75001 7V7.5C8.75001 7.58804 8.73198 7.67152 8.70411 7.75H15.2959C15.268 7.67152 15.25 7.58804 15.25 7.5V7C15.25 5.20507 13.7949 3.75 12 3.75Z" fill="#363538"/>
</svg>
