<svg width="24" height="24" viewBox="0 0 24 24" fill="none" xmlns="http://www.w3.org/2000/svg">
<path fill-rule="evenodd" clip-rule="evenodd" d="M7.25038 7.02763C7.25005 7.01846 7.24988 7.00925 7.24988 7C7.24988 4.37665 9.37653 2.25 11.9999 2.25C14.6232 2.25 16.7499 4.37665 16.7499 7C16.7499 7.00925 16.7497 7.01846 16.7494 7.02763C18.4962 7.23363 19.9283 8.5707 20.2236 10.3424L21.2236 16.3424C21.6299 18.7805 19.7498 21 17.278 21H6.72169C4.24994 21 2.36976 18.7805 2.77612 16.3424L3.77612 10.3424C4.07141 8.57068 5.50354 7.2336 7.25038 7.02763ZM8.74988 7C8.74988 5.20507 10.205 3.75 11.9999 3.75C13.7948 3.75 15.2499 5.20507 15.2499 7H8.74988Z" fill="#363538"/>
</svg>
