<svg width="24" height="24" viewBox="0 0 24 24" fill="none" xmlns="http://www.w3.org/2000/svg">
<path d="M7.99976 5.41643V6.84959C8.15438 6.83041 8.31351 6.82914 8.47461 6.84759L8.81536 6.88663C9.39144 6.95262 9.9678 6.76535 10.3951 6.37335L10.6478 6.14148C11.4126 5.43978 12.5871 5.43978 13.352 6.14148L13.6047 6.37335C14.032 6.76535 14.6083 6.95262 15.1844 6.88663L15.5252 6.84759C15.6862 6.82915 15.8452 6.83041 15.9998 6.84956V5.41643C15.9998 3.84681 14.3479 2.82593 12.944 3.52788C12.3496 3.8251 11.6499 3.8251 11.0555 3.52788C9.65157 2.82593 7.99976 3.84681 7.99976 5.41643Z" fill="#363538"/>
<path fill-rule="evenodd" clip-rule="evenodd" d="M10.6625 7.22676C11.4189 6.53281 12.5804 6.53281 13.3368 7.22676C13.7593 7.61443 14.3293 7.79964 14.8991 7.73437C15.9189 7.61754 16.8586 8.30028 17.0626 9.30629C17.1766 9.86829 17.5289 10.3532 18.0282 10.6352C18.9219 11.1401 19.2808 12.2448 18.8546 13.1786C18.6164 13.7003 18.6164 14.2996 18.8546 14.8213C19.2808 15.7551 18.9219 16.8598 18.0282 17.3647C17.5289 17.6468 17.1766 18.1317 17.0626 18.6937C16.8586 19.6997 15.9189 20.3824 14.8991 20.2656C14.3293 20.2003 13.7593 20.3855 13.3368 20.7732C12.5804 21.4671 11.4189 21.4671 10.6625 20.7732C10.2399 20.3855 9.66994 20.2003 9.10023 20.2656C8.08041 20.3824 7.1407 19.6997 6.93667 18.6937C6.82269 18.1317 6.47041 17.6468 5.97114 17.3647C5.07742 16.8598 4.71848 15.7551 5.14473 14.8213C5.38286 14.2996 5.38286 13.7003 5.14473 13.1786C4.71848 12.2448 5.07742 11.1401 5.97114 10.6352C6.47041 10.3532 6.82269 9.86829 6.93667 9.30629C7.1407 8.30028 8.08041 7.61754 9.10023 7.73437C9.66994 7.79964 10.2399 7.61443 10.6625 7.22676ZM13.0384 11C13.1488 11 13.2384 11.0895 13.2384 11.2V16.6182C13.2384 16.7286 13.1488 16.8182 13.0384 16.8182H12.035C11.9245 16.8182 11.835 16.7286 11.835 16.6182V12.3391C11.835 12.3244 11.8231 12.3125 11.8084 12.3125C11.8035 12.3125 11.7987 12.3138 11.7945 12.3164L10.8041 12.9219C10.6708 13.0034 10.4998 12.9074 10.4998 12.7512V12.0032C10.4998 11.9341 10.5354 11.8698 10.5941 11.8333L11.8859 11.0301C11.9176 11.0104 11.9542 11 11.9915 11H13.0384Z" fill="#363538"/>
</svg>
