<svg width="24" height="24" viewBox="0 0 24 24" fill="none" xmlns="http://www.w3.org/2000/svg">
<path d="M2.01172 12.4902C2.13498 15.0435 3.21583 17.3455 4.90287 19.0449C4.93166 19.0143 4.96169 18.9819 4.99286 18.9478C5.2972 18.6145 5.70683 18.1174 6.1171 17.4727C6.8003 16.3991 7.47669 14.9303 7.68483 13.1312C6.00402 13.0339 4.64124 12.889 3.58487 12.7433C2.9509 12.6559 2.42735 12.5681 2.01172 12.4902Z" fill="#363538"/>
<path d="M6.03691 20.0283C7.44277 21.0742 9.13275 21.7596 10.97 21.9475C11.0532 21.5279 11.1548 20.9503 11.2569 20.2104C11.4737 18.6383 11.6926 16.3326 11.7403 13.25C10.8301 13.2472 9.97908 13.2298 9.18634 13.2013C8.96055 15.3238 8.16805 17.0437 7.38259 18.278C6.91787 19.0083 6.4525 19.5738 6.10059 19.9592C6.07893 19.9829 6.0577 20.006 6.03691 20.0283Z" fill="#363538"/>
<path d="M12.4898 21.9881C14.5357 21.8895 16.4203 21.176 17.9628 20.0284C17.942 20.006 17.9208 19.9829 17.8991 19.9592C17.5472 19.5738 17.0818 19.0083 16.6171 18.278C15.8316 17.0437 15.0392 15.3238 14.8134 13.2013C14.3124 13.2193 13.7883 13.2329 13.2406 13.2411C13.193 16.3992 12.9689 18.7762 12.7428 20.4153C12.6554 21.0491 12.5677 21.5726 12.4898 21.9881Z" fill="#363538"/>
<path d="M19.0969 19.045C20.784 17.3456 21.8648 15.0435 21.9881 12.4902C21.5724 12.5681 21.0489 12.6559 20.4148 12.7433C19.3584 12.889 17.9957 13.0339 16.3149 13.1312C16.523 14.9303 17.1994 16.3991 17.8826 17.4727C18.2929 18.1174 18.7025 18.6145 19.0068 18.9478C19.038 18.9819 19.0681 19.0144 19.0969 19.045Z" fill="#363538"/>
<path d="M21.9476 10.9704C21.7085 8.63313 20.6645 6.53418 19.0973 4.95529C19.0684 4.98606 19.0382 5.01862 19.0068 5.05294C18.7025 5.38626 18.2929 5.88331 17.8826 6.52802C17.1052 7.74961 16.3367 9.48285 16.2567 11.6321C17.8853 11.537 19.1992 11.3968 20.2099 11.2574C20.9501 11.1553 21.5279 11.0536 21.9476 10.9704Z" fill="#363538"/>
<path d="M17.9633 3.97184C16.4206 2.82404 14.5358 2.11039 12.4896 2.01172C12.5676 2.42743 12.6553 2.95115 12.7428 3.58539C12.9917 5.39017 13.2382 8.08931 13.2495 11.7408C13.7732 11.7327 14.2746 11.7196 14.7537 11.7025C14.8199 9.16169 15.7231 7.12762 16.6171 5.72271C17.0818 4.99242 17.5472 4.42696 17.8991 4.04154C17.9209 4.01762 17.9424 3.99439 17.9633 3.97184Z" fill="#363538"/>
<path d="M10.9698 2.05234C9.13244 2.24036 7.44235 2.92584 6.03644 3.9719C6.05738 3.99443 6.07877 4.01764 6.10059 4.04154C6.4525 4.42696 6.91787 4.99242 7.38259 5.72271C8.27663 7.12762 9.17979 9.16169 9.24597 11.7025C10.0219 11.7303 10.8561 11.7473 11.7495 11.75C11.7387 8.16156 11.4965 5.52789 11.2569 3.79034C11.1548 3.04989 11.053 2.47207 10.9698 2.05234Z" fill="#363538"/>
<path d="M4.90246 4.95535C3.33369 6.53582 2.28919 8.6374 2.05154 10.9775C2.05178 10.9751 2.05202 10.9728 2.05226 10.9704C2.47195 11.0536 3.04963 11.1553 3.78983 11.2574C4.80051 11.3968 6.11439 11.537 7.74301 11.6321C7.66303 9.48285 6.89447 7.74961 6.1171 6.52802C5.70683 5.88331 5.2972 5.38626 4.99286 5.05294C4.96154 5.01864 4.93137 4.98611 4.90246 4.95535Z" fill="#363538"/>
</svg>
