<svg width="24" height="24" viewBox="0 0 24 24" fill="none" xmlns="http://www.w3.org/2000/svg">
<path fill-rule="evenodd" clip-rule="evenodd" d="M6 7.22222C6 2.55556 9.75 1 12 1C14.25 1 18 2.55556 18 7.22222C18 11.1154 15.216 13.5651 13.1319 14.5713L13.5303 14.9697C13.7448 15.1842 13.809 15.5068 13.6929 15.787C13.5862 16.0447 13.3464 16.2199 13.0727 16.2465C13.098 16.5509 12.9825 16.8317 12.8948 17.0265C12.7576 17.3315 12.5179 17.7611 12.1431 18.3859C11.8711 18.8392 11.8586 19.2136 11.9423 19.5276C12.033 19.8682 12.2542 20.1936 12.5303 20.4697C12.8232 20.7626 12.8232 21.2374 12.5303 21.5303C12.2374 21.8232 11.7625 21.8232 11.4696 21.5303C11.0791 21.1398 10.6737 20.5928 10.4928 19.9138C10.3049 19.2082 10.3757 18.416 10.8568 17.6141C11.2107 17.0243 11.4068 16.6688 11.5094 16.4491C11.4654 16.3865 11.4271 16.3202 11.3945 16.25H11C10.6967 16.25 10.4232 16.0673 10.3071 15.787C10.191 15.5068 10.2552 15.1842 10.4697 14.9697L10.927 14.5123C8.83686 13.4274 6 11.1523 6 7.22222ZM10.5303 4.46967C10.8232 4.76256 10.8232 5.23744 10.5303 5.53033C10.4058 5.65484 10.1967 5.90394 10.0234 6.20197C9.8439 6.51066 9.75 6.79135 9.75 7C9.75 7.41421 9.41421 7.75 9 7.75C8.58579 7.75 8.25 7.41421 8.25 7C8.25 6.40865 8.48943 5.856 8.72662 5.44803C8.97001 5.0294 9.26085 4.67849 9.46967 4.46967C9.76256 4.17678 10.2374 4.17678 10.5303 4.46967Z" fill="#363538"/>
</svg>
