<svg width="24" height="24" viewBox="0 0 24 24" fill="none" xmlns="http://www.w3.org/2000/svg">
<path d="M12.25 3.51465C13.8121 1.95263 16.3451 1.95263 17.9072 3.51465L20.7354 6.34375C22.2973 7.90584 22.2973 10.4379 20.7354 12L20.3623 12.373C19.291 13.4444 17.5538 14.0373 16.3799 14.9951C16.1919 15.1485 15.9943 15.328 15.7861 15.5361C15.5779 15.7443 15.3985 15.9428 15.2451 16.1309C14.2875 17.3048 13.6943 19.0411 12.623 20.1123L12.25 20.4854C10.6879 22.0474 8.15585 22.0473 6.59375 20.4854L3.76465 17.6572C2.20261 16.0951 2.20258 13.5621 3.76465 12L4.1377 11.627C5.20903 10.5556 6.94618 9.96268 8.12012 9.00488C8.30809 8.85151 8.50669 8.673 8.71484 8.46484C8.92301 8.25668 9.10151 8.05809 9.25488 7.87012C10.2126 6.69626 10.8058 4.96002 11.877 3.88867L12.25 3.51465Z" fill="#363538"/>
<path d="M3.75 4.75C4.99264 4.75 6 5.75736 6 7C6 8.24264 4.99264 9.25 3.75 9.25C2.50736 9.25 1.5 8.24264 1.5 7C1.5 5.75736 2.50736 4.75 3.75 4.75Z" fill="#363538"/>
<path d="M7.25 1.25C8.2165 1.25 9 2.0335 9 3C9 3.9665 8.2165 4.75 7.25 4.75C6.2835 4.75 5.5 3.9665 5.5 3C5.5 2.0335 6.2835 1.25 7.25 1.25Z" fill="#363538"/>
</svg>
