<svg width="24" height="24" viewBox="0 0 24 24" fill="none" xmlns="http://www.w3.org/2000/svg">
<path d="M17.5 8.99994C18.0656 8.99994 18.5579 9.31304 18.8135 9.77533C18.8733 9.75999 18.9354 9.74994 19 9.74994H20C20.4142 9.74994 20.75 10.0857 20.75 10.4999C20.75 10.9141 20.4142 11.2499 20 11.2499H19C18.9977 11.2499 18.9954 11.249 18.9932 11.249C18.9072 13.7057 17.5569 15.8389 15.5713 17.0195C15.5837 17.0342 15.598 17.0475 15.6094 17.0634L15.6514 17.1279L17.0801 19.6279L17.1143 19.6962C17.2686 20.0436 17.1379 20.4586 16.8008 20.6513C16.4635 20.844 16.0393 20.746 15.8184 20.4365L15.7773 20.372L14.3486 17.872C14.3035 17.793 14.2769 17.7088 14.2627 17.624C13.5527 17.8664 12.7921 17.9999 12 17.9999C11.2076 17.9999 10.4465 17.8666 9.73633 17.624C9.72208 17.7087 9.69645 17.7931 9.65137 17.872L8.22266 20.372C8.01716 20.7316 7.55882 20.8567 7.19922 20.6513C6.83963 20.4458 6.71453 19.9875 6.91992 19.6279L8.34863 17.1279C8.37123 17.0883 8.39656 17.0513 8.4248 17.0175C6.44127 15.8365 5.09174 13.7041 5.00586 11.249L5 11.2499H4C3.58581 11.2499 3.25003 10.9141 3.25 10.4999C3.25 10.0857 3.58579 9.74994 4 9.74994H5C5.06424 9.74994 5.12604 9.76014 5.18555 9.77533C5.44104 9.31282 5.93422 8.99994 6.5 8.99994H17.5Z" fill="#363538"/>
<path d="M8.46973 2.96967C8.76262 2.67678 9.23738 2.67678 9.53027 2.96967C10.0737 3.51315 10.1577 4.36431 9.73145 5.00385L9.5166 5.32807C9.49446 5.36142 9.49172 5.40276 9.50781 5.43744L9.53027 5.46967L9.58203 5.52631C9.82231 5.82089 9.80487 6.25562 9.53027 6.53022C9.23739 6.82307 8.76261 6.82307 8.46973 6.53022C7.92626 5.98675 7.84232 5.13558 8.26855 4.49604L8.4834 4.17182C8.51303 4.12721 8.50759 4.0681 8.46973 4.03022C8.17684 3.73733 8.17686 3.26257 8.46973 2.96967Z" fill="#363538"/>
<path d="M11.4697 2.96967C11.7626 2.67678 12.2374 2.67678 12.5303 2.96967C13.0737 3.51315 13.1577 4.36431 12.7314 5.00385L12.5166 5.32807C12.4945 5.36142 12.4917 5.40276 12.5078 5.43744L12.5303 5.46967L12.582 5.52631C12.8223 5.82089 12.8049 6.25562 12.5303 6.53022C12.2374 6.82307 11.7626 6.82307 11.4697 6.53022C10.9263 5.98675 10.8423 5.13558 11.2686 4.49604L11.4834 4.17182C11.513 4.12721 11.5076 4.0681 11.4697 4.03022C11.1768 3.73733 11.1769 3.26257 11.4697 2.96967Z" fill="#363538"/>
<path d="M14.4697 2.96967C14.7626 2.67678 15.2374 2.67678 15.5303 2.96967C16.0737 3.51315 16.1577 4.36431 15.7314 5.00385L15.5166 5.32807C15.4945 5.36142 15.4917 5.40276 15.5078 5.43744L15.5303 5.46967L15.582 5.52631C15.8223 5.82089 15.8049 6.25562 15.5303 6.53022C15.2374 6.82307 14.7626 6.82307 14.4697 6.53022C13.9263 5.98675 13.8423 5.13558 14.2686 4.49604L14.4834 4.17182C14.513 4.12721 14.5076 4.0681 14.4697 4.03022C14.1768 3.73733 14.1769 3.26257 14.4697 2.96967Z" fill="#363538"/>
</svg>
