<svg width="24" height="24" viewBox="0 0 24 24" fill="none" xmlns="http://www.w3.org/2000/svg">
<path d="M18.3182 20.8052L18.1652 20.7152C17.7429 20.4669 17.4751 20.0214 17.4538 19.5319C17.4347 19.0936 17.2176 18.6876 16.8636 18.4284L12.4784 15.2178L15.3083 12.3879L18.4338 16.8477C18.6886 17.2112 19.0978 17.4355 19.5412 17.4548C20.0246 17.4758 20.4645 17.7402 20.7098 18.1572L20.8046 18.3183C21.214 19.0141 21.1013 19.8988 20.5304 20.4697L20.4694 20.5307C19.8986 21.1015 19.0141 21.2144 18.3182 20.8052Z" fill="#363538"/>
<path d="M11.2538 14.3212L6.30851 10.7005L3.66076 8.3312C2.21546 7.0379 2.15329 4.796 3.5247 3.42459C4.85789 2.0914 7.02431 2.10742 8.33765 3.46018L10.9047 6.1043L14.4343 11.1407L11.2538 14.3212Z" fill="#363538"/>
<path d="M6 21C7.65685 21 9 19.6569 9 18C9 16.3431 7.65685 15 6 15C4.34315 15 3 16.3431 3 18C3 19.6569 4.34315 21 6 21Z" fill="#363538"/>
</svg>
