<svg width="24" height="24" viewBox="0 0 24 24" fill="none" xmlns="http://www.w3.org/2000/svg">
<path fill-rule="evenodd" clip-rule="evenodd" d="M14.7997 4.00024C14.9904 3.82463 15.0646 3.58943 14.9351 3.34334C14.7754 3.04003 14.5414 2.76443 14.2464 2.53228C13.9514 2.30014 13.6012 2.11599 13.2158 1.99035C12.8303 1.86471 12.4172 1.80005 12 1.80005C11.5828 1.80005 11.1697 1.86471 10.7842 1.99035C10.3988 2.11599 10.0486 2.30014 9.75358 2.53228C9.45858 2.76443 9.22457 3.04003 9.06491 3.34334C8.93537 3.58943 9.00956 3.82463 9.20025 4.00024H9C6.79086 4.00024 5 5.79111 5 8.00024V18.0002C5 20.2094 6.79086 22.0002 9 22.0002H15C17.2091 22.0002 19 20.2094 19 18.0002V8.00024C19 5.79111 17.2091 4.00024 15 4.00024H14.7997ZM9 17.2502C8.58579 17.2502 8.25 17.586 8.25 18.0002C8.25 18.4145 8.58579 18.7502 9 18.7502H15C15.4142 18.7502 15.75 18.4145 15.75 18.0002C15.75 17.586 15.4142 17.2502 15 17.2502H9ZM8.25 15.0002C8.25 14.586 8.58579 14.2502 9 14.2502H15C15.4142 14.2502 15.75 14.586 15.75 15.0002C15.75 15.4145 15.4142 15.7502 15 15.7502H9C8.58579 15.7502 8.25 15.4145 8.25 15.0002ZM9 11.2502C8.58579 11.2502 8.25 11.586 8.25 12.0002C8.25 12.4145 8.58579 12.7502 9 12.7502H15C15.4142 12.7502 15.75 12.4145 15.75 12.0002C15.75 11.586 15.4142 11.2502 15 11.2502H9ZM8.25 9.00024C8.25 8.58603 8.58579 8.25024 9 8.25024H15C15.4142 8.25024 15.75 8.58603 15.75 9.00024C15.75 9.41446 15.4142 9.75024 15 9.75024H9C8.58579 9.75024 8.25 9.41446 8.25 9.00024Z" fill="#363538"/>
</svg>
