<svg width="24" height="24" viewBox="0 0 24 24" fill="none" xmlns="http://www.w3.org/2000/svg">
<path fill-rule="evenodd" clip-rule="evenodd" d="M14.8 4C14.9905 3.82441 15.0646 3.58932 14.9351 3.34334C14.7754 3.04003 14.5414 2.76443 14.2464 2.53228C13.9514 2.30014 13.6012 2.11599 13.2158 1.99035C12.8303 1.86471 12.4172 1.80005 12 1.80005C11.5828 1.80005 11.1697 1.86471 10.7842 1.99035C10.3988 2.11599 10.0486 2.30014 9.75358 2.53228C9.45858 2.76443 9.22457 3.04003 9.06491 3.34334C8.93543 3.58932 9.00949 3.82441 9.19999 4H9C6.79086 4 5 5.79086 5 8V18C5 20.2091 6.79086 22 9 22H15C17.2091 22 19 20.2091 19 18V8C19 5.79086 17.2091 4 15 4H14.8Z" fill="#363538"/>
</svg>
