<svg width="24" height="24" viewBox="0 0 24 24" fill="none" xmlns="http://www.w3.org/2000/svg">
<path fill-rule="evenodd" clip-rule="evenodd" d="M14.7997 4.00024C14.9904 3.82463 15.0646 3.58943 14.9351 3.34334C14.7754 3.04003 14.5414 2.76443 14.2464 2.53228C13.9514 2.30014 13.6012 2.11599 13.2158 1.99035C12.8303 1.86471 12.4172 1.80005 12 1.80005C11.5828 1.80005 11.1697 1.86471 10.7842 1.99035C10.3988 2.11599 10.0486 2.30014 9.75358 2.53228C9.45858 2.76443 9.22457 3.04003 9.06491 3.34334C8.93537 3.58943 9.00956 3.82463 9.20025 4.00024H9C6.79086 4.00024 5 5.79111 5 8.00024V18.0002C5 20.2094 6.79086 22.0002 9 22.0002H15C17.2091 22.0002 19 20.2094 19 18.0002V8.00024C19 5.79111 17.2091 4.00024 15 4.00024H14.7997ZM9.21712 13.5659L11.4317 9.13674C11.5733 8.8536 12 8.95434 12 9.27091V11.7001C12 11.8658 12.1343 12.0001 12.3 12.0001H14.5146C14.7376 12.0001 14.8827 12.2348 14.783 12.4343L12.5684 16.8634C12.4268 17.1466 12 17.0458 12 16.7293V14.3001C12 14.1344 11.8657 14.0001 11.7 14.0001H9.48545C9.26243 14.0001 9.11738 13.7654 9.21712 13.5659Z" fill="#363538"/>
</svg>
