<svg width="24" height="24" viewBox="0 0 24 24" fill="none" xmlns="http://www.w3.org/2000/svg">
<path fill-rule="evenodd" clip-rule="evenodd" d="M16 5C18.2091 5 20 6.79086 20 9V9.20006C20.1756 9.00951 20.4107 8.93542 20.6567 9.06491C20.96 9.22457 21.2356 9.45858 21.4678 9.75358C21.6999 10.0486 21.8841 10.3988 22.0097 10.7842C22.1354 11.1697 22.2 11.5828 22.2 12C22.2 12.4172 22.1354 12.8303 22.0097 13.2158C21.8841 13.6012 21.6999 13.9514 21.4678 14.2464C21.2356 14.5414 20.96 14.7754 20.6567 14.9351C20.4107 15.0646 20.1756 14.9905 20 14.7999V15C20 17.2091 18.2091 19 16 19H6C3.79086 19 2 17.2091 2 15V9C2 6.79086 3.79086 5 6 5H16ZM8.21712 12.5657L10.4317 8.1365C10.5733 7.85335 11 7.9541 11 8.27066V10.6998C11 10.8655 11.1343 10.9998 11.3 10.9998H13.5146C13.7376 10.9998 13.8827 11.2345 13.783 11.434L11.5684 15.8632C11.4268 16.1463 11 16.0456 11 15.729V13.2998C11 13.1342 10.8657 12.9998 10.7 12.9998H8.48545C8.26243 12.9998 8.11738 12.7652 8.21712 12.5657Z" fill="#363538"/>
</svg>
