<svg width="24" height="24" viewBox="0 0 24 24" fill="none" xmlns="http://www.w3.org/2000/svg">
<path fill-rule="evenodd" clip-rule="evenodd" d="M20 9C20 6.79086 18.2091 5 16 5H6C3.79086 5 2 6.79086 2 9V15C2 17.2091 3.79086 19 6 19H16C18.2091 19 20 17.2091 20 15V14.8C20.1756 14.9905 20.4107 15.0646 20.6567 14.9351C20.96 14.7754 21.2356 14.5414 21.4678 14.2464C21.6999 13.9514 21.8841 13.6012 22.0097 13.2158C22.1353 12.8303 22.2 12.4172 22.2 12C22.2 11.5828 22.1353 11.1697 22.0097 10.7842C21.8841 10.3988 21.6999 10.0486 21.4678 9.75358C21.2356 9.45858 20.96 9.22457 20.6567 9.06491C20.4107 8.93542 20.1756 9.0095 20 9.20005V9Z" fill="#363538"/>
</svg>
