<svg width="24" height="24" viewBox="0 0 24 24" fill="none" xmlns="http://www.w3.org/2000/svg">
<path fill-rule="evenodd" clip-rule="evenodd" d="M16 5C18.2091 5 20 6.79086 20 9V9.20005C20.1756 9.0095 20.4107 8.93542 20.6567 9.06491C20.96 9.22457 21.2356 9.45858 21.4678 9.75358C21.6999 10.0486 21.8841 10.3988 22.0097 10.7842C22.1353 11.1697 22.2 11.5828 22.2 12C22.2 12.4172 22.1353 12.8303 22.0097 13.2158C21.8841 13.6012 21.6999 13.9514 21.4678 14.2464C21.2356 14.5414 20.96 14.7754 20.6567 14.9351C20.4107 15.0646 20.1756 14.9905 20 14.7999V15C20 17.2091 18.2091 19 16 19H6C3.79086 19 2 17.2091 2 15V9C2 6.79086 3.79086 5 6 5H16ZM6 8.25C6.41421 8.25 6.75 8.58579 6.75 9L6.75 15C6.75 15.4142 6.41421 15.75 6 15.75C5.58579 15.75 5.25 15.4142 5.25 15L5.25 9C5.25 8.58579 5.58579 8.25 6 8.25ZM9.75 9C9.75 8.58579 9.41421 8.25 9 8.25C8.58579 8.25 8.25 8.58579 8.25 9L8.25 15C8.25 15.4142 8.58579 15.75 9 15.75C9.41421 15.75 9.75 15.4142 9.75 15L9.75 9ZM12 8.25C12.4142 8.25 12.75 8.58579 12.75 9V15C12.75 15.4142 12.4142 15.75 12 15.75C11.5858 15.75 11.25 15.4142 11.25 15V9C11.25 8.58579 11.5858 8.25 12 8.25Z" fill="#363538"/>
</svg>
