<svg width="24" height="24" viewBox="0 0 24 24" fill="none" xmlns="http://www.w3.org/2000/svg">
<path fill-rule="evenodd" clip-rule="evenodd" d="M6.26553 21H15.7344C16.9374 21 17.8682 19.9456 17.719 18.7519L17.6543 18.2349C17.6918 18.2182 17.7283 18.1984 17.7632 18.1753C17.8264 18.1659 17.8947 18.161 17.9978 18.1535C18.0458 18.15 18.1013 18.146 18.1674 18.1407C18.5398 18.111 19.0972 18.0498 19.6507 17.7434C20.8333 17.0888 21.6 15.5793 21.6 12.5001C21.6 10.9486 21.4076 9.79306 21.0678 8.96034C20.725 8.12019 20.2038 7.55012 19.5345 7.31666C18.8737 7.08616 18.225 7.23898 17.7369 7.51667C17.6795 7.54934 17.6231 7.58438 17.5679 7.62162C17.58 7.52984 17.5936 7.43826 17.6088 7.34691L17.8059 6.1644C17.9075 5.55487 17.4374 5 16.8195 5H5.18042C4.56248 5 4.09244 5.55487 4.19403 6.1644L4.39111 7.34691C4.46356 7.78156 4.49996 8.22145 4.49996 8.6621V17L4.28097 18.7519C4.13176 19.9456 5.06253 21 6.26553 21ZM17.5 9.73494V16.6982C17.5107 16.6965 17.5209 16.6949 17.5304 16.6934C17.6593 16.6737 17.8169 16.6623 17.9461 16.6531C17.9828 16.6504 18.0174 16.6479 18.0482 16.6455C18.3789 16.6191 18.6653 16.5744 18.9243 16.431C19.3666 16.1861 20.1 15.4211 20.1 12.5001C20.1 11.0515 19.9173 10.1111 19.679 9.52706C19.4437 8.95045 19.1836 8.78291 19.0405 8.73297C18.8888 8.68007 18.6937 8.69806 18.4787 8.82042C18.2551 8.94762 18.1016 9.13843 18.0476 9.27528C17.951 9.52012 17.7399 9.68574 17.5 9.73494ZM17.7122 18.1855C17.7119 18.1854 17.7156 18.1841 17.7242 18.1822C17.7168 18.1847 17.7125 18.1857 17.7122 18.1855Z" fill="#363538"/>
</svg>
