<svg width="24" height="24" viewBox="0 0 24 24" fill="none" xmlns="http://www.w3.org/2000/svg">
<path d="M5 9C5.83934 9 6.55793 8.48296 6.85462 7.75H9.07738C5.68201 8.95287 3.25 12.1924 3.25 16V17C3.25 17.4142 3.58579 17.75 4 17.75C4.41421 17.75 4.75 17.4142 4.75 17V16C4.75 12.6514 7.02027 9.83295 10.1056 9H13.8944C16.9797 9.83295 19.25 12.6514 19.25 16V17C19.25 17.4142 19.5858 17.75 20 17.75C20.4142 17.75 20.75 17.4142 20.75 17V16C20.75 12.1924 18.318 8.95287 14.9226 7.75H18C18.0479 7.75 18.0947 7.74551 18.1401 7.73693C18.4336 8.4768 19.1557 9 20 9C21.1046 9 22 8.10457 22 7C22 5.89543 21.1046 5 20 5C19.1557 5 18.4336 5.5232 18.1401 6.26307C18.0947 6.25449 18.0479 6.25 18 6.25H14V5H10V6.25H6.85462C6.55793 5.51704 5.83934 5 5 5C3.89543 5 3 5.89543 3 7C3 8.10457 3.89543 9 5 9Z" fill="#363538"/>
</svg>
