<svg width="24" height="24" viewBox="0 0 24 24" fill="none" xmlns="http://www.w3.org/2000/svg">
<path fill-rule="evenodd" clip-rule="evenodd" d="M11.75 5C11.75 4.58579 12.0858 4.25 12.5 4.25H15C15.3473 4.25 15.6492 4.48843 15.7296 4.82628L17.2019 11.0097C17.3004 11.0033 17.3998 11 17.5 11C18.7588 11 19.8969 11.5169 20.7136 12.35C21.5094 13.1617 22 14.2735 22 15.5C22 17.9853 19.9853 20 17.5 20C15.0147 20 13 17.9853 13 15.5C13 13.6383 14.1305 12.0407 15.7424 11.3562L15.2878 9.44669L8.51908 11.4773C8.9647 11.7014 9.36796 11.9974 9.71364 12.35C10.5094 13.1617 11 14.2735 11 15.5C11 17.9853 8.98528 20 6.5 20C4.01472 20 2 17.9853 2 15.5C2 13.0147 4.01472 11 6.5 11C6.57728 11 6.6541 11.0019 6.73042 11.0058L6.76786 10.8373C6.82677 10.5722 7.02438 10.3597 7.28449 10.2816L14.9398 7.98505L14.4076 5.75H12.5C12.0858 5.75 11.75 5.41421 11.75 5ZM16.0975 12.8474C15.1473 13.3508 14.5 14.3498 14.5 15.5C14.5 17.1569 15.8431 18.5 17.5 18.5C19.1569 18.5 20.5 17.1569 20.5 15.5C20.5 14.6818 20.1745 13.9427 19.6425 13.4001C19.1086 12.8555 18.3736 12.5156 17.5568 12.5005L18.2296 15.3263C18.3255 15.7292 18.0767 16.1337 17.6737 16.2296C17.2708 16.3255 16.8663 16.0767 16.7704 15.6737L16.0975 12.8474ZM5.76786 15.3373L6.39799 12.5017C4.78837 12.5555 3.5 13.8773 3.5 15.5C3.5 17.1569 4.84315 18.5 6.5 18.5C8.15685 18.5 9.5 17.1569 9.5 15.5C9.5 14.6818 9.17448 13.9427 8.6425 13.4001C8.41573 13.1687 8.15268 12.9744 7.86249 12.8261L7.23214 15.6627C7.14228 16.067 6.74165 16.322 6.3373 16.2321C5.93295 16.1423 5.678 15.7417 5.76786 15.3373Z" fill="#363538"/>
<path d="M5.27239 7.8181C5.37285 7.41625 5.78006 7.17193 6.1819 7.27239L8.1819 7.77239C8.58375 7.87285 8.82807 8.28006 8.72761 8.6819C8.62715 9.08375 8.21994 9.32807 7.8181 9.22761L5.8181 8.72761C5.41625 8.62715 5.17193 8.21994 5.27239 7.8181Z" fill="#363538"/>
</svg>
