<svg width="24" height="24" viewBox="0 0 24 24" fill="none" xmlns="http://www.w3.org/2000/svg">
<path d="M15.5001 16C15.7762 16 16 16.2239 16.0001 16.5C16.0001 16.5713 16.0001 16.6442 16.0001 16.7393C16.0001 16.9328 15.8868 17.1074 15.7169 17.2002C14.0664 18.1019 13.1489 19.7234 12.6388 20.7246C12.5528 20.8932 12.3807 20.9999 12.1915 21H11.8097C11.6203 21 11.4474 20.8933 11.3614 20.7246C10.8512 19.7234 9.93383 18.1019 8.28329 17.2002C8.11347 17.1074 8.00014 16.9328 8.00009 16.7393C8.00007 16.6442 8.0001 16.5714 8.00009 16.5C8.00005 16.224 8.22404 16 8.50009 16H15.5001Z" fill="#363538"/>
<path d="M16.9142 2.75C17.3284 2.75 17.6642 3.08579 17.6642 3.5V6.15332C18.494 6.76539 18.8705 8.17431 18.4142 10C17.6988 12.8608 12.4342 10.8755 11.9991 8.98145C11.5628 10.8754 6.29542 12.8607 5.58017 10C5.12387 8.1744 5.50044 6.76543 6.33017 6.15332V3.5C6.33017 3.08585 6.66604 2.7501 7.08017 2.75C7.49426 2.75014 7.83017 3.08587 7.83017 3.5V5.93652C9.46602 6.15224 11.6915 7.26565 12.0001 8.5C12.3087 7.26577 14.5295 6.15239 16.1642 5.93652V3.5C16.1642 3.08592 16.5001 2.75022 16.9142 2.75Z" fill="#363538"/>
</svg>
