<svg width="24" height="24" viewBox="0 0 24 24" fill="none" xmlns="http://www.w3.org/2000/svg">
<path d="M6.35328 7.64415L11.6464 2.35104C11.8417 2.15577 12.1582 2.15577 12.3535 2.35104L17.6466 7.64415C17.8418 7.83932 17.8419 8.15574 17.6468 8.35104L16.3535 9.64594C16.1583 9.84141 15.8415 9.8415 15.6462 9.64616L12.3535 6.35348C12.1582 6.15822 11.8417 6.15822 11.6464 6.35348L8.35371 9.64616C8.15837 9.8415 7.84162 9.84141 7.64639 9.64594L6.35306 8.35104C6.15801 8.15574 6.1581 7.83932 6.35328 7.64415Z" fill="#363538"/>
<path d="M3.84637 10.1534L2.35348 11.6463C2.15822 11.8415 2.15822 12.1581 2.35348 12.3534L3.84637 13.8463C4.04163 14.0415 4.35822 14.0415 4.55348 13.8463L6.04637 12.3534C6.24163 12.1581 6.24163 11.8415 6.04637 11.6463L4.55348 10.1534C4.35822 9.9581 4.04163 9.9581 3.84637 10.1534Z" fill="#363538"/>
<path d="M19.4465 10.1534L17.9536 11.6463C17.7583 11.8415 17.7583 12.1581 17.9536 12.3534L19.4465 13.8463C19.6417 14.0415 19.9583 14.0415 20.1536 13.8463L21.6465 12.3534C21.8417 12.1581 21.8417 11.8415 21.6465 11.6463L20.1536 10.1534C19.9583 9.9581 19.6417 9.9581 19.4465 10.1534Z" fill="#363538"/>
<path d="M10.1535 11.6463L11.6464 10.1534C11.8417 9.9581 12.1583 9.9581 12.3535 10.1534L13.8464 11.6463C14.0417 11.8415 14.0417 12.1581 13.8464 12.3534L12.3535 13.8463C12.1583 14.0415 11.8417 14.0415 11.6464 13.8463L10.1535 12.3534C9.95826 12.1581 9.95826 11.8415 10.1535 11.6463Z" fill="#363538"/>
<path d="M11.6464 21.6465L6.35328 16.3534C6.1581 16.1582 6.15801 15.8418 6.35306 15.6465L7.64628 14.3517C7.84155 14.1562 8.15838 14.1562 8.35371 14.3516L11.6463 17.6462C11.8416 17.8416 12.1583 17.8416 12.3536 17.6462L15.6462 14.3516C15.8415 14.1562 16.1583 14.1562 16.3536 14.3517L17.6468 15.6465C17.8419 15.8418 17.8418 16.1582 17.6466 16.3534L12.3535 21.6465C12.1582 21.8418 11.8417 21.8418 11.6464 21.6465Z" fill="#363538"/>
</svg>
