<svg width="24" height="24" viewBox="0 0 24 24" fill="none" xmlns="http://www.w3.org/2000/svg">
<path fill-rule="evenodd" clip-rule="evenodd" d="M9.42857 2.25C9.84279 2.25 10.1786 2.58579 10.1786 3V3.67105H12.1071V3C12.1071 2.58579 12.4429 2.25 12.8571 2.25C13.2714 2.25 13.6071 2.58579 13.6071 3V3.73817C15.557 4.09154 17.0357 5.79789 17.0357 7.84962V8.21053C17.0357 9.49522 16.502 10.6553 15.6443 11.4811C17.4488 12.0813 18.75 13.7834 18.75 15.7895C18.75 18.2966 16.7176 20.3289 14.2105 20.3289H13.6071V21C13.6071 21.4142 13.2714 21.75 12.8571 21.75C12.4429 21.75 12.1071 21.4142 12.1071 21V20.3289H10.1786V21C10.1786 21.4142 9.84279 21.75 9.42857 21.75C9.01436 21.75 8.67857 21.4142 8.67857 21V20.3289H6C5.58579 20.3289 5.25 19.9932 5.25 19.5789C5.25 19.1647 5.58579 18.8289 6 18.8289H6.10714V5.17105H6C5.58579 5.17105 5.25 4.83527 5.25 4.42105C5.25 4.00684 5.58579 3.67105 6 3.67105H8.67857V3C8.67857 2.58579 9.01436 2.25 9.42857 2.25ZM7.60714 5.17105V11.25H12.4962C14.1749 11.25 15.5357 9.88918 15.5357 8.21053V7.84962C15.5357 6.37029 14.3365 5.17105 12.8571 5.17105H7.60714ZM7.60714 12.75V18.8289H14.2105C15.8892 18.8289 17.25 17.4681 17.25 15.7895C17.25 14.1108 15.8892 12.75 14.2105 12.75H7.60714Z" fill="#363538"/>
</svg>
