<svg width="24" height="24" viewBox="0 0 24 24" fill="none" xmlns="http://www.w3.org/2000/svg">
<path d="M15.9392 15.9269C18.8068 15.4761 21 12.9942 21 10C21 6.68629 18.3138 4 15 4C12.3846 4 10.16 5.67346 9.33862 8.00804C13.0474 8.18467 16 11.2475 16 15C16 15.3142 15.9793 15.6236 15.9392 15.9269Z" fill="#363538"/>
<path d="M8.03571 14.25V13.2237H9.28571C9.50268 13.2237 9.67857 13.3996 9.67857 13.6165V13.7368C9.67857 14.0203 9.44882 14.25 9.16541 14.25H8.03571Z" fill="#363538"/>
<path d="M8.03571 15.75V16.7763H9.73684C10.0203 16.7763 10.25 16.5466 10.25 16.2632C10.25 15.9797 10.0203 15.75 9.73684 15.75H8.03571Z" fill="#363538"/>
<path fill-rule="evenodd" clip-rule="evenodd" d="M9 21C12.3137 21 15 18.3137 15 15C15 11.6863 12.3137 9 9 9C5.68629 9 3 11.6863 3 15C3 18.3137 5.68629 21 9 21ZM11.1786 13.6165C11.1786 12.8335 10.7031 12.1615 10.0251 11.8735C9.96498 11.5195 9.65683 11.25 9.28571 11.25C9.05681 11.25 8.85185 11.3525 8.71429 11.5142C8.57672 11.3525 8.37176 11.25 8.14286 11.25C7.82622 11.25 7.55542 11.4462 7.4454 11.7237H7C6.58579 11.7237 6.25 12.0595 6.25 12.4737C6.25 12.7126 6.3617 12.9254 6.53571 13.0627V16.9373C6.3617 17.0746 6.25 17.2874 6.25 17.5263C6.25 17.9405 6.58579 18.2763 7 18.2763H7.4454C7.55542 18.5538 7.82622 18.75 8.14286 18.75C8.37176 18.75 8.57672 18.6475 8.71429 18.4858C8.85185 18.6475 9.05681 18.75 9.28571 18.75C9.60827 18.75 9.88327 18.5464 9.98918 18.2607C10.9819 18.1365 11.75 17.2895 11.75 16.2632C11.75 15.6091 11.4381 15.0278 10.9548 14.6601C11.0978 14.3836 11.1786 14.0696 11.1786 13.7368V13.6165Z" fill="#363538"/>
</svg>
