<svg width="24" height="24" viewBox="0 0 24 24" fill="none" xmlns="http://www.w3.org/2000/svg">
<path fill-rule="evenodd" clip-rule="evenodd" d="M13.0004 1.75C13.9668 1.75018 14.7504 2.53361 14.7504 3.5V4.5H16.7895C17.4174 4.50001 17.8902 5.07192 17.7719 5.68848L17.2797 8.25H18.0004C18.9668 8.25018 19.7504 9.03361 19.7504 10V12C19.7504 12.9664 18.9668 13.7498 18.0004 13.75H16.3657C16.3173 13.75 16.2699 13.7441 16.2241 13.7354L15.5004 17.5H16.0004C16.5526 17.5002 17.0004 17.9478 17.0004 18.5V20.25C17.0004 20.8022 16.5526 21.2498 16.0004 21.25H8.00044C7.44815 21.25 7.00044 20.8023 7.00044 20.25V18.5C7.00044 17.9477 7.44815 17.5 8.00044 17.5H8.50044L6.22895 5.68848C6.1106 5.07198 6.58265 4.50021 7.2104 4.5H9.25044V3.5C9.25044 2.5335 10.0339 1.75 11.0004 1.75H13.0004ZM16.5102 12.25H18.0004C18.1384 12.2498 18.2504 12.138 18.2504 12V10C18.2504 9.86204 18.1384 9.75018 18.0004 9.75H17.1352C17.0868 9.75 17.0394 9.7441 16.9936 9.73535L16.5102 12.25ZM11.0004 3.25C10.8624 3.25 10.7504 3.36193 10.7504 3.5V4.5H13.2504V3.5C13.2504 3.36204 13.1384 3.25018 13.0004 3.25H11.0004Z" fill="#363538"/>
</svg>
