<svg width="24" height="24" viewBox="0 0 24 24" fill="none" xmlns="http://www.w3.org/2000/svg">
<path d="M13.5308 2.63358C12.5506 2.22761 11.4494 2.22761 10.4693 2.63358L6.45969 4.29441C5.47957 4.70039 4.70088 5.47909 4.2949 6.4592L2.63407 10.4688C2.2281 11.4489 2.2281 12.5502 2.63407 13.5303L4.2949 17.5399C4.39992 17.7934 4.52987 18.0334 4.6818 18.2571L18.2575 4.68131C18.0339 4.52938 17.7939 4.39943 17.5404 4.29441L13.5308 2.63358Z" fill="#363538"/>
<path d="M19.3182 5.74196L5.74245 19.3177C5.96607 19.4697 6.20614 19.5996 6.45969 19.7047L10.4693 21.3655C11.4494 21.7715 12.5506 21.7715 13.5308 21.3655L17.5404 19.7047C18.5205 19.2987 19.2992 18.52 19.7051 17.5399L21.366 13.5303C21.7719 12.5502 21.7719 11.4489 21.366 10.4688L19.7051 6.4592C19.6001 6.20565 19.4702 5.96559 19.3182 5.74196Z" fill="#363538"/>
</svg>
