<svg width="24" height="24" viewBox="0 0 24 24" fill="none" xmlns="http://www.w3.org/2000/svg">
<path d="M12.9083 3.78127C11.7421 3.07319 10.2501 3.91278 10.2501 5.27714V10.5219L6.3976 8.11412C6.04635 7.89459 5.58363 8.00137 5.3641 8.35262C5.14457 8.70387 5.25135 9.16659 5.6026 9.38612L9.785 12.0001L5.6026 14.6141C5.25135 14.8337 5.14457 15.2964 5.3641 15.6476C5.58363 15.9989 6.04635 16.1057 6.3976 15.8861L10.2501 13.4783V18.7231C10.2501 20.0875 11.7421 20.927 12.9083 20.219L17.0018 17.7337C18.1157 17.0574 18.1261 15.4444 17.0211 14.7538L12.6152 12.0001L17.0211 9.24646C18.1261 8.5558 18.1157 6.94288 17.0018 6.26658L12.9083 3.78127Z" fill="#363538"/>
</svg>
