<svg width="24" height="24" viewBox="0 0 24 24" fill="none" xmlns="http://www.w3.org/2000/svg">
<path d="M20.7428 19.1879C21.0864 19.5844 21.065 20.1792 20.694 20.5502L20.6208 20.6234C20.2401 21.0041 19.6261 21.0156 19.2321 20.6488L10.7799 12.7787L13.1413 10.4174L20.7428 19.1879Z" fill="#363538"/>
<path d="M8.56119 3.01114C9.4771 2.80801 10.2861 3.41422 10.7057 4.25332L12.2233 7.28946C12.6081 8.05937 12.4569 8.98942 11.8483 9.59805L9.6442 11.8022C9.03547 12.4105 8.1054 12.5611 7.3356 12.1762L4.30045 10.6586C3.46131 10.239 2.85513 9.43 3.05826 8.51407C3.26225 7.59449 3.7897 6.3422 5.08951 5.04239C6.38938 3.74255 7.64162 3.21509 8.56119 3.01114Z" fill="#363538"/>
</svg>
