<svg width="24" height="24" viewBox="0 0 24 24" fill="none" xmlns="http://www.w3.org/2000/svg">
<path d="M20.6131 20.3574C20.9385 20.161 21.3662 20.2394 21.5994 20.5498C21.8324 20.8605 21.7881 21.2931 21.5086 21.5508L21.45 21.5996L21.0506 21.8818C20.6532 22.1439 20.2577 22.3466 19.8299 22.4893C19.2593 22.6794 18.6707 22.75 17.9998 22.75C17.1625 22.7499 16.563 22.3979 16.1297 22.1523C15.6809 21.8981 15.3971 21.75 14.9998 21.75C14.6026 21.7501 14.3187 21.8981 13.8699 22.1523C13.4365 22.3979 12.837 22.75 11.9998 22.75C11.1625 22.7499 10.563 22.3979 10.1297 22.1523C9.68093 21.8981 9.39709 21.75 8.99978 21.75C8.60258 21.7501 8.31867 21.8981 7.8699 22.1523C7.43653 22.3979 6.83705 22.75 5.99978 22.75C5.32891 22.75 4.74024 22.6794 4.16971 22.4893C3.59931 22.299 3.08621 22.0021 2.54959 21.5996C2.21874 21.351 2.15193 20.881 2.40017 20.5498C2.64871 20.2188 3.11873 20.1521 3.44998 20.4004C3.90085 20.7385 4.27088 20.9419 4.64432 21.0664C5.01787 21.1909 5.43604 21.25 5.99978 21.25C6.39709 21.25 6.68092 21.1019 7.12967 20.8477C7.563 20.6021 8.16253 20.2501 8.99978 20.25C9.83705 20.25 10.4365 20.6021 10.8699 20.8477C11.3187 21.1019 11.6026 21.2499 11.9998 21.25C12.3971 21.25 12.6809 21.1019 13.1297 20.8477C13.563 20.6021 14.1625 20.2501 14.9998 20.25C15.837 20.25 16.4365 20.6021 16.8699 20.8477C17.3187 21.1019 17.6026 21.2499 17.9998 21.25C18.5635 21.25 18.9817 21.1909 19.3553 21.0664C19.6355 20.973 19.9135 20.8347 20.2254 20.6289L20.5496 20.4004L20.6131 20.3574ZM10.9998 2.01953C11.414 2.01953 11.7498 2.35629 11.7498 2.77051V13H20.9998C21.5521 13 21.9985 13.451 21.8748 13.9893C21.3929 16.0865 19.5602 19 16.9998 19H6.99978C4.43961 18.9997 2.60769 16.0864 2.12576 13.9893C2.00212 13.4511 2.44767 13.0002 2.99978 13H10.2498V10.5H6.93435C6.40859 10.4999 5.97536 10.0932 5.97537 9.56738C5.97542 8.25581 6.10918 5.87325 6.99978 4.5C7.94456 3.04347 9.91753 2.325 10.6853 2.09082C10.6863 2.09037 10.6873 2.08932 10.6883 2.08887C10.7091 2.07931 10.7309 2.07211 10.7527 2.06445C10.7761 2.05596 10.7997 2.04819 10.824 2.04199C10.8805 2.02839 10.9391 2.01955 10.9998 2.01953Z" fill="#363538"/>
</svg>
