<svg width="24" height="24" viewBox="0 0 24 24" fill="none" xmlns="http://www.w3.org/2000/svg">
<path d="M5 14C5.83934 14 6.55793 13.483 6.85462 12.75H10V14H14V12.75H18C18.0479 12.75 18.0947 12.7455 18.1401 12.7369C18.4336 13.4768 19.1557 14 20 14C21.1046 14 22 13.1046 22 12C22 10.8954 21.1046 10 20 10C19.1557 10 18.4336 10.5232 18.1401 11.2631C18.0947 11.2545 18.0479 11.25 18 11.25H14V10H10V11.25H6.85462C6.55793 10.517 5.83934 10 5 10C3.89543 10 3 10.8954 3 12C3 13.1046 3.89543 14 5 14Z" fill="#363538"/>
</svg>
