<svg width="24" height="24" viewBox="0 0 24 24" fill="none" xmlns="http://www.w3.org/2000/svg">
<path fill-rule="evenodd" clip-rule="evenodd" d="M18.7012 3.76624C18.8482 3.37896 18.6533 2.9459 18.266 2.79897C17.8788 2.65207 17.4459 2.8468 17.2989 3.23393L17.2976 3.23718L17.2912 3.2537L17.2903 3.25586C17.2842 3.27119 17.2751 3.29406 17.2631 3.32344C17.2379 3.3851 17.2 3.4749 17.1513 3.58334C17.1087 3.67806 17.0585 3.78542 17.0018 3.89956C16.9276 4.0489 16.8423 4.20984 16.7483 4.36923C16.7082 4.43713 16.6677 4.50297 16.6268 4.56618C16.4947 4.77038 16.3593 4.94706 16.2285 5.07653C16.0854 5.21819 16.0079 5.24476 15.9944 5.24941L15.9923 5.25019C15.7858 5.24958 15.6339 5.22455 15.5184 5.19098C15.4756 5.17853 15.4377 5.16492 15.404 5.15094C15.2744 5.09734 15.1674 5.02369 15.031 4.91455C15.0055 4.89416 14.978 4.87128 14.9484 4.84661C14.6789 4.62246 14.2315 4.2502 13.5 4.2502C12.909 4.2502 12.481 4.58218 12.2075 4.9126C11.9366 5.23989 11.7495 5.64123 11.6202 5.98853C11.4877 6.34445 11.3981 6.69309 11.3419 6.94809C11.3354 6.97732 11.3294 7.00548 11.3237 7.03245C7.77503 7.37264 5 10.3623 5 14.0002C5 17.8662 8.13401 21.0002 12 21.0002C15.866 21.0002 19 17.8662 19 14.0002C19 10.5789 16.5456 7.73093 13.3015 7.12096L12.8588 7.05235L12.8698 7.01C12.9113 6.85262 12.963 6.68081 13.0259 6.51187C13.1293 6.23417 13.246 6.01051 13.3631 5.86904C13.4189 5.80157 13.4605 5.77045 13.4826 5.75775C13.4927 5.75194 13.4983 5.75033 13.4983 5.75033L13.5 5.7502C13.6754 5.7502 13.7203 5.78617 14.025 6.03055L14.094 6.08585C14.147 6.12828 14.2056 6.17393 14.2703 6.22067L14.3062 6.24624C14.4496 6.34687 14.622 6.45072 14.8304 6.53696C15.1575 6.67229 15.5375 6.7502 16 6.7502C16.5594 6.7502 16.9974 6.42601 17.2837 6.14261C17.586 5.84341 17.8412 5.46893 18.0404 5.13116C18.2431 4.78738 18.407 4.44841 18.5194 4.19831C18.576 4.07237 18.6205 3.96686 18.6513 3.8918C18.6667 3.85423 18.6786 3.82416 18.687 3.80285L18.6969 3.77756L18.6998 3.77009L18.7007 3.76771L18.7012 3.76624ZM16.0303 11.4698C15.7374 11.1769 15.2626 11.1769 14.9697 11.4698C14.6768 11.7627 14.6768 12.2376 14.9697 12.5305C15.1348 12.6956 15.3404 13.009 15.3972 13.3582C15.4465 13.6608 15.3968 14.0427 14.9697 14.4698C14.6768 14.7627 14.6768 15.2376 14.9697 15.5305C15.2626 15.8234 15.7374 15.8234 16.0303 15.5305C16.8032 14.7576 17.0035 13.8895 16.8778 13.1172C16.7596 12.3913 16.3652 11.8047 16.0303 11.4698Z" fill="#363538"/>
</svg>
