<svg width="24" height="24" viewBox="0 0 24 24" fill="none" xmlns="http://www.w3.org/2000/svg">
<path d="M9 14.3086C10.4998 13.3086 11 15.0586 12 15.0586C13 15.0586 13.5002 13.5586 15 14.3086C16.1252 15.0588 15.8535 16.6523 15.3516 17.8447C15.1491 18.3258 15 18.8335 15 19.3555V20.5586C15 20.8347 14.7761 21.0586 14.5 21.0586H9.5C9.22392 21.0585 9 20.8347 9 20.5586V19.3555C9 18.8335 8.85092 18.3259 8.64844 17.8447C8.14654 16.6523 7.87489 15.0588 9 14.3086Z" fill="#363538"/>
<path d="M7.46289 10.1592C7.47493 10.9354 7.73714 11.7633 8.50488 12.3174C8.50323 12.377 8.5 12.4381 8.5 12.5C8.50002 12.9492 8.53565 13.3406 8.59082 13.6787L8.58301 13.6846C7.93415 14.1175 7.62538 14.7383 7.51465 15.3721C7.24183 14.7155 7.00004 13.7737 7 12.5C7.00004 11.4426 7.20424 10.6084 7.4668 9.97461C7.46483 10.0362 7.46194 10.0977 7.46289 10.1592Z" fill="#363538"/>
<path d="M16.5312 9.97168C16.7945 10.6059 17 11.4408 17 12.5C17 13.7734 16.7571 14.7145 16.4844 15.3711C16.3824 14.7882 16.1126 14.2166 15.5645 13.792L15.415 13.6846C15.4129 13.6831 15.4104 13.6821 15.4082 13.6807C15.4636 13.3421 15.5 12.9501 15.5 12.5C15.5 12.4377 15.4958 12.3764 15.4941 12.3164L15.5645 12.2666C16.2785 11.7135 16.5235 10.9115 16.5352 10.1592C16.5361 10.0968 16.5333 10.0343 16.5312 9.97168Z" fill="#363538"/>
<path d="M14.5 3C14.7761 3 15 3.22386 15 3.5V6.70312C15 7.22511 15.1491 7.73275 15.3516 8.21387C15.8535 9.40634 16.1252 10.9998 15 11.75C13.5002 12.5 13 11 12 11C11 11 10.4998 12.75 9 11.75C7.87489 10.9998 8.14655 9.40631 8.64844 8.21387C8.85092 7.73274 9 7.22513 9 6.70312V3.5C9 3.2239 9.22392 3.00007 9.5 3H14.5Z" fill="#363538"/>
</svg>
