<svg width="24" height="24" viewBox="0 0 24 24" fill="none" xmlns="http://www.w3.org/2000/svg">
<path d="M3.5 5.41146V14.0074C3.5 15.4283 4.73023 16.0002 5.70768 14.9872C5.98864 14.6961 6.30424 14.3651 6.65853 13.9889C7.41522 13.1854 8.55504 12.988 9.5 13.3966V9.5C9.5 8.39543 10.3954 7.5 11.5 7.5H13.5V5.41146C13.5 4.35579 12.6605 3.5 11.625 3.5H5.375C4.33947 3.5 3.5 4.35579 3.5 5.41146Z" fill="#363538"/>
<path d="M10.5 19.0074V10.4115C10.5 9.35579 11.3395 8.5 12.375 8.5H18.625C19.6605 8.5 20.5 9.35579 20.5 10.4115V19.0074C20.5 20.4283 19.2698 21.0002 18.2923 19.9872C18.0114 19.6961 17.6958 19.3651 17.3415 18.9889C16.3383 17.9237 14.6617 17.9237 13.6585 18.9889C13.3042 19.3651 12.9886 19.6961 12.7077 19.9872C11.7302 21.0002 10.5 20.4283 10.5 19.0074Z" fill="#363538"/>
</svg>
