<svg width="24" height="24" viewBox="0 0 24 24" fill="none" xmlns="http://www.w3.org/2000/svg">
<path fill-rule="evenodd" clip-rule="evenodd" d="M4 18.1459V6C4 4.34315 5.34315 3 7 3H17C18.6569 3 20 4.34315 20 6V18.1459C20 20.376 18.0316 21.2736 16.4677 19.6837C16.0182 19.2267 15.5132 18.7073 14.9463 18.1168C13.3413 16.445 10.6587 16.445 9.05366 18.1168C8.48678 18.7073 7.98183 19.2267 7.53229 19.6837C5.96836 21.2736 4 20.376 4 18.1459ZM12.4315 6.24617C12.2296 5.91794 11.7704 5.91794 11.5685 6.24617L10.5346 7.92768C10.4652 8.04062 10.3576 8.1222 10.2334 8.15629L8.3829 8.66386C8.02169 8.76293 7.87977 9.2192 8.11624 9.52113L9.3277 11.0679C9.40906 11.1718 9.45012 11.3038 9.44275 11.4378L9.33305 13.433C9.31163 13.8225 9.68319 14.1045 10.0312 13.9629L11.8138 13.2373C11.9336 13.1886 12.0664 13.1886 12.1862 13.2373L13.9688 13.9629C14.3168 14.1045 14.6884 13.8225 14.667 13.433L14.5572 11.4378C14.5499 11.3038 14.5909 11.1718 14.6723 11.0679L15.8838 9.52113C16.1202 9.2192 15.9783 8.76293 15.6171 8.66386L13.7666 8.15629C13.6424 8.1222 13.5348 8.04062 13.4654 7.92768L12.4315 6.24617Z" fill="#363538"/>
</svg>
