<svg width="24" height="24" viewBox="0 0 24 24" fill="none" xmlns="http://www.w3.org/2000/svg">
<path fill-rule="evenodd" clip-rule="evenodd" d="M8 3.5C6.48236 3.5 5.25 4.72774 5.25 6.24766V17.75C5.25 19.2688 6.48122 20.5 8 20.5H18C18.2952 20.5 18.563 20.3268 18.6841 20.0575C18.8051 19.7882 18.7566 19.4726 18.5607 19.2518L18.5533 19.2433C18.5461 19.235 18.5346 19.2215 18.5195 19.2033C18.4892 19.167 18.4448 19.1124 18.3922 19.0438C18.2503 18.8586 18.0303 18.75 17.797 18.75H8C7.44772 18.75 7 18.3023 7 17.75C7 17.1977 7.44772 16.75 8 16.75H17.797C18.0303 16.75 18.2503 16.6414 18.3922 16.4562C18.4448 16.3876 18.4892 16.333 18.5195 16.2967C18.5346 16.2785 18.5461 16.265 18.5533 16.2567L18.561 16.2478L18.5617 16.247C18.683 16.1099 18.75 15.9331 18.75 15.75V6.25C18.75 4.73122 17.5188 3.5 16 3.5H8ZM11.9936 7.92849C12.8903 7.87532 13.8907 7.86711 14.6145 8.01523C15.0203 8.09827 15.2819 8.49456 15.1989 8.90036C15.1158 9.30616 14.7195 9.56781 14.3137 9.48477C13.7977 9.37916 12.9677 9.37337 12.0824 9.42586C11.2164 9.47722 10.3707 9.57918 9.86293 9.65651C9.45343 9.71888 9.07092 9.43748 9.00855 9.02799C8.94618 8.6185 9.22758 8.23598 9.63707 8.17361C10.1843 8.09026 11.0761 7.9829 11.9936 7.92849ZM11.9936 11.9285C12.8903 11.8753 13.8907 11.8671 14.6145 12.0152C15.0203 12.0983 15.2819 12.4946 15.1989 12.9004C15.1158 13.3062 14.7195 13.5678 14.3137 13.4848C13.7977 13.3792 12.9677 13.3734 12.0824 13.4259C11.2164 13.4772 10.3707 13.5792 9.86293 13.6565C9.45343 13.7189 9.07092 13.4375 9.00855 13.028C8.94618 12.6185 9.22758 12.236 9.63707 12.1736C10.1843 12.0903 11.0761 11.9829 11.9936 11.9285Z" fill="#363538"/>
</svg>
