<svg width="24" height="24" viewBox="0 0 24 24" fill="none" xmlns="http://www.w3.org/2000/svg">
<path d="M19.75 3.25C19.75 2.83579 19.4142 2.5 19 2.5C18.5858 2.5 18.25 2.83579 18.25 3.25V4.5H17C16.5858 4.5 16.25 4.83579 16.25 5.25C16.25 5.66421 16.5858 6 17 6H18.25V7.25C18.25 7.66421 18.5858 8 19 8C19.4142 8 19.75 7.66421 19.75 7.25V6H21C21.4142 6 21.75 5.66421 21.75 5.25C21.75 4.83579 21.4142 4.5 21 4.5H19.75V3.25Z" fill="#363538"/>
<path d="M7 3.25H17C15.8954 3.25 15 4.14543 15 5.25C15 6.35457 15.8954 7.25 17 7.25C17 8.35457 17.8954 9.25 19 9.25C19.3643 9.25 19.7058 9.15261 20 8.98244V18.3959C20 20.626 18.0316 21.5236 16.4677 19.9337C16.0182 19.4767 15.5132 18.9573 14.9463 18.3668C13.3413 16.695 10.6587 16.695 9.05366 18.3668C8.48678 18.9573 7.98183 19.4767 7.53229 19.9337C5.96836 21.5236 4 20.626 4 18.3959V6.25C4 4.59315 5.34315 3.25 7 3.25Z" fill="#363538"/>
</svg>
