<svg width="24" height="24" viewBox="0 0 24 24" fill="none" xmlns="http://www.w3.org/2000/svg">
<path d="M11 4.5C11 3.67157 11.6716 3 12.5 3H14.5C15.3284 3 16 3.67157 16 4.5V19.5C16 20.3284 15.3284 21 14.5 21H12.5C11.6716 21 11 20.3284 11 19.5V4.5Z" fill="#363538"/>
<path d="M5.93377 4.11214C6.14818 3.31194 6.97069 2.83707 7.77089 3.05148L9.70274 3.56912C10.5029 3.78353 10.9778 4.60604 10.7634 5.40624L6.88111 19.8951C6.6667 20.6953 5.84419 21.1702 5.044 20.9558L3.11214 20.4381C2.31194 20.2237 1.83707 19.4012 2.05148 18.601L5.93377 4.11214Z" fill="#363538"/>
<path d="M18.5 3C17.6716 3 17 3.67157 17 4.5V19.5C17 20.3284 17.6716 21 18.5 21H20.5C21.3284 21 22 20.3284 22 19.5V4.5C22 3.67157 21.3284 3 20.5 3H18.5Z" fill="#363538"/>
</svg>
