<svg width="24" height="24" viewBox="0 0 24 24" fill="none" xmlns="http://www.w3.org/2000/svg">
<path d="M19.2568 2.75H11.7537C11.4775 2.75 11.2535 2.97395 11.2535 3.25021V10.9699C11.7493 10.8499 12.4017 10.8576 13.0228 11.0465C13.804 11.2842 14.6154 11.8345 15.0289 12.8771C15.1816 13.2622 14.9933 13.6981 14.6082 13.8508C14.2232 14.0035 13.7873 13.8152 13.6346 13.4301C13.4222 12.8946 13.0233 12.6146 12.5862 12.4816C12.113 12.3376 11.6769 12.3926 11.53 12.4509C11.4392 12.4869 11.3456 12.5039 11.2535 12.5039V13.0404C11.2535 13.3875 10.9086 13.6291 10.5824 13.5105L8.53979 12.7678C6.88357 12.1655 5.02832 12.7176 3.97093 14.1275L3.55033 14.6883C3.03083 15.381 2.75 16.2234 2.75 17.0893V19.2568C2.75 20.3619 3.6458 21.2577 4.75083 21.2577H18.4722C19.6822 21.2577 20.6154 20.1919 20.4554 18.9924L19.7571 13.7546V3.25021C19.7571 2.97395 19.5331 2.75 19.2568 2.75Z" fill="#363538"/>
</svg>
