<svg width="24" height="24" viewBox="0 0 24 24" fill="none" xmlns="http://www.w3.org/2000/svg">
<path d="M21.75 18C21.75 18.4142 21.4142 18.75 21 18.75C20.5858 18.75 20.25 18.4142 20.25 18V6C20.25 5.58579 20.5858 5.25 21 5.25C21.4142 5.25 21.75 5.58579 21.75 6V18Z" fill="#363538"/>
<path d="M18 20.25C18.4142 20.25 18.75 20.5858 18.75 21C18.75 21.4142 18.4142 21.75 18 21.75H6C5.58579 21.75 5.25 21.4142 5.25 21C5.25 20.5858 5.58579 20.25 6 20.25H18Z" fill="#363538"/>
<path d="M18 2.25C18.4142 2.25 18.75 2.58579 18.75 3C18.75 3.41421 18.4142 3.75 18 3.75L6 3.75C5.58579 3.75 5.25 3.41421 5.25 3C5.25 2.58579 5.58579 2.25 6 2.25H18Z" fill="#363538"/>
<path d="M3.75 18C3.75 18.4142 3.41421 18.75 3 18.75C2.58579 18.75 2.25 18.4142 2.25 18V6C2.25 5.58579 2.58579 5.25 3 5.25C3.41421 5.25 3.75 5.58579 3.75 6L3.75 18Z" fill="#363538"/>
<path d="M5 7L5 17C5 18.1046 5.89543 19 7 19L17.1333 19C18.1643 19 19 18.1643 19 17.1333L19 6.86667C19 5.83574 18.1643 5.00001 17.1333 5.00001L7 5C5.89543 5 5 5.89543 5 7Z" fill="#363538"/>
</svg>
