<svg width="24" height="24" viewBox="0 0 24 24" fill="none" xmlns="http://www.w3.org/2000/svg">
<path fill-rule="evenodd" clip-rule="evenodd" d="M15.6964 2.77874C15.8502 2.39415 15.6631 1.95768 15.2785 1.80384C14.894 1.65001 14.4575 1.83707 14.3036 2.22166L13.6654 3.81735C13.662 3.82567 13.6586 3.8296 13.6558 3.83215C13.6522 3.83538 13.6468 3.8387 13.6399 3.84085C13.633 3.843 13.6267 3.84329 13.6219 3.84265C13.6182 3.84215 13.6131 3.84087 13.6056 3.8359C12.8739 3.34808 11.8829 3.57091 11.4305 4.32502L10.4254 6.0002H9C7.13623 6.0002 6.20435 6.0002 5.46927 6.30468C4.48915 6.71066 3.71046 7.48935 3.30448 8.46947C3 9.20455 3 10.1364 3 12.0002C3 14.7958 3 16.1937 3.45672 17.2963C4.06569 18.7665 5.23373 19.9345 6.7039 20.5435C7.80653 21.0002 9.20435 21.0002 12 21.0002C14.7956 21.0002 16.1935 21.0002 17.2961 20.5435C18.7663 19.9345 19.9343 18.7665 20.5433 17.2963C21 16.1937 21 14.7958 21 12.0002C21 10.1364 21 9.20455 20.6955 8.46947C20.2895 7.48935 19.5108 6.71066 18.5307 6.30468C17.7956 6.0002 16.8638 6.0002 15 6.0002H12.1746L12.7167 5.09676C12.7285 5.07705 12.7544 5.07122 12.7736 5.08397C13.5876 5.62666 14.6947 5.2828 15.0581 4.37443L15.6964 2.77874ZM8.5 14.0002C9.32843 14.0002 10 13.3286 10 12.5002C10 11.6718 9.32843 11.0002 8.5 11.0002C7.67157 11.0002 7 11.6718 7 12.5002C7 13.3286 7.67157 14.0002 8.5 14.0002ZM17 12.5002C17 13.3286 16.3284 14.0002 15.5 14.0002C14.6716 14.0002 14 13.3286 14 12.5002C14 11.6718 14.6716 11.0002 15.5 11.0002C16.3284 11.0002 17 11.6718 17 12.5002ZM9.32918 15.6648C9.51442 15.2943 9.96493 15.1441 10.3354 15.3294L10.5466 15.435C11.4615 15.8924 12.5385 15.8924 13.4534 15.435L13.6646 15.3294C14.0351 15.1441 14.4856 15.2943 14.6708 15.6648C14.8561 16.0353 14.7059 16.4858 14.3354 16.671L14.1243 16.7766C12.787 17.4452 11.213 17.4452 9.87574 16.7766L9.66459 16.671C9.29411 16.4858 9.14394 16.0353 9.32918 15.6648Z" fill="#363538"/>
</svg>
