<svg width="24" height="24" viewBox="0 0 24 24" fill="none" xmlns="http://www.w3.org/2000/svg">
<path d="M13.2142 8.76717L13.8392 8.30422C14.3652 7.91458 14.7358 7.36195 14.9019 6.74365C14.934 6.74784 14.9667 6.75 14.9999 6.75H19.4999C19.5239 6.75 19.5476 6.74887 19.571 6.74667C19.7065 7.3575 20.0311 7.91656 20.5068 8.33947L20.993 8.77164C21.6335 9.34094 21.9999 10.157 21.9999 11.0139V19C21.9999 20.6569 20.6568 22 18.9999 22H14.9999C13.3431 22 11.9999 20.6569 11.9999 19V11.1778C11.9999 10.2273 12.4504 9.33297 13.2142 8.76717Z" fill="#363538"/>
<path d="M19.4999 5.25H14.9999V4C14.9999 2.89543 15.8954 2 16.9999 2H17.4999C18.6045 2 19.4999 2.89543 19.4999 4V5.25Z" fill="#363538"/>
<path d="M2.25008 14.2236L2.92508 20.2236C3.0389 21.2353 3.8945 22 4.91255 22H8.08731C9.10536 22 9.96096 21.2353 10.0748 20.2236L10.7498 14.2236C10.8832 13.0379 9.95543 12 8.76231 12H4.23755C3.04443 12 2.1167 13.0379 2.25008 14.2236Z" fill="#363538"/>
</svg>
