<svg width="24" height="24" viewBox="0 0 24 24" fill="none" xmlns="http://www.w3.org/2000/svg">
<path fill-rule="evenodd" clip-rule="evenodd" d="M13.9999 1.25C14.4141 1.25003 14.7499 1.58581 14.7499 2V11.25H17.6894L18.4697 10.4697L18.5839 10.376C18.7062 10.2945 18.8508 10.25 18.9999 10.25H19.9999C20.4141 10.25 20.7499 10.5858 20.7499 11C20.7499 11.4142 20.4141 11.75 19.9999 11.75H19.3105L19.0605 12L19.3105 12.25H19.9999C20.4141 12.25 20.7499 12.5858 20.7499 13C20.7499 13.4142 20.4141 13.75 19.9999 13.75H18.9999C18.801 13.75 18.6103 13.6709 18.4697 13.5303L17.6894 12.75H14.7499V22C14.7499 22.4142 14.4141 22.75 13.9999 22.75C13.5857 22.75 13.2499 22.4142 13.2499 22C13.2499 21.6151 12.9667 21.0274 12.4697 20.5303C12.154 20.2146 11.792 19.9827 11.3115 19.6455C10.8513 19.3226 10.3288 18.9303 9.85541 18.3477C8.96553 17.2524 8.35353 15.6162 8.26362 12.75H4.81049L5.53022 13.4697C5.82307 13.7626 5.82307 14.2374 5.53022 14.5303C5.23733 14.8232 4.76257 14.8231 4.46967 14.5303L2.46967 12.5303C2.17678 12.2374 2.17678 11.7626 2.46967 11.4697L4.46967 9.46973C4.76257 9.17686 5.23733 9.17684 5.53022 9.46973C5.82307 9.76261 5.82307 10.2374 5.53022 10.5303L4.81049 11.25H8.26264C8.35258 8.38384 8.96553 6.74763 9.85541 5.65234C10.3288 5.06972 10.8513 4.6774 11.3115 4.35449C11.792 4.01727 12.154 3.78541 12.4697 3.46973C12.9667 2.9726 13.2499 2.3849 13.2499 2C13.2499 1.58579 13.5857 1.25 13.9999 1.25ZM9.76362 12.75C9.85257 15.3947 10.4139 16.657 11.0195 17.4023C11.3585 17.8195 11.7425 18.115 12.1728 18.417C12.4974 18.6448 12.8864 18.9002 13.2499 19.2119V12.75H9.76362ZM13.2499 4.78711C12.8862 5.09898 12.4975 5.35514 12.1728 5.58301C11.7425 5.88498 11.3585 6.18048 11.0195 6.59766C10.4139 7.34298 9.85256 8.6053 9.76362 11.25H13.2499V4.78711Z" fill="#363538"/>
</svg>
