<svg width="24" height="24" viewBox="0 0 24 24" fill="none" xmlns="http://www.w3.org/2000/svg">
<path d="M10.3878 13.9619C10.7392 14.0791 11.2173 14.2044 11.7306 14.2392C11.6953 14.9684 11.6079 15.8698 11.4366 16.7549C11.3186 17.3644 11.1573 17.9836 10.9386 18.541C10.7228 19.0906 10.4326 19.628 10.0304 20.0302C9.73748 20.323 9.26269 20.3231 8.96982 20.0302C8.677 19.7374 8.67701 19.2626 8.96982 18.9697C9.16752 18.772 9.36507 18.4466 9.54306 17.9931C9.71798 17.5474 9.85697 17.0225 9.96396 16.4697C10.1233 15.6466 10.2026 14.7989 10.2335 14.1259C10.2695 14.0647 10.3077 14.0055 10.3419 13.9453C10.357 13.9505 10.3723 13.9567 10.3878 13.9619Z" fill="#363538"/>
<path d="M13.6573 13.9453C13.9136 14.3968 14.2223 14.8799 14.5714 15.3496C14.6472 15.6963 14.7339 16.0545 14.8341 16.4082C15.1411 17.4926 15.528 18.3984 15.9464 18.8789L16.0304 18.9697L16.0821 19.0263C16.3224 19.3209 16.3049 19.7557 16.0304 20.0302C15.7558 20.3048 15.321 20.3222 15.0265 20.082L14.9698 20.0302L14.8321 19.8838C14.1587 19.1197 13.7008 17.9114 13.3907 16.8164C13.1341 15.91 12.9538 14.9853 12.8429 14.249L12.8311 14.166C13.1257 14.1101 13.3937 14.0348 13.6124 13.9619C13.6276 13.9568 13.6425 13.9504 13.6573 13.9453Z" fill="#363538"/>
<path d="M14.0001 8.99997C15.1667 6.66668 18.1001 2.80026 20.5001 5.99997C21.5249 7.70792 20.9211 9.65882 20.3077 10.6074C20.1577 10.8393 20.1577 11.1607 20.3077 11.3925C20.9211 12.3411 21.5248 14.292 20.5001 16C18.1001 19.1996 15.1667 15.3333 14.0001 13C13.9798 13.0101 12.9898 13.5 12.0001 13.5C11.0001 13.4999 10.0001 13 10.0001 13C8.83336 15.3333 5.90003 19.1999 3.50009 16C2.47545 14.2922 3.07912 12.3412 3.69247 11.3925C3.84243 11.1607 3.84243 10.8393 3.69247 10.6074C3.07911 9.65875 2.47547 7.70777 3.50009 5.99997C5.90005 2.80003 8.83338 6.66662 10.0001 8.99997C10.0001 8.99997 11.0001 8.50007 12.0001 8.49997C12.9902 8.49991 13.9806 8.99029 14.0001 8.99997Z" fill="#363538"/>
</svg>
