<svg width="24" height="24" viewBox="0 0 24 24" fill="none" xmlns="http://www.w3.org/2000/svg">
<path d="M14.3561 9.75C15.6823 11.1028 16.5001 12.9559 16.5001 15C16.5001 17.4739 15.3023 19.668 13.4551 21.0341C13.6713 21.1125 13.8979 21.1686 14.131 21.2001C14.3764 21.2332 14.6248 21.238 14.8713 21.2142L15.7466 21.1297C17.1012 20.9989 18.2746 20.0465 18.5004 18.7044L18.5619 18.34C18.9476 16.0621 19.0549 15.4278 18.5003 13C18.2661 11.9744 17.7437 10.7699 17.2367 9.75L14.3561 9.75Z" fill="#363538"/>
<path d="M16.4392 8.25L13.5615 8.25C13.6153 8.15486 13.6655 8.06717 13.7113 7.98788C13.8969 7.6667 14.0003 7.30354 14.0003 6.93259V6.75L16.0003 6.75V6.93259C16.0003 7.30354 16.1038 7.6667 16.2894 7.98788C16.3352 8.06717 16.3854 8.15486 16.4392 8.25Z" fill="#363538"/>
<path d="M13.9086 5.25L13.6824 3.40101C13.5856 2.60971 14.2031 1.91211 15.0003 1.91211C15.7975 1.91211 16.415 2.60971 16.3182 3.40101L16.0921 5.25L13.9086 5.25Z" fill="#363538"/>
<path fill-rule="evenodd" clip-rule="evenodd" d="M15 15C15 18.3137 12.3137 21 9 21C5.68629 21 3 18.3137 3 15C3 11.6863 5.68629 9 9 9C12.3137 9 15 11.6863 15 15ZM9 11C8.44772 11 8 11.4477 8 12C8 12.5523 8.44772 13 9 13C9.55228 13 10 12.5523 10 12C10 11.4477 9.55228 11 9 11ZM8 15C8 14.4477 8.44772 14 9 14C9.55228 14 10 14.4477 10 15C10 15.5523 9.55228 16 9 16C8.44772 16 8 15.5523 8 15ZM11.25 12.5C10.8358 12.5 10.5 12.8358 10.5 13.25C10.5 13.6642 10.8358 14 11.25 14C11.6642 14 12 13.6642 12 13.25C12 12.8358 11.6642 12.5 11.25 12.5Z" fill="#363538"/>
</svg>
