<svg width="24" height="24" viewBox="0 0 24 24" fill="none" xmlns="http://www.w3.org/2000/svg">
<path d="M8.85772 4.74556L10.0574 4.07905C11.2655 3.40789 12.7345 3.40789 13.9426 4.07905L18.9426 6.85683C19.125 6.95819 19.2975 7.07262 19.4591 7.19857L16.0247 9.23063L8.85772 4.74556Z" fill="#363538"/>
<path d="M7.53606 5.47981L5.05743 6.85683C4.80688 6.99603 4.5751 7.15987 4.36444 7.34436C4.36553 7.34497 4.36662 7.34558 4.3677 7.34619L10.3418 10.7067C11.3595 11.2792 12.6061 11.2617 13.6073 10.6609L13.6113 10.6586L14.5713 10.0906L7.85214 5.88577C7.69605 5.78809 7.5883 5.64239 7.53606 5.47981Z" fill="#363538"/>
<path d="M3.45005 8.51012C3.15927 9.07002 3 9.70019 3 10.3535V14.6462C3 16.0989 3.78757 17.4374 5.05743 18.1429L10.0574 20.9206C10.437 21.1315 10.8423 21.2761 11.2572 21.3545C11.2525 21.3203 11.25 21.2855 11.25 21.25V12.5745C10.6811 12.4916 10.1235 12.305 9.60637 12.0141L3.6323 8.65354C3.56264 8.61436 3.50166 8.56571 3.45005 8.51012Z" fill="#363538"/>
<path d="M12.75 12.5538V21.25C12.75 21.2855 12.7475 21.3203 12.7428 21.3545C13.1577 21.2761 13.563 21.1315 13.9426 20.9206L18.9426 18.1429C20.2124 17.4374 21 16.0989 21 14.6462V10.3535C21 9.63462 20.8071 8.94373 20.4584 8.34367C20.4343 8.36226 20.4088 8.37958 20.3819 8.39548L14.3791 11.9472L14.377 11.9484C13.8682 12.2533 13.3162 12.4552 12.75 12.5538Z" fill="#363538"/>
</svg>
