<svg width="24" height="24" viewBox="0 0 24 24" fill="none" xmlns="http://www.w3.org/2000/svg">
<path d="M6.15483 3.5914L6.70495 3.28578C7.51035 2.83833 8.48966 2.83834 9.29505 3.28578L12.6284 5.13763C12.6689 5.16016 12.7088 5.18367 12.7478 5.2081L10.6869 6.42752L6.15483 3.5914Z" fill="#363538"/>
<path d="M4.65697 4.42354L3.37162 5.13763C3.28489 5.18581 3.20153 5.23842 3.12177 5.29509L7.01717 7.48632C7.61735 7.82393 8.35251 7.81362 8.943 7.45932L8.94696 7.45695L9.23342 7.28747L4.65697 4.42354Z" fill="#363538"/>
<path d="M2.19039 6.47911C2.06652 6.78893 2 7.124 2 7.46871V10.3306C2 11.299 2.52505 12.1913 3.37162 12.6616L6.70495 14.5135C6.87965 14.6106 7.06253 14.6866 7.25005 14.7415L7.25 14.7331L7.25 9.15863C6.9153 9.08789 6.58863 8.96629 6.28176 8.79367L2.29904 6.55333C2.26007 6.5314 2.22381 6.50652 2.19039 6.47911Z" fill="#363538"/>
<path d="M8.75 9.13921L8.75 12.3565C9.08757 11.427 9.75113 10.6315 10.6432 10.136L13.9765 8.28411L14 8.27115V7.46871C14 7.07672 13.914 6.69721 13.7554 6.3531C13.7424 6.36194 13.7291 6.37043 13.7153 6.37855L9.71476 8.74555L9.7126 8.74685C9.40915 8.92862 9.0843 9.05946 8.75 9.13921Z" fill="#363538"/>
<path d="M14.1548 9.9012L14.705 9.59558C15.5103 9.14814 16.4897 9.14814 17.295 9.59558L20.6284 11.4474C20.6689 11.47 20.7088 11.4935 20.7478 11.5179L18.6869 12.7373L14.1548 9.9012Z" fill="#363538"/>
<path d="M12.657 10.7333L11.3716 11.4474C11.2849 11.4956 11.2015 11.5482 11.1218 11.6049L15.0172 13.7961C15.6173 14.1337 16.3525 14.1234 16.943 13.7691L16.947 13.7668L17.2334 13.5973L12.657 10.7333Z" fill="#363538"/>
<path d="M10.1904 12.7889C10.0665 13.0987 10 13.4338 10 13.7785V16.6404C10 17.6088 10.525 18.5011 11.3716 18.9715L14.705 20.8233C14.8797 20.9204 15.0625 20.9964 15.25 21.0513L15.25 21.0429V15.4684C14.9153 15.3977 14.5886 15.2761 14.2818 15.1035L10.299 12.8631C10.2601 12.8412 10.2238 12.8163 10.1904 12.7889Z" fill="#363538"/>
<path d="M16.75 15.449V21.0429L16.75 21.0513C16.9375 20.9964 17.1203 20.9204 17.295 20.8233L20.6284 18.9715C21.475 18.5011 22 17.6088 22 16.6404V13.7785C22 13.3865 21.914 13.007 21.7554 12.6629C21.7424 12.6717 21.7291 12.6802 21.7153 12.6884L17.7148 15.0554L17.7126 15.0567C17.4091 15.2384 17.0843 15.3693 16.75 15.449Z" fill="#363538"/>
</svg>
