<svg width="24" height="24" viewBox="0 0 24 24" fill="none" xmlns="http://www.w3.org/2000/svg">
<path d="M11.416 17.876C11.0713 17.6463 10.6057 17.7394 10.3759 18.0841C10.1462 18.4287 10.2393 18.8944 10.5839 19.1241C11.7442 19.8976 13.2557 19.8976 14.416 19.1241C14.7606 18.8944 14.8538 18.4287 14.624 18.0841C14.3942 17.7394 13.9286 17.6463 13.5839 17.876C12.9275 18.3136 12.0724 18.3136 11.416 17.876Z" fill="#363538"/>
<path d="M11 14.5C11 15.3284 10.3284 16 9.5 16C8.67157 16 8 15.3284 8 14.5C8 13.6716 8.67157 13 9.5 13C10.3284 13 11 13.6716 11 14.5Z" fill="#363538"/>
<path fill-rule="evenodd" clip-rule="evenodd" d="M12.0173 2.00104C12.0305 2.00035 12.0436 2 12.0567 2C14.3989 2 17.0031 2.51811 18.9522 4.39762C20.9144 6.28974 22.0622 9.41391 21.8056 14.2894C21.7881 14.6217 21.5537 14.9028 21.23 14.9797C20.983 15.0384 20.729 14.9675 20.5491 14.8023C20.0872 16.9684 19.0429 18.6082 17.7363 19.773C15.9995 21.3213 13.8334 22 12.0567 22C10.2934 22 8.48132 21.4527 7.05362 20.186C5.90485 19.1668 5.04741 17.7196 4.64964 15.8186C4.39019 15.9527 4.05982 16.0372 3.69481 15.9175C3.19228 15.7528 2.93502 15.2957 2.79165 14.9263C2.63501 14.5228 2.52442 13.9906 2.44348 13.343C2.19283 11.3376 2.13241 10.2876 2.15392 9.66174C2.1716 9.14719 2.27512 8.7777 2.30742 8.66244C2.31267 8.6437 2.31605 8.63163 2.31685 8.62682C2.58302 7.02816 3.11338 5.79178 3.84605 4.84548C4.58018 3.89728 5.48846 3.27782 6.45245 2.87136C8.10667 2.17388 9.98271 2.09174 11.4416 2.02786C11.6419 2.01909 11.8344 2.01066 12.0173 2.00104ZM5.97382 14.605C6.20959 16.7156 7.01506 18.1466 8.04911 19.064C9.15747 20.0473 10.5954 20.5 12.0567 20.5C13.4854 20.5 15.2908 19.9436 16.7381 18.6533C18.0502 17.4837 19.0979 15.6847 19.2789 13.0669C18.1261 13.1604 17.1608 13.2262 16.2754 13.2157C16.7097 13.4785 17 13.9554 17 14.5C17 15.3284 16.3284 16 15.5 16C14.6716 16 14 15.3284 14 14.5C14 13.8851 14.37 13.3567 14.8994 13.1251C14.7906 13.1111 14.6822 13.0954 14.5739 13.0778C13.18 12.8514 11.8449 12.3243 10.0142 11.3526C9.67947 11.9638 9.10777 12.4527 8.56927 12.8523C8.15581 13.1591 7.68826 13.4637 7.22508 13.7655L7.12387 13.8314C6.73638 14.084 6.34917 14.3382 5.97382 14.605Z" fill="#363538"/>
</svg>
