<svg width="24" height="24" viewBox="0 0 24 24" fill="none" xmlns="http://www.w3.org/2000/svg">
<path d="M12.6807 16.792C13.9058 16.2086 15.6457 17.8542 14 19.5C13.4481 20.0518 12.981 20.3093 12.584 20.6953C12.2887 20.9824 11.7113 20.9824 11.416 20.6953C11.0191 20.3094 10.5518 20.0518 10 19.5C8.35442 17.8542 10.0941 16.2089 11.3193 16.792C11.6914 16.969 12.3087 16.9691 12.6807 16.792Z" fill="#363538"/>
<path d="M12 2.5C12.6 2.5 13.1156 2.85329 13.3555 3.3623C13.8875 3.45026 14.4021 3.58886 14.8945 3.77344C15.3568 3.45263 15.9804 3.40608 16.5 3.70605C17.0195 4.00603 17.2898 4.56921 17.2432 5.12988C17.6537 5.46814 18.0308 5.84542 18.3691 6.25586C18.9303 6.20863 19.4947 6.48002 19.7949 7C20.0948 7.51956 20.0464 8.1423 19.7256 8.60449C19.9101 9.09668 20.0487 9.61089 20.1367 10.1426C20.647 10.382 21.001 10.8991 21.001 11.5C21.001 12.1008 20.6468 12.617 20.1367 12.8564C20.0488 13.3876 19.9099 13.9009 19.7256 14.3926C20.0477 14.8549 20.0961 15.4797 19.7959 16C19.4952 16.5208 18.9292 16.7914 18.3672 16.7432C17.5219 17.7677 16.4348 18.5854 15.1924 19.1074C15.3008 18.8753 15.3729 18.6382 15.4043 18.3975C15.4511 18.0382 15.4074 17.6971 15.2969 17.3906C15.9968 16.9979 16.6164 16.4814 17.1338 15.875C16.9386 15.4484 16.9448 14.9372 17.1973 14.5C17.4508 14.0609 17.893 13.7994 18.3623 13.7568C18.4803 13.4243 18.5717 13.0797 18.6367 12.7256C18.2523 12.454 18.001 12.0065 18.001 11.5C18.001 10.9935 18.2523 10.546 18.6367 10.2744C18.5717 9.91982 18.4795 9.57508 18.3613 9.24219C17.8924 9.1995 17.4507 8.93872 17.1973 8.5C16.9441 8.06152 16.9378 7.54843 17.1348 7.12109C16.9027 6.84928 16.6498 6.59623 16.3779 6.36426C15.9506 6.56108 15.4384 6.55683 15 6.30371C14.5603 6.04982 14.2988 5.60672 14.2568 5.13672C13.9244 5.01879 13.5797 4.92727 13.2256 4.8623C12.9541 5.24748 12.5071 5.5 12 5.5C11.4927 5.5 11.0449 5.24774 10.7734 4.8623C10.4196 4.92726 10.0754 5.0189 9.74316 5.13672C9.70131 5.6068 9.44064 6.04971 9.00098 6.30371C8.56179 6.55728 8.04786 6.56313 7.62012 6.36523C7.34906 6.59667 7.09667 6.84906 6.86523 7.12012C7.06297 7.54776 7.05811 8.06094 6.80469 8.5C6.55062 8.94005 6.10713 9.20145 5.63672 9.24316C5.5189 9.57535 5.42726 9.91964 5.3623 10.2734C5.74793 10.5449 6 10.9926 6 11.5C6 12.0077 5.74732 12.4552 5.36133 12.7266C5.42631 13.0804 5.51885 13.4246 5.63672 13.7568C6.10684 13.7987 6.54969 14.0603 6.80371 14.5C7.05657 14.938 7.06241 15.4499 6.86621 15.877C7.38322 16.4827 8.00288 16.9982 8.70215 17.3906C8.59156 17.6974 8.54875 18.0391 8.5957 18.3984C8.62716 18.6389 8.69929 18.8756 8.80762 19.1074C7.56502 18.5854 6.47719 17.768 5.63184 16.7432C5.07069 16.7904 4.50627 16.52 4.20605 16C3.90615 15.4804 3.95352 14.8567 4.27441 14.3945C4.0897 13.902 3.95031 13.3876 3.8623 12.8555C3.35351 12.6155 3.00098 12.0998 3.00098 11.5C3.00098 10.9 3.35331 10.3834 3.8623 10.1436C3.95031 9.61159 4.08881 9.09693 4.27344 8.60449C3.95353 8.14239 3.90736 7.51904 4.20703 7C4.50684 6.48103 5.0697 6.20967 5.62988 6.25586C5.96844 5.84508 6.346 5.4674 6.75684 5.12891C6.71082 4.56875 6.98192 4.00573 7.50098 3.70605C8.01992 3.40654 8.64246 3.45366 9.10449 3.77344C9.59693 3.58881 10.1116 3.45031 10.6436 3.3623C10.8834 2.85309 11.3998 2.5 12 2.5Z" fill="#363538"/>
</svg>
