<svg width="24" height="24" viewBox="0 0 24 24" fill="none" xmlns="http://www.w3.org/2000/svg">
<path d="M6.75 7.90549C8.04392 7.57245 9 6.39788 9 5C9 3.34315 7.65685 2 6 2C4.34315 2 3 3.34315 3 5C3 6.39788 3.95608 7.57245 5.25 7.90549V16.0945C3.95608 16.4275 3 17.6021 3 19C3 20.6569 4.34315 22 6 22C7.65685 22 9 20.6569 9 19C9 17.6021 8.04392 16.4275 6.75 16.0945V14.6818C7.40399 13.4508 8.19275 12.8849 9.01212 12.6198C9.91002 12.3293 10.926 12.3714 12.0422 12.4954C12.2447 12.5179 12.4538 12.5438 12.6667 12.5702C13.5569 12.6804 14.5155 12.7991 15.3559 12.715C15.9007 12.6605 16.4487 12.5197 16.9474 12.2132C17.4068 11.9308 17.7887 11.5297 18.0845 10.9988C19.7023 10.9541 21 9.62858 21 8C21 6.34315 19.6569 5 18 5C16.3431 5 15 6.34315 15 8C15 9.1241 15.6182 10.1038 16.5333 10.6176C16.4158 10.7535 16.291 10.8559 16.162 10.9352C15.9107 11.0897 15.5993 11.1832 15.2066 11.2225C14.5498 11.2882 13.8116 11.1979 12.9408 11.0914C12.7065 11.0627 12.4623 11.0329 12.2078 11.0046C11.074 10.8786 9.77748 10.7957 8.55038 11.1927C7.90473 11.4016 7.29883 11.7358 6.75 12.2316V7.90549Z" fill="#363538"/>
</svg>
