<svg width="24" height="24" viewBox="0 0 24 24" fill="none" xmlns="http://www.w3.org/2000/svg">
<path d="M12.7527 12.0272C13.8602 12.0995 15.1034 12.3271 16.2878 12.7323L16.2644 12.8534L15.7644 15.3524C15.6832 15.7584 15.9465 16.1537 16.3523 16.2353C16.7584 16.3165 17.1537 16.0533 17.2351 15.6474L17.7 13.3222C19.8315 14.3905 21.4475 16.1446 21.1423 18.7313C21.0886 19.187 20.6774 19.4999 20.2185 19.4999H3.88257C3.37822 19.4999 2.94452 19.1223 2.9353 18.6181C2.88441 15.8271 4.429 14.3195 6.58472 13.3183L5.78687 15.7675C5.65849 16.1612 5.87374 16.5842 6.26733 16.7128C6.6611 16.8412 7.0842 16.6261 7.21265 16.2323L8.38941 12.6239C9.40865 12.2984 10.372 12.1061 11.2371 12.0341L10.7576 15.3935C10.6991 15.8033 10.9837 16.1832 11.3933 16.2421C11.8032 16.3006 12.1832 16.0162 12.2419 15.6063L12.7527 12.0272Z" fill="#363538"/>
<path d="M7.82886 4.16494C8.014 3.79465 8.46434 3.64421 8.83472 3.82901C9.20507 4.01418 9.3556 4.46446 9.17066 4.83487L8.60816 5.95987C8.45806 6.26016 8.48056 6.61898 8.66675 6.89834C9.08343 7.52368 9.18856 8.30653 8.95093 9.01944L8.71167 9.73721C8.58065 10.1301 8.15538 10.3428 7.76245 10.2118C7.36966 10.0808 7.15694 9.65546 7.28784 9.2626L7.5271 8.54483C7.61836 8.27105 7.57863 7.97057 7.4187 7.73037C6.93401 7.00326 6.87575 6.07162 7.26636 5.28994L7.82886 4.16494Z" fill="#363538"/>
<path d="M11.8289 4.16494C12.014 3.79465 12.4643 3.64421 12.8347 3.82901C13.2051 4.01418 13.3556 4.46446 13.1707 4.83487L12.6082 5.95987C12.4581 6.26016 12.4806 6.61898 12.6667 6.89834C13.0834 7.52368 13.1886 8.30653 12.9509 9.01944L12.7117 9.73721C12.5806 10.1301 12.1554 10.3428 11.7625 10.2118C11.3697 10.0808 11.1569 9.65546 11.2878 9.2626L11.5271 8.54483C11.6184 8.27105 11.5786 7.97057 11.4187 7.73037C10.934 7.00326 10.8758 6.07162 11.2664 5.28994L11.8289 4.16494Z" fill="#363538"/>
<path d="M15.8289 4.16494C16.014 3.79465 16.4643 3.64421 16.8347 3.82901C17.2051 4.01418 17.3556 4.46446 17.1707 4.83487L16.6082 5.95987C16.4581 6.26016 16.4806 6.61898 16.6667 6.89834C17.0834 7.52368 17.1886 8.30653 16.9509 9.01944L16.7117 9.73721C16.5806 10.1301 16.1554 10.3428 15.7625 10.2118C15.3697 10.0808 15.1569 9.65546 15.2878 9.2626L15.5271 8.54483C15.6184 8.27105 15.5786 7.97057 15.4187 7.73037C14.934 7.00326 14.8758 6.07162 15.2664 5.28994L15.8289 4.16494Z" fill="#363538"/>
</svg>
