<svg width="24" height="24" viewBox="0 0 24 24" fill="none" xmlns="http://www.w3.org/2000/svg">
<path fill-rule="evenodd" clip-rule="evenodd" d="M12 1.75C9.37665 1.75 7.25 3.87665 7.25 6.5V6.66666C6.58197 7.01135 5.98763 7.47744 5.49575 8.03613L3.46852 6.41435C3.14507 6.15559 2.67311 6.20803 2.41435 6.53148C2.15559 6.85493 2.20803 7.32689 2.53148 7.58565L4.65075 9.28107C4.33222 9.90734 4.12005 10.5975 4.03773 11.3282C4 11.663 4 12.0611 4 12.8571V13.25H2.5C2.08579 13.25 1.75 13.5858 1.75 14C1.75 14.4142 2.08579 14.75 2.5 14.75H4.03469C4.12815 15.7552 4.40758 16.7064 4.83824 17.5689L2.53148 19.4143C2.20803 19.6731 2.15559 20.1451 2.41435 20.4685C2.67311 20.792 3.14507 20.8444 3.46852 20.5857L5.63758 18.8504C7.09927 20.7648 9.40539 22 12 22C14.5946 22 16.9007 20.7648 18.3624 18.8504L20.5315 20.5857C20.8549 20.8444 21.3269 20.792 21.5857 20.4685C21.8444 20.1451 21.792 19.6731 21.4685 19.4143L19.1618 17.5689C19.5924 16.7064 19.8718 15.7552 19.9653 14.75H21.5C21.9142 14.75 22.25 14.4142 22.25 14C22.25 13.5858 21.9142 13.25 21.5 13.25H20V12.8571C20 12.0611 20 11.663 19.9623 11.3282C19.8799 10.5975 19.6678 9.90734 19.3493 9.28107L21.4685 7.58565C21.792 7.32689 21.8444 6.85493 21.5857 6.53148C21.3269 6.20803 20.8549 6.15559 20.5315 6.41435L18.5042 8.03613C18.0124 7.47744 17.418 7.01135 16.75 6.66666V6.5C16.75 3.87665 14.6234 1.75 12 1.75ZM15.2288 6.12697C15.0438 4.50773 13.6688 3.25 12 3.25C10.3312 3.25 8.95621 4.50773 8.77118 6.12697C8.95389 6.08885 9.13971 6.05897 9.32821 6.03773C9.66305 6 10.0611 6 10.8571 6H13.1429C13.9389 6 14.337 6 14.6718 6.03773C14.8603 6.05897 15.0461 6.08885 15.2288 6.12697ZM12 16.25C12.4142 16.25 12.75 16.5858 12.75 17V20C12.75 20.4142 12.4142 20.75 12 20.75C11.5858 20.75 11.25 20.4142 11.25 20V17C11.25 16.5858 11.5858 16.25 12 16.25Z" fill="#363538"/>
</svg>
