<svg width="24" height="24" viewBox="0 0 24 24" fill="none" xmlns="http://www.w3.org/2000/svg">
<path fill-rule="evenodd" clip-rule="evenodd" d="M12.9999 3C10.7908 3 8.99993 4.79086 8.99993 7V18C8.99993 19.8337 10.2338 21.3792 11.9166 21.8516V19C11.9166 18.0335 12.7001 17.25 13.6666 17.25H15.3332C16.2997 17.25 17.0832 18.0335 17.0832 19V21.8516C18.766 21.3792 19.9999 19.8337 19.9999 18V7C19.9999 4.79086 18.2091 3 15.9999 3H12.9999ZM13.8888 5.75C13.4746 5.75 13.1388 6.08579 13.1388 6.5C13.1388 6.91421 13.4746 7.25 13.8888 7.25H15.1111C15.5253 7.25 15.8611 6.91421 15.8611 6.5C15.8611 6.08579 15.5253 5.75 15.1111 5.75H13.8888ZM13.1388 9.5C13.1388 9.08579 13.4746 8.75 13.8888 8.75H15.1111C15.5253 8.75 15.8611 9.08579 15.8611 9.5C15.8611 9.91421 15.5253 10.25 15.1111 10.25H13.8888C13.4746 10.25 13.1388 9.91421 13.1388 9.5ZM13.8888 11.75C13.4746 11.75 13.1388 12.0858 13.1388 12.5C13.1388 12.9142 13.4746 13.25 13.8888 13.25H15.1111C15.5253 13.25 15.8611 12.9142 15.8611 12.5C15.8611 12.0858 15.5253 11.75 15.1111 11.75H13.8888ZM13.1388 15.5C13.1388 15.0858 13.4746 14.75 13.8888 14.75H15.1111C15.5253 14.75 15.8611 15.0858 15.8611 15.5C15.8611 15.9142 15.5253 16.25 15.1111 16.25H13.8888C13.4746 16.25 13.1388 15.9142 13.1388 15.5Z" fill="#363538"/>
<path d="M15.5832 19C15.5832 18.8619 15.4713 18.75 15.3332 18.75H13.6666C13.5285 18.75 13.4166 18.8619 13.4166 19V22H15.5832V19Z" fill="#363538"/>
<path d="M7.51519 12.6455C7.31476 13.8767 6.65014 14.8926 6.0751 15.4848V20.5C6.0751 20.9142 5.73931 21.25 5.3251 21.25C4.91088 21.25 4.5751 20.9142 4.5751 20.5V15.2944C4.04648 14.687 3.49021 13.7535 3.30984 12.6455C3.09661 11.3356 3.42192 9.84251 4.79477 8.46967C4.96349 8.30095 5.19259 8.22942 5.41252 8.25508C5.63244 8.22942 5.86154 8.30095 6.03026 8.46967C7.40311 9.84251 7.72843 11.3356 7.51519 12.6455Z" fill="#363538"/>
</svg>
