<svg width="24" height="24" viewBox="0 0 24 24" fill="none" xmlns="http://www.w3.org/2000/svg">
<path fill-rule="evenodd" clip-rule="evenodd" d="M9 3H14C15.6569 3 17 4.34315 17 6V18C17 19.6569 15.6569 21 14 21H13.75V19.5C13.75 18.2574 12.7426 17.25 11.5 17.25C10.2574 17.25 9.25 18.2574 9.25 19.5V21H9C7.34315 21 6 19.6569 6 18V6C6 4.34315 7.34315 3 9 3ZM9 5.75C8.58579 5.75 8.25 6.08579 8.25 6.5C8.25 6.91421 8.58579 7.25 9 7.25H10C10.4142 7.25 10.75 6.91421 10.75 6.5C10.75 6.08579 10.4142 5.75 10 5.75H9ZM12.25 6.5C12.25 6.08579 12.5858 5.75 13 5.75H14C14.4142 5.75 14.75 6.08579 14.75 6.5C14.75 6.91421 14.4142 7.25 14 7.25H13C12.5858 7.25 12.25 6.91421 12.25 6.5ZM9 8.75C8.58579 8.75 8.25 9.08579 8.25 9.5C8.25 9.91421 8.58579 10.25 9 10.25H10C10.4142 10.25 10.75 9.91421 10.75 9.5C10.75 9.08579 10.4142 8.75 10 8.75H9ZM8.25 12.5C8.25 12.0858 8.58579 11.75 9 11.75H10C10.4142 11.75 10.75 12.0858 10.75 12.5C10.75 12.9142 10.4142 13.25 10 13.25H9C8.58579 13.25 8.25 12.9142 8.25 12.5ZM9 14.75C8.58579 14.75 8.25 15.0858 8.25 15.5C8.25 15.9142 8.58579 16.25 9 16.25H10C10.4142 16.25 10.75 15.9142 10.75 15.5C10.75 15.0858 10.4142 14.75 10 14.75H9ZM12.25 9.5C12.25 9.08579 12.5858 8.75 13 8.75H14C14.4142 8.75 14.75 9.08579 14.75 9.5C14.75 9.91421 14.4142 10.25 14 10.25H13C12.5858 10.25 12.25 9.91421 12.25 9.5ZM13 11.75C12.5858 11.75 12.25 12.0858 12.25 12.5C12.25 12.9142 12.5858 13.25 13 13.25H14C14.4142 13.25 14.75 12.9142 14.75 12.5C14.75 12.0858 14.4142 11.75 14 11.75H13ZM12.25 15.5C12.25 15.0858 12.5858 14.75 13 14.75H14C14.4142 14.75 14.75 15.0858 14.75 15.5C14.75 15.9142 14.4142 16.25 14 16.25H13C12.5858 16.25 12.25 15.9142 12.25 15.5Z" fill="#363538"/>
<path d="M10.75 21V19.5C10.75 19.0858 11.0858 18.75 11.5 18.75C11.9142 18.75 12.25 19.0858 12.25 19.5V21H10.75Z" fill="#363538"/>
<path d="M5 9.5415C3.58114 9.77954 2.5 11.0135 2.5 12.5V17.2402C2.5 18.8971 3.84315 20.2402 5.5 20.2402H6V20.2361C5.38625 19.6868 5 18.8885 5 18V9.5415Z" fill="#363538"/>
<path d="M21.25 16.1862C21.2838 16.1214 21.3256 16.0399 21.3737 15.9442C21.5016 15.6896 21.6744 15.3325 21.8547 14.9211C22.2069 14.1171 22.6191 13.0361 22.7435 12.0986C23.0099 10.0921 22.1337 8.46389 21.5668 7.64405C21.0425 6.8859 19.9576 6.8859 19.4333 7.64405C18.8664 8.46389 17.9902 10.0921 18.2566 12.0986C18.381 13.0361 18.7932 14.1171 19.1454 14.9211C19.3257 15.3325 19.4985 15.6896 19.6264 15.9442C19.6745 16.0399 19.7163 16.1214 19.75 16.1862V19.9999C19.75 20.4142 20.0858 20.7499 20.5 20.7499C20.9143 20.7499 21.25 20.4142 21.25 19.9999V16.1862Z" fill="#363538"/>
</svg>
