<svg width="24" height="24" viewBox="0 0 24 24" fill="none" xmlns="http://www.w3.org/2000/svg">
<path fill-rule="evenodd" clip-rule="evenodd" d="M15.0007 2.99995C17.6561 2.5581 17.5003 8.00015 16.0007 11C20.0006 11.5004 25.4997 21.9997 12.0007 22C1.20065 22 0.500657 15 6.50065 11.5C6.334 8.66662 5.70066 3.09996 8.50065 3.49995C11.3001 3.90031 10.5007 8 10.5007 9.99995C10.5007 11 11.6007 11.3 12.0007 10.5C12.5005 9.49931 12.0009 3.49983 15.0007 2.99995ZM14.5309 17.9697C14.2382 17.6769 13.7633 17.6772 13.4704 17.9697C13.1225 18.3176 12.8525 18.3461 12.6696 18.3203C12.4418 18.2877 12.2069 18.1455 12.0309 17.9697C11.7382 17.6769 11.2633 17.6772 10.9704 17.9697C10.6775 18.2626 10.6775 18.7373 10.9704 19.0302C11.2943 19.3541 11.81 19.7121 12.4567 19.8046C13.1486 19.9033 13.8797 19.6814 14.5309 19.0302C14.8233 18.7374 14.8234 18.2625 14.5309 17.9697ZM10.0007 14C9.44838 14 9.00068 14.4477 9.00065 15C9.00065 15.5522 9.44837 16 10.0007 16C10.5526 15.9996 11.0007 15.552 11.0007 15C11.0006 14.4479 10.5526 14.0003 10.0007 14ZM15.0007 14C14.4484 14 14.0007 14.4477 14.0007 15C14.0007 15.5522 14.4484 16 15.0007 16C15.5526 15.9996 16.0007 15.552 16.0007 15C16.0006 14.4479 15.5526 14.0003 15.0007 14Z" fill="#363538"/>
</svg>
