<svg width="24" height="24" viewBox="0 0 24 24" fill="none" xmlns="http://www.w3.org/2000/svg">
<path fill-rule="evenodd" clip-rule="evenodd" d="M7.00006 2C4.79092 2 3.00006 3.79086 3.00006 6V12.8159C2.66209 12.6634 2.25526 12.7814 2.05481 13.1052C1.83677 13.4574 1.9455 13.9196 2.29768 14.1377L3.00006 14.5725V18C3.00006 20.2091 4.79092 22 7.00006 22H17.0001C19.2092 22 21.0001 20.2091 21.0001 18V14.5725L21.7024 14.1377C22.0546 13.9196 22.1633 13.4574 21.9453 13.1052C21.7449 12.7814 21.338 12.6634 21.0001 12.8159V6C21.0001 3.79086 19.2092 2 17.0001 2H7.00006ZM4.24944 13.9679C4.59045 14.5834 5.2466 15 6.00006 15H18.0001C18.7535 15 19.4097 14.5834 19.7507 13.9679C19.758 13.7995 19.822 13.6356 19.9355 13.506C19.9776 13.3444 20.0001 13.1748 20.0001 13V8C20.0001 6.89543 19.1046 6 18.0001 6H6.00006C4.89549 6 4.00006 6.89543 4.00006 8V13C4.00006 13.1748 4.02248 13.3444 4.06461 13.506C4.17814 13.6356 4.24207 13.7995 4.24944 13.9679ZM7.50006 19C8.32849 19 9.00006 18.3284 9.00006 17.5C9.00006 16.6716 8.32849 16 7.50006 16C6.67163 16 6.00006 16.6716 6.00006 17.5C6.00006 18.3284 6.67163 19 7.50006 19ZM18.0001 17.5C18.0001 18.3284 17.3285 19 16.5001 19C15.6716 19 15.0001 18.3284 15.0001 17.5C15.0001 16.6716 15.6716 16 16.5001 16C17.3285 16 18.0001 16.6716 18.0001 17.5Z" fill="#363538"/>
</svg>
