<svg width="24" height="24" viewBox="0 0 24 24" fill="none" xmlns="http://www.w3.org/2000/svg">
<path d="M19.6598 3.00052C22.1662 2.26509 23.1658 13.4984 16.1627 13.4995C21.166 13.4999 21.6644 16.4955 20.1627 19.4995C18.7944 22.2362 13.2799 22.4766 12.6871 14.1851L12.6627 13.7837C12.5951 14.7308 12.4897 15.6785 12.3424 16.6255C12.323 16.7504 12.3026 16.8757 12.2818 17.0005C12.2702 17.069 12.2385 17.1347 12.1871 17.1831C12.1357 17.2316 12.0692 17.2592 12.0006 17.2593C11.9321 17.2593 11.8655 17.2314 11.8141 17.1831C11.7627 17.1347 11.7309 17.0689 11.7193 17.0005C11.6985 16.8757 11.6782 16.7503 11.6588 16.6255C11.5626 16.0069 11.4837 15.3877 11.4215 14.7691C11.4225 14.7788 11.4234 14.7887 11.4244 14.7984C10.6094 22.4624 5.33846 22.1666 4.00449 19.4995C2.50274 16.4954 3.00069 13.4997 8.00449 13.4995C1.00044 13.4989 2.00066 2.26387 4.50742 3.00052C12.699 5.40901 9.28152 7.81878 11.2594 11.1236C11.2872 10.7075 11.384 10.2916 11.5504 9.87552C11.6004 9.75059 11.6569 9.62546 11.7193 9.50052C11.7489 9.44231 11.7855 9.38643 11.8346 9.34525C11.8837 9.30408 11.9414 9.2808 12.0006 9.2808C12.0596 9.28091 12.1176 9.30417 12.1666 9.34525C12.2155 9.38639 12.2524 9.4425 12.2818 9.50052C12.3442 9.62534 12.4008 9.75071 12.4508 9.87552C12.6499 10.3735 12.7489 10.8717 12.7496 11.3697C15.0602 7.93735 11.2652 5.46854 19.6598 3.00052Z" fill="#363538"/>
</svg>
