<svg width="24" height="24" viewBox="0 0 24 24" fill="none" xmlns="http://www.w3.org/2000/svg">
<path d="M10 20.25V16H5C3.89543 16 3 15.1046 3 14V10C3 8.89543 3.89543 8 5 8C6.10457 8 7 8.89543 7 10V12H9.5V5.5C9.5 4.11929 10.6193 3 12 3C13.3807 3 14.5 4.11929 14.5 5.5V14H17V11C17 9.89543 17.8954 9 19 9C20.1046 9 21 9.89543 21 11V16C21 17.1046 20.1046 18 19 18H15V20.25H18C18.4142 20.25 18.75 20.5858 18.75 21C18.75 21.4142 18.4142 21.75 18 21.75H7C6.58579 21.75 6.25 21.4142 6.25 21C6.25 20.5858 6.58579 20.25 7 20.25H10Z" fill="#363538"/>
</svg>
