<svg width="24" height="24" viewBox="0 0 24 24" fill="none" xmlns="http://www.w3.org/2000/svg">
<path d="M13.1708 4.33533C13.3561 3.96485 13.2059 3.51434 12.8354 3.3291C12.4649 3.14386 12.0144 3.29403 11.8292 3.66451L11.3292 4.66451C11.1439 5.03499 11.2941 5.4855 11.6646 5.67074C12.0351 5.85598 12.4856 5.70581 12.6708 5.33533L13.1708 4.33533Z" fill="#363538"/>
<path d="M12 6.74992C12.4142 6.74992 12.75 7.08571 12.75 7.49992V12.2499H15.25V9.99992C15.25 9.58571 15.5858 9.24992 16 9.24992C16.4142 9.24992 16.75 9.58571 16.75 9.99992V12.2499H19C19.9665 12.2499 20.75 13.0334 20.75 13.9999V20.2499H22C22.4142 20.2499 22.75 20.5857 22.75 20.9999C22.75 21.4141 22.4142 21.7499 22 21.7499H2C1.58579 21.7499 1.25 21.4141 1.25 20.9999C1.25 20.5857 1.58579 20.2499 2 20.2499H3.25V13.9999C3.25 13.0334 4.0335 12.2499 5 12.2499H7.25V9.99992C7.25 9.58571 7.58579 9.24992 8 9.24992C8.41421 9.24992 8.75 9.58571 8.75 9.99992V12.2499H11.25V7.49992C11.25 7.08571 11.5858 6.74992 12 6.74992Z" fill="#363538"/>
</svg>
