<svg width="24" height="24" viewBox="0 0 24 24" fill="none" xmlns="http://www.w3.org/2000/svg">
<path d="M15 6.5H9C8.72386 6.5 8.5 6.72386 8.5 7V8C8.5 8.27614 8.72386 8.5 9 8.5H15C15.2761 8.5 15.5 8.27614 15.5 8V7C15.5 6.72386 15.2761 6.5 15 6.5Z" fill="#363538"/>
<path fill-rule="evenodd" clip-rule="evenodd" d="M4 6C4 3.79086 5.79086 2 8 2H16C18.2091 2 20 3.79086 20 6V18C20 20.2091 18.2091 22 16 22H8C5.79086 22 4 20.2091 4 18V6ZM9 5C7.89543 5 7 5.89543 7 7V8C7 9.10457 7.89543 10 9 10H15C16.1046 10 17 9.10457 17 8V7C17 5.89543 16.1046 5 15 5H9ZM15.5 11.25C14.9477 11.25 14.5 11.6977 14.5 12.25C14.5 12.8023 14.9477 13.25 15.5 13.25C16.0523 13.25 16.5 12.8023 16.5 12.25C16.5 11.6977 16.0523 11.25 15.5 11.25ZM12 11.25C11.4477 11.25 11 11.6977 11 12.25C11 12.8023 11.4477 13.25 12 13.25C12.5523 13.25 13 12.8023 13 12.25C13 11.6977 12.5523 11.25 12 11.25ZM7.5 12.25C7.5 11.6977 7.94772 11.25 8.5 11.25C9.05229 11.25 9.5 11.6977 9.5 12.25C9.5 12.8023 9.05229 13.25 8.5 13.25C7.94771 13.25 7.5 12.8023 7.5 12.25ZM14.5 15.25C14.5 14.6977 14.9477 14.25 15.5 14.25C16.0523 14.25 16.5 14.6977 16.5 15.25C16.5 15.8023 16.0523 16.25 15.5 16.25C14.9477 16.25 14.5 15.8023 14.5 15.25ZM11 15.25C11 14.6977 11.4477 14.25 12 14.25C12.5523 14.25 13 14.6977 13 15.25C13 15.8023 12.5523 16.25 12 16.25C11.4477 16.25 11 15.8023 11 15.25ZM8.5 14.25C7.94772 14.25 7.5 14.6977 7.5 15.25C7.5 15.8023 7.94771 16.25 8.5 16.25C9.05229 16.25 9.5 15.8023 9.5 15.25C9.5 14.6977 9.05229 14.25 8.5 14.25ZM15.5 17.25C14.9477 17.25 14.5 17.6977 14.5 18.25C14.5 18.8023 14.9477 19.25 15.5 19.25C16.0523 19.25 16.5 18.8023 16.5 18.25C16.5 17.6977 16.0523 17.25 15.5 17.25ZM12 17.25C11.4477 17.25 11 17.6977 11 18.25C11 18.8023 11.4477 19.25 12 19.25C12.5523 19.25 13 18.8023 13 18.25C13 17.6977 12.5523 17.25 12 17.25ZM7.5 18.25C7.5 17.6977 7.94772 17.25 8.5 17.25C9.05229 17.25 9.5 17.6977 9.5 18.25C9.5 18.8023 9.05229 19.25 8.5 19.25C7.94771 19.25 7.5 18.8023 7.5 18.25Z" fill="#363538"/>
</svg>
