<svg width="24" height="24" viewBox="0 0 24 24" fill="none" xmlns="http://www.w3.org/2000/svg">
<path fill-rule="evenodd" clip-rule="evenodd" d="M7.75 3H16.25V6C16.25 6.41421 16.5858 6.75 17 6.75C17.4142 6.75 17.75 6.41421 17.75 6V3H18C20.2091 3 22 4.79086 22 7V15.9258C21.1796 14.5422 19.7036 13.5932 18 13.5065L18 13.5C18 12.9477 17.5523 12.5 17 12.5C16.4477 12.5 16 12.9477 16 13.5C16 13.6045 16.016 13.7053 16.0458 13.8C15.4826 14.0062 14.9672 14.3117 14.5217 14.6948C14.0135 15.132 13.87 15.8355 14.1199 16.4209C13.8002 16.4663 13.5015 16.6142 13.2705 16.8453L12.9925 17.1233C12.9974 17.0829 13 17.0417 13 17C13 16.4477 12.5523 16 12 16C11.4477 16 11 16.4477 11 17C11 17.5523 11.4477 18 12 18C12.0656 18 12.1297 17.9937 12.1918 17.9816C11.8361 18.5597 11.9087 19.3266 12.4096 19.8275C12.6245 20.0425 12.8885 20.1786 13.1656 20.2358C13.4269 20.9075 13.8308 21.508 14.3402 22H6C3.79086 22 2 20.2091 2 18V7C2 4.79086 3.79086 3 6 3H6.25V6C6.25 6.41421 6.58579 6.75 7 6.75C7.41421 6.75 7.75 6.41421 7.75 6V3ZM8 10C8 10.5523 7.55228 11 7 11C6.44772 11 6 10.5523 6 10C6 9.44772 6.44772 9 7 9C7.55228 9 8 9.44772 8 10ZM12 11C12.5523 11 13 10.5523 13 10C13 9.44772 12.5523 9 12 9C11.4477 9 11 9.44772 11 10C11 10.5523 11.4477 11 12 11ZM18 10C18 10.5523 17.5523 11 17 11C16.4477 11 16 10.5523 16 10C16 9.44772 16.4477 9 17 9C17.5523 9 18 9.44772 18 10ZM7 14.5C7.55228 14.5 8 14.0523 8 13.5C8 12.9477 7.55228 12.5 7 12.5C6.44772 12.5 6 12.9477 6 13.5C6 14.0523 6.44772 14.5 7 14.5ZM13 13.5C13 14.0523 12.5523 14.5 12 14.5C11.4477 14.5 11 14.0523 11 13.5C11 12.9477 11.4477 12.5 12 12.5C12.5523 12.5 13 12.9477 13 13.5ZM8 17C8 17.5523 7.55228 18 7 18C6.44772 18 6 17.5523 6 17C6 16.4477 6.44772 16 7 16C7.55228 16 8 16.4477 8 17Z" fill="#363538"/>
<path d="M15.989 16.4006C16.4609 15.9946 17.0733 15.75 17.7446 15.75C18.8541 15.75 19.8069 16.4207 20.2197 17.3788C20.065 17.4011 19.9159 17.4717 19.7969 17.5908C19.504 17.8837 19.504 18.3585 19.7969 18.6514L20.6578 19.5124C20.7985 19.653 20.9892 19.732 21.1882 19.732C21.3871 19.732 21.5778 19.653 21.7185 19.5124L22.5794 18.6514C22.8723 18.3585 22.8723 17.8837 22.5794 17.5908C22.3713 17.3827 22.0713 17.3224 21.81 17.41C21.3496 15.5938 19.704 14.25 17.7446 14.25C16.7009 14.25 15.7446 14.6322 15.0108 15.2634C14.6968 15.5335 14.6612 16.0071 14.9314 16.3211C15.2015 16.6351 15.675 16.6707 15.989 16.4006Z" fill="#363538"/>
<path d="M14.8615 17.3756C14.7208 17.2349 14.5301 17.1559 14.3312 17.1559C14.1323 17.1559 13.9415 17.2349 13.8008 17.3756L12.9399 18.2365C12.647 18.5294 12.647 19.0043 12.9399 19.2972C13.148 19.5053 13.448 19.5655 13.7093 19.4779C14.1698 21.2941 15.8153 22.6377 17.7746 22.6377C18.8554 22.6377 19.8422 22.2279 20.5853 21.5565C20.8927 21.2788 20.9167 20.8046 20.639 20.4972C20.3614 20.1899 19.8871 20.1658 19.5798 20.4435C19.1015 20.8755 18.4696 21.1377 17.7746 21.1377C16.6653 21.1377 15.7125 20.4671 15.2997 19.5092C15.4544 19.4869 15.6034 19.4162 15.7224 19.2972C16.0153 19.0043 16.0153 18.5294 15.7224 18.2365L14.8615 17.3756Z" fill="#363538"/>
</svg>
