<svg width="24" height="24" viewBox="0 0 24 24" fill="none" xmlns="http://www.w3.org/2000/svg">
<path fill-rule="evenodd" clip-rule="evenodd" d="M6.25 6C6.25 6.41421 6.58579 6.75 7 6.75C7.41421 6.75 7.75 6.41421 7.75 6V3H16.25V6C16.25 6.41421 16.5858 6.75 17 6.75C17.4142 6.75 17.75 6.41421 17.75 6V3H18C20.2091 3 22 4.79086 22 7V14.1406C21.7579 13.8656 21.4427 13.6554 21.0859 13.541L20.9023 13.4912L20.0234 13.2979L19.8135 13.2637C19.3923 13.2158 18.9631 13.2981 18.5879 13.5049L18.4053 13.6182L17.8701 13.9902C17.952 13.8452 18 13.6784 18 13.5C18 12.9477 17.5523 12.5 17 12.5C16.4477 12.5 16 12.9477 16 13.5C16 14.0523 16.4477 14.5 17 14.5C17.0543 14.5 17.1072 14.4937 17.1592 14.4854L13.167 17.2686L12.333 17.0391L12.1699 17.001C11.4058 16.8562 10.5994 17.1536 10.127 17.8076L10.0303 17.9531L9.78613 18.3604C9.18598 19.3608 9.56699 20.6135 10.542 21.1553L12.0615 22H6C3.79086 22 2 20.2091 2 18V7C2 4.79086 3.79086 3 6 3H6.25V6ZM7 16C6.44772 16 6 16.4477 6 17C6 17.5523 6.44772 18 7 18C7.55228 18 8 17.5523 8 17C8 16.4477 7.55228 16 7 16ZM7 12.5C6.44772 12.5 6 12.9477 6 13.5C6 14.0523 6.44772 14.5 7 14.5C7.55228 14.5 8 14.0523 8 13.5C8 12.9477 7.55228 12.5 7 12.5ZM12 12.5C11.4477 12.5 11 12.9477 11 13.5C11 14.0523 11.4477 14.5 12 14.5C12.5523 14.5 13 14.0523 13 13.5C13 12.9477 12.5523 12.5 12 12.5ZM7 9C6.44772 9 6 9.44772 6 10C6 10.5523 6.44772 11 7 11C7.55228 11 8 10.5523 8 10C8 9.44772 7.55228 9 7 9ZM12 9C11.4477 9 11 9.44772 11 10C11 10.5523 11.4477 11 12 11C12.5523 11 13 10.5523 13 10C13 9.44772 12.5523 9 12 9ZM17 9C16.4477 9 16 9.44772 16 10C16 10.5523 16.4477 11 17 11C17.5523 11 18 10.5523 18 10C18 9.44772 17.5523 9 17 9Z" fill="#363538"/>
<path d="M19.7012 14.7627L20.5791 14.9561C20.8536 15.0165 21.0341 15.2698 20.9941 15.5381L20.9082 16.1162C20.89 16.2381 20.8271 16.3499 20.7314 16.4316L19.3887 17.5771C19.2473 17.6978 19.1821 17.8816 19.2158 18.0605L19.7549 20.9189C19.7907 21.1087 19.7142 21.3026 19.5566 21.4219L19.2695 21.6387C19.0137 21.832 18.6395 21.7662 18.4717 21.498L17.3867 19.7627C17.234 19.519 16.9059 19.4387 16.6504 19.582L14.0098 21.0635C13.8421 21.1574 13.6348 21.1578 13.4668 21.0645L11.2705 19.8438C11.012 19.7 10.9232 19.3818 11.0723 19.1328L11.3174 18.7246C11.4417 18.518 11.696 18.4187 11.9346 18.4844L13.1953 18.832C13.3551 18.876 13.5275 18.8467 13.6621 18.7529L19.2627 14.8486C19.389 14.7606 19.5491 14.7292 19.7012 14.7627Z" fill="#363538"/>
</svg>
