<svg width="24" height="24" viewBox="0 0 24 24" fill="none" xmlns="http://www.w3.org/2000/svg">
<path fill-rule="evenodd" clip-rule="evenodd" d="M16.25 3H7.75V6C7.75 6.41421 7.41421 6.75 7 6.75C6.58579 6.75 6.25 6.41421 6.25 6V3H6C3.79086 3 2 4.79086 2 7V18C2 20.2091 3.79086 22 6 22H16.2674C15.8253 21.2351 15.9314 20.2402 16.5858 19.5858L16.6716 19.5L16.5858 19.4142C16.0437 18.8722 15.8779 18.0963 16.0882 17.4112C16.0315 17.2858 16 17.1466 16 17C16 16.4477 16.4477 16 17 16C17.1466 16 17.2858 16.0315 17.4112 16.0882C18.0963 15.8779 18.8722 16.0437 19.4142 16.5858L19.5 16.6716L19.5858 16.5858C20.2402 15.9314 21.2351 15.8253 22 16.2674V7C22 4.79086 20.2091 3 18 3H17.75V6C17.75 6.41421 17.4142 6.75 17 6.75C16.5858 6.75 16.25 6.41421 16.25 6V3ZM7 11C7.55228 11 8 10.5523 8 10C8 9.44772 7.55228 9 7 9C6.44772 9 6 9.44772 6 10C6 10.5523 6.44772 11 7 11ZM13 10C13 10.5523 12.5523 11 12 11C11.4477 11 11 10.5523 11 10C11 9.44772 11.4477 9 12 9C12.5523 9 13 9.44772 13 10ZM17 11C17.5523 11 18 10.5523 18 10C18 9.44772 17.5523 9 17 9C16.4477 9 16 9.44772 16 10C16 10.5523 16.4477 11 17 11ZM8 13.5C8 14.0523 7.55228 14.5 7 14.5C6.44772 14.5 6 14.0523 6 13.5C6 12.9477 6.44772 12.5 7 12.5C7.55228 12.5 8 12.9477 8 13.5ZM12 14.5C12.5523 14.5 13 14.0523 13 13.5C13 12.9477 12.5523 12.5 12 12.5C11.4477 12.5 11 12.9477 11 13.5C11 14.0523 11.4477 14.5 12 14.5ZM18 13.5C18 14.0523 17.5523 14.5 17 14.5C16.4477 14.5 16 14.0523 16 13.5C16 12.9477 16.4477 12.5 17 12.5C17.5523 12.5 18 12.9477 18 13.5ZM7 18C7.55228 18 8 17.5523 8 17C8 16.4477 7.55228 16 7 16C6.44772 16 6 16.4477 6 17C6 17.5523 6.44772 18 7 18ZM13 17C13 17.5523 12.5523 18 12 18C11.4477 18 11 17.5523 11 17C11 16.4477 11.4477 16 12 16C12.5523 16 13 16.4477 13 17Z" fill="#363538"/>
<path d="M19.5 18.4393L18.5303 17.4697C18.2374 17.1768 17.7626 17.1768 17.4697 17.4697C17.1768 17.7626 17.1768 18.2374 17.4697 18.5303L18.4393 19.5L17.4697 20.4697C17.1768 20.7626 17.1768 21.2374 17.4697 21.5303C17.7626 21.8232 18.2374 21.8232 18.5303 21.5303L19.5 20.5607L20.4697 21.5303C20.7626 21.8232 21.2374 21.8232 21.5303 21.5303C21.8232 21.2374 21.8232 20.7626 21.5303 20.4697L20.5607 19.5L21.5303 18.5303C21.8232 18.2374 21.8232 17.7626 21.5303 17.4697C21.2374 17.1768 20.7626 17.1768 20.4697 17.4697L19.5 18.4393Z" fill="#363538"/>
</svg>
