<svg width="24" height="24" viewBox="0 0 24 24" fill="none" xmlns="http://www.w3.org/2000/svg">
<path fill-rule="evenodd" clip-rule="evenodd" d="M6.25 3H6C3.79086 3 2 4.79086 2 7V18C2 20.2091 3.79086 22 6 22H14.2251C13.1629 20.9972 12.5 19.576 12.5 18C12.5 17.955 12.5005 17.9101 12.5016 17.8653C12.3542 17.9509 12.1828 18 12 18C11.4477 18 11 17.5523 11 17C11 16.4477 11.4477 16 12 16C12.3008 16 12.5707 16.1328 12.754 16.3431C13.2905 14.6428 14.6308 13.2993 16.3292 12.7584C16.5066 12.5978 16.7419 12.5 17 12.5C17.1031 12.5 17.2026 12.5156 17.2962 12.5446C17.5267 12.5152 17.7616 12.5 18 12.5C19.576 12.5 20.9972 13.1629 22 14.2251V7C22 4.79086 20.2091 3 18 3H17.75V6C17.75 6.41421 17.4142 6.75 17 6.75C16.5858 6.75 16.25 6.41421 16.25 6V3H7.75V6C7.75 6.41421 7.41421 6.75 7 6.75C6.58579 6.75 6.25 6.41421 6.25 6V3ZM8 10C8 10.5523 7.55228 11 7 11C6.44772 11 6 10.5523 6 10C6 9.44772 6.44772 9 7 9C7.55228 9 8 9.44772 8 10ZM13 10C13 10.5523 12.5523 11 12 11C11.4477 11 11 10.5523 11 10C11 9.44772 11.4477 9 12 9C12.5523 9 13 9.44772 13 10ZM17 11C17.5523 11 18 10.5523 18 10C18 9.44772 17.5523 9 17 9C16.4477 9 16 9.44772 16 10C16 10.5523 16.4477 11 17 11ZM8 13.5C8 14.0523 7.55228 14.5 7 14.5C6.44772 14.5 6 14.0523 6 13.5C6 12.9477 6.44772 12.5 7 12.5C7.55228 12.5 8 12.9477 8 13.5ZM12 14.5C12.5523 14.5 13 14.0523 13 13.5C13 12.9477 12.5523 12.5 12 12.5C11.4477 12.5 11 12.9477 11 13.5C11 14.0523 11.4477 14.5 12 14.5ZM7 18C7.55228 18 8 17.5523 8 17C8 16.4477 7.55228 16 7 16C6.44772 16 6 16.4477 6 17C6 17.5523 6.44772 18 7 18Z" fill="#363538"/>
<path fill-rule="evenodd" clip-rule="evenodd" d="M22 18C22 20.2091 20.2091 22 18 22C15.7909 22 14 20.2091 14 18C14 15.7909 15.7909 14 18 14C20.2091 14 22 15.7909 22 18ZM18 16.25C18.4142 16.25 18.75 16.5858 18.75 17V17.65H19C19.4142 17.65 19.75 17.9858 19.75 18.4C19.75 18.8142 19.4142 19.15 19 19.15H18C17.5858 19.15 17.25 18.8142 17.25 18.4V17C17.25 16.5858 17.5858 16.25 18 16.25Z" fill="#363538"/>
</svg>
