<svg width="24" height="24" viewBox="0 0 24 24" fill="none" xmlns="http://www.w3.org/2000/svg">
<path fill-rule="evenodd" clip-rule="evenodd" d="M7.75 3H16.25V6C16.25 6.41421 16.5858 6.75 17 6.75C17.4142 6.75 17.75 6.41421 17.75 6V3H18C20.2091 3 22 4.79086 22 7V13.6055C20.7901 12.7734 19.1681 12.7989 17.9835 13.682C17.9943 13.623 18 13.5622 18 13.5C18 12.9477 17.5523 12.5 17 12.5C16.4477 12.5 16 12.9477 16 13.5C16 14.0523 16.4477 14.5 17 14.5C17.0411 14.5 17.0816 14.4975 17.1214 14.4927L14.1013 17.5128C13.7163 17.8978 13.5 18.42 13.5 18.9644V20.9471C13.5 21.332 13.6059 21.6921 13.7902 22H6C3.79086 22 2 20.2091 2 18V7C2 4.79086 3.79086 3 6 3H6.25V6C6.25 6.41421 6.58579 6.75 7 6.75C7.41421 6.75 7.75 6.41421 7.75 6V3ZM8 10C8 10.5523 7.55228 11 7 11C6.44772 11 6 10.5523 6 10C6 9.44772 6.44772 9 7 9C7.55228 9 8 9.44772 8 10ZM12 11C12.5523 11 13 10.5523 13 10C13 9.44772 12.5523 9 12 9C11.4477 9 11 9.44772 11 10C11 10.5523 11.4477 11 12 11ZM18 10C18 10.5523 17.5523 11 17 11C16.4477 11 16 10.5523 16 10C16 9.44772 16.4477 9 17 9C17.5523 9 18 9.44772 18 10ZM7 14.5C7.55228 14.5 8 14.0523 8 13.5C8 12.9477 7.55228 12.5 7 12.5C6.44772 12.5 6 12.9477 6 13.5C6 14.0523 6.44772 14.5 7 14.5ZM13 13.5C13 14.0523 12.5523 14.5 12 14.5C11.4477 14.5 11 14.0523 11 13.5C11 12.9477 11.4477 12.5 12 12.5C12.5523 12.5 13 12.9477 13 13.5ZM8 17C8 17.5523 7.55228 18 7 18C6.44772 18 6 17.5523 6 17C6 16.4477 6.44772 16 7 16C7.55228 16 8 16.4477 8 17ZM12 18C12.5523 18 13 17.5523 13 17C13 16.4477 12.5523 16 12 16C11.4477 16 11 16.4477 11 17C11 17.5523 11.4477 18 12 18Z" fill="#363538"/>
<path fill-rule="evenodd" clip-rule="evenodd" d="M21.9353 16.9549C21.9784 16.7915 21.9999 16.6235 22 16.4556V16.4541C21.9998 15.9541 21.809 15.4541 21.4274 15.0726C20.664 14.3091 19.4262 14.3091 18.6628 15.0726L15.1619 18.5734C15.0583 18.6771 15 18.8178 15 18.9644V20.9471C15 21.2524 15.2476 21.5 15.5529 21.5H17.5356C17.6822 21.5 17.8229 21.4417 17.9266 21.3381L21.4274 17.8372C21.6808 17.5838 21.8501 17.2781 21.9353 16.9549ZM16.5 20V19.3567L19.7235 16.1332C19.9011 15.9556 20.1891 15.9556 20.3668 16.1332C20.5444 16.3109 20.5444 16.5989 20.3668 16.7765L17.1433 20H16.5Z" fill="#363538"/>
</svg>
