<svg width="24" height="24" viewBox="0 0 24 24" fill="none" xmlns="http://www.w3.org/2000/svg">
<path d="M12.7142 15.9454C12.513 16.0377 12.2763 16.0839 12.004 16.0839C11.7294 16.0839 11.4903 16.0365 11.2867 15.9419C11.0854 15.8472 10.9292 15.7158 10.8179 15.5477C10.7067 15.3772 10.6522 15.1807 10.6546 14.9582C10.6522 14.7262 10.709 14.5214 10.825 14.3438C10.9434 14.1639 11.1044 14.0231 11.308 13.9213C11.5116 13.8195 11.7436 13.7686 12.004 13.7686C12.262 13.7686 12.4917 13.8195 12.6929 13.9213C12.8965 14.0231 13.0563 14.1639 13.1723 14.3438C13.2907 14.5214 13.3511 14.7262 13.3534 14.9582C13.3511 15.1807 13.2942 15.3772 13.183 15.5477C13.0717 15.7181 12.9155 15.8507 12.7142 15.9454Z" fill="#363538"/>
<path d="M12.5935 12.6357C12.423 12.7257 12.2265 12.7707 12.004 12.7707C11.7791 12.7707 11.579 12.7257 11.4039 12.6357C11.231 12.5434 11.0949 12.4179 10.9955 12.2593C10.8984 12.0983 10.8511 11.9125 10.8534 11.7018C10.8511 11.4935 10.8972 11.3112 10.9919 11.1549C11.089 10.9963 11.2239 10.8744 11.3968 10.7892C11.5719 10.7016 11.7744 10.6578 12.004 10.6578C12.2289 10.6578 12.4278 10.7016 12.6006 10.7892C12.7734 10.8744 12.9084 10.9963 13.0054 11.1549C13.1025 11.3112 13.1522 11.4935 13.1546 11.7018C13.1522 11.9125 13.1013 12.0983 13.0019 12.2593C12.9024 12.4203 12.7663 12.5458 12.5935 12.6357Z" fill="#363538"/>
<path fill-rule="evenodd" clip-rule="evenodd" d="M7.75 3H16.25V6C16.25 6.41421 16.5858 6.75 17 6.75C17.4142 6.75 17.75 6.41421 17.75 6V3H18C20.2091 3 22 4.79086 22 7V18C22 20.2091 20.2091 22 18 22H6C3.79086 22 2 20.2091 2 18V7C2 4.79086 3.79086 3 6 3H6.25V6C6.25 6.41421 6.58579 6.75 7 6.75C7.41421 6.75 7.75 6.41421 7.75 6V3ZM10.5978 16.8332C11.0073 17.0107 11.4761 17.0995 12.004 17.0995C12.5296 17.0995 12.9948 17.0107 13.3996 16.8332C13.8068 16.6556 14.1264 16.413 14.3584 16.1052C14.5904 15.7951 14.7064 15.4435 14.7064 15.0505C14.7064 14.7451 14.6378 14.4646 14.5005 14.2089C14.3655 13.9532 14.1832 13.7401 13.9536 13.5697C13.7263 13.3969 13.4706 13.2868 13.1865 13.2394V13.1897C13.5535 13.1069 13.853 12.9163 14.085 12.618C14.3193 12.3173 14.4365 11.9705 14.4365 11.5775C14.4365 11.2035 14.33 10.8696 14.1169 10.5761C13.9062 10.2825 13.6174 10.0517 13.2505 9.88361C12.8859 9.71316 12.4704 9.62793 12.004 9.62793C11.5329 9.62793 11.1138 9.71316 10.7469 9.88361C10.3799 10.0517 10.0911 10.2825 9.88042 10.5761C9.66972 10.8696 9.56555 11.2035 9.56792 11.5775C9.56555 11.9705 9.67919 12.3173 9.90883 12.618C10.1408 12.9163 10.4439 13.1069 10.8179 13.1897V13.2394C10.5338 13.2868 10.2758 13.3969 10.0438 13.5697C9.81413 13.7401 9.63184 13.9532 9.4969 14.2089C9.36196 14.4646 9.29567 14.7451 9.29803 15.0505C9.29567 15.4435 9.4093 15.7951 9.63894 16.1052C9.87095 16.413 10.1906 16.6556 10.5978 16.8332Z" fill="#363538"/>
</svg>
