<svg width="24" height="24" viewBox="0 0 24 24" fill="none" xmlns="http://www.w3.org/2000/svg">
<path fill-rule="evenodd" clip-rule="evenodd" d="M16.25 3H7.75V6C7.75 6.41421 7.41421 6.75 7 6.75C6.58579 6.75 6.25 6.41421 6.25 6V3H6C3.79086 3 2 4.79086 2 7V18C2 20.2091 3.79086 22 6 22H16.6892L15.6359 21.0178C14.8281 20.2644 14.784 18.9989 15.5373 18.1911C15.7501 17.9629 16.0037 17.7957 16.2763 17.6901C16.1051 17.5107 16 17.2676 16 17C16 16.4477 16.4477 16 17 16C17.5523 16 18 16.4477 18 17C18 17.2676 17.8949 17.5106 17.7237 17.6901C17.9543 17.7795 18.1721 17.9135 18.3641 18.0925L18.4753 18.1962L20.0858 16.5858C20.6046 16.067 21.3374 15.8928 22 16.0632V7C22 4.79086 20.2091 3 18 3H17.75V6C17.75 6.41421 17.4142 6.75 17 6.75C16.5858 6.75 16.25 6.41421 16.25 6V3ZM7 11C7.55228 11 8 10.5523 8 10C8 9.44772 7.55228 9 7 9C6.44772 9 6 9.44772 6 10C6 10.5523 6.44772 11 7 11ZM13 10C13 10.5523 12.5523 11 12 11C11.4477 11 11 10.5523 11 10C11 9.44772 11.4477 9 12 9C12.5523 9 13 9.44772 13 10ZM17 11C17.5523 11 18 10.5523 18 10C18 9.44772 17.5523 9 17 9C16.4477 9 16 9.44772 16 10C16 10.5523 16.4477 11 17 11ZM8 13.5C8 14.0523 7.55228 14.5 7 14.5C6.44772 14.5 6 14.0523 6 13.5C6 12.9477 6.44772 12.5 7 12.5C7.55228 12.5 8 12.9477 8 13.5ZM12 14.5C12.5523 14.5 13 14.0523 13 13.5C13 12.9477 12.5523 12.5 12 12.5C11.4477 12.5 11 12.9477 11 13.5C11 14.0523 11.4477 14.5 12 14.5ZM18 13.5C18 14.0523 17.5523 14.5 17 14.5C16.4477 14.5 16 14.0523 16 13.5C16 12.9477 16.4477 12.5 17 12.5C17.5523 12.5 18 12.9477 18 13.5ZM7 18C7.55228 18 8 17.5523 8 17C8 16.4477 7.55228 16 7 16C6.44772 16 6 16.4477 6 17C6 17.5523 6.44772 18 7 18ZM13 17C13 17.5523 12.5523 18 12 18C11.4477 18 11 17.5523 11 17C11 16.4477 11.4477 16 12 16C12.5523 16 13 16.4477 13 17Z" fill="#363538"/>
<path d="M19.0541 21.5065L22.0303 18.5303C22.3232 18.2374 22.3232 17.7626 22.0303 17.4697C21.7374 17.1768 21.2626 17.1768 20.9697 17.4697L18.5056 19.9337L17.5115 19.0066C17.2086 18.7241 16.734 18.7407 16.4515 19.0436C16.169 19.3465 16.1856 19.8211 16.4885 20.1036L18.0123 21.5247C18.3078 21.8003 18.7684 21.7922 19.0541 21.5065Z" fill="#363538"/>
</svg>
