<svg width="24" height="24" viewBox="0 0 24 24" fill="none" xmlns="http://www.w3.org/2000/svg">
<path d="M3.05738 6.20075L3.91682 4.48188C4.52732 3.26088 6.1546 2.99681 7.11988 3.96209L9.40162 6.24383C10.0103 6.85255 10.1613 7.78249 9.77626 8.55247L9.51353 9.07793C9.09083 9.92333 9.0838 10.9237 9.57634 11.7304C9.96194 12.362 10.4556 13.0873 10.9472 13.5789C11.371 14.0026 11.9682 14.4279 12.5295 14.7841C13.4701 15.3812 14.67 15.2686 15.5673 14.6084C16.3675 14.0196 17.4803 14.1163 18.167 14.8343L20.1264 16.8831C21.057 17.8562 20.7797 19.4522 19.5754 20.0543L17.7991 20.9425C16.4186 21.6327 14.8545 21.9259 13.3953 21.423C11.6426 20.8188 9.13069 19.6108 6.75988 17.24C4.38906 14.8692 3.18108 12.3573 2.5769 10.6046C2.07391 9.14538 2.36714 7.58124 3.05738 6.20075Z" fill="#363538"/>
<path d="M15.5354 8.12131C14.8819 7.46781 14.0879 7.11591 13.4848 7.20206C13.2115 7.24111 12.9582 7.05115 12.9192 6.77779C12.8801 6.50442 13.0701 6.25115 13.3434 6.2121C14.3903 6.06257 15.4818 6.65349 16.2425 7.41421C17.0033 8.17493 17.5942 9.2665 17.4446 10.3134C17.4056 10.5867 17.1523 10.7767 16.8789 10.7376C16.6056 10.6986 16.4156 10.4453 16.4547 10.1719C16.5408 9.56886 16.1889 8.77481 15.5354 8.12131Z" fill="#363538"/>
<path d="M12.8844 9.2959C13.8484 8.93025 14.7265 9.80837 14.3608 10.7724C14.2629 11.0306 14.3928 11.3193 14.651 11.4172C14.9092 11.5152 15.1979 11.3853 15.2958 11.1271C15.9672 9.35697 14.2998 7.6895 12.5297 8.3609C12.2715 8.45883 12.1416 8.74753 12.2395 9.00572C12.3375 9.26392 12.6262 9.39383 12.8844 9.2959Z" fill="#363538"/>
</svg>
