<svg width="24" height="24" viewBox="0 0 24 24" fill="none" xmlns="http://www.w3.org/2000/svg">
<path d="M3.05738 6.20075L3.91682 4.48188C4.52732 3.26088 6.1546 2.99681 7.11988 3.96209L9.40162 6.24383C10.0103 6.85255 10.1613 7.78249 9.77626 8.55247L9.51353 9.07793C9.09083 9.92333 9.0838 10.9237 9.57634 11.7304C9.96194 12.362 10.4556 13.0873 10.9472 13.5789C11.371 14.0026 11.9682 14.4279 12.5295 14.7841C13.4701 15.3812 14.67 15.2686 15.5673 14.6084C16.3675 14.0196 17.4803 14.1163 18.167 14.8343L20.1264 16.8831C21.057 17.8562 20.7797 19.4522 19.5754 20.0543L17.7991 20.9425C16.4186 21.6327 14.8545 21.9259 13.3953 21.423C11.6426 20.8188 9.13069 19.6108 6.75988 17.24C4.38906 14.8692 3.18108 12.3573 2.5769 10.6046C2.07391 9.14538 2.36714 7.58124 3.05738 6.20075Z" fill="#363538"/>
<path d="M12.4694 11.5303C12.7623 11.8232 13.2372 11.8232 13.5301 11.5303L16.4924 8.56802V9.58573C16.4924 9.99995 16.8282 10.3357 17.2424 10.3357C17.6566 10.3357 17.9924 9.99995 17.9924 9.58573V6.75731C17.9924 6.34309 17.6566 6.00731 17.2424 6.00731H14.414C13.9998 6.00731 13.664 6.34309 13.664 6.75731C13.664 7.17152 13.9998 7.50731 14.414 7.50731H15.4318L12.4694 10.4697C12.1765 10.7626 12.1765 11.2374 12.4694 11.5303Z" fill="#363538"/>
</svg>
