<svg width="24" height="24" viewBox="0 0 24 24" fill="none" xmlns="http://www.w3.org/2000/svg">
<path d="M15.5676 14.6086C16.3677 14.02 17.4806 14.1163 18.1672 14.8341L20.1262 16.883C21.0567 17.856 20.7796 19.4527 19.5754 20.0548L17.799 20.9425C16.4187 21.6327 14.8547 21.9258 13.3957 21.423C12.0565 20.9614 10.2744 20.1466 8.45038 18.7306L12.4494 14.7316C12.4764 14.749 12.5026 14.7673 12.5295 14.7843C13.47 15.3813 14.6703 15.2687 15.5676 14.6086Z" fill="#363538"/>
<path d="M3.91718 4.48258C4.52768 3.26158 6.15502 2.99679 7.1203 3.96207L9.40155 6.2443C10.0102 6.85302 10.1615 7.78296 9.77655 8.55289L9.51386 9.07828C9.09129 9.92361 9.0839 10.924 9.57636 11.7306C9.77016 12.048 9.99396 12.3872 10.2287 12.7101L17.6115 5.32731C17.9043 5.03448 18.3792 5.03461 18.6721 5.32731C18.965 5.6202 18.965 6.09496 18.6721 6.38785L4.53046 20.5304C4.23766 20.8232 3.76283 20.823 3.46991 20.5304C3.17702 20.2375 3.17702 19.7628 3.46991 19.4699L6.2414 16.6974C4.21069 14.4915 3.13569 12.2244 2.57734 10.6046C2.0744 9.1456 2.36769 7.58172 3.0578 6.20133L3.91718 4.48258Z" fill="#363538"/>
</svg>
