<svg width="24" height="24" viewBox="0 0 24 24" fill="none" xmlns="http://www.w3.org/2000/svg">
<path d="M3.05738 6.20075L3.91682 4.48188C4.52732 3.26088 6.1546 2.99681 7.11988 3.96209L9.40162 6.24383C10.0103 6.85255 10.1613 7.78249 9.77626 8.55247L9.51353 9.07793C9.09083 9.92333 9.0838 10.9237 9.57634 11.7304C9.96194 12.362 10.4556 13.0873 10.9472 13.5789C11.371 14.0026 11.9682 14.4279 12.5295 14.7841C13.4701 15.3812 14.67 15.2686 15.5673 14.6084C16.3675 14.0196 17.4803 14.1163 18.167 14.8343L20.1264 16.8831C21.057 17.8562 20.7797 19.4522 19.5754 20.0543L17.7991 20.9425C16.4186 21.6327 14.8545 21.9259 13.3953 21.423C11.6426 20.8188 9.13069 19.6108 6.75988 17.24C4.38906 14.8692 3.18108 12.3573 2.5769 10.6046C2.07391 9.14538 2.36714 7.58124 3.05738 6.20075Z" fill="#363538"/>
<path d="M17.5301 6.46967C17.2372 6.17678 16.7623 6.17678 16.4694 6.46967L13.5071 9.43198V8.41427C13.5071 8.00005 13.1713 7.66427 12.7571 7.66427C12.3429 7.66427 12.0071 8.00005 12.0071 8.41427V11.2427C12.0071 11.6569 12.3429 11.9927 12.7571 11.9927H15.5855C15.9998 11.9927 16.3355 11.6569 16.3355 11.2427C16.3355 10.8285 15.9998 10.4927 15.5855 10.4927H14.5677L17.5301 7.53033C17.823 7.23744 17.823 6.76256 17.5301 6.46967Z" fill="#363538"/>
</svg>
