<svg width="24" height="24" viewBox="0 0 24 24" fill="none" xmlns="http://www.w3.org/2000/svg">
<path d="M3.91682 4.48188L3.05738 6.20075C2.36714 7.58124 2.07391 9.14538 2.5769 10.6046C3.18108 12.3573 4.38906 14.8692 6.75988 17.24C9.13069 19.6108 11.6426 20.8188 13.3953 21.423C14.8545 21.9259 16.4186 21.6327 17.7991 20.9425L19.5754 20.0543C20.7797 19.4522 21.057 17.8562 20.1264 16.8831L18.167 14.8343C17.4803 14.1163 16.3675 14.0196 15.5673 14.6084C14.67 15.2686 13.4701 15.3812 12.5295 14.7841C11.9682 14.4279 11.371 14.0026 10.9472 13.5789C10.4556 13.0873 9.96194 12.362 9.57634 11.7304C9.0838 10.9237 9.09083 9.92333 9.51353 9.07793L9.77626 8.55247C10.1613 7.78249 10.0103 6.85255 9.40162 6.24383L7.11988 3.96209C6.1546 2.99681 4.52732 3.26088 3.91682 4.48188Z" fill="#363538"/>
<path d="M18.5301 7.53033C18.823 7.23744 18.823 6.76256 18.5301 6.46967C18.2372 6.17678 17.7623 6.17678 17.4694 6.46967L15.0054 8.93371L14.0113 8.00661C13.7083 7.72411 13.2338 7.74066 12.9513 8.04359C12.6688 8.34652 12.6853 8.8211 12.9882 9.10361L14.512 10.5247C14.8075 10.8003 15.2682 10.7922 15.5539 10.5065L18.5301 7.53033Z" fill="#363538"/>
</svg>
