<svg width="24" height="24" viewBox="0 0 24 24" fill="none" xmlns="http://www.w3.org/2000/svg">
<path d="M3.91682 4.48188L3.05738 6.20075C2.36714 7.58124 2.07391 9.14538 2.5769 10.6046C3.18108 12.3573 4.38906 14.8692 6.75988 17.24C9.13069 19.6108 11.6426 20.8188 13.3953 21.423C14.8545 21.9259 16.4186 21.6327 17.7991 20.9425L19.5754 20.0543C20.7797 19.4522 21.057 17.8562 20.1264 16.8831L18.167 14.8343C17.4803 14.1163 16.3675 14.0196 15.5673 14.6084C14.67 15.2686 13.4701 15.3812 12.5295 14.7841C11.9682 14.4279 11.371 14.0026 10.9472 13.5789C10.4556 13.0873 9.96194 12.362 9.57634 11.7304C9.0838 10.9237 9.09083 9.92333 9.51353 9.07793L9.77626 8.55247C10.1613 7.78249 10.0103 6.85255 9.40162 6.24383L7.11988 3.96209C6.1546 2.99681 4.52732 3.26088 3.91682 4.48188Z" fill="#363538"/>
<path d="M16.7498 6C16.7498 5.58579 16.414 5.25 15.9998 5.25C15.5855 5.25 15.2498 5.58579 15.2498 6V7.25H13.9998C13.5855 7.25 13.2498 7.58579 13.2498 8C13.2498 8.41421 13.5855 8.75 13.9998 8.75H15.2498V10C15.2498 10.4142 15.5855 10.75 15.9998 10.75C16.414 10.75 16.7498 10.4142 16.7498 10V8.75H17.9998C18.414 8.75 18.7498 8.41421 18.7498 8C18.7498 7.58579 18.414 7.25 17.9998 7.25H16.7498V6Z" fill="#363538"/>
</svg>
