<svg width="24" height="24" viewBox="0 0 24 24" fill="none" xmlns="http://www.w3.org/2000/svg">
<path d="M14.25 21.5C14.25 21.5818 14.2658 21.6597 14.29 21.7334C13.5544 21.9058 12.7882 22 12 22C9.67918 22 7.54453 21.2074 5.84766 19.8809L13.875 15.2471C14.0053 15.1717 14.1303 15.09 14.25 15V21.5Z" fill="#363538"/>
<path d="M21.3516 14.8018C21.423 14.843 21.4996 14.867 21.5762 14.8828C20.7017 17.7918 18.5388 20.1402 15.75 21.2695V12C15.75 11.8479 15.7393 11.6981 15.7217 11.5508L21.3516 14.8018Z" fill="#363538"/>
<path d="M10.0557 15.207C10.2056 15.2981 10.3626 15.3785 10.5254 15.4482L4.89746 18.6982C4.82716 18.7388 4.76828 18.7914 4.7168 18.8486C3.03334 17.059 2 14.6509 2 12C2 11.529 2.03467 11.0659 2.09766 10.6123L10.0557 15.207Z" fill="#363538"/>
<path d="M12 9.75C13.2426 9.75 14.25 10.7574 14.25 12C14.25 13.2426 13.2426 14.25 12 14.25C10.7574 14.25 9.75 13.2426 9.75 12C9.75 10.7574 10.7574 9.75 12 9.75Z" fill="#363538"/>
<path d="M19.2822 5.15039C20.9662 6.94009 22 9.34864 22 12C22 12.4704 21.9642 12.9327 21.9014 13.3857L13.875 8.75195C13.8708 8.74955 13.8665 8.74744 13.8623 8.74512C13.737 8.67328 13.6075 8.60803 13.4736 8.55078L19.1016 5.30176C19.1719 5.26113 19.2307 5.20773 19.2822 5.15039Z" fill="#363538"/>
<path d="M8.25 12C8.25 12.1517 8.25983 12.3012 8.27734 12.4482L2.64746 9.19824C2.57588 9.15694 2.4996 9.13198 2.42285 9.11621C3.2975 6.20744 5.46121 3.85869 8.25 2.72949V12Z" fill="#363538"/>
<path d="M12 2C14.3201 2 16.4538 2.79238 18.1504 4.11816L10.125 8.75195C10.1205 8.75452 10.1157 8.75712 10.1113 8.75977C9.98622 8.83284 9.86534 8.91241 9.75 8.99902V2.5C9.75 2.41775 9.73345 2.33968 9.70898 2.26562C10.4448 2.09311 11.2115 2 12 2Z" fill="#363538"/>
</svg>
