<svg width="24" height="24" viewBox="0 0 24 24" fill="none" xmlns="http://www.w3.org/2000/svg">
<path d="M12 15.5C13.3807 15.5 14.5 14.3807 14.5 13C14.5 11.6193 13.3807 10.5 12 10.5C10.6193 10.5 9.5 11.6193 9.5 13C9.5 14.3807 10.6193 15.5 12 15.5Z" fill="#363538"/>
<path fill-rule="evenodd" clip-rule="evenodd" d="M6 21C3.79086 21 2 19.2091 2 17V9.7132C2 8.3254 2.91031 7.10191 4.23959 6.70312C4.94615 6.49115 5.55563 6.03738 5.9613 5.42127L6.37019 4.80027C7.11014 3.67648 8.36551 3 9.71103 3H14.289C15.6345 3 16.8899 3.67648 17.6298 4.80027L18.0387 5.42127C18.4444 6.03738 19.0538 6.49115 19.7604 6.70312C21.0897 7.10191 22 8.3254 22 9.7132V17C22 19.2091 20.2091 21 18 21H6ZM12 17C14.2091 17 16 15.2091 16 13C16 10.7909 14.2091 9 12 9C9.79086 9 8 10.7909 8 13C8 15.2091 9.79086 17 12 17ZM16 9C16.5523 9 17 8.55228 17 8C17 7.44772 16.5523 7 16 7C15.4477 7 15 7.44772 15 8C15 8.55228 15.4477 9 16 9Z" fill="#363538"/>
</svg>
