<svg width="24" height="24" viewBox="0 0 24 24" fill="none" xmlns="http://www.w3.org/2000/svg">
<path fill-rule="evenodd" clip-rule="evenodd" d="M14.3232 3C15.6254 3 16.8351 3.67526 17.5176 4.78418L18.0352 5.62598C18.3028 6.06082 18.7483 6.35595 19.2529 6.43359C20.8334 6.67693 22 8.03758 22 9.63672V17.25C22 19.3211 20.3211 21 18.25 21H5.75C3.67893 21 2 19.3211 2 17.25V9.63672C2 8.03758 3.16659 6.67693 4.74707 6.43359C5.25174 6.35595 5.69722 6.06082 5.96484 5.62598L6.48242 4.78418C7.16494 3.67526 8.37462 3 9.67676 3H14.3232ZM9 12.25C8.75387 12.25 8.52589 12.3705 8.38672 12.5684L8.33301 12.6572L7.93359 13.4336L7.15723 13.833C6.90722 13.9615 6.75 14.2189 6.75 14.5C6.75 14.7811 6.90722 15.0385 7.15723 15.167L7.93359 15.5654L8.33301 16.3428C8.46149 16.5928 8.71891 16.75 9 16.75C9.28109 16.75 9.53851 16.5928 9.66699 16.3428L10.0654 15.5654L10.8428 15.167C11.0928 15.0385 11.25 14.7811 11.25 14.5C11.25 14.2189 11.0928 13.9615 10.8428 13.833L10.0654 13.4336L9.66699 12.6572C9.53851 12.4072 9.28109 12.25 9 12.25ZM13.5 8.25C13.2539 8.25 13.0259 8.37054 12.8867 8.56836L12.833 8.65723L12.2637 9.76367L11.1572 10.333C10.9072 10.4615 10.75 10.7189 10.75 11C10.75 11.2811 10.9072 11.5385 11.1572 11.667L12.2637 12.2354L12.833 13.3428C12.9615 13.5928 13.2189 13.75 13.5 13.75C13.7811 13.75 14.0385 13.5928 14.167 13.3428L14.7354 12.2354L15.8428 11.667C16.0928 11.5385 16.25 11.2811 16.25 11C16.25 10.7189 16.0928 10.4615 15.8428 10.333L14.7354 9.76367L14.167 8.65723C14.0385 8.40722 13.7811 8.25 13.5 8.25Z" fill="#363538"/>
</svg>
