<svg width="24" height="24" viewBox="0 0 24 24" fill="none" xmlns="http://www.w3.org/2000/svg">
<path fill-rule="evenodd" clip-rule="evenodd" d="M21.1436 2.26354C21.2616 2.28646 21.3755 2.33779 21.4736 2.41784C21.4932 2.43384 21.512 2.45131 21.5303 2.46959C21.5485 2.48786 21.566 2.50664 21.582 2.52623C21.8063 2.80116 21.8063 3.19855 21.582 3.4735C21.566 3.49312 21.5486 3.51185 21.5303 3.53014L3.53027 21.5301C3.512 21.5484 3.49323 21.5659 3.47363 21.5819C3.41469 21.63 3.34998 21.6677 3.28223 21.6952C3.05651 21.7867 2.79485 21.7642 2.58691 21.6268C2.56612 21.6131 2.54601 21.5979 2.52637 21.5819C2.50677 21.5659 2.488 21.5484 2.46973 21.5301C2.45144 21.5118 2.43397 21.4931 2.41797 21.4735C2.19365 21.1985 2.19361 20.8012 2.41797 20.5262C2.43396 20.5066 2.45146 20.4879 2.46973 20.4696L2.73438 20.2049L3.14258 19.7958C2.43676 19.0745 2 18.0888 2 16.9999V9.71276C2.00018 8.32523 2.91028 7.10183 4.23926 6.70299C4.94581 6.49102 5.55527 6.03687 5.96094 5.42077L6.37012 4.79967C7.11008 3.67613 8.3656 2.9999 9.71094 2.99987H14.2891C15.6344 2.9999 16.8899 3.67613 17.6299 4.79967L17.832 5.10631L20.4697 2.46959C20.5795 2.35985 20.7147 2.29102 20.8564 2.26354C20.9512 2.24516 21.0488 2.24516 21.1436 2.26354ZM12 8.99987C9.7909 8.99987 8.00006 10.7908 8 12.9999C8 13.5702 8.11988 14.1125 8.33496 14.6034L9.53516 13.4032C9.51382 13.2718 9.5 13.1373 9.5 12.9999C9.50006 11.6192 10.6193 10.4999 12 10.4999C12.1375 10.4999 12.2719 10.5137 12.4033 10.535L13.6035 9.33483C13.1126 9.11973 12.5703 8.99987 12 8.99987Z" fill="#363538"/>
<path d="M20.2725 6.90807C21.3175 7.43484 21.9998 8.51183 22 9.71276V16.9999C22 19.209 20.2091 20.9999 18 20.9999H6.18164L10.4805 16.7001C10.9491 16.8927 11.4619 16.9999 12 16.9999C14.2091 16.9999 16 15.209 16 12.9999C16 12.4618 15.8928 11.9489 15.7002 11.4803L20.2725 6.90807Z" fill="#363538"/>
<path d="M14.4805 12.7001C14.4922 12.7984 14.5 12.8984 14.5 12.9999C14.5 14.3806 13.3807 15.4999 12 15.4999C11.8985 15.4999 11.7986 15.4921 11.7002 15.4803L14.4805 12.7001Z" fill="#363538"/>
</svg>
