<svg width="24" height="24" viewBox="0 0 24 24" fill="none" xmlns="http://www.w3.org/2000/svg">
<path d="M18.5 5.5V6.75H20.5C20.9142 6.75 21.25 7.08579 21.25 7.5C21.25 7.91421 20.9142 8.25 20.5 8.25H18.5V9.5C18.5 10.6046 17.6046 11.5 16.5 11.5H10.5C9.39543 11.5 8.5 10.6046 8.5 9.5L8.5 8.25L2.5 8.25C2.08579 8.25 1.75 7.91421 1.75 7.5C1.75 7.08579 2.08579 6.75 2.5 6.75L8.5 6.75L8.5 5.5C8.5 4.39543 9.39543 3.5 10.5 3.5H16.5C17.6046 3.5 18.5 4.39543 18.5 5.5Z" fill="#363538"/>
<path d="M14.5 18.5C14.5 19.6046 13.6046 20.5 12.5 20.5H6.5C5.39543 20.5 4.5 19.6046 4.5 18.5L4.5 17.25H2.5C2.08579 17.25 1.75 16.9142 1.75 16.5C1.75 16.0858 2.08579 15.75 2.5 15.75H4.5V14.5C4.5 13.3954 5.39543 12.5 6.5 12.5H12.5C13.6046 12.5 14.5 13.3954 14.5 14.5V15.75L20.5 15.75C20.9142 15.75 21.25 16.0858 21.25 16.5C21.25 16.9142 20.9142 17.25 20.5 17.25L14.5 17.25V18.5Z" fill="#363538"/>
</svg>
