<svg width="24" height="24" viewBox="0 0 24 24" fill="none" xmlns="http://www.w3.org/2000/svg">
<path d="M7 2.25C7.41421 2.25 7.75 2.58579 7.75 3V5H9C10.1046 5 11 5.89543 11 7V13C11 14.1046 10.1046 15 9 15H7.75V21C7.75 21.4142 7.41421 21.75 7 21.75C6.58579 21.75 6.25 21.4142 6.25 21V15H5C3.89543 15 3 14.1046 3 13V7C3 5.89543 3.89543 5 5 5H6.25V3C6.25 2.58579 6.58579 2.25 7 2.25Z" fill="#363538"/>
<path d="M16.75 9H18C19.1046 9 20 9.89543 20 11V17C20 18.1046 19.1046 19 18 19H16.75V21C16.75 21.4142 16.4142 21.75 16 21.75C15.5858 21.75 15.25 21.4142 15.25 21V19H14C12.8954 19 12 18.1046 12 17V11C12 9.89543 12.8954 9 14 9H15.25V3C15.25 2.58579 15.5858 2.25 16 2.25C16.4142 2.25 16.75 2.58579 16.75 3V9Z" fill="#363538"/>
</svg>
