<svg width="24" height="24" viewBox="0 0 24 24" fill="none" xmlns="http://www.w3.org/2000/svg">
<path d="M16 10.4994C17.1044 10.4994 17.9997 11.3951 18 12.4994V19.4994C18 20.604 17.1046 21.4994 16 21.4994H8C6.89543 21.4994 6 20.604 6 19.4994V12.4994C6.00026 11.3951 6.89559 10.4994 8 10.4994H16Z" fill="#363538"/>
<path d="M12.9854 3.58241C13.0019 3.39278 13.2371 3.31279 13.3457 3.46913C14.3967 4.98146 15.3031 7.14682 13.5 8.4994C11 9.9994 10 7.9994 10 6.9994C10 6.81078 10.0013 5.49897 11.5 4.9994C12.6761 4.60733 12.9306 4.21558 12.9854 3.58241Z" fill="#363538"/>
</svg>
