<svg width="24" height="24" viewBox="0 0 24 24" fill="none" xmlns="http://www.w3.org/2000/svg">
<path fill-rule="evenodd" clip-rule="evenodd" d="M3.00006 16V13.9948C3.00006 13.8043 3.02727 13.6148 3.08083 13.4321L2.60529 13.1377C2.25312 12.9196 2.14438 12.4574 2.36243 12.1052C2.58048 11.753 3.04274 11.6443 3.39491 11.8623L3.53889 11.9515L5.12805 6.81727C5.64654 5.14213 7.19564 4 8.94919 4H15.0509C16.8045 4 18.3536 5.14213 18.8721 6.81727L20.4608 11.9502L20.6028 11.8623C20.9549 11.6443 21.4172 11.753 21.6352 12.1052C21.8533 12.4574 21.7446 12.9196 21.3924 13.1377L20.9189 13.4308C20.9727 13.6139 21.0001 13.8038 21.0001 13.9948V16C21.0001 16.6746 20.6661 17.2711 20.1545 17.6334C20.2154 17.7418 20.2501 17.8668 20.2501 18V19.5C20.2501 20.4665 19.4666 21.25 18.5001 21.25H17.5001C16.5336 21.25 15.7501 20.4665 15.7501 19.5V18H8.25006V19.5C8.25006 20.4665 7.46656 21.25 6.50006 21.25H5.50006C4.53356 21.25 3.75006 20.4665 3.75006 19.5V18C3.75006 17.8668 3.78476 17.7418 3.84562 17.6334C3.33402 17.2711 3.00006 16.6746 3.00006 16ZM7.8393 8.30388L7.2393 11.3039C7.11554 11.9227 7.58883 12.5 8.21988 12.5H15.7803C16.4113 12.5 16.8846 11.9227 16.7609 11.3039L16.1609 8.30388C16.0674 7.83646 15.657 7.5 15.1803 7.5H8.81988C8.3432 7.5 7.93278 7.83646 7.8393 8.30388ZM8.25006 15C8.25006 14.5858 8.58584 14.25 9.00006 14.25H15.0001C15.4143 14.25 15.7501 14.5858 15.7501 15C15.7501 15.4142 15.4143 15.75 15.0001 15.75H9.00006C8.58584 15.75 8.25006 15.4142 8.25006 15Z" fill="#363538"/>
</svg>
