<svg width="24" height="24" viewBox="0 0 24 24" fill="none" xmlns="http://www.w3.org/2000/svg">
<path fill-rule="evenodd" clip-rule="evenodd" d="M6 4H18C20.2091 4 22 5.79086 22 8V16C22 18.2091 20.2091 20 18 20H6C3.79086 20 2 18.2091 2 16V8C2 5.79086 3.79086 4 6 4ZM6 14.25C5.58579 14.25 5.25 14.5858 5.25 15C5.25 15.4142 5.58579 15.75 6 15.75H7C7.41421 15.75 7.75 15.4142 7.75 15C7.75 14.5858 7.41421 14.25 7 14.25H6ZM9.25 15C9.25 14.5858 9.58579 14.25 10 14.25H11C11.4142 14.25 11.75 14.5858 11.75 15C11.75 15.4142 11.4142 15.75 11 15.75H10C9.58579 15.75 9.25 15.4142 9.25 15ZM14 14.25C13.5858 14.25 13.25 14.5858 13.25 15C13.25 15.4142 13.5858 15.75 14 15.75H18C18.4142 15.75 18.75 15.4142 18.75 15C18.75 14.5858 18.4142 14.25 18 14.25H14Z" fill="#363538"/>
</svg>
