<svg width="24" height="24" viewBox="0 0 24 24" fill="none" xmlns="http://www.w3.org/2000/svg">
<path d="M17.9445 3.55536C17.6517 3.26247 17.1768 3.26247 16.8839 3.55536C16.591 3.84826 16.591 4.32313 16.8839 4.61602L17.7678 5.49991L16.8839 6.38379C16.591 6.67668 16.591 7.15156 16.8839 7.44445C17.1768 7.73734 17.6517 7.73734 17.9445 7.44445L18.8284 6.56057L19.7123 7.44445C20.0052 7.73734 20.4801 7.73734 20.773 7.44445C21.0659 7.15156 21.0659 6.67668 20.773 6.38379L19.8891 5.49991L20.773 4.61602C21.0659 4.32313 21.0659 3.84826 20.773 3.55536C20.4801 3.26247 20.0052 3.26247 19.7123 3.55536L18.8284 4.43925L17.9445 3.55536Z" fill="#363538"/>
<path fill-rule="evenodd" clip-rule="evenodd" d="M15.416 3.99991H6C3.79086 3.99991 2 5.79077 2 7.99991V15.9999C2 18.209 3.79086 19.9999 6 19.9999H18C20.2091 19.9999 22 18.209 22 15.9999V7.99991C22 7.95765 21.9993 7.91556 21.998 7.87362C21.9088 8.0368 21.795 8.19016 21.6569 8.32833C20.8758 9.10938 19.6095 9.10938 18.8284 8.32833C18.0474 9.10938 16.781 9.10938 16 8.32833C15.219 7.54729 15.219 6.28096 16 5.49991C15.5877 5.08756 15.393 4.53995 15.416 3.99991ZM5.2501 14.9999C5.2501 14.5857 5.58588 14.2499 6.0001 14.2499H7.0001C7.41431 14.2499 7.7501 14.5857 7.7501 14.9999C7.7501 15.4141 7.41431 15.7499 7.0001 15.7499H6.0001C5.58588 15.7499 5.2501 15.4141 5.2501 14.9999ZM10.0001 14.2499C9.58588 14.2499 9.2501 14.5857 9.2501 14.9999C9.2501 15.4141 9.58588 15.7499 10.0001 15.7499H11.0001C11.4143 15.7499 11.7501 15.4141 11.7501 14.9999C11.7501 14.5857 11.4143 14.2499 11.0001 14.2499H10.0001ZM13.2501 14.9999C13.2501 14.5857 13.5859 14.2499 14.0001 14.2499H18.0001C18.4143 14.2499 18.7501 14.5857 18.7501 14.9999C18.7501 15.4141 18.4143 15.7499 18.0001 15.7499H14.0001C13.5859 15.7499 13.2501 15.4141 13.2501 14.9999Z" fill="#363538"/>
</svg>
