<svg width="24" height="24" viewBox="0 0 24 24" fill="none" xmlns="http://www.w3.org/2000/svg">
<path d="M12.3368 11.1709C12.6721 11.0034 12.8724 11.0338 12.9882 11.0771C13.1303 11.1306 13.2676 11.2522 13.3769 11.416C13.5364 11.6553 13.5574 12.0237 13.289 12.5107C13.0234 12.9923 12.5382 13.4468 12.0019 13.6943C11.4647 13.4469 10.9795 12.9927 10.7138 12.5107C10.4453 12.0237 10.4654 11.6555 10.6249 11.416C10.7343 11.2521 10.8723 11.1305 11.0146 11.0771C11.1304 11.0338 11.3307 11.0033 11.6659 11.1709C11.8769 11.2762 12.1258 11.2764 12.3368 11.1709Z" fill="#363538"/>
<path fill-rule="evenodd" clip-rule="evenodd" d="M15.0009 3C16.1052 3.00026 17.0009 3.89559 17.0009 5V19C17.0009 20.1044 16.1052 20.9997 15.0009 21H9.00088C8.41903 21 7.8966 20.7502 7.53116 20.3535C7.5285 20.3506 7.52599 20.3476 7.52334 20.3447C7.49661 20.3154 7.47019 20.2858 7.44522 20.2549C7.42345 20.2279 7.40309 20.2 7.38272 20.1719C7.32391 20.0908 7.27081 20.0056 7.22452 19.916C7.20662 19.8814 7.18963 19.8463 7.17374 19.8105C7.16243 19.7851 7.15177 19.7594 7.14151 19.7334C7.13247 19.7105 7.12139 19.6883 7.11319 19.665C7.10823 19.651 7.10515 19.6363 7.10049 19.6221C7.09071 19.5922 7.08252 19.5618 7.07413 19.5312C7.06398 19.4944 7.05387 19.4576 7.04581 19.4199C7.0394 19.39 7.03523 19.3595 7.03018 19.3291C7.01238 19.2219 6.99991 19.1123 6.99991 19V5L7.0126 4.78125C7.02362 4.67995 7.04465 4.58153 7.07022 4.48535L7.05167 4.54883C7.05731 4.52436 7.06564 4.50068 7.07217 4.47656C7.0815 4.44212 7.09038 4.4077 7.10147 4.37402C7.11293 4.33926 7.12627 4.30538 7.13956 4.27148C7.15076 4.24287 7.16224 4.21448 7.17471 4.18652C7.18263 4.16879 7.18876 4.15027 7.19717 4.13281C7.20595 4.11456 7.21618 4.09704 7.22549 4.0791C7.23767 4.05567 7.25051 4.03264 7.26358 4.00977C7.27637 3.98734 7.28804 3.96426 7.30167 3.94238C7.31085 3.92767 7.32141 3.91387 7.33096 3.89941C7.58257 3.51838 7.96096 3.22835 8.40616 3.08984L8.59756 3.04102C8.66243 3.02775 8.72872 3.01767 8.79581 3.01074C8.86293 3.0038 8.93101 3.00001 8.99991 3H15.0009ZM13.5146 9.67285C13.057 9.50131 12.5427 9.49683 12.0009 9.68945C11.4594 9.49699 10.9456 9.50153 10.4882 9.67285C9.96414 9.8694 9.60072 10.2483 9.37686 10.584C8.79242 11.4609 8.97809 12.4694 9.4003 13.2354C9.82496 14.0055 10.5552 14.6807 11.3778 15.0586C11.773 15.24 12.2278 15.2399 12.623 15.0586C13.4456 14.6807 14.1776 14.0056 14.6024 13.2354C15.0246 12.4695 15.2095 11.4609 14.6249 10.584C14.4011 10.2483 14.0385 9.86945 13.5146 9.67285Z" fill="#363538"/>
<path d="M5.49991 19C5.49991 19.1046 5.50556 19.2083 5.51456 19.3105L2.61709 8.49805C2.33157 7.43137 2.96456 6.33479 4.03116 6.04883L5.49991 5.65527V19Z" fill="#363538"/>
<path d="M19.9687 6.04883C21.0351 6.33488 21.6682 7.43148 21.3827 8.49805L18.4862 19.3057C18.4949 19.205 18.4999 19.1029 18.4999 19V5.65527L19.9687 6.04883Z" fill="#363538"/>
</svg>
