<svg width="24" height="24" viewBox="0 0 24 24" fill="none" xmlns="http://www.w3.org/2000/svg">
<path fill-rule="evenodd" clip-rule="evenodd" d="M18.625 4.04855C18.4214 4.01659 18.2126 4 18 4H6C3.79086 4 2 5.79086 2 8V16C2 18.2091 3.79086 20 6 20H18C20.2091 20 22 18.2091 22 16V8C22 7.7398 21.6932 7.63522 21.5092 7.8192L19.938 9.3904C19.1762 10.1523 17.9477 10.1737 17.1598 9.43885L15.6359 8.01777C14.8281 7.26442 14.784 5.99886 15.5373 5.19106C16.2907 4.38325 17.5562 4.33911 18.3641 5.09245C18.4261 5.15035 18.5229 5.14866 18.5829 5.08864L18.836 4.83555C19.1072 4.56435 19.0039 4.10801 18.625 4.04855ZM5.2501 15C5.2501 14.5858 5.58588 14.25 6.0001 14.25H7.0001C7.41431 14.25 7.7501 14.5858 7.7501 15C7.7501 15.4142 7.41431 15.75 7.0001 15.75H6.0001C5.58588 15.75 5.2501 15.4142 5.2501 15ZM10.0001 14.25C9.58588 14.25 9.2501 14.5858 9.2501 15C9.2501 15.4142 9.58588 15.75 10.0001 15.75H11.0001C11.4143 15.75 11.7501 15.4142 11.7501 15C11.7501 14.5858 11.4143 14.25 11.0001 14.25H10.0001ZM13.2501 15C13.2501 14.5858 13.5859 14.25 14.0001 14.25H18.0001C18.4143 14.25 18.7501 14.5858 18.7501 15C18.7501 15.4142 18.4143 15.75 18.0001 15.75H14.0001C13.5859 15.75 13.2501 15.4142 13.2501 15Z" fill="#363538"/>
<path d="M22.0303 5.53033C22.3232 5.23744 22.3232 4.76256 22.0303 4.46967C21.7374 4.17678 21.2626 4.17678 20.9697 4.46967L18.5056 6.93371L17.5115 6.00661C17.2086 5.72411 16.734 5.74066 16.4515 6.04359C16.169 6.34652 16.1856 6.8211 16.4885 7.10361L18.0123 8.52469C18.3078 8.80025 18.7684 8.79222 19.0541 8.50652L22.0303 5.53033Z" fill="#363538"/>
</svg>
