<svg width="24" height="24" viewBox="0 0 24 24" fill="none" xmlns="http://www.w3.org/2000/svg">
<path d="M19.75 4.81066V7C19.75 7.41421 19.4142 7.75 19 7.75C18.5858 7.75 18.25 7.41421 18.25 7V4.81066L18.0303 5.03033C17.7374 5.32322 17.2626 5.32322 16.9697 5.03033C16.6768 4.73744 16.6768 4.26256 16.9697 3.96967L18.4697 2.46967C18.6103 2.32902 18.8011 2.25 19 2.25C19.1989 2.25 19.3897 2.32902 19.5303 2.46967L21.0303 3.96967C21.3232 4.26256 21.3232 4.73744 21.0303 5.03033C20.7374 5.32322 20.2626 5.32322 19.9697 5.03033L19.75 4.81066Z" fill="#363538"/>
<path fill-rule="evenodd" clip-rule="evenodd" d="M21 7C21 8.10457 20.1046 9 19 9C17.8954 9 17 8.10457 17 7V6.43682C16.665 6.35068 16.3481 6.17648 16.0858 5.91421C15.567 5.39543 15.3928 4.66256 15.5632 4H6C3.79086 4 2 5.79086 2 8V16C2 18.2091 3.79086 20 6 20H18C20.2091 20 22 18.2091 22 16V8C22 7.34901 21.8445 6.73434 21.5686 6.19111C21.3904 6.3039 21.1984 6.38581 21 6.43682V7ZM5.2501 15C5.2501 14.5858 5.58588 14.25 6.0001 14.25H7.0001C7.41431 14.25 7.7501 14.5858 7.7501 15C7.7501 15.4142 7.41431 15.75 7.0001 15.75H6.0001C5.58588 15.75 5.2501 15.4142 5.2501 15ZM10.0001 14.25C9.58588 14.25 9.2501 14.5858 9.2501 15C9.2501 15.4142 9.58588 15.75 10.0001 15.75H11.0001C11.4143 15.75 11.7501 15.4142 11.7501 15C11.7501 14.5858 11.4143 14.25 11.0001 14.25H10.0001ZM13.2501 15C13.2501 14.5858 13.5859 14.25 14.0001 14.25H18.0001C18.4143 14.25 18.7501 14.5858 18.7501 15C18.7501 15.4142 18.4143 15.75 18.0001 15.75H14.0001C13.5859 15.75 13.2501 15.4142 13.2501 15Z" fill="#363538"/>
</svg>
