<svg width="24" height="24" viewBox="0 0 24 24" fill="none" xmlns="http://www.w3.org/2000/svg">
<path d="M19.75 5.81066V8C19.75 8.41421 19.4142 8.75 19 8.75C18.5858 8.75 18.25 8.41421 18.25 8V5.81066L18.0303 6.03033C17.7374 6.32322 17.2626 6.32322 16.9697 6.03033C16.6768 5.73744 16.6768 5.26256 16.9697 4.96967L18.4697 3.46967C18.6103 3.32902 18.8011 3.25 19 3.25C19.1989 3.25 19.3897 3.32902 19.5303 3.46967L21.0303 4.96967C21.3232 5.26256 21.3232 5.73744 21.0303 6.03033C20.7374 6.32322 20.2626 6.32322 19.9697 6.03033L19.75 5.81066Z" fill="#363538"/>
<path fill-rule="evenodd" clip-rule="evenodd" d="M21 8C21 9.10457 20.1046 10 19 10C17.8954 10 17 9.10457 17 8V7.43682C16.665 7.35068 16.3481 7.17648 16.0858 6.91421C15.3047 6.13316 15.3047 4.86683 16.0858 4.08579L16.1716 4H6C3.79086 4 2 5.79086 2 8V16C2 18.2091 3.79086 20 6 20H18C20.2091 20 22 18.2091 22 16V8C22 7.6412 21.9528 7.29344 21.8642 6.96259C21.6121 7.19802 21.3139 7.35609 21 7.43682V8ZM5.2501 15C5.2501 14.5858 5.58588 14.25 6.0001 14.25H7.0001C7.41431 14.25 7.7501 14.5858 7.7501 15C7.7501 15.4142 7.41431 15.75 7.0001 15.75H6.0001C5.58588 15.75 5.2501 15.4142 5.2501 15ZM10.0001 14.25C9.58588 14.25 9.2501 14.5858 9.2501 15C9.2501 15.4142 9.58588 15.75 10.0001 15.75H11.0001C11.4143 15.75 11.7501 15.4142 11.7501 15C11.7501 14.5858 11.4143 14.25 11.0001 14.25H10.0001ZM13.2501 15C13.2501 14.5858 13.5859 14.25 14.0001 14.25H18.0001C18.4143 14.25 18.7501 14.5858 18.7501 15C18.7501 15.4142 18.4143 15.75 18.0001 15.75H14.0001C13.5859 15.75 13.2501 15.4142 13.2501 15Z" fill="#363538"/>
</svg>
