<svg width="24" height="24" viewBox="0 0 24 24" fill="none" xmlns="http://www.w3.org/2000/svg">
<path d="M19.75 4C19.75 3.58579 19.4142 3.25 19 3.25C18.5858 3.25 18.25 3.58579 18.25 4V5.25H17C16.5858 5.25 16.25 5.58579 16.25 6C16.25 6.41421 16.5858 6.75 17 6.75H18.25V8C18.25 8.41421 18.5858 8.75 19 8.75C19.4142 8.75 19.75 8.41421 19.75 8V6.75H21C21.4142 6.75 21.75 6.41421 21.75 6C21.75 5.58579 21.4142 5.25 21 5.25H19.75V4Z" fill="#363538"/>
<path fill-rule="evenodd" clip-rule="evenodd" d="M17 4H6C3.79086 4 2 5.79086 2 8V16C2 18.2091 3.79086 20 6 20H18C20.2091 20 22 18.2091 22 16V8C22 7.91174 21.9971 7.82415 21.9915 7.73732C21.6993 7.90447 21.3608 8 21 8C21 9.10457 20.1046 10 19 10C17.8954 10 17 9.10457 17 8C15.8954 8 15 7.10457 15 6C15 4.89543 15.8954 4 17 4ZM5.25012 15C5.25012 14.5858 5.58591 14.25 6.00012 14.25H7.00012C7.41434 14.25 7.75012 14.5858 7.75012 15C7.75012 15.4142 7.41434 15.75 7.00012 15.75H6.00012C5.58591 15.75 5.25012 15.4142 5.25012 15ZM10.0001 14.25C9.58591 14.25 9.25012 14.5858 9.25012 15C9.25012 15.4142 9.58591 15.75 10.0001 15.75H11.0001C11.4143 15.75 11.7501 15.4142 11.7501 15C11.7501 14.5858 11.4143 14.25 11.0001 14.25H10.0001ZM13.2501 15C13.2501 14.5858 13.5859 14.25 14.0001 14.25H18.0001C18.4143 14.25 18.7501 14.5858 18.7501 15C18.7501 15.4142 18.4143 15.75 18.0001 15.75H14.0001C13.5859 15.75 13.2501 15.4142 13.2501 15Z" fill="#363538"/>
</svg>
