<svg width="24" height="24" viewBox="0 0 24 24" fill="none" xmlns="http://www.w3.org/2000/svg">
<path fill-rule="evenodd" clip-rule="evenodd" d="M6 4H17C15.8954 4 15 4.89543 15 6C15 7.10457 15.8954 8 17 8H21C21.3608 8 21.6993 7.90447 21.9915 7.73732C21.9971 7.82415 22 7.91174 22 8V16C22 18.2091 20.2091 20 18 20H6C3.79086 20 2 18.2091 2 16V8C2 5.79086 3.79086 4 6 4ZM5.2501 15C5.2501 14.5858 5.58588 14.25 6.0001 14.25H7.0001C7.41431 14.25 7.7501 14.5858 7.7501 15C7.7501 15.4142 7.41431 15.75 7.0001 15.75H6.0001C5.58588 15.75 5.2501 15.4142 5.2501 15ZM10.0001 14.25C9.58588 14.25 9.2501 14.5858 9.2501 15C9.2501 15.4142 9.58588 15.75 10.0001 15.75H11.0001C11.4143 15.75 11.7501 15.4142 11.7501 15C11.7501 14.5858 11.4143 14.25 11.0001 14.25H10.0001ZM13.2501 15C13.2501 14.5858 13.5859 14.25 14.0001 14.25H18.0001C18.4143 14.25 18.7501 14.5858 18.7501 15C18.7501 15.4142 18.4143 15.75 18.0001 15.75H14.0001C13.5859 15.75 13.2501 15.4142 13.2501 15Z" fill="#363538"/>
<path d="M17 5.25C16.5858 5.25 16.25 5.58579 16.25 6C16.25 6.41421 16.5858 6.75 17 6.75H21C21.4142 6.75 21.75 6.41421 21.75 6C21.75 5.58579 21.4142 5.25 21 5.25H17Z" fill="#363538"/>
</svg>
