<svg width="24" height="24" viewBox="0 0 24 24" fill="none" xmlns="http://www.w3.org/2000/svg">
<path d="M10.2928 5.70701L6.82831 9.17148C5.26621 10.7336 5.26621 13.2662 6.82831 14.8283L10.2928 18.2928C10.9227 18.9228 11.9999 18.4766 11.9999 17.5857V13.6235V10.3757V6.41411C11.9999 5.52321 10.9227 5.07704 10.2928 5.70701Z" fill="#363538"/>
<path d="M16.2928 5.70701L12.8283 9.17148C12.4701 9.52969 12.1938 9.93884 11.9999 10.3757V13.6235C12.1938 14.0605 12.47 14.47 12.8283 14.8283L16.2928 18.2928C16.9227 18.9228 17.9999 18.4766 17.9999 17.5857V6.41411C17.9999 5.52321 16.9227 5.07704 16.2928 5.70701Z" fill="#363538"/>
</svg>
