<svg width="24" height="24" viewBox="0 0 24 24" fill="none" xmlns="http://www.w3.org/2000/svg">
<path d="M13.7071 5.70701L17.1716 9.17148C18.7337 10.7336 18.7337 13.2662 17.1716 14.8283L13.7071 18.2928C13.0771 18.9228 12 18.4766 12 17.5857V13.6215V10.3762V6.41411C12 5.52321 13.0771 5.07704 13.7071 5.70701Z" fill="#363538"/>
<path d="M11.1716 9.17148L7.70711 5.70701C7.07714 5.07704 6 5.52321 6 6.41411V17.5857C6 18.4766 7.07714 18.9228 7.7071 18.2928L11.1716 14.8283C11.5304 14.4695 11.806 14.0592 12 13.6215V10.3762C11.8061 9.93916 11.5299 9.5298 11.1716 9.17148Z" fill="#363538"/>
</svg>
