<svg width="24" height="24" viewBox="0 0 24 24" fill="none" xmlns="http://www.w3.org/2000/svg">
<path d="M5.70701 13.7071L9.17148 17.1716C10.7336 18.7337 13.2662 18.7337 14.8283 17.1716L18.2928 13.7071C18.9228 13.0771 18.4766 12 17.5857 12H13.6234H10.3766H6.41411C5.52321 12 5.07704 13.0771 5.70701 13.7071Z" fill="#363538"/>
<path d="M5.70701 7.70711L9.17148 11.1716C9.5299 11.53 9.93946 11.8061 10.3766 12H13.6234C14.0605 11.8061 14.47 11.5299 14.8283 11.1716L18.2928 7.70711C18.9228 7.07714 18.4766 6 17.5857 6H6.41411C5.52321 6 5.07704 7.07714 5.70701 7.70711Z" fill="#363538"/>
</svg>
