<svg width="24" height="24" viewBox="0 0 24 24" fill="none" xmlns="http://www.w3.org/2000/svg">
<path d="M5.70701 10.2928L9.17148 6.82831C10.7336 5.26621 13.2662 5.26621 14.8283 6.82831L18.2928 10.2928C18.9228 10.9227 18.4766 11.9999 17.5857 11.9999L13.6235 11.9999H10.3763L6.41412 11.9999C5.52321 11.9999 5.07704 10.9227 5.70701 10.2928Z" fill="#363538"/>
<path d="M9.17148 12.8283L5.70701 16.2928C5.07704 16.9227 5.52321 17.9999 6.41412 17.9999L17.5857 17.9999C18.4766 17.9999 18.9228 16.9227 18.2928 16.2928L14.8283 12.8283C14.47 12.47 14.0606 12.1938 13.6235 11.9999H10.3763C9.93925 12.1938 9.52983 12.47 9.17148 12.8283Z" fill="#363538"/>
</svg>
