<svg width="24" height="24" viewBox="0 0 24 24" fill="none" xmlns="http://www.w3.org/2000/svg">
<path d="M12.75 3C12.75 2.58579 12.4143 2.25 12 2.25C11.5858 2.25 11.25 2.58579 11.25 3V3.5L10.45 2.9C10.1187 2.65147 9.64857 2.71863 9.40004 3.05C9.15152 3.38137 9.21867 3.85147 9.55004 4.1L10.2683 4.63867C8.66584 5.40224 7.67262 7.18827 8.04885 9.06941L8.96861 13.6682C9.0099 13.8746 9.13605 14.0542 9.31626 14.1631C9.49647 14.2719 9.71413 14.3 9.91608 14.2405C10.2079 14.1545 10.595 14.0687 10.981 14.0397C11.213 14.0222 11.4747 14.0228 11.7288 14.0711C11.9778 14.1184 12.2844 14.224 12.5301 14.4697C12.823 14.7626 12.823 15.2375 12.5301 15.5304C12.2806 15.7799 11.8975 15.8175 11.6086 15.6404C11.484 15.564 11.3399 15.5257 11.1939 15.5301C11.1633 15.531 11.1299 15.5327 11.0936 15.5355C10.9423 15.5468 10.7806 15.5728 10.6263 15.6064C10.4722 15.6399 10.3358 15.6786 10.2369 15.7116C10.2065 15.7217 10.1761 15.7298 10.146 15.7358C9.74031 15.8175 9.47744 16.2124 9.5586 16.6182L10.2838 20.2442C10.659 22.1199 13.3407 22.1199 13.7158 20.2442L15.541 11.1184C15.58 10.9234 15.5399 10.7208 15.4295 10.5553C15.3192 10.3897 15.1476 10.2749 14.9525 10.2359C14.8671 10.2188 14.7826 10.1863 14.7023 10.1361C14.5259 10.0258 14.1593 9.86672 13.7218 9.82101C13.2944 9.77635 12.8381 9.84258 12.4158 10.1241C12.0711 10.3539 11.6055 10.2607 11.3757 9.9161C11.146 9.57145 11.2391 9.1058 11.5837 8.87603C12.808 8.05985 14.123 8.26304 14.9805 8.60749C15.2254 8.70585 15.5039 8.66829 15.714 8.50856C15.9241 8.34884 16.0347 8.09048 16.0054 7.82822C15.8502 6.43913 14.9748 5.23125 13.7317 4.63874L14.45 4.1C14.7814 3.85147 14.8486 3.38137 14.6 3.05C14.3515 2.71863 13.8814 2.65147 13.55 2.9L12.75 3.5V3Z" fill="#363538"/>
</svg>
