<svg width="24" height="24" viewBox="0 0 24 24" fill="none" xmlns="http://www.w3.org/2000/svg">
<path d="M3 3.25C2.58579 3.25 2.25 3.58579 2.25 4C2.25 4.41421 2.58579 4.75 3 4.75C3.81705 4.75 4.52448 5.31748 4.70172 6.11507L5.13166 8.04979C5.13478 8.09677 5.14236 8.14374 5.1545 8.19008L5.2094 8.39962L5.26786 8.6627C5.27935 8.71441 5.29593 8.76368 5.31694 8.8101L6.99211 15.2039C7.53948 17.293 9.42732 18.75 11.587 18.75H16.4561C16.7642 18.75 17.041 18.5616 17.1539 18.2749C17.2668 17.9882 17.1929 17.6616 16.9676 17.4515L16.3065 16.8349C15.5996 16.1758 15.561 15.0684 16.2202 14.3616C16.8253 13.7127 17.8093 13.6266 18.5128 14.1276C18.8111 14.34 19.2192 14.3059 19.4781 14.047L20.7626 12.7626C20.8744 12.6508 20.9966 12.5579 21.1257 12.4833C21.3577 12.3493 21.5006 12.1018 21.5006 11.8339V11.2907C21.5006 10.7268 21.4193 10.0465 21.0367 9.44622C20.1758 8.0956 18.674 7.25 17.0314 7.25H6.49052L6.166 5.78968C5.83625 4.30578 4.5201 3.25 3 3.25Z" fill="#363538"/>
<path d="M22.5303 14.5303C22.8232 14.2374 22.8232 13.7626 22.5303 13.4697C22.2374 13.1768 21.7626 13.1768 21.4697 13.4697L19.0056 15.9337L18.0115 15.0066C17.7086 14.7241 17.234 14.7407 16.9515 15.0436C16.669 15.3465 16.6856 15.8211 16.9885 16.1036L18.5123 17.5247C18.8078 17.8003 19.2684 17.7922 19.5541 17.5065L22.5303 14.5303Z" fill="#363538"/>
<path d="M10 21C10 21.5523 9.55228 22 9 22C8.44772 22 8 21.5523 8 21C8 20.4477 8.44772 20 9 20C9.55228 20 10 20.4477 10 21Z" fill="#363538"/>
<path d="M18 21C18 21.5523 17.5523 22 17 22C16.4477 22 16 21.5523 16 21C16 20.4477 16.4477 20 17 20C17.5523 20 18 20.4477 18 21Z" fill="#363538"/>
</svg>
