<svg width="24" height="24" viewBox="0 0 24 24" fill="none" xmlns="http://www.w3.org/2000/svg">
<path d="M3 3.25C2.58579 3.25 2.25 3.58579 2.25 4C2.25 4.41421 2.58579 4.75 3 4.75C3.81705 4.75 4.52448 5.31748 4.70172 6.11507L5.13166 8.04979C5.13478 8.09677 5.14236 8.14374 5.1545 8.19008L5.2094 8.39962L5.26786 8.6627C5.27935 8.71441 5.29593 8.76368 5.31694 8.8101L6.99211 15.2039C7.53948 17.293 9.42732 18.75 11.587 18.75H16.7506C17.5843 18.75 18.3699 18.5346 19.0525 18.1558C19.3514 17.9899 19.5003 17.643 19.4147 17.3121C19.329 16.9811 19.0304 16.75 18.6886 16.75H17C16.0335 16.75 15.25 15.9665 15.25 15C15.25 14.0335 16.0335 13.25 17 13.25H20.7506C21.1648 13.25 21.5006 12.9142 21.5006 12.5V11.2907C21.5006 10.7268 21.4193 10.0465 21.0367 9.44622C20.1758 8.0956 18.674 7.25 17.0314 7.25H6.49052L6.166 5.78968C5.83625 4.30578 4.5201 3.25 3 3.25Z" fill="#363538"/>
<path d="M17 14.25C16.5858 14.25 16.25 14.5858 16.25 15C16.25 15.4142 16.5858 15.75 17 15.75H21C21.4142 15.75 21.75 15.4142 21.75 15C21.75 14.5858 21.4142 14.25 21 14.25H17Z" fill="#363538"/>
<path d="M10 21C10 21.5523 9.55228 22 9 22C8.44772 22 8 21.5523 8 21C8 20.4477 8.44772 20 9 20C9.55228 20 10 20.4477 10 21Z" fill="#363538"/>
<path d="M18 21C18 21.5523 17.5523 22 17 22C16.4477 22 16 21.5523 16 21C16 20.4477 16.4477 20 17 20C17.5523 20 18 20.4477 18 21Z" fill="#363538"/>
</svg>
