<svg width="24" height="24" viewBox="0 0 24 24" fill="none" xmlns="http://www.w3.org/2000/svg">
<path d="M3 3.25C2.58579 3.25 2.25 3.58579 2.25 4C2.25 4.41421 2.58579 4.75 3 4.75C3.81705 4.75 4.52448 5.31748 4.70172 6.11507L5.13166 8.04979C5.13478 8.09677 5.14236 8.14374 5.1545 8.19008L5.2094 8.39962L5.26786 8.6627C5.27935 8.71441 5.29593 8.76368 5.31694 8.8101L6.99211 15.2039C7.53948 17.293 9.42732 18.75 11.587 18.75H15.9996C16.2838 18.75 16.5437 18.5893 16.6706 18.335C16.7976 18.0807 16.7699 17.7765 16.5991 17.5493C16.1336 16.9302 16.1336 16.0698 16.5991 15.4507C16.7998 15.1837 16.7998 14.8163 16.5991 14.5493C16.0841 13.8643 16.1391 12.8861 16.7626 12.2626C17.3861 11.639 18.3643 11.5841 19.0493 12.0991C19.3163 12.2998 19.6838 12.2998 19.9507 12.0991C20.2094 11.9046 20.5101 11.7911 20.8191 11.7593C21.2196 11.718 21.5161 11.3679 21.4908 10.9662C21.4604 10.4826 21.3504 9.93842 21.0367 9.44622C20.1758 8.0956 18.674 7.25 17.0314 7.25H6.49052L6.166 5.78968C5.83625 4.30578 4.5201 3.25 3 3.25Z" fill="#363538"/>
<path d="M18.5303 12.9697C18.2374 12.6768 17.7626 12.6768 17.4697 12.9697C17.1768 13.2626 17.1768 13.7374 17.4697 14.0303L18.4393 15L17.4697 15.9697C17.1768 16.2626 17.1768 16.7374 17.4697 17.0303C17.7626 17.3232 18.2374 17.3232 18.5303 17.0303L19.5 16.0607L20.4697 17.0303C20.7626 17.3232 21.2374 17.3232 21.5303 17.0303C21.8232 16.7374 21.8232 16.2626 21.5303 15.9697L20.5607 15L21.5303 14.0303C21.8232 13.7374 21.8232 13.2626 21.5303 12.9697C21.2374 12.6768 20.7626 12.6768 20.4697 12.9697L19.5 13.9393L18.5303 12.9697Z" fill="#363538"/>
<path d="M10 21C10 21.5523 9.55228 22 9 22C8.44772 22 8 21.5523 8 21C8 20.4477 8.44772 20 9 20C9.55228 20 10 20.4477 10 21Z" fill="#363538"/>
<path d="M18 21C18 21.5523 17.5523 22 17 22C16.4477 22 16 21.5523 16 21C16 20.4477 16.4477 20 17 20C17.5523 20 18 20.4477 18 21Z" fill="#363538"/>
</svg>
