<svg width="24" height="24" viewBox="0 0 24 24" fill="none" xmlns="http://www.w3.org/2000/svg">
<path d="M2.25 4C2.25 3.58579 2.58579 3.25 3 3.25C4.5201 3.25 5.83625 4.30578 6.166 5.78968L6.49052 7.25H17.0314C18.674 7.25 20.1758 8.0956 21.0367 9.44622C21.4005 10.0171 21.4914 10.6595 21.4999 11.2029C21.5047 11.507 21.3253 11.7839 21.0459 11.9038C20.7664 12.0238 20.4422 11.9631 20.225 11.7502C19.9086 11.44 19.4772 11.25 19 11.25C18.1439 11.25 17.4299 11.8656 17.2793 12.6785C17.2228 12.9838 16.9839 13.2228 16.6785 13.2793C15.8656 13.4299 15.25 14.1438 15.25 15C15.25 15.8562 15.8656 16.5701 16.6785 16.7207C16.9839 16.7772 17.2228 17.0162 17.2793 17.3215C17.3038 17.4535 17.343 17.5801 17.3953 17.6997C17.4966 17.9316 17.4742 18.1989 17.3356 18.4107C17.1971 18.6224 16.9611 18.75 16.708 18.75H11.587C9.42732 18.75 7.53948 17.293 6.99211 15.2039L5.31694 8.8101C5.29593 8.76368 5.27935 8.71441 5.26786 8.6627L5.2094 8.39962L5.1545 8.19008C5.14236 8.14374 5.13478 8.09677 5.13166 8.04979L4.70172 6.11507C4.52448 5.31748 3.81705 4.75 3 4.75C2.58579 4.75 2.25 4.41421 2.25 4Z" fill="#363538"/>
<path d="M19.75 13C19.75 12.5858 19.4142 12.25 19 12.25C18.5858 12.25 18.25 12.5858 18.25 13V14.25H17C16.5858 14.25 16.25 14.5858 16.25 15C16.25 15.4142 16.5858 15.75 17 15.75H18.25V17C18.25 17.4142 18.5858 17.75 19 17.75C19.4142 17.75 19.75 17.4142 19.75 17V15.75H21C21.4142 15.75 21.75 15.4142 21.75 15C21.75 14.5858 21.4142 14.25 21 14.25H19.75V13Z" fill="#363538"/>
<path d="M10 21C10 21.5523 9.55228 22 9 22C8.44772 22 8 21.5523 8 21C8 20.4477 8.44772 20 9 20C9.55228 20 10 20.4477 10 21Z" fill="#363538"/>
<path d="M18 21C18 21.5523 17.5523 22 17 22C16.4477 22 16 21.5523 16 21C16 20.4477 16.4477 20 17 20C17.5523 20 18 20.4477 18 21Z" fill="#363538"/>
</svg>
