<svg width="24" height="24" viewBox="0 0 24 24" fill="none" xmlns="http://www.w3.org/2000/svg">
<path fill-rule="evenodd" clip-rule="evenodd" d="M6.13965 3.20942C6.69199 2.25318 7.91466 1.92592 8.87109 2.47798L18.7617 8.18794C19.8885 8.83851 20.1037 10.3746 19.1992 11.31L16.334 14.2739C15.696 14.9335 14.6902 15.0745 13.8955 14.6157L8.95605 11.7641L6.22363 17.2299C5.75775 18.1614 4.80518 18.7504 3.76367 18.7504H3.25V20.0004C3.24979 20.4145 2.91409 20.7504 2.5 20.7504C2.08591 20.7504 1.75021 20.4145 1.75 20.0004V16.0004C1.75 15.5862 2.08579 15.2504 2.5 15.2504C2.91421 15.2504 3.25 15.5862 3.25 16.0004V17.2504H3.76367C4.23702 17.2504 4.67004 16.9823 4.88184 16.559L7.65527 11.0122L4.87109 9.40571C3.91488 8.85336 3.58761 7.62971 4.13965 6.67329L6.13965 3.20942ZM15.7061 8.78071C15.228 8.50493 14.617 8.66815 14.3408 9.14595C14.065 9.62401 14.2283 10.2359 14.7061 10.5122C15.1843 10.7883 15.7961 10.6241 16.0723 10.1459C16.3482 9.66769 16.1843 9.05681 15.7061 8.78071Z" fill="#363538"/>
<path d="M21.4561 11.352C21.7294 11.0412 22.2026 11.0106 22.5137 11.2836C22.8248 11.5571 22.8555 12.0311 22.582 12.3422L19.2168 16.1723C18.9434 16.4834 18.4693 16.514 18.1582 16.2407C17.8471 15.9673 17.8165 15.4932 18.0898 15.1821L21.4561 11.352Z" fill="#363538"/>
</svg>
