<svg width="24" height="24" viewBox="0 0 24 24" fill="none" xmlns="http://www.w3.org/2000/svg">
<path fill-rule="evenodd" clip-rule="evenodd" d="M12 8.75C13.5188 8.75 14.75 9.98122 14.75 11.5C14.75 13.0188 13.5188 14.25 12 14.25C10.4812 14.25 9.25 13.0188 9.25 11.5C9.25 9.98122 10.4812 8.75 12 8.75ZM12 10.6465C11.4477 10.6465 11 11.0942 11 11.6465C11 12.1988 11.4477 12.6465 12 12.6465C12.5523 12.6465 13 12.1988 13 11.6465C13 11.0942 12.5523 10.6465 12 10.6465Z" fill="#363538"/>
<path fill-rule="evenodd" clip-rule="evenodd" d="M19 12C19 15.866 15.866 19 12 19C8.13401 19 5 15.866 5 12V5.75H4C3.58579 5.75 3.25 5.41421 3.25 5C3.25 4.58579 3.58579 4.25 4 4.25H20C20.4142 4.25 20.75 4.58579 20.75 5C20.75 5.41421 20.4142 5.75 20 5.75H19V12ZM14.75 8.26074C14.0087 7.63079 13.049 7.25 12 7.25C10.951 7.25 9.9913 7.63079 9.25 8.26074V5.75H7.75V11.5C7.75 13.8472 9.65279 15.75 12 15.75C14.3472 15.75 16.25 13.8472 16.25 11.5V5.75H14.75V8.26074Z" fill="#363538"/>
</svg>
