<svg width="24" height="24" viewBox="0 0 24 24" fill="none" xmlns="http://www.w3.org/2000/svg">
<path d="M3 3.25C2.58579 3.25 2.25 3.58579 2.25 4C2.25 4.41421 2.58579 4.75 3 4.75H4.36039C4.95624 4.75 5.46926 5.17058 5.58612 5.75486L7.24868 14.0677C7.09996 14.1543 7 14.3155 7 14.5V15.5C7 15.6845 7.09996 15.8457 7.24868 15.9323L6.26456 20.8529C6.18333 21.2591 6.44674 21.6542 6.85291 21.7354C7.25908 21.8167 7.6542 21.5533 7.73544 21.1471L8.73544 16.1471C8.74531 16.0977 8.75009 16.0485 8.75014 16H15.2499C15.2499 16.0485 15.2547 16.0977 15.2646 16.1471L16.2646 21.1471C16.3458 21.5533 16.7409 21.8167 17.1471 21.7354C17.5533 21.6542 17.8167 21.2591 17.7354 20.8529L16.7513 15.9323C16.9 15.8457 17 15.6845 17 15.5V14.5C17 14.2239 16.7761 14 16.5 14H8.75014C8.75009 13.9515 8.74531 13.9023 8.73544 13.8529L7.05699 5.46068C6.79991 4.17527 5.67127 3.25 4.36039 3.25H3Z" fill="#363538"/>
</svg>
