<svg width="24" height="24" viewBox="0 0 24 24" fill="none" xmlns="http://www.w3.org/2000/svg">
<path fill-rule="evenodd" clip-rule="evenodd" d="M22 12C22 8.26154 22 6.39231 21.1962 5C20.6695 4.08788 19.9121 3.33046 19 2.80385C17.6077 2 15.7385 2 12 2C8.26154 2 6.39231 2 5 2.80385C4.08788 3.33046 3.33046 4.08788 2.80385 5C2 6.39231 2 8.26154 2 12C2 15.7385 2 17.6077 2.80385 19C3.33046 19.9121 4.08788 20.6695 5 21.1962C6.39231 22 8.26154 22 12 22C15.7385 22 17.6077 22 19 21.1962C19.9121 20.6695 20.6695 19.9121 21.1962 19C22 17.6077 22 15.7385 22 12ZM16.7731 9.53033C17.066 9.23744 17.066 8.76256 16.7731 8.46967C16.4802 8.17678 16.0053 8.17678 15.7124 8.46967L12.7427 11.4393L11.7731 10.4697C11.4802 10.1768 11.0053 10.1768 10.7124 10.4697L8.16431 13.0178V11.9858C8.16431 11.5716 7.82852 11.2358 7.41431 11.2358C7.00009 11.2358 6.66431 11.5716 6.66431 11.9858V14.8142C6.66431 15.2285 7.00009 15.5642 7.41431 15.5642L10.2427 15.5642C10.6569 15.5642 10.9927 15.2285 10.9927 14.8142C10.9927 14.4 10.6569 14.0642 10.2427 14.0642H9.23916L11.2427 12.0607L12.2124 13.0303C12.5053 13.3232 12.9802 13.3232 13.2731 13.0303L16.7731 9.53033Z" fill="#363538"/>
</svg>
