<svg width="24" height="24" viewBox="0 0 24 24" fill="none" xmlns="http://www.w3.org/2000/svg">
<path d="M9 1.44995C9.41421 1.44995 9.75 1.78574 9.75 2.19995V6H14.25V2.19995C14.25 1.78574 14.5858 1.44995 15 1.44995C15.4142 1.44995 15.75 1.78574 15.75 2.19995V6H18.2593C18.6684 6 19 6.33164 19 6.74074V9C19 12.5513 16.3555 15.4849 12.9283 15.939C13.0497 16.2428 13.1698 16.5998 13.2567 16.9851C13.4058 17.6469 13.4714 18.4573 13.2115 19.2371C12.8436 20.3407 12.75 21.5565 12.75 22C12.75 22.4142 12.4142 22.75 12 22.75C11.5858 22.75 11.25 22.4142 11.25 22C11.25 21.4434 11.3564 20.0592 11.7885 18.7628C11.9286 18.3426 11.9109 17.8364 11.7933 17.3148C11.6774 16.8005 11.4787 16.3343 11.3292 16.0354C11.3176 16.0123 11.3074 15.9889 11.2984 15.9653C7.76186 15.6134 5 12.6292 5 9V6.74074C5 6.33164 5.33164 6 5.74074 6H8.25V2.19995C8.25 1.78574 8.58579 1.44995 9 1.44995Z" fill="#363538"/>
</svg>
