<svg width="24" height="24" viewBox="0 0 24 24" fill="none" xmlns="http://www.w3.org/2000/svg">
<path fill-rule="evenodd" clip-rule="evenodd" d="M22 12C22 8.26154 22 6.3923 21.1962 5C20.6695 4.08788 19.9121 3.33046 19 2.80385C17.6077 2 15.7385 2 12 2C8.26154 2 6.3923 2 5 2.80385C4.08788 3.33046 3.33046 4.08788 2.80385 5C2 6.3923 2 8.26154 2 12C2 15.7385 2 17.6077 2.80385 19C3.33046 19.9121 4.08788 20.6695 5 21.1962C6.3923 22 8.26154 22 12 22C15.7385 22 17.6077 22 19 21.1962C19.9121 20.6695 20.6695 19.9121 21.1962 19C22 17.6077 22 15.7385 22 12ZM17.0303 9.53033C17.3232 9.23744 17.3232 8.76256 17.0303 8.46967C16.7374 8.17678 16.2626 8.17678 15.9697 8.46967L10 14.4393L7.53033 11.9697C7.23744 11.6768 6.76256 11.6768 6.46967 11.9697C6.17678 12.2626 6.17678 12.7374 6.46967 13.0303L9.46967 16.0303C9.76256 16.3232 10.2374 16.3232 10.5303 16.0303L17.0303 9.53033Z" fill="#363538"/>
</svg>
