<svg width="24" height="24" viewBox="0 0 24 24" fill="none" xmlns="http://www.w3.org/2000/svg">
<path fill-rule="evenodd" clip-rule="evenodd" d="M13.3731 4.20723L13.545 4.23653C14.3945 4.4055 15.0891 4.90337 15.6417 5.52755C16.2282 6.19028 16.6904 7.03283 17.0518 7.90255C17.6527 9.3485 18.0158 10.9717 18.1993 12.2316C18.3773 12.2155 18.5806 12.1993 18.7833 12.2004C19.2901 12.2031 19.8834 12.3142 20.3936 12.8244C21.9663 14.3974 21.9664 16.9478 20.3936 18.5207C18.8207 20.0932 16.2702 20.0933 14.6973 18.5207C13.1245 16.9479 13.1247 14.3974 14.6973 12.8244C15.2076 12.3142 15.802 12.203 16.3087 12.2004C16.4343 12.1998 16.56 12.2056 16.6798 12.2141C16.5002 11.0869 16.1731 9.69884 15.6661 8.47872C15.3405 7.69543 14.956 7.01593 14.5186 6.52169C14.2462 6.214 13.9672 5.99175 13.6807 5.85274C13.0569 7.19841 12.1454 8.96614 11.1553 10.4953C10.5839 11.3779 9.96942 12.2079 9.35358 12.8342C9.2822 12.9068 9.20821 12.9785 9.13288 13.049C9.45999 13.2216 9.77502 13.4833 10.003 13.9055L10.0977 14.09C11.0138 16.0138 10.2691 18.3395 8.37311 19.3635C6.41583 20.4204 3.97216 19.6898 2.9151 17.7326C1.85839 15.7753 2.58781 13.3316 4.54499 12.2746L4.66413 12.215C4.75207 12.1742 4.83964 12.1422 4.92585 12.1154C4.68967 11.7716 4.49619 11.3612 4.37214 10.8723L4.32038 10.6438C4.17651 9.92407 4.23335 9.18396 4.69538 8.68868C5.21505 8.13189 5.95448 8.17028 6.51667 8.45138C7.3664 8.8764 8.12582 9.93116 8.54108 11.5041C8.97977 11.0114 9.44067 10.384 9.89655 9.67989C10.9864 7.99663 11.9912 5.98388 12.5811 4.64669L12.6407 4.53731C12.7981 4.29797 13.0823 4.16582 13.3731 4.20723ZM5.77546 9.76485C5.75257 9.8455 5.72553 10.022 5.79108 10.3498L5.85944 10.6193C6.096 11.3874 6.6195 11.8193 7.1319 12.0422C6.79378 10.626 6.18801 9.9645 5.84577 9.79317C5.81749 9.77903 5.79358 9.77146 5.77546 9.76485Z" fill="#363538"/>
</svg>
