<svg width="24" height="24" viewBox="0 0 24 24" fill="none" xmlns="http://www.w3.org/2000/svg">
<path d="M12.6004 5.73929C12.7623 6.33434 13.112 7.09912 13.7537 7.58109C14.1435 7.87357 14.6359 8.05539 15.2127 8.01859C15.7493 7.98414 16.2983 7.76327 16.8592 7.37601C17.0229 7.70884 17.1825 8.07356 17.3182 8.46683C19.7196 17.4653 11.8284 21.4504 6.95196 20.4688C6.55735 20.389 6.48528 19.8928 6.8045 19.6475C10.883 16.5198 11.0903 13.9776 10.6346 11.2735C10.2767 9.14958 10.3181 6.88423 11.9236 5.8389C12.1024 5.7225 12.3152 5.62054 12.5516 5.53617L12.6004 5.73929Z" fill="#363538"/>
<path d="M17.2635 3.24515C17.6775 3.24109 18.017 3.5733 18.0213 3.98734C18.0253 4.4013 17.6922 4.73988 17.2781 4.74418C17.0882 4.74637 16.8704 4.84615 16.6404 5.05961C16.4154 5.26852 16.2486 5.5239 16.1727 5.67777L16.0525 5.95609L16.0301 6.00101C16.0502 6.02868 16.072 6.05601 16.0926 6.085L16.0662 6.10258C15.6293 6.41616 15.3176 6.50859 15.117 6.52152C14.9315 6.53334 14.7866 6.48123 14.6541 6.38187C14.3819 6.17725 14.166 5.76903 14.0535 5.36527L14.0262 5.25492C14.2569 5.24158 14.4906 5.24285 14.7215 5.2559L14.8084 5.05668C14.8128 5.04652 14.8172 5.03636 14.8221 5.0264C14.9664 4.73019 15.2395 4.31402 15.6209 3.96C15.9997 3.60849 16.5595 3.25252 17.2635 3.24515Z" fill="#363538"/>
</svg>
