<svg width="24" height="24" viewBox="0 0 24 24" fill="none" xmlns="http://www.w3.org/2000/svg">
<path d="M17.882 9.99989H13.7075C14.9139 11.3593 16.565 13.1109 18.0002 14.2499C18.7227 14.8233 19.6279 15.4299 20.5144 15.9842C21.3986 16.537 21.0154 17.9999 19.9726 17.9999L12.7502 17.9999V21.9999C12.7502 22.4141 12.4144 22.7499 12.0002 22.7499C11.586 22.7499 11.2502 22.4141 11.2502 21.9999V17.9999L4.02778 17.9999C2.98502 17.9999 2.60182 16.537 3.48598 15.9842C4.37252 15.4299 5.27769 14.8233 6.00021 14.2499C7.43539 13.1109 9.0865 11.3593 10.2929 9.99989H6.11839C5.07008 9.99989 4.68087 8.50355 5.56525 7.94067C6.51772 7.33446 7.49188 6.65711 8.25021 5.99989C9.24418 5.13845 10.4428 3.81282 11.2129 2.92651C11.6262 2.45093 12.3743 2.45093 12.7875 2.92651C13.5576 3.81282 14.7562 5.13845 15.7502 5.99989C16.5085 6.65711 17.4827 7.33445 18.4352 7.94067C19.3195 8.50355 18.9303 9.99989 17.882 9.99989Z" fill="#363538"/>
</svg>
