<svg width="24" height="24" viewBox="0 0 24 24" fill="none" xmlns="http://www.w3.org/2000/svg">
<path fill-rule="evenodd" clip-rule="evenodd" d="M2.75 20.2501V7.54109C2.75 7.15042 2.9775 6.79552 3.33249 6.63241L11.5825 2.84181C11.8475 2.72005 12.1525 2.72005 12.4175 2.84181L20.6675 6.63241C21.0225 6.79552 21.25 7.15042 21.25 7.54109V20.2501C21.25 20.8023 20.8023 21.2501 20.25 21.2501H14.75V19.5001C14.75 17.9813 13.5188 16.7501 12 16.7501C10.4812 16.7501 9.25 17.9813 9.25 19.5001V21.2501H3.75C3.19772 21.2501 2.75 20.8023 2.75 20.2501ZM12.75 7.00008C12.75 6.58587 12.4142 6.25008 12 6.25008C11.5858 6.25008 11.25 6.58587 11.25 7.00008V7.25008H10.6654C10.2512 7.25008 9.91544 7.58587 9.91544 8.00008C9.91544 8.4143 10.2512 8.75008 10.6654 8.75008H11.25V12.0001C11.25 12.4143 11.5858 12.7501 12 12.7501C12.4142 12.7501 12.75 12.4143 12.75 12.0001V8.75008H13.3335C13.7478 8.75008 14.0835 8.4143 14.0835 8.00008C14.0835 7.58587 13.7478 7.25008 13.3335 7.25008H12.75V7.00008ZM6 11.2501C5.58579 11.2501 5.25 11.5859 5.25 12.0001C5.25 12.4143 5.58579 12.7501 6 12.7501H7.32965C7.74386 12.7501 8.07965 12.4143 8.07965 12.0001C8.07965 11.5859 7.74386 11.2501 7.32965 11.2501H6ZM16.668 11.2501C16.2538 11.2501 15.918 11.5859 15.918 12.0001C15.918 12.4143 16.2538 12.7501 16.668 12.7501H18C18.4142 12.7501 18.75 12.4143 18.75 12.0001C18.75 11.5859 18.4142 11.2501 18 11.2501H16.668ZM6 14.7501C5.58579 14.7501 5.25 15.0859 5.25 15.5001C5.25 15.9143 5.58579 16.2501 6 16.2501H7.32965C7.74386 16.2501 8.07965 15.9143 8.07965 15.5001C8.07965 15.0859 7.74386 14.7501 7.32965 14.7501H6ZM16.668 14.7501C16.2538 14.7501 15.918 15.0859 15.918 15.5001C15.918 15.9143 16.2538 16.2501 16.668 16.2501H18C18.4142 16.2501 18.75 15.9143 18.75 15.5001C18.75 15.0859 18.4142 14.7501 18 14.7501H16.668Z" fill="#363538"/>
<path d="M13.25 21.2501H10.75V19.5001C10.75 18.8097 11.3096 18.2501 12 18.2501C12.6904 18.2501 13.25 18.8097 13.25 19.5001V21.2501Z" fill="#363538"/>
</svg>
