<svg width="24" height="24" viewBox="0 0 24 24" fill="none" xmlns="http://www.w3.org/2000/svg">
<path d="M6.92681 4.39883C7.33281 3.99282 7.35253 3.32853 6.84295 3.1297C6.5344 3.0093 6.20163 2.95231 5.86364 2.96199C5.52566 2.97167 5.18908 3.04783 4.87311 3.18612C4.55715 3.3244 4.268 3.52211 4.02216 3.76794C3.77632 4.01378 3.57862 4.30293 3.44033 4.6189C3.30205 4.93486 3.22589 5.27144 3.21621 5.60943C3.20653 5.94741 3.26352 6.28018 3.38392 6.58873C3.58275 7.09831 4.24704 7.0786 4.65305 6.67259L6.92681 4.39883Z" fill="#363538"/>
<path fill-rule="evenodd" clip-rule="evenodd" d="M12 22.0001C16.9706 22.0001 21 17.9706 21 13.0001C21 8.0295 16.9706 4.00006 12 4.00006C7.02944 4.00006 3 8.0295 3 13.0001C3 17.9706 7.02944 22.0001 12 22.0001ZM12.75 8.00006C12.75 7.58585 12.4142 7.25006 12 7.25006C11.5858 7.25006 11.25 7.58585 11.25 8.00006V14.0001C11.25 14.4143 11.5858 14.7501 12 14.7501H16C16.4142 14.7501 16.75 14.4143 16.75 14.0001C16.75 13.5859 16.4142 13.2501 16 13.2501H12.75V8.00006Z" fill="#363538"/>
<path d="M17.1614 3.1297C16.6518 3.32853 16.6715 3.99282 17.0775 4.39883L19.3513 6.67259C19.7573 7.0786 20.4216 7.09831 20.6204 6.58873C20.7408 6.28018 20.7978 5.94741 20.7881 5.60943C20.7784 5.27144 20.7023 4.93486 20.564 4.6189C20.4257 4.30293 20.228 4.01378 19.9822 3.76794C19.7363 3.52211 19.4472 3.3244 19.1312 3.18612C18.8153 3.04783 18.4787 2.97167 18.1407 2.96199C17.8027 2.95231 17.4699 3.0093 17.1614 3.1297Z" fill="#363538"/>
</svg>
