<svg width="24" height="24" viewBox="0 0 24 24" fill="none" xmlns="http://www.w3.org/2000/svg">
<path d="M19 2.75C18.5858 2.75 18.25 2.41421 18.25 2C18.25 1.58579 18.5858 1.25 19 1.25H22C22.3033 1.25 22.5768 1.43273 22.6929 1.71299C22.809 1.99324 22.7448 2.31583 22.5303 2.53033L20.8107 4.25H22C22.4142 4.25 22.75 4.58579 22.75 5C22.75 5.41421 22.4142 5.75 22 5.75H19C18.6967 5.75 18.4232 5.56727 18.3071 5.28701C18.191 5.00676 18.2552 4.68417 18.4697 4.46967L20.1893 2.75H19Z" fill="#363538"/>
<path d="M15 6.75C14.5858 6.75 14.25 6.41421 14.25 6C14.25 5.58579 14.5858 5.25 15 5.25H17C17.3033 5.25 17.5768 5.43273 17.6929 5.71299C17.809 5.99324 17.7448 6.31583 17.5303 6.53033L16.8107 7.25H17C17.4142 7.25 17.75 7.58579 17.75 8C17.75 8.41421 17.4142 8.75 17 8.75H15C14.6967 8.75 14.4232 8.56727 14.3071 8.28701C14.191 8.00676 14.2552 7.68417 14.4697 7.46967L15.1893 6.75H15Z" fill="#363538"/>
<path fill-rule="evenodd" clip-rule="evenodd" d="M13.8819 7C13.6444 6.73462 13.5 6.38418 13.5 6C13.5 5.80028 13.539 5.60967 13.6099 5.43539C12.7919 5.15323 11.9138 5 11 5C6.58172 5 3 8.58172 3 13C3 17.4183 6.58172 21 11 21C15.4183 21 19 17.4183 19 13C19 11.5921 18.6363 10.2692 17.9978 9.12002C17.7327 9.35637 17.3831 9.5 17 9.5H15C14.3933 9.5 13.8464 9.13454 13.6142 8.57403C13.3927 8.03935 13.4993 7.42763 13.8819 7ZM11.75 8.5C11.75 8.08579 11.4142 7.75 11 7.75C10.5858 7.75 10.25 8.08579 10.25 8.5V13.9C10.25 14.3142 10.5858 14.65 11 14.65H14.6C15.0142 14.65 15.35 14.3142 15.35 13.9C15.35 13.4858 15.0142 13.15 14.6 13.15H11.75V8.5Z" fill="#363538"/>
</svg>
