<svg width="24" height="24" viewBox="0 0 24 24" fill="none" xmlns="http://www.w3.org/2000/svg">
<path fill-rule="evenodd" clip-rule="evenodd" d="M22 12C22 8.26154 22 6.3923 21.1962 5C20.6695 4.08788 19.9121 3.33046 19 2.80385C17.6077 2 15.7385 2 12 2C8.26154 2 6.3923 2 5 2.80385C4.08788 3.33046 3.33046 4.08788 2.80385 5C2 6.3923 2 8.26154 2 12C2 15.7385 2 17.6077 2.80385 19C3.33046 19.9121 4.08788 20.6695 5 21.1962C6.3923 22 8.26154 22 12 22C15.7385 22 17.6077 22 19 21.1962C19.9121 20.6695 20.6695 19.9121 21.1962 19C22 17.6077 22 15.7385 22 12ZM9.7019 8.64124C9.409 8.34835 8.93413 8.34835 8.64124 8.64124C8.34834 8.93414 8.34834 9.40901 8.64124 9.7019L10.9393 12L8.64124 14.2981C8.34834 14.591 8.34834 15.0659 8.64124 15.3588C8.93413 15.6517 9.409 15.6517 9.7019 15.3588L12 13.0607L14.2981 15.3588C14.591 15.6517 15.0659 15.6517 15.3588 15.3588C15.6516 15.0659 15.6516 14.591 15.3588 14.2981L13.0607 12L15.3588 9.7019C15.6516 9.40901 15.6516 8.93414 15.3588 8.64124C15.0659 8.34835 14.591 8.34835 14.2981 8.64124L12 10.9393L9.7019 8.64124Z" fill="#363538"/>
</svg>
