<svg width="24" height="24" viewBox="0 0 24 24" fill="none" xmlns="http://www.w3.org/2000/svg">
<path fill-rule="evenodd" clip-rule="evenodd" d="M6 3H18C20.2091 3 22 4.79086 22 7V17C22 19.2091 20.2091 21 18 21H6C3.79086 21 2 19.2091 2 17V7C2 4.79086 3.79086 3 6 3ZM11.2684 11.1265C11.4481 11.1265 11.5892 10.969 11.5473 10.7943C11.4981 10.5894 11.4267 10.4009 11.3332 10.2288C11.193 9.9674 11.0112 9.74675 10.7877 9.56683C10.5642 9.38501 10.3076 9.24675 10.0178 9.15206C9.72997 9.05736 9.41747 9.01001 9.08034 9.01001C8.56898 9.01001 8.10875 9.12743 7.69966 9.36228C7.29057 9.59524 6.96671 9.93425 6.72807 10.3793C6.48944 10.8244 6.37012 11.3642 6.37012 11.9986C6.37012 12.6312 6.48754 13.17 6.72239 13.6151C6.95913 14.0602 7.2811 14.4002 7.6883 14.635C8.09739 14.8699 8.56141 14.9873 9.08034 14.9873C9.45345 14.9873 9.78773 14.9314 10.0832 14.8197C10.3805 14.706 10.6362 14.5526 10.8502 14.3594C11.0661 14.1644 11.2375 13.9437 11.3644 13.6975C11.4394 13.5531 11.498 13.4056 11.5402 13.2548C11.5886 13.082 11.4485 12.9241 11.2691 12.9232L10.6129 12.9202C10.4675 12.9196 10.3468 13.0253 10.2938 13.1606C10.2698 13.2218 10.2413 13.2796 10.2082 13.3339C10.1362 13.4551 10.0453 13.5583 9.93546 13.6435C9.82561 13.7269 9.69966 13.7903 9.55762 13.8339C9.41747 13.8774 9.265 13.8992 9.10023 13.8992C8.80667 13.8992 8.54815 13.8272 8.32466 13.6833C8.10118 13.5394 7.92694 13.3263 7.80194 13.0441C7.67883 12.7619 7.61728 12.4134 7.61728 11.9986C7.61728 11.5952 7.67883 11.2524 7.80194 10.9702C7.92504 10.6861 8.09834 10.4702 8.32182 10.3225C8.54531 10.1729 8.80762 10.0981 9.10875 10.0981C9.27542 10.0981 9.42978 10.1218 9.57182 10.1691C9.71576 10.2164 9.84266 10.2846 9.9525 10.3736C10.0624 10.4627 10.1523 10.5706 10.2224 10.6975C10.2533 10.7526 10.2796 10.8112 10.3013 10.8734C10.3506 11.0145 10.4727 11.1265 10.6222 11.1265H11.2684ZM17.2841 11.1265C17.4637 11.1265 17.6048 10.969 17.5629 10.7943C17.5137 10.5894 17.4423 10.4009 17.3488 10.2288C17.2087 9.9674 17.0268 9.74675 16.8034 9.56683C16.5799 9.38501 16.3232 9.24675 16.0335 9.15206C15.7456 9.05736 15.4331 9.01001 15.096 9.01001C14.5846 9.01001 14.1244 9.12743 13.7153 9.36228C13.3062 9.59524 12.9823 9.93425 12.7437 10.3793C12.5051 10.8244 12.3857 11.3642 12.3857 11.9986C12.3857 12.6312 12.5032 13.17 12.738 13.6151C12.9748 14.0602 13.2967 14.4002 13.7039 14.635C14.113 14.8699 14.577 14.9873 15.096 14.9873C15.4691 14.9873 15.8034 14.9314 16.0988 14.8197C16.3962 14.706 16.6518 14.5526 16.8659 14.3594C17.0818 14.1644 17.2532 13.9437 17.3801 13.6975C17.455 13.5531 17.5136 13.4056 17.5558 13.2548C17.6042 13.082 17.4641 12.9241 17.2848 12.9232L16.6285 12.9202C16.4831 12.9196 16.3625 13.0253 16.3094 13.1606C16.2854 13.2218 16.2569 13.2796 16.2238 13.3339C16.1518 13.4551 16.0609 13.5583 15.9511 13.6435C15.8412 13.7269 15.7153 13.7903 15.5732 13.8339C15.4331 13.8774 15.2806 13.8992 15.1159 13.8992C14.8223 13.8992 14.5638 13.8272 14.3403 13.6833C14.1168 13.5394 13.9426 13.3263 13.8176 13.0441C13.6945 12.7619 13.6329 12.4134 13.6329 11.9986C13.6329 11.5952 13.6945 11.2524 13.8176 10.9702C13.9407 10.6861 14.114 10.4702 14.3374 10.3225C14.5609 10.1729 14.8232 10.0981 15.1244 10.0981C15.291 10.0981 15.4454 10.1218 15.5874 10.1691C15.7314 10.2164 15.8583 10.2846 15.9681 10.3736C16.078 10.4627 16.1679 10.5706 16.238 10.6975C16.2689 10.7526 16.2952 10.8112 16.3169 10.8734C16.3662 11.0145 16.4884 11.1265 16.6378 11.1265H17.2841Z" fill="#363538"/>
</svg>
