<svg width="24" height="24" viewBox="0 0 24 24" fill="none" xmlns="http://www.w3.org/2000/svg">
<path d="M20.6655 5.77738L15.6 4C13.3465 5.18604 10.6535 5.18604 8.4 4L3.33446 5.77738C3.1341 5.84768 3 6.03685 3 6.24918V9.98298C3 10.3108 3.3102 10.5499 3.62725 10.4665L6.6 9.68421V18.9245C6.6 18.9986 6.65324 19.062 6.72623 19.0748C10.2154 19.6869 13.7846 19.6869 17.2738 19.0748C17.3468 19.062 17.4 18.9986 17.4 18.9245V9.68421L20.3728 10.4665C20.6898 10.5499 21 10.3108 21 9.98298V6.24918C21 6.03686 20.8659 5.84768 20.6655 5.77738Z" fill="#363538"/>
</svg>
