<svg width="24" height="24" viewBox="0 0 24 24" fill="none" xmlns="http://www.w3.org/2000/svg">
<path d="M15 3.25C15.4142 3.25 15.75 3.58579 15.75 4V4.625C15.75 5.03921 15.4142 5.375 15 5.375C14.5858 5.375 14.25 5.03921 14.25 4.625V4C14.25 3.58579 14.5858 3.25 15 3.25Z" fill="#363538"/>
<path d="M18.75 9.625C18.75 11.2181 17.7566 12.5792 16.3554 13.1226C15.8734 12.7619 15.2907 12.4993 14.6143 12.3785C14.2591 10.7743 13.4505 9.58857 12.3527 8.85189C12.0678 8.66069 11.7693 8.50374 11.462 8.379C11.9756 6.92042 13.3657 5.875 15 5.875C17.0711 5.875 18.75 7.55393 18.75 9.625Z" fill="#363538"/>
<path d="M20.6495 6.4624C20.8566 6.82112 20.7337 7.27981 20.375 7.48692L19.8337 7.79942C19.475 8.00653 19.0163 7.88362 18.8092 7.5249C18.6021 7.16618 18.725 6.70749 19.0837 6.50038L19.625 6.18788C19.9837 5.98078 20.4424 6.10368 20.6495 6.4624Z" fill="#363538"/>
<path d="M9.625 7.48692C9.26628 7.27981 9.14338 6.82112 9.35048 6.4624C9.55759 6.10368 10.0163 5.98078 10.375 6.18788L10.9163 6.50038C11.275 6.70749 11.3979 7.16618 11.1908 7.5249C10.9837 7.88362 10.525 8.00653 10.1663 7.79942L9.625 7.48692Z" fill="#363538"/>
<path d="M20.375 11.8505C20.7337 12.0576 20.8566 12.5163 20.6495 12.875C20.4424 13.2337 19.9837 13.3566 19.625 13.1495L19.0837 12.837C18.725 12.6299 18.6021 12.1712 18.8092 11.8125C19.0163 11.4538 19.475 11.3309 19.8337 11.538L20.375 11.8505Z" fill="#363538"/>
<path d="M13.3385 20H6.22476C2.87704 20 1.6217 16.2338 4.9694 14.9784C3.29558 8.70147 12.9201 6.19069 13.757 13.3046C17.9415 13.3046 18.36 19.5815 13.3385 20Z" fill="#363538"/>
</svg>
