<svg width="24" height="24" viewBox="0 0 24 24" fill="none" xmlns="http://www.w3.org/2000/svg">
<path d="M17.8194 4.70229C18.1123 4.40949 18.5871 4.40943 18.88 4.70229C19.1725 4.99518 19.1727 5.47005 18.88 5.76284L4.03038 20.6115C3.73749 20.9044 3.26273 20.9044 2.96984 20.6115C2.6771 20.3186 2.67699 19.8438 2.96984 19.5509L17.8194 4.70229Z" fill="#363538"/>
<path d="M16.8302 10.4787C22.2102 10.4788 22.7481 18.4675 16.2921 19.0001H8.18175L16.8136 10.3673C16.8184 10.4043 16.8257 10.4412 16.8302 10.4787Z" fill="#363538"/>
<path d="M5.53136 12.6095C3.72944 5.92042 12.1099 2.59331 15.5167 7.00209L4.36925 18.1496C2.40391 16.6989 2.35964 13.7874 5.53136 12.6095Z" fill="#363538"/>
</svg>
