<svg width="24" height="24" viewBox="0 0 24 24" fill="none" xmlns="http://www.w3.org/2000/svg">
<path d="M6.86396 13.5505C6.14876 13.9603 5.3512 14.6826 5.08886 15.8407C2.63783 15.1113 2.03356 12.0794 4.9694 10.9784C3.51362 5.51914 10.6043 2.90873 13.027 7.00152C12.7177 7.00828 12.3946 7.0389 12.0574 7.09526C10.6986 7.32236 9.68933 7.87879 8.97613 8.64161C8.27272 9.39396 7.91668 10.283 7.7443 11.0897C7.57246 11.8938 7.57468 12.6529 7.61557 13.2003C7.38415 13.2865 7.1258 13.4005 6.86396 13.5505Z" fill="#363538"/>
<path d="M8.72222 13.9308C8.72222 13.9308 7.55554 8.86155 12.2222 8.08158C16.8889 7.30162 17.2778 12.371 17.2778 12.371C17.2778 12.371 20 12.371 20 15.4905C20 18.2383 17.5862 18.8683 17.0109 18.9794C16.9293 18.9952 16.8472 19 16.764 19H8.72222C8.72222 19 6 19 6 16.6604C6 14.3207 8.72222 13.9308 8.72222 13.9308Z" fill="#363538"/>
</svg>
