<svg width="24" height="24" viewBox="0 0 24 24" fill="none" xmlns="http://www.w3.org/2000/svg">
<path d="M6.57536 18.971C6.51752 18.9279 6.46207 18.88 6.40955 18.8275C5.82377 18.2417 5.82377 17.292 6.40955 16.7062L7.27051 15.8453C7.50953 15.6062 7.80914 15.4647 8.1199 15.4208C7.86998 14.8355 8.01356 14.132 8.52174 13.6948C9.38638 12.951 10.5147 12.5 11.7446 12.5C13.8431 12.5 15.6362 13.8075 16.3538 15.6522C16.6308 15.7094 16.8948 15.8455 17.1098 16.0604C17.6955 16.6462 17.6955 17.596 17.1098 18.1818L16.2915 19C22.7477 18.4674 22.2105 10.4786 16.8304 10.4786C15.7544 1.42451 3.38003 4.62006 5.53208 12.6089C1.42383 14.134 2.70723 18.5702 6.57536 18.971Z" fill="#363538"/>
<path d="M6.93988 18.2972C6.64699 18.0043 6.64699 17.5294 6.93988 17.2365L7.80084 16.3756C8.09373 16.0827 8.5686 16.0827 8.8615 16.3756L9.72245 17.2365C10.0153 17.5294 10.0153 18.0043 9.72245 18.2972C9.60343 18.4162 9.45436 18.4869 9.29967 18.5092C9.71253 19.4671 10.6653 20.1377 11.7746 20.1377C12.4696 20.1377 13.1015 19.8755 13.5798 19.4435C13.8871 19.1658 14.3614 19.1899 14.639 19.4972C14.9167 19.8046 14.8927 20.2788 14.5853 20.5565C13.8422 21.2279 12.8554 21.6377 11.7746 21.6377C9.81531 21.6377 8.1698 20.2941 7.70928 18.4779C7.44798 18.5655 7.14799 18.5053 6.93988 18.2972Z" fill="#363538"/>
<path d="M16.5794 16.5908C16.8723 16.8837 16.8723 17.3585 16.5794 17.6514L15.7185 18.5124C15.4256 18.8053 14.9507 18.8053 14.6578 18.5124L13.7969 17.6514C13.504 17.3585 13.504 16.8837 13.7969 16.5908C13.9159 16.4717 14.065 16.4011 14.2197 16.3788C13.8069 15.4207 12.8541 14.75 11.7446 14.75C11.0733 14.75 10.4609 14.9946 9.98904 15.4006C9.67502 15.6707 9.20148 15.6351 8.93136 15.3211C8.66124 15.0071 8.69682 14.5335 9.01084 14.2634C9.74456 13.6322 10.7009 13.25 11.7446 13.25C13.704 13.25 15.3496 14.5938 15.81 16.41C16.0713 16.3224 16.3713 16.3827 16.5794 16.5908Z" fill="#363538"/>
</svg>
