<svg width="24" height="24" viewBox="0 0 24 24" fill="none" xmlns="http://www.w3.org/2000/svg">
<path fill-rule="evenodd" clip-rule="evenodd" d="M7.14613 18H16.2924C22.7485 17.4674 22.2105 9.47856 16.8304 9.47855C15.7544 0.424515 3.38003 3.62006 5.53208 11.6089C1.2279 13.2067 2.84191 18 7.14613 18ZM9.04218 11.4568L12.1115 8.05608C12.2285 7.92647 12.4436 8.04016 12.398 8.20749L11.7595 10.5486C11.7356 10.6362 11.7885 10.7262 11.8776 10.7496L13.876 11.2757C13.996 11.3073 14.0402 11.4519 13.9578 11.5432L10.8885 14.9439C10.7715 15.0735 10.5564 14.9598 10.602 14.7925L11.2405 12.4514C11.2644 12.3638 11.2115 12.2738 11.1224 12.2504L9.12395 11.7243C9.00397 11.6927 8.95977 11.5481 9.04218 11.4568Z" fill="#363538"/>
<path d="M7.35048 20.625C7.14337 20.9837 7.26628 21.4424 7.625 21.6495C7.98372 21.8566 8.44241 21.7337 8.64952 21.375L9.64952 19.6429C9.85663 19.2842 9.73372 18.8255 9.375 18.6184C9.01628 18.4113 8.55759 18.5342 8.35048 18.8929L7.35048 20.625Z" fill="#363538"/>
<path d="M10.625 21.6495C10.2663 21.4424 10.1434 20.9837 10.3505 20.625L11.3505 18.8929C11.5576 18.5342 12.0163 18.4113 12.375 18.6184C12.7337 18.8255 12.8566 19.2842 12.6495 19.6429L11.6495 21.375C11.4424 21.7337 10.9837 21.8566 10.625 21.6495Z" fill="#363538"/>
<path d="M13.3505 20.625C13.1434 20.9837 13.2663 21.4424 13.625 21.6495C13.9837 21.8566 14.4424 21.7337 14.6495 21.375L15.6495 19.6429C15.8566 19.2842 15.7337 18.8255 15.375 18.6184C15.0163 18.4113 14.5576 18.5342 14.3505 18.8929L13.3505 20.625Z" fill="#363538"/>
</svg>
