<svg width="24" height="24" viewBox="0 0 24 24" fill="none" xmlns="http://www.w3.org/2000/svg">
<path d="M7.14613 18H10.18L10.3811 17.4422L8.804 16.8737C7.9648 16.5712 7.73734 15.4913 8.38321 14.876L12.3924 11.0565C13.3092 10.1831 14.7785 11.141 14.3491 12.3323L13.619 14.3575L15.1961 14.926C16.0353 15.2285 16.2627 16.3084 15.6168 16.9237L14.4871 18H16.2924C22.7485 17.4674 22.2105 9.47856 16.8304 9.47855C15.7544 0.424515 3.38003 3.62006 5.53208 11.6089C1.2279 13.2067 2.84191 18 7.14613 18Z" fill="#363538"/>
<path d="M13.0822 11.7805L9.07298 15.6C8.96534 15.7026 9.00325 15.8826 9.14311 15.933L11.4728 16.7728C11.5767 16.8102 11.6306 16.9248 11.5931 17.0288L10.5918 19.8066C10.5202 20.0051 10.7651 20.1648 10.9179 20.0192L14.9271 16.1997C15.0347 16.0971 14.9968 15.9171 14.8569 15.8667L12.5273 15.0269C12.4234 14.9895 12.3695 14.8749 12.407 14.771L13.4083 11.9932C13.4799 11.7946 13.235 11.635 13.0822 11.7805Z" fill="#363538"/>
</svg>
