<svg width="24" height="24" viewBox="0 0 24 24" fill="none" xmlns="http://www.w3.org/2000/svg">
<path d="M7.14613 18H8.19113C8.28678 17.7975 8.41833 17.6077 8.58579 17.4403C8.97631 17.0498 9.48816 16.8545 10 16.8545V14.8545C10 13.7499 10.8954 12.8545 12 12.8545C13.1046 12.8545 14 13.7499 14 14.8545V16.8545C14.5118 16.8545 15.0237 17.0498 15.4142 17.4403C15.5817 17.6077 15.7132 17.7975 15.8089 18H16.2924C22.7485 17.4674 22.2105 9.47856 16.8304 9.47855C15.7544 0.424514 3.38003 3.62006 5.53208 11.6089C1.2279 13.2067 2.84191 18 7.14613 18Z" fill="#363538"/>
<path d="M12.75 14.8545C12.75 14.4403 12.4142 14.1045 12 14.1045C11.5858 14.1045 11.25 14.4403 11.25 14.8545V19.0438L10.5303 18.3242C10.2374 18.0313 9.76256 18.0313 9.46967 18.3242C9.17678 18.6171 9.17678 19.0919 9.46967 19.3848L11.4697 21.3848C11.7626 21.6777 12.2374 21.6777 12.5303 21.3848L14.5303 19.3848C14.8232 19.0919 14.8232 18.6171 14.5303 18.3242C14.2374 18.0313 13.7626 18.0313 13.4697 18.3242L12.75 19.0438V14.8545Z" fill="#363538"/>
</svg>
