<svg width="24" height="24" viewBox="0 0 24 24" fill="none" xmlns="http://www.w3.org/2000/svg">
<path d="M16.2924 18H7.14613C2.84191 18 1.2279 13.2067 5.53208 11.6089C3.38003 3.62006 15.7544 0.424515 16.8304 9.47855C22.2105 9.47856 22.7485 17.4674 16.2924 18Z" fill="#363538"/>
<path d="M7.35048 20.625C7.14337 20.9837 7.26628 21.4424 7.625 21.6495C7.98372 21.8566 8.44241 21.7337 8.64952 21.375L9.64952 19.6429C9.85663 19.2842 9.73372 18.8255 9.375 18.6184C9.01628 18.4113 8.55759 18.5342 8.35048 18.8929L7.35048 20.625Z" fill="#363538"/>
<path d="M10.625 21.6495C10.2663 21.4424 10.1434 20.9837 10.3505 20.625L11.3505 18.8929C11.5576 18.5342 12.0163 18.4113 12.375 18.6184C12.7337 18.8255 12.8566 19.2842 12.6495 19.6429L11.6495 21.375C11.4424 21.7337 10.9837 21.8566 10.625 21.6495Z" fill="#363538"/>
<path d="M13.3505 20.625C13.1434 20.9837 13.2663 21.4424 13.625 21.6495C13.9837 21.8566 14.4424 21.7337 14.6495 21.375L15.6495 19.6429C15.8566 19.2842 15.7337 18.8255 15.375 18.6184C15.0163 18.4113 14.5576 18.5342 14.3505 18.8929L13.3505 20.625Z" fill="#363538"/>
</svg>
