<svg width="24" height="24" viewBox="0 0 24 24" fill="none" xmlns="http://www.w3.org/2000/svg">
<path d="M7.14613 18H7.38191C7.40038 17.9794 7.41953 17.9592 7.43934 17.9393C7.51773 17.8609 7.60265 17.793 7.69233 17.7356C7.38343 17.1872 7.44662 16.4858 7.88191 16C7.35422 15.411 7.37337 14.5053 7.93934 13.9393C8.50531 13.3734 9.41104 13.3542 10 13.8819C10.589 13.3542 11.4947 13.3734 12.0607 13.9393C12.1326 14.0113 12.1957 14.0887 12.25 14.1703C12.3043 14.0887 12.3674 14.0113 12.4393 13.9393C13.0053 13.3734 13.911 13.3542 14.5 13.8819C15.089 13.3542 15.9947 13.3734 16.5607 13.9393C17.1266 14.5053 17.1458 15.411 16.6181 16C17.1161 16.5558 17.1271 17.3937 16.6511 17.9619C22.7265 17.1682 22.1088 9.47856 16.8304 9.47855C15.7544 0.424514 3.38003 3.62006 5.53208 11.6089C1.2279 13.2067 2.84191 18 7.14613 18Z" fill="#363538"/>
<path d="M9.53033 14.4697C9.23744 14.1768 8.76256 14.1768 8.46967 14.4697C8.17678 14.7626 8.17678 15.2374 8.46967 15.5303L8.93934 16L8.46967 16.4697C8.17678 16.7626 8.17678 17.2374 8.46967 17.5303C8.76256 17.8232 9.23744 17.8232 9.53033 17.5303L10 17.0607L10.4697 17.5303C10.7626 17.8232 11.2374 17.8232 11.5303 17.5303C11.8232 17.2374 11.8232 16.7626 11.5303 16.4697L11.0607 16L11.5303 15.5303C11.8232 15.2374 11.8232 14.7626 11.5303 14.4697C11.2374 14.1768 10.7626 14.1768 10.4697 14.4697L10 14.9393L9.53033 14.4697Z" fill="#363538"/>
<path d="M7.96967 18.4697C8.26256 18.1768 8.73744 18.1768 9.03033 18.4697L9.5 18.9393L9.96967 18.4697C10.2626 18.1768 10.7374 18.1768 11.0303 18.4697C11.3232 18.7626 11.3232 19.2374 11.0303 19.5303L10.5607 20L11.0303 20.4697C11.3232 20.7626 11.3232 21.2374 11.0303 21.5303C10.7374 21.8232 10.2626 21.8232 9.96967 21.5303L9.5 21.0607L9.03033 21.5303C8.73744 21.8232 8.26256 21.8232 7.96967 21.5303C7.67678 21.2374 7.67678 20.7626 7.96967 20.4697L8.43934 20L7.96967 19.5303C7.67678 19.2374 7.67678 18.7626 7.96967 18.4697Z" fill="#363538"/>
<path d="M11.9697 18.4697C12.2626 18.1768 12.7374 18.1768 13.0303 18.4697L13.5 18.9393L13.9697 18.4697C14.2626 18.1768 14.7374 18.1768 15.0303 18.4697C15.3232 18.7626 15.3232 19.2374 15.0303 19.5303L14.5607 20L15.0303 20.4697C15.3232 20.7626 15.3232 21.2374 15.0303 21.5303C14.7374 21.8232 14.2626 21.8232 13.9697 21.5303L13.5 21.0607L13.0303 21.5303C12.7374 21.8232 12.2626 21.8232 11.9697 21.5303C11.6768 21.2374 11.6768 20.7626 11.9697 20.4697L12.4393 20L11.9697 19.5303C11.6768 19.2374 11.6768 18.7626 11.9697 18.4697Z" fill="#363538"/>
<path d="M12.9697 14.4697C13.2626 14.1768 13.7374 14.1768 14.0303 14.4697L14.5 14.9393L14.9697 14.4697C15.2626 14.1768 15.7374 14.1768 16.0303 14.4697C16.3232 14.7626 16.3232 15.2374 16.0303 15.5303L15.5607 16L16.0303 16.4697C16.3232 16.7626 16.3232 17.2374 16.0303 17.5303C15.7374 17.8232 15.2626 17.8232 14.9697 17.5303L14.5 17.0607L14.0303 17.5303C13.7374 17.8232 13.2626 17.8232 12.9697 17.5303C12.6768 17.2374 12.6768 16.7626 12.9697 16.4697L13.4393 16L12.9697 15.5303C12.6768 15.2374 12.6768 14.7626 12.9697 14.4697Z" fill="#363538"/>
</svg>
