<svg width="24" height="24" viewBox="0 0 24 24" fill="none" xmlns="http://www.w3.org/2000/svg">
<path d="M7.14613 19H10V17.8545C9.48816 17.8545 8.97631 17.6592 8.58579 17.2687C7.80474 16.4877 7.80474 15.2213 8.58579 14.4403L10.5858 12.4403C11.3668 11.6592 12.6332 11.6592 13.4142 12.4403L15.4142 14.4403C16.1953 15.2213 16.1953 16.4877 15.4142 17.2687C15.0237 17.6592 14.5118 17.8545 14 17.8545V19H16.2924C22.7485 18.4674 22.2105 10.4786 16.8304 10.4786C15.7544 1.42451 3.38003 4.62006 5.53208 12.6089C1.2279 14.2067 2.84191 19 7.14613 19Z" fill="#363538"/>
<path d="M12.5303 13.3242C12.2374 13.0313 11.7626 13.0313 11.4697 13.3242L9.46967 15.3242C9.17678 15.6171 9.17678 16.0919 9.46967 16.3848C9.76256 16.6777 10.2374 16.6777 10.5303 16.3848L11.25 15.6652V19.8545C11.25 20.2687 11.5858 20.6045 12 20.6045C12.4142 20.6045 12.75 20.2687 12.75 19.8545V15.6652L13.4697 16.3848C13.7626 16.6777 14.2374 16.6777 14.5303 16.3848C14.8232 16.0919 14.8232 15.6171 14.5303 15.3242L12.5303 13.3242Z" fill="#363538"/>
</svg>
