<svg width="24" height="24" viewBox="0 0 24 24" fill="none" xmlns="http://www.w3.org/2000/svg">
<path fill-rule="evenodd" clip-rule="evenodd" d="M5.53222 12.6086C3.38063 4.62008 15.7539 1.42504 16.8301 10.4788C22.2102 10.4788 22.7481 18.4676 16.292 19.0002H7.1455C2.84157 19 1.22817 14.2064 5.53222 12.6086ZM14.7803 10.47C14.5057 10.1955 14.0709 10.178 13.7764 10.4182L13.7197 10.47L11.2549 12.9338L10.2617 12.0071L10.2031 11.9573C9.90038 11.7274 9.46605 11.7603 9.20117 12.0442C8.93669 12.3281 8.93439 12.7632 9.18457 13.0491L9.23828 13.1038L10.7627 14.5247C11.0581 14.7998 11.5181 14.7923 11.8037 14.5071L14.7803 11.5305L14.832 11.4739C15.0722 11.1794 15.0546 10.7445 14.7803 10.47Z" fill="#363538"/>
</svg>
