<svg width="24" height="24" viewBox="0 0 24 24" fill="none" xmlns="http://www.w3.org/2000/svg">
<path d="M6.55755 17.9691C6.56685 17.9594 6.57626 17.9498 6.58579 17.9403C6.97631 17.5498 7.48816 17.3545 8 17.3545C8 16.2499 8.89543 15.3545 10 15.3545C10.2438 15.3545 10.4775 15.3981 10.6936 15.478L12.5858 13.5858C13.3668 12.8047 14.6332 12.8047 15.4142 13.5858L17.4142 15.5858C17.9809 16.1525 18.1365 16.9747 17.8807 17.6817C22.6108 16.0815 21.7216 9.47856 16.8304 9.47855C15.7544 0.424514 3.38003 3.62006 5.53208 11.6089C1.43014 13.1316 2.7033 17.5566 6.55755 17.9691Z" fill="#363538"/>
<path d="M13.4697 14.4697C13.7626 14.1768 14.2374 14.1768 14.5303 14.4697L16.5303 16.4697C16.8232 16.7626 16.8232 17.2374 16.5303 17.5303C16.2374 17.8232 15.7626 17.8232 15.4697 17.5303L14.75 16.8107V19C14.75 19.4142 14.4142 19.75 14 19.75C13.5858 19.75 13.25 19.4142 13.25 19V16.8107L12.5303 17.5303C12.2374 17.8232 11.7626 17.8232 11.4697 17.5303C11.1768 17.2374 11.1768 16.7626 11.4697 16.4697L13.4697 14.4697Z" fill="#363538"/>
<path d="M10 16.6045C10.4142 16.6045 10.75 16.9403 10.75 17.3545V19.5438L11.4697 18.8242C11.7626 18.5313 12.2374 18.5313 12.5303 18.8242C12.8232 19.1171 12.8232 19.5919 12.5303 19.8848L10.5303 21.8848C10.2374 22.1777 9.76256 22.1777 9.46967 21.8848L7.46967 19.8848C7.17678 19.5919 7.17678 19.1171 7.46967 18.8242C7.76256 18.5313 8.23744 18.5313 8.53033 18.8242L9.25 19.5438V17.3545C9.25 16.9403 9.58579 16.6045 10 16.6045Z" fill="#363538"/>
</svg>
