<svg width="24" height="24" viewBox="0 0 24 24" fill="none" xmlns="http://www.w3.org/2000/svg">
<path d="M12.8512 12.0732C13.2825 10.1204 16.1554 8.70636 18.5963 9.24509C20.4761 9.66022 20.9907 11.4098 19.7252 12.9404C19.442 13.283 19.339 13.7507 19.4518 14.1806C19.9554 16.1016 18.7517 17.4724 16.8717 17.0576C16.2056 16.9106 15.5724 16.6167 15.0113 16.2295C15.4285 16.9368 15.9109 17.6326 16.4664 18.2422C17.5574 19.4391 18.8764 20.25 20.5006 20.25C20.9145 20.2503 21.2495 20.5861 21.2496 21C21.2495 21.4139 20.9145 21.7497 20.5006 21.75C18.3145 21.75 16.6222 20.6401 15.357 19.2519C14.9134 18.765 14.5155 18.2371 14.1598 17.6982C14.1654 18.0891 14.1296 18.4805 14.0455 18.8613C13.6306 20.7413 11.8809 21.2565 10.3502 19.9912C10.0077 19.708 9.53991 19.605 9.10998 19.7177C7.18906 20.2213 5.8184 19.0176 6.23302 17.1377C6.77155 14.6967 9.26345 12.6865 11.2164 13.1172C11.7717 13.2397 12.2837 13.5595 12.7194 14.0107C12.7886 13.9305 12.875 13.8627 12.9781 13.8164C12.9929 13.8097 13.0081 13.8034 13.0231 13.7978C12.8017 13.2176 12.7297 12.6236 12.8512 12.0732Z" fill="#363538"/>
<path d="M3.57287 9.37595C3.06901 7.45478 4.27281 6.08421 6.15295 6.499C8.59406 7.03759 10.6044 9.5294 10.1735 11.4824C9.74229 13.4352 6.87025 14.8492 4.42931 14.3105C2.54921 13.8956 2.03386 12.1459 3.29943 10.6152C3.58257 10.2727 3.6855 9.80579 3.57287 9.37595Z" fill="#363538"/>
<path d="M8.97912 4.69431C9.39405 2.81431 11.1438 2.29911 12.6744 3.56443C13.017 3.84764 13.4847 3.95062 13.9147 3.83787C15.8357 3.33417 17.2063 4.53792 16.7916 6.41794C16.2531 8.85899 13.7612 10.8692 11.8082 10.4385C9.85526 10.0075 8.44047 7.13536 8.97912 4.69431Z" fill="#363538"/>
</svg>
