<svg width="24" height="24" viewBox="0 0 24 24" fill="none" xmlns="http://www.w3.org/2000/svg">
<path d="M2 13C2 16.3137 4.68629 19 8 19C8.51795 19 9.02057 18.9344 9.5 18.811C9.70385 18.7585 9.85373 18.6104 10.0984 18.6228C10.649 18.651 11.065 19.1958 10.9177 19.7725C10.763 20.3787 10.5537 21.2256 10.2815 21.6909C10.2282 21.7819 10.3182 22 10.4237 22H13.5765C13.682 22 13.772 21.7819 13.7187 21.6909C13.4465 21.2256 13.2372 20.3787 13.0825 19.7725C12.9352 19.1958 13.3511 18.651 13.9017 18.6229C14.1463 18.6104 14.2962 18.7585 14.5 18.811C14.9794 18.9344 15.4821 19 16 19C19.3137 19 22 16.3137 22 13C22 10.3737 20.3126 8.1415 17.9628 7.32841C17.629 4.33082 15.0867 2 12 2C8.91332 2 6.37103 4.33082 6.03717 7.32841C3.68739 8.1415 2 10.3737 2 13Z" fill="#363538"/>
</svg>
