<svg width="24" height="24" viewBox="0 0 24 24" fill="none" xmlns="http://www.w3.org/2000/svg">
<path d="M15.6893 5.29563C15.8525 4.91491 15.6761 4.474 15.2954 4.31083C14.9147 4.14767 14.4738 4.32403 14.3106 4.70475L8.3106 18.7048C8.14743 19.0855 8.3238 19.5264 8.70452 19.6896C9.08524 19.8527 9.52615 19.6764 9.68932 19.2956L15.6893 5.29563Z" fill="#363538"/>
<path d="M8.624 7.58417C8.85376 7.92881 8.76063 8.39447 8.41598 8.62423L3.66406 11.7922C3.51563 11.8911 3.51563 12.1092 3.66406 12.2082L8.41598 15.3762C8.76063 15.6059 8.85376 16.0716 8.624 16.4162C8.39423 16.7609 7.92858 16.854 7.58393 16.6242L2.83201 13.4563C1.79298 12.7636 1.79298 11.2368 2.83201 10.5441L7.58393 7.37615C7.92858 7.14639 8.39423 7.23952 8.624 7.58417Z" fill="#363538"/>
<path d="M15.3759 7.58417C15.1462 7.92881 15.2393 8.39447 15.5839 8.62423L20.3359 11.7922C20.4843 11.8911 20.4843 12.1092 20.3359 12.2082L15.5839 15.3762C15.2393 15.6059 15.1462 16.0716 15.3759 16.4162C15.6057 16.7609 16.0713 16.854 16.416 16.6242L21.1679 13.4563C22.2069 12.7636 22.2069 11.2368 21.1679 10.5441L16.416 7.37615C16.0713 7.14639 15.6057 7.23952 15.3759 7.58417Z" fill="#363538"/>
</svg>
