<svg width="24" height="24" viewBox="0 0 24 24" fill="none" xmlns="http://www.w3.org/2000/svg">
<path fill-rule="evenodd" clip-rule="evenodd" d="M13.6328 3.00195L13.3145 3.16602C12.8144 3.42298 12.5 3.93781 12.5 4.5C12.5 5.06219 12.8144 5.57702 13.3145 5.83398L13.877 6.12305L14.166 6.68555C14.423 7.18556 14.9378 7.5 15.5 7.5C15.9682 7.5 16.4007 7.27972 16.6816 6.91797C16.7321 6.96437 16.7863 7.00665 16.8457 7.04199C16.6261 7.30661 16.5 7.64385 16.5 8C16.5 8.56219 16.8144 9.07702 17.3145 9.33398L18.207 9.79199L18.666 10.6855C18.923 11.1856 19.4378 11.5 20 11.5C20.5622 11.5 21.077 11.1856 21.334 10.6855L21.792 9.79199L21.9824 9.69336C21.9978 10.3414 22 11.0979 22 12C22 14.7956 21.9997 16.1933 21.543 17.2959C20.934 18.7661 19.7661 19.934 18.2959 20.543C17.1933 20.9997 15.7956 21 13 21H11C8.2044 21 6.80672 20.9997 5.7041 20.543C4.23393 19.934 3.06599 18.7661 2.45703 17.2959C2.00033 16.1933 2 14.7956 2 12C2 9.2044 2.00033 7.80672 2.45703 6.7041C3.06599 5.23393 4.23393 4.06599 5.7041 3.45703C6.80672 3.00033 8.2044 3 11 3H13C13.2194 3 13.4301 3.00173 13.6328 3.00195ZM13 14.25C12.5858 14.25 12.25 14.5858 12.25 15C12.25 15.4142 12.5858 15.75 13 15.75H17C17.4142 15.75 17.75 15.4142 17.75 15C17.75 14.5858 17.4142 14.25 17 14.25H13ZM7.39746 9.36426C7.04624 9.14474 6.58381 9.25136 6.36426 9.60254C6.14474 9.95376 6.25136 10.4162 6.60254 10.6357L9.24609 12.2881C9.40234 12.386 9.40234 12.614 9.24609 12.7119L6.60254 14.3643C6.25136 14.5838 6.14474 15.0462 6.36426 15.3975C6.58381 15.7486 7.04624 15.8553 7.39746 15.6357L10.041 13.9844C11.1376 13.2989 11.1376 11.7011 10.041 11.0156L7.39746 9.36426Z" fill="#363538"/>
<path d="M20 5.25C20.2811 5.25 20.5385 5.40722 20.667 5.65723L21.2354 6.76367L22.3428 7.33301C22.5928 7.46149 22.75 7.71891 22.75 8C22.75 8.28109 22.5928 8.53851 22.3428 8.66699L21.2354 9.23535L20.667 10.3428C20.5385 10.5928 20.2811 10.75 20 10.75C19.7189 10.75 19.4615 10.5928 19.333 10.3428L18.7637 9.23535L17.6572 8.66699C17.4072 8.53851 17.25 8.28109 17.25 8C17.25 7.71891 17.4072 7.46149 17.6572 7.33301L18.7637 6.76367L19.333 5.65723L19.3867 5.56836C19.5259 5.37054 19.7539 5.25 20 5.25Z" fill="#363538"/>
<path d="M15.5 2.25C15.7811 2.25 16.0385 2.40722 16.167 2.65723L16.5654 3.43359L17.3428 3.83301C17.5928 3.96149 17.75 4.21891 17.75 4.5C17.75 4.78109 17.5928 5.03851 17.3428 5.16699L16.5654 5.56543L16.167 6.34277C16.0385 6.59278 15.7811 6.75 15.5 6.75C15.2189 6.75 14.9615 6.59278 14.833 6.34277L14.4336 5.56543L13.6572 5.16699C13.4072 5.03851 13.25 4.78109 13.25 4.5C13.25 4.21891 13.4072 3.96149 13.6572 3.83301L14.4336 3.43359L14.833 2.65723L14.8867 2.56836C15.0259 2.37054 15.2539 2.25 15.5 2.25Z" fill="#363538"/>
</svg>
