<svg width="24" height="24" viewBox="0 0 24 24" fill="none" xmlns="http://www.w3.org/2000/svg">
<path fill-rule="evenodd" clip-rule="evenodd" d="M4.20722 16.1746C5.03974 11.2931 8.5054 4.87289 17.9966 4.08106C19.0973 3.98922 20.0083 4.90618 19.9407 6.00868C19.2177 17.7964 12.0726 20.0713 6.77933 19.5558C5.08687 19.3909 3.92134 17.8508 4.20722 16.1746ZM6.81843 15.7722C6.41658 15.8726 6.17226 16.2798 6.27272 16.6817C6.37318 17.0835 6.78038 17.3278 7.18223 17.2274C7.71033 17.0953 8.119 16.8464 8.43142 16.4542C8.71657 16.0962 8.88713 15.6579 9.03281 15.2346C9.08481 15.0835 9.13663 14.925 9.19123 14.758C9.45222 13.9597 9.7766 12.9675 10.4867 11.6668C10.5739 11.5071 10.6759 11.3601 10.7913 11.2299C11.9521 9.9191 13.3081 9.02 14.5454 8.46203C15.8013 7.89563 16.8716 7.70827 17.4488 7.74798C17.8621 7.77642 18.2201 7.46447 18.2486 7.05124C18.277 6.638 17.965 6.27996 17.5518 6.25152C16.6424 6.18895 15.3167 6.46869 13.9287 7.09464C12.522 7.72902 10.986 8.7475 9.66835 10.2354C9.47306 10.4559 9.30742 10.6966 9.17013 10.9481C8.38842 12.3799 8.02024 13.5092 7.75882 14.3111C7.70734 14.4689 7.66001 14.6141 7.61447 14.7464C7.47146 15.1619 7.36845 15.3812 7.25816 15.5196C7.17514 15.6238 7.0665 15.7101 6.81843 15.7722Z" fill="#363538"/>
</svg>
