<svg width="24" height="24" viewBox="0 0 24 24" fill="none" xmlns="http://www.w3.org/2000/svg">
<path d="M7.07805 2.68262C6.70757 2.49737 6.25706 2.64754 6.07182 3.01803C5.90875 3.34417 6.00561 3.73234 6.28389 3.94695C5.74557 4.21621 5.14679 4.59574 4.62132 5.1212C3.90676 5.83577 3.46207 6.68592 3.19755 7.3352C3.06381 7.66346 2.97231 7.94984 2.91369 8.15657C2.88431 8.26016 2.86301 8.3444 2.84866 8.40465C2.84149 8.43479 2.83604 8.45899 2.83218 8.47667L2.82756 8.49824L2.82612 8.50524L2.8256 8.50777L2.8254 8.50879C2.82535 8.509 2.82522 8.50965 3.56066 8.65674L2.8254 8.50879C2.74416 8.91496 3.0074 9.31094 3.41357 9.39217C3.81918 9.47329 4.21377 9.21072 4.29576 8.80551L4.29769 8.7965C4.29961 8.78768 4.30297 8.77269 4.30787 8.75208C4.3177 8.71082 4.33368 8.64728 4.35679 8.56581C4.40312 8.40241 4.47735 8.16951 4.58669 7.90115C4.8083 7.35718 5.15911 6.70474 5.68198 6.18186C6.03386 5.82998 6.44442 5.55603 6.84111 5.34694C6.84642 5.62916 7.0116 5.89649 7.28656 6.01869C7.66508 6.18692 8.1083 6.01645 8.27653 5.63794L8.84221 4.36515C9.00506 3.99873 8.8509 3.56904 8.49226 3.38972L7.07805 2.68262Z" fill="#363538"/>
<path d="M15.9219 21.3132C16.2924 21.4985 16.7429 21.3483 16.9282 20.9778C17.0913 20.6517 16.9944 20.2635 16.7161 20.0489C17.2544 19.7797 17.8532 19.4001 18.3787 18.8747C19.0932 18.1601 19.5379 17.3099 19.8025 16.6607C19.9362 16.3324 20.0277 16.046 20.0863 15.8393C20.1157 15.7357 20.137 15.6515 20.1513 15.5912C20.1585 15.5611 20.164 15.5369 20.1678 15.5192L20.1724 15.4976L20.1739 15.4906L20.1744 15.4881L20.1746 15.4871C20.1746 15.4869 20.1748 15.4862 19.4393 15.3391L20.1746 15.4871C20.2558 15.0809 19.9926 14.6849 19.5864 14.6037C19.1808 14.5226 18.7862 14.7852 18.7042 15.1904L18.704 15.1917L18.7023 15.1994C18.7004 15.2082 18.697 15.2232 18.6921 15.2438C18.6823 15.285 18.6663 15.3486 18.6432 15.4301C18.5969 15.5935 18.5226 15.8264 18.4133 16.0947C18.1917 16.6387 17.8409 17.2911 17.318 17.814C16.9661 18.1659 16.5556 18.4398 16.1589 18.6489C16.1536 18.3667 15.9884 18.0994 15.7134 17.9772C15.3349 17.8089 14.8917 17.9794 14.7235 18.3579L14.1578 19.6307C13.9949 19.9971 14.1491 20.4268 14.5077 20.6061L15.9219 21.3132Z" fill="#363538"/>
<path d="M14.5 14.9999C14.5 18.3136 11.8137 20.9999 8.5 20.9999C5.18629 20.9999 2.5 18.3136 2.5 14.9999C2.5 11.6862 5.18629 8.99989 8.5 8.99989C11.8137 8.99989 14.5 11.6862 14.5 14.9999Z" fill="#363538"/>
<path d="M21.4999 8.99989C21.4999 12.3136 18.8136 14.9999 15.4999 14.9999C15.4722 14.9999 15.4446 14.9997 15.417 14.9993C15.4715 14.6743 15.4999 14.3404 15.4999 13.9999C15.4999 10.7138 12.8583 8.04479 9.58276 8.00045C10.0586 5.16246 12.5267 2.99988 15.4999 2.99988C18.8136 2.99988 21.4999 5.68618 21.4999 8.99989Z" fill="#363538"/>
</svg>
