<svg width="24" height="24" viewBox="0 0 24 24" fill="none" xmlns="http://www.w3.org/2000/svg">
<path fill-rule="evenodd" clip-rule="evenodd" d="M12 21C16.9706 21 21 16.9706 21 12C21 7.02944 16.9706 3 12 3C7.02944 3 3 7.02944 3 12C3 16.9706 7.02944 21 12 21ZM15.2328 7.42227C13.9878 6.17731 12.0859 5.86867 10.5111 6.65605C9.12536 7.34894 8.25 8.7653 8.25 10.3146V10.5001H7.5C7.08579 10.5001 6.75 10.8359 6.75 11.2501C6.75 11.6644 7.08579 12.0001 7.5 12.0001H8.25V12.5001H7.5C7.08579 12.5001 6.75 12.8359 6.75 13.2501C6.75 13.6644 7.08579 14.0001 7.5 14.0001H8.25V15.2501C8.25 16.7689 9.48122 18.0001 11 18.0001H15C15.4142 18.0001 15.75 17.6644 15.75 17.2501C15.75 16.8359 15.4142 16.5001 15 16.5001H11C10.3096 16.5001 9.75 15.9405 9.75 15.2501V14.0001H15C15.4142 14.0001 15.75 13.6644 15.75 13.2501C15.75 12.8359 15.4142 12.5001 15 12.5001H9.75V12.0001H15C15.4142 12.0001 15.75 11.6644 15.75 11.2501C15.75 10.8359 15.4142 10.5001 15 10.5001H9.75V10.3146C9.75 9.33346 10.3044 8.43649 11.182 7.99769C12.1792 7.49905 13.3837 7.69451 14.1721 8.48293L14.4697 8.78047C14.7626 9.07336 15.2374 9.07336 15.5303 8.78047C15.8232 8.48758 15.8232 8.0127 15.5303 7.71981L15.2328 7.42227Z" fill="#363538"/>
</svg>
