<svg width="24" height="24" viewBox="0 0 24 24" fill="none" xmlns="http://www.w3.org/2000/svg">
<path d="M15.9392 15.9269C18.8068 15.4761 21 12.9942 21 10C21 6.68629 18.3138 4 15 4C12.3846 4 10.16 5.67346 9.33862 8.00804C13.0474 8.18467 16 11.2475 16 15C16 15.3142 15.9793 15.6236 15.9392 15.9269Z" fill="#363538"/>
<path d="M8.56429 15C8.72853 14.8751 8.87513 14.7285 9 14.5643C9.12487 14.7285 9.27147 14.8751 9.43571 15C9.27147 15.1249 9.12487 15.2715 9 15.4357C8.87513 15.2715 8.72853 15.1249 8.56429 15Z" fill="#363538"/>
<path fill-rule="evenodd" clip-rule="evenodd" d="M9 21C12.3137 21 15 18.3137 15 15C15 11.6863 12.3137 9 9 9C5.68629 9 3 11.6863 3 15C3 18.3137 5.68629 21 9 21ZM8.26592 12.5111C8.51808 11.8296 9.48192 11.8296 9.73408 12.5111L10.0831 13.4544C10.1624 13.6687 10.3313 13.8376 10.5456 13.9169L11.4889 14.2659C12.1704 14.5181 12.1704 15.4819 11.4889 15.7341L10.5456 16.0831C10.3313 16.1624 10.1624 16.3313 10.0831 16.5456L9.73408 17.4889C9.48192 18.1704 8.51808 18.1704 8.26592 17.4889L7.91686 16.5456C7.83758 16.3313 7.66866 16.1624 7.45441 16.0831L6.51109 15.7341C5.82964 15.4819 5.82964 14.5181 6.51109 14.2659L7.45441 13.9169C7.66866 13.8376 7.83758 13.6687 7.91686 13.4544L8.26592 12.5111Z" fill="#363538"/>
</svg>
