<svg width="24" height="24" viewBox="0 0 24 24" fill="none" xmlns="http://www.w3.org/2000/svg">
<path fill-rule="evenodd" clip-rule="evenodd" d="M16.7733 11.116L19.7782 8.11103C20.7545 7.13472 20.7545 5.5518 19.7782 4.57549C18.8019 3.59918 17.2189 3.59918 16.2426 4.57549L13.2378 7.58049L12.0002 6.34294C11.7073 6.05005 11.2324 6.05005 10.9395 6.34294C10.6467 6.63583 10.6467 7.11071 10.9395 7.4036L13.0608 9.52508L5.10537 17.4801C4.61722 17.9682 4.61722 18.7597 5.10537 19.2478C5.59353 19.736 6.38499 19.736 6.87314 19.2478L14.8286 11.2929L16.5964 13.0605C16.8893 13.3533 17.3642 13.3533 17.6571 13.0605C17.95 12.7676 17.95 12.2927 17.6571 11.9998L16.7733 11.116ZM18.7175 5.63615C18.327 5.24563 17.6938 5.24563 17.3033 5.63614L14.2984 8.64115L15.7126 10.0554L18.7175 7.05038C19.108 6.65985 19.108 6.02668 18.7175 5.63615Z" fill="#363538"/>
</svg>
