<svg width="24" height="24" viewBox="0 0 24 24" fill="none" xmlns="http://www.w3.org/2000/svg">
<path d="M17.2161 9.749C17.4002 9.19957 17.5 8.61143 17.5 8C17.5 4.96243 15.0376 2.5 12 2.5C8.96243 2.5 6.5 4.96243 6.5 8C6.5 8.56438 6.58501 9.1089 6.74291 9.62147C7.14963 9.54177 7.56994 9.5 8 9.5C9.43358 9.5 10.7588 9.96409 11.8335 10.7502C12.8474 9.96639 14.1193 9.5 15.5 9.5C16.0963 9.5 16.6724 9.587 17.2161 9.749Z" fill="#363538"/>
<path d="M11.2502 11.5627C10.3397 10.8946 9.21592 10.5 8 10.5C4.96243 10.5 2.5 12.9624 2.5 16C2.5 19.0376 4.96243 21.5 8 21.5C9.21592 21.5 10.3397 21.1054 11.2502 20.4373C10.1645 19.2757 9.5 17.7155 9.5 16C9.5 14.2845 10.1645 12.7243 11.2502 11.5627Z" fill="#363538"/>
<path d="M21.5 16C21.5 19.0376 19.0376 21.5 16 21.5C12.9624 21.5 10.5 19.0376 10.5 16C10.5 12.9624 12.9624 10.5 16 10.5C19.0376 10.5 21.5 12.9624 21.5 16Z" fill="#363538"/>
</svg>
