<svg width="24" height="24" viewBox="0 0 24 24" fill="none" xmlns="http://www.w3.org/2000/svg">
<path d="M6.33354 2.46573C6.62641 2.17286 7.10119 2.1729 7.39408 2.46573C7.68698 2.75863 7.68698 3.23339 7.39408 3.52628L5.27299 5.64738C4.96794 5.95242 4.70946 6.2857 4.49565 6.63761L5.2769 7.41984L8.28276 4.41398L8.3394 4.36222C8.63392 4.1223 9.06881 4.13965 9.3433 4.41398C9.61777 4.68845 9.635 5.12331 9.39506 5.41788L9.3433 5.47452L6.33744 8.48038L6.9849 9.12687L9.98979 6.12198L10.0474 6.07023C10.3419 5.83036 10.7759 5.8477 11.0503 6.12198C11.3247 6.39645 11.342 6.83039 11.1021 7.12491L11.0503 7.18253L8.04545 10.1874L8.69194 10.8339L11.6968 7.82902L11.7544 7.77726C12.0489 7.53742 12.4829 7.55495 12.7574 7.82902C13.0318 8.10346 13.049 8.53737 12.8091 8.83195L12.7574 8.88956L9.75248 11.8944L10.3999 12.5419L13.4048 9.53702C13.6977 9.24413 14.1725 9.24413 14.4654 9.53702C14.7581 9.82993 14.7582 10.3047 14.4654 10.5976L11.4605 13.6025L12.107 14.2499L15.1128 11.2441C15.4058 10.9515 15.8806 10.9513 16.1734 11.2441C16.4659 11.5368 16.4658 12.0118 16.1734 12.3046L13.1675 15.3105L13.814 15.9569L16.8199 12.9511L16.8765 12.8993C17.171 12.6594 17.6059 12.6767 17.8804 12.9511C18.1549 13.2256 18.1721 13.6604 17.9322 13.955L17.8804 14.0116L14.8746 17.0175L15.522 17.664L18.5269 14.6591C18.8197 14.3662 19.2945 14.3663 19.5874 14.6591C19.8802 14.952 19.8803 15.4268 19.5874 15.7196L16.5826 18.7245L17.3638 19.5058C17.7156 19.292 18.049 19.0343 18.354 18.7294L20.4761 16.6073C20.769 16.3148 21.2439 16.3147 21.5367 16.6073C21.8296 16.9002 21.8296 17.376 21.5367 17.6689L19.4156 19.79C18.9283 20.2773 18.3836 20.6756 17.8033 20.9833L17.5523 21.1083C15.0444 22.3062 11.9486 21.8686 9.86967 19.79L4.21244 14.1327C2.13357 12.0538 1.69524 8.9581 2.89311 6.45011L3.01908 6.19816C3.32675 5.618 3.72524 5.07403 4.21244 4.58683L6.33354 2.46573Z" fill="#363538"/>
</svg>
