<svg width="24" height="24" viewBox="0 0 24 24" fill="none" xmlns="http://www.w3.org/2000/svg">
<path d="M11.6464 2.35348L8.35355 5.64637C8.15829 5.84163 8.15829 6.15822 8.35355 6.35348L11.6464 9.64637C11.8417 9.84163 12.1583 9.84163 12.3536 9.64637L15.6464 6.35348C15.8417 6.15822 15.8417 5.84163 15.6464 5.64637L12.3536 2.35348C12.1583 2.15822 11.8417 2.15822 11.6464 2.35348Z" fill="#363538"/>
<path d="M2.35348 11.6464L5.64637 8.35348C5.84163 8.15822 6.15822 8.15822 6.35348 8.35348L9.64637 11.6464C9.84163 11.8416 9.84163 12.1582 9.64637 12.3535L6.35348 15.6464C6.15822 15.8416 5.84163 15.8416 5.64637 15.6464L2.35348 12.3535C2.15822 12.1582 2.15822 11.8416 2.35348 11.6464Z" fill="#363538"/>
<path d="M14.3536 11.6466L17.6464 8.35372C17.8417 8.15846 18.1583 8.15846 18.3536 8.35372L21.6464 11.6466C21.8417 11.8419 21.8417 12.1585 21.6464 12.3537L18.3536 15.6466C18.1583 15.8419 17.8417 15.8419 17.6464 15.6466L14.3536 12.3537C14.1583 12.1585 14.1583 11.8419 14.3536 11.6466Z" fill="#363538"/>
<path d="M8.35355 17.6466L11.6464 14.3537C11.8417 14.1585 12.1583 14.1585 12.3536 14.3537L15.6464 17.6466C15.8417 17.8419 15.8417 18.1585 15.6464 18.3537L12.3536 21.6466C12.1583 21.8419 11.8417 21.8419 11.6464 21.6466L8.35355 18.3537C8.15829 18.1585 8.15829 17.8419 8.35355 17.6466Z" fill="#363538"/>
</svg>
