<svg width="24" height="24" viewBox="0 0 24 24" fill="none" xmlns="http://www.w3.org/2000/svg">
<path d="M14.7216 3.80359C14.337 3.95742 14.1499 4.3939 14.3038 4.77849C14.5154 5.30757 14.5011 5.60237 14.4572 5.7622C14.4143 5.91829 14.3123 6.05981 14.1045 6.22311C13.9477 6.34629 13.7959 6.43726 13.6119 6.54749C13.5125 6.60704 13.4037 6.67224 13.2797 6.75116C12.9931 6.93354 12.5747 7.22204 12.3608 7.69181C12.1891 8.06878 12.3556 8.51353 12.7326 8.68519C13.1095 8.85686 13.5543 8.69042 13.7259 8.31345C13.7403 8.28192 13.8057 8.19442 14.085 8.01666C14.1407 7.98118 14.2107 7.93909 14.2893 7.89182C14.5099 7.75906 14.7986 7.58542 15.0314 7.40246C15.3807 7.1279 15.7447 6.73799 15.9036 6.15963C16.0615 5.58499 15.9848 4.9423 15.6965 4.22142C15.5427 3.83683 15.1062 3.64976 14.7216 3.80359Z" fill="#363538"/>
<path d="M20.6143 6.48828C20.9694 6.70138 21.4301 6.58619 21.6432 6.23099C21.8563 5.8758 21.7411 5.41511 21.3859 5.20201C20.5821 4.71973 19.7836 4.64715 19.031 4.91248C18.3277 5.16041 17.7363 5.6787 17.2368 6.22472C16.777 6.72725 16.3366 7.32069 15.9238 7.8771L15.8052 8.03681C15.3445 8.65639 14.9163 9.21821 14.4791 9.65451C14.186 9.94711 14.1855 10.422 14.4781 10.7152C14.7707 11.0084 15.2456 11.0088 15.5387 10.7162C16.0658 10.1902 16.5561 9.54082 17.0089 8.93179L17.1205 8.78166C17.5443 8.21083 17.9386 7.67972 18.3435 7.23726C18.7881 6.7513 19.1766 6.45165 19.5297 6.32714C19.8335 6.22005 20.168 6.22054 20.6143 6.48828Z" fill="#363538"/>
<path d="M11.3414 8.23881C10.6309 7.32526 9.20012 7.2933 8.50756 8.2972C7.328 10.007 5.07328 13.3803 3.66434 16.1654C3.3108 16.8642 3.00397 17.5387 2.7797 18.1494C2.55965 18.7486 2.4001 19.3363 2.37899 19.8465C2.35865 20.3378 2.46577 20.9844 3.05418 21.3437C3.58484 21.6678 4.24405 21.5803 4.83771 21.3925C8.73294 20.1602 13.9216 17.8997 16.4568 16.7613C17.6935 16.206 17.8236 14.5574 16.8054 13.7561C15.9366 13.0723 14.8282 12.1558 13.9807 11.3082C13.0495 10.3771 12.0364 9.13258 11.3414 8.23881Z" fill="#363538"/>
<path d="M18.3399 12.9234C18.5203 12.6144 18.7504 12.463 18.9343 12.4248C19.0863 12.3932 19.327 12.4124 19.6368 12.7222C19.9297 13.015 20.4045 13.015 20.6974 12.7222C20.9903 12.4293 20.9903 11.9544 20.6974 11.6615C20.0918 11.0559 19.3557 10.8053 18.6294 10.9561C17.935 11.1003 17.3853 11.5834 17.0445 12.1673C16.8357 12.525 16.9564 12.9843 17.3141 13.1931C17.6719 13.4019 18.1311 13.2812 18.3399 12.9234Z" fill="#363538"/>
<path d="M11 5.99988C11.5523 5.99988 12 5.55216 12 4.99988C12 4.44759 11.5523 3.99988 11 3.99988C10.4478 3.99988 10 4.44759 10 4.99988C10 5.55216 10.4478 5.99988 11 5.99988Z" fill="#363538"/>
<path d="M22 8.99988C22 9.55216 21.5523 9.99988 21 9.99988C20.4478 9.99988 20 9.55216 20 8.99988C20 8.44759 20.4478 7.99988 21 7.99988C21.5523 7.99988 22 8.44759 22 8.99988Z" fill="#363538"/>
</svg>
