<svg width="24" height="24" viewBox="0 0 24 24" fill="none" xmlns="http://www.w3.org/2000/svg">
<path fill-rule="evenodd" clip-rule="evenodd" d="M6 9.75V8.25H7C7.41421 8.25 7.75 7.91421 7.75 7.5C7.75 7.08579 7.41421 6.75 7 6.75H6.19919C6.72409 5.15303 8.22739 4 10 4H15C17.2091 4 19 5.79086 19 8V16C19 18.2091 17.2091 20 15 20H10C8.22739 20 6.72409 18.847 6.19919 17.25H7C7.41421 17.25 7.75 16.9142 7.75 16.5C7.75 16.0858 7.41421 15.75 7 15.75H6V14.25H7C7.41421 14.25 7.75 13.9142 7.75 13.5C7.75 13.0858 7.41421 12.75 7 12.75H6V11.25H7C7.41421 11.25 7.75 10.9142 7.75 10.5C7.75 10.0858 7.41421 9.75 7 9.75H6ZM12.5 11.5C13.8807 11.5 15 10.3807 15 9C15 7.61929 13.8807 6.5 12.5 6.5C11.1193 6.5 10 7.61929 10 9C10 10.3807 11.1193 11.5 12.5 11.5ZM12.5 17.5C14.7091 17.5 16.5 16.3807 16.5 15C16.5 13.6193 14.7091 12.5 12.5 12.5C10.2909 12.5 8.5 13.6193 8.5 15C8.5 16.3807 10.2909 17.5 12.5 17.5Z" fill="#363538"/>
<path d="M6 9.75H5C4.58579 9.75 4.25 10.0858 4.25 10.5C4.25 10.9142 4.58579 11.25 5 11.25H6V9.75Z" fill="#363538"/>
<path d="M6 12.75H5C4.58579 12.75 4.25 13.0858 4.25 13.5C4.25 13.9142 4.58579 14.25 5 14.25H6V12.75Z" fill="#363538"/>
<path d="M6 15.75H5C4.58579 15.75 4.25 16.0858 4.25 16.5C4.25 16.9142 4.58579 17.25 5 17.25H6.19919C6.06993 16.8567 6 16.4365 6 16V15.75Z" fill="#363538"/>
<path d="M6.19919 6.75H5C4.58579 6.75 4.25 7.08579 4.25 7.5C4.25 7.91421 4.58579 8.25 5 8.25H6V8C6 7.56347 6.06993 7.14327 6.19919 6.75Z" fill="#363538"/>
</svg>
