<svg width="24" height="24" viewBox="0 0 24 24" fill="none" xmlns="http://www.w3.org/2000/svg">
<path d="M14 3C14.5523 3 15 3.44772 15 4C15 4.55228 14.5523 5 14 5C13.4477 5 13 4.55228 13 4C13 3.44772 13.4477 3 14 3Z" fill="#363538"/>
<path d="M17.75 7.5C18.1642 7.5 18.5 7.83579 18.5 8.25C18.5 8.66421 18.1642 9 17.75 9C17.3358 9 17 8.66421 17 8.25C17 7.83579 17.3358 7.5 17.75 7.5Z" fill="#363538"/>
<path d="M19 4.5C19 4.22386 18.7761 4 18.5 4C18.2239 4 18 4.22386 18 4.5C18 4.77614 18.2239 5 18.5 5C18.7761 5 19 4.77614 19 4.5Z" fill="#363538"/>
<path d="M20.5 9C20.7761 9 21 9.22386 21 9.5C21 9.77614 20.7761 10 20.5 10C20.2239 10 20 9.77614 20 9.5C20 9.22386 20.2239 9 20.5 9Z" fill="#363538"/>
<path fill-rule="evenodd" clip-rule="evenodd" d="M7.87599 3.16299C8.766 2.74699 9.65764 3.39943 9.74329 4.25023H10.5C11.7426 4.25023 12.75 5.25759 12.75 6.50023C12.75 6.91444 13.0858 7.25023 13.5 7.25023C14.7426 7.25023 15.75 8.25759 15.75 9.50023C15.75 9.91444 16.0858 10.2502 16.5 10.2502C17.7426 10.2502 18.75 11.2576 18.75 12.5002V12.7673C18.75 13.034 18.9662 13.2502 19.2329 13.2502C20.453 13.2502 21.5503 14.44 20.9991 15.7585C19.5284 19.2762 16.054 21.7502 12 21.7502C6.61522 21.7502 2.25 17.385 2.25 12.0002C2.25 8.0881 4.55408 4.71565 7.87599 3.16299ZM15.9999 16.0002C15.9999 15.448 15.5522 15.0002 14.9999 15.0002C14.4477 15.0002 13.9999 15.448 13.9999 16.0002C13.9999 16.5525 14.4477 17.0002 14.9999 17.0002C15.5522 17.0002 15.9999 16.5525 15.9999 16.0002ZM8.99994 15.0002C9.55223 15.0002 9.99994 15.448 9.99994 16.0002C9.99994 16.5525 9.55223 17.0002 8.99994 17.0002C8.44766 17.0002 7.99994 16.5525 7.99994 16.0002C7.99994 15.448 8.44766 15.0002 8.99994 15.0002ZM12.9999 11.0002C12.9999 10.448 12.5522 10.0002 11.9999 10.0002C11.4477 10.0002 10.9999 10.448 10.9999 11.0002C10.9999 11.5525 11.4477 12.0002 11.9999 12.0002C12.5522 12.0002 12.9999 11.5525 12.9999 11.0002ZM5.99994 9.00024C6.55223 9.00024 6.99994 9.44796 6.99994 10.0002C6.99994 10.5525 6.55223 11.0002 5.99994 11.0002C5.44766 11.0002 4.99994 10.5525 4.99994 10.0002C4.99994 9.44796 5.44766 9.00024 5.99994 9.00024Z" fill="#363538"/>
</svg>
