<svg width="24" height="24" viewBox="0 0 24 24" fill="none" xmlns="http://www.w3.org/2000/svg">
<path d="M8 7H4C2.89543 7 2 7.89543 2 9C2 10.1046 2.89543 11 4 11H8C9.10457 11 10 10.1046 10 9C10 7.89543 9.10457 7 8 7Z" fill="#363538"/>
<path d="M2 18V14C2 12.8954 2.89543 12 4 12H20C21.1046 12 22 12.8954 22 14V18C22 19.1046 21.1046 20 20 20H4C2.89543 20 2 19.1046 2 18Z" fill="#363538"/>
<path d="M16 7H20C21.1046 7 22 7.89543 22 9C22 10.1046 21.1046 11 20 11H16C14.8954 11 14 10.1046 14 9C14 7.89543 14.8954 7 16 7Z" fill="#363538"/>
</svg>
