<svg width="24" height="24" viewBox="0 0 24 24" fill="none" xmlns="http://www.w3.org/2000/svg">
<path fill-rule="evenodd" clip-rule="evenodd" d="M6.25 2.5C6.25 2.08579 5.91421 1.75 5.5 1.75C5.08579 1.75 4.75 2.08579 4.75 2.5V4.75H2.5C2.08579 4.75 1.75 5.08579 1.75 5.5C1.75 5.91421 2.08579 6.25 2.5 6.25H4.75V16.5C4.75 18.0188 5.98122 19.25 7.5 19.25H17.75V21.5C17.75 21.9142 18.0858 22.25 18.5 22.25C18.9142 22.25 19.25 21.9142 19.25 21.5V19.25H21.5C21.9142 19.25 22.25 18.9142 22.25 18.5C22.25 18.0858 21.9142 17.75 21.5 17.75H19.25V7.5C19.25 5.98122 18.0188 4.75 16.5 4.75H6.25V2.5ZM6.25 6.25V16.5C6.25 17.1904 6.80964 17.75 7.5 17.75H17.75V7.5C17.75 6.80964 17.1904 6.25 16.5 6.25H6.25Z" fill="#363538"/>
</svg>
