<svg width="24" height="24" viewBox="0 0 24 24" fill="none" xmlns="http://www.w3.org/2000/svg">
<path d="M19.4764 13.537L19.4697 13.5303L17.9697 12.0303C17.6768 11.7374 17.6768 11.2625 17.9697 10.9696C18.2626 10.6767 18.7374 10.6767 19.0303 10.9696L19.25 11.1893V11C19.25 7.54822 16.4518 4.75 13 4.75C12.5858 4.75 12.25 4.41421 12.25 4C12.25 3.58579 12.5858 3.25 13 3.25C17.2802 3.25 20.75 6.71979 20.75 11V11.1893L20.9697 10.9696C21.2626 10.6767 21.7374 10.6767 22.0303 10.9696C22.3232 11.2625 22.3232 11.7374 22.0303 12.0303L20.5303 13.5303C20.3897 13.6709 20.1989 13.75 20 13.75C19.7963 13.75 19.6116 13.6688 19.4764 13.537Z" fill="#363538"/>
<path fill-rule="evenodd" clip-rule="evenodd" d="M8.75 5.99995C8.75 5.58574 8.41421 5.24995 8 5.24995C7.58579 5.24995 7.25 5.58574 7.25 5.99995V7.24995H6C5.58579 7.24995 5.25 7.58574 5.25 7.99995C5.25 8.41417 5.58579 8.74995 6 8.74995H7.25V14.75C7.25 15.8545 8.14543 16.75 9.25 16.75H15.25V18C15.25 18.4142 15.5858 18.75 16 18.75C16.4142 18.75 16.75 18.4142 16.75 18V16.75H18C18.4142 16.75 18.75 16.4142 18.75 16C18.75 15.5857 18.4142 15.25 18 15.25H16.75V9.24995C16.75 8.14538 15.8546 7.24995 14.75 7.24995H8.75V5.99995ZM8.75 8.74995V14.75C8.75 15.0261 8.97386 15.25 9.25 15.25H15.25V9.24995C15.25 8.97381 15.0261 8.74995 14.75 8.74995H8.75Z" fill="#363538"/>
<path d="M4.28498 10.306C4.37423 10.3426 4.45786 10.3971 4.53034 10.4696L6.03033 11.9696C6.32322 12.2625 6.32322 12.7374 6.03033 13.0303C5.73744 13.3232 5.26256 13.3232 4.96967 13.0303L4.75 12.8106V12.9999C4.75 16.4517 7.54822 19.2499 11 19.2499C11.4142 19.2499 11.75 19.5857 11.75 19.9999C11.75 20.4141 11.4142 20.7499 11 20.7499C6.71979 20.7499 3.25 17.2801 3.25 12.9999V12.8106L3.03033 13.0303C2.73743 13.3232 2.26256 13.3232 1.96967 13.0303C1.67678 12.7374 1.67678 12.2625 1.96967 11.9696L3.4676 10.4717C3.4743 10.4649 3.48112 10.4583 3.48807 10.4518C3.6221 10.3266 3.8021 10.25 4 10.25C4.10088 10.25 4.19712 10.2699 4.28498 10.306Z" fill="#363538"/>
</svg>
