<svg width="24" height="24" viewBox="0 0 24 24" fill="none" xmlns="http://www.w3.org/2000/svg">
<path fill-rule="evenodd" clip-rule="evenodd" d="M6.26568 3H17.7345C18.9375 3 19.8683 4.05436 19.7191 5.24807L18.1564 17.7493C18.0609 18.5135 17.535 19.155 16.8043 19.3986L12.6326 20.7892C12.222 20.926 11.7782 20.926 11.3677 20.7892L7.19587 19.3986C6.4652 19.155 5.9393 18.5135 5.84377 17.7493L4.28112 5.24807C4.13191 4.05436 5.06268 3 6.26568 3ZM17.0931 9.74421C17.5042 9.69283 17.7957 9.31799 17.7443 8.90697C17.6929 8.49596 17.3181 8.20441 16.9071 8.25579L15.3451 8.45104C14.7195 8.52924 14.2501 9.06099 14.2501 9.69139V11.3596C14.2501 12.1728 15.0143 12.7695 15.8033 12.5723L16.2501 12.4606V12.9144L14.8182 13.2724C14.4164 13.3729 14.172 13.7801 14.2725 14.1819C14.373 14.5837 14.7802 14.8281 15.182 14.7276L16.8033 14.3223C17.3597 14.1832 17.7501 13.6832 17.7501 13.1096V12.1404C17.7501 11.3272 16.9859 10.7305 16.1969 10.9277L15.7501 11.0394V9.91209L17.0931 9.74421ZM13.7443 8.90697C13.7957 9.31799 13.5042 9.69283 13.0931 9.74421L11.7501 9.91209V11.0394L12.1969 10.9277C12.9859 10.7305 13.7501 11.3272 13.7501 12.1404V13.1096C13.7501 13.6832 13.3597 14.1832 12.8033 14.3223L11.182 14.7276C10.7802 14.8281 10.373 14.5837 10.2725 14.1819C10.172 13.7801 10.4164 13.3729 10.8182 13.2724L12.2501 12.9144V12.4606L11.8033 12.5723C11.0143 12.7695 10.2501 12.1728 10.2501 11.3596V9.69139C10.2501 9.06099 10.7195 8.52924 11.3451 8.45104L12.9071 8.25579C13.3181 8.20441 13.6929 8.49596 13.7443 8.90697ZM9.09314 9.74421C9.50415 9.69283 9.7957 9.31799 9.74432 8.90697C9.69294 8.49596 9.3181 8.20441 8.90708 8.25579L7.34507 8.45104C6.71953 8.52924 6.25011 9.06099 6.25011 9.69139V13.3596C6.25011 14.1728 7.01435 14.7695 7.80328 14.5723L9.18201 14.2276C9.58386 14.1271 9.82818 13.7199 9.72772 13.3181C9.62726 12.9163 9.22006 12.6719 8.81821 12.7724L7.75011 13.0394V9.91209L9.09314 9.74421Z" fill="#363538"/>
</svg>
