<svg width="24" height="24" viewBox="0 0 24 24" fill="none" xmlns="http://www.w3.org/2000/svg">
<path d="M13 1.75C12.5858 1.75 12.25 2.08579 12.25 2.5V5.75H6C5.58579 5.75 5.25 6.08579 5.25 6.5V9.5C5.25 9.53818 5.25292 9.57631 5.25872 9.61404L7.25872 21.614C7.31501 21.9799 7.62982 22.25 8 22.25H15C15.3702 22.25 15.685 21.9799 15.7413 21.614L17.7413 9.61404C17.7471 9.57631 17.75 9.53818 17.75 9.5V6.5C17.75 6.08579 17.4142 5.75 17 5.75H13.75V3.25H16C16.4142 3.25 16.75 2.91421 16.75 2.5C16.75 2.08579 16.4142 1.75 16 1.75H13Z" fill="#363538"/>
</svg>
