<svg width="24" height="24" viewBox="0 0 24 24" fill="none" xmlns="http://www.w3.org/2000/svg">
<path fill-rule="evenodd" clip-rule="evenodd" d="M3.16097 5.14929L4.14524 18.2986C4.3015 20.3861 6.04077 22 8.13408 22H13.8661C15.8058 22 17.4415 20.6142 17.7954 18.75C17.9889 18.7512 18.1828 18.678 18.3305 18.5303L18.3313 18.5295C18.5896 18.2711 19.6243 17.2365 20.5979 15.8734C21.5501 14.5403 22.5501 12.7498 22.5501 10.9999C22.5501 10.0262 22.3423 9.24531 21.9334 8.67419C21.513 8.08721 20.9266 7.78841 20.3255 7.71748C19.743 7.64873 19.1658 7.79385 18.6982 8.04954C18.6716 8.06408 18.6451 8.07912 18.6187 8.09465L18.8392 5.14929C18.926 3.98915 18.0082 3 16.8448 3H5.15539C3.992 3 3.07412 3.98915 3.16097 5.14929ZM18.4587 10.2331L17.9721 16.7336C18.3741 16.291 18.8853 15.6904 19.3773 15.0015C20.3002 13.7096 21.0501 12.2501 21.0501 10.9999C21.0501 10.2237 20.8829 9.78372 20.7138 9.54749C20.556 9.32712 20.3612 9.23209 20.1497 9.20714C19.9198 9.18 19.6532 9.23694 19.4177 9.36567C19.1756 9.49804 19.042 9.66332 18.9978 9.77528C18.9023 10.0172 18.6951 10.1818 18.4587 10.2331Z" fill="#363538"/>
</svg>
