<svg width="24" height="24" viewBox="0 0 24 24" fill="none" xmlns="http://www.w3.org/2000/svg">
<path d="M9.00003 2.25C6.92896 2.25 5.25003 3.92893 5.25003 6V8.27364C5.25003 9.53179 4.39376 10.6285 3.17317 10.9336C2.06305 11.2112 2.06304 12.7888 3.17317 13.0664C4.39376 13.3715 5.25003 14.4682 5.25003 15.7264V18C5.25003 20.0711 6.92896 21.75 9.00003 21.75C9.41425 21.75 9.75003 21.4142 9.75003 21C9.75003 20.5858 9.41425 20.25 9.00003 20.25C7.75739 20.25 6.75003 19.2426 6.75003 18V15.7264C6.75003 14.1453 5.87596 12.729 4.53575 12C5.87596 11.271 6.75003 9.85472 6.75003 8.27364V6C6.75003 4.75736 7.75739 3.75 9.00003 3.75C9.41425 3.75 9.75003 3.41421 9.75003 3C9.75003 2.58579 9.41425 2.25 9.00003 2.25Z" fill="#363538"/>
<path d="M15.0001 2.25C14.5858 2.25 14.2501 2.58579 14.2501 3C14.2501 3.41421 14.5858 3.75 15.0001 3.75C16.2427 3.75 17.2501 4.75736 17.2501 6V8.27364C17.2501 9.85472 18.1241 11.271 19.4643 12C18.1241 12.729 17.2501 14.1453 17.2501 15.7264V18C17.2501 19.2426 16.2427 20.25 15.0001 20.25C14.5858 20.25 14.2501 20.5858 14.2501 21C14.2501 21.4142 14.5858 21.75 15.0001 21.75C17.0711 21.75 18.7501 20.0711 18.7501 18V15.7264C18.7501 14.4682 19.6063 13.3715 20.8269 13.0664C21.937 12.7888 21.937 11.2112 20.8269 10.9336C19.6063 10.6285 18.7501 9.53179 18.7501 8.27364V6C18.7501 3.92893 17.0711 2.25 15.0001 2.25Z" fill="#363538"/>
</svg>
