<svg width="24" height="24" viewBox="0 0 24 24" fill="none" xmlns="http://www.w3.org/2000/svg">
<path d="M16.6654 3.34593C16.8565 2.97843 16.7135 2.5256 16.346 2.3345C15.9785 2.1434 15.5257 2.2864 15.3346 2.6539L12 9.06656L8.66541 2.6539C8.47431 2.2864 8.02148 2.1434 7.65399 2.3345C7.28649 2.5256 7.14349 2.97843 7.33459 3.34593L11.1547 10.6922L8.851 15.1223C8.58122 15.0427 8.2956 14.9999 8 14.9999C6.34315 14.9999 5 16.3431 5 17.9999C5 19.6568 6.34315 20.9999 8 20.9999C9.65685 20.9999 11 19.6568 11 17.9999C11 17.1798 10.6709 16.4365 10.1376 15.895C10.1474 15.8791 10.1567 15.8627 10.1654 15.8459L12 12.3179L13.8346 15.8459C13.8433 15.8627 13.8526 15.8791 13.8624 15.895C13.3291 16.4365 13 17.1798 13 17.9999C13 19.6568 14.3431 20.9999 16 20.9999C17.6569 20.9999 19 19.6568 19 17.9999C19 16.3431 17.6569 14.9999 16 14.9999C15.7044 14.9999 15.4188 15.0427 15.149 15.1223L12.8453 10.6922L16.6654 3.34593Z" fill="#363538"/>
</svg>
