<svg width="24" height="24" viewBox="0 0 24 24" fill="none" xmlns="http://www.w3.org/2000/svg">
<path fill-rule="evenodd" clip-rule="evenodd" d="M7 3.25C4.79086 3.25 3 5.04086 3 7.25C3 9.45914 4.79086 11.25 7 11.25H17C19.2091 11.25 21 9.45914 21 7.25C21 5.04086 19.2091 3.25 17 3.25H7ZM13 8C13.4142 8 13.75 7.66421 13.75 7.25C13.75 6.83579 13.4142 6.5 13 6.5H12C11.5858 6.5 11.25 6.83579 11.25 7.25C11.25 7.66421 11.5858 8 12 8H13ZM15.25 7.25C15.25 6.83579 15.5858 6.5 16 6.5H17C17.4142 6.5 17.75 6.83579 17.75 7.25C17.75 7.66421 17.4142 8 17 8H16C15.5858 8 15.25 7.66421 15.25 7.25Z" fill="#363538"/>
<path fill-rule="evenodd" clip-rule="evenodd" d="M7 12.75C4.79086 12.75 3 14.5409 3 16.75C3 18.9591 4.79086 20.75 7 20.75H17C19.2091 20.75 21 18.9591 21 16.75C21 14.5409 19.2091 12.75 17 12.75H7ZM13 17.5C13.4142 17.5 13.75 17.1642 13.75 16.75C13.75 16.3358 13.4142 16 13 16H12C11.5858 16 11.25 16.3358 11.25 16.75C11.25 17.1642 11.5858 17.5 12 17.5H13ZM15.25 16.75C15.25 16.3358 15.5858 16 16 16H17C17.4142 16 17.75 16.3358 17.75 16.75C17.75 17.1642 17.4142 17.5 17 17.5H16C15.5858 17.5 15.25 17.1642 15.25 16.75Z" fill="#363538"/>
</svg>
