<svg width="24" height="24" viewBox="0 0 24 24" fill="none" xmlns="http://www.w3.org/2000/svg">
<path d="M17.6182 15.3896C18.2285 15.6948 18.361 16.5085 17.8789 16.9912L14.1836 20.6865C13.701 21.169 12.8873 21.0371 12.582 20.4268L12.0137 19.29L16.4814 14.8213L17.6182 15.3896Z" fill="#363538"/>
<path d="M3.86035 5.80078C3.98032 5.78589 4.10717 5.79224 4.23535 5.8252L13.7227 8.26562C14.4824 8.46099 15.058 9.08198 15.1943 9.85449L15.8164 13.3828C15.7797 13.4082 15.7446 13.4371 15.7119 13.4697L10.5596 18.6221L7.04688 18.002C6.27433 17.8656 5.6524 17.29 5.45703 16.5303L3.0293 7.09082L8.44434 12.5059C8.47442 12.5359 8.50651 12.563 8.54004 12.5869C8.46537 13.0468 8.60539 13.5351 8.95996 13.8896C9.54566 14.4752 10.4953 14.4751 11.0811 13.8896C11.6668 13.3039 11.6668 12.3534 11.0811 11.7676C10.65 11.3367 10.0214 11.2234 9.48633 11.4268L3.86035 5.80078Z" fill="#363538"/>
<path d="M20 7.25C20.2811 7.25 20.5385 7.40722 20.667 7.65723L21.2354 8.76367L22.3428 9.33301C22.5928 9.46149 22.75 9.71891 22.75 10C22.75 10.2811 22.5928 10.5385 22.3428 10.667L21.2354 11.2354L20.667 12.3428C20.5385 12.5928 20.2811 12.75 20 12.75C19.7189 12.75 19.4615 12.5928 19.333 12.3428L18.7637 11.2354L17.6572 10.667C17.4072 10.5385 17.25 10.2811 17.25 10C17.25 9.71891 17.4072 9.46149 17.6572 9.33301L18.7637 8.76367L19.333 7.65723L19.3867 7.56836C19.5259 7.37054 19.7539 7.25 20 7.25Z" fill="#363538"/>
<path d="M15.5 2.25C15.7811 2.25 16.0385 2.40722 16.167 2.65723L16.5654 3.43359L17.3428 3.83301C17.5928 3.96149 17.75 4.21891 17.75 4.5C17.75 4.78109 17.5928 5.03851 17.3428 5.16699L16.5654 5.56543L16.167 6.34277C16.0385 6.59278 15.7811 6.75 15.5 6.75C15.2189 6.75 14.9615 6.59278 14.833 6.34277L14.4336 5.56543L13.6572 5.16699C13.4072 5.03851 13.25 4.78109 13.25 4.5C13.25 4.21891 13.4072 3.96149 13.6572 3.83301L14.4336 3.43359L14.833 2.65723L14.8867 2.56836C15.0259 2.37054 15.2539 2.25 15.5 2.25Z" fill="#363538"/>
</svg>
