<svg width="24" height="24" viewBox="0 0 24 24" fill="none" xmlns="http://www.w3.org/2000/svg">
<path fill-rule="evenodd" clip-rule="evenodd" d="M17.4998 7.97448C18.4557 7.97448 19.2306 7.19959 19.2306 6.24371C19.2306 5.28783 18.4557 4.51294 17.4998 4.51294C16.5439 4.51294 15.769 5.28783 15.769 6.24371C15.769 7.19959 16.5439 7.97448 17.4998 7.97448ZM17.4998 6.47448C17.6273 6.47448 17.7306 6.37116 17.7306 6.24371C17.7306 6.11626 17.6273 6.01294 17.4998 6.01294C17.3724 6.01294 17.269 6.11626 17.269 6.24371C17.269 6.37116 17.3724 6.47448 17.4998 6.47448Z" fill="#363538"/>
<path fill-rule="evenodd" clip-rule="evenodd" d="M19.3603 10.365L20.1397 9.91496C20.5702 9.66643 20.7177 9.116 20.4691 8.68553C20.1887 8.19989 20.5392 7.59285 21.1 7.59285C21.5971 7.59285 22 7.1899 22 6.69285V5.79285C22 5.29579 21.5971 4.89285 21.1 4.89285C20.5392 4.89285 20.1888 4.28579 20.4691 3.80015C20.7177 3.36969 20.5702 2.81926 20.1397 2.57073L19.3603 2.12073C18.9298 1.8722 18.3794 2.01969 18.1309 2.45015C17.8505 2.9358 17.1495 2.93579 16.8691 2.45015C16.6206 2.01969 16.0702 1.8722 15.6397 2.12073L14.8603 2.57073C14.4298 2.81926 14.2823 3.36969 14.5309 3.80015C14.8112 4.28579 14.4608 4.89285 13.9 4.89285C13.4029 4.89285 13 5.29579 13 5.79285V6.69285C13 7.1899 13.4029 7.59285 13.9 7.59285C14.4608 7.59285 14.8113 8.1999 14.5309 8.68554C14.2823 9.116 14.4298 9.66643 14.8603 9.91496L15.6397 10.365C16.0702 10.6135 16.6206 10.466 16.8691 10.0355C17.1495 9.5499 17.8505 9.5499 18.1309 10.0355C18.3794 10.466 18.9298 10.6135 19.3603 10.365ZM16.1063 3.82892C16.264 4.85039 15.6761 5.86866 14.7126 6.24285C15.6761 6.61704 16.264 7.6353 16.1063 8.65677C16.9121 8.00949 18.0879 8.00948 18.8937 8.65676C18.736 7.63529 19.3239 6.61703 20.2874 6.24285C19.3239 5.86866 18.736 4.85039 18.8937 3.82892C18.0879 4.47621 16.9121 4.4762 16.1063 3.82892Z" fill="#363538"/>
<path d="M13.8634 4.14325C13.6648 3.78127 13.6161 3.37585 13.6979 3H6C3.79086 3 2 4.79086 2 7V15C2 17.2091 3.79086 19 6 19H18C20.2091 19 22 17.2091 22 15V8.07601C21.7507 8.23855 21.4548 8.33552 21.1366 8.34245C21.5669 9.12672 21.2933 10.115 20.5147 10.5645L19.7353 11.0145C18.9567 11.464 17.964 11.2068 17.5 10.442C17.036 11.2069 16.0433 11.464 15.2647 11.0145L14.4853 10.5645C13.7067 10.115 13.4331 9.12672 13.8634 8.34245C12.969 8.32298 12.25 7.59188 12.25 6.69285V5.79285C12.25 4.89381 12.969 4.16272 13.8634 4.14325Z" fill="#363538"/>
<path d="M9.25 20C9.25 19.5858 9.58579 19.25 10 19.25H14C14.4142 19.25 14.75 19.5858 14.75 20C14.75 20.4142 14.4142 20.75 14 20.75H10C9.58579 20.75 9.25 20.4142 9.25 20Z" fill="#363538"/>
</svg>
