<svg width="24" height="24" viewBox="0 0 24 24" fill="none" xmlns="http://www.w3.org/2000/svg">
<path d="M6.75 7.90549C8.04392 7.57245 9 6.39788 9 5C9 3.34315 7.65685 2 6 2C4.34315 2 3 3.34315 3 5C3 6.39788 3.95608 7.57245 5.25 7.90549V16.0945C3.95608 16.4275 3 17.6021 3 19C3 20.6569 4.34315 22 6 22C7.65685 22 9 20.6569 9 19C9 17.6021 8.04392 16.4275 6.75 16.0945V14.6812C8.09329 12.1348 10.2442 11.465 12.5295 10.9839C12.7513 10.9372 12.9776 10.8918 13.2061 10.846C14.1448 10.6578 15.1203 10.4621 15.9701 10.1384C17.0367 9.73206 18.0054 9.0922 18.619 7.93608C19.9788 7.65084 21 6.44467 21 5C21 3.34315 19.6569 2 18 2C16.3431 2 15 3.34315 15 5C15 6.27058 15.7899 7.35667 16.9054 7.79403C16.532 8.21312 16.0421 8.50578 15.4361 8.73663C14.7145 9.01154 13.899 9.17574 12.9748 9.36183C12.731 9.41092 12.4797 9.46153 12.2205 9.51609C10.3995 9.89945 8.3577 10.4549 6.75 12.1246V7.90549Z" fill="#363538"/>
</svg>
