<svg width="24" height="24" viewBox="0 0 24 24" fill="none" xmlns="http://www.w3.org/2000/svg">
<path d="M6 3H18C18.4895 3 18.9585 3.08794 19.392 3.24887C19.8466 3.41763 19.4849 4 19 4H13C10.7909 4 9 5.79086 9 8V17C9 18.1046 8.10457 19 7 19H6C3.79086 19 2 17.2091 2 15V7C2 4.79086 3.79086 3 6 3Z" fill="#363538"/>
<path fill-rule="evenodd" clip-rule="evenodd" d="M9.25 20C9.25 19.5858 9.58579 19.25 10 19.25H11.6676C10.6577 18.5239 10 17.3388 10 16V9C10 6.79086 11.7909 5 14 5H18C20.2091 5 22 6.79086 22 9V16C22 18.2091 20.2091 20 18 20H14.75C14.75 20.4142 14.4142 20.75 14 20.75H10C9.58579 20.75 9.25 20.4142 9.25 20ZM16.75 16.75C16.75 17.1642 16.4142 17.5 16 17.5C15.5858 17.5 15.25 17.1642 15.25 16.75C15.25 16.3358 15.5858 16 16 16C16.4142 16 16.75 16.3358 16.75 16.75Z" fill="#363538"/>
</svg>
