<svg width="24" height="24" viewBox="0 0 24 24" fill="none" xmlns="http://www.w3.org/2000/svg">
<path fill-rule="evenodd" clip-rule="evenodd" d="M6.66694 3.12136L4.12135 5.66694C2.94978 6.83851 2.94978 8.73801 4.12136 9.90958L6.66694 12.4552C7.83851 13.6267 9.73801 13.6267 10.9096 12.4552L13.4552 9.90958C14.6267 8.73801 14.6267 6.83851 13.4552 5.66694L10.9096 3.12135C9.73801 1.94978 7.83851 1.94978 6.66694 3.12136ZM7.90172 4.07866C7.41357 4.56681 7.41357 5.35827 7.90172 5.84643C8.38988 6.33458 9.18133 6.33458 9.66949 5.84643L9.67458 5.84133C10.1627 5.35318 10.1627 4.56172 9.67458 4.07357C9.18642 3.58541 8.39497 3.58541 7.90681 4.07357L7.90172 4.07866ZM5.07335 8.67467C4.5852 8.18652 4.5852 7.39506 5.07335 6.90691L5.07844 6.90181C5.5666 6.41366 6.35805 6.41366 6.84621 6.90181C7.33437 7.38997 7.33437 8.18143 6.84621 8.66958L6.84112 8.67467C6.35296 9.16283 5.56151 9.16283 5.07335 8.67467ZM7.90172 9.73546C7.41357 10.2236 7.41357 11.0151 7.90172 11.5032C8.38988 11.9914 9.18133 11.9914 9.66949 11.5032L9.67458 11.4981C10.1627 11.01 10.1627 10.2185 9.67458 9.73037C9.18642 9.24221 8.39497 9.24221 7.90681 9.73037L7.90172 9.73546ZM10.7302 8.67467C10.2421 8.18652 10.2421 7.39506 10.7302 6.90691L10.7353 6.90181C11.2235 6.41366 12.0149 6.41366 12.5031 6.90181C12.9912 7.38997 12.9912 8.18143 12.5031 8.66958L12.498 8.67467C12.0098 9.16283 11.2184 9.16283 10.7302 8.67467Z" fill="#363538"/>
<path fill-rule="evenodd" clip-rule="evenodd" d="M12.0001 15V18.6C12.0001 20.2569 13.3432 21.6 15.0001 21.6H18.6001C20.2569 21.6 21.6001 20.2569 21.6001 18.6V15C21.6001 13.3432 20.2569 12 18.6001 12H15.0001C13.3432 12 12.0001 13.3432 12.0001 15ZM13.5501 14.8036C13.5501 15.494 14.1097 16.0536 14.8001 16.0536C15.4904 16.0536 16.0501 15.494 16.0501 14.8036V14.7964C16.0501 14.1061 15.4904 13.5464 14.8001 13.5464C14.1097 13.5464 13.5501 14.1061 13.5501 14.7964V14.8036ZM18.8001 20.0538C18.1097 20.0538 17.5501 19.4942 17.5501 18.8038V18.7966C17.5501 18.1063 18.1097 17.5466 18.8001 17.5466C19.4904 17.5466 20.0501 18.1063 20.0501 18.7966V18.8038C20.0501 19.4942 19.4904 20.0538 18.8001 20.0538Z" fill="#363538"/>
</svg>
