<svg width="24" height="24" viewBox="0 0 24 24" fill="none" xmlns="http://www.w3.org/2000/svg">
<path fill-rule="evenodd" clip-rule="evenodd" d="M3.26084 17.2003L9.63929 3.51798C10.5828 1.49401 13.4172 1.49401 14.3607 3.51798L20.7392 17.2003C21.7765 19.4255 19.5318 21.762 17.3175 20.762L13.0609 18.8397C12.3855 18.5347 11.6145 18.5347 10.9391 18.8397L6.68245 20.762C4.46818 21.762 2.22353 19.4255 3.26084 17.2003ZM12.75 11.5C12.75 11.0858 12.4142 10.75 12 10.75C11.5858 10.75 11.25 11.0858 11.25 11.5V16.5C11.25 16.9142 11.5858 17.25 12 17.25C12.4142 17.25 12.75 16.9142 12.75 16.5V11.5Z" fill="#363538"/>
</svg>
