<svg width="24" height="24" viewBox="0 0 24 24" fill="none" xmlns="http://www.w3.org/2000/svg">
<path d="M21.6197 15.8447V5.84473C21.6197 5.29245 21.2534 4.84473 20.8015 4.84473H17.9379C17.486 4.84473 17.1197 5.29245 17.1197 5.84473V15.8447C17.1197 16.397 17.486 16.8447 17.9379 16.8447H20.8015C21.2534 16.8447 21.6197 16.397 21.6197 15.8447Z" fill="#363538"/>
<path d="M8.4071 15.9914L7.63338 17.9316C6.96905 19.5976 8.43655 21.3289 10.1888 20.9465C10.4937 20.88 10.774 20.7298 10.9982 20.5127L14.7874 16.8447L15.819 16.0457C16.7972 15.2882 17.3697 14.1206 17.3697 12.8833V8.59963C17.3697 7.19991 16.638 5.902 15.4405 5.17737L14.1929 4.42246C13.5683 4.04452 12.8521 3.84473 12.1221 3.84473H7.46622C5.6695 3.84473 4.09324 5.04273 3.61223 6.77387L2.07417 12.3093C1.72006 13.5837 2.67846 14.8447 4.00117 14.8447H7.62988C8.22147 14.8447 8.62623 15.4419 8.4071 15.9914Z" fill="#363538"/>
</svg>
