<svg width="24" height="24" viewBox="0 0 24 24" fill="none" xmlns="http://www.w3.org/2000/svg">
<path fill-rule="evenodd" clip-rule="evenodd" d="M17 2.25C17.4142 2.25 17.75 2.58579 17.75 3V4.21191C17.7499 5.93263 17.0799 7.62402 16.0986 9.07324C15.3372 10.1977 14.369 11.2048 13.3232 12C14.369 12.7952 15.3372 13.8023 16.0986 14.9268C17.0799 16.376 17.7499 18.0674 17.75 19.7881V21C17.75 21.4142 17.4142 21.75 17 21.75C16.5858 21.75 16.25 21.4142 16.25 21V19.7881C16.2499 18.4503 15.7232 17.0477 14.8564 15.7676C14.7372 15.5915 14.6116 15.4191 14.4814 15.25H9.51855C9.38835 15.4191 9.26277 15.5915 9.14355 15.7676C8.92641 16.0883 8.73109 16.4169 8.55957 16.75H12C12.4142 16.75 12.75 17.0858 12.75 17.5C12.75 17.9142 12.4142 18.25 12 18.25H7.96777C7.83022 18.7524 7.75469 19.2554 7.75098 19.75H10C10.4142 19.75 10.75 20.0858 10.75 20.5C10.75 20.9142 10.4142 21.25 10 21.25H7.7041C7.60086 21.5408 7.32617 21.75 7 21.75C6.58579 21.75 6.25 21.4142 6.25 21V19.7881C6.25008 18.0674 6.9201 16.376 7.90137 14.9268C8.66261 13.8025 9.63028 12.7951 10.6758 12C9.63028 11.2049 8.66261 10.1975 7.90137 9.07324C6.9201 7.62402 6.25008 5.93263 6.25 4.21191V3C6.25 2.58579 6.58579 2.25 7 2.25C7.41421 2.25 7.75 2.58579 7.75 3V4.21191C7.75008 5.54973 8.27676 6.9523 9.14355 8.23242C9.26277 8.40848 9.38835 8.58091 9.51855 8.75H14.4814C14.6116 8.58091 14.7372 8.40848 14.8564 8.23242C15.0736 7.91173 15.2689 7.58311 15.4404 7.25H12C11.5858 7.25 11.25 6.91421 11.25 6.5C11.25 6.08579 11.5858 5.75 12 5.75H16.0322C16.1698 5.24761 16.2453 4.74464 16.249 4.25H14C13.5858 4.25 13.25 3.91421 13.25 3.5C13.25 3.08579 13.5858 2.75 14 2.75H16.2959C16.3991 2.45923 16.6738 2.25 17 2.25ZM12 12.8945C11.6291 13.148 11.2669 13.4367 10.917 13.75H13.083C12.7331 13.4367 12.3709 13.148 12 12.8945ZM10.917 10.25C11.2668 10.5631 11.6292 10.8511 12 11.1045C12.3708 10.8511 12.7332 10.5631 13.083 10.25H10.917Z" fill="#363538"/>
</svg>
