<svg width="24" height="24" viewBox="0 0 24 24" fill="none" xmlns="http://www.w3.org/2000/svg">
<path fill-rule="evenodd" clip-rule="evenodd" d="M9 3H13.3431C14.404 3 15.4214 3.42143 16.1716 4.17157L17.8284 5.82843C18.5786 6.57857 19 7.59599 19 8.65685V17C19 19.2091 17.2091 21 15 21H9C6.79086 21 5 19.2091 5 17V7C5 4.79086 6.79086 3 9 3ZM12.5303 8.46967C12.3897 8.32902 12.1989 8.25 12 8.25C11.8011 8.25 11.6103 8.32902 11.4697 8.46967L9.46967 10.4697C9.17678 10.7626 9.17678 11.2374 9.46967 11.5303C9.76256 11.8232 10.2374 11.8232 10.5303 11.5303L11.25 10.8107V15C11.25 15.4142 11.5858 15.75 12 15.75C12.4142 15.75 12.75 15.4142 12.75 15V10.8107L13.4697 11.5303C13.7626 11.8232 14.2374 11.8232 14.5303 11.5303C14.8232 11.2374 14.8232 10.7626 14.5303 10.4697L12.5303 8.46967Z" fill="#363538"/>
</svg>
