<svg width="24" height="24" viewBox="0 0 24 24" fill="none" xmlns="http://www.w3.org/2000/svg">
<path fill-rule="evenodd" clip-rule="evenodd" d="M9 3H13.3431C14.404 3 15.4214 3.42143 16.1716 4.17157L17.8284 5.82843C18.5786 6.57857 19 7.59599 19 8.65685V17C19 19.2091 17.2091 21 15 21H9C6.79086 21 5 19.2091 5 17V7C5 4.79086 6.79086 3 9 3ZM10 12.25C8.48122 12.25 7.25 13.4812 7.25 15C7.25 16.5188 8.48122 17.75 10 17.75H11C11.4142 17.75 11.75 17.4142 11.75 17C11.75 16.5858 11.4142 16.25 11 16.25H10C9.30964 16.25 8.75 15.6904 8.75 15C8.75 14.3096 9.30964 13.75 10 13.75H11C11.4142 13.75 11.75 13.4142 11.75 13C11.75 12.5858 11.4142 12.25 11 12.25H10ZM12.25 13C12.25 12.5858 12.5858 12.25 13 12.25H14C15.5188 12.25 16.75 13.4812 16.75 15C16.75 16.5188 15.5188 17.75 14 17.75H13C12.5858 17.75 12.25 17.4142 12.25 17C12.25 16.5858 12.5858 16.25 13 16.25H14C14.6904 16.25 15.25 15.6904 15.25 15C15.25 14.3096 14.6904 13.75 14 13.75H13C12.5858 13.75 12.25 13.4142 12.25 13ZM11 14.25C10.5858 14.25 10.25 14.5858 10.25 15C10.25 15.4142 10.5858 15.75 11 15.75H13C13.4142 15.75 13.75 15.4142 13.75 15C13.75 14.5858 13.4142 14.25 13 14.25H11Z" fill="#363538"/>
</svg>
