<svg width="24" height="24" viewBox="0 0 24 24" fill="none" xmlns="http://www.w3.org/2000/svg">
<path fill-rule="evenodd" clip-rule="evenodd" d="M9 3H13.3431C14.404 3 15.4214 3.42143 16.1716 4.17157L17.8284 5.82843C18.5786 6.57857 19 7.59599 19 8.65685V17C19 19.2091 17.2091 21 15 21H9C6.79086 21 5 19.2091 5 17V7C5 4.79086 6.79086 3 9 3ZM11.25 17C11.25 17.4142 11.5858 17.75 12 17.75C12.4142 17.75 12.75 17.4142 12.75 17L12.75 9C12.75 8.58579 12.4142 8.25 12 8.25C11.5858 8.25 11.25 8.58579 11.25 9L11.25 17ZM8 17.75C7.58579 17.75 7.25 17.4142 7.25 17L7.25 11.5C7.25 11.0858 7.58579 10.75 8 10.75C8.41421 10.75 8.75 11.0858 8.75 11.5L8.75 17C8.75 17.4142 8.41421 17.75 8 17.75ZM15.25 17C15.25 17.4142 15.5858 17.75 16 17.75C16.4142 17.75 16.75 17.4142 16.75 17V14C16.75 13.5858 16.4142 13.25 16 13.25C15.5858 13.25 15.25 13.5858 15.25 14V17Z" fill="#363538"/>
</svg>
