<svg width="24" height="24" viewBox="0 0 24 24" fill="none" xmlns="http://www.w3.org/2000/svg">
<path fill-rule="evenodd" clip-rule="evenodd" d="M13.3431 3H9C6.79086 3 5 4.79086 5 7V17C5 19.2091 6.79086 21 9 21H15C17.2091 21 19 19.2091 19 17V8.65685C19 7.59599 18.5786 6.57857 17.8284 5.82843L16.1716 4.17157C15.4214 3.42143 14.404 3 13.3431 3ZM11.1708 12.6646C11.3561 13.0351 11.2059 13.4856 10.8354 13.6708L8.62426 14.7764C8.44 14.8685 8.44 15.1315 8.62426 15.2236L10.8354 16.3292C11.2059 16.5144 11.3561 16.9649 11.1708 17.3354C10.9856 17.7059 10.5351 17.8561 10.1646 17.6708L7.95344 16.5652C6.66361 15.9203 6.66361 14.0797 7.95344 13.4348L10.1646 12.3292C10.5351 12.1439 10.9856 12.2941 11.1708 12.6646ZM13.1646 13.6708C12.7941 13.4856 12.6439 13.0351 12.8292 12.6646C13.0144 12.2941 13.4649 12.1439 13.8354 12.3292L16.0466 13.4348C17.3364 14.0797 17.3364 15.9203 16.0466 16.5652L13.8354 17.6708C13.4649 17.8561 13.0144 17.7059 12.8292 17.3354C12.6439 16.9649 12.7941 16.5144 13.1646 16.3292L15.3757 15.2236C15.56 15.1315 15.56 14.8685 15.3757 14.7764L13.1646 13.6708Z" fill="#363538"/>
</svg>
