<svg width="24" height="24" viewBox="0 0 24 24" fill="none" xmlns="http://www.w3.org/2000/svg">
<path fill-rule="evenodd" clip-rule="evenodd" d="M13.0771 3C14.2923 3 15.4421 3.55215 16.2012 4.50098L18.123 6.9043C18.6904 7.61355 19 8.49503 19 9.40332V17C19 19.2091 17.2091 21 15 21H9C6.79086 21 5 19.2091 5 17V7C5 4.79086 6.79086 3 9 3H13.0771ZM14.7803 10.4697C14.5057 10.1951 14.0709 10.1777 13.7764 10.418L13.7197 10.4697L11.2549 12.9336L10.2617 12.0068L10.2031 11.957C9.90034 11.7271 9.46606 11.7599 9.20117 12.0439C8.93666 12.3279 8.93432 12.7629 9.18457 13.0488L9.23828 13.1035L10.7627 14.5244C11.0581 14.7998 11.518 14.7921 11.8037 14.5068L14.7803 11.5303L14.832 11.4736C15.0723 11.1791 15.0549 10.7443 14.7803 10.4697Z" fill="#363538"/>
</svg>
