<svg width="24" height="24" viewBox="0 0 24 24" fill="none" xmlns="http://www.w3.org/2000/svg">
<path fill-rule="evenodd" clip-rule="evenodd" d="M9 3H13.3431C14.404 3 15.4214 3.42143 16.1716 4.17157L17.8284 5.82843C18.5786 6.57857 19 7.59599 19 8.65685V17C19 19.2091 17.2091 21 15 21H9C6.79086 21 5 19.2091 5 17V7C5 4.79086 6.79086 3 9 3ZM12.75 9C12.75 8.58579 12.4142 8.25 12 8.25C11.5858 8.25 11.25 8.58579 11.25 9V13.1893L10.5303 12.4697C10.2374 12.1768 9.76256 12.1768 9.46967 12.4697C9.17678 12.7626 9.17678 13.2374 9.46967 13.5303L11.4697 15.5303C11.6103 15.671 11.8011 15.75 12 15.75C12.1989 15.75 12.3897 15.671 12.5303 15.5303L14.5303 13.5303C14.8232 13.2374 14.8232 12.7626 14.5303 12.4697C14.2374 12.1768 13.7626 12.1768 13.4697 12.4697L12.75 13.1893V9Z" fill="#363538"/>
</svg>
