<svg width="24" height="24" viewBox="0 0 24 24" fill="none" xmlns="http://www.w3.org/2000/svg">
<path d="M15.9392 15.9269C18.8068 15.4761 21 12.9942 21 10C21 6.68629 18.3138 4 15 4C12.3846 4 10.16 5.67346 9.33862 8.00804C13.0474 8.18467 16 11.2475 16 15C16 15.3142 15.9793 15.6236 15.9392 15.9269Z" fill="#363538"/>
<path d="M8 13.2197C7.84925 13.3206 7.75 13.4925 7.75 13.6875C7.75 13.8825 7.84925 14.0544 8 14.1553V13.2197Z" fill="#363538"/>
<path d="M9.5 14.2735V13.316C9.65344 13.4533 9.75 13.6529 9.75 13.875C9.75 14.0805 9.83267 14.2667 9.96657 14.4022C9.81883 14.3419 9.66253 14.2982 9.5 14.2735Z" fill="#363538"/>
<path d="M8 15.7265C7.83747 15.7018 7.68117 15.6581 7.53343 15.5978C7.66733 15.7333 7.75 15.9195 7.75 16.125C7.75 16.3471 7.84656 16.5467 8 16.684V15.7265Z" fill="#363538"/>
<path d="M9.5 16.7803V15.8447C9.65075 15.9456 9.75 16.1175 9.75 16.3125C9.75 16.5075 9.65075 16.6794 9.5 16.7803Z" fill="#363538"/>
<path fill-rule="evenodd" clip-rule="evenodd" d="M15 15C15 18.3137 12.3137 21 9 21C5.68629 21 3 18.3137 3 15C3 11.6863 5.68629 9 9 9C12.3137 9 15 11.6863 15 15ZM9.5 11.6808V11.5C9.5 11.0858 9.16421 10.75 8.75 10.75C8.33579 10.75 8 11.0858 8 11.5V11.6485C7.00921 11.7991 6.25 12.6546 6.25 13.6875C6.25 14.3941 6.60535 15.0177 7.14709 15.3894C7.09952 15.38 7.05034 15.375 7 15.375C6.58579 15.375 6.25 15.7108 6.25 16.125C6.25 17.1958 6.99801 18.0919 8 18.3192V18.5C8 18.9142 8.33579 19.25 8.75 19.25C9.16421 19.25 9.5 18.9142 9.5 18.5V18.3515C10.4908 18.2009 11.25 17.3454 11.25 16.3125C11.25 15.6059 10.8947 14.9823 10.3529 14.6106C10.4005 14.62 10.4497 14.625 10.5 14.625C10.9142 14.625 11.25 14.2892 11.25 13.875C11.25 12.8042 10.502 11.9081 9.5 11.6808Z" fill="#363538"/>
</svg>
