<svg width="24" height="24" viewBox="0 0 24 24" fill="none" xmlns="http://www.w3.org/2000/svg">
<path fill-rule="evenodd" clip-rule="evenodd" d="M12 22C17.5228 22 22 17.5228 22 12C22 6.47715 17.5228 2 12 2C6.47715 2 2 6.47715 2 12C2 17.5228 6.47715 22 12 22ZM17.4955 10.75C16.8051 10.75 16.2455 11.3096 16.2455 12C16.2455 12.6904 16.8051 13.25 17.4955 13.25H17.5045C18.1949 13.25 18.7545 12.6904 18.7545 12C18.7545 11.3096 18.1949 10.75 17.5045 10.75H17.4955ZM10.7455 12C10.7455 11.3096 11.3051 10.75 11.9955 10.75H12.0045C12.6949 10.75 13.2545 11.3096 13.2545 12C13.2545 12.6904 12.6949 13.25 12.0045 13.25H11.9955C11.3051 13.25 10.7455 12.6904 10.7455 12ZM6.4955 10.75C5.80514 10.75 5.2455 11.3096 5.2455 12C5.2455 12.6904 5.80514 13.25 6.4955 13.25H6.5045C7.19486 13.25 7.7545 12.6904 7.7545 12C7.7545 11.3096 7.19486 10.75 6.5045 10.75H6.4955Z" fill="#363538"/>
</svg>
