<svg width="24" height="24" viewBox="0 0 24 24" fill="none" xmlns="http://www.w3.org/2000/svg">
<path d="M12 5.75412C11.3096 5.75412 10.75 5.19447 10.75 4.50412V4.49512C10.75 3.80476 11.3096 3.24512 12 3.24512C12.6904 3.24512 13.25 3.80476 13.25 4.49512V4.50412C13.25 5.19447 12.6904 5.75412 12 5.75412Z" fill="#363538"/>
<path d="M12 13.2541C11.3096 13.2541 10.75 12.6945 10.75 12.0041V11.9951C10.75 11.3048 11.3096 10.7451 12 10.7451C12.6904 10.7451 13.25 11.3048 13.25 11.9951V12.0041C13.25 12.6945 12.6904 13.2541 12 13.2541Z" fill="#363538"/>
<path d="M10.75 19.5041C10.75 20.1945 11.3096 20.7541 12 20.7541C12.6904 20.7541 13.25 20.1945 13.25 19.5041V19.4951C13.25 18.8048 12.6904 18.2451 12 18.2451C11.3096 18.2451 10.75 18.8048 10.75 19.4951V19.5041Z" fill="#363538"/>
</svg>
