<svg width="24" height="24" viewBox="0 0 24 24" fill="none" xmlns="http://www.w3.org/2000/svg">
<path fill-rule="evenodd" clip-rule="evenodd" d="M12 22C17.5228 22 22 17.5228 22 12C22 6.47715 17.5228 2 12 2C6.47715 2 2 6.47715 2 12C2 17.5228 6.47715 22 12 22ZM11.9955 5.25C11.3051 5.25 10.7455 5.80964 10.7455 6.5C10.7455 7.19036 11.3051 7.75 11.9955 7.75H12.0045C12.6949 7.75 13.2545 7.19036 13.2545 6.5C13.2545 5.80964 12.6949 5.25 12.0045 5.25H11.9955ZM10.7455 12C10.7455 11.3096 11.3051 10.75 11.9955 10.75H12.0045C12.6949 10.75 13.2545 11.3096 13.2545 12C13.2545 12.6904 12.6949 13.25 12.0045 13.25H11.9955C11.3051 13.25 10.7455 12.6904 10.7455 12ZM11.9955 16.25C11.3051 16.25 10.7455 16.8096 10.7455 17.5C10.7455 18.1904 11.3051 18.75 11.9955 18.75H12.0045C12.6949 18.75 13.2545 18.1904 13.2545 17.5C13.2545 16.8096 12.6949 16.25 12.0045 16.25H11.9955Z" fill="#363538"/>
</svg>
