<svg width="24" height="24" viewBox="0 0 24 24" fill="none" xmlns="http://www.w3.org/2000/svg">
<path d="M14.1111 11.7393C15.4399 13.139 18.2267 15.8186 16.9998 19.5C16.478 21.064 13.9999 20.9996 13.4998 19.5C13.333 19.9998 12.7995 20.4999 11.9998 20.5C11.2001 20.4999 10.6665 19.9998 10.4998 19.5C9.99945 20.9995 7.52148 21.0642 6.99982 19.5C5.77341 15.8201 8.55708 13.1405 9.88653 11.7402C9.92359 11.7459 9.96216 11.75 10.0008 11.75H14.0008L14.0779 11.7461C14.0891 11.7449 14.1001 11.7409 14.1111 11.7393Z" fill="#363538"/>
<path d="M13.9998 2.75C14.414 2.75 14.7498 3.08579 14.7498 3.5V5.44336C14.8559 5.58866 14.9427 5.77086 14.9998 5.99902C15.3952 7.58037 13.916 9.16292 13.5262 10.25H10.4744C10.0847 9.16291 8.60444 7.58051 8.99982 5.99902C9.05704 5.77045 9.14342 5.58779 9.24982 5.44238V3.5C9.24982 3.08582 9.58564 2.75005 9.99982 2.75C10.414 2.75 10.7498 3.0858 10.7498 3.5V5.00781C10.9964 5.05546 11.2413 5.1359 11.4647 5.22949C11.8052 5.37219 12.1954 5.37223 12.5359 5.22949C12.7591 5.136 13.0035 5.05543 13.2498 5.00781V3.5C13.2498 3.08581 13.5856 2.75004 13.9998 2.75Z" fill="#363538"/>
</svg>
