<svg width="24" height="24" viewBox="0 0 24 24" fill="none" xmlns="http://www.w3.org/2000/svg">
<path d="M7.91676 3.97742C5.4975 5.21121 3.71035 7.50714 3.16991 10.2506C3.19898 10.2507 3.23387 10.2508 3.27428 10.2508C3.41271 10.2506 3.61569 10.2492 3.87066 10.2443C4.38093 10.2344 5.09769 10.2102 5.92097 10.1531C7.57958 10.0382 9.62279 9.7929 11.2794 9.28317C11.4691 9.22482 11.6533 9.16633 11.8322 9.10778C10.7424 7.24242 9.43474 5.4954 7.96967 4.03033L7.91676 3.97742Z" fill="#363538"/>
<path d="M3.00343 11.7492L3.04426 11.7497L3.05493 11C3.04426 11.7497 3.04414 11.7497 3.04426 11.7497L3.04583 11.7498L3.04921 11.7498L3.06131 11.7499L3.10639 11.7503C3.14552 11.7506 3.20256 11.7508 3.27594 11.7508C3.42267 11.7506 3.63484 11.7491 3.89979 11.744C4.42936 11.7337 5.17155 11.7086 6.02464 11.6495C7.7188 11.5322 9.89813 11.2776 11.7206 10.7168C12.0137 10.6266 12.2954 10.5358 12.5659 10.4447C12.7915 10.883 13.0045 11.3251 13.2045 11.7688C12.8935 11.8613 12.5742 11.9658 12.2468 12.0832C10.4571 12.7252 8.67624 14.2588 7.38972 15.5518C6.73449 16.2103 6.18434 16.8304 5.79785 17.2859C5.60437 17.514 5.45129 17.7015 5.3459 17.8329C5.30759 17.8807 5.27556 17.9211 5.25017 17.9533C3.84975 16.3667 3 14.2826 3 12C3 11.9161 3.00115 11.8325 3.00343 11.7492Z" fill="#363538"/>
<path d="M6.33895 18.997C7.88524 20.2496 9.85499 21 12 21C13.146 21 14.2419 20.7858 15.25 20.3953V20.0643C15.25 18.0244 14.7331 15.6122 13.7869 13.1614C13.4548 13.2564 13.1102 13.3671 12.7532 13.4951C11.2998 14.0165 9.71823 15.3382 8.45302 16.6098C7.8324 17.2335 7.30938 17.8229 6.94166 18.2563C6.75804 18.4728 6.61376 18.6496 6.51606 18.7714C6.46722 18.8323 6.43007 18.8794 6.4055 18.9108L6.37821 18.9458L6.37187 18.954L6.37056 18.9557L6.33895 18.997Z" fill="#363538"/>
<path d="M16.7438 19.6497C18.8603 18.3345 20.3908 16.1653 20.8539 13.6237L20.5435 13.4089L20.5368 13.4047C20.5275 13.3987 20.5095 13.3876 20.4831 13.3723C20.4302 13.3417 20.3432 13.2944 20.2225 13.2383C19.9812 13.1262 19.6047 12.9789 19.0949 12.8598C18.2213 12.6557 16.942 12.5311 15.2626 12.8212C16.1513 15.1762 16.6815 17.5413 16.7438 19.6497Z" fill="#363538"/>
<path d="M20.9988 11.9475C20.9822 9.94253 20.2905 7.97288 19.0445 6.39987C19.031 6.42474 19.0165 6.4504 19.0011 6.47684C18.8418 6.74996 18.5814 7.1001 18.1581 7.49805C17.4033 8.2076 16.1318 9.06855 13.9848 9.92497C14.2326 10.4141 14.4658 10.9075 14.6834 11.4028C16.7178 11.0037 18.309 11.1358 19.4361 11.3991C20.0538 11.5434 20.5275 11.726 20.8545 11.8779C20.9063 11.902 20.9544 11.9253 20.9988 11.9475Z" fill="#363538"/>
<path d="M17.8662 5.17431C16.2909 3.81912 14.2411 3 12 3C11.105 3 10.2405 3.13065 9.42455 3.3739C10.8934 4.91787 12.1905 6.70951 13.2684 8.5951C15.3898 7.76712 16.5298 6.97005 17.1306 6.40517C17.4569 6.09842 17.6243 5.86017 17.7054 5.72108C17.7461 5.65126 17.7659 5.60507 17.7734 5.58598L17.7742 5.584L17.8662 5.17431Z" fill="#363538"/>
</svg>
