<svg width="24" height="24" viewBox="0 0 24 24" fill="none" xmlns="http://www.w3.org/2000/svg">
<path d="M7.0625 12.7871C7.253 12.4442 7.747 12.4442 7.9375 12.7871L10.0723 16.6289C11.1617 18.5899 9.74324 21 7.5 21C5.25676 21 3.83832 18.5899 4.92773 16.6289L7.0625 12.7871Z" fill="#363538"/>
<path d="M16.0625 12.7871C16.253 12.4442 16.747 12.4442 16.9375 12.7871L19.0723 16.6289C20.1617 18.5899 18.7432 21 16.5 21C14.2568 21 12.8383 18.5899 13.9277 16.6289L16.0625 12.7871Z" fill="#363538"/>
<path d="M7.0459 2.25C8.53932 2.25003 9.74997 3.46068 9.75 4.9541C9.75 5.85822 9.29815 6.70257 8.5459 7.2041L8.25 7.40137V9.20117C8.69823 9.46056 9 9.94488 9 10.5C9 11.3284 8.32843 12 7.5 12C6.67157 12 6 11.3284 6 10.5C6 9.94488 6.30177 9.46056 6.75 9.20117V7.2002C6.75004 6.82433 6.93823 6.47314 7.25098 6.26465L7.71387 5.95605C8.04882 5.73272 8.25 5.35669 8.25 4.9541C8.24997 4.28911 7.71089 3.75003 7.0459 3.75H7C6.30964 3.75 5.75 4.30964 5.75 5C5.75 5.41421 5.41421 5.75 5 5.75C4.58579 5.75 4.25 5.41421 4.25 5C4.25 3.48122 5.48122 2.25 7 2.25H7.0459Z" fill="#363538"/>
<path d="M16.0459 2.25C17.5393 2.25003 18.75 3.46068 18.75 4.9541C18.75 5.85822 18.2982 6.70257 17.5459 7.2041L17.25 7.40137V9.20117C17.6982 9.46056 18 9.94488 18 10.5C18 11.3284 17.3284 12 16.5 12C15.6716 12 15 11.3284 15 10.5C15 9.94488 15.3018 9.46056 15.75 9.20117V7.2002C15.75 6.82433 15.9382 6.47314 16.251 6.26465L16.7139 5.95605C17.0488 5.73272 17.25 5.35669 17.25 4.9541C17.25 4.28911 16.7109 3.75003 16.0459 3.75H16C15.3096 3.75 14.75 4.30964 14.75 5C14.75 5.41421 14.4142 5.75 14 5.75C13.5858 5.75 13.25 5.41421 13.25 5C13.25 3.48122 14.4812 2.25 16 2.25H16.0459Z" fill="#363538"/>
</svg>
