<svg width="24" height="24" viewBox="0 0 24 24" fill="none" xmlns="http://www.w3.org/2000/svg">
<path d="M13.5 5.50038L3.29289 15.7075C3.10536 15.895 3 16.1494 3 16.4146V20.0004C3 20.5527 3.44772 21.0004 4 21.0004H7.58579C7.851 21.0004 8.10536 20.895 8.29289 20.7075L18.5 10.5004C19.8807 9.11967 19.8807 6.88109 18.5 5.50038C17.1193 4.11967 14.8807 4.11967 13.5 5.50038Z" fill="#363538"/>
<path d="M12 19.2504C11.5858 19.2504 11.25 19.5862 11.25 20.0004C11.25 20.4146 11.5858 20.7504 12 20.7504H19C19.4142 20.7504 19.75 20.4146 19.75 20.0004C19.75 19.5862 19.4142 19.2504 19 19.2504H12Z" fill="#363538"/>
</svg>
