<svg width="24" height="24" viewBox="0 0 24 24" fill="none" xmlns="http://www.w3.org/2000/svg">
<path d="M17.3333 5.58462C14.9013 0.805287 9.09876 0.804966 6.66666 5.58462L5.23001 9.05328L6.96445 8.86057C7.86253 8.76078 8.71678 9.27263 9.05237 10.1116C9.18098 10.4331 9.58591 10.5356 9.85195 10.3139L10.3482 9.90036C11.3181 9.09209 12.7928 9.44608 13.2902 10.6066C13.4159 10.9 13.823 10.9233 13.9813 10.6461L14.3503 10.0003C14.8024 9.20922 15.6858 8.76751 16.59 8.88053L18.8136 9.15848L17.3333 5.58462Z" fill="#363538"/>
<path d="M19.4664 10.7494C19.4467 10.7485 19.4269 10.7468 19.407 10.7443L16.4039 10.3689C16.1007 10.331 15.8043 10.4792 15.6527 10.7446L15.2837 11.3903C14.5109 12.7426 12.525 12.6291 11.9114 11.1974C11.8095 10.9596 11.5072 10.887 11.3085 11.0527L10.8122 11.4662C9.7633 12.3403 8.16675 11.9364 7.65965 10.6687C7.57454 10.4559 7.35788 10.3261 7.1301 10.3514L4.57712 10.6351C3.78505 12.6741 3.80829 14.9584 4.64684 16.983C7.41749 23.6725 16.5825 23.6725 19.3532 16.983C20.1761 14.9962 20.2138 12.7592 19.4664 10.7494Z" fill="#363538"/>
</svg>
