<svg width="24" height="24" viewBox="0 0 24 24" fill="none" xmlns="http://www.w3.org/2000/svg">
<path d="M6 2H8C10.2091 2 12 3.79086 12 6V9C12 11.2091 10.2091 13 8 13H6C3.79086 13 2 11.2091 2 9V6C2 3.79086 3.79086 2 6 2Z" fill="#363538"/>
<path d="M17.75 3C17.75 2.58579 17.4142 2.25 17 2.25C16.5858 2.25 16.25 2.58579 16.25 3V5.25H14C13.5858 5.25 13.25 5.58579 13.25 6C13.25 6.41421 13.5858 6.75 14 6.75H16.25V9C16.25 9.41421 16.5858 9.75 17 9.75C17.4142 9.75 17.75 9.41421 17.75 9V6.75H20C20.4142 6.75 20.75 6.41421 20.75 6C20.75 5.58579 20.4142 5.25 20 5.25H17.75V3Z" fill="#363538"/>
<path d="M16 11C13.7909 11 12 12.7909 12 15V18C12 20.2091 13.7909 22 16 22H18C20.2091 22 22 20.2091 22 18V15C22 12.7909 20.2091 11 18 11H16Z" fill="#363538"/>
<path d="M5.77254 14.4563L2.12186 20.6636C1.77043 21.2611 2.22106 22 2.9369 22H10.0632C10.7704 22 11.2219 21.277 10.8876 20.6799L7.41197 14.4726C7.06327 13.8499 6.13465 13.8406 5.77254 14.4563Z" fill="#363538"/>
</svg>
