<svg width="24" height="24" viewBox="0 0 24 24" fill="none" xmlns="http://www.w3.org/2000/svg">
<path fill-rule="evenodd" clip-rule="evenodd" d="M12 2C13.6235 2 15.1552 2.38961 16.5107 3.07617C16.5042 3.13323 16.5 3.19118 16.5 3.25V3.75H16C15.1716 3.75 14.5 4.42157 14.5 5.25C14.5 6.07843 15.1716 6.75 16 6.75H16.5V7.25C16.5 8.07843 17.1716 8.75 18 8.75C18.8284 8.75 19.5 8.07843 19.5 7.25V6.75H20C20.1617 6.75 20.317 6.72312 20.4629 6.67578C21.4351 8.21779 22 10.0424 22 12C22 17.5228 17.5228 22 12 22C6.47715 22 2 17.5228 2 12C2 6.47715 6.47715 2 12 2ZM8.69336 15C8.35228 15.0002 8.12439 15.33 8.28711 15.6299C8.76462 16.5097 9.88555 18 12 18C14.1144 18 15.2354 16.5097 15.7129 15.6299C15.8756 15.33 15.6477 15.0002 15.3066 15H8.69336ZM8.5 8C7.67157 8 7 8.67157 7 9.5C7 10.3284 7.67157 11 8.5 11C9.32843 11 10 10.3284 10 9.5C10 8.67157 9.32843 8 8.5 8ZM15.5 8C14.6716 8 14 8.67157 14 9.5C14 10.3284 14.6716 11 15.5 11C16.3284 11 17 10.3284 17 9.5C17 8.67157 16.3284 8 15.5 8Z" fill="#363538"/>
<path d="M18 2.5C18.4142 2.5 18.75 2.83579 18.75 3.25V4.5H20C20.4142 4.5 20.75 4.83579 20.75 5.25C20.75 5.66421 20.4142 6 20 6H18.75V7.25C18.75 7.66421 18.4142 8 18 8C17.5858 8 17.25 7.66421 17.25 7.25V6H16C15.5858 6 15.25 5.66421 15.25 5.25C15.25 4.83579 15.5858 4.5 16 4.5H17.25V3.25C17.25 2.83579 17.5858 2.5 18 2.5Z" fill="#363538"/>
</svg>
