<svg width="24" height="24" viewBox="0 0 24 24" fill="none" xmlns="http://www.w3.org/2000/svg">
<path d="M19 2.75C18.5858 2.75 18.25 2.41421 18.25 2C18.25 1.58579 18.5858 1.25 19 1.25H22C22.3033 1.25 22.5768 1.43273 22.6929 1.71299C22.809 1.99324 22.7448 2.31583 22.5303 2.53033L20.8107 4.25H22C22.4142 4.25 22.75 4.58579 22.75 5C22.75 5.41421 22.4142 5.75 22 5.75H19C18.6967 5.75 18.4232 5.56727 18.3071 5.28701C18.191 5.00676 18.2552 4.68417 18.4697 4.46967L20.1893 2.75H19Z" fill="#363538"/>
<path d="M15 5.75C14.5858 5.75 14.25 5.41421 14.25 5C14.25 4.58579 14.5858 4.25 15 4.25H17C17.3033 4.25 17.5768 4.43273 17.6929 4.71299C17.809 4.99324 17.7448 5.31583 17.5303 5.53033L16.8107 6.25H17C17.4142 6.25 17.75 6.58579 17.75 7C17.75 7.41421 17.4142 7.75 17 7.75H15C14.6967 7.75 14.4232 7.56727 14.3071 7.28701C14.191 7.00676 14.2552 6.68417 14.4697 6.46967L15.1893 5.75H15Z" fill="#363538"/>
<path fill-rule="evenodd" clip-rule="evenodd" d="M17.3284 3.53633C15.7859 2.56313 13.9587 2 12 2C6.47715 2 2 6.47715 2 12C2 17.5228 6.47715 22 12 22C17.5228 22 22 17.5228 22 12C22 9.96818 21.394 8.0779 20.353 6.5H19C18.7717 6.5 18.5519 6.44825 18.3541 6.35383C18.4476 6.54951 18.5 6.76864 18.5 7C18.5 7.82843 17.8284 8.5 17 8.5H15C14.3933 8.5 13.8464 8.13454 13.6142 7.57403C13.3927 7.03935 13.4993 6.42763 13.8819 6C13.6444 5.73462 13.5 5.38418 13.5 5C13.5 4.17157 14.1716 3.5 15 3.5H17C17.1121 3.5 17.2221 3.51247 17.3284 3.53633ZM13.4697 10.5303C14.591 11.6517 16.409 11.6517 17.5303 10.5303C17.8232 10.2374 17.8232 9.76256 17.5303 9.46967C17.2374 9.17678 16.7626 9.17678 16.4697 9.46967C15.9341 10.0052 15.0659 10.0052 14.5303 9.46967C14.2374 9.17678 13.7626 9.17678 13.4697 9.46967C13.1768 9.76256 13.1768 10.2374 13.4697 10.5303ZM10.5303 10.5303C9.40901 11.6517 7.59099 11.6517 6.46967 10.5303C6.17678 10.2374 6.17678 9.76256 6.46967 9.46967C6.76256 9.17678 7.23744 9.17678 7.53033 9.46967C8.06586 10.0052 8.93414 10.0052 9.46967 9.46967C9.76256 9.17678 10.2374 9.17678 10.5303 9.46967C10.8232 9.76256 10.8232 10.2374 10.5303 10.5303ZM13.5 16.5C13.5 17.3284 12.8284 18 12 18C11.1716 18 10.5 17.3284 10.5 16.5C10.5 15.6716 11.1716 15 12 15C12.8284 15 13.5 15.6716 13.5 16.5Z" fill="#363538"/>
</svg>
