<svg width="24" height="24" viewBox="0 0 24 24" fill="none" xmlns="http://www.w3.org/2000/svg">
<path fill-rule="evenodd" clip-rule="evenodd" d="M12 22C17.5228 22 22 17.5228 22 12C22 6.47715 17.5228 2 12 2C6.47715 2 2 6.47715 2 12C2 17.5228 6.47715 22 12 22ZM7.66459 17.6708C8.03294 17.855 8.4804 17.7076 8.6676 17.3418L8.66912 17.339C8.67225 17.3333 8.67912 17.3211 8.68992 17.3033C8.71157 17.2676 8.74876 17.21 8.80312 17.1375C8.91211 16.9922 9.08796 16.7901 9.34352 16.5857C9.84512 16.1844 10.6822 15.75 12 15.75C13.3178 15.75 14.1549 16.1844 14.6565 16.5857C14.912 16.7901 15.0879 16.9922 15.1969 17.1375C15.2512 17.21 15.2884 17.2676 15.3101 17.3033C15.3209 17.3211 15.3277 17.3333 15.3309 17.339L15.3324 17.3418C15.5196 17.7076 15.9671 17.855 16.3354 17.6708C16.7059 17.4856 16.8561 17.0351 16.6708 16.6646L16 17C16.6708 16.6646 16.671 16.665 16.6708 16.6646L16.67 16.6629L16.669 16.6611L16.6669 16.6568L16.6613 16.6461C16.6571 16.6379 16.6517 16.6279 16.6452 16.6161C16.6322 16.5925 16.6147 16.5617 16.5923 16.5248C16.5475 16.4511 16.4831 16.3525 16.3969 16.2375C16.2246 16.0078 15.963 15.7099 15.5935 15.4143C14.8451 14.8156 13.6822 14.25 12 14.25C10.3178 14.25 9.15488 14.8156 8.40648 15.4143C8.03704 15.7099 7.77539 16.0078 7.60313 16.2375C7.51687 16.3525 7.4525 16.4511 7.40774 16.5248C7.38534 16.5617 7.36778 16.5925 7.3548 16.6161C7.34831 16.6279 7.34295 16.6379 7.33869 16.6461L7.33313 16.6568L7.33095 16.6611L7.33002 16.6629C7.32981 16.6633 7.32918 16.6646 8 17L7.32918 16.6646C7.14394 17.0351 7.29411 17.4856 7.66459 17.6708ZM10 9.5C10 10.3284 9.32843 11 8.5 11C7.67157 11 7 10.3284 7 9.5C7 8.67157 7.67157 8 8.5 8C9.32843 8 10 8.67157 10 9.5ZM15.5 11C16.3284 11 17 10.3284 17 9.5C17 8.67157 16.3284 8 15.5 8C14.6716 8 14 8.67157 14 9.5C14 10.3284 14.6716 11 15.5 11Z" fill="#363538"/>
</svg>
