<svg width="24" height="24" viewBox="0 0 24 24" fill="none" xmlns="http://www.w3.org/2000/svg">
<path fill-rule="evenodd" clip-rule="evenodd" d="M12 22C17.5228 22 22 17.5228 22 12C22 6.47715 17.5228 2 12 2C6.47715 2 2 6.47715 2 12C2 17.5228 6.47715 22 12 22ZM9.13646 15.5917C8.91098 15.2443 8.44651 15.1454 8.09905 15.3709C7.75159 15.5963 7.6527 16.0608 7.87819 16.4083C8.51408 17.3882 9.80246 18.75 12.0002 18.75C14.1979 18.75 15.4862 17.3882 16.1221 16.4083C16.3476 16.0608 16.2487 15.5963 15.9013 15.3709C15.5538 15.1454 15.0893 15.2443 14.8639 15.5917C14.3673 16.3569 13.4807 17.25 12.0002 17.25C10.5196 17.25 9.63305 16.3569 9.13646 15.5917ZM10 9.5C10 10.3284 9.32843 11 8.5 11C7.67157 11 7 10.3284 7 9.5C7 8.67157 7.67157 8 8.5 8C9.32843 8 10 8.67157 10 9.5ZM17.5303 8.96967C16.409 7.84835 14.591 7.84835 13.4697 8.96967C13.1768 9.26256 13.1768 9.73744 13.4697 10.0303C13.7626 10.3232 14.2374 10.3232 14.5303 10.0303C15.0659 9.4948 15.9341 9.4948 16.4697 10.0303C16.7626 10.3232 17.2374 10.3232 17.5303 10.0303C17.8232 9.73744 17.8232 9.26256 17.5303 8.96967Z" fill="#363538"/>
</svg>
