<svg width="24" height="24" viewBox="0 0 24 24" fill="none" xmlns="http://www.w3.org/2000/svg">
<path d="M14.051 18.6492L5.56586 10.1641L6.62652 9.10346L15.1116 17.5886L18.4704 14.2298C19.7883 12.9119 20.4473 12.2529 20.7518 11.5179C21.1577 10.5377 21.1577 9.4365 20.7518 8.45638C20.4473 7.7213 19.7883 7.06236 18.4704 5.74448C17.1526 4.4266 16.4936 3.76766 15.7585 3.46317C14.7784 3.0572 13.6772 3.0572 12.6971 3.46317C11.962 3.76766 11.303 4.4266 9.98517 5.74448L5.74252 9.98712C4.42464 11.305 3.7657 11.9639 3.46122 12.699C3.05524 13.6791 3.05524 14.7804 3.46122 15.7605C3.7657 16.4956 4.42464 17.1545 5.74252 18.4724C7.06041 19.7903 7.71935 20.4492 8.45443 20.7537C9.43454 21.1597 10.5358 21.1597 11.5159 20.7537C12.2173 20.4632 12.8495 19.8498 14.051 18.6492Z" fill="#363538"/>
</svg>
