<svg width="24" height="24" viewBox="0 0 24 24" fill="none" xmlns="http://www.w3.org/2000/svg">
<path d="M4.9735 10.7829C4.51832 11.3519 4.80494 12.201 5.51183 12.3778L11.7575 13.9392C11.9167 13.979 12.0833 13.979 12.2425 13.9392L18.4882 12.3778C19.195 12.201 19.4817 11.3519 19.0265 10.7829L12.7809 2.97589C12.3805 2.47548 11.6195 2.47548 11.2191 2.97589L4.9735 10.7829Z" fill="#363538"/>
<path d="M5.27644 15.2763L11.6464 21.6463C11.8417 21.8416 12.1583 21.8416 12.3536 21.6463L18.7236 15.2763C19.0821 14.9177 18.7407 14.3147 18.2487 14.4377L12.1213 15.9695C12.0416 15.9894 11.9584 15.9894 11.8787 15.9695L5.75126 14.4377C5.25929 14.3147 4.91786 14.9177 5.27644 15.2763Z" fill="#363538"/>
</svg>
