<svg width="24" height="24" viewBox="0 0 24 24" fill="none" xmlns="http://www.w3.org/2000/svg">
<path fill-rule="evenodd" clip-rule="evenodd" d="M11.5193 3.93544C13.348 3.02109 15.5566 3.3795 17.0023 4.82521L18.0303 5.85326C18.3232 6.14616 18.3232 6.62103 18.0303 6.91392C17.7374 7.20682 17.2626 7.20682 16.9697 6.91392L15.9416 5.88587C14.9524 4.8967 13.4413 4.65147 12.1901 5.27708L10.8466 5.94884C9.74551 6.49936 9.05 7.62472 9.05 8.85573V10.2336H17.5C17.9142 10.2336 18.25 10.5694 18.25 10.9836C18.25 11.3978 17.9142 11.7336 17.5 11.7336H9.05V13.3003H17.5C17.9142 13.3003 18.25 13.636 18.25 14.0503C18.25 14.4645 17.9142 14.8003 17.5 14.8003H9.05V18.1836C9.05 18.874 9.60964 19.4336 10.3 19.4336H17.5C17.9142 19.4336 18.25 19.7694 18.25 20.1836C18.25 20.5978 17.9142 20.9336 17.5 20.9336H10.3C8.78122 20.9336 7.55 19.7024 7.55 18.1836V14.8003H6C5.58579 14.8003 5.25 14.4645 5.25 14.0503C5.25 13.636 5.58579 13.3003 6 13.3003H7.55V11.7336H6C5.58579 11.7336 5.25 11.3978 5.25 10.9836C5.25 10.5694 5.58579 10.2336 6 10.2336H7.55V8.85573C7.55 7.05656 8.56651 5.41181 10.1757 4.6072L11.5193 3.93544Z" fill="#363538"/>
</svg>
