<svg width="24" height="24" viewBox="0 0 24 24" fill="none" xmlns="http://www.w3.org/2000/svg">
<path d="M15.9392 15.9269C18.8068 15.4761 21 12.9942 21 10C21 6.68629 18.3138 4 15 4C12.3846 4 10.16 5.67346 9.33862 8.00804C13.0474 8.18467 16 11.2475 16 15C16 15.3142 15.9793 15.6236 15.9392 15.9269Z" fill="#363538"/>
<path fill-rule="evenodd" clip-rule="evenodd" d="M9 21C12.3137 21 15 18.3137 15 15C15 11.6863 12.3137 9 9 9C5.68629 9 3 11.6863 3 15C3 18.3137 5.68629 21 9 21ZM9.35525 11.75C9.02061 11.75 8.68936 11.817 8.38106 11.9472C7.53555 12.304 6.95968 13.0907 6.86407 13.9896C6.51475 14.0535 6.25 14.3595 6.25 14.7273C6.25 14.9422 6.34039 15.136 6.48524 15.2727C6.34039 15.4095 6.25 15.6033 6.25 15.8182C6.25 16.2011 6.53697 16.517 6.90759 16.5625C7.16721 17.8115 8.27401 18.75 9.6 18.75H10C10.4142 18.75 10.75 18.4142 10.75 18C10.75 17.5858 10.4142 17.25 10 17.25H9.6C9.11424 17.25 8.6932 16.9729 8.4863 16.5682H10C10.4142 16.5682 10.75 16.2324 10.75 15.8182C10.75 15.6033 10.6596 15.4095 10.5148 15.2727C10.6596 15.136 10.75 14.9422 10.75 14.7273C10.75 14.3131 10.4142 13.9773 10 13.9773H8.38915C8.4718 13.6901 8.6801 13.4491 8.96435 13.3291C9.08806 13.2769 9.22098 13.25 9.35525 13.25H10C10.4142 13.25 10.75 12.9142 10.75 12.5C10.75 12.0858 10.4142 11.75 10 11.75H9.35525Z" fill="#363538"/>
</svg>
