<svg width="24" height="24" viewBox="0 0 24 24" fill="none" xmlns="http://www.w3.org/2000/svg">
<path d="M14.34 9.34415C14.5354 9.279 14.7214 9.46494 14.6562 9.66038L13.4468 13.2887C13.4219 13.3633 13.3633 13.4219 13.2887 13.4468L9.66038 14.6562C9.46494 14.7214 9.279 14.5354 9.34415 14.34L10.5536 10.7117C10.5785 10.637 10.637 10.5785 10.7117 10.5536L14.34 9.34415Z" fill="#363538"/>
<path fill-rule="evenodd" clip-rule="evenodd" d="M12 22C17.5228 22 22 17.5228 22 12C22 6.47715 17.5228 2 12 2C6.47715 2 2 6.47715 2 12C2 17.5228 6.47715 22 12 22ZM16.0792 10.1347C16.5353 8.76664 15.2337 7.4651 13.8656 7.92112L10.2374 9.13055C9.71479 9.30474 9.30474 9.71479 9.13055 10.2374L7.92112 13.8656C7.4651 15.2337 8.76664 16.5353 10.1347 16.0792L13.763 14.8698C14.2856 14.6956 14.6956 14.2856 14.8698 13.763L16.0792 10.1347Z" fill="#363538"/>
</svg>
