<svg width="24" height="24" viewBox="0 0 24 24" fill="none" xmlns="http://www.w3.org/2000/svg">
<path d="M9.46967 5.53033C9.76256 5.82322 10.2374 5.82322 10.5303 5.53033L11.25 4.81066V12C11.25 12.4142 11.5858 12.75 12 12.75C12.4142 12.75 12.75 12.4142 12.75 12V4.81066L13.4697 5.53033C13.7626 5.82322 14.2374 5.82322 14.5303 5.53033C14.8232 5.23744 14.8232 4.76256 14.5303 4.46967L12.5303 2.46967C12.4584 2.39776 12.3755 2.34351 12.2871 2.30691C12.1993 2.27051 12.1031 2.2503 12.0022 2.25L12 2.25L11.9978 2.25C11.8066 2.25057 11.6155 2.3238 11.4697 2.46967L9.46967 4.46967C9.17678 4.76256 9.17678 5.23744 9.46967 5.53033Z" fill="#363538"/>
<path d="M3 15V17C3 19.2091 4.79086 21 7 21H17C19.2091 21 21 19.2091 21 17V15C21 13.6674 20.1312 12.5378 18.929 12.1466C18.3385 11.9545 17.7108 12.1446 17.1554 12.4223L13.7889 14.1056C12.6627 14.6686 11.3373 14.6686 10.2111 14.1056L6.84458 12.4223C6.28916 12.1446 5.66146 11.9545 5.07095 12.1466C3.86885 12.5378 3 13.6674 3 15Z" fill="#363538"/>
</svg>
