<svg width="24" height="24" viewBox="0 0 24 24" fill="none" xmlns="http://www.w3.org/2000/svg">
<path d="M20.4697 2.46967C20.7626 2.17678 21.2373 2.17678 21.5302 2.46967C21.8231 2.76257 21.8231 3.23734 21.5302 3.53022L3.53022 21.5302C3.23734 21.8231 2.76257 21.8231 2.46967 21.5302C2.17678 21.2373 2.17678 20.7626 2.46967 20.4697L20.4697 2.46967Z" fill="#363538"/>
<path d="M19.6337 7.54682C20.5272 8.60336 21.207 9.84721 21.6025 11.2119C21.7515 11.7263 21.7515 12.2736 21.6025 12.788C20.3952 16.9538 16.5519 19.9999 11.997 19.9999C10.5793 19.9998 9.23044 19.704 8.00873 19.1718L11.2519 15.9287C11.4941 15.9745 11.7444 15.9999 11.9999 15.9999C14.209 15.9999 15.9999 14.209 15.9999 11.9999C15.9999 11.7442 15.9745 11.4943 15.9287 11.2519L19.6337 7.54682Z" fill="#363538"/>
<path d="M11.997 3.99994C13.9751 3.99994 15.8191 4.57526 17.371 5.56635L14.247 8.69037C13.6067 8.25465 12.8329 7.99997 11.9999 7.99994C9.791 8.00018 7.99994 9.79095 7.99994 11.9999C7.99995 12.833 8.2546 13.6066 8.69037 14.247L5.41303 17.5244C3.99562 16.2826 2.9312 14.647 2.39252 12.788C2.24355 12.2736 2.24357 11.7263 2.39252 11.2119C3.59961 7.0463 7.44241 4.00036 11.997 3.99994Z" fill="#363538"/>
<path d="M11.9999 9.49994C12.4164 9.49996 12.8089 9.60292 13.1542 9.78315L9.78315 13.1542C9.60287 12.8089 9.49995 12.4165 9.49994 11.9999C9.49994 10.6194 10.6194 9.50018 11.9999 9.49994Z" fill="#363538"/>
</svg>
