<svg width="24" height="24" viewBox="0 0 24 24" fill="none" xmlns="http://www.w3.org/2000/svg">
<path fill-rule="evenodd" clip-rule="evenodd" d="M2.39188 11.2116C2.24274 11.7262 2.24274 12.2738 2.39188 12.7884C3.59907 16.9544 7.44284 20 11.9979 20C16.5531 20 20.3968 16.9544 21.604 12.7884C21.7532 12.2738 21.7532 11.7262 21.604 11.2116C20.3968 7.0456 16.5531 4 11.9979 4C7.44284 4 3.59907 7.0456 2.39188 11.2116ZM12 16C14.2091 16 16 14.2091 16 12C16 9.79086 14.2091 8 12 8C9.79086 8 8 9.79086 8 12C8 14.2091 9.79086 16 12 16Z" fill="#363538"/>
</svg>
