<svg width="24" height="24" viewBox="0 0 24 24" fill="none" xmlns="http://www.w3.org/2000/svg">
<path fill-rule="evenodd" clip-rule="evenodd" d="M22 12C22 8.26154 22 6.3923 21.1962 5C20.6695 4.08788 19.9121 3.33046 19 2.80385C17.6077 2 15.7385 2 12 2C8.26154 2 6.3923 2 5 2.80385C4.08788 3.33046 3.33046 4.08788 2.80385 5C2 6.3923 2 8.26154 2 12C2 15.7385 2 17.6077 2.80385 19C3.33046 19.9121 4.08788 20.6695 5 21.1962C6.3923 22 8.26154 22 12 22C15.7385 22 17.6077 22 19 21.1962C19.9121 20.6695 20.6695 19.9121 21.1962 19C22 17.6077 22 15.7385 22 12ZM4.75 8C4.75 6.20507 6.20507 4.75 8 4.75H10C10.4142 4.75 10.75 4.41421 10.75 4C10.75 3.58579 10.4142 3.25 10 3.25H8C5.37665 3.25 3.25 5.37665 3.25 8V10C3.25 10.4142 3.58579 10.75 4 10.75C4.41421 10.75 4.75 10.4142 4.75 10V8ZM4 13.25C4.41421 13.25 4.75 13.5858 4.75 14V16C4.75 17.7949 6.20507 19.25 8 19.25H10C10.4142 19.25 10.75 19.5858 10.75 20C10.75 20.4142 10.4142 20.75 10 20.75H8C5.37665 20.75 3.25 18.6234 3.25 16V14C3.25 13.5858 3.58579 13.25 4 13.25ZM20 13.25C20.4142 13.25 20.75 13.5858 20.75 14V16C20.75 18.6234 18.6234 20.75 16 20.75H14C13.5858 20.75 13.25 20.4142 13.25 20C13.25 19.5858 13.5858 19.25 14 19.25H16C17.7949 19.25 19.25 17.7949 19.25 16V14C19.25 13.5858 19.5858 13.25 20 13.25ZM14 3.25C13.5858 3.25 13.25 3.58579 13.25 4C13.25 4.41421 13.5858 4.75 14 4.75H16C17.7949 4.75 19.25 6.20507 19.25 8V10C19.25 10.4142 19.5858 10.75 20 10.75C20.4142 10.75 20.75 10.4142 20.75 10V8C20.75 5.37665 18.6234 3.25 16 3.25H14ZM10.6638 15.6509C10.4744 15.2904 10.0305 15.1462 9.66459 15.3292C9.29411 15.5144 9.14394 15.9649 9.32918 16.3354L9.32999 16.337L9.33086 16.3388L9.33276 16.3425L9.33721 16.3511L9.34882 16.3727C9.35778 16.389 9.36922 16.409 9.38332 16.4322C9.41148 16.4786 9.45046 16.5381 9.50156 16.6062C9.60351 16.7422 9.75579 16.9151 9.96898 17.0857C10.4049 17.4344 11.0678 17.75 12 17.75C12.9322 17.75 13.5951 17.4344 14.031 17.0857C14.2442 16.9151 14.3965 16.7422 14.4984 16.6062C14.5495 16.5381 14.5885 16.4786 14.6167 16.4322C14.6308 16.409 14.6422 16.389 14.6512 16.3727L14.6628 16.3511L14.6672 16.3425L14.6691 16.3388L14.67 16.337C14.67 16.337 14.6708 16.3354 14.6691 16.3388L14.6708 16.3354C14.8561 15.9649 14.7059 15.5144 14.3354 15.3292C13.9695 15.1462 13.5256 15.2904 13.3362 15.6509L13.3345 15.6537C13.3294 15.662 13.3176 15.6806 13.2984 15.7063C13.2598 15.7578 13.1933 15.8349 13.094 15.9143C12.9049 16.0656 12.5678 16.25 12 16.25C11.4322 16.25 11.0951 16.0656 10.906 15.9143C10.8067 15.8349 10.7402 15.7578 10.7016 15.7063C10.6824 15.6806 10.6706 15.662 10.6655 15.6537L10.6638 15.6509ZM9 10C9.55228 10 10 9.55228 10 9C10 8.44772 9.55228 8 9 8C8.44772 8 8 8.44772 8 9C8 9.55228 8.44772 10 9 10ZM16 9C16 9.55228 15.5523 10 15 10C14.4477 10 14 9.55228 14 9C14 8.44772 14.4477 8 15 8C15.5523 8 16 8.44772 16 9ZM12.7115 11.2628C12.5805 10.8699 12.1558 10.6575 11.7628 10.7885C11.3699 10.9195 11.1575 11.3442 11.2885 11.7372L11.5179 12.4254C11.3541 12.563 11.25 12.7694 11.25 13C11.25 13.4142 11.5858 13.75 12 13.75H12.5C12.7411 13.75 12.9675 13.6341 13.1084 13.4385C13.2494 13.243 13.2877 12.9915 13.2115 12.7628L12.7115 11.2628Z" fill="#363538"/>
</svg>
