<svg width="24" height="24" viewBox="0 0 24 24" fill="none" xmlns="http://www.w3.org/2000/svg">
<path d="M10.1942 4.63129C10.4373 3.57582 10.9446 2.83204 11.9106 3.03281C12.4727 3.14965 12.9807 3.21013 13.4148 3.26182C14.7808 3.42447 15.4156 3.50006 14.708 4.97074C13.9373 6.57257 13.7351 7.15042 13.4815 7.87548C13.4283 8.0275 13.3727 8.18651 13.3093 8.36229C12.9385 9.3898 12.6223 9.84984 12.3347 9.96806C12.2967 9.98369 12.2591 9.997 12.2219 10.0081C13.7752 10.1216 15.0001 11.4178 15.0001 13C15.0001 13.6797 14.774 14.3067 14.393 14.8097C14.6976 14.7112 15.2234 14.7158 16.073 14.868C16.2571 14.901 16.4223 14.9323 16.5807 14.9623C17.3354 15.1052 17.9369 15.219 19.7095 15.3525C21.337 15.475 21.085 16.0626 20.5429 17.3269C20.3706 17.7287 20.169 18.1988 19.9891 18.7441C19.68 19.681 18.7822 19.7485 17.7466 19.4312C16.1342 18.9373 13.3976 16.6673 13.8605 15.3536C13.3492 15.7584 12.7028 16 12.0001 16C10.3432 16 9.00007 14.6569 9.00007 13C9.00007 11.4454 10.1825 10.167 11.697 10.0151C10.3886 9.63279 9.82376 6.24004 10.1942 4.63129Z" fill="#363538"/>
<path d="M3.57323 18.7441C3.88235 19.681 4.78014 19.7485 5.81573 19.4312C7.63072 18.8753 10.8701 16.0689 9.36728 14.9092C9.12109 14.7192 8.56459 14.6754 7.48935 14.868C7.30522 14.901 7.14007 14.9323 6.98168 14.9623C6.22695 15.1052 5.6254 15.219 3.85283 15.3525C2.22538 15.475 2.47732 16.0626 3.01946 17.3269C3.19174 17.7287 3.39333 18.1988 3.57323 18.7441Z" fill="#363538"/>
</svg>
