<svg width="24" height="24" viewBox="0 0 24 24" fill="none" xmlns="http://www.w3.org/2000/svg">
<path d="M6.68283 14.18C5.74839 16.6707 5.35403 19.1526 5.29975 21.0526C5.28792 21.4666 4.94268 21.7927 4.52864 21.7809C4.11459 21.769 3.78853 21.4238 3.80036 21.0097C3.8619 18.8558 4.32417 16.0453 5.43233 13.2545C5.44728 13.2168 5.46494 13.181 5.48501 13.1473C5.84132 12.2853 6.26048 11.3881 6.75007 10.4994C7.76095 8.66445 9.07208 6.86563 10.7501 5.48772C12.818 3.7896 15.4431 2.73075 18.7501 3.03133C21.3707 3.26953 20.2813 6.79978 17.5484 9.8899C17.2365 9.26982 16.6174 8.7802 15.7086 8.5369C14.635 8.24949 13.127 8.28898 11.0682 8.80368C10.6663 8.90414 10.422 9.31134 10.5225 9.71319C10.6229 10.115 11.0301 10.3594 11.432 10.2589C13.3731 9.7736 14.5959 9.79185 15.3207 9.98588C16.0153 10.1718 16.205 10.4972 16.2575 10.6933C16.2922 10.8229 16.3587 10.9354 16.4464 11.0247C13.7758 13.5308 10.0862 15.3683 6.68283 14.18Z" fill="#363538"/>
</svg>
