<svg width="24" height="24" viewBox="0 0 24 24" fill="none" xmlns="http://www.w3.org/2000/svg">
<path d="M4.26592 2.51109C4.51808 1.82964 5.48192 1.82964 5.73408 2.51109L6.08314 3.45441C6.16242 3.66866 6.33134 3.83758 6.54559 3.91686L7.48891 4.26592C8.17036 4.51808 8.17036 5.48192 7.48891 5.73408L6.54559 6.08314C6.33134 6.16242 6.16242 6.33134 6.08314 6.54559L5.73408 7.48891C5.48192 8.17037 4.51808 8.17036 4.26592 7.48891L3.91686 6.54559C3.83758 6.33134 3.66866 6.16242 3.45441 6.08314L2.51109 5.73408C1.82964 5.48192 1.82964 4.51808 2.51109 4.26592L3.45441 3.91686C3.66866 3.83758 3.83758 3.66866 3.91686 3.45441L4.26592 2.51109Z" fill="#363538"/>
<path d="M5.48536 13.1458C5.84158 12.2841 6.2606 11.3873 6.75 10.4989C7.76089 8.66396 9.07201 6.86514 10.75 5.48723C12.8179 3.78911 15.443 2.73026 18.75 3.03085C21.3707 3.26905 20.2812 6.79929 17.5483 9.88942C17.2364 9.26933 16.6174 8.77971 15.7085 8.53641C14.6349 8.24901 13.1269 8.28849 11.0681 8.80319C10.6663 8.90366 10.4219 9.31086 10.5224 9.7127C10.6229 10.1145 11.0301 10.3589 11.4319 10.2584C13.3731 9.77311 14.5958 9.79136 15.3206 9.98539C16.0153 10.1713 16.205 10.4967 16.2575 10.6928C16.2921 10.8224 16.3587 10.9349 16.4464 11.0242C13.7757 13.5303 10.086 15.3678 6.6826 14.1795C5.74814 16.6701 5.35378 19.1521 5.2995 21.0521C5.28767 21.4661 4.94243 21.7922 4.52838 21.7804C4.11434 21.7685 3.78828 21.4233 3.80011 21.0093C3.86165 18.8553 4.32392 16.0448 5.43208 13.254C5.44718 13.2159 5.46505 13.1798 5.48536 13.1458Z" fill="#363538"/>
</svg>
