<svg width="24" height="24" viewBox="0 0 24 24" fill="none" xmlns="http://www.w3.org/2000/svg">
<path d="M5 1.75C5.41421 1.75 5.75 2.08579 5.75 2.5V3.75H7C7.41421 3.75 7.75 4.08579 7.75 4.5C7.75 4.91421 7.41421 5.25 7 5.25H5.75V6.5C5.75 6.91421 5.41421 7.25 5 7.25C4.58579 7.25 4.25 6.91421 4.25 6.5V5.25H3C2.58579 5.25 2.25 4.91421 2.25 4.5C2.25 4.08579 2.58579 3.75 3 3.75H4.25V2.5C4.25 2.08579 4.58579 1.75 5 1.75Z" fill="#363538"/>
<path d="M5.4854 13.1457C5.84161 12.284 6.26062 11.3873 6.75 10.4989C7.76089 8.66396 9.07201 6.86514 10.75 5.48723C12.8179 3.78911 15.443 2.73026 18.75 3.03085C21.3707 3.26905 20.2812 6.79929 17.5483 9.88942C17.2364 9.26933 16.6174 8.77971 15.7085 8.53641C14.6349 8.24901 13.1269 8.28849 11.0681 8.80319C10.6663 8.90366 10.4219 9.31086 10.5224 9.7127C10.6229 10.1145 11.0301 10.3589 11.4319 10.2584C13.3731 9.77311 14.5958 9.79136 15.3206 9.98539C16.0153 10.1713 16.205 10.4967 16.2575 10.6928C16.2921 10.8224 16.3587 10.9349 16.4464 11.0242C13.7757 13.5303 10.086 15.3678 6.6826 14.1795C5.74814 16.6701 5.35379 19.1521 5.2995 21.0521C5.28767 21.4661 4.94244 21.7922 4.52839 21.7803C4.11435 21.7685 3.78829 21.4233 3.80012 21.0092C3.86166 18.8553 4.32393 16.0448 5.43208 13.2539C5.4472 13.2159 5.46508 13.1797 5.4854 13.1457Z" fill="#363538"/>
</svg>
