<svg width="24" height="24" viewBox="0 0 24 24" fill="none" xmlns="http://www.w3.org/2000/svg">
<path fill-rule="evenodd" clip-rule="evenodd" d="M9.06879 9.20613C7.48323 9.19949 6.19995 7.91211 6.19995 6.325C6.19995 4.73378 7.48989 3.44385 9.08111 3.44385H14.9931C16.5843 3.44385 17.8743 4.73378 17.8743 6.325C17.8743 7.91211 16.591 9.19949 15.0054 9.20613C16.591 9.21277 17.8743 10.5001 17.8743 12.0873C17.8743 13.6785 16.5843 14.9684 14.9931 14.9684H14.9183C13.3284 14.9684 12.0393 13.6807 12.0371 12.0914V17.8121C12.0371 19.424 10.7116 20.7307 9.0997 20.7307C7.50848 20.7307 6.19995 19.4407 6.19995 17.8495C6.19995 16.2625 7.48315 14.9751 9.06863 14.9684C7.48315 14.9617 6.19995 13.6743 6.19995 12.0873C6.19995 10.5001 7.48323 9.21277 9.06879 9.20613ZM12.0371 12.0832C12.0393 10.4998 13.3187 9.21582 14.9003 9.20616H12.0371V12.0832Z" fill="#363538"/>
</svg>
