<svg width="24" height="24" viewBox="0 0 24 24" fill="none" xmlns="http://www.w3.org/2000/svg">
<path d="M5.1 3H7.03414C7.64718 3 8.22961 3.25513 8.62858 3.69842L9.49444 4.66049C9.82068 5.02297 10 5.48465 10 5.96207V9C10 10.1046 9.0598 11 7.9 11H5.1C3.9402 11 3 10.1046 3 9V5C3 3.89543 3.9402 3 5.1 3Z" fill="#363538"/>
<path d="M20.5 15.6V17.5341C20.5 18.1472 20.2449 18.7296 19.8016 19.1286L18.8395 19.9944C18.477 20.3207 18.0154 20.5 17.5379 20.5H14.5C13.3954 20.5 12.5 19.5598 12.5 18.4V15.6C12.5 14.4402 13.3954 13.5 14.5 13.5H18.5C19.6046 13.5 20.5 14.4402 20.5 15.6Z" fill="#363538"/>
<path d="M5.5 16.0607L5.28033 16.2803C4.98744 16.5732 4.51256 16.5732 4.21967 16.2803C3.92678 15.9874 3.92678 15.5126 4.21967 15.2197L5.71821 13.7211C5.85404 13.5846 6.04215 13.5 6.25 13.5C6.44807 13.5 6.6282 13.5768 6.76227 13.7022C6.76838 13.7079 6.7744 13.7137 6.78033 13.7197L8.28033 15.2197C8.57322 15.5126 8.57322 15.9874 8.28033 16.2803C7.98744 16.5732 7.51256 16.5732 7.21967 16.2803L7 16.0607V17.25C7 17.9403 7.55964 18.5 8.25 18.5H9.25C9.66421 18.5 10 18.8357 10 19.25C10 19.6642 9.66421 20 9.25 20H8.25C6.73122 20 5.5 18.7687 5.5 17.25V16.0607Z" fill="#363538"/>
<path d="M16.25 11C16.4579 11 16.646 10.9154 16.7818 10.7788Z" fill="#363538"/>
<path d="M16.7818 10.7788L18.2803 9.28028C18.5732 8.98739 18.5732 8.51252 18.2803 8.21962C17.9874 7.92673 17.5126 7.92673 17.2197 8.21962L17 8.43929V7.25C17 5.73122 15.7688 4.5 14.25 4.5H13.25C12.8358 4.5 12.5 4.83579 12.5 5.25C12.5 5.66421 12.8358 6 13.25 6H14.25C14.9404 6 15.5 6.55964 15.5 7.25V8.43929L15.2803 8.21962C14.9874 7.92673 14.5126 7.92673 14.2197 8.21962C13.9268 8.51251 13.9268 8.98739 14.2197 9.28028L15.7197 10.7803C15.7263 10.7869 15.733 10.7934 15.7398 10.7997C15.8737 10.924 16.053 11 16.25 11" fill="#363538"/>
</svg>
