<svg width="24" height="24" viewBox="0 0 24 24" fill="none" xmlns="http://www.w3.org/2000/svg">
<path d="M5.1 3H7.03414C7.64718 3 8.22961 3.25513 8.62858 3.69842L9.49444 4.66049C9.82068 5.02297 10 5.48465 10 5.96207V9C10 10.1046 9.0598 11 7.9 11H5.1C3.9402 11 3 10.1046 3 9V5C3 3.89543 3.9402 3 5.1 3Z" fill="#363538"/>
<path d="M15.1 13H17.0341C17.6472 13 18.2296 13.2551 18.6286 13.6984L19.4944 14.6605C19.8207 15.023 20 15.4846 20 15.9621V19C20 20.1046 19.0598 21 17.9 21H15.1C13.9402 21 13 20.1046 13 19V15C13 13.8954 13.9402 13 15.1 13Z" fill="#363538"/>
<path d="M14.8107 6.25L15.0303 6.03033C15.3232 5.73744 15.3232 5.26256 15.0303 4.96967C14.7374 4.67678 14.2626 4.67678 13.9697 4.96967L12.4711 6.46821C12.3346 6.60404 12.25 6.79215 12.25 7C12.25 7.19642 12.3255 7.37521 12.4491 7.50892C12.4558 7.51618 12.4627 7.52332 12.4697 7.53033L13.9697 9.03033C14.2626 9.32322 14.7374 9.32322 15.0303 9.03033C15.3232 8.73744 15.3232 8.26256 15.0303 7.96967L14.8107 7.75H16C16.6903 7.75 17.25 8.30964 17.25 9V10C17.25 10.4142 17.5857 10.75 18 10.75C18.4142 10.75 18.75 10.4142 18.75 10V9C18.75 7.48122 17.5187 6.25 16 6.25H14.8107Z" fill="#363538"/>
<path d="M8.18934 16.25H7.00005C6.30969 16.25 5.75005 15.6904 5.75005 15V14C5.75005 13.5858 5.41426 13.25 5.00005 13.25C4.58583 13.25 4.25005 13.5858 4.25005 14V15C4.25005 16.5188 5.48126 17.75 7.00005 17.75H8.18934L7.96967 17.9697C7.67678 18.2626 7.67678 18.7374 7.96967 19.0303C8.26256 19.3232 8.73744 19.3232 9.03033 19.0303L10.5303 17.5303C10.671 17.3897 10.75 17.1989 10.75 17C10.75 16.8103 10.6781 16.6279 10.5494 16.4894C10.5432 16.4827 10.5368 16.4761 10.5303 16.4697L9.03033 14.9697C8.73744 14.6768 8.26256 14.6768 7.96967 14.9697C7.67678 15.2626 7.67678 15.7374 7.96967 16.0303L8.18934 16.25Z" fill="#363538"/>
</svg>
