<svg width="24" height="24" viewBox="0 0 24 24" fill="none" xmlns="http://www.w3.org/2000/svg">
<path d="M7.90695 8.74428C7.57591 10.0411 6.39994 11 5 11C3.34315 11 2 9.65685 2 8C2 6.34315 3.34315 5 5 5C6.39994 5 7.57591 5.9589 7.90695 7.25572C7.93744 7.25194 7.96849 7.25 8 7.25L21 7.25C21.4142 7.25 21.75 7.58579 21.75 8C21.75 8.41421 21.4142 8.75 21 8.75L8 8.75C7.96849 8.75 7.93744 8.74806 7.90695 8.74428Z" fill="#363538"/>
<path d="M19 19C20.6569 19 22 17.6569 22 16C22 14.3431 20.6569 13 19 13C17.6001 13 16.4241 13.9589 16.093 15.2557C16.0626 15.2519 16.0315 15.25 16 15.25L3 15.25C2.58579 15.25 2.25 15.5858 2.25 16C2.25 16.4142 2.58579 16.75 3 16.75L16 16.75C16.0315 16.75 16.0626 16.7481 16.093 16.7443C16.4241 18.0411 17.6001 19 19 19Z" fill="#363538"/>
</svg>
