<svg width="24" height="24" viewBox="0 0 24 24" fill="none" xmlns="http://www.w3.org/2000/svg">
<path d="M5.85986 5.73693C5.56645 6.4768 4.84432 7 4 7C2.89543 7 2 6.10457 2 5C2 3.89543 2.89543 3 4 3C4.84432 3 5.56645 3.5232 5.85986 4.26307C5.90526 4.25449 5.9521 4.25 6 4.25L21 4.25C21.4142 4.25 21.75 4.58579 21.75 5C21.75 5.41421 21.4142 5.75 21 5.75L6 5.75C5.9521 5.75 5.90526 5.74551 5.85986 5.73693Z" fill="#363538"/>
<path d="M2.25 12C2.25 11.5858 2.58579 11.25 3 11.25L18 11.25C18.0479 11.25 18.0947 11.2545 18.1401 11.2631C18.4335 10.5232 19.1557 10 20 10C21.1046 10 22 10.8954 22 12C22 13.1046 21.1046 14 20 14C19.1557 14 18.4335 13.4768 18.1401 12.7369C18.0947 12.7455 18.0479 12.75 18 12.75L3 12.75C2.58579 12.75 2.25 12.4142 2.25 12Z" fill="#363538"/>
<path d="M3 18.25C2.58579 18.25 2.25 18.5858 2.25 19C2.25 19.4142 2.58579 19.75 3 19.75H10C10.0479 19.75 10.0947 19.7455 10.1401 19.7369C10.4336 20.4768 11.1557 21 12 21C12.8443 21 13.5664 20.4768 13.8599 19.7369C13.9053 19.7455 13.9521 19.75 14 19.75H21C21.4142 19.75 21.75 19.4142 21.75 19C21.75 18.5858 21.4142 18.25 21 18.25H14C13.9521 18.25 13.9053 18.2545 13.8599 18.2631C13.5664 17.5232 12.8443 17 12 17C11.1557 17 10.4336 17.5232 10.1401 18.2631C10.0947 18.2545 10.0479 18.25 10 18.25H3Z" fill="#363538"/>
</svg>
