<svg width="24" height="24" viewBox="0 0 24 24" fill="none" xmlns="http://www.w3.org/2000/svg">
<path fill-rule="evenodd" clip-rule="evenodd" d="M12 3.75C7.44365 3.75 3.75 7.44365 3.75 12V17C3.75 17.4142 3.41421 17.75 3 17.75C2.58579 17.75 2.25 17.4142 2.25 17V12C2.25 6.61522 6.61522 2.25 12 2.25C17.3848 2.25 21.75 6.61522 21.75 12V21C21.75 21.4142 21.4142 21.75 21 21.75C20.5858 21.75 20.25 21.4142 20.25 21V12C20.25 7.44365 16.5563 3.75 12 3.75Z" fill="#363538"/>
<path fill-rule="evenodd" clip-rule="evenodd" d="M10 8.25C8.20507 8.25 6.75 9.70507 6.75 11.5V14C6.75 14.4142 6.41421 14.75 6 14.75C5.58579 14.75 5.25 14.4142 5.25 14V11.5C5.25 8.87665 7.37665 6.75 10 6.75C10.4142 6.75 10.75 7.08579 10.75 7.5C10.75 7.91421 10.4142 8.25 10 8.25Z" fill="#363538"/>
<path fill-rule="evenodd" clip-rule="evenodd" d="M11.25 6C11.25 5.58579 11.5858 5.25 12 5.25C15.7279 5.25 18.75 8.27208 18.75 12V12.5C18.75 12.9142 18.4142 13.25 18 13.25C17.5858 13.25 17.25 12.9142 17.25 12.5V12C17.25 9.10051 14.8995 6.75 12 6.75C11.5858 6.75 11.25 6.41421 11.25 6Z" fill="#363538"/>
<path fill-rule="evenodd" clip-rule="evenodd" d="M11.2621 9.86584C11.3362 9.4583 11.7266 9.188 12.1342 9.2621C13.199 9.4557 14.6473 10.122 15.484 11.5448C16.3431 13.0058 16.4472 15.0708 15.181 17.8143C15.0074 18.1904 14.5618 18.3545 14.1857 18.181C13.8096 18.0074 13.6455 17.5618 13.819 17.1857C14.9528 14.7292 14.7235 13.2108 14.191 12.3052C13.636 11.3613 12.6344 10.8776 11.8658 10.7379C11.4583 10.6638 11.188 10.2734 11.2621 9.86584Z" fill="#363538"/>
<path fill-rule="evenodd" clip-rule="evenodd" d="M12 14.25C12.4142 14.25 12.75 14.5858 12.75 15V18C12.75 18.4142 12.4142 18.75 12 18.75C11.5858 18.75 11.25 18.4142 11.25 18V15C11.25 14.5858 11.5858 14.25 12 14.25Z" fill="#363538"/>
<path fill-rule="evenodd" clip-rule="evenodd" d="M18 15.25C18.4142 15.25 18.75 15.5858 18.75 16V19C18.75 19.4142 18.4142 19.75 18 19.75C17.5858 19.75 17.25 19.4142 17.25 19V16C17.25 15.5858 17.5858 15.25 18 15.25Z" fill="#363538"/>
<path fill-rule="evenodd" clip-rule="evenodd" d="M6 16.25C6.41421 16.25 6.75 16.5858 6.75 17V20C6.75 20.4142 6.41421 20.75 6 20.75C5.58579 20.75 5.25 20.4142 5.25 20V17C5.25 16.5858 5.58579 16.25 6 16.25Z" fill="#363538"/>
<path fill-rule="evenodd" clip-rule="evenodd" d="M9.2325 15.1788C9.24059 15.2856 9.25 15.4098 9.25 15.5C9.25 15.9142 8.91421 16.25 8.5 16.25C8.08579 16.25 7.75 15.9142 7.75 15.5L7.74999 15.4984L7.7499 15.4941L7.74934 15.4786C7.74875 15.4651 7.7478 15.448 7.74641 15.4263C7.74374 15.3847 7.74004 15.3355 7.73543 15.2742L7.73453 15.2623C7.72474 15.1321 7.71223 14.9638 7.70386 14.7755C7.6873 14.4028 7.6854 13.925 7.75872 13.4485C7.8305 12.9819 7.98528 12.4408 8.33931 12.0042C8.7215 11.5328 9.28262 11.25 10 11.25C10.4142 11.25 10.75 11.5858 10.75 12C10.75 12.4142 10.4142 12.75 10 12.75C9.71738 12.75 9.591 12.8422 9.50444 12.9489C9.38972 13.0904 9.2945 13.3306 9.24128 13.6765C9.1896 14.0125 9.1877 14.3785 9.20239 14.7089C9.20964 14.8721 9.22057 15.0203 9.23031 15.1498C9.23102 15.1593 9.23175 15.169 9.2325 15.1788Z" fill="#363538"/>
</svg>
