<svg width="24" height="24" viewBox="0 0 24 24" fill="none" xmlns="http://www.w3.org/2000/svg">
<path fill-rule="evenodd" clip-rule="evenodd" d="M12 2.25C13.5055 2.25001 14.6789 2.9377 15.5605 3.89941C16.428 4.84579 17.0322 6.07404 17.4551 7.24512C17.8807 8.42389 18.14 9.59418 18.293 10.4639C18.3697 10.9001 18.4205 11.2645 18.4521 11.5215C18.468 11.6501 18.4791 11.7525 18.4863 11.8232C18.4899 11.8585 18.4924 11.886 18.4941 11.9053C18.495 11.9148 18.4956 11.9223 18.4961 11.9277C18.4963 11.9305 18.4971 11.9346 18.4971 11.9346V11.9375L18.499 11.9551L18.5 11.9736L18.5283 12.7842L18.8887 13.5342L19.0879 13.9824C19.5242 15.0396 19.75 16.1735 19.75 17.3203V20H18.25V17.3203C18.25 16.8723 18.2069 16.4269 18.125 15.9893C17.2391 18.1876 15.0882 19.7498 12.5596 19.75H11.4404C8.91269 19.7498 6.76057 18.1894 5.87402 15.9922C5.79259 16.4289 5.75002 16.8733 5.75 17.3203V20H4.25V17.3203C4.25004 16.0097 4.54421 14.7157 5.11133 13.5342L5.4707 12.7842L5.5 11.9736L5.50098 11.9551L5.50293 11.9375V11.9346C5.50293 11.9346 5.50367 11.9304 5.50391 11.9277C5.50438 11.9223 5.50498 11.9148 5.50586 11.9053C5.50764 11.886 5.51008 11.8585 5.51367 11.8232C5.52088 11.7525 5.53204 11.6501 5.54785 11.5215C5.57947 11.2645 5.63028 10.9001 5.70703 10.4639C5.86003 9.59418 6.11925 8.42389 6.54492 7.24512C6.96784 6.07403 7.57195 4.84578 8.43945 3.89941C9.32106 2.9377 10.4944 2.25 12 2.25ZM14.124 15.2236C12.8703 14.5968 11.4086 14.5579 10.1289 15.1064L9.87598 15.2236L9.66504 15.3291C9.29469 15.5143 9.14416 15.9646 9.3291 16.335C9.51428 16.7053 9.96455 16.8558 10.335 16.6709L10.5469 16.5654C11.4617 16.1081 12.5383 16.1081 13.4531 16.5654L13.665 16.6709L13.7354 16.7012C14.0907 16.8358 14.4973 16.6822 14.6709 16.335C14.8442 15.9878 14.7232 15.5706 14.4023 15.3672L14.335 15.3291L14.124 15.2236Z" fill="#363538"/>
</svg>
