<svg width="24" height="24" viewBox="0 0 24 24" fill="none" xmlns="http://www.w3.org/2000/svg">
<path fill-rule="evenodd" clip-rule="evenodd" d="M7.97183 8.90287C8.47601 10.7013 8.58306 11.0831 9.49991 11.9999C11.4999 13.9999 15.2473 10.4199 13.6101 8.41992C11.2476 5.41992 15.2473 2.41992 15.2473 2.41992C15.2473 2.41992 15.7478 5.91992 18.7699 8.41992C21.2478 11.9199 21.4688 18.3749 15.2473 20.9199C6.69153 24.4199 -1.25229 13.4199 7.24771 6.41992C7.57162 7.47533 7.79591 8.27534 7.97183 8.90287ZM10.1059 16.3637C10.767 16.7631 11.913 16.9389 12.9708 15.405C14.293 13.4877 14.7337 19 11.8689 19C10.3262 19 9.73857 17.3223 10.1059 16.3637Z" fill="#363538"/>
</svg>
