<svg width="24" height="24" viewBox="0 0 24 24" fill="none" xmlns="http://www.w3.org/2000/svg">
<path fill-rule="evenodd" clip-rule="evenodd" d="M16 6H18.4585C19.925 6 21.1766 7.06024 21.4177 8.5068C21.7225 10.3354 20.3123 12 18.4585 12H5.54127C3.68745 12 2.27732 10.3354 2.58209 8.5068C2.82318 7.06024 4.07475 6 5.54127 6H8C7.25 6 7.25 5.9995 7.25 5.99899L7.25 5.9979L7.25001 5.99552L7.25006 5.98989L7.2503 5.97527C7.25054 5.96405 7.25097 5.9499 7.25172 5.93301C7.25322 5.89925 7.25601 5.85439 7.26119 5.79999C7.27153 5.69144 7.29152 5.54331 7.33036 5.36855C7.4076 5.02096 7.56251 4.55416 7.87596 4.08397C8.53207 3.09982 9.78152 2.25 12 2.25C14.2185 2.25 15.4679 3.09982 16.124 4.08397C16.4375 4.55416 16.5924 5.02096 16.6696 5.36855C16.7085 5.54331 16.7285 5.69144 16.7388 5.79999C16.744 5.85439 16.7468 5.89925 16.7483 5.93301C16.749 5.9499 16.7495 5.96405 16.7497 5.97527L16.7499 5.98989L16.75 5.99552L16.75 5.9979L16.75 5.99899C16.75 5.9995 16.75 6 16 6ZM15.2498 5.99961C15.2493 5.98942 15.2482 5.96983 15.2456 5.9422C15.2403 5.88668 15.229 5.80044 15.2054 5.69395C15.1576 5.47904 15.0625 5.19584 14.876 4.91603C14.5321 4.40018 13.7815 3.75 12 3.75C10.2185 3.75 9.46794 4.40018 9.12404 4.91603C8.9375 5.19584 8.8424 5.47904 8.79464 5.69395C8.77098 5.80044 8.75972 5.88668 8.75443 5.9422C8.7518 5.96983 8.75069 5.98942 8.75024 5.99961H15.2498Z" fill="#363538"/>
<path fill-rule="evenodd" clip-rule="evenodd" d="M4.14397 15.0073L4.50943 17.5656C4.79095 19.5362 6.47863 20.9999 8.46923 20.9999H15.5309C17.5215 20.9999 19.2092 19.5362 19.4907 17.5656L19.8561 15.0073C19.9352 14.4538 19.545 13.943 18.9902 13.8736L12.4962 13.0619C12.1667 13.0207 11.8334 13.0207 11.5039 13.0619L5.00989 13.8736C4.45506 13.943 4.0649 14.4538 4.14397 15.0073ZM12.75 14.4999C12.75 14.0857 12.4142 13.7499 12 13.7499C11.5858 13.7499 11.25 14.0857 11.25 14.4999V15.7499H10C9.58579 15.7499 9.25 16.0857 9.25 16.4999C9.25 16.9141 9.58579 17.2499 10 17.2499H11.25V18.4999C11.25 18.9141 11.5858 19.2499 12 19.2499C12.4142 19.2499 12.75 18.9141 12.75 18.4999V17.2499H14C14.4142 17.2499 14.75 16.9141 14.75 16.4999C14.75 16.0857 14.4142 15.7499 14 15.7499H12.75V14.4999Z" fill="#363538"/>
</svg>
