<svg width="24" height="24" viewBox="0 0 24 24" fill="none" xmlns="http://www.w3.org/2000/svg">
<path d="M11.4756 13.75C12.3479 13.7781 13.2928 14.3341 14.1465 15.0156C13.2928 15.7043 12.358 16.2499 11.5 16.25C10.4815 16.2501 9.93223 15.8557 9.62695 15.5068C9.46576 15.3226 9.36157 15.1369 9.29883 15L9.29688 14.9951C9.29893 14.9904 9.30058 14.9853 9.30273 14.9805C9.36644 14.8368 9.47118 14.6453 9.63184 14.458C9.93404 14.1058 10.472 13.7178 11.4756 13.75Z" fill="#363538"/>
<path fill-rule="evenodd" clip-rule="evenodd" d="M18.709 8.64355C19.5247 9.89722 20 11.3928 20 13C20 17.4183 16.4183 21 12 21C7.58172 21 4 17.4183 4 13C4 12.3087 4.08806 11.6379 4.25293 10.998C4.42158 10.9075 4.6305 10.8013 4.89062 10.6836C5.58962 10.3672 6.74423 9.93586 7.90332 9.68262C8.48219 9.55615 9.04219 9.47827 9.53516 9.47461C10.0365 9.47092 10.4129 9.54483 10.665 9.6709C11.8131 10.2448 13.455 10.5068 14.9688 10.3721C16.3582 10.2484 17.8536 9.76602 18.709 8.64355ZM11.5244 12.251C10.0286 12.2029 9.066 12.8137 8.49316 13.4814C8.21647 13.804 8.03983 14.1282 7.93164 14.3721C7.87726 14.4947 7.83894 14.5999 7.81348 14.6777C7.80072 14.7167 7.79115 14.7496 7.78418 14.7744C7.78071 14.7868 7.77759 14.7972 7.77539 14.8057L7.77148 14.8213V14.8232L7.77051 14.8242C7.74233 14.9416 7.74318 15.0655 7.77246 15.1826L7.77344 15.1855L7.77441 15.1904C7.77523 15.1936 7.77625 15.1971 7.77734 15.2012C7.77961 15.2096 7.78261 15.2203 7.78613 15.2324C7.79327 15.2569 7.80346 15.289 7.81641 15.3271C7.84223 15.4033 7.88076 15.5054 7.93555 15.625C8.04467 15.8631 8.22178 16.1784 8.49805 16.4941C9.06779 17.1453 10.0187 17.7501 11.5 17.75C12.9849 17.7499 14.3503 16.8064 15.2842 16.0215C15.3723 16.1046 15.4555 16.1826 15.5332 16.2549C15.6637 16.3762 15.8138 16.5129 15.9434 16.6025C15.983 16.63 16.143 16.7435 16.3574 16.7734C16.4904 16.792 16.7278 16.7884 16.9473 16.6182C17.159 16.4537 17.2214 16.2363 17.2402 16.1201C17.2825 15.8583 17.2819 15.649 17.2725 15.4639C17.2625 15.2674 17.25 15.1712 17.25 15C17.25 14.8289 17.2625 14.7327 17.2725 14.5361C17.2795 14.3973 17.2818 14.2452 17.2646 14.0674L17.2402 13.8809L17.2168 13.7764C17.1809 13.657 17.1036 13.5003 16.9385 13.376C16.7112 13.2049 16.4688 13.209 16.3389 13.2305C16.1276 13.2654 15.971 13.3816 15.9326 13.4092C15.8054 13.5005 15.6575 13.6397 15.5273 13.7637C15.4496 13.8377 15.365 13.9166 15.2764 14.002C14.3428 13.2271 12.9896 12.2982 11.5244 12.251Z" fill="#363538"/>
<path d="M17.6582 4C18.0376 4 18.2791 4.40608 18.0977 4.73926L17 6.75488C17.2561 6.96015 17.4977 7.18229 17.7266 7.41699C17.6895 7.47568 17.6508 7.53714 17.6104 7.60156C17.1708 8.30229 16.1578 8.76025 14.8359 8.87793C13.5408 8.99319 12.1869 8.75508 11.335 8.3291C10.7872 8.05536 10.1451 7.97 9.52344 7.97461C8.89321 7.97931 8.22449 8.07665 7.58301 8.2168C6.68381 8.41326 5.79798 8.7032 5.08203 8.97949C5.57999 8.12452 6.23212 7.37046 7 6.75488L5.90234 4.73926C5.72093 4.40608 5.96243 4 6.3418 4H17.6582Z" fill="#363538"/>
</svg>
