<svg width="24" height="24" viewBox="0 0 24 24" fill="none" xmlns="http://www.w3.org/2000/svg">
<path fill-rule="evenodd" clip-rule="evenodd" d="M18.6964 10.4685C18.8357 10.607 18.9717 10.7456 19.1043 10.8834L20.8745 8.58626C21.0699 8.29107 21.4451 8.17264 21.7745 8.30221C22.104 8.43181 22.298 8.7742 22.2398 9.12346L21.7604 12.0002L22.2398 14.8769C22.298 15.2261 22.104 15.5685 21.7745 15.6981C21.445 15.8277 21.0695 15.7088 20.8742 15.4136L20.8721 15.4104L20.8622 15.3957C20.8532 15.3822 20.8391 15.3614 20.8202 15.3338C20.7825 15.2786 20.7255 15.1963 20.6505 15.0907C20.5005 14.8795 20.2786 14.5756 19.9949 14.2099C19.7434 13.8857 19.4442 13.5143 19.1043 13.1167C18.9716 13.2546 18.8356 13.3931 18.6963 13.5318C17.6646 14.5582 16.4384 15.6035 15.0974 16.3957C13.7593 17.1863 12.2644 17.75 10.7095 17.75C8.89927 17.75 7.19508 17.0996 5.7685 16.2642C4.33891 15.4269 3.14327 14.3779 2.33404 13.5125C2.10285 13.2653 2.06591 12.8938 2.24388 12.6059L2.61829 12.0002L2.24387 11.3944C2.06592 11.1065 2.10286 10.735 2.33403 10.4878C3.14325 9.62243 4.33888 8.57328 5.76848 7.73596C7.19504 6.90041 8.89925 6.24998 10.7095 6.25C12.2645 6.25002 13.7595 6.81376 15.0976 7.60433C16.4386 8.39667 17.6649 9.44201 18.6964 10.4685ZM6 12C6.55228 12 7 11.5523 7 11C7 10.4477 6.55228 10 6 10C5.44772 10 5 10.4477 5 11C5 11.5523 5.44772 12 6 12Z" fill="#363538"/>
</svg>
