<svg width="24" height="24" viewBox="0 0 24 24" fill="none" xmlns="http://www.w3.org/2000/svg">
<path d="M17.7822 9.39861C18.3467 9.70259 18.6269 10.4231 18.3095 11.0588L13.6181 20.4406C13.0282 21.6203 11.2501 21.2009 11.2499 19.882V15.9318L17.7822 9.39861Z" fill="#363538"/>
<path d="M10.4404 3.4533C11.0809 2.40661 12.7498 2.84064 12.7499 4.11833V9.25017H13.6894L18.4697 4.4699C18.7626 4.177 19.2373 4.177 19.5302 4.4699C19.823 4.7628 19.8231 5.23758 19.5302 5.53044L5.5302 19.5304C5.23734 19.8233 4.76255 19.8232 4.46966 19.5304C4.17677 19.2376 4.17679 18.7628 4.46966 18.4699L8.18938 14.7502H6.8095C5.88028 14.7502 5.2758 13.7717 5.69134 12.9406L10.3818 3.55876L10.4404 3.4533Z" fill="#363538"/>
</svg>
