<svg width="24" height="24" viewBox="0 0 24 24" fill="none" xmlns="http://www.w3.org/2000/svg">
<path d="M9.58492 4.52476C10.6449 3.70604 11.5327 3.35678 12.9104 4.46573C12.1998 4.87342 11.5168 5.49104 10.9835 6.31237C10.6198 5.68111 10.2314 5.17732 9.58492 4.52476Z" fill="#363538"/>
<path d="M7.4999 9.00009C7.4999 6.88144 7.15355 5.58248 6.7666 4.83823C6.89157 4.86841 7.02803 4.90653 7.17368 4.95357C7.65186 5.10798 8.14126 5.33015 8.51962 5.58075C9.39571 6.46455 9.68135 6.96557 10.3218 8.32062C10.9529 9.65566 11.115 10.8746 11.2455 13.4321C9.42323 13.1088 7.4999 11.6314 7.4999 9.00009Z" fill="#363538"/>
<path d="M16.3274 10.0001C15.9931 12.006 14.126 12.9873 12.7434 13.3529C12.6204 10.9394 12.4653 9.48433 11.8092 7.96925C12.2563 6.8427 13.0275 6.09315 13.7781 5.70033C13.934 5.65299 14.0743 5.59873 14.1963 5.55011L14.2844 5.51483C14.3937 5.47094 14.4868 5.43353 14.5901 5.39771C14.8251 5.31622 15.0955 5.2501 15.4999 5.2501C15.8696 5.2501 16.2097 5.15854 16.4857 5.06377C16.6473 5.00827 16.8429 4.92965 17.0008 4.86616C17.0809 4.83399 17.1512 4.8057 17.2026 4.78627C17.2778 4.75786 17.3375 4.73772 17.3845 4.72358C16.6073 5.56595 16.5767 6.42454 16.5335 7.63802C16.5098 8.30101 16.4824 9.06995 16.3274 10.0001Z" fill="#363538"/>
<path d="M12 14.2502C11.9231 14.2502 11.8454 14.2482 11.7672 14.2444C11.7356 14.3884 11.7461 14.5433 11.8065 14.69C11.9671 15.08 12.0852 15.5373 12.0892 16.0065C12.0926 16.3931 12.0188 16.7854 11.8291 17.1647C10.942 18.939 11.0576 20.5447 11.2884 21.2373C11.4194 21.6302 11.8442 21.8426 12.2371 21.7116C12.6301 21.5806 12.8425 21.1559 12.7115 20.7629C12.609 20.4555 12.4579 19.2612 13.1708 17.8355C13.3794 17.4182 13.4992 16.9951 13.5536 16.5827C14.0612 16.4656 14.6468 16.412 15.1646 16.6709C15.535 16.8562 15.9855 16.706 16.1708 16.3355C16.356 15.965 16.2059 15.5145 15.8354 15.3293C15.0061 14.9146 14.1398 14.9458 13.4862 15.0634C13.4138 14.7191 13.3095 14.4005 13.1935 14.1187C13.1792 14.084 13.1625 14.0509 13.1439 14.0195C12.7587 14.1336 12.3985 14.2062 12.093 14.2444C12.0622 14.2482 12.0311 14.2502 12 14.2502Z" fill="#363538"/>
</svg>
