<svg width="24" height="24" viewBox="0 0 24 24" fill="none" xmlns="http://www.w3.org/2000/svg">
<path fill-rule="evenodd" clip-rule="evenodd" d="M11.5 4H7C4.79086 4 3 5.79086 3 8V16C3 18.2091 4.79086 20 7 20H17C19.2091 20 21 18.2091 21 16V11C21 8.79086 19.2091 7 17 7H14.5C13.6716 7 13 6.32843 13 5.5C13 4.67157 12.3284 4 11.5 4ZM14.0061 8.93557C14.3178 8.66281 14.7917 8.69439 15.0644 9.00612L16.9966 11.2143L15.0644 13.4225C14.7917 13.7342 14.3178 13.7658 14.0061 13.493C13.6944 13.2202 13.6628 12.7464 13.9356 12.4347L14.3472 11.9643H11C10.5858 11.9643 10.25 11.6285 10.25 11.2143C10.25 10.8001 10.5858 10.4643 11 10.4643H14.3472L13.9356 9.99388C13.6628 9.68215 13.6944 9.20833 14.0061 8.93557ZM9.06443 14.5652C9.33719 14.2534 9.30561 13.7796 8.99388 13.5069C8.68215 13.2341 8.20833 13.2657 7.93557 13.5774L6.00342 15.7856L7.93557 17.9937C8.20833 18.3055 8.68215 18.3371 8.99388 18.0643C9.30561 17.7915 9.33719 17.3177 9.06443 17.006L8.65282 16.5356H12C12.4142 16.5356 12.75 16.1998 12.75 15.7856C12.75 15.3714 12.4142 15.0356 12 15.0356H8.65283L9.06443 14.5652Z" fill="#363538"/>
</svg>
