<svg width="24" height="24" viewBox="0 0 24 24" fill="none" xmlns="http://www.w3.org/2000/svg">
<path fill-rule="evenodd" clip-rule="evenodd" d="M7.25773 4H11.4999C12.3284 4 12.9999 4.67157 12.9999 5.5C12.9999 6.32843 13.6715 7 14.4999 7H16.8463C19.0869 7 20.8532 8.90743 20.6814 11.1414L20.284 16.3068C20.1237 18.3908 18.3859 20 16.2958 20H7.75773C5.64547 20 3.89728 18.3577 3.76552 16.2495L3.26552 8.24951C3.12159 5.94672 4.95044 4 7.25773 4ZM12.7499 10C12.7499 9.58579 12.4141 9.25 11.9999 9.25C11.5857 9.25 11.2499 9.58579 11.2499 10V14.1893L10.5302 13.4697C10.2373 13.1768 9.76244 13.1768 9.46955 13.4697C9.17665 13.7626 9.17665 14.2374 9.46955 14.5303L11.4695 16.5303C11.7624 16.8232 12.2373 16.8232 12.5302 16.5303L14.5302 14.5303C14.8231 14.2374 14.8231 13.7626 14.5302 13.4697C14.2373 13.1768 13.7624 13.1768 13.4695 13.4697L12.7499 14.1893V10Z" fill="#363538"/>
</svg>
