<svg width="24" height="24" viewBox="0 0 24 24" fill="none" xmlns="http://www.w3.org/2000/svg">
<path d="M7.75 4H7.25797C4.95069 4 3.12184 5.94672 3.26576 8.24951L3.76576 16.2495C3.89752 18.3577 5.64572 20 7.75797 20H16.296C18.3862 20 20.124 18.3908 20.2843 16.3068L20.6816 11.1414C20.8534 8.90743 19.0871 7 16.8465 7H14.5002C13.6717 7 13.0002 6.32843 13.0002 5.5C13.0002 4.67157 12.3286 4 11.5002 4H9.25V6.25H10C10.4142 6.25 10.75 6.58579 10.75 7C10.75 7.41421 10.4142 7.75 10 7.75H9.25V8.75H10C10.4142 8.75 10.75 9.08579 10.75 9.5C10.75 9.91421 10.4142 10.25 10 10.25H9.25V11.25H10C10.4142 11.25 10.75 11.5858 10.75 12C10.75 12.4142 10.4142 12.75 10 12.75H9.25V13.5C9.25 13.9142 8.91421 14.25 8.5 14.25C8.08579 14.25 7.75 13.9142 7.75 13.5V12.75H7C6.58579 12.75 6.25 12.4142 6.25 12C6.25 11.5858 6.58579 11.25 7 11.25H7.75V10.25H7C6.58579 10.25 6.25 9.91421 6.25 9.5C6.25 9.08579 6.58579 8.75 7 8.75H7.75V7.75H7C6.58579 7.75 6.25 7.41421 6.25 7C6.25 6.58579 6.58579 6.25 7 6.25H7.75V4Z" fill="#363538"/>
</svg>
