<svg width="24" height="24" viewBox="0 0 24 24" fill="none" xmlns="http://www.w3.org/2000/svg">
<path fill-rule="evenodd" clip-rule="evenodd" d="M9.5 13.0555C9.5 12.9021 9.62437 12.7777 9.77778 12.7777H14.2222C14.3756 12.7777 14.5 12.9021 14.5 13.0555V15.7222C14.5 15.8756 14.3756 15.9999 14.2222 15.9999H9.77778C9.62437 15.9999 9.5 15.8756 9.5 15.7222V13.0555Z" fill="#363538"/>
<path d="M12.5832 10.6851V11.2777H11.4166V10.6851C11.4166 10.5254 11.5922 10.25 11.9999 10.25C12.4075 10.25 12.5832 10.5254 12.5832 10.6851Z" fill="#363538"/>
<path fill-rule="evenodd" clip-rule="evenodd" d="M7.25773 4H11.4999C12.3284 4 12.9999 4.67157 12.9999 5.5C12.9999 6.32843 13.6715 7 14.4999 7H16.8463C19.0869 7 20.8532 8.90743 20.6814 11.1414L20.284 16.3068C20.1237 18.3908 18.3859 20 16.2958 20H7.75773C5.64547 20 3.89728 18.3577 3.76552 16.2495L3.26552 8.24951C3.12159 5.94672 4.95044 4 7.25773 4ZM8 13.0555C8 12.0737 8.79594 11.2777 9.77778 11.2777H9.91658V10.6851C9.91658 9.53579 10.9348 8.75 11.9999 8.75C13.065 8.75 14.0832 9.53579 14.0832 10.6851V11.2777H14.2222C15.2041 11.2777 16 12.0737 16 13.0555V15.7222C16 16.704 15.2041 17.4999 14.2222 17.4999H9.77778C8.79594 17.4999 8 16.704 8 15.7222V13.0555Z" fill="#363538"/>
</svg>
