<svg width="24" height="24" viewBox="0 0 24 24" fill="none" xmlns="http://www.w3.org/2000/svg">
<path fill-rule="evenodd" clip-rule="evenodd" d="M7.25773 4H11.4999C12.3284 4 12.9999 4.67157 12.9999 5.5C12.9999 6.32843 13.6715 7 14.4999 7H16.8463C19.0869 7 20.8532 8.90743 20.6814 11.1414L20.284 16.3068C20.1237 18.3908 18.3859 20 16.2958 20H7.75773C5.64547 20 3.89728 18.3577 3.76552 16.2495L3.26552 8.24951C3.12159 5.94672 4.95044 4 7.25773 4ZM9.99988 12.25C9.58566 12.25 9.24988 12.5858 9.24988 13C9.24988 13.4142 9.58566 13.75 9.99988 13.75H13.9999C14.4141 13.75 14.7499 13.4142 14.7499 13C14.7499 12.5858 14.4141 12.25 13.9999 12.25H9.99988Z" fill="#363538"/>
</svg>
