<svg width="24" height="24" viewBox="0 0 24 24" fill="none" xmlns="http://www.w3.org/2000/svg">
<path d="M10.6813 11.666C11.0693 11.8999 11.5575 12.0455 12.0361 12.0455C12.6177 12.0455 13.0441 11.8317 13.319 11.666C13.4102 11.611 13.5018 11.5664 13.5873 11.5371C13.6724 11.5079 13.7329 11.5 13.7709 11.5C13.7956 11.5 13.8197 11.5002 13.8434 11.5005C14.0228 11.5033 14.1836 11.5815 14.321 11.8027C14.4721 12.0461 14.5533 12.422 14.4615 12.822C14.3737 13.2046 14.0006 13.746 13.3263 14.3512C12.8765 14.755 12.3895 15.1018 12.0001 15.3552C11.6108 15.1018 11.1238 14.755 10.6739 14.3512C9.99964 13.746 9.62653 13.2046 9.53876 12.822C9.44699 12.422 9.52815 12.0461 9.67928 11.8027C9.81666 11.5815 9.97749 11.5033 10.1569 11.5005C10.1805 11.5002 10.2047 11.5 10.2294 11.5C10.2673 11.5 10.3278 11.5079 10.413 11.5371C10.4984 11.5664 10.5901 11.611 10.6813 11.666Z" fill="#363538"/>
<path fill-rule="evenodd" clip-rule="evenodd" d="M7.25797 4H11.5002C12.3286 4 13.0002 4.67157 13.0002 5.5C13.0002 6.32843 13.6717 7 14.5002 7H16.8465C19.0871 7 20.8534 8.90743 20.6816 11.1414L20.2843 16.3068C20.124 18.3908 18.3862 20 16.296 20H7.75797C5.64572 20 3.89752 18.3577 3.76576 16.2495L3.26576 8.24951C3.12184 5.94672 4.95069 4 7.25797 4ZM10.2294 10C10.3643 10 10.496 10.0153 10.6228 10.0418C10.9405 10.1079 11.2273 10.2436 11.4558 10.3814C11.6211 10.4811 11.8431 10.5455 12.0361 10.5455C12.2291 10.5455 12.3791 10.4811 12.5444 10.3814C12.8642 10.1886 13.2978 10 13.7709 10C13.8031 10 13.8348 10.0002 13.8661 10.0007C15.3813 10.0237 16.2761 11.6205 15.9235 13.1574C15.5331 14.8594 13.2489 16.3681 12.3568 16.9003C12.134 17.0332 11.8662 17.0332 11.6434 16.9003C10.7514 16.3681 8.46718 14.8594 8.07673 13.1574C7.72417 11.6205 8.61895 10.0237 10.1342 10.0007C10.1654 10.0002 10.1972 10 10.2294 10Z" fill="#363538"/>
</svg>
