<svg width="24" height="24" viewBox="0 0 24 24" fill="none" xmlns="http://www.w3.org/2000/svg">
<path fill-rule="evenodd" clip-rule="evenodd" d="M7.25773 4H11.4999C12.3284 4 12.9999 4.67157 12.9999 5.5C12.9999 6.32843 13.6715 7 14.4999 7H16.8463C19.0869 7 20.8532 8.90743 20.6814 11.1414L20.284 16.3068C20.1237 18.3908 18.3859 20 16.2958 20H7.75773C5.64547 20 3.89728 18.3577 3.76552 16.2495L3.26552 8.24951C3.12159 5.94672 4.95044 4 7.25773 4ZM12.5302 9.46967C12.2373 9.17678 11.7624 9.17678 11.4695 9.46967L9.46955 11.4697C9.17665 11.7626 9.17665 12.2374 9.46955 12.5303C9.76244 12.8232 10.2373 12.8232 10.5302 12.5303L11.2499 11.8107V16C11.2499 16.4142 11.5857 16.75 11.9999 16.75C12.4141 16.75 12.7499 16.4142 12.7499 16V11.8107L13.4695 12.5303C13.7624 12.8232 14.2373 12.8232 14.5302 12.5303C14.8231 12.2374 14.8231 11.7626 14.5302 11.4697L12.5302 9.46967Z" fill="#363538"/>
</svg>
