<svg width="24" height="24" viewBox="0 0 24 24" fill="none" xmlns="http://www.w3.org/2000/svg">
<path fill-rule="evenodd" clip-rule="evenodd" d="M11.4999 4C12.2765 4 12.9153 4.5903 12.9921 5.34668L13.0077 5.65332C13.0845 6.40955 13.7235 6.99971 14.4999 7H16.8466C19.0871 7 20.8534 8.90765 20.6815 11.1416L20.2841 16.3066C20.1238 18.3906 18.3859 20 16.2958 20H7.7577C5.64586 19.9997 3.89749 18.3577 3.76551 16.25L3.26551 8.25C3.12161 5.9474 4.95069 4.00032 7.2577 4H11.4999ZM14.7802 10.4697C14.5055 10.1953 14.0708 10.1777 13.7763 10.418L13.7196 10.4697L11.2548 12.9336L10.2616 12.0068L10.203 11.957C9.90024 11.7273 9.46588 11.76 9.20106 12.0439C8.9368 12.3279 8.93444 12.763 9.18446 13.0488L9.23817 13.1035L10.7626 14.5244C11.0579 14.7997 11.5179 14.7919 11.8036 14.5068L14.7802 11.5303L14.8319 11.4736C15.0722 11.1791 15.0548 10.7443 14.7802 10.4697Z" fill="#363538"/>
</svg>
