<svg width="24" height="24" viewBox="0 0 24 24" fill="none" xmlns="http://www.w3.org/2000/svg">
<path fill-rule="evenodd" clip-rule="evenodd" d="M7.25797 4H11.5002C12.3286 4 13.0002 4.67157 13.0002 5.5C13.0002 6.32843 13.6717 7 14.5002 7H16.8465C19.0871 7 20.8534 8.90743 20.6816 11.1414L20.2843 16.3068C20.124 18.3908 18.3862 20 16.296 20H7.75797C5.64572 20 3.89752 18.3577 3.76576 16.2495L3.26576 8.24951C3.12184 5.94672 4.95069 4 7.25797 4ZM10.2288 10.8505C10.7007 10.4446 11.313 10.2 11.9844 10.2C13.0938 10.2 14.0467 10.8707 14.4595 11.8288C14.3048 11.8511 14.1558 11.9217 14.0369 12.0407C13.744 12.3336 13.744 12.8085 14.0369 13.1014L14.8978 13.9623C15.0385 14.103 15.2292 14.182 15.4282 14.182C15.6271 14.182 15.8178 14.103 15.9585 13.9623L16.8194 13.1014C17.1123 12.8085 17.1123 12.3336 16.8194 12.0407C16.6113 11.8325 16.3112 11.7723 16.0498 11.8601C15.5894 10.0438 13.9438 8.69995 11.9844 8.69995C10.9406 8.69995 9.98431 9.08219 9.25059 9.71334C8.93657 9.98347 8.90098 10.457 9.1711 10.771C9.44123 11.085 9.91476 11.1206 10.2288 10.8505ZM9.10124 11.8255C8.96059 11.6849 8.76982 11.6059 8.57091 11.6059C8.372 11.6059 8.18123 11.6849 8.04058 11.8255L7.17963 12.6865C6.88674 12.9794 6.88674 13.4543 7.17963 13.7471C7.3878 13.9553 7.6879 14.0155 7.94926 13.9278C8.40975 15.744 10.0553 17.0877 12.0146 17.0877C13.0954 17.0877 14.0822 16.6779 14.8253 16.0065C15.1327 15.7288 15.1567 15.2545 14.879 14.9472C14.6014 14.6398 14.1271 14.6158 13.8198 14.8934C13.3415 15.3255 12.7096 15.5877 12.0146 15.5877C10.9053 15.5877 9.95251 14.917 9.53965 13.9591C9.69426 13.9367 9.84324 13.8661 9.96219 13.7471C10.2551 13.4543 10.2551 12.9794 9.96219 12.6865L9.10124 11.8255Z" fill="#363538"/>
</svg>
