<svg width="24" height="24" viewBox="0 0 24 24" fill="none" xmlns="http://www.w3.org/2000/svg">
<path d="M4 14.5001V6.10986C4 5.08813 4.44647 4.1174 5.22223 3.45247L5.42066 3.28238C6.61719 2.25678 8.38281 2.25678 9.57934 3.28238C10.4568 4.03445 10.8597 5.2017 10.633 6.33488L9 14.5001H4Z" fill="#363538"/>
<path d="M19.1059 16.1585L21.0261 7.99093C21.2599 6.99632 21.0474 5.94918 20.4444 5.12435L20.2902 4.91336C19.3601 3.64115 17.6414 3.23707 16.2419 3.96161C15.2157 4.49291 14.5563 5.53696 14.5176 6.69194L14.2386 15.0142L19.1059 16.1585Z" fill="#363538"/>
<path d="M4 16.5001V18.0001C4 19.3808 5.11929 20.5001 6.5 20.5001C7.88071 20.5001 9 19.3808 9 18.0001V16.5001H4Z" fill="#363538"/>
<path d="M13.438 18.4212L13.7812 16.961L18.6485 18.1053L18.3053 19.5655C17.9893 20.9096 16.6435 21.743 15.2995 21.427C13.9554 21.111 13.122 19.7653 13.438 18.4212Z" fill="#363538"/>
</svg>
