<svg width="24" height="24" viewBox="0 0 24 24" fill="none" xmlns="http://www.w3.org/2000/svg">
<path d="M14.9494 2.87488C15.1565 2.51616 15.0336 2.05747 14.6749 1.85036C14.3161 1.64326 13.8575 1.76616 13.6503 2.12488L11.6503 5.58898C10.891 6.90429 11.3416 8.58616 12.6569 9.34555L12.8816 9.4753L12.5143 10.1306L12.4627 10.0349L8.37668 2.9577C7.935 2.1927 7.1135 1.92368 6.40861 2.15629C5.69229 2.39267 5.20087 3.11396 5.35069 4.00279C5.65326 5.79783 6.11314 7.86395 6.79775 9.44164C7.13815 10.2261 7.56047 10.9531 8.0971 11.4603C8.65552 11.988 9.37935 12.3084 10.226 12.1352C10.7917 12.0194 11.2468 11.7991 11.5895 11.576L11.6458 11.6803L6.90801 20.1332C6.70549 20.4945 6.83423 20.9516 7.19556 21.1541C7.55689 21.3566 8.01398 21.2279 8.2165 20.8666L12.4889 13.2439L16.6399 20.9418C16.8365 21.3064 17.2914 21.4426 17.656 21.246C18.0206 21.0494 18.1568 20.5944 17.9602 20.2298L13.3575 11.6943L14.1808 10.2254L14.389 10.3456C15.7043 11.1049 17.3861 10.6543 18.1455 9.33898L20.1455 5.87488C20.3526 5.51616 20.2297 5.05747 19.871 4.85036C19.5123 4.64326 19.0536 4.76616 18.8465 5.12488L16.8465 8.58898C16.5013 9.18685 15.7368 9.39169 15.139 9.04651L14.9225 8.92151L17.5475 4.37488C17.7546 4.01616 17.6317 3.55747 17.2729 3.35036C16.9142 3.14326 16.4555 3.26616 16.2484 3.62488L13.6234 8.17151L13.4069 8.04651C12.8091 7.70134 12.6042 6.93685 12.9494 6.33898L14.9494 2.87488Z" fill="#363538"/>
</svg>
