<svg width="24" height="24" viewBox="0 0 24 24" fill="none" xmlns="http://www.w3.org/2000/svg">
<path d="M16.3634 3.19514C17.2189 1.71982 19.2416 1.77973 20.1508 3.10144C20.9055 4.19848 21.2752 5.24363 21.3384 6.21892C21.4019 7.19652 21.154 8.05547 20.7501 8.7706C20.3913 9.40571 19.8476 9.80744 19.25 9.98837V21.0001C19.25 21.4143 18.9142 21.7501 18.5 21.7501C18.0858 21.7501 17.75 21.4143 17.75 21.0001V9.99843C16.9234 9.76719 16.1855 9.14914 15.8577 8.20929C15.3623 6.78887 15.3055 5.01931 16.3634 3.19514Z" fill="#363538"/>
<path d="M4.75 3.00024C4.75 2.58603 4.41421 2.25024 4 2.25024C3.58579 2.25024 3.25 2.58603 3.25 3.00024V7.00024C3.25 8.51903 4.48122 9.75024 6 9.75024H6.25V21.0002C6.25 21.4145 6.58579 21.7502 7 21.7502C7.41421 21.7502 7.75 21.4145 7.75 21.0002V9.75024H8C9.51878 9.75024 10.75 8.51903 10.75 7.00024V3.00024C10.75 2.58603 10.4142 2.25024 10 2.25024C9.58579 2.25024 9.25 2.58603 9.25 3.00024V7.00024C9.25 7.6906 8.69036 8.25024 8 8.25024H7.75V3.00024C7.75 2.58603 7.41421 2.25024 7 2.25024C6.58579 2.25024 6.25 2.58603 6.25 3.00024V8.25024H6C5.30964 8.25024 4.75 7.6906 4.75 7.00024V3.00024Z" fill="#363538"/>
</svg>
