<svg width="24" height="24" viewBox="0 0 24 24" fill="none" xmlns="http://www.w3.org/2000/svg">
<path d="M17.2501 12.9075V21C17.2501 21.4142 17.5858 21.75 18.0001 21.75C18.4143 21.75 18.7501 21.4142 18.7501 21V3.83889C18.7501 2.95555 18.1731 2.31182 17.4464 2.16081C16.7078 2.00736 15.9216 2.38632 15.6069 3.23097C14.9714 4.93681 14.3366 6.95606 14.1407 8.66468C14.0433 9.51422 14.0455 10.355 14.2566 11.0625C14.4764 11.7988 14.943 12.4382 15.7629 12.7115C16.3227 12.8981 16.8371 12.9324 17.2501 12.9075Z" fill="#363538"/>
<path d="M4.75 3C4.75 2.58579 4.41421 2.25 4 2.25C3.58579 2.25 3.25 2.58579 3.25 3V7C3.25 8.51878 4.48122 9.75 6 9.75H6.25V21C6.25 21.4142 6.58579 21.75 7 21.75C7.41421 21.75 7.75 21.4142 7.75 21V9.75H8C9.51878 9.75 10.75 8.51878 10.75 7V3C10.75 2.58579 10.4142 2.25 10 2.25C9.58579 2.25 9.25 2.58579 9.25 3V7C9.25 7.69036 8.69036 8.25 8 8.25H7.75V3C7.75 2.58579 7.41421 2.25 7 2.25C6.58579 2.25 6.25 2.58579 6.25 3V8.25H6C5.30964 8.25 4.75 7.69036 4.75 7V3Z" fill="#363538"/>
</svg>
