<svg width="24" height="24" viewBox="0 0 24 24" fill="none" xmlns="http://www.w3.org/2000/svg">
<path d="M9 5C9 6.39563 8.04699 7.56868 6.75624 7.90387C6.79417 9.09355 7.00016 9.76395 7.23344 10.1419C7.46153 10.5114 7.75241 10.6615 8.14421 10.7326C8.35577 10.7711 8.59085 10.7842 8.86129 10.7878C8.94842 10.789 9.04838 10.789 9.15351 10.7891C9.33872 10.7891 9.54003 10.7892 9.71546 10.7955C10.2809 10.8156 11.037 10.8991 11.6063 11.4708C11.7563 11.6214 11.8867 11.7773 12 11.9381C12.1133 11.7773 12.2437 11.6214 12.3937 11.4708C12.963 10.8991 13.7191 10.8156 14.2845 10.7955C14.46 10.7892 14.6612 10.7891 14.8464 10.7891C14.9516 10.789 15.0516 10.789 15.1387 10.7878C15.4092 10.7842 15.6442 10.7711 15.8558 10.7326C16.2476 10.6615 16.5385 10.5114 16.7666 10.1419C16.9998 9.76395 17.2058 9.09355 17.2438 7.90387C15.953 7.56868 15 6.39563 15 5C15 3.34315 16.3431 2 18 2C19.6569 2 21 3.34315 21 5C21 6.3999 20.0411 7.57586 18.7444 7.90693C18.7062 9.25037 18.474 10.2315 18.043 10.9298C17.5392 11.7459 16.825 12.0811 16.1239 12.2085C15.7889 12.2693 15.4556 12.2837 15.1588 12.2877C15.025 12.2895 14.9078 12.2894 14.7977 12.2892C14.6392 12.2891 14.4954 12.2889 14.338 12.2945C13.8201 12.313 13.5904 12.3949 13.4566 12.5292C13.0913 12.8961 12.911 13.3188 12.8237 13.9367C12.746 14.4863 12.7483 15.125 12.7513 15.9632C12.7515 16.0065 12.7516 16.0506 12.7518 16.095C14.0448 16.4286 15 17.6028 15 19C15 20.6569 13.6569 22 12 22C10.3431 22 9 20.6569 9 19C9 17.6028 9.95521 16.4286 11.2482 16.095L11.2487 15.9634C11.2517 15.1252 11.254 14.4863 11.1763 13.9367C11.089 13.3188 10.9087 12.8961 10.5434 12.5292C10.4096 12.3949 10.1799 12.313 9.66203 12.2945C9.50463 12.2889 9.36086 12.2891 9.20231 12.2892C9.09226 12.2894 8.97504 12.2895 8.84124 12.2877C8.54444 12.2837 8.21107 12.2693 7.87615 12.2085C7.175 12.0811 6.46078 11.7459 5.95702 10.9298C5.52604 10.2315 5.29377 9.25037 5.25562 7.90693C3.95885 7.57586 3 6.3999 3 5C3 3.34315 4.34315 2 6 2C7.65685 2 9 3.34315 9 5Z" fill="#363538"/>
</svg>
