<svg width="24" height="24" viewBox="0 0 24 24" fill="none" xmlns="http://www.w3.org/2000/svg">
<path d="M12.0303 2.46967C11.7374 2.17678 11.2626 2.17678 10.9697 2.46967C10.6768 2.76256 10.6768 3.23744 10.9697 3.53033L11.6946 4.25523C7.00352 4.41615 3.25 8.26974 3.25 13C3.25 17.8325 7.16751 21.75 12 21.75C16.8325 21.75 20.75 17.8325 20.75 13C20.75 12.5858 20.4142 12.25 20 12.25C19.5858 12.25 19.25 12.5858 19.25 13C19.25 17.0041 16.0041 20.25 12 20.25C7.99594 20.25 4.75 17.0041 4.75 13C4.75 9.10231 7.82575 5.92301 11.6825 5.75683L10.9697 6.46967C10.6768 6.76256 10.6768 7.23744 10.9697 7.53033C11.2626 7.82322 11.7374 7.82322 12.0303 7.53033L14.0303 5.53033C14.3232 5.23744 14.3232 4.76256 14.0303 4.46967L12.0303 2.46967Z" fill="#363538"/>
<path fill-rule="evenodd" clip-rule="evenodd" d="M12.4055 15.767C12.7578 16.0057 13.1783 16.1259 13.6669 16.1278C14.1555 16.1278 14.575 16.0085 14.9254 15.7699C15.2758 15.5312 15.5447 15.1856 15.7322 14.733C15.9216 14.2803 16.0163 13.7348 16.0163 13.0966C16.0182 12.4621 15.9245 11.9223 15.7351 11.4773C15.5457 11.0303 15.2749 10.6894 14.9226 10.4545C14.5722 10.2197 14.1536 10.1023 13.6669 10.1023C13.1802 10.1023 12.7607 10.2197 12.4084 10.4545C12.058 10.6875 11.7881 11.0275 11.5987 11.4744C11.4112 11.9214 11.3175 12.4621 11.3175 13.0966C11.3156 13.733 11.4084 14.2775 11.5959 14.7301C11.7853 15.1828 12.0552 15.5284 12.4055 15.767ZM14.4652 14.6051C14.2663 14.9403 14.0002 15.108 13.6669 15.108C13.4453 15.108 13.2521 15.0341 13.0874 14.8864C12.9226 14.7367 12.7947 14.5133 12.7038 14.2159C12.6148 13.9167 12.5703 13.5436 12.5703 13.0966C12.5722 12.4356 12.6726 11.9394 12.8714 11.608C13.0703 11.2765 13.3355 11.1108 13.6669 11.1108C13.8885 11.1108 14.0807 11.1847 14.2436 11.3324C14.4084 11.4801 14.5353 11.7008 14.6243 11.9943C14.7152 12.2879 14.7607 12.6553 14.7607 13.0966C14.7625 13.767 14.6641 14.2699 14.4652 14.6051Z" fill="#363538"/>
<path d="M10.0028 10.4818C10.0028 10.3161 9.86853 10.1818 9.70284 10.1818H8.93358C8.87676 10.1818 8.8211 10.198 8.7731 10.2283L7.54577 11.0054C7.4589 11.0604 7.40625 11.1561 7.40625 11.2589V11.6425C7.40625 11.8783 7.66579 12.022 7.86559 11.8967L8.73219 11.3535C8.7364 11.3508 8.74127 11.3494 8.74625 11.3494C8.76087 11.3494 8.77273 11.3613 8.77273 11.3759V15.7C8.77273 15.8657 8.90704 16 9.07273 16H9.70284C9.86853 16 10.0028 15.8657 10.0028 15.7V10.4818Z" fill="#363538"/>
</svg>
