<svg width="24" height="24" viewBox="0 0 24 24" fill="none" xmlns="http://www.w3.org/2000/svg">
<path fill-rule="evenodd" clip-rule="evenodd" d="M12 22C17.5228 22 22 17.5228 22 12C22 6.47715 17.5228 2 12 2C6.47715 2 2 6.47715 2 12C2 17.5228 6.47715 22 12 22ZM11.342 14.6429L9.52763 15.8658C8.23348 16.7381 6.5 15.8001 6.5 14.2276V9.77202C6.5 8.19946 8.23347 7.2615 9.52763 8.13379L11.342 9.3567C11.3351 9.38983 11.3291 9.42334 11.3238 9.45724C11.5361 8.07911 13.1224 7.32143 14.3276 8.13379L17.6328 10.3616C18.789 11.1409 18.789 12.8587 17.6328 13.638L14.3276 15.8658C13.152 16.6582 11.6139 15.9568 11.342 14.6429Z" fill="#363538"/>
</svg>
