<svg width="24" height="24" viewBox="0 0 24 24" fill="none" xmlns="http://www.w3.org/2000/svg">
<path d="M12.0303 2.46967C11.7374 2.17678 11.2626 2.17678 10.9697 2.46967C10.6768 2.76256 10.6768 3.23744 10.9697 3.53033L11.6946 4.25523C7.00352 4.41615 3.25 8.26974 3.25 13C3.25 17.8325 7.16751 21.75 12 21.75C16.8325 21.75 20.75 17.8325 20.75 13C20.75 12.5858 20.4142 12.25 20 12.25C19.5858 12.25 19.25 12.5858 19.25 13C19.25 17.0041 16.0041 20.25 12 20.25C7.99594 20.25 4.75 17.0041 4.75 13C4.75 9.10231 7.82575 5.92301 11.6825 5.75683L10.9697 6.46967C10.6768 6.76256 10.6768 7.23744 10.9697 7.53033C11.2626 7.82322 11.7374 7.82322 12.0303 7.53033L14.0303 5.53033C14.3232 5.23744 14.3232 4.76256 14.0303 4.46967L12.0303 2.46967Z" fill="#363538"/>
<path d="M10.9446 15.858C11.259 16.0057 11.617 16.0795 12.0185 16.0795C12.4503 16.0795 12.8291 15.9934 13.1548 15.821C13.4825 15.6468 13.7372 15.4081 13.919 15.1051C14.1027 14.8002 14.1937 14.4517 14.1918 14.0597C14.1937 13.6866 14.1151 13.357 13.956 13.071C13.7969 12.7831 13.58 12.5568 13.3054 12.392C13.0308 12.2273 12.7183 12.1449 12.3679 12.1449C12.1122 12.1449 11.8812 12.1922 11.6747 12.2869C11.4725 12.3797 11.3202 12.4961 11.218 12.6361C11.214 12.6416 11.2076 12.6449 11.2008 12.6449C11.1884 12.6449 11.1787 12.6341 11.1799 12.6217L11.3003 11.4567C11.3161 11.3037 11.445 11.1875 11.5987 11.1875H13.5707C13.7364 11.1875 13.8707 11.0532 13.8707 10.8875V10.4818C13.8707 10.3161 13.7364 10.1818 13.5707 10.1818H10.5882C10.4329 10.1818 10.3033 10.3003 10.2894 10.455L10.0629 12.9763C10.049 13.1312 10.1557 13.271 10.3088 13.2985L10.9481 13.413C11.0607 13.4332 11.1723 13.3838 11.2594 13.3097C11.3289 13.2506 11.4105 13.2004 11.5043 13.1591C11.6652 13.089 11.831 13.054 12.0014 13.054C12.1965 13.0559 12.3698 13.1004 12.5213 13.1875C12.6728 13.2746 12.7912 13.3958 12.8764 13.5511C12.9635 13.7064 13.0071 13.8864 13.0071 14.0909C13.0071 14.2917 12.9645 14.4697 12.8793 14.625C12.7959 14.7784 12.6795 14.8987 12.5298 14.9858C12.3821 15.071 12.2116 15.1136 12.0185 15.1136C11.776 15.1136 11.5668 15.0436 11.3906 14.9034C11.2923 14.8251 11.2193 14.7336 11.1717 14.6287C11.1061 14.4841 10.9825 14.3551 10.8237 14.3551H10.2202C10.0519 14.3551 9.91323 14.4948 9.94655 14.6598C9.9897 14.8734 10.0743 15.0692 10.2003 15.2472C10.384 15.5066 10.6321 15.7102 10.9446 15.858Z" fill="#363538"/>
</svg>
