<svg width="24" height="24" viewBox="0 0 24 24" fill="none" xmlns="http://www.w3.org/2000/svg">
<path d="M14 13.75C14.4142 13.75 14.75 14.0858 14.75 14.5V19C14.75 20.5188 13.5188 21.75 12 21.75C10.4812 21.75 9.25 20.5188 9.25 19C9.25 18.5858 9.58579 18.25 10 18.25C10.4142 18.25 10.75 18.5858 10.75 19C10.75 19.6904 11.3096 20.25 12 20.25C12.6904 20.25 13.25 19.6904 13.25 19V17.9463C12.8746 18.1385 12.4507 18.25 12 18.25C10.4812 18.25 9.25 17.0188 9.25 15.5V14.5C9.25 14.0858 9.58579 13.75 10 13.75C10.4142 13.75 10.75 14.0858 10.75 14.5V15.5C10.75 16.1904 11.3096 16.75 12 16.75C12.6904 16.75 13.25 16.1904 13.25 15.5V14.5C13.25 14.0858 13.5858 13.75 14 13.75Z" fill="#363538"/>
<path d="M17 10.75C17.4142 10.75 17.75 11.0858 17.75 11.5C17.75 11.9142 17.4142 12.25 17 12.25H7C6.58579 12.25 6.25 11.9142 6.25 11.5C6.25 11.0858 6.58579 10.75 7 10.75H17Z" fill="#363538"/>
<path d="M14.5 2.75C14.9142 2.75 15.25 3.08579 15.25 3.5C15.25 3.91421 14.9142 4.25 14.5 4.25C13.5335 4.25 12.75 5.0335 12.75 6C12.75 6.9665 13.5335 7.75 14.5 7.75C14.9142 7.75 15.25 8.08579 15.25 8.5C15.25 8.91421 14.9142 9.25 14.5 9.25C13.4943 9.25 12.5961 8.79258 12 8.0752C11.4039 8.79258 10.5057 9.25 9.5 9.25C9.08579 9.25 8.75 8.91421 8.75 8.5C8.75 8.08579 9.08579 7.75 9.5 7.75C10.4665 7.75 11.25 6.9665 11.25 6C11.25 5.0335 10.4665 4.25 9.5 4.25C9.08579 4.25 8.75 3.91421 8.75 3.5C8.75 3.08579 9.08579 2.75 9.5 2.75C10.5054 2.75 11.4038 3.20677 12 3.92383C12.5962 3.20677 13.4946 2.75 14.5 2.75Z" fill="#363538"/>
</svg>
