<svg width="24" height="24" viewBox="0 0 24 24" fill="none" xmlns="http://www.w3.org/2000/svg">
<path fill-rule="evenodd" clip-rule="evenodd" d="M5.24975 1.99976H4.74975C3.23097 1.99976 1.99976 3.23098 1.99976 4.74976V5.24971C1.99976 6.5978 2.96978 7.71934 4.24993 7.9544L4.24993 16.0453C2.96979 16.2804 1.99976 17.4019 1.99976 18.75V19.2497C1.99976 20.7685 3.23097 21.9997 4.74975 21.9997L5.24975 21.9997C6.59773 21.9997 7.7192 21.0298 7.95438 19.7499L16.0451 19.7498C16.2803 21.0298 17.4018 21.9997 18.7497 21.9997L19.2497 21.9997C20.7685 21.9997 21.9998 20.7685 21.9998 19.2497V18.75C21.9998 17.402 21.0299 16.2806 19.7499 16.0454V7.95433C21.0299 7.71913 21.9998 6.59768 21.9998 5.24971V4.74976C21.9998 3.23097 20.7685 1.99975 19.2497 1.99976H18.7497C17.4017 1.99976 16.2802 2.96969 16.0451 4.24974L7.95441 4.24973C7.71927 2.96968 6.59778 1.99975 5.24975 1.99976ZM5.74993 16.0454L5.74993 7.95433C6.86776 7.74893 7.74907 6.86758 7.95441 5.74973L16.0451 5.74974C16.2505 6.8677 17.1319 7.74911 18.2499 7.9544V16.0453C17.132 16.2506 16.2505 17.1319 16.0451 18.2498L7.95439 18.2499C7.749 17.1321 6.86772 16.2508 5.74993 16.0454Z" fill="#363538"/>
</svg>
