<svg width="24" height="24" viewBox="0 0 24 24" fill="none" xmlns="http://www.w3.org/2000/svg">
<path d="M7.93137 3H17.2C17.6418 3 18 3.35817 18 3.8V8.2C18 8.64183 17.6418 9 17.2 9H12.3314C12.1192 9 11.9157 8.91571 11.7657 8.76569L7.36569 4.36569C6.86171 3.86171 7.21865 3 7.93137 3Z" fill="#363538"/>
<path d="M6.8 9C6.35817 9 6 9.35817 6 9.8V14.6686C6 14.8808 6.08429 15.0843 6.23431 15.2343L10.6343 19.6343C11.1383 20.1383 12 19.7814 12 19.0686V15.8C12 15.3582 12.3582 15 12.8 15H16.0686C16.7814 15 17.1383 14.1383 16.6343 13.6343L12.2343 9.23431C12.0843 9.08429 11.8808 9 11.6686 9H6.8Z" fill="#363538"/>
</svg>
