<svg width="24" height="24" viewBox="0 0 24 24" fill="none" xmlns="http://www.w3.org/2000/svg">
<path d="M11.0001 11.5C11.0001 11.7761 10.7763 12 10.5001 12C10.224 12 10.0001 11.7761 10.0001 11.5C10.0001 11.2239 10.224 11 10.5001 11C10.7763 11 11.0001 11.2239 11.0001 11.5Z" fill="#363538"/>
<path d="M11.5001 14C11.7763 14 12.0001 13.7761 12.0001 13.5C12.0001 13.2239 11.7763 13 11.5001 13C11.224 13 11.0001 13.2239 11.0001 13.5C11.0001 13.7761 11.224 14 11.5001 14Z" fill="#363538"/>
<path fill-rule="evenodd" clip-rule="evenodd" d="M15.9166 20.0816C15.0185 21.3949 13.218 21.7921 11.8383 20.9188L10.9536 20.3589C10.7576 20.2349 10.5491 19.99 10.3324 19.7355C9.97935 19.321 9.60457 18.8809 9.22714 18.8963L8.18093 18.9389C6.42939 19.0101 4.99013 17.5709 5.06142 15.8193L5.104 14.7731C5.11936 14.3957 4.67929 14.0209 4.26473 13.6679C4.01026 13.4512 3.76541 13.2426 3.64141 13.0467L3.08143 12.162C2.14392 10.6807 2.67073 8.71467 4.22324 7.90063L5.15058 7.4144C5.29733 7.33746 5.51062 7.24886 5.74914 7.14979C6.38818 6.88436 7.20826 6.54373 7.4144 6.15058L7.90063 5.22325C8.71467 3.67073 10.6807 3.14392 12.162 4.08142L13.0467 4.64141C13.5618 4.96743 15.164 5.12878 15.7731 5.104L16.8193 5.06142C18.3184 5.00041 19.5887 6.04581 19.8791 7.44647C19.9755 7.91153 19.7528 8.36761 19.4176 8.70404C19.0823 9.04046 18.9566 9.5521 19.4271 9.61661C19.47 9.6225 19.5141 9.62787 19.5586 9.6333C19.8701 9.67128 20.2062 9.71226 20.3589 9.95355L20.9189 10.8383C21.8564 12.3195 22.3296 15.2856 20.777 16.0996L19.8497 16.5859C19.6618 16.6844 19.2435 16.8021 18.7661 16.9363C18.0779 17.1299 17.2667 17.3581 16.8455 17.6135C16.6436 17.7359 16.5567 17.9653 16.499 18.1942L16.1866 19.4325C16.1288 19.6614 16.0499 19.8867 15.9166 20.0816ZM12.0002 16C14.2094 16 16.0002 14.2091 16.0002 12C16.0002 9.79086 14.2094 8 12.0002 8C9.79111 8 8.00024 9.79086 8.00024 12C8.00024 14.2091 9.79111 16 12.0002 16Z" fill="#363538"/>
</svg>
