<svg width="24" height="24" viewBox="0 0 24 24" fill="none" xmlns="http://www.w3.org/2000/svg">
<path d="M14.5986 3.25C16.253 3.25 17.4802 4.75608 17.1787 6.35645L17.1455 6.51172L16.7275 8.18164C16.6271 8.58341 16.2201 8.82785 15.8184 8.72754C15.4166 8.6271 15.1721 8.22013 15.2725 7.81836L15.6904 6.14746L15.7148 6.01465C15.7992 5.35422 15.2846 4.75 14.5986 4.75C13.4264 4.75 12.3693 5.43159 11.8799 6.48145L11.79 6.69629L10.082 11.25H12C12.4142 11.25 12.75 11.5858 12.75 12C12.75 12.4142 12.4142 12.75 12 12.75H9.51953L7.18848 18.9658C6.78592 20.0389 5.76035 20.7499 4.61426 20.75H4C3.58579 20.75 3.25 20.4142 3.25 20C3.25 19.5858 3.58579 19.25 4 19.25H4.61426C5.13521 19.2499 5.60126 18.9263 5.78418 18.4385L7.91797 12.75H6C5.58579 12.75 5.25 12.4142 5.25 12C5.25 11.5858 5.58579 11.25 6 11.25H8.48047L10.3857 6.16992L10.5205 5.84766C11.2545 4.27265 12.8401 3.25 14.5986 3.25Z" fill="#363538"/>
<path d="M16 15.25C16.4142 15.25 16.75 15.5858 16.75 16C16.75 16.4142 16.4142 16.75 16 16.75C15.3096 16.75 14.75 17.3096 14.75 18C14.75 18.6904 15.3096 19.25 16 19.25C16.4142 19.25 16.75 19.5858 16.75 20C16.75 20.4142 16.4142 20.75 16 20.75C15.2108 20.75 14.5015 20.4153 14 19.8828C13.4985 20.4153 12.7892 20.75 12 20.75C11.5858 20.75 11.25 20.4142 11.25 20C11.25 19.5858 11.5858 19.25 12 19.25C12.6904 19.25 13.25 18.6904 13.25 18C13.25 17.3096 12.6904 16.75 12 16.75C11.5858 16.75 11.25 16.4142 11.25 16C11.25 15.5858 11.5858 15.25 12 15.25C12.789 15.25 13.4985 15.584 14 16.1162C14.5015 15.584 15.211 15.25 16 15.25Z" fill="#363538"/>
</svg>
