<svg width="24" height="24" viewBox="0 0 24 24" fill="none" xmlns="http://www.w3.org/2000/svg">
<path d="M15 4.75C15 4.33579 14.6642 4 14.25 4H6C3.79086 4 2 5.79086 2 8V16C2 18.1401 3.68068 19.8877 5.79416 19.9948C5.86234 19.9983 5.93105 20 6.00009 20H18.0001C18.0691 20 18.1377 19.9982 18.2058 19.9948C18.3644 19.9868 18.5206 19.9695 18.6738 19.9435C19.3264 19.8328 19.9252 19.564 20.4295 19.178C21.3842 18.4469 22 17.2954 22 16V9.75C22 9.33579 21.6642 9 21.25 9C20.8358 9 20.5 9.33579 20.5 9.75V16C20.5 16.7605 20.1605 17.4416 19.6247 17.9002L16.1343 12.323C15.4759 11.1857 13.7942 11.3154 13.3179 12.5401L12.2143 15.3779C11.7196 16.65 9.97873 16.798 9.27645 15.6275C8.67126 14.6188 7.23281 14.5552 6.54095 15.5065L4.45422 17.965C3.87311 17.5072 3.5 16.7972 3.5 16V8C3.5 6.61929 4.61929 5.5 6 5.5H14.25C14.6642 5.5 15 5.16421 15 4.75Z" fill="#363538"/>
<path d="M7.50008 10C8.32851 10 9.00008 9.32843 9.00008 8.5C9.00008 7.67157 8.32851 7 7.50008 7C6.67166 7 6.00008 7.67157 6.00008 8.5C6.00008 9.32843 6.67166 10 7.50008 10Z" fill="#363538"/>
<path d="M21.2803 4.96967C21.5732 5.26256 21.5732 5.73744 21.2803 6.03033L18.3041 9.00652C18.0184 9.29222 17.5578 9.30025 17.2623 9.02469L15.7385 7.6036C15.4356 7.3211 15.419 6.84652 15.7015 6.54359C15.984 6.24066 16.4586 6.22411 16.7615 6.50661L17.7556 7.43371L20.2197 4.96967C20.5126 4.67678 20.9874 4.67678 21.2803 4.96967Z" fill="#363538"/>
</svg>
