<svg width="24" height="24" viewBox="0 0 24 24" fill="none" xmlns="http://www.w3.org/2000/svg">
<path d="M9 8.5C9 9.32843 8.32843 10 7.5 10C6.67157 10 6 9.32843 6 8.5C6 7.67157 6.67157 7 7.5 7C8.32843 7 9 7.67157 9 8.5Z" fill="#363538"/>
<path fill-rule="evenodd" clip-rule="evenodd" d="M6 4H18C20.2091 4 22 5.79086 22 8V16C22 18.2091 20.2091 20 18 20H6C3.79086 20 2 18.2091 2 16V8C2 5.79086 3.79086 4 6 4ZM18 5.5H6C4.61929 5.5 3.5 6.61929 3.5 8V16C3.5 16.7971 3.87309 17.5072 4.45417 17.9649L6.54086 15.5065C7.23272 14.5552 8.67117 14.6188 9.27637 15.6275C9.97864 16.798 11.7195 16.65 12.2142 15.3779L13.3178 12.5401C13.7941 11.3154 15.4758 11.1857 16.1342 12.323L19.6246 17.9002C20.1604 17.4417 20.5 16.7605 20.5 16V8C20.5 6.61929 19.3807 5.5 18 5.5Z" fill="#363538"/>
</svg>
