<svg width="24" height="24" viewBox="0 0 24 24" fill="none" xmlns="http://www.w3.org/2000/svg">
<path d="M18 3H6C3.79086 3 2 4.79086 2 7V15C2 17.2091 3.79086 19 6 19H7.34732C7.44468 19 7.52571 18.9262 7.53976 18.8298L7.54321 18.8074L8.29986 14.1178C8.68307 11.5419 11.2774 9.91556 13.7641 10.6957L14.1779 10.8255C14.2981 10.8632 14.4234 10.8824 14.5494 10.8824H16.4506C16.5766 10.8824 16.7019 10.8632 16.8221 10.8255L17.2359 10.6957C17.9652 10.4669 18.7038 10.4451 19.3932 10.5935C20.3525 10.8001 22 10.1065 22 9.12531V7C22 4.79086 20.2091 3 18 3Z" fill="#363538"/>
<path fill-rule="evenodd" clip-rule="evenodd" d="M9.02406 19.0463L9.78233 14.3467C10.0258 12.6772 11.7053 11.6219 13.3151 12.1269L13.7289 12.2567C13.9944 12.3401 14.2711 12.3824 14.5494 12.3824H16.4506C16.7289 12.3824 17.0056 12.3401 17.2711 12.2567L17.6849 12.1269C19.2947 11.6219 20.9742 12.6772 21.2177 14.3467L21.9759 19.0463C22.1745 20.4076 21.119 21.6282 19.7433 21.6282C18.9521 21.6282 18.2282 21.2149 17.8221 20.5551C17.7927 20.5075 17.764 20.4593 17.7352 20.4112C17.644 20.2585 17.5528 20.1057 17.442 19.9669C17.3653 19.8707 17.2991 19.7667 17.2329 19.6627C17.1734 19.5691 17.1139 19.4755 17.0467 19.3877C16.7913 19.0538 16.3913 18.8497 15.958 18.8497H15.042C14.6087 18.8497 14.2087 19.0538 13.9533 19.3877C13.8861 19.4755 13.8266 19.5691 13.7671 19.6626C13.7009 19.7667 13.6347 19.8707 13.558 19.9669C13.4472 20.1057 13.356 20.2585 13.2648 20.4112C13.2361 20.4593 13.2073 20.5075 13.1779 20.5551C12.7718 21.2149 12.0479 21.6282 11.2567 21.6282C9.88101 21.6282 8.82553 20.4076 9.02406 19.0463ZM13.1014 14.0901C13.5156 14.0901 13.8514 14.4259 13.8514 14.8401V14.8683H13.88C14.2942 14.8683 14.63 15.2041 14.63 15.6183C14.63 16.0325 14.2942 16.3683 13.88 16.3683H13.8514V16.4C13.8514 16.8142 13.5156 17.15 13.1014 17.15C12.6872 17.15 12.3514 16.8142 12.3514 16.4V16.3683H12.3198C11.9056 16.3683 11.5698 16.0325 11.5698 15.6183C11.5698 15.2041 11.9056 14.8683 12.3198 14.8683H12.3514V14.8401C12.3514 14.4259 12.6872 14.0901 13.1014 14.0901ZM18.0696 14.9331C18.3534 14.9331 18.5835 14.703 18.5835 14.4192C18.5835 14.1354 18.3534 13.9053 18.0696 13.9053C17.7858 13.9053 17.5557 14.1354 17.5557 14.4192C17.5557 14.703 17.7858 14.9331 18.0696 14.9331ZM18.5835 16.4749C18.5835 16.7587 18.3534 16.9888 18.0696 16.9888C17.7858 16.9888 17.5557 16.7587 17.5557 16.4749C17.5557 16.191 17.7858 15.9609 18.0696 15.9609C18.3534 15.9609 18.5835 16.191 18.5835 16.4749ZM19.0974 15.961C19.3813 15.961 19.6114 15.7309 19.6114 15.447C19.6114 15.1632 19.3813 14.9331 19.0974 14.9331C18.8136 14.9331 18.5835 15.1632 18.5835 15.447C18.5835 15.7309 18.8136 15.961 19.0974 15.961ZM17.5557 15.447C17.5557 15.7309 17.3256 15.961 17.0418 15.961C16.7579 15.961 16.5278 15.7309 16.5278 15.447C16.5278 15.1632 16.7579 14.9331 17.0418 14.9331C17.3256 14.9331 17.5557 15.1632 17.5557 15.447Z" fill="#363538"/>
</svg>
