<svg width="24" height="24" viewBox="0 0 24 24" fill="none" xmlns="http://www.w3.org/2000/svg">
<path d="M14.5 6.5C14.9142 6.5 15.25 6.83579 15.25 7.25V10.25C15.25 10.6642 14.9142 11 14.5 11H9.5C9.08579 11 8.75 10.6642 8.75 10.25V7.25C8.75 6.83579 9.08579 6.5 9.5 6.5H14.5Z" fill="#363538"/>
<path fill-rule="evenodd" clip-rule="evenodd" d="M15 2.75C17.2091 2.75 19 4.54086 19 6.75V17.25C19 19.4591 17.2091 21.25 15 21.25H9C6.79086 21.25 5 19.4591 5 17.25V6.75C5 4.54086 6.79086 2.75 9 2.75H15ZM9.25 17.5C8.83579 17.5 8.5 17.8358 8.5 18.25C8.5 18.6642 8.83579 19 9.25 19H9.25977C9.67398 19 10.0098 18.6642 10.0098 18.25C10.0098 17.8358 9.67398 17.5 9.25977 17.5H9.25ZM14.75 14.5C14.3358 14.5 14 14.8358 14 15.25V16H13.25C12.8358 16 12.5 16.3358 12.5 16.75C12.5 17.1642 12.8358 17.5 13.25 17.5H14V18.25C14 18.6642 14.3358 19 14.75 19C15.1642 19 15.5 18.6642 15.5 18.25V17.5H16.25C16.6642 17.5 17 17.1642 17 16.75C17 16.3358 16.6642 16 16.25 16H15.5V15.25C15.5 14.8358 15.1642 14.5 14.75 14.5ZM7.75488 15.9951C7.34067 15.9951 7.00488 16.3309 7.00488 16.7451V16.7549C7.00488 17.1691 7.34067 17.5049 7.75488 17.5049C8.1691 17.5049 8.50488 17.1691 8.50488 16.7549V16.7451C8.50488 16.3309 8.1691 15.9951 7.75488 15.9951ZM10.7549 15.9951C10.3407 15.9951 10.0049 16.3309 10.0049 16.7451V16.7549C10.0049 17.1691 10.3407 17.5049 10.7549 17.5049C11.1691 17.5049 11.5049 17.1691 11.5049 16.7549V16.7451C11.5049 16.3309 11.1691 15.9951 10.7549 15.9951ZM9.25 14.5C8.83579 14.5 8.5 14.8358 8.5 15.25C8.5 15.6642 8.83579 16 9.25 16H9.25977C9.67398 16 10.0098 15.6642 10.0098 15.25C10.0098 14.8358 9.67398 14.5 9.25977 14.5H9.25ZM9.5 5C8.25736 5 7.25 6.00736 7.25 7.25V10.25C7.25 11.4926 8.25736 12.5 9.5 12.5H14.5C15.7426 12.5 16.75 11.4926 16.75 10.25V7.25C16.75 6.00736 15.7426 5 14.5 5H9.5Z" fill="#363538"/>
</svg>
