<svg width="24" height="24" viewBox="0 0 24 24" fill="none" xmlns="http://www.w3.org/2000/svg">
<path fill-rule="evenodd" clip-rule="evenodd" d="M3.65608 8.64433L2.54951 16.2322C2.2598 18.2188 3.80009 20 5.8077 20C7.13556 20 8.33346 19.2024 8.8456 17.9773L9.48643 16.4444C9.79751 15.7002 10.5251 15.2157 11.3317 15.2157H12.6684C13.4749 15.2157 14.2026 15.7002 14.5136 16.4444L15.1545 17.9773C15.6666 19.2024 16.8645 20 18.1924 20C20.2 20 21.7403 18.2188 21.4506 16.2322L20.344 8.64433C19.9887 6.20799 17.5377 4.66796 15.1885 5.40497L14.5847 5.59441C14.1972 5.71597 13.7934 5.77782 13.3873 5.77782H10.6128C10.2067 5.77782 9.8029 5.71597 9.41541 5.59441L8.81157 5.40497C6.46236 4.66796 4.01138 6.20799 3.65608 8.64433ZM9.25 9.00006C9.25 8.58585 8.91421 8.25006 8.5 8.25006C8.08579 8.25006 7.75 8.58585 7.75 9.00006V9.75006H7C6.58579 9.75006 6.25 10.0858 6.25 10.5001C6.25 10.9143 6.58579 11.2501 7 11.2501H7.75V12.0001C7.75 12.4143 8.08579 12.7501 8.5 12.7501C8.91421 12.7501 9.25 12.4143 9.25 12.0001V11.2501H10C10.4142 11.2501 10.75 10.9143 10.75 10.5001C10.75 10.0858 10.4142 9.75006 10 9.75006H9.25V9.00006ZM16.5 8.75006C16.5 9.16427 16.1642 9.50006 15.75 9.50006C15.3358 9.50006 15 9.16427 15 8.75006C15 8.33585 15.3358 8.00006 15.75 8.00006C16.1642 8.00006 16.5 8.33585 16.5 8.75006ZM15.75 12.5001C16.1642 12.5001 16.5 12.1643 16.5 11.7501C16.5 11.3358 16.1642 11.0001 15.75 11.0001C15.3358 11.0001 15 11.3358 15 11.7501C15 12.1643 15.3358 12.5001 15.75 12.5001ZM18 10.2501C18 10.6643 17.6642 11.0001 17.25 11.0001C16.8358 11.0001 16.5 10.6643 16.5 10.2501C16.5 9.83585 16.8358 9.50006 17.25 9.50006C17.6642 9.50006 18 9.83585 18 10.2501ZM14.25 11.0001C14.6642 11.0001 15 10.6643 15 10.2501C15 9.83585 14.6642 9.50006 14.25 9.50006C13.8358 9.50006 13.5 9.83585 13.5 10.2501C13.5 10.6643 13.8358 11.0001 14.25 11.0001Z" fill="#363538"/>
</svg>
