<svg width="24" height="24" viewBox="0 0 24 24" fill="none" xmlns="http://www.w3.org/2000/svg">
<path d="M10.5508 15.0244C11.3392 14.1953 12.6608 14.1953 13.4492 15.0244L14.9492 16.6016C15.3027 16.9733 15.5 17.4675 15.5 17.9805V19.25C15.5 20.3546 14.6046 21.25 13.5 21.25H10.5C9.39543 21.25 8.5 20.3546 8.5 19.25V17.9805C8.5 17.4675 8.6973 16.9733 9.05078 16.6016L10.5508 15.0244Z" fill="#363538"/>
<path d="M6.01953 8.5C6.53252 8.5 7.02667 8.6973 7.39844 9.05078L8.97559 10.5508C9.80466 11.3392 9.80466 12.6608 8.97559 13.4492L7.39844 14.9492C7.02667 15.3027 6.53252 15.5 6.01953 15.5H4.75C3.64543 15.5 2.75 14.6046 2.75 13.5V10.5C2.75 9.39543 3.64543 8.5 4.75 8.5H6.01953Z" fill="#363538"/>
<path d="M19.25 8.5C20.3546 8.5 21.25 9.39543 21.25 10.5V13.5C21.25 14.6046 20.3546 15.5 19.25 15.5H17.9805C17.4675 15.5 16.9733 15.3027 16.6016 14.9492L15.0244 13.4492C14.1953 12.6608 14.1953 11.3392 15.0244 10.5508L16.6016 9.05078C16.9733 8.6973 17.4675 8.5 17.9805 8.5H19.25Z" fill="#363538"/>
<path d="M13.5 2.75C14.6046 2.75 15.5 3.64543 15.5 4.75V6.01953C15.5 6.53252 15.3027 7.02667 14.9492 7.39844L13.4492 8.97559C12.6608 9.80466 11.3392 9.80466 10.5508 8.97559L9.05078 7.39844C8.6973 7.02667 8.5 6.53252 8.5 6.01953V4.75C8.5 3.64543 9.39543 2.75 10.5 2.75H13.5Z" fill="#363538"/>
</svg>
