<svg width="24" height="24" viewBox="0 0 24 24" fill="none" xmlns="http://www.w3.org/2000/svg">
<path fill-rule="evenodd" clip-rule="evenodd" d="M3 4C3 2.89543 3.89543 2 5 2H14C15.1046 2 16 2.89543 16 4V14.0889C16.0624 14.0615 16.1287 14.0386 16.1986 14.0225C16.4057 13.9747 16.6511 13.9847 16.8874 14.1099C17.1078 14.2267 17.2493 14.4064 17.3401 14.5667C17.5111 14.8685 17.6018 15.2802 17.6588 15.7553C17.7185 16.2534 17.75 16.9128 17.75 17.7727C17.75 18.7127 17.9717 19.3108 18.235 19.6788C18.4956 20.0431 18.8303 20.2304 19.1584 20.3012C19.4999 20.375 19.8221 20.3199 20.0336 20.2118C20.2505 20.1009 20.2501 20.0029 20.25 20.0003V12.5003C20.25 12.3854 20.2344 12.3281 20.2266 12.3069C20.1659 12.278 20.0245 12.2525 19.6929 12.2504C19.6579 12.2502 19.6194 12.2502 19.5786 12.2502C19.458 12.2502 19.3175 12.2502 19.1911 12.2446C19.019 12.2369 18.801 12.2175 18.5877 12.1493C18.365 12.0781 18.1057 11.9398 17.9188 11.6693C17.7331 11.4007 17.6824 11.0936 17.6959 10.8072C17.7069 10.5745 17.7723 10.3779 17.8264 10.2392C17.8522 10.1732 17.8799 10.1096 17.9014 10.0603L17.9045 10.0531C17.9284 9.99816 17.9452 9.95916 17.9593 9.92259C18.0404 9.71263 18.0577 9.43133 18.0035 9.05843C17.9495 8.68718 17.8376 8.30097 17.7177 7.88718L17.7066 7.84861C17.5994 7.47879 17.4696 7.03103 17.4493 6.64447C17.4388 6.4436 17.4521 6.19033 17.5597 5.94171L16.876 4.91606C16.6462 4.5714 16.7394 4.10575 17.0841 3.87601C17.4287 3.64627 17.8944 3.73943 18.1241 4.0841L18.8185 5.12577C19.3746 5.01922 19.8956 5.09489 20.3483 5.38328C20.9149 5.74419 21.2226 6.34673 21.4006 6.89271C21.7504 7.96549 21.7502 9.31088 21.7501 9.96589L21.75 20.0003C21.75 20.7488 21.2484 21.2754 20.7165 21.5473C20.178 21.8227 19.5002 21.9096 18.8417 21.7674C18.1698 21.6223 17.5045 21.2357 17.0151 20.5516C16.5284 19.8713 16.25 18.9465 16.25 17.7727C16.25 16.9416 16.2191 16.3484 16.1694 15.9338C16.1608 15.8616 16.1517 15.796 16.1424 15.7367C16.0954 15.7458 16.0477 15.7503 16 15.7503V20C16 21.1046 15.1046 22 14 22H5C3.89543 22 3 21.1046 3 20V4ZM5.5 7C5.5 5.89543 6.39543 5 7.5 5H11.5C12.6046 5 13.5 5.89543 13.5 7V11C13.5 12.1046 12.6046 13 11.5 13H7.5C6.39543 13 5.5 12.1046 5.5 11V7Z" fill="#363538"/>
</svg>
