<svg width="24" height="24" viewBox="0 0 24 24" fill="none" xmlns="http://www.w3.org/2000/svg">
<path d="M8.88379 3.75H6.23596C5.47841 3.75 4.78589 4.178 4.4471 4.85557L2.3562 9.03738L6.52157 9.53722L8.88379 3.75Z" fill="#363538"/>
<path d="M2.6798 10.587L8.82818 18.1556L6.43972 11.0382L2.6798 10.587Z" fill="#363538"/>
<path d="M12.9171 20.1596C12.3219 20.3495 11.6781 20.3495 11.0829 20.1596L8.06878 11.1778C10.687 11.3403 13.3128 11.3403 15.931 11.1778L12.9171 20.1596Z" fill="#363538"/>
<path d="M15.1718 18.1554L21.32 10.587L17.5601 11.0382L15.1718 18.1554Z" fill="#363538"/>
<path d="M21.6436 9.03738L19.5527 4.85557C19.2139 4.178 18.5214 3.75 17.7638 3.75H15.1162L17.4782 9.53722L21.6436 9.03738Z" fill="#363538"/>
<path d="M13.496 3.75H10.5039L8.08513 9.67587C10.6924 9.84095 13.3074 9.84095 15.9147 9.67586L13.496 3.75Z" fill="#363538"/>
</svg>
