<svg width="24" height="24" viewBox="0 0 24 24" fill="none" xmlns="http://www.w3.org/2000/svg">
<path d="M13.5356 5.12109C13.5356 4.70688 13.8714 4.37109 14.2856 4.37109H18.5283C18.7272 4.37109 18.9179 4.45011 19.0586 4.59076C19.1993 4.73142 19.2783 4.92218 19.2783 5.12109V9.36373C19.2783 9.77795 18.9425 10.1137 18.5283 10.1137C18.1141 10.1137 17.7783 9.77795 17.7783 9.36373V6.93175L13.7331 10.9769C14.3712 11.8165 14.75 12.8639 14.75 13.9998C14.75 16.7612 12.5114 18.9998 9.75 18.9998C6.98858 18.9998 4.75 16.7612 4.75 13.9998C4.75 11.2383 6.98858 8.99976 9.75 8.99976C10.8343 8.99976 11.8381 9.34493 12.6573 9.9314L16.7176 5.87109H14.2856C13.8714 5.87109 13.5356 5.53531 13.5356 5.12109Z" fill="#363538"/>
</svg>
