<svg width="24" height="24" viewBox="0 0 24 24" fill="none" xmlns="http://www.w3.org/2000/svg">
<path fill-rule="evenodd" clip-rule="evenodd" d="M12.4996 2.5C16.5496 2.5 19.7468 5.9425 19.6978 9.99219C19.6655 12.6674 19.7219 15.6085 19.9996 18C20.0566 18.4912 20.1378 19.08 20.2174 19.6328C20.3583 20.6136 19.6019 21.4999 18.6109 21.5H18.4996C17.7232 21.4997 17.0842 20.9096 17.0074 20.1533L16.9918 19.8467C16.915 19.0903 16.2762 18.5 15.4996 18.5C14.7232 18.5003 14.0842 19.0904 14.0074 19.8467L13.9918 20.1533C13.915 20.9097 13.2762 21.5 12.4996 21.5C11.7232 21.4997 11.0842 20.9096 11.0074 20.1533L10.9918 19.8467C10.915 19.0903 10.2762 18.5 9.4996 18.5C8.72317 18.5003 8.08418 19.0904 8.00741 19.8467L7.99179 20.1533C7.91497 20.9097 7.27625 21.5 6.4996 21.5H6.38925C5.39831 21.4999 4.64188 20.6136 4.7828 19.6328C4.86241 19.08 4.94257 18.4912 4.9996 18C5.27726 15.6085 5.33464 12.6674 5.30233 9.99219C5.25343 5.94268 8.44988 2.50031 12.4996 2.5ZM9.9996 9C9.17142 9.00029 8.4996 9.67175 8.4996 10.5C8.4996 11.3282 9.17142 11.9997 9.9996 12C10.828 12 11.4996 11.3284 11.4996 10.5C11.4996 9.67157 10.828 9 9.9996 9ZM14.9996 9C14.1714 9.00029 13.4996 9.67175 13.4996 10.5C13.4996 11.3282 14.1714 11.9997 14.9996 12C15.828 12 16.4996 11.3284 16.4996 10.5C16.4996 9.67157 15.828 9 14.9996 9Z" fill="#363538"/>
</svg>
