<svg width="24" height="24" viewBox="0 0 24 24" fill="none" xmlns="http://www.w3.org/2000/svg">
<path fill-rule="evenodd" clip-rule="evenodd" d="M6 3H18C20.2091 3 22 4.79086 22 7V17C22 19.2091 20.2091 21 18 21H6C3.79086 21 2 19.2091 2 17V7C2 4.79086 3.79086 3 6 3ZM9.81675 11.3087C9.68301 11.3087 9.56932 11.218 9.51054 11.0979C9.48759 11.051 9.46199 11.0067 9.43375 10.9651C9.36628 10.8639 9.28371 10.7787 9.18606 10.7094C9.09018 10.6384 8.98009 10.5842 8.8558 10.5469C8.73329 10.5097 8.59746 10.491 8.44831 10.491C8.16954 10.491 7.92452 10.5603 7.71322 10.6988C7.50371 10.8372 7.34035 11.0388 7.22317 11.3033C7.10598 11.5661 7.04739 11.8875 7.04739 12.2675C7.04739 12.6474 7.10509 12.9706 7.2205 13.2369C7.33592 13.5033 7.49927 13.7066 7.71056 13.8468C7.92185 13.9853 8.17132 14.0546 8.45896 14.0546C8.71997 14.0546 8.9428 14.0084 9.12746 13.9161C9.3139 13.822 9.45594 13.6897 9.5536 13.5192C9.64807 13.3573 9.69766 13.1673 9.70238 12.9493H8.62711C8.57396 12.9493 8.53087 12.9062 8.53087 12.853V12.381C8.53087 12.2153 8.66519 12.081 8.83087 12.081H10.5134C10.6791 12.081 10.8134 12.2153 10.8134 12.381V12.7682C10.8134 13.2476 10.7122 13.6595 10.5097 14.004C10.3073 14.3467 10.0286 14.6112 9.67345 14.7977C9.31834 14.9823 8.91173 15.0746 8.45364 15.0746C7.94227 15.0746 7.49305 14.9619 7.10598 14.7364C6.71891 14.5091 6.41706 14.1869 6.20044 13.7696C5.9856 13.3506 5.87817 12.8534 5.87817 12.2781C5.87817 11.836 5.94209 11.4418 6.06994 11.0956C6.19955 10.7476 6.38066 10.4528 6.61326 10.2114C6.84586 9.96988 7.11663 9.78611 7.42558 9.66005C7.73453 9.53398 8.06922 9.47095 8.42967 9.47095C8.73861 9.47095 9.02626 9.51622 9.29259 9.60678C9.55893 9.69556 9.79508 9.82162 10.001 9.98497C10.2088 10.1483 10.3784 10.3428 10.5097 10.5682C10.5846 10.6956 10.6441 10.8305 10.6884 10.9729C10.7425 11.1467 10.6005 11.3087 10.4185 11.3087H9.81675ZM12.5329 9.54552C12.6985 9.54552 12.8329 9.67984 12.8329 9.84552V14.7001C12.8329 14.8658 12.6985 15.0001 12.5329 15.0001H11.9796C11.8139 15.0001 11.6796 14.8658 11.6796 14.7001V9.84552C11.6796 9.67984 11.8139 9.54552 11.9796 9.54552H12.5329ZM13.7817 14.7001C13.7817 14.8658 13.916 15.0001 14.0817 15.0001H14.6349C14.8006 15.0001 14.9349 14.8658 14.9349 14.7001V13.0469C14.9349 12.8812 15.0692 12.7469 15.2349 12.7469H16.8535C17.0192 12.7469 17.1535 12.6126 17.1535 12.4469V12.0961C17.1535 11.9304 17.0192 11.7961 16.8535 11.7961H15.2349C15.0692 11.7961 14.9349 11.6617 14.9349 11.4961V10.7963C14.9349 10.6307 15.0692 10.4963 15.2349 10.4963H17.0932C17.2589 10.4963 17.3932 10.362 17.3932 10.1963V9.84552C17.3932 9.67984 17.2589 9.54552 17.0932 9.54552H14.0817C13.916 9.54552 13.7817 9.67984 13.7817 9.84552V14.7001Z" fill="#363538"/>
</svg>
