<svg width="24" height="24" viewBox="0 0 24 24" fill="none" xmlns="http://www.w3.org/2000/svg">
<path fill-rule="evenodd" clip-rule="evenodd" d="M8.13961 4.24594L10.8629 6.18881C10.8928 6.21013 10.9231 6.23053 10.9537 6.25H13.0463C13.0769 6.23053 13.1072 6.21013 13.137 6.18881L15.8604 4.24594C16.3785 3.87633 17.0597 3.92753 17.526 4.37114C18.0731 4.89157 18.1149 5.674 17.8131 6.25H20C20.9665 6.25 21.75 7.0335 21.75 8V10C21.75 10.9665 20.9665 11.75 20 11.75H19.5V18C19.5 19.6569 18.1569 21 16.5 21H7.5C5.84315 21 4.5 19.6569 4.5 18V11.75H4C3.0335 11.75 2.25 10.9665 2.25 10V8C2.25 7.0335 3.0335 6.25 4 6.25H6.18686C5.88512 5.674 5.92685 4.89157 6.47397 4.37114C6.94032 3.92753 7.62152 3.87633 8.13961 4.24594ZM7.88794 14.2007V11.75H9.38794V14.2007C9.38794 14.3753 9.57563 14.5046 9.74832 14.4251C11.0089 13.8449 12.4739 13.8449 13.7345 14.4251C13.9071 14.5046 14.0948 14.3753 14.0948 14.2007V11.75H15.5948V14.2007C15.5948 15.4848 14.2596 16.3182 13.1072 15.7877C12.2448 15.3907 11.238 15.3907 10.3755 15.7877C9.22316 16.3182 7.88794 15.4848 7.88794 14.2007Z" fill="#363538"/>
</svg>
