<svg width="24" height="24" viewBox="0 0 24 24" fill="none" xmlns="http://www.w3.org/2000/svg">
<path d="M11.416 17.876C11.0713 17.6463 10.6057 17.7394 10.3759 18.0841C10.1462 18.4287 10.2393 18.8944 10.5839 19.1241C11.7442 19.8976 13.2557 19.8976 14.416 19.1241C14.7606 18.8944 14.8538 18.4287 14.624 18.0841C14.3942 17.7394 13.9286 17.6463 13.5839 17.876C12.9275 18.3136 12.0724 18.3136 11.416 17.876Z" fill="#363538"/>
<path fill-rule="evenodd" clip-rule="evenodd" d="M11.7106 2.00104C11.7486 1.99904 11.7868 1.99993 11.8247 2.00372C15.7102 2.39229 18.3645 3.65251 19.9664 6.50804C21.5097 9.25929 21.9997 13.3798 21.9997 19.2498C21.9997 19.5899 21.7709 19.8874 21.4422 19.9747C21.1135 20.062 20.7673 19.9172 20.5985 19.6219C20.5469 19.5316 20.49 19.4338 20.4288 19.3288C20.1253 18.8077 19.7192 18.1105 19.3579 17.2809C18.752 18.8343 17.7721 19.9106 16.6595 20.6362C14.8593 21.8103 12.8148 21.9998 11.75 21.9998C10.3901 21.9998 9.20367 21.7279 8.1503 21.1601C7.36126 20.7348 6.67133 20.1566 6.04927 19.4428C5.08422 20.5054 3.99886 21.2107 2.9319 21.4774C2.6313 21.5526 2.31544 21.4351 2.13694 21.1819C1.95845 20.9286 1.95408 20.5916 2.12595 20.3338C2.31723 20.0469 2.39536 19.8274 2.42701 19.5589C2.4631 19.2528 2.44179 18.8652 2.3785 18.214C2.36455 18.0704 2.34898 17.9174 2.33233 17.7538C2.20016 16.4551 2.00002 14.4885 2.00003 11.2498C2.00004 7.49893 3.58399 5.1807 5.64814 3.81236C7.66327 2.47651 10.0684 2.08747 11.7106 2.00104ZM6.99067 18.232C7.57093 18.9467 8.18446 19.4744 8.86206 19.8397C9.6636 20.2718 10.598 20.4998 11.75 20.4998C12.6849 20.4998 14.3904 20.3253 15.8401 19.3798C17.1305 18.5382 18.3089 17.0286 18.4788 14.213C17.9466 14.1721 17.4251 14.101 16.9161 14.0041C16.9704 14.1593 17 14.3262 17 14.5C17 15.3284 16.3284 16 15.5 16C14.6716 16 14 15.3284 14 14.5C14 14.037 14.2098 13.623 14.5394 13.3479C12.4619 12.5946 10.7023 11.4795 9.43901 10.4302C9.37039 11.3621 9.24543 12.2398 9.07329 13.0616C9.20854 13.0215 9.35176 13 9.5 13C10.3284 13 11 13.6716 11 14.5C11 15.3284 10.3284 16 9.5 16C9.05206 16 8.64997 15.8037 8.37512 15.4923C7.98606 16.5336 7.51456 17.4485 6.99067 18.232Z" fill="#363538"/>
</svg>
