<svg width="24" height="24" viewBox="0 0 24 24" fill="none" xmlns="http://www.w3.org/2000/svg">
<path d="M14.5 21.685C18.8131 20.5749 22 16.6596 22 12C22 6.47715 17.5228 2 12 2C6.47715 2 2 6.47715 2 12C2 16.6596 5.18693 20.5748 9.5 21.685V19.2684C8.66667 19.437 6.8 19.4707 6 18.2569C5.2 17.0432 4.66667 16.4026 4.5 16.234C4.66667 15.8968 5.3 15.5259 6.5 16.7397C8 18.2569 9.5 18.4665 9.5 17.7513C9.58773 17.3076 9.73333 16.8509 10.2571 16.7569C9.279 16.7484 5.91031 16.3383 5.5 12.1881C5.5 9.65956 6.5 9.15383 6.5 9.15383C6.5 9.15383 5.5 8.64808 6.5 6.11937C6.5 6.11937 7.43484 5.96351 8 6.11937C8.67915 6.30667 9.5 7.13045 9.5 7.13045C9.5 7.13045 10.5 6.62498 12 6.6247C13.5 6.62498 14.5 7.13035 14.5 7.13035C14.5 7.13035 15.3209 6.30657 16 6.11927C16.5652 5.96341 17.5 6.11927 17.5 6.11927C18.5 8.64798 17.5 9.15373 17.5 9.15373C17.5 9.15373 18.5 9.65946 18.5 12.188C18.0822 16.4141 14.5968 16.7556 13.6917 16.7537C14.2541 16.8636 14.4996 17.5829 14.5 21.685Z" fill="#363538"/>
</svg>
