<svg width="24" height="24" viewBox="0 0 24 24" fill="none" xmlns="http://www.w3.org/2000/svg">
<path fill-rule="evenodd" clip-rule="evenodd" d="M11.0303 7.46967C11.3232 7.76256 11.3232 8.23744 11.0303 8.53033C10.7374 8.82322 10.2626 8.82322 9.96967 8.53033L8.96967 7.53033C8.71687 7.27753 8.67765 6.88144 8.87596 6.58397L9.6506 5.42201L8.31064 2.29544C8.26931 2.19899 8.24976 2.09868 8.24981 2H6.21569C6.09657 2 6 2.09657 6 2.21569V7C6 10.0597 8.29027 12.5845 11.25 12.9536V18.5365L9.55902 19.382C8.37924 19.9719 8.79901 21.75 10.118 21.75H13.882C15.201 21.75 15.6208 19.9719 14.441 19.382L12.75 18.5365V12.9536C15.7097 12.5845 18 10.0597 18 7V2.21569C18 2.09657 17.9034 2 17.7843 2H9.81598L11.1894 5.20456C11.2892 5.43752 11.2646 5.70514 11.124 5.91603L10.4651 6.90444L11.0303 7.46967ZM11.1771 20.25L12 19.8385L12.8229 20.25H11.1771Z" fill="#363538"/>
</svg>
