<svg width="24" height="24" viewBox="0 0 24 24" fill="none" xmlns="http://www.w3.org/2000/svg">
<path d="M16.1026 15.3233L16.0995 15.3272L16.1037 15.3224L16.1047 15.321L16.1026 15.3233Z" fill="#363538"/>
<path fill-rule="evenodd" clip-rule="evenodd" d="M12 22C17.5228 22 22 17.5228 22 12C22 6.47715 17.5228 2 12 2C6.47715 2 2 6.47715 2 12C2 12.2524 2.00935 12.5026 2.02772 12.7503H2.99999C4.59105 12.7503 5.88236 13.7644 6.61325 15.0399C7.34474 16.3164 7.59376 17.978 6.9993 19.4715C6.92657 19.6636 6.76834 20.0174 6.5397 20.379C8.10956 21.4041 9.98519 22 12 22ZM21.5866 9.14532C21.4863 9.15703 21.3821 9.14858 21.2794 9.11699L17.1026 7.83192C16.6622 7.69645 16.2727 7.4483 15.9376 7.18974C15.6127 6.93908 15.2987 6.64604 15.0152 6.38141L14.9881 6.35612C14.686 6.0742 14.4163 5.82439 14.1488 5.62109C13.881 5.41759 13.6575 5.29428 13.4638 5.23852C12.9175 5.08124 12.2438 4.96722 11.509 4.84288C11.3953 4.82363 11.28 4.80412 11.1635 4.78417C10.3458 4.6441 9.45641 4.48012 8.75583 4.20993L6.78448 3.61852C6.73274 3.603 6.68391 3.58239 6.63838 3.5574C7.24839 3.1692 7.90331 2.84529 8.59361 2.59521L9.24538 2.79075L9.27442 2.80216C9.81245 3.0137 10.5626 3.15938 11.4168 3.30571C11.5262 3.32444 11.6373 3.34319 11.7495 3.36213C12.4737 3.48431 13.2438 3.61423 13.8788 3.79708C14.3246 3.92542 14.7182 4.1699 15.0563 4.42677C15.3946 4.68383 15.7195 4.98696 16.0115 5.25942L16.0126 5.26049C16.3157 5.54328 16.5854 5.79496 16.8539 6.00215C17.1229 6.20973 17.348 6.33805 17.5436 6.39823L20.8969 7.4299C21.1773 7.97454 21.4091 8.54825 21.5866 9.14532ZM8.52135 7C7.47339 7 6.60338 8.27109 6.17774 9.14821C6.06665 9.37712 6.02254 9.63092 6.01623 9.88528C6.01402 9.9746 6.01136 10.0589 6.00884 10.1388C5.97829 11.1077 5.96855 11.4166 7.02135 12C8.27675 12.6957 8.49999 12.7133 8.99999 12.7133C9.45688 12.7133 10.3602 13.3705 10.0214 14.5C9.52135 16.1667 10.5214 19.5 12.0214 18.5C13.5136 17.5052 13.9053 15.1736 14.1482 13.7275C14.27 13.0025 14.3544 12.5 14.5214 12.5C14.8289 12.5 15.3532 11.8318 15.7306 11.266C15.9289 10.9687 16.0619 10.575 15.8258 10.3067C15.6763 10.1368 15.4254 10 15.0214 10C14.3532 10 13.6385 9.30238 13.2269 8.78115C13.086 8.60276 13.0214 8.3787 13.0214 8.15139C13.0214 7.51549 12.5059 7 11.87 7H8.52135ZM16.8776 14.2956C17.2116 14.4177 17.4063 14.7524 17.3647 15.0908C17.4259 15.1915 17.5378 15.4086 17.5124 15.6938C17.4835 16.0189 17.2965 16.2518 17.1504 16.3979C17.0057 16.5426 16.9009 16.6935 16.8299 16.8207C16.7946 16.884 16.7689 16.9391 16.7517 16.9812C16.7368 17.0177 16.7305 17.0387 16.7293 17.0428C16.6325 17.4455 16.2276 17.6936 15.8249 17.5969C15.4221 17.5002 15.174 17.0952 15.2707 16.6925C15.3332 16.4325 15.5283 15.9791 15.9046 15.5378C15.9007 15.5272 15.897 15.5164 15.8934 15.5054C15.8139 15.2631 15.8202 15.0037 15.9157 14.7425C16.0579 14.3534 16.4886 14.1534 16.8776 14.2956Z" fill="#363538"/>
<path d="M5.34213 19.4616C5.46141 19.2562 5.55318 19.0559 5.59781 18.9369L5.60067 18.9293L5.60368 18.9217C6.00552 17.9171 5.85414 16.7321 5.31179 15.7856C4.76765 14.8361 3.90894 14.2503 2.99999 14.2503H2.2542C2.72541 16.2994 3.82625 18.108 5.34213 19.4616Z" fill="#363538"/>
</svg>
