<svg width="24" height="24" viewBox="0 0 24 24" fill="none" xmlns="http://www.w3.org/2000/svg">
<path d="M11.25 2.02759C10.0062 2.11981 8.8257 2.43955 7.75 2.94534V6.82727C8.95219 6.56828 10.1905 6.35344 11.25 6.27844V2.02759Z" fill="#363538"/>
<path d="M11.25 7.78231C10.2243 7.86351 8.98004 8.08887 7.75 8.36306V15.6367C8.98004 15.9109 10.2243 16.1363 11.25 16.2175V7.78231Z" fill="#363538"/>
<path d="M12.75 16.2175V7.78231C13.7757 7.86351 15.02 8.08887 16.25 8.36306V15.6367C15.02 15.9109 13.7757 16.1363 12.75 16.2175Z" fill="#363538"/>
<path d="M11.25 17.7213C10.1905 17.6463 8.95219 17.4315 7.75 17.1725V21.0544C8.8257 21.5602 10.0062 21.88 11.25 21.9722V17.7213Z" fill="#363538"/>
<path d="M12.75 21.9722V17.7213C13.8095 17.6463 15.0478 17.4315 16.25 17.1725V21.0544C15.1743 21.5602 13.9938 21.88 12.75 21.9722Z" fill="#363538"/>
<path d="M12.75 6.27844V2.02759C13.9938 2.11981 15.1743 2.43955 16.25 2.94534V6.82727C15.0478 6.56828 13.8095 6.35344 12.75 6.27844Z" fill="#363538"/>
<path d="M21.2236 15.87C20.4908 17.6142 19.2778 19.1069 17.75 20.1824V16.8249C17.8825 16.7922 18.0133 16.7595 18.1419 16.7269C19.1394 16.474 20.0342 16.2214 20.6796 16.032C20.8885 15.9708 21.0715 15.916 21.2236 15.87Z" fill="#363538"/>
<path d="M17.7733 15.2729L17.75 15.2788V8.72098L17.7733 8.72689C18.7483 8.97404 19.6247 9.22142 20.2573 9.40705C20.5735 9.49981 20.8283 9.57701 21.0036 9.63088C21.0913 9.6578 21.159 9.67889 21.2046 9.69316L21.256 9.70932L21.2687 9.71333L21.7736 9.87414C21.9219 10.5592 22 11.2704 22 11.9999C22 12.7293 21.9219 13.4406 21.7736 14.1256L21.256 14.2905L21.2046 14.3066C21.159 14.3209 21.0913 14.342 21.0036 14.3689C20.8283 14.4228 20.5735 14.5 20.2573 14.5927C19.6247 14.7784 18.7483 15.0257 17.7733 15.2729Z" fill="#363538"/>
<path d="M18.1419 7.27288C18.0133 7.24027 17.8825 7.20754 17.75 7.17487V3.81733C19.2778 4.89292 20.4908 6.38558 21.2236 8.12977C21.0715 8.08374 20.8885 8.02901 20.6796 7.96772C20.0342 7.77836 19.1394 7.52573 18.1419 7.27288Z" fill="#363538"/>
<path d="M6.25 20.1824V16.8249C6.1175 16.7922 5.98674 16.7595 5.85808 16.7269C4.8606 16.474 3.96576 16.2214 3.32036 16.032C3.11147 15.9708 2.92851 15.916 2.77643 15.87C3.50916 17.6142 4.72219 19.1069 6.25 20.1824Z" fill="#363538"/>
<path d="M6.25 15.2788L6.22666 15.2729C5.25168 15.0257 4.37534 14.7784 3.74267 14.5927C3.42653 14.5 3.1717 14.4228 2.99638 14.3689C2.90874 14.342 2.84099 14.3209 2.79543 14.3066L2.74402 14.2905L2.73133 14.2864L2.22641 14.1256C2.0781 13.4406 2 12.7293 2 11.9999C2 11.2704 2.0781 10.5592 2.22641 9.87414L2.73133 9.71333L2.74402 9.70932L2.79543 9.69316C2.84099 9.67889 2.90874 9.6578 2.99638 9.63088C3.1717 9.57701 3.42653 9.49981 3.74267 9.40705C4.37534 9.22142 5.25168 8.97404 6.22666 8.72689L6.25 8.72098V15.2788Z" fill="#363538"/>
<path d="M6.25 3.81733V7.17487C6.1175 7.20754 5.98674 7.24027 5.85808 7.27288C4.8606 7.52573 3.96576 7.77836 3.32036 7.96772C3.11147 8.02902 2.92851 8.08374 2.77644 8.12977C3.50916 6.38558 4.72219 4.89292 6.25 3.81733Z" fill="#363538"/>
</svg>
