<svg width="24" height="24" viewBox="0 0 24 24" fill="none" xmlns="http://www.w3.org/2000/svg">
<path fill-rule="evenodd" clip-rule="evenodd" d="M7.5009 12.335C17.0162 8.11472 21.0007 13.1211 21.0009 16C21.0009 17.9998 20.575 20.3877 16.1357 19.5C13.636 19.0001 13.1353 18.5001 11.6357 18.5C9.13594 18.5002 9.49997 21.9995 5.63566 20.5C3.38996 19.6283 1.44429 16.786 4.5009 14.1318V16C4.50108 16.8283 5.17258 17.5 6.0009 17.5C6.82891 17.4997 7.50071 16.8281 7.5009 16V12.335ZM18.0009 14C17.4487 14 17.001 14.4478 17.0009 15C17.001 15.5522 17.4487 16 18.0009 16C18.5528 15.9997 19.0008 15.552 19.0009 15C19.0008 14.448 18.5528 14.0003 18.0009 14Z" fill="#363538"/>
<path d="M6.03605 2.25098C6.0516 2.25151 6.07106 2.25238 6.09367 2.25391C6.13901 2.25697 6.199 2.26261 6.27336 2.27246C6.42226 2.2922 6.63034 2.32915 6.90129 2.39844C7.44366 2.53718 8.24018 2.80533 9.32316 3.32324C10.4183 3.84702 11.2127 4.37553 11.7402 4.78027C12.0036 4.98244 12.2006 5.15379 12.3349 5.27832C12.4018 5.34042 12.4538 5.3909 12.4902 5.42773L12.4931 5.43066C12.5099 5.44767 12.524 5.46197 12.5341 5.47266C12.5394 5.47821 12.5433 5.48354 12.5468 5.4873L12.5546 5.49512L12.6181 5.57422C12.7508 5.76682 12.7864 6.01286 12.7109 6.23828C12.6353 6.46376 12.4583 6.63824 12.2362 6.71191L12.1386 6.7373L12.1337 6.73828C12.1301 6.73897 12.1242 6.73983 12.1171 6.74121L12.0487 6.75488C11.9887 6.76683 11.9006 6.78438 11.7909 6.80762C11.5704 6.85434 11.2622 6.92289 10.9159 7.00879C10.299 7.16188 9.59389 7.36203 9.03703 7.58594L8.80852 7.68359C8.34163 7.89432 7.75426 8.24473 7.26457 8.55762C7.06617 8.68439 6.88948 8.80258 6.74992 8.89648V16C6.74992 16.4142 6.41413 16.75 5.99992 16.75C5.5858 16.7499 5.24992 16.4141 5.24992 16V3C5.24992 2.58585 5.5858 2.2501 5.99992 2.25H6.01555C6.02148 2.2501 6.02843 2.25071 6.03605 2.25098Z" fill="#363538"/>
</svg>
