<svg width="24" height="24" viewBox="0 0 24 24" fill="none" xmlns="http://www.w3.org/2000/svg">
<path d="M5 13.25C6.51878 13.25 7.75 14.4812 7.75 16C7.75 17.2584 6.90373 18.3158 5.75 18.6426V20.2949C6.04093 20.3981 6.25 20.6737 6.25 21C6.25 21.4142 5.91421 21.75 5.5 21.75H4.5C4.08579 21.75 3.75 21.4142 3.75 21C3.75 20.6737 3.95907 20.3981 4.25 20.2949V18.6426C3.09627 18.3158 2.25 17.2584 2.25 16C2.25 14.4812 3.48122 13.25 5 13.25Z" fill="#363538"/>
<path d="M17.7539 3C18.3934 3 18.8682 3.59257 18.7295 4.2168L15.5225 18.6504C15.2175 20.0229 13.9997 20.9999 12.5938 21H11.5C10.3954 21 9.5 20.1046 9.5 19C9.5 17.8954 10.3954 17 11.5 17H12.2461C12.6924 16.9998 13.0844 16.7036 13.207 16.2744L16.793 3.72461C16.9157 3.2957 17.3078 3.00002 17.7539 3Z" fill="#363538"/>
</svg>
