<svg width="24" height="24" viewBox="0 0 24 24" fill="none" xmlns="http://www.w3.org/2000/svg">
<path d="M13.7558 20.8271C15.798 20.4208 17.6362 19.3191 18.9571 17.7095C20.1705 16.231 20.8785 14.4081 20.9857 12.5072C20.9952 12.3387 21 12.1695 21 12V11.1H12V13.35H18.1537C17.942 14.315 17.5048 15.2232 16.87 15.9967C15.9453 17.1234 14.6586 17.8946 13.2291 18.1789C11.7995 18.4633 10.3156 18.2432 9.0302 17.5561C7.74477 16.869 6.73734 15.7575 6.17956 14.4109C5.62179 13.0643 5.54818 11.566 5.97128 10.1712C6.39438 8.77643 7.28801 7.57151 8.49991 6.76175C9.71181 5.95199 11.167 5.58748 12.6175 5.73035C14.068 5.87321 15.4241 6.5146 16.4548 7.54523L18.364 5.63605C16.8916 4.16371 14.9543 3.24744 12.8822 3.04335C10.81 2.83926 8.73115 3.35998 6.99987 4.51679C5.26859 5.67359 3.99197 7.39491 3.38754 9.38744C2.78311 11.38 2.88826 13.5204 3.68509 15.4441C4.48191 17.3678 5.9211 18.9557 7.75743 19.9373C9.59377 20.9188 11.7136 21.2333 13.7558 20.8271Z" fill="#363538"/>
</svg>
