<svg width="24" height="24" viewBox="0 0 24 24" fill="none" xmlns="http://www.w3.org/2000/svg">
<path fill-rule="evenodd" clip-rule="evenodd" d="M20.4697 2.46973C20.7626 2.17683 21.2374 2.17683 21.5303 2.46973C21.8232 2.76262 21.8232 3.23738 21.5303 3.53027L3.53027 21.5303C3.23738 21.8232 2.76262 21.8232 2.46973 21.5303C2.17683 21.2374 2.17683 20.7626 2.46973 20.4697L6.5498 16.3887C5.72858 15.3706 5.18557 14.1187 5.04004 12.7471C5.02675 12.7478 5.01347 12.75 5 12.75H3C2.58579 12.75 2.25 12.4142 2.25 12C2.25 11.5858 2.58579 11.25 3 11.25H5C5.01345 11.25 5.02677 11.2513 5.04004 11.252C5.38729 7.98351 7.98351 5.38729 11.252 5.04004C11.2513 5.02677 11.25 5.01345 11.25 5V3C11.25 2.58579 11.5858 2.25 12 2.25C12.4142 2.25 12.75 2.58579 12.75 3V5C12.75 5.01347 12.7478 5.02675 12.7471 5.04004C14.1187 5.18557 15.3706 5.72858 16.3887 6.5498L20.4697 2.46973ZM12 8C9.79086 8 8 9.79086 8 12C8 12.8333 8.2554 13.6066 8.69141 14.2471L9.78418 13.1543C9.60374 12.8088 9.5 12.4168 9.5 12C9.5 10.6193 10.6193 9.5 12 9.5C12.4168 9.5 12.8088 9.60374 13.1543 9.78418L14.2471 8.69141C13.6066 8.2554 12.8333 8 12 8Z" fill="#363538"/>
<path d="M18.2773 8.90332C18.6338 9.62478 18.8702 10.4162 18.959 11.252C18.9726 11.2512 18.9862 11.25 19 11.25H21C21.4142 11.25 21.75 11.5858 21.75 12C21.75 12.4142 21.4142 12.75 21 12.75H19C18.9862 12.75 18.9726 12.7478 18.959 12.7471C18.6121 16.0162 16.0162 18.6121 12.7471 18.959C12.7478 18.9726 12.75 18.9862 12.75 19V21C12.75 21.4142 12.4142 21.75 12 21.75C11.5858 21.75 11.25 21.4142 11.25 21V19C11.25 18.9862 11.2512 18.9726 11.252 18.959C10.4162 18.8702 9.62478 18.6338 8.90332 18.2773L11.252 15.9287C11.4944 15.9746 11.7442 16 12 16C14.2091 16 16 14.2091 16 12C16 11.7442 15.9746 11.4944 15.9287 11.252L18.2773 8.90332Z" fill="#363538"/>
</svg>
