<svg width="24" height="24" viewBox="0 0 24 24" fill="none" xmlns="http://www.w3.org/2000/svg">
<path d="M12.9287 2.69642C12.3607 2.34078 11.6395 2.34078 11.0714 2.69642L3.01544 7.74017C1.8954 8.44141 1.9269 10.0835 3.07301 10.7412L11.129 15.3647C11.6685 15.6743 12.3317 15.6743 12.8712 15.3647L20.2501 11.1298V14.9997C20.2501 15.4139 20.5859 15.7497 21.0001 15.7497C21.4143 15.7497 21.7501 15.4139 21.7501 14.9997V9.66584C21.9298 8.96773 21.6776 8.17395 20.9847 7.74017L12.9287 2.69642Z" fill="#363538"/>
<path d="M5.87338 13.4838C5.64129 13.3506 5.3558 13.3511 5.12422 13.4852C4.89264 13.6193 4.75006 13.8667 4.75006 14.1343V18.3524C4.75006 19.6762 6.135 20.4874 7.28666 19.9988C8.64749 19.4214 10.5618 18.7499 12.0001 18.7499C13.4383 18.7499 15.3526 19.4214 16.7135 19.9988C17.8651 20.4874 19.2501 19.6762 19.2501 18.3524V14.1343C19.2501 13.8667 19.1075 13.6194 18.8759 13.4853C18.6443 13.3512 18.3588 13.3506 18.1267 13.4838L12.4979 16.7143C12.1896 16.8912 11.8106 16.8912 11.5023 16.7143L5.87338 13.4838Z" fill="#363538"/>
</svg>
