<svg width="24" height="24" viewBox="0 0 24 24" fill="none" xmlns="http://www.w3.org/2000/svg">
<path d="M7 17.5C7.41411 17.5001 7.75 17.8359 7.75 18.25C7.75 18.6641 7.41411 18.9999 7 19C6.59805 19 6.3229 19.19 6.10547 19.6162C5.8689 20.0801 5.75 20.7585 5.75 21.5C5.75 21.9142 5.41421 22.25 5 22.25C4.58579 22.25 4.25 21.9142 4.25 21.5C4.25 20.7585 4.13112 20.0801 3.89453 19.6162C3.6771 19.19 3.40211 19 3 19C2.58579 19 2.25 18.6642 2.25 18.25C2.25 17.8358 2.58579 17.5 3 17.5C3.9153 17.5 4.57089 17.942 5 18.5518C5.42907 17.942 6.08478 17.5 7 17.5Z" fill="#363538"/>
<path d="M14 17.5C14.4141 17.5001 14.75 17.8359 14.75 18.25C14.75 18.6641 14.4141 18.9999 14 19C13.598 19 13.3229 19.19 13.1055 19.6162C12.8689 20.0801 12.75 20.7585 12.75 21.5C12.75 21.9142 12.4142 22.25 12 22.25C11.5858 22.25 11.25 21.9142 11.25 21.5C11.25 20.7585 11.1311 20.0801 10.8945 19.6162C10.6771 19.19 10.4021 19 10 19C9.58579 19 9.25 18.6642 9.25 18.25C9.25 17.8358 9.58579 17.5 10 17.5C10.9153 17.5 11.5709 17.942 12 18.5518C12.4291 17.942 13.0848 17.5 14 17.5Z" fill="#363538"/>
<path d="M21 17.5C21.4141 17.5001 21.75 17.8359 21.75 18.25C21.75 18.6641 21.4141 18.9999 21 19C20.598 19 20.3229 19.19 20.1055 19.6162C19.8689 20.0801 19.75 20.7585 19.75 21.5C19.75 21.9142 19.4142 22.25 19 22.25C18.5858 22.25 18.25 21.9142 18.25 21.5C18.25 20.7585 18.1311 20.0801 17.8945 19.6162C17.6771 19.19 17.4021 19 17 19C16.5858 19 16.25 18.6642 16.25 18.25C16.25 17.8358 16.5858 17.5 17 17.5C17.9153 17.5 18.5709 17.942 19 18.5518C19.4291 17.942 20.0848 17.5 21 17.5Z" fill="#363538"/>
<path d="M7 9.75C7.41411 9.75012 7.75 10.0859 7.75 10.5C7.75 10.9141 7.41411 11.2499 7 11.25C6.59805 11.25 6.3229 11.44 6.10547 11.8662C5.8689 12.3301 5.75 13.0085 5.75 13.75C5.75 14.1642 5.41421 14.5 5 14.5C4.58579 14.5 4.25 14.1642 4.25 13.75C4.25 13.0085 4.13112 12.3301 3.89453 11.8662C3.6771 11.44 3.40211 11.25 3 11.25C2.58579 11.25 2.25 10.9142 2.25 10.5C2.25 10.0858 2.58579 9.75 3 9.75C3.9153 9.75 4.57089 10.192 5 10.8018C5.42907 10.192 6.08478 9.75 7 9.75Z" fill="#363538"/>
<path d="M14 9.75C14.4141 9.75012 14.75 10.0859 14.75 10.5C14.75 10.9141 14.4141 11.2499 14 11.25C13.598 11.25 13.3229 11.44 13.1055 11.8662C12.8689 12.3301 12.75 13.0085 12.75 13.75C12.75 14.1642 12.4142 14.5 12 14.5C11.5858 14.5 11.25 14.1642 11.25 13.75C11.25 13.0085 11.1311 12.3301 10.8945 11.8662C10.6771 11.44 10.4021 11.25 10 11.25C9.58579 11.25 9.25 10.9142 9.25 10.5C9.25 10.0858 9.58579 9.75 10 9.75C10.9153 9.75 11.5709 10.192 12 10.8018C12.4291 10.192 13.0848 9.75 14 9.75Z" fill="#363538"/>
<path d="M21 9.75C21.4141 9.75012 21.75 10.0859 21.75 10.5C21.75 10.9141 21.4141 11.2499 21 11.25C20.598 11.25 20.3229 11.44 20.1055 11.8662C19.8689 12.3301 19.75 13.0085 19.75 13.75C19.75 14.1642 19.4142 14.5 19 14.5C18.5858 14.5 18.25 14.1642 18.25 13.75C18.25 13.0085 18.1311 12.3301 17.8945 11.8662C17.6771 11.44 17.4021 11.25 17 11.25C16.5858 11.25 16.25 10.9142 16.25 10.5C16.25 10.0858 16.5858 9.75 17 9.75C17.9153 9.75 18.5709 10.192 19 10.8018C19.4291 10.192 20.0848 9.75 21 9.75Z" fill="#363538"/>
<path d="M7 2C7.41411 2.00012 7.75 2.33586 7.75 2.75C7.75 3.16414 7.41411 3.49988 7 3.5C6.59805 3.5 6.3229 3.69 6.10547 4.11621C5.8689 4.58014 5.75 5.25846 5.75 6C5.75 6.41421 5.41421 6.75 5 6.75C4.58579 6.75 4.25 6.41421 4.25 6C4.25 5.25845 4.13112 4.58013 3.89453 4.11621C3.6771 3.69004 3.40211 3.5 3 3.5C2.58579 3.5 2.25 3.16421 2.25 2.75C2.25 2.33579 2.58579 2 3 2C3.9153 2 4.57089 2.44201 5 3.05176C5.42907 2.44204 6.08478 2 7 2Z" fill="#363538"/>
<path d="M14 2C14.4141 2.00012 14.75 2.33586 14.75 2.75C14.75 3.16414 14.4141 3.49988 14 3.5C13.598 3.5 13.3229 3.69 13.1055 4.11621C12.8689 4.58014 12.75 5.25846 12.75 6C12.75 6.41421 12.4142 6.75 12 6.75C11.5858 6.75 11.25 6.41421 11.25 6C11.25 5.25845 11.1311 4.58013 10.8945 4.11621C10.6771 3.69004 10.4021 3.5 10 3.5C9.58579 3.5 9.25 3.16421 9.25 2.75C9.25 2.33579 9.58579 2 10 2C10.9153 2 11.5709 2.44201 12 3.05176C12.4291 2.44204 13.0848 2 14 2Z" fill="#363538"/>
<path d="M21 2C21.4141 2.00012 21.75 2.33586 21.75 2.75C21.75 3.16414 21.4141 3.49988 21 3.5C20.598 3.5 20.3229 3.69 20.1055 4.11621C19.8689 4.58014 19.75 5.25846 19.75 6C19.75 6.41421 19.4142 6.75 19 6.75C18.5858 6.75 18.25 6.41421 18.25 6C18.25 5.25845 18.1311 4.58013 17.8945 4.11621C17.6771 3.69004 17.4021 3.5 17 3.5C16.5858 3.5 16.25 3.16421 16.25 2.75C16.25 2.33579 16.5858 2 17 2C17.9153 2 18.5709 2.44201 19 3.05176C19.4291 2.44204 20.0848 2 21 2Z" fill="#363538"/>
</svg>
