<svg width="24" height="24" viewBox="0 0 24 24" fill="none" xmlns="http://www.w3.org/2000/svg">
<path d="M6 2H8C10.2091 2 12 3.79086 12 6V7C12 9.20914 10.2091 11 8 11H6C3.79086 11 2 9.20914 2 7V6C2 3.79086 3.79086 2 6 2Z" fill="#363538"/>
<path d="M17 2H18C20.2091 2 22 3.79086 22 6V8C22 10.2091 20.2091 12 18 12H17C14.7909 12 13 10.2091 13 8V6C13 3.79086 14.7909 2 17 2Z" fill="#363538"/>
<path d="M16 13C13.7909 13 12 14.7909 12 17V18C12 20.2091 13.7909 22 16 22H18C20.2091 22 22 20.2091 22 18V17C22 14.7909 20.2091 13 18 13H16Z" fill="#363538"/>
<path d="M6 12H7C9.20914 12 11 13.7909 11 16V18C11 20.2091 9.20914 22 7 22H6C3.79086 22 2 20.2091 2 18V16C2 13.7909 3.79086 12 6 12Z" fill="#363538"/>
</svg>
