<svg width="24" height="24" viewBox="0 0 24 24" fill="none" xmlns="http://www.w3.org/2000/svg">
<path d="M18.5 2H4.5C2.567 2 1 3.567 1 5.5C1 7.433 2.567 9 4.5 9H18.5C20.433 9 22 7.433 22 5.5C22 3.567 20.433 2 18.5 2Z" fill="#363538"/>
<path d="M2 14V18C2 20.2091 3.79086 22 6 22C8.20914 22 10 20.2091 10 18V14C10 11.7909 8.20914 10 6 10C3.79086 10 2 11.7909 2 14Z" fill="#363538"/>
<path d="M15 10H18C20.2091 10 22 11.7909 22 14V18C22 20.2091 20.2091 22 18 22H15C12.7909 22 11 20.2091 11 18V14C11 11.7909 12.7909 10 15 10Z" fill="#363538"/>
</svg>
