<svg width="24" height="24" viewBox="0 0 24 24" fill="none" xmlns="http://www.w3.org/2000/svg">
<path d="M4.96189 8.77613C4.66248 9.05337 4.42615 9.38545 4.2627 9.75H4C3.0335 9.75 2.25 10.5335 2.25 11.5V12.0198C2.25 12.6263 2.4505 13.2157 2.82028 13.6965L3.07909 14.0329C3.21275 14.2067 3.29837 14.4125 3.32734 14.6298L4.02516 19.8635C4.20732 21.2297 5.37273 22.25 6.75103 22.25H17.249C18.6273 22.25 19.7927 21.2297 19.9748 19.8634L20.6727 14.6298C20.7016 14.4125 20.7872 14.2067 20.9209 14.0329L21.1797 13.6965C21.5495 13.2157 21.75 12.6263 21.75 12.0198V11.5C21.75 10.5335 20.9665 9.75 20 9.75H19.9379C19.6288 7.90754 18.2001 6.44472 16.3753 6.08505C16.5097 5.88309 16.7393 5.75 17.0001 5.75C17.4143 5.75 17.7501 5.41421 17.7501 5C17.7501 4.58579 17.4143 4.25 17.0001 4.25C15.9098 4.25 15.0006 5.02553 14.7941 6.05506C13.1881 6.30814 11.8643 7.41077 11.2973 8.88838C11.2753 8.86224 11.2529 8.83644 11.23 8.81098L10.7702 8.30013C10.3773 7.86357 10.1235 7.324 10.0351 6.75H6.33614C6.20941 7.3537 5.89832 7.90906 5.43834 8.33498L4.96189 8.77613Z" fill="#363538"/>
<path d="M10.0001 3V5.25H6.40004L6.40011 3C6.40011 2.44772 6.84783 2 7.40011 2H9.00011C9.5524 2 10.0001 2.44772 10.0001 3Z" fill="#363538"/>
</svg>
