<svg width="24" height="24" viewBox="0 0 24 24" fill="none" xmlns="http://www.w3.org/2000/svg">
<path fill-rule="evenodd" clip-rule="evenodd" d="M3.25 4C3.25 3.58579 3.58579 3.25 4 3.25H6C6.41421 3.25 6.75 3.58579 6.75 4C6.75 4.41421 6.41421 4.75 6 4.75H4.75V6C4.75 6.41421 4.41421 6.75 4 6.75C3.58579 6.75 3.25 6.41421 3.25 6V4ZM9.25 4C9.25 3.58579 9.58579 3.25 10 3.25H14C14.4142 3.25 14.75 3.58579 14.75 4C14.75 4.41421 14.4142 4.75 14 4.75H10C9.58579 4.75 9.25 4.41421 9.25 4ZM17.25 4C17.25 3.58579 17.5858 3.25 18 3.25H20C20.4142 3.25 20.75 3.58579 20.75 4V6C20.75 6.41421 20.4142 6.75 20 6.75C19.5858 6.75 19.25 6.41421 19.25 6V4.75H18C17.5858 4.75 17.25 4.41421 17.25 4ZM4 9.25C4.41421 9.25 4.75 9.58579 4.75 10V14C4.75 14.4142 4.41421 14.75 4 14.75C3.58579 14.75 3.25 14.4142 3.25 14V10C3.25 9.58579 3.58579 9.25 4 9.25ZM20 9.25C20.4142 9.25 20.75 9.58579 20.75 10V14C20.75 14.4142 20.4142 14.75 20 14.75C19.5858 14.75 19.25 14.4142 19.25 14V10C19.25 9.58579 19.5858 9.25 20 9.25ZM4 17.25C4.41421 17.25 4.75 17.5858 4.75 18V19.25H6C6.41421 19.25 6.75 19.5858 6.75 20C6.75 20.4142 6.41421 20.75 6 20.75H4C3.58579 20.75 3.25 20.4142 3.25 20V18C3.25 17.5858 3.58579 17.25 4 17.25ZM20 17.25C20.4142 17.25 20.75 17.5858 20.75 18V20C20.75 20.4142 20.4142 20.75 20 20.75H18C17.5858 20.75 17.25 20.4142 17.25 20C17.25 19.5858 17.5858 19.25 18 19.25H19.25V18C19.25 17.5858 19.5858 17.25 20 17.25ZM9.25 20C9.25 19.5858 9.58579 19.25 10 19.25H14C14.4142 19.25 14.75 19.5858 14.75 20C14.75 20.4142 14.4142 20.75 14 20.75H10C9.58579 20.75 9.25 20.4142 9.25 20Z" fill="#363538"/>
</svg>
