<svg width="24" height="24" viewBox="0 0 24 24" fill="none" xmlns="http://www.w3.org/2000/svg">
<path d="M21.6103 15.6689L21.8849 14.8453C21.9535 14.6395 21.8815 14.4129 21.7067 14.2844L20.1099 13.1102L19.4967 14.2375L21.6103 15.6689Z" fill="#363538"/>
<path d="M21.1181 17.1455L19.6139 21.6581C19.5459 21.8623 19.3548 22 19.1396 22H15.6285C15.307 22 15.069 21.7009 15.1413 21.3876L15.9231 18L13.3793 15.6484C13.2769 15.5538 13.2187 15.4207 13.2187 15.2813V13L6.26189 7.69953C6.10297 7.57845 6.03139 7.37438 6.07984 7.18055L6.45913 5.66339C6.48564 5.55738 6.47668 5.44561 6.43364 5.34517L5.72306 3.68715C5.52241 3.21898 6.06846 2.78563 6.47883 3.08737L18.8957 12.2175C18.8759 12.2445 18.8577 12.2732 18.8412 12.3035L18.0702 13.7206C17.7542 14.3017 17.9458 15.0268 18.5038 15.3767L21.0795 17.121C21.0922 17.1296 21.1051 17.1378 21.1181 17.1455Z" fill="#363538"/>
</svg>
