<svg width="24" height="24" viewBox="0 0 24 24" fill="none" xmlns="http://www.w3.org/2000/svg">
<path d="M2.94896 11.434L4.08033 12.5654C4.15844 12.6435 4.28507 12.6435 4.36317 12.5654L7.9341 8.99444L15.0052 16.0655L16.0658 15.0049L8.99476 7.93378L12.5656 4.36293C12.6437 4.28482 12.6437 4.15819 12.5656 4.08009L11.4342 2.94872C11.3561 2.87061 11.2295 2.87061 11.1514 2.94872L10.02 4.08009C9.94192 4.15819 9.81529 4.15819 9.73718 4.08009L8.60581 2.94872C8.52771 2.87061 8.40108 2.87061 8.32297 2.94872L7.1916 4.08009C7.1135 4.15819 6.98686 4.15819 6.90876 4.08009L5.77739 2.94872C5.69928 2.87061 5.57265 2.87061 5.49454 2.94872L2.94896 5.4943C2.87085 5.5724 2.87085 5.69904 2.94896 5.77714L4.08033 6.90851C4.15844 6.98662 4.15844 7.11325 4.08033 7.19136L2.94896 8.32273C2.87085 8.40083 2.87085 8.52746 2.94896 8.60557L4.08033 9.73694C4.15844 9.81505 4.15844 9.94168 4.08033 10.0198L2.94896 11.1512C2.87085 11.2293 2.87085 11.3559 2.94896 11.434Z" fill="#363538"/>
<path d="M12.5656 21.0509L11.4342 19.9195C11.3561 19.8414 11.3561 19.7148 11.4342 19.6367L19.6367 11.4342C19.7148 11.3561 19.8414 11.3561 19.9195 11.4342L21.0509 12.5656C21.129 12.6437 21.129 12.7703 21.0509 12.8484L19.9195 13.9798C19.8414 14.0579 19.8414 14.1845 19.9195 14.2626L21.0509 15.394C21.129 15.4721 21.129 15.5988 21.0509 15.6769L19.9195 16.8082C19.8414 16.8863 19.8414 17.013 19.9195 17.0911L21.0509 18.2224C21.129 18.3005 21.129 18.4272 21.0509 18.5053L18.5053 21.0509C18.4272 21.129 18.3005 21.129 18.2224 21.0509L17.0911 19.9195C17.013 19.8414 16.8863 19.8414 16.8082 19.9195L15.6769 21.0509C15.5988 21.129 15.4721 21.129 15.394 21.0509L14.2626 19.9195C14.1845 19.8414 14.0579 19.8414 13.9798 19.9195L12.8484 21.0509C12.7703 21.129 12.6437 21.129 12.5656 21.0509Z" fill="#363538"/>
</svg>
