<svg width="24" height="24" viewBox="0 0 24 24" fill="none" xmlns="http://www.w3.org/2000/svg">
<path fill-rule="evenodd" clip-rule="evenodd" d="M2.25 4C2.25 3.58579 2.58579 3.25 3 3.25H3.44444C3.85866 3.25 4.19444 3.58579 4.19444 4C4.19444 4.20834 4.10949 4.39684 3.97234 4.53275V11.25H11.3612V4.53299C11.2239 4.39706 11.1389 4.20846 11.1389 4C11.1389 3.58579 11.4747 3.25 11.8889 3.25H12.3333C12.7475 3.25 13.0833 3.58579 13.0833 4C13.0833 4.20834 12.9984 4.39684 12.8612 4.53275V19.4673C12.9984 19.6032 13.0833 19.7917 13.0833 20C13.0833 20.4142 12.7475 20.75 12.3333 20.75H11.8889C11.4747 20.75 11.1389 20.4142 11.1389 20C11.1389 19.7915 11.2239 19.6029 11.3612 19.467V12.75H3.97234V19.4673C4.10949 19.6032 4.19444 19.7917 4.19444 20C4.19444 20.4142 3.85866 20.75 3.44444 20.75H3C2.58579 20.75 2.25 20.4142 2.25 20C2.25 19.7915 2.33505 19.6029 2.47234 19.467V4.53299C2.33505 4.39706 2.25 4.20846 2.25 4Z" fill="#363538"/>
<path d="M14.742 20.7499C14.5211 20.7499 14.342 20.5708 14.342 20.3499V19.9569C14.342 19.8533 14.3822 19.7537 14.4542 19.6791L17.2951 16.7357C17.6105 16.4033 17.8704 16.1121 18.075 15.8621C18.2824 15.6093 18.4372 15.3692 18.5395 15.142C18.6417 14.9147 18.6929 14.6732 18.6929 14.4175C18.6929 14.1278 18.6247 13.8778 18.4883 13.6675C18.352 13.4545 18.1659 13.2911 17.9301 13.1775C17.6943 13.061 17.4287 13.0028 17.1332 13.0028C16.8207 13.0028 16.548 13.0667 16.315 13.1945C16.0821 13.3224 15.9031 13.5028 15.7781 13.7357C15.7093 13.8639 15.6595 14.0041 15.6285 14.1563C15.5845 14.3728 15.4115 14.5539 15.1906 14.5539H14.7335C14.5126 14.5539 14.3301 14.374 14.358 14.1549C14.4049 13.7867 14.5189 13.4552 14.7 13.1604C14.9443 12.7627 15.2795 12.4545 15.7057 12.2357C16.1318 12.0141 16.6162 11.9033 17.1588 11.9033C17.7071 11.9033 18.19 12.0127 18.6076 12.2314C19.0281 12.4474 19.3562 12.7428 19.592 13.1178C19.8278 13.49 19.9457 13.9104 19.9457 14.3792C19.9457 14.703 19.8846 15.0198 19.7625 15.3295C19.6432 15.6391 19.4343 15.9843 19.1361 16.365C18.8378 16.7428 18.423 17.2016 17.8917 17.7414L16.17 19.5435C16.1619 19.552 16.1574 19.5633 16.1574 19.575C16.1574 19.6002 16.1778 19.6207 16.203 19.6207H19.6863C19.9073 19.6207 20.0863 19.7997 20.0863 20.0207V20.3499C20.0863 20.5708 19.9073 20.7499 19.6863 20.7499H14.742Z" fill="#363538"/>
</svg>
