<svg width="24" height="24" viewBox="0 0 24 24" fill="none" xmlns="http://www.w3.org/2000/svg">
<path d="M6 7.4668C5.58579 7.4668 5.25 7.80258 5.25 8.2168C5.25 8.36096 5.29067 8.49562 5.36117 8.60993V15.8237C5.29067 15.938 5.25 16.0726 5.25 16.2168C5.25 16.631 5.58579 16.9668 6 16.9668H6.22222C6.63644 16.9668 6.97222 16.631 6.97222 16.2168C6.97222 16.0727 6.9316 15.9381 6.86117 15.8239V12.9668H9.80562V15.8237C9.73512 15.938 9.69444 16.0726 9.69444 16.2168C9.69444 16.631 10.0302 16.9668 10.4444 16.9668H10.6667C11.0809 16.9668 11.4167 16.631 11.4167 16.2168C11.4167 16.0727 11.376 15.9381 11.3056 15.8239V8.60974C11.376 8.49547 11.4167 8.36088 11.4167 8.2168C11.4167 7.80258 11.0809 7.4668 10.6667 7.4668H10.4444C10.0302 7.4668 9.69444 7.80258 9.69444 8.2168C9.69444 8.36096 9.73512 8.49562 9.80562 8.60993V11.4668H6.86117V8.60974C6.9316 8.49547 6.97222 8.36088 6.97222 8.2168C6.97222 7.80258 6.63644 7.4668 6.22222 7.4668H6Z" fill="#363538"/>
<path fill-rule="evenodd" clip-rule="evenodd" d="M14.6992 16.7528C15.077 16.8892 15.4605 16.9602 15.8497 16.9659C16.4577 16.9716 16.9889 16.8438 17.4435 16.5824C17.898 16.3182 18.2503 15.9602 18.5003 15.5085C18.7532 15.0568 18.8796 14.5526 18.8796 13.9957C18.8796 13.4389 18.7574 12.9446 18.5131 12.5128C18.2688 12.081 17.9407 11.7429 17.5287 11.4986C17.1196 11.2514 16.6622 11.1278 16.1566 11.1278C15.8526 11.1278 15.5628 11.1761 15.2872 11.2727C15.0145 11.3665 14.7674 11.5014 14.5458 11.6776C14.3328 11.8463 14.1522 12.05 14.0038 12.2887C13.9963 12.3008 13.9831 12.3082 13.9688 12.3082C13.9462 12.3082 13.9279 12.2897 13.9281 12.2671C13.9357 11.2953 14.1146 10.5349 14.4648 9.9858C14.8228 9.42898 15.3213 9.15057 15.9605 9.15057C16.381 9.15057 16.7219 9.26562 16.9833 9.49574C17.1691 9.65932 17.3111 9.85665 17.4093 10.0877C17.4815 10.2576 17.6375 10.3864 17.8221 10.3864H18.3435C18.5878 10.3864 18.7773 10.1679 18.7056 9.93442C18.6192 9.65289 18.4925 9.39303 18.3256 9.15483C18.0756 8.79403 17.7489 8.51136 17.3455 8.30682C16.9421 8.10227 16.4804 8 15.9605 8C15.4549 8 14.9989 8.10653 14.5926 8.3196C14.1864 8.53267 13.8398 8.84375 13.5529 9.25284C13.2659 9.65909 13.0458 10.1577 12.8924 10.7486C12.7418 11.3395 12.6665 12.0156 12.6665 12.777C12.6665 13.581 12.7574 14.2514 12.9392 14.7884C13.1239 15.3253 13.3696 15.7528 13.6764 16.071C13.9833 16.3892 14.3242 16.6165 14.6992 16.7528ZM16.7446 15.6108C16.4804 15.7756 16.1807 15.858 15.8455 15.858C15.5103 15.858 15.2091 15.7741 14.9421 15.6065C14.6779 15.4361 14.4691 15.2116 14.3157 14.9332C14.1651 14.6548 14.0898 14.3523 14.0898 14.0256C14.0898 13.7813 14.1353 13.5497 14.2262 13.331C14.3199 13.1094 14.4478 12.9134 14.6097 12.7429C14.7716 12.5724 14.9591 12.4389 15.1722 12.3423C15.3881 12.2457 15.6225 12.1974 15.8753 12.1974C16.2077 12.1974 16.5032 12.2784 16.7617 12.4403C17.023 12.6023 17.2276 12.821 17.3753 13.0966C17.5259 13.3722 17.6012 13.6776 17.6012 14.0128C17.6012 14.3565 17.5245 14.6676 17.371 14.946C17.2176 15.2244 17.0088 15.446 16.7446 15.6108Z" fill="#363538"/>
</svg>
