<svg width="24" height="24" viewBox="0 0 24 24" fill="none" xmlns="http://www.w3.org/2000/svg">
<path d="M6.5 7.25049C6.91421 7.25049 7.25 7.58627 7.25 8.00049C7.24972 8.41446 6.91404 8.75049 6.5 8.75049C6.08596 8.75049 5.75028 8.41446 5.75 8.00049C5.75 7.58627 6.08579 7.25049 6.5 7.25049Z" fill="#363538"/>
<path fill-rule="evenodd" clip-rule="evenodd" d="M2 8.00049C2 4.97472 4.87222 2.77344 7.79395 3.56006L13.75 5.1626V10.8364L9.49414 11.9819L9.5 11.9995L10.6143 15.7124C10.708 16.0248 10.6403 16.3373 10.4707 16.5767C10.5932 16.8084 10.683 17.0525 10.7402 17.2915C10.8506 17.7532 10.8641 18.2769 10.7109 18.7368C10.5835 19.119 10.3776 19.3949 10.1885 19.604C10.098 19.704 10.0049 19.796 9.93359 19.8667C9.85643 19.9432 9.80054 19.9994 9.75391 20.0532C9.66912 20.1511 9.64431 20.2069 9.63379 20.2603C9.62476 20.3065 9.6181 20.4002 9.65625 20.5679L9.71094 20.7622L9.73145 20.8364C9.81457 21.2072 9.60552 21.5885 9.2373 21.7114C8.86889 21.8343 8.47245 21.6548 8.31641 21.3081L8.28809 21.2368L8.23633 21.0679C8.12606 20.678 8.09527 20.3155 8.16211 19.9731C8.24022 19.5739 8.43451 19.285 8.62012 19.0708C8.7087 18.9686 8.80263 18.8759 8.87695 18.8022C8.95698 18.7229 9.0186 18.6617 9.07617 18.5981C9.18369 18.4793 9.24895 18.3797 9.28809 18.2622C9.33083 18.1334 9.34473 17.9057 9.28125 17.6401C9.23416 17.4436 9.15573 17.2715 9.06445 17.1431L8.96973 17.0298L8.94238 16.9995H8.61816C8.23939 16.9995 7.89302 16.7856 7.72363 16.4468L5.76074 12.522C3.67152 12.1336 2.00025 10.3081 2 8.00049ZM6.5 5.75049C5.25736 5.75049 4.25 6.75785 4.25 8.00049C4.25028 9.24289 5.25753 10.2505 6.5 10.2505C7.74247 10.2505 8.74972 9.24289 8.75 8.00049C8.75 6.75785 7.74264 5.75049 6.5 5.75049Z" fill="#363538"/>
<path d="M15.4004 5.19971C16.0596 4.70577 17 5.17661 17 6.00049V10.0005C16.9996 10.824 16.0595 11.2941 15.4004 10.8003L15.25 10.687V5.31201L15.4004 5.19971Z" fill="#363538"/>
<path d="M21 8.24951C21.1888 8.24951 21.3803 8.28078 21.543 8.31787L21.6953 8.35596L21.7686 8.38037C22.1235 8.51603 22.3246 8.90114 22.2236 9.27588C22.1224 9.65062 21.7549 9.8821 21.3799 9.8208L21.3047 9.8042L21.1182 9.76221C21.0669 9.75337 21.027 9.74951 21 9.74951C20.9706 9.74951 20.959 9.74864 20.8096 9.81299C20.6508 9.88139 20.3814 9.99951 20 9.99951C19.8092 9.99951 19.621 9.96995 19.459 9.93408L19.3066 9.89697L19.2334 9.87353C18.8781 9.73881 18.6753 9.35407 18.7754 8.979C18.8757 8.60425 19.2431 8.37185 19.6182 8.43213L19.6934 8.44775L19.8711 8.48682C19.9227 8.49527 19.9662 8.49951 20 8.49951C20.0552 8.49951 20.0847 8.49249 20.2158 8.43603C20.3563 8.37551 20.627 8.24951 21 8.24951Z" fill="#363538"/>
<path d="M21 5.99951C21.1888 5.99951 21.3803 6.03078 21.543 6.06787L21.6953 6.10596L21.7686 6.13037C22.1235 6.26603 22.3246 6.65114 22.2236 7.02588C22.1224 7.40062 21.7549 7.6321 21.3799 7.5708L21.3047 7.5542L21.1182 7.51221C21.0669 7.50337 21.027 7.49951 21 7.49951C20.9706 7.49951 20.959 7.49864 20.8096 7.56299C20.6508 7.63139 20.3814 7.74951 20 7.74951C19.8092 7.74951 19.621 7.71995 19.459 7.68408L19.3066 7.64697L19.2334 7.62353C18.8781 7.48881 18.6753 7.10407 18.7754 6.729C18.8757 6.35425 19.2431 6.12185 19.6182 6.18213L19.6934 6.19775L19.8711 6.23682C19.9227 6.24527 19.9662 6.24951 20 6.24951C20.0552 6.24951 20.0847 6.24249 20.2158 6.18603C20.3563 6.12551 20.627 5.99951 21 5.99951Z" fill="#363538"/>
</svg>
