<svg width="24" height="24" viewBox="0 0 24 24" fill="none" xmlns="http://www.w3.org/2000/svg">
<path d="M16 3H8C5.23858 3 3 5.23858 3 8C3 8.55228 3.44772 9 4 9H20C20.5523 9 21 8.55228 21 8C21 5.23858 18.7614 3 16 3Z" fill="#363538"/>
<path d="M16 21H8C5.23858 21 3 18.7614 3 16C3 15.4477 3.44772 15 4 15H20C20.5523 15 21 15.4477 21 16C21 18.7614 18.7614 21 16 21Z" fill="#363538"/>
<path d="M4 10H20C21.1046 10 22 10.8954 22 12C22 13.1046 21.1046 14 20 14H4C2.89543 14 2 13.1046 2 12C2 10.8954 2.89543 10 4 10Z" fill="#363538"/>
</svg>
