<svg width="24" height="24" viewBox="0 0 24 24" fill="none" xmlns="http://www.w3.org/2000/svg">
<path d="M17.5456 5.58549L17.5473 5.58736C17.8239 5.88272 17.8165 6.34439 17.5304 6.63051L14.3107 9.85006L14.315 9.85431L10.7543 13.4149L10.75 13.4107L9.53038 14.6304C9.23749 14.9233 8.76261 14.9233 8.46972 14.6304L4.46967 10.6304C4.32902 10.4897 4.25 10.299 4.25 10.1001C4.25 9.90114 4.32902 9.71038 4.46967 9.56972L9.96972 4.06962C10.0598 3.97951 10.1717 3.91377 10.2942 3.87875L10.2978 3.87772L10.3059 3.87545L10.3342 3.8676C10.3583 3.86096 10.3929 3.85161 10.4367 3.84008C10.5244 3.81704 10.6495 3.78527 10.8033 3.74922C11.11 3.67734 11.5353 3.58738 12.0075 3.51615C12.4772 3.44528 13.0084 3.39058 13.5232 3.39476C14.0261 3.39884 14.5757 3.45892 15.0462 3.66111C15.673 3.93049 16.3099 4.43601 16.7541 4.82699C16.9849 5.03015 17.1812 5.21815 17.32 5.35555C17.3895 5.42443 17.4451 5.48106 17.4839 5.52108C17.5033 5.54111 17.5186 5.55701 17.5293 5.56826L17.5419 5.58157L17.5456 5.58549Z" fill="#363538"/>
<path d="M11.8149 14.4756L15.3756 10.915L20.7804 16.3197C21.7636 17.303 21.7636 18.8971 20.7804 19.8804C19.7971 20.8636 18.203 20.8636 17.2197 19.8804L11.8149 14.4756Z" fill="#363538"/>
<path d="M3.78033 11.8198C3.48744 11.5269 3.01256 11.5269 2.71967 11.8198C2.42678 12.1127 2.42678 12.5875 2.71967 12.8804L6.21967 16.3804C6.51256 16.6733 6.98744 16.6733 7.28033 16.3804C7.57322 16.0875 7.57322 15.6127 7.28033 15.3198L3.78033 11.8198Z" fill="#363538"/>
</svg>
