<svg width="24" height="24" viewBox="0 0 24 24" fill="none" xmlns="http://www.w3.org/2000/svg">
<path d="M7.0803 13.2821L6.37413 11.8697C5.77477 10.671 4.10403 10.567 3.36062 11.6821C3.11463 12.0511 3.01635 12.5013 3.098 12.9371C4.136 18.4778 6.33322 22 13.2341 22C20.0289 22 20.8523 15.1101 20.9211 14.3716C20.9253 14.3263 20.9265 14.2849 20.9265 14.2394V9.17949C20.9265 9.17949 20.9265 7.12821 19.388 7.12821C17.8495 7.12821 17.8495 9.17949 17.8495 9.17949V6.26224C17.8495 5.26774 17.0433 4.46154 16.0488 4.46154C15.0589 4.46154 14.2546 5.26063 14.2482 6.25054L14.2597 11.2308L14.2473 3.79685C14.2519 2.80581 13.4497 2 12.4587 2C11.4708 2 10.67 2.8008 10.67 3.78864V7.38462C10.67 6.39334 9.86645 5.58974 8.87517 5.58974C7.88389 5.58974 7.0803 6.39334 7.0803 7.38462V13.2821Z" fill="#363538"/>
</svg>
