<svg width="24" height="24" viewBox="0 0 24 24" fill="none" xmlns="http://www.w3.org/2000/svg">
<path fill-rule="evenodd" clip-rule="evenodd" d="M12 4.25C10.7574 4.25 9.75 5.25736 9.75 6.5V7C9.75 7.41421 9.41421 7.75 9 7.75C8.58579 7.75 8.25 7.41421 8.25 7V6.5C8.25 4.42893 9.92893 2.75 12 2.75C14.0711 2.75 15.75 4.42893 15.75 6.5V6.82295C15.75 8.13484 15.0088 9.33413 13.8354 9.92082C13.2057 10.2357 12.7956 10.8617 12.7536 11.5585L21.3847 16.3056C22.2268 16.7688 22.75 17.6536 22.75 18.6147C22.75 20.0701 21.5701 21.25 20.1147 21.25H3.88529C2.42986 21.25 1.25 20.0701 1.25 18.6147C1.25 17.6537 1.77319 16.7688 2.61529 16.3056L11.2521 11.5554C11.2964 10.2914 12.0276 9.14768 13.1646 8.57918C13.8298 8.24657 14.25 7.56668 14.25 6.82295V6.5C14.25 5.25736 13.2426 4.25 12 4.25ZM12 12.856L3.33817 17.62C2.97539 17.8195 2.75 18.2007 2.75 18.6147C2.75 19.2417 3.25828 19.75 3.88529 19.75H20.1147C20.7417 19.75 21.25 19.2417 21.25 18.6147C21.25 18.2007 21.0246 17.8195 20.6618 17.62L12 12.856Z" fill="#363538"/>
</svg>
