<svg width="24" height="24" viewBox="0 0 24 24" fill="none" xmlns="http://www.w3.org/2000/svg">
<path fill-rule="evenodd" clip-rule="evenodd" d="M8.58282 2.25465C8.9945 2.3004 9.29115 2.67121 9.24541 3.08289L8.67128 8.25007H16.1621L16.7546 2.91724C16.8003 2.50556 17.1711 2.20891 17.5828 2.25465C17.9945 2.3004 18.2912 2.67121 18.2454 3.08289L17.6713 8.25007H20.5C20.9142 8.25007 21.25 8.58585 21.25 9.00007C21.25 9.41428 20.9142 9.75007 20.5 9.75007H17.5046L17.0046 14.2501H20.5C20.9142 14.2501 21.25 14.5859 21.25 15.0001C21.25 15.4143 20.9142 15.7501 20.5 15.7501H16.8379L16.2454 21.0829C16.1997 21.4946 15.8289 21.7912 15.4172 21.7455C15.0055 21.6997 14.7088 21.3289 14.7546 20.9172L15.3287 15.7501H7.83795L7.24541 21.0829C7.19967 21.4946 6.82886 21.7912 6.41718 21.7455C6.0055 21.6997 5.70884 21.3289 5.75459 20.9172L6.32872 15.7501H3.5C3.08579 15.7501 2.75 15.4143 2.75 15.0001C2.75 14.5859 3.08579 14.2501 3.5 14.2501H6.49538L6.99538 9.75007H3.5C3.08579 9.75007 2.75 9.41428 2.75 9.00007C2.75 8.58585 3.08579 8.25007 3.5 8.25007H7.16205L7.75459 2.91724C7.80033 2.50556 8.17114 2.20891 8.58282 2.25465ZM8.50462 9.75007L8.00462 14.2501H15.4954L15.9954 9.75007H8.50462Z" fill="#363538"/>
</svg>
