<svg width="24" height="24" viewBox="0 0 24 24" fill="none" xmlns="http://www.w3.org/2000/svg">
<path d="M5.1777 12.7315L5.25387 12.7442L5.2568 12.7451C5.25886 12.7454 5.26292 12.7457 5.26656 12.7461C5.27451 12.7471 5.28686 12.7482 5.30172 12.75C5.33254 12.7538 5.37844 12.7598 5.43649 12.7666C5.55356 12.7805 5.72421 12.7997 5.93551 12.8233C5.99955 12.8304 6.06814 12.8359 6.13961 12.8438C6.14087 12.8436 6.14226 12.8439 6.14352 12.8438C6.53075 12.8862 7.02173 12.9395 7.5693 12.9912C7.58813 12.993 7.60698 12.9953 7.62594 12.9971C8.9678 13.1225 10.6605 13.25 12 13.25C13.3394 13.25 15.032 13.1225 16.374 12.9971L17.7304 12.8574C17.8506 12.8444 17.9625 12.8346 18.0644 12.8233C18.2758 12.7997 18.4463 12.7805 18.5634 12.7666C18.6215 12.7598 18.6673 12.7538 18.6982 12.75C18.713 12.7482 18.7254 12.7471 18.7334 12.7461C18.737 12.7457 18.741 12.7454 18.7431 12.7451L18.7451 12.7442L18.8222 12.7315C18.8298 12.7297 18.8372 12.7257 18.8447 12.7237L18.915 12.9903C18.9433 12.9937 18.9717 12.9965 19 13C21.0006 13.0004 27.9993 18 12 18C-3.39874 18 2.50638 13.3687 4.75484 13.0205C4.8652 13.0035 4.97488 12.9925 5.08492 12.9805L5.15328 12.7227C5.16131 12.7248 5.16956 12.7295 5.1777 12.7315Z" fill="#363538"/>
<path d="M14.2334 6.30276C15.7877 5.99207 17.3159 6.94525 17.7216 8.47757L18.4599 11.2676C18.4389 11.2701 18.4145 11.2732 18.3877 11.2764C18.2734 11.2899 18.1062 11.3099 17.8984 11.333C17.4816 11.3795 16.8975 11.441 16.2343 11.503C14.901 11.6275 13.266 11.75 12 11.75C10.7339 11.75 9.09886 11.6275 7.76559 11.503C7.10271 11.441 6.51923 11.3795 6.1025 11.333C5.89457 11.3098 5.72652 11.2899 5.61227 11.2764C5.58518 11.2732 5.56015 11.2701 5.53902 11.2676L6.27731 8.47757C6.68299 6.94516 8.21214 5.99213 9.76656 6.30276L11.4111 6.63186C11.7993 6.70951 12.1996 6.70946 12.5879 6.63186L14.2334 6.30276Z" fill="#363538"/>
</svg>
