<svg width="24" height="24" viewBox="0 0 24 24" fill="none" xmlns="http://www.w3.org/2000/svg">
<path d="M11.2414 13.5279C11.2414 13.6935 11.3758 13.8279 11.5414 13.8279H11.925C12.2432 13.8279 12.5109 13.7715 12.728 13.6588C12.9467 13.5445 13.1108 13.368 13.2201 13.1294C13.3312 12.8891 13.3867 12.5792 13.3867 12.1997C13.3867 11.8235 13.3312 11.5161 13.2201 11.2774C13.1108 11.0388 12.9475 10.8631 12.7304 10.7504C12.5133 10.6378 12.2457 10.5814 11.9275 10.5814H11.5414C11.3758 10.5814 11.2414 10.7157 11.2414 10.8814V13.5279Z" fill="#363538"/>
<path d="M16.3342 12.0803H17.065C17.2705 12.0803 17.4412 12.0522 17.5771 11.9958C17.713 11.9395 17.8141 11.855 17.8804 11.7423C17.9483 11.6296 17.9823 11.4896 17.9823 11.3222C17.9823 11.1531 17.9483 11.0106 17.8804 10.8946C17.8141 10.7786 17.7122 10.6908 17.5746 10.6311C17.4387 10.5698 17.2672 10.5392 17.0601 10.5392H16.6342C16.4685 10.5392 16.3342 10.6735 16.3342 10.8392V12.0803Z" fill="#363538"/>
<path fill-rule="evenodd" clip-rule="evenodd" d="M6 3H18C20.2091 3 22 4.79086 22 7V17C22 19.2091 20.2091 21 18 21H6C3.79086 21 2 19.2091 2 17V7C2 4.79086 3.79086 3 6 3ZM5.24244 14.7501C5.07676 14.7501 4.94244 14.6158 4.94244 14.4501V9.95918C4.94244 9.79349 5.07676 9.65918 5.24244 9.65918H5.71879C5.88448 9.65918 6.01879 9.79349 6.01879 9.95918V11.4597C6.01879 11.6254 6.15311 11.7597 6.31879 11.7597H7.90381C8.06949 11.7597 8.20381 11.6254 8.20381 11.4597V9.95918C8.20381 9.79349 8.33812 9.65918 8.50381 9.65918H8.97767C9.14336 9.65918 9.27767 9.79349 9.27767 9.95918V14.4501C9.27767 14.6158 9.14336 14.7501 8.97767 14.7501H8.50381C8.33812 14.7501 8.20381 14.6158 8.20381 14.4501V12.9471C8.20381 12.7814 8.06949 12.6471 7.90381 12.6471H6.31879C6.15311 12.6471 6.01879 12.7814 6.01879 12.9471V14.4501C6.01879 14.6158 5.88448 14.7501 5.71879 14.7501H5.24244ZM11.9698 14.7501H10.4651C10.2994 14.7501 10.1651 14.6158 10.1651 14.4501V9.95918C10.1651 9.79349 10.2994 9.65918 10.4651 9.65918H11.9847C12.4968 9.65918 12.9376 9.7611 13.3071 9.96493C13.6767 10.1671 13.9609 10.4579 14.1598 10.8374C14.3603 11.2169 14.4606 11.671 14.4606 12.1997C14.4606 12.73 14.3603 13.1857 14.1598 13.5669C13.9609 13.948 13.675 14.2405 13.3022 14.4443C12.931 14.6482 12.4868 14.7501 11.9698 14.7501ZM15.2579 14.4501C15.2579 14.6158 15.3922 14.7501 15.5579 14.7501H16.0342C16.1999 14.7501 16.3342 14.6158 16.3342 14.4501V12.9454H17.1199L17.9995 14.5915C18.0516 14.6891 18.1534 14.7501 18.2641 14.7501H18.7668C18.9946 14.7501 19.1392 14.5062 19.0301 14.3063L18.1923 12.7723C18.2078 12.7656 18.2232 12.7586 18.2383 12.7515C18.5151 12.6222 18.7264 12.4366 18.8722 12.1947C19.0181 11.9511 19.091 11.6602 19.091 11.3222C19.091 10.9858 19.0189 10.6933 18.8747 10.4447C18.7322 10.1945 18.5242 10.0014 18.2508 9.8655C17.979 9.72795 17.6509 9.65918 17.2664 9.65918H15.5579C15.3922 9.65918 15.2579 9.79349 15.2579 9.95918V14.4501Z" fill="#363538"/>
</svg>
