<svg width="24" height="24" viewBox="0 0 24 24" fill="none" xmlns="http://www.w3.org/2000/svg">
<path d="M12 3.75C7.99594 3.75 4.75 6.99594 4.75 11V16C4.75 16.9665 3.9665 17.75 3 17.75C2.0335 17.75 1.25 16.9665 1.25 16V14C1.25 12.7412 2.09575 11.68 3.25 11.3535V11C3.25 6.16751 7.16751 2.25 12 2.25C16.8325 2.25 20.75 6.16751 20.75 11V11.3535C21.9043 11.68 22.75 12.7412 22.75 14V16C22.75 16.9665 21.9665 17.75 21 17.75C20.7232 17.75 20.4614 17.6857 20.2288 17.5713C19.2048 18.9328 16.8654 20.5406 12.81 20.7312C12.5534 21.1899 12.0629 21.5 11.5 21.5C10.6716 21.5 10 20.8284 10 20C10 19.1716 10.6716 18.5 11.5 18.5C12.0472 18.5 12.526 18.793 12.788 19.2307C17.0504 19.0189 18.8581 17.1118 19.2731 16.285C19.2579 16.1923 19.25 16.0971 19.25 16V11C19.25 6.99594 16.0041 3.75 12 3.75Z" fill="#363538"/>
</svg>
