<svg width="24" height="24" viewBox="0 0 24 24" fill="none" xmlns="http://www.w3.org/2000/svg">
<path d="M20.4697 2.46967C20.7626 2.17678 21.2374 2.17678 21.5303 2.46967C21.8231 2.76257 21.8232 3.23733 21.5303 3.53022L3.53027 21.5302C3.23739 21.8231 2.76261 21.8231 2.46973 21.5302C2.17684 21.2373 2.17686 20.7626 2.46973 20.4697L3.20117 19.7372C3.13512 19.7448 3.06808 19.7499 3 19.7499C2.03352 19.7499 1.25003 18.9664 1.25 17.9999V15.9999C1.25 14.7415 2.09615 13.6831 3.25 13.3564V12.9999C3.25 8.16745 7.16751 4.24994 12 4.24994C13.8899 4.24994 15.6389 4.85037 17.0693 5.86908L15.9902 6.94819C14.8455 6.19188 13.4747 5.74994 12 5.74994C7.99594 5.74994 4.75 8.99588 4.75 12.9999V17.9999C4.75 18.068 4.74487 18.1351 4.7373 18.2011L20.4697 2.46967Z" fill="#363538"/>
<path d="M19.1797 8.00092C20.1684 9.41825 20.75 11.1408 20.75 12.9999V13.3564C21.9039 13.6831 22.75 14.7415 22.75 15.9999V17.9999C22.75 18.9664 21.9665 19.7499 21 19.7499C20.0335 19.7499 19.25 18.9664 19.25 17.9999V12.9999C19.25 11.5561 18.8261 10.212 18.0986 9.08197L19.1797 8.00092Z" fill="#363538"/>
</svg>
