<svg width="24" height="24" viewBox="0 0 24 24" fill="none" xmlns="http://www.w3.org/2000/svg">
<path d="M12 5.75C7.99594 5.75 4.75 8.99594 4.75 13V18C4.75 18.9665 3.9665 19.75 3 19.75C2.0335 19.75 1.25 18.9665 1.25 18V16C1.25 14.7412 2.09575 13.68 3.25 13.3535V13C3.25 8.16751 7.16751 4.25 12 4.25C16.8325 4.25 20.75 8.16751 20.75 13V13.3535C21.9043 13.68 22.75 14.7412 22.75 16V18C22.75 18.9665 21.9665 19.75 21 19.75C20.0335 19.75 19.25 18.9665 19.25 18V13C19.25 8.99594 16.0041 5.75 12 5.75Z" fill="#363538"/>
</svg>
