<svg width="24" height="24" viewBox="0 0 24 24" fill="none" xmlns="http://www.w3.org/2000/svg">
<path d="M15.8659 14.4127C15.1826 17.3304 11.1853 19.9167 9.62423 20.8291C9.23432 21.057 8.76568 21.057 8.37577 20.8291C6.81467 19.9167 2.81735 17.3304 2.13407 14.4127C1.51708 11.778 3.08296 9.04057 5.73458 9.00123C5.78931 9.00041 5.84486 9 5.90122 9C6.96866 9 7.92163 9.53765 8.48032 9.93515C8.78554 10.1523 9.21446 10.1523 9.51968 9.93515C10.0784 9.53765 11.0313 9 12.0988 9C12.1551 9 12.2107 9.00041 12.2654 9.00123C14.917 9.04057 16.4829 11.778 15.8659 14.4127Z" fill="#363538"/>
<path d="M21.9138 5.60846C21.4746 7.55362 18.9049 9.27782 17.9013 9.88606C17.6506 10.038 17.3494 10.038 17.0987 9.88606C16.0951 9.27782 13.5254 7.55362 13.0862 5.60846C12.6896 3.85203 13.6962 2.02704 15.4008 2.00082C15.436 2.00028 15.4717 2 15.5079 2C16.1941 2 16.8068 2.35843 17.1659 2.62343C17.3621 2.76821 17.6379 2.76821 17.8341 2.62343C18.1932 2.35843 18.8059 2 19.4921 2C19.5283 2 19.564 2.00028 19.5992 2.00082C21.3038 2.02704 22.3104 3.85203 21.9138 5.60846Z" fill="#363538"/>
</svg>
