<svg width="24" height="24" viewBox="0 0 24 24" fill="none" xmlns="http://www.w3.org/2000/svg">
<path d="M12.8918 20.2579C15.1219 18.9654 20.8324 15.3014 21.8085 11.168C22.6899 7.43556 20.4529 3.55747 16.6649 3.50174C16.5867 3.50059 16.5073 3.5 16.4268 3.5C14.9019 3.5 13.5405 4.26167 12.7424 4.8248C12.6724 4.87415 12.5979 4.91559 12.5203 4.94912L13.6489 7.48852C14.1071 8.51942 13.7569 9.73046 12.8192 10.3577C12.4774 10.5863 12.3582 11.033 12.5406 11.4016L13.4145 13.1673C13.5983 13.5385 13.4463 13.9884 13.0751 14.1722C12.7038 14.3559 12.2539 14.2039 12.0702 13.8327L11.1963 12.0669C10.6797 11.0233 11.0173 9.75838 11.9852 9.11092C12.3163 8.88943 12.44 8.46177 12.2782 8.09772L10.6491 4.43203C9.84869 3.96176 8.7605 3.5 7.57317 3.5C7.49265 3.5 7.41331 3.50059 7.33511 3.50174C3.54708 3.55747 1.31012 7.43556 2.19153 11.168C3.16765 15.3014 8.87811 18.9654 11.1082 20.2579C11.6653 20.5807 12.3347 20.5807 12.8918 20.2579Z" fill="#363538"/>
</svg>
