<svg width="24" height="24" viewBox="0 0 24 24" fill="none" xmlns="http://www.w3.org/2000/svg">
<path d="M15.2763 5.25098L15.5741 5.26562C16.7511 5.35992 17.7342 5.90479 18.4472 6.7002L11.2714 10.6885C10.5473 11.0908 10.2862 12.0044 10.6884 12.7285C11.0907 13.4526 12.0043 13.7137 12.7284 13.3115L19.6913 9.44238C19.7778 10.0463 19.7694 10.6752 19.6552 11.3008L19.5956 11.584C19.1983 13.28 17.8764 14.7872 16.5692 15.9365C15.5713 16.8139 14.5145 17.5409 13.7108 18.0469L13.0028 18.4766C12.4183 18.8181 11.7154 18.8397 11.1161 18.541L10.997 18.4766C10.1964 18.0087 8.76116 17.1064 7.43058 15.9365C7.30731 15.8281 7.18515 15.7152 7.06241 15.6006L5.60245 16.4121L5.14737 16.6641L5.38565 16.7119C5.79177 16.7932 6.05476 17.1886 5.97354 17.5947C5.89234 18.0008 5.49774 18.2646 5.09171 18.1836L2.85245 17.7354C2.65158 17.6951 2.47574 17.5744 2.36612 17.4014C2.25649 17.2281 2.22271 17.0173 2.27237 16.8184L2.77237 14.8184C2.87282 14.4166 3.27979 14.1722 3.68155 14.2725C4.08327 14.3729 4.32774 14.7799 4.22745 15.1816L4.1464 15.5039L4.87394 15.1006L5.98722 14.4814C5.32725 13.7022 4.77321 12.832 4.48917 11.8994L4.40421 11.584C4.05162 10.0783 4.31733 8.52733 5.07511 7.33203C5.83995 6.1257 7.11589 5.2749 8.72354 5.25098L8.90128 5.25C10.2023 5.25006 11.3125 5.8956 11.915 6.32422L11.954 6.3418C11.9975 6.35384 12.0511 6.34813 12.0849 6.32422L12.3339 6.15527C12.9677 5.74461 13.96 5.2501 15.0985 5.25C15.1584 5.25 15.2179 5.25011 15.2763 5.25098Z" fill="#363538"/>
<path d="M19.9999 5.25C20.4141 5.25005 20.7499 5.58582 20.7499 6V6.99512L21.7128 7.28125L21.7851 7.30664C22.1368 7.45085 22.3289 7.84055 22.2187 8.21289C22.1083 8.58525 21.7348 8.80798 21.3612 8.7373L21.287 8.71875L20.0888 8.36328L12.3642 12.6553C12.0021 12.8564 11.5459 12.7262 11.3446 12.3643C11.1435 12.0022 11.2737 11.5459 11.6357 11.3447L19.2499 7.11426V6C19.2499 5.58579 19.5857 5.25 19.9999 5.25Z" fill="#363538"/>
</svg>
