<svg width="24" height="24" viewBox="0 0 24 24" fill="none" xmlns="http://www.w3.org/2000/svg">
<path fill-rule="evenodd" clip-rule="evenodd" d="M13.9873 4.25011C14.3361 4.2442 14.643 4.47962 14.7276 4.8181L16.5856 12.25H22C22.4142 12.25 22.75 12.5858 22.75 13C22.75 13.4142 22.4142 13.75 22 13.75H16C15.6558 13.75 15.3559 13.5158 15.2724 13.1819L14.0562 8.31716L11.7334 19.1571C11.6616 19.4919 11.3722 19.7356 11.0301 19.7494C10.688 19.7631 10.38 19.5435 10.2816 19.2155L7.82506 11.0269L6.67082 13.3354C6.54378 13.5895 6.28408 13.75 6 13.75H2C1.58579 13.75 1.25 13.4142 1.25 13C1.25 12.5858 1.58579 12.25 2 12.25H5.53647L7.32918 8.66459C7.46669 8.38957 7.75814 8.22634 8.06449 8.25278C8.37084 8.27922 8.63001 8.48997 8.71837 8.78449L10.8788 15.986L13.2666 4.84285C13.3398 4.5017 13.6384 4.25602 13.9873 4.25011Z" fill="#363538"/>
</svg>
