<svg width="24" height="24" viewBox="0 0 24 24" fill="none" xmlns="http://www.w3.org/2000/svg">
<path d="M19.1338 4.10049C19.3179 3.37429 20.1877 3.0734 20.7021 3.61806C21.2197 4.16601 21.7605 4.84719 22 5.4999C22.257 6.2003 22.2681 7.14445 22.21 7.93935C22.1699 8.48577 21.9723 8.99048 21.6719 9.43545C21.6518 9.52674 21.6282 9.6389 21.6006 9.76748C21.5203 10.1419 21.4116 10.6594 21.2979 11.2313C21.0679 12.3874 20.8253 13.7266 20.7471 14.5692C20.6429 15.6916 20.6421 17.0322 20.6689 18.1063C20.6823 18.6401 20.7021 19.1023 20.7188 19.4306C20.7271 19.5946 20.7349 19.7254 20.7402 19.8144C20.7429 19.8586 20.7456 19.8932 20.7471 19.9159C20.7478 19.927 20.7477 19.9358 20.748 19.9413C20.7482 19.9439 20.749 19.9472 20.749 19.9472V19.9491L20.75 20.0253C20.7375 20.4051 20.4389 20.7212 20.0518 20.7479C19.6643 20.7744 19.3258 20.5016 19.2617 20.1269L19.252 20.0507V20.0409C19.2515 20.0344 19.2508 20.0239 19.25 20.0116C19.2484 19.9869 19.246 19.9505 19.2432 19.9042C19.2375 19.8109 19.2293 19.6758 19.2207 19.5067C19.2035 19.1684 19.1836 18.6928 19.1699 18.1435C19.1426 17.0509 19.1416 15.6412 19.2539 14.4306C19.3356 13.5507 19.5703 12.2415 19.7891 11.1288C15.2711 14.6445 13.374 17.4029 12.5771 19.0995C12.1076 20.0993 11.1046 20.9999 10 20.9999H4.39746C3.07345 20.9999 2.00002 19.9264 2 18.6024C2 17.9026 2.30563 17.2376 2.83691 16.7821L6.61816 13.5409C7.358 12.907 8.59762 13.6755 8.8916 14.6044C9.05629 15.1248 9.3876 15.4999 10 15.4999C10 15.4999 16.095 11.4864 18 7.4999C18.4701 6.51623 18.8668 5.15441 19.1338 4.10049Z" fill="#363538"/>
</svg>
