<svg width="24" height="24" viewBox="0 0 24 24" fill="none" xmlns="http://www.w3.org/2000/svg">
<path fill-rule="evenodd" clip-rule="evenodd" d="M21.0001 6C21.5523 6 22.0001 6.44772 22.0001 7V8.61426C22 9.44784 21.4827 10.1936 20.7022 10.4863L14.0001 13V13.8574C13.9999 15.593 12.593 16.9998 10.8575 17H10.7501V18.5H11.586C12.2925 18.5 12.9702 18.2193 13.4698 17.7197C13.7627 17.4269 14.2374 17.4269 14.5303 17.7197C14.8232 18.0126 14.8232 18.4874 14.5303 18.7803C13.7494 19.5611 12.6903 20 11.586 20H5.41413C4.37882 19.9999 3.38303 19.6145 2.61921 18.9229L2.46979 18.7803L2.41803 18.7236C2.17779 18.4291 2.19526 17.9943 2.46979 17.7197C2.74437 17.4451 3.17912 17.4277 3.4737 17.668L3.53034 17.7197L3.72565 17.8965C4.1997 18.285 4.79588 18.4999 5.41413 18.5H6.25006V17C6.25006 16.9763 6.25084 16.9528 6.25299 16.9297C4.64431 16.6256 3.37656 15.3585 3.07135 13.75H7.00006C8.51885 13.75 9.75006 12.5188 9.75006 11V9H14.5001L18.2823 8.24316C18.9903 8.10132 19.5 7.47994 19.5001 6.75781C19.5001 6.33939 19.8395 6.00006 20.2579 6H21.0001ZM7.75006 17V18.5H9.25006V17H7.75006Z" fill="#363538"/>
<path d="M8.25006 11C8.25006 11.6904 7.69042 12.25 7.00006 12.25H3.07135C3.42248 10.3995 5.0474 9.00006 7.00006 9H8.25006V11Z" fill="#363538"/>
<path d="M15.0001 5.75C15.4143 5.75 15.7501 6.08579 15.7501 6.5C15.7501 6.91421 15.4143 7.25 15.0001 7.25H9.75006V9H8.25006V7.25H3.00006C2.58591 7.24994 2.25006 6.91417 2.25006 6.5C2.25006 6.08583 2.58591 5.75006 3.00006 5.75H15.0001Z" fill="#363538"/>
</svg>
