<svg width="24" height="24" viewBox="0 0 24 24" fill="none" xmlns="http://www.w3.org/2000/svg">
<path d="M12.01 2.5C16.9751 2.5 21 6.517 21 11.4722C21 16.2048 17.3286 20.0816 12.6732 20.4204L7.56586 21.2713C6.74072 21.4088 5.9172 21.0182 5.50155 20.2922L4.16739 17.9621C4.13742 17.9097 4.10479 17.859 4.07056 17.8094L11.8326 13.7012C12.8093 13.1843 13.1817 11.9731 12.6641 10.9968L12.175 10.0744C11.7802 9.32964 10.9629 8.9121 10.1284 9.0308L3.13669 10.0253C3.13873 10.014 3.1409 10.0027 3.14318 9.99143C3.17489 9.83443 3.3107 9.1728 3.41523 8.83331C4.54434 5.16597 7.96524 2.5 12.01 2.5Z" fill="#363538"/>
<path d="M3.01996 11.557L3.34771 11.5104L10.3396 10.5159C10.5465 10.4864 10.7502 10.5892 10.8498 10.777L11.3388 11.6994C11.4682 11.9434 11.3751 12.2462 11.1309 12.3755L3.36462 16.4859C2.96506 15.2709 2.98819 13.8019 3.01022 12.4033C3.01472 12.1174 3.01918 11.8344 3.01996 11.557Z" fill="#363538"/>
</svg>
