<svg width="24" height="24" viewBox="0 0 24 24" fill="none" xmlns="http://www.w3.org/2000/svg">
<path d="M9 3.5C7.89543 3.5 7 4.39543 7 5.5V7.5C7 8.60457 7.89543 9.5 9 9.5H11.25V11.75H8C6.48122 11.75 5.25 12.9812 5.25 14.5H4C2.89543 14.5 2 15.3954 2 16.5V18.5C2 19.6046 2.89543 20.5 4 20.5H8C9.10457 20.5 10 19.6046 10 18.5V16.5C10 15.3954 9.10457 14.5 8 14.5H6.75C6.75 13.8096 7.30964 13.25 8 13.25H16C16.6904 13.25 17.25 13.8096 17.25 14.5H16C14.8954 14.5 14 15.3954 14 16.5V18.5C14 19.6046 14.8954 20.5 16 20.5H20C21.1046 20.5 22 19.6046 22 18.5V16.5C22 15.3954 21.1046 14.5 20 14.5H18.75C18.75 12.9812 17.5188 11.75 16 11.75H12.75V9.5H15C16.1046 9.5 17 8.60457 17 7.5V5.5C17 4.39543 16.1046 3.5 15 3.5H9Z" fill="#363538"/>
</svg>
