<svg width="24" height="24" viewBox="0 0 24 24" fill="none" xmlns="http://www.w3.org/2000/svg">
<path d="M5.81767 1.86035C6.23177 1.86037 6.56849 2.19531 6.56864 2.60938V3.75879C6.73005 3.65261 6.89537 3.54994 7.06474 3.45215C11.7854 0.726701 17.8215 2.34402 20.5472 7.06445C23.2727 11.7852 21.6555 17.8213 16.9349 20.5469C12.2142 23.2723 6.17802 21.6551 3.45243 16.9346C2.75146 15.7203 2.33693 14.4165 2.18974 13.1045C2.14387 12.6931 2.44038 12.3215 2.85185 12.2754C3.26326 12.2294 3.63369 12.5261 3.67997 12.9375C3.80455 14.048 4.15555 15.1527 4.75126 16.1846C7.06261 20.1877 12.1816 21.5592 16.1849 19.248C20.1881 16.9367 21.5596 11.8177 19.2483 7.81445C17.0104 3.93874 12.1412 2.53007 8.20048 4.54199H8.49931C8.91345 4.54199 9.25017 4.87788 9.25029 5.29199C9.25022 5.70615 8.91348 6.04199 8.49931 6.04199H5.81767C5.40363 6.04183 5.06773 5.70606 5.06767 5.29199V2.60938C5.0679 2.19546 5.40373 1.86051 5.81767 1.86035Z" fill="#363538"/>
<path d="M11.0003 8.25C11.4144 8.25011 11.7503 8.58585 11.7503 9V13.25H15.0003C15.4144 13.2501 15.7503 13.5859 15.7503 14C15.7503 14.4141 15.4144 14.7499 15.0003 14.75H11.0003C10.5861 14.75 10.2503 14.4142 10.2503 14V9C10.2503 8.58579 10.5861 8.25 11.0003 8.25Z" fill="#363538"/>
</svg>
