<svg width="24" height="24" viewBox="0 0 24 24" fill="none" xmlns="http://www.w3.org/2000/svg">
<path fill-rule="evenodd" clip-rule="evenodd" d="M9.50107 3.99923C10.9618 2.83094 13.0374 2.83103 14.4981 3.99923L20.1671 8.53439C21.2986 9.43963 21.8516 10.8863 21.6134 12.3156L20.5567 18.6584C20.2352 20.587 18.5666 22.0001 16.6114 22.0002H7.38779C5.43272 21.9999 3.76395 20.5869 3.44248 18.6584L2.38584 12.3156C2.14762 10.8863 2.70067 9.43964 3.83213 8.53439L9.50107 3.99923ZM13.9923 10.0002C13.3061 10.0003 12.6932 10.3593 12.3341 10.6242C12.138 10.7688 11.8622 10.7688 11.6661 10.6242C11.3069 10.3592 10.694 10.0002 10.0079 10.0002C9.97174 10.0002 9.93561 10.0006 9.90049 10.0012C8.19628 10.0277 7.18972 11.8525 7.58603 13.6086C8.02527 15.5537 10.5951 17.2786 11.5987 17.8869C11.8493 18.0387 12.1509 18.0387 12.4015 17.8869C13.4051 17.2787 15.9749 15.5537 16.4142 13.6086C16.8105 11.8523 15.8032 10.0274 14.0987 10.0012C14.0638 10.0007 14.0282 10.0002 13.9923 10.0002Z" fill="#363538"/>
</svg>
