<svg width="24" height="24" viewBox="0 0 24 24" fill="none" xmlns="http://www.w3.org/2000/svg">
<path fill-rule="evenodd" clip-rule="evenodd" d="M3.83285 8.53445L9.50145 3.99957C10.9623 2.83087 13.0381 2.83087 14.499 3.99957L20.1676 8.53445C21.2992 9.43969 21.8526 10.8861 21.6144 12.3155L20.5573 18.6581C20.2358 20.5869 18.5671 22.0005 16.6117 22.0005H7.38874C5.43338 22.0005 3.76462 20.5869 3.44316 18.6581L2.38606 12.3155C2.14783 10.8861 2.7013 9.43969 3.83285 8.53445ZM7 14.0005C7 13.4482 7.44772 13.0005 8 13.0005H11C11.5523 13.0005 12 13.4482 12 14.0005V18.0005C12 18.5528 11.5523 19.0005 11 19.0005H8C7.44772 19.0005 7 18.5528 7 18.0005V14.0005ZM15 10.0005C14.4477 10.0005 14 10.4482 14 11.0005V13.0005C14 13.5528 14.4477 14.0005 15 14.0005H17C17.5523 14.0005 18 13.5528 18 13.0005V11.0005C18 10.4482 17.5523 10.0005 17 10.0005H15Z" fill="#363538"/>
</svg>
