<svg width="24" height="24" viewBox="0 0 24 24" fill="none" xmlns="http://www.w3.org/2000/svg">
<path d="M3.66433 8.66804L9.50114 3.99859C10.962 2.82989 13.0378 2.8299 14.4987 3.9986L20.3355 8.66804C21.3759 9.50033 21.9336 10.796 21.8229 12.1237L21.1527 20.1657C21.0664 21.2022 20.1998 21.9996 19.1597 21.9996H15.2748C13.9097 21.9996 12.9457 20.6622 13.3774 19.3671L13.6303 18.6084C14.0581 17.325 13.1028 15.9996 11.7499 15.9996C10.397 15.9996 9.44173 17.325 9.86955 18.6085L10.1224 19.3671C10.5541 20.6622 9.59018 21.9996 8.22507 21.9996H4.84019C3.80001 21.9996 2.93348 21.2022 2.84709 20.1657L2.17693 12.1237C2.06629 10.796 2.62397 9.50033 3.66433 8.66804Z" fill="#363538"/>
</svg>
