<svg width="24" height="24" viewBox="0 0 24 24" fill="none" xmlns="http://www.w3.org/2000/svg">
<path fill-rule="evenodd" clip-rule="evenodd" d="M9.5012 3.99859L3.83261 8.53347C2.70105 9.43871 2.14758 10.8852 2.38581 12.3145L3.44292 18.6572C3.76438 20.5859 5.43314 21.9996 7.38849 21.9996H16.6115C18.5668 21.9996 20.2356 20.5859 20.5571 18.6572L21.6142 12.3145C21.8524 10.8852 21.2989 9.43872 20.1674 8.53347L14.4988 3.9986C13.0379 2.8299 10.9621 2.82989 9.5012 3.99859ZM12.75 12.9995C12.75 12.5853 12.4142 12.2495 12 12.2495C11.5858 12.2495 11.25 12.5853 11.25 12.9995V16.9995C11.25 17.4137 11.5858 17.7495 12 17.7495C12.4142 17.7495 12.75 17.4137 12.75 16.9995V12.9995Z" fill="#363538"/>
</svg>
