<svg width="24" height="24" viewBox="0 0 24 24" fill="none" xmlns="http://www.w3.org/2000/svg">
<path fill-rule="evenodd" clip-rule="evenodd" d="M9.50107 3.99923C10.9618 2.83094 13.0374 2.83103 14.4981 3.99923L20.1671 8.53439C21.2986 9.43963 21.8516 10.8863 21.6134 12.3156L20.5567 18.6584C20.2352 20.587 18.5666 22.0001 16.6114 22.0002H7.38779C5.43272 21.9999 3.76395 20.5869 3.44248 18.6584L2.38584 12.3156C2.14762 10.8863 2.70067 9.43964 3.83213 8.53439L9.50107 3.99923ZM12.0001 9.26974C12.0001 8.98651 11.5622 8.89629 11.4171 9.14962L8.53232 14.1858C8.43045 14.3641 8.57941 14.5743 8.80771 14.5744H11.6925C11.8623 14.5744 12.0001 14.6947 12.0001 14.843V17.7317C12.0001 18.0148 12.4369 18.1049 12.5821 17.8518L15.4669 12.8156C15.569 12.6373 15.4208 12.4272 15.1925 12.427H12.3077C12.138 12.4269 12.0001 12.3066 12.0001 12.1584V9.26974Z" fill="#363538"/>
</svg>
