<svg width="24" height="24" viewBox="0 0 24 24" fill="none" xmlns="http://www.w3.org/2000/svg">
<path fill-rule="evenodd" clip-rule="evenodd" d="M9.50107 3.99923C10.9618 2.83094 13.0374 2.83103 14.4981 3.99923L20.1671 8.53439C21.2986 9.43963 21.8516 10.8863 21.6134 12.3156L20.5567 18.6584C20.2352 20.587 18.5666 22.0001 16.6114 22.0002H7.38779C5.43272 21.9999 3.76395 20.5869 3.44248 18.6584L2.38584 12.3156C2.14762 10.8863 2.70067 9.43964 3.83213 8.53439L9.50107 3.99923ZM12.0001 8.75021C11.5861 8.75031 11.2503 9.08624 11.2501 9.50021V9.71603C10.9038 9.63329 10.5366 9.80822 10.3888 10.1457C10.2231 10.525 10.3965 10.9669 10.7755 11.133L11.2501 11.3401V12.717L9.97666 12.0022L10.0108 11.467C10.0361 11.0538 9.72094 10.6976 9.30771 10.6721C8.95641 10.6507 8.64845 10.8759 8.54795 11.1975L8.36826 11.0969L8.29892 11.0627C7.9508 10.911 7.53736 11.0443 7.34677 11.382C7.15655 11.7203 7.25701 12.1436 7.56748 12.3625L7.63193 12.4035L7.81845 12.508C7.59399 12.7621 7.56235 13.1443 7.76572 13.4338C8.00395 13.7725 8.47184 13.8545 8.81064 13.6164L9.24424 13.3108L10.4698 14.0002L10.0323 14.2463L9.2247 14.6994L8.74424 14.3899L8.67783 14.3518C8.33908 14.1794 7.91732 14.2891 7.70713 14.6154C7.52173 14.9042 7.5627 15.2698 7.77939 15.5149L7.63291 15.5969C7.2721 15.7999 7.14396 16.2575 7.34677 16.6184C7.53725 16.9564 7.95067 17.0895 8.29892 16.9377L8.36826 16.9035L8.54795 16.802C8.64802 17.1242 8.95594 17.3497 9.30771 17.3283C9.72104 17.3028 10.0363 16.9468 10.0108 16.5334L9.97666 15.9973L10.7677 15.5539L11.2501 15.2824V16.6809L10.7481 16.926C10.376 17.1074 10.2213 17.5567 10.4024 17.9289C10.5594 18.2507 10.9158 18.4084 11.2501 18.3283V18.5002C11.2501 18.9143 11.586 19.2501 12.0001 19.2502C12.4142 19.2501 12.7501 18.9144 12.7501 18.5002V18.3283C13.0844 18.4084 13.4408 18.2507 13.5978 17.9289C13.7789 17.5566 13.6243 17.1073 13.252 16.926L12.7501 16.6809V15.2824L13.2325 15.5539L14.0226 15.9973L13.9894 16.5334L14.7384 16.5793L15.0948 16.6008L15.0958 16.6018L13.9894 16.5334C13.9639 16.9468 14.2792 17.3028 14.6925 17.3283C15.0441 17.3497 15.3511 17.1241 15.4513 16.802L15.6319 16.9035C15.9927 17.1065 16.4502 16.9789 16.6534 16.6184C16.8435 16.2801 16.7432 15.8567 16.4327 15.6379L16.3673 15.5969L16.2208 15.5149C16.4374 15.2698 16.4785 14.9042 16.2931 14.6154C16.069 14.2674 15.6042 14.1661 15.256 14.3899L14.7745 14.6994L13.5294 14.0002L13.9679 13.7541L14.7745 13.3L15.256 13.6106L15.3224 13.6486C15.6612 13.8212 16.0829 13.7116 16.2931 13.385C16.4782 13.0963 16.4382 12.7305 16.2218 12.4856L16.3683 12.4035C16.7287 12.2002 16.8563 11.7428 16.6534 11.382C16.4502 11.0217 15.9926 10.8942 15.6319 11.0969L15.4122 11.2199C15.3079 10.8861 14.9805 10.6598 14.6192 10.6975C14.2076 10.7407 13.9085 11.11 13.9513 11.5217L14.002 12.0129L13.2325 12.4465L12.7501 12.717V11.3186L13.252 11.0744C13.6242 10.8929 13.7791 10.4438 13.5978 10.0715C13.4408 9.75003 13.0842 9.59126 12.7501 9.67111V9.50021C12.7499 9.08623 12.4141 8.7503 12.0001 8.75021Z" fill="#363538"/>
</svg>
