<svg width="24" height="24" viewBox="0 0 24 24" fill="none" xmlns="http://www.w3.org/2000/svg">
<path fill-rule="evenodd" clip-rule="evenodd" d="M9.50107 3.99923C10.9618 2.83094 13.0374 2.83103 14.4981 3.99923L20.1671 8.53439C21.2986 9.43963 21.8516 10.8863 21.6134 12.3156L20.5567 18.6584C20.2352 20.587 18.5666 22.0001 16.6114 22.0002H7.38779C5.43272 21.9999 3.76395 20.5869 3.44248 18.6584L2.38584 12.3156C2.14762 10.8863 2.70067 9.43964 3.83213 8.53439L9.50107 3.99923ZM13.3565 10.0002C13.3395 10.0131 11.6927 11.2588 12.6729 12.5041C13.3562 13.3387 11.7927 14.8328 10.9581 13.9983C10.4421 13.4822 10.5401 13.3725 10.0177 11.6701C6.4714 14.5912 9.78637 19.1812 13.3565 17.7209C15.9526 16.6588 15.8603 13.9647 14.8263 12.5041C13.5667 11.462 13.357 10.0034 13.3565 10.0002Z" fill="#363538"/>
</svg>
