<svg width="24" height="24" viewBox="0 0 24 24" fill="none" xmlns="http://www.w3.org/2000/svg">
<path fill-rule="evenodd" clip-rule="evenodd" d="M3 18V7C3 5.34315 4.34315 4 6 4H13C14.6569 4 16 5.34315 16 7V18C16 19.6569 14.6569 21 13 21H12.25V19.5C12.25 17.9812 11.0188 16.75 9.5 16.75C7.98122 16.75 6.75 17.9812 6.75 19.5V21H6C4.34315 21 3 19.6569 3 18ZM5 10.75C4.58579 10.75 4.25 11.0858 4.25 11.5C4.25 11.9142 4.58579 12.25 5 12.25H6C6.41421 12.25 6.75 11.9142 6.75 11.5C6.75 11.0858 6.41421 10.75 6 10.75H5ZM8.25 11.5C8.25 11.0858 8.58579 10.75 9 10.75H10C10.4142 10.75 10.75 11.0858 10.75 11.5C10.75 11.9142 10.4142 12.25 10 12.25H9C8.58579 12.25 8.25 11.9142 8.25 11.5ZM13 10.75C12.5858 10.75 12.25 11.0858 12.25 11.5C12.25 11.9142 12.5858 12.25 13 12.25H14C14.4142 12.25 14.75 11.9142 14.75 11.5C14.75 11.0858 14.4142 10.75 14 10.75H13ZM12.25 13.5C12.25 13.0858 12.5858 12.75 13 12.75H14C14.4142 12.75 14.75 13.0858 14.75 13.5C14.75 13.9142 14.4142 14.25 14 14.25H13C12.5858 14.25 12.25 13.9142 12.25 13.5ZM13 14.75C12.5858 14.75 12.25 15.0858 12.25 15.5C12.25 15.9142 12.5858 16.25 13 16.25H14C14.4142 16.25 14.75 15.9142 14.75 15.5C14.75 15.0858 14.4142 14.75 14 14.75H13ZM8.25 15.5C8.25 15.0858 8.58579 14.75 9 14.75H10C10.4142 14.75 10.75 15.0858 10.75 15.5C10.75 15.9142 10.4142 16.25 10 16.25H9C8.58579 16.25 8.25 15.9142 8.25 15.5ZM5 14.75C4.58579 14.75 4.25 15.0858 4.25 15.5C4.25 15.9142 4.58579 16.25 5 16.25H6C6.41421 16.25 6.75 15.9142 6.75 15.5C6.75 15.0858 6.41421 14.75 6 14.75H5ZM4.25 13.5C4.25 13.0858 4.58579 12.75 5 12.75H6C6.41421 12.75 6.75 13.0858 6.75 13.5C6.75 13.9142 6.41421 14.25 6 14.25H5C4.58579 14.25 4.25 13.9142 4.25 13.5ZM9 12.75C8.58579 12.75 8.25 13.0858 8.25 13.5C8.25 13.9142 8.58579 14.25 9 14.25H10C10.4142 14.25 10.75 13.9142 10.75 13.5C10.75 13.0858 10.4142 12.75 10 12.75H9ZM9.5 5.75C9.91421 5.75 10.25 6.08579 10.25 6.5V6.75H10.5C10.9142 6.75 11.25 7.08579 11.25 7.5C11.25 7.91421 10.9142 8.25 10.5 8.25H10.25V8.5C10.25 8.91421 9.91421 9.25 9.5 9.25C9.08579 9.25 8.75 8.91421 8.75 8.5V8.25H8.5C8.08579 8.25 7.75 7.91421 7.75 7.5C7.75 7.08579 8.08579 6.75 8.5 6.75H8.75V6.5C8.75 6.08579 9.08579 5.75 9.5 5.75Z" fill="#363538"/>
<path d="M10.75 19.5V21H8.25V19.5C8.25 18.8096 8.80964 18.25 9.5 18.25C10.1904 18.25 10.75 18.8096 10.75 19.5Z" fill="#363538"/>
<path d="M21.2123 16.1862C21.246 16.1214 21.2879 16.0399 21.336 15.9442C21.4639 15.6896 21.6367 15.3325 21.817 14.9211C22.1692 14.1171 22.5814 13.0361 22.7058 12.0986C22.9722 10.0921 22.096 8.46389 21.5291 7.64405C21.0048 6.8859 19.9199 6.8859 19.3956 7.64405C18.8286 8.46389 17.9525 10.0921 18.2189 12.0986C18.3433 13.0361 18.7554 14.1171 19.1077 14.9211C19.2879 15.3325 19.4608 15.6896 19.5886 15.9442C19.6367 16.0399 19.6786 16.1214 19.7123 16.1862V19.9999C19.7123 20.4142 20.0481 20.7499 20.4623 20.7499C20.8765 20.7499 21.2123 20.4142 21.2123 19.9999V16.1862Z" fill="#363538"/>
</svg>
