<svg width="24" height="24" viewBox="0 0 24 24" fill="none" xmlns="http://www.w3.org/2000/svg">
<path d="M15 20.5C15 21.0523 14.5523 21.5 14 21.5H10C9.4479 21.4998 9.00001 21.0522 9.00001 20.5V18.5H15V20.5Z" fill="#363538"/>
<path d="M9.91212 2.93457C9.7494 3.07544 9.59048 3.22627 9.44044 3.3877C8.66607 4.22088 7.96892 5.40395 7.54493 6.85156C6.76617 9.5108 6.91241 13.0496 9.15919 17H8.17579C4.16545 12.8929 2.79259 4.30141 9.91212 2.93457Z" fill="#363538"/>
<path d="M11.25 17H10.9092C8.41471 13.0602 8.28462 9.66297 8.98438 7.27344C9.34738 6.03397 9.934 5.06029 10.5391 4.40918C10.793 4.136 11.035 3.93671 11.25 3.79492V17Z" fill="#363538"/>
<path d="M12.75 3.79395C12.9653 3.93579 13.2076 4.13555 13.4619 4.40918C14.067 5.06029 14.6536 6.03402 15.0166 7.27344C15.7163 9.66295 15.5862 13.0603 13.0918 17H12.75V3.79395Z" fill="#363538"/>
<path d="M14.0879 2.93457C21.2083 4.30108 19.8349 12.8929 15.8242 17H14.8418C17.0885 13.0497 17.2348 9.51078 16.4561 6.85156C16.0321 5.40398 15.3349 4.22089 14.5606 3.3877C14.4104 3.22615 14.2508 3.07554 14.0879 2.93457Z" fill="#363538"/>
</svg>
