<svg width="24" height="24" viewBox="0 0 24 24" fill="none" xmlns="http://www.w3.org/2000/svg">
<path d="M16.1658 2H7.83428C6.45228 2 5.49324 3.3665 6.02862 4.64059C6.37309 5.46036 6.76481 6.32497 7.13892 7C7.81624 8.22213 8.88574 9.63464 9.70011 10.646C10.333 11.4318 10.333 12.5682 9.70011 13.354C8.88574 14.3654 7.81624 15.7779 7.13892 17C6.76481 17.675 6.37309 18.5396 6.02862 19.3594C5.49324 20.6335 6.45228 22 7.83428 22H16.1658C17.5478 22 18.5068 20.6335 17.9714 19.3594C17.627 18.5396 17.2353 17.675 16.8611 17C16.1838 15.7779 15.1143 14.3654 14.3 13.354C13.6671 12.5682 13.6671 11.4318 14.3 10.646C15.1143 9.63464 16.1838 8.22213 16.8611 7C17.2353 6.32497 17.627 5.46036 17.9714 4.64059C18.5068 3.3665 17.5478 2 16.1658 2Z" fill="#363538"/>
</svg>
