<svg width="24" height="24" viewBox="0 0 24 24" fill="none" xmlns="http://www.w3.org/2000/svg">
<path fill-rule="evenodd" clip-rule="evenodd" d="M6.26568 3H17.7345C18.9375 3 19.8683 4.05436 19.7191 5.24807L18.1565 17.7493C18.0609 18.5135 17.535 19.155 16.8043 19.3986L12.6326 20.7892C12.222 20.926 11.7782 20.926 11.3677 20.7892L7.19587 19.3986C6.4652 19.155 5.9393 18.5135 5.84377 17.7493L4.28112 5.24807C4.13191 4.05436 5.06268 3 6.26568 3ZM8.56659 6.25C7.81472 6.25 7.23299 6.90898 7.32624 7.65504L7.70124 10.655C7.77944 11.2806 8.31119 11.75 8.94159 11.75H15.0853L14.3501 15.4261L11.9831 16.2151L9.2502 15.4343V14C9.2502 13.5858 8.91441 13.25 8.5002 13.25C8.08599 13.25 7.7502 13.5858 7.7502 14V15.6228C7.7502 16.181 8.12017 16.6714 8.6568 16.8248L11.6454 17.6786C11.8876 17.7479 12.1451 17.7423 12.3841 17.6626L14.9621 16.8033C15.3877 16.6614 15.7046 16.3024 15.7925 15.8626L16.616 11.7451C16.7707 10.9717 16.1791 10.25 15.3903 10.25H9.16229L8.84979 7.75H16.0002C16.4144 7.75 16.7502 7.41421 16.7502 7C16.7502 6.58579 16.4144 6.25 16.0002 6.25H8.56659Z" fill="#363538"/>
</svg>
