<svg width="24" height="24" viewBox="0 0 24 24" fill="none" xmlns="http://www.w3.org/2000/svg">
<path fill-rule="evenodd" clip-rule="evenodd" d="M6.26568 3H17.7345C18.9375 3 19.8683 4.05436 19.7191 5.24807L18.1564 17.7493C18.0609 18.5135 17.535 19.155 16.8043 19.3986L12.6326 20.7892C12.222 20.926 11.7782 20.926 11.3677 20.7892L7.19587 19.3986C6.4652 19.155 5.9393 18.5135 5.84377 17.7493L4.28112 5.24807C4.13191 4.05436 5.06268 3 6.26568 3ZM8.00011 6.25C7.5859 6.25 7.25011 6.58579 7.25011 7C7.25011 7.41421 7.5859 7.75 8.00011 7.75H14.8756C15.0252 7.75 15.1413 7.88059 15.1239 8.02921L14.8332 10.5H8.00011C7.5859 10.5 7.25011 10.8358 7.25011 11.25C7.25011 11.6642 7.5859 12 8.00011 12H14.6567L14.3183 14.8762C14.3085 14.9599 14.2572 15.0329 14.1818 15.0706L12.0352 16.1439C11.9759 16.1736 11.9072 16.1785 11.8443 16.1575L9.63024 15.4195C9.56734 15.3985 9.51534 15.3534 9.48569 15.2941L8.67093 13.6646C8.48569 13.2941 8.03519 13.1439 7.6647 13.3292C7.29422 13.5144 7.14405 13.9649 7.32929 14.3354L8.14405 15.9649C8.35161 16.3801 8.71559 16.6957 9.1559 16.8425L11.37 17.5805C11.8103 17.7273 12.2909 17.6931 12.706 17.4856L14.8527 16.4123C15.38 16.1486 15.7392 15.637 15.8081 15.0515L16.6136 8.20447C16.736 7.16411 15.9231 6.25 14.8756 6.25H8.00011Z" fill="#363538"/>
</svg>
