<svg width="24" height="24" viewBox="0 0 24 24" fill="none" xmlns="http://www.w3.org/2000/svg">
<path d="M4.97002 20.4701C8.0331 17.407 13.9848 14.8811 20.0374 15.6732L20.6233 15.7601L20.6985 15.7767C21.0651 15.8769 21.3043 16.2405 21.2405 16.6234C21.1766 17.0062 20.8325 17.2725 20.4534 17.2484L20.3773 17.2396L19.8382 17.1595C14.2716 16.4328 8.77995 18.7813 6.03057 21.5306C5.73777 21.8234 5.26291 21.8232 4.97002 21.5306C4.67716 21.2378 4.67721 20.763 4.97002 20.4701Z" fill="#363538"/>
<path d="M11.7962 13.0111C13.4518 12.4807 15.3773 12.0896 17.2161 12.2211L17.5833 12.2552L17.6585 12.267C18.0302 12.3468 18.2883 12.6974 18.2454 13.0834C18.2022 13.4688 17.8741 13.7537 17.4944 13.7504L17.4173 13.7455L17.1058 13.7172C15.5355 13.6055 13.8172 13.939 12.2542 14.4398C10.5938 14.9718 9.17115 15.6719 8.38604 16.1429L8.31866 16.1791C7.97466 16.3409 7.55668 16.2189 7.35674 15.8861C7.14375 15.5309 7.25943 15.0699 7.61456 14.8568L7.97491 14.6488C8.88206 14.1434 10.2453 13.508 11.7962 13.0111Z" fill="#363538"/>
<path d="M5.78155 3.932C6.00084 3.79209 6.28104 3.77396 6.51885 3.89196C6.79039 4.02689 6.95353 4.31307 6.93291 4.6156L6.50811 10.8509L7.75518 10.9359C8.1684 10.9641 8.48053 11.3215 8.45245 11.7347C8.42429 12.148 8.06684 12.4601 7.65362 12.432L3.66241 12.1605C3.24933 12.1322 2.937 11.7739 2.96514 11.3607C2.99345 10.9476 3.35179 10.6353 3.76495 10.6634L5.01202 10.7484L5.31377 6.3197L4.5462 6.98864C4.23407 7.26075 3.76082 7.22843 3.48858 6.91638C3.21636 6.60425 3.24875 6.13104 3.56084 5.85876L5.6917 3.99939L5.78155 3.932Z" fill="#363538"/>
<path fill-rule="evenodd" clip-rule="evenodd" d="M12.2903 3.22595C13.8054 3.32935 14.9502 4.64145 14.847 6.15661L14.6429 9.1488C14.5396 10.6641 13.2275 11.8096 11.7122 11.7064C10.1971 11.6032 9.05254 10.2909 9.15557 8.77575L9.35967 5.78259C9.4629 4.26732 10.7751 3.12272 12.2903 3.22595ZM12.1878 4.72204C11.4992 4.67528 10.9027 5.19555 10.8558 5.88415L10.6517 8.87732C10.6048 9.56592 11.1252 10.1622 11.8138 10.2093C12.5025 10.2563 13.0999 9.736 13.1468 9.04724L13.3499 6.05407C13.3968 5.36537 12.8765 4.76896 12.1878 4.72204Z" fill="#363538"/>
<path fill-rule="evenodd" clip-rule="evenodd" d="M19.3421 2.70349C20.8572 2.80686 22.0019 4.11903 21.8987 5.63415L21.6946 8.62732C21.5914 10.1426 20.2792 11.2872 18.764 11.184C17.2487 11.0807 16.1041 9.76853 16.2073 8.25329L16.4114 5.26013C16.5148 3.74502 17.8269 2.60027 19.3421 2.70349ZM19.2396 4.20056C18.5509 4.15379 17.9544 4.674 17.9075 5.36267L17.7034 8.35583C17.6567 9.04426 18.1771 9.64072 18.8655 9.68786C19.5542 9.73478 20.1514 9.21434 20.1985 8.52575L20.4017 5.53259C20.4486 4.84383 19.9283 4.24748 19.2396 4.20056Z" fill="#363538"/>
</svg>
