<svg width="24" height="24" viewBox="0 0 24 24" fill="none" xmlns="http://www.w3.org/2000/svg">
<path d="M15.1619 6.07344L18.6628 2.57257C19.4262 1.80914 20.664 1.80914 21.4274 2.57257C22.1909 3.336 22.1909 4.57375 21.4274 5.33718L17.9266 8.83805C17.8229 8.94175 17.6822 9 17.5356 9H15.5529C15.2476 9 15 8.75245 15 8.44708V6.46442C15 6.31778 15.0583 6.17714 15.1619 6.07344Z" fill="#363538"/>
<path d="M9 8.5C9 9.32843 8.32843 10 7.5 10C6.67157 10 6 9.32843 6 8.5C6 7.67157 6.67157 7 7.5 7C8.32843 7 9 7.67157 9 8.5Z" fill="#363538"/>
<path d="M14.25 4H6C3.79086 4 2 5.79086 2 8V16C2 18.2091 3.79086 20 6 20H18C20.2091 20 22 18.2091 22 16V8.75C22 8.33579 21.6642 8 21.25 8C20.8358 8 20.5 8.33579 20.5 8.75V16C20.5 16.3056 20.4452 16.5985 20.3448 16.8692L17.1336 11.3227C16.4752 10.1854 14.7935 10.3151 14.3172 11.5399L13.2136 14.3776C12.7189 15.6498 10.978 15.7977 10.2758 14.6273C9.67057 13.6186 8.23212 13.555 7.54026 14.5063L4.84212 18.2163C4.04436 17.7986 3.5 16.9629 3.5 16V8C3.5 6.61929 4.61929 5.5 6 5.5H14.25C14.6642 5.5 15 5.16421 15 4.75C15 4.33579 14.6642 4 14.25 4Z" fill="#363538"/>
</svg>
