<svg width="24" height="24" viewBox="0 0 24 24" fill="none" xmlns="http://www.w3.org/2000/svg">
<path d="M11.75 4C12.1642 4 12.5 4.33579 12.5 4.75C12.5 5.16421 12.1642 5.5 11.75 5.5H6C4.61929 5.5 3.5 6.61929 3.5 8V16C3.5 16.0694 3.50413 16.1381 3.50977 16.2061C3.51168 16.2296 3.51306 16.253 3.51562 16.2764C3.52314 16.3447 3.53397 16.412 3.54688 16.4785C3.54972 16.4932 3.55256 16.5079 3.55566 16.5225C3.57073 16.5933 3.58846 16.663 3.60938 16.7314C3.61257 16.7419 3.61582 16.7523 3.61914 16.7627C3.66383 16.9023 3.72072 17.0363 3.78809 17.1641C3.79516 17.1775 3.80226 17.1908 3.80957 17.2041C3.84306 17.2649 3.87872 17.3243 3.91699 17.3818C3.92594 17.3953 3.93513 17.4086 3.94434 17.4219C4.07371 17.6085 4.22822 17.7759 4.40234 17.9209C4.405 17.9231 4.40769 17.9253 4.41016 17.9277L4.4541 17.9648L4.45508 17.9629L6.54102 15.5068C7.23288 14.5555 8.67117 14.6193 9.27637 15.6279C9.97872 16.798 11.7191 16.6498 12.2139 15.3779L13.3184 12.54C13.7948 11.3155 15.4764 11.186 16.1348 12.3232L19.625 17.9004C19.6512 17.8779 19.6739 17.8516 19.6992 17.8281C19.7294 17.8 19.7603 17.7727 19.7891 17.7432C19.8174 17.7141 19.8442 17.6837 19.8711 17.6533C19.9002 17.6204 19.9287 17.5872 19.9561 17.5527C19.9791 17.5238 20.0007 17.4939 20.0225 17.4639C20.0531 17.4216 20.0833 17.3792 20.1113 17.335C20.129 17.3071 20.1455 17.2786 20.1621 17.25C20.1857 17.2093 20.2082 17.1681 20.2295 17.126C20.248 17.0894 20.2655 17.0523 20.2822 17.0146C20.3014 16.9716 20.3192 16.9281 20.3359 16.8838C20.3488 16.8498 20.3616 16.8159 20.373 16.7812C20.3896 16.7309 20.4036 16.6797 20.417 16.6279C20.4262 16.5922 20.4366 16.5568 20.4443 16.5205C20.4474 16.5062 20.4503 16.4919 20.4531 16.4775C20.4669 16.4062 20.4787 16.3341 20.4863 16.2607C20.4873 16.2513 20.4874 16.2419 20.4883 16.2324C20.4953 16.1559 20.5 16.0784 20.5 16V11.75C20.5 11.3358 20.8358 11 21.25 11C21.6642 11 22 11.3358 22 11.75V16C22 16.0757 21.9973 16.1509 21.9932 16.2256C21.9921 16.2442 21.9905 16.2627 21.9893 16.2812C21.9856 16.3339 21.9813 16.3864 21.9756 16.4385C21.9726 16.4656 21.9683 16.4925 21.9648 16.5195C21.9577 16.5746 21.9498 16.6293 21.9404 16.6836C21.9377 16.6995 21.9356 16.7156 21.9326 16.7314C21.9222 16.788 21.9093 16.8438 21.8965 16.8994C21.8917 16.9203 21.887 16.9412 21.8818 16.9619C21.8696 17.0114 21.8568 17.0606 21.8428 17.1094C21.8365 17.1313 21.8299 17.1531 21.8232 17.1748C21.8106 17.2161 21.7972 17.2571 21.7832 17.2979C21.764 17.3538 21.7433 17.409 21.7217 17.4639C21.71 17.4934 21.6998 17.5235 21.6875 17.5527C21.6698 17.5947 21.6499 17.6356 21.6309 17.6768C21.6206 17.6989 21.6112 17.7213 21.6006 17.7432C21.5825 17.7804 21.5631 17.8169 21.5439 17.8535C21.525 17.8897 21.5054 17.9254 21.4854 17.9609C21.4728 17.9832 21.4602 18.0054 21.4473 18.0273C21.423 18.0686 21.3978 18.1092 21.3721 18.1494C21.3589 18.1701 21.3456 18.1906 21.332 18.2109C21.3056 18.2507 21.2778 18.2894 21.25 18.3281C21.2364 18.3471 21.2239 18.367 21.21 18.3857C21.1839 18.4208 21.1571 18.4551 21.1299 18.4893C21.1022 18.524 21.0737 18.558 21.0449 18.5918C21.012 18.6304 20.9787 18.6687 20.9443 18.7061C20.9199 18.7327 20.8943 18.7582 20.8691 18.7842C20.8496 18.8043 20.8305 18.825 20.8105 18.8447C20.7824 18.8726 20.7536 18.8998 20.7246 18.9268C20.6983 18.9513 20.6715 18.9752 20.6445 18.999C20.6213 19.0195 20.5979 19.0396 20.5742 19.0596C20.5436 19.0853 20.5128 19.1109 20.4814 19.1357C20.464 19.1495 20.4473 19.1642 20.4297 19.1777C20.4244 19.1818 20.4184 19.1854 20.4131 19.1895C20.3777 19.2162 20.3409 19.241 20.3047 19.2666C20.2547 19.3019 20.204 19.3361 20.1523 19.3691C20.1208 19.3893 20.0898 19.4104 20.0576 19.4297C20.0329 19.4446 20.0075 19.4583 19.9824 19.4727C19.9407 19.4965 19.8991 19.5206 19.8564 19.543C19.8358 19.5538 19.8148 19.5637 19.7939 19.5742C19.7495 19.5966 19.7046 19.6179 19.6592 19.6387C19.6319 19.6511 19.6048 19.6639 19.5771 19.6758C19.5436 19.6902 19.5096 19.7033 19.4756 19.7168C19.4243 19.7372 19.3727 19.7571 19.3203 19.7754C19.2661 19.7943 19.2115 19.8124 19.1562 19.8291C19.1497 19.8311 19.1432 19.833 19.1367 19.835C19.0733 19.8537 19.009 19.8701 18.9443 19.8857C18.9226 19.891 18.9008 19.8965 18.8789 19.9014C18.8227 19.914 18.7661 19.9253 18.709 19.9355C18.6972 19.9377 18.6857 19.9414 18.6738 19.9434C18.6671 19.9445 18.6601 19.9442 18.6533 19.9453C18.5881 19.956 18.5223 19.9651 18.4561 19.9727C18.4495 19.9734 18.4431 19.9749 18.4365 19.9756C18.3603 19.9839 18.2835 19.9912 18.2061 19.9951L18 20H6L5.79395 19.9951C3.68056 19.8879 2 18.14 2 16V8C2 5.79086 3.79086 4 6 4H11.75Z" fill="#363538"/>
<path d="M7.5 7C8.32843 7 9 7.67157 9 8.5C9 9.32843 8.32843 10 7.5 10C6.67157 10 6 9.32843 6 8.5C6 7.67157 6.67157 7 7.5 7Z" fill="#363538"/>
<path fill-rule="evenodd" clip-rule="evenodd" d="M17.25 2.25C19.0449 2.25 20.5 3.70507 20.5 5.5C20.5 6.12565 20.322 6.70924 20.0156 7.20508L21.2803 8.46973L21.332 8.52637C21.5723 8.82095 21.5548 9.2557 21.2803 9.53027C21.0057 9.80484 20.5709 9.82227 20.2764 9.58203L20.2197 9.53027L18.9551 8.26562C18.4592 8.57197 17.8756 8.75 17.25 8.75C15.4551 8.75 14 7.29493 14 5.5C14 3.70507 15.4551 2.25 17.25 2.25ZM17.25 3.75C16.2835 3.75 15.5 4.5335 15.5 5.5C15.5 6.4665 16.2835 7.25 17.25 7.25C18.2165 7.25 19 6.4665 19 5.5C19 4.5335 18.2165 3.75 17.25 3.75Z" fill="#363538"/>
</svg>
