<svg width="24" height="24" viewBox="0 0 24 24" fill="none" xmlns="http://www.w3.org/2000/svg">
<path d="M14.25 3.99994C14.6642 3.99994 15 4.33573 15 4.74994C15 5.16413 14.6642 5.49994 14.25 5.49994H6C4.61929 5.49994 3.5 6.61923 3.5 7.99994V15.9999C3.50001 16.3853 3.58942 16.7492 3.74512 17.0751L5.93457 14.0654C6.9425 12.6796 9.03824 12.7719 9.91992 14.2412C10.3014 14.8765 11.2467 14.7969 11.5156 14.1064L12.6191 11.2685C13.3234 9.45748 15.8096 9.26557 16.7832 10.9472L20.2891 17.0019C20.4236 16.695 20.5 16.3565 20.5 15.9999V8.74994C20.5 8.33573 20.8358 7.99994 21.25 7.99994C21.6642 7.99994 22 8.33573 22 8.74994V15.9999C22 18.2091 20.2091 19.9999 18 19.9999H6L5.79395 19.9951C3.68058 19.8878 2.00003 18.14 2 15.9999V7.99994C2 5.7908 3.79086 3.99994 6 3.99994H14.25Z" fill="#363538"/>
<path d="M7.5 6.99994C8.32843 6.99994 9 7.67152 9 8.49994C8.99997 9.32834 8.32841 9.99994 7.5 9.99994C6.67159 9.99994 6.00003 9.32834 6 8.49994C6 7.67152 6.67157 6.99994 7.5 6.99994Z" fill="#363538"/>
<path d="M19.4697 2.96967C19.7626 2.67678 20.2374 2.67678 20.5303 2.96967C20.8231 3.26257 20.8232 3.73733 20.5303 4.03022L19.5605 4.99994L20.5303 5.96967C20.8231 6.26257 20.8232 6.73733 20.5303 7.03022C20.2374 7.32307 19.7626 7.32307 19.4697 7.03022L18.5 6.06049L17.5303 7.03022C17.2374 7.32307 16.7626 7.32307 16.4697 7.03022C16.1768 6.73733 16.1769 6.26257 16.4697 5.96967L17.4395 4.99994L16.4697 4.03022C16.1768 3.73733 16.1769 3.26257 16.4697 2.96967C16.7626 2.67678 17.2374 2.67678 17.5303 2.96967L18.5 3.9394L19.4697 2.96967Z" fill="#363538"/>
</svg>
