<svg width="24" height="24" viewBox="0 0 24 24" fill="none" xmlns="http://www.w3.org/2000/svg">
<path d="M11.25 2.32593V21.9651C7.50938 21.6173 4 18.6876 4 13.9999C4 6.74788 8.64899 3.57902 10.8589 2.48236C10.9864 2.4191 11.1171 2.36695 11.25 2.32593Z" fill="#363538"/>
<path d="M12.75 2.326V7.69417L16.8623 5.29533C15.5516 3.84476 14.1111 2.96384 13.1408 2.48235C13.0134 2.41913 12.8828 2.36701 12.75 2.326Z" fill="#363538"/>
<path d="M17.8044 6.48231L12.75 9.43073V12.2014L18.9741 8.61055C18.639 7.81659 18.2397 7.10983 17.8044 6.48231Z" fill="#363538"/>
<path d="M19.4787 10.0512L12.75 13.9331V17.2018L19.9718 13.038C19.9072 11.9444 19.7333 10.9515 19.4787 10.0512Z" fill="#363538"/>
<path d="M19.9673 14.7721L12.75 18.9333V21.965C16.2807 21.6367 19.6054 19.0081 19.9673 14.7721Z" fill="#363538"/>
</svg>
