<svg width="24" height="24" viewBox="0 0 24 24" fill="none" xmlns="http://www.w3.org/2000/svg">
<path d="M14.3883 2.42591C14.5984 1.85803 15.4016 1.85803 15.6117 2.42591L15.9026 3.21201C15.9687 3.39055 16.1095 3.53132 16.288 3.59738L17.0741 3.88826C17.642 4.0984 17.642 4.9016 17.0741 5.11174L16.288 5.40262C16.1095 5.46868 15.9687 5.60945 15.9026 5.78799L15.6117 6.57409C15.4016 7.14197 14.5984 7.14197 14.3883 6.57409L14.0974 5.78799C14.0313 5.60945 13.8905 5.46868 13.712 5.40262L12.9259 5.11174C12.358 4.9016 12.358 4.0984 12.9259 3.88826L13.712 3.59738C13.8905 3.53132 14.0313 3.39055 14.0974 3.21201L14.3883 2.42591Z" fill="#363538"/>
<path d="M10.75 4C11.1642 4 11.5 4.33579 11.5 4.75C11.5 5.16421 11.1642 5.5 10.75 5.5H5.8C4.60132 5.5 3.5 6.54586 3.5 8V16C3.5 16.8105 3.84216 17.4942 4.35263 17.9406L6.38205 14.7214C7.03067 13.8287 8.37922 13.8883 8.94659 14.8349C9.60498 15.9333 11.237 15.7945 11.7009 14.6007L12.7354 11.9376C13.182 10.7882 14.7586 10.6665 15.3758 11.7338L18.6832 17.9086C19.1738 17.4619 19.5 16.7914 19.5 16V12.75C19.5 12.3358 19.8358 12 20.25 12C20.6642 12 21 12.3358 21 12.75V16C21 18.2091 19.2987 20 17.2 20H5.8C3.70132 20 2 18.2091 2 16V8C2 5.79086 3.70132 4 5.8 4H10.75Z" fill="#363538"/>
<path d="M7.5 10C8.32843 10 9 9.32843 9 8.5C9 7.67157 8.32843 7 7.5 7C6.67157 7 6 7.67157 6 8.5C6 9.32843 6.67157 10 7.5 10Z" fill="#363538"/>
<path d="M19.7341 5.51109C19.4819 4.82964 18.5181 4.82964 18.2659 5.51109L17.9169 6.45441C17.8376 6.66866 17.6687 6.83758 17.4544 6.91686L16.5111 7.26592C15.8296 7.51808 15.8296 8.48192 16.5111 8.73408L17.4544 9.08314C17.6687 9.16242 17.8376 9.33134 17.9169 9.54559L18.2659 10.4889C18.5181 11.1704 19.4819 11.1704 19.7341 10.4889L20.0831 9.54559C20.1624 9.33134 20.3313 9.16242 20.5456 9.08314L21.4889 8.73408C22.1704 8.48192 22.1704 7.51808 21.4889 7.26592L20.5456 6.91686C20.3313 6.83758 20.1624 6.66866 20.0831 6.45441L19.7341 5.51109Z" fill="#363538"/>
</svg>
