<svg width="24" height="24" viewBox="0 0 24 24" fill="none" xmlns="http://www.w3.org/2000/svg">
<path d="M12.75 4C12.75 3.58579 12.4142 3.25 12 3.25C11.5858 3.25 11.25 3.58579 11.25 4V11.1893L10.5303 10.4697C10.2374 10.1768 9.76256 10.1768 9.46967 10.4697C9.17678 10.7626 9.17678 11.2374 9.46967 11.5303L11.4697 13.5303C11.6103 13.671 11.8011 13.75 12 13.75C12.1989 13.75 12.3897 13.671 12.5303 13.5303L14.5303 11.5303C14.8232 11.2374 14.8232 10.7626 14.5303 10.4697C14.2374 10.1768 13.7626 10.1768 13.4697 10.4697L12.75 11.1893V4Z" fill="#363538"/>
<path d="M3 15V17C3 19.2091 4.79086 21 7 21H17C19.2091 21 21 19.2091 21 17V15C21 13.6674 20.1312 12.5378 18.929 12.1466C18.3385 11.9545 17.7108 12.1446 17.1554 12.4223L13.7889 14.1056C12.6627 14.6686 11.3373 14.6686 10.2111 14.1056L6.84458 12.4223C6.28916 12.1446 5.66146 11.9545 5.07095 12.1466C3.86885 12.5378 3 13.6674 3 15Z" fill="#363538"/>
</svg>
