<svg width="24" height="24" viewBox="0 0 24 24" fill="none" xmlns="http://www.w3.org/2000/svg">
<path d="M18 8C19.6569 8 21 6.65685 21 5C21 3.34315 19.6569 2 18 2C16.3431 2 15 3.34315 15 5C15 6.65685 16.3431 8 18 8Z" fill="#363538"/>
<path d="M20.2521 8.89679C19.5897 9.28041 18.8205 9.5 18 9.5C15.5147 9.5 13.5 7.48528 13.5 5C13.5 4.3793 13.6257 3.78794 13.853 3.25H8.97612C6.87848 3.25 5.0292 4.62592 4.42645 6.6351L2.45033 13.2222L2.44207 13.25H5.6265C7.0362 13.25 8.37308 13.8762 9.27555 14.9591L9.37678 15.0806C9.99426 15.8216 10.909 16.25 11.8735 16.25H12.1265C13.091 16.25 14.0057 15.8216 14.6232 15.0806L14.7244 14.9591C15.6269 13.8762 16.9638 13.25 18.3735 13.25H21.5579L21.5497 13.2222L20.2521 8.89679Z" fill="#363538"/>
<path d="M18.3735 14.75H21.75V15.2116C21.75 15.9825 21.5624 16.7418 21.2034 17.4239L20.7884 18.2123C19.9671 19.7729 18.3486 20.75 16.5851 20.75H7.41493C5.65135 20.75 4.03295 19.7729 3.21157 18.2123L2.79664 17.4239C2.43761 16.7418 2.25 15.9825 2.25 15.2116V14.75H5.6265C6.59103 14.75 7.50574 15.1784 8.12322 15.9194L8.22445 16.0409C9.12692 17.1238 10.4638 17.75 11.8735 17.75H12.1265C13.5362 17.75 14.8731 17.1238 15.7755 16.0409L15.8768 15.9194C16.4943 15.1784 17.409 14.75 18.3735 14.75Z" fill="#363538"/>
</svg>
