<svg width="24" height="24" viewBox="0 0 24 24" fill="none" xmlns="http://www.w3.org/2000/svg">
<path d="M8.97612 3.25C6.87848 3.25 5.0292 4.62592 4.42645 6.6351L2.45033 13.2222C2.44754 13.2314 2.44479 13.2407 2.44207 13.25H5.6265C7.0362 13.25 8.37308 13.8762 9.27555 14.9591L9.37678 15.0806C9.99426 15.8216 10.909 16.25 11.8735 16.25H12.1265C13.091 16.25 14.0057 15.8216 14.6232 15.0806L14.7244 14.9591C15.6269 13.8762 16.9638 13.25 18.3735 13.25H21.5579C21.5552 13.2407 21.5525 13.2314 21.5497 13.2222L19.5736 6.6351C18.9708 4.62592 17.1215 3.25 15.0239 3.25H8.97612Z" fill="#363538"/>
<path d="M21.75 14.75H18.3735C17.409 14.75 16.4943 15.1784 15.8768 15.9194L15.7755 16.0409C14.8731 17.1238 13.5362 17.75 12.1265 17.75H11.8735C10.4638 17.75 9.12692 17.1238 8.22445 16.0409L8.12322 15.9194C7.50574 15.1784 6.59103 14.75 5.6265 14.75H2.25V15.2116C2.25 15.9825 2.43761 16.7418 2.79664 17.4239L3.21157 18.2123C4.03295 19.7729 5.65135 20.75 7.41493 20.75H16.5851C18.3486 20.75 19.9671 19.7729 20.7884 18.2123L21.2034 17.4239C21.5624 16.7418 21.75 15.9825 21.75 15.2116V14.75Z" fill="#363538"/>
</svg>
