<svg width="24" height="24" viewBox="0 0 24 24" fill="none" xmlns="http://www.w3.org/2000/svg">
<path d="M5.88911 6.18407C5.88911 4.95058 6.99479 4.01113 8.21209 4.21032L11.6772 4.77735C11.8911 4.81235 12.1093 4.81235 12.3232 4.77735L15.7884 4.21032C17.0057 4.01113 18.1113 4.95058 18.1113 6.18407L18.1113 8.0802H5.88911L5.88911 6.18407Z" fill="#363538"/>
<path d="M5.20897 9.5802H18.7915C18.8234 9.60822 18.8563 9.63532 18.8902 9.66144L20.676 11.0382C21.4317 11.6209 21.0197 12.8302 20.0654 12.8302H3.93506C2.98077 12.8302 2.56872 11.6209 3.32448 11.0382L5.11027 9.66144C5.14415 9.63532 5.17705 9.60822 5.20897 9.5802Z" fill="#363538"/>
<path fill-rule="evenodd" clip-rule="evenodd" d="M7.5 14.5801C5.70507 14.5801 4.25 16.0352 4.25 17.8301C4.25 19.625 5.70507 21.0801 7.5 21.0801C9.1121 21.0801 10.4501 19.9063 10.7059 18.3668C10.7729 18.3438 10.8456 18.3198 10.9221 18.2958C11.3097 18.1745 11.7181 18.0801 12 18.0801C12.2819 18.0801 12.6903 18.1745 13.0779 18.2958C13.1544 18.3198 13.2271 18.3438 13.2941 18.3668C13.5499 19.9063 14.8879 21.0801 16.5 21.0801C18.2949 21.0801 19.75 19.625 19.75 17.8301C19.75 16.0352 18.2949 14.5801 16.5 14.5801C15.0547 14.5801 13.8298 15.5235 13.4074 16.8281C13.0059 16.7082 12.4748 16.5801 12 16.5801C11.5252 16.5801 10.9941 16.7082 10.5926 16.8281C10.1702 15.5235 8.94528 14.5801 7.5 14.5801ZM5.75 17.8301C5.75 16.8636 6.5335 16.0801 7.5 16.0801C8.4665 16.0801 9.25 16.8636 9.25 17.8301C9.25 18.7966 8.4665 19.5801 7.5 19.5801C6.5335 19.5801 5.75 18.7966 5.75 17.8301ZM14.75 17.8301C14.75 16.8636 15.5335 16.0801 16.5 16.0801C17.4665 16.0801 18.25 16.8636 18.25 17.8301C18.25 18.7966 17.4665 19.5801 16.5 19.5801C15.5335 19.5801 14.75 18.7966 14.75 17.8301Z" fill="#363538"/>
</svg>
