<svg width="24" height="24" viewBox="0 0 24 24" fill="none" xmlns="http://www.w3.org/2000/svg">
<path d="M3.00018 4.25C2.58597 4.25 2.25018 4.58579 2.25018 5C2.25018 5.41421 2.58597 5.75 3.00018 5.75H21.0002C21.4144 5.75 21.7502 5.41421 21.7502 5C21.7502 4.58579 21.4144 4.25 21.0002 4.25H3.00018Z" fill="#363538"/>
<path d="M9.00019 11.25C8.58597 11.25 8.25019 11.5858 8.25019 12C8.25019 12.4142 8.58597 12.75 9.00019 12.75L21.0002 12.75C21.4144 12.75 21.7502 12.4142 21.7502 12C21.7502 11.5858 21.4144 11.25 21.0002 11.25L9.00019 11.25Z" fill="#363538"/>
<path d="M2.25018 19C2.25018 18.5858 2.58597 18.25 3.00018 18.25H21.0002C21.4144 18.25 21.7502 18.5858 21.7502 19C21.7502 19.4142 21.4144 19.75 21.0002 19.75H3.00018C2.58597 19.75 2.25018 19.4142 2.25018 19Z" fill="#363538"/>
<path d="M2.46967 9.53033C2.17678 9.23744 2.17678 8.76256 2.46967 8.46967C2.76256 8.17678 3.23744 8.17678 3.53033 8.46967L5.11611 10.0554C6.19006 11.1294 6.19006 12.8706 5.11612 13.9445L3.53033 15.5303C3.23744 15.8232 2.76256 15.8232 2.46967 15.5303C2.17678 15.2374 2.17678 14.7626 2.46967 14.4697L4.05546 12.8839C4.54361 12.3957 4.54361 11.6043 4.05545 11.1161L2.46967 9.53033Z" fill="#363538"/>
</svg>
