<svg width="24" height="24" viewBox="0 0 24 24" fill="none" xmlns="http://www.w3.org/2000/svg">
<path fill-rule="evenodd" clip-rule="evenodd" d="M10.4451 4.01814L2.64065 17.8678C1.88936 19.2011 2.85271 20.8497 4.38304 20.8497H19.6177C21.1297 20.8497 22.0949 19.2366 21.3801 17.9042L13.9499 4.0545C13.2045 2.66501 11.2193 2.64441 10.4451 4.01814ZM12.8631 9.37963C12.8734 8.89691 12.4849 8.5 12.0021 8.5C11.5195 8.5 11.1311 8.89656 11.1412 9.37907L11.2531 14.7536C11.2615 15.1603 11.5936 15.4855 12.0004 15.4855C12.4069 15.4855 12.7389 15.1606 12.7476 14.7541L12.8631 9.37963ZM11.291 18.1908C11.488 18.3969 11.7244 18.5 12.0001 18.5C12.1819 18.5 12.3471 18.4533 12.4956 18.3599C12.6471 18.2633 12.7683 18.1345 12.8592 17.9734C12.9532 17.8124 13.0001 17.6337 13.0001 17.4372C13.0001 17.1473 12.9001 16.8994 12.7001 16.6932C12.5032 16.4871 12.2698 16.3841 12.0001 16.3841C11.7244 16.3841 11.488 16.4871 11.291 16.6932C11.0971 16.8994 11.0001 17.1473 11.0001 17.4372C11.0001 17.7335 11.0971 17.9847 11.291 18.1908Z" fill="#363538"/>
</svg>
