<svg width="24" height="24" viewBox="0 0 24 24" fill="none" xmlns="http://www.w3.org/2000/svg">
<path d="M20.8642 5.84481C19.6184 5.15258 16.9528 4.25419 14.193 4.82927C12.7402 3.63237 11.6847 2.9414 10.7889 2.64028C10.2915 2.47305 9.8366 2.42284 9.39108 2.47107C8.95571 2.51821 8.56652 2.65576 8.20474 2.81065C7.96653 2.91264 7.79784 3.13037 7.75858 3.3865C7.71933 3.64264 7.81507 3.90089 8.01181 4.06954L9.44216 5.29568C8.65527 5.28934 7.85194 5.38285 7.11023 5.5905C6.24416 5.83296 5.40887 6.24575 4.78193 6.89198C4.14033 7.55331 3.74991 8.42735 3.74992 9.50022C3.74992 9.75522 3.87948 9.99274 4.09388 10.1308C4.30827 10.2688 4.57813 10.2885 4.81027 10.183C8.18783 8.64774 10.1465 9.13447 10.9864 9.62651C9.06871 12.4248 8.65363 14.9238 8.71571 16.5553C6.25105 17.2066 4.28856 18.7482 3.27791 19.6684C2.87723 20.0333 2.78613 20.5681 2.97117 21.0098C3.15292 21.4437 3.58334 21.75 4.10378 21.75H17.8963C18.4167 21.75 18.8471 21.4437 19.0289 21.0098C19.2139 20.5681 19.1228 20.0333 18.7221 19.6684C17.6331 18.6768 15.4388 16.9637 12.7019 16.4205C12.623 15.2627 12.6299 13.4602 12.7373 11.2701C12.7666 11.2498 12.8088 11.2256 12.8691 11.1987C13.0643 11.1114 13.3914 11.0227 13.9332 10.9502C15.0152 10.8055 16.7443 10.75 19.4999 10.75C19.7928 10.75 20.0589 10.5795 20.1813 10.3134C20.3037 10.0473 20.26 9.73426 20.0693 9.51188C19.205 8.50356 18.2912 7.9223 17.3853 7.6384C18.6393 7.3504 19.7837 7.25035 20.4999 7.2504C20.8416 7.25043 21.1402 7.01941 21.2259 6.68858C21.3117 6.35776 21.1629 6.0108 20.8642 5.84481Z" fill="#363538"/>
</svg>
