<svg width="24" height="24" viewBox="0 0 24 24" fill="none" xmlns="http://www.w3.org/2000/svg">
<path fill-rule="evenodd" clip-rule="evenodd" d="M17.8265 21.7217C17.5461 22.0264 17.0717 22.046 16.7669 21.7657C16.4624 21.4853 16.4419 21.0109 16.722 20.7061C18.4084 18.8723 18.7968 16.857 18.2503 15.378C18.0022 14.7067 17.5382 14.0941 16.8441 13.628C16.3904 14.7299 15.8186 15.8196 15.1116 16.8018C14.7146 17.3533 14.2721 17.8745 13.7825 18.3467C14.067 18.6544 14.3771 18.9463 14.7161 19.2188L14.9505 19.4004L15.0091 19.4492C15.2885 19.7069 15.3328 20.1396 15.0999 20.4502C14.8668 20.7608 14.4391 20.8389 14.1136 20.6426L14.0501 20.5996L13.7738 20.3848C13.352 20.0457 12.9696 19.6827 12.6224 19.3008C11.3431 20.1896 9.8107 20.75 7.99934 20.75C6.40195 20.7498 5.20249 20.1819 4.69368 19.0596C4.21189 17.9964 4.49286 16.7261 5.1302 15.6241C5.96758 14.1764 7.54686 12.7709 9.64387 11.959C9.6338 11.8583 9.62299 11.7578 9.61457 11.6573C9.47967 10.0446 9.55107 8.43053 9.72688 6.93948C8.45744 6.97371 7.30105 6.91561 6.36067 6.73733C5.95402 6.66023 5.68645 6.26798 5.76301 5.86136C5.84017 5.45442 6.23303 5.18658 6.63996 5.2637C7.52352 5.43121 8.66387 5.4795 9.94465 5.43167C10.1085 4.46496 10.3052 3.57859 10.5003 2.81448L10.5228 2.74124C10.6535 2.38427 11.0362 2.17749 11.4124 2.27347C11.7886 2.36957 12.0254 2.73447 11.9691 3.11038L11.9534 3.18558C11.7897 3.82686 11.6268 4.55183 11.4847 5.33401C12.8834 5.21117 14.3816 4.99584 15.8558 4.70608C16.2622 4.62632 16.6568 4.89151 16.7366 5.29788C16.8161 5.70409 16.5511 6.09889 16.1448 6.17874C14.5241 6.4973 12.8354 6.73504 11.2493 6.85745C11.0613 8.33113 10.976 9.92978 11.1068 11.5137C11.8578 11.3442 12.6582 11.2501 13.5003 11.25C14.4124 11.2501 15.244 11.3705 15.9847 11.5928C16.2248 10.8261 16.409 10.0714 16.5364 9.36624L16.554 9.29202C16.659 8.92685 17.0256 8.69305 17.4075 8.76175C17.8152 8.83543 18.0857 9.22621 18.012 9.63382L17.931 10.0567C17.7922 10.7362 17.6056 11.4551 17.3704 12.1866C18.4622 12.8191 19.2437 13.7413 19.6566 14.8584C20.4454 16.9936 19.7917 19.5848 17.8265 21.7217ZM6.42903 16.376C7.04923 15.3037 8.24121 14.1949 9.86457 13.4903C10.1777 15.115 10.7495 16.7061 11.6966 18.1172C10.647 18.8267 9.42258 19.25 7.99934 19.25C6.72084 19.2498 6.23098 18.8178 6.05989 18.4405C5.86203 18.0038 5.91005 17.2735 6.42903 16.376ZM11.3011 13.0088C11.983 12.8437 12.7184 12.7501 13.5003 12.75C14.2489 12.7501 14.9065 12.844 15.4779 13.0069C15.0605 14.0298 14.5367 15.0329 13.8948 15.9248C13.5761 16.3677 13.2296 16.7789 12.8568 17.1524C12.0553 15.9137 11.5662 14.4978 11.3011 13.0088Z" fill="#363538"/>
</svg>
