<svg width="24" height="24" viewBox="0 0 24 24" fill="none" xmlns="http://www.w3.org/2000/svg">
<path fill-rule="evenodd" clip-rule="evenodd" d="M17.7345 3H6.26568C5.06268 3 4.13191 4.05436 4.28112 5.24807L5.84377 17.7493C5.9393 18.5135 6.4652 19.155 7.19587 19.3986L11.3677 20.7892C11.7782 20.926 12.222 20.926 12.6326 20.7892L16.8043 19.3986C17.535 19.155 18.0609 18.5135 18.1564 17.7493L19.7191 5.24807C19.8683 4.05436 18.9375 3 17.7345 3ZM10.5001 6.25C10.9143 6.25 11.2501 6.58579 11.2501 7V17C11.2501 17.2411 11.1342 17.4675 10.9386 17.6084C10.7431 17.7494 10.4917 17.7877 10.2629 17.7115L7.26294 16.7115C6.86998 16.5805 6.65761 16.1558 6.7886 15.7628C6.91958 15.3699 7.34432 15.1575 7.73728 15.2885L9.75011 15.9594V7C9.75011 6.58579 10.0859 6.25 10.5001 6.25ZM16.1234 7.7398C16.532 7.6717 16.808 7.28528 16.7399 6.8767C16.6718 6.46812 16.2854 6.19211 15.8768 6.2602L14.9335 6.41742C13.385 6.6755 12.2501 8.01524 12.2501 9.58507V11.4189C12.2501 12.7086 13.5137 13.6194 14.7373 13.2115C14.9896 13.1274 15.2501 13.3152 15.2501 13.5811V14.4214C15.2501 14.7984 15.0371 15.143 14.7 15.3116L12.6647 16.3292C12.2942 16.5144 12.144 16.9649 12.3293 17.3354C12.5145 17.7059 12.965 17.8561 13.3355 17.6708L15.3708 16.6532C16.2161 16.2305 16.7501 15.3665 16.7501 14.4214V13.5811C16.7501 12.2914 15.4865 11.3806 14.2629 11.7885C14.0106 11.8726 13.7501 11.6848 13.7501 11.4189V9.58507C13.7501 8.7485 14.3549 8.03454 15.1801 7.89701L16.1234 7.7398Z" fill="#363538"/>
</svg>
