<svg width="24" height="24" viewBox="0 0 24 24" fill="none" xmlns="http://www.w3.org/2000/svg">
<path d="M8.62127 6.3274C8.07174 4.12929 9.73425 2 12 2C14.2658 2 15.9283 4.12929 15.3787 6.3274L15.2106 7H17.75C19.2688 7 20.5 8.23122 20.5 9.75V17.25C20.5 19.8734 18.3734 22 15.75 22H6.25C4.73122 22 3.5 20.7688 3.5 19.25V16.75C3.5 16.519 3.6064 16.301 3.78844 16.1588C3.97048 16.0167 4.20785 15.9664 4.43191 16.0224L6.03624 16.4235C7.28762 16.7363 8.49982 15.7899 8.49982 14.5C8.49982 13.2101 7.28762 12.2637 6.03624 12.5765L4.43191 12.9776C4.20785 13.0336 3.97048 12.9833 3.78844 12.8412C3.6064 12.699 3.5 12.481 3.5 12.25V8.75C3.5 7.7835 4.2835 7 5.25 7H8.78942L8.62127 6.3274Z" fill="#363538"/>
</svg>
