<svg width="24" height="24" viewBox="0 0 24 24" fill="none" xmlns="http://www.w3.org/2000/svg">
<path d="M16 13C18.2092 13 20 11.2091 20 9C20 6.79086 18.2092 5 16 5C13.7909 5 12 6.79086 12 9C12 9.92634 12.3149 10.7791 12.8435 11.4572C12.7782 11.4915 12.7169 11.5361 12.6621 11.591L8.69262 15.5604L7.45518 14.323C7.16229 14.0301 6.68741 14.0301 6.39452 14.323C6.10163 14.6159 6.10163 15.0908 6.39452 15.3837L7.63196 16.6211L6.12132 18.1317L4.53033 16.5407C4.23744 16.2478 3.76256 16.2478 3.46967 16.5407C3.17678 16.8336 3.17678 17.3085 3.46967 17.6014L5.59099 19.7227C5.88388 20.0156 6.35876 20.0156 6.65165 19.7227L13.7227 12.6517C13.7973 12.5771 13.8529 12.4907 13.8895 12.3985C14.5021 12.7798 15.2253 13 16 13Z" fill="#363538"/>
</svg>
