<svg width="24" height="24" viewBox="0 0 24 24" fill="none" xmlns="http://www.w3.org/2000/svg">
<path d="M13.0696 11.2532C13.0467 11.2511 13.0235 11.25 13 11.25H7.38636V9.5C7.38636 9.08579 7.05058 8.75 6.63636 8.75C6.22215 8.75 5.88636 9.08579 5.88636 9.5V11.25H3.75V9C3.75 8.58579 3.41421 8.25 3 8.25C2.58579 8.25 2.25 8.58579 2.25 9V12C2.25 12.4142 2.58579 12.75 3 12.75H13C13.0235 12.75 13.0467 12.7489 13.0696 12.7468C13.4194 14.599 15.0461 16 17 16C19.2091 16 21 14.2091 21 12C21 9.79086 19.2091 8 17 8C15.0461 8 13.4194 9.40096 13.0696 11.2532Z" fill="#363538"/>
</svg>
