<svg width="24" height="24" viewBox="0 0 24 24" fill="none" xmlns="http://www.w3.org/2000/svg">
<path d="M10.7629 3C11.0785 3 11.318 3.28871 11.2854 3.60254C11.0856 5.52537 11.3545 8.94924 12.8733 8C16.8731 5.50033 20.9748 7.8429 18.3723 15C16.3724 20.4999 10.8723 20.1666 8.37231 16.5C7.76973 16.9521 6.78663 18.3028 7.19359 20.3301C7.26071 20.6647 7.0202 21 6.67895 21H5.65649C5.4809 21 5.31524 20.9089 5.23656 20.752C4.2451 18.7723 5.11478 16.1192 6.87328 15C8.70644 13.8334 9.87328 13.4999 9.87328 10C9.87328 8.36071 8.47401 7.55567 8.82934 3.44629C8.85129 3.19246 9.06578 3.00002 9.32055 3H10.7629Z" fill="#363538"/>
</svg>
