<svg width="24" height="24" viewBox="0 0 24 24" fill="none" xmlns="http://www.w3.org/2000/svg">
<path d="M17.5 18.5003C18.0523 18.5003 18.5 18.9481 18.5 19.5003V20.1664C18.5 20.6265 18.1271 21.0002 17.667 21.0003H6.83301C6.37293 21.0002 6.00001 20.6265 6 20.1664V19.8333C6 19.1429 6.52482 18.5754 7.19727 18.5072L7.33301 18.5003H17.5Z" fill="#363538"/>
<path d="M9.94922 3.53647C10.622 2.58061 11.118 5.00034 12.2871 5.00034C12.9779 5.00053 14.8739 5.46913 15.9014 7.31284C15.9699 7.43575 16.0449 7.5555 16.1328 7.66538L17.292 9.1146C17.7136 9.64167 17.7454 10.3811 17.3711 10.9427C17.1342 11.2981 16.7598 11.5632 16.333 11.5462C14.9382 11.4908 14.3287 10.4425 13.6709 10.3705C13.4806 10.3496 13.3077 10.4425 13.1436 10.7123C13.0328 10.8943 12.978 11.1108 13.0088 11.3216C13.2484 12.9588 16.4712 12.7593 16 17.0003H8.5C8.5 15.6405 8.3999 12.7788 8 12.2103C7.55078 11.5723 5.89063 8.27824 8.45898 6.16538C9.04402 5.68413 9.4441 5.00623 9.62988 4.27182C9.70767 3.96448 9.81745 3.72376 9.94922 3.53647Z" fill="#363538"/>
</svg>
