<svg width="24" height="24" viewBox="0 0 24 24" fill="none" xmlns="http://www.w3.org/2000/svg">
<path d="M6.62616 1.25C5.32356 1.25 4.19964 2.1639 3.93397 3.43913L2.2673 11.4391C1.91153 13.1468 3.21514 14.75 4.9595 14.75H11.2499V21.25H7.99989C7.58568 21.25 7.24989 21.5858 7.24989 22C7.24989 22.4142 7.58568 22.75 7.99989 22.75H15.9999C16.4141 22.75 16.7499 22.4142 16.7499 22C16.7499 21.5858 16.4141 21.25 15.9999 21.25H12.7499V14.75H19.0403C20.7846 14.75 22.0882 13.1468 21.7325 11.4391L20.0658 3.43913C19.8001 2.1639 18.6762 1.25 17.3736 1.25H6.62616Z" fill="#363538"/>
</svg>
