<svg width="24" height="24" viewBox="0 0 24 24" fill="none" xmlns="http://www.w3.org/2000/svg">
<path fill-rule="evenodd" clip-rule="evenodd" d="M17.9985 12.8737L18 12.8733C19.6042 12.4601 20.8142 11.0834 20.9807 9.39207C21 9.19651 21 8.96434 21 8.5V8C21 7.07069 21 6.60603 20.9231 6.21964C20.6075 4.63288 19.3671 3.39249 17.7804 3.07686C17.394 3 16.9293 3 16 3H15.5C15.0357 3 14.8035 3 14.6079 3.01926C12.9166 3.18584 11.5399 4.39577 11.1267 6L11.1263 6.0015C9.82495 6.00881 9.07933 6.05178 8.46927 6.30448C7.48915 6.71046 6.71046 7.48915 6.30448 8.46927C6.05178 9.07933 6.00881 9.82495 6.0015 11.1263L6 11.1267C4.39577 11.5399 3.18584 12.9166 3.01926 14.6079C3 14.8035 3 15.0357 3 15.5V16C3 16.9293 3 17.394 3.07686 17.7804C3.39249 19.3671 4.63288 20.6075 6.21964 20.9231C6.60603 21 7.07069 21 8 21H8.5C8.96434 21 9.19651 21 9.39207 20.9807C11.0834 20.8142 12.4601 19.6042 12.8733 18L12.8737 17.9985C14.1751 17.9912 14.9207 17.9482 15.5307 17.6955C16.5108 17.2895 17.2895 16.5108 17.6955 15.5307C17.9482 14.9207 17.9912 14.1751 17.9985 12.8737ZM17.9054 9.26694C17.9309 9.42435 17.9483 9.58095 17.961 9.73586C17.997 10.1767 17.9998 10.7015 18 11.2916C18.812 10.9372 19.3973 10.1657 19.488 9.24504C19.4982 9.1413 19.5 9.00003 19.5 8.5V8C19.5 6.99879 19.4927 6.71725 19.452 6.51227C19.2547 5.52055 18.4795 4.7453 17.4877 4.54804C17.2828 4.50727 17.0012 4.5 16 4.5H15.5C15 4.5 14.8587 4.50182 14.755 4.51204C13.8343 4.60271 13.0628 5.18804 12.7084 6.00001C13.2984 6.00021 13.8233 6.00302 14.2641 6.03904C14.419 6.0517 14.5756 6.06913 14.733 6.09462C15.0359 6.13969 15.2935 6.20624 15.5307 6.30448C15.9226 6.46678 16.2822 6.68865 16.5987 6.95915C16.8081 7.13809 16.9986 7.33831 17.167 7.55666C17.3809 7.83384 17.5592 8.1402 17.6955 8.46927C17.7938 8.70644 17.8603 8.9641 17.9054 9.26694ZM7.4013 17.0409C7.7178 17.3113 8.07744 17.5332 8.46927 17.6955C8.70644 17.7938 8.9641 17.8603 9.26694 17.9054C9.42435 17.9309 9.58095 17.9483 9.73586 17.961C10.1767 17.997 10.7016 17.9998 11.2916 18C10.9372 18.812 10.1657 19.3973 9.24504 19.488C9.1413 19.4982 9.00003 19.5 8.5 19.5H8C6.99879 19.5 6.71725 19.4927 6.51227 19.452C5.52055 19.2547 4.7453 18.4795 4.54804 17.4877C4.50727 17.2828 4.5 17.0012 4.5 16V15.5C4.5 15 4.50182 14.8587 4.51204 14.755C4.60271 13.8343 5.18804 13.0628 6.00001 12.7084C6.00021 13.2985 6.00302 13.8233 6.03904 14.2641C6.0517 14.419 6.06913 14.5756 6.09462 14.733C6.13969 15.0359 6.20624 15.2935 6.30448 15.5307C6.44147 15.8615 6.62091 16.1692 6.83619 16.4475C7.00385 16.6642 7.19325 16.8631 7.4013 17.0409Z" fill="#363538"/>
</svg>
