<svg width="24" height="24" viewBox="0 0 24 24" fill="none" xmlns="http://www.w3.org/2000/svg">
<path d="M4.78859 7.60546L11.5525 4.22349C11.8341 4.08273 12.1654 4.08273 12.447 4.22349L19.2109 7.60546C19.9479 7.97398 19.9479 9.02579 19.2109 9.39431L12.447 12.7763C12.1654 12.917 11.8341 12.917 11.5525 12.7763L4.7886 9.39431C4.05155 9.02579 4.05155 7.97398 4.78859 7.60546Z" fill="#363538"/>
<path d="M4.47315 11.5464C4.8868 11.5681 5.2046 11.9209 5.18297 12.3346C5.1802 12.3876 5.19251 12.4371 5.21458 12.4761C5.23467 12.5116 5.26732 12.5472 5.32599 12.5748L11.8935 15.6707C11.961 15.7025 12.0392 15.7025 12.1067 15.6707L18.6743 12.5748C18.733 12.5472 18.7656 12.5116 18.7857 12.4761C18.8078 12.4371 18.8201 12.3876 18.8173 12.3346C18.7957 11.9209 19.1135 11.5681 19.5271 11.5464C19.9408 11.5248 20.2936 11.8426 20.3153 12.2563C20.3494 12.9095 20.0179 13.5998 19.3139 13.9317L12.7463 17.0275C12.2738 17.2502 11.7265 17.2502 11.254 17.0275L4.68642 13.9317C3.98242 13.5998 3.65086 12.9095 3.68501 12.2563C3.70664 11.8426 4.0595 11.5248 4.47315 11.5464Z" fill="#363538"/>
<path d="M5.1829 15.536C5.20263 15.1222 4.88321 14.7708 4.46946 14.7511C4.05572 14.7314 3.70433 15.0508 3.68461 15.4645C3.65358 16.1154 3.98546 16.8013 4.68642 17.1317L11.254 20.2276C11.7265 20.4503 12.2738 20.4503 12.7463 20.2276L19.3139 17.1317C20.0148 16.8013 20.3467 16.1154 20.3157 15.4645C20.296 15.0508 19.9446 14.7314 19.5308 14.7511C19.1171 14.7708 18.7977 15.1222 18.8174 15.536C18.8199 15.5887 18.8075 15.6379 18.7854 15.6767C18.7653 15.712 18.7327 15.7474 18.6743 15.7749L12.1067 18.8707C12.0392 18.9026 11.961 18.9026 11.8935 18.8707L5.32599 15.7749C5.26753 15.7474 5.23494 15.712 5.21486 15.6767C5.1928 15.6379 5.18039 15.5887 5.1829 15.536Z" fill="#363538"/>
</svg>
