<svg width="24" height="24" viewBox="0 0 24 24" fill="none" xmlns="http://www.w3.org/2000/svg">
<path fill-rule="evenodd" clip-rule="evenodd" d="M3.31057 12.1837C4.08125 9.45187 7.18198 6.04725 15.5181 6.97345C16.2386 7.05351 16.9923 7.12649 17.658 6.83949C18.6633 6.40607 19.0722 5.61083 19.3956 4.98168C19.7162 4.358 19.9529 3.89753 20.6037 4.11451C22.1038 4.61473 21.7037 18.0145 12.1037 19.6145C4.02827 20.9604 2.46275 17.6834 2.76439 15.0213C2.8724 14.0681 3.0501 13.1069 3.31057 12.1837ZM16.2742 9.27883C16.089 8.90835 15.6385 8.75818 15.268 8.94342C14.9684 9.09322 14.8129 9.41647 14.8623 9.73061C14.8497 9.78858 14.822 9.88247 14.771 10.0043C14.6611 10.2669 14.4668 10.6031 14.1762 10.9193C13.7482 11.3851 13.1071 11.8166 12.1729 11.9022C12.2865 11.5037 12.3534 11.0753 12.3534 10.6142C12.3534 10.2 12.0176 9.86424 11.6034 9.86424C11.1892 9.86424 10.8534 10.2 10.8534 10.6142C10.8534 11.4128 10.5577 12.0995 10.1099 12.7526C9.78209 13.2306 9.41356 13.6399 9.03362 14.0619C8.91086 14.1982 8.78668 14.3361 8.66252 14.4778C7.57379 14.6666 6.45485 15.0005 5.65566 15.5955C5.32341 15.8428 5.25457 16.3127 5.50191 16.6449C5.74925 16.9772 6.21911 17.046 6.55137 16.7987C7.18919 16.3239 8.29074 16.0206 9.52578 15.8656C10.7301 15.7145 11.9311 15.719 12.6563 15.7689C13.0695 15.7973 13.4276 15.4854 13.456 15.0722C13.4844 14.6589 13.1725 14.3009 12.7592 14.2724C12.2693 14.2387 11.5986 14.2238 10.8536 14.2541C11.0253 14.0439 11.1931 13.8252 11.347 13.6009C11.3907 13.5371 11.4338 13.4723 11.4761 13.4063C13.2445 13.5185 14.4949 12.7894 15.2807 11.9342C15.6985 11.4796 15.9833 10.9928 16.1546 10.5835C16.2399 10.3798 16.3031 10.1809 16.3378 10.0021C16.3549 9.91361 16.3682 9.81434 16.3688 9.71277C16.3693 9.63184 16.3638 9.45803 16.2742 9.27883Z" fill="#363538"/>
</svg>
