<svg width="24" height="24" viewBox="0 0 24 24" fill="none" xmlns="http://www.w3.org/2000/svg">
<path d="M8.05078 17.2549C8.16453 17.2783 8.25 17.3793 8.25 17.5V18C8.25 18.1381 8.13807 18.25 8 18.25H6.75V17.25H8L8.05078 17.2549Z" fill="#363538"/>
<path d="M8 14.75C8.13807 14.75 8.25 14.8619 8.25 15V15.5C8.25 15.6381 8.13807 15.75 8 15.75H6.75V14.75H8Z" fill="#363538"/>
<path d="M12.707 7.75H11.293L12 6.51172L12.707 7.75Z" fill="#363538"/>
<path fill-rule="evenodd" clip-rule="evenodd" d="M14.5 3C15.6046 3 16.5 3.89543 16.5 5V10C16.5 11.1046 15.6046 12 14.5 12H19C20.1046 12 21 12.8954 21 14V19C21 20.1046 20.1046 21 19 21H14C12.8954 21 12 20.1046 12 19C12 20.1046 11.1046 21 10 21H5C3.89543 21 3 20.1046 3 19V14C3 12.8954 3.89543 12 5 12H9.5C8.39543 12 7.5 11.1046 7.5 10V5C7.5 3.89543 8.39543 3 9.5 3H14.5ZM6 13.25C5.61183 13.25 5.29253 13.5449 5.25391 13.9229L5.25 14V19C5.25 19.4142 5.58579 19.75 6 19.75H8C8.9665 19.75 9.75 18.9665 9.75 18V17.5C9.75 17.1278 9.63264 16.7836 9.43457 16.5C9.63264 16.2164 9.75 15.8722 9.75 15.5V15C9.75 14.0335 8.9665 13.25 8 13.25H6ZM17 13.25C15.4812 13.25 14.25 14.4812 14.25 16V17C14.25 18.5188 15.4812 19.75 17 19.75H18C18.4142 19.75 18.75 19.4142 18.75 19C18.75 18.5858 18.4142 18.25 18 18.25H17C16.3096 18.25 15.75 17.6904 15.75 17V16C15.75 15.3096 16.3096 14.75 17 14.75H18C18.4142 14.75 18.75 14.4142 18.75 14C18.75 13.5858 18.4142 13.25 18 13.25H17ZM10 12C11.1046 12 12 12.8954 12 14C12 12.8954 12.8954 12 14 12H10ZM12 4.25C11.7645 4.25 11.545 4.36072 11.4043 4.54492L11.3486 4.62793L9.34863 8.12793C9.28392 8.24123 9.25 8.36952 9.25 8.5V10C9.25 10.4142 9.58579 10.75 10 10.75C10.4142 10.75 10.75 10.4142 10.75 10V9.25H13.25V10C13.25 10.4142 13.5858 10.75 14 10.75C14.4142 10.75 14.75 10.4142 14.75 10V8.5C14.75 8.40227 14.7311 8.30569 14.6943 8.21582L14.6514 8.12793L12.6514 4.62793C12.5178 4.39427 12.2691 4.25003 12 4.25Z" fill="#363538"/>
</svg>
