<svg width="24" height="24" viewBox="0 0 24 24" fill="none" xmlns="http://www.w3.org/2000/svg">
<path d="M11.9999 2C14.4567 2.00005 16.6509 3.08553 18.1181 4.82031L20.4697 2.46973C20.7626 2.17692 21.2374 2.17686 21.5302 2.46973C21.823 2.7626 21.823 3.2374 21.5302 3.53027L3.53022 21.5303C3.23735 21.8231 2.76257 21.8231 2.46967 21.5303C2.17678 21.2374 2.17678 20.7626 2.46967 20.4697L6.85541 16.083C5.67325 14.9809 3.99994 12.9093 3.99994 10C3.99994 5.5 7.58167 2 11.9999 2Z" fill="#363538"/>
<path d="M14.8769 19.7598C15.2853 19.692 15.6721 19.9685 15.7402 20.377C15.8081 20.7853 15.5314 21.1721 15.123 21.2402C13.0553 21.5848 10.9446 21.5848 8.8769 21.2402C8.46842 21.1722 8.19181 20.7854 8.25971 20.377C8.3278 19.9685 8.71454 19.6919 9.12299 19.7598C11.0276 20.0772 12.9723 20.0772 14.8769 19.7598Z" fill="#363538"/>
<path d="M19.6279 7.55273C19.8692 8.32063 19.9999 9.14208 19.9999 10C19.9999 13.427 17.6795 15.6938 16.5732 16.5801C16.2271 16.8574 16.0001 17.2694 15.9999 17.7129C15.9999 18.4235 15.4234 18.9999 14.7128 19H9.28705C8.97777 19 8.69354 18.8908 8.47162 18.709L19.6279 7.55273Z" fill="#363538"/>
</svg>
