<svg width="24" height="24" viewBox="0 0 24 24" fill="none" xmlns="http://www.w3.org/2000/svg">
<path d="M15.708 16.5C15.1145 17.9657 13.6785 19 12 19C10.3215 19 8.88548 17.9657 8.29199 16.5H15.708Z" fill="#363538"/>
<path d="M12 3.25C12.4142 3.25001 12.75 3.58579 12.75 4V7C12.75 7.01016 12.7484 7.02021 12.748 7.03027C16.5427 7.34599 19.7604 10.0439 20.6973 13.791L20.7598 14.0381C20.8817 14.5265 20.5122 14.9997 20.0088 15H3.99121C3.4878 14.9997 3.11826 14.5265 3.24023 14.0381L3.30273 13.791C4.23947 10.0442 7.45676 7.34636 11.251 7.03027C11.2506 7.02023 11.25 7.01014 11.25 7V4C11.25 3.58579 11.5858 3.25 12 3.25Z" fill="#363538"/>
</svg>
