<svg width="24" height="24" viewBox="0 0 24 24" fill="none" xmlns="http://www.w3.org/2000/svg">
<path d="M12 2C7.58172 2 4 5.5 4 10C4 13.4271 6.31999 15.6942 7.42628 16.5804C7.77254 16.8578 8 17.2695 8 17.7132C8 18.4239 8.57612 19 9.2868 19H14.7132C15.4239 19 16 18.4239 16 17.7132C16 17.2695 16.2275 16.8578 16.5737 16.5804C17.68 15.6942 20 13.4271 20 10C20 5.5 16.4183 2 12 2Z" fill="#363538"/>
<path d="M9.1233 19.7602C8.71472 19.6921 8.3283 19.9681 8.2602 20.3767C8.19211 20.7853 8.46812 21.1717 8.8767 21.2398C10.9446 21.5845 13.0554 21.5845 15.1233 21.2398C15.5319 21.1717 15.8079 20.7853 15.7398 20.3767C15.6717 19.9681 15.2853 19.6921 14.8767 19.7602C12.972 20.0776 11.028 20.0776 9.1233 19.7602Z" fill="#363538"/>
</svg>
