<svg width="24" height="24" viewBox="0 0 24 24" fill="none" xmlns="http://www.w3.org/2000/svg">
<path d="M15.9863 6.91297L15.2126 8.85321C14.9935 9.40272 15.3982 9.99989 15.9898 9.99989H19.6185C20.9412 9.99989 21.8996 11.2609 21.5455 12.5353L20.0075 18.0707C19.5264 19.8019 17.9502 20.9999 16.1535 20.9999H11.4976C10.7675 20.9999 10.0514 20.8001 9.42682 20.4221L8.17922 19.6672C7.39453 19.1924 6.80987 18.4715 6.5 17.637V19C6.5 19.5523 6.13369 20 5.68182 20H2.81818C2.36631 20 2 19.5523 2 19V9C2 8.44771 2.36631 8 2.81818 8H5.68182C6.13369 8 6.5 8.44772 6.5 9V10.5693C6.75671 9.87783 7.20296 9.2618 7.80067 8.79887L8.83226 7.99989L12.6215 4.3319C12.8457 4.11486 13.126 3.96464 13.4309 3.89811C15.1831 3.5157 16.6506 5.24705 15.9863 6.91297Z" fill="#363538"/>
</svg>
