<svg width="24" height="24" viewBox="0 0 24 24" fill="none" xmlns="http://www.w3.org/2000/svg">
<path d="M9 5.75L21 5.75C21.4142 5.75 21.75 5.41421 21.75 5C21.75 4.58579 21.4142 4.25 21 4.25L9 4.25C8.58579 4.25 8.25 4.58579 8.25 5C8.25 5.41422 8.58579 5.75 9 5.75Z" fill="#363538"/>
<path d="M9 11.25C8.58579 11.25 8.25 11.5858 8.25 12C8.25 12.4142 8.58579 12.75 9 12.75H21C21.4142 12.75 21.75 12.4142 21.75 12C21.75 11.5858 21.4142 11.25 21 11.25H9Z" fill="#363538"/>
<path d="M21 19.75L9 19.75C8.58579 19.75 8.25 19.4142 8.25 19C8.25 18.5858 8.58579 18.25 9 18.25L21 18.25C21.4142 18.25 21.75 18.5858 21.75 19C21.75 19.4142 21.4142 19.75 21 19.75Z" fill="#363538"/>
<path d="M5.46967 7.03033L5.25 6.81066L5.25 17.1893L5.46967 16.9697C5.76257 16.6768 6.23744 16.6768 6.53033 16.9697C6.82323 17.2626 6.82323 17.7374 6.53033 18.0303L5.03033 19.5303C4.73744 19.8232 4.26256 19.8232 3.96967 19.5303L2.46967 18.0303C2.17678 17.7374 2.17678 17.2626 2.46967 16.9697C2.76256 16.6768 3.23744 16.6768 3.53033 16.9697L3.75 17.1893L3.75 6.81066L3.53033 7.03033C3.23744 7.32322 2.76256 7.32322 2.46967 7.03033C2.17678 6.73744 2.17678 6.26256 2.46967 5.96967L3.96967 4.46967C4.26256 4.17678 4.73744 4.17678 5.03033 4.46967L6.53033 5.96967C6.82323 6.26256 6.82323 6.73744 6.53033 7.03033C6.23744 7.32322 5.76257 7.32322 5.46967 7.03033Z" fill="#363538"/>
</svg>
