<svg width="24" height="24" viewBox="0 0 24 24" fill="none" xmlns="http://www.w3.org/2000/svg">
<path fill-rule="evenodd" clip-rule="evenodd" d="M16 2C19.3137 2 22 4.68629 22 8V16C22 19.3137 19.3137 22 16 22H8C4.68629 22 2 19.3137 2 16V8C2 4.68629 4.68629 2 8 2H16ZM7.37012 16.5H8.87012V9.5H7.37012V16.5ZM13.4951 9.25C12.8992 9.25 12.344 9.41954 11.8701 9.70898V9.5H10.3701V16.5H11.8701V12.375C11.8701 11.4775 12.5977 10.75 13.4951 10.75C14.3926 10.75 15.1201 11.4775 15.1201 12.375V16.5H16.6201V12.375C16.6201 10.6491 15.221 9.25 13.4951 9.25ZM8.12012 7.25C7.7059 7.25 7.37012 7.58579 7.37012 8V8.09961C7.37012 8.51382 7.7059 8.84961 8.12012 8.84961C8.53433 8.84961 8.87012 8.51382 8.87012 8.09961V8C8.87012 7.58579 8.53433 7.25 8.12012 7.25Z" fill="#363538"/>
</svg>
