<svg width="24" height="24" viewBox="0 0 24 24" fill="none" xmlns="http://www.w3.org/2000/svg">
<path d="M17.8335 6.16675C16.5643 4.89754 14.5065 4.89754 13.2373 6.16675L11.8231 7.58096C11.5302 7.87385 11.0553 7.87385 10.7625 7.58096C10.4696 7.28807 10.4696 6.81319 10.7625 6.5203L12.1767 5.10609C14.0317 3.2511 17.0392 3.2511 18.8942 5.10609C20.7492 6.96108 20.7492 9.96861 18.8942 11.8236L17.48 13.2378C17.1871 13.5307 16.7122 13.5307 16.4193 13.2378C16.1264 12.9449 16.1264 12.47 16.4193 12.1772L17.8335 10.7629C19.1027 9.49374 19.1027 7.43595 17.8335 6.16675Z" fill="#363538"/>
<path d="M7.58047 10.7629C7.87337 11.0558 7.87337 11.5306 7.58047 11.8235L6.16626 13.2378C4.89705 14.507 4.89705 16.5647 6.16626 17.834C7.43546 19.1032 9.49325 19.1032 10.7625 17.834L12.1767 16.4197C12.4696 16.1268 12.9444 16.1268 13.2373 16.4197C13.5302 16.7126 13.5302 17.1875 13.2373 17.4804L11.8231 18.8946C9.96812 20.7496 6.96059 20.7496 5.1056 18.8946C3.25061 17.0396 3.25061 14.0321 5.1056 12.1771L6.51981 10.7629C6.81271 10.47 7.28758 10.47 7.58047 10.7629Z" fill="#363538"/>
<path d="M9.34821 13.5914C9.05532 13.8843 9.05532 14.3591 9.34821 14.652C9.6411 14.9449 10.116 14.9449 10.4089 14.652L14.6515 10.4094C14.9444 10.1165 14.9444 9.64163 14.6515 9.34873C14.3586 9.05584 13.8837 9.05584 13.5909 9.34873L9.34821 13.5914Z" fill="#363538"/>
</svg>
