<svg width="24" height="24" viewBox="0 0 24 24" fill="none" xmlns="http://www.w3.org/2000/svg">
<path d="M15.2585 11.7231C15.472 11.9364 15.8021 11.9633 16.0446 11.8031L16.2399 11.643C16.4825 11.4824 16.8123 11.5093 17.026 11.7231L19.7663 14.4623C20.1567 14.8527 20.1565 15.4858 19.7663 15.8764L15.8766 19.766C15.4861 20.1563 14.853 20.1565 14.4626 19.766L11.7233 17.0258C11.5096 16.8121 11.4827 16.4823 11.6432 16.2397L11.8034 16.0443C11.9635 15.8018 11.9366 15.4718 11.7233 15.2582L8.08658 11.6215C8.95828 11.5258 9.80597 11.1462 10.4762 10.476C11.1465 9.80569 11.5261 8.95807 11.6217 8.08633L15.2585 11.7231Z" fill="#363538"/>
<path d="M4.38638 4.38614C5.85952 2.913 8.8649 5.47696 8.8649 5.47696L9.75455 6.30801C10.3686 7.27196 10.2624 8.56861 9.41568 9.41543C8.56887 10.2622 7.27224 10.3683 6.30826 9.7543L5.4772 8.86465C5.4772 8.86465 2.91324 5.85928 4.38638 4.38614Z" fill="#363538"/>
</svg>
