<svg width="24" height="24" viewBox="0 0 24 24" fill="none" xmlns="http://www.w3.org/2000/svg">
<path d="M9.5 2H14.5C15.6225 2 16.5721 2.73973 16.8881 3.75829C16.9246 3.75283 16.962 3.75 17 3.75H18.2857C19.751 3.75 20.75 5.09385 20.75 6.5C20.75 6.91421 20.4142 7.25 20 7.25C19.5858 7.25 19.25 6.91421 19.25 6.5C19.25 5.69701 18.714 5.25 18.2857 5.25H17C16.962 5.25 16.9246 5.24717 16.8881 5.24171C16.5721 6.26027 15.6225 7 14.5 7H12.75V8H18C20.2091 8 22 9.79086 22 12V18C22 20.2091 20.2091 22 18 22H6C3.79086 22 2 20.2091 2 18V12C2 9.79086 3.79086 8 6 8H11.25V7H9.5C8.11929 7 7 5.88071 7 4.5C7 3.11929 8.11929 2 9.5 2Z" fill="#363538"/>
</svg>
