<svg width="24" height="24" viewBox="0 0 24 24" fill="none" xmlns="http://www.w3.org/2000/svg">
<path d="M11.5 2H12.5C13.6225 2 14.5721 2.73973 14.8881 3.75829C14.9246 3.75283 14.962 3.75 15 3.75H16.5C17.4665 3.75 18.25 4.5335 18.25 5.5C18.25 5.91421 17.9142 6.25 17.5 6.25C17.0858 6.25 16.75 5.91421 16.75 5.5C16.75 5.36193 16.6381 5.25 16.5 5.25H15C14.962 5.25 14.9246 5.24717 14.8881 5.24171C14.5959 6.18373 13.7616 6.88726 12.7499 6.98767L12.75 7V8H14C16.2091 8 18 9.79086 18 12V18C18 20.2091 16.2091 22 14 22H10C7.79086 22 6 20.2091 6 18V12C6 9.79086 7.79086 8 10 8H11.25V7L11.2501 6.98767C9.98672 6.86228 9 5.79637 9 4.5C9 3.11929 10.1193 2 11.5 2Z" fill="#363538"/>
</svg>
