<svg width="24" height="24" viewBox="0 0 24 24" fill="none" xmlns="http://www.w3.org/2000/svg">
<path d="M4.64284 7.24998V2.52271H3.70339L2.53311 3.26365V4.15001L3.61568 3.47139H3.64338V7.24998H4.64284Z" fill="#363538"/>
<path d="M9.20304 6.24998L21.203 6.24998C21.6173 6.24998 21.953 5.91419 21.953 5.49998C21.953 5.08576 21.6172 4.74998 21.203 4.74998L9.20304 4.74998C8.78882 4.74998 8.45304 5.08577 8.45304 5.49998C8.45304 5.91419 8.78882 6.24998 9.20304 6.24998Z" fill="#363538"/>
<path d="M9.20304 13.25L21.203 13.25C21.6173 13.25 21.953 12.9142 21.953 12.5C21.953 12.0858 21.6172 11.75 21.203 11.75L9.20304 11.75C8.78882 11.75 8.45304 12.0858 8.45304 12.5C8.45304 12.9142 8.78882 13.25 9.20304 13.25Z" fill="#363538"/>
<path d="M21.203 20.25L9.20304 20.25C8.78882 20.25 8.45304 19.9142 8.45304 19.5C8.45304 19.0858 8.78882 18.75 9.20304 18.75L21.203 18.75C21.6172 18.75 21.953 19.0858 21.953 19.5C21.953 19.9142 21.6173 20.25 21.203 20.25Z" fill="#363538"/>
<path d="M2.0862 14.25V13.5298L3.76891 11.9717C3.91202 11.8333 4.03205 11.7086 4.129 11.5978C4.22748 11.487 4.30211 11.3785 4.35289 11.2724C4.40368 11.1646 4.42907 11.0485 4.42907 10.9238C4.42907 10.7853 4.39752 10.6661 4.33443 10.566C4.27134 10.4645 4.18516 10.3868 4.07591 10.3329C3.96665 10.2775 3.84277 10.2498 3.70428 10.2498C3.55963 10.2498 3.43345 10.279 3.32573 10.3375C3.21801 10.396 3.13491 10.4799 3.07644 10.5891C3.01796 10.6984 2.98873 10.8284 2.98873 10.9792H2.04004C2.04004 10.6699 2.11006 10.4014 2.25009 10.1736C2.39012 9.94588 2.58632 9.76969 2.83869 9.64504C3.09106 9.5204 3.3819 9.45807 3.7112 9.45807C4.04975 9.45807 4.34443 9.51809 4.59526 9.63812C4.84763 9.75661 5.04383 9.92126 5.18386 10.1321C5.32389 10.3429 5.39391 10.5845 5.39391 10.8569C5.39391 11.0354 5.35852 11.2116 5.28773 11.3855C5.21848 11.5593 5.09461 11.7525 4.9161 11.9648C4.7376 12.1756 4.486 12.4288 4.16131 12.7242L3.47115 13.4005V13.4329H5.45623V14.25H2.0862Z" fill="#363538"/>
<path d="M2.91255 21.6369C3.18185 21.7554 3.48884 21.8146 3.83354 21.8146C4.18747 21.8146 4.50139 21.7546 4.7753 21.6346C5.04921 21.5145 5.26388 21.3499 5.4193 21.1406C5.57626 20.9313 5.65397 20.692 5.65243 20.4227C5.65397 20.1288 5.56318 19.8842 5.38006 19.6887C5.19848 19.4918 4.9338 19.371 4.58603 19.3263V19.2894C4.8507 19.2417 5.06537 19.1294 5.23002 18.9524C5.39622 18.7754 5.47855 18.5546 5.47701 18.2899C5.47855 18.0406 5.41084 17.816 5.27388 17.6159C5.13846 17.4143 4.94842 17.2543 4.70375 17.1358C4.45907 17.0173 4.17362 16.9581 3.84739 16.9581C3.52424 16.9581 3.23417 17.0173 2.97718 17.1358C2.72174 17.2528 2.51861 17.4151 2.36781 17.6228C2.217 17.8306 2.13929 18.0706 2.13468 18.343H3.0926C3.09721 18.223 3.13337 18.1183 3.20108 18.0291C3.26879 17.9398 3.35881 17.8714 3.47115 17.8237C3.58348 17.7744 3.70736 17.7498 3.84277 17.7498C3.97665 17.7498 4.0936 17.7752 4.19363 17.826C4.29519 17.8768 4.37367 17.9475 4.42907 18.0383C4.486 18.1276 4.51447 18.2315 4.51447 18.3499C4.51447 18.4746 4.48216 18.5838 4.41753 18.6777C4.35289 18.77 4.2621 18.8424 4.14515 18.8947C4.02974 18.947 3.89663 18.9732 3.74583 18.9732H3.30495V19.7072H3.74583C3.92433 19.7072 4.07821 19.7349 4.20748 19.7903C4.33828 19.8457 4.4383 19.9226 4.50755 20.0211C4.57833 20.1181 4.61373 20.2296 4.61373 20.3558C4.61373 20.4804 4.58064 20.5905 4.51447 20.6859C4.4483 20.7813 4.35674 20.8559 4.23979 20.9098C4.12284 20.9636 3.98819 20.9906 3.83585 20.9906C3.68966 20.9906 3.55809 20.9667 3.44114 20.919C3.32419 20.8713 3.23032 20.8044 3.15953 20.7182C3.09029 20.6305 3.05259 20.5289 3.04643 20.4135H2.04004C2.04466 20.689 2.12391 20.9321 2.27779 21.1429C2.43321 21.3522 2.6448 21.5168 2.91255 21.6369Z" fill="#363538"/>
</svg>
