<svg width="24" height="24" viewBox="0 0 24 24" fill="none" xmlns="http://www.w3.org/2000/svg">
<path d="M3.87988 6.75C4.84638 6.75 5.62988 5.9665 5.62988 5C5.62988 4.0335 4.84638 3.25 3.87988 3.25C2.91338 3.25 2.12988 4.0335 2.12988 5C2.12988 5.9665 2.91338 6.75 3.87988 6.75Z" fill="#363538"/>
<path d="M9.12988 5.75L21.1299 5.75C21.5441 5.75 21.8799 5.41421 21.8799 5C21.8799 4.58579 21.5441 4.25 21.1299 4.25L9.12988 4.25C8.71567 4.25 8.37988 4.58579 8.37988 5C8.37988 5.41422 8.71567 5.75 9.12988 5.75Z" fill="#363538"/>
<path d="M9.12988 12.75L21.1299 12.75C21.5441 12.75 21.8799 12.4142 21.8799 12C21.8799 11.5858 21.5441 11.25 21.1299 11.25L9.12988 11.25C8.71567 11.25 8.37988 11.5858 8.37988 12C8.37988 12.4142 8.71567 12.75 9.12988 12.75Z" fill="#363538"/>
<path d="M21.1299 19.75L9.12988 19.75C8.71567 19.75 8.37988 19.4142 8.37988 19C8.37988 18.5858 8.71567 18.25 9.12988 18.25L21.1299 18.25C21.5441 18.25 21.8799 18.5858 21.8799 19C21.8799 19.4142 21.5441 19.75 21.1299 19.75Z" fill="#363538"/>
<path d="M5.62988 19C5.62988 19.9665 4.84638 20.75 3.87988 20.75C2.91338 20.75 2.12988 19.9665 2.12988 19C2.12988 18.0335 2.91338 17.25 3.87988 17.25C4.84638 17.25 5.62988 18.0335 5.62988 19Z" fill="#363538"/>
<path d="M3.87988 13.75C4.84638 13.75 5.62988 12.9665 5.62988 12C5.62988 11.0335 4.84638 10.25 3.87988 10.25C2.91338 10.25 2.12988 11.0335 2.12988 12C2.12988 12.9665 2.91338 13.75 3.87988 13.75Z" fill="#363538"/>
</svg>
