<svg width="24" height="24" viewBox="0 0 24 24" fill="none" xmlns="http://www.w3.org/2000/svg">
<path d="M14.3476 3H11.3741C11.1523 3 10.957 3.14613 10.8944 3.35892L8.58082 11.2252L13.2001 9.68549L14.8304 3.62999C14.9159 3.31229 14.6766 3 14.3476 3Z" fill="#363538"/>
<path d="M6.18856 19.3589L7.54964 14.7312L12.2647 13.1595L11.6696 15.37C11.5841 15.6877 11.8234 16 12.1524 16H19.3596C19.6849 16 19.9236 16.3057 19.8447 16.6213L19.0947 19.6213C19.039 19.8439 18.8391 20 18.6096 20H6.66825C6.33444 20 6.09438 19.6792 6.18856 19.3589Z" fill="#363538"/>
<path d="M17.2371 10.7115C17.6301 10.5805 17.8425 10.1558 17.7115 9.76283C17.5805 9.36987 17.1557 9.1575 16.7628 9.28849L4.76279 13.2885C4.36983 13.4195 4.15746 13.8442 4.28845 14.2372C4.41943 14.6301 4.84417 14.8425 5.23713 14.7115L17.2371 10.7115Z" fill="#363538"/>
</svg>
