<svg width="24" height="24" viewBox="0 0 24 24" fill="none" xmlns="http://www.w3.org/2000/svg">
<path fill-rule="evenodd" clip-rule="evenodd" d="M13.4481 21.3019C17.3295 19.1909 20.5544 15.4294 21 11C21 6.02944 16.9706 2 12 2C7.02944 2 3 6.02944 3 11C3.4491 15.4645 6.34219 19.2505 10.5284 21.3518C11.4508 21.8149 12.5415 21.7951 13.4481 21.3019ZM14.5303 10.5303C14.8232 10.2374 14.8232 9.76256 14.5303 9.46967C14.2374 9.17678 13.7626 9.17678 13.4697 9.46967L11.0056 11.9337L10.0115 11.0066C9.70859 10.7241 9.23401 10.7407 8.9515 11.0436C8.669 11.3465 8.68555 11.8211 8.98848 12.1036L10.5123 13.5247C10.8078 13.8003 11.2684 13.7922 11.5541 13.5065L14.5303 10.5303Z" fill="#363538"/>
</svg>
