<svg width="24" height="24" viewBox="0 0 24 24" fill="none" xmlns="http://www.w3.org/2000/svg">
<path d="M20.4697 2.46973C20.7626 2.17692 21.2374 2.17686 21.5302 2.46973C21.823 2.7626 21.823 3.2374 21.5302 3.53027L3.53022 21.5303C3.23735 21.8231 2.76257 21.8231 2.46967 21.5303C2.17678 21.2374 2.17678 20.7626 2.46967 20.4697L10.2031 12.7363C9.76825 12.2866 9.49994 11.675 9.49994 11C9.49994 9.61929 10.6192 8.5 11.9999 8.5C12.6749 8.50005 13.2866 8.76834 13.7363 9.20312L20.4697 2.46973Z" fill="#363538"/>
<path d="M20.1025 7.07812C20.6773 8.26355 20.9999 9.59411 20.9999 11C20.5544 15.4293 17.3294 19.1907 13.4482 21.3018C12.5416 21.7949 11.4506 21.8145 10.5283 21.3516C9.49413 20.8324 8.53956 20.2096 7.68061 19.5L20.1025 7.07812Z" fill="#363538"/>
<path d="M11.9999 2C14.4698 2.00005 16.7068 2.99556 18.333 4.60645L14.7958 8.14258C14.0747 7.43661 13.0888 7.00005 11.9999 7C9.7908 7 7.99994 8.79086 7.99994 11C7.99994 12.089 8.43651 13.0748 9.14252 13.7959L5.5849 17.3535C4.15547 15.5231 3.23697 13.3563 2.99994 11C2.99994 6.02944 7.02938 2 11.9999 2Z" fill="#363538"/>
</svg>
