<svg width="24" height="24" viewBox="0 0 24 24" fill="none" xmlns="http://www.w3.org/2000/svg">
<path fill-rule="evenodd" clip-rule="evenodd" d="M13.4481 21.3019C17.3295 19.1909 20.5544 15.4294 21 11C21 6.02944 16.9706 2 12 2C7.02944 2 3 6.02944 3 11C3.4491 15.4645 6.34219 19.2505 10.5284 21.3518C11.4508 21.8149 12.5415 21.7951 13.4481 21.3019ZM10 10.25C9.58579 10.25 9.25 10.5858 9.25 11C9.25 11.4142 9.58579 11.75 10 11.75H14C14.4142 11.75 14.75 11.4142 14.75 11C14.75 10.5858 14.4142 10.25 14 10.25H10Z" fill="#363538"/>
</svg>
