<svg width="24" height="24" viewBox="0 0 24 24" fill="none" xmlns="http://www.w3.org/2000/svg">
<path fill-rule="evenodd" clip-rule="evenodd" d="M13.4481 21.3019C17.3295 19.1909 20.5544 15.4294 21 11C21 6.02944 16.9706 2 12 2C7.02944 2 3 6.02944 3 11C3.4491 15.4645 6.34219 19.2505 10.5284 21.3518C11.4508 21.8149 12.5415 21.7951 13.4481 21.3019ZM10.9445 8.88407C10.6517 8.59118 10.1768 8.59118 9.88388 8.88407C9.59099 9.17696 9.59099 9.65184 9.88388 9.94473L10.7678 10.8286L9.88388 11.7125C9.59099 12.0054 9.59099 12.4803 9.88388 12.7732C10.1768 13.0661 10.6517 13.0661 10.9445 12.7732L11.8284 11.8893L12.7123 12.7732C13.0052 13.0661 13.4801 13.0661 13.773 12.7732C14.0659 12.4803 14.0659 12.0054 13.773 11.7125L12.8891 10.8286L13.773 9.94473C14.0659 9.65184 14.0659 9.17696 13.773 8.88407C13.4801 8.59118 13.0052 8.59118 12.7123 8.88407L11.8284 9.76795L10.9445 8.88407Z" fill="#363538"/>
</svg>
