<svg width="24" height="24" viewBox="0 0 24 24" fill="none" xmlns="http://www.w3.org/2000/svg">
<path fill-rule="evenodd" clip-rule="evenodd" d="M12 1.25C14.6234 1.25 16.75 3.37665 16.75 6V8H17C19.2091 8 21 9.79086 21 12V17.8105L18.7207 13.7402L18.6309 13.5908C17.6891 12.1523 15.5419 12.1343 14.5723 13.5498L14.4795 13.6963L10.8291 19.9033C10.4088 20.6181 10.4058 21.3696 10.6738 22H7C4.79086 22 3 20.2091 3 18V12C3 9.79086 4.79086 8 7 8H7.25V6C7.25 3.37665 9.37665 1.25 12 1.25ZM12 2.75C10.2051 2.75 8.75 4.20507 8.75 6V8H15.25V6C15.25 4.20507 13.7949 2.75 12 2.75Z" fill="#363538"/>
<path fill-rule="evenodd" clip-rule="evenodd" d="M15.7725 14.4561C16.1347 13.8407 17.0635 13.85 17.4121 14.4727L20.8877 20.6797C21.2218 21.2766 20.7703 21.9995 20.0635 22H12.9365C12.2209 21.9999 11.7709 21.2615 12.1221 20.6641L15.7725 14.4561ZM16.5 19.25C16.0858 19.25 15.75 19.5858 15.75 20V20.0098C15.75 20.424 16.0858 20.7598 16.5 20.7598C16.914 20.7595 17.25 20.4238 17.25 20.0098V20C17.25 19.5859 16.914 19.2502 16.5 19.25ZM16.5 16.25C16.0858 16.25 15.75 16.5858 15.75 17V18C15.75 18.4142 16.0858 18.75 16.5 18.75C16.914 18.7498 17.25 18.4141 17.25 18V17C17.25 16.5859 16.914 16.2502 16.5 16.25Z" fill="#363538"/>
</svg>
