<svg width="24" height="24" viewBox="0 0 24 24" fill="none" xmlns="http://www.w3.org/2000/svg">
<path fill-rule="evenodd" clip-rule="evenodd" d="M8.75 6C8.75 4.20507 10.2051 2.75 12 2.75C13.7949 2.75 15.25 4.20507 15.25 6C15.25 6.41421 15.5858 6.75 16 6.75C16.4142 6.75 16.75 6.41421 16.75 6C16.75 3.37665 14.6234 1.25 12 1.25C9.37665 1.25 7.25 3.37665 7.25 6V8H7C4.79086 8 3 9.79086 3 12V18C3 20.2091 4.79086 22 7 22H17C19.2091 22 21 20.2091 21 18V12C21 9.79086 19.2091 8 17 8H8.75V6ZM13 14C13 14.2536 12.9056 14.4852 12.75 14.6615V18C12.75 18.4142 12.4142 18.75 12 18.75C11.5858 18.75 11.25 18.4142 11.25 18V14.6615C11.0944 14.4852 11 14.2536 11 14C11 13.4477 11.4477 13 12 13C12.5523 13 13 13.4477 13 14Z" fill="#363538"/>
</svg>
