<svg width="24" height="24" viewBox="0 0 24 24" fill="none" xmlns="http://www.w3.org/2000/svg">
<path d="M18 8C18 8.44825 17.9508 8.88501 17.8576 9.3052C17.7344 9.31535 17.6087 9.32667 17.483 9.33798C17.3323 9.35155 17.1816 9.36511 17.0358 9.37661C16.4761 9.42076 15.8978 9.44545 15.3364 9.38775C14.2409 9.27516 13.2706 8.86342 12.671 7.66442C11.8695 6.06175 10.2786 5.43966 8.89018 5.1947C8.154 5.06482 7.40961 5.03114 6.78655 5.02809C7.81992 3.21921 9.76758 2 12 2C15.3137 2 18 4.68629 18 8Z" fill="#363538"/>
<path d="M12.7486 13.9538C14.7064 13.7101 16.3714 12.5232 17.2746 10.8622L17.1538 10.872C16.5671 10.9183 15.8812 10.9516 15.1831 10.8799C13.7597 10.7336 12.2301 10.1365 11.3294 8.33534C10.8441 7.36497 9.83955 6.88537 8.62956 6.67189C7.7411 6.51514 6.86661 6.52069 6.18015 6.53492C6.06249 7.00382 6 7.49461 6 8C6 11.0602 8.29099 13.5853 11.2514 13.9538C11.2505 13.9691 11.25 13.9845 11.25 14V21C11.25 21.4142 11.5858 21.75 12 21.75C12.4142 21.75 12.75 21.4142 12.75 21V14C12.75 13.9845 12.7495 13.9691 12.7486 13.9538Z" fill="#363538"/>
</svg>
