<svg width="24" height="24" viewBox="0 0 24 24" fill="none" xmlns="http://www.w3.org/2000/svg">
<path d="M4.92704 9.46467L17.25 6.04163V17.9583L10.2002 16L10.201 15.9973L4.7757 14.4883C3.71894 14.1254 3 13.1289 3 12C3 10.818 3.78816 9.78103 4.92704 9.46467Z" fill="#363538"/>
<path d="M5.30043 16.1912L5.7537 18.659C5.89639 19.4359 6.57354 20 7.36339 20C8.26726 20 9 19.2672 9 18.3633V17.2202L5.30043 16.1912Z" fill="#363538"/>
<path d="M21 15.8864C21 17.1908 19.9635 18.1959 18.7452 18.2519C18.7484 18.2239 18.75 18.1954 18.75 18.1665V5.83321C18.75 5.80442 18.7484 5.776 18.7452 5.74805C19.9635 5.80407 21 6.8091 21 8.11355V15.8864Z" fill="#363538"/>
</svg>
