<svg width="24" height="24" viewBox="0 0 24 24" fill="none" xmlns="http://www.w3.org/2000/svg">
<path d="M4.00034 9.99902C5.44956 7.82536 7.41377 7.58058 8.6937 7.70703C9.50164 7.78719 10.0003 8.53077 10.0003 9.34277V10.876L8.71421 11.3047H7.00034C6.58617 11.3047 6.25034 11.6405 6.25034 12.0547C6.25079 12.4685 6.58645 12.8046 7.00034 12.8047H8.05991C8.02362 13.1031 7.95475 13.4265 7.83921 13.7256C7.62236 14.2864 7.29345 14.6536 6.8187 14.7725C6.41702 14.873 6.17251 15.2799 6.2728 15.6816C6.37344 16.0831 6.78042 16.3277 7.18198 16.2275C8.30638 15.9463 8.92343 15.0813 9.23862 14.2656C9.458 13.6977 9.55422 13.099 9.58237 12.5957L10.0003 12.4561V16.7637C10.0003 16.9187 9.96441 17.0724 9.86753 17.1934C9.61435 17.5093 8.95252 18.1359 7.50034 18.499C6.34899 18.787 5.36289 19.9042 4.73374 20.7998C4.46309 21.1844 3.81523 21.083 3.73276 20.6201C3.26519 17.9793 2.48658 12.2698 4.00034 9.99902Z" fill="#363538"/>
<path d="M15.4183 7.70703C16.6982 7.5806 18.6625 7.82548 20.1117 9.99902C21.6251 12.27 20.8478 17.9794 20.3802 20.6201C20.2979 21.0831 19.649 21.1843 19.3783 20.7998C18.7491 19.9043 17.763 18.7871 16.6117 18.499C15.1598 18.136 14.4979 17.5094 14.2445 17.1934C14.1476 17.0724 14.1117 16.9186 14.1117 16.7637V12.4932L14.4183 12.5957C14.4465 13.099 14.5427 13.6977 14.7621 14.2656C15.0773 15.0813 15.6942 15.9464 16.8187 16.2275C17.2202 16.3276 17.6273 16.0831 17.7279 15.6816C17.8282 15.28 17.5835 14.8731 17.182 14.7725C16.7072 14.6536 16.3784 14.2864 16.1615 13.7256C16.0459 13.4265 15.9771 13.103 15.9408 12.8047H17.0003C17.4141 12.8045 17.7499 12.4684 17.7503 12.0547C17.7503 11.6406 17.4144 11.3049 17.0003 11.3047H15.2865L14.1117 10.9131V9.34277C14.1117 8.53061 14.6101 7.78695 15.4183 7.70703Z" fill="#363538"/>
<path d="M12.0785 2.25391C12.4561 2.29282 12.7513 2.61205 12.7513 3V9.55859C12.7516 10.0627 13.054 10.5144 13.5121 10.709L13.6058 10.7441L14.1117 10.9131V12.4932L13.1322 12.167L12.9251 12.0898C12.5695 11.9388 12.2575 11.7153 12.0013 11.4434C11.7451 11.7155 11.4332 11.9387 11.0775 12.0898L10.8705 12.167L10.0003 12.4561V10.876L10.3968 10.7441L10.4906 10.709C10.9485 10.5143 11.2511 10.0626 11.2513 9.55859V3C11.2513 2.5858 11.5871 2.25002 12.0013 2.25L12.0785 2.25391Z" fill="#363538"/>
</svg>
