<svg width="24" height="24" viewBox="0 0 24 24" fill="none" xmlns="http://www.w3.org/2000/svg">
<path d="M6 4.73202C5.44772 3.77544 5.77547 2.55226 6.73205 1.99997C7.68864 1.44769 8.91182 1.77544 9.4641 2.73202L9.91523 3.5134L6.82547 6.16177L6 4.73202Z" fill="#363538"/>
<path d="M7.58849 7.48336L10.6783 4.83499L18.4641 18.3205C19.0164 19.2771 18.6886 20.5002 17.7321 21.0525C16.7755 21.6048 15.5523 21.2771 15 20.3205L7.58849 7.48336Z" fill="#363538"/>
<path d="M15.7341 2.51109C15.4819 1.82964 14.5181 1.82964 14.2659 2.51109L13.9169 3.45441C13.8376 3.66866 13.6687 3.83758 13.4544 3.91686L12.5111 4.26592C11.8296 4.51808 11.8296 5.48192 12.5111 5.73408L13.4544 6.08314C13.6687 6.16242 13.8376 6.33134 13.9169 6.54559L14.2659 7.48891C14.5181 8.17036 15.4819 8.17037 15.7341 7.48891L16.0831 6.54559C16.1624 6.33134 16.3313 6.16242 16.5456 6.08314L17.4889 5.73408C18.1704 5.48192 18.1704 4.51808 17.4889 4.26592L16.5456 3.91686C16.3313 3.83758 16.1624 3.66866 16.0831 3.45441L15.7341 2.51109Z" fill="#363538"/>
<path d="M5.73408 7.51109C5.48192 6.82964 4.51808 6.82964 4.26592 7.51109L3.91686 8.45441C3.83758 8.66866 3.66866 8.83758 3.45441 8.91686L2.51109 9.26592C1.82964 9.51808 1.82964 10.4819 2.51109 10.7341L3.45441 11.0831C3.66866 11.1624 3.83758 11.3313 3.91686 11.5456L4.26592 12.4889C4.51808 13.1704 5.48192 13.1704 5.73408 12.4889L6.08314 11.5456C6.16242 11.3313 6.33134 11.1624 6.54559 11.0831L7.48891 10.7341C8.17036 10.4819 8.17036 9.51808 7.48891 9.26592L6.54559 8.91686C6.33134 8.83758 6.16242 8.66866 6.08314 8.45441L5.73408 7.51109Z" fill="#363538"/>
<path d="M18.2659 9.51109C18.5181 8.82964 19.4819 8.82964 19.7341 9.51109L20.0831 10.4544C20.1624 10.6687 20.3313 10.8376 20.5456 10.9169L21.4889 11.2659C22.1704 11.5181 22.1704 12.4819 21.4889 12.7341L20.5456 13.0831C20.3313 13.1624 20.1624 13.3313 20.0831 13.5456L19.7341 14.4889C19.4819 15.1704 18.5181 15.1704 18.2659 14.4889L17.9169 13.5456C17.8376 13.3313 17.6687 13.1624 17.4544 13.0831L16.5111 12.7341C15.8296 12.4819 15.8296 11.5181 16.5111 11.2659L17.4544 10.9169C17.6687 10.8376 17.8376 10.6687 17.9169 10.4544L18.2659 9.51109Z" fill="#363538"/>
</svg>
