<svg width="24" height="24" viewBox="0 0 24 24" fill="none" xmlns="http://www.w3.org/2000/svg">
<path d="M7.83308 2.70629C7.34524 2.46681 6.74863 2.81126 6.71211 3.35349L6.52501 6.13126C6.51245 6.31782 6.42889 6.4956 6.29088 6.6294L4.23601 8.62165C3.83489 9.01054 3.96421 9.6603 4.47898 9.84248L7.11613 10.7758C7.29324 10.8385 7.43734 10.9649 7.5199 11.13L8.74909 13.5881C8.98902 14.0679 9.66556 14.125 10.0202 13.6954L11.794 11.5468L18.6103 21.2751C18.848 21.6144 19.3157 21.6967 19.6549 21.459C19.9941 21.2213 20.0764 20.7536 19.8388 20.4144L13.2802 11.054L15.1354 10.7422C15.6848 10.6498 15.9736 10.0354 15.678 9.58767L14.1638 7.2941C14.0621 7.14005 14.0247 6.95206 14.059 6.76733L14.5693 4.01685C14.6689 3.47995 14.1708 3.04308 13.6335 3.19601L10.8807 3.97945C10.6958 4.03207 10.5001 4.01555 10.3323 3.93315L7.83308 2.70629Z" fill="#363538"/>
</svg>
