<svg width="24" height="24" viewBox="0 0 24 24" fill="none" xmlns="http://www.w3.org/2000/svg">
<path d="M11.5643 8C11.7285 7.87513 11.8751 7.72853 12 7.56429C12.1249 7.72853 12.2715 7.87513 12.4357 8C12.2715 8.12487 12.1249 8.27147 12 8.43571C11.8751 8.27147 11.7285 8.12487 11.5643 8Z" fill="#363538"/>
<path fill-rule="evenodd" clip-rule="evenodd" d="M5.16298 18.0793L5.5 17.225C3.95145 15.6084 3 13.4153 3 11C3 6.02944 7.02944 2 12 2C14.5177 2 16.7939 3.03377 18.4273 4.7C20.0187 6.32338 21 8.54709 21 11C21 13.4382 20.0305 15.6499 18.4559 17.2707L18.8364 18.0792C19.6947 19.9031 18.364 22.0002 16.3481 22.0002H7.65126C5.6355 22.0002 4.30472 19.9032 5.16298 18.0793ZM12 20C13.9717 20 15.7953 19.366 17.2781 18.2906L17.4791 18.7179C17.8693 19.5469 17.2644 20.5002 16.3481 20.5002H7.65126C6.73501 20.5002 6.13011 19.547 6.52023 18.7179L6.73817 18.3024C8.21799 19.3706 10.0355 20 12 20ZM7.51365 11.7301C7.48005 11.3683 7.01455 11.2436 6.80458 11.5401L6.51392 11.9505C6.44791 12.0437 6.34447 12.1034 6.23073 12.114L5.72998 12.1605C5.36822 12.1941 5.24349 12.6596 5.53998 12.8696L5.9504 13.1602C6.04361 13.2262 6.10333 13.3297 6.1139 13.4434L6.1604 13.9442C6.194 14.3059 6.6595 14.4307 6.86947 14.1342L7.16013 13.7237C7.22615 13.6305 7.32959 13.5708 7.44332 13.5602L7.94408 13.5137C8.30583 13.4801 8.43056 13.0146 8.13407 12.8047L7.72366 12.514C7.63044 12.448 7.57072 12.3446 7.56016 12.2308L7.51365 11.7301ZM13.5143 14.0188C13.5446 13.545 14.148 13.3646 14.4334 13.7441L14.8285 14.2693C14.9182 14.3886 15.0556 14.4628 15.2045 14.4723L15.8604 14.5143C16.3342 14.5447 16.5146 15.1481 16.1351 15.4335L15.6099 15.8285C15.4906 15.9183 15.4164 16.0556 15.4069 16.2046L15.3649 16.8605C15.3345 17.3343 14.7311 17.5147 14.4457 17.1352L14.0507 16.61C13.9609 16.4907 13.8236 16.4165 13.6746 16.407L13.0187 16.365C12.5449 16.3346 12.3645 15.7312 12.744 15.4458L13.2692 15.0507C13.3885 14.961 13.4627 14.8236 13.4722 14.6747L13.5143 14.0188ZM11.2659 5.51109C11.5181 4.82964 12.4819 4.82964 12.7341 5.51109L13.0831 6.45441C13.1624 6.66866 13.3313 6.83758 13.5456 6.91686L14.4889 7.26592C15.1704 7.51808 15.1704 8.48192 14.4889 8.73408L13.5456 9.08314C13.3313 9.16242 13.1624 9.33134 13.0831 9.54559L12.7341 10.4889C12.4819 11.1704 11.5181 11.1704 11.2659 10.4889L10.9169 9.54559C10.8376 9.33134 10.6687 9.16242 10.4544 9.08314L9.51109 8.73408C8.82964 8.48192 8.82964 7.51808 9.51109 7.26592L10.4544 6.91686C10.6687 6.83758 10.8376 6.66866 10.9169 6.45441L11.2659 5.51109Z" fill="#363538"/>
<path fill-rule="evenodd" clip-rule="evenodd" d="M11.5643 8C11.7285 7.87513 11.8751 7.72853 12 7.56429C12.1249 7.72853 12.2715 7.87513 12.4357 8C12.2715 8.12487 12.1249 8.27147 12 8.43571C11.8751 8.27147 11.7285 8.12487 11.5643 8Z" fill="#363538"/>
</svg>
