<svg width="24" height="24" viewBox="0 0 24 24" fill="none" xmlns="http://www.w3.org/2000/svg">
<path d="M19.5 3.75C19.5 3.33579 19.1642 3 18.75 3C18.3358 3 18 3.33579 18 3.75V6.93934L17.2803 6.21967C16.9874 5.92678 16.5126 5.92678 16.2197 6.21967C15.9268 6.51256 15.9268 6.98744 16.2197 7.28033L18.2197 9.28033C18.3603 9.42098 18.5511 9.5 18.75 9.5C18.9489 9.5 19.1397 9.42098 19.2803 9.28033L21.2803 7.28033C21.5732 6.98744 21.5732 6.51256 21.2803 6.21967C20.9874 5.92678 20.5126 5.92678 20.2197 6.21967L19.5 6.93934V3.75Z" fill="#363538"/>
<path fill-rule="evenodd" clip-rule="evenodd" d="M16.375 4C16.5821 4 16.75 4.16789 16.75 4.375C16.75 4.58211 16.5807 4.74644 16.3772 4.78486C15.9956 4.85689 15.631 5.04053 15.3358 5.33579C14.5547 6.11684 14.5547 7.38317 15.3358 8.16421L17.3358 10.1642C17.7109 10.5393 18.2196 10.75 18.75 10.75C19.2804 10.75 19.7891 10.5393 20.1642 10.1642C20.8417 9.48676 22 9.96656 22 10.9246V16C22 18.2091 20.2091 20 18 20H6C3.79086 20 2 18.2091 2 16V8C2 5.79086 3.79086 4 6 4H16.375ZM6.6 6.55C6.35147 6.21863 5.88137 6.15147 5.55 6.4C5.21863 6.64853 5.15147 7.11863 5.4 7.45L8.2 11.1833C9.08512 12.3635 10.1671 13.093 11.3411 13.2855C12.5224 13.4793 13.6827 13.1101 14.6706 12.314C14.9931 12.0541 15.0439 11.5819 14.784 11.2594C14.5241 10.9369 14.0519 10.8861 13.7294 11.146C13.0173 11.7199 12.2776 11.9191 11.5839 11.8053C10.8829 11.6903 10.1149 11.2365 9.4 10.2833L6.6 6.55Z" fill="#363538"/>
</svg>
