<svg width="24" height="24" viewBox="0 0 24 24" fill="none" xmlns="http://www.w3.org/2000/svg">
<path fill-rule="evenodd" clip-rule="evenodd" d="M21.0284 7.68C21.3933 7.31515 22 7.48403 22 8V16C22 18.2091 20.2091 20 18 20H6C3.79086 20 2 18.2091 2 16V8C2 5.79086 3.79086 4 6 4H18C18.4156 4 18.5631 4.48845 18.2692 4.78233L17.9629 5.08864C17.9029 5.14866 17.8061 5.15035 17.7441 5.09245C16.9363 4.33911 15.6707 4.38325 14.9173 5.19106C14.164 5.99886 14.2082 7.26442 15.016 8.01777L16.5398 9.43885C17.3277 10.1737 18.5562 10.1523 19.318 9.3904L21.0284 7.68ZM6.6 6.55C6.35147 6.21863 5.88137 6.15147 5.55 6.4C5.21863 6.64853 5.15147 7.11863 5.4 7.45L8.2 11.1833C9.08512 12.3635 10.1671 13.093 11.3411 13.2855C12.5224 13.4793 13.6827 13.1101 14.6706 12.314C14.9931 12.0541 15.0439 11.5819 14.784 11.2594C14.5241 10.9369 14.0519 10.8861 13.7294 11.146C13.0173 11.7199 12.2776 11.9191 11.5839 11.8053C10.8829 11.6903 10.1149 11.2365 9.4 10.2833L6.6 6.55Z" fill="#363538"/>
<path d="M21.4103 5.53033C21.7032 5.23744 21.7032 4.76256 21.4103 4.46967C21.1174 4.17678 20.6426 4.17678 20.3497 4.46967L17.8856 6.93371L16.8915 6.00661C16.5886 5.72411 16.114 5.74066 15.8315 6.04359C15.549 6.34652 15.5656 6.8211 15.8685 7.10361L17.3923 8.52469C17.6878 8.80025 18.1484 8.79222 18.4341 8.50652L21.4103 5.53033Z" fill="#363538"/>
</svg>
