<svg width="24" height="24" viewBox="0 0 24 24" fill="none" xmlns="http://www.w3.org/2000/svg">
<path fill-rule="evenodd" clip-rule="evenodd" d="M16.1957 4.44304C16.1949 4.4288 16.1944 4.41445 16.1944 4.4V4.1C16.1944 2.82219 17.2069 1.75 18.5 1.75C19.7931 1.75 20.8056 2.82219 20.8056 4.1V4.4C20.8056 4.41445 20.8051 4.4288 20.8043 4.44304C21.4899 4.61007 22 5.24376 22 6V8.4C22 9.28366 21.3036 10 20.4444 10H16.5556C15.6964 10 15 9.28366 15 8.4V6C15 5.24376 15.5101 4.61007 16.1957 4.44304ZM17.6944 4.1C17.6944 3.6105 18.0749 3.25 18.5 3.25C18.9251 3.25 19.3056 3.6105 19.3056 4.1V4.4H17.6944V4.1Z" fill="#363538"/>
<path fill-rule="evenodd" clip-rule="evenodd" d="M14.2831 4C13.9518 4.40578 13.75 4.94454 13.75 5.53571V8.96429C13.75 10.2267 14.6703 11.25 15.8056 11.25H20.9444C21.3304 11.25 21.6915 11.1317 22 10.926V16C22 18.2091 20.2091 20 18 20H6C3.79086 20 2 18.2091 2 16V8C2 5.79086 3.79086 4 6 4H14.2831ZM6.6 6.55C6.35147 6.21863 5.88137 6.15147 5.55 6.4C5.21863 6.64853 5.15147 7.11863 5.4 7.45L8.2 11.1833C8.96681 12.2057 9.88045 12.89 10.8784 13.1805C11.8853 13.4735 12.9128 13.3458 13.8476 12.8568C14.2147 12.6648 14.3566 12.2116 14.1646 11.8446C13.9726 11.4776 13.5194 11.3356 13.1524 11.5276C12.5355 11.8503 11.9062 11.9174 11.2976 11.7402C10.6801 11.5605 10.0196 11.1095 9.4 10.2833L6.6 6.55Z" fill="#363538"/>
</svg>
