<svg width="24" height="24" viewBox="0 0 24 24" fill="none" xmlns="http://www.w3.org/2000/svg">
<path fill-rule="evenodd" clip-rule="evenodd" d="M23 5C23 7.20914 21.2091 9 19 9C16.7909 9 15 7.20914 15 5C15 2.79086 16.7909 1 19 1C21.2091 1 23 2.79086 23 5ZM19 3.25C19.4142 3.25 19.75 3.58579 19.75 4V4.65H20C20.4142 4.65 20.75 4.98579 20.75 5.4C20.75 5.81421 20.4142 6.15 20 6.15H19C18.5858 6.15 18.25 5.81421 18.25 5.4V4C18.25 3.58579 18.5858 3.25 19 3.25Z" fill="#363538"/>
<path fill-rule="evenodd" clip-rule="evenodd" d="M22 9.61053C21.1372 10.1731 20.1068 10.5 19 10.5C15.9624 10.5 13.5 8.03757 13.5 5C13.5 4.6585 13.5311 4.32428 13.5907 4H6C3.79086 4 2 5.79086 2 8V16C2 18.2091 3.79086 20 6 20H18C20.2091 20 22 18.2091 22 16V9.61053ZM5.55 6.4C5.88137 6.15147 6.35147 6.21863 6.6 6.55L9.4 10.2833C10.1149 11.2365 10.8829 11.6903 11.5839 11.8053C12.2776 11.9191 13.0173 11.7199 13.7294 11.146C14.0519 10.8861 14.5241 10.9369 14.784 11.2594C15.0439 11.5819 14.9931 12.0541 14.6706 12.314C13.6827 13.1101 12.5224 13.4793 11.3411 13.2855C10.1671 13.093 9.08512 12.3635 8.2 11.1833L5.4 7.45C5.15147 7.11863 5.21863 6.64853 5.55 6.4Z" fill="#363538"/>
</svg>
