<svg width="24" height="24" viewBox="0 0 24 24" fill="none" xmlns="http://www.w3.org/2000/svg">
<path d="M19.5 4.25C19.5 3.83579 19.1642 3.5 18.75 3.5C18.3358 3.5 18 3.83579 18 4.25V5.5H16.75C16.3358 5.5 16 5.83579 16 6.25C16 6.66421 16.3358 7 16.75 7H18V8.25C18 8.66421 18.3358 9 18.75 9C19.1642 9 19.5 8.66421 19.5 8.25V7H20.75C21.1642 7 21.5 6.66421 21.5 6.25C21.5 5.83579 21.1642 5.5 20.75 5.5H19.5V4.25Z" fill="#363538"/>
<path fill-rule="evenodd" clip-rule="evenodd" d="M6 4H16.7655C16.7553 4.0819 16.75 4.16533 16.75 4.25C15.6454 4.25 14.75 5.14543 14.75 6.25C14.75 7.35457 15.6454 8.25 16.75 8.25C16.75 9.35457 17.6454 10.25 18.75 10.25C19.8546 10.25 20.75 9.35457 20.75 8.25C21.221 8.25 21.654 8.08716 21.9958 7.81471C21.9986 7.87613 22 7.9379 22 8V16C22 18.2091 20.2091 20 18 20H6C3.79086 20 2 18.2091 2 16V8C2 5.79086 3.79086 4 6 4ZM6.6 6.55C6.35147 6.21863 5.88137 6.15147 5.55 6.4C5.21863 6.64853 5.15147 7.11863 5.4 7.45L8.2 11.1833C9.08512 12.3635 10.1671 13.093 11.3411 13.2855C12.5224 13.4793 13.6827 13.1101 14.6706 12.314C14.9931 12.0541 15.0439 11.5819 14.784 11.2594C14.5241 10.9369 14.0519 10.8861 13.7294 11.146C13.0173 11.7199 12.2776 11.9191 11.5839 11.8053C10.8829 11.6903 10.1149 11.2365 9.4 10.2833L6.6 6.55Z" fill="#363538"/>
</svg>
