<svg width="24" height="24" viewBox="0 0 24 24" fill="none" xmlns="http://www.w3.org/2000/svg">
<path fill-rule="evenodd" clip-rule="evenodd" d="M6 4H18C18.286 4 18.2562 4.25 17.9702 4.25H16.75C15.6454 4.25 14.75 5.14543 14.75 6.25C14.75 7.35457 15.6454 8.25 16.75 8.25H20.75C21.1545 8.25 21.531 8.1299 21.8457 7.9234C21.9103 7.88105 22 7.92279 22 8V16C22 18.2091 20.2091 20 18 20H6C3.79086 20 2 18.2091 2 16V8C2 5.79086 3.79086 4 6 4ZM6.6 6.55C6.35147 6.21863 5.88137 6.15147 5.55 6.4C5.21863 6.64853 5.15147 7.11863 5.4 7.45L8.2 11.1833C9.08512 12.3635 10.1671 13.093 11.3411 13.2855C12.5224 13.4793 13.6827 13.1101 14.6706 12.314C14.9931 12.0541 15.0439 11.5819 14.784 11.2594C14.5241 10.9369 14.0519 10.8861 13.7294 11.146C13.0173 11.7199 12.2776 11.9191 11.5839 11.8053C10.8829 11.6903 10.1149 11.2365 9.4 10.2833L6.6 6.55Z" fill="#363538"/>
<path d="M16.75 5.5C16.3358 5.5 16 5.83579 16 6.25C16 6.66421 16.3358 7 16.75 7H20.75C21.1642 7 21.5 6.66421 21.5 6.25C21.5 5.83579 21.1642 5.5 20.75 5.5H16.75Z" fill="#363538"/>
</svg>
