<svg width="24" height="24" viewBox="0 0 24 24" fill="none" xmlns="http://www.w3.org/2000/svg">
<path d="M18.7513 3.62012C19.1118 3.62012 19.4001 3.9195 19.3865 4.27969L19.3195 6.06109C19.308 6.36711 19.0566 6.60925 18.7503 6.60925C18.7313 6.60924 18.7121 6.60829 18.6935 6.60645C18.4133 6.57868 18.1916 6.34758 18.1811 6.06044L18.1161 4.27896C18.1157 4.26888 18.1156 4.25886 18.1157 4.24888C18.1157 4.24319 18.1159 4.23752 18.1161 4.23187" fill="#363538"/>
<path d="M18.75 8.87012C18.5432 8.87012 18.3659 8.79282 18.2182 8.63823C18.0727 8.48364 18 8.29524 18 8.07302C18 8.03825 18.0019 8.00428 18.0056 7.97112C18.0062 7.9654 18.0069 7.95972 18.0077 7.95404C18.0298 7.78698 18.1 7.64065 18.2182 7.51504C18.3659 7.36046 18.5432 7.28316 18.75 7.28316C18.7625 7.28316 18.7753 7.28347 18.7876 7.28407C18.974 7.29312 19.1365 7.37012 19.275 7.51504C19.4011 7.64498 19.4742 7.7971 19.4943 7.9714L19.4945 7.97341C19.4982 8.00585 19.5 8.03905 19.5 8.07302C19.5 8.22036 19.4648 8.35442 19.3943 8.47519C19.3261 8.59596 19.2352 8.69258 19.1216 8.76504C19.0102 8.83509 18.8864 8.87012 18.75 8.87012Z" fill="#363538"/>
<path fill-rule="evenodd" clip-rule="evenodd" d="M17.1257 9.66611C16.7052 9.21921 16.5 8.65748 16.5 8.07302C16.5 7.89384 16.5196 7.71769 16.5584 7.54691C16.6638 7.08426 16.6994 6.58931 16.6821 6.11514L16.6171 4.33367C16.6106 4.15594 16.4743 4 16.2964 4H6C3.79086 4 2 5.79086 2 8V16C2 18.2091 3.79086 20 6 20H18C20.2091 20 22 18.2091 22 16V8C22 7.23893 21.7874 6.5275 21.4185 5.92184C21.2371 5.62413 20.8315 5.76914 20.8184 6.1175C20.8006 6.59261 20.8367 7.08877 20.9422 7.55238C20.9805 7.7209 21 7.89515 21 8.07302C21 8.46766 20.9032 8.86149 20.6954 9.22165C20.5104 9.54613 20.2522 9.82313 19.9281 10.0298L19.9203 10.0348C19.5607 10.261 19.1581 10.3701 18.75 10.3701C18.1182 10.3701 17.5537 10.114 17.1337 9.67455L17.1257 9.66611ZM6.6 6.55C6.35147 6.21863 5.88137 6.15147 5.55 6.4C5.21863 6.64853 5.15147 7.11863 5.4 7.45L8.2 11.1833C9.08512 12.3635 10.1671 13.093 11.3411 13.2855C12.5224 13.4793 13.6827 13.1101 14.6706 12.314C14.9931 12.0541 15.0439 11.5819 14.784 11.2594C14.5241 10.9369 14.0519 10.8861 13.7294 11.146C13.0173 11.7199 12.2776 11.9191 11.5839 11.8053C10.8829 11.6903 10.1149 11.2365 9.4 10.2833L6.6 6.55Z" fill="#363538"/>
<path d="M19.3865 4.27969C19.4001 3.9195 19.1118 3.62012 18.7513 3.62012C18.4073 3.62012 18.1288 3.89371 18.1161 4.23187L18.1157 4.24888C18.1156 4.25886 18.1157 4.26888 18.1161 4.27896L18.1811 6.06044C18.1916 6.34758 18.4133 6.57868 18.6935 6.60645C18.7121 6.60829 18.7313 6.60924 18.7503 6.60925C19.0566 6.60925 19.308 6.36711 19.3195 6.06109L19.3865 4.27969Z" fill="#363538"/>
</svg>
