<svg width="24" height="24" viewBox="0 0 24 24" fill="none" xmlns="http://www.w3.org/2000/svg">
<path fill-rule="evenodd" clip-rule="evenodd" d="M6 4H18C20.2091 4 22 5.79086 22 8V16C22 18.2091 20.2091 20 18 20H6C3.79086 20 2 18.2091 2 16V8C2 5.79086 3.79086 4 6 4ZM6.6 6.55C6.35147 6.21863 5.88137 6.15147 5.55 6.4C5.21863 6.64853 5.15147 7.11863 5.4 7.45L8.2 11.1833C10.1 13.7167 13.9 13.7167 15.8 11.1833L18.6 7.45C18.8485 7.11863 18.7814 6.64853 18.45 6.4C18.1186 6.15147 17.6485 6.21863 17.4 6.55L14.6 10.2833C13.3 12.0167 10.7 12.0167 9.4 10.2833L6.6 6.55Z" fill="#363538"/>
</svg>
