<svg width="24" height="24" viewBox="0 0 24 24" fill="none" xmlns="http://www.w3.org/2000/svg">
<path d="M19.2803 3.21967C19.1397 3.07902 18.9489 3 18.75 3C18.5511 3 18.3603 3.07902 18.2197 3.21967L16.2197 5.21967C15.9268 5.51256 15.9268 5.98744 16.2197 6.28033C16.5126 6.57322 16.9874 6.57322 17.2803 6.28033L18 5.56066V8.75C18 9.16421 18.3358 9.5 18.75 9.5C19.1642 9.5 19.5 9.16421 19.5 8.75V5.56066L20.2197 6.28033C20.5126 6.57322 20.9874 6.57322 21.2803 6.28033C21.5732 5.98744 21.5732 5.51256 21.2803 5.21967L19.2803 3.21967Z" fill="#363538"/>
<path fill-rule="evenodd" clip-rule="evenodd" d="M15.1967 4C15.3719 4 15.4597 4.21187 15.3358 4.33579C14.5547 5.11683 14.5547 6.38316 15.3358 7.16421C15.4741 7.30254 15.6277 7.41636 15.791 7.50569C16.2756 7.77065 16.75 8.19772 16.75 8.75C16.75 9.85457 17.6454 10.75 18.75 10.75C19.8546 10.75 20.75 9.85457 20.75 8.75V8.23436C20.75 7.96686 20.9699 7.75583 21.2297 7.69193C21.2778 7.68008 21.3256 7.66643 21.373 7.65096C21.6544 7.55897 22 7.70389 22 8V16C22 18.2091 20.2091 20 18 20H6C3.79086 20 2 18.2091 2 16V8C2 5.79086 3.79086 4 6 4H15.1967ZM6.6 6.55C6.35147 6.21863 5.88137 6.15147 5.55 6.4C5.21863 6.64853 5.15147 7.11863 5.4 7.45L8.2 11.1833C9.08512 12.3635 10.1671 13.093 11.3411 13.2855C12.5224 13.4793 13.6827 13.1101 14.6706 12.314C14.9931 12.0541 15.0439 11.5819 14.784 11.2594C14.5241 10.9369 14.0519 10.8861 13.7294 11.146C13.0173 11.7199 12.2776 11.9191 11.5839 11.8053C10.8829 11.6903 10.1149 11.2365 9.4 10.2833L6.6 6.55Z" fill="#363538"/>
</svg>
