<svg width="24" height="24" viewBox="0 0 24 24" fill="none" xmlns="http://www.w3.org/2000/svg">
<path fill-rule="evenodd" clip-rule="evenodd" d="M14.8603 2.57073C14.4298 2.81926 14.2823 3.36969 14.5309 3.80015C14.8112 4.28579 14.4608 4.89285 13.9 4.89285C13.4029 4.89285 13 5.29579 13 5.79285V6.69285C13 7.1899 13.4029 7.59285 13.9 7.59285C14.4608 7.59285 14.8113 8.1999 14.5309 8.68554C14.2823 9.116 14.4298 9.66643 14.8603 9.91496L15.6397 10.365C16.0702 10.6135 16.6206 10.466 16.8691 10.0355C17.1495 9.5499 17.8505 9.54989 18.1309 10.0355C18.3794 10.466 18.9298 10.6135 19.3603 10.365L20.1397 9.91496C20.5702 9.66643 20.7177 9.116 20.4691 8.68553C20.1887 8.19989 20.5392 7.59285 21.1 7.59285C21.5971 7.59285 22 7.1899 22 6.69285V5.79285C22 5.29579 21.5971 4.89285 21.1 4.89285C20.5392 4.89285 20.1888 4.28579 20.4691 3.80015C20.7177 3.36969 20.5702 2.81926 20.1397 2.57073L19.3603 2.12073C18.9298 1.8722 18.3794 2.01969 18.1309 2.45015C17.8505 2.9358 17.1495 2.93579 16.8691 2.45015C16.6206 2.01969 16.0702 1.8722 15.6397 2.12073L14.8603 2.57073ZM19.2306 6.24371C19.2306 7.19959 18.4557 7.97448 17.4998 7.97448C16.5439 7.97448 15.769 7.19959 15.769 6.24371C15.769 5.28783 16.5439 4.51294 17.4998 4.51294C18.4557 4.51294 19.2306 5.28783 19.2306 6.24371Z" fill="#363538"/>
<path fill-rule="evenodd" clip-rule="evenodd" d="M13.8634 4.14325C13.8376 4.09618 13.8143 4.04838 13.7935 4H6C3.79086 4 2 5.79086 2 8V16C2 18.2091 3.79086 20 6 20H18C20.2091 20 22 18.2091 22 16V8.07601C21.7507 8.23855 21.4548 8.33552 21.1366 8.34245C21.5669 9.12672 21.2933 10.115 20.5147 10.5645L19.7353 11.0145C18.9567 11.464 17.964 11.2068 17.5 10.442C17.036 11.2069 16.0433 11.464 15.2647 11.0145L14.4853 10.5645C13.7067 10.115 13.4331 9.12672 13.8634 8.34245C12.969 8.32298 12.25 7.59188 12.25 6.69285V5.79285C12.25 4.89381 12.969 4.16272 13.8634 4.14325ZM5.55 6.4C5.88137 6.15147 6.35147 6.21863 6.6 6.55L9.4 10.2833C10.1149 11.2365 10.8829 11.6903 11.5839 11.8053C12.2776 11.9191 13.0173 11.7199 13.7294 11.146C14.0519 10.8861 14.5241 10.9369 14.784 11.2594C15.0439 11.5819 14.9931 12.0541 14.6706 12.314C13.6827 13.1101 12.5224 13.4793 11.3411 13.2855C10.1671 13.093 9.08512 12.3635 8.2 11.1833L5.4 7.45C5.15147 7.11863 5.21863 6.64853 5.55 6.4Z" fill="#363538"/>
</svg>
