<svg width="24" height="24" viewBox="0 0 24 24" fill="none" xmlns="http://www.w3.org/2000/svg">
<path fill-rule="evenodd" clip-rule="evenodd" d="M15.2783 5.55303C15.4697 5.77162 15.6549 5.98316 15.8359 6.16421C15.8833 6.21159 15.8833 6.28841 15.8359 6.33579C15.0549 7.11684 15.0549 8.38317 15.8359 9.16421C16.617 9.94526 17.8833 9.94526 18.6643 9.16421C18.7117 9.11684 18.7885 9.11684 18.8359 9.16421C19.617 9.94526 20.8833 9.94526 21.6643 9.16421C21.7699 9.05864 22 9.12919 22 9.27849V16C22 18.2091 20.2091 20 18 20H6C3.79086 20 2 18.2091 2 16V8C2 5.79086 3.79086 4 6 4H13.056C13.9187 4 14.6335 4.81651 15.2783 5.55303ZM6.6 6.55C6.35147 6.21863 5.88137 6.15147 5.55 6.4C5.21863 6.64853 5.15147 7.11863 5.4 7.45L8.2 11.1833C9.08512 12.3635 10.1671 13.093 11.3411 13.2855C12.5224 13.4793 13.6827 13.1101 14.6706 12.314C14.9931 12.0541 15.0439 11.5819 14.784 11.2594C14.5241 10.9369 14.0519 10.8861 13.7294 11.146C13.0173 11.7199 12.2776 11.9191 11.5839 11.8053C10.8829 11.6903 10.1149 11.2365 9.4 10.2833L6.6 6.55Z" fill="#363538"/>
<path d="M21.5963 6.24665C21.6001 6.25448 21.5901 6.26159 21.584 6.25543C21.581 6.25244 21.581 6.24758 21.584 6.24458C21.5877 6.24087 21.5939 6.24194 21.5963 6.24665Z" fill="#363538"/>
<path d="M17.7804 4.21967C17.4875 3.92678 17.0126 3.92678 16.7197 4.21967C16.4268 4.51256 16.4268 4.98744 16.7197 5.28033L17.6894 6.25L16.7197 7.21967C16.4268 7.51256 16.4268 7.98744 16.7197 8.28033C17.0126 8.57322 17.4875 8.57322 17.7804 8.28033L18.7501 7.31066L19.7197 8.28033C20.0126 8.57322 20.4875 8.57322 20.7804 8.28033C21.0733 7.98744 21.0733 7.51256 20.7804 7.21967L19.8107 6.25L20.7804 5.28033C21.0733 4.98744 21.0733 4.51256 20.7804 4.21967C20.4875 3.92678 20.0126 3.92678 19.7197 4.21967L18.7501 5.18934L17.7804 4.21967Z" fill="#363538"/>
</svg>
