<svg width="24" height="24" viewBox="0 0 24 24" fill="none" xmlns="http://www.w3.org/2000/svg">
<path d="M7.51672 3.11233C7.74452 2.94148 7.9916 2.80656 8.25 2.70828V18.4999C8.25 18.5168 8.25056 18.5336 8.25166 18.5502C7.98194 18.6871 7.73251 18.873 7.51731 19.1061C5.90952 20.8479 3 19.7103 3 17.3399V7.99987C3 7.0556 3.44458 6.16643 4.2 5.59987L7.51672 3.11233Z" fill="#363538"/>
<path d="M10.8388 18.6819C10.5005 18.4645 10.1282 18.3343 9.75 18.2878V2.5437C10.0612 2.58908 10.3679 2.68384 10.6584 2.82905L14.3081 4.65392C14.609 4.80436 14.9281 4.89539 15.25 4.92915V21.2406C14.8659 21.173 14.491 21.0298 14.1483 20.8095L10.8388 18.6819Z" fill="#363538"/>
<path d="M16.75 21.1218C17.0865 21.0056 17.406 20.8282 17.6911 20.5906L20.9206 17.8994C21.6045 17.3294 22 16.4851 22 15.5947V6.24767C22 3.85626 19.1572 2.60573 17.3944 4.22167C17.1982 4.40149 16.9809 4.54869 16.75 4.6622V21.1218Z" fill="#363538"/>
</svg>
