<svg width="24" height="24" viewBox="0 0 24 24" fill="none" xmlns="http://www.w3.org/2000/svg">
<path fill-rule="evenodd" clip-rule="evenodd" d="M12 2C10.77 2 9.59031 2.2224 8.49997 2.62984C4.70447 4.04814 2 7.70729 2 12C2 16.2927 4.70447 19.9519 8.49997 21.3702C9.59031 21.7776 10.77 22 12 22C17.5228 22 22 17.5228 22 12C22 6.47715 17.5228 2 12 2ZM15.525 12C15.525 8.45719 13.6829 5.34591 10.9057 3.56971C11.2638 3.52373 11.629 3.5 12 3.5C16.6944 3.5 20.5 7.30558 20.5 12C20.5 16.6944 16.6944 20.5 12 20.5C11.629 20.5 11.2638 20.4763 10.9057 20.4303C13.6829 18.6541 15.525 15.5428 15.525 12Z" fill="#363538"/>
</svg>
