<svg width="24" height="24" viewBox="0 0 24 24" fill="none" xmlns="http://www.w3.org/2000/svg">
<path d="M17.9854 19.5C17.8731 20.4889 17.041 21.2609 16.0225 21.2725L8.02246 21.3613C6.95583 21.3732 6.07857 20.5483 6.00684 19.5H17.9854Z" fill="#363538"/>
<path fill-rule="evenodd" clip-rule="evenodd" d="M18 18H6V12.5H18V18ZM12 13C11.5858 13 11.25 13.3358 11.25 13.75V14.5H10.5C10.0858 14.5 9.75 14.8358 9.75 15.25C9.75 15.6642 10.0858 16 10.5 16H11.25V16.75C11.25 17.1642 11.5858 17.5 12 17.5C12.4142 17.5 12.75 17.1642 12.75 16.75V16H13.5C13.9142 16 14.25 15.6642 14.25 15.25C14.25 14.8358 13.9142 14.5 13.5 14.5H12.75V13.75C12.75 13.3358 12.4142 13 12 13Z" fill="#363538"/>
<path d="M14.1807 8.25C14.533 8.56006 14.9938 8.75 15.5 8.75H16C17.1045 8.75011 18 9.6455 18 10.75V11H6V10.75C6 9.64543 6.89543 8.75 8 8.75H8.5C9.00623 8.74995 9.46705 8.56014 9.81934 8.25H14.1807Z" fill="#363538"/>
<path d="M14 2.75C14.5522 2.75011 15 3.19778 15 3.75V5.75C15 6.30222 14.5522 6.74989 14 6.75H10C9.44772 6.75 9 6.30228 9 5.75V3.75C9 3.19772 9.44772 2.75 10 2.75H14Z" fill="#363538"/>
</svg>
