<svg width="24" height="24" viewBox="0 0 24 24" fill="none" xmlns="http://www.w3.org/2000/svg">
<path d="M21.75 5C21.75 4.58579 21.4142 4.25 21 4.25H3C2.58579 4.25 2.25 4.58579 2.25 5C2.25 5.41421 2.58579 5.75 3 5.75H21C21.4142 5.75 21.75 5.41421 21.75 5Z" fill="#363538"/>
<path d="M21.75 12C21.75 11.5858 21.4142 11.25 21 11.25H11C10.5858 11.25 10.25 11.5858 10.25 12C10.25 12.4142 10.5858 12.75 11 12.75H21C21.4142 12.75 21.75 12.4142 21.75 12Z" fill="#363538"/>
<path d="M21 18.25C21.4142 18.25 21.75 18.5858 21.75 19C21.75 19.4142 21.4142 19.75 21 19.75H17C16.5858 19.75 16.25 19.4142 16.25 19C16.25 18.5858 16.5858 18.25 17 18.25H21Z" fill="#363538"/>
</svg>
