<svg width="24" height="24" viewBox="0 0 24 24" fill="none" xmlns="http://www.w3.org/2000/svg">
<path d="M14 4H7C4.79086 4 3 5.79086 3 8V12.9888C3 14.6519 4.34815 16 6.01117 16C6.74366 16 7.45061 16.267 8 16.7503V12C8 10.3431 9.34315 9 11 9H18V8C18 5.79086 16.2091 4 14 4Z" fill="#363538"/>
<path fill-rule="evenodd" clip-rule="evenodd" d="M19 10H11C9.89543 10 9 10.8954 9 12V17.1911C9 18.5215 10.0785 19.6 11.4089 19.6C12.004 19.6 12.5781 19.8203 13.0204 20.2184L13.6621 20.7959C14.4227 21.4804 15.5773 21.4804 16.3379 20.7959L16.9796 20.2184C17.4219 19.8203 17.996 19.6 18.5911 19.6C19.9215 19.6 21 18.5215 21 17.1911V12C21 10.8954 20.1046 10 19 10ZM12.75 15.25C12.75 15.6642 12.4142 16 12 16C11.5858 16 11.25 15.6642 11.25 15.25C11.25 14.8358 11.5858 14.5 12 14.5C12.4142 14.5 12.75 14.8358 12.75 15.25ZM15 16C15.4142 16 15.75 15.6642 15.75 15.25C15.75 14.8358 15.4142 14.5 15 14.5C14.5858 14.5 14.25 14.8358 14.25 15.25C14.25 15.6642 14.5858 16 15 16ZM18.75 15.25C18.75 15.6642 18.4142 16 18 16C17.5858 16 17.25 15.6642 17.25 15.25C17.25 14.8358 17.5858 14.5 18 14.5C18.4142 14.5 18.75 14.8358 18.75 15.25Z" fill="#363538"/>
</svg>
