<svg width="24" height="24" viewBox="0 0 24 24" fill="none" xmlns="http://www.w3.org/2000/svg">
<path fill-rule="evenodd" clip-rule="evenodd" d="M17 4H7C4.79086 4 3 5.79086 3 8V14.3656C3 16.3728 4.62719 18 6.63442 18C7.51476 18 8.36518 18.3195 9.0277 18.8992L10.683 20.3476C11.437 21.0074 12.563 21.0074 13.317 20.3476L14.9723 18.8992C15.6348 18.3195 16.4852 18 17.3656 18C19.3728 18 21 16.3728 21 14.3656V8C21 5.79086 19.2091 4 17 4ZM7.25 9C7.25 8.58579 7.58579 8.25 8 8.25H15C15.4142 8.25 15.75 8.58579 15.75 9C15.75 9.41421 15.4142 9.75 15 9.75H8C7.58579 9.75 7.25 9.41421 7.25 9ZM8 12.25C7.58579 12.25 7.25 12.5858 7.25 13C7.25 13.4142 7.58579 13.75 8 13.75H16C16.4142 13.75 16.75 13.4142 16.75 13C16.75 12.5858 16.4142 12.25 16 12.25H8Z" fill="#363538"/>
</svg>
