<svg width="24" height="24" viewBox="0 0 24 24" fill="none" xmlns="http://www.w3.org/2000/svg">
<path fill-rule="evenodd" clip-rule="evenodd" d="M12.8305 2.75C7.90522 2.75 3.91096 6.73812 3.91096 11.6596V11.6976L4.24782 15.0161C4.24558 15.0375 4.24135 15.0699 4.23344 15.1116C4.21378 15.2154 4.17171 15.3752 4.0821 15.5658C3.90722 15.9378 3.53448 16.4639 2.71282 16.9253C2.52067 17.0332 2.31811 17.2207 2.22865 17.5098C2.13933 17.7984 2.19981 18.0686 2.29729 18.2693C2.47496 18.6352 2.83586 18.9126 3.21333 19.1242C4.00696 19.5691 5.35467 19.9859 7.38513 20.2415L8.80694 20.5043L9.43546 20.724C15.4527 22.8275 21.75 18.3671 21.75 11.9965V11.6596C21.75 6.73812 17.7557 2.75 12.8305 2.75ZM8.25 10C8.25 9.58579 8.58579 9.25 9 9.25H16C16.4142 9.25 16.75 9.58579 16.75 10C16.75 10.4142 16.4142 10.75 16 10.75H9C8.58579 10.75 8.25 10.4142 8.25 10ZM8 13.25C7.58579 13.25 7.25 13.5858 7.25 14C7.25 14.4142 7.58579 14.75 8 14.75H16C16.4142 14.75 16.75 14.4142 16.75 14C16.75 13.5858 16.4142 13.25 16 13.25H8Z" fill="#363538"/>
</svg>
