<svg width="24" height="24" viewBox="0 0 24 24" fill="none" xmlns="http://www.w3.org/2000/svg">
<path d="M19.75 3C19.75 2.58579 19.4142 2.25 19 2.25C18.5858 2.25 18.25 2.58579 18.25 3V4.25H17C16.5858 4.25 16.25 4.58579 16.25 5C16.25 5.41421 16.5858 5.75 17 5.75H18.25V7C18.25 7.41421 18.5858 7.75 19 7.75C19.4142 7.75 19.75 7.41421 19.75 7V5.75H21C21.4142 5.75 21.75 5.41421 21.75 5C21.75 4.58579 21.4142 4.25 21 4.25H19.75V3Z" fill="#363538"/>
<path fill-rule="evenodd" clip-rule="evenodd" d="M7 4H15.8819C15.6444 4.26538 15.5 4.61582 15.5 5C15.5 5.82843 16.1716 6.5 17 6.5H17.5V7C17.5 7.82843 18.1716 8.5 19 8.5C19.8284 8.5 20.5 7.82843 20.5 7V6.5H20.7092C20.8967 6.96322 21 7.46955 21 8V14.3656C21 16.3728 19.3728 18 17.3656 18C16.4852 18 15.6348 18.3195 14.9723 18.8992L13.317 20.3476C12.563 21.0074 11.437 21.0074 10.683 20.3476L9.0277 18.8992C8.36518 18.3195 7.51476 18 6.63442 18C4.62719 18 3 16.3728 3 14.3656V8C3 5.79086 4.79086 4 7 4ZM7.25 9C7.25 8.58579 7.58579 8.25 8 8.25H15C15.4142 8.25 15.75 8.58579 15.75 9C15.75 9.41421 15.4142 9.75 15 9.75H8C7.58579 9.75 7.25 9.41421 7.25 9ZM8 12.25C7.58579 12.25 7.25 12.5858 7.25 13C7.25 13.4142 7.58579 13.75 8 13.75H16C16.4142 13.75 16.75 13.4142 16.75 13C16.75 12.5858 16.4142 12.25 16 12.25H8Z" fill="#363538"/>
</svg>
