<svg width="24" height="24" viewBox="0 0 24 24" fill="none" xmlns="http://www.w3.org/2000/svg">
<path fill-rule="evenodd" clip-rule="evenodd" d="M7 4H17C19.2091 4 21 5.79086 21 8V14.3656C21 16.3728 19.3728 18 17.3656 18C16.4852 18 15.6348 18.3195 14.9723 18.8992L13.317 20.3476C12.563 21.0074 11.437 21.0074 10.683 20.3476L9.0277 18.8992C8.36518 18.3195 7.51476 18 6.63442 18C4.62719 18 3 16.3728 3 14.3656V8C3 5.79086 4.79086 4 7 4ZM8 12.5C8.55228 12.5 9 12.0523 9 11.5C9 10.9477 8.55228 10.5 8 10.5C7.44772 10.5 7 10.9477 7 11.5C7 12.0523 7.44772 12.5 8 12.5ZM13 11.5C13 12.0523 12.5523 12.5 12 12.5C11.4477 12.5 11 12.0523 11 11.5C11 10.9477 11.4477 10.5 12 10.5C12.5523 10.5 13 10.9477 13 11.5ZM16 12.5C16.5523 12.5 17 12.0523 17 11.5C17 10.9477 16.5523 10.5 16 10.5C15.4477 10.5 15 10.9477 15 11.5C15 12.0523 15.4477 12.5 16 12.5Z" fill="#363538"/>
</svg>
