<svg width="24" height="24" viewBox="0 0 24 24" fill="none" xmlns="http://www.w3.org/2000/svg">
<path fill-rule="evenodd" clip-rule="evenodd" d="M12.8305 2.75C7.90522 2.75 3.91096 6.73812 3.91096 11.6596V11.6976L4.24782 15.0161C4.24558 15.0375 4.24135 15.0699 4.23344 15.1116C4.21378 15.2154 4.17171 15.3752 4.0821 15.5658C3.90722 15.9378 3.53448 16.4639 2.71282 16.9253C2.52067 17.0332 2.31811 17.2207 2.22865 17.5098C2.13933 17.7984 2.19981 18.0686 2.29729 18.2693C2.47496 18.6352 2.83586 18.9126 3.21333 19.1242C4.00696 19.5691 5.35467 19.9859 7.38513 20.2415L8.80694 20.5043L9.43546 20.724C15.4527 22.8275 21.75 18.3671 21.75 11.9965V11.6596C21.75 6.73812 17.7557 2.75 12.8305 2.75ZM11.8737 10.3355C12.0633 9.86162 12.6756 9.73593 13.0366 10.0969C13.3797 10.44 13.2858 11.0185 12.8518 11.2355L12.5592 11.3818C11.757 11.7829 11.2502 12.6029 11.2502 13.4998C11.2502 13.914 11.586 14.2498 12.0002 14.2498C12.4144 14.2498 12.7502 13.914 12.7502 13.4998C12.7502 13.171 12.936 12.8705 13.23 12.7234L13.5226 12.5772C14.8724 11.9023 15.1643 10.1033 14.0972 9.03619C12.9748 7.9138 11.0705 8.30468 10.481 9.77845L10.3038 10.2213C10.15 10.6059 10.3371 11.0424 10.7217 11.1962C11.1062 11.35 11.5427 11.163 11.6966 10.7784L11.8737 10.3355ZM12.0002 14.75C12.4144 14.75 12.7502 15.0858 12.7502 15.5V15.55C12.7502 15.9642 12.4144 16.3 12.0002 16.3C11.586 16.3 11.2502 15.9642 11.2502 15.55V15.5C11.2502 15.0858 11.586 14.75 12.0002 14.75Z" fill="#363538"/>
</svg>
