<svg width="24" height="24" viewBox="0 0 24 24" fill="none" xmlns="http://www.w3.org/2000/svg">
<path d="M3.91096 11.6596C3.91096 6.73812 7.90522 2.75 12.8305 2.75C17.7557 2.75 21.75 6.73812 21.75 11.6596V11.9965C21.75 12.6197 21.6897 13.2246 21.5754 13.8068C20.7146 10.8825 18.0078 8.75 14.8056 8.75C10.9115 8.75 7.75 11.9037 7.75 15.7998V15.9979C7.75 17.8535 8.43091 19.5015 9.52832 20.7559C9.49736 20.7455 9.46641 20.7348 9.43546 20.724L8.80694 20.5043L7.38513 20.2415C5.35467 19.9859 4.00696 19.5691 3.21333 19.1242C2.83586 18.9126 2.47496 18.6352 2.29729 18.2693C2.19981 18.0686 2.13933 17.7984 2.22865 17.5098C2.31811 17.2207 2.52067 17.0332 2.71282 16.9253C3.53448 16.4639 3.90722 15.9378 4.0821 15.5658C4.17171 15.3752 4.21378 15.2154 4.23344 15.1116C4.24135 15.0699 4.24558 15.0375 4.24782 15.0161L3.91096 11.6976V11.6596Z" fill="#363538"/>
<path fill-rule="evenodd" clip-rule="evenodd" d="M20.3612 15.8377L20.1652 17.7682L20.1661 17.7729C20.1735 17.8118 20.1909 17.8805 20.2312 17.9661C20.3073 18.1281 20.4824 18.3888 20.9084 18.628C21.0717 18.7197 21.2553 18.8859 21.337 19.1498C21.4185 19.4132 21.3613 19.6541 21.2794 19.8227C21.1329 20.1245 20.8523 20.3264 20.6138 20.4601C20.0983 20.749 19.2635 21.0005 18.0562 21.1532L17.2519 21.3019L16.9046 21.4233C13.1648 22.7306 9.25 19.9586 9.25 15.9979V15.7998C9.25 12.7339 11.7382 10.25 14.8056 10.25C17.873 10.25 20.3612 12.7339 20.3612 15.7998V15.8377ZM12.55 17.25C12.9643 17.25 13.3 16.9142 13.3 16.5C13.3 16.0858 12.9643 15.75 12.55 15.75C12.1358 15.75 11.8 16.0858 11.8 16.5C11.8 16.9142 12.1358 17.25 12.55 17.25ZM15.05 17.25C15.4643 17.25 15.8 16.9142 15.8 16.5C15.8 16.0858 15.4643 15.75 15.05 15.75C14.6358 15.75 14.3 16.0858 14.3 16.5C14.3 16.9142 14.6358 17.25 15.05 17.25ZM18.3 16.5C18.3 16.9142 17.9643 17.25 17.55 17.25C17.1358 17.25 16.8 16.9142 16.8 16.5C16.8 16.0858 17.1358 15.75 17.55 15.75C17.9643 15.75 18.3 16.0858 18.3 16.5Z" fill="#363538"/>
</svg>
