<svg width="24" height="24" viewBox="0 0 24 24" fill="none" xmlns="http://www.w3.org/2000/svg">
<path fill-rule="evenodd" clip-rule="evenodd" d="M3.91096 11.6596C3.91096 6.73812 7.90522 2.75 12.8305 2.75C17.7557 2.75 21.75 6.73812 21.75 11.6596V11.9965C21.75 18.3671 15.4527 22.8275 9.43546 20.724L8.80694 20.5043L7.38513 20.2415C5.35467 19.9859 4.00696 19.5691 3.21333 19.1242C2.83586 18.9126 2.47496 18.6352 2.29729 18.2693C2.19981 18.0686 2.13933 17.7984 2.22865 17.5098C2.31811 17.2207 2.52067 17.0332 2.71282 16.9253C3.53448 16.4639 3.90722 15.9378 4.0821 15.5658C4.17171 15.3752 4.21378 15.2154 4.23344 15.1116C4.24135 15.0699 4.24558 15.0375 4.24782 15.0161L3.91096 11.6976V11.6596ZM9.00005 13.5C9.55233 13.5 10.0001 13.0523 10.0001 12.5C10.0001 11.9477 9.55233 11.5 9.00005 11.5C8.44777 11.5 8.00005 11.9477 8.00005 12.5C8.00005 13.0523 8.44777 13.5 9.00005 13.5ZM13 13.5C13.5523 13.5 14 13.0523 14 12.5C14 11.9477 13.5523 11.5 13 11.5C12.4478 11.5 12 11.9477 12 12.5C12 13.0523 12.4478 13.5 13 13.5ZM18 12.5C18 13.0523 17.5523 13.5 17 13.5C16.4478 13.5 16 13.0523 16 12.5C16 11.9477 16.4478 11.5 17 11.5C17.5523 11.5 18 11.9477 18 12.5Z" fill="#363538"/>
</svg>
