<svg width="24" height="24" viewBox="0 0 24 24" fill="none" xmlns="http://www.w3.org/2000/svg">
<path d="M19.5878 12C19.8137 12.0001 19.9951 12.1863 19.9892 12.4121C19.7873 16.3897 16.6805 19.5991 12.748 19.9639C12.7486 19.9759 12.7499 19.9879 12.7499 20V21C12.7499 21.4142 12.4141 21.75 11.9999 21.75C11.5857 21.75 11.2499 21.4142 11.2499 21V20C11.2499 19.9882 11.2504 19.9765 11.2509 19.9648C10.1393 19.8612 9.09381 19.5298 8.16108 19.0186L9.27729 17.9023C10.1055 18.285 11.0276 18.5 11.9999 18.5C15.4773 18.4999 18.3168 15.769 18.4912 12.335C18.496 12.1487 18.6486 12.0002 18.8349 12H19.5878Z" fill="#363538"/>
<path d="M19.4697 3.46973C19.7626 3.17686 20.2373 3.17684 20.5302 3.46973C20.8231 3.76261 20.8231 4.23739 20.5302 4.53027L4.53022 20.5303C4.23733 20.8232 3.76257 20.8231 3.46967 20.5303C3.17678 20.2374 3.17678 19.7626 3.46967 19.4697L5.83881 17.0996C4.77304 15.814 4.10092 14.1902 4.01069 12.4121C4.00481 12.1864 4.18634 12.0002 4.41205 12H4.75971C5.16851 12 5.49595 12.333 5.54194 12.7393C5.68197 13.9762 6.17064 15.1066 6.90522 16.0332L19.4697 3.46973Z" fill="#363538"/>
<path d="M17.9999 12C17.9999 15.3137 15.3136 18 11.9999 18C11.1683 18 10.3763 17.8303 9.65619 17.5244L17.9999 9.18164V12Z" fill="#363538"/>
<path d="M11.9999 2C14.4169 2.00002 16.4987 3.42988 17.4492 5.48926L7.26069 15.6777C6.47118 14.6618 5.99994 13.3862 5.99994 12V8C5.99994 4.68629 8.68623 2 11.9999 2Z" fill="#363538"/>
</svg>
