<svg width="24" height="24" viewBox="0 0 24 24" fill="none" xmlns="http://www.w3.org/2000/svg">
<path d="M6.00012 8C6.00012 4.68629 8.68641 2 12.0001 2C15.3138 2 18.0001 4.68629 18.0001 8V12C18.0001 15.3137 15.3138 18 12.0001 18C8.68641 18 6.00012 15.3137 6.00012 12V8Z" fill="#363538"/>
<path d="M12.7493 19.9654C12.7499 19.9769 12.7501 19.9884 12.7501 20V21C12.7501 21.4142 12.4143 21.75 12.0001 21.75C11.5859 21.75 11.2501 21.4142 11.2501 21V20C11.2501 19.9884 11.2504 19.9769 11.2509 19.9654C7.4306 19.6106 4.38955 16.5696 4.03469 12.7493C3.99638 12.3369 4.33585 12 4.75006 12C5.16428 12 5.49552 12.3372 5.54272 12.7487C5.914 15.9859 8.66344 18.5 12.0001 18.5C15.3367 18.5 18.0861 15.9859 18.4574 12.7487C18.5046 12.3372 18.8359 12 19.2501 12C19.6643 12 20.0037 12.3369 19.9654 12.7493C19.6106 16.5695 16.5696 19.6105 12.7493 19.9654Z" fill="#363538"/>
</svg>
