<svg width="24" height="24" viewBox="0 0 24 24" fill="none" xmlns="http://www.w3.org/2000/svg">
<path d="M13 8.5H7C6.72386 8.5 6.5 8.72386 6.5 9V15C6.5 15.2761 6.72386 15.5 7 15.5H13C13.2761 15.5 13.5 15.2761 13.5 15V9C13.5 8.72386 13.2761 8.5 13 8.5Z" fill="#363538"/>
<path fill-rule="evenodd" clip-rule="evenodd" d="M2 8C2 5.79086 3.79086 4 6 4H18C20.2091 4 22 5.79086 22 8V16C22 18.2091 20.2091 20 18 20H6C3.79086 20 2 18.2091 2 16V8ZM7 7C5.89543 7 5 7.89543 5 9V15C5 16.1046 5.89543 17 7 17H13C14.1046 17 15 16.1046 15 15V9C15 7.89543 14.1046 7 13 7H7ZM16.8701 8.5C16.8701 9.05228 17.3178 9.5 17.8701 9.5C18.4224 9.5 18.8701 9.05228 18.8701 8.5C18.8701 7.94772 18.4224 7.5 17.8701 7.5C17.3178 7.5 16.8701 7.94772 16.8701 8.5ZM16.8701 12C16.8701 12.5523 17.3178 13 17.8701 13C18.4224 13 18.8701 12.5523 18.8701 12C18.8701 11.4477 18.4224 11 17.8701 11C17.3178 11 16.8701 11.4477 16.8701 12ZM17.8701 16.5C17.3178 16.5 16.8701 16.0523 16.8701 15.5C16.8701 14.9477 17.3178 14.5 17.8701 14.5C18.4224 14.5 18.8701 14.9477 18.8701 15.5C18.8701 16.0523 18.4224 16.5 17.8701 16.5Z" fill="#363538"/>
</svg>
