<svg width="24" height="24" viewBox="0 0 24 24" fill="none" xmlns="http://www.w3.org/2000/svg">
<path fill-rule="evenodd" clip-rule="evenodd" d="M6 8C6 4.68629 8.68629 2 12 2C15.3137 2 18 4.68629 18 8V12C18 15.3137 15.3137 18 12 18C8.68629 18 6 15.3137 6 12V8ZM9.25 8C9.25 7.58579 9.58579 7.25 10 7.25H14C14.4142 7.25 14.75 7.58579 14.75 8C14.75 8.41421 14.4142 8.75 14 8.75H10C9.58579 8.75 9.25 8.41421 9.25 8ZM9.25 11C9.25 10.5858 9.58579 10.25 10 10.25H14C14.4142 10.25 14.75 10.5858 14.75 11C14.75 11.4142 14.4142 11.75 14 11.75H10C9.58579 11.75 9.25 11.4142 9.25 11Z" fill="#363538"/>
<path d="M4.75006 12C4.33585 12 3.99638 12.3369 4.03469 12.7493C4.38955 16.5695 7.43054 19.6105 11.2508 19.9654C11.2503 19.9769 11.25 19.9884 11.25 20V21C11.25 21.4142 11.5858 21.75 12 21.75C12.4142 21.75 12.75 21.4142 12.75 21V20C12.75 19.9884 12.7497 19.9769 12.7492 19.9654C16.5695 19.6106 19.6106 16.5696 19.9654 12.7493C20.0037 12.3369 19.6643 12 19.2501 12C18.8359 12 18.5046 12.3372 18.4574 12.7487C18.0861 15.9859 15.3367 18.5 12.0001 18.5C8.66344 18.5 5.914 15.9859 5.54272 12.7487C5.49552 12.3372 5.16428 12 4.75006 12Z" fill="#363538"/>
</svg>
