<svg width="24" height="24" viewBox="0 0 24 24" fill="none" xmlns="http://www.w3.org/2000/svg">
<path d="M19.25 12C19.6641 12 20.0039 12.3367 19.9658 12.749C19.611 16.5693 16.5693 19.611 12.749 19.9658C12.7495 19.9772 12.75 19.9885 12.75 20V21C12.75 21.4142 12.4142 21.75 12 21.75C11.5859 21.7499 11.25 21.4142 11.25 21V20C11.25 19.9885 11.2505 19.9771 11.251 19.9658C7.43068 19.611 4.39002 16.5693 4.03516 12.749C3.997 12.3367 4.33591 12 4.75001 12C5.16422 12 5.49578 12.3375 5.54298 12.749C5.91439 15.986 8.66352 18.5 12 18.5C15.3365 18.5 18.0856 15.9861 18.457 12.749C18.5042 12.3375 18.8358 12 19.25 12Z" fill="#363538"/>
<path d="M11.5 5.25C11.7811 5.25 12.0385 5.40722 12.167 5.65723L12.5654 6.43359L13.3428 6.83301C13.5928 6.96149 13.75 7.21891 13.75 7.5C13.75 7.78109 13.5928 8.03851 13.3428 8.16699L12.5654 8.56543L12.167 9.34277C12.0385 9.59278 11.7811 9.75 11.5 9.75C11.2189 9.75 10.9615 9.59278 10.833 9.34277L10.4336 8.56543L9.65723 8.16699C9.40723 8.03851 9.25001 7.78109 9.25001 7.5C9.25001 7.21891 9.40723 6.96149 9.65723 6.83301L10.4336 6.43359L10.833 5.65723L10.8867 5.56836C11.0259 5.37055 11.2539 5.25 11.5 5.25Z" fill="#363538"/>
<path fill-rule="evenodd" clip-rule="evenodd" d="M12 2C12.6883 2 13.3491 2.11769 13.9649 2.33105L13.3145 2.66602C12.8145 2.92298 12.5 3.43782 12.5 4C12.5 4.56218 12.8145 5.07702 13.3145 5.33398L14.207 5.79199L14.666 6.68555C14.923 7.18556 15.4378 7.49999 16 7.5C16.5622 7.5 17.077 7.18556 17.334 6.68555L17.668 6.03223C17.882 6.64883 18 7.31052 18 8V12C18 15.3137 15.3137 18 12 18C8.68636 17.9999 6.00001 15.3137 6.00001 12V8C6.00001 4.68634 8.68636 2.00008 12 2ZM11.5 4.5C11.008 4.50001 10.5518 4.74051 10.2734 5.13574L10.166 5.31445L9.87696 5.87695L9.31446 6.16602C8.81445 6.42298 8.50001 6.93782 8.50001 7.5C8.50001 8.06218 8.81445 8.57702 9.31446 8.83398L9.87696 9.12305L10.166 9.68555C10.423 10.1856 10.9378 10.5 11.5 10.5C12.0622 10.5 12.577 10.1856 12.834 9.68555L13.1231 9.12305L13.6856 8.83398C14.1856 8.57702 14.5 8.06219 14.5 7.5C14.5 6.93781 14.1856 6.42298 13.6856 6.16602L13.1231 5.87695L12.834 5.31445C12.577 4.81444 12.0622 4.5 11.5 4.5Z" fill="#363538"/>
<path d="M16 1.25C16.2811 1.25 16.5385 1.40722 16.667 1.65723L17.2354 2.76367L18.3428 3.33301C18.5928 3.46149 18.75 3.71891 18.75 4C18.75 4.28109 18.5928 4.53851 18.3428 4.66699L17.2354 5.23535L16.667 6.34277C16.5385 6.59278 16.2811 6.75 16 6.75C15.7189 6.75 15.4615 6.59278 15.333 6.34277L14.7637 5.23535L13.6572 4.66699C13.4072 4.53851 13.25 4.28109 13.25 4C13.25 3.71891 13.4072 3.46149 13.6572 3.33301L14.7637 2.76367L15.333 1.65723L15.3867 1.56836C15.5259 1.37055 15.7539 1.25 16 1.25Z" fill="#363538"/>
</svg>
