<svg width="24" height="24" viewBox="0 0 24 24" fill="none" xmlns="http://www.w3.org/2000/svg">
<path d="M3.17791 11.5717C3.9868 9.11236 5.56166 7.21024 7.20299 5.82764C8.75507 4.52022 10.3978 3.65038 11.5926 3.19349C9.24251 1.43234 5.89442 1.6203 3.75736 3.75736C1.62662 5.8881 1.43347 9.2227 3.17791 11.5717Z" fill="#363538"/>
<path d="M17.1924 20.0208L9.78835 14.341L9.83217 14.2681L9.83437 14.2644L9.84249 14.251L9.87576 14.1967C9.90523 14.1488 9.94881 14.0786 10.0042 13.9912C10.115 13.8161 10.2723 13.5732 10.4573 13.3025C10.835 12.7503 11.3008 12.1237 11.7123 11.7123C12.1237 11.3008 12.7503 10.835 13.3025 10.4573C13.5732 10.2723 13.8161 10.115 13.9912 10.0042C14.0786 9.94881 14.1488 9.90523 14.1967 9.87576L14.251 9.84249L14.2644 9.83437L14.2674 9.83254L14.341 9.78835L20.0208 17.1924L19.1741 18.0391L19.2909 18.2992C19.3463 18.4225 19.4049 18.4817 19.445 18.5115C19.4854 18.5415 19.5323 18.5603 19.5913 18.5673C19.724 18.583 19.9085 18.5342 20.0601 18.4184C20.2491 18.2743 20.3424 18.0751 20.2592 17.6139C20.1694 17.1155 19.899 16.5113 19.5549 15.8058C19.5136 15.7211 19.4711 15.6347 19.4279 15.5469C19.1361 14.9538 18.8142 14.2995 18.6357 13.7089C18.4385 13.0562 18.3158 12.1531 18.9846 11.4843C19.2775 11.1914 19.7523 11.1914 20.0452 11.4843C20.3381 11.7772 20.3381 12.2521 20.0452 12.545C20.0069 12.5833 19.9037 12.7195 20.0716 13.2751C20.2115 13.738 20.4707 14.2663 20.77 14.8764C20.8136 14.9653 20.8581 15.0559 20.9031 15.1482C21.2339 15.8266 21.6029 16.6126 21.7354 17.3477C21.8747 18.12 21.7736 18.9977 20.9701 19.6109C20.5595 19.9242 19.9938 20.1254 19.4149 20.0569C18.8706 19.9924 18.3751 19.6944 18.0521 19.1611L17.1924 20.0208Z" fill="#363538"/>
<path d="M12.4784 4.4693L12.7782 4.37C13.645 5.50789 14.0505 6.88467 13.995 8.24614L13.4944 8.5471L13.4884 8.5507L13.4717 8.56081L13.4104 8.59837C13.3577 8.63081 13.2821 8.67775 13.1888 8.73682C13.0025 8.85479 12.7443 9.02192 12.4558 9.21915C11.8899 9.60612 11.1667 10.1365 10.6516 10.6516C10.1365 11.1667 9.60612 11.8899 9.21915 12.4558C9.02192 12.7443 8.85479 13.0025 8.73682 13.1888C8.67775 13.2821 8.63081 13.3577 8.59837 13.4104L8.56081 13.4717L8.5507 13.4884L8.54792 13.493L8.54667 13.4951L8.24614 13.995C6.8899 14.0503 5.51846 13.6481 4.38311 12.7882L4.47939 12.4454C5.13052 10.1269 6.58288 8.31127 8.16937 6.97486C9.75945 5.63543 11.4447 4.81159 12.4784 4.4693Z" fill="#363538"/>
</svg>
