<svg width="24" height="24" viewBox="0 0 24 24" fill="none" xmlns="http://www.w3.org/2000/svg">
<path d="M2 9.09322V7C2 4.79086 3.79086 3 6 3H18C20.2091 3 22 4.79086 22 7V17C22 19.2091 20.2091 21 18 21H13.6843C12.9253 21 12.3988 20.1631 12.6083 19.4336C13.1456 17.5624 13.4455 14.3859 10.5 12C7.80387 9.81614 5.25086 9.86786 3.65949 10.2465C2.90003 10.4272 2 9.87387 2 9.09322Z" fill="#363538"/>
<path d="M2.74363 14.9408C2.92241 15.3127 3.36777 15.4701 3.74021 15.2939L3.74751 15.2906C3.75648 15.2867 3.77312 15.2796 3.79684 15.2702C3.84439 15.2513 3.91952 15.2238 4.01737 15.1947C4.21447 15.1362 4.49524 15.0742 4.82335 15.0615C5.46455 15.0367 6.29613 15.1961 7.08553 15.9855C7.87493 16.7749 8.03435 17.6064 8.00948 18.2477C7.99676 18.5758 7.93478 18.8565 7.87627 19.0536C7.84723 19.1515 7.81966 19.2266 7.80084 19.2742C7.79145 19.2979 7.78432 19.3145 7.78037 19.3235L7.77711 19.3308C7.60091 19.7032 7.75828 20.1486 8.13016 20.3274C8.50347 20.5068 8.95159 20.3497 9.13106 19.9764L9.13176 19.9749L9.13256 19.9732L9.13445 19.9692L9.13937 19.9587C9.14313 19.9505 9.14785 19.9401 9.15339 19.9275C9.16447 19.9023 9.17887 19.8684 9.19552 19.8263C9.22876 19.7423 9.27127 19.6253 9.31426 19.4805C9.39983 19.1922 9.48975 18.7856 9.50836 18.3058C9.54615 17.3311 9.28594 16.0646 8.14619 14.9248C7.00643 13.7851 5.73986 13.5249 4.76522 13.5626C4.28541 13.5813 3.87882 13.6712 3.59054 13.7567C3.44571 13.7997 3.32865 13.8422 3.24469 13.8755C3.20264 13.8921 3.1687 13.9065 3.14351 13.9176C3.13092 13.9232 3.12049 13.9279 3.11232 13.9316L3.10176 13.9366L3.09776 13.9384L3.09608 13.9392L3.10176 13.9366L3.09462 13.9399C2.72131 14.1194 2.56416 14.5675 2.74363 14.9408Z" fill="#363538"/>
<path fill-rule="evenodd" clip-rule="evenodd" d="M5.50831 18.5837L5.50958 18.5806C5.51279 18.5725 5.51934 18.555 5.52679 18.5299C5.54209 18.4783 5.55852 18.4037 5.56185 18.3178C5.56793 18.1611 5.53434 17.9587 5.3234 17.7478C5.11247 17.5368 4.91003 17.5032 4.75334 17.5093C4.66749 17.5126 4.59283 17.5291 4.54128 17.5444C4.51619 17.5518 4.49812 17.5584 4.49 17.5616L4.48743 17.5629C4.11647 17.7337 3.67568 17.5759 3.49805 17.2064C3.31858 16.8331 3.47573 16.385 3.84904 16.2055L3.85044 16.2049L3.85193 16.2042L3.85519 16.2026L3.86281 16.1991L3.88238 16.1903C3.89732 16.1837 3.9161 16.1758 3.93843 16.1669C3.98296 16.1493 4.04239 16.1278 4.11445 16.1064C4.25718 16.064 4.45766 16.0197 4.69522 16.0104C5.18534 15.9914 5.82277 16.1258 6.38406 16.6871C6.94535 17.2484 7.07973 17.8858 7.06073 18.3759C7.05151 18.6135 7.00714 18.814 6.96478 18.9567C6.94339 19.0288 6.92189 19.0882 6.90426 19.1327C6.89542 19.1551 6.88747 19.1738 6.8809 19.1888L6.8721 19.2084L6.86855 19.216L6.86701 19.2192L6.8663 19.2207L6.86563 19.2221C6.68616 19.5954 6.23804 19.7526 5.86472 19.5731C5.49524 19.3955 5.33751 18.9547 5.50831 18.5837ZM4.49 17.5616L4.48743 17.5629L4.48638 17.5633L4.49 17.5616Z" fill="#363538"/>
<path fill-rule="evenodd" clip-rule="evenodd" d="M3.32432 13.194L3.32227 13.195C2.9495 13.3724 2.50309 13.2151 2.32405 12.8427C2.14459 12.4694 2.30173 12.0213 2.67504 11.8418L2.67656 11.8411L2.67839 11.8402L2.68301 11.838L2.69602 11.832C2.70637 11.8272 2.72004 11.821 2.7369 11.8136C2.77062 11.7988 2.81721 11.779 2.8757 11.7558C2.99255 11.7096 3.15766 11.6495 3.36316 11.5885C3.77277 11.467 4.3512 11.3391 5.033 11.3126C6.4116 11.2592 8.2027 11.6243 9.82475 13.2463C11.4468 14.8684 11.8119 16.6595 11.7584 18.0381C11.732 18.7199 11.6041 19.2983 11.4825 19.7079C11.4215 19.9134 11.3615 20.0785 11.3152 20.1954C11.2921 20.2539 11.2723 20.3004 11.2575 20.3342C11.25 20.351 11.2439 20.3647 11.2391 20.375L11.233 20.3881L11.2308 20.3927L11.23 20.3945L11.233 20.3881L11.2293 20.396C11.0498 20.7693 10.6017 20.9265 10.2283 20.747C9.85593 20.568 9.69864 20.1216 9.87608 19.7488L9.87672 19.7474L9.88445 19.7302C9.89215 19.7127 9.90466 19.6834 9.92056 19.6432C9.9524 19.5628 9.99748 19.4396 10.0445 19.2811C10.1391 18.9626 10.239 18.51 10.2596 17.9799C10.3001 16.9348 10.0358 15.5787 8.76409 14.307C7.4924 13.0353 6.13629 12.771 5.09112 12.8115C4.56103 12.8321 4.10843 12.932 3.78999 13.0265C3.63146 13.0736 3.50828 13.1187 3.42785 13.1505C3.3877 13.1664 3.3584 13.1789 3.34089 13.1866L3.32432 13.194Z" fill="#363538"/>
</svg>
