<svg width="24" height="24" viewBox="0 0 24 24" fill="none" xmlns="http://www.w3.org/2000/svg">
<path fill-rule="evenodd" clip-rule="evenodd" d="M12 2C16.931 2 20.75 6.58306 20.75 12C20.75 17.4169 16.931 22 12 22C7.069 22 3.25 17.4169 3.25 12C3.25 6.58306 7.069 2 12 2ZM13.1201 7.96973C12.8273 7.67691 12.3525 7.67708 12.0596 7.96973L8.55957 11.4697C8.26668 11.7626 8.26668 12.2374 8.55957 12.5303C8.85248 12.8229 9.32731 12.8231 9.62012 12.5303L13.1201 9.03027C13.4127 8.73744 13.4127 8.26256 13.1201 7.96973ZM10.1201 7.46973C9.82729 7.1769 9.35248 7.17703 9.05957 7.46973L7.96973 8.55957C7.67703 8.85248 7.6769 9.32729 7.96973 9.62012C8.26257 9.91275 8.73743 9.91275 9.03027 9.62012L10.1201 8.53027C10.4127 8.23743 10.4127 7.76257 10.1201 7.46973Z" fill="#363538"/>
</svg>
