<svg width="24" height="24" viewBox="0 0 24 24" fill="none" xmlns="http://www.w3.org/2000/svg">
<path d="M2.0702 7.25C2.37517 5.64229 3.64229 4.37517 5.25 4.0702V6C5.25 6.69036 4.69036 7.25 4 7.25H2.0702Z" fill="#363538"/>
<path d="M13.5 12C13.5 12.8284 12.8284 13.5 12 13.5C11.1716 13.5 10.5 12.8284 10.5 12C10.5 11.1716 11.1716 10.5 12 10.5C12.8284 10.5 13.5 11.1716 13.5 12Z" fill="#363538"/>
<path fill-rule="evenodd" clip-rule="evenodd" d="M2 15.25V8.75H4C5.51878 8.75 6.75 7.51878 6.75 6V4H17.25V5.5C17.25 7.01878 18.4812 8.25 20 8.25H22V15.25H20C18.4812 15.25 17.25 16.4812 17.25 18V20H6.75V18C6.75 16.4812 5.51878 15.25 4 15.25H2ZM15 12C15 13.6569 13.6569 15 12 15C10.3431 15 9 13.6569 9 12C9 10.3431 10.3431 9 12 9C13.6569 9 15 10.3431 15 12Z" fill="#363538"/>
<path d="M5.25 19.9298V18C5.25 17.3096 4.69036 16.75 4 16.75H2.0702C2.37517 18.3577 3.64229 19.6248 5.25 19.9298Z" fill="#363538"/>
<path d="M21.9298 16.75C21.6248 18.3577 20.3577 19.6248 18.75 19.9298V18C18.75 17.3096 19.3096 16.75 20 16.75H21.9298Z" fill="#363538"/>
<path d="M21.8008 6.75H20C19.3096 6.75 18.75 6.19036 18.75 5.5V4.0702C20.187 4.34278 21.3518 5.38398 21.8008 6.75Z" fill="#363538"/>
</svg>
