<svg width="24" height="24" viewBox="0 0 24 24" fill="none" xmlns="http://www.w3.org/2000/svg">
<path d="M12 13.5C12.8284 13.5 13.5 12.8284 13.5 12C13.5 11.1716 12.8284 10.5 12 10.5C11.1716 10.5 10.5 11.1716 10.5 12C10.5 12.8284 11.1716 13.5 12 13.5Z" fill="#363538"/>
<path fill-rule="evenodd" clip-rule="evenodd" d="M6 4H6.25V7C6.25 7.41421 6.58579 7.75 7 7.75C7.41421 7.75 7.75 7.41421 7.75 7V4H18C20.2091 4 22 5.79086 22 8V16C22 18.2091 20.2091 20 18 20H7.75V17C7.75 16.5858 7.41421 16.25 7 16.25C6.58579 16.25 6.25 16.5858 6.25 17V20H6C3.79086 20 2 18.2091 2 16V8C2 5.79086 3.79086 4 6 4ZM18.75 7C18.75 7.41421 18.4142 7.75 18 7.75H17C16.5858 7.75 16.25 7.41421 16.25 7C16.25 6.58579 16.5858 6.25 17 6.25H18C18.4142 6.25 18.75 6.58579 18.75 7ZM18 17.75C18.4142 17.75 18.75 17.4142 18.75 17C18.75 16.5858 18.4142 16.25 18 16.25H17C16.5858 16.25 16.25 16.5858 16.25 17C16.25 17.4142 16.5858 17.75 17 17.75H18ZM12 15C13.6569 15 15 13.6569 15 12C15 10.3431 13.6569 9 12 9C10.3431 9 9 10.3431 9 12C9 13.6569 10.3431 15 12 15ZM7.75 10C7.75 9.58579 7.41421 9.25 7 9.25C6.58579 9.25 6.25 9.58579 6.25 10V14C6.25 14.4142 6.58579 14.75 7 14.75C7.41421 14.75 7.75 14.4142 7.75 14V10Z" fill="#363538"/>
</svg>
