<svg width="24" height="24" viewBox="0 0 24 24" fill="none" xmlns="http://www.w3.org/2000/svg">
<path d="M4.8499 2.50369C3.34595 2.5778 2.13324 3.7594 2.01027 5.25H3.5999C4.29026 5.25 4.8499 4.69036 4.8499 4V2.50369Z" fill="#363538"/>
<path d="M2 6.75V12.25H2.5V9.42857C2.5 8.34213 2.9913 7.37371 3.75784 6.74554C3.70557 6.7485 3.65291 6.75 3.5999 6.75H2Z" fill="#363538"/>
<path d="M2.5 15.1589V13.75H2.01027C2.05301 14.2681 2.22744 14.749 2.5 15.1589Z" fill="#363538"/>
<path d="M5.83333 6H16.5126C15.9815 5.49862 15.6501 4.78801 15.6501 4V2.5H6.3499V4C6.3499 4.7989 6.00923 5.51824 5.46524 6.02067C5.58611 6.00701 5.70893 6 5.83333 6Z" fill="#363538"/>
<path d="M19.9897 5.25C19.8668 3.7594 18.654 2.5778 17.1501 2.50369V4C17.1501 4.69036 17.7097 5.25 18.4001 5.25H19.9897Z" fill="#363538"/>
<path d="M6.75005 7.51026C5.29258 7.63048 4.13051 8.79253 4.01027 10.25H5.50005C6.1904 10.25 6.75005 9.69036 6.75005 9V7.51026Z" fill="#363538"/>
<path d="M13 15.625C13.7029 15.625 14.2 15.0818 14.2 14.5C14.2 13.9182 13.7029 13.375 13 13.375C12.2972 13.375 11.8 13.9182 11.8 14.5C11.8 15.0818 12.2972 15.625 13 15.625Z" fill="#363538"/>
<path fill-rule="evenodd" clip-rule="evenodd" d="M4 11.75V17.25H5.5999C7.11869 17.25 8.3499 18.4812 8.3499 20V21.5H17.6501V20C17.6501 18.4812 18.8813 17.25 20.4001 17.25H22V11.75H20.4001C18.8813 11.75 17.6501 10.5188 17.6501 9V7.5H8.25005V9C8.25005 10.5188 7.01883 11.75 5.50005 11.75H4ZM13 17.125C14.4912 17.125 15.7 15.9497 15.7 14.5C15.7 13.0503 14.4912 11.875 13 11.875C11.5089 11.875 10.3 13.0503 10.3 14.5C10.3 15.9497 11.5089 17.125 13 17.125Z" fill="#363538"/>
<path d="M6.8499 21.4963C5.34595 21.4222 4.13324 20.2406 4.01027 18.75H5.5999C6.29026 18.75 6.8499 19.3096 6.8499 20V21.4963Z" fill="#363538"/>
<path d="M19.1501 21.4963C20.654 21.4222 21.8668 20.2406 21.9897 18.75H20.4001C19.7097 18.75 19.1501 19.3096 19.1501 20V21.4963Z" fill="#363538"/>
<path d="M21.9897 10.25C21.8668 8.7594 20.654 7.5778 19.1501 7.50369V9C19.1501 9.69036 19.7097 10.25 20.4001 10.25H21.9897Z" fill="#363538"/>
</svg>
