<svg width="24" height="24" viewBox="0 0 24 24" fill="none" xmlns="http://www.w3.org/2000/svg">
<path d="M20.3501 4.41449C20.8069 4.77287 20.3807 5.5 19.8 5.5C16.4863 5.5 13.8 8.18629 13.8 11.5C13.8 14.8137 16.4863 17.5 19.8 17.5C20.3807 17.5 20.8069 18.2271 20.3501 18.5855C18.9851 19.6562 17.303 20.341 15.468 20.4756C17.0831 18.5234 16.1272 15.0546 13.2386 15.0546C12.6807 9.94746 7.91726 9.80083 5.84928 12.447C5.81673 12.1358 5.80005 11.8198 5.80005 11.5C5.80005 6.52944 9.82949 2.5 14.8 2.5C16.894 2.5 18.821 3.21513 20.3501 4.41449Z" fill="#363538"/>
<path d="M12.1231 21H6.53374C3.90339 21 2.91705 17.9186 5.54738 16.8914C4.23224 11.7558 11.7943 9.70147 12.4519 15.5219C15.7398 15.5219 16.0686 20.6576 12.1231 21Z" fill="#363538"/>
</svg>
