<svg width="24" height="24" viewBox="0 0 24 24" fill="none" xmlns="http://www.w3.org/2000/svg">
<path d="M13.1119 4.29803C13.6148 4.00769 13.6203 3.16486 13.0455 3.08294C11.1216 2.80879 9.09523 3.15295 7.28178 4.19995C2.97714 6.68523 1.50227 12.1895 3.98755 16.4942C6.47283 20.7988 11.9771 22.2737 16.2818 19.7884C18.0952 18.7414 19.4065 17.1586 20.131 15.3554C20.3475 14.8166 19.6148 14.4 19.1119 14.6903C16.2421 16.3472 12.5726 15.3639 10.9158 12.4942C9.2589 9.62442 10.2421 5.95488 13.1119 4.29803Z" fill="#363538"/>
<path d="M18.9788 4.68146C18.6426 3.77285 17.3574 3.77285 17.0212 4.68146L16.5558 5.93921C16.4501 6.22488 16.2249 6.45011 15.9392 6.55581L14.6815 7.02122C13.7728 7.35744 13.7728 8.64256 14.6815 8.97878L15.9392 9.44419C16.2249 9.54989 16.4501 9.77512 16.5558 10.0608L17.0212 11.3185C17.3574 12.2272 18.6426 12.2272 18.9788 11.3185L19.4442 10.0608C19.5499 9.77512 19.7751 9.54989 20.0608 9.44419L21.3185 8.97878C22.2272 8.64256 22.2272 7.35744 21.3185 7.02122L20.0608 6.55581C19.7751 6.45011 19.5499 6.22488 19.4442 5.93921L18.9788 4.68146Z" fill="#363538"/>
</svg>
