<svg width="24" height="24" viewBox="0 0 24 24" fill="none" xmlns="http://www.w3.org/2000/svg">
<path d="M15.5303 2.46967C15.2374 2.17678 14.7626 2.17678 14.4697 2.46967C14.1768 2.76256 14.1768 3.23744 14.4697 3.53033L14.9393 4L14.4697 4.46967C14.1768 4.76256 14.1768 5.23744 14.4697 5.53033C14.7626 5.82322 15.2374 5.82322 15.5303 5.53033L16 5.06066L16.4697 5.53033C16.7626 5.82322 17.2374 5.82322 17.5303 5.53033C17.8232 5.23744 17.8232 4.76256 17.5303 4.46967L17.0607 4L17.5303 3.53033C17.8232 3.23744 17.8232 2.76256 17.5303 2.46967C17.2374 2.17678 16.7626 2.17678 16.4697 2.46967L16 2.93934L15.5303 2.46967Z" fill="#363538"/>
<path d="M13.1119 4.29803C13.6148 4.00769 13.6203 3.16486 13.0455 3.08294C11.1216 2.80879 9.09523 3.15295 7.28178 4.19995C2.97714 6.68523 1.50227 12.1895 3.98755 16.4942C6.47283 20.7988 11.9771 22.2737 16.2818 19.7884C18.0952 18.7414 19.4065 17.1586 20.131 15.3554C20.3475 14.8166 19.6148 14.4 19.1119 14.6903C16.2421 16.3472 12.5726 15.3639 10.9158 12.4942C9.2589 9.62442 10.2421 5.95488 13.1119 4.29803Z" fill="#363538"/>
<path d="M14.4697 8.46967C14.7626 8.17678 15.2374 8.17678 15.5303 8.46967L16 8.93934L16.4697 8.46967C16.7626 8.17678 17.2374 8.17678 17.5303 8.46967C17.8232 8.76256 17.8232 9.23744 17.5303 9.53033L17.0607 10L17.5303 10.4697C17.8232 10.7626 17.8232 11.2374 17.5303 11.5303C17.2374 11.8232 16.7626 11.8232 16.4697 11.5303L16 11.0607L15.5303 11.5303C15.2374 11.8232 14.7626 11.8232 14.4697 11.5303C14.1768 11.2374 14.1768 10.7626 14.4697 10.4697L14.9393 10L14.4697 9.53033C14.1768 9.23744 14.1768 8.76256 14.4697 8.46967Z" fill="#363538"/>
<path d="M20.5303 6.46967C20.2374 6.17678 19.7626 6.17678 19.4697 6.46967C19.1768 6.76256 19.1768 7.23744 19.4697 7.53033L19.9393 8L19.4697 8.46967C19.1768 8.76256 19.1768 9.23744 19.4697 9.53033C19.7626 9.82322 20.2374 9.82322 20.5303 9.53033L21 9.06066L21.4697 9.53033C21.7626 9.82322 22.2374 9.82322 22.5303 9.53033C22.8232 9.23744 22.8232 8.76256 22.5303 8.46967L22.0607 8L22.5303 7.53033C22.8232 7.23744 22.8232 6.76256 22.5303 6.46967C22.2374 6.17678 21.7626 6.17678 21.4697 6.46967L21 6.93934L20.5303 6.46967Z" fill="#363538"/>
</svg>
