<svg width="24" height="24" viewBox="0 0 24 24" fill="none" xmlns="http://www.w3.org/2000/svg">
<path d="M9.46716 2.00962C9.39611 2.00325 9.32418 2 9.25151 2C9.01401 2 8.78443 2.03471 8.56735 2.09945C7.55172 2.40233 6.80959 3.36243 6.80959 4.5C6.80959 5.63757 7.55172 6.59767 8.56735 6.90055C8.78443 6.96529 9.01401 7 9.25151 7C9.32418 7 9.39611 6.99675 9.46716 6.99039C9.88695 6.95278 10.2763 6.80643 10.6081 6.57901C10.6593 6.54397 10.7091 6.50699 10.7574 6.4682C10.8813 6.36865 10.7657 6.16667 10.6081 6.16667C10.5762 6.16667 10.5445 6.16573 10.513 6.16387C10.1127 6.14025 9.7512 5.96857 9.47993 5.70153C9.41627 5.63886 9.35759 5.57095 9.30454 5.49847C9.10084 5.22018 8.98019 4.87452 8.98019 4.5C8.98019 4.12548 9.10084 3.77982 9.30454 3.50153C9.35759 3.42905 9.41627 3.36114 9.47993 3.29847C9.7512 3.03143 10.1127 2.85975 10.513 2.83613C10.5445 2.83428 10.5762 2.83333 10.6081 2.83333C10.7657 2.83333 10.8813 2.63135 10.7574 2.5318C10.7091 2.49301 10.6593 2.45603 10.6081 2.42099C10.2763 2.19357 9.88695 2.04722 9.46716 2.00962Z" fill="#363538"/>
<path d="M15.1996 11.75C14.822 10.2026 13.5219 9.6904 12.0565 9.11311C10.9612 8.68161 9.77357 8.21374 8.80994 7.25C8.03117 7.76916 7.12736 8.16039 6.24559 8.54209C4.45175 9.31859 2.74909 10.0556 2.37578 11.75H15.1996Z" fill="#363538"/>
<path fill-rule="evenodd" clip-rule="evenodd" d="M2.30957 13.25V20.2508C2.30957 20.8031 2.75729 21.2508 3.30957 21.2508H6.05957L6.05957 20.25C6.05957 18.7312 7.29079 17.5 8.80957 17.5C10.3284 17.5 11.5596 18.7312 11.5596 20.25V21.25L14.3096 21.2508C14.8619 21.2508 15.3096 20.8031 15.3096 20.2508V13.25H2.30957ZM4.30957 14.8108C3.89536 14.8108 3.55957 15.1466 3.55957 15.5608C3.55957 15.975 3.89536 16.3108 4.30957 16.3108H5.30957C5.72378 16.3108 6.05957 15.975 6.05957 15.5608C6.05957 15.1466 5.72378 14.8108 5.30957 14.8108H4.30957ZM7.55957 15.5608C7.55957 15.1466 7.89536 14.8108 8.30957 14.8108H9.30957C9.72378 14.8108 10.0596 15.1466 10.0596 15.5608C10.0596 15.975 9.72378 16.3108 9.30957 16.3108H8.30957C7.89536 16.3108 7.55957 15.975 7.55957 15.5608ZM12.3096 14.8108C11.8954 14.8108 11.5596 15.1466 11.5596 15.5608C11.5596 15.975 11.8954 16.3108 12.3096 16.3108H13.3096C13.7238 16.3108 14.0596 15.975 14.0596 15.5608C14.0596 15.1466 13.7238 14.8108 13.3096 14.8108H12.3096ZM11.5596 18.5608C11.5596 18.1466 11.8954 17.8108 12.3096 17.8108H13.3096C13.7238 17.8108 14.0596 18.1466 14.0596 18.5608C14.0596 18.975 13.7238 19.3108 13.3096 19.3108H12.3096C11.8954 19.3108 11.5596 18.975 11.5596 18.5608ZM4.30957 17.8108C3.89536 17.8108 3.55957 18.1466 3.55957 18.5608C3.55957 18.975 3.89536 19.3108 4.30957 19.3108H5.30957C5.72378 19.3108 6.05957 18.975 6.05957 18.5608C6.05957 18.1466 5.72378 17.8108 5.30957 17.8108H4.30957Z" fill="#363538"/>
<path d="M10.0596 21.2508H7.55957L7.55957 20.25C7.55957 19.5596 8.11921 19 8.80957 19C9.49993 19 10.0596 19.5596 10.0596 20.25L10.0596 21.2508Z" fill="#363538"/>
<path d="M17.6057 20.8499L17.6057 8.99994H20.6057L20.6057 20.8499C20.6057 21.0708 20.4266 21.2499 20.2057 21.2499H18.0057C17.7848 21.2499 17.6057 21.0708 17.6057 20.8499Z" fill="#363538"/>
<path d="M20.8752 7.49994H17.2995C15.0905 5.50548 18.1339 3.3624 18.9259 2.85971C19.038 2.78861 19.1763 2.78466 19.2921 2.84934C20.0986 3.29957 23.1449 5.22428 20.8752 7.49994Z" fill="#363538"/>
</svg>
