<svg width="24" height="24" viewBox="0 0 24 24" fill="none" xmlns="http://www.w3.org/2000/svg">
<path d="M14.0566 10.4053C14.1155 10.3815 14.1827 10.3812 14.2432 10.4053L17.3164 11.6338L21.2764 19.5527C21.6088 20.2176 21.1252 20.9999 20.3818 21H3.61816C2.87506 20.9997 2.39137 20.2175 2.72363 19.5527L6.68262 11.6338L9.75684 10.4053C9.83767 10.373 9.93031 10.3854 10 10.4375L10.9502 11.1504C11.5722 11.6166 12.4278 11.6165 13.0498 11.1504L14 10.4375L14.0566 10.4053Z" fill="#363538"/>
<path d="M10.6582 3.68357C11.211 2.57807 12.7889 2.5782 13.3418 3.68357L16.3076 9.61521L14.8008 9.01267C14.3046 8.81434 13.7484 8.85452 13.29 9.11326L13.1006 9.23728L12.1504 9.95017C12.0838 10 11.9978 10.0122 11.9219 9.98728L11.8496 9.95017L10.8994 9.23728C10.4109 8.87111 9.76608 8.78603 9.19922 9.01267L7.69141 9.61521L10.6582 3.68357Z" fill="#363538"/>
<path d="M21.5 7.24998C21.9142 7.24998 22.25 7.58577 22.25 7.99998C22.25 8.41418 21.9142 8.74998 21.5 8.74998C21.5046 8.74998 21.4454 8.75349 21.3213 8.80076C21.2087 8.8437 21.0827 8.90726 20.9668 8.98142C20.854 9.05364 20.7738 9.12192 20.7285 9.1699C20.6513 9.50201 20.3556 9.74998 20 9.74998C19.6443 9.74998 19.3476 9.50212 19.2705 9.1699C19.2252 9.12195 19.1457 9.05339 19.0332 8.98142C18.9173 8.90726 18.7913 8.8437 18.6787 8.80076C18.5546 8.75349 18.4954 8.74998 18.5 8.74998C18.0858 8.74998 17.75 8.41418 17.75 7.99998C17.75 7.58577 18.0858 7.24998 18.5 7.24998C18.7545 7.24998 19.0079 7.3217 19.2119 7.39939C19.4273 7.48144 19.6453 7.593 19.8418 7.71873C19.8944 7.75242 19.9475 7.78815 20 7.82615C20.0525 7.78815 20.1056 7.75242 20.1582 7.71873C20.3547 7.593 20.5727 7.48144 20.7881 7.39939C20.9921 7.3217 21.2455 7.24998 21.5 7.24998Z" fill="#363538"/>
<path d="M5.5 4.24998C5.91421 4.24998 6.25 4.58577 6.25 4.99998C6.24998 5.41418 5.9142 5.74998 5.5 5.74998C5.50463 5.74998 5.44537 5.75349 5.32129 5.80076C5.20866 5.8437 5.0827 5.90726 4.9668 5.98142C4.85396 6.05364 4.77378 6.12192 4.72852 6.1699C4.65135 6.50201 4.35559 6.74998 4 6.74998C3.64433 6.74998 3.3476 6.50212 3.27051 6.1699C3.22516 6.12195 3.14565 6.05339 3.0332 5.98142C2.9173 5.90726 2.79134 5.8437 2.67871 5.80076C2.55463 5.75349 2.49537 5.74998 2.5 5.74998C2.0858 5.74998 1.75002 5.41418 1.75 4.99998C1.75 4.58577 2.08579 4.24998 2.5 4.24998C2.75453 4.24998 3.00792 4.3217 3.21191 4.39939C3.42728 4.48144 3.64535 4.593 3.8418 4.71873C3.89442 4.75242 3.94753 4.78815 4 4.82615C4.05247 4.78815 4.10558 4.75242 4.1582 4.71873C4.35465 4.593 4.57272 4.48144 4.78809 4.39939C4.99208 4.3217 5.24547 4.24998 5.5 4.24998Z" fill="#363538"/>
</svg>
