<svg width="24" height="24" viewBox="0 0 24 24" fill="none" xmlns="http://www.w3.org/2000/svg">
<path d="M12.0013 15.0205C13.0525 15.0206 14.1043 15.2078 15.1321 15.4355C15.1601 15.4417 15.1891 15.4478 15.2171 15.4541C15.429 15.5016 15.639 15.5508 15.847 15.5996C15.9401 16.9028 15.85 18.7319 15.638 20.1924C15.5695 20.664 15.1565 20.9998 14.68 21H9.31963C8.84308 20.9999 8.4311 20.664 8.3626 20.1924C8.15058 18.7319 8.05938 16.9028 8.15264 15.5996C8.36105 15.5506 8.57175 15.5017 8.78447 15.4541C8.81281 15.4478 8.84202 15.4418 8.87041 15.4355C9.89838 15.2078 10.9499 15.0205 12.0013 15.0205Z" fill="#363538"/>
<path d="M12.0003 3C13.1542 3.00005 14.2893 3.20614 15.3528 3.57031C15.286 3.86958 15.2503 4.1806 15.2503 4.5C15.2503 6.84721 17.1531 8.75 19.5003 8.75C20.0532 8.74992 20.5812 8.6424 21.0657 8.4502C21.7756 10.033 21.8533 11.7958 21.0013 13.5C20.1383 15.226 18.0825 14.5695 15.5765 13.9971C15.5316 13.983 15.4851 13.9723 15.4378 13.9648C15.4191 13.9606 15.3999 13.9564 15.3812 13.9521C15.3834 13.9532 15.3857 13.9549 15.388 13.9561C14.3475 13.7275 13.1932 13.5206 12.0013 13.5205C10.8081 13.5205 9.65198 13.7282 8.61065 13.957C8.61352 13.9555 8.61651 13.9535 8.61944 13.9521C8.59965 13.9566 8.57959 13.9614 8.55986 13.9658C8.51298 13.9733 8.46669 13.9831 8.42217 13.9971C5.91713 14.5694 3.86318 15.2254 3.00029 13.5C2.34262 12.1847 2.23898 10.8349 2.55205 9.55957C3.31628 10.296 4.35517 10.75 5.50029 10.75C7.84723 10.7497 9.75029 8.84701 9.75029 6.5C9.75029 5.37325 9.31064 4.34947 8.59502 3.58887C9.67384 3.21322 10.8272 3.00003 12.0003 3Z" fill="#363538"/>
<path d="M7.07647 4.24902C7.78527 4.74644 8.25029 5.56832 8.25029 6.5C8.25029 8.01858 7.0188 9.24968 5.50029 9.25C4.52075 9.25 3.66322 8.73597 3.17608 7.96484C3.99433 6.45753 5.38682 5.14532 7.07647 4.24902Z" fill="#363538"/>
<path d="M16.7708 4.16797C18.2058 4.89997 19.4357 5.93187 20.2981 7.12988C20.0455 7.20644 19.7779 7.24994 19.5003 7.25C17.9815 7.25 16.7503 6.01878 16.7503 4.5C16.7503 4.38759 16.7577 4.27685 16.7708 4.16797Z" fill="#363538"/>
</svg>
