<svg width="24" height="24" viewBox="0 0 24 24" fill="none" xmlns="http://www.w3.org/2000/svg">
<path d="M17 4.25C18.5188 4.25 19.75 5.48122 19.75 7V15C19.75 17.0711 18.0711 18.75 16 18.75H15C13.4812 18.75 12.25 17.5188 12.25 16C12.25 14.4812 13.4812 13.25 15 13.25H18.25V9.25H9.75V16.5C9.75 18.5711 8.07107 20.25 6 20.25H5.25C3.59315 20.25 2.25 18.9069 2.25 17.25C2.25 15.5931 3.59315 14.25 5.25 14.25H8.25V10.3232C8.40844 10.0827 8.5 9.79894 8.5 9.5C8.5 9.20078 8.40872 8.91643 8.25 8.67578V8.47656C8.33191 8.49042 8.41521 8.5 8.5 8.5C9.06219 8.5 9.57702 8.18556 9.83398 7.68555L10.292 6.79199L11.1855 6.33398C11.6856 6.07702 12 5.56219 12 5C12 4.7312 11.9266 4.47414 11.7969 4.25H17Z" fill="#363538"/>
<path d="M5.5 7.25C5.78109 7.25 6.03851 7.40722 6.16699 7.65723L6.56543 8.43359L7.34277 8.83301C7.59278 8.96149 7.75 9.21891 7.75 9.5C7.75 9.78109 7.59278 10.0385 7.34277 10.167L6.56543 10.5654L6.16699 11.3428C6.03851 11.5928 5.78109 11.75 5.5 11.75C5.21891 11.75 4.96149 11.5928 4.83301 11.3428L4.43359 10.5654L3.65723 10.167C3.40722 10.0385 3.25 9.78109 3.25 9.5C3.25 9.21891 3.40722 8.96149 3.65723 8.83301L4.43359 8.43359L4.83301 7.65723L4.88672 7.56836C5.02589 7.37054 5.25387 7.25 5.5 7.25Z" fill="#363538"/>
<path d="M8.5 2.25C8.78109 2.25 9.03851 2.40722 9.16699 2.65723L9.73535 3.76367L10.8428 4.33301C11.0928 4.46149 11.25 4.71891 11.25 5C11.25 5.28109 11.0928 5.53851 10.8428 5.66699L9.73535 6.23535L9.16699 7.34277C9.03851 7.59278 8.78109 7.75 8.5 7.75C8.21891 7.75 7.96149 7.59278 7.83301 7.34277L7.26367 6.23535L6.15723 5.66699C5.90722 5.53851 5.75 5.28109 5.75 5C5.75 4.71891 5.90722 4.46149 6.15723 4.33301L7.26367 3.76367L7.83301 2.65723L7.88672 2.56836C8.02589 2.37054 8.25387 2.25 8.5 2.25Z" fill="#363538"/>
</svg>
