<svg width="24" height="24" viewBox="0 0 24 24" fill="none" xmlns="http://www.w3.org/2000/svg">
<path d="M9.13983 14.665C9.90197 14.4251 10.6145 14.3964 11.1642 14.6709C13.6963 15.9367 15.8209 15.4895 17.051 15.2891L15.6887 20.7422C15.5773 21.1873 15.1777 21.5 14.7189 21.5H9.28046C8.82177 21.4998 8.42199 21.1872 8.31073 20.7422L7.0744 15.8027C7.14498 15.7411 7.22909 15.6723 7.32831 15.5967C7.70861 15.3069 8.38924 14.9015 9.13983 14.665Z" fill="#363538"/>
<path d="M14.3371 10.5C15.6283 10.5 16.7754 11.3268 17.1838 12.5518L17.2238 12.6709C17.3369 13.0102 17.387 13.3656 17.3752 13.7197C17.3079 13.7315 17.2325 13.7448 17.1496 13.7559C15.8144 13.9341 14.0823 14.4531 11.8342 13.3291C10.7843 12.8047 9.62055 12.9413 8.68964 13.2344C7.89781 13.4838 7.18401 13.8743 6.6828 14.2158C6.57871 13.7024 6.60943 13.1694 6.77558 12.6709L6.81561 12.5518C7.22391 11.3269 8.37117 10.5002 9.66229 10.5H14.3371Z" fill="#363538"/>
<path d="M13.633 2.5C14.1304 2.50019 14.5518 2.86599 14.6223 3.3584L15.3371 8.3584C15.4232 8.96083 14.9554 9.5 14.3469 9.5H9.65253C9.04417 9.49977 8.57723 8.9607 8.66327 8.3584L9.37714 3.3584C9.44759 2.86583 9.86978 2.5 10.3674 2.5H13.633Z" fill="#363538"/>
</svg>
