<svg width="24" height="24" viewBox="0 0 24 24" fill="none" xmlns="http://www.w3.org/2000/svg">
<path d="M14.5833 12.9168V11.0835H12.2271L13.6938 12.9168H14.5833Z" fill="#363538"/>
<path d="M11.7729 12.9168L10.3062 11.0835H9.41667V12.9168H11.7729Z" fill="#363538"/>
<path fill-rule="evenodd" clip-rule="evenodd" d="M12 21C16.9706 21 21 16.9706 21 12C21 7.02944 16.9706 3 12 3C7.02944 3 3 7.02944 3 12C3 16.9706 7.02944 21 12 21ZM9.25232 7.36497C9.05334 7.11626 8.71897 7.02034 8.41841 7.12577C8.11785 7.23121 7.91667 7.51498 7.91667 7.8335V9.5835H7C6.58579 9.5835 6.25 9.91928 6.25 10.3335C6.25 10.7477 6.58579 11.0835 7 11.0835H7.91667V12.9168H7C6.58579 12.9168 6.25 13.2526 6.25 13.6668C6.25 14.081 6.58579 14.4168 7 14.4168H7.91667V16.1668C7.91667 16.581 8.25245 16.9168 8.66667 16.9168C9.08088 16.9168 9.41667 16.581 9.41667 16.1668V14.4168H12.9729L14.7477 16.6354C14.9467 16.8841 15.281 16.98 15.5816 16.8746C15.8821 16.7691 16.0833 16.4853 16.0833 16.1668V14.4168H17C17.4142 14.4168 17.75 14.081 17.75 13.6668C17.75 13.2526 17.4142 12.9168 17 12.9168H16.0833V11.0835H17C17.4142 11.0835 17.75 10.7477 17.75 10.3335C17.75 9.91928 17.4142 9.5835 17 9.5835H16.0833V7.8335C16.0833 7.41928 15.7475 7.0835 15.3333 7.0835C14.9191 7.0835 14.5833 7.41928 14.5833 7.8335V9.5835H11.0271L9.25232 7.36497Z" fill="#363538"/>
</svg>
