<svg width="24" height="24" viewBox="0 0 24 24" fill="none" xmlns="http://www.w3.org/2000/svg">
<path d="M15.9392 15.9269C18.8068 15.4761 21 12.9942 21 10C21 6.68629 18.3138 4 15 4C12.3846 4 10.16 5.67346 9.33862 8.00804C13.0474 8.18467 16 11.2475 16 15C16 15.3142 15.9793 15.6236 15.9392 15.9269Z" fill="#363538"/>
<path d="M10.25 15.25V14.75H9.76047L10.1605 15.25H10.25Z" fill="#363538"/>
<path d="M8.23953 15.25L7.83953 14.75H7.75V15.25H8.23953Z" fill="#363538"/>
<path fill-rule="evenodd" clip-rule="evenodd" d="M9 21C12.3137 21 15 18.3137 15 15C15 11.6863 12.3137 9 9 9C5.68629 9 3 11.6863 3 15C3 18.3137 5.68629 21 9 21ZM7.58565 12.0315C7.38668 11.7828 7.05231 11.6868 6.75174 11.7923C6.45118 11.8977 6.25 12.1815 6.25 12.5V13.25H6C5.58579 13.25 5.25 13.5858 5.25 14C5.25 14.4142 5.58579 14.75 6 14.75H6.25V15.25H6C5.58579 15.25 5.25 15.5858 5.25 16C5.25 16.4142 5.58579 16.75 6 16.75H6.25V17.5C6.25 17.9142 6.58579 18.25 7 18.25C7.41421 18.25 7.75 17.9142 7.75 17.5V16.75H9.43953L10.4143 17.9685C10.6133 18.2172 10.9477 18.3132 11.2483 18.2077C11.5488 18.1023 11.75 17.8185 11.75 17.5V16.75H12C12.4142 16.75 12.75 16.4142 12.75 16C12.75 15.5858 12.4142 15.25 12 15.25H11.75V14.75H12C12.4142 14.75 12.75 14.4142 12.75 14C12.75 13.5858 12.4142 13.25 12 13.25H11.75V12.5C11.75 12.0858 11.4142 11.75 11 11.75C10.5858 11.75 10.25 12.0858 10.25 12.5V13.25H8.56047L7.58565 12.0315Z" fill="#363538"/>
</svg>
