<svg width="24" height="24" viewBox="0 0 24 24" fill="none" xmlns="http://www.w3.org/2000/svg">
<path fill-rule="evenodd" clip-rule="evenodd" d="M6.41863 4.62582C6.71919 4.52039 7.05356 4.6163 7.25254 4.86502L10.2274 8.58354H16.5836V5.33354C16.5836 4.91932 16.9193 4.58354 17.3336 4.58354C17.7478 4.58354 18.0836 4.91932 18.0836 5.33354V8.58354H20C20.4142 8.58354 20.75 8.91932 20.75 9.33354C20.75 9.74775 20.4142 10.0835 20 10.0835H18.0836V13.9173H20C20.4142 13.9173 20.75 14.2531 20.75 14.6673C20.75 15.0815 20.4142 15.4173 20 15.4173H18.0836V18.6669C18.0836 18.9854 17.8824 19.2692 17.5818 19.3746C17.2812 19.48 16.9469 19.3841 16.7479 19.1354L13.7734 15.4173H7.41688V18.6669C7.41688 19.0811 7.0811 19.4169 6.66688 19.4169C6.25267 19.4169 5.91688 19.0811 5.91688 18.6669V15.4173H4C3.58579 15.4173 3.25 15.0815 3.25 14.6673C3.25 14.2531 3.58579 13.9173 4 13.9173H5.91688V10.0835H4C3.58579 10.0835 3.25 9.74775 3.25 9.33354C3.25 8.91932 3.58579 8.58354 4 8.58354H5.91688V5.33354C5.91688 5.01502 6.11807 4.73125 6.41863 4.62582ZM7.41688 10.0835V13.9173H12.5734L9.50642 10.0835H7.41688ZM8.30642 8.58354H7.41688V7.47162L8.30642 8.58354ZM11.4274 10.0835L14.4944 13.9173H16.5836V10.0835H11.4274ZM16.5836 15.4173H15.6944L16.5836 16.5288V15.4173Z" fill="#363538"/>
</svg>
