<svg width="24" height="24" viewBox="0 0 24 24" fill="none" xmlns="http://www.w3.org/2000/svg">
<path d="M4.94464 3.88398C4.65174 3.59108 4.17687 3.59108 3.88398 3.88398C3.59108 4.17687 3.59108 4.65174 3.88398 4.94464L4.76786 5.82852L3.88398 6.7124C3.59108 7.0053 3.59108 7.48017 3.88398 7.77306C4.17687 8.06596 4.65174 8.06596 4.94464 7.77306L5.82852 6.88918L6.7124 7.77306C7.0053 8.06596 7.48017 8.06596 7.77306 7.77306C8.06596 7.48017 8.06596 7.0053 7.77306 6.7124L6.88918 5.82852L7.77306 4.94464C8.06596 4.65174 8.06596 4.17687 7.77306 3.88398C7.48017 3.59108 7.0053 3.59108 6.7124 3.88398L5.82852 4.76786L4.94464 3.88398Z" fill="#363538"/>
<path d="M19.5001 4.24991C19.9143 4.24991 20.2501 4.58569 20.2501 4.99991V18.9999C20.2501 19.4141 19.9143 19.7499 19.5001 19.7499C19.0859 19.7499 18.7501 19.4141 18.7501 18.9999L18.7501 4.99991C18.7501 4.58569 19.0859 4.24991 19.5001 4.24991Z" fill="#363538"/>
<path d="M15.2501 9.99991C15.2501 9.58569 14.9143 9.24991 14.5001 9.24991C14.0859 9.24991 13.7501 9.58569 13.7501 9.99991L13.7501 18.9999C13.7501 19.4141 14.0859 19.7499 14.5001 19.7499C14.9143 19.7499 15.2501 19.4141 15.2501 18.9999L15.2501 9.99991Z" fill="#363538"/>
<path d="M9.50009 12.2499C9.91431 12.2499 10.2501 12.5857 10.2501 12.9999V18.9999C10.2501 19.4141 9.91431 19.7499 9.50009 19.7499C9.08588 19.7499 8.75009 19.4141 8.75009 18.9999V12.9999C8.75009 12.5857 9.08588 12.2499 9.50009 12.2499Z" fill="#363538"/>
<path d="M4.50009 15.2499C4.91431 15.2499 5.25009 15.5857 5.25009 15.9999L5.25009 18.9999C5.25009 19.4141 4.91431 19.7499 4.50009 19.7499C4.08588 19.7499 3.75009 19.4141 3.75009 18.9999L3.75009 15.9999C3.75009 15.5857 4.08588 15.2499 4.50009 15.2499Z" fill="#363538"/>
</svg>
