<svg width="24" height="24" viewBox="0 0 24 24" fill="none" xmlns="http://www.w3.org/2000/svg">
<path d="M2 15.713V8.28703C2 5.6661 4.88913 4.10282 7.04606 5.55665L10.07 7.59484C10.5232 5.40499 13.0867 4.23601 15.0461 5.55665L20.5547 9.26962C20.6222 9.31509 20.6873 9.36248 20.75 9.41165V6C20.75 5.58579 21.0858 5.25 21.5 5.25C21.9142 5.25 22.25 5.58579 22.25 6V18C22.25 18.4142 21.9142 18.75 21.5 18.75C21.0858 18.75 20.75 18.4142 20.75 18V14.5884C20.6873 14.6375 20.6222 14.6849 20.5547 14.7304L15.0461 18.4434C13.0867 19.764 10.5232 18.595 10.07 16.4052L7.04606 18.4434C4.88913 19.8972 2 18.3339 2 15.713Z" fill="#363538"/>
</svg>
