<svg width="24" height="24" viewBox="0 0 24 24" fill="none" xmlns="http://www.w3.org/2000/svg">
<path fill-rule="evenodd" clip-rule="evenodd" d="M22 12C22 17.5228 17.5228 22 12 22C6.47715 22 2 17.5228 2 12C2 6.47715 6.47715 2 12 2C17.5228 2 22 6.47715 22 12ZM10.8039 9.64403C10.8948 8.14935 12.569 7.28543 13.8277 8.13379L16.75 10.1035V9C16.75 8.58579 17.0858 8.25 17.5 8.25C17.9142 8.25 18.25 8.58579 18.25 9V15C18.25 15.4142 17.9142 15.75 17.5 15.75C17.0858 15.75 16.75 15.4142 16.75 15V13.8961L13.8277 15.8658C12.5656 16.7165 10.8857 15.8455 10.8032 14.3434C10.8088 14.4463 10.822 14.5463 10.842 14.6429L9.02763 15.8658C7.73348 16.7381 6 15.8001 6 14.2276V9.77202C6 8.19946 7.73347 7.2615 9.02763 8.13379L10.842 9.3567C10.8227 9.44952 10.8099 9.5454 10.8039 9.64403Z" fill="#363538"/>
</svg>
