<svg width="24" height="24" viewBox="0 0 24 24" fill="none" xmlns="http://www.w3.org/2000/svg">
<path d="M18.9445 1.88422C18.6516 1.59133 18.1768 1.59133 17.8839 1.88422C17.591 2.17711 17.591 2.65199 17.8839 2.94488L18.7678 3.82876L17.8839 4.71265C17.591 5.00554 17.591 5.48041 17.8839 5.77331C18.1768 6.0662 18.6516 6.0662 18.9445 5.77331L19.8284 4.88942L20.7123 5.77331C21.0052 6.0662 21.4801 6.0662 21.773 5.77331C22.0659 5.48041 22.0659 5.00554 21.773 4.71265L20.8891 3.82876L21.773 2.94488C22.0659 2.65199 22.0659 2.17711 21.773 1.88422C21.4801 1.59133 21.0052 1.59133 20.7123 1.88422L19.8284 2.7681L18.9445 1.88422Z" fill="#363538"/>
<path d="M9 9.50015C9.27614 9.50015 9.5 9.27629 9.5 9.00015C9.5 8.72401 9.27614 8.50015 9 8.50015C8.72386 8.50015 8.5 8.72401 8.5 9.00015C8.5 9.27629 8.72386 9.50015 9 9.50015Z" fill="#363538"/>
<path fill-rule="evenodd" clip-rule="evenodd" d="M15.2427 3.00015C15.719 3.00015 16.1816 3.09515 16.6065 3.27157C16.7021 3.47313 16.8332 3.66201 17 3.82876C16.219 4.60981 16.219 5.87614 17 6.65719C17.6939 7.35106 18.7707 7.42851 19.5501 6.88953L21.5291 10.2681C22.157 11.3399 22.157 12.6604 21.5291 13.7322L19.4448 17.2905L16.7782 12.9386C15.8011 11.2664 13.3219 11.4606 12.6188 13.2684L11.5152 16.1062C11.2465 16.7972 10.3009 16.8775 9.91949 16.2418C9.12521 14.918 7.35133 14.7137 6.26797 15.6938C6.15354 15.7973 6.05395 15.9054 5.97618 15.9906L5.95134 16.0178C5.8796 16.0964 5.8267 16.1544 5.77093 16.2085L4.59116 17.3519L2.47086 13.7322C1.84305 12.6604 1.84305 11.3399 2.47086 10.2681L5.71358 4.7322C6.3414 3.6604 7.50165 3.00015 8.75729 3.00015H15.2427ZM9 11.0002C10.1046 11.0002 11 10.1047 11 9.00015C11 7.89558 10.1046 7.00015 9 7.00015C7.89543 7.00015 7 7.89558 7 9.00015C7 10.1047 7.89543 11.0002 9 11.0002Z" fill="#363538"/>
<path d="M5.37167 18.6844L5.71358 19.2681C6.3414 20.3399 7.50165 21.0001 8.75728 21.0001L15.2427 21.0002C16.4983 21.0002 17.6586 20.3399 18.2864 19.2681L18.585 18.7584L15.4947 13.715L15.4852 13.6989C15.1419 13.106 14.2651 13.1736 14.0168 13.8121L12.9132 16.6499C12.1925 18.5032 9.65635 18.7187 8.63325 17.0135C8.33909 16.5233 7.67695 16.4419 7.27427 16.8062C7.21831 16.8568 7.16129 16.9172 7.0838 17.0021L7.05906 17.0292C6.99172 17.1032 6.90627 17.197 6.81489 17.2856L5.37167 18.6844Z" fill="#363538"/>
</svg>
