<svg width="24" height="24" viewBox="0 0 24 24" fill="none" xmlns="http://www.w3.org/2000/svg">
<path d="M20.75 2C20.75 1.58579 20.4142 1.25 20 1.25C19.5858 1.25 19.25 1.58579 19.25 2V3.25H18C17.5858 3.25 17.25 3.58579 17.25 4C17.25 4.41421 17.5858 4.75 18 4.75H19.25V6C19.25 6.41421 19.5858 6.75 20 6.75C20.4142 6.75 20.75 6.41421 20.75 6V4.75H22C22.4142 4.75 22.75 4.41421 22.75 4C22.75 3.58579 22.4142 3.25 22 3.25H20.75V2Z" fill="#363538"/>
<path d="M9 9.5C9.27614 9.5 9.5 9.27614 9.5 9C9.5 8.72386 9.27614 8.5 9 8.5C8.72386 8.5 8.5 8.72386 8.5 9C8.5 9.27614 8.72386 9.5 9 9.5Z" fill="#363538"/>
<path fill-rule="evenodd" clip-rule="evenodd" d="M15.2427 3C15.5704 3 15.8915 3.04496 16.1984 3.13045C16.0713 3.39338 16 3.68837 16 4C16 5.10457 16.8954 6 18 6C18 7.10457 18.8954 8 20 8C20.0658 8 20.1309 7.99682 20.1952 7.9906L21.5291 10.268C22.157 11.3397 22.157 12.6603 21.5291 13.732L19.4448 17.2904L16.7782 12.9384C15.8011 11.2662 13.3219 11.4604 12.6188 13.2683L11.5152 16.106C11.2465 16.797 10.3009 16.8774 9.91949 16.2416C9.12521 14.9178 7.35133 14.7136 6.26797 15.6936C6.15354 15.7972 6.05395 15.9053 5.97618 15.9904L5.95134 16.0176C5.8796 16.0963 5.8267 16.1543 5.77093 16.2083L4.59116 17.3518L2.47086 13.732C1.84305 12.6603 1.84305 11.3397 2.47086 10.2679L5.71358 4.73205C6.3414 3.66025 7.50165 3 8.75729 3H15.2427ZM9 11C10.1046 11 11 10.1046 11 9C11 7.89543 10.1046 7 9 7C7.89543 7 7 7.89543 7 9C7 10.1046 7.89543 11 9 11Z" fill="#363538"/>
<path d="M5.37167 18.6842L5.71358 19.2679C6.3414 20.3397 7.50165 21 8.75728 21L15.2427 21C16.4983 21 17.6586 20.3397 18.2864 19.268L18.585 18.7582L15.4947 13.7148L15.4852 13.6988C15.1419 13.1058 14.2651 13.1734 14.0168 13.812L12.9132 16.6497C12.1925 18.503 9.65635 18.7185 8.63325 17.0134C8.33909 16.5231 7.67695 16.4417 7.27427 16.806C7.21831 16.8566 7.16129 16.9171 7.0838 17.0019L7.05906 17.0291C6.99172 17.103 6.90627 17.1968 6.81489 17.2854L5.37167 18.6842Z" fill="#363538"/>
</svg>
