<svg width="24" height="24" viewBox="0 0 24 24" fill="none" xmlns="http://www.w3.org/2000/svg">
<path d="M12 11.5C12.8284 11.5 13.5 10.8284 13.5 10C13.5 9.17157 12.8284 8.5 12 8.5C11.1716 8.5 10.5 9.17157 10.5 10C10.5 10.8284 11.1716 11.5 12 11.5Z" fill="#363538"/>
<path fill-rule="evenodd" clip-rule="evenodd" d="M21.5291 10.2679C22.157 11.3397 22.157 12.6603 21.5291 13.732L19.043 17.9763L18.9801 17.9238L18.5 18.5C18.9801 17.9238 18.9801 17.9238 18.9801 17.9238L18.9794 17.9232L18.9753 17.9199L18.9661 17.9123L18.9347 17.8869C18.9081 17.8655 18.8702 17.8355 18.8215 17.7981C18.7243 17.7233 18.5841 17.6187 18.4057 17.4943C18.0495 17.2458 17.5384 16.9161 16.9118 16.5863C15.669 15.9322 13.9196 15.25 12 15.25C10.0804 15.25 8.33104 15.9322 7.08819 16.5863C6.46161 16.9161 5.95045 17.2458 5.5943 17.4943C5.41595 17.6187 5.27569 17.7233 5.17846 17.7981C5.12982 17.8355 5.09188 17.8655 5.06526 17.8869L5.03387 17.9123L5.02466 17.9199L5.02171 17.9223L5.02065 17.9232C5.02065 17.9232 5.01986 17.9238 5.5 18.5L5.01986 17.9238L4.95696 17.9763L2.47086 13.732C1.84305 12.6603 1.84305 11.3397 2.47086 10.2679L5.71358 4.73205C6.3414 3.66025 7.50165 3 8.75729 3H15.2427C16.4984 3 17.6586 3.66025 18.2864 4.73205L21.5291 10.2679ZM12 13C13.6569 13 15 11.6569 15 10C15 8.34315 13.6569 7 12 7C10.3431 7 9 8.34315 9 10C9 11.6569 10.3431 13 12 13Z" fill="#363538"/>
<path d="M5.72559 19.2883C6.35612 20.3481 7.50961 21 8.75728 21L15.2427 21C16.4904 21 17.6439 20.3481 18.2744 19.2883L18.0206 19.0768L18.0164 19.0734L17.9962 19.057C17.9771 19.0417 17.9472 19.018 17.907 18.987C17.8265 18.9251 17.705 18.8344 17.5474 18.7245C17.2317 18.5042 16.7741 18.2089 16.2132 17.9137C15.081 17.3178 13.5804 16.75 12 16.75C10.4196 16.75 8.91896 17.3178 7.78681 17.9137C7.22589 18.2089 6.7683 18.5042 6.45257 18.7245C6.29499 18.8344 6.17353 18.9251 6.09303 18.987C6.0528 19.018 6.02286 19.0417 6.00383 19.057L5.98356 19.0734L5.97985 19.0764L5.72559 19.2883Z" fill="#363538"/>
</svg>
