<svg width="24" height="24" viewBox="0 0 24 24" fill="none" xmlns="http://www.w3.org/2000/svg">
<path d="M18.8121 7.91455C19.5927 7.45837 21.5913 6.16522 21.933 4.70634C22.2415 3.38902 21.4585 2.02028 20.1327 2.00061C20.1053 2.00021 20.0776 2 20.0494 2C19.5157 2 19.0392 2.26883 18.7598 2.46757C18.6072 2.57615 18.3928 2.57615 18.2402 2.46757C17.9608 2.26883 17.4843 2 16.9506 2C16.9224 2 16.8947 2.00021 16.8673 2.00061C15.5415 2.02028 14.7585 3.38902 15.067 4.70634C15.4087 6.16522 17.4073 7.45837 18.1879 7.91455C18.3828 8.02849 18.6172 8.02849 18.8121 7.91455Z" fill="#363538"/>
<path d="M9.5 9C9.5 9.27614 9.27614 9.5 9 9.5C8.72386 9.5 8.5 9.27614 8.5 9C8.5 8.72386 8.72386 8.5 9 8.5C9.27614 8.5 9.5 8.72386 9.5 9Z" fill="#363538"/>
<path fill-rule="evenodd" clip-rule="evenodd" d="M8.75729 3H13.2662C13.2293 3.41875 13.2548 3.85364 13.3501 4.28504C13.8601 6.59492 16.8438 8.64241 18.0091 9.3647C18.3001 9.5451 18.6499 9.5451 18.9409 9.3647C19.2994 9.14253 19.8298 8.79498 20.4074 8.35299L21.5291 10.268C22.157 11.3397 22.157 12.6603 21.5291 13.732L19.4448 17.2904L16.7782 12.9384C15.8011 11.2662 13.3219 11.4604 12.6188 13.2683L11.5152 16.106C11.2465 16.797 10.3009 16.8774 9.91949 16.2416C9.12521 14.9178 7.35133 14.7136 6.26797 15.6936C6.15354 15.7972 6.05395 15.9053 5.97618 15.9904L5.95134 16.0176C5.8796 16.0963 5.8267 16.1543 5.77093 16.2083L4.59116 17.3518L2.47086 13.732C1.84305 12.6603 1.84305 11.3397 2.47086 10.2679L5.71358 4.73205C6.3414 3.66025 7.50165 3 8.75729 3ZM11 9C11 10.1046 10.1046 11 9 11C7.89543 11 7 10.1046 7 9C7 7.89543 7.89543 7 9 7C10.1046 7 11 7.89543 11 9Z" fill="#363538"/>
<path d="M18.585 18.7582L15.4947 13.7148L15.4852 13.6988C15.1419 13.1058 14.2651 13.1734 14.0168 13.812L12.9132 16.6497C12.1925 18.503 9.65635 18.7185 8.63325 17.0134C8.33909 16.5231 7.67695 16.4417 7.27427 16.806C7.21831 16.8566 7.16129 16.9171 7.0838 17.0019L7.05906 17.0291C6.99172 17.103 6.90627 17.1968 6.81489 17.2854L5.37167 18.6842L5.71358 19.2679C6.3414 20.3397 7.50165 21 8.75728 21L15.2427 21C16.4983 21 17.6586 20.3397 18.2864 19.268L18.585 18.7582Z" fill="#363538"/>
</svg>
