<svg width="24" height="24" viewBox="0 0 24 24" fill="none" xmlns="http://www.w3.org/2000/svg">
<path d="M13.9999 20C13.9999 20.2626 13.9481 20.523 13.8476 20.7656C13.7471 21.0082 13.5996 21.2284 13.414 21.4141C13.2284 21.5997 13.0081 21.7471 12.7656 21.8477C12.5229 21.9482 12.2626 22 11.9999 22C11.7373 22 11.477 21.9482 11.2343 21.8477C10.9918 21.7472 10.7715 21.5997 10.5859 21.4141C10.4002 21.2284 10.2528 21.0082 10.1523 20.7656C10.0518 20.523 9.99994 20.2626 9.99994 20H7.18061L19.1288 8.05078C19.341 8.72971 19.457 9.45139 19.457 10.2002V11.5C19.457 13.3161 19.9035 15.6406 20.3163 17.3994C20.6224 18.7041 19.6496 19.9997 18.3095 20H13.9999Z" fill="#363538"/>
<path d="M11.9999 2C12.1969 2.00001 12.3922 2.03888 12.5742 2.11426C12.7561 2.18964 12.9213 2.30023 13.0605 2.43945C13.1997 2.57869 13.3103 2.74387 13.3857 2.92578C13.4091 2.98232 13.427 3.04088 13.4433 3.09961C15.073 3.37003 16.5163 4.18738 17.581 5.35742L20.4697 2.46973C20.7626 2.17686 21.2373 2.17684 21.5302 2.46973C21.8231 2.76261 21.8231 3.23739 21.5302 3.53027L3.53022 21.5303C3.23733 21.8232 2.76257 21.8231 2.46967 21.5303C2.17678 21.2374 2.17678 20.7626 2.46967 20.4697L4.11518 18.8232C3.87326 18.3405 3.80339 17.7637 3.97651 17.2012C4.50752 15.4766 5.05658 13.2651 5.05658 11.5V10.2002C5.05665 6.82017 7.3864 3.98468 10.5273 3.20996C10.5464 3.11287 10.5761 3.01765 10.6142 2.92578C10.6896 2.74388 10.8002 2.57869 10.9394 2.43945C11.0786 2.30022 11.2438 2.18963 11.4257 2.11426C11.6077 2.03888 11.803 2 11.9999 2Z" fill="#363538"/>
</svg>
