<svg width="24" height="24" viewBox="0 0 24 24" fill="none" xmlns="http://www.w3.org/2000/svg">
<path d="M13.3858 2.92597C13.409 2.98202 13.4288 3.03931 13.445 3.09751C13.6688 3.13466 13.889 3.18212 14.1053 3.2394C13.4205 3.95728 13 4.92953 13 6C13 8.20914 14.7909 10 17 10C17.8958 10 18.7227 9.70556 19.3895 9.20818C19.4342 9.53251 19.4573 9.86372 19.4573 10.2003V11.5C19.4573 13.3161 19.9044 15.6401 20.3172 17.3989C20.6235 18.7039 19.65 20 18.3096 20H14C14 20.2626 13.9483 20.5227 13.8478 20.7654C13.7472 21.008 13.5999 21.2285 13.4142 21.4142C13.2285 21.5999 13.008 21.7472 12.7654 21.8478C12.5227 21.9483 12.2626 22 12 22C11.7374 22 11.4773 21.9483 11.2346 21.8478C10.992 21.7472 10.7715 21.5999 10.5858 21.4142C10.4001 21.2285 10.2528 21.008 10.1522 20.7654C10.0517 20.5227 10 20.2626 10 20H5.96673C4.54844 20 3.55937 18.5563 3.97673 17.2009C4.50774 15.4763 5.05726 13.2651 5.05726 11.5V10.2003C5.05726 6.81982 7.38702 3.9832 10.5285 3.2089C10.5476 3.11224 10.5763 3.01745 10.6142 2.92597C10.6896 2.74399 10.8001 2.57863 10.9393 2.43934C11.0786 2.30005 11.244 2.18956 11.426 2.11418C11.608 2.0388 11.803 2 12 2C12.197 2 12.392 2.0388 12.574 2.11418C12.756 2.18956 12.9214 2.30005 13.0607 2.43934C13.1999 2.57863 13.3104 2.74399 13.3858 2.92597Z" fill="#363538"/>
<path d="M17 9C18.6569 9 20 7.65685 20 6C20 4.34315 18.6569 3 17 3C15.3431 3 14 4.34315 14 6C14 7.65685 15.3431 9 17 9Z" fill="#363538"/>
</svg>
