<svg width="24" height="24" viewBox="0 0 24 24" fill="none" xmlns="http://www.w3.org/2000/svg">
<path d="M10.5286 3.20887C7.38708 3.98312 5.05726 6.81977 5.05726 10.2003V11.5C5.05726 13.2651 4.50774 15.4763 3.97673 17.2009C3.55937 18.5563 4.54844 20 5.96673 20H10.0001C10.0001 20.2626 10.0519 20.5227 10.1524 20.7654C10.2529 21.008 10.4002 21.2285 10.5859 21.4142C10.7716 21.5999 10.9921 21.7472 11.2348 21.8478C11.4774 21.9483 11.7375 22 12.0001 22C12.2628 22 12.5228 21.9483 12.7655 21.8478C13.0081 21.7472 13.2286 21.5999 13.4143 21.4142C13.6 21.2285 13.7474 21.008 13.8479 20.7654C13.9484 20.5227 14.0001 20.2626 14.0001 20H18.3096C19.65 20 20.6235 18.7039 20.3172 17.3989C19.9044 15.6401 19.4573 13.3161 19.4573 11.5V10.2003C19.4573 6.6285 16.8563 3.66387 13.4451 3.09753C13.4289 3.03932 13.4092 2.98203 13.3859 2.92597C13.3106 2.74399 13.2001 2.57863 13.0608 2.43934C12.9215 2.30005 12.7561 2.18956 12.5741 2.11418C12.3922 2.0388 12.1971 2 12.0001 2C11.8031 2 11.6081 2.0388 11.4261 2.11418C11.2441 2.18956 11.0787 2.30005 10.9395 2.43934C10.8002 2.57863 10.6897 2.74399 10.6143 2.92597C10.5764 3.01744 10.5478 3.11221 10.5286 3.20887Z" fill="#363538"/>
</svg>
