<svg width="24" height="24" viewBox="0 0 24 24" fill="none" xmlns="http://www.w3.org/2000/svg">
<path d="M6.6483 6.21087L11.6595 3.20417C11.869 3.07843 12.1309 3.07843 12.3404 3.20417L17.3516 6.21087C20.1563 7.8937 21.6465 11.1207 21.1088 14.347C20.7659 16.4043 19.6528 18.1672 18.0946 19.3604C18.8335 17.5458 18.9235 15.7509 18.486 14.072C17.9054 11.844 16.4172 9.89734 14.4542 8.4031C14.1246 8.15222 13.6541 8.21602 13.4032 8.54561C13.1523 8.8752 13.2161 9.34576 13.5457 9.59665C15.3119 10.9411 16.5584 12.6235 17.0345 14.4503C17.5051 16.2563 17.2439 18.28 15.8592 20.3881C15.8161 20.4537 15.7846 20.5236 15.7643 20.5954C15.4381 20.7037 15.1029 20.7914 14.7605 20.8572C15.7055 19.6034 15.8856 18.1458 15.6643 16.798C15.3722 15.0181 14.3855 13.3886 13.5492 12.4892C13.2672 12.1858 12.7926 12.1686 12.4892 12.4506C12.1859 12.7327 12.1686 13.2072 12.4507 13.5106C13.1236 14.2343 13.9481 15.6027 14.1841 17.0409C14.4115 18.4263 14.0982 19.8288 12.5734 20.883C12.5237 20.9174 12.4794 20.9567 12.4407 20.9999H11.6346C11.5822 20.9167 11.5125 20.8424 11.4265 20.783C10.6375 20.2375 10.1931 19.6213 9.96305 18.999C9.73029 18.3695 9.69976 17.6866 9.81545 16.9928C10.0505 15.583 10.8724 14.2385 11.5492 13.5106C11.8313 13.2072 11.814 12.7327 11.5107 12.4506C11.2073 12.1686 10.7327 12.1858 10.4507 12.4892C9.61829 13.3844 8.62905 14.9878 8.33587 16.7461C8.18743 17.6364 8.2135 18.5926 8.55615 19.5192C8.73159 19.9937 8.98566 20.4484 9.32721 20.8735C8.95426 20.8063 8.58968 20.713 8.2356 20.5954C8.21526 20.5236 8.18379 20.4537 8.14068 20.3881C6.75599 18.28 6.49481 16.2563 6.96544 14.4503C7.44146 12.6235 8.68799 10.9411 10.4542 9.59665C10.7838 9.34576 10.8476 8.8752 10.5967 8.54561C10.3458 8.21602 9.87527 8.15222 9.54568 8.4031C7.58271 9.89734 6.09449 11.844 5.51391 14.072C5.07643 15.7509 5.16641 17.5458 5.90531 19.3604C4.34705 18.1672 3.23402 16.4043 2.89113 14.347C2.35341 11.1207 3.84358 7.8937 6.6483 6.21087Z" fill="#363538"/>
</svg>
