<svg width="24" height="24" viewBox="0 0 24 24" fill="none" xmlns="http://www.w3.org/2000/svg">
<path fill-rule="evenodd" clip-rule="evenodd" d="M11.9973 3.61078C12.981 2.88593 14.8144 2.29876 17.3963 3.40382C19.7376 4.40592 20.4355 4.52239 20.431 4.59596C20.4291 4.62687 20.3032 4.6502 20.1231 4.72848C19.0555 5.04563 17.3665 4.88694 15.3789 4.65565C18.6752 5.99176 21 9.22431 21 12.9998C21 17.9704 16.9706 21.9998 12 21.9998C7.02944 21.9998 3 17.9704 3 12.9998C3 8.07932 6.94872 4.08106 11.8502 4.00107C11.8121 3.86771 11.8516 3.71811 11.9973 3.61078ZM9.5 10.9998C9.77614 10.9998 10 10.776 10 10.4998C10 10.2237 9.77614 9.99985 9.5 9.99985C9.22386 9.99985 9 10.2237 9 10.4998C9 10.776 9.22386 10.9998 9.5 10.9998ZM9 12.4998C9 12.776 8.77614 12.9998 8.5 12.9998C8.22386 12.9998 8 12.776 8 12.4998C8 12.2237 8.22386 11.9998 8.5 11.9998C8.77614 11.9998 9 12.2237 9 12.4998Z" fill="#363538"/>
</svg>
