<svg width="24" height="24" viewBox="0 0 24 24" fill="none" xmlns="http://www.w3.org/2000/svg">
<path d="M14.8125 7.6551V4.8125C14.8125 3.2592 13.5533 2 12 2C10.4467 2 9.1875 3.2592 9.1875 4.8125V7.6551C9.1875 8.6972 8.38731 9.56466 7.34859 9.6486L6.67782 9.7028C4.60038 9.87068 3 10.6056 3 12.6898V13C3 13.2761 3.22386 13.5 3.5 13.5H20.5C20.7761 13.5 21 13.2761 21 13V12.6898C21 10.6056 19.3996 9.87068 17.3222 9.7028L16.6514 9.6486C15.6127 9.56466 14.8125 8.6972 14.8125 7.6551Z" fill="#363538"/>
<path d="M20.5 21H13.6514C13.5527 21 13.4562 20.972 13.374 20.9194L12.2774 20.2175C12.1094 20.11 11.8906 20.11 11.7226 20.2175L10.626 20.9194C10.5438 20.972 10.4473 21 10.3486 21H3.5C3.22386 21 3 20.7851 3 20.52V15.5C3 15.2239 3.22386 15 3.5 15H20.5C20.7761 15 21 15.2239 21 15.5V20.52C21 20.7851 20.7761 21 20.5 21Z" fill="#363538"/>
</svg>
