<svg width="24" height="24" viewBox="0 0 24 24" fill="none" xmlns="http://www.w3.org/2000/svg">
<path d="M20.4306 12.4776C21.0844 12.2014 21.2504 11.3511 20.7486 10.8493L12.6065 2.7072C12.216 2.31668 11.5828 2.31668 11.1923 2.7072L4.82831 9.07116C3.26621 10.6333 3.26621 13.1659 4.82831 14.728L8.4271 18.3268C10.0254 19.9251 12.6295 19.8826 14.1748 18.233L18.4194 13.7017C18.8021 13.2931 19.2664 12.9695 19.782 12.7516L20.4306 12.4776Z" fill="#363538"/>
<path d="M21.1962 14.7216C21.0823 14.4368 20.8066 14.2501 20.4999 14.2501C20.1932 14.2501 19.9174 14.4368 19.8035 14.7216L19.1749 16.2931C18.8 17.2304 19.4903 18.2501 20.4999 18.2501C21.5095 18.2501 22.1998 17.2304 21.8249 16.2931L21.1962 14.7216Z" fill="#363538"/>
</svg>
