<svg width="24" height="24" viewBox="0 0 24 24" fill="none" xmlns="http://www.w3.org/2000/svg">
<path fill-rule="evenodd" clip-rule="evenodd" d="M3 12C3 2.79131 10.5 2.50012 14.5 2.99991C15.5453 3.13051 17.7111 4.0079 19.3051 5.49885C20.3574 6.48311 19.3826 7.84887 17.9436 7.92204C10.2142 8.31506 12.3746 13.6732 20 12.5001C23.4944 11.9625 21.5 17.5001 16 20.0001C12.1317 21.7584 3 19.5 3 12ZM9.5 9C10.3284 9 11 8.32843 11 7.5C11 6.67157 10.3284 6 9.5 6C8.67157 6 8 6.67157 8 7.5C8 8.32843 8.67157 9 9.5 9ZM16 16.5C16 17.3284 15.3284 18 14.5 18C13.6716 18 13 17.3284 13 16.5C13 15.6716 13.6716 15 14.5 15C15.3284 15 16 15.6716 16 16.5ZM6.5 13C7.32843 13 8 12.3284 8 11.5C8 10.6716 7.32843 10 6.5 10C5.67157 10 5 10.6716 5 11.5C5 12.3284 5.67157 13 6.5 13ZM11 15.5C11 16.3284 10.3284 17 9.5 17C8.67157 17 8 16.3284 8 15.5C8 14.6716 8.67157 14 9.5 14C10.3284 14 11 14.6716 11 15.5Z" fill="#363538"/>
</svg>
