<svg width="24" height="24" viewBox="0 0 24 24" fill="none" xmlns="http://www.w3.org/2000/svg">
<path d="M15.346 9.01582C15.2881 9.00544 15.2282 9 15.1667 9H3.83339C3.16673 9 2.68673 9.64 2.87339 10.28L3.11784 11.1181C3.22396 11.482 3.27784 11.8591 3.27784 12.2381L3.27784 13C3.27784 15.2091 5.06869 17 7.27783 17L11.7223 17C13.9314 17 15.7223 15.2091 15.7223 13V12.2381C15.7223 11.8591 15.7762 11.482 15.8823 11.1181L16.0626 10.5L21.5 10.5C21.9142 10.5 22.25 10.1642 22.25 9.75C22.25 9.33579 21.9142 9 21.5 9H15.5C15.4472 9 15.3957 9.00545 15.346 9.01582Z" fill="#363538"/>
</svg>
