<svg width="24" height="24" viewBox="0 0 24 24" fill="none" xmlns="http://www.w3.org/2000/svg">
<path d="M8.5 9.24989C9.32838 9.24989 9.99992 9.92153 10 10.7499C10 11.5783 9.32843 12.2499 8.5 12.2499C7.67157 12.2499 7 11.5783 7 10.7499C7.00008 9.92153 7.67162 9.24989 8.5 9.24989Z" fill="#363538"/>
<path fill-rule="evenodd" clip-rule="evenodd" d="M18.6943 5.12782C19.7109 5.03275 20.8015 5.50883 21.2412 6.57704C21.7245 7.75156 22.314 9.72532 22.25 12.2684C22.2203 13.4477 22.0801 14.4649 21.8955 15.3202C21.8949 15.3234 21.8952 15.3268 21.8945 15.33C21.8597 15.4907 21.8228 15.6456 21.7852 15.7948C21.7721 15.8467 21.7585 15.8977 21.7451 15.9481C21.7146 16.0636 21.6821 16.175 21.6504 16.2831C21.6311 16.3488 21.6124 16.4134 21.5928 16.4765C21.5753 16.5329 21.5577 16.5882 21.54 16.6425C21.4716 16.8522 21.4026 17.0459 21.334 17.2235L21.3076 17.2958C21.2498 17.4425 21.1793 17.5768 21.0996 17.7001C21.0874 17.719 21.0732 17.7364 21.0605 17.7548C21.0333 17.7943 21.0059 17.833 20.9766 17.87C20.961 17.8897 20.9448 17.9087 20.9287 17.9276C20.8969 17.965 20.8648 18.0014 20.8311 18.036C20.8217 18.0456 20.8122 18.055 20.8027 18.0643C20.7658 18.1009 20.7275 18.1354 20.6885 18.1688C20.6663 18.1878 20.6439 18.2065 20.6211 18.2245C20.5907 18.2485 20.5598 18.2716 20.5283 18.2938C20.502 18.3125 20.4752 18.3301 20.4482 18.3476C20.4173 18.3675 20.3862 18.3868 20.3545 18.4052C20.3287 18.4201 20.3026 18.4342 20.2764 18.4481C20.2409 18.4669 20.2052 18.4849 20.1689 18.5018C20.1469 18.5121 20.1249 18.5225 20.1025 18.5321C20.0579 18.5513 20.0125 18.5683 19.9668 18.5849C19.9505 18.5907 19.9344 18.5969 19.918 18.6024C19.8744 18.6172 19.8304 18.6301 19.7861 18.6425C19.7614 18.6494 19.7368 18.6568 19.7119 18.663C19.6679 18.6739 19.6236 18.6836 19.5791 18.6923C19.5622 18.6956 19.5453 18.6991 19.5283 18.702C19.4748 18.7114 19.4211 18.7184 19.3672 18.7245C19.3512 18.7263 19.3353 18.7288 19.3193 18.7304C19.265 18.7356 19.2107 18.7391 19.1562 18.7411C19.1442 18.7416 19.1322 18.7418 19.1201 18.7421C18.984 18.7455 18.8478 18.7405 18.7139 18.7245L18.5117 18.6923C17.0568 18.4086 14.9552 18.0914 12.8838 18.0165C12.7358 18.0111 12.5879 18.0066 12.4404 18.0038L12 17.9999C9.63566 17.9999 7.10234 18.3757 5.44043 18.702C4.40792 18.9047 3.17467 18.5293 2.68848 17.3681C2.24038 16.2976 1.74995 14.5899 1.75 12.2499C1.75008 9.75802 2.30648 7.81585 2.7627 6.6415C3.18968 5.54309 4.3003 5.03432 5.34668 5.13173C7.1479 5.29941 9.85154 5.49989 12 5.49989C14.165 5.49989 16.8936 5.29624 18.6943 5.12782ZM18.834 6.62196C17.0197 6.79165 14.2358 6.99989 12 6.99989C9.78087 6.99989 7.02182 6.79482 5.20703 6.62587C4.69652 6.57841 4.29982 6.82556 4.16016 7.18446C3.7561 8.22455 3.25007 9.98145 3.25 12.2499C3.24995 14.375 3.69444 15.8864 4.07227 16.789C4.20755 17.1121 4.60485 17.3376 5.15137 17.2304C6.41665 16.9819 8.18904 16.7024 10.0371 16.5731L11.7803 13.786L11.8867 13.6317C12.4522 12.8931 13.4717 12.6477 14.3193 13.0712L14.4033 13.1034C14.601 13.158 14.8168 13.0749 14.9238 12.8915L16.8027 9.67079L16.875 9.55653C17.6581 8.41372 19.4367 8.59737 19.9473 9.9247L20.752 12.0165C20.7726 9.8305 20.263 8.14344 19.8535 7.14833C19.7139 6.80931 19.3326 6.57533 18.834 6.62196Z" fill="#363538"/>
</svg>
