<svg width="24" height="24" viewBox="0 0 24 24" fill="none" xmlns="http://www.w3.org/2000/svg">
<path d="M8 2.5H16C16.5523 2.5 17 2.94772 17 3.5V4.5C17 4.77614 17.2239 5 17.5 5H18.5C18.7761 5 19 5.22386 19 5.5V6.5C19 6.77614 18.7761 7 18.5 7H5.5C5.22386 7 5 6.77614 5 6.5V5.5C5 5.22386 5.22386 5 5.5 5H6.5C6.77614 5 7 4.77614 7 4.5V3.5C7 2.94772 7.44772 2.5 8 2.5Z" fill="#363538"/>
<path d="M15.0689 21.0002H8.93111C8.40647 21.0002 7.97103 20.5948 7.93365 20.0715L7.03711 8H16.9629L16.0663 20.0715C16.029 20.5948 15.5935 21.0002 15.0689 21.0002Z" fill="#363538"/>
</svg>
