<svg width="24" height="24" viewBox="0 0 24 24" fill="none" xmlns="http://www.w3.org/2000/svg">
<path fill-rule="evenodd" clip-rule="evenodd" d="M14 2C14.0639 2 14.1271 2.0039 14.1895 2.00977L14.2041 2.01074C14.2221 2.01257 14.2399 2.01625 14.2578 2.01855C14.2939 2.0232 14.3298 2.02764 14.3652 2.03418C14.3899 2.03872 14.4142 2.04437 14.4385 2.0498C14.4743 2.05782 14.5098 2.06626 14.5449 2.07617C14.5653 2.08192 14.5854 2.08835 14.6055 2.09473C14.6438 2.10689 14.6815 2.12039 14.7188 2.13477C14.7341 2.14067 14.7495 2.14608 14.7646 2.15234C14.8034 2.16839 14.8414 2.18573 14.8789 2.2041C14.8963 2.21263 14.9135 2.22145 14.9307 2.23047C14.9688 2.25056 15.0063 2.27151 15.043 2.29395C15.0535 2.30036 15.0639 2.30687 15.0742 2.31348C15.1171 2.34083 15.1586 2.36995 15.1992 2.40039C15.2046 2.40446 15.2104 2.40799 15.2158 2.41211L15.2354 2.42676C15.3674 2.53053 15.4856 2.65091 15.5879 2.78418C15.5976 2.79679 15.6059 2.8104 15.6152 2.82324C15.6415 2.85919 15.6666 2.89588 15.6904 2.93359C15.6968 2.9436 15.7028 2.95374 15.709 2.96387C15.7318 3.00134 15.7541 3.03909 15.7744 3.07812C15.783 3.09452 15.7907 3.11128 15.7988 3.12793C15.8178 3.16705 15.8361 3.20657 15.8525 3.24707C15.8577 3.25966 15.8623 3.27244 15.8672 3.28516C15.8823 3.32467 15.8965 3.3646 15.9092 3.40527C15.9152 3.42472 15.9213 3.44418 15.9268 3.46387C15.9301 3.47596 15.9344 3.48782 15.9375 3.5H16C18.2091 3.5 20 5.29086 20 7.5V18L19.9951 18.2061C19.9813 18.4785 19.9397 18.7436 19.874 18.999C19.8513 19.0873 19.8244 19.174 19.7959 19.2598C19.743 19.4191 19.681 19.5739 19.6094 19.7236C19.6008 19.7416 19.5919 19.7595 19.583 19.7773C19.5659 19.8118 19.5484 19.846 19.5303 19.8799C19.5166 19.9055 19.5025 19.9308 19.4883 19.9561C19.4696 19.9893 19.4503 20.0221 19.4307 20.0547C19.4203 20.072 19.41 20.0893 19.3994 20.1064C19.3748 20.1461 19.3492 20.1849 19.3232 20.2236C19.3149 20.2361 19.3063 20.2484 19.2979 20.2607C19.2737 20.2958 19.2498 20.331 19.2246 20.3652C19.2062 20.3903 19.187 20.4148 19.168 20.4395C19.1493 20.4637 19.1306 20.4879 19.1113 20.5117C19.0918 20.5358 19.0718 20.5594 19.0518 20.583C19.0289 20.61 19.006 20.6368 18.9824 20.6631C18.9681 20.6791 18.954 20.6952 18.9395 20.7109C18.8695 20.7868 18.7963 20.8595 18.7207 20.9297C18.6977 20.951 18.6748 20.9724 18.6514 20.9932C18.6282 21.0137 18.6047 21.0337 18.5811 21.0537C18.5609 21.0707 18.541 21.0879 18.5205 21.1045C18.4867 21.132 18.4527 21.1592 18.418 21.1855C18.4035 21.1965 18.3886 21.207 18.374 21.2178C18.3387 21.2439 18.3028 21.269 18.2666 21.2939C18.2465 21.3078 18.2264 21.3215 18.2061 21.335C18.1799 21.3523 18.1535 21.369 18.127 21.3857C18.1013 21.4019 18.0758 21.418 18.0498 21.4336C18.0153 21.4543 17.9805 21.4745 17.9453 21.4941C17.9252 21.5054 17.9051 21.5165 17.8848 21.5273C17.8518 21.545 17.8187 21.5624 17.7852 21.5791C17.7599 21.5917 17.7345 21.6041 17.709 21.6162C17.6796 21.6301 17.6499 21.6431 17.6201 21.6562C17.5912 21.6691 17.5625 21.6822 17.5332 21.6943C17.4987 21.7087 17.4637 21.722 17.4287 21.7354C17.4053 21.7443 17.382 21.7532 17.3584 21.7617C17.3251 21.7737 17.2915 21.7847 17.2578 21.7959C17.2288 21.8055 17.2002 21.8162 17.1709 21.8252C17.1347 21.8363 17.0982 21.8464 17.0615 21.8564C17.0369 21.8632 17.0121 21.8697 16.9873 21.876C16.9491 21.8857 16.9107 21.8947 16.8721 21.9033C16.8454 21.9092 16.8188 21.9155 16.792 21.9209C16.7525 21.9288 16.7127 21.9356 16.6729 21.9424C16.6495 21.9463 16.6261 21.9505 16.6025 21.9541C16.5679 21.9593 16.533 21.9634 16.498 21.9678C16.3348 21.9881 16.1687 22 16 22H8C5.79086 22 4 20.2091 4 18V7.5C4 5.29086 5.79086 3.5 8 3.5H8.06348C8.06865 3.47991 8.07528 3.46027 8.08105 3.44043C8.08443 3.42883 8.08626 3.41679 8.08984 3.40527L8.11133 3.34082C8.12055 3.31439 8.13132 3.2886 8.1416 3.2627C8.14701 3.24908 8.15153 3.23514 8.15723 3.22168L8.17188 3.1875C8.18563 3.15658 8.20154 3.12675 8.2168 3.09668C8.24369 3.0437 8.27334 2.99252 8.30469 2.94238C8.31475 2.92628 8.32348 2.90935 8.33398 2.89355C8.34435 2.87798 8.35543 2.86292 8.36621 2.84766C8.39133 2.81209 8.41701 2.77697 8.44434 2.74316C8.45813 2.72611 8.47296 2.70995 8.4873 2.69336C8.51037 2.66666 8.53417 2.64067 8.55859 2.61523C8.57567 2.59747 8.59264 2.57963 8.61035 2.5625C8.63719 2.53653 8.6651 2.51175 8.69336 2.4873C8.71118 2.4719 8.72871 2.45618 8.74707 2.44141C8.78128 2.41386 8.81653 2.38759 8.85254 2.3623C8.86399 2.35426 8.87509 2.3457 8.88672 2.33789C8.93695 2.30416 8.98867 2.27232 9.04199 2.24316C9.05156 2.23793 9.06162 2.23359 9.07129 2.22852C9.11564 2.2052 9.16079 2.18309 9.20703 2.16309C9.22554 2.15508 9.24488 2.14905 9.26367 2.1416C9.29874 2.12769 9.33411 2.11449 9.37012 2.10254C9.39402 2.09461 9.41808 2.08712 9.44238 2.08008C9.48131 2.06879 9.52068 2.05875 9.56055 2.0498C9.58033 2.04537 9.60012 2.04096 9.62012 2.03711C9.6639 2.02868 9.70818 2.02212 9.75293 2.0166C9.77176 2.01428 9.79058 2.01156 9.80957 2.00977C9.87227 2.00384 9.93574 2 10 2H14ZM14.7803 10.4697C14.5057 10.1951 14.0709 10.1777 13.7764 10.418L13.7197 10.4697L11.2549 12.9336L10.2617 12.0068L10.2031 11.957C9.90034 11.7271 9.46606 11.7599 9.20117 12.0439C8.93666 12.3279 8.93432 12.7629 9.18457 13.0488L9.23828 13.1035L10.7627 14.5244C11.0581 14.7998 11.518 14.7921 11.8037 14.5068L14.7803 11.5303L14.832 11.4736C15.0723 11.1791 15.0549 10.7443 14.7803 10.4697ZM10 3.5C9.72386 3.5 9.5 3.72386 9.5 4C9.5 4.27614 9.72386 4.5 10 4.5H14C14.2761 4.5 14.5 4.27614 14.5 4C14.5 3.72386 14.2761 3.5 14 3.5H10Z" fill="#363538"/>
</svg>
