<svg width="24" height="24" viewBox="0 0 24 24" fill="none" xmlns="http://www.w3.org/2000/svg">
<path fill-rule="evenodd" clip-rule="evenodd" d="M22 12C22 17.5228 17.5228 22 12 22C6.47715 22 2 17.5228 2 12C2 6.47715 6.47715 2 12 2C17.5228 2 22 6.47715 22 12ZM7 10C7 8.89543 7.89543 8 9 8C10.1046 8 11 8.89543 11 10V15C11 16.1046 10.1046 17 9 17C7.89543 17 7 16.1046 7 15V10ZM15 8C13.8954 8 13 8.89543 13 10V15C13 16.1046 13.8954 17 15 17C16.1046 17 17 16.1046 17 15V10C17 8.89543 16.1046 8 15 8Z" fill="#363538"/>
</svg>
