<svg width="24" height="24" viewBox="0 0 24 24" fill="none" xmlns="http://www.w3.org/2000/svg">
<path d="M6 3H18C18.6395 3 19.244 3.15009 19.7801 3.41696C19.9185 3.48581 20 3.63027 20 3.78477C20 4.1181 19.6338 4.33247 19.319 4.22259C18.9061 4.07839 18.4622 4 18 4H15C12.7909 4 11 5.79086 11 8V17C11 18.1046 10.1046 19 9 19H6C3.79086 19 2 17.2091 2 15V7C2 4.79086 3.79086 3 6 3Z" fill="#363538"/>
<path d="M17 17C16.4477 17 16 16.5523 16 16C16 15.4477 16.4477 15 17 15C17.5523 15 18 15.4477 18 16C18 16.5523 17.5523 17 17 17Z" fill="#363538"/>
<path d="M16.5 10C16.5 10.2761 16.7239 10.5 17 10.5C17.2761 10.5 17.5 10.2761 17.5 10C17.5 9.72386 17.2761 9.5 17 9.5C16.7239 9.5 16.5 9.72386 16.5 10Z" fill="#363538"/>
<path fill-rule="evenodd" clip-rule="evenodd" d="M12.1992 19.25C12.0699 18.8567 12 18.4365 12 18V9C12 6.79086 13.7909 5 16 5H18C20.2091 5 22 6.79086 22 9V18C22 20.2091 20.2091 22 18 22H16C14.8561 22 13.8243 21.5198 13.0953 20.75H10C9.58579 20.75 9.25 20.4142 9.25 20C9.25 19.5858 9.58579 19.25 10 19.25H12.1992ZM14.5 16C14.5 14.6193 15.6193 13.5 17 13.5C18.3807 13.5 19.5 14.6193 19.5 16C19.5 17.3807 18.3807 18.5 17 18.5C15.6193 18.5 14.5 17.3807 14.5 16ZM17 8C15.8954 8 15 8.89543 15 10C15 11.1046 15.8954 12 17 12C18.1046 12 19 11.1046 19 10C19 8.89543 18.1046 8 17 8Z" fill="#363538"/>
</svg>
