<svg width="24" height="24" viewBox="0 0 24 24" fill="none" xmlns="http://www.w3.org/2000/svg">
<path d="M16.531 4.51425L11.5813 9.464L11.1683 11.5287C11.0284 12.2284 11.6453 12.8453 12.345 12.7054L14.4097 12.2924L19.3594 7.34268C20.1405 6.56163 20.1405 5.2953 19.3594 4.51425C18.5784 3.7332 17.3121 3.7332 16.531 4.51425Z" fill="#363538"/>
<path d="M9.09035 14.3386C9.49826 14.2666 9.77059 13.8776 9.6986 13.4697C9.62662 13.0618 9.23759 12.7895 8.82968 12.8615C8.49741 12.9201 8.14949 12.9747 7.78862 13.0313L7.74469 13.0382C7.37095 13.0969 6.98458 13.1578 6.60445 13.2258C5.85165 13.3605 5.07964 13.5302 4.42194 13.79C3.77766 14.0445 3.12576 14.4304 2.76203 15.0727C2.37369 15.7584 2.41039 16.555 2.7706 17.3955C3.20911 18.4186 4.15672 18.8963 5.16362 19.0745C6.16421 19.2516 7.3523 19.1634 8.54189 18.9508C10.9323 18.5237 13.569 17.5484 15.2677 16.784C16.6117 16.1792 17.6793 16.3427 18.2044 16.7271C18.4566 16.9117 18.6058 17.1555 18.6467 17.4509C18.6888 17.7556 18.6236 18.1839 18.3108 18.7243C18.0596 19.1584 17.4643 19.5264 16.4309 19.8068C15.4258 20.0794 14.1896 20.2226 12.8849 20.3538C12.4727 20.3952 12.1722 20.7629 12.2137 21.1751C12.2551 21.5872 12.6228 21.8877 13.035 21.8463C14.3252 21.7165 15.6813 21.5643 16.8235 21.2544C17.9375 20.9523 19.0447 20.4508 19.609 19.4757C20.0462 18.7203 20.231 17.957 20.1325 17.2453C20.0328 16.5243 19.6508 15.9269 19.0904 15.5168C17.9906 14.7116 16.3082 14.6709 14.6521 15.4161C13.0175 16.1517 10.5043 17.0764 8.27802 17.4742C7.15928 17.6742 6.17238 17.7297 5.42506 17.5975C4.68405 17.4663 4.31082 17.1814 4.14932 16.8046C3.90953 16.2451 3.97956 15.9667 4.06727 15.8118C4.17959 15.6135 4.44646 15.3931 4.97302 15.1851C5.48617 14.9824 6.13709 14.8333 6.86868 14.7024C7.23075 14.6376 7.60194 14.579 7.97729 14.5201L8.02634 14.5124C8.38292 14.4564 8.74365 14.3998 9.09035 14.3386Z" fill="#363538"/>
</svg>
