<svg width="24" height="24" viewBox="0 0 24 24" fill="none" xmlns="http://www.w3.org/2000/svg">
<path d="M5.85462 4.75C5.55793 5.48296 4.83934 6 4 6C2.89543 6 2 5.10457 2 4C2 2.89543 2.89543 2 4 2C4.83934 2 5.55793 2.51704 5.85462 3.25H10V2H14V3.25H18.1454C18.4421 2.51704 19.1607 2 20 2C21.1046 2 22 2.89543 22 4C22 5.10457 21.1046 6 20 6C19.1607 6 18.4421 5.48296 18.1454 4.75H16.9005C19.2234 6.32316 20.75 8.9833 20.75 12V13C20.75 13.4142 20.4142 13.75 20 13.75C19.5858 13.75 19.25 13.4142 19.25 13V12C19.25 8.68967 17.0314 5.89753 14 5.02937V6H10V5.02937C6.9686 5.89753 4.75 8.68967 4.75 12V13C4.75 13.4142 4.41421 13.75 4 13.75C3.58579 13.75 3.25 13.4142 3.25 13V12C3.25 8.9833 4.77662 6.32316 7.09946 4.75H5.85462Z" fill="#363538"/>
<path d="M11.1863 9.1393C11.2064 9.11105 11.2277 9.08423 11.25 9.05884V15.0001C11.25 15.0648 11.2582 15.1275 11.2736 15.1874C10.8123 15.4432 10.5 15.9352 10.5 16.5001C10.5 17.3285 11.1716 18.0001 12 18.0001C12.8284 18.0001 13.5 17.3285 13.5 16.5001C13.5 15.9352 13.1877 15.4432 12.7264 15.1874C12.7418 15.1275 12.75 15.0648 12.75 15.0001V9.05884C12.7723 9.08423 12.7936 9.11105 12.8137 9.1393L16.65 14.5101C16.8653 14.8116 16.8964 15.2073 16.7307 15.5386L14.2764 20.4473C14.107 20.7861 13.7607 21.0001 13.382 21.0001H10.618C10.2393 21.0001 9.893 20.7861 9.72361 20.4473L7.26926 15.5386C7.10361 15.2073 7.13466 14.8116 7.34995 14.5101L11.1863 9.1393Z" fill="#363538"/>
</svg>
