<svg width="24" height="24" viewBox="0 0 24 24" fill="none" xmlns="http://www.w3.org/2000/svg">
<path d="M7.45744 15.5305L5.03003 6.09058L10.4447 11.5053C10.4748 11.5354 10.5069 11.5624 10.5404 11.5863C10.4656 12.0463 10.6056 12.5344 10.9602 12.889C11.546 13.4748 12.4958 13.4748 13.0816 12.889C13.6673 12.3032 13.6673 11.3535 13.0816 10.7677C12.6504 10.3366 12.0222 10.2228 11.487 10.4262L5.86095 4.80018C5.98092 4.78529 6.10708 4.79224 6.23526 4.8252L15.723 7.26491C16.4828 7.46028 17.0582 8.08179 17.1945 8.85433L17.8171 12.3823C17.7802 12.4077 17.7452 12.4368 17.7124 12.4696L12.5601 17.622L9.04685 17.002C8.27431 16.8657 7.65281 16.2903 7.45744 15.5305Z" fill="#363538"/>
<path d="M14.014 18.2894L14.5824 19.4263C14.8876 20.0367 15.7013 20.1688 16.1839 19.6861L19.8787 15.9914C20.3613 15.5088 20.2293 14.6951 19.6188 14.3899L18.4819 13.8214L14.014 18.2894Z" fill="#363538"/>
</svg>
