<svg width="24" height="24" viewBox="0 0 24 24" fill="none" xmlns="http://www.w3.org/2000/svg">
<path d="M9 8.5C9.27614 8.5 9.5 8.27614 9.5 8C9.5 7.72386 9.27614 7.5 9 7.5C8.72386 7.5 8.5 7.72386 8.5 8C8.5 8.27614 8.72386 8.5 9 8.5Z" fill="#363538"/>
<path d="M15.5 16C15.5 16.2761 15.2761 16.5 15 16.5C14.7239 16.5 14.5 16.2761 14.5 16C14.5 15.7239 14.7239 15.5 15 15.5C15.2761 15.5 15.5 15.7239 15.5 16Z" fill="#363538"/>
<path fill-rule="evenodd" clip-rule="evenodd" d="M22 12C22 8.26154 22 6.3923 21.1962 5C20.6695 4.08788 19.9121 3.33046 19 2.80385C17.6077 2 15.7385 2 12 2C8.26154 2 6.3923 2 5 2.80385C4.08788 3.33046 3.33046 4.08788 2.80385 5C2 6.3923 2 8.26154 2 12C2 15.7385 2 17.6077 2.80385 19C3.33046 19.9121 4.08788 20.6695 5 21.1962C6.3923 22 8.26154 22 12 22C15.7385 22 17.6077 22 19 21.1962C19.9121 20.6695 20.6695 19.9121 21.1962 19C22 17.6077 22 15.7385 22 12ZM18.1871 6.87359C18.48 6.5807 18.48 6.10582 18.1871 5.81293C17.8942 5.52004 17.4193 5.52004 17.1264 5.81293L5.8127 17.1266C5.51981 17.4195 5.51981 17.8944 5.8127 18.1873C6.10559 18.4802 6.58047 18.4802 6.87336 18.1873L18.1871 6.87359ZM9 10C10.1046 10 11 9.10457 11 8C11 6.89543 10.1046 6 9 6C7.89543 6 7 6.89543 7 8C7 9.10457 7.89543 10 9 10ZM17 16C17 17.1046 16.1046 18 15 18C13.8954 18 13 17.1046 13 16C13 14.8954 13.8954 14 15 14C16.1046 14 17 14.8954 17 16Z" fill="#363538"/>
</svg>
