<svg width="24" height="24" viewBox="0 0 24 24" fill="none" xmlns="http://www.w3.org/2000/svg">
<path fill-rule="evenodd" clip-rule="evenodd" d="M9.00023 9C10.1048 9 11.0002 8.10457 11.0002 7C11.0002 5.89543 10.1048 5 9.00023 5C7.89566 5 7.00023 5.89543 7.00023 7C7.00023 8.10457 7.89566 9 9.00023 9ZM9.00023 7.5C9.27637 7.5 9.50023 7.27614 9.50023 7C9.50023 6.72386 9.27637 6.5 9.00023 6.5C8.72409 6.5 8.50023 6.72386 8.50023 7C8.50023 7.27614 8.72409 7.5 9.00023 7.5Z" fill="#363538"/>
<path d="M18.1873 5.81293C18.4802 6.10582 18.4802 6.5807 18.1873 6.87359L6.87359 18.1873C6.5807 18.4802 6.10582 18.4802 5.81293 18.1873C5.52004 17.8944 5.52004 17.4195 5.81293 17.1266L17.1266 5.81293C17.4195 5.52004 17.8944 5.52004 18.1873 5.81293Z" fill="#363538"/>
<path fill-rule="evenodd" clip-rule="evenodd" d="M17.0002 17C17.0002 18.1046 16.1048 19 15.0002 19C13.8957 19 13.0002 18.1046 13.0002 17C13.0002 15.8954 13.8957 15 15.0002 15C16.1048 15 17.0002 15.8954 17.0002 17ZM15.5002 17C15.5002 17.2761 15.2764 17.5 15.0002 17.5C14.7241 17.5 14.5002 17.2761 14.5002 17C14.5002 16.7239 14.7241 16.5 15.0002 16.5C15.2764 16.5 15.5002 16.7239 15.5002 17Z" fill="#363538"/>
</svg>
