<svg width="24" height="24" viewBox="0 0 24 24" fill="none" xmlns="http://www.w3.org/2000/svg">
<path d="M9 8.5C9.27614 8.5 9.5 8.27614 9.5 8C9.5 7.72386 9.27614 7.5 9 7.5C8.72386 7.5 8.5 7.72386 8.5 8C8.5 8.27614 8.72386 8.5 9 8.5Z" fill="#363538"/>
<path d="M15.5 16C15.5 16.2761 15.2761 16.5 15 16.5C14.7239 16.5 14.5 16.2761 14.5 16C14.5 15.7239 14.7239 15.5 15 15.5C15.2761 15.5 15.5 15.7239 15.5 16Z" fill="#363538"/>
<path fill-rule="evenodd" clip-rule="evenodd" d="M12 22C17.5228 22 22 17.5228 22 12C22 6.47715 17.5228 2 12 2C6.47715 2 2 6.47715 2 12C2 17.5228 6.47715 22 12 22ZM16.5303 7.46967C16.2374 7.17678 15.7626 7.17678 15.4697 7.46967L6.98439 15.955C6.6915 16.2478 6.6915 16.7227 6.98439 17.0156C7.27728 17.3085 7.75216 17.3085 8.04505 17.0156L16.5303 8.53033C16.8232 8.23744 16.8232 7.76256 16.5303 7.46967ZM9 10C10.1046 10 11 9.10457 11 8C11 6.89543 10.1046 6 9 6C7.89543 6 7 6.89543 7 8C7 9.10457 7.89543 10 9 10ZM17 16C17 17.1046 16.1046 18 15 18C13.8954 18 13 17.1046 13 16C13 14.8954 13.8954 14 15 14C16.1046 14 17 14.8954 17 16Z" fill="#363538"/>
</svg>
