<svg width="24" height="24" viewBox="0 0 24 24" fill="none" xmlns="http://www.w3.org/2000/svg">
<path d="M16.573 4.55868L19.412 7.3977C20.196 8.18167 20.196 9.45274 19.412 10.2367L16.9081 12.7406C16.6877 12.961 16.5217 13.2296 16.4231 13.5253L15.4709 16.382C14.999 17.7978 13.2022 18.2219 12.1469 17.1667L10.0207 15.0405L4.53033 20.5308C4.23744 20.8237 3.76256 20.8237 3.46967 20.5308C3.17678 20.2379 3.17678 19.7631 3.46967 19.4702L8.96004 13.9798L6.80401 11.8238C5.74877 10.7685 6.17294 8.97171 7.58869 8.49979L10.4454 7.54756C10.7411 7.449 11.0097 7.28297 11.2301 7.0626L13.734 4.55868C14.518 3.77471 15.789 3.77471 16.573 4.55868Z" fill="#363538"/>
</svg>
