<svg width="24" height="24" viewBox="0 0 24 24" fill="none" xmlns="http://www.w3.org/2000/svg">
<path d="M12 22C17.5228 22 22 17.5228 22 12C22 6.47715 17.5228 2 12 2C6.47715 2 2 6.47715 2 12C2 15.9045 4.23771 19.2863 7.50063 20.933L8.23409 19.2086C8.6401 18.2367 9.26523 16.6945 9.79912 15.1836C9.23657 13.969 9.31528 12.6389 9.59274 11.6926C9.76462 11.1064 10.0541 10.52 10.4531 10.1916C10.654 10.0263 11.0381 9.80879 11.4954 9.96506C11.9279 10.1128 12.123 10.4972 12.2115 10.7627C12.3088 11.0544 12.3095 11.3845 12.2867 11.6709C12.2625 11.9754 12.2032 12.3178 12.1234 12.6766C11.9684 13.3726 11.7217 14.1912 11.4405 15.0258C11.4807 15.0804 11.5233 15.134 11.5684 15.1864C12.2438 15.9713 13.5108 16.0826 14.7414 15.3243C15.9308 14.5913 16.9096 13.1053 16.752 11.0574C16.6467 9.68853 15.9478 8.70666 14.9757 8.09587C13.9856 7.4737 12.7031 7.23551 11.4927 7.42808C10.287 7.61989 9.21245 8.22729 8.56764 9.22672C7.92908 10.2165 7.64034 11.7029 8.22257 13.7989C8.33344 14.198 8.09977 14.6114 7.70067 14.7222C7.30157 14.8331 6.88816 14.5994 6.7773 14.2003C6.10956 11.7965 6.38331 9.84555 7.3072 8.41353C8.22486 6.99118 9.71279 6.19237 11.257 5.94671C12.7965 5.7018 14.4515 5.99486 15.7738 6.8258C17.1143 7.66812 18.1029 9.06121 18.2476 10.9423C18.4498 13.5702 17.1788 15.5842 15.5283 16.6013C14.09 17.4876 12.2095 17.6707 10.8804 16.6006C10.4218 17.8338 9.94593 19.0023 9.61723 19.7891L9.61536 19.7936L8.88699 21.506C9.86672 21.8266 10.9131 22 12 22Z" fill="#363538"/>
</svg>
