<svg width="24" height="24" viewBox="0 0 24 24" fill="none" xmlns="http://www.w3.org/2000/svg">
<path d="M19.8204 9.79432C21.1773 12.1445 20.9476 16.0388 20.6756 18.2238C20.558 19.1681 19.7393 19.8369 18.7877 19.8345L18.5492 19.8339C18.5555 19.7964 18.5629 19.7515 18.5712 19.6996C18.5983 19.531 18.6346 19.2889 18.6729 18.9904C18.7493 18.3942 18.8339 17.5678 18.8661 16.6481C18.9287 14.8571 18.8022 12.5306 17.8719 10.9193C16.9417 9.30806 14.9901 8.03525 13.4077 7.19398C12.5951 6.76199 11.8372 6.42207 11.2827 6.19015C11.005 6.07399 10.7771 5.98445 10.6176 5.92353C10.5685 5.9048 10.5259 5.88877 10.4902 5.87548L10.609 5.66857C11.0828 4.84333 12.0713 4.46868 12.9479 4.839C14.9761 5.69589 18.4636 7.44417 19.8204 9.79432Z" fill="#363538"/>
<path fill-rule="evenodd" clip-rule="evenodd" d="M9.73789 7.18605L3.35736 18.3007C2.9752 18.9664 3.45454 19.7967 4.22215 19.7986L17.038 19.8302C17.0382 19.7856 17.0423 19.7404 17.0508 19.6949L17.0512 19.6927L17.053 19.6826L17.0608 19.6387C17.0676 19.5993 17.0777 19.5398 17.0901 19.4623C17.115 19.3074 17.149 19.081 17.185 18.7997C17.2573 18.2362 17.3368 17.4575 17.367 16.5957C17.429 14.8237 17.2726 12.8813 16.5729 11.6693C15.8732 10.4574 14.2692 9.35077 12.7036 8.51844C11.9421 8.11363 11.228 7.7932 10.7039 7.57398C10.4422 7.46455 10.2291 7.38083 10.0825 7.32486C10.0093 7.29688 9.95273 7.27588 9.91513 7.26209L9.87328 7.24688L9.86358 7.2434L9.86164 7.24271C9.81807 7.22731 9.77662 7.20823 9.73789 7.18605ZM9.60952 17.0054C9.40121 17.8932 8.65655 18.4778 7.94629 18.3112C7.23603 18.1445 6.82911 17.2897 7.03743 16.4019C7.24574 15.5141 7.99039 14.9294 8.70065 15.0961C9.41091 15.2627 9.81783 16.1175 9.60952 17.0054ZM13.9463 18.3112C14.6566 18.4778 15.4012 17.8932 15.6095 17.0054C15.8178 16.1175 15.4109 15.2627 14.7007 15.0961C13.9904 14.9294 13.2457 15.5141 13.0374 16.4019C12.8291 17.2897 13.236 18.1445 13.9463 18.3112ZM12.6095 12.0054C12.4012 12.8932 11.6566 13.4778 10.9463 13.3112C10.236 13.1445 9.82911 12.2897 10.0374 11.4019C10.2457 10.5141 10.9904 9.92942 11.7007 10.0961C12.4109 10.2627 12.8178 11.1175 12.6095 12.0054Z" fill="#363538"/>
</svg>
