<svg width="24" height="24" viewBox="0 0 24 24" fill="none" xmlns="http://www.w3.org/2000/svg">
<path d="M12.515 5.29902C12.2149 4.74668 11.8826 4.23386 11.5172 3.78812C10.7385 2.83807 9.72047 2.08715 8.45687 2.05138C7.19319 2.01561 5.92063 2.70185 4.64861 4.07987C4.36766 4.38423 4.38664 4.85873 4.691 5.13968C4.99537 5.42063 5.46986 5.40165 5.75081 5.09729C6.87879 3.87531 7.76456 3.53238 8.41443 3.55078C9.06437 3.56918 9.71511 3.95575 10.3572 4.73904C10.77 5.24267 11.1422 5.86626 11.471 6.55116C11.3708 6.46138 11.2677 6.37486 11.1618 6.29205C10.3921 5.69018 9.45362 5.27061 8.359 5.25075C7.26613 5.23092 6.09895 5.61096 4.87205 6.46288C4.53181 6.69912 4.44751 7.16645 4.68376 7.50669C4.92 7.84692 5.38733 7.93123 5.72757 7.69498C6.75949 6.97846 7.62368 6.73766 8.33179 6.7505C9.03816 6.76332 9.67031 7.02994 10.2378 7.4737C11.1064 8.15285 11.7763 9.21294 12.2143 10.2188C12.2224 10.4951 12.2337 10.7572 12.2474 11H6.99976C6.44747 11 5.99976 11.4477 5.99976 12V12.0933C5.99976 12.6958 6.06783 13.2965 6.20269 13.8837L7.70995 20.4476C7.91856 21.3561 8.7271 22 9.65922 22H15.3403C16.2724 22 17.081 21.3561 17.2896 20.4476L18.7968 13.8837C18.9317 13.2965 18.9998 12.6958 18.9998 12.0933V12C18.9998 11.4477 18.552 11 17.9998 11H14.7637C15.0134 9.74801 15.5189 8.21658 16.2106 7.35115C16.5633 6.90994 16.8696 6.75752 17.118 6.75031C17.366 6.74311 17.8056 6.87331 18.4423 7.58068C18.7194 7.88855 19.1937 7.91348 19.5015 7.63637C19.8094 7.35925 19.8343 6.88504 19.5572 6.57717C18.7822 5.71611 17.9522 5.22547 17.0745 5.25094C16.1973 5.27641 15.522 5.81018 15.0389 6.4146C14.5508 7.02522 14.163 7.82461 13.8669 8.63901C13.8206 8.48543 13.7724 8.33106 13.7221 8.17636C13.7521 7.4056 13.816 6.62678 13.9279 5.92625C14.0592 5.10432 14.2452 4.46715 14.4697 4.07817C14.5794 3.88812 14.6712 3.8053 14.7237 3.77326C14.7568 3.753 14.7859 3.74254 14.8527 3.7559C15.2589 3.83714 15.654 3.57373 15.7352 3.16756C15.8165 2.76139 15.553 2.36627 15.1469 2.28503C14.7137 2.1984 14.3 2.27439 13.9419 2.49307C13.6031 2.69997 13.3551 3.00854 13.1705 3.32839C12.861 3.86476 12.6554 4.56435 12.515 5.29902Z" fill="#363538"/>
</svg>
