<svg width="24" height="24" viewBox="0 0 24 24" fill="none" xmlns="http://www.w3.org/2000/svg">
<path d="M15.7353 2.92257C15.6925 2.51057 15.3238 2.21128 14.9118 2.25407C14.4998 2.29687 14.2005 2.66556 14.2433 3.07755C14.2993 3.61635 14.0594 5.15161 12.3491 6.11059C11.9411 6.33939 11.6048 6.60592 11.3303 6.89621C11.2383 6.68949 11.0937 6.51075 10.9149 6.36708C10.0583 5.67886 8.73744 5.19694 6.89783 5.44471C5.72825 5.60224 5.08854 5.64034 4.75812 5.66001C4.7094 5.66291 4.66734 5.66542 4.63137 5.66784L4.62297 5.6684C4.57022 5.67189 4.45854 5.67927 4.36031 5.70393C4.3275 5.71216 4.26953 5.72852 4.20335 5.76027C4.14344 5.78901 4.0199 5.85695 3.91672 5.99632C3.79398 6.16211 3.74471 6.36912 3.77745 6.57034C3.80492 6.73919 3.88185 6.85472 3.92005 6.9061C3.98968 6.99976 4.06926 7.06045 4.08761 7.07445L4.08963 7.07599C4.11558 7.09593 4.14326 7.11526 4.15761 7.12528L4.16028 7.12714C4.19552 7.15176 4.21951 7.16864 4.24569 7.18984C4.26925 7.20892 4.29395 7.22654 4.31965 7.24263C5.43275 7.9394 7.36985 8.64015 9.85712 8.7719C10.0306 8.78109 10.2012 8.76349 10.3624 8.72152C10.3565 8.74736 10.3508 8.77319 10.3454 8.79899C10.1719 9.62602 10.2588 10.4245 10.4192 11H6.00024C5.44796 11 5.00024 11.4477 5.00024 12V12.0933C5.00024 12.6958 5.06832 13.2965 5.20317 13.8837L6.71044 20.4476C6.91905 21.3561 7.72758 22 8.6597 22H14.3408C15.2729 22 16.0814 21.3561 16.2901 20.4476L17.7973 13.8837C17.9322 13.2965 18.0002 12.6958 18.0002 12.0933V12C18.0002 11.4477 17.5525 11 17.0002 11H11.9555C11.9555 10.9164 11.9414 10.8314 11.9117 10.7481C11.7827 10.3864 11.6783 9.75114 11.8134 9.10701C11.8858 8.76184 12.0262 8.41314 12.2757 8.09479C12.4906 8.35714 12.7963 8.55057 13.1507 8.63703C16.4873 9.451 19.3007 9.24645 20.9755 8.74891C21.0046 8.74028 21.0331 8.72989 21.0609 8.71781C21.1097 8.6966 21.1529 8.68127 21.2056 8.66268L21.2091 8.66144C21.2311 8.65367 21.2681 8.64062 21.3027 8.62663L21.3052 8.62559C21.3301 8.6156 21.4263 8.57691 21.5207 8.50355C21.5722 8.4635 21.6778 8.37199 21.7498 8.21587C21.8355 8.02996 21.8433 7.81655 21.7691 7.6232C21.7066 7.46053 21.605 7.36121 21.554 7.31664C21.4977 7.2675 21.4449 7.23532 21.4137 7.21764C21.3175 7.16298 21.1975 7.12089 21.1299 7.09717L21.1223 7.0945C21.0781 7.07899 21.0263 7.06125 20.9661 7.04064C20.556 6.90014 19.7566 6.62632 18.3302 6.0158C17.1541 5.51244 16.0991 5.32507 15.1807 5.34324C15.6853 4.41454 15.7946 3.49371 15.7353 2.92257Z" fill="#363538"/>
</svg>
