<svg width="24" height="24" viewBox="0 0 24 24" fill="none" xmlns="http://www.w3.org/2000/svg">
<path d="M2.25 3.5C2.25 3.08579 2.58579 2.75 3 2.75H20C20.4142 2.75 20.75 3.08579 20.75 3.5C20.75 3.91422 20.4142 4.25 20 4.25L3 4.25C2.58579 4.25 2.25 3.91421 2.25 3.5Z" fill="#363538"/>
<path fill-rule="evenodd" clip-rule="evenodd" d="M21.6208 11.5838L21.6223 11.586C21.7769 11.8159 21.7922 12.1126 21.662 12.3572C21.5317 12.6018 21.2771 12.7547 21 12.7547H17.75V16.9999C17.75 19.071 16.0711 20.7499 14 20.7499H12.9988C11.4807 20.7499 10.25 19.5192 10.25 18.0011C10.25 16.483 11.4807 15.2523 12.9988 15.2523H16.25V10.9554C16.25 10.0465 16.9826 9.19676 18.0073 9.27699C18.4872 9.31456 19.1463 9.40711 19.6686 9.66808C20.2227 9.94497 20.7209 10.4612 21.0442 10.8372C21.2155 11.0366 21.358 11.2209 21.4579 11.3556C21.508 11.4232 21.5479 11.479 21.5758 11.5187C21.5897 11.5386 21.6007 11.5545 21.6086 11.5659L21.6179 11.5796L21.6208 11.5838Z" fill="#363538"/>
<path d="M3 7.25C2.58579 7.25 2.25 7.58579 2.25 8C2.25 8.41421 2.58579 8.75 3 8.75L15 8.75C15.4142 8.75 15.75 8.41421 15.75 8C15.75 7.58579 15.4142 7.25 15 7.25L3 7.25Z" fill="#363538"/>
<path d="M2.25 13C2.25 12.5858 2.58579 12.25 3 12.25H12C12.4142 12.25 12.75 12.5858 12.75 13C12.75 13.4142 12.4142 13.75 12 13.75H3C2.58579 13.75 2.25 13.4142 2.25 13Z" fill="#363538"/>
<path d="M3 17.25C2.58579 17.25 2.25 17.5858 2.25 18C2.25 18.4142 2.58579 18.75 3 18.75H9C9.41421 18.75 9.75 18.4142 9.75 18C9.75 17.5858 9.41421 17.25 9 17.25H3Z" fill="#363538"/>
</svg>
