<svg width="24" height="24" viewBox="0 0 24 24" fill="none" xmlns="http://www.w3.org/2000/svg">
<path d="M2.25 3.5C2.25 3.08579 2.58579 2.75 3 2.75H20C20.4142 2.75 20.75 3.08579 20.75 3.5C20.75 3.91422 20.4142 4.25 20 4.25L3 4.25C2.58579 4.25 2.25 3.91421 2.25 3.5Z" fill="#363538"/>
<path d="M18 10.75C18.4142 10.75 18.75 11.0858 18.75 11.5V14.75H22C22.4142 14.75 22.75 15.0858 22.75 15.5C22.75 15.9142 22.4142 16.25 22 16.25H18.75V19.5C18.75 19.9142 18.4142 20.25 18 20.25C17.5858 20.25 17.25 19.9142 17.25 19.5V16.25H14C13.5858 16.25 13.25 15.9142 13.25 15.5C13.25 15.0858 13.5858 14.75 14 14.75H17.25V11.5C17.25 11.0858 17.5858 10.75 18 10.75Z" fill="#363538"/>
<path d="M3 7.25C2.58579 7.25 2.25 7.58579 2.25 8C2.25 8.41421 2.58579 8.75 3 8.75L20 8.75C20.4142 8.75 20.75 8.41422 20.75 8C20.75 7.58579 20.4142 7.25 20 7.25L3 7.25Z" fill="#363538"/>
<path d="M2.25 13C2.25 12.5858 2.58579 12.25 3 12.25H12C12.4142 12.25 12.75 12.5858 12.75 13C12.75 13.4142 12.4142 13.75 12 13.75H3C2.58579 13.75 2.25 13.4142 2.25 13Z" fill="#363538"/>
<path d="M3 17.25C2.58579 17.25 2.25 17.5858 2.25 18C2.25 18.4142 2.58579 18.75 3 18.75H12C12.4142 18.75 12.75 18.4142 12.75 18C12.75 17.5858 12.4142 17.25 12 17.25H3Z" fill="#363538"/>
</svg>
