<svg width="24" height="24" viewBox="0 0 24 24" fill="none" xmlns="http://www.w3.org/2000/svg">
<path fill-rule="evenodd" clip-rule="evenodd" d="M7.94709 3.16584L12.1331 5.67958C12.4834 5.88989 12.6977 6.26871 12.6977 6.6775V8.27595C12.6977 8.66159 12.3853 8.97421 12 8.97421C11.6147 8.97421 11.3023 8.66159 11.3023 8.27595V6.80928L7.34884 4.4352L3.39535 6.80928V11.6047L7.34884 13.9787L16.0529 8.75191C16.4211 8.53079 16.8812 8.53079 17.2494 8.75191L21.4355 11.2656C21.7857 11.476 22 11.8548 22 12.2636V17.3225C22 17.7313 21.7857 18.1101 21.4355 18.3204L17.2494 20.8342C16.8812 21.0553 16.4211 21.0553 16.0529 20.8342L11.8669 18.3204C11.5166 18.1101 11.3023 17.7313 11.3023 17.3225V15.724C11.3023 15.3384 11.6147 15.0258 12 15.0258C12.3853 15.0258 12.6977 15.3384 12.6977 15.724V17.1907L16.6512 19.5648L20.6047 17.1907V12.3953L16.6512 10.0213L7.94709 15.2481C7.57885 15.4692 7.11882 15.4692 6.75059 15.2481L2.56454 12.7344C2.2143 12.524 2 12.1452 2 11.7364V6.6775C2 6.26871 2.2143 5.88989 2.56454 5.67958L6.75059 3.16584C7.11882 2.94472 7.57885 2.94472 7.94709 3.16584Z" fill="#363538"/>
</svg>
