<svg width="24" height="24" viewBox="0 0 24 24" fill="none" xmlns="http://www.w3.org/2000/svg">
<path d="M7 7C7 4.23858 9.23858 2 12 2C14.7614 2 17 4.23858 17 7V11.2658C16.9863 11.2658 16.9725 11.2661 16.9588 11.2669C16.8286 11.2741 16.7037 11.282 16.5833 11.2896C15.9392 11.3306 15.4235 11.3633 14.906 11.227C14.3612 11.0836 13.7602 10.7265 13.1381 9.72059C11.4734 7.02891 8.72144 7.15634 7.1762 7.22789C7.11564 7.23069 7.05671 7.23342 7 7.23588V7Z" fill="#363538"/>
<path d="M16.7303 12.7845C16.8237 12.7781 16.9138 12.772 17 12.767V15C17 16.1046 16.1046 17 15 17H12.75V21C12.75 21.4142 12.4142 21.75 12 21.75C11.5858 21.75 11.25 21.4142 11.25 21V17H9C7.89543 17 7 16.1046 7 15V8.73657C7.01052 8.73657 7.02104 8.73634 7.03155 8.7359L7.14302 8.73116C8.76612 8.66177 10.6692 8.58041 11.8623 10.5096C12.6517 11.7859 13.548 12.4205 14.524 12.6776C15.2987 12.8816 16.0926 12.8277 16.7303 12.7845Z" fill="#363538"/>
</svg>
