<svg width="24" height="24" viewBox="0 0 24 24" fill="none" xmlns="http://www.w3.org/2000/svg">
<path fill-rule="evenodd" clip-rule="evenodd" d="M10.3027 4.15163C11.8273 3.38932 13.6435 3.50239 15.0617 4.44792L17.416 6.01744C17.7607 6.24721 17.8538 6.71286 17.624 7.0575C17.3943 7.40215 16.9286 7.49528 16.584 7.26552L14.2297 5.69599C13.2593 5.04906 12.0166 4.97169 10.9735 5.49327L9.54656 6.20673C8.56723 6.69639 7.90858 7.64098 7.77507 8.71006C7.7508 8.90441 7.77792 9.13078 7.84909 9.41234L8.58402 12.3201H15.5714C15.9856 12.3201 16.3214 12.6558 16.3214 13.0701C16.3214 13.4843 15.9856 13.8201 15.5714 13.8201H8.59953L7.7807 17.4463C7.75603 17.5555 7.75459 17.6107 7.75769 17.6387C7.82681 18.2628 8.35718 18.7486 9 18.7486H17C17.4142 18.7486 17.75 19.0844 17.75 19.4986C17.75 19.9128 17.4142 20.2486 17 20.2486H9C7.58419 20.2486 6.41916 19.1793 6.26681 17.8038C6.23728 17.5372 6.27692 17.2958 6.31754 17.1159L7.06176 13.8201H6C5.58579 13.8201 5.25 13.4843 5.25 13.0701C5.25 12.6558 5.58579 12.3201 6 12.3201H7.03685L6.39482 9.77991C6.304 9.42059 6.22899 8.98576 6.28663 8.52418C6.48179 6.96141 7.44415 5.58088 8.87574 4.86509L10.3027 4.15163Z" fill="#363538"/>
</svg>
