<svg width="24" height="24" viewBox="0 0 24 24" fill="none" xmlns="http://www.w3.org/2000/svg">
<path d="M15.9392 15.9269C18.8068 15.4761 21 12.9942 21 10C21 6.68629 18.3138 4 15 4C12.3846 4 10.16 5.67346 9.33862 8.00804C13.0474 8.18467 16 11.2475 16 15C16 15.3142 15.9793 15.6236 15.9392 15.9269Z" fill="#363538"/>
<path fill-rule="evenodd" clip-rule="evenodd" d="M9 21C12.3137 21 15 18.3137 15 15C15 11.6863 12.3137 9 9 9C5.68629 9 3 11.6863 3 15C3 18.3137 5.68629 21 9 21ZM10.1299 12.1395C9.56578 11.6829 8.80479 11.6168 8.17575 11.9988L7.78659 12.235C7.32864 12.5131 7.03077 12.9727 6.90085 13.4606C6.7798 13.9153 6.86756 14.3533 6.92245 14.617L6.94219 14.7118C6.7086 14.8389 6.55005 15.0865 6.55005 15.3711C6.55005 15.6623 6.71598 15.9147 6.95845 16.039L6.86795 16.5256C6.84557 16.6457 6.79669 16.9081 6.86387 17.1928C6.98486 17.7054 7.42579 18.25 8.11823 18.25H10.3C10.7143 18.25 11.05 17.9142 11.05 17.5C11.05 17.0858 10.7143 16.75 10.3 16.75H8.35194L8.46889 16.1211H9.91044C10.3247 16.1211 10.6604 15.7853 10.6604 15.3711C10.6604 14.9569 10.3247 14.6211 9.91044 14.6211H8.45546L8.39098 14.3113C8.33425 14.0388 8.33048 13.9212 8.35036 13.8465C8.39777 13.6685 8.4909 13.5622 8.56504 13.5172L8.9542 13.2809C9.02546 13.2377 9.0987 13.2347 9.18608 13.3054L9.82816 13.8252C10.1501 14.0858 10.6224 14.0361 10.883 13.7141C11.1436 13.3922 11.0939 12.9199 10.7719 12.6593L10.1299 12.1395Z" fill="#363538"/>
</svg>
