<svg width="24" height="24" viewBox="0 0 24 24" fill="none" xmlns="http://www.w3.org/2000/svg">
<path d="M12.75 3C12.75 2.58579 12.4142 2.25 12 2.25C11.5858 2.25 11.25 2.58579 11.25 3V11C11.25 11.4142 11.5858 11.75 12 11.75C12.4142 11.75 12.75 11.4142 12.75 11V3Z" fill="#363538"/>
<path d="M9.35068 4.38746C9.94173 4.20568 10.5 4.679 10.5 5.29737V11C10.5 11.8284 11.1716 12.5 12 12.5C12.8284 12.5 13.5 11.8284 13.5 11V5.29737C13.5 4.679 14.0583 4.20568 14.6493 4.38746C18.3269 5.51854 21 8.9427 21 12.9912C21 17.9618 16.9706 21.9912 12 21.9912C7.02944 21.9912 3 17.9618 3 12.9912C3 8.9427 5.67314 5.51854 9.35068 4.38746Z" fill="#363538"/>
</svg>
