<svg width="24" height="24" viewBox="0 0 24 24" fill="none" xmlns="http://www.w3.org/2000/svg">
<path fill-rule="evenodd" clip-rule="evenodd" d="M18.2473 4.93507C18.2831 5.34773 17.9777 5.71134 17.5651 5.74723L6.74897 6.68775C6.64596 6.69671 6.55909 6.76817 6.53043 6.86752L5.87282 9.14724C7.91334 8.99498 10.7351 9.02531 13.3771 9.77334C16.564 10.6757 19.6009 12.6656 20.5389 16.7188C20.795 17.8259 19.9001 18.75 18.8759 18.75H4.25531C3.12795 18.75 2.29933 17.7012 2.55195 16.6065L4.11544 9.8314C4.11848 9.81824 4.12187 9.80516 4.12562 9.79217L5.08919 6.45178C5.28981 5.7563 5.89791 5.2561 6.61903 5.19339L17.4351 4.25286C17.8478 4.21698 18.2114 4.52242 18.2473 4.93507Z" fill="#363538"/>
</svg>
