<svg width="24" height="24" viewBox="0 0 24 24" fill="none" xmlns="http://www.w3.org/2000/svg">
<path fill-rule="evenodd" clip-rule="evenodd" d="M22 12C22 17.5228 17.5228 22 12 22C6.47715 22 2 17.5228 2 12C2 6.47715 6.47715 2 12 2C17.5228 2 22 6.47715 22 12ZM10.1723 8.13379C11.4363 7.28183 13.1194 8.15671 13.1972 9.66307C13.1917 9.55774 13.1785 9.45549 13.158 9.3567L14.9724 8.13379C16.2665 7.2615 18 8.19946 18 9.77202V14.2276C18 15.8001 16.2665 16.7381 14.9724 15.8658L13.158 14.6429C13.1773 14.55 13.1901 14.454 13.1961 14.3553C13.1054 15.8501 11.431 16.7142 10.1723 15.8658L7.25 13.8961V15C7.25 15.4142 6.91421 15.75 6.5 15.75C6.08579 15.75 5.75 15.4142 5.75 15L5.75 9C5.75 8.58579 6.08579 8.25 6.5 8.25C6.91421 8.25 7.25 8.58579 7.25 9V10.1035L10.1723 8.13379Z" fill="#363538"/>
</svg>
