<svg width="24" height="24" viewBox="0 0 24 24" fill="none" xmlns="http://www.w3.org/2000/svg">
<path d="M22 8.28703V15.713C22 18.3339 19.1109 19.8972 16.9539 18.4434L13.93 16.4052C13.4768 18.595 10.9133 19.764 8.95394 18.4434L3.4453 14.7304C3.37784 14.6849 3.31274 14.6375 3.25 14.5884V18C3.25 18.4142 2.91421 18.75 2.5 18.75C2.08579 18.75 1.75 18.4142 1.75 18V6C1.75 5.58579 2.08579 5.25 2.5 5.25C2.91421 5.25 3.25 5.58579 3.25 6V9.41165C3.31274 9.36248 3.37784 9.31509 3.4453 9.26962L8.95394 5.55665C10.9133 4.23601 13.4768 5.40499 13.93 7.59484L16.9539 5.55665C19.1109 4.10282 22 5.6661 22 8.28703Z" fill="#363538"/>
</svg>
