<svg width="24" height="24" viewBox="0 0 24 24" fill="none" xmlns="http://www.w3.org/2000/svg">
<path fill-rule="evenodd" clip-rule="evenodd" d="M2 7C2 4.79086 3.79086 3 6 3H18C20.2091 3 22 4.79086 22 7V13C22 15.2091 20.2091 17 18 17H17.5V13C17.5 12.4477 17.0523 12 16.5 12H7.5C6.94772 12 6.5 12.4477 6.5 13V17H6C3.79086 17 2 15.2091 2 13V7ZM7 8C7.55228 8 8 7.55228 8 7C8 6.44772 7.55228 6 7 6C6.44772 6 6 6.44772 6 7C6 7.55228 6.44772 8 7 8ZM5.25 10C5.25 9.58579 5.58579 9.25 6 9.25H18C18.4142 9.25 18.75 9.58579 18.75 10C18.75 10.4142 18.4142 10.75 18 10.75H6C5.58579 10.75 5.25 10.4142 5.25 10Z" fill="#363538"/>
<path fill-rule="evenodd" clip-rule="evenodd" d="M7.5 19V13H9.25C9.25 13.4142 9.58579 13.75 10 13.75H14C14.4142 13.75 14.75 13.4142 14.75 13H16.5V19C16.5 20.1046 15.6046 21 14.5 21H9.5C8.39543 21 7.5 20.1046 7.5 19ZM10 15.25C9.58579 15.25 9.25 15.5858 9.25 16C9.25 16.4142 9.58579 16.75 10 16.75H12C12.4142 16.75 12.75 16.4142 12.75 16C12.75 15.5858 12.4142 15.25 12 15.25H10Z" fill="#363538"/>
</svg>
