<svg width="24" height="24" viewBox="0 0 24 24" fill="none" xmlns="http://www.w3.org/2000/svg">
<path d="M8.5 9C8.5 8.72386 8.72386 8.5 9 8.5H15C15.2761 8.5 15.5 8.72386 15.5 9V15C15.5 15.2761 15.2761 15.5 15 15.5H9C8.72386 15.5 8.5 15.2761 8.5 15V9Z" fill="#363538"/>
<path fill-rule="evenodd" clip-rule="evenodd" d="M8 1.75C8.41421 1.75 8.75 2.08579 8.75 2.5V4H9.75V2.5C9.75 2.08579 10.0858 1.75 10.5 1.75C10.9142 1.75 11.25 2.08579 11.25 2.5V4H12.75V2.5C12.75 2.08579 13.0858 1.75 13.5 1.75C13.9142 1.75 14.25 2.08579 14.25 2.5V4H15.25V2.5C15.25 2.08579 15.5858 1.75 16 1.75C16.4142 1.75 16.75 2.08579 16.75 2.5V4.0702C18.3577 4.37517 19.6248 5.64229 19.9298 7.25H21.5C21.9142 7.25 22.25 7.58579 22.25 8C22.25 8.41421 21.9142 8.75 21.5 8.75H20V9.75H21.5C21.9142 9.75 22.25 10.0858 22.25 10.5C22.25 10.9142 21.9142 11.25 21.5 11.25H20V12.75H21.5C21.9142 12.75 22.25 13.0858 22.25 13.5C22.25 13.9142 21.9142 14.25 21.5 14.25H20V15.25H21.5C21.9142 15.25 22.25 15.5858 22.25 16C22.25 16.4142 21.9142 16.75 21.5 16.75H19.9298C19.6248 18.3577 18.3577 19.6248 16.75 19.9298V21.5C16.75 21.9142 16.4142 22.25 16 22.25C15.5858 22.25 15.25 21.9142 15.25 21.5V20H14.25V21.5C14.25 21.9142 13.9142 22.25 13.5 22.25C13.0858 22.25 12.75 21.9142 12.75 21.5V20H11.25V21.5C11.25 21.9142 10.9142 22.25 10.5 22.25C10.0858 22.25 9.75 21.9142 9.75 21.5V20H8.75V21.5C8.75 21.9142 8.41421 22.25 8 22.25C7.58579 22.25 7.25 21.9142 7.25 21.5V19.9298C5.64229 19.6248 4.37517 18.3577 4.0702 16.75H2.5C2.08579 16.75 1.75 16.4142 1.75 16C1.75 15.5858 2.08579 15.25 2.5 15.25H4V14.25H2.5C2.08579 14.25 1.75 13.9142 1.75 13.5C1.75 13.0858 2.08579 12.75 2.5 12.75H4V11.25H2.5C2.08579 11.25 1.75 10.9142 1.75 10.5C1.75 10.0858 2.08579 9.75 2.5 9.75H4V8.75H2.5C2.08579 8.75 1.75 8.41421 1.75 8C1.75 7.58579 2.08579 7.25 2.5 7.25H4.0702C4.37517 5.64229 5.64229 4.37517 7.25 4.0702V2.5C7.25 2.08579 7.58579 1.75 8 1.75ZM7 9C7 7.89543 7.89543 7 9 7H15C16.1046 7 17 7.89543 17 9V15C17 16.1046 16.1046 17 15 17H9C7.89543 17 7 16.1046 7 15V9Z" fill="#363538"/>
</svg>
