<svg width="24" height="24" viewBox="0 0 24 24" fill="none" xmlns="http://www.w3.org/2000/svg">
<path d="M16.5 8.88218C15.5425 7.94708 15.3 6.44921 16 5.23683C16.8284 3.80195 18.6632 3.31033 20.0981 4.13875C21.533 4.96718 22.0246 6.80195 21.1962 8.23683C20.4962 9.44921 19.0778 9.98819 17.7892 9.62646C17.7772 9.65475 17.7634 9.68262 17.7476 9.7099L15.7476 13.174C15.7076 13.2433 15.6582 13.3038 15.6019 13.3549C18.2109 14.6727 20 17.3774 20 20.5001L21.25 20.5001C21.6642 20.5001 22 20.8359 22 21.2501C22 21.6643 21.6642 22.0001 21.25 22.0001H2.75C2.33579 22.0001 2 21.6643 2 21.2501C2 20.8359 2.33579 20.5001 2.75 20.5001L4 20.5001C4 16.0818 7.58172 12.5001 12 12.5001C12.8177 12.5001 13.6068 12.6228 14.3498 12.8507C14.3397 12.7068 14.371 12.5584 14.4486 12.424L16.4486 8.9599C16.4643 8.93262 16.4815 8.9067 16.5 8.88218Z" fill="#363538"/>
</svg>
