<svg width="24" height="24" viewBox="0 0 24 24" fill="none" xmlns="http://www.w3.org/2000/svg">
<path d="M5.907 9.62647C4.6184 9.98819 3.19998 9.44921 2.50001 8.23683C1.67159 6.80195 2.16321 4.96718 3.59809 4.13875C5.03297 3.31033 6.86774 3.80195 7.69617 5.23683C8.39614 6.44921 8.15369 7.94708 7.19614 8.88218C7.21465 8.9067 7.23186 8.93262 7.24761 8.95991L9.24761 12.424C9.34429 12.5915 9.36905 12.7807 9.33149 12.9559C10.1661 12.6607 11.0643 12.5001 12 12.5001C16.4183 12.5001 20 16.0818 20 20.5001H21.25C21.6642 20.5001 22 20.8359 22 21.2501C22 21.6643 21.6642 22.0001 21.25 22.0001H2.75C2.33579 22.0001 2 21.6643 2 21.2501C2 20.8359 2.33579 20.5001 2.75 20.5001H4C4 17.4487 5.70831 14.7964 8.2207 13.4473C8.11124 13.3837 8.01641 13.2915 7.94857 13.174L5.94857 9.70991C5.93282 9.68262 5.91897 9.65475 5.907 9.62647Z" fill="#363538"/>
</svg>
