<svg width="24" height="24" viewBox="0 0 24 24" fill="none" xmlns="http://www.w3.org/2000/svg">
<path d="M14.0303 3.03033C14.3232 2.73744 14.3232 2.26256 14.0303 1.96967C13.7374 1.67678 13.2626 1.67678 12.9697 1.96967L10.4697 4.46968C10.4469 4.49241 10.4258 4.51646 10.4064 4.54164C10.3219 4.65087 10.2669 4.78405 10.2533 4.92927C10.2511 4.95268 10.25 4.97629 10.25 5.00001C10.25 5.16216 10.3025 5.31889 10.3981 5.44748C10.4198 5.47663 10.4437 5.50434 10.4697 5.53034L12.9697 8.03033C13.2626 8.32322 13.7374 8.32322 14.0303 8.03033C14.3232 7.73744 14.3232 7.26256 14.0303 6.96967L12.8107 5.75H14C15.795 5.75 17.25 7.20507 17.25 9V16C17.25 16.0315 17.252 16.0626 17.2558 16.093C15.9589 16.4241 15 17.6 15 19C15 20.6569 16.3431 22 18 22C19.6569 22 21 20.6569 21 19C21 17.6001 20.0411 16.4241 18.7443 16.0931C18.7481 16.0626 18.75 16.0315 18.75 16V9C18.75 6.37665 16.6234 4.25 14 4.25H12.8107L14.0303 3.03033Z" fill="#363538"/>
<path d="M6.75 7.90549C8.04392 7.57245 9 6.39788 9 5C9 3.34315 7.65685 2 6 2C4.34315 2 3 3.34315 3 5C3 6.39788 3.95608 7.57245 5.25 7.90549V16.0945C3.95608 16.4275 3 17.6021 3 19C3 20.6569 4.34315 22 6 22C7.65685 22 9 20.6569 9 19C9 17.6021 8.04392 16.4275 6.75 16.0945V7.90549Z" fill="#363538"/>
</svg>
