<svg width="24" height="24" viewBox="0 0 24 24" fill="none" xmlns="http://www.w3.org/2000/svg">
<path d="M5.28169 5.5H8.70423C9.96437 5.5 10.9859 6.86847 10.9859 8.55672V10.6137C10.9859 10.8725 10.9897 11.1175 10.9934 11.3525C11.0214 13.1494 11.0402 14.362 9.27465 16.7274C7.77304 18.7391 5.94875 18.5893 5.13663 18.3915C4.93382 18.342 4.86247 18.0233 4.98804 17.8043C5.62818 16.6879 6.98942 13.822 4.71127 12.9063C3.81993 12.5481 3 11.8564 3 10.6096V8.55685C3 6.8686 4.02155 5.5 5.28169 5.5Z" fill="#363538"/>
<path d="M15.2817 5.5H18.7042C19.9644 5.5 20.9859 6.86847 20.9859 8.55672V10.6137C20.9859 10.8725 20.9897 11.1175 20.9934 11.3525C21.0214 13.1494 21.0402 14.362 19.2746 16.7274C17.773 18.7391 15.9488 18.5893 15.1366 18.3915C14.9338 18.342 14.8625 18.0233 14.988 17.8043C15.6282 16.6879 16.9894 13.822 14.7113 12.9063C13.8199 12.5481 13 11.8564 13 10.6096V8.55685C13 6.8686 14.0215 5.5 15.2817 5.5Z" fill="#363538"/>
</svg>
