<svg width="24" height="24" viewBox="0 0 24 24" fill="none" xmlns="http://www.w3.org/2000/svg">
<path d="M8.01507 12.6494C7.94481 13.4404 8.10937 14.2601 8.53656 15C8.96367 15.7397 9.59109 16.2914 10.311 16.626L8.23382 20.1934C7.83216 20.8831 7.04792 21.2638 6.3305 20.9141C5.46248 20.4908 4.29298 19.6501 3.34027 18C2.38754 16.3498 2.24448 14.9165 2.31195 13.9531C2.36775 13.1569 3.08897 12.668 3.88714 12.665L8.01507 12.6494Z" fill="#363538"/>
<path d="M20.1127 12.665C20.9109 12.668 21.6331 13.1569 21.6889 13.9531C21.7564 14.9165 21.6133 16.3499 20.6606 18C19.7078 19.6502 18.5374 20.4908 17.6694 20.9141C16.952 21.2635 16.1677 20.883 15.766 20.1934L13.6889 16.626C14.409 16.2913 15.0371 15.7399 15.4643 15C15.8915 14.2601 16.0551 13.4403 15.9848 12.6494L20.1127 12.665Z" fill="#363538"/>
<path d="M12.0004 11C13.1049 11.0002 14.0004 11.8955 14.0004 13C14.0004 14.1045 13.1049 14.9998 12.0004 15C10.8959 15 10.0004 14.1046 10.0004 13C10.0004 11.8954 10.8959 11 12.0004 11Z" fill="#363538"/>
<path d="M12.0004 3C13.9057 3.00006 15.2184 3.59272 16.019 4.13281C16.6806 4.57924 16.7436 5.44886 16.3471 6.1416L14.2963 9.72461C13.6466 9.26834 12.8547 9.00006 12.0004 9C11.1461 9 10.3544 9.26833 9.70453 9.72461L7.65375 6.1416C7.25723 5.44885 7.32018 4.57923 7.98187 4.13281C8.78248 3.59276 10.0953 3 12.0004 3Z" fill="#363538"/>
</svg>
