<svg width="24" height="24" viewBox="0 0 24 24" fill="none" xmlns="http://www.w3.org/2000/svg">
<path d="M7.22547 7.42543C6.86675 7.21832 6.74385 6.75963 6.95096 6.40091L8.55385 3.62471C9.99726 1.12473 13.6057 1.12478 15.049 3.62481L17.5455 7.94893L18.1749 5.59993C18.2821 5.19983 18.6934 4.96239 19.0935 5.0696C19.4936 5.17681 19.731 5.58806 19.6238 5.98816L18.5286 10.0755C18.4807 10.2652 18.3592 10.4361 18.1763 10.5417C18.0791 10.5978 17.9746 10.6297 17.8697 10.6392C17.7839 10.6471 17.6952 10.6402 17.6071 10.6166L13.5091 9.51849C13.109 9.41129 12.8715 9.00003 12.9787 8.59993C13.0859 8.19983 13.4972 7.9624 13.8973 8.0696L16.2465 8.69908L13.75 4.37479C12.884 2.87477 10.7189 2.87474 9.85288 4.37473L8.24999 7.15093C8.04288 7.50964 7.58419 7.63254 7.22547 7.42543Z" fill="#363538"/>
<path d="M6.4719 13.2041C6.57911 13.6042 6.99036 13.8416 7.39046 13.7344C7.79056 13.6272 8.028 13.216 7.92079 12.8159L6.82271 8.71779C6.78586 8.58025 6.71308 8.46194 6.61718 8.37024C6.6039 8.35755 6.59019 8.34536 6.57606 8.33371C6.51988 8.28737 6.45723 8.2494 6.39025 8.22103C6.33941 8.19947 6.28721 8.18394 6.23453 8.1742C6.13527 8.1558 6.03082 8.15726 5.92673 8.18177C5.91808 8.18381 5.90946 8.18599 5.90089 8.18833L1.80607 9.28553C1.40597 9.39273 1.16854 9.80399 1.27574 10.2041C1.38295 10.6042 1.7942 10.8416 2.1943 10.7344L4.5433 10.105L2.04667 14.4291C0.603249 16.9291 2.40743 20.0542 5.29418 20.0542L8.49988 20.0542C8.91409 20.0542 9.24989 19.7185 9.24989 19.3042C9.2499 18.89 8.91411 18.5542 8.4999 18.5542L5.2942 18.5542C3.56215 18.5542 2.47964 16.6791 3.34569 15.1792L5.84242 10.8549L6.4719 13.2041Z" fill="#363538"/>
<path d="M18.9242 11.3504C19.2829 11.1433 19.7416 11.2662 19.9487 11.6249L21.5516 14.4012C22.9949 16.9012 21.1906 20.0262 18.3039 20.0261L13.3107 20.026L15.0304 21.7457C15.3233 22.0386 15.3233 22.5135 15.0304 22.8064C14.7375 23.0993 14.2626 23.0993 13.9697 22.8064L10.9697 19.8064C10.8944 19.731 10.8384 19.6436 10.8018 19.5504C10.7729 19.4768 10.7552 19.3974 10.751 19.3146C10.7504 19.3018 10.7501 19.2889 10.7501 19.276C10.7501 19.1686 10.7726 19.0666 10.8132 18.9742C10.843 18.9064 10.8833 18.8421 10.9341 18.7839C10.9468 18.7693 10.96 18.7553 10.9737 18.7417L13.9697 15.7457C14.2626 15.4528 14.7375 15.4528 15.0304 15.7457C15.3233 16.0386 15.3233 16.5135 15.0304 16.8064L13.3107 18.526L18.3039 18.5261C20.0359 18.5261 21.1185 16.6512 20.2525 15.1511L18.6497 12.3749C18.4426 12.0162 18.5655 11.5575 18.9242 11.3504Z" fill="#363538"/>
</svg>
