<svg width="24" height="24" viewBox="0 0 24 24" fill="none" xmlns="http://www.w3.org/2000/svg">
<path d="M16.2197 5.03033C15.9268 4.73744 15.9268 4.26256 16.2197 3.96967C16.5126 3.67678 16.9874 3.67678 17.2803 3.96967L20.2783 6.9676C20.4152 7.10348 20.5 7.29184 20.5 7.50001C20.5 7.69314 20.427 7.86922 20.3071 8.00217C20.2984 8.01176 20.2895 8.02116 20.2803 8.03034L17.2803 11.0303C16.9874 11.3232 16.5126 11.3232 16.2197 11.0303C15.9268 10.7374 15.9268 10.2626 16.2197 9.96967L17.9393 8.25H9.75C6.8505 8.25 4.5 10.6005 4.5 13.5C4.5 16.3995 6.8505 18.75 9.75 18.75H20.25C20.6642 18.75 21 19.0858 21 19.5C21 19.9142 20.6642 20.25 20.25 20.25H9.75C6.02208 20.25 3 17.2279 3 13.5C3 9.77208 6.02208 6.75 9.75 6.75H17.9393L16.2197 5.03033Z" fill="#363538"/>
</svg>
