<svg width="24" height="24" viewBox="0 0 24 24" fill="none" xmlns="http://www.w3.org/2000/svg">
<path d="M14.4697 2.46967C14.1768 2.76256 14.1768 3.23744 14.4697 3.53033L16.1893 5.25H7C4.37665 5.25 2.25 7.37665 2.25 10V16C2.25 16.4142 2.58579 16.75 3 16.75C3.41421 16.75 3.75 16.4142 3.75 16V10C3.75 8.20508 5.20507 6.75 7 6.75H16.1893L14.4697 8.46967C14.1768 8.76256 14.1768 9.23744 14.4697 9.53033C14.7626 9.82322 15.2374 9.82322 15.5303 9.53033L18.5303 6.53033C18.6022 6.45842 18.6565 6.37555 18.6931 6.28709C18.7298 6.19866 18.75 6.10169 18.75 6C18.75 5.80806 18.6768 5.61612 18.5303 5.46967L15.5303 2.46967C15.2374 2.17678 14.7626 2.17678 14.4697 2.46967Z" fill="#363538"/>
<path d="M21 7.25C21.4142 7.25 21.75 7.58579 21.75 8V14C21.75 16.6234 19.6234 18.75 17 18.75H7.81066L9.53033 20.4697C9.82322 20.7626 9.82322 21.2374 9.53033 21.5303C9.23744 21.8232 8.76256 21.8232 8.46967 21.5303L5.46967 18.5303C5.32498 18.3856 5.25177 18.1966 5.25003 18.0069L5.25 18L5.25003 17.9931C5.25093 17.8939 5.27107 17.7993 5.30691 17.7129C5.34351 17.6245 5.39776 17.5416 5.46967 17.4697L8.46967 14.4697C8.76256 14.1768 9.23744 14.1768 9.53033 14.4697C9.82322 14.7626 9.82322 15.2374 9.53033 15.5303L7.81066 17.25L17 17.25C18.7949 17.25 20.25 15.7949 20.25 14V8C20.25 7.58579 20.5858 7.25 21 7.25Z" fill="#363538"/>
<path d="M12.8152 14.5V9.04541H11.7312L10.3809 9.90035V10.9231L11.63 10.14H11.6619V14.5H12.8152Z" fill="#363538"/>
</svg>
