<svg width="24" height="24" viewBox="0 0 24 24" fill="none" xmlns="http://www.w3.org/2000/svg">
<path d="M12.25 5.55005C11.8358 5.55005 11.5 5.88584 11.5 6.30005C11.5 6.71426 11.8358 7.05005 12.25 7.05005H15.6121C17.4832 7.05005 19 8.56688 19 10.438C19 12.3091 17.4832 13.8259 15.6121 13.8259H6.06066L7.91826 11.9683C8.21115 11.6754 8.21115 11.2005 7.91826 10.9076C7.62537 10.6148 7.15049 10.6148 6.8576 10.9076L3.71967 14.0456C3.42678 14.3385 3.42678 14.8133 3.71967 15.1062L6.8576 18.2442C7.15049 18.5371 7.62537 18.5371 7.91826 18.2442C8.21115 17.9513 8.21115 17.4764 7.91826 17.1835L6.06066 15.3259H15.6121C18.3116 15.3259 20.5 13.1375 20.5 10.438C20.5 7.73845 18.3116 5.55005 15.6121 5.55005H12.25Z" fill="#363538"/>
</svg>
