<svg width="24" height="24" viewBox="0 0 24 24" fill="none" xmlns="http://www.w3.org/2000/svg">
<path fill-rule="evenodd" clip-rule="evenodd" d="M11.0915 5.08571C10.1777 4.48261 8.97982 4.53443 8.12143 5.2142L6.74615 6.30332C6.48247 6.51213 6.15598 6.62575 5.81964 6.62575C4.52942 6.62575 3.38447 7.45273 2.97892 8.67756L2.5674 9.92046C2.55177 9.96766 2.53869 10.015 2.52809 10.0624C2.52282 10.0618 2.51758 10.0612 2.51238 10.0606C2.2383 10.0289 2 10.2434 2 10.5193V12C2 17.5228 6.47715 22 12 22C17.5228 22 22 17.5228 22 12V10.5193C22 10.2434 21.7617 10.0289 21.4876 10.0606C21.4652 10.0631 21.4421 10.0658 21.4183 10.0685C21.4018 9.99437 21.3791 9.9203 21.35 9.84688L21.1606 9.3684C20.6533 8.08739 19.5301 7.1517 18.1786 6.88412L17.9612 6.84109C17.4873 6.74727 17.0643 6.48271 16.7726 6.09764C15.8763 4.91463 14.3271 4.43226 12.9176 4.89734L11.986 5.20475C11.6853 5.30395 11.3558 5.2601 11.0915 5.08571ZM19.8904 10.2349L19.7659 9.92068C19.4463 9.11363 18.7387 8.52414 17.8872 8.35556L17.6699 8.31253C16.8355 8.14733 16.0907 7.68151 15.577 7.00349C15.068 6.33162 14.1881 6.05766 13.3876 6.3218L12.456 6.6292C11.7196 6.87218 10.9125 6.76477 10.2653 6.33767C9.89221 6.09142 9.40314 6.11258 9.05267 6.39013L7.67738 7.47924C7.14868 7.89793 6.49405 8.12575 5.81964 8.12575C5.17617 8.12575 4.60515 8.53819 4.4029 9.14904L4.04555 10.2283C5.79148 10.4097 8.36767 10.6455 10.6065 10.7236C11.1136 10.7403 11.5863 10.75 12 10.75C12.4144 10.75 12.888 10.7403 13.3961 10.7235C15.6071 10.6462 18.1466 10.4153 19.8904 10.2349Z" fill="#363538"/>
</svg>
