<svg width="24" height="24" viewBox="0 0 24 24" fill="none" xmlns="http://www.w3.org/2000/svg">
<path fill-rule="evenodd" clip-rule="evenodd" d="M14.0991 2.11946C12.9047 0.96018 11.0539 0.96018 9.8595 2.11946C8.28377 3.64881 6.54875 6.31895 5.72132 10.355C5.39187 10.4617 5.08006 10.6424 4.79879 10.8628C4.33272 11.228 3.89754 11.7416 3.5255 12.3662C2.78523 13.609 2.25745 15.3526 2.24967 17.4539C2.20494 17.8766 2.32028 18.3211 2.57441 18.6653C2.85659 19.0475 3.34158 19.3337 3.94344 19.2416C4.49627 19.1569 4.98443 18.7757 5.40517 18.2316L5.43046 18.1986C5.55217 18.8125 5.74902 19.3502 6.10121 19.7078C6.29803 19.9076 6.54139 20.0486 6.82274 20.1042C7.09641 20.1583 7.35563 20.1217 7.57825 20.0508C8.00104 19.916 8.39376 19.6234 8.7248 19.3321C9.1723 18.9383 9.67043 18.3908 10.1318 17.8837C10.3455 17.6488 10.5513 17.4227 10.7406 17.2244C11.0616 16.8881 11.3465 16.6163 11.5945 16.432C11.8548 16.2387 11.9726 16.2202 11.9796 16.2191C11.9865 16.2202 12.1037 16.2385 12.3641 16.432C12.6122 16.6163 12.897 16.8881 13.2181 17.2244C13.4073 17.4227 13.6132 17.6489 13.8268 17.8837C14.2883 18.3908 14.7863 18.9382 15.2339 19.3321C15.5649 19.6234 15.9576 19.916 16.3804 20.0508C16.603 20.1217 16.8622 20.1583 17.1359 20.1042C17.4173 20.0486 17.6606 19.9076 17.8574 19.7078C18.2138 19.346 18.4111 18.7998 18.5325 18.1769C18.5463 18.1954 18.5602 18.2136 18.5741 18.2316C18.9949 18.7757 19.483 19.1569 20.0359 19.2416C20.6377 19.3337 21.1227 19.0475 21.4049 18.6653C21.659 18.3211 21.7744 17.8766 21.7296 17.4539C21.7219 15.3526 21.1941 13.609 20.4538 12.3662C20.0818 11.7416 19.6466 11.228 19.1805 10.8628C18.8929 10.6374 18.5734 10.4536 18.2358 10.3479C17.4082 6.31775 15.676 3.6499 14.0991 2.11946ZM4.81421 13.1338C5.00659 12.8108 5.2081 12.5458 5.40524 12.337C5.29626 13.2736 5.23452 14.2714 5.22964 15.3325C4.85748 16.3153 4.50907 16.9383 4.21856 17.314C3.99375 17.6047 3.83616 17.7068 3.76279 17.7417C3.74593 17.7032 3.73566 17.6509 3.74208 17.6058C3.74707 17.5708 3.74958 17.5354 3.74958 17.5001C3.74975 15.622 4.21968 14.1319 4.81421 13.1338ZM19.7607 17.314C19.4702 16.9383 19.1218 16.3153 18.7497 15.3325C18.7448 14.2714 18.683 13.2736 18.5741 12.337C18.7712 12.5458 18.9727 12.8108 19.1651 13.1338C19.7596 14.1319 20.2296 15.622 20.2297 17.5001C20.2297 17.5354 20.2322 17.5708 20.2372 17.6058C20.2436 17.6508 20.2334 17.7031 20.2165 17.7417C20.1431 17.7068 19.9855 17.6047 19.7607 17.314ZM11.979 9.46899C13.0836 9.46899 13.979 8.57356 13.979 7.46899C13.979 6.36442 13.0836 5.46899 11.979 5.46899C10.8744 5.46899 9.979 6.36442 9.979 7.46899C9.979 8.57356 10.8744 9.46899 11.979 9.46899Z" fill="#363538"/>
<path d="M10.3086 18.4083C11.2277 17.4892 12.7179 17.4892 13.637 18.4083C14.3875 19.1588 14.5429 20.3188 14.0163 21.2403L13.3524 22.4022C12.7424 23.4697 11.2032 23.4697 10.5932 22.4022L9.9293 21.2403C9.40272 20.3188 9.55806 19.1588 10.3086 18.4083Z" fill="#363538"/>
</svg>
