<svg width="24" height="24" viewBox="0 0 24 24" fill="none" xmlns="http://www.w3.org/2000/svg">
<path fill-rule="evenodd" clip-rule="evenodd" d="M21.9771 5.06979C21.9586 3.40537 20.655 2.09167 18.9907 2.06042C16.7953 2.01918 13.6778 2.66845 10.2302 4.92402C9.92238 4.76534 9.57447 4.6713 9.21991 4.62689C8.63239 4.5533 7.96128 4.6062 7.25586 4.78208C5.85225 5.13204 4.24288 5.98555 2.74581 7.46021C2.41428 7.72619 2.18002 8.12115 2.11472 8.54398C2.04221 9.01346 2.18064 9.55935 2.66998 9.92166C3.11946 10.2545 3.73396 10.3324 4.41652 10.2478L4.45777 10.2425C4.10771 10.7613 3.86472 11.2798 3.85896 11.7817C3.85574 12.0621 3.92708 12.3342 4.08581 12.5731C4.2402 12.8054 4.44872 12.9637 4.65591 13.0717C5.04941 13.2768 5.53373 13.3495 5.97368 13.3793C6.56841 13.4195 7.30789 13.3875 7.99286 13.3578C8.31003 13.3441 8.61558 13.3308 8.88964 13.3255C9.35448 13.3165 9.74803 13.3272 10.0536 13.3735C10.3742 13.4221 10.4702 13.4927 10.476 13.4969C10.4801 13.5025 10.5495 13.5986 10.5957 13.9198C10.6396 14.2257 10.6473 14.6193 10.6347 15.0841C10.6273 15.3581 10.6117 15.6635 10.5955 15.9806C10.5606 16.6653 10.5229 17.4045 10.5586 17.9995C10.585 18.4397 10.6539 18.9246 10.856 19.3196C10.9625 19.5276 11.1191 19.7374 11.3503 19.8935C11.5879 20.0541 11.8594 20.1275 12.1399 20.1265C12.6477 20.1245 13.1744 19.8799 13.702 19.5272C13.6987 19.5501 13.6955 19.5728 13.6926 19.5954C13.6027 20.2772 13.6759 20.8923 14.0053 21.3443C14.3638 21.8365 14.9086 21.9791 15.3786 21.9102C15.8019 21.8481 16.1987 21.6169 16.4672 21.2874C17.9533 19.8017 18.8192 18.199 19.1799 16.7981C19.3612 16.094 19.4193 15.4234 19.3502 14.8353C19.3076 14.4724 19.213 14.1161 19.0502 13.802C21.3279 10.3758 22.0015 7.26708 21.9771 5.06979ZM7.61874 6.23752C7.9835 6.14658 8.31358 6.10291 8.60066 6.09576C7.85907 6.67816 7.1073 7.33718 6.35067 8.08115C5.39094 8.50923 4.70331 8.70076 4.23201 8.75918C3.8673 8.80438 3.6838 8.76447 3.60741 8.73691C3.62286 8.69782 3.65275 8.65369 3.68924 8.62652C3.71762 8.60539 3.74447 8.58228 3.76958 8.55736C5.10278 7.2346 6.49147 6.51858 7.61874 6.23752ZM15.1797 19.7913C15.2417 19.3205 15.4385 18.6343 15.874 17.6779C16.6237 16.927 17.2885 16.1803 17.8766 15.4432C17.8672 15.7302 17.821 16.06 17.7273 16.424C17.4376 17.5491 16.7109 18.9323 15.378 20.2553C15.3528 20.2802 15.3295 20.3069 15.3082 20.3351C15.2807 20.3713 15.2364 20.4009 15.1972 20.416C15.1702 20.3394 15.1317 20.1556 15.1797 19.7913ZM15.2673 8.74157C16.0453 9.52561 17.3116 9.53048 18.0957 8.75244C18.8797 7.97439 18.8846 6.70807 18.1065 5.92403C17.3285 5.13999 16.0622 5.13512 15.2781 5.91317C14.4941 6.69121 14.4892 7.95753 15.2673 8.74157Z" fill="#363538"/>
<path d="M7.74552 13.8526C9.04537 13.8575 10.0951 14.9153 10.0901 16.2152C10.086 17.2765 9.37206 18.2038 8.34703 18.4792L7.05463 18.8263C5.86728 19.1452 4.7831 18.0527 5.11114 16.8678L5.46821 15.5782C5.7514 14.5553 6.68417 13.8485 7.74552 13.8526Z" fill="#363538"/>
</svg>
