<svg width="24" height="24" viewBox="0 0 24 24" fill="none" xmlns="http://www.w3.org/2000/svg">
<path d="M6 2.75C4.89543 2.75 4 3.64543 4 4.75V6.75C4 7.85457 4.89543 8.75 6 8.75H17C18.1046 8.75 19 7.85457 19 6.75V4.75C19 3.64543 18.1046 2.75 17 2.75H6Z" fill="#363538"/>
<path d="M10 19.25V17C10 16.1607 10.517 15.4421 11.25 15.1454V14C11.25 12.4812 12.4812 11.25 14 11.25H19C19.6904 11.25 20.25 10.6904 20.25 10V7.75C20.25 7.34104 20.0536 6.97796 19.75 6.74991V5.10352C20.9043 5.42998 21.75 6.49122 21.75 7.75V10C21.75 11.5188 20.5188 12.75 19 12.75H14C13.3096 12.75 12.75 13.3096 12.75 14V15.1454C13.483 15.4421 14 16.1607 14 17V19.25C14 20.3546 13.1046 21.25 12 21.25C10.8954 21.25 10 20.3546 10 19.25Z" fill="#363538"/>
</svg>
