<svg width="24" height="24" viewBox="0 0 24 24" fill="none" xmlns="http://www.w3.org/2000/svg">
<path fill-rule="evenodd" clip-rule="evenodd" d="M15.4315 3.42136C13.5363 1.52621 10.4637 1.52621 8.56854 3.42136L3.42136 8.56854C1.52621 10.4637 1.52621 13.5363 3.42136 15.4315L8.56854 20.5786C10.4637 22.4738 13.5363 22.4738 15.4315 20.5786L20.5786 15.4315C22.4738 13.5363 22.4738 10.4637 20.5786 8.56854L15.4315 3.42136ZM14.3955 9.31013C14.0973 9.02266 13.6225 9.03137 13.335 9.32959C13.1087 9.56433 13.066 9.90848 13.2035 10.1846H12.4155C10.115 10.1846 8.25 12.0495 8.25 14.3501C8.25 14.7643 8.58579 15.1001 9 15.1001C9.41421 15.1001 9.75 14.7643 9.75 14.3501C9.75 12.878 10.9434 11.6846 12.4155 11.6846H13.2505C13.0531 11.9804 13.0892 12.384 13.3541 12.6397C13.6522 12.9274 14.127 12.919 14.4146 12.621L15.5396 11.4554C15.6778 11.3122 15.7535 11.12 15.7499 10.921C15.7463 10.7221 15.6638 10.5327 15.5205 10.3946L14.3955 9.31013Z" fill="#363538"/>
</svg>
