<svg width="24" height="24" viewBox="0 0 24 24" fill="none" xmlns="http://www.w3.org/2000/svg">
<path d="M5.33523 11.459C4.20031 13.3171 3.7051 14.7641 3.81562 16.0863C3.94273 17.6069 4.86283 18.7773 5.93169 20.0191C6.54358 20.7299 7.17011 21.0777 7.89032 21.108C8.21906 21.1218 8.52723 21.0669 8.80002 21.0012C8.96031 20.9625 9.1463 20.9096 9.32092 20.8599C9.41886 20.8321 9.5139 20.805 9.59812 20.7823C10.1132 20.6433 10.6588 20.5358 11.348 20.6138C12.0419 20.6923 12.9354 20.9656 14.1143 21.6729C14.5267 21.9204 15.0657 22.0014 15.5659 21.9614C16.0812 21.9202 16.6517 21.744 17.1339 21.3673C17.6294 20.9802 17.9996 20.4048 18.1182 19.6426C18.2081 19.0651 18.1502 18.4073 17.9303 17.6666C17.3701 17.7719 16.7824 17.6926 16.2646 17.4237C16.2735 17.4677 16.2865 17.5115 16.3037 17.5547C16.6464 18.4121 16.6983 19.012 16.6361 19.4118C16.5764 19.7951 16.4076 20.0313 16.2105 20.1853C16 20.3497 15.7242 20.444 15.4464 20.4662C15.1536 20.4896 14.9529 20.4268 14.886 20.3867C13.5648 19.594 12.4675 19.2309 11.5166 19.1233C10.5611 19.0152 9.80796 19.172 9.20727 19.3341C9.07341 19.3702 8.96086 19.4025 8.85814 19.4319C8.71273 19.4735 8.58702 19.5096 8.44847 19.543C8.23443 19.5946 8.0811 19.6147 7.95327 19.6093C7.76034 19.6012 7.49348 19.5342 7.06854 19.0405C5.97189 17.7664 5.39195 16.9368 5.31041 15.9614C5.23112 15.0128 5.61572 13.7529 6.98579 11.6555C6.43422 11.7717 5.85277 11.7077 5.33523 11.459Z" fill="#363538"/>
<path d="M7 6.52979C7 6.80593 6.77614 7.02979 6.5 7.02979C6.22386 7.02979 6 6.80593 6 6.52979C6 6.25364 6.22386 6.02979 6.5 6.02979C6.77614 6.02979 7 6.25364 7 6.52979Z" fill="#363538"/>
<path fill-rule="evenodd" clip-rule="evenodd" d="M7.91103 11.263C9.53399 10.166 10.8041 8.47699 11 6.52979C11 4.0445 8.98528 2.02979 6.5 2.02979C4.01472 2.02979 2 4.0445 2 6.52979C2.1986 8.50407 3.35307 10.213 5.0653 11.3085C5.93469 11.8647 7.05594 11.841 7.91103 11.263ZM8.5 6.52979C8.5 7.63435 7.60457 8.52979 6.5 8.52979C5.39543 8.52979 4.5 7.63435 4.5 6.52979C4.5 5.42522 5.39543 4.52979 6.5 4.52979C7.60457 4.52979 8.5 5.42522 8.5 6.52979Z" fill="#363538"/>
<path d="M18 12.5298C18 12.8059 17.7761 13.0298 17.5 13.0298C17.2239 13.0298 17 12.8059 17 12.5298C17 12.2536 17.2239 12.0298 17.5 12.0298C17.7761 12.0298 18 12.2536 18 12.5298Z" fill="#363538"/>
<path fill-rule="evenodd" clip-rule="evenodd" d="M18.911 17.263C20.534 16.166 21.8041 14.477 22 12.5298C22 10.0445 19.9853 8.02979 17.5 8.02979C15.0147 8.02979 13 10.0445 13 12.5298C13.1986 14.5041 14.3531 16.213 16.0653 17.3085C16.9347 17.8647 18.0559 17.841 18.911 17.263ZM19.5 12.5298C19.5 13.6344 18.6046 14.5298 17.5 14.5298C16.3954 14.5298 15.5 13.6344 15.5 12.5298C15.5 11.4252 16.3954 10.5298 17.5 10.5298C18.6046 10.5298 19.5 11.4252 19.5 12.5298Z" fill="#363538"/>
</svg>
