<svg width="24" height="24" viewBox="0 0 24 24" fill="none" xmlns="http://www.w3.org/2000/svg">
<path d="M9.67943 6.54261L10.7853 5.4367C10.8193 5.49999 10.8629 5.55944 10.9163 5.61284L12.472 7.16847C12.7649 7.46137 13.2397 7.46137 13.5326 7.16847C13.8255 6.87558 13.8255 6.40071 13.5326 6.10781L11.977 4.55218C11.9236 4.49878 11.8641 4.45512 11.8008 4.42119L13.0609 3.16115C14.2325 1.98958 16.132 1.98958 17.3035 3.16115L20.8391 6.69668C22.0106 7.86826 22.0106 9.76775 20.8391 10.9393L10.9396 20.8388C9.768 22.0104 7.8685 22.0104 6.69693 20.8388L3.16139 17.3033C1.98982 16.1317 1.98982 14.2322 3.16139 13.0606L4.42148 11.8006C4.45542 11.8639 4.49911 11.9234 4.55256 11.9769L6.10819 13.5325C6.40108 13.8254 6.87596 13.8254 7.16885 13.5325C7.46174 13.2396 7.46174 12.7647 7.16885 12.4718L5.61322 10.9162C5.55977 10.8628 5.50027 10.8191 5.43692 10.7851L6.54266 9.67938C6.57659 9.74267 6.62025 9.80212 6.67365 9.85552L8.22928 11.4111C8.52218 11.704 8.99705 11.704 9.28994 11.4111C9.58284 11.1183 9.58284 10.6434 9.28994 10.3505L7.73431 8.79485C7.68091 8.74146 7.62146 8.69779 7.55817 8.66387L8.66384 7.5582C8.69775 7.62143 8.74139 7.68082 8.79474 7.73418L10.3504 9.28981C10.6433 9.58271 11.1181 9.58271 11.411 9.28981C11.7039 8.99692 11.7039 8.52205 11.411 8.22915L9.8554 6.67352C9.80205 6.62016 9.74266 6.57653 9.67943 6.54261Z" fill="#363538"/>
</svg>
