<svg width="24" height="24" viewBox="0 0 24 24" fill="none" xmlns="http://www.w3.org/2000/svg">
<path d="M4 13.25C4.41421 13.25 4.75 13.5858 4.75 14V16C4.75 17.7949 6.20507 19.25 8 19.25H10C10.4142 19.25 10.75 19.5858 10.75 20C10.75 20.4142 10.4142 20.75 10 20.75H8C5.37665 20.75 3.25 18.6234 3.25 16V14C3.25 13.5858 3.58579 13.25 4 13.25Z" fill="#363538"/>
<path d="M20 13.25C20.4142 13.25 20.75 13.5858 20.75 14V16C20.75 18.6234 18.6234 20.75 16 20.75H14C13.5858 20.75 13.25 20.4142 13.25 20C13.25 19.5858 13.5858 19.25 14 19.25H16C17.7949 19.25 19.25 17.7949 19.25 16V14C19.25 13.5858 19.5858 13.25 20 13.25Z" fill="#363538"/>
<path d="M14 7.75C15.4691 7.75 16.7497 8.8734 16.75 10.3662C16.75 10.7804 16.4142 11.1162 16 11.1162C15.5858 11.1162 15.25 10.7804 15.25 10.3662C15.2497 9.79755 14.7397 9.25 14 9.25H12.75V14.75H13.5C13.9142 14.75 14.25 15.0858 14.25 15.5C14.25 15.9142 13.9142 16.25 13.5 16.25H10.5C10.0858 16.25 9.75 15.9142 9.75 15.5C9.75 15.0858 10.0858 14.75 10.5 14.75H11.25V9.25H10C9.26026 9.25 8.75027 9.79755 8.75 10.3662C8.75 10.7804 8.41421 11.1162 8 11.1162C7.58579 11.1162 7.25 10.7804 7.25 10.3662C7.25026 8.8734 8.53094 7.75 10 7.75H14Z" fill="#363538"/>
<path d="M10 3.25C10.4142 3.25 10.75 3.58579 10.75 4C10.75 4.41421 10.4142 4.75 10 4.75H8C6.20507 4.75 4.75 6.20507 4.75 8V10C4.75 10.4142 4.41421 10.75 4 10.75C3.58579 10.75 3.25 10.4142 3.25 10V8C3.25 5.37665 5.37665 3.25 8 3.25H10Z" fill="#363538"/>
<path d="M16 3.25C18.6234 3.25 20.75 5.37665 20.75 8V10C20.75 10.4142 20.4142 10.75 20 10.75C19.5858 10.75 19.25 10.4142 19.25 10V8C19.25 6.20507 17.7949 4.75 16 4.75H14C13.5858 4.75 13.25 4.41421 13.25 4C13.25 3.58579 13.5858 3.25 14 3.25H16Z" fill="#363538"/>
</svg>
