<svg width="24" height="24" viewBox="0 0 24 24" fill="none" xmlns="http://www.w3.org/2000/svg">
<path fill-rule="evenodd" clip-rule="evenodd" d="M21.1962 5C22 6.3923 22 8.26154 22 12C22 15.7385 22 17.6077 21.1962 19C20.6695 19.9121 19.9121 20.6695 19 21.1962C17.6077 22 15.7385 22 12 22C8.26154 22 6.3923 22 5 21.1962C4.08788 20.6695 3.33046 19.9121 2.80385 19C2 17.6077 2 15.7385 2 12C2 8.26154 2 6.3923 2.80385 5C3.33046 4.08788 4.08788 3.33046 5 2.80385C6.3923 2 8.26154 2 12 2C15.7385 2 17.6077 2 19 2.80385C19.9121 3.33046 20.6695 4.08788 21.1962 5ZM2.25 13C2.25 12.5858 2.58579 12.25 3 12.25H21C21.4142 12.25 21.75 12.5858 21.75 13C21.75 13.4142 21.4142 13.75 21 13.75H3C2.58579 13.75 2.25 13.4142 2.25 13ZM4.75 8C4.75 6.20507 6.20507 4.75 8 4.75H10C10.4142 4.75 10.75 4.41421 10.75 4C10.75 3.58579 10.4142 3.25 10 3.25H8C5.37665 3.25 3.25 5.37665 3.25 8V10C3.25 10.4142 3.58579 10.75 4 10.75C4.41421 10.75 4.75 10.4142 4.75 10V8ZM3.25 14.5V16C3.25 18.6234 5.37665 20.75 8 20.75H10C10.4142 20.75 10.75 20.4142 10.75 20C10.75 19.5858 10.4142 19.25 10 19.25H8C6.20507 19.25 4.75 17.7949 4.75 16V14.5H3.25ZM19.25 14.5V16C19.25 17.7949 17.7949 19.25 16 19.25H14C13.5858 19.25 13.25 19.5858 13.25 20C13.25 20.4142 13.5858 20.75 14 20.75H16C18.6234 20.75 20.75 18.6234 20.75 16V14.5H19.25ZM14 3.25C13.5858 3.25 13.25 3.58579 13.25 4C13.25 4.41421 13.5858 4.75 14 4.75H16C17.7949 4.75 19.25 6.20507 19.25 8V10C19.25 10.4142 19.5858 10.75 20 10.75C20.4142 10.75 20.75 10.4142 20.75 10V8C20.75 5.37665 18.6234 3.25 16 3.25H14Z" fill="#363538"/>
</svg>
