<svg width="24" height="24" viewBox="0 0 24 24" fill="none" xmlns="http://www.w3.org/2000/svg">
<path d="M4.2019 4.2019C3.94567 4.45813 3.75 4.94946 3.75 6C3.75 6.41421 3.41421 6.75 3 6.75C2.58579 6.75 2.25 6.41421 2.25 6C2.25 4.8414 2.44976 3.83273 3.14124 3.14124C3.83273 2.44976 4.8414 2.25 6 2.25C6.41421 2.25 6.75 2.58579 6.75 3C6.75 3.41421 6.41421 3.75 6 3.75C4.94946 3.75 4.45813 3.94567 4.2019 4.2019Z" fill="#363538"/>
<path d="M8.39995 10.4C9.06269 10.4 9.59995 9.86274 9.59995 9.2C9.59995 8.53726 9.06269 8 8.39995 8C7.73721 8 7.19995 8.53726 7.19995 9.2C7.19995 9.86274 7.73721 10.4 8.39995 10.4Z" fill="#363538"/>
<path fill-rule="evenodd" clip-rule="evenodd" d="M8 5.6001H16C18.2091 5.6001 20 7.39096 20 9.6001V14.4001C20 16.6092 18.2091 18.4001 16 18.4001H8C5.79086 18.4001 4 16.6092 4 14.4001V9.6001C4 7.39096 5.79086 5.6001 8 5.6001ZM16 7.1001H8C6.61929 7.1001 5.5 8.21939 5.5 9.6001V14.4001C5.5 15.2523 5.92637 16.0049 6.57742 16.4562L7.89508 14.0742C8.39132 13.308 9.52769 13.3558 9.95789 14.1609C10.4506 15.0829 11.8051 14.9761 12.1473 13.9883L12.9882 11.5603C13.3223 10.5958 14.649 10.501 15.1168 11.4082L17.4849 16.4116C18.1007 15.9562 18.5 15.2248 18.5 14.4001V9.6001C18.5 8.21939 17.3807 7.1001 16 7.1001Z" fill="#363538"/>
<path d="M18 2.25C17.5858 2.25 17.25 2.58579 17.25 3C17.25 3.41421 17.5858 3.75 18 3.75C19.0505 3.75 19.5419 3.94567 19.7981 4.2019C20.0543 4.45813 20.25 4.94946 20.25 6C20.25 6.41421 20.5858 6.75 21 6.75C21.4142 6.75 21.75 6.41421 21.75 6C21.75 4.8414 21.5502 3.83273 20.8588 3.14124C20.1673 2.44976 19.1586 2.25 18 2.25Z" fill="#363538"/>
<path d="M21 17.25C21.4142 17.25 21.75 17.5858 21.75 18C21.75 19.1586 21.5502 20.1673 20.8588 20.8588C20.1673 21.5502 19.1586 21.75 18 21.75C17.5858 21.75 17.25 21.4142 17.25 21C17.25 20.5858 17.5858 20.25 18 20.25C19.0505 20.25 19.5419 20.0543 19.7981 19.7981C20.0543 19.5419 20.25 19.0505 20.25 18C20.25 17.5858 20.5858 17.25 21 17.25Z" fill="#363538"/>
<path d="M3.75 18C3.75 17.5858 3.41421 17.25 3 17.25C2.58579 17.25 2.25 17.5858 2.25 18C2.25 19.1586 2.44976 20.1673 3.14124 20.8588C3.83273 21.5502 4.8414 21.75 6 21.75C6.41421 21.75 6.75 21.4142 6.75 21C6.75 20.5858 6.41421 20.25 6 20.25C4.94946 20.25 4.45813 20.0543 4.2019 19.7981C3.94567 19.5419 3.75 19.0505 3.75 18Z" fill="#363538"/>
</svg>
