<svg width="24" height="24" viewBox="0 0 24 24" fill="none" xmlns="http://www.w3.org/2000/svg">
<path d="M16.9214 16.3794C18.2128 14.9587 19 13.0713 19 11C19 6.58172 15.4183 3 11 3C6.58172 3 3 6.58172 3 11C3 15.4183 6.58172 19 11 19C12.8214 19 14.5006 18.3913 15.8453 17.3663C15.8851 17.4375 15.9373 17.5033 16.0017 17.5606L20.5017 21.5606C20.8113 21.8357 21.2854 21.8079 21.5606 21.4983C21.8357 21.1887 21.8079 20.7146 21.4983 20.4394L16.9983 16.4394C16.9736 16.4175 16.9479 16.3975 16.9214 16.3794Z" fill="#363538"/>
</svg>
