<svg width="24" height="24" viewBox="0 0 24 24" fill="none" xmlns="http://www.w3.org/2000/svg">
<path d="M16.9212 16.3794C18.2126 14.9586 18.9998 13.0712 18.9998 11C18.9998 6.58172 15.418 3 10.9998 3C6.74941 3 3.27323 6.31464 3.01514 10.5H7.99977C8.82819 10.5 9.49977 11.1716 9.49977 12C9.49977 12.8284 8.82819 13.5 7.99977 13.5H10.9998C11.8282 13.5 12.4998 14.1716 12.4998 15C12.4998 15.8284 11.8282 16.5 10.9998 16.5H5.19026C6.64835 18.0396 8.71191 19 10.9998 19C12.8212 19 14.5005 18.3913 15.8452 17.3662C15.8851 17.4374 15.9373 17.5033 16.0017 17.5606L20.5017 21.5606C20.8113 21.8357 21.2854 21.8079 21.5606 21.4983C21.8357 21.1887 21.8079 20.7146 21.4983 20.4394L16.9983 16.4394C16.9736 16.4175 16.9478 16.3975 16.9212 16.3794Z" fill="#363538"/>
<path d="M4 11.25C3.58579 11.25 3.25 11.5858 3.25 12C3.25 12.4142 3.58579 12.75 4 12.75H8C8.41421 12.75 8.75 12.4142 8.75 12C8.75 11.5858 8.41421 11.25 8 11.25H4Z" fill="#363538"/>
<path d="M3.25 15C3.25 14.5858 3.58579 14.25 4 14.25H11C11.4142 14.25 11.75 14.5858 11.75 15C11.75 15.4142 11.4142 15.75 11 15.75H4C3.58579 15.75 3.25 15.4142 3.25 15Z" fill="#363538"/>
</svg>
