<svg width="24" height="24" viewBox="0 0 24 24" fill="none" xmlns="http://www.w3.org/2000/svg">
<path d="M19.7341 2.51109C19.4819 1.82964 18.5181 1.82964 18.2659 2.51109L17.9169 3.45441C17.8376 3.66866 17.6687 3.83758 17.4544 3.91686L16.5111 4.26592C15.8296 4.51808 15.8296 5.48192 16.5111 5.73408L17.4544 6.08314C17.6687 6.16242 17.8376 6.33134 17.9169 6.54559L18.2659 7.48891C18.5181 8.17036 19.4819 8.17037 19.7341 7.48891L20.0831 6.54559C20.1624 6.33134 20.3313 6.16242 20.5456 6.08314L21.4889 5.73408C22.1704 5.48192 22.1704 4.51808 21.4889 4.26592L20.5456 3.91686C20.3313 3.83758 20.1624 3.66866 20.0831 3.45441L19.7341 2.51109Z" fill="#363538"/>
<path d="M20.1159 9.8634L6.19577 3.26964C3.93199 2.19732 1.55485 4.51774 2.57219 6.80676L4.52789 11.2071C4.57822 11.3203 4.62038 11.4361 4.65438 11.5537H11.7661C12.1803 11.5537 12.5161 11.8895 12.5161 12.3037C12.5161 12.7179 12.1803 13.0537 11.7661 13.0537H4.65443C4.62042 13.1713 4.57824 13.2872 4.52789 13.4005L2.57219 17.8008C1.55485 20.0899 3.93199 22.4103 6.19577 21.338L20.1159 14.7442C22.1751 13.7688 22.1751 10.8388 20.1159 9.8634Z" fill="#363538"/>
</svg>
