<svg width="24" height="24" viewBox="0 0 24 24" fill="none" xmlns="http://www.w3.org/2000/svg">
<path fill-rule="evenodd" clip-rule="evenodd" d="M3.83216 7.38335L18.3377 2.2028C20.4834 1.43647 22.5553 3.50831 21.7889 5.65405L16.6084 20.1596C15.7659 22.5186 12.4442 22.5587 11.545 20.2207L9.8164 15.7263C9.54212 15.0132 8.97856 14.4496 8.26542 14.1753L3.77102 12.4467C1.43307 11.5475 1.47318 8.22584 3.83216 7.38335ZM15.6895 9.36285C15.9824 9.06996 15.9824 8.59508 15.6895 8.30219C15.3966 8.0093 14.9217 8.0093 14.6288 8.30219L9.85527 13.0758C9.56238 13.3687 9.56238 13.8435 9.85527 14.1364C10.1482 14.4293 10.623 14.4293 10.9159 14.1364L15.6895 9.36285Z" fill="#363538"/>
</svg>
