<svg width="24" height="24" viewBox="0 0 24 24" fill="none" xmlns="http://www.w3.org/2000/svg">
<path d="M15.6455 7.12646C15.3527 7.41935 15.3527 7.89422 15.6455 8.18712C15.9384 8.48001 16.4133 8.48001 16.7062 8.18712L19.7581 5.13526L19.811 6.14057C19.8327 6.55421 20.1857 6.87188 20.5994 6.85011C21.013 6.82834 21.3307 6.47537 21.3089 6.06173L21.1675 3.37473C21.1473 2.99152 20.8411 2.68535 20.4579 2.66518L17.7709 2.52376C17.3573 2.50199 17.0043 2.81966 16.9825 3.2333C16.9608 3.64695 17.2784 3.99992 17.6921 4.02169L18.6974 4.0746L15.6455 7.12646Z" fill="#363538"/>
<path fill-rule="evenodd" clip-rule="evenodd" d="M12 6.24995C12.4142 6.24995 12.75 6.58574 12.75 6.99995V7.76531C14.4336 7.92698 15.75 9.34544 15.75 11.0714C15.75 11.4856 15.4142 11.8214 15 11.8214C14.5858 11.8214 14.25 11.4856 14.25 11.0714C14.25 10.1751 13.6026 9.43004 12.75 9.27823V12.25C14.4069 12.25 15.75 13.5931 15.75 15.25C15.75 16.9068 14.4069 18.25 12.75 18.25V19C12.75 19.4142 12.4142 19.75 12 19.75C11.5858 19.75 11.25 19.4142 11.25 19V18.2346C9.56644 18.0729 8.25 16.6545 8.25 14.9285C8.25 14.5143 8.58579 14.1785 9 14.1785C9.41421 14.1785 9.75 14.5143 9.75 14.9285C9.75 15.8248 10.3974 16.5699 11.25 16.7217V13.75C9.59315 13.75 8.25 12.4068 8.25 10.75C8.25 9.0931 9.59315 7.74995 11.25 7.74995V6.99995C11.25 6.58574 11.5858 6.24995 12 6.24995ZM9.75 10.75C9.75 9.92153 10.4216 9.24995 11.25 9.24995V12.25C10.4216 12.25 9.75 11.5784 9.75 10.75ZM14.25 15.25C14.25 16.0784 13.5784 16.75 12.75 16.75V13.75C13.5784 13.75 14.25 14.4215 14.25 15.25Z" fill="#363538"/>
</svg>
