<svg width="24" height="24" viewBox="0 0 24 24" fill="none" xmlns="http://www.w3.org/2000/svg">
<path d="M15.5 12C15.5 13.933 13.933 15.5 12 15.5C10.067 15.5 8.5 13.933 8.5 12C8.5 10.067 10.067 8.5 12 8.5C13.933 8.5 15.5 10.067 15.5 12Z" fill="#363538"/>
<path fill-rule="evenodd" clip-rule="evenodd" d="M9 4C9 2.89543 9.89543 2 11 2H13C14.1046 2 15 2.89543 15 4V4.75735L15.5355 4.22182C16.3166 3.44077 17.5829 3.44077 18.364 4.22182L19.7782 5.63603C20.5592 6.41708 20.5592 7.68341 19.7782 8.46446L19.2426 9H20C21.1046 9 22 9.89543 22 11V13C22 14.1046 21.1046 15 20 15H19.2427L19.7782 15.5355C20.5592 16.3166 20.5592 17.5829 19.7782 18.364L18.364 19.7782C17.5829 20.5592 16.3166 20.5592 15.5355 19.7782L15 19.2426V20C15 21.1046 14.1046 22 13 22H11C9.89543 22 9 21.1046 9 20V19.2426L8.46447 19.7782C7.68342 20.5592 6.41709 20.5592 5.63604 19.7782L4.22183 18.364C3.44078 17.5829 3.44078 16.3166 4.22183 15.5355L4.75735 15H4C2.89543 15 2 14.1046 2 13V11C2 9.89543 2.89543 9 4 9H4.75737L4.22183 8.46446C3.44078 7.68341 3.44078 6.41708 4.22183 5.63603L5.63604 4.22182C6.41709 3.44077 7.68342 3.44077 8.46447 4.22182L9 4.75735V4ZM17 12C17 14.7614 14.7614 17 12 17C9.23858 17 7 14.7614 7 12C7 9.23858 9.23858 7 12 7C14.7614 7 17 9.23858 17 12Z" fill="#363538"/>
</svg>
