<svg width="24" height="24" viewBox="0 0 24 24" fill="none" xmlns="http://www.w3.org/2000/svg">
<path d="M15.5 12C15.5 13.933 13.933 15.5 12 15.5C10.067 15.5 8.5 13.933 8.5 12C8.5 10.067 10.067 8.5 12 8.5C13.933 8.5 15.5 10.067 15.5 12Z" fill="#363538"/>
<path fill-rule="evenodd" clip-rule="evenodd" d="M5.40192 6.57162C4.84964 5.61504 5.17739 4.39186 6.13397 3.83957L7.86602 2.83957C8.82261 2.28729 10.0458 2.61504 10.5981 3.57162C11.2212 4.65083 12.7789 4.65083 13.4019 3.57163C13.9542 2.61505 15.1774 2.28729 16.134 2.83958L17.866 3.83958C18.8226 4.39186 19.1504 5.61505 18.5981 6.57163C17.975 7.65083 18.7538 8.99984 20 8.99984C21.1046 8.99984 22 9.89527 22 10.9998V12.9998C22 14.1044 21.1046 14.9998 20 14.9998C18.7539 14.9998 17.975 16.3488 18.5981 17.428C19.1504 18.3846 18.8226 19.6078 17.866 20.1601L16.134 21.1601C15.1774 21.7124 13.9542 21.3846 13.4019 20.428C12.7788 19.3488 11.2212 19.3488 10.5981 20.428C10.0458 21.3846 8.82262 21.7124 7.86603 21.1601L6.13398 20.1601C5.1774 19.6078 4.84965 18.3846 5.40193 17.428C6.02501 16.3488 5.24615 14.9998 4 14.9998C2.89543 14.9998 2 14.1044 2 12.9998V10.9998C2 9.89527 2.89543 8.99984 4 8.99984C5.24616 8.99984 6.025 7.65083 5.40192 6.57162ZM17 12C17 14.7614 14.7614 17 12 17C9.23858 17 7 14.7614 7 12C7 9.23858 9.23858 7 12 7C14.7614 7 17 9.23858 17 12Z" fill="#363538"/>
</svg>
