<svg width="24" height="24" viewBox="0 0 24 24" fill="none" xmlns="http://www.w3.org/2000/svg">
<path fill-rule="evenodd" clip-rule="evenodd" d="M11.2978 2.26723L5.29775 4.51724C4.51715 4.80996 4 5.55605 4 6.38973L4 12.0039C4.00002 15.5625 9.00282 19.121 11.0961 20.4542C11.6561 20.8109 12.3538 20.8275 12.9271 20.4926C15.0339 19.262 20 15.9433 20 12.0039V6.38974C20 5.55605 19.4829 4.80996 18.7023 4.51723L12.7023 2.26723C12.2495 2.09745 11.7505 2.09745 11.2978 2.26723ZM13.0713 7.05629L9.06212 10.8758C8.95447 10.9784 8.99238 11.1584 9.13225 11.2088L11.4619 12.0486C11.5658 12.086 11.6197 12.2006 11.5822 12.3045L10.5809 15.0823C10.5093 15.2809 10.7542 15.4405 10.907 15.295L14.9162 11.4755C15.0239 11.3729 14.986 11.1929 14.8461 11.1425L12.5164 10.3027C12.4125 10.2653 12.3586 10.1507 12.3961 10.0467L13.3974 7.26892C13.469 7.07038 13.2241 6.91072 13.0713 7.05629Z" fill="#363538"/>
</svg>
