<svg width="24" height="24" viewBox="0 0 24 24" fill="none" xmlns="http://www.w3.org/2000/svg">
<path fill-rule="evenodd" clip-rule="evenodd" d="M5.29775 4.51333L11.2978 2.26333C11.7505 2.09354 12.2495 2.09354 12.7023 2.26333L18.7023 4.51333C19.4829 4.80606 20 5.55214 20 6.38583V12C20 15.9394 15.0339 19.2581 12.9271 20.4887C12.3538 20.8236 11.6561 20.807 11.0961 20.4503C9.00282 19.1171 4.00002 15.5585 4 12L4 6.38583C4 5.55214 4.51715 4.80606 5.29775 4.51333ZM12.75 9.66121C12.9056 9.48493 13 9.25337 13 8.99976C13 8.44747 12.5523 7.99976 12 7.99976C11.4477 7.99976 11 8.44747 11 8.99976C11 9.25337 11.0944 9.48493 11.25 9.66121V12.9998C11.25 13.414 11.5858 13.7498 12 13.7498C12.4142 13.7498 12.75 13.414 12.75 12.9998V9.66121Z" fill="#363538"/>
</svg>
