<svg width="24" height="24" viewBox="0 0 24 24" fill="none" xmlns="http://www.w3.org/2000/svg">
<path fill-rule="evenodd" clip-rule="evenodd" d="M11.2979 2.26349C11.7505 2.09381 12.2495 2.09381 12.7021 2.26349L18.7021 4.51349C19.4827 4.80625 20 5.5529 20 6.38654V12.0008C19.9995 15.9399 15.0334 19.2585 12.9268 20.4891C12.3536 20.8237 11.6555 20.8075 11.0957 20.451C9.00245 19.1178 4.00063 15.559 4 12.0008V6.38654C4 5.5529 4.51732 4.80625 5.29785 4.51349L11.2979 2.26349ZM12 10.2508C11.5858 10.2508 11.25 10.5866 11.25 11.0008V15.0008C11.2503 15.4147 11.586 15.7508 12 15.7508C12.414 15.7508 12.7497 15.4147 12.75 15.0008V11.0008C12.75 10.5866 12.4142 10.2508 12 10.2508ZM12 7.0008C11.4477 7.0008 11 7.44851 11 8.0008C11.0003 8.55279 11.4479 9.0008 12 9.0008C12.5521 9.0008 12.9997 8.55279 13 8.0008C13 7.44851 12.5523 7.0008 12 7.0008Z" fill="#363538"/>
</svg>
