<svg width="24" height="24" viewBox="0 0 24 24" fill="none" xmlns="http://www.w3.org/2000/svg">
<path fill-rule="evenodd" clip-rule="evenodd" d="M11.2978 2.26333L5.29775 4.51333C4.51715 4.80606 4 5.55214 4 6.38583L4 12C4.00002 15.5585 9.00282 19.1171 11.0961 20.4503C11.6561 20.807 12.3538 20.8236 12.9271 20.4887C15.0339 19.2581 20 15.9394 20 12V6.38583C20 5.55214 19.4829 4.80606 18.7023 4.51333L12.7023 2.26333C12.2495 2.09354 11.7505 2.09354 11.2978 2.26333ZM15.0211 10.5391C15.319 10.2513 15.3272 9.77655 15.0394 9.47865C14.7516 9.18075 14.2768 9.17256 13.9789 9.46036L11.397 11.9548L10.0234 10.6164C9.72673 10.3274 9.25189 10.3335 8.96283 10.6302C8.67376 10.9269 8.67993 11.4017 8.9766 11.6908L10.8713 13.5369C11.1617 13.8198 11.6243 13.8208 11.9158 13.5391L15.0211 10.5391Z" fill="#363538"/>
</svg>
