<svg width="24" height="24" viewBox="0 0 24 24" fill="none" xmlns="http://www.w3.org/2000/svg">
<path d="M11.2507 21.0879C9.5811 21.2485 5.59278 21.4087 4.00457 19.5C2.90586 18.1793 2.82914 15.717 2.8991 14.2314C2.93479 13.4741 3.45917 12.8491 4.1784 12.6094L4.40203 12.5342L11.2507 11.1641V21.0879Z" fill="#363538"/>
<path d="M19.6169 12.5381L19.8307 12.6094C20.5498 12.8492 21.0744 13.4742 21.11 14.2314C21.18 15.717 21.1032 18.1792 20.0046 19.5C18.4141 21.4116 14.416 21.2477 12.7507 21.0869V11.1641L19.6169 12.5381Z" fill="#363538"/>
<path d="M16.0007 6.25C17.5917 6.25016 18.7507 7.65752 18.7507 9.22266V10.835L12.1481 9.51465C12.1014 9.5053 12.0545 9.50053 12.0085 9.5C11.9573 9.49948 11.9054 9.50424 11.8532 9.51465L5.25067 10.835V9.22266C5.25067 7.65749 6.4096 6.25011 8.00067 6.25H16.0007Z" fill="#363538"/>
<path d="M14.0007 2.25C14.967 2.25015 15.7507 3.03359 15.7507 4V4.75H8.25067V4C8.25067 3.03356 9.03425 2.2501 10.0007 2.25H14.0007Z" fill="#363538"/>
</svg>
