<svg width="24" height="24" viewBox="0 0 24 24" fill="none" xmlns="http://www.w3.org/2000/svg">
<path d="M17.2524 13.3293C16.4554 12.8739 15.4835 12.8469 14.6624 13.2574L14.2677 13.4548C12.8403 14.1685 11.1602 14.1685 9.73281 13.4548L9.33809 13.2574C8.51702 12.8469 7.5451 12.8739 6.74807 13.3293L6.4376 13.5067C5.88089 13.8249 5.26326 13.9852 4.64591 13.9898L5.08446 17.7174C5.32145 19.7319 7.02871 21.25 9.05706 21.25L9.25004 21.25V18.25C9.25004 16.7313 10.4813 15.5 12 15.5C13.5188 15.5 14.75 16.7313 14.75 18.25V21.25L15.4431 21.25C17.4714 21.25 19.1787 19.7319 19.4157 17.7174L19.8578 13.9589C19.0783 14.0608 18.2713 13.9115 17.5629 13.5067L17.2524 13.3293Z" fill="#363538"/>
<path d="M13.25 21.25V18.25C13.25 17.5597 12.6904 17 12 17C11.3097 17 10.75 17.5597 10.75 18.25V21.25H13.25Z" fill="#363538"/>
<path d="M14.1953 3.11587L12.9865 2.9144C12.3334 2.80555 11.6668 2.80555 11.0137 2.9144L9.78972 3.1184L9.74521 3.5625L8.74421 11.1891L8.74371 11.1929L8.69287 11.5964L9.31681 11.9084C11.006 12.7529 12.9942 12.7529 14.6834 11.9084L15.3073 11.5964L15.2565 11.1929L15.256 11.1891L14.2565 3.57388L14.1953 3.11587Z" fill="#363538"/>
<path d="M16.8357 11.7275L18.7251 12.8072C19.2001 13.0786 19.7876 13.0583 20.2428 12.7549C20.7055 12.4464 20.95 11.8995 20.8714 11.349L20.1266 6.13523C20.0461 5.57195 19.7295 5.0696 19.2561 4.75398L17.5039 3.5859C17.1754 3.36688 16.7894 3.25 16.3945 3.25H15.7265L15.7437 3.37868L16.7442 11.0016L16.8357 11.7275Z" fill="#363538"/>
<path d="M7.1645 11.7275L7.25598 11.0016L7.25647 10.9977L8.25498 3.39006L8.26901 3.25H7.60564C7.21079 3.25 6.82478 3.36688 6.49624 3.5859L4.74413 4.75398C4.27069 5.0696 3.9541 5.57195 3.87363 6.13523L3.12881 11.349C3.05016 11.8995 3.29465 12.4464 3.75741 12.7549C4.21258 13.0583 4.80011 13.0786 5.27507 12.8072L7.1645 11.7275Z" fill="#363538"/>
</svg>
