<svg width="24" height="24" viewBox="0 0 24 24" fill="none" xmlns="http://www.w3.org/2000/svg">
<path d="M11.5305 4.53033C11.8233 4.23744 11.8233 3.76256 11.5305 3.46967C11.2376 3.17678 10.7627 3.17678 10.4698 3.46967L9.49945 4.44001C9.35792 4.31011 9.19089 4.22955 9.07821 4.18086C8.93811 4.12032 8.77865 4.06672 8.61481 4.01876C5.72338 3.17237 3.25012 5.72106 3.25012 8.46911V12.0001L3.25031 12.0171C2.65759 12.1275 2.27956 12.7543 2.49918 13.3473L2.86228 14.3277C3.02697 14.7724 3.11128 15.2428 3.11128 15.7169V17C3.11128 19.2091 4.90214 21 7.11128 21H16.8891C19.0982 21 20.8891 19.2091 20.8891 17V15.7169C20.8891 15.2428 20.9734 14.7724 21.1381 14.3277L21.5012 13.3473C21.7431 12.6942 21.2599 12 20.5634 12L4.75012 12V8.46911C4.75012 6.44908 6.50877 4.96521 8.19341 5.45835C8.28199 5.48428 8.35396 5.50801 8.41053 5.52893L7.46979 6.46967C7.1769 6.76256 7.1769 7.23744 7.46979 7.53033C7.76269 7.82322 8.23756 7.82322 8.53045 7.53033L11.5305 4.53033Z" fill="#363538"/>
</svg>
