<svg width="24" height="24" viewBox="0 0 24 24" fill="none" xmlns="http://www.w3.org/2000/svg">
<path d="M17.6291 8.04825C17.3028 8.30341 17.2451 8.77477 17.5003 9.10106C17.7555 9.42735 18.2268 9.48502 18.5531 9.22986L20.7082 7.54461C20.872 7.41655 20.9752 7.22627 20.9933 7.01917C21.0115 6.81208 20.9428 6.60675 20.8038 6.4522L18.9741 4.41832C18.697 4.11038 18.2228 4.08532 17.9149 4.36235C17.6069 4.63938 17.5819 5.11359 17.8589 5.42153L18.6041 6.2499H17C15.0844 6.2499 13.3877 7.18659 12.3427 8.62693C12.6928 9.12475 12.9544 9.68934 13.1046 10.2978C13.7609 8.7979 15.258 7.7499 17 7.7499H18.0106L17.6291 8.04825Z" fill="#363538"/>
<path d="M11.8194 15.1373C11.4236 14.7639 11.0887 14.3265 10.8312 13.8418C10.145 15.2666 8.68732 16.2499 7 16.2499H4C3.58579 16.2499 3.25 16.5857 3.25 16.9999C3.25 17.4141 3.58579 17.7499 4 17.7499H7C9.01807 17.7499 10.7933 16.7103 11.8194 15.1373Z" fill="#363538"/>
<path d="M3.25 6.9999C3.25 6.58568 3.58579 6.2499 4 6.2499H7C10.1756 6.2499 12.75 8.82426 12.75 11.9999C12.75 14.3471 14.6528 16.2499 17 16.2499H18.0105L17.6291 15.9516C17.3028 15.6965 17.2451 15.2251 17.5003 14.8988C17.7555 14.5725 18.2268 14.5149 18.5531 14.77L20.7082 16.4553C20.872 16.5833 20.9752 16.7736 20.9933 16.9807C21.0115 17.1878 20.9428 17.3931 20.8038 17.5477L18.9741 19.5816C18.697 19.8895 18.2228 19.9146 17.9149 19.6375C17.6069 19.3605 17.5819 18.8863 17.8589 18.5783L18.6042 17.7499H17C13.8244 17.7499 11.25 15.1755 11.25 11.9999C11.25 9.65269 9.34721 7.7499 7 7.7499H4C3.58579 7.7499 3.25 7.41411 3.25 6.9999Z" fill="#363538"/>
</svg>
