<svg width="24" height="24" viewBox="0 0 24 24" fill="none" xmlns="http://www.w3.org/2000/svg">
<path d="M9 3H7C4.79086 3 3 4.79086 3 7V17C3 19.2091 4.79086 21 7 21H9C10.3326 21 11.4622 20.1312 11.8534 18.929C12.0455 18.3385 11.8554 17.7108 11.5777 17.1554L9.89443 13.7889C9.33137 12.6627 9.33137 11.3373 9.89443 10.2111L11.5777 6.84458C11.8554 6.28916 12.0455 5.66146 11.8534 5.07095C11.4622 3.86885 10.3326 3 9 3Z" fill="#363538"/>
<path d="M13.5303 9.46967C13.8232 9.76256 13.8232 10.2374 13.5303 10.5303L12.8107 11.25H20C20.4142 11.25 20.75 11.5858 20.75 12C20.75 12.4142 20.4142 12.75 20 12.75H12.8107L13.5303 13.4697C13.8232 13.7626 13.8232 14.2374 13.5303 14.5303C13.2374 14.8232 12.7626 14.8232 12.4697 14.5303L10.4697 12.5303C10.3978 12.4584 10.3435 12.3755 10.3069 12.2871C10.2711 12.2007 10.2509 12.1061 10.25 12.0069L10.25 12L10.25 11.9931C10.2518 11.8034 10.325 11.6144 10.4697 11.4697L12.4697 9.46967C12.7626 9.17678 13.2374 9.17678 13.5303 9.46967Z" fill="#363538"/>
</svg>
