<svg width="24" height="24" viewBox="0 0 24 24" fill="none" xmlns="http://www.w3.org/2000/svg">
<path d="M8.75 9C8.75 8.30964 9.30964 7.75 10 7.75H12.7699C13.1436 7.75 13.4977 7.91719 13.7352 8.20575L14.9652 9.70061C15.1493 9.92435 15.25 10.2051 15.25 10.4949V15C15.25 15.6904 14.6904 16.25 14 16.25H10C9.30964 16.25 8.75 15.6904 8.75 15V9Z" fill="#363538"/>
<path fill-rule="evenodd" clip-rule="evenodd" d="M8 3H13.6659C14.7889 3 15.8602 3.4721 16.618 4.30092L18.9521 6.85388C19.6262 7.59115 20 8.55397 20 9.55295V17C20 19.2091 18.2091 21 16 21H8C5.79086 21 4 19.2091 4 17V7C4 4.79086 5.79086 3 8 3ZM10 6.25C8.48122 6.25 7.25 7.48122 7.25 9V15C7.25 16.5188 8.48122 17.75 10 17.75H14C15.5188 17.75 16.75 16.5188 16.75 15V10.4949C16.75 9.8574 16.5285 9.23975 16.1235 8.74751L14.8935 7.25266C14.3711 6.61782 13.5921 6.25 12.7699 6.25H10Z" fill="#363538"/>
</svg>
