<svg width="24" height="24" viewBox="0 0 24 24" fill="none" xmlns="http://www.w3.org/2000/svg">
<path fill-rule="evenodd" clip-rule="evenodd" d="M12 3.5C15.866 3.5 19 6.63401 19 10.5V13.0156C18.9998 14.5519 18.1765 15.9701 16.8428 16.7324L15.6494 17.415C15.5573 17.4677 15.5 17.5658 15.5 17.6719V18.6016C15.5 19.5133 14.8571 20.2739 14 20.457V19C14 18.5858 13.6642 18.25 13.25 18.25C12.8358 18.25 12.5 18.5858 12.5 19V20.5H11.5V19C11.5 18.5858 11.1642 18.25 10.75 18.25C10.3358 18.25 10 18.5858 10 19V20.457C9.14294 20.2739 8.5 19.5133 8.5 18.6016V17.6719C8.5 17.5658 8.44268 17.4677 8.35059 17.415L7.15723 16.7324C5.82345 15.9701 5.00017 14.5519 5 13.0156V10.5C5 6.63401 8.13401 3.5 12 3.5ZM12 13.75C11.7513 13.75 11.5215 13.8731 11.3828 14.0742L11.3291 14.165L10.8291 15.165C10.7131 15.3974 10.7257 15.6735 10.8623 15.8945C10.999 16.1155 11.2402 16.25 11.5 16.25H12.5C12.7598 16.25 13.001 16.1155 13.1377 15.8945C13.2572 15.7011 13.2816 15.4655 13.208 15.2539L13.1709 15.165L12.6709 14.165C12.5439 13.911 12.2841 13.75 12 13.75ZM9.5 9.5C8.67157 9.5 8 10.1716 8 11C8 11.8284 8.67157 12.5 9.5 12.5C10.3284 12.5 11 11.8284 11 11C11 10.1716 10.3284 9.5 9.5 9.5ZM14.5 9.5C13.6716 9.5 13 10.1716 13 11C13 11.8284 13.6716 12.5 14.5 12.5C15.3284 12.5 16 11.8284 16 11C16 10.1716 15.3284 9.5 14.5 9.5Z" fill="#363538"/>
</svg>
