<svg width="24" height="24" viewBox="0 0 24 24" fill="none" xmlns="http://www.w3.org/2000/svg">
<path d="M9.62542 6.78177C8.5847 6.78177 7.73454 5.9316 7.73454 4.89088C7.73454 3.85016 8.5847 3 9.62542 3C10.6661 3 11.5163 3.85016 11.5163 4.89088V6.78177H9.62542Z" fill="#363538"/>
<path d="M4.89088 16.2654C5.9316 16.2654 6.78177 15.4152 6.78177 14.3745V12.4836H4.89088C3.85016 12.4836 3 13.3338 3 14.3745C3 15.4152 3.85016 16.2654 4.89088 16.2654Z" fill="#363538"/>
<path d="M9.62542 12.4838C8.5847 12.4838 7.73454 13.334 7.73454 14.3747V19.1092C7.73454 20.1499 8.5847 21.0001 9.62542 21.0001C10.6661 21.0001 11.5163 20.1499 11.5163 19.1092V14.3747C11.5163 13.334 10.6661 12.4838 9.62542 12.4838Z" fill="#363538"/>
<path d="M11.5163 9.62542C11.5163 8.5847 10.6661 7.73454 9.62542 7.73454H4.89088C3.85016 7.73454 3 8.5847 3 9.62542C3 10.6661 3.85016 11.5163 4.89088 11.5163H9.62542C10.6661 11.5163 11.5163 10.6661 11.5163 9.62542Z" fill="#363538"/>
<path d="M17.2182 9.62542C17.2182 8.5847 18.0684 7.73454 19.1091 7.73454C20.1498 7.73454 21 8.5847 21 9.62542C21 10.6661 20.1498 11.5163 19.1091 11.5163H17.2182V9.62542Z" fill="#363538"/>
<path d="M14.3747 11.5163C15.4154 11.5163 16.2656 10.6661 16.2656 9.62542V4.89088C16.2656 3.85016 15.4154 3 14.3747 3C13.334 3 12.4838 3.85016 12.4838 4.89088V9.62542C12.4838 10.6661 13.334 11.5163 14.3747 11.5163Z" fill="#363538"/>
<path d="M14.3746 17.2183C15.4153 17.2183 16.2655 18.0685 16.2655 19.1092C16.2655 20.1499 15.4153 21.0001 14.3746 21.0001C13.3339 21.0001 12.4837 20.1499 12.4837 19.1092V17.2183H14.3746Z" fill="#363538"/>
<path d="M12.4838 14.3745C12.4838 15.4152 13.334 16.2654 14.3747 16.2654H19.1092C20.1499 16.2654 21.0001 15.4152 21.0001 14.3745C21.0001 13.3338 20.1499 12.4836 19.1092 12.4836H14.3747C13.334 12.4836 12.4838 13.3338 12.4838 14.3745Z" fill="#363538"/>
</svg>
