<svg width="24" height="24" viewBox="0 0 24 24" fill="none" xmlns="http://www.w3.org/2000/svg">
<path d="M6.50015 2.75H17.4999C19.3142 2.75 20.8276 4.03843 21.175 5.75024H2.82499C3.17241 4.03843 4.68581 2.75 6.50015 2.75Z" fill="#363538"/>
<path d="M10 10.6438C10 9.91885 10.7861 9.5178 11.3538 9.90048L14.1082 11.757C14.6306 12.1091 14.6306 12.8914 14.1082 13.2435L11.3538 15.1C10.7861 15.4827 10 15.0816 10 14.3567V10.6438Z" fill="#363538"/>
<path fill-rule="evenodd" clip-rule="evenodd" d="M2.75 7.25024H21.25V14.7611C21.25 16.9702 19.4591 18.7611 17.25 18.7611H12.75V20.4999H15C15.4142 20.4999 15.75 20.8357 15.75 21.2499C15.75 21.6641 15.4142 21.9999 15 21.9999H9C8.58579 21.9999 8.25 21.6641 8.25 21.2499C8.25 20.8357 8.58579 20.4999 9 20.4999H11.25V18.7611H6.75C4.54086 18.7611 2.75 16.9702 2.75 14.7611V7.25024ZM12.1922 8.65665C10.603 7.58551 8.5 8.74774 8.5 10.6438V14.3567C8.5 16.2528 10.603 17.415 12.1922 16.3438L14.9465 14.4874C16.3512 13.5406 16.3512 11.4599 14.9465 10.5131L12.1922 8.65665Z" fill="#363538"/>
</svg>
