<svg width="24" height="24" viewBox="0 0 24 24" fill="none" xmlns="http://www.w3.org/2000/svg">
<path fill-rule="evenodd" clip-rule="evenodd" d="M4 6C4 3.79086 5.79086 2 8 2H16C18.2091 2 20 3.79086 20 6V11.9367C19.8803 11.9126 19.7564 11.9 19.6296 11.9H19.4999V11.75C19.4999 10.9216 18.8283 10.25 17.9999 10.25C17.1768 10.25 16.5085 10.9131 16.5 11.7342C16.4915 10.9131 15.8232 10.25 15.0001 10.25C14.1717 10.25 13.5001 10.9216 13.5001 11.75V11.9H13.3704C12.3374 11.9 11.5 12.7374 11.5 13.7704V14.9C11.5 17.1987 13.0512 19.1352 15.164 19.7195C15.0354 20.2785 15 20.7849 15 21.0502C15 21.4106 15.1271 21.7413 15.339 22H8C5.79086 22 4 20.2091 4 18V6ZM13 19C13 19.5523 12.5523 20 12 20C11.4477 20 11 19.5523 11 19C11 18.4477 11.4477 18 12 18C12.5523 18 13 18.4477 13 19Z" fill="#363538"/>
<path d="M18.295 19.5682C18.9242 19.3261 19.4921 18.9604 19.9689 18.5009C19.807 19.7967 19.0254 20.8999 17.93 21.5044C17.9755 21.3611 18 21.2085 18 21.0502C18 21.0134 18.0057 20.8723 18.0342 20.6783C18.0622 20.4868 18.1061 20.2877 18.1658 20.1171C18.2311 19.9306 18.2721 19.7463 18.295 19.5682Z" fill="#363538"/>
<path fill-rule="evenodd" clip-rule="evenodd" d="M15.7501 11.75C15.7501 11.3358 15.4143 11 15.0001 11C14.5859 11 14.2501 11.3358 14.2501 11.75V12.65H13.3704C12.7516 12.65 12.25 13.1516 12.25 13.7704V14.9C12.25 17.0919 13.9093 18.8962 16.0402 19.1254C16.0453 19.1375 16.0495 19.1486 16.0531 19.159C16.0646 19.1924 16.0686 19.2173 16.0688 19.241C16.069 19.2646 16.0656 19.3066 16.0421 19.3738C15.8071 20.0453 15.75 20.7525 15.75 21.0502C15.75 21.4644 16.0858 21.8002 16.5 21.8002C16.9142 21.8002 17.25 21.4644 17.25 21.0502C17.25 20.8717 17.2929 20.3407 17.4579 19.8694C17.5684 19.5535 17.5838 19.2672 17.5515 19.0189C19.3901 18.551 20.75 16.8843 20.75 14.9V13.7704C20.75 13.1516 20.2484 12.65 19.6296 12.65H18.7499V11.75C18.7499 11.3358 18.4141 11 17.9999 11C17.5857 11 17.2499 11.3358 17.2499 11.75V12.65H15.7501V11.75ZM13.75 14.15H19.25V14.9C19.25 16.4188 18.0188 17.65 16.5 17.65C14.9812 17.65 13.75 16.4188 13.75 14.9V14.15Z" fill="#363538"/>
</svg>
