<svg width="24" height="24" viewBox="0 0 24 24" fill="none" xmlns="http://www.w3.org/2000/svg">
<path fill-rule="evenodd" clip-rule="evenodd" d="M2 6C2 3.79086 3.79086 2 6 2H14C16.2091 2 18 3.79086 18 6V18C18 20.2091 16.2091 22 14 22H6C3.79086 22 2 20.2091 2 18V6ZM11 19C11 19.5523 10.5523 20 10 20C9.44772 20 9 19.5523 9 19C9 18.4477 9.44772 18 10 18C10.5523 18 11 18.4477 11 19Z" fill="#363538"/>
<path d="M21.7372 15.7115C22.1301 15.5805 22.3425 15.1558 22.2115 14.7628C22.0962 14.4169 21.7532 14.2109 21.4047 14.2559C21.595 13.6849 21.75 12.9931 21.75 12.25C21.75 11.2395 21.4633 10.3239 21.1912 9.67771C21.0537 9.35103 20.9159 9.08383 20.8111 8.89619C20.7587 8.80217 20.7142 8.72754 20.6817 8.6748C20.6655 8.64841 20.6522 8.62744 20.6424 8.61222L20.6304 8.5937L20.6265 8.58772L20.6251 8.58557L20.6245 8.5847C20.6244 8.58453 20.624 8.58397 20 9L20.6245 8.5847C20.3948 8.24006 19.9286 8.1462 19.584 8.37596C19.2398 8.60541 19.1465 9.0701 19.375 9.41461L19.3758 9.41571L19.38 9.42233C19.3849 9.42993 19.3931 9.4429 19.4042 9.46094C19.4265 9.49706 19.4601 9.5533 19.5014 9.62724C19.5841 9.77555 19.6963 9.99272 19.8088 10.2598C20.0367 10.8011 20.25 11.5105 20.25 12.25C20.25 12.7476 20.1534 13.2317 20.0208 13.66C19.8174 13.4642 19.5116 13.392 19.2308 13.5C18.8442 13.6487 18.6513 14.0826 18.8 14.4692L19.3 15.7692C19.4439 16.1435 19.8568 16.3383 20.2372 16.2115L21.7372 15.7115Z" fill="#363538"/>
</svg>
