<svg width="24" height="24" viewBox="0 0 24 24" fill="none" xmlns="http://www.w3.org/2000/svg">
<path fill-rule="evenodd" clip-rule="evenodd" d="M4 6C4 3.79086 5.79086 2 8 2H16C18.2091 2 20 3.79086 20 6V18C20 20.2091 18.2091 22 16 22H8C5.79086 22 4 20.2091 4 18V6ZM13 19C13 19.5523 12.5523 20 12 20C11.4477 20 11 19.5523 11 19C11 18.4477 11.4477 18 12 18C12.5523 18 13 18.4477 13 19ZM9.88106 9.76053C10.376 9.14315 11.134 8.75 11.9844 8.75C13.0938 8.75 14.0467 9.42073 14.4595 10.3788C14.3048 10.4011 14.1558 10.4718 14.0369 10.5908C13.744 10.8837 13.744 11.3585 14.0369 11.6514L14.8978 12.5124C15.0385 12.653 15.2292 12.732 15.4282 12.732C15.6271 12.732 15.8178 12.653 15.9585 12.5124L16.8194 11.6514C17.1123 11.3585 17.1123 10.8837 16.8194 10.5908C16.6113 10.3826 16.3112 10.3224 16.0498 10.4101C15.5894 8.59381 13.9438 7.25 11.9844 7.25C10.6596 7.25 9.47804 7.86509 8.71069 8.82232C8.45161 9.14551 8.50358 9.61754 8.82677 9.87661C9.14996 10.1357 9.62198 10.0837 9.88106 9.76053ZM9.10124 10.3756C8.96059 10.2349 8.76982 10.1559 8.57091 10.1559C8.372 10.1559 8.18123 10.2349 8.04058 10.3756L7.17963 11.2365C6.88674 11.5294 6.88674 12.0043 7.17963 12.2972C7.3878 12.5054 7.6879 12.5656 7.94926 12.4778C8.40975 14.294 10.0553 15.6377 12.0146 15.6377C13.3394 15.6377 14.521 15.0226 15.2883 14.0654C15.5474 13.7422 15.4954 13.2702 15.1722 13.0111C14.849 12.752 14.377 12.804 14.1179 13.1272C13.623 13.7446 12.865 14.1377 12.0146 14.1377C10.9053 14.1377 9.95251 13.4671 9.53965 12.5091C9.69426 12.4868 9.84324 12.4162 9.96219 12.2972C10.2551 12.0043 10.2551 11.5294 9.96219 11.2365L9.10124 10.3756Z" fill="#363538"/>
</svg>
