<svg width="24" height="24" viewBox="0 0 24 24" fill="none" xmlns="http://www.w3.org/2000/svg">
<path d="M22 12C22 11.0545 21.344 10.2623 20.4623 10.0537C19.5771 6.15777 16.0935 3.25 11.9297 3.25C9.16612 3.25 6.70147 4.53204 5.09913 6.5309C4.8233 6.87498 4.57288 7.24044 4.35074 7.62446C4.14333 7.983 4.26585 8.4418 4.6244 8.6492C4.98294 8.85661 5.44174 8.73409 5.64915 8.37554C5.83317 8.05742 6.04074 7.75447 6.2695 7.4691C7.5994 5.81011 9.64049 4.75 11.9297 4.75C15.3416 4.75 18.204 7.10749 18.9751 10.2822C18.3911 10.6314 18 11.27 18 12C18 13.1046 18.8954 14 20 14C21.1046 14 22 13.1046 22 12Z" fill="#363538"/>
<path d="M6 12C6 12.7554 5.58126 13.4129 4.96325 13.7532C5.74699 16.91 8.60071 19.25 12 19.25C14.2892 19.25 16.3303 18.1899 17.6602 16.5309C17.8889 16.2455 18.0965 15.9426 18.2805 15.6245C18.4879 15.2659 18.9467 15.1434 19.3053 15.3508C19.6638 15.5582 19.7864 16.017 19.5789 16.3755C19.3568 16.7596 19.1064 17.125 18.8306 17.4691C17.2282 19.468 14.7636 20.75 12 20.75C7.82938 20.75 4.34114 17.8327 3.46306 13.9271C2.61925 13.6925 2 12.9186 2 12C2 10.8954 2.89543 10 4 10C5.10457 10 6 10.8954 6 12Z" fill="#363538"/>
<path d="M8.5 14.3869V9.61309C8.5 7.92821 10.4261 6.92324 11.864 7.85784L15.5365 10.2448C16.8212 11.0798 16.8212 12.9202 15.5365 13.7552L11.864 16.1422C10.4261 17.0768 8.5 16.0718 8.5 14.3869Z" fill="#363538"/>
</svg>
