<svg width="24" height="24" viewBox="0 0 24 24" fill="none" xmlns="http://www.w3.org/2000/svg">
<path d="M8.28849 2.26279C8.41947 1.86983 8.84421 1.65746 9.23717 1.78845C9.5831 1.90376 9.78908 2.24672 9.74406 2.59525C10.3151 2.405 11.0069 2.24996 11.75 2.24996C12.7605 2.24996 13.6761 2.53667 14.3223 2.80873C14.649 2.94628 14.9162 3.08409 15.1038 3.18881C15.1978 3.24129 15.2725 3.28579 15.3252 3.31825C15.3516 3.33449 15.3726 3.34774 15.3878 3.35752L15.4063 3.36951L15.4123 3.37344L15.4144 3.37486L15.4153 3.37544C15.4155 3.37555 15.416 3.37592 15 3.99996L15.4153 3.37544C15.7599 3.6052 15.8538 4.07134 15.624 4.41598C15.3946 4.76016 14.9299 4.85351 14.5854 4.62494C14.5853 4.62486 14.5855 4.62502 14.5854 4.62494C14.5851 4.62477 14.5845 4.62437 14.5843 4.6242L14.5777 4.61994C14.5701 4.61507 14.5571 4.60684 14.5391 4.59573C14.5029 4.57351 14.4467 4.53988 14.3728 4.49861C14.2245 4.41583 14.0073 4.30364 13.7402 4.19119C13.1989 3.96325 12.4895 3.74996 11.75 3.74996C11.2524 3.74996 10.7683 3.84656 10.34 3.97921C10.5358 4.18252 10.608 4.48835 10.5 4.76919C10.3513 5.1558 9.91737 5.34866 9.53077 5.19997L8.23077 4.69997C7.85652 4.55603 7.66169 4.14318 7.78849 3.76279L8.28849 2.26279Z" fill="#363538"/>
<path fill-rule="evenodd" clip-rule="evenodd" d="M18 5.99996C20.2091 5.99996 22 7.79082 22 9.99996V18C22 20.2091 20.2091 22 18 22H6C3.79086 22 2 20.2091 2 18V9.99996C2 7.79082 3.79086 5.99996 6 5.99996H18ZM5 15C4.44772 15 4 14.5522 4 14C4 13.4477 4.44772 13 5 13C5.55229 13 6 13.4477 6 14C6 14.5522 5.55229 15 5 15Z" fill="#363538"/>
</svg>
