<svg width="24" height="24" viewBox="0 0 24 24" fill="none" xmlns="http://www.w3.org/2000/svg">
<path d="M6 15.7501C6.6903 15.7501 7.24991 16.3098 7.25 17.0001V19.0001H5C3.89543 19.0001 3 18.1046 3 17.0001V15.7501H6Z" fill="#363538"/>
<path d="M21 17.0001C21 18.1046 20.1046 19.0001 19 19.0001H8.75V17.0001C8.74999 16.9158 8.74473 16.8324 8.7373 16.7501H21V17.0001Z" fill="#363538"/>
<path d="M13.5166 6.44927C13.7948 5.61497 14.6393 5.10646 15.5068 5.25103L15.8691 5.31158C16.5216 5.42036 16.9999 5.98504 17 6.64654C17 7.39403 17.606 8.00005 18.3535 8.00005H19.1895C19.3883 8.00002 19.5791 7.92095 19.7197 7.78033C20.1922 7.30813 20.9998 7.64268 21 8.3106V10.2501H18C17.5858 10.2501 17.2501 10.5859 17.25 11.0001C17.25 11.4143 17.5858 11.7501 18 11.7501H21V15.2501H8.12109C7.6167 14.6395 6.85385 14.2501 6 14.2501H3.22754C3.72558 12.8384 4.9951 11.7783 6.55859 11.6045L9.69531 11.2559L11.4697 13.0303C11.7626 13.3232 12.2374 13.3232 12.5303 13.0303C12.823 12.7374 12.8231 12.2626 12.5303 11.9698L11.3398 10.7793C11.6183 10.6068 11.8664 10.3894 12.0752 10.1358L13.4697 11.5303C13.7626 11.8232 14.2374 11.8232 14.5303 11.5303C14.823 11.2374 14.8231 10.7626 14.5303 10.4698L12.7646 8.70415L13.5166 6.44927Z" fill="#363538"/>
</svg>
