<svg width="24" height="24" viewBox="0 0 24 24" fill="none" xmlns="http://www.w3.org/2000/svg">
<path d="M9.25879 13.25C10.0159 13.2502 10.3948 14.1658 9.85938 14.7012L5.31055 19.25H9.5C9.91421 19.25 10.25 19.5858 10.25 20C10.25 20.4142 9.91421 20.75 9.5 20.75H3.74121C2.98408 20.7498 2.60521 19.8342 3.14062 19.2988L7.68945 14.75H3.5C3.08579 14.75 2.75 14.4142 2.75 14C2.75 13.5858 3.08579 13.25 3.5 13.25H9.25879Z" fill="#363538"/>
<path d="M20.2588 3.25C21.0159 3.25017 21.3948 4.16575 20.8594 4.70117L14.3105 11.25H20.5C20.9142 11.25 21.25 11.5858 21.25 12C21.25 12.4142 20.9142 12.75 20.5 12.75H12.7412C11.9841 12.7498 11.6052 11.8343 12.1406 11.2988L18.6895 4.75H12.5C12.0858 4.75 11.75 4.41421 11.75 4C11.75 3.58579 12.0858 3.25 12.5 3.25H20.2588Z" fill="#363538"/>
</svg>
