<svg width="24" height="24" viewBox="0 0 24 24" fill="none" xmlns="http://www.w3.org/2000/svg">
<path d="M11.25 8.32422C9.53824 8.67161 8.25 10.1857 8.25 12C8.25 13.8142 9.53834 15.3273 11.25 15.6748V19H5C3.89543 19 3 18.1046 3 17V15.75H4C5.51878 15.75 6.75 14.5188 6.75 13V11C6.75 9.48122 5.51878 8.25 4 8.25H3V7C3 5.89543 3.89543 5 5 5H11.25V8.32422Z" fill="#363538"/>
<path d="M19 5C20.1046 5 21 5.89543 21 7V8.25H20C18.4812 8.25 17.25 9.48122 17.25 11V13C17.25 14.5188 18.4812 15.75 20 15.75H21V17C21 18.1046 20.1046 19 19 19H12.75V15.6748C14.4617 15.3273 15.75 13.8142 15.75 12C15.75 10.1857 14.4618 8.67161 12.75 8.32422V5H19Z" fill="#363538"/>
<path d="M4 9.75C4.69036 9.75 5.25 10.3096 5.25 11V13C5.25 13.6904 4.69036 14.25 4 14.25H3V9.75H4Z" fill="#363538"/>
<path d="M21 14.25H20C19.3096 14.25 18.75 13.6904 18.75 13V11C18.75 10.3096 19.3096 9.75 20 9.75H21V14.25Z" fill="#363538"/>
<path d="M11.25 14.1182C10.3767 13.8089 9.75 12.9792 9.75 12C9.75 11.0207 10.3766 10.19 11.25 9.88086V14.1182Z" fill="#363538"/>
<path d="M12.75 9.88086C13.6234 10.19 14.25 11.0207 14.25 12C14.25 12.9792 13.6233 13.8089 12.75 14.1182V9.88086Z" fill="#363538"/>
</svg>
