<svg width="24" height="24" viewBox="0 0 24 24" fill="none" xmlns="http://www.w3.org/2000/svg">
<path d="M17 6.19771V10.5C17 9.39543 17.8954 8.5 19 8.5C20.1046 8.5 21 9.39543 21 10.5V12.5C21 13.6046 20.1046 14.5 19 14.5C17.8954 14.5 17 13.6046 17 12.5C17 13.6046 16.1046 14.5 15 14.5H18.5C19.8807 14.5 21 15.6193 21 17C21 18.3807 19.8807 19.5 18.5 19.5H5.5C4.11929 19.5 3 18.3807 3 17C3 15.6193 4.11929 14.5 5.5 14.5H9C7.89543 14.5 7 13.6046 7 12.5C7 13.6046 6.10457 14.5 5 14.5C3.89543 14.5 3 13.6046 3 12.5V10.5C3 9.39543 3.89543 8.5 5 8.5C6.10457 8.5 7 9.39543 7 10.5V6.19771C7 5.21851 7.70839 4.38306 8.6799 4.26055C9.69826 4.13213 10.9912 4 12 4C13.0088 4 14.3017 4.13213 15.3201 4.26055C16.2916 4.38306 17 5.21851 17 6.19771Z" fill="#363538"/>
<path d="M6.5 20H5.5C5.22386 20 5 20.3358 5 20.75C5 21.1642 5.22386 21.5 5.5 21.5H6.5C6.77614 21.5 7 21.1642 7 20.75C7 20.3358 6.77614 20 6.5 20Z" fill="#363538"/>
<path d="M17.5 20H18.5C18.7761 20 19 20.3358 19 20.75C19 21.1642 18.7761 21.5 18.5 21.5H17.5C17.2239 21.5 17 21.1642 17 20.75C17 20.3358 17.2239 20 17.5 20Z" fill="#363538"/>
</svg>
