<svg width="24" height="24" viewBox="0 0 24 24" fill="none" xmlns="http://www.w3.org/2000/svg">
<path d="M19.3819 3H5.61799C5.23922 3 4.89295 3.214 4.72356 3.55279L3.72356 5.55279C3.39111 6.21769 3.87461 7 4.61799 7H18.3819C18.7607 7 19.107 6.786 19.2764 6.44721L20.2764 4.44721C20.6088 3.78231 20.1253 3 19.3819 3Z" fill="#363538"/>
<path d="M4.61799 10H18.3819C18.7607 10 19.107 10.214 19.2763 10.5528L20.2764 12.5528C20.6088 13.2177 20.1253 14 19.3819 14H5.61799C5.23922 14 4.89296 13.786 4.72356 13.4472L3.72356 11.4472C3.39111 10.7823 3.87461 10 4.61799 10Z" fill="#363538"/>
<path d="M19.3819 17H5.61799C5.23922 17 4.89295 17.214 4.72356 17.5528L3.72356 19.5528C3.39111 20.2177 3.87461 21 4.61799 21H18.3819C18.7607 21 19.107 20.786 19.2764 20.4472L20.2764 18.4472C20.6088 17.7823 20.1253 17 19.3819 17Z" fill="#363538"/>
</svg>
