<svg width="24" height="24" viewBox="0 0 24 24" fill="none" xmlns="http://www.w3.org/2000/svg">
<path d="M2.25 5C2.25 4.58579 2.58579 4.25 3 4.25H21C21.4142 4.25 21.75 4.58579 21.75 5C21.75 5.41421 21.4142 5.75 21 5.75H3C2.58579 5.75 2.25 5.41421 2.25 5Z" fill="#363538"/>
<path d="M2.25 12C2.25 11.5858 2.58579 11.25 3 11.25H13C13.4142 11.25 13.75 11.5858 13.75 12C13.75 12.4142 13.4142 12.75 13 12.75H3C2.58579 12.75 2.25 12.4142 2.25 12Z" fill="#363538"/>
<path d="M3 18.25C2.58579 18.25 2.25 18.5858 2.25 19C2.25 19.4142 2.58579 19.75 3 19.75H7C7.41421 19.75 7.75 19.4142 7.75 19C7.75 18.5858 7.41421 18.25 7 18.25H3Z" fill="#363538"/>
<path d="M18.75 17.1893L20.4697 15.4697C20.7626 15.1768 21.2374 15.1768 21.5303 15.4697C21.8232 15.7626 21.8232 16.2374 21.5303 16.5303L18.5324 19.5283C18.3965 19.6652 18.2082 19.75 18 19.75C17.8069 19.75 17.6308 19.677 17.4978 19.5571C17.4882 19.5484 17.4788 19.5395 17.4697 19.5303L14.4697 16.5303C14.1768 16.2374 14.1768 15.7626 14.4697 15.4697C14.7626 15.1768 15.2374 15.1768 15.5303 15.4697L17.25 17.1893V11C17.25 10.5858 17.5858 10.25 18 10.25C18.4142 10.25 18.75 10.5858 18.75 11V17.1893Z" fill="#363538"/>
</svg>
