<svg width="24" height="24" viewBox="0 0 24 24" fill="none" xmlns="http://www.w3.org/2000/svg">
<path d="M5.50863 13.832C7.62357 13.6956 9.61318 14.8443 10.5526 16.7441L11.533 18.7265C11.8489 19.366 11.4127 20.1217 10.701 20.1679L8.49399 20.3095C6.37896 20.4459 4.38943 19.2973 3.45004 17.3974L2.46957 15.416C2.15336 14.7764 2.58975 14.0208 3.3016 13.9746L5.50863 13.832Z" fill="#363538"/>
<path d="M18.494 13.832L20.7 13.9746C21.4121 14.0205 21.8483 14.7763 21.5321 15.416L20.5526 17.3974C19.6132 19.2972 17.6236 20.4458 15.5086 20.3095L13.3016 20.1679C12.5897 20.1219 12.1535 19.3661 12.4696 18.7265L13.45 16.7441C14.3895 14.8444 16.379 13.6956 18.494 13.832Z" fill="#363538"/>
<path d="M11.1678 5.24801C11.5636 4.65429 12.436 4.65432 12.8319 5.24801L14.0584 7.08785C15.2341 8.85132 15.2341 11.1486 14.0584 12.9121L12.8319 14.7519C12.436 15.3455 11.5636 15.3456 11.1678 14.7519L9.94125 12.9121C8.76569 11.1487 8.76572 8.85128 9.94125 7.08785L11.1678 5.24801Z" fill="#363538"/>
</svg>
