<svg width="24" height="24" viewBox="0 0 24 24" fill="none" xmlns="http://www.w3.org/2000/svg">
<path fill-rule="evenodd" clip-rule="evenodd" d="M12.0004 1.75C15.1173 1.7502 17.655 4.23056 17.7474 7.3252C18.289 7.43536 18.8033 7.66471 19.2504 8L20.6078 9.01855C21.9596 10.0325 22.2843 11.9259 21.347 13.332C20.7874 14.1714 19.8645 14.6937 18.8636 14.7461L19.7426 20.8936C19.8011 21.3036 19.5159 21.6836 19.1058 21.7422C18.6961 21.8005 18.3159 21.5162 18.2572 21.1064L17.35 14.75H12.7504V18C12.7504 18.4141 12.4144 18.7498 12.0004 18.75C11.5863 18.7499 11.2504 18.4141 11.2504 18V14.75H7.10583L5.73376 21.1572C5.64697 21.5621 5.24804 21.82 4.84314 21.7334C4.43828 21.6465 4.18023 21.2477 4.26697 20.8428L5.57263 14.75H5.3031C4.2386 14.7499 3.24422 14.2177 2.65368 13.332C1.71644 11.926 2.04036 10.0326 3.39197 9.01855L4.75036 8C5.19733 7.66483 5.71094 7.43539 6.25232 7.3252C6.34472 4.23051 8.88332 1.75014 12.0004 1.75ZM8.50036 10C7.9482 10.0001 7.50036 10.4478 7.50036 11C7.50036 11.5522 7.9482 11.9999 8.50036 12C9.05253 11.9999 9.50036 11.5522 9.50036 11C9.50036 10.4478 9.05253 10.0001 8.50036 10ZM12.0004 10C11.4482 10.0001 11.0004 10.4478 11.0004 11C11.0004 11.5522 11.4482 11.9999 12.0004 12C12.5525 11.9999 13.0004 11.5522 13.0004 11C13.0004 10.4478 12.5525 10.0001 12.0004 10ZM15.5004 10C14.9482 10.0001 14.5004 10.4478 14.5004 11C14.5004 11.5522 14.9482 11.9999 15.5004 12C16.0525 11.9999 16.5004 11.5522 16.5004 11C16.5004 10.4478 16.0525 10.0001 15.5004 10ZM12.0004 3.25C9.7372 3.25014 7.8866 5.01924 7.7572 7.25H16.2426C16.1131 5.01929 14.2635 3.2502 12.0004 3.25Z" fill="#363538"/>
</svg>
