<svg width="24" height="24" viewBox="0 0 24 24" fill="none" xmlns="http://www.w3.org/2000/svg">
<path d="M14.0003 19.25C14.4144 19.2501 14.7503 19.5859 14.7503 20C14.7503 20.4141 14.4144 20.7499 14.0003 20.75H10.0003C9.58611 20.75 9.25033 20.4142 9.25033 20C9.25033 19.5858 9.58611 19.25 10.0003 19.25H14.0003Z" fill="#363538"/>
<path d="M16.0003 16.25C16.4144 16.2501 16.7503 16.5859 16.7503 17C16.7503 17.4141 16.4144 17.7499 16.0003 17.75H8.00033C7.58611 17.75 7.25033 17.4142 7.25033 17C7.25033 16.5858 7.58611 16.25 8.00033 16.25H16.0003Z" fill="#363538"/>
<path fill-rule="evenodd" clip-rule="evenodd" d="M12.0003 1.75C15.1173 1.7502 17.655 4.23056 17.7474 7.3252C18.289 7.43535 18.8032 7.66473 19.2503 8L20.6077 9.01855C21.9596 10.0325 22.2843 11.9259 21.347 13.332C20.7874 14.1713 19.8645 14.6937 18.8636 14.7461L5.30306 14.75C4.23859 14.7499 3.24417 14.2177 2.65365 13.332C1.71645 11.9261 2.04039 10.0326 3.39193 9.01855L4.75033 8C5.19727 7.66485 5.71093 7.43539 6.25228 7.3252C6.34468 4.23054 8.88332 1.75018 12.0003 1.75ZM8.50033 10C7.9482 10.0002 7.50033 10.4478 7.50033 11C7.50033 11.5522 7.9482 11.9998 8.50033 12C9.0525 11.9999 9.50033 11.5522 9.50033 11C9.50033 10.4478 9.0525 10.0001 8.50033 10ZM12.0003 10C11.4482 10.0002 11.0003 10.4478 11.0003 11C11.0003 11.5522 11.4482 11.9998 12.0003 12C12.5525 11.9999 13.0003 11.5522 13.0003 11C13.0003 10.4478 12.5525 10.0001 12.0003 10ZM15.5003 10C14.9482 10.0002 14.5003 10.4478 14.5003 11C14.5003 11.5522 14.9482 11.9998 15.5003 12C16.0525 11.9999 16.5003 11.5522 16.5003 11C16.5003 10.4478 16.0525 10.0001 15.5003 10ZM12.0003 3.25C9.7372 3.25018 7.88656 5.01927 7.75716 7.25H16.2425C16.1131 5.0193 14.2634 3.2502 12.0003 3.25Z" fill="#363538"/>
</svg>
