<svg width="24" height="24" viewBox="0 0 24 24" fill="none" xmlns="http://www.w3.org/2000/svg">
<path d="M21.8085 11.332C20.8324 7.19856 15.1219 3.53463 12.8918 2.24212C12.3347 1.91929 11.6653 1.91929 11.1082 2.24212C8.87811 3.53463 3.16765 7.19856 2.19153 11.332C1.31012 15.0644 3.54708 18.9425 7.33511 18.9983C7.41331 18.9994 7.49265 19 7.57317 19C9.09809 19 10.4595 18.2383 11.2576 17.6752C11.1834 18.6323 10.8961 20.8634 10.3038 21.7119C10.2434 21.7984 10.3181 22 10.4236 22H13.5769C13.6824 22 13.7566 21.7984 13.6962 21.7119C13.1039 20.8634 12.8166 18.6323 12.7424 17.6752C13.5405 18.2383 14.9019 19 16.4268 19C16.5073 19 16.5867 18.9994 16.6649 18.9983C20.4529 18.9425 22.6899 15.0644 21.8085 11.332Z" fill="#363538"/>
</svg>
