<svg width="24" height="24" viewBox="0 0 24 24" fill="none" xmlns="http://www.w3.org/2000/svg">
<path d="M17 17C16.4477 17 16 16.5523 16 16C16 15.4477 16.4477 15 17 15C17.5523 15 18 15.4477 18 16C18 16.5523 17.5523 17 17 17Z" fill="#363538"/>
<path d="M16.5 8C16.5 8.27614 16.7239 8.5 17 8.5C17.2761 8.5 17.5 8.27614 17.5 8C17.5 7.72386 17.2761 7.5 17 7.5C16.7239 7.5 16.5 7.72386 16.5 8Z" fill="#363538"/>
<path fill-rule="evenodd" clip-rule="evenodd" d="M16 2C13.7909 2 12 3.79086 12 6V18C12 20.2091 13.7909 22 16 22H18C20.2091 22 22 20.2091 22 18V6C22 3.79086 20.2091 2 18 2H16ZM14.5 16C14.5 14.6193 15.6193 13.5 17 13.5C18.3807 13.5 19.5 14.6193 19.5 16C19.5 17.3807 18.3807 18.5 17 18.5C15.6193 18.5 14.5 17.3807 14.5 16ZM17 6C15.8954 6 15 6.89543 15 8C15 9.10457 15.8954 10 17 10C18.1046 10 19 9.10457 19 8C19 6.89543 18.1046 6 17 6Z" fill="#363538"/>
<path d="M6.5 15.5C6.5 16.1904 7.05964 16.75 7.75 16.75C8.44036 16.75 9 16.1904 9 15.5C9 14.8096 8.44036 14.25 7.75 14.25C7.05964 14.25 6.5 14.8096 6.5 15.5Z" fill="#363538"/>
<path fill-rule="evenodd" clip-rule="evenodd" d="M10.5 9H6C3.79086 9 2 10.7909 2 13V18C2 20.2091 3.79086 22 6 22H12.2251C11.1629 20.9972 10.5 19.576 10.5 18V15.5V9ZM10.5 15.5C10.5 17.0188 9.26878 18.25 7.75 18.25C6.23122 18.25 5 17.0188 5 15.5C5 13.9812 6.23122 12.75 7.75 12.75C9.26878 12.75 10.5 13.9812 10.5 15.5Z" fill="#363538"/>
</svg>
