<svg width="24" height="24" viewBox="0 0 24 24" fill="none" xmlns="http://www.w3.org/2000/svg">
<path fill-rule="evenodd" clip-rule="evenodd" d="M12 22C17.5228 22 22 17.5228 22 12C22 6.47715 17.5228 2 12 2C6.47715 2 2 6.47715 2 12C2 17.5228 6.47715 22 12 22ZM8.75 12C8.75 12.4142 8.41421 12.75 8 12.75C7.58579 12.75 7.25 12.4142 7.25 12C7.25 9.37665 9.37665 7.25 12 7.25C12.6259 7.25 13.2235 7.37106 13.7707 7.59103L14.3569 6.61413C14.57 6.25894 15.0307 6.14377 15.3859 6.35688C15.7411 6.56999 15.8562 7.03069 15.6431 7.38587L15.0564 8.36378C16.0919 9.23511 16.75 10.5407 16.75 12C16.75 12.4142 16.4142 12.75 16 12.75C15.5858 12.75 15.25 12.4142 15.25 12C15.25 11.0884 14.8747 10.2644 14.2701 9.67424L13.5971 10.7959C13.85 11.1309 14 11.5479 14 12C14 13.1046 13.1046 14 12 14C10.8954 14 10 13.1046 10 12C10 10.8954 10.8954 10 12 10C12.1058 10 12.2096 10.0082 12.3109 10.024L12.9843 8.90173C12.6738 8.80317 12.3431 8.75 12 8.75C10.2051 8.75 8.75 10.2051 8.75 12Z" fill="#363538"/>
</svg>
