<svg width="24" height="24" viewBox="0 0 24 24" fill="none" xmlns="http://www.w3.org/2000/svg">
<path d="M8.50012 2H15.5001C16.8808 2 18.0001 3.11929 18.0001 4.5C18.0001 5.88071 16.8808 7 15.5001 7H8.50012C7.11941 7 6.00012 5.88071 6.00012 4.5C6.00012 3.11929 7.11941 2 8.50012 2Z" fill="#363538"/>
<path d="M5.83029 11.3241L4.80172 17.3241C4.38281 19.7678 6.26494 22 8.7442 22H15.2561C17.7353 22 19.6175 19.7678 19.1986 17.3241L18.17 11.3241C17.8408 9.4038 16.1759 8 14.2275 8H9.77277C7.82442 8 6.15949 9.4038 5.83029 11.3241Z" fill="#363538"/>
</svg>
