<svg width="24" height="24" viewBox="0 0 24 24" fill="none" xmlns="http://www.w3.org/2000/svg">
<path d="M21.5 4.75C21.9142 4.75 22.25 5.08579 22.25 5.5C22.25 5.91421 21.9142 6.25 21.5 6.25H10.0908C9.54536 6.25009 9.06791 6.60308 8.90234 7.11426L8.87305 7.21875L6.43945 17.7637C6.21655 18.7293 4.8705 18.7398 4.60449 17.8271L4.58203 17.7363L4.08594 15.2549C3.96908 14.6706 3.4562 14.25 2.86035 14.25H2.5C2.08579 14.25 1.75 13.9142 1.75 13.5C1.75 13.0858 2.08579 12.75 2.5 12.75H2.86035C4.16426 12.75 5.28684 13.6657 5.55176 14.9404L7.41113 6.88184L7.47461 6.65234C7.8385 5.527 8.89027 4.75009 10.0908 4.75H21.5Z" fill="#363538"/>
<path d="M17.5 9.75C17.9142 9.75 18.25 10.0858 18.25 10.5C18.25 10.9142 17.9142 11.25 17.5 11.25C16.2574 11.25 15.25 12.2574 15.25 13.5C15.25 14.7426 16.2574 15.75 17.5 15.75H18C18.4142 15.75 18.75 16.0858 18.75 16.5C18.75 16.9142 18.4142 17.25 18 17.25H17.5C16.2732 17.25 15.1842 16.6608 14.5 15.75C13.8158 16.6608 12.7268 17.25 11.5 17.25H11C10.5858 17.25 10.25 16.9142 10.25 16.5C10.25 16.0858 10.5858 15.75 11 15.75H11.5C12.7426 15.75 13.75 14.7426 13.75 13.5C13.75 12.2574 12.7426 11.25 11.5 11.25C11.0858 11.25 10.75 10.9142 10.75 10.5C10.75 10.0858 11.0858 9.75 11.5 9.75C12.7265 9.75 13.8158 10.3386 14.5 11.249C15.1842 10.3386 16.2735 9.75 17.5 9.75Z" fill="#363538"/>
<path d="M3.75 6.75C4.85457 6.75 5.75 7.64543 5.75 8.75V10C5.75 10.4142 5.41421 10.75 5 10.75C4.58579 10.75 4.25 10.4142 4.25 10V8.75C4.25 8.47386 4.02614 8.25 3.75 8.25C3.47386 8.25 3.25 8.47386 3.25 8.75V10C3.25 10.4142 2.91421 10.75 2.5 10.75C2.08579 10.75 1.75 10.4142 1.75 10V8.75C1.75 7.64543 2.64543 6.75 3.75 6.75Z" fill="#363538"/>
</svg>
