<svg width="24" height="24" viewBox="0 0 24 24" fill="none" xmlns="http://www.w3.org/2000/svg">
<path d="M3.59065 4.65155L4.65131 3.59089C5.52999 2.71221 6.95461 2.71221 7.83329 3.59089C8.71197 4.46957 8.71197 5.8942 7.83329 6.77287L6.77263 7.83354C5.89395 8.71221 4.46933 8.71221 3.59065 7.83354C2.71197 6.95486 2.71197 5.53023 3.59065 4.65155Z" fill="#363538"/>
<path d="M6.32783 11.5325L14.0279 20.9437C14.4025 21.4016 15.0906 21.4359 15.509 21.0176L21.0173 15.5092C21.4357 15.0909 21.4014 14.4028 20.9435 14.0281L11.5323 6.32807C10.737 5.67742 9.57814 5.73522 8.85159 6.46177L6.46153 8.85183C5.73498 9.57838 5.67718 10.7373 6.32783 11.5325Z" fill="#363538"/>
</svg>
