<svg width="24" height="24" viewBox="0 0 24 24" fill="none" xmlns="http://www.w3.org/2000/svg">
<path d="M21 20.5C21.4142 20.5 21.75 20.8358 21.75 21.25C21.75 21.6642 21.4142 22 21 22H3C2.58579 22 2.25 21.6642 2.25 21.25C2.25 20.8358 2.58579 20.5 3 20.5H21Z" fill="#363538"/>
<path d="M12 2.75C14.2091 2.75 16 4.54086 16 6.75C16 8.23056 15.1956 9.52322 14 10.2148V13H17C19.2091 13 21 14.7909 21 17V19H3V17C3 14.7909 4.79086 13 7 13H10V10.2148C8.8044 9.52322 8 8.23056 8 6.75C8 4.54086 9.79086 2.75 12 2.75Z" fill="#363538"/>
</svg>
