<svg width="24" height="24" viewBox="0 0 24 24" fill="none" xmlns="http://www.w3.org/2000/svg">
<path d="M14.3384 2.9986C14.6746 2.08999 15.9597 2.08999 16.2959 2.9986L16.7613 4.25635C16.867 4.54202 17.0923 4.76724 17.3779 4.87295L18.6357 5.33836C19.5443 5.67458 19.5443 6.9597 18.6357 7.29592L17.3779 7.76133C17.0923 7.86703 16.867 8.09226 16.7613 8.37793L16.2959 9.63568C15.9597 10.5443 14.6746 10.5443 14.3384 9.63568L13.8729 8.37793C13.7672 8.09226 13.542 7.86703 13.2564 7.76133L11.9986 7.29592C11.09 6.9597 11.09 5.67458 11.9986 5.33836L13.2564 4.87295C13.542 4.76724 13.7672 4.54202 13.8729 4.25635L14.3384 2.9986Z" fill="#363538"/>
<path d="M8.24494 7.40687C8.59814 6.86438 9.40186 6.86438 9.75506 7.40687L11.5645 10.186C11.686 10.3727 11.8741 10.5075 12.0916 10.5639L15.3299 11.4028C15.962 11.5665 16.2104 12.3206 15.7966 12.8197L13.6765 15.3762C13.5341 15.5479 13.4623 15.766 13.4752 15.9875L13.6672 19.2851C13.7046 19.9288 13.0544 20.3949 12.4455 20.1608L9.32579 18.9617C9.11627 18.8811 8.88373 18.8811 8.67421 18.9617L5.55455 20.1608C4.94559 20.3949 4.29536 19.9288 4.33283 19.2851L4.52482 15.9875C4.53771 15.766 4.46586 15.5479 4.32347 15.3762L2.20343 12.8197C1.78959 12.3206 2.03796 11.5665 2.67008 11.4028L5.90839 10.5639C6.12589 10.5075 6.31401 10.3727 6.43554 10.186L8.24494 7.40687Z" fill="#363538"/>
<path d="M19.2959 13.9986C18.9597 13.09 17.6746 13.09 17.3384 13.9986L16.8729 15.2564C16.7672 15.542 16.542 15.7672 16.2564 15.8729L14.9986 16.3384C14.09 16.6746 14.09 17.9597 14.9986 18.2959L16.2564 18.7613C16.542 18.867 16.7672 19.0923 16.8729 19.3779L17.3384 20.6357C17.6746 21.5443 18.9597 21.5443 19.2959 20.6357L19.7613 19.3779C19.867 19.0923 20.0923 18.867 20.3779 18.7613L21.6357 18.2959C22.5443 17.9597 22.5443 16.6746 21.6357 16.3384L20.3779 15.8729C20.0923 15.7672 19.867 15.542 19.7613 15.2564L19.2959 13.9986Z" fill="#363538"/>
</svg>
