<svg width="24" height="24" viewBox="0 0 24 24" fill="none" xmlns="http://www.w3.org/2000/svg">
<path d="M5.99996 3C5.99996 3.55228 5.55225 4 4.99996 4C4.81898 4 4.64924 3.95192 4.50279 3.86785C4.12817 4.0597 3.89754 4.46208 3.95042 4.89715C4.21872 7.10441 4.76266 10.5424 5.68932 12.7046C6.14026 13.7567 6.77234 14.3712 7.4806 14.7363C8.20647 15.1105 9.0664 15.25 9.99996 15.25C10.9421 15.25 11.8305 15.1193 12.5691 14.7493C13.2839 14.3912 13.9038 13.7872 14.2977 12.7367C15.2215 10.2733 15.7631 6.98443 16.0351 4.88881C16.0909 4.45914 15.8656 4.05992 15.4959 3.86855C15.3497 3.95219 15.1804 4 15 4C14.4477 4 14 3.55228 14 3C14 2.44772 14.4477 2 15 2C15.3127 2 15.592 2.1436 15.7753 2.36847C16.8979 2.72149 17.6864 3.82057 17.5226 5.08193C17.2487 7.19237 16.6906 10.6276 15.7022 13.2633C15.1763 14.6657 14.2961 15.5618 13.241 16.0904C12.3626 16.5304 11.3972 16.6993 10.4767 16.7398C10.1154 17.5286 9.93552 18.1604 9.95225 18.6775C9.96921 19.2022 10.1911 19.6927 10.916 20.176C11.0661 20.276 11.2265 20.3238 11.4069 20.3308C11.8631 20.3485 12.3311 20.1482 12.8686 19.7223C13.3512 19.3399 13.8092 18.8432 14.3062 18.3043C14.3703 18.2348 14.4351 18.1645 14.5007 18.0937C15.042 17.5092 15.6567 16.8643 16.3318 16.4681C17.0557 16.0432 17.9148 15.8689 18.8354 16.3292C18.8477 16.3353 18.8597 16.3418 18.8715 16.3485C19.1927 16.1286 19.5813 16 20 16C21.1045 16 22 16.8954 22 18C22 19.1046 21.1045 20 20 20C18.8954 20 18 19.1046 18 18C18 17.8684 18.0127 17.7398 18.0369 17.6154C17.732 17.5037 17.4473 17.5527 17.0911 17.7617C16.6371 18.0282 16.1652 18.504 15.6012 19.1129C15.5389 19.1802 15.4755 19.249 15.4111 19.319C14.926 19.846 14.3819 20.437 13.8002 20.8979C13.1337 21.426 12.3177 21.8674 11.3485 21.8296C10.9181 21.8129 10.4846 21.6912 10.0839 21.424C9.01599 20.7121 8.48785 19.8026 8.45303 18.726C8.43144 18.0586 8.60251 17.3709 8.87045 16.684C8.16277 16.5962 7.45513 16.4108 6.79329 16.0696C5.75953 15.5367 4.89162 14.6512 4.3106 13.2954C3.28909 10.9119 2.72828 7.2739 2.46138 5.07814C2.30797 3.81601 3.10063 2.71936 4.22517 2.36774C4.40855 2.14329 4.68752 2 4.99996 2C5.55225 2 5.99996 2.44772 5.99996 3Z" fill="#363538"/>
</svg>
