<svg width="24" height="24" viewBox="0 0 24 24" fill="none" xmlns="http://www.w3.org/2000/svg">
<path fill-rule="evenodd" clip-rule="evenodd" d="M4.25 17C4.25 19.6234 6.37665 21.75 9 21.75H13.3431C13.3948 21.75 13.4463 21.7494 13.4976 21.7482C12.5516 17.9416 16.0315 14.5551 19.7485 15.4845C19.7495 15.4375 19.75 15.3904 19.75 15.3431V7C19.75 4.37665 17.6234 2.25 15 2.25H9C6.37665 2.25 4.25 4.37665 4.25 7V17ZM14.9011 12.3709C15.2486 12.5963 15.3475 13.0608 15.122 13.4083C14.4861 14.3882 13.1977 15.75 11 15.75C10.5858 15.75 10.25 15.4142 10.25 15C10.25 14.5858 10.5858 14.25 11 14.25C12.4805 14.25 13.3671 13.3569 13.8637 12.5917C14.0892 12.2443 14.5536 12.1454 14.9011 12.3709ZM8.5 11C9.32843 11 10 10.3284 10 9.5C10 8.67157 9.32843 8 8.5 8C7.67157 8 7 8.67157 7 9.5C7 10.3284 7.67157 11 8.5 11ZM12.7953 9.01335C13.5152 7.60037 15.2442 7.0385 16.6572 7.75838C17.0263 7.94641 17.173 8.39804 16.985 8.76711C16.7969 9.13619 16.3453 9.28295 15.9762 9.09491C15.3014 8.75111 14.4757 9.01945 14.1319 9.69428C13.9438 10.0634 13.4922 10.2101 13.1231 10.0221C12.754 9.83405 12.6073 9.38242 12.7953 9.01335Z" fill="#363538"/>
<path d="M19.5386 16.9817C16.814 16.184 14.2098 18.6939 14.9793 21.4856L14.9931 21.5355C17.2093 20.9466 18.9535 19.1995 19.5386 16.9817Z" fill="#363538"/>
</svg>
