<svg width="24" height="24" viewBox="0 0 24 24" fill="none" xmlns="http://www.w3.org/2000/svg">
<path fill-rule="evenodd" clip-rule="evenodd" d="M15 2.5C15.4142 2.5 15.75 2.83579 15.75 3.25C15.75 3.66421 15.4142 4 15 4H12.75V5.53516C16.8166 5.91328 20 9.33465 20 13.5C20 17.9183 16.4183 21.5 12 21.5C7.58172 21.5 4 17.9183 4 13.5C4 9.33465 7.18343 5.91328 11.25 5.53516V4H9C8.58579 4 8.25 3.66421 8.25 3.25C8.25 2.83579 8.58579 2.5 9 2.5H15ZM12 10C11.5858 10 11.25 10.3358 11.25 10.75V14.25C11.25 14.6642 11.5858 15 12 15H14C14.4142 15 14.75 14.6642 14.75 14.25C14.75 13.8358 14.4142 13.5 14 13.5H12.75V10.75C12.75 10.3358 12.4142 10 12 10Z" fill="#363538"/>
</svg>
