<svg width="24" height="24" viewBox="0 0 24 24" fill="none" xmlns="http://www.w3.org/2000/svg">
<path fill-rule="evenodd" clip-rule="evenodd" d="M16 6C16.75 6 16.75 5.9995 16.75 5.99899L16.75 5.9979L16.75 5.99552L16.7499 5.98989L16.7497 5.97527C16.7495 5.96405 16.749 5.9499 16.7483 5.93301C16.7468 5.89925 16.744 5.85439 16.7388 5.79999C16.7285 5.69144 16.7085 5.54331 16.6696 5.36855C16.5924 5.02096 16.4375 4.55416 16.124 4.08397C15.4679 3.09982 14.2185 2.25 12 2.25C9.78153 2.25 8.53207 3.09982 7.87597 4.08397C7.56251 4.55416 7.40761 5.02096 7.33037 5.36855C7.29153 5.54331 7.27153 5.69144 7.2612 5.79999C7.25601 5.85439 7.25322 5.89925 7.25172 5.93301C7.25097 5.9499 7.25054 5.96405 7.2503 5.97527L7.25006 5.98989L7.25002 5.99552L7.25001 5.9979L7.25001 5.99899C7.25001 5.9995 7.25001 6 8.00001 6H5.83845C4.20051 6 2.80264 7.18417 2.53337 8.79982C2.23606 10.5837 3.40798 12.2816 5.18133 12.6363L11.2155 13.8431C11.7334 13.9467 12.2666 13.9467 12.7845 13.8431L18.8187 12.6363C20.592 12.2816 21.764 10.5837 21.4666 8.79982C21.1974 7.18417 19.7995 6 18.1616 6H16ZM15.2498 6H8.75023C8.75068 5.98981 8.75181 5.96983 8.75444 5.9422C8.75973 5.88668 8.77098 5.80044 8.79465 5.69395C8.8424 5.47904 8.9375 5.19584 9.12404 4.91603C9.46794 4.40018 10.2185 3.75 12 3.75C13.7815 3.75 14.5321 4.40018 14.876 4.91603C15.0625 5.19584 15.1576 5.47904 15.2054 5.69395C15.229 5.80044 15.2403 5.88668 15.2456 5.9422C15.2482 5.96983 15.2493 5.98981 15.2498 6Z" fill="#363538"/>
<path d="M3.46786 15.5783C3.2921 14.348 4.41899 13.3317 5.62471 13.6331L10.6819 14.8974C11.0158 14.9809 11.25 15.2808 11.25 15.625V17C11.25 17.4142 11.5858 17.75 12 17.75C12.4142 17.75 12.75 17.4142 12.75 17V15.625C12.75 15.2808 12.9842 14.9809 13.3181 14.8974L18.3753 13.6331C19.581 13.3317 20.7079 14.348 20.5321 15.5783L20.2331 17.6717C19.8988 20.0118 17.8947 21.75 15.5308 21.75H8.46918C6.10534 21.75 4.10122 20.0118 3.76692 17.6717L3.46786 15.5783Z" fill="#363538"/>
</svg>
