<svg width="24" height="24" viewBox="0 0 24 24" fill="none" xmlns="http://www.w3.org/2000/svg">
<path d="M11.9999 4.75C12.4141 4.75 12.7499 5.08579 12.7499 5.5V6.5C12.7499 6.91421 12.4141 7.25 11.9999 7.25C11.5857 7.25 11.2499 6.91421 11.2499 6.5V5.5C11.2499 5.08579 11.5857 4.75 11.9999 4.75Z" fill="#363538"/>
<path d="M20.6494 9.665C20.8565 10.0237 20.7336 10.4824 20.3749 10.6895L19.5089 11.1895C19.1502 11.3966 18.6915 11.2737 18.4844 10.915C18.2773 10.5563 18.4002 10.0976 18.7589 9.89048L19.6249 9.39048C19.9836 9.18337 20.4423 9.30628 20.6494 9.665Z" fill="#363538"/>
<path d="M3.62492 10.6895C3.2662 10.4824 3.14329 10.0237 3.3504 9.665C3.55751 9.30628 4.0162 9.18337 4.37492 9.39048L5.24095 9.89048C5.59966 10.0976 5.72257 10.5563 5.51546 10.915C5.30836 11.2737 4.84967 11.3966 4.49095 11.1895L3.62492 10.6895Z" fill="#363538"/>
<path d="M6.13615 13.2234C6.20251 13.2109 6.26756 13.1893 6.32934 13.1584C7.38114 12.6325 8.61917 12.6325 9.67098 13.1584C9.8782 13.262 10.1221 13.262 10.3293 13.1584C11.3811 12.6325 12.6192 12.6325 13.671 13.1584C13.8782 13.262 14.1221 13.262 14.3293 13.1584C15.3811 12.6325 16.6192 12.6325 17.671 13.1584C17.7327 13.1892 17.7977 13.2109 17.864 13.2234C17.2788 10.5229 14.8757 8.5 12.0001 8.5C9.12443 8.5 6.7213 10.523 6.13615 13.2234Z" fill="#363538"/>
<path d="M4.33533 13.3292C3.96485 13.1439 3.51434 13.2941 3.3291 13.6646C3.14386 14.0351 3.29403 14.4856 3.66451 14.6708L4.66451 15.1708C5.50517 15.5912 6.49467 15.5912 7.33533 15.1708C7.7537 14.9616 8.24614 14.9616 8.66451 15.1708C9.50517 15.5912 10.4947 15.5912 11.3353 15.1708C11.7537 14.9616 12.2461 14.9616 12.6645 15.1708C13.5052 15.5912 14.4947 15.5912 15.3353 15.1708C15.7537 14.9616 16.2461 14.9616 16.6645 15.1708C17.5052 15.5912 18.4947 15.5912 19.3353 15.1708L20.3353 14.6708C20.7058 14.4856 20.856 14.0351 20.6707 13.6646C20.4855 13.2941 20.035 13.1439 19.6645 13.3292L18.6645 13.8292C18.2461 14.0384 17.7537 14.0384 17.3353 13.8292C16.4947 13.4088 15.5052 13.4088 14.6645 13.8292C14.2461 14.0384 13.7537 14.0384 13.3353 13.8292C12.4947 13.4088 11.5052 13.4088 10.6645 13.8292C10.2461 14.0384 9.7537 14.0384 9.33533 13.8292C8.49467 13.4088 7.50517 13.4088 6.66451 13.8292C6.24614 14.0384 5.7537 14.0384 5.33533 13.8292L4.33533 13.3292Z" fill="#363538"/>
<path d="M14.6707 18.3354C14.856 17.9649 14.7058 17.5144 14.3353 17.3292L13.3353 16.8292C12.4947 16.4088 11.5052 16.4088 10.6645 16.8292C10.2461 17.0384 9.7537 17.0384 9.33533 16.8292C8.49467 16.4088 7.50517 16.4088 6.66451 16.8292C6.24614 17.0384 5.7537 17.0384 5.33533 16.8292L4.33533 16.3292C3.96485 16.1439 3.51434 16.2941 3.3291 16.6646C3.14386 17.0351 3.29403 17.4856 3.66451 17.6708L4.66451 18.1708C5.50517 18.5912 6.49467 18.5912 7.33533 18.1708C7.7537 17.9616 8.24614 17.9616 8.66451 18.1708C9.50517 18.5912 10.4947 18.5912 11.3353 18.1708C11.7537 17.9616 12.2461 17.9616 12.6645 18.1708L13.6645 18.6708C14.035 18.8561 14.4855 18.7059 14.6707 18.3354Z" fill="#363538"/>
<path d="M4.33533 19.3292C3.96485 19.1439 3.51434 19.2941 3.3291 19.6646C3.14386 20.0351 3.29403 20.4856 3.66451 20.6708L4.32287 21C5.3786 21.5279 6.62124 21.5279 7.67697 21L8.33533 20.6708C8.70581 20.4856 8.85598 20.0351 8.67074 19.6646C8.4855 19.2941 8.03499 19.1439 7.66451 19.3292L7.00615 19.6584C6.37271 19.9751 5.62713 19.9751 4.99369 19.6584L4.33533 19.3292Z" fill="#363538"/>
</svg>
