<svg width="24" height="24" viewBox="0 0 24 24" fill="none" xmlns="http://www.w3.org/2000/svg">
<path d="M12.7499 3C12.7499 2.58579 12.4141 2.25 11.9999 2.25C11.5857 2.25 11.2499 2.58579 11.2499 3V4C11.2499 4.41421 11.5857 4.75 11.9999 4.75C12.4141 4.75 12.7499 4.41421 12.7499 4V3Z" fill="#363538"/>
<path d="M20.3749 8.18952C20.7336 7.98241 20.8565 7.52372 20.6494 7.165C20.4423 6.80628 19.9836 6.68337 19.6249 6.89048L18.7589 7.39048C18.4002 7.59759 18.2773 8.05628 18.4844 8.415C18.6915 8.77372 19.1502 8.89663 19.5089 8.68952L20.3749 8.18952Z" fill="#363538"/>
<path d="M3.3504 7.165C3.14329 7.52372 3.2662 7.98241 3.62492 8.18952L4.49095 8.68952C4.84967 8.89663 5.30836 8.77372 5.51546 8.415C5.72257 8.05628 5.59966 7.59759 5.24095 7.39048L4.37492 6.89048C4.0162 6.68337 3.55751 6.80628 3.3504 7.165Z" fill="#363538"/>
<path d="M17.917 13C17.9715 12.6748 17.9999 12.3407 17.9999 12C17.9999 8.68629 15.3136 6 11.9999 6C8.68621 6 5.99992 8.68629 5.99992 12C5.99992 12.3407 6.02832 12.6748 6.08288 13H6.69286C7.53549 12.6852 8.46435 12.6852 9.30698 13H10.6929C11.5355 12.6852 12.4643 12.6852 13.307 13H14.6929C15.5355 12.6852 16.4643 12.6852 17.307 13H17.917Z" fill="#363538"/>
<path d="M3.3291 13.6646C3.51434 13.2941 3.96485 13.1439 4.33533 13.3292L5.33533 13.8292C5.7537 14.0384 6.24614 14.0384 6.66451 13.8292C7.50517 13.4088 8.49467 13.4088 9.33533 13.8292C9.7537 14.0384 10.2461 14.0384 10.6645 13.8292C11.5052 13.4088 12.4947 13.4088 13.3353 13.8292C13.7537 14.0384 14.2461 14.0384 14.6645 13.8292C15.5052 13.4088 16.4947 13.4088 17.3353 13.8292C17.7537 14.0384 18.2461 14.0384 18.6645 13.8292L19.6645 13.3292C20.035 13.1439 20.4855 13.2941 20.6707 13.6646C20.856 14.0351 20.7058 14.4856 20.3353 14.6708L19.3353 15.1708C18.4947 15.5912 17.5052 15.5912 16.6645 15.1708C16.2461 14.9616 15.7537 14.9616 15.3353 15.1708C14.4947 15.5912 13.5052 15.5912 12.6645 15.1708C12.2461 14.9616 11.7537 14.9616 11.3353 15.1708C10.4947 15.5912 9.50517 15.5912 8.66451 15.1708C8.24614 14.9616 7.7537 14.9616 7.33533 15.1708C6.49467 15.5912 5.50517 15.5912 4.66451 15.1708L3.66451 14.6708C3.29403 14.4856 3.14386 14.0351 3.3291 13.6646Z" fill="#363538"/>
<path d="M20.3353 17.6708C20.7058 17.4856 20.856 17.0351 20.6707 16.6646C20.4855 16.2941 20.035 16.1439 19.6645 16.3292L18.6645 16.8292C18.2461 17.0384 17.7537 17.0384 17.3353 16.8292C16.4947 16.4088 15.5052 16.4088 14.6645 16.8292C14.2461 17.0384 13.7537 17.0384 13.3353 16.8292C12.4947 16.4088 11.5052 16.4088 10.6645 16.8292L9.66451 17.3292C9.29403 17.5144 9.14386 17.9649 9.3291 18.3354C9.51434 18.7059 9.96485 18.8561 10.3353 18.6708L11.3353 18.1708C11.7537 17.9616 12.2461 17.9616 12.6645 18.1708C13.5052 18.5912 14.4947 18.5912 15.3353 18.1708C15.7537 17.9616 16.2461 17.9616 16.6645 18.1708C17.5052 18.5912 18.4947 18.5912 19.3353 18.1708L20.3353 17.6708Z" fill="#363538"/>
</svg>
