<svg width="24" height="24" viewBox="0 0 24 24" fill="none" xmlns="http://www.w3.org/2000/svg">
<path d="M11.9999 2.25C12.4141 2.25 12.7499 2.58579 12.7499 3V4C12.7499 4.41421 12.4141 4.75 11.9999 4.75C11.5857 4.75 11.2499 4.41421 11.2499 4V3C11.2499 2.58579 11.5857 2.25 11.9999 2.25Z" fill="#363538"/>
<path d="M17.9999 12C17.9999 15.3137 15.3136 18 11.9999 18C8.68617 18 5.99988 15.3137 5.99988 12C5.99988 8.68629 8.68617 6 11.9999 6C15.3136 6 17.9999 8.68629 17.9999 12Z" fill="#363538"/>
<path d="M12.7499 20C12.7499 19.5858 12.4141 19.25 11.9999 19.25C11.5857 19.25 11.2499 19.5858 11.2499 20V21C11.2499 21.4142 11.5857 21.75 11.9999 21.75C12.4141 21.75 12.7499 21.4142 12.7499 21V20Z" fill="#363538"/>
<path d="M20.6494 7.16504C20.8565 7.52376 20.7336 7.98245 20.3749 8.18956L19.5089 8.68956C19.1501 8.89667 18.6914 8.77376 18.4843 8.41504C18.2772 8.05632 18.4001 7.59763 18.7589 7.39052L19.6249 6.89052C19.9836 6.68341 20.4423 6.80632 20.6494 7.16504Z" fill="#363538"/>
<path d="M3.62488 8.18956C3.26616 7.98245 3.14326 7.52376 3.35036 7.16504C3.55747 6.80632 4.01616 6.68341 4.37488 6.89052L5.24091 7.39052C5.59963 7.59763 5.72253 8.05632 5.51543 8.41504C5.30832 8.77376 4.84963 8.89667 4.49091 8.68956L3.62488 8.18956Z" fill="#363538"/>
<path d="M3.35036 16.9751C3.14326 16.6164 3.26616 16.1577 3.62488 15.9506L4.49091 15.4506C4.84963 15.2435 5.30832 15.3664 5.51543 15.7251C5.72253 16.0838 5.59963 16.5425 5.24091 16.7496L4.37488 17.2496C4.01616 17.4567 3.55747 17.3338 3.35036 16.9751Z" fill="#363538"/>
<path d="M20.3749 15.9506C20.7336 16.1577 20.8565 16.6164 20.6494 16.9751C20.4423 17.3338 19.9836 17.4567 19.6249 17.2496L18.7589 16.7496C18.4001 16.5425 18.2772 16.0838 18.4843 15.7251C18.6914 15.3664 19.1501 15.2435 19.5089 15.4506L20.3749 15.9506Z" fill="#363538"/>
</svg>
