<svg width="24" height="24" viewBox="0 0 24 24" fill="none" xmlns="http://www.w3.org/2000/svg">
<path fill-rule="evenodd" clip-rule="evenodd" d="M19.5298 3C19.5298 2.65482 19.2499 2.375 18.9048 2.375C18.5596 2.375 18.2798 2.65482 18.2798 3V3.00532C17.2096 3.11551 16.375 4.01981 16.375 5.11905C16.375 6.21829 17.2096 7.12258 18.2798 7.23277V8.90393C17.8944 8.73611 17.625 8.3519 17.625 7.90476C17.625 7.55958 17.3452 7.27976 17 7.27976C16.6548 7.27976 16.375 7.55958 16.375 7.90476C16.375 9.04823 17.1954 10.0001 18.2798 10.2038V10.2381C18.2798 10.5833 18.5596 10.8631 18.9048 10.8631C19.248 10.8631 19.5266 10.5864 19.5297 10.2438C20.6896 10.2279 21.625 9.28272 21.625 8.11905C21.625 6.95538 20.6896 6.01017 19.5298 5.99425V4.27149C20.0139 4.3823 20.375 4.81564 20.375 5.33333C20.375 5.67851 20.6548 5.95833 21 5.95833C21.3452 5.95833 21.625 5.67851 21.625 5.33333C21.625 4.1238 20.707 3.12866 19.5298 3.00662V3ZM17.625 5.11905C17.625 4.71187 17.9031 4.36965 18.2798 4.272V5.9661C17.9031 5.86845 17.625 5.52623 17.625 5.11905ZM20.375 8.11905C20.375 8.59234 19.9992 8.97786 19.5298 8.99355V7.24454C19.9992 7.26024 20.375 7.64576 20.375 8.11905Z" fill="#363538"/>
<path d="M2 9V19C2 19.5523 2.36631 20 2.81818 20H5.68182C6.13369 20 6.5 19.5523 6.5 19V17.6148C6.76358 17.7599 7.09463 17.7842 7.39937 17.6301C7.77296 17.4412 8.22154 17.5216 8.57112 17.7519C11.3985 19.6146 19.1288 19.9581 21.7031 14.7524C22.5954 12.9481 21.392 13.2625 19.221 13.8297C17.6944 14.2285 15.6895 14.7522 13.5983 14.7524C13.0866 14.7525 8.56146 13.9994 15.1179 12.1912L15.2303 12.1601C16.431 11.8264 16.455 10.6984 15.2089 10.6831C14.642 10.6761 13.9986 10.7575 13.3694 10.8371C12.5279 10.9435 11.7117 11.0468 11.1375 10.9311C10.884 10.8801 10.6573 10.7515 10.4298 10.6226C10.278 10.5365 10.1258 10.4503 9.96524 10.3868C9.09991 10.0449 8.32388 9.95163 7.65925 10.0218C7.15632 10.0749 6.77169 10.3393 6.5 10.7166V9C6.5 8.44772 6.13369 8 5.68182 8H2.81818C2.36631 8 2 8.44771 2 9Z" fill="#363538"/>
</svg>
