<svg width="24" height="24" viewBox="0 0 24 24" fill="none" xmlns="http://www.w3.org/2000/svg">
<path d="M17.3567 8.91455C18.2488 8.45837 20.5329 7.16522 20.9234 5.70634C21.276 4.38902 20.3812 3.02028 18.866 3.00061C18.8347 3.00021 18.8029 3 18.7707 3C18.1608 3 17.6162 3.26883 17.297 3.46757C17.1225 3.57615 16.8775 3.57615 16.703 3.46757C16.3838 3.26883 15.8392 3 15.2293 3C15.1971 3 15.1653 3.00021 15.134 3.00061C13.6188 3.02028 12.724 4.38902 13.0766 5.70634C13.4671 7.16522 15.7512 8.45837 16.6433 8.91455C16.8661 9.02849 17.1339 9.02849 17.3567 8.91455Z" fill="#363538"/>
<path d="M2 9V19C2 19.5523 2.36631 20 2.81818 20H5.68182C6.13369 20 6.5 19.5523 6.5 19V17.6148C6.76358 17.7599 7.09463 17.7842 7.39937 17.6301C7.77296 17.4412 8.22154 17.5216 8.57112 17.7519C11.3985 19.6146 19.1288 19.9581 21.7031 14.7524C22.5954 12.9481 21.392 13.2625 19.221 13.8297C17.6944 14.2285 15.6895 14.7522 13.5983 14.7524C13.0866 14.7525 8.56146 13.9994 15.1179 12.1912L15.2303 12.1601C16.431 11.8264 16.455 10.6984 15.2089 10.6831C14.642 10.6761 13.9986 10.7575 13.3694 10.8371C12.5279 10.9435 11.7117 11.0468 11.1375 10.9311C10.884 10.8801 10.6573 10.7515 10.4298 10.6226C10.278 10.5365 10.1258 10.4503 9.96524 10.3868C9.09991 10.0449 8.32388 9.95163 7.65925 10.0218C7.15632 10.0749 6.77169 10.3393 6.5 10.7166V9C6.5 8.44772 6.13369 8 5.68182 8H2.81818C2.36631 8 2 8.44771 2 9Z" fill="#363538"/>
</svg>
