<svg width="24" height="24" viewBox="0 0 24 24" fill="none" xmlns="http://www.w3.org/2000/svg">
<path d="M14.1544 6.39857L14.8188 4.67106C15.1198 3.88867 16.178 3.77134 16.643 4.46882C16.8347 4.75628 17.1573 4.92895 17.5028 4.92895L17.6893 4.92895C18.4524 4.92895 19.0711 5.5476 19.0711 6.31075V6.49727C19.0711 6.84275 19.2437 7.16538 19.5312 7.35702C20.2287 7.822 20.1114 8.88027 19.329 9.18119L17.6015 9.84562C17.3092 9.08455 16.8563 8.37104 16.2426 7.75739C15.629 7.14374 14.9155 6.6908 14.1544 6.39857Z" fill="#363538"/>
<path fill-rule="evenodd" clip-rule="evenodd" d="M8.46447 15.5355C10.4171 17.4882 13.5829 17.4882 15.5355 15.5355C17.4882 13.5829 17.4882 10.4171 15.5355 8.46447C13.5829 6.51184 10.4171 6.51184 8.46447 8.46447C6.51184 10.4171 6.51184 13.5829 8.46447 15.5355ZM13.591 10.409C12.7123 9.53035 11.2877 9.53035 10.409 10.409C9.53033 11.2877 9.53033 12.7123 10.409 13.591C11.2877 14.4697 12.7123 14.4697 13.591 13.591C13.8839 13.2981 13.8839 12.8232 13.591 12.5304C13.2981 12.2375 12.8232 12.2375 12.5303 12.5304C12.2374 12.8232 11.7626 12.8232 11.4697 12.5304C11.1768 12.2375 11.1768 11.7626 11.4697 11.4697C11.7626 11.1768 12.2374 11.1768 12.5303 11.4697C12.8232 11.7626 13.2981 11.7626 13.591 11.4697C13.8839 11.1768 13.8839 10.7019 13.591 10.409Z" fill="#363538"/>
<path d="M7.75742 16.2425C8.37106 16.8562 9.08456 17.3091 9.84561 17.6014L9.18119 19.3289C8.88027 20.1112 7.822 20.2286 7.35702 19.5311C7.16538 19.2436 6.84275 19.071 6.49727 19.071L6.31075 19.071C5.5476 19.071 4.92895 18.4523 4.92895 17.6892L4.92895 17.5026C4.92895 17.1572 4.75628 16.8345 4.46882 16.6429C3.77134 16.1779 3.88867 15.1196 4.67106 14.8187L6.39858 14.1543C6.69081 14.9154 7.14376 15.6289 7.75742 16.2425Z" fill="#363538"/>
</svg>
