<svg width="24" height="24" viewBox="0 0 24 24" fill="none" xmlns="http://www.w3.org/2000/svg">
<path d="M20.4996 4.75C20.9138 4.75 21.2496 5.08579 21.2496 5.5V12.5C21.2496 16.2279 18.2275 19.25 14.4996 19.25H11.7301C11.3841 19.8472 10.7395 20.25 9.99961 20.25C8.8952 20.2498 7.99961 19.3545 7.99961 18.25C7.99961 17.1455 8.8952 16.2502 9.99961 16.25C10.9313 16.25 11.7119 16.8877 11.9342 17.75H14.4996C17.3991 17.75 19.7496 15.3995 19.7496 12.5V5.5C19.7496 5.0859 20.0856 4.75019 20.4996 4.75Z" fill="#363538"/>
<path d="M12.9635 6.70312C15.1137 6.58948 16.9759 8.1798 17.2008 10.3213L17.2984 11.2451C17.4192 12.3967 16.8008 13.4991 15.7555 13.9971C15.0816 14.318 14.3056 14.3496 13.608 14.084L11.8541 13.416C11.4216 13.2513 10.9624 13.167 10.4996 13.167C10.037 13.167 9.57839 13.2514 9.14609 13.416L7.39219 14.084C6.69457 14.3497 5.91872 14.318 5.24472 13.9971C4.19923 13.4992 3.58093 12.3968 3.70176 11.2451L3.79844 10.3213C4.0233 8.17973 5.88639 6.58935 8.03672 6.70312L10.4996 6.83301L12.9635 6.70312Z" fill="#363538"/>
</svg>
