<svg width="24" height="24" viewBox="0 0 24 24" fill="none" xmlns="http://www.w3.org/2000/svg">
<path d="M16.835 17.9209C17.5681 17.5544 18.4319 17.5544 19.165 17.9209L20.665 18.6709L20.7354 18.7012C20.8219 18.734 20.9115 18.7491 21 18.749V18.7871C20.9996 19.7293 20.008 20.3427 19.165 19.9219C18.4319 19.5553 17.5681 19.5553 16.835 19.9219C15.6799 20.4991 14.3201 20.4991 13.165 19.9219C12.4319 19.5553 11.5681 19.5553 10.835 19.9219C9.67995 20.4991 8.32005 20.4991 7.16504 19.9219C6.43193 19.5553 5.56807 19.5553 4.83496 19.9219L4.19238 20.2422C4.06807 20.3337 3.91618 20.3906 3.75 20.3906C3.34914 20.3906 3.02363 20.0754 3.00293 19.6797C3.00256 19.6746 3.00129 19.6691 3.00098 19.6641C3.00074 19.6564 3.00003 19.6483 3 19.6406V18.7461C3.11275 18.7462 3.22724 18.7247 3.33496 18.6709L4.83496 17.9209C5.56807 17.5544 6.43193 17.5544 7.16504 17.9209C8.32023 18.4983 9.67977 18.4983 10.835 17.9209C11.5681 17.5544 12.4319 17.5544 13.165 17.9209C14.3202 18.4983 15.6798 18.4983 16.835 17.9209Z" fill="#363538"/>
<path fill-rule="evenodd" clip-rule="evenodd" d="M15.5 3.25C15.9142 3.25 16.25 3.58579 16.25 4V14.54C17.3867 14.0039 18.7077 14.0166 19.835 14.5801L20.585 14.9551L20.6523 14.9922L20.6562 14.9951C20.667 15.0021 20.6772 15.0101 20.6875 15.0176C20.7043 15.0296 20.7198 15.0434 20.7354 15.0566C20.7586 15.0766 20.7811 15.0975 20.8018 15.1201C20.8155 15.1351 20.8284 15.151 20.8408 15.167C20.858 15.1891 20.874 15.2123 20.8887 15.2363C20.8985 15.2525 20.9075 15.2694 20.916 15.2861C20.929 15.3117 20.9411 15.3381 20.9512 15.3652C20.9591 15.3866 20.9657 15.4087 20.9717 15.4307C20.9789 15.4578 20.986 15.4854 20.9902 15.5137C20.9914 15.5213 20.9932 15.5294 20.9941 15.5371C20.9974 15.5655 21 15.5948 21 15.624V17.1611L19.835 16.5791C18.6798 16.0017 17.3202 16.0017 16.165 16.5791C15.4319 16.9457 14.5681 16.9457 13.835 16.5791C12.6798 16.0017 11.3202 16.0017 10.165 16.5791C9.43192 16.9457 8.56808 16.9457 7.83496 16.5791C6.67977 16.0017 5.32023 16.0017 4.16504 16.5791L3 17.1611V16.4639C3.00011 15.6661 3.4515 14.9369 4.16504 14.5801C5.29227 14.0166 6.61334 14.0039 7.75 14.54V4C7.75 3.58579 8.08579 3.25 8.5 3.25C8.91421 3.25 9.25 3.58579 9.25 4V7.25H14.75V4C14.75 3.58579 15.0858 3.25 15.5 3.25ZM9.25 14.8418C9.56466 14.8115 9.87515 14.725 10.165 14.5801C11.3203 14.0025 12.6797 14.0025 13.835 14.5801C14.1248 14.725 14.4353 14.8115 14.75 14.8418V12.75H9.25V14.8418ZM9.25 11.25H14.75V8.75H9.25V11.25Z" fill="#363538"/>
</svg>
