<svg width="24" height="24" viewBox="0 0 24 24" fill="none" xmlns="http://www.w3.org/2000/svg">
<path d="M18.75 16.1893L20.4697 14.4697C20.7626 14.1768 21.2374 14.1768 21.5303 14.4697C21.8232 14.7626 21.8232 15.2374 21.5303 15.5303L18.5303 18.5303C18.4584 18.6022 18.3755 18.6565 18.2871 18.6931C18.1987 18.7298 18.1017 18.75 18 18.75C17.9871 18.75 17.9742 18.7497 17.9614 18.749C17.8738 18.7446 17.7901 18.7251 17.7129 18.6931C17.6245 18.6565 17.5416 18.6022 17.4697 18.5303L14.4697 15.5303C14.1768 15.2374 14.1768 14.7626 14.4697 14.4697C14.7626 14.1768 15.2374 14.1768 15.5303 14.4697L17.25 16.1893V7C17.25 5.20507 15.7949 3.75 14 3.75H8C7.58579 3.75 7.25 3.41421 7.25 3C7.25 2.58579 7.58579 2.25 8 2.25H14C16.6234 2.25 18.75 4.37665 18.75 7V16.1893Z" fill="#363538"/>
<path d="M3.53033 9.53033C3.23744 9.82322 2.76256 9.82322 2.46967 9.53033C2.17678 9.23744 2.17678 8.76256 2.46967 8.46967L5.46967 5.46967C5.61554 5.3238 5.80656 5.25057 5.99775 5.25L6 5.25L6.00225 5.25C6.10312 5.2503 6.19931 5.27051 6.28709 5.30691C6.37555 5.34351 6.45842 5.39776 6.53033 5.46967L9.53033 8.46967C9.82322 8.76256 9.82322 9.23744 9.53033 9.53033C9.23744 9.82322 8.76256 9.82322 8.46967 9.53033L6.75 7.81066V17C6.75 18.7949 8.20507 20.25 10 20.25H16C16.4142 20.25 16.75 20.5858 16.75 21C16.75 21.4142 16.4142 21.75 16 21.75H10C7.37665 21.75 5.25 19.6234 5.25 17V7.81066L3.53033 9.53033Z" fill="#363538"/>
</svg>
