<svg width="24" height="24" viewBox="0 0 24 24" fill="none" xmlns="http://www.w3.org/2000/svg">
<path d="M10.2978 2.82754L4.29775 5.07754C3.51715 5.37027 3 6.11635 3 6.95003L3 12.5642C3.00002 16.1228 8.00282 19.6813 10.0961 21.0145C10.6561 21.3712 11.3538 21.3878 11.9271 21.0529C12.4875 20.7256 13.2501 20.2506 14.0677 19.6554C13.7351 19.586 13.419 19.4192 13.1656 19.1558C12.4956 18.4593 12.517 17.3514 13.2135 16.6814L13.6668 16.2453L6.74282 10.9174C6.30286 10.5788 6.04962 10.0516 6.06036 9.49658L6.11334 6.75883C6.13204 5.79251 6.93055 5.02431 7.89687 5.04301L10.6346 5.09599C11.1896 5.10673 11.7067 5.38017 12.0279 5.8329L17.084 12.9578L17.5374 12.5217C17.9417 12.1327 18.4846 11.9767 19 12.0506V6.95004C19 6.11635 18.4829 5.37026 17.7023 5.07754L11.7023 2.82754C11.2495 2.65775 10.7505 2.65775 10.2978 2.82754Z" fill="#363538"/>
<path d="M6.8632 6.77334L6.81022 9.51109C6.80409 9.82825 6.94879 10.1295 7.2002 10.323L14.8144 16.182L13.7335 17.2218C13.3355 17.6047 13.3232 18.2378 13.7061 18.6358C14.089 19.0338 14.7221 19.046 15.1201 18.6632L15.4803 18.3166C15.8783 17.9337 16.5114 17.9459 16.8943 18.3439L18.6275 20.1456C19.0104 20.5436 19.6435 20.5558 20.0415 20.1729L20.7621 19.4796C21.1601 19.0967 21.1724 18.4637 20.7895 18.0657L19.0562 16.2641C18.6733 15.866 18.6856 15.233 19.0836 14.8501L19.4439 14.5035C19.8419 14.1206 19.8542 13.4875 19.4713 13.0895C19.0884 12.6915 18.4553 12.6793 18.0573 13.0621L16.9764 14.1021L11.4163 6.26694C11.2327 6.00824 10.9373 5.85198 10.6201 5.84585L7.88236 5.79287C7.33018 5.78219 6.87388 6.22116 6.8632 6.77334Z" fill="#363538"/>
</svg>
