<svg width="24" height="24" viewBox="0 0 24 24" fill="none" xmlns="http://www.w3.org/2000/svg">
<path d="M11.2928 2.70696L9.35655 4.6432C9.13224 4.86751 9.02766 5.18494 9.07472 5.49865L10.2749 13.4998H13.7249L14.9251 5.49865C14.9721 5.18494 14.8676 4.86751 14.6432 4.6432L12.707 2.70696C12.3165 2.31643 11.6833 2.31643 11.2928 2.70696Z" fill="#363538"/>
<path d="M9 14.9998C8.44772 14.9998 8 15.4476 8 15.9998C8 16.5521 8.44772 16.9998 9 16.9998H9.4999C10.0522 16.9998 10.4999 17.4476 10.4999 17.9998V20.4998C10.4999 21.0521 10.9476 21.4998 11.4999 21.4998H12.4999C13.0522 21.4998 13.4999 21.0521 13.4999 20.4998V17.9998C13.4999 17.4476 13.9476 16.9998 14.4999 16.9998H14.9999C15.5522 16.9998 15.9999 16.5521 15.9999 15.9998C15.9999 15.4476 15.5522 14.9998 14.9999 14.9998H9Z" fill="#363538"/>
</svg>
