<svg width="24" height="24" viewBox="0 0 24 24" fill="none" xmlns="http://www.w3.org/2000/svg">
<path d="M7.20519 4.27219L6.49648 6.91715C6.41438 7.22356 6.48253 7.55075 6.68013 7.7989L12.665 15.3146L11.366 16.0645C10.8877 16.3407 10.7239 16.9523 11 17.4306C11.2761 17.9089 11.8877 18.0727 12.366 17.7966L12.799 17.5466C13.2772 17.2705 13.8888 17.4344 14.165 17.9127L15.415 20.0777C15.6911 20.556 16.3027 20.7199 16.781 20.4438L17.647 19.9438C18.1253 19.6676 18.2892 19.056 18.0131 18.5777L16.7631 16.4127C16.4869 15.9344 16.6508 15.3228 17.1291 15.0466L17.5621 14.7966C18.0404 14.5205 18.2043 13.9089 17.9281 13.4306C17.652 12.9523 17.0404 12.7885 16.5621 13.0646L15.2631 13.8146L11.7467 4.87372C11.6306 4.57851 11.3813 4.3559 11.0749 4.2738L8.42994 3.56508C7.89647 3.42214 7.34814 3.73872 7.20519 4.27219Z" fill="#363538"/>
<path d="M10.3504 17.8055C9.94191 17.098 10.0836 16.2237 10.6428 15.6783L10.013 15.3147L10.8596 14.2514L8.43876 11.2114L7.4149 13.8147L6.11595 13.0647C5.63766 12.7886 5.02607 12.9524 4.74993 13.4307C4.47379 13.909 4.63766 14.5206 5.11595 14.7968L5.54888 15.0467C6.02717 15.3229 6.19105 15.9344 5.9149 16.4127L4.6649 18.5778C4.38876 19.0561 4.55264 19.6677 5.03093 19.9438L5.89695 20.4438C6.37525 20.72 6.98684 20.5561 7.26298 20.0778L8.51298 17.9127C8.78912 17.4344 9.40071 17.2706 9.879 17.5467L10.312 17.7967C10.3281 17.806 10.3443 17.8148 10.3607 17.8231L10.3504 17.8055Z" fill="#363538"/>
<path d="M12.4446 4.59914L14.4617 9.728L15.9978 7.79896C16.1954 7.55081 16.2636 7.22362 16.1815 6.91721L15.4728 4.27225C15.3298 3.73879 14.7815 3.4222 14.248 3.56515L12.1639 4.12357C12.2807 4.26453 12.3759 4.42459 12.4446 4.59914Z" fill="#363538"/>
</svg>
