<svg width="24" height="24" viewBox="0 0 24 24" fill="none" xmlns="http://www.w3.org/2000/svg">
<path d="M17.8803 1.97113C17.5874 1.67824 17.1126 1.67824 16.8197 1.97113C16.5268 2.26403 16.5268 2.7389 16.8197 3.03179L18.4107 4.62279L16.5677 6.46575L15.889 5.78702C15.1079 5.00597 13.8416 5.00597 13.0605 5.78702L10.7625 8.08507L12.1767 9.49933C12.4696 9.79222 12.4696 10.2671 12.1767 10.56C11.8838 10.8529 11.409 10.8529 11.1161 10.56L9.70186 9.14578L8.64116 10.2064L10.0554 11.6207C10.3483 11.9135 10.3483 12.3884 10.0554 12.6813C9.76252 12.9742 9.28765 12.9742 8.99476 12.6813L7.58054 11.2671L7.40368 11.4439C6.51341 12.3341 6.09426 13.5916 6.27231 14.838C6.34281 15.3315 6.50226 15.7953 6.73404 16.2128L4.08328 18.9503C3.79513 19.2479 3.80277 19.7227 4.10034 20.0108C4.39791 20.299 4.87272 20.2913 5.16086 19.9938L7.70145 17.3701C8.25223 17.8202 8.92595 18.1263 9.66642 18.2321C10.9128 18.4101 12.1703 17.991 13.0605 17.1007L18.7174 11.4439C19.4984 10.6628 19.4984 9.39649 18.7174 8.61544L17.6284 7.52641L19.4713 5.68345L21.0623 7.27444C21.3552 7.56733 21.8301 7.56733 22.123 7.27444C22.4159 6.98154 22.4159 6.50667 22.123 6.21378L17.8803 1.97113Z" fill="#363538"/>
</svg>
