<svg width="24" height="24" viewBox="0 0 24 24" fill="none" xmlns="http://www.w3.org/2000/svg">
<path d="M18.0001 6H6.0001C4.89553 6 4.0001 6.89543 4.0001 8C4.0001 8.67454 4.33404 9.27109 4.84561 9.63334C4.80246 9.71033 4.77227 9.79629 4.7584 9.88874L3.2584 19.8887C3.19696 20.2984 3.47922 20.6803 3.88885 20.7417C4.29848 20.8031 4.68036 20.5209 4.7418 20.1113L6.2418 10.1113C6.24741 10.0739 6.25016 10.0367 6.2502 10H17.25C17.25 10.0367 17.2528 10.0739 17.2584 10.1113L18.7584 20.1113C18.8198 20.5209 19.2017 20.8031 19.6114 20.7417C20.021 20.6803 20.3032 20.2984 20.2418 19.8887L18.7418 9.88874C18.7404 9.87906 18.7387 9.86945 18.7369 9.85991C19.4769 9.56653 20.0001 8.84437 20.0001 8C20.0001 6.89543 19.1047 6 18.0001 6Z" fill="#363538"/>
</svg>
