<svg width="24" height="24" viewBox="0 0 24 24" fill="none" xmlns="http://www.w3.org/2000/svg">
<path d="M15.494 19.932L14.9789 18.01C14.8157 17.4006 14.3578 16.9137 13.7597 16.7133L13.3633 16.5804C12.3126 16.2283 11.3826 15.6297 10.6384 14.8538L21.0725 12.0579C20.8296 12.9805 20.3849 13.8519 19.7535 14.6035L19.2513 15.2012C18.8314 15.7012 18.6819 16.3746 18.8509 17.0053L19.3577 18.8967C19.6435 19.9637 19.0104 21.0604 17.9434 21.3462C16.8765 21.6321 15.7798 20.999 15.494 19.932Z" fill="#363538"/>
<path d="M9.667 13.5611C9.37461 13.0555 9.14587 12.5083 8.99102 11.9304L8.61773 10.5372C7.73499 7.2427 9.65659 3.8488 12.9358 2.91072C16.294 1.95003 19.7878 3.92815 20.6918 7.30205L21.0651 8.69518C21.22 9.2734 21.2932 9.8626 21.2881 10.4472L9.667 13.5611Z" fill="#363538"/>
<path d="M6 21C7.65685 21 9 19.6569 9 18C9 16.3431 7.65685 15 6 15C4.34315 15 3 16.3431 3 18C3 19.6569 4.34315 21 6 21Z" fill="#363538"/>
</svg>
