<svg width="24" height="24" viewBox="0 0 24 24" fill="none" xmlns="http://www.w3.org/2000/svg">
<path fill-rule="evenodd" clip-rule="evenodd" d="M12.1928 7.77521C11.9343 7.70647 11.6588 7.78057 11.4697 7.96969L11.1893 8.25002H8.75C8.52017 8.25002 8.30302 8.3554 8.16081 8.53596C8.06991 8.65138 8.01604 8.78937 8.00307 8.93227L7.22782 8.68511C7.0157 8.61748 6.7845 8.64759 6.59678 8.76729L5.59678 9.40493C5.34138 9.56777 5.21037 9.86706 5.26053 10.1626L3.58635 11.2695C3.30623 11.4547 3.18337 11.8036 3.28561 12.1235L3.84653 13.8784C3.21869 14.8312 2.83147 15.776 2.59743 16.5032C2.46708 16.9083 2.38299 17.2498 2.33101 17.4933C2.305 17.6152 2.28695 17.7129 2.27514 17.7822C2.26923 17.8168 2.26487 17.8444 2.26185 17.8643L2.2583 17.8885L2.25722 17.8962L2.25685 17.8989L2.25658 17.9009C2.22801 18.1152 2.2933 18.3314 2.43572 18.4941C2.57813 18.6567 2.78381 18.75 3 18.75H21C21.2162 18.75 21.4219 18.6567 21.5643 18.4941C21.7067 18.3314 21.7719 18.1148 21.7434 17.9005L21.7432 17.8991L21.7429 17.8967L21.7419 17.89L21.7389 17.8693C21.7363 17.8522 21.7327 17.8287 21.7278 17.7993C21.7179 17.7404 21.703 17.6573 21.6816 17.5535C21.6389 17.346 21.5704 17.0542 21.4652 16.7046C21.2912 16.1259 21.0145 15.3806 20.5832 14.593L21.5595 13.4995C21.8135 13.215 21.8135 12.7851 21.5595 12.5005L20.2204 11.0005C20.0462 10.8054 19.7888 10.7201 19.5425 10.7593C19.5185 10.6422 19.4666 10.5318 19.3904 10.4378L18.0825 8.82536C17.9167 8.62099 17.656 8.51844 17.3954 8.55515L15.5714 8.81206C15.4733 8.69662 15.3416 8.61259 15.1928 8.57301L12.1928 7.77521ZM21 18L21.7434 17.9005C21.7434 17.9005 21.7434 17.9009 21 18ZM9.70224 9.75002H10.4682L10.4369 9.84639C10.2003 9.87659 9.96996 9.9136 9.74569 9.957C9.74224 9.9249 9.73671 9.89302 9.72913 9.86158L9.70224 9.75002ZM19.7347 13.2912C19.5669 13.0736 19.3853 12.8577 19.1888 12.6461L19.5104 12.4576L19.9946 13L19.7347 13.2912ZM18.0579 11.1762V11.5703L18.0201 11.5924C17.8356 11.454 17.6421 11.3206 17.4395 11.1931L17.6711 10.6993L18.0579 11.1762ZM16.2327 10.2337L16.105 10.5061C15.946 10.4406 15.7828 10.3787 15.6154 10.3207L16.2327 10.2337ZM12.0451 9.75009C12.7418 9.75242 13.3928 9.80862 14.001 9.91115L14.0329 9.8167L12.2248 9.33587L12.1578 9.40291L12.0451 9.75009ZM7.9416 10.4871C7.60446 10.6237 7.28624 10.7763 6.98601 10.9421L6.85306 10.3829L7.10696 10.221L7.9416 10.4871ZM5.62855 11.7175L5.65889 11.8451C5.41325 12.0481 5.18504 12.2594 4.97308 12.4761L4.88726 12.2076L5.62855 11.7175ZM11.25 13C11.25 12.5858 11.5858 12.25 12 12.25C13.0673 12.25 13.9072 12.3841 14.6938 12.6702C15.4697 12.9523 16.1564 13.3695 16.916 13.8759C17.2607 14.1057 17.3538 14.5713 17.124 14.916C16.8943 15.2606 16.4286 15.3538 16.084 15.124C15.3444 14.631 14.7807 14.2978 14.1812 14.0798C13.5928 13.8659 12.9327 13.75 12 13.75C11.5858 13.75 11.25 13.4142 11.25 13ZM6.75 14C6.75 13.3097 7.30965 12.75 8 12.75C8.69036 12.75 9.25 13.3097 9.25 14C9.25 14.6904 8.69036 15.25 8 15.25C7.30965 15.25 6.75 14.6904 6.75 14Z" fill="#363538"/>
</svg>
