<svg width="24" height="24" viewBox="0 0 24 24" fill="none" xmlns="http://www.w3.org/2000/svg">
<path d="M9.5 11.5C10.6046 11.5 11.5 10.6046 11.5 9.5C11.5 8.39543 10.6046 7.5 9.5 7.5C8.39543 7.5 7.5 8.39543 7.5 9.5C7.5 10.6046 8.39543 11.5 9.5 11.5Z" fill="#363538"/>
<path fill-rule="evenodd" clip-rule="evenodd" d="M11.5981 2H6.3599C3.952 2 2 3.95283 2 6.36177V11.1664C2 12.2824 2.42761 13.356 3.19482 14.1662L9.32343 20.638C10.9811 22.3885 13.744 22.4613 15.4914 20.8005L20.643 15.9044C22.387 14.2469 22.4596 11.4894 20.8052 9.74236L14.7632 3.36198C13.9398 2.49251 12.7953 2 11.5981 2ZM9.5 13C11.433 13 13 11.433 13 9.5C13 7.567 11.433 6 9.5 6C7.567 6 6 7.567 6 9.5C6 11.433 7.567 13 9.5 13ZM13.5303 17.5303L17.5303 13.5303C17.8232 13.2374 17.8232 12.7626 17.5303 12.4697C17.2374 12.1768 16.7626 12.1768 16.4697 12.4697L12.4697 16.4697C12.1768 16.7626 12.1768 17.2374 12.4697 17.5303C12.7626 17.8232 13.2374 17.8232 13.5303 17.5303Z" fill="#363538"/>
</svg>
