<svg width="24" height="24" viewBox="0 0 24 24" fill="none" xmlns="http://www.w3.org/2000/svg">
<path fill-rule="evenodd" clip-rule="evenodd" d="M7.14888 4H16.8514C17.5627 4 18.2205 4.37782 18.579 4.99226L20.7437 8.70321C21.1919 9.47154 21.0788 10.4436 20.4661 11.0884L13.4501 18.4737C12.6616 19.3037 11.3386 19.3037 10.5501 18.4737L3.53417 11.0884C2.92152 10.4436 2.80841 9.47154 3.25661 8.7032L5.42133 4.99226C5.77975 4.37782 6.43755 4 7.14888 4ZM8 7.25C7.58579 7.25 7.25 7.58579 7.25 8C7.25 8.41421 7.58579 8.75 8 8.75H11.25V14C11.25 14.4142 11.5858 14.75 12 14.75C12.4142 14.75 12.75 14.4142 12.75 14V8.75H16C16.4142 8.75 16.75 8.41421 16.75 8C16.75 7.58579 16.4142 7.25 16 7.25H8Z" fill="#363538"/>
</svg>
