<svg width="24" height="24" viewBox="0 0 24 24" fill="none" xmlns="http://www.w3.org/2000/svg">
<path d="M6.89453 3.25C7.43742 3.25002 7.96821 3.41077 8.41992 3.71191L9 4.09863L9.58008 3.71191C10.0318 3.41077 10.5626 3.25002 11.1055 3.25H12C12.4142 3.25 12.75 3.58579 12.75 4C12.75 4.41421 12.4142 4.75 12 4.75H11.1055C10.8587 4.75002 10.6174 4.82309 10.4121 4.95996L9.75 5.40137V18.5986L10.4121 19.04C10.6174 19.1769 10.8587 19.25 11.1055 19.25H12C12.4142 19.25 12.75 19.5858 12.75 20C12.75 20.4142 12.4142 20.75 12 20.75H11.1055C10.5626 20.75 10.0318 20.5892 9.58008 20.2881L9 19.9014L8.41992 20.2881C7.96821 20.5892 7.43742 20.75 6.89453 20.75H6C5.58579 20.75 5.25 20.4142 5.25 20C5.25 19.5858 5.58579 19.25 6 19.25H6.89453C7.14128 19.25 7.38258 19.1769 7.58789 19.04L8.25 18.5986V5.40137L7.58789 4.95996C7.38258 4.82309 7.14128 4.75002 6.89453 4.75H6C5.58579 4.75 5.25 4.41421 5.25 4C5.25 3.58579 5.58579 3.25 6 3.25H6.89453Z" fill="#363538"/>
<path d="M6.75 16H4.75C3.64543 16 2.75 15.1046 2.75 14V10C2.75 8.89543 3.64543 8 4.75 8H6.75V16Z" fill="#363538"/>
<path d="M19.25 8C20.3546 8 21.25 8.89543 21.25 10V14C21.25 15.1046 20.3546 16 19.25 16H11.25V8H19.25Z" fill="#363538"/>
</svg>
