<svg width="24" height="24" viewBox="0 0 24 24" fill="none" xmlns="http://www.w3.org/2000/svg">
<path fill-rule="evenodd" clip-rule="evenodd" d="M10.692 6.28458C10.3242 5.11966 8.6757 5.11965 8.30795 6.28458L5.97387 13.6782L4.28805 18.764C4.15772 19.1572 4.3708 19.5816 4.76398 19.7119C5.15716 19.8422 5.58154 19.6292 5.71187 19.236L7.22898 14.6591H11.7709L13.2881 19.236C13.4184 19.6292 13.8428 19.8422 14.2359 19.7119C14.6291 19.5816 14.8422 19.1572 14.7119 18.764L13.0261 13.6782L10.692 6.28458ZM9.49996 7.49133L11.2892 13.1591H7.71071L9.49996 7.49133Z" fill="#363538"/>
<path fill-rule="evenodd" clip-rule="evenodd" d="M16.863 14.7053C17.1375 13.9451 17.738 13.7049 18.3207 13.7564C18.6244 13.7832 18.8874 13.8904 19.0571 14.0213C19.2265 14.1519 19.25 14.2569 19.25 14.3038V14.6928C18.5721 14.6699 17.7762 14.7227 17.08 14.9445C16.564 15.1088 16.022 15.3916 15.6567 15.8873C15.2705 16.4115 15.1592 17.0673 15.324 17.7986C15.476 18.4728 15.7692 19.0332 16.2509 19.3862C16.7451 19.7483 17.3186 19.8058 17.8424 19.7065C18.3222 19.6156 18.8029 19.3881 19.2546 19.0817C19.2962 19.4565 19.614 19.748 20 19.748C20.4142 19.748 20.75 19.4122 20.75 18.998V14.3038C20.75 13.6636 20.3957 13.1593 19.973 12.8333C19.5505 12.5076 19.0069 12.3111 18.4526 12.2622C17.3195 12.1621 15.9987 12.6823 15.4521 14.1958C15.3115 14.5854 15.5132 15.0153 15.9028 15.156C16.2924 15.2967 16.7223 15.0949 16.863 14.7053ZM17.5352 16.3737C18.0445 16.2115 18.6862 16.1709 19.25 16.1938V17.1175C18.6556 17.745 18.0222 18.1457 17.5632 18.2327C17.3374 18.2755 17.2154 18.2334 17.1375 18.1763C17.0471 18.1101 16.8916 17.9315 16.7873 17.4688C16.7007 17.0848 16.7796 16.8921 16.8643 16.7772C16.9699 16.6338 17.1795 16.487 17.5352 16.3737Z" fill="#363538"/>
</svg>
