<svg width="24" height="24" viewBox="0 0 24 24" fill="none" xmlns="http://www.w3.org/2000/svg">
<path fill-rule="evenodd" clip-rule="evenodd" d="M9.69197 6.28458C9.32422 5.11966 7.6757 5.11965 7.30795 6.28458L4.97387 13.6782L3.28805 18.764C3.15772 19.1572 3.3708 19.5816 3.76398 19.7119C4.15716 19.8422 4.58154 19.6292 4.71187 19.236L6.22898 14.6591H10.7709L12.2881 19.236C12.4184 19.6292 12.8428 19.8422 13.2359 19.7119C13.6291 19.5816 13.8422 19.1572 13.7119 18.764L12.0261 13.6782L9.69197 6.28458ZM8.49996 7.49133L10.2892 13.1591H6.71071L8.49996 7.49133Z" fill="#363538"/>
<path fill-rule="evenodd" clip-rule="evenodd" d="M15.6964 13.8735C16.0397 13.015 16.8344 12.6924 17.6553 12.7578C18.0664 12.7906 18.4253 12.9216 18.6607 13.0854C18.9018 13.2532 18.9297 13.3866 18.9297 13.4335V13.9423C18.0885 13.904 17.0695 13.951 16.1934 14.2029C15.5942 14.3752 14.9689 14.6695 14.5443 15.1897C14.0875 15.7493 13.9461 16.4671 14.1482 17.2766C14.3349 18.0244 14.6906 18.6188 15.2398 18.9822C15.7895 19.3458 16.4207 19.4036 17.0084 19.303C17.6549 19.1924 18.3157 18.8819 18.9297 18.4637V18.5949C18.9297 19.0091 19.2655 19.3449 19.6797 19.3449C20.0939 19.3449 20.4297 19.0091 20.4297 18.5949V13.4335C20.4297 12.7251 19.9977 12.1884 19.5176 11.8543C19.0317 11.5161 18.4083 11.3131 17.7745 11.2626C16.5054 11.1614 14.9603 11.6748 14.3037 13.3164C14.1498 13.701 14.3369 14.1375 14.7215 14.2913C15.1061 14.4451 15.5425 14.2581 15.6964 13.8735ZM16.608 15.6445C17.3076 15.4434 18.1892 15.4053 18.9297 15.4441V16.5351C18.1948 17.2403 17.3838 17.717 16.7555 17.8245C16.4303 17.8801 16.2144 17.8284 16.0674 17.7311C15.9198 17.6335 15.7289 17.4155 15.6036 16.9133C15.4995 16.4963 15.5896 16.2812 15.7064 16.1382C15.8554 15.9556 16.1455 15.7775 16.608 15.6445Z" fill="#363538"/>
</svg>
