<svg width="24" height="24" viewBox="0 0 24 24" fill="none" xmlns="http://www.w3.org/2000/svg">
<path d="M6.25 12.25V3.75C6.25 3.33579 6.58579 3 7 3C7.41421 3 7.75 3.33579 7.75 3.75V12.25C7.75 14.5972 9.65279 16.5 12 16.5C14.3472 16.5 16.25 14.5972 16.25 12.25V3.75C16.25 3.33579 16.5858 3 17 3C17.4142 3 17.75 3.33579 17.75 3.75V12.25C17.75 15.4256 15.1756 18 12 18C8.82436 18 6.25 15.4256 6.25 12.25Z" fill="#363538"/>
<path d="M19 19.5C19.4142 19.5 19.75 19.8358 19.75 20.25C19.75 20.6642 19.4142 21 19 21H5C4.58579 21 4.25 20.6642 4.25 20.25C4.25 19.8358 4.58579 19.5 5 19.5H19Z" fill="#363538"/>
</svg>
