<svg width="24" height="24" viewBox="0 0 24 24" fill="none" xmlns="http://www.w3.org/2000/svg">
<path d="M8 4.25C5.37665 4.25 3.25 6.37665 3.25 9C3.25 9.41421 3.58579 9.75 4 9.75C4.41421 9.75 4.75 9.41421 4.75 9C4.75 7.20507 6.20507 5.75 8 5.75H11.25V19.25H9C8.58579 19.25 8.25 19.5858 8.25 20C8.25 20.4142 8.58579 20.75 9 20.75H15C15.4142 20.75 15.75 20.4142 15.75 20C15.75 19.5858 15.4142 19.25 15 19.25H12.75V5.75H16C17.7949 5.75 19.25 7.20507 19.25 9C19.25 9.41421 19.5858 9.75 20 9.75C20.4142 9.75 20.75 9.41421 20.75 9C20.75 6.37665 18.6234 4.25 16 4.25H8Z" fill="#363538"/>
</svg>
