<svg width="24" height="24" viewBox="0 0 24 24" fill="none" xmlns="http://www.w3.org/2000/svg">
<path d="M2.25 5C2.25 4.58579 2.58579 4.25 3 4.25H21C21.4142 4.25 21.75 4.58579 21.75 5C21.75 5.41421 21.4142 5.75 21 5.75H3C2.58579 5.75 2.25 5.41421 2.25 5Z" fill="#363538"/>
<path d="M8.25 12C8.25 11.5858 8.58579 11.25 9 11.25L21 11.25C21.4142 11.25 21.75 11.5858 21.75 12C21.75 12.4142 21.4142 12.75 21 12.75L9 12.75C8.58579 12.75 8.25 12.4142 8.25 12Z" fill="#363538"/>
<path d="M7 18.25C6.58579 18.25 6.25 18.5858 6.25 19C6.25 19.4142 6.58579 19.75 7 19.75H21C21.4142 19.75 21.75 19.4142 21.75 19C21.75 18.5858 21.4142 18.25 21 18.25H7Z" fill="#363538"/>
</svg>
