<svg width="24" height="24" viewBox="0 0 24 24" fill="none" xmlns="http://www.w3.org/2000/svg">
<path fill-rule="evenodd" clip-rule="evenodd" d="M13.1709 2.66451C12.9857 2.29403 12.5351 2.14386 12.1647 2.3291C11.7965 2.51318 11.6459 2.95921 11.8258 3.32836C11.8277 3.33798 11.8365 3.3932 11.8026 3.52253C11.758 3.69311 11.6591 3.91163 11.5078 4.16266C11.2706 4.5561 10.9524 4.95111 10.6793 5.24992H8.01308C8.00505 5.24979 7.99701 5.24979 7.98894 5.24992H4.00007C3.58586 5.24992 3.25007 5.58571 3.25007 5.99992C3.25007 6.41413 3.58586 6.74992 4.00007 6.74992H7.35852C7.79237 9.32078 8.71637 12.609 10.5027 15.3535C10.5228 15.3843 10.543 15.415 10.5632 15.4457C8.65598 17.4703 6.41284 18.962 3.91276 19.255C3.50136 19.3032 3.20695 19.6758 3.25517 20.0872C3.30339 20.4986 3.67599 20.793 4.08739 20.7448C6.96949 20.407 9.44672 18.758 11.4669 16.671C13.4094 19.0283 16.1673 20.7499 20.0001 20.7499C20.4143 20.7499 20.7501 20.4141 20.7501 19.9999C20.7501 19.5857 20.4143 19.2499 20.0001 19.2499C16.6182 19.2499 14.2088 17.7205 12.4827 15.5426C12.6925 15.2929 12.8963 15.0395 13.0941 14.7838C15.1982 12.0632 16.7088 8.96347 17.5285 6.74992H20.0001C20.4143 6.74992 20.7501 6.41413 20.7501 5.99992C20.7501 5.58571 20.4143 5.24992 20.0001 5.24992H17.0175C17.0058 5.24965 16.9942 5.24965 16.9826 5.24992H12.5915C12.6613 5.14729 12.7287 5.04273 12.7924 4.93718C12.9827 4.62154 13.1588 4.26506 13.2538 3.90231C13.3468 3.54694 13.3851 3.09291 13.1709 2.66451ZM11.5899 14.2677C11.6971 14.1353 11.803 14.0013 11.9076 13.8661C13.7433 11.4925 15.1109 8.79719 15.9221 6.74992H8.88095C9.29544 9.07111 10.1169 11.8931 11.5899 14.2677Z" fill="#363538"/>
</svg>
