<svg width="24" height="24" viewBox="0 0 24 24" fill="none" xmlns="http://www.w3.org/2000/svg">
<path fill-rule="evenodd" clip-rule="evenodd" d="M16.863 6.20528C17.1375 5.44512 17.738 5.20489 18.3207 5.25635C18.6244 5.28317 18.8874 5.39042 19.0571 5.52125C19.2265 5.65188 19.25 5.7569 19.25 5.80373V6.1928C18.5721 6.16987 17.7762 6.22271 17.08 6.44444C16.564 6.60878 16.022 6.89158 15.6567 7.38732C15.2705 7.91144 15.1592 8.56726 15.324 9.29862C15.476 9.97282 15.7692 10.5332 16.2509 10.8862C16.7451 11.2483 17.3186 11.3057 17.8424 11.2065C18.3222 11.1156 18.8029 10.8881 19.2546 10.5817C19.2962 10.9565 19.614 11.2479 20 11.2479C20.4142 11.2479 20.75 10.9122 20.75 10.4979V5.80373C20.75 5.16358 20.3957 4.65925 19.973 4.33333C19.5505 4.0076 19.0069 3.81111 18.4526 3.76216C17.3195 3.66209 15.9987 4.18226 15.4521 5.6958C15.3115 6.08539 15.5132 6.51526 15.9028 6.65595C16.2924 6.79664 16.7223 6.59487 16.863 6.20528ZM17.5352 7.8737C18.0445 7.71149 18.6862 7.67084 19.25 7.69379V8.61748C18.6556 9.24495 18.0222 9.64572 17.5632 9.7327C17.3374 9.77548 17.2154 9.73339 17.1375 9.67627C17.0471 9.61003 16.8916 9.43147 16.7873 8.96881C16.7007 8.58478 16.7796 8.39209 16.8643 8.27715C16.9699 8.13382 17.1795 7.987 17.5352 7.8737Z" fill="#363538"/>
<path fill-rule="evenodd" clip-rule="evenodd" d="M10.692 6.28456C10.3242 5.11964 8.6757 5.11963 8.30795 6.28456L5.97387 13.6782L4.28805 18.764C4.15772 19.1572 4.3708 19.5816 4.76398 19.7119C5.15716 19.8422 5.58154 19.6291 5.71187 19.236L7.22898 14.6591H11.7709L13.2881 19.236C13.4184 19.6291 13.8428 19.8422 14.2359 19.7119C14.6291 19.5816 14.8422 19.1572 14.7119 18.764L13.0261 13.6782L10.692 6.28456ZM9.49996 7.49131L11.2892 13.1591H7.71071L9.49996 7.49131Z" fill="#363538"/>
</svg>
