<svg width="24" height="24" viewBox="0 0 24 24" fill="none" xmlns="http://www.w3.org/2000/svg">
<path d="M17.416 14.25C17.6309 14.7917 17.75 15.3818 17.75 16C17.75 18.6233 15.6233 20.75 13 20.75H9.23633C7.58194 20.7499 6.06898 19.8147 5.3291 18.335C5.14426 17.9646 5.29485 17.5143 5.66504 17.3291C6.0354 17.1442 6.48571 17.2948 6.6709 17.665C7.15676 18.6364 8.15024 19.2499 9.23633 19.25H13C14.7949 19.2499 16.25 17.7949 16.25 16C16.25 15.3555 16.0619 14.7552 15.7383 14.25H17.416Z" fill="#363538"/>
<path d="M14.7637 3.25C16.4181 3.25004 17.931 4.1853 18.6709 5.66504C18.8558 6.03542 18.7052 6.4857 18.335 6.6709C17.9646 6.85569 17.5143 6.70523 17.3291 6.33496C16.8432 5.36362 15.8498 4.75004 14.7637 4.75H11C9.20518 4.75012 7.75 6.20515 7.75 8C7.75 9.79485 9.20518 11.2499 11 11.25H20C20.4142 11.25 20.75 11.5858 20.75 12C20.75 12.4142 20.4142 12.75 20 12.75H4C3.58579 12.75 3.25 12.4142 3.25 12C3.25 11.5858 3.58579 11.25 4 11.25H7.53906C6.74031 10.4005 6.25 9.25809 6.25 8C6.25 5.37672 8.37675 3.25012 11 3.25H14.7637Z" fill="#363538"/>
</svg>
