<svg width="24" height="24" viewBox="0 0 24 24" fill="none" xmlns="http://www.w3.org/2000/svg">
<path d="M14.697 12.6391L11.4097 9.36456C14.847 5.99863 17.4285 4.04163 19.2509 2.95828C20.3864 2.28325 21.4131 3.36456 20.8326 4.54809C19.9053 6.43867 18.2807 8.98628 14.697 12.6391Z" fill="#363538"/>
<path d="M13.7913 13.8541L13.2261 14.8768C12.9067 15.4546 12.2785 15.794 11.6182 15.7454L8.97032 15.5507C8.55191 15.5199 8.21923 15.1885 8.18834 14.7717L8.00463 12.2928C7.95004 11.5563 8.38283 10.87 9.07264 10.5993L10.1137 10.1908L13.7913 13.8541Z" fill="#363538"/>
<path d="M15.1669 4C13.6958 5.16857 11.992 6.6769 10.0395 8.60859L8.52469 9.20301C7.22549 9.71284 6.40531 11.0082 6.50873 12.4037L6.69244 14.8826C6.77859 16.045 7.70489 16.9617 8.86031 17.0466L11.5081 17.2414C12.7503 17.3327 13.9352 16.6946 14.5389 15.6023L15.3789 14.0826C18.1051 11.3499 19.8129 9.17237 20.9529 7.38406C20.9839 7.58484 21 7.79053 21 8V16C21 18.2091 19.2091 20 17 20H7C4.79086 20 3 18.2091 3 16V8C3 5.79086 4.79086 4 7 4H15.1669Z" fill="#363538"/>
</svg>
