<svg width="24" height="24" viewBox="0 0 24 24" fill="none" xmlns="http://www.w3.org/2000/svg">
<path d="M6 14.951V4.5C6 3.67157 6.67157 3 7.5 3C8.32843 3 9 3.67157 9 4.5V14.951C9 14.9828 9.01032 15.0138 9.02941 15.0392L9.9 16.2C10.2895 16.7193 10.5 17.3509 10.5 18C10.5 19.6569 9.15685 21 7.5 21C5.84315 21 4.5 19.6569 4.5 18C4.5 17.3509 4.71053 16.7193 5.1 16.2L5.97059 15.0392C5.98968 15.0138 6 14.9828 6 14.951Z" fill="#363538"/>
<path d="M16.75 5C16.75 4.58579 16.4142 4.25 16 4.25C15.5858 4.25 15.25 4.58579 15.25 5V5.5C15.25 5.91421 15.5858 6.25 16 6.25C16.4142 6.25 16.75 5.91421 16.75 5.5V5Z" fill="#363538"/>
<path d="M16 12.5C17.6569 12.5 19 11.1569 19 9.5C19 7.84315 17.6569 6.5 16 6.5C14.3431 6.5 13 7.84315 13 9.5C13 11.1569 14.3431 12.5 16 12.5Z" fill="#363538"/>
<path d="M16 12.75C16.4142 12.75 16.75 13.0858 16.75 13.5V14C16.75 14.4142 16.4142 14.75 16 14.75C15.5858 14.75 15.25 14.4142 15.25 14V13.5C15.25 13.0858 15.5858 12.75 16 12.75Z" fill="#363538"/>
<path d="M20.375 7.91954C20.7337 7.71243 20.8566 7.25374 20.6495 6.89502C20.4424 6.5363 19.9837 6.41339 19.625 6.6205L19.192 6.8705C18.8333 7.07761 18.7104 7.5363 18.9175 7.89502C19.1246 8.25374 19.5833 8.37665 19.942 8.16954L20.375 7.91954Z" fill="#363538"/>
<path d="M11.3505 6.89502C11.1434 7.25374 11.2663 7.71243 11.625 7.91954L12.058 8.16954C12.4167 8.37665 12.8754 8.25374 13.0825 7.89502C13.2896 7.5363 13.1667 7.07761 12.808 6.8705L12.375 6.6205C12.0163 6.41339 11.5576 6.5363 11.3505 6.89502Z" fill="#363538"/>
<path d="M11.625 11.1503C11.2663 11.3574 11.1434 11.8161 11.3505 12.1748C11.5576 12.5335 12.0163 12.6564 12.375 12.4493L12.808 12.1993C13.1667 11.9922 13.2896 11.5335 13.0825 11.1748C12.8754 10.8161 12.4167 10.6932 12.058 10.9003L11.625 11.1503Z" fill="#363538"/>
<path d="M20.6495 12.1748C20.8566 11.8161 20.7337 11.3574 20.375 11.1503L19.942 10.9003C19.5833 10.6932 19.1246 10.8161 18.9175 11.1748C18.7104 11.5335 18.8333 11.9922 19.192 12.1993L19.625 12.4493C19.9837 12.6564 20.4424 12.5335 20.6495 12.1748Z" fill="#363538"/>
</svg>
