<svg width="24" height="24" viewBox="0 0 24 24" fill="none" xmlns="http://www.w3.org/2000/svg">
<path d="M12.4697 2.46967C12.7626 2.17678 13.2374 2.17678 13.5303 2.46967L14 2.93934L14.4697 2.46967C14.7626 2.17678 15.2374 2.17678 15.5303 2.46967C15.8232 2.76256 15.8232 3.23744 15.5303 3.53033L15.0607 4L15.5303 4.46967C15.8232 4.76256 15.8232 5.23744 15.5303 5.53033C15.2374 5.82322 14.7626 5.82322 14.4697 5.53033L14 5.06066L13.5303 5.53033C13.2374 5.82322 12.7626 5.82322 12.4697 5.53033C12.1768 5.23744 12.1768 4.76256 12.4697 4.46967L12.9393 4L12.4697 3.53033C12.1768 3.23744 12.1768 2.76256 12.4697 2.46967Z" fill="#363538"/>
<path d="M6 4.5V14.951C6 14.9828 5.98968 15.0138 5.97059 15.0392L5.1 16.2C4.71053 16.7193 4.5 17.3509 4.5 18C4.5 19.6569 5.84315 21 7.5 21C9.15685 21 10.5 19.6569 10.5 18C10.5 17.3509 10.2895 16.7193 9.9 16.2L9.02941 15.0392C9.01032 15.0138 9 14.9828 9 14.951V4.5C9 3.67157 8.32843 3 7.5 3C6.67157 3 6 3.67157 6 4.5Z" fill="#363538"/>
<path d="M17.75 7C17.75 6.58579 17.4142 6.25 17 6.25C16.5858 6.25 16.25 6.58579 16.25 7V7.21624C15.9035 7.13332 15.5369 7.30757 15.3891 7.64542C15.2231 8.02492 15.3962 8.46712 15.7757 8.63311L16.25 8.84056V10.2176L14.9775 9.50183L15.0105 8.9667C15.0359 8.55327 14.7214 8.19747 14.308 8.172C13.9563 8.15034 13.6464 8.37464 13.5459 8.69658L13.3677 8.59632C13.0067 8.39325 12.5494 8.52129 12.3463 8.88231C12.1432 9.24333 12.2713 9.70061 12.6323 9.90369L12.8158 10.0069C12.5917 10.2611 12.562 10.6445 12.7655 10.9339C13.0038 11.2727 13.4716 11.3542 13.8104 11.1159L14.2445 10.8106L15.4702 11.5L14.2259 12.1999L13.7439 11.8898C13.3955 11.6657 12.9315 11.7665 12.7074 12.1148C12.5219 12.4032 12.559 12.7709 12.7749 13.0161L12.6323 13.0963C12.2713 13.2994 12.1433 13.7567 12.3463 14.1177C12.5494 14.4787 13.0067 14.6067 13.3677 14.4037L13.5459 14.3034C13.6464 14.6254 13.9564 14.8497 14.308 14.828C14.7214 14.8025 15.0359 14.4467 15.0105 14.0333L14.9775 13.4982L16.25 12.7824V14.1811L15.7478 14.4257C15.3754 14.6071 15.2206 15.0561 15.402 15.4285C15.5588 15.7504 15.9156 15.9097 16.25 15.8298V16C16.25 16.4142 16.5858 16.75 17 16.75C17.4142 16.75 17.75 16.4142 17.75 16V15.8298C18.0844 15.9097 18.4412 15.7504 18.598 15.4285C18.7794 15.0561 18.6246 14.6071 18.2522 14.4257L17.75 14.1811V12.7824L19.0225 13.4982L18.9895 14.0333C18.9641 14.4467 19.2786 14.8025 19.692 14.828C20.0436 14.8497 20.3536 14.6254 20.4541 14.3034L20.6323 14.4037C20.9933 14.6068 21.4506 14.4787 21.6537 14.1177C21.8567 13.7567 21.7287 13.2994 21.3677 13.0963L21.2251 13.0161C21.441 12.7709 21.4781 12.4032 21.2926 12.1148C21.0685 11.7665 20.6045 11.6657 20.2561 11.8898L19.7741 12.1999L18.5298 11.5L19.7741 10.8001L20.2561 11.1102C20.6045 11.3343 21.0686 11.2335 21.2926 10.8852C21.4782 10.5968 21.4411 10.2291 21.2251 9.98388L21.3677 9.90368C21.7287 9.7006 21.8568 9.24332 21.6537 8.8823C21.4506 8.52128 20.9933 8.39324 20.6323 8.59631L20.4132 8.71957C20.309 8.38538 19.9807 8.15979 19.6192 8.19763C19.2072 8.24075 18.9082 8.60968 18.9513 9.02164L19.0028 9.51293L17.75 10.2176V8.8189L18.2522 8.57425C18.6246 8.39285 18.7794 7.94392 18.598 7.57154C18.4412 7.24961 18.0844 7.09029 17.75 7.17024V7Z" fill="#363538"/>
</svg>
