<svg width="24" height="24" viewBox="0 0 24 24" fill="none" xmlns="http://www.w3.org/2000/svg">
<path d="M6 14.951V4.5C6 3.67157 6.67157 3 7.5 3C8.32843 3 9 3.67157 9 4.5V14.951C9 14.9828 9.01032 15.0138 9.02941 15.0392L9.9 16.2C10.2895 16.7193 10.5 17.3509 10.5 18C10.5 19.6569 9.15685 21 7.5 21C5.84315 21 4.5 19.6569 4.5 18C4.5 17.3509 4.71053 16.7193 5.1 16.2L5.97059 15.0392C5.98968 15.0138 6 14.9828 6 14.951Z" fill="#363538"/>
<path d="M12 3.25C11.5858 3.25 11.25 3.58579 11.25 4C11.25 4.41421 11.5858 4.75 12 4.75H21C21.4142 4.75 21.75 4.41421 21.75 4C21.75 3.58579 21.4142 3.25 21 3.25H12Z" fill="#363538"/>
<path d="M11.25 9C11.25 8.58579 11.5858 8.25 12 8.25L18 8.25C18.4142 8.25 18.75 8.58579 18.75 9C18.75 9.41421 18.4142 9.75 18 9.75L12 9.75C11.5858 9.75 11.25 9.41421 11.25 9Z" fill="#363538"/>
<path d="M12 13.25C11.5858 13.25 11.25 13.5858 11.25 14C11.25 14.4142 11.5858 14.75 12 14.75H15C15.4142 14.75 15.75 14.4142 15.75 14C15.75 13.5858 15.4142 13.25 15 13.25H12Z" fill="#363538"/>
</svg>
