<svg width="24" height="24" viewBox="0 0 24 24" fill="none" xmlns="http://www.w3.org/2000/svg">
<path fill-rule="evenodd" clip-rule="evenodd" d="M12.4221 4.25837C9.90319 4.13452 7.34304 5.35029 6.30123 8.54385C4.80452 13.1319 6.37438 18.0948 10.4489 19.4192C12.2669 20.0102 14.3042 19.7806 15.8457 18.9575C17.3783 18.1391 18.3328 16.796 18.2441 15.158C18.1864 14.0912 17.5565 13.2181 16.6082 12.6066C16.3491 14.2938 15.311 16.0311 13.4437 16.3578C11.8306 16.64 10.5177 16.2582 9.68712 15.4316C8.86247 14.6109 8.60384 13.4301 8.97591 12.363C9.34909 11.2928 10.3099 10.6718 11.3404 10.3767C12.3803 10.0788 13.6126 10.0693 14.7893 10.3077C14.8443 10.3189 14.8995 10.3307 14.9547 10.343C14.7483 9.76063 14.4006 9.26142 13.9193 8.9274C12.2607 7.77629 10.7697 8.58645 10.2328 9.12674C9.94089 9.42057 9.46602 9.4221 9.17219 9.13015C8.87836 8.83819 8.87683 8.36332 9.16879 8.06949C10.0086 7.2243 12.3033 5.98003 14.7745 7.6951C15.8799 8.46222 16.4557 9.67078 16.6236 10.9119C18.254 11.6795 19.632 13.0454 19.7419 15.077C19.8702 17.4455 18.4534 19.2654 16.5522 20.2806C14.6599 21.2911 12.2007 21.5659 9.98518 20.8457C4.80201 19.161 3.24002 13.0912 4.8752 8.07865C6.15663 4.15053 9.40238 2.60808 12.4957 2.76018C15.5199 2.90887 18.5722 4.6963 19.4653 7.58849C19.5875 7.98426 19.3658 8.40418 18.97 8.5264C18.5742 8.64862 18.1543 8.42686 18.0321 8.03109C17.3766 5.9083 15.0102 4.38562 12.4221 4.25837ZM15.1706 11.9503C14.9508 11.8826 14.7238 11.825 14.4914 11.7779C13.5026 11.5775 12.5191 11.5994 11.7534 11.8187C10.9783 12.0407 10.5437 12.4227 10.3923 12.8569C10.2088 13.383 10.3323 13.9575 10.7452 14.3684C11.1522 14.7733 11.9322 15.0995 13.1852 14.8803C14.1654 14.7088 14.9321 13.7195 15.1311 12.3417C15.15 12.2111 15.1631 12.0804 15.1706 11.9503Z" fill="#363538"/>
</svg>
