<svg width="24" height="24" viewBox="0 0 24 24" fill="none" xmlns="http://www.w3.org/2000/svg">
<path fill-rule="evenodd" clip-rule="evenodd" d="M6.20237 4H8.25V7C8.25 7.41421 8.58579 7.75 9 7.75C9.41421 7.75 9.75 7.41421 9.75 7V4H17.9683C20.1949 4 22 5.79086 22 8V16C22 18.2091 20.1949 20 17.9683 20H9.75V17C9.75 16.5858 9.41421 16.25 9 16.25C8.58579 16.25 8.25 16.5858 8.25 17V20H6.1048C2.7406 20 0.913977 16.1821 2.69359 13.3497C3.09656 12.7083 3.35329 12.2152 3.35329 12C3.35329 11.7451 3.05855 11.1003 2.61933 10.2809C1.12157 7.48679 3.01261 4 6.20237 4ZM9.75 10C9.75 9.58579 9.41421 9.25 9 9.25C8.58579 9.25 8.25 9.58579 8.25 10V14C8.25 14.4142 8.58579 14.75 9 14.75C9.41421 14.75 9.75 14.4142 9.75 14V10Z" fill="#363538"/>
</svg>
