<svg width="24" height="24" viewBox="0 0 24 24" fill="none" xmlns="http://www.w3.org/2000/svg">
<path d="M14.4218 11.4218C14.8019 11.5122 15.1982 11.5122 15.5783 11.4218C15.4879 11.8019 15.4879 12.1982 15.5783 12.5783C15.1982 12.4879 14.8019 12.4879 14.4218 12.5783C14.5122 12.1982 14.5122 11.8019 14.4218 11.4218Z" fill="#363538"/>
<path fill-rule="evenodd" clip-rule="evenodd" d="M8.25 4H6.20237C3.01261 4 1.12157 7.48679 2.61933 10.2809C3.05855 11.1003 3.35329 11.7451 3.35329 12C3.35329 12.2152 3.09656 12.7083 2.69359 13.3497C0.913977 16.1821 2.7406 20 6.1048 20H8.25V17C8.25 16.5858 8.58579 16.25 9 16.25C9.41421 16.25 9.75 16.5858 9.75 17V20H17.9683C20.1949 20 22 18.2091 22 16V8C22 5.79086 20.1949 4 17.9683 4H9.75V7C9.75 7.41421 9.41421 7.75 9 7.75C8.58579 7.75 8.25 7.41421 8.25 7V4ZM9 9.25C9.41421 9.25 9.75 9.58579 9.75 10V14C9.75 14.4142 9.41421 14.75 9 14.75C8.58579 14.75 8.25 14.4142 8.25 14V10C8.25 9.58579 8.58579 9.25 9 9.25ZM16.0803 9.59353C16.9237 9.20571 17.7944 10.0764 17.4066 10.9199L17.102 11.5823C16.9801 11.8475 16.9801 12.1527 17.102 12.4178L17.4066 13.0803C17.7944 13.9237 16.9237 14.7944 16.0803 14.4066L15.4178 14.102C15.1527 13.9801 14.8475 13.9801 14.5823 14.102L13.9199 14.4066C13.0764 14.7944 12.2057 13.9237 12.5935 13.0803L12.8981 12.4178C13.0201 12.1527 13.0201 11.8475 12.8981 11.5823L12.5935 10.9199C12.2057 10.0764 13.0764 9.20571 13.9199 9.59353L14.5823 9.89813C14.8475 10.0201 15.1527 10.0201 15.4178 9.89813L16.0803 9.59353Z" fill="#363538"/>
</svg>
