<svg width="24" height="24" viewBox="0 0 24 24" fill="none" xmlns="http://www.w3.org/2000/svg">
<path d="M12 15.7512V2.15561C12 2.06812 12.0709 2 12.1584 2H15.1975C15.6663 2 16.0673 2.32786 16.2292 2.76789C16.7431 4.16529 17.9404 6.05929 20.0716 6.60884C20.5833 6.74079 21 7.1662 21 7.69467V9.5C21 10.0523 20.5503 10.5056 20.0014 10.4445C17.5644 10.1733 16 9 16 9V15.75C16 19.2018 13.2018 22 9.75 22C6.29822 22 3.5 19.2018 3.5 15.75V15.5053C3.5 12.1738 6.17352 9.45887 9.50462 9.40762C9.77697 9.40343 10 9.62306 10 9.89544V13.3148C10 13.4171 9.91709 13.5 9.81481 13.5H9.75C8.50736 13.5 7.5 14.5074 7.5 15.75C7.5 16.9926 8.50736 18 9.75 18C10.9926 18 12 16.9939 12 15.7512Z" fill="#363538"/>
</svg>
