<svg width="24" height="24" viewBox="0 0 24 24" fill="none" xmlns="http://www.w3.org/2000/svg">
<path d="M15.8468 2.75C15.3183 3.21766 14.9206 3.80799 14.6316 4.42899C13.9892 5.80928 13.8296 7.42325 13.8693 8.49776C13.8458 10.5804 14.1734 12.0723 14.75 13.1212V20.0094C14.7449 20.5573 14.2992 21 13.75 21H3C2.44772 21 2 20.5523 2 20L2 8.75C2 5.43629 4.68629 2.75 8 2.75H15.8468Z" fill="#363538"/>
<path fill-rule="evenodd" clip-rule="evenodd" d="M20.4069 4.21379C19.8302 3.48479 19.1331 3.25 18.582 3.25C17.2837 3.25 16.4919 3.9866 15.9915 5.06192C15.4767 6.16811 15.3325 7.53676 15.3689 8.4583L15.3697 8.47769L15.3694 8.49711C15.3368 11.1462 15.9196 12.4103 16.5208 13.0234C17.1123 13.6266 17.8684 13.75 18.582 13.75C19.1459 13.75 19.8419 13.5108 20.4153 12.7774C20.9987 12.0312 21.5 10.7122 21.5 8.48788C21.5 6.26577 20.9924 4.95392 20.4069 4.21379ZM17 8.5C17 7.39543 17.6715 6.5 18.5 6.5C19.3284 6.5 20 7.39543 20 8.5C20 9.60457 19.3284 10.5 18.5 10.5C17.6715 10.5 17 9.60457 17 8.5Z" fill="#363538"/>
</svg>
