<svg width="24" height="24" viewBox="0 0 24 24" fill="none" xmlns="http://www.w3.org/2000/svg">
<path d="M10 11.2503C11.7949 11.2503 13.25 12.7053 13.25 14.5003C13.2499 16.2951 11.7949 17.7503 10 17.7503C8.20515 17.7503 6.75012 16.2951 6.75 14.5003C6.75 12.7053 8.20507 11.2503 10 11.2503Z" fill="#363538"/>
<path fill-rule="evenodd" clip-rule="evenodd" d="M14.6504 2.33718C15.0167 2.14406 15.4698 2.28442 15.6631 2.65066C15.8561 3.0169 15.7158 3.47009 15.3496 3.66335L9.02734 7.00027H18.3496C20.4207 7.00027 22.0996 8.6792 22.0996 10.7503V18.2503C22.0995 20.3212 20.4206 22.0003 18.3496 22.0003H5.75C3.67901 22.0003 2.00012 20.3212 2 18.2503V10.7503C2 8.6792 3.67893 7.00027 5.75 7.00027H5.81543L14.6504 2.33718ZM10 9.75027C7.37665 9.75027 5.25 11.8769 5.25 14.5003C5.25012 17.1235 7.37672 19.2503 10 19.2503C12.6233 19.2503 14.7499 17.1235 14.75 14.5003C14.75 11.8769 12.6234 9.75027 10 9.75027ZM17.8506 15.5003C17.2983 15.5003 16.8506 15.948 16.8506 16.5003C16.8507 17.0524 17.2984 17.5003 17.8506 17.5003C18.4026 17.5 18.8505 17.0523 18.8506 16.5003C18.8506 15.9481 18.4026 15.5005 17.8506 15.5003ZM17.8506 11.5003C17.2983 11.5003 16.8506 11.948 16.8506 12.5003C16.8507 13.0524 17.2984 13.5003 17.8506 13.5003C18.4026 13.5 18.8505 13.0523 18.8506 12.5003C18.8506 11.9481 18.4026 11.5005 17.8506 11.5003Z" fill="#363538"/>
</svg>
