<svg width="24" height="24" viewBox="0 0 24 24" fill="none" xmlns="http://www.w3.org/2000/svg">
<path d="M12 2.5C15.1486 2.5 18.1949 2.59679 20.001 3.5C21.8068 4.40333 22.3874 6.61286 21 8L20.4512 8.54883C19.8462 9.15371 19.53 9.98791 19.5625 10.8428C19.6563 13.3006 19.7508 18.3736 19 19.5C17.8795 21.181 14.7957 21.25 12 21.25C9.20438 21.25 6.1205 21.181 5.00002 19.5C4.24939 18.3732 4.3447 13.3004 4.4385 10.8428C4.47103 9.98792 4.15478 9.15371 3.54982 8.54883L3.00002 8C1.61272 6.61278 2.194 4.40321 4.00002 3.5C5.80608 2.59682 8.85156 2.50001 12 2.5Z" fill="#363538"/>
</svg>
