<svg width="24" height="24" viewBox="0 0 24 24" fill="none" xmlns="http://www.w3.org/2000/svg">
<path d="M5.93759 19.0861C5.5502 17.1577 4.92397 14.1691 4.33423 11.9185C7.69696 10.2188 11.2636 7.59417 12.6366 6.3737L12.6334 6.3701C12.8591 6.17944 13.0562 5.91987 13.2673 5.64187C13.9177 4.78525 14.7011 3.75365 16.8628 4.02386C20.8629 4.52386 21.0095 9.44226 19.5902 12.0239C18.304 14.3634 17.6019 17.2331 17.2338 19.2974C17.1206 19.9318 16.0574 20.0775 15.7804 19.4956C14.7438 17.3182 13.1162 14.5239 11.5902 14.5239C9.94995 14.5239 8.19239 17.3217 7.17747 19.2462C6.90081 19.7708 6.0544 19.6676 5.93759 19.0861Z" fill="#363538"/>
<path d="M9.25337 5.26326C9.61774 5.64282 10.033 6.07537 10.9538 6.46766C9.31639 7.75136 6.63305 9.61264 4.0646 10.9337C3.10507 7.49958 3.43085 4.22704 6.31751 4.22705C8.25864 4.22705 8.69664 4.68331 9.25337 5.26326Z" fill="#363538"/>
</svg>
