<svg width="24" height="24" viewBox="0 0 24 24" fill="none" xmlns="http://www.w3.org/2000/svg">
<path fill-rule="evenodd" clip-rule="evenodd" d="M14.8594 2.53409C15.678 2.31095 16.5536 2.47816 17.2324 2.98721L20.2832 5.27432C21.1149 5.40976 21.7499 6.12999 21.75 6.99991V7.99991C21.75 8.96641 20.9665 9.74991 20 9.74991H18.75V19.9999C18.75 20.9664 17.9665 21.7499 17 21.7499H15C14.0335 21.7499 13.25 20.9664 13.25 19.9999V9.74991H6.25V12.9999H6.5C7.05223 12.9999 7.49991 13.4477 7.5 13.9999V15.9999C7.5 16.5522 7.05228 16.9999 6.5 16.9999H4.5C3.94772 16.9999 3.5 16.5522 3.5 15.9999V13.9999C3.50009 13.4477 3.94777 12.9999 4.5 12.9999H4.75V9.74991H4C3.0335 9.74991 2.25 8.96641 2.25 7.99991V6.99991C2.25009 6.03349 3.03356 5.24991 4 5.24991H4.89941L14.8594 2.53409ZM14.75 19.9999C14.75 20.138 14.8619 20.2499 15 20.2499H17C17.1381 20.2499 17.25 20.138 17.25 19.9999V18.7499H14.75V19.9999ZM14.75 17.2499H17.25V15.7499H14.75V17.2499ZM14.75 14.2499H17.25V12.7499H14.75V14.2499ZM14.75 9.74991V11.2499H17.25V9.74991H14.75ZM16.333 4.18643C16.0245 3.95512 15.6259 3.87906 15.2539 3.98038L10.5996 5.24991H17.751L16.333 4.18643Z" fill="#363538"/>
</svg>
