<svg width="24" height="24" viewBox="0 0 24 24" fill="none" xmlns="http://www.w3.org/2000/svg">
<path fill-rule="evenodd" clip-rule="evenodd" d="M2 15.3333C2 7.96954 7.96954 2 15.3333 2H20C21.1046 2 22 2.89543 22 4V6H19C17.8954 6 17 6.89543 17 8V13C17 14.1046 17.8954 15 19 15H22V20C22 21.1046 21.1046 22 20 22H8.66667C4.98477 22 2 19.0152 2 15.3333ZM6 13.7143C6 9.4538 9.4538 6 13.7143 6H14.5714C15.3604 6 16 6.63959 16 7.42857V13C16 14.1046 15.1046 15 14 15H7.28571C6.57563 15 6 14.4244 6 13.7143ZM7 16.25C6.58579 16.25 6.25 16.5858 6.25 17C6.25 17.4142 6.58579 17.75 7 17.75H13C13.4142 17.75 13.75 17.4142 13.75 17C13.75 16.5858 13.4142 16.25 13 16.25H7ZM17.25 17C17.25 16.5858 17.5858 16.25 18 16.25H21C21.4142 16.25 21.75 16.5858 21.75 17C21.75 17.4142 21.4142 17.75 21 17.75H18C17.5858 17.75 17.25 17.4142 17.25 17Z" fill="#363538"/>
</svg>
