<svg width="24" height="24" viewBox="0 0 24 24" fill="none" xmlns="http://www.w3.org/2000/svg">
<path fill-rule="evenodd" clip-rule="evenodd" d="M6.397 18.1303L6.03958 9.90963C6.01716 9.39406 6.39051 8.94686 6.90289 8.88527C8.13096 8.73765 10.3623 8.5 12 8.5C13.6203 8.5 15.8216 8.73261 17.0576 8.88052C17.5865 8.94382 17.9638 9.41658 17.9177 9.94731L17.1948 18.2599C17.06 19.8102 15.7622 21 14.2061 21H9.39417C7.78799 21 6.46677 19.735 6.397 18.1303ZM8.25003 18C8.25003 17.5858 8.58582 17.25 9.00003 17.25H15C15.4142 17.25 15.75 17.5858 15.75 18C15.75 18.4142 15.4142 18.75 15 18.75H9.00003C8.58582 18.75 8.25003 18.4142 8.25003 18Z" fill="#363538"/>
<path fill-rule="evenodd" clip-rule="evenodd" d="M6.71407 5.50646C6.77291 5.48224 6.83583 5.46517 6.90189 5.45645L6.92993 5.45275C7.58109 5.3668 8.13569 4.93723 8.38175 4.32825C8.88922 3.07225 10.1083 2.25 11.4629 2.25H12.8101C14.1829 2.25 15.4184 3.08329 15.9326 4.35615L16.0231 4.57999C16.2109 5.0449 16.6274 5.37837 17.1221 5.46001C17.1796 5.46948 17.2344 5.48524 17.286 5.50646C18.0725 5.5679 18.7626 5.62899 19.2595 5.67508C19.5137 5.69865 19.7175 5.71831 19.858 5.7321L20.0196 5.74815L20.0767 5.75392C20.4887 5.79623 20.7884 6.16456 20.7461 6.5766C20.7038 6.98865 20.3348 7.28831 19.9227 7.24601L19.8696 7.24062L19.7114 7.22493C19.5733 7.21137 19.3722 7.19197 19.121 7.16867C18.6184 7.12206 17.9156 7.05989 17.1158 6.99775C15.5107 6.87302 13.5347 6.75 12 6.75C10.4654 6.75 8.48942 6.87302 6.88429 6.99775C6.08446 7.05989 5.38174 7.12206 4.87911 7.16867C4.62785 7.19197 4.42674 7.21137 4.28868 7.22493L4.13051 7.24062L4.07665 7.24608C3.6646 7.28838 3.29628 6.98865 3.25397 6.5766C3.21166 6.16456 3.51247 5.79612 3.92452 5.75381L3.98049 5.74815L4.14213 5.7321C4.28261 5.71831 4.4864 5.69865 4.74059 5.67508C5.23751 5.629 5.92759 5.5679 6.71407 5.50646ZM11.4629 3.75C10.7197 3.75 10.0509 4.20111 9.77252 4.89018C9.71208 5.03976 9.64142 5.18341 9.5615 5.32039C10.4108 5.27787 11.2524 5.25 12 5.25C12.8297 5.25 13.7752 5.28433 14.7185 5.3349C14.6876 5.27191 14.6588 5.20755 14.6323 5.14191L14.5419 4.91808C14.2567 4.21214 13.5715 3.75 12.8101 3.75H11.4629Z" fill="#363538"/>
</svg>
