<svg width="24" height="24" viewBox="0 0 24 24" fill="none" xmlns="http://www.w3.org/2000/svg">
<path fill-rule="evenodd" clip-rule="evenodd" d="M6.71408 5.50646C6.77292 5.48224 6.83584 5.46517 6.90191 5.45645L6.92994 5.45275C7.58111 5.3668 8.13571 4.93723 8.38176 4.32825C8.88923 3.07225 10.1083 2.25 11.4629 2.25H12.8101C14.183 2.25 15.4184 3.08329 15.9327 4.35615L16.0231 4.57999C16.2109 5.0449 16.6274 5.37837 17.1222 5.46001C17.1796 5.46948 17.2344 5.48524 17.286 5.50646C18.0725 5.5679 18.7626 5.62899 19.2595 5.67508C19.5137 5.69865 19.7175 5.71831 19.858 5.7321L20.0196 5.74815L20.0756 5.75381C20.0756 5.75382 20.0767 5.75392 20.0001 6.5L20.0767 5.75392C20.4887 5.79623 20.7884 6.16456 20.7461 6.5766C20.7038 6.98865 20.3355 7.28838 19.9234 7.24608L19.8696 7.24062L19.7114 7.22493C19.5734 7.21137 19.3723 7.19197 19.121 7.16867C18.6184 7.12206 17.9156 7.05989 17.1158 6.99775C15.5107 6.87302 13.5347 6.75 12.0001 6.75C10.4654 6.75 8.48943 6.87302 6.8843 6.99775C6.08447 7.05989 5.38175 7.12206 4.87912 7.16867C4.62786 7.19197 4.42676 7.21137 4.28869 7.22493L4.13053 7.24062L4.07736 7.24601C4.07736 7.24601 4.07667 7.24608 4.07593 7.2389L4.07736 7.24601C3.66531 7.28831 3.29629 6.98865 3.25398 6.5766C3.21167 6.16456 3.51141 5.79623 3.92345 5.75392L4.00006 6.5C3.92345 5.75392 3.92339 5.75393 3.92345 5.75392L3.9805 5.74815L4.14214 5.7321C4.28262 5.71831 4.48641 5.69865 4.7406 5.67508C5.23752 5.629 5.92761 5.5679 6.71408 5.50646ZM9.77253 4.89018C10.0509 4.20111 10.7197 3.75 11.4629 3.75H12.8101C13.5715 3.75 14.2567 4.21214 14.5419 4.91808L14.6323 5.14191C14.6589 5.20755 14.6876 5.27191 14.7185 5.3349C13.7753 5.28433 12.8298 5.25 12.0001 5.25C11.2524 5.25 10.4108 5.27787 9.56152 5.32039C9.64144 5.18341 9.71209 5.03976 9.77253 4.89018Z" fill="#363538"/>
<path fill-rule="evenodd" clip-rule="evenodd" d="M6.03959 9.90963L6.39701 18.1303C6.46678 19.735 7.78801 21 9.39418 21H14.2061C15.7622 21 17.06 19.8102 17.1948 18.2599L17.9177 9.94731C17.9638 9.41658 17.5865 8.94382 17.0576 8.88052C15.8216 8.73261 13.6203 8.5 12 8.5C10.3623 8.5 8.13097 8.73765 6.9029 8.88527C6.39052 8.94686 6.01717 9.39406 6.03959 9.90963ZM9.00004 17.25C8.58583 17.25 8.25004 17.5858 8.25004 18C8.25004 18.4142 8.58583 18.75 9.00004 18.75H15C15.4143 18.75 15.75 18.4142 15.75 18C15.75 17.5858 15.4143 17.25 15 17.25H9.00004ZM8.25004 15C8.25004 14.5858 8.58583 14.25 9.00004 14.25H15C15.4143 14.25 15.75 14.5858 15.75 15C15.75 15.4142 15.4143 15.75 15 15.75H9.00004C8.58583 15.75 8.25004 15.4142 8.25004 15ZM9.00004 11.25C8.58583 11.25 8.25004 11.5858 8.25004 12C8.25004 12.4142 8.58583 12.75 9.00004 12.75H15C15.4143 12.75 15.75 12.4142 15.75 12C15.75 11.5858 15.4143 11.25 15 11.25H9.00004Z" fill="#363538"/>
</svg>
