<svg width="24" height="24" viewBox="0 0 24 24" fill="none" xmlns="http://www.w3.org/2000/svg">
<path fill-rule="evenodd" clip-rule="evenodd" d="M14 1.25C14.9665 1.25 15.75 2.0335 15.75 3V6H16C17.1046 6 18 6.89543 18 8V18C18 19.1046 17.1046 20 16 20H15.75V21.5C15.75 21.9142 15.4142 22.25 15 22.25C14.5858 22.25 14.25 21.9142 14.25 21.5V20H9.75V21.5C9.75 21.9142 9.41421 22.25 9 22.25C8.58579 22.25 8.25 21.9142 8.25 21.5V20H8C6.89543 20 6 19.1046 6 18V8C6 6.89543 6.89543 6 8 6H8.25V3C8.25 2.0335 9.0335 1.25 10 1.25H14ZM9 9.25C8.58579 9.25 8.25 9.58579 8.25 10V16C8.25 16.4142 8.58579 16.75 9 16.75C9.41421 16.75 9.75 16.4142 9.75 16V10C9.75 9.58579 9.41421 9.25 9 9.25ZM15 9.25C14.5858 9.25 14.25 9.58579 14.25 10V16C14.25 16.4142 14.5858 16.75 15 16.75C15.4142 16.75 15.75 16.4142 15.75 16V10C15.75 9.58579 15.4142 9.25 15 9.25ZM10 2.75C9.86193 2.75 9.75 2.86193 9.75 3V6H14.25V3C14.25 2.86193 14.1381 2.75 14 2.75H10Z" fill="#363538"/>
</svg>
