<svg width="24" height="24" viewBox="0 0 24 24" fill="none" xmlns="http://www.w3.org/2000/svg">
<path d="M16.1032 15.5H7.60317C3.60308 15.5 2.10311 11 6.10317 9.5C4.10318 2 15.6032 -1 16.6032 7.5C21.6032 7.5 22.1032 15 16.1032 15.5Z" fill="#363538"/>
<path d="M15.2372 20.7885L12.75 19.9594V15.5H11.25V19.9594L8.76283 20.7885C8.36987 20.9195 8.1575 21.3442 8.28849 21.7372C8.41947 22.1301 8.84421 22.3425 9.23717 22.2115L12 21.2906L14.7628 22.2115C15.1558 22.3425 15.5805 22.1301 15.7115 21.7372C15.8425 21.3442 15.6301 20.9195 15.2372 20.7885Z" fill="#363538"/>
</svg>
