<svg width="24" height="24" viewBox="0 0 24 24" fill="none" xmlns="http://www.w3.org/2000/svg">
<path d="M10.9072 2.35095C11.7609 1.63958 12.8369 1.25 13.9481 1.25H15.0774C16.5204 1.25 17.8851 1.90593 18.7865 3.0327L20.5652 5.256C21.3699 6.26198 21.5164 7.6441 20.9402 8.79638C20.8151 9.04672 20.7499 9.32277 20.7499 9.60265V10.446C20.7499 11.6735 20.1058 12.8111 19.0532 13.4427L19.0271 13.4583C18.107 14.0104 16.9818 14.1005 15.9855 13.702C15.413 13.473 14.7657 13.5308 14.2428 13.8576L12.9059 14.6932C12.8813 14.7086 12.8566 14.7237 12.8318 14.7386C12.5129 15.1627 12.2776 15.575 12.1605 15.9538C12.1366 16.031 12.1014 16.1016 12.0572 16.1643C12.0788 16.3121 12.0979 16.4587 12.1148 16.6035C12.2007 17.3409 12.2333 18.0733 12.2344 18.7168C12.462 18.9825 12.8196 19.3308 13.2593 19.6299C13.8017 19.9988 14.4049 20.25 15 20.25C15.4142 20.25 15.75 20.5858 15.75 21C15.75 21.4142 15.4142 21.75 15 21.75C13.9951 21.75 13.0983 21.3345 12.4157 20.8701C12.2503 20.7576 12.0938 20.6398 11.9473 20.5201C11.7995 20.655 11.5985 20.7309 11.3833 20.7141C11.2367 20.7027 11.1032 20.6499 10.9934 20.568C10.8642 20.6712 10.7276 20.7727 10.5843 20.8701C9.90172 21.3345 9.00491 21.75 8 21.75C7.58579 21.75 7.25 21.4142 7.25 21C7.25 20.5858 7.58579 20.25 8 20.25C8.59509 20.25 9.19828 19.9988 9.74065 19.6299C10.1608 19.3441 10.506 19.0134 10.7345 18.7527C10.7345 18.1545 10.7051 17.4665 10.6248 16.777C10.5978 16.5448 10.5655 16.3172 10.5277 16.0965C10.0543 15.802 9.50875 15.4724 8.91861 15.1854L8.52351 15.0725C7.95499 14.91 7.34381 15.0054 6.85184 15.3334C4.76499 16.7247 1.94151 15.5324 1.45192 13.0844C1.29829 12.3162 1.40401 11.5147 1.75514 10.8124L2.23603 9.85068C2.50379 9.31516 2.50379 8.68484 2.23603 8.14932C1.89768 7.47263 1.79455 6.70247 1.94292 5.9606L1.97061 5.82218C2.2014 4.66819 2.95206 3.68539 4.00466 3.15909L4.20429 3.05928C5.32838 2.49723 6.64522 2.46059 7.79897 2.95506C8.76323 3.36831 9.8806 3.20646 10.6849 2.53622L10.9072 2.35095Z" fill="#363538"/>
</svg>
