<svg width="24" height="24" viewBox="0 0 24 24" fill="none" xmlns="http://www.w3.org/2000/svg">
<path fill-rule="evenodd" clip-rule="evenodd" d="M6 2H12C13.1046 2 14 2.89543 14 4V12C14 13.1046 13.1046 14 12 14H4C2.89543 14 2 13.1046 2 12V6C2 3.79086 3.79086 2 6 2ZM8.75 6C8.75 5.58579 8.41421 5.25 8 5.25C7.58579 5.25 7.25 5.58579 7.25 6V7.25H6C5.58579 7.25 5.25 7.58579 5.25 8C5.25 8.41421 5.58579 8.75 6 8.75H7.25V10C7.25 10.4142 7.58579 10.75 8 10.75C8.41421 10.75 8.75 10.4142 8.75 10V8.75H10C10.4142 8.75 10.75 8.41421 10.75 8C10.75 7.58579 10.4142 7.25 10 7.25H8.75V6Z" fill="#363538"/>
<path d="M11 18.9999C11 20.3806 9.88071 21.4999 8.5 21.4999C7.11929 21.4999 6 20.3806 6 18.9999C6 17.6192 7.11929 16.4999 8.5 16.4999C9.88071 16.4999 11 17.6192 11 18.9999Z" fill="#363538"/>
<path d="M18.5 18.9999C18.5 20.3806 17.3807 21.4999 16 21.4999C14.6193 21.4999 13.5 20.3806 13.5 18.9999C13.5 17.6192 14.6193 16.4999 16 16.4999C17.3807 16.4999 18.5 17.6192 18.5 18.9999Z" fill="#363538"/>
<path d="M13 15.0003H5V15.9999C5 16.5211 5.13294 17.0113 5.36677 17.4384C5.94061 16.2892 7.12813 15.4999 8.5 15.4999C10.433 15.4999 12 17.0669 12 18.9999H12.5C12.5 17.0669 14.067 15.4999 16 15.4999C17.8015 15.4999 19.2851 16.8609 19.4786 18.6108C20.3871 18.0952 21 17.1191 21 15.9999V14.7502H19.8889C17.751 14.7502 16.25 12.7064 16.25 10.5002V8.61562C16.25 7.92181 16.5839 7.33153 17.0075 6.92942C17.2199 6.72782 17.4739 6.55532 17.7511 6.43462L17.3002 5.76521C16.751 4.9498 15.9287 4.37563 15 4.13135V13.0003C15 14.1049 14.1046 15.0003 13 15.0003Z" fill="#363538"/>
<path d="M18.6373 7.75024H18.6C18.4623 7.75024 18.2393 7.82832 18.0402 8.01732C17.8479 8.19986 17.75 8.41728 17.75 8.61562V10.5002C17.75 12.1601 18.8358 13.2502 19.8889 13.2502H21V11.8687C21 11.4706 20.8812 11.0815 20.6588 10.7514L18.6373 7.75024Z" fill="#363538"/>
</svg>
