<svg width="24" height="24" viewBox="0 0 24 24" fill="none" xmlns="http://www.w3.org/2000/svg">
<path d="M12 2H6C3.79086 2 2 3.79086 2 6V12C2 13.1046 2.89543 14 4 14H12C13.1046 14 14 13.1046 14 12V4C14 2.89543 13.1046 2 12 2Z" fill="#363538"/>
<path d="M11 19C11 20.3807 9.88071 21.5 8.5 21.5C7.11929 21.5 6 20.3807 6 19C6 17.6193 7.11929 16.5 8.5 16.5C9.88071 16.5 11 17.6193 11 19Z" fill="#363538"/>
<path d="M18.5 19C18.5 20.3807 17.3807 21.5 16 21.5C14.6193 21.5 13.5 20.3807 13.5 19C13.5 17.6193 14.6193 16.5 16 16.5C17.3807 16.5 18.5 17.6193 18.5 19Z" fill="#363538"/>
<path d="M13 15.0004H5V16C5 16.5212 5.13294 17.0114 5.36677 17.4385C5.94061 16.2893 7.12813 15.5 8.5 15.5C10.433 15.5 12 17.067 12 19H12.5C12.5 17.067 14.067 15.5 16 15.5C17.8015 15.5 19.2851 16.861 19.4786 18.6109C20.3871 18.0953 21 17.1192 21 16V14.7503H19.8889C17.751 14.7503 16.25 12.7065 16.25 10.5003V8.61572C16.25 7.9219 16.5839 7.33163 17.0075 6.92952C17.2199 6.72791 17.4739 6.55542 17.7511 6.43472L17.3002 5.76531C16.751 4.9499 15.9287 4.37573 15 4.13144V13.0004C15 14.105 14.1046 15.0004 13 15.0004Z" fill="#363538"/>
<path d="M18.6373 7.75033H18.6C18.4623 7.75033 18.2393 7.82842 18.0402 8.01742C17.8479 8.19996 17.75 8.41738 17.75 8.61572V10.5003C17.75 12.1602 18.8358 13.2503 19.8889 13.2503H21V11.8688C21 11.4707 20.8812 11.0816 20.6588 10.7515L18.6373 7.75033Z" fill="#363538"/>
</svg>
