<svg width="24" height="24" viewBox="0 0 24 24" fill="none" xmlns="http://www.w3.org/2000/svg">
<path d="M6 2H12C13.1046 2 14 2.89543 14 4V12C14 13.1046 13.1046 14 12 14H4C2.89543 14 2 13.1046 2 12V10.5H9C9.82843 10.5 10.5 9.82843 10.5 9C10.5 8.17157 9.82843 7.5 9 7.5H6C6.82843 7.5 7.5 6.82843 7.5 6C7.5 5.17157 6.82843 4.5 6 4.5H2.29076C2.88415 3.03408 4.32131 2 6 2Z" fill="#363538"/>
<path d="M8.5 21.5C9.88071 21.5 11 20.3807 11 19C11 17.6193 9.88071 16.5 8.5 16.5C7.11929 16.5 6 17.6193 6 19C6 20.3807 7.11929 21.5 8.5 21.5Z" fill="#363538"/>
<path d="M18.5 19C18.5 20.3807 17.3807 21.5 16 21.5C14.6193 21.5 13.5 20.3807 13.5 19C13.5 17.6193 14.6193 16.5 16 16.5C17.3807 16.5 18.5 17.6193 18.5 19Z" fill="#363538"/>
<path d="M5 15.0003H13C14.1046 15.0003 15 14.1049 15 13.0003V4.13135C15.9287 4.37563 16.751 4.9498 17.3002 5.76521L17.7511 6.43462C17.4739 6.55532 17.2199 6.72782 17.0075 6.92942C16.5839 7.33153 16.25 7.92181 16.25 8.61562V10.5002C16.25 12.7064 17.751 14.7502 19.8889 14.7502H21V15.9999C21 17.1191 20.3871 18.0952 19.4786 18.6108C19.285 16.8609 17.8015 15.4999 16 15.4999C14.067 15.4999 12.5 17.0669 12.5 18.9999H12C12 17.0669 10.433 15.4999 8.5 15.4999C7.12813 15.4999 5.94061 16.2892 5.36677 17.4384C5.13294 17.0113 5 16.5211 5 15.9999V15.0003Z" fill="#363538"/>
<path d="M18.6 7.75024H18.6373L20.6588 10.7514C20.8812 11.0815 21 11.4706 21 11.8687V13.2502H19.8889C18.8358 13.2502 17.75 12.1601 17.75 10.5002V8.61562C17.75 8.41728 17.8479 8.19986 18.0402 8.01732C18.2393 7.82832 18.4623 7.75024 18.6 7.75024Z" fill="#363538"/>
<path d="M1.25 6C1.25 5.58579 1.58579 5.25 2 5.25H6C6.41421 5.25 6.75 5.58579 6.75 6C6.75 6.41421 6.41421 6.75 6 6.75H2C1.58579 6.75 1.25 6.41421 1.25 6Z" fill="#363538"/>
<path d="M2 8.25C1.58579 8.25 1.25 8.58579 1.25 9C1.25 9.41421 1.58579 9.75 2 9.75H9C9.41421 9.75 9.75 9.41421 9.75 9C9.75 8.58579 9.41421 8.25 9 8.25H2Z" fill="#363538"/>
</svg>
