<svg width="24" height="24" viewBox="0 0 24 24" fill="none" xmlns="http://www.w3.org/2000/svg">
<path d="M19.9998 8.33472C19.9403 19.4169 8.22541 21.7712 2.96973 19.0205C2.80503 18.9343 2.85275 18.6962 3.03561 18.6628C5.11395 18.2824 6.51451 17.5253 7.18937 17.0148C7.3221 16.9144 7.2598 16.7163 7.09722 16.6807C5.93284 16.4259 4.63733 15.6646 4.10295 14.0995C4.05196 13.9501 4.19679 13.8142 4.34967 13.8533C5.04369 14.0311 5.51021 13.9792 5.77537 13.8805C5.89896 13.8345 5.88731 13.6854 5.77511 13.6161C4.64492 12.9181 2.86256 11.4495 2.9562 10.0301C2.9653 9.89211 3.1216 9.83113 3.23821 9.9055C3.83459 10.2858 4.11495 10.3883 4.27794 10.3753C4.4094 10.3648 4.38695 10.1853 4.28035 10.1076C3.28456 9.38248 2.62952 7.75688 3.37565 5.58432C3.42633 5.43676 3.62083 5.40937 3.72015 5.52971C6.05701 8.36105 9.90313 8.87347 11.7791 8.76618C11.8978 8.75939 11.9787 8.64464 11.9596 8.52729C11.1938 3.80965 16.8157 2.8234 18.8867 5.11672C18.9538 5.19101 19.064 5.21152 19.1499 5.16002L20.911 4.1033C21.0826 4.00036 21.2823 4.18528 21.1928 4.36424L20.6447 5.4605C20.5782 5.59348 20.6749 5.74994 20.8236 5.74994H21.4171C21.4702 5.74994 21.523 5.76919 21.556 5.81076C21.7095 6.00444 21.785 6.45296 20.0597 8.19001C20.0223 8.22764 20 8.28168 19.9998 8.33472Z" fill="#363538"/>
</svg>
