<svg width="24" height="24" viewBox="0 0 24 24" fill="none" xmlns="http://www.w3.org/2000/svg">
<path d="M10.4697 11.5304L6.42374 15.5764C5.96437 16.0358 5.19171 15.9203 4.88662 15.3468C1.30263 8.60889 8.60889 1.30263 15.3468 4.88662C15.9203 5.19171 16.0358 5.96437 15.5764 6.42374L11.5304 10.4697L18.0304 16.9697C18.8756 17.8149 18.8756 19.1852 18.0304 20.0304C17.1852 20.8756 15.8149 20.8756 14.9697 20.0304C14.6768 19.7375 14.6768 19.2626 14.9697 18.9697C15.2626 18.6768 15.7375 18.6768 16.0304 18.9697C16.2898 19.2291 16.7103 19.2291 16.9697 18.9697C17.2291 18.7103 17.2291 18.2898 16.9697 18.0304L10.4697 11.5304Z" fill="#363538"/>
</svg>
