<svg width="24" height="24" viewBox="0 0 24 24" fill="none" xmlns="http://www.w3.org/2000/svg">
<path d="M16.5301 4.46973C16.8229 4.76266 16.8229 5.23754 16.53 5.53039L15.53 6.53015C15.237 6.82301 14.7622 6.82295 14.4693 6.53002C14.1764 6.23709 14.1765 5.76222 14.4694 5.46936L15.4694 4.46961C15.7624 4.17675 16.2372 4.17681 16.5301 4.46973Z" fill="#363538"/>
<path d="M6.99976 7.25024C4.3764 7.25024 2.24976 9.37689 2.24976 12.0002C2.24976 14.6236 4.3764 16.7502 6.99976 16.7502H8.99976C9.41397 16.7502 9.74976 16.4145 9.74976 16.0002C9.74976 15.586 9.41397 15.2502 8.99976 15.2502H6.99976C5.20483 15.2502 3.74976 13.7952 3.74976 12.0002C3.74976 10.2053 5.20483 8.75024 6.99976 8.75024H8.99976C9.41397 8.75024 9.74976 8.41446 9.74976 8.00024C9.74976 7.58603 9.41397 7.25024 8.99976 7.25024L6.99976 7.25024Z" fill="#363538"/>
<path d="M14.9999 7.25024C14.5857 7.25024 14.2499 7.58603 14.2499 8.00024C14.2499 8.41446 14.5857 8.75024 14.9999 8.75024H16.9999C18.7948 8.75024 20.2499 10.2053 20.2499 12.0002C20.2499 13.7952 18.7948 15.2502 16.9999 15.2502H14.9999C14.5857 15.2502 14.2499 15.586 14.2499 16.0002C14.2499 16.4145 14.5857 16.7502 14.9999 16.7502H16.9999C19.6232 16.7502 21.7499 14.6236 21.7499 12.0002C21.7499 9.37689 19.6232 7.25024 16.9999 7.25024H14.9999Z" fill="#363538"/>
<path d="M7.46967 5.53057C7.17678 5.23768 7.17678 4.76281 7.46967 4.46991C7.76256 4.17702 8.23744 4.17702 8.53033 4.46991L9.53033 5.46991C9.82322 5.76281 9.82322 6.23768 9.53033 6.53057C9.23744 6.82347 8.76256 6.82347 8.46967 6.53057L7.46967 5.53057Z" fill="#363538"/>
<path d="M16.5303 19.5308C16.8232 19.2379 16.8232 18.7631 16.5303 18.4702L15.53 17.4699C15.2371 17.177 14.7623 17.177 14.4694 17.4699C14.1765 17.7628 14.1765 18.2377 14.4694 18.5306L15.4696 19.5308C15.7625 19.8237 16.2374 19.8237 16.5303 19.5308Z" fill="#363538"/>
<path d="M7.46967 18.4699C7.17678 18.7628 7.17678 19.2377 7.46967 19.5306C7.76256 19.8235 8.23744 19.8235 8.53033 19.5306L9.53033 18.5306C9.82322 18.2377 9.82322 17.7628 9.53033 17.4699C9.23744 17.177 8.76256 17.177 8.46967 17.4699L7.46967 18.4699Z" fill="#363538"/>
</svg>
