<svg width="24" height="24" viewBox="0 0 24 24" fill="none" xmlns="http://www.w3.org/2000/svg">
<path d="M9.87823 3.47168C10.2924 3.47173 10.6282 3.80756 10.6281 4.22177L10.628 5.63581C10.6279 6.05003 10.2921 6.38577 9.87788 6.38572C9.46366 6.38567 9.12792 6.04984 9.12797 5.63563L9.12814 4.22159C9.12819 3.80737 9.46402 3.47163 9.87823 3.47168Z" fill="#363538"/>
<path d="M10.7622 6.51992C10.4693 6.81281 10.4693 7.28768 10.7622 7.58058C11.0551 7.87347 11.53 7.87347 11.8229 7.58058L13.2371 6.16636C14.5063 4.89716 16.5641 4.89716 17.8333 6.16636C19.1025 7.43557 19.1025 9.49335 17.8333 10.7626L16.4191 12.1768C16.1262 12.4697 16.1262 12.9445 16.4191 13.2374C16.712 13.5303 17.1868 13.5303 17.4797 13.2374L18.894 11.8232C20.7489 9.96823 20.7489 6.96069 18.894 5.1057C17.039 3.25071 14.0314 3.25071 12.1764 5.1057L10.7622 6.51992Z" fill="#363538"/>
<path d="M5.10536 12.1767C3.25037 14.0317 3.25037 17.0392 5.10536 18.8942C6.96035 20.7492 9.96789 20.7492 11.8229 18.8942L13.2371 17.48C13.53 17.1871 13.53 16.7123 13.2371 16.4194C12.9442 16.1265 12.4693 16.1265 12.1764 16.4194L10.7622 17.8336C9.49301 19.1028 7.43523 19.1028 6.16602 17.8336C4.89682 16.5644 4.89682 14.5066 6.16602 13.2374L7.58024 11.8232C7.87313 11.5303 7.87313 11.0554 7.58024 10.7625C7.28734 10.4696 6.81247 10.4696 6.51958 10.7625L5.10536 12.1767Z" fill="#363538"/>
<path d="M4.22168 10.6284C3.80747 10.6284 3.47168 10.2927 3.47168 9.87845C3.47168 9.46423 3.80747 9.12845 4.22168 9.12845H5.63589C6.05011 9.12845 6.38589 9.46423 6.38589 9.87845C6.38589 10.2927 6.05011 10.6284 5.63589 10.6284H4.22168Z" fill="#363538"/>
<path d="M20.5282 14.1213C20.5282 13.7071 20.1924 13.3713 19.7782 13.3713H18.3636C17.9494 13.3713 17.6136 13.7071 17.6136 14.1213C17.6136 14.5355 17.9494 14.8713 18.3636 14.8713H19.7782C20.1924 14.8713 20.5282 14.5355 20.5282 14.1213Z" fill="#363538"/>
<path d="M13.3712 19.778C13.3712 20.1922 13.7069 20.528 14.1212 20.528C14.5354 20.528 14.8712 20.1922 14.8712 19.778V18.3638C14.8712 17.9496 14.5354 17.6138 14.1212 17.6138C13.7069 17.6138 13.3712 17.9496 13.3712 18.3638V19.778Z" fill="#363538"/>
</svg>
