<svg width="24" height="24" viewBox="0 0 24 24" fill="none" xmlns="http://www.w3.org/2000/svg">
<path d="M16 7C16 9.76142 13.7614 12 11 12C8.23858 12 6 9.76142 6 7C6 4.23858 8.23858 2 11 2C13.7614 2 16 4.23858 16 7Z" fill="#363538"/>
<path d="M16.25 12C16.25 11.5858 16.5858 11.25 17 11.25H21C21.4142 11.25 21.75 11.5858 21.75 12C21.75 12.4142 21.4142 12.75 21 12.75H17C16.5858 12.75 16.25 12.4142 16.25 12Z" fill="#363538"/>
<path d="M11 22C15.4183 22 19 19.9853 19 17.5C19 15.0147 15.4183 13 11 13C6.58172 13 3 15.0147 3 17.5C3 19.9853 6.58172 22 11 22Z" fill="#363538"/>
</svg>
