<svg width="24" height="24" viewBox="0 0 24 24" fill="none" xmlns="http://www.w3.org/2000/svg">
<path d="M16 7C16 9.76142 13.7614 12 11 12C8.23858 12 6 9.76142 6 7C6 4.23858 8.23858 2 11 2C13.7614 2 16 4.23858 16 7Z" fill="#363538"/>
<path d="M19 8.25C19.4142 8.25 19.75 8.58579 19.75 9V10.25H21C21.4142 10.25 21.75 10.5858 21.75 11C21.75 11.4142 21.4142 11.75 21 11.75H19.75V13C19.75 13.4142 19.4142 13.75 19 13.75C18.5858 13.75 18.25 13.4142 18.25 13V11.75H17C16.5858 11.75 16.25 11.4142 16.25 11C16.25 10.5858 16.5858 10.25 17 10.25H18.25V9C18.25 8.58579 18.5858 8.25 19 8.25Z" fill="#363538"/>
<path d="M11 22C15.4183 22 19 19.9853 19 17.5C19 15.0147 15.4183 13 11 13C6.58172 13 3 15.0147 3 17.5C3 19.9853 6.58172 22 11 22Z" fill="#363538"/>
</svg>
