<svg width="24" height="24" viewBox="0 0 24 24" fill="none" xmlns="http://www.w3.org/2000/svg">
<path fill-rule="evenodd" clip-rule="evenodd" d="M5.76061 19.8152C5.27427 19.2704 5 18.6535 5 18C5 15.7909 8.13401 14 12 14C15.866 14 19 15.7909 19 18C19 18.6535 18.7257 19.2704 18.2394 19.8152C20.5316 17.9828 22 15.1629 22 12C22 6.47715 17.5228 2 12 2C6.47715 2 2 6.47715 2 12C2 15.1629 3.46837 17.9828 5.76061 19.8152ZM16.3749 8.37497C16.3749 10.7912 14.4161 12.7499 11.9999 12.7499C9.58367 12.7499 7.62493 10.7912 7.62493 8.37497C7.62493 5.95874 9.58367 4 11.9999 4C14.4161 4 16.3749 5.95874 16.3749 8.37497Z" fill="#363538"/>
</svg>
