<svg width="24" height="24" viewBox="0 0 24 24" fill="none" xmlns="http://www.w3.org/2000/svg">
<path d="M17 7C17 9.76142 14.7614 12 12 12C9.23858 12 7 9.76142 7 7C7 4.23858 9.23858 2 12 2C14.7614 2 17 4.23858 17 7Z" fill="#363538"/>
<path d="M20 17.5C20 19.9853 16.4183 22 12 22C7.58172 22 4 19.9853 4 17.5C4 15.0147 7.58172 13 12 13C16.4183 13 20 15.0147 20 17.5Z" fill="#363538"/>
<path d="M17.4055 8.76716L19.2805 8.04109C19.422 7.9863 19.578 7.9863 19.7195 8.04109L21.5945 8.76716C21.8384 8.86162 22 9.10238 22 9.37141V11.1831C22 12.4543 20.4481 13.5253 19.7897 13.9224C19.6106 14.0304 19.3925 14.0251 19.2175 13.91C18.5634 13.4798 17 12.3314 17 11.1831L17 9.37141C17 9.10238 17.1616 8.86162 17.4055 8.76716Z" fill="#363538"/>
</svg>
