<svg width="24" height="24" viewBox="0 0 24 24" fill="none" xmlns="http://www.w3.org/2000/svg">
<path d="M17 7C17 9.76142 14.7614 12 12 12C9.23858 12 7 9.76142 7 7C7 4.23858 9.23858 2 12 2C14.7614 2 17 4.23858 17 7Z" fill="#363538"/>
<path d="M20 17.5C20 19.9853 16.4183 22 12 22C7.58172 22 4 19.9853 4 17.5C4 15.0147 7.58172 13 12 13C16.4183 13 20 15.0147 20 17.5Z" fill="#363538"/>
<path d="M19.3249 14.4288C19.9939 14.0486 21.7071 12.971 21.9999 11.7553C22.2643 10.6575 21.5933 9.5169 20.4568 9.50051C20.4334 9.50017 20.4096 9.5 20.3854 9.5C20.032 9.5 19.7079 9.63369 19.4683 9.77086C19.3425 9.84293 19.2294 9.88965 19.0844 9.88965C18.9394 9.88965 18.7723 9.84293 18.6464 9.77086C18.4068 9.63369 18.0827 9.5 17.7293 9.5C17.7052 9.5 17.6814 9.50017 17.6579 9.50051C16.5215 9.5169 15.8504 10.6575 16.1148 11.7553C16.4077 12.971 18.1208 14.0486 18.7898 14.4288C18.957 14.5237 19.1578 14.5237 19.3249 14.4288Z" fill="#363538"/>
</svg>
