<svg width="24" height="24" viewBox="0 0 24 24" fill="none" xmlns="http://www.w3.org/2000/svg">
<path d="M10.6634 21.8493C9.05587 21.665 7.64439 21.1547 6.63261 20.439C4.98297 19.3876 3.66232 17.8658 2.85965 16.0625C2.68096 15.6611 2.92134 15.2089 3.34577 15.0952C3.72371 14.994 4.11312 15.1999 4.27696 15.5552C4.51198 16.0649 4.79597 16.5474 5.12289 16.9966C5.73734 15.0766 8.58268 13.6248 12 13.6248C15.4173 13.6248 18.2627 15.0766 18.877 16.9967C19.8978 15.5941 20.5 13.8674 20.5 12C20.5 7.30558 16.6944 3.5 12 3.5C11.736 3.5 11.4749 3.51203 11.217 3.53558C10.8277 3.57113 10.4553 3.33686 10.3541 2.95929C10.2403 2.53456 10.5121 2.10019 10.9494 2.05453C11.2947 2.01848 11.6452 2 12 2C17.5228 2 22 6.47715 22 12C22 15.5481 20.1522 18.6645 17.3664 20.4396C16.8483 20.8059 16.2255 21.1184 15.5253 21.3609C14.4289 21.774 13.2409 22 12 22C11.6452 22 11.2947 21.9815 10.9494 21.9455C10.8433 21.9344 10.7469 21.9004 10.6634 21.8493Z" fill="#363538"/>
<path d="M2.05452 13.0506C2.10018 13.4879 2.53456 13.7597 2.95929 13.6459C3.33686 13.5447 3.57113 13.1722 3.53558 12.7829C3.51203 12.5251 3.5 12.264 3.5 12C3.5 11.736 3.51204 11.4748 3.53559 11.217C3.57114 10.8277 3.33687 10.4552 2.9593 10.354C2.53457 10.2402 2.1002 10.512 2.05454 10.9493C2.01848 11.2946 2 11.6452 2 12C2 12.3548 2.01848 12.7053 2.05452 13.0506Z" fill="#363538"/>
<path d="M2.85968 7.93744C2.68098 8.33888 2.92138 8.79095 3.34582 8.90468C3.72375 9.00594 4.11316 8.80001 4.277 8.44471C4.4969 7.96782 4.75967 7.51477 5.06037 7.0905C5.28663 6.77125 5.27037 6.33097 4.99367 6.05428C4.68316 5.74376 4.17182 5.76147 3.91317 6.11636C3.50132 6.68147 3.14725 7.29139 2.85968 7.93744Z" fill="#363538"/>
<path d="M6.11643 3.91312C5.76154 4.17176 5.74382 4.6831 6.05434 4.99362C6.33103 5.27031 6.77131 5.28659 7.09056 5.06032C7.51483 4.75963 7.96788 4.49686 8.44477 4.27697C8.80008 4.11313 9.00601 3.72372 8.90474 3.34579C8.79101 2.92135 8.33895 2.68096 7.93751 2.85964C7.29147 3.14722 6.68154 3.50127 6.11643 3.91312Z" fill="#363538"/>
<path d="M16.3749 8.37497C16.3749 10.7912 14.4161 12.7499 11.9999 12.7499C9.58367 12.7499 7.62493 10.7912 7.62493 8.37497C7.62493 5.95874 9.58367 4 11.9999 4C14.4161 4 16.3749 5.95874 16.3749 8.37497Z" fill="#363538"/>
</svg>
