<svg width="24" height="24" viewBox="0 0 24 24" fill="none" xmlns="http://www.w3.org/2000/svg">
<path d="M16 7C16 9.76142 13.7614 12 11 12C8.23858 12 6 9.76142 6 7C6 4.23858 8.23858 2 11 2C13.7614 2 16 4.23858 16 7Z" fill="#363538"/>
<path d="M16.8839 8.88383C17.1768 8.59093 17.6517 8.59093 17.9445 8.88383L18.8284 9.76771L19.7123 8.88383C20.0052 8.59093 20.4801 8.59093 20.773 8.88383C21.0659 9.17672 21.0659 9.65159 20.773 9.94449L19.8891 10.8284L20.773 11.7123C21.0659 12.0051 21.0659 12.48 20.773 12.7729C20.4801 13.0658 20.0052 13.0658 19.7123 12.7729L18.8284 11.889L17.9445 12.7729C17.6517 13.0658 17.1768 13.0658 16.8839 12.7729C16.591 12.48 16.591 12.0051 16.8839 11.7123L17.7678 10.8284L16.8839 9.94449C16.591 9.65159 16.591 9.17672 16.8839 8.88383Z" fill="#363538"/>
<path d="M11 22C15.4183 22 19 19.9853 19 17.5C19 15.0147 15.4183 13 11 13C6.58172 13 3 15.0147 3 17.5C3 19.9853 6.58172 22 11 22Z" fill="#363538"/>
</svg>
