<svg width="24" height="24" viewBox="0 0 24 24" fill="none" xmlns="http://www.w3.org/2000/svg">
<path d="M16 7C16 9.76142 13.7614 12 11 12C8.23858 12 6 9.76142 6 7C6 4.23858 8.23858 2 11 2C13.7614 2 16 4.23858 16 7Z" fill="#363538"/>
<path d="M21.5303 9.46967C21.8232 9.76256 21.8232 10.2374 21.5303 10.5303L18.5541 13.5065C18.2684 13.7922 17.8078 13.8003 17.5123 13.5247L15.9885 12.1036C15.6856 11.8211 15.669 11.3465 15.9515 11.0436C16.234 10.7407 16.7086 10.7241 17.0115 11.0066L18.0056 11.9337L20.4697 9.46967C20.7626 9.17678 21.2374 9.17678 21.5303 9.46967Z" fill="#363538"/>
<path d="M11 22C15.4183 22 19 19.9853 19 17.5C19 15.0147 15.4183 13 11 13C6.58172 13 3 15.0147 3 17.5C3 19.9853 6.58172 22 11 22Z" fill="#363538"/>
</svg>
