<svg width="24" height="24" viewBox="0 0 24 24" fill="none" xmlns="http://www.w3.org/2000/svg">
<path fill-rule="evenodd" clip-rule="evenodd" d="M10.41 2.99409L5.41 6.11909C4.53286 6.66731 4 7.62872 4 8.66309V15.3376C4 16.372 4.53286 17.3334 5.41 17.8816L10.41 21.0066C11.3828 21.6146 12.6172 21.6146 13.59 21.0066L18.59 17.8816C19.4671 17.3334 20 16.372 20 15.3376V8.66309C20 7.62872 19.4671 6.66731 18.59 6.11909L13.59 2.99409C12.6172 2.38608 11.3828 2.38608 10.41 2.99409ZM13.25 11.9966C13.25 11.3062 12.6904 10.7466 12 10.7466C11.3096 10.7466 10.75 11.3062 10.75 11.9966V12.0038C10.75 12.6941 11.3096 13.2538 12 13.2538C12.6904 13.2538 13.25 12.6941 13.25 12.0038V11.9966Z" fill="#363538"/>
</svg>
