<svg width="24" height="24" viewBox="0 0 24 24" fill="none" xmlns="http://www.w3.org/2000/svg">
<path fill-rule="evenodd" clip-rule="evenodd" d="M12.7594 2.88636C12.3603 2.42069 11.6399 2.42069 11.2408 2.88636L10.68 3.54072C10.3935 3.875 9.92209 3.98259 9.51893 3.80572L8.72975 3.45949C8.16813 3.2131 7.51907 3.52567 7.36155 4.11839L7.14019 4.95126C7.02711 5.37674 6.64908 5.67821 6.2091 5.69378L5.34785 5.72425C4.73494 5.74594 4.28578 6.30917 4.40102 6.91154L4.56296 7.75797C4.64569 8.19038 4.4359 8.62602 4.04625 8.83095L3.28351 9.23208C2.7407 9.51755 2.5804 10.2199 2.94559 10.7126L3.45875 11.405C3.72089 11.7586 3.72089 12.2422 3.45875 12.5959L2.94559 13.2882C2.5804 13.7809 2.7407 14.4833 3.28351 14.7687L4.04625 15.1699C4.4359 15.3748 4.64569 15.8104 4.56296 16.2428L4.40103 17.0893C4.28578 17.6917 4.73494 18.2549 5.34785 18.2766L6.2091 18.307C6.64908 18.3226 7.02711 18.6241 7.14019 19.0496L7.36155 19.8824C7.51907 20.4752 8.16813 20.7877 8.72975 20.5413L9.51893 20.1951C9.92209 20.0182 10.3935 20.1258 10.68 20.4601L11.2408 21.1145C11.6399 21.5801 12.3603 21.5801 12.7594 21.1145L13.3202 20.4601C13.6067 20.1258 14.0781 20.0182 14.4812 20.1951L15.2704 20.5413C15.832 20.7877 16.4811 20.4752 16.6386 19.8824L16.86 19.0496C16.9731 18.6241 17.3511 18.3226 17.7911 18.307L18.6523 18.2766C19.2652 18.2549 19.7144 17.6917 19.5991 17.0893L19.4372 16.2428C19.3545 15.8104 19.5643 15.3748 19.9539 15.1699L20.7167 14.7687C21.2595 14.4833 21.4198 13.7809 21.0546 13.2882L20.5414 12.5959C20.2793 12.2422 20.2793 11.7586 20.5414 11.405L21.0546 10.7126C21.4198 10.2199 21.2595 9.51756 20.7167 9.23208L19.9539 8.83095C19.5643 8.62602 19.3545 8.19038 19.4372 7.75798L19.5991 6.91154C19.7144 6.30917 19.2652 5.74594 18.6523 5.72425L17.7911 5.69378C17.3511 5.67821 16.9731 5.37674 16.86 4.95126L16.6386 4.11839C16.4811 3.52567 15.832 3.2131 15.2704 3.45949L14.4812 3.80572C14.0781 3.98259 13.6067 3.875 13.3202 3.54072L12.7594 2.88636ZM16.0303 8.97016C16.3232 9.26305 16.3232 9.73793 16.0303 10.0308L11.0303 15.0308C10.7374 15.3237 10.2626 15.3237 9.96967 15.0308L7.96967 13.0308C7.67678 12.7379 7.67678 12.2631 7.96967 11.9702C8.26256 11.6773 8.73744 11.6773 9.03033 11.9702L10.5 13.4398L14.9697 8.97016C15.2626 8.67726 15.7374 8.67726 16.0303 8.97016Z" fill="#363538"/>
</svg>
