<svg width="24" height="24" viewBox="0 0 24 24" fill="none" xmlns="http://www.w3.org/2000/svg">
<path d="M21.5 6.75V7.5L17.25 7.5V2.75H17.5C19.7091 2.75 21.5 4.54086 21.5 6.75Z" fill="#363538"/>
<path d="M12.75 2.75H15.75V7.5H12.75V2.75Z" fill="#363538"/>
<path d="M8.25 2.75H11.25V7.5L8.25 7.5V2.75Z" fill="#363538"/>
<path d="M6.5 2.75H6.75V7.5H2.5V6.75C2.75 4.54086 4.79086 2.75 6.5 2.75Z" fill="#363538"/>
<path fill-rule="evenodd" clip-rule="evenodd" d="M2.5 9L21.5 9V17.25C21.5 19.4591 19.7091 21.25 17.5 21.25H6.5C4.54086 21.25 2.75 19.4591 2.5 17.25V9ZM9.25 16.1369L9.25 13.3631C9.25 11.6782 10.4261 10.6732 11.864 11.6078L14.5365 12.9948C15.8212 13.8298 15.8212 15.6702 14.5365 16.5052L11.864 17.8922C10.4261 18.8268 9.25 17.8218 9.25 16.1369Z" fill="#363538"/>
</svg>
