<svg width="24" height="24" viewBox="0 0 24 24" fill="none" xmlns="http://www.w3.org/2000/svg">
<path d="M14.5 7C16.433 7 18 8.567 18 10.5L19.793 8.70703C20.4229 8.07721 21.4999 8.52329 21.5 9.41406V16.5859C21.4999 17.4767 20.4229 17.9228 19.793 17.293L18 15.5C18 17.433 16.433 19 14.5 19H7C4.79086 19 3 17.2091 3 15V11C3 8.79086 4.79086 7 7 7V7.58691C6.70908 7.68977 6.45376 7.87973 6.27344 8.13574L6.16602 8.31445L5.87695 8.87695L5.31445 9.16602C4.81444 9.42298 4.5 9.93781 4.5 10.5C4.5 11.0622 4.81444 11.577 5.31445 11.834L5.87695 12.123L6.16602 12.6855C6.42298 13.1856 6.93781 13.5 7.5 13.5C8.06219 13.5 8.57702 13.1856 8.83398 12.6855L9.12305 12.123L9.68555 11.834C10.1856 11.577 10.5 11.0622 10.5 10.5C10.5 10.0891 10.3306 9.70487 10.0449 9.42676C10.1901 9.4731 10.3428 9.5 10.5 9.5C11.0622 9.5 11.577 9.18556 11.834 8.68555L12.292 7.79199L13.1855 7.33398C13.351 7.24896 13.4941 7.13387 13.6143 7H14.5Z" fill="#363538"/>
<path d="M7.5 8.25C7.78109 8.25 8.03851 8.40722 8.16699 8.65723L8.56543 9.43359L9.34277 9.83301C9.59278 9.96149 9.75 10.2189 9.75 10.5C9.75 10.7811 9.59278 11.0385 9.34277 11.167L8.56543 11.5654L8.16699 12.3428C8.03851 12.5928 7.78109 12.75 7.5 12.75C7.21891 12.75 6.96149 12.5928 6.83301 12.3428L6.43359 11.5654L5.65723 11.167C5.40722 11.0385 5.25 10.7811 5.25 10.5C5.25 10.2189 5.40722 9.96149 5.65723 9.83301L6.43359 9.43359L6.83301 8.65723L6.88672 8.56836C7.02589 8.37054 7.25387 8.25 7.5 8.25Z" fill="#363538"/>
<path d="M9.39941 9.01855L9.36328 9H9.38477C9.39002 9.00586 9.39407 9.01278 9.39941 9.01855Z" fill="#363538"/>
<path d="M10.5 3.25C10.7811 3.25 11.0385 3.40722 11.167 3.65723L11.7354 4.76367L12.8428 5.33301C13.0928 5.46149 13.25 5.71891 13.25 6C13.25 6.28109 13.0928 6.53851 12.8428 6.66699L11.7354 7.23535L11.167 8.34277C11.0385 8.59278 10.7811 8.75 10.5 8.75C10.2189 8.75 9.96149 8.59278 9.83301 8.34277L9.26367 7.23535L8.15723 6.66699C7.90722 6.53851 7.75 6.28109 7.75 6C7.75 5.71891 7.90722 5.46149 8.15723 5.33301L9.26367 4.76367L9.83301 3.65723L9.88672 3.56836C10.0259 3.37054 10.2539 3.25 10.5 3.25Z" fill="#363538"/>
</svg>
