<svg width="24" height="24" viewBox="0 0 24 24" fill="none" xmlns="http://www.w3.org/2000/svg">
<path d="M20.4697 2.46967C20.7626 2.17678 21.2374 2.17678 21.5303 2.46967C21.823 2.76257 21.8231 3.23737 21.5303 3.53022L3.53027 21.5302C3.23742 21.8229 2.76258 21.8229 2.46973 21.5302C2.17688 21.2374 2.17698 20.7626 2.46973 20.4697L4.75391 18.1845L4.75293 18.1855C3.26306 17.384 2.25011 15.8102 2.25 13.9999V9.99994C2.25 7.37659 4.37665 5.24994 7 5.24994H14.5C15.4026 5.24994 16.2389 5.53176 16.9268 6.01166L20.4697 2.46967Z" fill="#363538"/>
<path d="M20.5186 6.66205C21.4068 6.67795 22.2499 7.37137 22.25 8.41401V15.5859C22.2496 17.1446 20.3651 17.9252 19.2627 16.8232L18.4658 16.0263C17.8523 17.619 16.3089 18.7499 14.5 18.7499H8.43164L20.5186 6.66205Z" fill="#363538"/>
</svg>
