<svg width="24" height="24" viewBox="0 0 24 24" fill="none" xmlns="http://www.w3.org/2000/svg">
<path fill-rule="evenodd" clip-rule="evenodd" d="M7.05064 7.05017C9.4899 4.61091 12.0313 3.67886 14.196 3.43515L14.2512 3.5976L14.2629 3.63216C14.3054 3.75843 14.5351 4.42691 14.8986 5.21043C15.253 5.97444 15.7731 6.93411 16.4195 7.58057C17.0657 8.22674 18.0248 8.74662 18.7886 9.10099C19.5718 9.4644 20.2404 9.69427 20.3676 9.73708L20.4027 9.74892L20.5652 9.8042C20.3215 11.9689 19.3894 14.5104 16.9501 16.9497C14.5056 19.3942 11.9585 20.325 9.79074 20.5662C9.76398 20.4608 9.73238 20.3512 9.69253 20.2382C9.59209 19.9535 9.34583 19.2883 8.99316 18.5608C8.64807 17.8489 8.16804 17.0068 7.58068 16.4194C6.99336 15.8321 6.15127 15.3521 5.4394 15.007C4.71191 14.6543 4.04679 14.4081 3.76199 14.3076C3.64907 14.2678 3.53953 14.2362 3.43408 14.2094C3.67536 12.0417 4.60617 9.49464 7.05064 7.05017ZM15.3587 9.70181C15.6516 9.40892 15.6516 8.93405 15.3587 8.64115C15.0658 8.34826 14.591 8.34826 14.2981 8.64115L14.1213 8.81793L13.9445 8.64115C13.6516 8.34826 13.1768 8.34826 12.8839 8.64115C12.591 8.93405 12.591 9.40892 12.8839 9.70181L13.0606 9.87859L12 10.9392L11.8232 10.7625C11.5303 10.4696 11.0554 10.4696 10.7625 10.7625C10.4696 11.0554 10.4696 11.5302 10.7625 11.8231L10.9393 11.9999L9.87866 13.0606L9.70188 12.8838C9.40899 12.5909 8.93411 12.5909 8.64122 12.8838C8.34833 13.1767 8.34833 13.6516 8.64122 13.9445L8.818 14.1212L8.64122 14.298C8.34833 14.5909 8.34833 15.0658 8.64122 15.3587C8.93411 15.6516 9.40899 15.6516 9.70188 15.3587L9.87866 15.1819L10.0554 15.3587C10.3483 15.6516 10.8232 15.6516 11.1161 15.3587C11.409 15.0658 11.409 14.5909 11.1161 14.298L10.9393 14.1212L12 13.0606L12.1768 13.2373C12.4696 13.5302 12.9445 13.5302 13.2374 13.2373C13.5303 12.9445 13.5303 12.4696 13.2374 12.1767L13.0606 11.9999L14.1213 10.9392L14.2981 11.116C14.591 11.4089 15.0658 11.4089 15.3587 11.116C15.6516 10.8231 15.6516 10.3483 15.3587 10.0554L15.182 9.87859L15.3587 9.70181Z" fill="#363538"/>
<path d="M20.2373 5.53879C20.4234 6.22932 20.6019 7.15727 20.6312 8.23983C20.3723 8.14583 19.9214 7.97298 19.4199 7.74031C18.686 7.39982 17.9302 6.96993 17.4802 6.51991C17.0299 6.06967 16.5999 5.31336 16.2593 4.57923C16.0269 4.07827 15.8543 3.62783 15.7603 3.36914C16.843 3.39835 17.771 3.57686 18.4615 3.76304C19.3348 3.99849 20.0018 4.66554 20.2373 5.53879Z" fill="#363538"/>
<path d="M7.64339 19.2151C7.92429 19.7946 8.13243 20.335 8.23981 20.6307C7.15746 20.6014 6.22969 20.4229 5.53927 20.2368C4.66602 20.0013 3.99896 19.3343 3.76352 18.461C3.57736 17.7706 3.39888 16.8428 3.36963 15.7604C3.66534 15.8678 4.20569 16.0759 4.78509 16.3568C5.45898 16.6834 6.11542 17.0755 6.52003 17.4801C6.92466 17.8847 7.31671 18.5412 7.64339 19.2151Z" fill="#363538"/>
</svg>
