<svg width="24" height="24" viewBox="0 0 24 24" fill="none" xmlns="http://www.w3.org/2000/svg">
<path d="M11.2285 3.1943C12.5333 2.1198 14.5 3.04801 14.5 4.73825V19.2617C14.5 20.9519 12.5333 21.8801 11.2285 20.8056L6.55371 16.956C6.19565 16.6612 5.74605 16.5 5.28223 16.5H4.75C3.64544 16.5 2.75002 15.6045 2.75 14.5V9.49996C2.75 8.39539 3.64543 7.49996 4.75 7.49996H5.28223C5.74604 7.49996 6.19566 7.33872 6.55371 7.04391L11.2285 3.1943Z" fill="#363538"/>
<path d="M19.5 9.24996C19.9142 9.24996 20.25 9.58575 20.25 9.99996V11.25H21.5C21.9142 11.25 22.25 11.5858 22.25 12C22.25 12.4142 21.9142 12.75 21.5 12.75H20.25V14C20.25 14.4142 19.9142 14.75 19.5 14.75C19.0858 14.75 18.75 14.4142 18.75 14V12.75H17.5C17.0858 12.75 16.75 12.4142 16.75 12C16.75 11.5858 17.0858 11.25 17.5 11.25H18.75V9.99996C18.75 9.58575 19.0858 9.24996 19.5 9.24996Z" fill="#363538"/>
</svg>
