<svg width="24" height="24" viewBox="0 0 24 24" fill="none" xmlns="http://www.w3.org/2000/svg">
<path d="M12.2285 3.1943C13.5333 2.1198 15.5 3.04801 15.5 4.73825V19.2617C15.5 20.9519 13.5333 21.8801 12.2285 20.8056L7.55371 16.956C7.19565 16.6612 6.74605 16.5 6.28223 16.5H5.75C4.64544 16.5 3.75002 15.6045 3.75 14.5V9.49996C3.75 8.39539 4.64543 7.49996 5.75 7.49996H6.28223C6.74604 7.49996 7.19566 7.33872 7.55371 7.04391L12.2285 3.1943Z" fill="#363538"/>
<path d="M17.3447 9.13571C17.5459 8.7738 18.0022 8.64364 18.3643 8.84469L18.3672 8.84567L18.3701 8.84762C18.3725 8.84898 18.376 8.85083 18.3789 8.8525C18.3845 8.85577 18.391 8.85976 18.3984 8.86422C18.4138 8.87347 18.4329 8.88577 18.4551 8.90035C18.4995 8.92958 18.5571 8.96998 18.623 9.02243C18.7546 9.12719 18.9238 9.28272 19.0908 9.49606C19.4306 9.9303 19.75 10.5897 19.75 11.5C19.75 12.4103 19.4306 13.0696 19.0908 13.5039C18.9238 13.7172 18.7546 13.8727 18.623 13.9775C18.5571 14.03 18.4995 14.0704 18.4551 14.0996C18.4329 14.1142 18.4138 14.1265 18.3984 14.1357C18.391 14.1402 18.3845 14.1442 18.3789 14.1474C18.376 14.1491 18.3725 14.151 18.3701 14.1523L18.3672 14.1543L18.3652 14.1552C18.3652 14.1552 18.3606 14.1494 18 13.5L18.3652 14.1552C18.0032 14.3563 17.5459 14.2261 17.3447 13.8642C17.1437 13.5022 17.2738 13.0459 17.6357 12.8447L17.6309 12.8466C17.6412 12.8398 17.6621 12.8255 17.6895 12.8037C17.7453 12.7591 17.8263 12.6849 17.9092 12.5791C18.0693 12.3745 18.25 12.0341 18.25 11.5C18.25 10.9659 18.0693 10.6255 17.9092 10.4209C17.8263 10.315 17.7454 10.2408 17.6895 10.1963C17.6621 10.1745 17.6412 10.1601 17.6309 10.1533L17.6348 10.1552L17.6357 10.1543C17.2742 9.95297 17.1438 9.49759 17.3447 9.13571Z" fill="#363538"/>
</svg>
