<svg width="24" height="24" viewBox="0 0 24 24" fill="none" xmlns="http://www.w3.org/2000/svg">
<path d="M11.2285 3.1943C12.5333 2.1198 14.5 3.04801 14.5 4.73825V19.2617C14.5 20.9519 12.5333 21.8801 11.2285 20.8056L6.55371 16.956C6.19565 16.6612 5.74605 16.5 5.28223 16.5H4.75C3.64544 16.5 2.75002 15.6045 2.75 14.5V9.49996C2.75 8.39539 3.64543 7.49996 4.75 7.49996H5.28223C5.74604 7.49996 6.19566 7.33872 6.55371 7.04391L11.2285 3.1943Z" fill="#363538"/>
<path d="M20.3838 10.0556C20.6766 9.76279 21.1514 9.76289 21.4443 10.0556C21.7372 10.3485 21.7372 10.8233 21.4443 11.1162L20.5605 12L21.4443 12.8838C21.7372 13.1766 21.7372 13.6514 21.4443 13.9443C21.1514 14.2372 20.6767 14.2372 20.3838 13.9443L19.5 13.0605L18.6162 13.9443C18.3233 14.2372 17.8486 14.2372 17.5557 13.9443C17.2629 13.6514 17.2628 13.1766 17.5557 12.8838L18.4395 12L17.5557 11.1162C17.2628 10.8233 17.2628 10.3485 17.5557 10.0556C17.8486 9.76274 18.3233 9.76274 18.6162 10.0556L19.5 10.9394L20.3838 10.0556Z" fill="#363538"/>
</svg>
