<svg width="24" height="24" viewBox="0 0 24 24" fill="none" xmlns="http://www.w3.org/2000/svg">
<path d="M11.2285 3.1943C12.5333 2.1198 14.5 3.04801 14.5 4.73825V19.2617C14.5 20.9519 12.5333 21.8801 11.2285 20.8056L6.55371 16.956C6.19565 16.6612 5.74605 16.5 5.28223 16.5H4.75C3.64544 16.5 2.75002 15.6045 2.75 14.5V9.49996C2.75 8.39539 3.64543 7.49996 4.75 7.49996H5.28223C5.74604 7.49996 6.19566 7.33872 6.55371 7.04391L11.2285 3.1943Z" fill="#363538"/>
<path d="M17.3447 5.13571C17.5459 4.7738 18.0022 4.64364 18.3643 4.84469L18.3672 4.84664L18.3721 4.8486C18.3753 4.85044 18.3792 4.85278 18.3838 4.85543C18.3933 4.86096 18.4059 4.86887 18.4209 4.87789C18.4509 4.896 18.4915 4.92143 18.541 4.95407C18.6401 5.01931 18.7759 5.11408 18.9355 5.24118C19.2546 5.49519 19.6739 5.87939 20.0908 6.41207C20.9307 7.48515 21.75 9.14489 21.75 11.5C21.75 13.855 20.9307 15.5148 20.0908 16.5879C19.6739 17.1205 19.2546 17.5047 18.9355 17.7588C18.7759 17.8858 18.6401 17.9806 18.541 18.0459C18.4915 18.0785 18.4509 18.1039 18.4209 18.122C18.4059 18.1311 18.3933 18.139 18.3838 18.1445C18.3792 18.1471 18.3753 18.1495 18.3721 18.1513L18.3672 18.1533L18.3652 18.1552C18.3652 18.1552 18.3607 18.1495 18 17.5L18.3652 18.1552C18.0032 18.3563 17.5459 18.2261 17.3447 17.8642C17.1442 17.5031 17.2729 17.0476 17.6328 16.8457C17.6346 16.8446 17.6395 16.842 17.6465 16.8379C17.6604 16.8294 17.6846 16.8151 17.7168 16.7939C17.7817 16.7511 17.8805 16.6816 18.002 16.5849C18.2453 16.3912 18.5764 16.0883 18.9092 15.6631C19.5693 14.8196 20.25 13.4789 20.25 11.5C20.25 9.52107 19.5693 8.18031 18.9092 7.33688C18.5764 6.91167 18.2453 6.60877 18.002 6.415C17.8805 6.31834 17.7817 6.24879 17.7168 6.20602C17.6846 6.18483 17.6605 6.17051 17.6465 6.16207C17.6395 6.15789 17.6346 6.1553 17.6328 6.15426L17.6348 6.15524L17.6357 6.15426C17.2742 5.95297 17.1438 5.49759 17.3447 5.13571Z" fill="#363538"/>
<path d="M16.3447 9.13571C16.5459 8.7738 17.0022 8.64364 17.3643 8.84469L17.3672 8.84567L17.3701 8.84762C17.3725 8.84898 17.376 8.85083 17.3789 8.8525C17.3845 8.85577 17.391 8.85976 17.3984 8.86422C17.4138 8.87347 17.4329 8.88577 17.4551 8.90035C17.4995 8.92958 17.5571 8.96998 17.623 9.02243C17.7546 9.12719 17.9238 9.28272 18.0908 9.49606C18.4306 9.9303 18.75 10.5897 18.75 11.5C18.75 12.4103 18.4306 13.0696 18.0908 13.5039C17.9238 13.7172 17.7546 13.8727 17.623 13.9775C17.5571 14.03 17.4995 14.0704 17.4551 14.0996C17.4329 14.1142 17.4138 14.1265 17.3984 14.1357C17.391 14.1402 17.3845 14.1442 17.3789 14.1474C17.376 14.1491 17.3725 14.151 17.3701 14.1523L17.3672 14.1543L17.3652 14.1552C17.3652 14.1552 17.3606 14.1494 17 13.5L17.3652 14.1552C17.0032 14.3563 16.5459 14.2261 16.3447 13.8642C16.1437 13.5022 16.2738 13.0459 16.6357 12.8447L16.6309 12.8466C16.6412 12.8398 16.6621 12.8255 16.6895 12.8037C16.7453 12.7591 16.8263 12.6849 16.9092 12.5791C17.0693 12.3745 17.25 12.0341 17.25 11.5C17.25 10.9659 17.0693 10.6255 16.9092 10.4209C16.8263 10.315 16.7454 10.2408 16.6895 10.1963C16.6621 10.1745 16.6412 10.1601 16.6309 10.1533L16.6348 10.1552L16.6357 10.1543C16.2742 9.95297 16.1438 9.49759 16.3447 9.13571Z" fill="#363538"/>
</svg>
