<svg width="24" height="24" viewBox="0 0 24 24" fill="none" xmlns="http://www.w3.org/2000/svg">
<path d="M20.4697 2.46967C20.7626 2.17678 21.2373 2.17678 21.5302 2.46967C21.8228 2.76259 21.823 3.23742 21.5302 3.53022L3.53022 21.5302C3.23742 21.823 2.76259 21.8228 2.46967 21.5302C2.17678 21.2373 2.17678 20.7626 2.46967 20.4697L6.82514 16.1142H6.82319C6.32506 15.7505 6.00002 15.163 5.99994 14.499V9.49897C6.00042 8.39481 6.89567 7.49897 7.99994 7.49897H8.53217C8.99595 7.4989 9.44565 7.33774 9.80365 7.04291L14.4785 3.1933C15.7831 2.11937 17.7495 3.04752 17.7499 4.73725V5.1894L20.4697 2.46967Z" fill="#363538"/>
<path d="M17.7499 19.2617C17.7496 20.9515 15.7831 21.8796 14.4785 20.8056L10.0341 17.1455L17.7499 9.43061V19.2617Z" fill="#363538"/>
</svg>
