<svg width="24" height="24" viewBox="0 0 24 24" fill="none" xmlns="http://www.w3.org/2000/svg">
<path fill-rule="evenodd" clip-rule="evenodd" d="M9.70627 5.25337L9.70778 5.24943C9.71027 5.24304 9.71538 5.23024 9.7233 5.21194C9.73919 5.17523 9.76603 5.11721 9.80518 5.045C9.88418 4.8993 10.0091 4.70367 10.1889 4.50938C10.5382 4.13184 11.0988 3.75 12.0004 3.75C12.902 3.75 13.4625 4.13184 13.8119 4.50938C13.9917 4.70367 14.1166 4.8993 14.1956 5.045C14.2347 5.11721 14.2615 5.17523 14.2774 5.21194C14.2854 5.23024 14.2905 5.24304 14.2929 5.24943L14.2945 5.25337C14.4335 5.64088 14.8594 5.84421 15.2486 5.70774C15.6394 5.57067 15.8452 5.14269 15.7081 4.75181L15.7076 4.7503L15.707 4.7486L15.7056 4.74464L15.7019 4.73449L15.6909 4.70565C15.682 4.68274 15.6698 4.65258 15.654 4.61618C15.6226 4.54352 15.5767 4.44529 15.5142 4.33C15.3898 4.1007 15.1957 3.79633 14.9128 3.49062C14.3369 2.86816 13.3974 2.25 12.0004 2.25C10.6033 2.25 9.66387 2.86816 9.08789 3.49062C8.805 3.79633 8.61089 4.1007 8.48656 4.33C8.42404 4.44529 8.37813 4.54352 8.34668 4.61618C8.33093 4.65258 8.31873 4.68274 8.30982 4.70565C8.30537 4.7171 8.30173 4.72676 8.29887 4.73449L8.29517 4.74464L8.29376 4.7486L8.29315 4.7503C8.29315 4.7503 8.29262 4.75181 8.29376 4.7486L8.29262 4.75181C8.15555 5.14269 8.3613 5.57067 8.75218 5.70774C9.14132 5.84421 9.56725 5.64087 9.70627 5.25337Z" fill="#363538"/>
<path d="M21.7307 15.3057L21.5815 13.813C21.2563 10.5619 18.4295 8.14282 15.1672 8.32405L12.0002 8.5L8.83315 8.32405C5.57083 8.14282 2.74398 10.5619 2.41886 13.813L2.26959 15.3057C2.10737 16.9279 2.96382 18.4818 4.42203 19.2109C5.42583 19.7128 6.59636 19.7615 7.63838 19.3447L10.0717 18.3714C10.685 18.1261 11.3396 18 12.0002 18C12.6608 18 13.3153 18.1261 13.9286 18.3714L16.3619 19.3447C17.404 19.7615 18.5745 19.7128 19.5783 19.2109C21.0365 18.4818 21.893 16.9279 21.7307 15.3057Z" fill="#363538"/>
<path d="M11.3695 6.20933C11.4875 6.08179 11.6731 5.94995 12 5.94995C12.3269 5.94995 12.5125 6.08179 12.6305 6.20933C12.9118 6.51336 13.3864 6.53176 13.6904 6.25043C13.9944 5.96911 14.0128 5.49459 13.7315 5.19057C13.3868 4.81811 12.8224 4.44995 12 4.44995C11.1776 4.44995 10.6132 4.81811 10.2685 5.19057C9.98721 5.49459 10.0056 5.96911 10.3096 6.25043C10.6137 6.53176 11.0882 6.51336 11.3695 6.20933Z" fill="#363538"/>
</svg>
