<svg width="24" height="24" viewBox="0 0 24 24" fill="none" xmlns="http://www.w3.org/2000/svg">
<path d="M14.1658 16.1434C14.2084 16.2864 14.0667 16.4268 13.9282 16.3713C13.3148 16.126 12.6603 15.9999 11.9997 15.9999C11.3391 15.9999 10.6845 16.126 10.0712 16.3713L7.63789 17.3447C6.59587 17.7615 5.42534 17.7128 4.42154 17.2109C2.96333 16.4818 2.10688 14.9279 2.2691 13.3057L2.41838 11.8129C2.74349 8.56181 5.57035 6.14276 8.83266 6.324L11.9997 6.49995L15.1667 6.324C18.429 6.14276 21.2559 8.56181 21.581 11.8129L21.6873 12.8761C21.6942 12.9454 21.6252 13 21.5556 13C21.5248 13 21.4999 12.9751 21.4999 12.9444V11.75C21.4999 10.9216 20.8283 10.25 19.9999 10.25C19.1768 10.25 18.5085 10.9131 18.5 11.7342C18.4915 10.9131 17.8232 10.25 17.0001 10.25C16.1717 10.25 15.5001 10.9216 15.5001 11.75V12C15.5001 12.5523 15.0524 13 14.5001 13H14.4444C14.199 13 14 13.199 14 13.4444V15C14 15.3973 14.0579 15.7811 14.1658 16.1434Z" fill="#363538"/>
<path d="M17.7501 11.75C17.7501 11.3358 17.4143 11 17.0001 11C16.5859 11 16.2501 11.3358 16.2501 11.75V13.4H15.3704C15.1658 13.4 15 13.5658 15 13.7704V14.9C15 16.5949 16.2047 18.0084 17.8045 18.3309C17.8137 18.3538 17.8242 18.3765 17.836 18.3988C17.901 18.5227 17.985 18.7121 18.0327 18.9133C18.082 19.1217 18.0765 19.2755 18.0421 19.3738C17.8071 20.0453 17.75 20.7525 17.75 21.0502C17.75 21.4644 18.0858 21.8002 18.5 21.8002C18.9142 21.8002 19.25 21.4644 19.25 21.0502C19.25 20.8717 19.2929 20.3407 19.4579 19.8694C19.6235 19.3962 19.5764 18.9231 19.4923 18.568C19.4686 18.4677 19.4407 18.3714 19.4105 18.2804C20.902 17.8797 22 16.5181 22 14.9V13.7704C22 13.5658 21.8342 13.4 21.6296 13.4H20.7499V11.75C20.7499 11.3358 20.4141 11 19.9999 11C19.5857 11 19.2499 11.3358 19.2499 11.75V13.4H17.7501V11.75Z" fill="#363538"/>
</svg>
