<svg width="24" height="24" viewBox="0 0 24 24" fill="none" xmlns="http://www.w3.org/2000/svg">
<path d="M2.75 8.25V14.25C2.75 16.4591 4.54086 18.25 6.75 18.25H8.44662C8.40079 17.9387 8.39276 17.6185 8.42598 17.2955L8.51192 16.46C8.78751 13.7806 11.1176 11.7893 13.8072 11.9345L15.75 12.0395L17.6928 11.9345C18.8156 11.8739 19.8758 12.1856 20.75 12.7643V8.25C20.75 6.04086 18.9591 4.25 16.75 4.25H6.75C4.54086 4.25 2.75 6.04086 2.75 8.25Z" fill="#363538"/>
<path d="M21.496 16.6134L21.5819 17.4489C21.6828 18.4304 21.1597 19.3703 20.2723 19.8016C19.6843 20.0875 19.0036 20.1153 18.3942 19.8783L16.9092 19.3008C16.5396 19.1571 16.1465 19.0833 15.75 19.0833C15.3535 19.0833 14.9604 19.1571 14.5908 19.3008L13.1058 19.8783C12.4964 20.1153 11.8157 20.0875 11.2277 19.8016C10.3403 19.3703 9.81716 18.4304 9.91811 17.449L10.004 16.6134C10.1978 14.73 11.8357 13.3302 13.7263 13.4324L15.75 13.5417L17.7737 13.4324C19.6643 13.3302 21.3022 14.73 21.496 16.6134Z" fill="#363538"/>
</svg>
