<svg width="24" height="24" viewBox="0 0 24 24" fill="none" xmlns="http://www.w3.org/2000/svg">
<path d="M21.7307 13.3057L21.5815 11.8129C21.2563 8.56181 18.4295 6.14276 15.1672 6.324L12.0002 6.49995L8.83315 6.324C5.57084 6.14276 2.74398 8.56181 2.41886 11.8129L2.26959 13.3057C2.10737 14.9279 2.96382 16.4818 4.42203 17.2109C5.42583 17.7128 6.59636 17.7615 7.63838 17.3447L10.0717 16.3713C10.685 16.126 11.3396 15.9999 12.0002 15.9999C12.6608 15.9999 13.3153 16.126 13.9286 16.3713L16.3619 17.3447C17.404 17.7615 18.5745 17.7128 19.5783 17.2109C21.0365 16.4818 21.893 14.9279 21.7307 13.3057Z" fill="#363538"/>
</svg>
