<svg width="24" height="24" viewBox="0 0 24 24" fill="none" xmlns="http://www.w3.org/2000/svg">
<path d="M19.75 4.56066V6.75C19.75 7.16421 19.4142 7.5 19 7.5C18.5858 7.5 18.25 7.16421 18.25 6.75V4.56066L18.0303 4.78033C17.7374 5.07322 17.2626 5.07322 16.9697 4.78033C16.6768 4.48744 16.6768 4.01256 16.9697 3.71967L18.4697 2.21967C18.6103 2.07902 18.8011 2 19 2C19.1989 2 19.3897 2.07902 19.5303 2.21967L21.0303 3.71967C21.3232 4.01256 21.3232 4.48744 21.0303 4.78033C20.7374 5.07322 20.2626 5.07322 19.9697 4.78033L19.75 4.56066Z" fill="#363538"/>
<path d="M22 8H19.8294C20.2336 7.73127 20.5 7.27174 20.5 6.75V5.75C20.7363 5.75 20.9727 5.69449 21.1878 5.58347C21.6975 6.25481 22 7.09208 22 8Z" fill="#363538"/>
<path fill-rule="evenodd" clip-rule="evenodd" d="M17.5 6.75C17.5 7.27174 17.7664 7.73127 18.1706 8H18C15.7909 8 14 9.79086 14 12C14 14.2091 15.7909 16 18 16L22 16C22 18.2091 20.2091 20 18 20H6C3.79086 20 2 18.2091 2 16V8C2 5.79086 3.79086 4 6 4H16.0209C15.9431 4.46227 16.0826 4.95395 16.4393 5.31066C16.7322 5.60355 17.1161 5.75 17.5 5.75V6.75ZM7.1233 7.2602C6.71472 7.19211 6.3283 7.46812 6.2602 7.8767C6.19211 8.28528 6.46812 8.6717 6.8767 8.7398L9.2191 9.1302C9.73614 9.21637 10.2639 9.21637 10.7809 9.1302L13.1233 8.7398C13.5319 8.6717 13.8079 8.28528 13.7398 7.8767C13.6717 7.46812 13.2853 7.19211 12.8767 7.2602L10.5343 7.65061C10.1805 7.70957 9.81946 7.70957 9.4657 7.65061L7.1233 7.2602Z" fill="#363538"/>
<path fill-rule="evenodd" clip-rule="evenodd" d="M22 14.5H18C16.6193 14.5 15.5 13.3807 15.5 12C15.5 10.6193 16.6193 9.5 18 9.5H22V14.5ZM17.25 12C17.25 11.5858 17.5858 11.25 18 11.25H19C19.4142 11.25 19.75 11.5858 19.75 12C19.75 12.4142 19.4142 12.75 19 12.75H18C17.5858 12.75 17.25 12.4142 17.25 12Z" fill="#363538"/>
</svg>
