<svg width="24" height="24" viewBox="0 0 24 24" fill="none" xmlns="http://www.w3.org/2000/svg">
<path d="M9.1377 13.2998C10.1254 13.2002 11.0701 13.3326 11.6279 13.6514L11.9023 13.8008C13.7607 14.7638 15.6182 14.7391 16.9727 14.1807C16.2717 16.2555 14.3114 17.75 12 17.75C9.64647 17.75 7.65494 16.2013 6.98828 14.0674C7.00233 14.0553 7.01694 14.0436 7.03027 14.0303C7.17338 13.8872 7.43649 13.7252 7.8252 13.585C8.20444 13.4481 8.65857 13.3481 9.1377 13.2998Z" fill="#363538"/>
<path d="M12 7.25C14.8124 7.25 17.1078 9.46142 17.2432 12.2402C16.5689 12.943 14.7388 13.5837 12.5967 12.4717L12.3721 12.3486C11.43 11.8104 10.1246 11.6929 8.9873 11.8076C8.40405 11.8664 7.82675 11.9893 7.31543 12.1738C7.1234 12.2431 6.93317 12.323 6.75195 12.416C6.79683 9.55526 9.12856 7.25 12 7.25Z" fill="#363538"/>
<path fill-rule="evenodd" clip-rule="evenodd" d="M16 2.75C18.8995 2.75 21.25 5.10051 21.25 8V16C21.25 18.8995 18.8995 21.25 16 21.25H8C5.10051 21.25 2.75 18.8995 2.75 16V8C2.75 5.10051 5.10051 2.75 8 2.75H16ZM12 5.75C8.27208 5.75 5.25 8.77208 5.25 12.5C5.25 16.2279 8.27208 19.25 12 19.25C15.7279 19.25 18.75 16.2279 18.75 12.5C18.75 8.77208 15.7279 5.75 12 5.75ZM17 4.75C16.5858 4.75 16.25 5.08579 16.25 5.5C16.25 5.91421 16.5858 6.25 17 6.25H17.0996L17.1768 6.24609C17.5549 6.20765 17.8496 5.8883 17.8496 5.5C17.8496 5.1117 17.5549 4.79235 17.1768 4.75391L17.0996 4.75H17Z" fill="#363538"/>
</svg>
