<svg width="24" height="24" viewBox="0 0 24 24" fill="none" xmlns="http://www.w3.org/2000/svg">
<path fill-rule="evenodd" clip-rule="evenodd" d="M3.71172 3.76303C3.58073 3.37008 3.15599 3.15771 2.76303 3.28869C2.37008 3.41968 2.15771 3.84442 2.28869 4.23737L2.37699 4.50229C3.02354 6.44191 4.8387 7.7502 6.88324 7.7502H11.2502V9.0002C11.2502 9.00939 11.2504 9.01854 11.2507 9.02765C6.07781 9.41084 2 13.7292 2 19C2 19.032 2.00015 19.064 2.00045 19.096C2.00528 19.61 2.44098 20 2.95501 20H21.045C21.559 20 21.9947 19.61 21.9995 19.096C21.9998 19.064 22 19.032 22 19C22 13.7293 17.9224 9.41106 12.7497 9.02768C12.75 9.01856 12.7502 9.0094 12.7502 9.0002V7.7502H17.1172C19.1617 7.7502 20.9769 6.44191 21.6234 4.50229L21.7117 4.23738C21.8427 3.84442 21.6303 3.41968 21.2374 3.28869C20.8444 3.1577 20.4197 3.37007 20.2887 3.76303L20.2004 4.02794C19.758 5.35506 18.5161 6.2502 17.1172 6.2502H6.88324C5.48434 6.2502 4.24239 5.35506 3.80002 4.02794L3.71172 3.76303ZM15.5303 14.5303C15.8232 14.2374 15.8232 13.7626 15.5303 13.4697C15.2374 13.1768 14.7626 13.1768 14.4697 13.4697L11.9374 16.0019C11.4143 16.0342 11 16.4687 11 17C11 17.5523 11.4477 18 12 18C12.5313 18 12.9658 17.5857 12.9981 17.0626L15.5303 14.5303Z" fill="#363538"/>
</svg>
