<svg width="24" height="24" viewBox="0 0 24 24" fill="none" xmlns="http://www.w3.org/2000/svg">
<path fill-rule="evenodd" clip-rule="evenodd" d="M4.5 2.25C6.01878 2.25 7.25 3.48122 7.25 5V6.25H17.5C19.0188 6.25 20.25 7.48122 20.25 9V16.1143L20.2432 16.1123C21.261 16.4288 22 17.3781 22 18.5C22 19.8807 20.8807 21 19.5 21C18.1193 21 17 19.8807 17 18.5C17 17.8181 17.2741 17.201 17.7168 16.75H12C11.9809 16.75 11.9621 16.7485 11.9434 16.7471C11.5827 19.154 9.50747 21 7 21C4.23858 21 2 18.7614 2 16C2 13.6702 3.59343 11.7123 5.75 11.1572V5C5.75 4.30964 5.19036 3.75 4.5 3.75H4C3.58579 3.75 3.25 3.41421 3.25 3C3.25 2.58579 3.58579 2.25 4 2.25H4.5ZM19.5 17.5C18.9477 17.5 18.5 17.9477 18.5 18.5C18.5 19.0523 18.9477 19.5 19.5 19.5C20.0523 19.5 20.5 19.0523 20.5 18.5C20.5 17.9477 20.0523 17.5 19.5 17.5ZM7 15C6.44772 15 6 15.4477 6 16C6 16.5523 6.44772 17 7 17C7.55228 17 8 16.5523 8 16C8 15.4477 7.55228 15 7 15ZM9.63379 11.75C10.8525 12.5069 11.7213 13.7727 11.9434 15.251C11.962 15.2496 11.981 15.25 12 15.25H18.75V11.75H9.63379ZM7.25 10.25H18.75V9C18.75 8.30964 18.1904 7.75 17.5 7.75H7.25V10.25Z" fill="#363538"/>
</svg>
