<svg width="24" height="24" viewBox="0 0 24 24" fill="none" xmlns="http://www.w3.org/2000/svg">
<path d="M3.70748 11.2488C3.57017 11.6393 3.14244 11.8447 2.75177 11.7077C2.3609 11.5707 2.15514 11.1427 2.29222 10.7518L2.29281 10.7501L2.29361 10.7479L2.2958 10.7417L2.30263 10.723C2.30828 10.7077 2.31614 10.6868 2.32629 10.6607C2.3466 10.6085 2.37611 10.5354 2.41553 10.4443C2.49431 10.2623 2.61297 10.0078 2.77715 9.705C3.10482 9.1007 3.61794 8.29633 4.3635 7.49062C5.86482 5.86816 8.30425 4.25 12 4.25C15.6957 4.25 18.1351 5.86816 19.6364 7.49062C20.382 8.29633 20.8951 9.1007 21.2228 9.705C21.3869 10.0078 21.5056 10.2623 21.5844 10.4443C21.6238 10.5354 21.6533 10.6085 21.6736 10.6607C21.6838 10.6868 21.6916 10.7077 21.6973 10.723L21.7041 10.7417L21.7063 10.7479L21.7071 10.7501L21.7077 10.7518C21.8448 11.1427 21.639 11.5707 21.2481 11.7077C20.8578 11.8446 20.4305 11.6396 20.2928 11.2498L20.2922 11.2482L20.2901 11.2426C20.2874 11.2352 20.2826 11.2224 20.2757 11.2045C20.2618 11.1688 20.2394 11.113 20.2078 11.0401C20.1446 10.894 20.045 10.6797 19.9041 10.42C19.6218 9.8993 19.1779 9.20367 18.5355 8.50938C17.2608 7.13184 15.2002 5.75 12 5.75C8.79972 5.75 6.73915 7.13184 5.46446 8.50938C4.82201 9.20367 4.37812 9.8993 4.09578 10.42C3.95496 10.6797 3.85537 10.894 3.79215 11.0401C3.76056 11.113 3.73814 11.1688 3.72425 11.2045C3.71731 11.2224 3.71252 11.2352 3.70978 11.2426L3.70748 11.2488Z" fill="#363538"/>
<path d="M5.75177 13.7077C6.14182 13.8445 6.56882 13.6399 6.70683 13.2507L6.7077 13.2483L6.71582 13.227C6.724 13.2059 6.73777 13.1716 6.75752 13.126C6.79708 13.0346 6.86029 12.8985 6.95028 12.7325C7.13095 12.3993 7.41534 11.9537 7.82645 11.5094C7.9071 11.4222 7.99267 11.335 8.08339 11.2487C8.9061 10.4654 10.1527 9.75 12 9.75C13.8469 9.75 15.0935 10.4652 15.9162 11.2484C16.0071 11.3348 16.0927 11.4221 16.1735 11.5094C16.5846 11.9537 16.869 12.3993 17.0496 12.7325C17.1396 12.8985 17.2028 13.0346 17.2424 13.126C17.2622 13.1716 17.2759 13.2059 17.2841 13.227L17.2922 13.2483L17.2931 13.2507C17.4312 13.64 17.8581 13.8445 18.2481 13.7077C18.639 13.5707 18.8448 13.1427 18.7077 12.7518L18.6821 12.6832C18.7071 12.7502 18.7077 12.7518 18.7077 12.7518L18.7071 12.7502L18.7064 12.7482L18.7046 12.7432L18.6994 12.7288C18.6951 12.7172 18.6894 12.702 18.6821 12.6832C18.6675 12.6456 18.6466 12.594 18.619 12.5302C18.5639 12.4029 18.4816 12.2265 18.3683 12.0175C18.2469 11.7937 18.0888 11.5303 17.8888 11.2483C17.7163 11.005 17.5126 10.748 17.2744 10.4906C16.2358 9.36816 14.5463 8.25 12 8.25C9.45357 8.25 7.76414 9.36816 6.72549 10.4906C6.4872 10.7481 6.2834 11.0054 6.11081 11.2487C5.91095 11.5306 5.75293 11.7938 5.63165 12.0175C5.5183 12.2265 5.43602 12.4029 5.3809 12.5302C5.35332 12.594 5.33246 12.6456 5.31785 12.6832C5.31055 12.702 5.3048 12.7172 5.30055 12.7288L5.29528 12.7432L5.29348 12.7482L5.29278 12.7502L5.29222 12.7518C5.15514 13.1427 5.3609 13.5707 5.75177 13.7077Z" fill="#363538"/>
<path d="M9.70738 15.2494L9.70587 15.2534C9.56684 15.6409 9.14091 15.8442 8.75177 15.7077C8.3609 15.5707 8.15515 15.1427 8.29222 14.7518L8.29275 14.7503L8.29335 14.7486L8.29477 14.7446L8.29847 14.7345L8.30942 14.7056C8.31833 14.6827 8.33053 14.6526 8.34628 14.6162C8.37772 14.5435 8.42364 14.4453 8.48615 14.33C8.61049 14.1007 8.80459 13.7963 9.08748 13.4906C9.66347 12.8682 10.6029 12.25 12 12.25C13.397 12.25 14.3365 12.8682 14.9124 13.4906C15.1953 13.7963 15.3894 14.1007 15.5138 14.33C15.5763 14.4453 15.6222 14.5435 15.6536 14.6162C15.6694 14.6526 15.6816 14.6827 15.6905 14.7056L15.7015 14.7345L15.7052 14.7446L15.7066 14.7486L15.7072 14.7503L15.7077 14.7518C15.8448 15.1427 15.639 15.5707 15.2481 15.7077C14.859 15.8442 14.4331 15.6409 14.2941 15.2534L14.2925 15.2494L14.2884 15.2391C14.2856 15.2322 14.2819 15.2231 14.277 15.2119C14.2611 15.1752 14.2343 15.1172 14.1951 15.045C14.1161 14.8993 13.9913 14.7037 13.8115 14.5094C13.4621 14.1318 12.9015 13.75 12 13.75C11.0984 13.75 10.5378 14.1318 10.1884 14.5094C10.0087 14.7037 9.88378 14.8993 9.80478 15.045C9.76562 15.1172 9.73878 15.1752 9.72289 15.2119C9.71498 15.2302 9.70987 15.243 9.70738 15.2494Z" fill="#363538"/>
<path d="M12 17C11.4477 17 11 17.4477 11 18C11 18.5523 11.4477 19 12 19C12.5522 19 13 18.5523 13 18C13 17.4477 12.5522 17 12 17Z" fill="#363538"/>
</svg>
