<svg width="24" height="24" viewBox="0 0 24 24" fill="none" xmlns="http://www.w3.org/2000/svg">
<path d="M13.6017 4.3224C13.1121 4.39583 12.75 4.81634 12.75 5.31134V10.2502C12.75 10.8024 13.1977 11.2502 13.75 11.2502H19.75C20.3023 11.2502 20.75 10.8024 20.75 10.2502V4.41134C20.75 3.79997 20.2063 3.33171 19.6017 3.4224L13.6017 4.3224Z" fill="#363538"/>
<path d="M4.06571 6.0972C3.59274 6.18589 3.25 6.59886 3.25 7.08008V10.2502C3.25 10.8024 3.69772 11.2502 4.25 11.2502H10.25C10.8023 11.2502 11.25 10.8024 11.25 10.2502V5.95508C11.25 5.32894 10.6811 4.85681 10.0657 4.9722L4.06571 6.0972Z" fill="#363538"/>
<path d="M3.25 16.9202C3.25 17.4014 3.59274 17.8144 4.06571 17.9031L10.0657 19.0281C10.6811 19.1435 11.25 18.6714 11.25 18.0452V13.7502C11.25 13.1979 10.8023 12.7502 10.25 12.7502H4.25C3.69772 12.7502 3.25 13.1979 3.25 13.7502V16.9202Z" fill="#363538"/>
<path d="M13.6017 19.6779C13.1121 19.6045 12.75 19.184 12.75 18.689V13.7502C12.75 13.1979 13.1977 12.7502 13.75 12.7502H19.75C20.3023 12.7502 20.75 13.1979 20.75 13.7502V19.589C20.75 20.2003 20.2063 20.6686 19.6017 20.5779L13.6017 19.6779Z" fill="#363538"/>
</svg>
