<svg width="24" height="24" viewBox="0 0 24 24" fill="none" xmlns="http://www.w3.org/2000/svg">
<path d="M15 3.5C14.5858 3.5 14.25 3.83579 14.25 4.25C14.25 4.66421 14.5858 5 15 5H17.75C18.8546 5 19.75 5.89543 19.75 7C19.75 8.10457 18.8546 9 17.75 9H7C6.58579 9 6.25 9.33579 6.25 9.75C6.25 10.1642 6.58579 10.5 7 10.5H17.75C19.683 10.5 21.25 8.933 21.25 7C21.25 5.067 19.683 3.5 17.75 3.5H15Z" fill="#363538"/>
<path d="M2.75 12.75C2.75 12.3358 3.08579 12 3.5 12H15.25C16.6307 12 17.75 13.1193 17.75 14.5C17.75 15.8807 16.6307 17 15.25 17H13.7857C13.3715 17 13.0357 16.6642 13.0357 16.25C13.0357 15.8358 13.3715 15.5 13.7857 15.5H15.25C15.8023 15.5 16.25 15.0523 16.25 14.5C16.25 13.9477 15.8023 13.5 15.25 13.5H3.5C3.08579 13.5 2.75 13.1642 2.75 12.75Z" fill="#363538"/>
<path d="M4.25 16.25C4.25 15.8358 4.58579 15.5 5 15.5H9.25C10.6307 15.5 11.75 16.6193 11.75 18V18.3214C11.75 19.5246 10.7746 20.5 9.57143 20.5C9.15722 20.5 8.82143 20.1642 8.82143 19.75C8.82143 19.3358 9.15722 19 9.57143 19C9.94619 19 10.25 18.6962 10.25 18.3214V18C10.25 17.4477 9.80229 17 9.25 17H5C4.58579 17 4.25 16.6642 4.25 16.25Z" fill="#363538"/>
</svg>
