<svg width="24" height="24" viewBox="0 0 24 24" fill="none" xmlns="http://www.w3.org/2000/svg">
<path fill-rule="evenodd" clip-rule="evenodd" d="M9 5V6.80269C7.2066 7.84012 6 9.77915 6 12C6 14.2208 7.2066 16.1599 9 17.1973V19C9 20.1046 9.89543 21 11 21H13C14.1046 21 15 20.1046 15 19V17.1973C16.7934 16.1599 18 14.2208 18 12C18 9.77915 16.7934 7.84012 15 6.80269V5C15 3.89543 14.1046 3 13 3H11C9.89543 3 9 3.89543 9 5ZM12.25 10C12.25 9.58579 11.9142 9.25 11.5 9.25C11.0858 9.25 10.75 9.58579 10.75 10V13C10.75 13.4142 11.0858 13.75 11.5 13.75H14.5C14.9142 13.75 15.25 13.4142 15.25 13C15.25 12.5858 14.9142 12.25 14.5 12.25H12.25V10Z" fill="#363538"/>
</svg>
