<svg width="24" height="24" viewBox="0 0 24 24" fill="none" xmlns="http://www.w3.org/2000/svg">
<path d="M9.73408 2.51109C9.48192 1.82964 8.51808 1.82964 8.26592 2.51109L7.91686 3.45441C7.83758 3.66866 7.66866 3.83758 7.45441 3.91686L6.51109 4.26592C5.82964 4.51808 5.82964 5.48192 6.51109 5.73408L7.45441 6.08314C7.66866 6.16242 7.83758 6.33134 7.91686 6.54559L8.26592 7.48891C8.51808 8.17036 9.48192 8.17037 9.73408 7.48891L10.0831 6.54559C10.1624 6.33134 10.3313 6.16242 10.5456 6.08314L11.4889 5.73408C12.1704 5.48192 12.1704 4.51808 11.4889 4.26592L10.5456 3.91686C10.3313 3.83758 10.1624 3.66866 10.0831 3.45441L9.73408 2.51109Z" fill="#363538"/>
<path d="M14.23 4.76552L4.02287 14.9726C3.83534 15.1602 3.72998 15.4145 3.72998 15.6797V19.2655C3.72998 19.8178 4.1777 20.2655 4.72998 20.2655H8.31577C8.58098 20.2655 8.83534 20.1602 9.02287 19.9726L19.23 9.76552C20.6107 8.3848 20.6107 6.14623 19.23 4.76551C17.8493 3.3848 15.6107 3.3848 14.23 4.76552Z" fill="#363538"/>
<path d="M5.86704 9.25555C5.74096 8.91482 5.25904 8.91482 5.13296 9.25555L4.95843 9.72721C4.91879 9.83433 4.83433 9.91879 4.72721 9.95843L4.25555 10.133C3.91482 10.259 3.91482 10.741 4.25555 10.867L4.72721 11.0416C4.83433 11.0812 4.91879 11.1657 4.95843 11.2728L5.13296 11.7445C5.25904 12.0852 5.74096 12.0852 5.86704 11.7445L6.04157 11.2728C6.08121 11.1657 6.16567 11.0812 6.2728 11.0416L6.74445 10.867C7.08518 10.741 7.08518 10.259 6.74445 10.133L6.2728 9.95843C6.16567 9.91879 6.08121 9.83433 6.04157 9.72721L5.86704 9.25555Z" fill="#363538"/>
<path d="M16.8883 15.4259C17.0984 14.858 17.9016 14.858 18.1117 15.4259L18.4026 16.212C18.4687 16.3905 18.6095 16.5313 18.788 16.5974L19.5741 16.8883C20.142 17.0984 20.142 17.9016 19.5741 18.1117L18.788 18.4026C18.6095 18.4687 18.4687 18.6095 18.4026 18.788L18.1117 19.5741C17.9016 20.142 17.0984 20.142 16.8883 19.5741L16.5974 18.788C16.5313 18.6095 16.3905 18.4687 16.212 18.4026L15.4259 18.1117C14.858 17.9016 14.858 17.0984 15.4259 16.8883L16.212 16.5974C16.3905 16.5313 16.5313 16.3905 16.5974 16.212L16.8883 15.4259Z" fill="#363538"/>
</svg>
