<svg width="24" height="24" viewBox="0 0 24 24" fill="none" xmlns="http://www.w3.org/2000/svg">
<path fill-rule="evenodd" clip-rule="evenodd" d="M6.45925 6C4.02505 6 2.1552 8.15595 2.49945 10.5657L3.51965 17.7071C3.87155 20.1704 5.98115 22 8.4694 22H15.531C18.0193 22 20.1289 20.1704 20.4808 17.7071L21.501 10.5657C21.8452 8.15595 19.9754 6 17.5412 6H6.45925Z" fill="black"/>
<path fill-rule="evenodd" clip-rule="evenodd" d="M9.44716 2.1056C9.94114 2.35259 10.1414 2.95326 9.89438 3.44724L8.10552 7.02495C7.85853 7.51893 7.25786 7.71915 6.76388 7.47216C6.2699 7.22517 6.06968 6.6245 6.31667 6.13052L8.10552 2.55281C8.35251 2.05883 8.95318 1.85861 9.44716 2.1056Z" fill="black"/>
<path fill-rule="evenodd" clip-rule="evenodd" d="M14.5528 2.10558C15.0467 1.85859 15.6474 2.05882 15.8944 2.5528L17.6832 6.1305C17.9302 6.62448 17.73 7.22516 17.236 7.47214C16.7421 7.71913 16.1414 7.51891 15.8944 7.02493L14.1055 3.44722C13.8585 2.95324 14.0588 2.35257 14.5528 2.10558Z" fill="black"/>
</svg>
