<svg width="24" height="24" viewBox="0 0 24 24" fill="none" xmlns="http://www.w3.org/2000/svg">
<path fill-rule="evenodd" clip-rule="evenodd" d="M12.5742 21.8187C12.2295 22.0604 11.7699 22.0601 11.4253 21.8184L11.4228 21.8166L11.4172 21.8127L11.3986 21.7994C11.3829 21.7882 11.3607 21.7722 11.3325 21.7517C11.2761 21.7106 11.1956 21.6511 11.0943 21.5741C10.8917 21.4203 10.6057 21.1962 10.2641 20.9101C9.58226 20.3389 8.67109 19.5139 7.75691 18.4988C5.96367 16.5076 3.99998 13.6105 3.99998 10.3636C3.99998 8.16134 4.83117 6.0397 6.32546 4.46777C7.82139 2.89413 9.86144 2 12 2C14.1385 2 16.1786 2.89413 17.6745 4.46777C19.1688 6.0397 20 8.16134 20 10.3636C20 13.6105 18.0363 16.5076 16.2431 18.4988C15.3289 19.5139 14.4177 20.3389 13.7359 20.9101C13.3942 21.1962 13.1082 21.4203 12.9057 21.5741C12.8044 21.6511 12.7238 21.7106 12.6675 21.7517C12.6393 21.7722 12.6171 21.7882 12.6014 21.7994L12.5828 21.8127L12.5772 21.8166L12.5754 21.8179L12.5742 21.8187ZM8.99998 10C8.99998 8.34315 10.3431 7 12 7C13.6568 7 15 8.34315 15 10C15 11.6569 13.6568 13 12 13C10.3431 13 8.99998 11.6569 8.99998 10Z" fill="black"/>
</svg>
