<svg width="24" height="24" viewBox="0 0 24 24" fill="none" xmlns="http://www.w3.org/2000/svg">
<path fill-rule="evenodd" clip-rule="evenodd" d="M11.9999 2.75C17.1085 2.75007 21.2499 6.89141 21.2499 12C21.2499 14.7968 20.0085 17.3038 18.0468 19C18.8646 19.1667 20.65 19.7001 21.2499 20.5C21.9996 21.5 19.9998 22.4999 18.4999 22C17.0001 21.5 16.4997 21.2501 14.4999 22C12.5003 22.7497 12.4995 21.2501 9.99993 22C7.50043 22.7498 7.99973 21.2501 6.49993 21.25C5.99971 21.2504 4.49996 22.4998 3.49993 22C1.26421 20.8822 3.66661 18.8646 4.99993 18.0469C3.59805 16.4254 2.74993 14.3117 2.74993 12C2.74993 6.89145 6.89141 2.75013 11.9999 2.75ZM16.9091 12.4404C16.5341 12.34 16.1487 12.5423 16.0136 12.8975L15.9902 12.9707L15.9892 12.9746C15.9866 12.9832 15.9807 12.9987 15.9736 13.0205C15.9591 13.0646 15.9353 13.1344 15.8993 13.2236C15.827 13.4031 15.7084 13.6613 15.5292 13.9551C15.1705 14.543 14.5752 15.2663 13.6259 15.8145C12.6764 16.3627 11.752 16.5164 11.0634 16.5332C10.7194 16.5415 10.4366 16.5154 10.2451 16.4883C10.1498 16.4748 10.0776 16.4607 10.0322 16.4512C10.0097 16.4465 9.99309 16.4435 9.98431 16.4414L9.9804 16.4404C9.58048 16.3334 9.16977 16.5709 9.06243 16.9707C8.95523 17.3708 9.19261 17.7824 9.59271 17.8896L9.60833 17.8936C9.61542 17.8954 9.62488 17.8978 9.63568 17.9004C9.65797 17.9057 9.68828 17.9131 9.72552 17.9209C9.80049 17.9365 9.90587 17.9552 10.0361 17.9736C10.2962 18.0104 10.6614 18.0438 11.0995 18.0332C11.9767 18.0119 13.1607 17.8149 14.3759 17.1133C15.5908 16.4117 16.3525 15.4852 16.8095 14.7363C17.0379 14.362 17.1917 14.0288 17.29 13.7852C17.3391 13.6633 17.3754 13.563 17.3993 13.4902C17.4113 13.4541 17.4202 13.4243 17.4267 13.4023C17.4299 13.3916 17.4325 13.3821 17.4345 13.375L17.4384 13.3604C17.4384 13.36 17.4327 13.3574 16.7148 13.165L17.4394 13.3594C17.5465 12.9594 17.309 12.5478 16.9091 12.4404ZM9.01849 11.835C8.60433 11.1176 7.68706 10.8722 6.96966 11.2861C6.25227 11.7003 6.00575 12.6175 6.41986 13.335C6.83409 14.0524 7.75224 14.298 8.46966 13.8838C9.18668 13.4695 9.43248 12.5522 9.01849 11.835ZM15.08 8.33496C14.6658 7.61769 13.7486 7.37203 13.0312 7.78613C12.314 8.20043 12.0682 9.11762 12.4824 9.83496C12.8966 10.5523 13.8138 10.7979 14.5312 10.3838C15.2485 9.96956 15.4942 9.05236 15.08 8.33496Z" fill="#363538"/>
</svg>
