<svg width="24" height="24" viewBox="0 0 24 24" fill="none" xmlns="http://www.w3.org/2000/svg">
<path d="M5.8723 2.42257C7.54031 1.97712 9.39375 2.40899 10.7024 3.71749C11.9873 5.00242 12.4269 6.81253 12.0207 8.45675C11.9254 8.84256 12.0044 9.26163 12.2854 9.54268L19.8948 17.1521C20.6758 17.9331 20.6758 19.2001 19.8948 19.9812C19.1137 20.7618 17.8476 20.762 17.0666 19.9812L9.45726 12.3708C9.17626 12.0899 8.75709 12.0109 8.37133 12.1062C6.72724 12.5123 4.91698 12.0735 3.63207 10.7888C2.32342 9.48013 1.89168 7.62581 2.33715 5.95772L4.56762 8.18819C4.85676 8.47728 5.29239 8.56117 5.6682 8.40011L7.15355 7.76436C7.38939 7.66324 7.57681 7.47479 7.67797 7.23897L8.31469 5.75362C8.47565 5.37784 8.39182 4.94213 8.10277 4.65303L5.8723 2.42257Z" fill="#363538"/>
</svg>
