<svg width="24" height="24" viewBox="0 0 24 24" fill="none" xmlns="http://www.w3.org/2000/svg">
<path fill-rule="evenodd" clip-rule="evenodd" d="M4 6C4 3.79086 5.79086 2 8 2H16C18.2091 2 20 3.79086 20 6V18C20 20.2091 18.2091 22 16 22H8C5.79086 22 4 20.2091 4 18V6ZM8 4C6.89543 4 6 4.89543 6 6V18C6 19.1046 6.89543 20 8 20H16C17.1046 20 18 19.1046 18 18V6C18 4.89543 17.1046 4 16 4H8Z" fill="black"/>
<path fill-rule="evenodd" clip-rule="evenodd" d="M8 2H9.64251C10.5523 2 11.4034 2.38623 12 3.0377C12.5966 2.38623 13.4477 2 14.3575 2H16V4H14.3575C13.9043 4 13.49 4.25604 13.2873 4.66139C12.7569 5.72221 11.2431 5.72221 10.7127 4.66139C10.51 4.25604 10.0957 4 9.64251 4H8V2Z" fill="black"/>
<path fill-rule="evenodd" clip-rule="evenodd" d="M15.6839 10.2705C16.0868 10.6482 16.1072 11.281 15.7295 11.6839L11.9795 15.6839C11.6213 16.0661 11.0289 16.107 10.6215 15.7778L8.37145 13.9596C7.94189 13.6125 7.87506 12.9829 8.22218 12.5533C8.5693 12.1237 9.19893 12.0569 9.62849 12.404L11.1559 13.6383L14.2704 10.3161C14.6482 9.91315 15.281 9.89274 15.6839 10.2705Z" fill="black"/>
</svg>
