<svg width="24" height="24" viewBox="0 0 24 24" fill="none" xmlns="http://www.w3.org/2000/svg">
<path fill-rule="evenodd" clip-rule="evenodd" d="M2.49921 10.5657C2.15496 8.15595 4.02481 6 6.459 6H17.5409C19.9751 6 21.845 8.15595 21.5007 10.5657L20.4805 17.7071C20.1286 20.1704 18.019 22 15.5308 22H8.46916C5.9809 22 3.8713 20.1704 3.51941 17.7071L2.49921 10.5657ZM6.459 8C5.2419 8 4.30698 9.07798 4.4791 10.2828L5.49931 17.4243C5.71044 18.9022 6.9762 20 8.46916 20H15.5308C17.0237 20 18.2895 18.9022 18.5006 17.4243L19.5208 10.2828C19.693 9.07798 18.758 8 17.5409 8H6.459Z" fill="black"/>
<path fill-rule="evenodd" clip-rule="evenodd" d="M9.44722 2.10557C9.9412 2.35256 10.1414 2.95323 9.89444 3.44721L8.10558 7.02492C7.85859 7.5189 7.25792 7.71912 6.76394 7.47213C6.26996 7.22514 6.06974 6.62447 6.31673 6.13049L8.10558 2.55278C8.35257 2.0588 8.95324 1.85858 9.44722 2.10557Z" fill="black"/>
<path fill-rule="evenodd" clip-rule="evenodd" d="M14.5528 2.10558C15.0468 1.85859 15.6475 2.05882 15.8945 2.5528L17.6833 6.1305C17.9303 6.62448 17.7301 7.22516 17.2361 7.47214C16.7421 7.71913 16.1414 7.51891 15.8945 7.02493L14.1056 3.44722C13.8586 2.95324 14.0588 2.35257 14.5528 2.10558Z" fill="black"/>
</svg>
