<svg width="24" height="24" viewBox="0 0 24 24" fill="none" xmlns="http://www.w3.org/2000/svg">
<path fill-rule="evenodd" clip-rule="evenodd" d="M7.00013 4.76363C7.84713 3.06962 9.57835 2 11.4721 2H12.5279C14.4217 2 16.1531 3.07003 17 4.76396L17.8944 6.55279C18.1414 7.04677 17.9412 7.64744 17.4472 7.89443C16.9532 8.14142 16.3525 7.94119 16.1055 7.44721L15.2111 5.65838C14.703 4.64202 13.6642 4 12.5279 4H11.4721C10.3357 4 9.29711 4.64179 8.78898 5.65805L7.8944 7.44721C7.64741 7.94119 7.04674 8.14142 6.55276 7.89443C6.05878 7.64744 5.85856 7.04676 6.10555 6.55279L7.00013 4.76363Z" fill="black"/>
<path fill-rule="evenodd" clip-rule="evenodd" d="M2.49927 10.5657C2.15502 8.15595 4.02487 6 6.45906 6H17.541C19.9752 6 21.8451 8.15595 21.5008 10.5657L21.2103 12.5992C21.1322 13.1459 20.6257 13.5258 20.0789 13.4477C19.5322 13.3696 19.1523 12.8631 19.2304 12.3163L19.5209 10.2828C19.693 9.07798 18.7581 8 17.541 8H6.45906C5.24196 8 4.30704 9.07798 4.47917 10.2828L5.49937 17.4243C5.7105 18.9022 6.97627 20 8.46922 20H10C10.5523 20 11 20.4477 11 21C11 21.5523 10.5523 22 10 22H8.46922C5.98096 22 3.87136 20.1704 3.51947 17.7071L2.49927 10.5657Z" fill="black"/>
<path fill-rule="evenodd" clip-rule="evenodd" d="M16 16C14.8954 16 14 16.8954 14 18C14 19.1046 14.8954 20 16 20C17.1046 20 18 19.1046 18 18C18 16.8954 17.1046 16 16 16ZM12 18C12 15.7909 13.7909 14 16 14C18.2091 14 20 15.7909 20 18C20 20.2091 18.2091 22 16 22C13.7909 22 12 20.2091 12 18Z" fill="black"/>
</svg>
