<svg width="24" height="24" viewBox="0 0 24 24" fill="none" xmlns="http://www.w3.org/2000/svg">
<path fill-rule="evenodd" clip-rule="evenodd" d="M2.49921 10.5657C2.15496 8.15595 4.02481 6 6.459 6H17.5409C19.9751 6 21.845 8.15595 21.5007 10.5657L20.4805 17.7071C20.1286 20.1704 18.019 22 15.5308 22H8.46916C5.9809 22 3.8713 20.1704 3.51941 17.7071L2.49921 10.5657ZM6.459 8C5.2419 8 4.30698 9.07798 4.4791 10.2828L5.49931 17.4243C5.71044 18.9022 6.9762 20 8.46916 20H15.5308C17.0237 20 18.2895 18.9022 18.5006 17.4243L19.5208 10.2828C19.693 9.07798 18.758 8 17.5409 8H6.459Z" fill="black"/>
<path fill-rule="evenodd" clip-rule="evenodd" d="M7.00013 4.76363C7.84713 3.06962 9.57835 2 11.4721 2H12.5279C14.4217 2 16.1531 3.07003 17 4.76396L17.8944 6.55279C18.1414 7.04677 17.9412 7.64744 17.4472 7.89443C16.9532 8.14142 16.3525 7.94119 16.1055 7.44721L15.2111 5.65838C14.703 4.64202 13.6642 4 12.5279 4H11.4721C10.3357 4 9.29711 4.64179 8.78898 5.65805L7.8944 7.44721C7.64741 7.94119 7.04674 8.14142 6.55276 7.89443C6.05878 7.64744 5.85856 7.04676 6.10555 6.55279L7.00013 4.76363Z" fill="black"/>
<path fill-rule="evenodd" clip-rule="evenodd" d="M15.6839 11.2705C16.0868 11.6482 16.1072 12.281 15.7295 12.6839L11.9795 16.6839C11.6213 17.0661 11.0289 17.107 10.6215 16.7778L8.37145 14.9596C7.94189 14.6125 7.87506 13.9829 8.22218 13.5533C8.5693 13.1237 9.19893 13.0569 9.62849 13.404L11.1559 14.6383L14.2704 11.3161C14.6482 10.9131 15.281 10.8927 15.6839 11.2705Z" fill="black"/>
</svg>
