<svg width="24" height="24" viewBox="0 0 24 24" fill="none" xmlns="http://www.w3.org/2000/svg">
<path fill-rule="evenodd" clip-rule="evenodd" d="M7.65919 8.63233C6.34007 9.58138 5.26413 10.7442 4.58391 11.57C4.37161 11.8278 4.37161 12.1722 4.58391 12.43C5.26413 13.2558 6.34006 14.4186 7.65919 15.3677C8.98621 16.3224 10.4743 17 12.0001 17C13.5259 17 15.0139 16.3224 16.3409 15.3677C17.66 14.4186 18.736 13.2558 19.4162 12.43C19.6285 12.1722 19.6285 11.8278 19.4162 11.57C18.736 10.7442 17.66 9.58138 16.3409 8.63233C15.0139 7.6776 13.5259 7 12.0001 7C10.4743 7 8.98621 7.6776 7.65919 8.63233ZM6.49116 7.00884C7.9942 5.92747 9.89012 5 12.0001 5C14.11 5 16.0059 5.92747 17.5089 7.00885C19.0199 8.0959 20.2201 9.40025 20.96 10.2985C21.7806 11.2948 21.7806 12.7052 20.96 13.7015C20.2201 14.5998 19.0199 15.9041 17.5089 16.9912C16.0059 18.0725 14.11 19 12.0001 19C9.89012 19 7.9942 18.0725 6.49116 16.9912C4.98022 15.9041 3.78 14.5998 3.04014 13.7015C2.21953 12.7052 2.21953 11.2948 3.04014 10.2985C3.78 9.40024 4.98022 8.0959 6.49116 7.00884Z" fill="black"/>
<path fill-rule="evenodd" clip-rule="evenodd" d="M12 10C10.8954 10 10 10.8954 10 12C10 13.1046 10.8954 14 12 14C13.1046 14 14 13.1046 14 12C14 10.8954 13.1046 10 12 10ZM8 12C8 9.79086 9.79086 8 12 8C14.2091 8 16 9.79086 16 12C16 14.2091 14.2091 16 12 16C9.79086 16 8 14.2091 8 12Z" fill="black"/>
</svg>
