<svg width="24" height="24" viewBox="0 0 24 24" fill="none" xmlns="http://www.w3.org/2000/svg">
<path fill-rule="evenodd" clip-rule="evenodd" d="M12.0001 7C11.7169 7 11.4354 7.02323 11.1557 7.06728C10.6102 7.1532 10.0982 6.7806 10.0123 6.23504C9.92637 5.68948 10.299 5.17756 10.8445 5.09163C11.2215 5.03226 11.6072 5 12.0001 5C14.11 5 16.0059 5.92747 17.5089 7.00885C19.0199 8.0959 20.2201 9.40025 20.96 10.2985C21.7806 11.2948 21.7806 12.7052 20.96 13.7015C20.6287 14.1037 20.2084 14.5833 19.7123 15.0866C19.3247 15.4799 18.6915 15.4845 18.2982 15.0968C17.9048 14.7092 17.9002 14.076 18.2879 13.6827C18.7354 13.2286 19.116 12.7945 19.4162 12.43C19.6285 12.1722 19.6285 11.8278 19.4162 11.57C18.736 10.7442 17.66 9.58138 16.3409 8.63233C15.0139 7.6776 13.5259 7 12.0001 7ZM7.90758 8.45823C6.47668 9.43461 5.30778 10.6912 4.58391 11.57C4.37161 11.8278 4.37161 12.1722 4.58391 12.43C5.26413 13.2558 6.34006 14.4186 7.65919 15.3677C8.98621 16.3224 10.4743 17 12.0001 17C13.3171 17 14.6079 16.4956 15.7974 15.7366L16.8731 17.4227C15.4909 18.3046 13.8264 19 12.0001 19C9.89012 19 7.9942 18.0725 6.49116 16.9912C4.98022 15.9041 3.78 14.5998 3.04014 13.7015C2.21953 12.7052 2.21953 11.2948 3.04014 10.2985C3.82519 9.34539 5.13173 7.9311 6.7803 6.80619L7.90758 8.45823Z" fill="black"/>
<path fill-rule="evenodd" clip-rule="evenodd" d="M2.29289 2.29289C2.68342 1.90237 3.31658 1.90237 3.70711 2.29289L21.7071 20.2929C22.0976 20.6834 22.0976 21.3166 21.7071 21.7071C21.3166 22.0976 20.6834 22.0976 20.2929 21.7071L2.29289 3.70711C1.90237 3.31658 1.90237 2.68342 2.29289 2.29289Z" fill="black"/>
<path fill-rule="evenodd" clip-rule="evenodd" d="M8.84336 11.8105C9.37682 11.6676 9.92516 11.9842 10.0681 12.5176C10.159 12.8568 10.3375 13.166 10.5857 13.4142C10.834 13.6625 11.1432 13.841 11.4823 13.9319C12.0158 14.0748 12.3324 14.6231 12.1894 15.1566C12.0465 15.6901 11.4981 16.0067 10.9647 15.8637C10.2865 15.682 9.66802 15.3249 9.17153 14.8284C8.67503 14.3319 8.31798 13.7135 8.13625 13.0353C7.99331 12.5018 8.30989 11.9535 8.84336 11.8105Z" fill="black"/>
</svg>
