<svg width="24" height="24" viewBox="0 0 24 24" fill="none" xmlns="http://www.w3.org/2000/svg">
<path fill-rule="evenodd" clip-rule="evenodd" d="M4 6C4 3.79086 5.79086 2 8 2H16C18.2091 2 20 3.79086 20 6V18C20 20.2091 18.2091 22 16 22H8C5.79086 22 4 20.2091 4 18V6ZM8 4C6.89543 4 6 4.89543 6 6V18C6 19.1046 6.89543 20 8 20H16C17.1046 20 18 19.1046 18 18V6C18 4.89543 17.1046 4 16 4H8Z" fill="black"/>
<path fill-rule="evenodd" clip-rule="evenodd" d="M8 2H8.11111C9.35367 2 10.3977 2.84985 10.6938 4H13.3062C13.6023 2.84985 14.6463 2 15.8889 2H16V4H15.8889C15.5207 4 15.2222 4.29848 15.2222 4.66667C15.2222 5.40305 14.6253 6 13.8889 6H10.1111C9.37473 6 8.77778 5.40305 8.77778 4.66667C8.77778 4.29848 8.4793 4 8.11111 4H8V2Z" fill="black"/>
<path fill-rule="evenodd" clip-rule="evenodd" d="M11.2929 9.29289C11.6834 8.90237 12.3166 8.90237 12.7071 9.29289L15.7071 12.2929C16.0976 12.6834 16.0976 13.3166 15.7071 13.7071C15.3166 14.0976 14.6834 14.0976 14.2929 13.7071L13 12.4142L13 16C13 16.5523 12.5523 17 12 17C11.4477 17 11 16.5523 11 16L11 12.4142L9.70711 13.7071C9.31658 14.0976 8.68342 14.0976 8.29289 13.7071C7.90237 13.3166 7.90237 12.6834 8.29289 12.2929L11.2929 9.29289Z" fill="black"/>
</svg>
