<svg width="24" height="24" viewBox="0 0 24 24" fill="none" xmlns="http://www.w3.org/2000/svg">
<path fill-rule="evenodd" clip-rule="evenodd" d="M12 2C12.5523 2 13 2.44772 13 3L13 6C13 6.55228 12.5523 7 12 7C11.4477 7 11 6.55228 11 6L11 3C11 2.44772 11.4477 2 12 2Z" fill="black"/>
<path fill-rule="evenodd" clip-rule="evenodd" d="M17 12C17 11.4477 17.4477 11 18 11H21C21.5523 11 22 11.4477 22 12C22 12.5523 21.5523 13 21 13H18C17.4477 13 17 12.5523 17 12Z" fill="black"/>
<path fill-rule="evenodd" clip-rule="evenodd" d="M12 22C11.4477 22 11 21.5523 11 21L11 18C11 17.4477 11.4477 17 12 17C12.5523 17 13 17.4477 13 18L13 21C13 21.5523 12.5523 22 12 22Z" fill="black"/>
<path fill-rule="evenodd" clip-rule="evenodd" d="M2 12C2 11.4477 2.44772 11 3 11L6 11C6.55228 11 7 11.4477 7 12C7 12.5523 6.55228 13 6 13L3 13C2.44772 13 2 12.5523 2 12Z" fill="black"/>
<path fill-rule="evenodd" clip-rule="evenodd" d="M4.92879 4.92894C5.31931 4.53842 5.95248 4.53842 6.343 4.92894L8.46432 7.05026C8.85484 7.44078 8.85484 8.07395 8.46432 8.46447C8.0738 8.855 7.44063 8.855 7.05011 8.46447L4.92879 6.34315C4.53826 5.95263 4.53826 5.31946 4.92879 4.92894Z" fill="black"/>
<path fill-rule="evenodd" clip-rule="evenodd" d="M19.0709 4.92894C19.4614 5.31946 19.4614 5.95263 19.0709 6.34315L16.9496 8.46447C16.5591 8.855 15.9259 8.855 15.5354 8.46447C15.1449 8.07395 15.1449 7.44079 15.5354 7.05026L17.6567 4.92894C18.0472 4.53842 18.6804 4.53842 19.0709 4.92894Z" fill="black"/>
<path fill-rule="evenodd" clip-rule="evenodd" d="M19.0712 19.071C18.6807 19.4616 18.0475 19.4616 17.657 19.071L15.5357 16.9497C15.1452 16.5592 15.1452 15.926 15.5357 15.5355C15.9262 15.145 16.5594 15.145 16.9499 15.5355L19.0712 17.6568C19.4617 18.0473 19.4617 18.6805 19.0712 19.071Z" fill="black"/>
<path fill-rule="evenodd" clip-rule="evenodd" d="M4.92906 19.071C4.53854 18.6805 4.53854 18.0473 4.92906 17.6568L7.05038 15.5355C7.44091 15.145 8.07407 15.145 8.4646 15.5355C8.85512 15.926 8.85512 16.5592 8.4646 16.9497L6.34328 19.071C5.95275 19.4616 5.31959 19.4616 4.92906 19.071Z" fill="black"/>
</svg>
