<svg width="24" height="24" viewBox="0 0 24 24" fill="none" xmlns="http://www.w3.org/2000/svg">
<path fill-rule="evenodd" clip-rule="evenodd" d="M10.7071 13.2929C11.0977 13.6834 11.0977 14.3166 10.7071 14.7071L6.41421 19H9.1429C9.69519 19 10.1429 19.4478 10.1429 20C10.1429 20.5523 9.69519 21 9.1429 21H4C3.44772 21 3 20.5523 3 20V14.8571C3 14.3049 3.44772 13.8571 4 13.8571C4.55228 13.8571 5 14.3049 5 14.8571V17.5858L9.29292 13.2929C9.68345 12.9024 10.3166 12.9024 10.7071 13.2929Z" fill="black"/>
<path fill-rule="evenodd" clip-rule="evenodd" d="M14 3.99998C14 3.4477 14.4477 2.99998 15 2.99998H20C20.5522 2.99998 21 3.4477 21 3.99998V8.99998C21 9.55227 20.5522 9.99998 20 9.99998C19.4477 9.99998 19 9.55227 19 8.99998V6.41421L14.7071 10.7071C14.3166 11.0976 13.6834 11.0976 13.2929 10.7071C12.9024 10.3166 12.9024 9.68341 13.2929 9.29289L17.5858 4.99998H15C14.4477 4.99998 14 4.55227 14 3.99998Z" fill="black"/>
</svg>
