<svg width="24" height="24" viewBox="0 0 24 24" fill="none" xmlns="http://www.w3.org/2000/svg">
<path fill-rule="evenodd" clip-rule="evenodd" d="M12 4C7.58172 4 4 7.58172 4 12C4 13.6921 4.52425 15.2588 5.41916 16.5503C5.71533 16.9778 5.78673 17.5484 5.55213 18.0532L4.64729 20H12C16.4183 20 20 16.4183 20 12C20 7.58172 16.4183 4 12 4ZM2 12C2 6.47715 6.47715 2 12 2C17.5228 2 22 6.47715 22 12C22 17.5228 17.5228 22 12 22H3.86159C2.72736 22 2.00986 20.7933 2.53406 19.8016L3.62175 17.4613C2.59621 15.8909 2 14.0137 2 12Z" fill="black"/>
<path fill-rule="evenodd" clip-rule="evenodd" d="M11.2929 8.29289C11.6834 7.90237 12.3166 7.90237 12.7071 8.29289L15.7071 11.2929C15.8946 11.4804 16 11.7348 16 12C16 12.2652 15.8946 12.5196 15.7071 12.7071L12.7071 15.7071C12.3166 16.0976 11.6834 16.0976 11.2929 15.7071C10.9024 15.3166 10.9024 14.6834 11.2929 14.2929L12.5858 13L9 13C8.44772 13 8 12.5523 8 12C8 11.4477 8.44772 11 9 11L12.5858 11L11.2929 9.70711C10.9024 9.31658 10.9024 8.68342 11.2929 8.29289Z" fill="black"/>
</svg>
