<svg width="24" height="24" viewBox="0 0 24 24" fill="none" xmlns="http://www.w3.org/2000/svg">
<path fill-rule="evenodd" clip-rule="evenodd" d="M20.7072 3.29289C21.0977 3.68342 21.0977 4.31658 20.7072 4.70711L16.4143 9.00004H19.143C19.6952 9.00004 20.143 9.44776 20.143 10C20.143 10.5523 19.6952 11 19.143 11H14.0001C13.4478 11 13.0001 10.5523 13.0001 10V4.85714C13.0001 4.30485 13.4478 3.85714 14.0001 3.85714C14.5523 3.85714 15.0001 4.30485 15.0001 4.85714V7.58583L19.293 3.29289C19.6835 2.90237 20.3167 2.90237 20.7072 3.29289Z" fill="black"/>
<path fill-rule="evenodd" clip-rule="evenodd" d="M3.99996 14C3.99996 13.4477 4.44768 13 4.99996 13H9.99996C10.5522 13 11 13.4477 11 14V19C11 19.5523 10.5522 20 9.99996 20C9.44768 20 8.99996 19.5523 8.99996 19V16.4142L4.70711 20.7071C4.31659 21.0976 3.68342 21.0976 3.2929 20.7071C2.90237 20.3166 2.90237 19.6834 3.29289 19.2929L7.58576 15H4.99996C4.44768 15 3.99996 14.5523 3.99996 14Z" fill="black"/>
</svg>
