<svg width="24" height="24" viewBox="0 0 24 24" fill="none" xmlns="http://www.w3.org/2000/svg">
<path fill-rule="evenodd" clip-rule="evenodd" d="M2 12C2 6.47715 6.47715 2 12 2C17.5228 2 22 6.47715 22 12C22 17.5228 17.5228 22 12 22C6.47715 22 2 17.5228 2 12ZM12 4C7.58172 4 4 7.58172 4 12C4 16.4183 7.58172 20 12 20C16.4183 20 20 16.4183 20 12C20 7.58172 16.4183 4 12 4Z" fill="black"/>
<path fill-rule="evenodd" clip-rule="evenodd" d="M10.7 8.00001C10.7 8.71798 11.282 9.30001 12 9.30001C12.7179 9.30001 13.3 8.71798 13.3 8.00001C13.3 7.28204 12.7179 6.70001 12 6.70001C11.282 6.70001 10.7 7.28204 10.7 8.00001Z" fill="black"/>
<path fill-rule="evenodd" clip-rule="evenodd" d="M10.7 16C10.7 16.718 11.282 17.3 12 17.3C12.7179 17.3 13.3 16.718 13.3 16C13.3 15.282 12.7179 14.7 12 14.7C11.282 14.7 10.7 15.282 10.7 16Z" fill="black"/>
<path fill-rule="evenodd" clip-rule="evenodd" d="M10.7 12C10.7 12.718 11.282 13.3 12 13.3C12.7179 13.3 13.3 12.718 13.3 12C13.3 11.282 12.7179 10.7 12 10.7C11.282 10.7 10.7 11.282 10.7 12Z" fill="black"/>
</svg>
