<svg width="24" height="24" viewBox="0 0 24 24" fill="none" xmlns="http://www.w3.org/2000/svg">
<path fill-rule="evenodd" clip-rule="evenodd" d="M18.4621 2.92548C20.2229 2.13616 22.0267 3.93998 21.2374 5.70077L14.7428 20.1887C13.7866 22.3218 10.7921 22.4133 9.70743 20.3426L8.11873 17.3096C7.83547 16.7689 7.394 16.3274 6.85325 16.0441L3.82027 14.4554C1.74958 13.3708 1.84108 10.3763 3.97414 9.42009L18.4621 2.92548ZM19.3384 4.73932C19.3318 4.73791 19.3157 4.7346 19.2802 4.7505L4.79225 11.2451C4.1828 11.5183 4.15666 12.3739 4.74829 12.6838L7.78127 14.2725C8.68252 14.7446 9.4183 15.4804 9.89039 16.3816L11.4791 19.4146C11.789 20.0062 12.6446 19.9801 12.9178 19.3706L19.4124 4.88266C19.4283 4.84719 19.425 4.8311 19.4235 4.82446C19.4208 4.81169 19.412 4.79121 19.3918 4.77104C19.3717 4.75087 19.3512 4.74203 19.3384 4.73932Z" fill="black"/>
</svg>
