<svg width="24" height="24" viewBox="0 0 24 24" fill="none" xmlns="http://www.w3.org/2000/svg">
<path fill-rule="evenodd" clip-rule="evenodd" d="M13.1715 3.41422C14.7336 1.85212 17.2663 1.85212 18.8284 3.41422C20.3905 4.97632 20.3905 7.50897 18.8284 9.07107L9.98957 17.9099C9.01326 18.8862 7.43035 18.8862 6.45403 17.9099C5.47772 16.9336 5.47772 15.3507 6.45403 14.3744L15.2929 5.53554C15.6834 5.14501 16.3166 5.14501 16.7071 5.53554C17.0976 5.92606 17.0976 6.55923 16.7071 6.94975L7.86825 15.7886C7.67299 15.9838 7.67299 16.3004 7.86825 16.4957C8.06351 16.691 8.38009 16.691 8.57536 16.4957L17.4142 7.65686C18.1952 6.87581 18.1952 5.60948 17.4142 4.82843C16.6331 4.04738 15.3668 4.04738 14.5858 4.82843L5.74693 13.6673C4.38009 15.0341 4.38009 17.2502 5.74693 18.617C7.11376 19.9838 9.32984 19.9838 10.6967 18.617L19.7929 9.52082C20.1834 9.1303 20.8166 9.1303 21.2071 9.52082C21.5976 9.91134 21.5976 10.5445 21.2071 10.935L12.1109 20.0312C9.96301 22.1791 6.4806 22.1791 4.33271 20.0312C2.18483 17.8833 2.18483 14.4009 4.33271 12.2531L13.1715 3.41422Z" fill="black"/>
</svg>
