<svg width="24" height="24" viewBox="0 0 24 24" fill="none" xmlns="http://www.w3.org/2000/svg">
<path fill-rule="evenodd" clip-rule="evenodd" d="M2 7C2 4.23858 4.23858 2 7 2H17C19.7614 2 22 4.23858 22 7V17C22 19.7614 19.7614 22 17 22H7C4.23858 22 2 19.7614 2 17V7ZM7 4C5.34315 4 4 5.34315 4 7V17C4 18.6569 5.34315 20 7 20H17C18.6569 20 20 18.6569 20 17V7C20 5.34315 18.6569 4 17 4H7Z" fill="black"/>
<path fill-rule="evenodd" clip-rule="evenodd" d="M10 9C10.5523 9 11 9.44772 11 10V14C11 14.5523 10.5523 15 10 15C9.44772 15 9 14.5523 9 14L9 10C9 9.44772 9.44772 9 10 9ZM14 9C14.5523 9 15 9.44772 15 10V14C15 14.5523 14.5523 15 14 15C13.4477 15 13 14.5523 13 14V10C13 9.44772 13.4477 9 14 9Z" fill="black"/>
</svg>
