<svg width="24" height="24" viewBox="0 0 24 24" fill="none" xmlns="http://www.w3.org/2000/svg">
<path fill-rule="evenodd" clip-rule="evenodd" d="M15.7071 8.29289C16.0976 8.68342 16.0976 9.31658 15.7071 9.70711L9.70711 15.7071C9.31658 16.0976 8.68342 16.0976 8.29289 15.7071C7.90237 15.3166 7.90237 14.6834 8.29289 14.2929L14.2929 8.29289C14.6834 7.90237 15.3166 7.90237 15.7071 8.29289Z" fill="black"/>
<path d="M16 14.5C16 15.3284 15.3284 16 14.5 16C13.6716 16 13 15.3284 13 14.5C13 13.6716 13.6716 13 14.5 13C15.3284 13 16 13.6716 16 14.5Z" fill="black"/>
<path d="M11 9.5C11 10.3284 10.3284 11 9.5 11C8.67157 11 8 10.3284 8 9.5C8 8.67157 8.67157 8 9.5 8C10.3284 8 11 8.67157 11 9.5Z" fill="black"/>
<path fill-rule="evenodd" clip-rule="evenodd" d="M9.33485 3.04043C10.8528 1.68408 13.1473 1.68408 14.6652 3.04043L14.9069 3.25638C15.2447 3.55821 15.675 3.73643 16.1273 3.76186L16.4508 3.78005C18.4833 3.89432 20.1057 5.51677 20.22 7.54921L20.2382 7.8728C20.2636 8.32509 20.4418 8.75534 20.7437 9.09313L20.9596 9.33481C22.316 10.8528 22.316 13.1473 20.9596 14.6652L20.7437 14.9069C20.4418 15.2447 20.2636 15.6749 20.2382 16.1272L20.22 16.4508C20.1057 18.4833 18.4833 20.1057 16.4508 20.22L16.1273 20.2382C15.675 20.2636 15.2447 20.4418 14.9069 20.7436L14.6652 20.9596C13.1473 22.316 10.8528 22.316 9.33484 20.9596L9.09316 20.7436C8.75537 20.4418 8.32512 20.2636 7.87283 20.2382L7.54924 20.22C5.5168 20.1057 3.89435 18.4833 3.78008 16.4508L3.76189 16.1272C3.73646 15.6749 3.55824 15.2447 3.25641 14.9069L3.04046 14.6652C1.68411 13.1473 1.68411 10.8528 3.04046 9.33482L3.25641 9.09313C3.55824 8.75534 3.73646 8.32509 3.76189 7.8728L3.78008 7.54921C3.89435 5.51677 5.5168 3.89432 7.54924 3.78005L7.87283 3.76186C8.32512 3.73643 8.75537 3.55821 9.09316 3.25638L9.33485 3.04043ZM13.3326 4.53179C12.5737 3.85362 11.4264 3.85362 10.6674 4.53179L10.4258 4.74775C9.75018 5.35141 8.88967 5.70784 7.9851 5.7587L7.6615 5.77689C6.64529 5.83403 5.83406 6.64526 5.77693 7.66147L5.75873 7.98507C5.70788 8.88964 5.35144 9.75015 4.74778 10.4257L4.53183 10.6674C3.85365 11.4264 3.85365 12.5736 4.53182 13.3326L4.74778 13.5743C5.35144 14.2499 5.70788 15.1104 5.75873 16.015L5.77693 16.3386C5.83406 17.3548 6.64529 18.166 7.66151 18.2231L7.9851 18.2413C8.88967 18.2922 9.75017 18.6486 10.4258 19.2523L10.6674 19.4682C11.4264 20.1464 12.5737 20.1464 13.3326 19.4682L13.5743 19.2523C14.2499 18.6486 15.1104 18.2922 16.015 18.2413L16.3386 18.2231C17.3548 18.166 18.166 17.3548 18.2232 16.3385L18.2414 16.015C18.2922 15.1104 18.6486 14.2499 19.2523 13.5743L19.4683 13.3326C20.1464 12.5736 20.1464 11.4264 19.4683 10.6674L19.2523 10.4257C18.6486 9.75014 18.2922 8.88964 18.2414 7.98507L18.2232 7.66147C18.166 6.64526 17.3548 5.83403 16.3386 5.77689L16.015 5.7587C15.1104 5.70784 14.2499 5.35141 13.5743 4.74775L13.3326 4.53179Z" fill="black"/>
</svg>
