<svg width="24" height="24" viewBox="0 0 24 24" fill="none" xmlns="http://www.w3.org/2000/svg">
<path fill-rule="evenodd" clip-rule="evenodd" d="M14.7142 3.99994C14.7142 3.44765 15.1619 2.99994 15.7142 2.99994H20C20.5523 2.99994 21 3.44765 21 3.99994V8.28571C21 8.83799 20.5523 9.28571 20 9.28571C19.4477 9.28571 19 8.83799 19 8.28571V6.41415L15.707 9.70711C15.3165 10.0976 14.6834 10.0976 14.2928 9.70711C13.9023 9.31658 13.9023 8.68342 14.2928 8.29289L17.5858 4.99994H15.7142C15.1619 4.99994 14.7142 4.55222 14.7142 3.99994Z" fill="black"/>
<path fill-rule="evenodd" clip-rule="evenodd" d="M4.96833 5.21546C7.38653 4.40887 9.83018 5.92363 10.5089 8.37608C10.9715 10.0472 10.5334 11.7995 9.46531 12.9994C9.68407 13.2828 9.92311 13.5552 10.1826 13.8149C10.4408 14.0733 10.7116 14.3114 10.9932 14.5295C12.1926 13.4529 13.9502 13.0099 15.6262 13.4745C18.0782 14.1541 19.5901 16.5997 18.7848 19.0178C18.2564 20.6043 17.2711 21.5683 15.9571 21.8856C14.7361 22.1804 13.4196 21.867 12.2585 21.3843C9.91992 20.4122 7.61074 18.4973 6.55613 17.4419C5.47664 16.3616 3.57003 14.0491 2.60671 11.7149C2.12834 10.5559 1.82033 9.24425 2.11584 8.02886C2.43378 6.72127 3.39283 5.74093 4.96833 5.21546ZM8.58141 8.90955C8.16872 7.41847 6.79749 6.71367 5.60116 7.1127C4.54956 7.46344 4.18482 7.98482 4.05922 8.50138C3.91121 9.11013 4.03992 9.94512 4.45545 10.952C5.27992 12.9497 6.9898 15.0464 7.97088 16.0282C8.92821 16.9863 11.0228 18.7047 13.0262 19.5376C14.0361 19.9574 14.8752 20.0894 15.4876 19.9415C16.007 19.8161 16.5331 19.4492 16.8872 18.3858C17.2866 17.1867 16.5807 15.8144 15.092 15.4018C13.9841 15.0947 12.8451 15.4505 12.1672 16.1765C11.7294 16.6453 10.895 16.9126 10.1851 16.417C9.68553 16.0684 9.21113 15.6721 8.76787 15.2285C8.3239 14.7842 7.92751 14.3087 7.57877 13.8081C7.08635 13.1011 7.3491 12.27 7.81452 11.8312C8.53515 11.1518 8.88742 10.0152 8.58141 8.90955Z" fill="black"/>
</svg>
