<svg width="24" height="24" viewBox="0 0 24 24" fill="none" xmlns="http://www.w3.org/2000/svg">
<path fill-rule="evenodd" clip-rule="evenodd" d="M11.5209 14.1522C12.7391 13.0518 14.5303 12.5976 16.238 13.0706C18.728 13.7603 20.2626 16.2414 19.4451 18.6942C18.9079 20.3058 17.9077 21.282 16.576 21.6033C15.3373 21.9022 14 21.5847 12.8177 21.0936C10.4368 20.1046 8.08466 18.1558 7.01038 17.0815L8.42459 15.6673C9.40153 16.6442 11.5391 18.3968 13.5849 19.2466C14.616 19.6749 15.4763 19.8113 16.1069 19.6591C16.6444 19.5294 17.1851 19.1498 17.5477 18.0618C17.9584 16.8294 17.2318 15.4212 15.7042 14.9981C14.5674 14.6832 13.3985 15.0479 12.7024 15.7928L12.5 14.5M12.5 14.5L12.7024 15.7928C12.2611 16.2651 11.4213 16.5331 10.7075 16.0352C10.1992 15.6806 9.7164 15.2777 9.26528 14.8266L10.6795 13.4124C10.9474 13.6803 11.2285 13.9268 11.5209 14.1522" fill="black"/>
<path fill-rule="evenodd" clip-rule="evenodd" d="M21.7071 2.29289C22.0976 2.68342 22.0976 3.31658 21.7071 3.70711L3.70711 21.7071C3.31658 22.0976 2.68342 22.0976 2.29289 21.7071C1.90237 21.3166 1.90237 20.6834 2.29289 20.2929L20.2929 2.29289C20.6834 1.90237 21.3166 1.90237 21.7071 2.29289Z" fill="black"/>
<path fill-rule="evenodd" clip-rule="evenodd" d="M5.3839 4.65636C7.83664 3.83888 10.3177 5.37345 11.0074 7.86337C11.1068 8.22232 11.1652 8.5846 11.1853 8.944C11.2163 9.49542 10.7943 9.96751 10.2429 9.99844C9.69151 10.0294 9.21942 9.60743 9.18849 9.05602C9.17622 8.83722 9.14068 8.61646 9.07996 8.39723M5.3839 4.65636C4.34242 5.00347 3.54445 5.54995 3.02665 6.30001C2.50872 7.05025 2.33946 7.90511 2.37538 8.74441C2.44491 10.3692 3.28878 12.1073 4.19756 13.5366C4.49389 14.0026 5.11193 14.1402 5.57798 13.8439C6.04403 13.5475 6.18161 12.9295 5.88528 12.4634C5.02253 11.1066 4.41978 9.73917 4.37355 8.65891C4.35159 8.14571 4.45718 7.74821 4.67254 7.43625C4.88802 7.12411 5.28181 6.79854 6.01626 6.55376C7.2486 6.14302 8.65685 6.86964 9.07996 8.39723" fill="black"/>
</svg>
