<svg width="24" height="24" viewBox="0 0 24 24" fill="none" xmlns="http://www.w3.org/2000/svg">
<path fill-rule="evenodd" clip-rule="evenodd" d="M12 5C8.13401 5 5 8.13401 5 12C5 15.866 8.13401 19 12 19C15.866 19 19 15.866 19 12H21C21 16.9706 16.9706 21 12 21C7.02944 21 3 16.9706 3 12C3 7.02944 7.02944 3 12 3V5Z" fill="black"/>
<path fill-rule="evenodd" clip-rule="evenodd" d="M11 4C11 2.92943 11.8926 1.92597 13.1088 2.06166C14.0414 2.16571 14.9565 2.4007 15.8268 2.7612C17.0401 3.26375 18.1425 4.00034 19.0711 4.92893C19.9997 5.85751 20.7362 6.95991 21.2388 8.17316C21.5993 9.04348 21.8343 9.95861 21.9383 10.8912C22.074 12.1074 21.0706 13 20 13L13 13C11.8954 13 11 12.1046 11 11L11 4ZM13 4.06274V11L19.9373 11C19.8482 10.293 19.6649 9.59961 19.391 8.93853C18.989 7.96792 18.3997 7.08601 17.6569 6.34314C16.914 5.60027 16.0321 5.011 15.0615 4.60896C14.4004 4.33513 13.707 4.15181 13 4.06274Z" fill="black"/>
</svg>
