<svg width="24" height="24" viewBox="0 0 24 24" fill="none" xmlns="http://www.w3.org/2000/svg">
<path fill-rule="evenodd" clip-rule="evenodd" d="M9.94284 3.17887C10.1269 3.69958 9.85396 4.27091 9.33325 4.45495C6.22472 5.55366 4 8.51831 4 12C4 16.4183 7.58172 20 12 20C15.4931 20 18.4658 17.7606 19.5558 14.6361C19.7377 14.1146 20.3079 13.8394 20.8294 14.0213C21.3508 14.2032 21.6261 14.7734 21.4442 15.2949C20.0827 19.1976 16.3699 22 12 22C6.47715 22 2 17.5228 2 12C2 7.64437 4.78413 3.94158 8.66675 2.56927C9.18747 2.38523 9.75879 2.65815 9.94284 3.17887Z" fill="black"/>
<path fill-rule="evenodd" clip-rule="evenodd" d="M11 4C11 2.92943 11.8926 1.92597 13.1088 2.06166C14.0414 2.16571 14.9565 2.4007 15.8268 2.7612C17.0401 3.26375 18.1425 4.00034 19.0711 4.92893C19.9997 5.85751 20.7362 6.95991 21.2388 8.17316C21.5993 9.04348 21.8343 9.95861 21.9383 10.8912C22.074 12.1074 21.0706 13 20 13L13 13C11.8954 13 11 12.1046 11 11L11 4ZM13 4.06274V11L19.9373 11C19.8482 10.293 19.6649 9.59961 19.391 8.93853C18.989 7.96792 18.3997 7.08601 17.6569 6.34314C16.914 5.60027 16.0321 5.011 15.0615 4.60896C14.4004 4.33513 13.707 4.15181 13 4.06274Z" fill="black"/>
</svg>
