<svg width="24" height="24" viewBox="0 0 24 24" fill="none" xmlns="http://www.w3.org/2000/svg">
<path fill-rule="evenodd" clip-rule="evenodd" d="M18.6205 2.65347C20.2046 2.20086 21.6692 3.66545 21.2166 5.24959L17.217 19.2483C16.5503 21.5817 13.4334 22.02 12.149 19.9609L9.35159 15.4762C9.10954 15.0881 8.78196 14.7606 8.39391 14.5185L3.90916 11.7211C1.85011 10.4367 2.28841 7.31978 4.62182 6.6531L18.6205 2.65347ZM19.2226 4.57404C19.2124 4.57119 19.1969 4.56882 19.1699 4.57652L5.17126 8.57614C4.50457 8.76663 4.37934 9.65718 4.96764 10.0241L9.4524 12.8216C10.0992 13.225 10.6451 13.7709 11.0485 14.4177L13.846 18.9024C14.2129 19.4907 15.1035 19.3655 15.2939 18.6988L19.2936 4.70014C19.3013 4.6732 19.2989 4.65772 19.2961 4.64752C19.2923 4.63412 19.2836 4.61746 19.2681 4.60196C19.2526 4.58646 19.236 4.57777 19.2226 4.57404Z" fill="black"/>
<path fill-rule="evenodd" clip-rule="evenodd" d="M14.435 9.43501C14.8255 9.82554 14.8255 10.4587 14.435 10.8492L10.8995 14.3848C10.509 14.7753 9.8758 14.7753 9.48528 14.3848C9.09475 13.9942 9.09475 13.3611 9.48528 12.9705L13.0208 9.43501C13.4113 9.04449 14.0445 9.04449 14.435 9.43501Z" fill="black"/>
</svg>
