<svg width="24" height="24" viewBox="0 0 24 24" fill="none" xmlns="http://www.w3.org/2000/svg">
<path fill-rule="evenodd" clip-rule="evenodd" d="M3 16L8.96685 16C9.51914 16 9.96685 16.4477 9.96685 17C9.96685 17.5523 9.51914 18 8.96685 18L3 18C2.44772 18 2 17.5523 2 17C2 16.4477 2.44772 16 3 16Z" fill="black"/>
<path fill-rule="evenodd" clip-rule="evenodd" d="M14 7C14 6.44772 14.4477 6 15 6H21C21.5523 6 22 6.44772 22 7C22 7.55228 21.5523 8 21 8H15C14.4477 8 14 7.55228 14 7Z" fill="black"/>
<path fill-rule="evenodd" clip-rule="evenodd" d="M2 7C2 6.44772 2.44772 6 3 6H3.01C3.56228 6 4.01 6.44772 4.01 7C4.01 7.55228 3.56228 8 3.01 8H3C2.44772 8 2 7.55228 2 7Z" fill="black"/>
<path fill-rule="evenodd" clip-rule="evenodd" d="M20 17C20 16.4477 20.4477 16 21 16H21.01C21.5623 16 22.01 16.4477 22.01 17C22.01 17.5523 21.5623 18 21.01 18H21C20.4477 18 20 17.5523 20 17Z" fill="black"/>
<path fill-rule="evenodd" clip-rule="evenodd" d="M14.9337 15C13.8435 15 12.9503 15.8902 12.9503 17C12.9503 18.1098 13.8435 19 14.9337 19C16.0239 19 16.9171 18.1098 16.9171 17C16.9171 15.8902 16.0239 15 14.9337 15ZM10.9503 17C10.9503 14.7961 12.7285 13 14.9337 13C17.1389 13 18.9171 14.7961 18.9171 17C18.9171 19.2039 17.1389 21 14.9337 21C12.7285 21 10.9503 19.2039 10.9503 17Z" fill="black"/>
<path fill-rule="evenodd" clip-rule="evenodd" d="M8.96685 5C7.87665 5 6.98343 5.8902 6.98343 7C6.98343 8.1098 7.87665 9 8.96685 9C10.0571 9 10.9503 8.1098 10.9503 7C10.9503 5.8902 10.0571 5 8.96685 5ZM4.98343 7C4.98343 4.79609 6.76165 3 8.96685 3C11.1721 3 12.9503 4.79609 12.9503 7C12.9503 9.20391 11.1721 11 8.96685 11C6.76165 11 4.98343 9.20391 4.98343 7Z" fill="black"/>
</svg>
