<svg width="24" height="24" viewBox="0 0 24 24" fill="none" xmlns="http://www.w3.org/2000/svg">
<path fill-rule="evenodd" clip-rule="evenodd" d="M2 7C2 4.23858 4.23858 2 7 2H17C19.7614 2 22 4.23858 22 7V17C22 19.7614 19.7614 22 17 22H7C4.23858 22 2 19.7614 2 17V7ZM7 4C5.34315 4 4 5.34315 4 7V17C4 18.6569 5.34315 20 7 20H17C18.6569 20 20 18.6569 20 17V7C20 5.34315 18.6569 4 17 4H7Z" fill="black"/>
<path fill-rule="evenodd" clip-rule="evenodd" d="M10.7148 7.19621C11.2978 6.22748 12.7022 6.22748 13.2852 7.19621L14.2842 8.85611L16.1715 9.29323C17.273 9.54833 17.707 10.884 16.9658 11.7378L15.6958 13.2008L15.8633 15.1309C15.9611 16.2573 14.8249 17.0828 13.7838 16.6418L12 15.886L10.2162 16.6418C9.17512 17.0828 8.0389 16.2573 8.13665 15.1309L8.30416 13.2008L7.03419 11.7378C6.29302 10.884 6.72702 9.54833 7.82849 9.29323L9.71584 8.85612L10.7148 7.19621ZM12 8.93934L11.3202 10.0689C11.1108 10.4169 10.7692 10.6651 10.3735 10.7567L9.08915 11.0542L9.95335 12.0497C10.2196 12.3565 10.3501 12.7581 10.315 13.1627L10.201 14.4761L11.4149 13.9618C11.7889 13.8034 12.2111 13.8034 12.5851 13.9618L13.799 14.4761L13.685 13.1627C13.6499 12.7581 13.7804 12.3565 14.0466 12.0497L14.9108 11.0542L13.6265 10.7567C13.2308 10.6651 12.8892 10.4169 12.6798 10.0689L12 8.93934Z" fill="black"/>
</svg>
