<svg width="24" height="24" viewBox="0 0 24 24" fill="none" xmlns="http://www.w3.org/2000/svg">
<path fill-rule="evenodd" clip-rule="evenodd" d="M10.2864 3.90809C11.0637 2.61645 12.9363 2.61645 13.7136 3.90809L15.6008 7.04394L19.1663 7.86972C20.635 8.20986 21.2136 9.9908 20.2254 11.1292L17.8262 13.8931L18.1427 17.5393C18.273 19.0411 16.758 20.1418 15.37 19.5537L12 18.126L8.63005 19.5537C7.24198 20.1418 5.72702 19.0411 5.85736 17.5393L6.1738 13.8931L3.77461 11.1292C2.78639 9.9908 3.36506 8.20986 4.83368 7.86972L8.39922 7.04394L10.2864 3.90809ZM12 4.93936L10.1128 8.07521C9.83358 8.53923 9.37808 8.87017 8.85048 8.99236L5.28494 9.81815L7.68414 12.582C8.03916 12.991 8.21314 13.5264 8.16631 14.066L7.84987 17.7122L11.2198 16.2845C11.7185 16.0732 12.2815 16.0732 12.7802 16.2845L16.1502 17.7122L15.8337 14.066C15.7869 13.5264 15.9609 12.991 16.3159 12.582L18.7151 9.81815L15.1496 8.99236C14.6219 8.87017 14.1664 8.53923 13.8872 8.07521L12 4.93936Z" fill="black"/>
</svg>
