<svg width="24" height="24" viewBox="0 0 24 24" fill="none" xmlns="http://www.w3.org/2000/svg">
<path fill-rule="evenodd" clip-rule="evenodd" d="M4 5C4 4.44772 4.44772 4 5 4H19C19.5523 4 20 4.44772 20 5C20 5.55228 19.5523 6 19 6H5C4.44772 6 4 5.55228 4 5Z" fill="black"/>
<path fill-rule="evenodd" clip-rule="evenodd" d="M8.77778 3.33333C8.77778 2.59695 9.37473 2 10.1111 2L13.8889 2C14.6253 2 15.2222 2.59695 15.2222 3.33333C15.2222 3.70152 15.5207 4 15.8889 4H16V6H15.8889C14.6463 6 13.6023 5.15015 13.3062 4L10.6938 4C10.3977 5.15015 9.35367 6 8.11111 6H8V4L8.11111 4C8.4793 4 8.77778 3.70152 8.77778 3.33333Z" fill="black"/>
<path fill-rule="evenodd" clip-rule="evenodd" d="M5.91695 8.00345C6.46733 7.95758 6.95068 8.36657 6.99654 8.91695L7.7673 18.1661C7.85368 19.2027 8.72022 20 9.76039 20H10.5C11.0523 20 11.5 20.4477 11.5 21C11.5 21.5523 11.0523 22 10.5 22H9.76039C7.68004 22 5.94697 20.4053 5.77421 18.3322L5.00345 9.08304C4.95758 8.53266 5.36657 8.04931 5.91695 8.00345ZM18.083 8.00345C18.6334 8.04931 19.0424 8.53266 18.9965 9.08304L18.7557 11.9734C18.7098 12.5238 18.2265 12.9328 17.6761 12.8869C17.1257 12.841 16.7167 12.3577 16.7626 11.8073L17.0034 8.91695C17.0493 8.36657 17.5327 7.95758 18.083 8.00345Z" fill="black"/>
<path fill-rule="evenodd" clip-rule="evenodd" d="M16 16C14.8954 16 14 16.8954 14 18C14 19.1046 14.8954 20 16 20C17.1046 20 18 19.1046 18 18C18 16.8954 17.1046 16 16 16ZM12 18C12 15.7909 13.7909 14 16 14C18.2091 14 20 15.7909 20 18C20 20.2091 18.2091 22 16 22C13.7909 22 12 20.2091 12 18Z" fill="black"/>
</svg>
