<svg width="24" height="24" viewBox="0 0 24 24" fill="none" xmlns="http://www.w3.org/2000/svg">
<path fill-rule="evenodd" clip-rule="evenodd" d="M12 4C10.3431 4 9 5.34315 9 7C9 8.65685 10.3431 10 12 10C13.6569 10 15 8.65685 15 7C15 5.34315 13.6569 4 12 4ZM7 7C7 4.23858 9.23858 2 12 2C14.7614 2 17 4.23858 17 7C17 9.76142 14.7614 12 12 12C9.23858 12 7 9.76142 7 7Z" fill="black"/>
<path fill-rule="evenodd" clip-rule="evenodd" d="M12 20C9.07118 20 7.33466 19.1139 6.33542 17.9708C6.03095 17.6225 5.9516 17.3163 5.9608 17.0651C5.97062 16.7971 6.08647 16.487 6.34726 16.1692C6.88293 15.5164 7.90136 15 9.00004 15H15C16.0987 15 17.1172 15.5164 17.6528 16.1692C17.9136 16.487 18.0295 16.7971 18.0393 17.0651C18.0485 17.3163 17.9691 17.6225 17.6647 17.9708C16.6654 19.1139 14.9289 20 12 20ZM4.82962 19.2871C6.30218 20.9716 8.65331 22 12 22C15.3468 22 17.6979 20.9716 19.1705 19.2871C19.7747 18.5958 20.0677 17.8036 20.0379 16.9919C20.0088 16.1971 19.6745 15.48 19.1989 14.9004C18.2618 13.7585 16.6628 13 15 13H9.00004C7.33729 13 5.73827 13.7585 4.80119 14.9004C4.32559 15.48 3.99125 16.1971 3.96214 16.9919C3.93241 17.8036 4.2254 18.5958 4.82962 19.2871Z" fill="black"/>
</svg>
