<svg width="24" height="24" viewBox="0 0 24 24" fill="none" xmlns="http://www.w3.org/2000/svg">
<path fill-rule="evenodd" clip-rule="evenodd" d="M7.04346 5.74604C7.99337 4.63781 9.38012 4 10.8397 4H11C12.6569 4 14 5.34315 14 7V17C14 18.6569 12.6569 20 11 20H10.8397C9.38012 20 7.99337 19.3622 7.04346 18.254L6.92054 18.1106C6.62705 17.7681 6.22645 17.535 5.78377 17.4489L5.23652 17.3425C3.35696 16.977 2 15.3308 2 13.416V10.584C2 8.6692 3.35695 7.02297 5.23652 6.6575L5.78377 6.55109C6.22645 6.46502 6.62705 6.23185 6.92054 5.88945L7.04346 5.74604ZM10.8397 6C9.96396 6 9.13192 6.38269 8.56197 7.04763L8.43905 7.19103C7.85207 7.87584 7.05087 8.34217 6.1655 8.51433L5.61826 8.62073C4.67848 8.80347 4 9.62658 4 10.584V13.416C4 14.3734 4.67848 15.1965 5.61826 15.3793L6.1655 15.4857C7.05087 15.6578 7.85207 16.1242 8.43905 16.809L8.56197 16.9524C9.13192 17.6173 9.96397 18 10.8397 18H11C11.5523 18 12 17.5523 12 17V7C12 6.44772 11.5523 6 11 6H10.8397Z" fill="black"/>
</svg>
